M48
<<<<<<< HEAD
<<<<<<< HEAD
; DRILL file {KiCad 8.0.1} date 2024-03-31T21:51:27+0800
; FORMAT={-:-/ absolute / inch / decimal}
; #@! TF.CreationDate,2024-03-31T21:51:27+08:00
=======
; DRILL file {KiCad 8.0.1} date 2024-05-01T16:23:48+0800
; FORMAT={-:-/ absolute / inch / decimal}
; #@! TF.CreationDate,2024-05-01T16:23:48+08:00
>>>>>>> 3f97a153d958220e151b39468fc548032aad0f0d
; #@! TF.GenerationSoftware,Kicad,Pcbnew,8.0.1
=======
; DRILL file {KiCad 8.0.2} date 2024-06-01T19:30:18+0800
; FORMAT={-:-/ absolute / inch / decimal}
; #@! TF.CreationDate,2024-06-01T19:30:18+08:00
; #@! TF.GenerationSoftware,Kicad,Pcbnew,8.0.2
>>>>>>> eaa2527d7fae1c756caf7d441742e50d50757b73
; #@! TF.FileFunction,Plated,1,2,PTH
FMAT,2
INCH
; #@! TA.AperFunction,Plated,PTH,ViaDrill
<<<<<<< HEAD
T1C0.0118
; #@! TA.AperFunction,Plated,PTH,ViaDrill
T2C0.0236
; #@! TA.AperFunction,Plated,PTH,ComponentDrill
T3C0.0394
; #@! TA.AperFunction,Plated,PTH,ComponentDrill
T4C0.0984
; #@! TA.AperFunction,Plated,PTH,ComponentDrill
T5C0.1181
=======
T1C0.0098
; #@! TA.AperFunction,Plated,PTH,ViaDrill
T2C0.0118
; #@! TA.AperFunction,Plated,PTH,ComponentDrill
T3C0.0157
; #@! TA.AperFunction,Plated,PTH,ComponentDrill
T4C0.0866
>>>>>>> 3f97a153d958220e151b39468fc548032aad0f0d
%
G90
G05
T1
<<<<<<< HEAD
<<<<<<< HEAD
X5.3543Y-2.9134
T2
X4.6885Y-2.5745
X4.7638Y-2.6378
X4.7841Y-3.2319
X4.8614Y-3.1102
X5.7283Y-2.7756
X6.2008Y-3.1102
X6.2008Y-3.189
T3
X5.2618Y-2.1063
X5.3618Y-2.1063
X5.4618Y-2.1063
X5.5618Y-2.1063
X5.6618Y-2.1063
X5.7618Y-2.1063
X6.3179Y-3.1159
X6.3179Y-3.2159
X6.3179Y-3.3159
X6.3268Y-2.4906
X6.3268Y-2.5906
X6.3268Y-2.6906
T5
X4.7874Y-3.7323
X4.7953Y-2.1969
X6.2559Y-3.7323
X6.2598Y-2.189
T4
G00X4.9498Y-2.9016
M15
G01X5.1663Y-2.9016
M16
G05
G00X5.5433Y-2.3081
M15
G01X5.5433Y-2.5246
M16
G05
G00X5.5433Y-3.2776
M15
G01X5.5433Y-3.4941
M16
G05
G00X5.9193Y-2.8898
M15
G01X6.1358Y-2.8898
M16
G05
=======
X7.9646Y-2.9159
X7.9646Y-2.9543
X7.988Y-2.8659
=======
X7.827Y-2.9486
X7.8957Y-2.9852
X7.935Y-2.9852
>>>>>>> eaa2527d7fae1c756caf7d441742e50d50757b73
T2
X7.8379Y-2.8942
X7.9872Y-3.0159
T3
X7.4272Y-2.9409
X7.4462Y-2.895
X7.4462Y-2.9869
X7.4921Y-2.876
X7.4921Y-3.0059
X7.5381Y-2.895
X7.5381Y-2.9869
X7.5571Y-2.9409
X8.2146Y-2.9409
X8.2336Y-2.895
X8.2336Y-2.9869
X8.2795Y-2.876
X8.2795Y-3.0059
X8.3255Y-2.895
X8.3255Y-2.9869
X8.3445Y-2.9409
T4
X7.4921Y-2.9409
X8.2795Y-2.9409
>>>>>>> 3f97a153d958220e151b39468fc548032aad0f0d
M30
