%TF.GenerationSoftware,KiCad,Pcbnew,8.0.1*%
<<<<<<< HEAD
%TF.CreationDate,2024-03-31T21:51:30+08:00*%
=======
%TF.CreationDate,2024-05-01T16:23:51+08:00*%
>>>>>>> 3f97a153d958220e151b39468fc548032aad0f0d
%TF.ProjectId,encoder,656e636f-6465-4722-9e6b-696361645f70,rev?*%
%TF.SameCoordinates,Original*%
%TF.FileFunction,Profile,NP*%
%FSLAX46Y46*%
G04 Gerber Fmt 4.6, Leading zero omitted, Abs format (unit mm)*
<<<<<<< HEAD
G04 Created by KiCad (PCBNEW 8.0.1) date 2024-03-31 21:51:30*
=======
G04 Created by KiCad (PCBNEW 8.0.1) date 2024-05-01 16:23:51*
>>>>>>> 3f97a153d958220e151b39468fc548032aad0f0d
%MOMM*%
%LPD*%
G01*
G04 APERTURE LIST*
%TA.AperFunction,Profile*%
<<<<<<< HEAD
%ADD10C,0.100000*%
%TD*%
G04 APERTURE END LIST*
D10*
X118100000Y-55100000D02*
G75*
G02*
X121100000Y-52100000I3000000J0D01*
G01*
X162500000Y-95400000D02*
G75*
G02*
X159500000Y-98400000I-3000000J0D01*
G01*
X159500000Y-98400000D02*
X121100000Y-98400000D01*
X121100000Y-98400000D02*
G75*
G02*
X118100000Y-95400000I0J3000000D01*
G01*
X159500000Y-52100000D02*
G75*
G02*
X162500000Y-55100000I0J-3000000D01*
G01*
X118100000Y-95400000D02*
X118100000Y-55100000D01*
X121100000Y-52100000D02*
X159500000Y-52100000D01*
X162500000Y-55100000D02*
X162500000Y-95400000D01*
=======
%ADD10C,0.200000*%
%TD*%
G04 APERTURE END LIST*
D10*
X184900000Y-73850000D02*
X198342121Y-68165857D01*
X198342121Y-81376241D02*
X184900000Y-75692098D01*
X215678950Y-75692098D02*
X202236829Y-81376242D01*
X215678946Y-73850010D02*
G75*
G02*
X215678911Y-75692005I-389446J-920990D01*
G01*
X215678946Y-73850010D02*
X215678950Y-73850000D01*
X202236829Y-68165857D02*
X215678950Y-73850000D01*
X184900004Y-75692088D02*
X184900000Y-75692098D01*
X184900004Y-75692088D02*
G75*
G02*
X184899969Y-73849927I389496J921088D01*
G01*
X202236829Y-81376242D02*
G75*
G02*
X198342128Y-81376224I-1947329J4605142D01*
G01*
X215678946Y-75692088D02*
X215678950Y-75692098D01*
X184900004Y-73850010D02*
X184900000Y-73850000D01*
X198342121Y-68165858D02*
G75*
G02*
X202236829Y-68165858I1947354J-4605167D01*
G01*
>>>>>>> 3f97a153d958220e151b39468fc548032aad0f0d
M02*
