M48
; DRILL file {KiCad 8.0.2} date 2024-05-01T20:18:55+0800
; FORMAT={-:-/ absolute / inch / decimal}
; #@! TF.CreationDate,2024-05-01T20:18:55+08:00
; #@! TF.GenerationSoftware,Kicad,Pcbnew,8.0.2
; #@! TF.FileFunction,Plated,3,4,Blind
FMAT,2
INCH
; #@! TA.AperFunction,Plated,Buried,ViaDrill
T1C0.0098
; #@! TA.AperFunction,Plated,Buried,ViaDrill
T2C0.0118
; #@! TA.AperFunction,Plated,Buried,ViaDrill
T3C0.0157
; #@! TA.AperFunction,Plated,Buried,ViaDrill
T4C0.0236
%
G90
G05
T1
X1.4567Y-2.5827
X1.4567Y-2.6024
X1.4606Y-2.4961
X1.4622Y-1.6449
X1.4764Y-2.5827
X1.4764Y-2.6024
X1.4803Y-2.4961
X1.4882Y-2.1496
X1.4889Y-2.1282
X1.4921Y-1.9567
X1.4921Y-2.0157
X1.4921Y-2.0354
X1.5Y-1.6843
X1.5Y-1.9331
X1.5079Y-2.1496
X1.5086Y-2.1282
X1.5118Y-1.9567
X1.5118Y-2.0157
X1.5118Y-2.0354
X1.5197Y-1.9331
X1.5552Y-2.2024
X1.5945Y-2.2874
X1.5945Y-2.3071
X1.5945Y-2.3268
X1.5945Y-2.3465
X1.5945Y-2.5866
X1.5945Y-2.6063
X1.5945Y-2.626
X1.5945Y-2.6457
X1.6066Y-2.4134
X1.6098Y-2.7126
X1.6142Y-1.9921
X1.6142Y-2.0118
X1.6142Y-2.0315
X1.6142Y-2.0512
X1.6142Y-2.2874
X1.6142Y-2.3071
X1.6142Y-2.3268
X1.6142Y-2.3465
X1.6142Y-2.5866
X1.6142Y-2.6063
X1.6142Y-2.626
X1.6142Y-2.6457
X1.6339Y-1.9921
X1.6339Y-2.0118
X1.6339Y-2.0315
X1.6339Y-2.0512
X1.6339Y-2.2874
X1.6339Y-2.3071
X1.6339Y-2.3268
X1.6339Y-2.3465
X1.6339Y-2.5866
X1.6339Y-2.6063
X1.6339Y-2.626
X1.6339Y-2.6457
X1.6535Y-1.9921
X1.6535Y-2.0118
X1.6535Y-2.0315
X1.6535Y-2.0512
X1.7559Y-2.5866
X1.7559Y-2.6063
X1.7559Y-2.626
X1.7559Y-2.6457
X1.7625Y-2.413
X1.7698Y-2.7913
X1.7717Y-1.9921
X1.7717Y-2.0118
X1.7717Y-2.0315
X1.7717Y-2.0512
X1.7756Y-2.5866
X1.7756Y-2.6063
X1.7756Y-2.626
X1.7756Y-2.6457
X1.7913Y-1.9921
X1.7913Y-2.0118
X1.7913Y-2.0315
X1.7913Y-2.0512
X1.7953Y-2.5866
X1.7953Y-2.6063
X1.7953Y-2.626
X1.7953Y-2.6457
X1.811Y-1.9921
X1.811Y-2.0118
X1.811Y-2.0315
X1.811Y-2.0512
X1.8751Y-2.1116
X1.9331Y-2.3543
X1.9685Y-2.5
X1.9723Y-2.1461
X1.9939Y-2.4657
X2.0268Y-2.3875
X2.0403Y-2.1526
X2.0602Y-2.3092
X2.2795Y-2.5132
X2.2863Y-2.3092
X2.2863Y-2.386
X2.2992Y-2.4882
X2.3494Y-2.3337
X2.3768Y-2.2996
X2.5251Y-2.3465
X2.6962Y-1.7513
X2.7165Y-1.7263
X2.7844Y-2.1114
X2.8553Y-1.6821
X2.8585Y-1.777
X2.865Y-1.8038
X2.8692Y-1.8324
X2.8714Y-1.7263
X2.875Y-1.755
X2.9222Y-2.3701
X3.0778Y-2.3701
X3.0803Y-1.899
X3.1063Y-2.5984
X3.1131Y-1.899
X3.1506Y-1.593
X3.1614Y-1.899
X3.5787Y-1.6801
X3.6378Y-1.6801
X3.724Y-1.3223
X3.7313Y-1.4451
X3.8161Y-2.3699
X3.8161Y-2.4723
X3.8189Y-2.5484
X3.8328Y-2.3444
X4.0748Y-2.3425
X4.1296Y-2.5121
X4.1732Y-2.3819
X4.2874Y-2.4488
X4.2874Y-2.4685
X4.2874Y-2.4882
X4.2874Y-2.5079
X4.2992Y-2.1535
X4.2992Y-2.1732
X4.2992Y-2.1929
X4.2992Y-2.2126
X4.2992Y-2.7362
X4.2992Y-2.7559
X4.2992Y-2.7756
X4.2992Y-2.7953
X4.3071Y-2.4488
X4.3071Y-2.4685
X4.3071Y-2.4882
X4.3071Y-2.5079
X4.3189Y-2.1535
X4.3189Y-2.1732
X4.3189Y-2.1929
X4.3189Y-2.2126
X4.3189Y-2.7362
X4.3189Y-2.7559
X4.3189Y-2.7756
X4.3189Y-2.7953
X4.3268Y-2.4488
X4.3268Y-2.4685
X4.3268Y-2.4882
X4.3268Y-2.5079
X4.3386Y-2.1535
X4.3386Y-2.1732
X4.3386Y-2.1929
X4.3386Y-2.2126
X4.3386Y-2.7362
X4.3386Y-2.7559
X4.3386Y-2.7756
X4.3386Y-2.7953
X4.3527Y-2.6012
X4.4488Y-2.4449
X4.4488Y-2.4646
X4.4488Y-2.4843
X4.4488Y-2.5039
X4.4567Y-2.7402
X4.4567Y-2.7598
X4.4567Y-2.7795
X4.4567Y-2.7992
X4.4606Y-2.1535
X4.4606Y-2.1732
X4.4606Y-2.1929
X4.4606Y-2.2126
X4.4685Y-2.4449
X4.4685Y-2.4646
X4.4685Y-2.4843
X4.4685Y-2.5039
X4.4764Y-2.7402
X4.4764Y-2.7598
X4.4764Y-2.7795
X4.4764Y-2.7992
X4.4803Y-2.1535
X4.4803Y-2.1732
X4.4803Y-2.1929
X4.4803Y-2.2126
X4.4882Y-2.4449
X4.4882Y-2.4646
X4.4882Y-2.4843
X4.4882Y-2.5039
X4.4961Y-2.7402
X4.4961Y-2.7598
X4.4961Y-2.7795
X4.4961Y-2.7992
X4.5Y-2.1535
X4.5Y-2.1732
X4.5Y-2.1929
X4.5Y-2.2126
X4.6156Y-2.5276
X4.6156Y-2.5472
X4.6156Y-2.6142
X4.6299Y-2.0157
X4.6299Y-2.0354
X4.6339Y-2.126
X4.6339Y-2.1457
X4.6339Y-2.2323
X4.6339Y-2.252
X4.6353Y-2.5276
X4.6353Y-2.5472
X4.6353Y-2.6142
X4.6496Y-2.0157
X4.6496Y-2.0354
X4.6535Y-2.126
X4.6535Y-2.1457
X4.6535Y-2.2323
X4.6535Y-2.252
T2
X1.4843Y-1.563
X2.5512Y-1.2559
X2.7844Y-2.0114
X3.0906Y-2.4877
X3.1191Y-2.1953
X3.284Y-2.6457
X3.5129Y-2.1997
X3.5709Y-2.252
X4.3186Y-2.3784
X4.3328Y-2.0863
T3
X2.9473Y-1.9252
X3.2534Y-1.8622
T4
X1.9213Y-1.5512
X2.0118Y-1.5551
X2.0827Y-1.5551
X2.2008Y-2.0472
X2.2205Y-2.6929
X2.3189Y-2.685
X3.8307Y-2.1063
X3.878Y-2.7691
X3.9252Y-2.1102
M30
