M48
; DRILL file {KiCad 8.0.2} date 2024-05-01T20:18:55+0800
; FORMAT={-:-/ absolute / inch / decimal}
; #@! TF.CreationDate,2024-05-01T20:18:55+08:00
; #@! TF.GenerationSoftware,Kicad,Pcbnew,8.0.2
; #@! TF.FileFunction,Plated,2,4,Blind
FMAT,2
INCH
; #@! TA.AperFunction,Plated,Buried,ViaDrill
T1C0.0098
; #@! TA.AperFunction,Plated,Buried,ViaDrill
T2C0.0157
; #@! TA.AperFunction,Plated,Buried,ViaDrill
T3C0.0197
%
G90
G05
T1
X1.7638Y-2.2992
X1.7638Y-2.3189
X1.7638Y-2.3386
X1.7835Y-2.2992
X1.7835Y-2.3189
X1.7835Y-2.3386
X1.8031Y-2.2992
X1.8031Y-2.3189
X1.8031Y-2.3386
X1.9921Y-2.5866
X1.9921Y-2.6063
X1.9921Y-2.626
X2.0Y-1.9961
X2.0Y-2.0157
X2.0Y-2.0354
X2.0118Y-2.5866
X2.0118Y-2.6063
X2.0118Y-2.626
X2.0197Y-1.9961
X2.0197Y-2.0157
X2.0197Y-2.0354
X2.9055Y-1.8465
X2.9281Y-1.8637
X3.0197Y-2.5669
X3.06Y-2.059
X3.1732Y-1.8478
X3.2038Y-1.7353
X3.2126Y-1.8002
X3.4134Y-2.3701
X3.6378Y-1.752
X3.7874Y-1.4966
X4.0512Y-2.7717
X4.0512Y-2.7913
X4.0512Y-2.811
X4.0551Y-2.1772
X4.0551Y-2.1969
X4.0551Y-2.2165
X4.0709Y-2.7717
X4.0709Y-2.7913
X4.0709Y-2.811
X4.0748Y-2.1772
X4.0748Y-2.1969
X4.0748Y-2.2165
X4.0842Y-2.4666
X4.4979Y-2.3598
T2
X3.2953Y-2.121
T3
X1.344Y-2.5977
X1.3543Y-1.937
X1.3543Y-2.1442
X1.3543Y-2.4921
X1.3622Y-2.0236
X1.3898Y-1.937
X1.3898Y-2.1442
X1.3976Y-2.0236
X1.7362Y-1.3307
X1.7992Y-1.3386
X1.865Y-2.2899
X1.874Y-1.4016
X1.8789Y-2.3228
X1.9291Y-1.6635
X1.9685Y-1.4055
X2.0118Y-1.6614
X2.0669Y-1.4055
X2.0866Y-1.6575
X2.1102Y-2.6575
X2.1142Y-2.0551
X2.3661Y-2.5315
X2.4094Y-1.2559
X2.4488Y-1.2559
X2.5236Y-1.6654
X3.2625Y-1.7508
X3.3661Y-1.4843
X3.7283Y-2.2992
X3.7559Y-2.3504
X3.9921Y-2.7165
X3.9961Y-2.1181
X4.2105Y-2.5098
X4.2126Y-2.4685
X4.7383Y-2.5284
X4.748Y-2.1339
X4.748Y-2.2559
X4.7756Y-2.5261
X4.7795Y-2.1339
X4.7795Y-2.2559
M30
