%TF.GenerationSoftware,KiCad,Pcbnew,8.0.2*%
%TF.CreationDate,2024-06-12T22:59:47+08:00*%
%TF.ProjectId,controller,636f6e74-726f-46c6-9c65-722e6b696361,rev?*%
%TF.SameCoordinates,Original*%
%TF.FileFunction,Legend,Bot*%
%TF.FilePolarity,Positive*%
%FSLAX46Y46*%
G04 Gerber Fmt 4.6, Leading zero omitted, Abs format (unit mm)*
G04 Created by KiCad (PCBNEW 8.0.2) date 2024-06-12 22:59:47*
%MOMM*%
%LPD*%
G01*
G04 APERTURE LIST*
%ADD10C,0.150000*%
%ADD11C,0.254000*%
%ADD12C,0.120000*%
G04 APERTURE END LIST*
D10*
G36*
X103647890Y-91454489D02*
G01*
X102516646Y-91454489D01*
X102516646Y-90874234D01*
X102627757Y-90874234D01*
X102627757Y-90903498D01*
X102638956Y-90930534D01*
X102659648Y-90951226D01*
X102686684Y-90962425D01*
X102701316Y-90963866D01*
X103008113Y-90963296D01*
X103008709Y-91284451D01*
X103019908Y-91311487D01*
X103040600Y-91332179D01*
X103067636Y-91343378D01*
X103096900Y-91343378D01*
X103123936Y-91332179D01*
X103144628Y-91311487D01*
X103155827Y-91284451D01*
X103157268Y-91269819D01*
X103156698Y-90963020D01*
X103477852Y-90962425D01*
X103504888Y-90951226D01*
X103525580Y-90930534D01*
X103536779Y-90903498D01*
X103536779Y-90874234D01*
X103525580Y-90847198D01*
X103504888Y-90826506D01*
X103477852Y-90815307D01*
X103463220Y-90813866D01*
X103156422Y-90814435D01*
X103155827Y-90493282D01*
X103144628Y-90466246D01*
X103123936Y-90445554D01*
X103096900Y-90434355D01*
X103067636Y-90434355D01*
X103040600Y-90445554D01*
X103019908Y-90466246D01*
X103008709Y-90493282D01*
X103007268Y-90507914D01*
X103007837Y-90814711D01*
X102686684Y-90815307D01*
X102659648Y-90826506D01*
X102638956Y-90847198D01*
X102627757Y-90874234D01*
X102516646Y-90874234D01*
X102516646Y-90323244D01*
X103647890Y-90323244D01*
X103647890Y-91454489D01*
G37*
D11*
%TO.C,J1*%
X118530000Y-102167000D02*
X118530000Y-103833000D01*
X118530000Y-105967000D02*
X118530000Y-107500000D01*
X118530000Y-107500000D02*
X127470000Y-107500000D01*
X119569000Y-100700000D02*
X119497000Y-100700000D01*
X126503000Y-100700000D02*
X126431000Y-100700000D01*
X127470000Y-102167000D02*
X127470000Y-103833000D01*
X127470000Y-105967000D02*
X127470000Y-107500000D01*
%TO.C,J2*%
X99400000Y-82406000D02*
X99400000Y-83975000D01*
X99400000Y-83975000D02*
X100675000Y-83975000D01*
X100650000Y-86225000D02*
X100675000Y-86200000D01*
X100650000Y-86225000D02*
X102299000Y-86225000D01*
X100675000Y-82406000D02*
X100675000Y-83975000D01*
X100675000Y-86200000D02*
X100675000Y-83975000D01*
X103961000Y-86225000D02*
X104839000Y-86225000D01*
X106501000Y-86225000D02*
X108150000Y-86225000D01*
X107747000Y-78425000D02*
X101053000Y-78425000D01*
X108150000Y-82406000D02*
X108150000Y-83975000D01*
X108150000Y-83975000D02*
X109400000Y-83975000D01*
X108150000Y-86225000D02*
X108150000Y-83975000D01*
X109400000Y-82406000D02*
X109400000Y-83975000D01*
D12*
X103130000Y-85607000D02*
X102622000Y-84464000D01*
X103511000Y-84464000D01*
X103638000Y-84464000D01*
X103130000Y-85607000D01*
G36*
X103130000Y-85607000D02*
G01*
X102622000Y-84464000D01*
X103511000Y-84464000D01*
X103638000Y-84464000D01*
X103130000Y-85607000D01*
G37*
%TD*%
M02*
