%TF.GenerationSoftware,KiCad,Pcbnew,8.0.1*%
%TF.CreationDate,2024-04-23T15:56:57+08:00*%
%TF.ProjectId,controller,636f6e74-726f-46c6-9c65-722e6b696361,rev?*%
%TF.SameCoordinates,Original*%
%TF.FileFunction,Soldermask,Top*%
%TF.FilePolarity,Negative*%
%FSLAX46Y46*%
G04 Gerber Fmt 4.6, Leading zero omitted, Abs format (unit mm)*
G04 Created by KiCad (PCBNEW 8.0.1) date 2024-04-23 15:56:57*
%MOMM*%
%LPD*%
G01*
G04 APERTURE LIST*
G04 Aperture macros list*
%AMRoundRect*
0 Rectangle with rounded corners*
0 $1 Rounding radius*
0 $2 $3 $4 $5 $6 $7 $8 $9 X,Y pos of 4 corners*
0 Add a 4 corners polygon primitive as box body*
4,1,4,$2,$3,$4,$5,$6,$7,$8,$9,$2,$3,0*
0 Add four circle primitives for the rounded corners*
1,1,$1+$1,$2,$3*
1,1,$1+$1,$4,$5*
1,1,$1+$1,$6,$7*
1,1,$1+$1,$8,$9*
0 Add four rect primitives between the rounded corners*
20,1,$1+$1,$2,$3,$4,$5,0*
20,1,$1+$1,$4,$5,$6,$7,0*
20,1,$1+$1,$6,$7,$8,$9,0*
20,1,$1+$1,$8,$9,$2,$3,0*%
%AMRotRect*
0 Rectangle, with rotation*
0 The origin of the aperture is its center*
0 $1 length*
0 $2 width*
0 $3 Rotation angle, in degrees counterclockwise*
0 Add horizontal line*
21,1,$1,$2,0,0,$3*%
G04 Aperture macros list end*
%ADD10R,1.700000X1.700000*%
%ADD11O,1.700000X1.700000*%
%ADD12C,1.800000*%
%ADD13C,2.200000*%
%ADD14R,1.500000X0.900000*%
%ADD15C,4.400000*%
%ADD16C,2.500000*%
%ADD17RoundRect,0.250000X0.375000X1.000000X-0.375000X1.000000X-0.375000X-1.000000X0.375000X-1.000000X0*%
%ADD18C,0.900000*%
%ADD19C,1.000000*%
%ADD20RoundRect,0.250000X-0.475000X0.337500X-0.475000X-0.337500X0.475000X-0.337500X0.475000X0.337500X0*%
%ADD21RotRect,2.000000X2.000000X45.000000*%
%ADD22R,0.700000X1.300000*%
%ADD23RotRect,2.000000X2.000000X135.000000*%
%ADD24RoundRect,0.237500X-0.237500X0.300000X-0.237500X-0.300000X0.237500X-0.300000X0.237500X0.300000X0*%
%ADD25O,1.200000X1.700000*%
G04 APERTURE END LIST*
D10*
%TO.C,J2*%
X137700000Y-66500000D03*
D11*
X137700000Y-69040000D03*
%TD*%
D12*
%TO.C,SW4*%
X109107107Y-56625126D03*
X105925126Y-59807107D03*
D13*
X106809010Y-62458757D03*
X111758757Y-57509010D03*
%TD*%
D14*
%TO.C,D3*%
X120350000Y-100650000D03*
X120350000Y-103950000D03*
X125250000Y-103950000D03*
X125250000Y-100650000D03*
%TD*%
D15*
%TO.C,H1*%
X103300000Y-95000000D03*
%TD*%
D13*
%TO.C,SW2*%
X86700000Y-70600000D03*
X86700000Y-75100000D03*
X93700000Y-70600000D03*
X93700000Y-75100000D03*
D16*
X83855000Y-85892000D03*
X83855000Y-75892000D03*
X96505000Y-75892000D03*
X96505000Y-85892000D03*
D12*
X92681000Y-89622000D03*
X90180000Y-89622000D03*
X87681000Y-89622000D03*
X81451000Y-83392000D03*
X81451000Y-80892000D03*
X81451000Y-78392000D03*
X85881000Y-80892000D03*
X94481000Y-80892000D03*
%TD*%
%TO.C,SW6*%
X140781981Y-59781981D03*
X137600000Y-56600000D03*
D13*
X134948350Y-57483884D03*
X139898097Y-62433631D03*
%TD*%
D17*
%TO.C,SW7*%
X120500000Y-60850000D03*
X123000000Y-60850000D03*
X125500000Y-60850000D03*
D18*
X119600000Y-58100000D03*
X126400000Y-58100000D03*
%TD*%
D19*
%TO.C,TP4*%
X108700000Y-83100000D03*
%TD*%
D20*
%TO.C,C2*%
X131120000Y-57010000D03*
X131120000Y-59085000D03*
%TD*%
D15*
%TO.C,H3*%
X143300000Y-95000000D03*
%TD*%
D19*
%TO.C,TP1*%
X108700000Y-85300000D03*
%TD*%
D15*
%TO.C,H4*%
X103300000Y-66900000D03*
%TD*%
D21*
%TO.C,SW5*%
X132378680Y-105221320D03*
X136621320Y-100978680D03*
%TD*%
D19*
%TO.C,TP7*%
X137900000Y-86100000D03*
%TD*%
D13*
%TO.C,SW3*%
X152600000Y-70500000D03*
X152600000Y-75000000D03*
X159600000Y-70500000D03*
X159600000Y-75000000D03*
D16*
X149755000Y-85792000D03*
X149755000Y-75792000D03*
X162405000Y-75792000D03*
X162405000Y-85792000D03*
D12*
X158581000Y-89522000D03*
X156080000Y-89522000D03*
X153581000Y-89522000D03*
X147351000Y-83292000D03*
X147351000Y-80792000D03*
X147351000Y-78292000D03*
X151781000Y-80792000D03*
X160381000Y-80792000D03*
%TD*%
D19*
%TO.C,TP5*%
X108700000Y-80900000D03*
%TD*%
D22*
%TO.C,SW1*%
X139075000Y-74050000D03*
X139075000Y-78550000D03*
X136925000Y-74050000D03*
X136925000Y-78550000D03*
%TD*%
D15*
%TO.C,H2*%
X143300000Y-66900000D03*
%TD*%
D19*
%TO.C,TP2*%
X108700000Y-76300000D03*
%TD*%
%TO.C,TP3*%
X108700000Y-78600000D03*
%TD*%
%TO.C,TP6*%
X108700000Y-74100000D03*
%TD*%
D23*
%TO.C,SW8*%
X114421320Y-105121320D03*
X110178680Y-100878680D03*
%TD*%
D24*
%TO.C,C3*%
X129200000Y-57337500D03*
X129200000Y-59062500D03*
%TD*%
D25*
%TO.C,J1*%
X118480000Y-104261500D03*
X127120000Y-104261500D03*
X118480000Y-100461500D03*
X127120000Y-100461500D03*
%TD*%
M02*
