M48
; DRILL file {KiCad 8.0.1} date 2024-05-01T12:09:56+0800
; FORMAT={-:-/ absolute / inch / decimal}
; #@! TF.CreationDate,2024-05-01T12:09:56+08:00
; #@! TF.GenerationSoftware,Kicad,Pcbnew,8.0.1
; #@! TF.FileFunction,Plated,1,2,PTH
FMAT,2
INCH
; #@! TA.AperFunction,Plated,PTH,ViaDrill
T1C0.0098
; #@! TA.AperFunction,Plated,PTH,ViaDrill
T2C0.0118
; #@! TA.AperFunction,Plated,PTH,ComponentDrill
T3C0.0197
; #@! TA.AperFunction,Plated,PTH,ViaDrill
T4C0.0236
; #@! TA.AperFunction,Plated,PTH,ViaDrill
T5C0.0315
; #@! TA.AperFunction,Plated,PTH,ComponentDrill
T6C0.0472
; #@! TA.AperFunction,Plated,PTH,ComponentDrill
T7C0.0591
; #@! TA.AperFunction,Plated,PTH,ComponentDrill
T8C0.0630
; #@! TA.AperFunction,Plated,PTH,ComponentDrill
T9C0.0709
; #@! TA.AperFunction,Plated,PTH,ComponentDrill
T10C0.0866
%
G90
G05
T1
X4.0751Y-2.9176
X4.3031Y-2.622
X4.3265Y-2.8816
X4.3386Y-3.9685
X4.4488Y-3.4513
X4.5098Y-2.5984
X4.5098Y-2.6575
X4.5098Y-2.7756
X4.8442Y-3.0967
X4.9252Y-3.1457
X4.9404Y-3.6993
X4.9497Y-3.5477
X4.9528Y-3.5945
X5.079Y-3.6027
X5.1988Y-2.7165
T2
X4.6772Y-3.3735
X4.7613Y-3.2968
X4.7874Y-3.378
T4
X4.3268Y-2.5787
X4.437Y-2.5354
X4.4606Y-3.3307
X4.4724Y-3.7165
X4.5354Y-3.7008
X4.5388Y-3.5354
X4.5709Y-4.1142
X4.5748Y-2.9528
X4.5945Y-3.9528
X4.6339Y-3.5
X4.7244Y-3.7165
X4.7402Y-3.2205
X4.7402Y-3.7963
X4.8071Y-3.7323
X4.8701Y-4.0866
X4.8819Y-3.3386
X4.8902Y-2.7244
X5.0709Y-3.752
X5.0984Y-3.4843
X5.1063Y-3.2638
X5.1339Y-3.0827
X5.1339Y-4.0984
X5.1496Y-3.6929
T5
X4.0591Y-3.4016
X4.0602Y-3.4557
X4.0602Y-3.5118
X5.0669Y-3.8268
X5.1363Y-3.8268
T6
X3.2067Y-3.0863
X3.2067Y-3.1847
X3.2067Y-3.2831
X3.452Y-3.5284
X3.5504Y-3.5284
X3.6489Y-3.5284
X4.186Y-2.3467
X4.3113Y-2.2215
X5.4013Y-2.2254
X5.5266Y-2.3507
X5.8012Y-3.0824
X5.8012Y-3.1808
X5.8012Y-3.2792
X6.0465Y-3.5245
X6.1449Y-3.5245
X6.2433Y-3.5245
T7
X4.2208Y-2.4511
X4.4157Y-2.2563
X5.2969Y-2.2602
X5.4918Y-2.4551
T8
X3.4134Y-2.7795
X3.4134Y-2.9567
X3.689Y-2.7795
X3.689Y-2.9567
X6.0079Y-2.7756
X6.0079Y-2.9528
X6.2835Y-2.7756
X6.2835Y-2.9528
T9
X3.3014Y-2.9879
X3.3014Y-3.3816
X3.7994Y-2.9879
X3.7994Y-3.3816
X5.8959Y-2.9839
X5.8959Y-3.3776
X6.3939Y-2.9839
X6.3939Y-3.3776
T10
X4.0669Y-2.6339
X4.0669Y-3.7402
X5.6417Y-2.6339
X5.6417Y-3.7402
T3
G00X4.6724Y-3.9941
M15
G01X4.6724Y-3.9665
M16
G05
G00X4.6724Y-4.1437
M15
G01X4.6724Y-4.1161
M16
G05
G00X5.0126Y-3.9941
M15
G01X5.0126Y-3.9665
M16
G05
G00X5.0126Y-4.1437
M15
G01X5.0126Y-4.1161
M16
G05
M30
