%TF.GenerationSoftware,KiCad,Pcbnew,8.0.2*%
%TF.CreationDate,2024-05-05T16:16:47+08:00*%
%TF.ProjectId,controller,636f6e74-726f-46c6-9c65-722e6b696361,rev?*%
%TF.SameCoordinates,Original*%
%TF.FileFunction,Legend,Top*%
%TF.FilePolarity,Positive*%
%FSLAX46Y46*%
G04 Gerber Fmt 4.6, Leading zero omitted, Abs format (unit mm)*
G04 Created by KiCad (PCBNEW 8.0.2) date 2024-05-05 16:16:47*
%MOMM*%
%LPD*%
G01*
G04 APERTURE LIST*
%ADD10C,0.300000*%
%ADD11C,0.150000*%
%ADD12C,0.120000*%
%ADD13C,0.254000*%
G04 APERTURE END LIST*
D10*
G36*
X142127932Y-80517495D02*
G01*
X137102135Y-80517495D01*
X137102135Y-78702184D01*
X137268802Y-78702184D01*
X137271949Y-78731421D01*
X137583601Y-80213647D01*
X137583195Y-80224621D01*
X137589449Y-80241460D01*
X137593239Y-80259482D01*
X137599624Y-80268854D01*
X137603573Y-80279484D01*
X137615950Y-80292815D01*
X137626194Y-80307849D01*
X137635678Y-80314063D01*
X137643396Y-80322375D01*
X137659936Y-80329956D01*
X137675149Y-80339923D01*
X137686288Y-80342034D01*
X137696601Y-80346761D01*
X137714781Y-80347434D01*
X137732652Y-80350822D01*
X137743755Y-80348508D01*
X137755089Y-80348929D01*
X137772141Y-80342595D01*
X137789950Y-80338885D01*
X137799321Y-80332499D01*
X137809952Y-80328551D01*
X137823286Y-80316170D01*
X137838317Y-80305929D01*
X137844529Y-80296446D01*
X137852843Y-80288728D01*
X137867656Y-80263326D01*
X137909523Y-80171564D01*
X138512749Y-80171564D01*
X138512749Y-80230092D01*
X138535147Y-80284164D01*
X138576531Y-80325548D01*
X138630603Y-80347946D01*
X138659867Y-80350828D01*
X139091116Y-80349425D01*
X139099229Y-80350440D01*
X139103057Y-80349387D01*
X139546274Y-80347946D01*
X139600346Y-80325548D01*
X139641730Y-80284164D01*
X139664128Y-80230092D01*
X139664128Y-80171564D01*
X139654704Y-80148813D01*
X139948629Y-80148813D01*
X139948820Y-80149377D01*
X139948785Y-80149974D01*
X139958182Y-80177061D01*
X139967379Y-80204255D01*
X139967840Y-80204900D01*
X139967968Y-80205268D01*
X139968658Y-80206045D01*
X139984481Y-80228176D01*
X140052253Y-80302095D01*
X140061705Y-80314248D01*
X140065235Y-80316255D01*
X140068421Y-80319730D01*
X140068954Y-80319993D01*
X140069351Y-80320440D01*
X140091341Y-80331101D01*
X140112581Y-80343180D01*
X140116943Y-80343725D01*
X140120884Y-80345674D01*
X140121480Y-80345713D01*
X140122015Y-80345973D01*
X140146397Y-80347407D01*
X140170657Y-80350440D01*
X140174894Y-80349274D01*
X140179280Y-80349567D01*
X140179847Y-80349375D01*
X140180440Y-80349410D01*
X140203528Y-80341400D01*
X140227090Y-80334921D01*
X140230556Y-80332224D01*
X140234722Y-80330816D01*
X140235170Y-80330423D01*
X140235734Y-80330228D01*
X140259521Y-80312940D01*
X140353932Y-80225390D01*
X140358492Y-80221401D01*
X140582714Y-80221401D01*
X140584178Y-80225620D01*
X140584178Y-80230092D01*
X140593724Y-80253137D01*
X140601897Y-80276696D01*
X140604866Y-80280036D01*
X140606576Y-80284164D01*
X140624211Y-80301799D01*
X140640781Y-80320440D01*
X140644801Y-80322389D01*
X140647960Y-80325548D01*
X140671002Y-80335092D01*
X140693445Y-80345974D01*
X140697904Y-80346236D01*
X140702032Y-80347946D01*
X140731296Y-80350828D01*
X141689131Y-80347946D01*
X141743203Y-80325548D01*
X141784587Y-80284164D01*
X141806985Y-80230092D01*
X141806985Y-80171564D01*
X141784587Y-80117492D01*
X141743203Y-80076108D01*
X141689131Y-80053710D01*
X141659867Y-80050828D01*
X141122721Y-80052444D01*
X141773007Y-79471864D01*
X141774237Y-79471408D01*
X141792217Y-79454713D01*
X141815193Y-79434201D01*
X141815915Y-79432710D01*
X141817127Y-79431586D01*
X141831940Y-79406184D01*
X141926816Y-79193095D01*
X141936148Y-79176686D01*
X141938240Y-79167437D01*
X141939729Y-79164095D01*
X141939872Y-79160226D01*
X141942638Y-79148005D01*
X141955990Y-79024525D01*
X141957693Y-79020780D01*
X141958286Y-79003292D01*
X141961265Y-78975751D01*
X141959446Y-78969137D01*
X141959679Y-78962286D01*
X141952102Y-78933873D01*
X141893361Y-78784477D01*
X141888069Y-78768830D01*
X141886157Y-78766155D01*
X141885556Y-78764627D01*
X141883461Y-78762385D01*
X141870967Y-78744909D01*
X141799151Y-78666577D01*
X141790634Y-78656219D01*
X141788111Y-78654536D01*
X141787028Y-78653355D01*
X141784363Y-78652037D01*
X141766169Y-78639904D01*
X141648322Y-78579441D01*
X141644989Y-78576108D01*
X141628567Y-78569305D01*
X141605064Y-78557247D01*
X141597727Y-78556531D01*
X141590917Y-78553710D01*
X141561653Y-78550828D01*
X141229067Y-78553308D01*
X141226808Y-78552495D01*
X141205890Y-78553481D01*
X141175246Y-78553710D01*
X141171931Y-78555082D01*
X141168346Y-78555252D01*
X141140640Y-78565105D01*
X140992883Y-78637297D01*
X140976857Y-78642857D01*
X140967325Y-78649784D01*
X140963603Y-78651603D01*
X140961220Y-78654221D01*
X140953070Y-78660145D01*
X140852755Y-78753169D01*
X140827222Y-78805833D01*
X140823785Y-78864258D01*
X140842967Y-78919552D01*
X140881851Y-78963297D01*
X140934515Y-78988830D01*
X140992940Y-78992267D01*
X141048234Y-78973085D01*
X141072021Y-78955797D01*
X141131372Y-78900759D01*
X141234018Y-78850607D01*
X141520860Y-78848468D01*
X141598553Y-78888329D01*
X141626433Y-78918739D01*
X141659136Y-79001913D01*
X141650400Y-79082704D01*
X141576325Y-79249073D01*
X140651757Y-80074534D01*
X140647960Y-80076108D01*
X140631004Y-80093063D01*
X140611684Y-80110313D01*
X140609734Y-80114333D01*
X140606576Y-80117492D01*
X140597031Y-80140534D01*
X140586150Y-80162977D01*
X140585887Y-80167436D01*
X140584178Y-80171564D01*
X140584178Y-80196507D01*
X140582714Y-80221401D01*
X140358492Y-80221401D01*
X140359125Y-80220847D01*
X140359373Y-80220345D01*
X140359836Y-80219916D01*
X140372397Y-80194007D01*
X140385069Y-80168384D01*
X140385108Y-80167791D01*
X140385370Y-80167252D01*
X140387062Y-80138477D01*
X140388962Y-80109988D01*
X140388771Y-80109425D01*
X140388807Y-80108827D01*
X140379369Y-80081624D01*
X140370212Y-80054546D01*
X140369752Y-80053903D01*
X140369624Y-80053533D01*
X140368928Y-80052750D01*
X140353111Y-80030624D01*
X140285341Y-79956707D01*
X140275886Y-79944550D01*
X140272353Y-79942541D01*
X140269171Y-79939070D01*
X140268635Y-79938805D01*
X140268239Y-79938359D01*
X140246259Y-79927702D01*
X140225010Y-79915619D01*
X140220647Y-79915073D01*
X140216709Y-79913126D01*
X140216111Y-79913086D01*
X140215575Y-79912826D01*
X140191194Y-79911391D01*
X140166934Y-79908359D01*
X140162696Y-79909524D01*
X140158312Y-79909232D01*
X140157744Y-79909423D01*
X140157150Y-79909389D01*
X140134069Y-79917396D01*
X140110501Y-79923877D01*
X140107031Y-79926575D01*
X140102870Y-79927983D01*
X140102421Y-79928375D01*
X140101855Y-79928572D01*
X140078069Y-79945860D01*
X139983692Y-80033379D01*
X139978465Y-80037953D01*
X139978215Y-80038458D01*
X139977755Y-80038885D01*
X139965268Y-80064638D01*
X139952521Y-80090416D01*
X139952481Y-80091012D01*
X139952221Y-80091549D01*
X139950536Y-80120194D01*
X139948629Y-80148813D01*
X139654704Y-80148813D01*
X139641730Y-80117492D01*
X139600346Y-80076108D01*
X139546274Y-80053710D01*
X139517010Y-80050828D01*
X139257932Y-80051670D01*
X139420661Y-78729757D01*
X139425452Y-78712903D01*
X139424132Y-78701558D01*
X139425551Y-78690038D01*
X139420772Y-78672662D01*
X139418692Y-78654769D01*
X139413085Y-78644709D01*
X139410032Y-78633605D01*
X139398972Y-78619385D01*
X139390200Y-78603645D01*
X139381168Y-78596495D01*
X139374101Y-78587408D01*
X139358441Y-78578503D01*
X139344311Y-78567316D01*
X139333233Y-78564167D01*
X139323225Y-78558476D01*
X139305346Y-78556241D01*
X139288014Y-78551315D01*
X139276575Y-78552645D01*
X139265149Y-78551217D01*
X139247777Y-78555993D01*
X139229880Y-78558075D01*
X139219819Y-78563681D01*
X139208716Y-78566735D01*
X139194496Y-78577794D01*
X139178756Y-78586567D01*
X139165308Y-78600496D01*
X139162519Y-78602666D01*
X139161522Y-78604417D01*
X139158332Y-78607723D01*
X139006863Y-78802841D01*
X139006641Y-78803003D01*
X138868596Y-78928656D01*
X138704675Y-79008746D01*
X138665286Y-79052035D01*
X138645463Y-79107102D01*
X138648220Y-79165564D01*
X138673142Y-79218521D01*
X138716431Y-79257910D01*
X138771498Y-79277733D01*
X138829960Y-79274976D01*
X138857666Y-79265123D01*
X139005428Y-79192928D01*
X139021450Y-79187370D01*
X139030978Y-79180444D01*
X139034703Y-79178625D01*
X139037085Y-79176006D01*
X139045237Y-79170082D01*
X139069792Y-79147730D01*
X138958396Y-80052644D01*
X138630603Y-80053710D01*
X138576531Y-80076108D01*
X138535147Y-80117492D01*
X138512749Y-80171564D01*
X137909523Y-80171564D01*
X138564729Y-78735523D01*
X138566897Y-78677036D01*
X138546519Y-78622172D01*
X138506696Y-78579282D01*
X138453490Y-78554896D01*
X138395003Y-78552727D01*
X138340140Y-78573105D01*
X138297249Y-78612928D01*
X138282436Y-78638330D01*
X137785192Y-79728159D01*
X137556853Y-78642174D01*
X137523898Y-78593807D01*
X137474943Y-78561733D01*
X137417440Y-78550834D01*
X137360142Y-78562771D01*
X137311775Y-78595726D01*
X137279701Y-78644681D01*
X137268802Y-78702184D01*
X137102135Y-78702184D01*
X137102135Y-78384161D01*
X142127932Y-78384161D01*
X142127932Y-80517495D01*
G37*
D11*
G36*
X119346110Y-77555341D02*
G01*
X118308400Y-77555341D01*
X118308400Y-76379199D01*
X118419511Y-76379199D01*
X118422771Y-76393536D01*
X118754548Y-77384413D01*
X118754919Y-77389629D01*
X118759083Y-77397959D01*
X118762098Y-77406961D01*
X118765608Y-77411008D01*
X118768005Y-77415802D01*
X118775113Y-77421967D01*
X118781272Y-77429068D01*
X118786061Y-77431462D01*
X118790112Y-77434976D01*
X118799037Y-77437950D01*
X118807445Y-77442155D01*
X118812789Y-77442534D01*
X118817875Y-77444230D01*
X118827255Y-77443563D01*
X118836635Y-77444230D01*
X118841720Y-77442534D01*
X118847065Y-77442155D01*
X118855475Y-77437949D01*
X118864397Y-77434976D01*
X118868444Y-77431465D01*
X118873238Y-77429069D01*
X118879401Y-77421963D01*
X118886505Y-77415802D01*
X118888900Y-77411010D01*
X118892412Y-77406962D01*
X118898406Y-77393536D01*
X119234999Y-76379200D01*
X119232924Y-76350010D01*
X119219838Y-76323836D01*
X119197730Y-76304662D01*
X119169968Y-76295408D01*
X119140778Y-76297483D01*
X119114605Y-76310570D01*
X119095431Y-76332677D01*
X119089437Y-76346102D01*
X118827687Y-77134895D01*
X118559079Y-76332676D01*
X118539905Y-76310569D01*
X118513732Y-76297483D01*
X118484542Y-76295408D01*
X118456779Y-76304662D01*
X118434672Y-76323836D01*
X118421586Y-76350009D01*
X118419511Y-76379199D01*
X118308400Y-76379199D01*
X118308400Y-76184297D01*
X119346110Y-76184297D01*
X119346110Y-77555341D01*
G37*
G36*
X109866358Y-97976770D02*
G01*
X109940150Y-98049152D01*
X109980843Y-98207323D01*
X109982146Y-98522077D01*
X109942032Y-98687325D01*
X109871565Y-98759166D01*
X109802119Y-98794928D01*
X109646950Y-98796018D01*
X109578628Y-98762867D01*
X109504835Y-98690485D01*
X109464142Y-98532313D01*
X109462839Y-98217559D01*
X109502953Y-98052311D01*
X109573421Y-97980470D01*
X109642866Y-97944709D01*
X109798035Y-97943619D01*
X109866358Y-97976770D01*
G37*
G36*
X113009215Y-97976770D02*
G01*
X113083007Y-98049152D01*
X113123700Y-98207323D01*
X113125003Y-98522077D01*
X113084889Y-98687325D01*
X113014422Y-98759166D01*
X112944976Y-98794928D01*
X112789807Y-98796018D01*
X112721485Y-98762867D01*
X112647692Y-98690485D01*
X112606999Y-98532313D01*
X112605696Y-98217559D01*
X112645810Y-98052311D01*
X112716278Y-97980470D01*
X112785723Y-97944709D01*
X112940892Y-97943619D01*
X113009215Y-97976770D01*
G37*
G36*
X115145258Y-99294025D02*
G01*
X109203049Y-99294025D01*
X109203049Y-99107993D01*
X111314160Y-99107993D01*
X111319899Y-99136687D01*
X111336182Y-99161002D01*
X111360531Y-99177235D01*
X111389239Y-99182914D01*
X111417933Y-99177175D01*
X111442248Y-99160892D01*
X111451564Y-99149516D01*
X112081210Y-98203152D01*
X112457017Y-98203152D01*
X112458377Y-98531588D01*
X112457106Y-98540131D01*
X112458450Y-98549223D01*
X112458458Y-98551117D01*
X112458880Y-98552138D01*
X112459256Y-98554675D01*
X112506077Y-98736666D01*
X112506077Y-98741592D01*
X112509421Y-98749667D01*
X112511822Y-98758997D01*
X112515141Y-98763476D01*
X112517275Y-98768628D01*
X112526603Y-98779994D01*
X112622370Y-98873932D01*
X112628890Y-98881450D01*
X112632083Y-98883460D01*
X112633206Y-98884561D01*
X112635038Y-98885319D01*
X112641333Y-98889282D01*
X112727222Y-98930957D01*
X112728444Y-98932179D01*
X112737303Y-98935848D01*
X112750302Y-98942156D01*
X112752991Y-98942347D01*
X112755480Y-98943378D01*
X112770112Y-98944819D01*
X112949199Y-98943560D01*
X112951207Y-98944230D01*
X112961879Y-98943471D01*
X112975220Y-98943378D01*
X112977709Y-98942346D01*
X112980397Y-98942156D01*
X112994129Y-98936901D01*
X113088683Y-98888209D01*
X113097494Y-98884560D01*
X113100396Y-98882177D01*
X113101810Y-98881450D01*
X113103109Y-98879951D01*
X113108859Y-98875233D01*
X113197454Y-98784909D01*
X113201456Y-98782509D01*
X113206541Y-98775645D01*
X113213425Y-98768628D01*
X113215558Y-98763476D01*
X113218878Y-98758997D01*
X113223825Y-98745151D01*
X113269065Y-98558785D01*
X113272242Y-98551117D01*
X113273139Y-98542002D01*
X113273594Y-98540131D01*
X113273431Y-98539038D01*
X113273683Y-98536485D01*
X113272322Y-98208048D01*
X113273594Y-98199506D01*
X113272249Y-98190413D01*
X113272242Y-98188520D01*
X113271819Y-98187498D01*
X113271444Y-98184962D01*
X113224623Y-98002970D01*
X113224623Y-97998045D01*
X113221277Y-97989968D01*
X113218878Y-97980640D01*
X113215559Y-97976161D01*
X113213425Y-97971008D01*
X113204097Y-97959643D01*
X113112522Y-97869819D01*
X113552255Y-97869819D01*
X113553696Y-98884451D01*
X113564895Y-98911487D01*
X113585587Y-98932179D01*
X113612623Y-98943378D01*
X113641887Y-98943378D01*
X113668923Y-98932179D01*
X113689615Y-98911487D01*
X113700814Y-98884451D01*
X113702255Y-98869819D01*
X113701617Y-98420701D01*
X113975220Y-98419568D01*
X114002256Y-98408369D01*
X114022948Y-98387677D01*
X114034147Y-98360641D01*
X114034147Y-98331377D01*
X114022948Y-98304341D01*
X114002256Y-98283649D01*
X113975220Y-98272450D01*
X113960588Y-98271009D01*
X113701406Y-98272082D01*
X113700940Y-97944602D01*
X114118077Y-97943378D01*
X114145113Y-97932179D01*
X114165805Y-97911487D01*
X114177004Y-97884451D01*
X114177004Y-97869819D01*
X114409398Y-97869819D01*
X114410839Y-98884451D01*
X114422038Y-98911487D01*
X114442730Y-98932179D01*
X114469766Y-98943378D01*
X114499030Y-98943378D01*
X114526066Y-98932179D01*
X114546758Y-98911487D01*
X114557957Y-98884451D01*
X114559398Y-98869819D01*
X114558760Y-98420701D01*
X114832363Y-98419568D01*
X114859399Y-98408369D01*
X114880091Y-98387677D01*
X114891290Y-98360641D01*
X114891290Y-98331377D01*
X114880091Y-98304341D01*
X114859399Y-98283649D01*
X114832363Y-98272450D01*
X114817731Y-98271009D01*
X114558549Y-98272082D01*
X114558083Y-97944602D01*
X114975220Y-97943378D01*
X115002256Y-97932179D01*
X115022948Y-97911487D01*
X115034147Y-97884451D01*
X115034147Y-97855187D01*
X115022948Y-97828151D01*
X115002256Y-97807459D01*
X114975220Y-97796260D01*
X114960588Y-97794819D01*
X114469766Y-97796260D01*
X114442730Y-97807459D01*
X114422038Y-97828151D01*
X114410839Y-97855187D01*
X114409398Y-97869819D01*
X114177004Y-97869819D01*
X114177004Y-97855187D01*
X114165805Y-97828151D01*
X114145113Y-97807459D01*
X114118077Y-97796260D01*
X114103445Y-97794819D01*
X113612623Y-97796260D01*
X113585587Y-97807459D01*
X113564895Y-97828151D01*
X113553696Y-97855187D01*
X113552255Y-97869819D01*
X113112522Y-97869819D01*
X113108334Y-97865711D01*
X113101810Y-97858188D01*
X113098613Y-97856175D01*
X113097494Y-97855078D01*
X113095666Y-97854320D01*
X113089367Y-97850356D01*
X113003478Y-97808681D01*
X113002256Y-97807459D01*
X112993390Y-97803786D01*
X112980397Y-97797482D01*
X112977709Y-97797291D01*
X112975220Y-97796260D01*
X112960588Y-97794819D01*
X112781499Y-97796077D01*
X112779492Y-97795408D01*
X112768819Y-97796166D01*
X112755480Y-97796260D01*
X112752991Y-97797290D01*
X112750302Y-97797482D01*
X112736571Y-97802737D01*
X112642021Y-97851425D01*
X112633206Y-97855077D01*
X112630300Y-97857461D01*
X112628890Y-97858188D01*
X112627591Y-97859684D01*
X112621841Y-97864405D01*
X112533245Y-97954726D01*
X112529244Y-97957128D01*
X112524157Y-97963991D01*
X112517276Y-97971008D01*
X112515142Y-97976158D01*
X112511822Y-97980640D01*
X112506875Y-97994486D01*
X112461634Y-98180851D01*
X112458458Y-98188520D01*
X112457560Y-98197634D01*
X112457106Y-98199506D01*
X112457268Y-98200598D01*
X112457017Y-98203152D01*
X112081210Y-98203152D01*
X112315623Y-97850828D01*
X112321302Y-97822121D01*
X112315563Y-97793426D01*
X112299280Y-97769111D01*
X112274931Y-97752878D01*
X112246223Y-97747200D01*
X112217529Y-97752939D01*
X112193214Y-97769222D01*
X112183898Y-97780597D01*
X111319839Y-99079285D01*
X111314160Y-99107993D01*
X109203049Y-99107993D01*
X109203049Y-98203152D01*
X109314160Y-98203152D01*
X109315520Y-98531588D01*
X109314249Y-98540131D01*
X109315593Y-98549223D01*
X109315601Y-98551117D01*
X109316023Y-98552138D01*
X109316399Y-98554675D01*
X109363220Y-98736666D01*
X109363220Y-98741592D01*
X109366564Y-98749667D01*
X109368965Y-98758997D01*
X109372284Y-98763476D01*
X109374418Y-98768628D01*
X109383746Y-98779994D01*
X109479513Y-98873932D01*
X109486033Y-98881450D01*
X109489226Y-98883460D01*
X109490349Y-98884561D01*
X109492181Y-98885319D01*
X109498476Y-98889282D01*
X109584365Y-98930957D01*
X109585587Y-98932179D01*
X109594446Y-98935848D01*
X109607445Y-98942156D01*
X109610134Y-98942347D01*
X109612623Y-98943378D01*
X109627255Y-98944819D01*
X109806342Y-98943560D01*
X109808350Y-98944230D01*
X109819022Y-98943471D01*
X109832363Y-98943378D01*
X109834852Y-98942346D01*
X109837540Y-98942156D01*
X109851272Y-98936901D01*
X109945826Y-98888209D01*
X109954637Y-98884560D01*
X109957539Y-98882177D01*
X109958953Y-98881450D01*
X109960252Y-98879951D01*
X109966002Y-98875233D01*
X110054597Y-98784909D01*
X110058599Y-98782509D01*
X110063684Y-98775645D01*
X110070568Y-98768628D01*
X110072701Y-98763476D01*
X110076021Y-98758997D01*
X110080968Y-98745151D01*
X110126208Y-98558785D01*
X110129385Y-98551117D01*
X110130282Y-98542002D01*
X110130737Y-98540131D01*
X110130574Y-98539038D01*
X110130826Y-98536485D01*
X110129465Y-98208048D01*
X110130737Y-98199506D01*
X110129392Y-98190413D01*
X110129385Y-98188520D01*
X110128962Y-98187498D01*
X110128587Y-98184962D01*
X110081766Y-98002970D01*
X110081766Y-97998045D01*
X110078420Y-97989968D01*
X110076021Y-97980640D01*
X110072702Y-97976161D01*
X110070568Y-97971008D01*
X110061240Y-97959643D01*
X109969665Y-97869819D01*
X110409398Y-97869819D01*
X110410839Y-98884451D01*
X110422038Y-98911487D01*
X110442730Y-98932179D01*
X110469766Y-98943378D01*
X110499030Y-98943378D01*
X110526066Y-98932179D01*
X110546758Y-98911487D01*
X110557957Y-98884451D01*
X110559398Y-98869819D01*
X110558375Y-98149749D01*
X110989722Y-98902448D01*
X110993466Y-98911487D01*
X110996828Y-98914849D01*
X110999218Y-98919019D01*
X111007106Y-98925127D01*
X111014158Y-98932179D01*
X111018576Y-98934009D01*
X111022356Y-98936936D01*
X111031977Y-98939560D01*
X111041194Y-98943378D01*
X111045975Y-98943378D01*
X111050587Y-98944636D01*
X111060484Y-98943378D01*
X111070458Y-98943378D01*
X111074873Y-98941548D01*
X111079617Y-98940946D01*
X111088281Y-98935995D01*
X111097494Y-98932179D01*
X111100872Y-98928800D01*
X111105026Y-98926427D01*
X111111135Y-98918537D01*
X111118186Y-98911487D01*
X111120015Y-98907070D01*
X111122943Y-98903290D01*
X111125567Y-98893666D01*
X111129385Y-98884451D01*
X111130121Y-98876968D01*
X111130643Y-98875058D01*
X111130455Y-98873582D01*
X111130826Y-98869819D01*
X111129385Y-97855187D01*
X111118186Y-97828151D01*
X111097494Y-97807459D01*
X111070458Y-97796260D01*
X111041194Y-97796260D01*
X111014158Y-97807459D01*
X110993466Y-97828151D01*
X110982267Y-97855187D01*
X110980826Y-97869819D01*
X110981848Y-98589888D01*
X110550501Y-97837189D01*
X110546758Y-97828151D01*
X110543395Y-97824788D01*
X110541006Y-97820619D01*
X110533116Y-97814509D01*
X110526066Y-97807459D01*
X110521649Y-97805629D01*
X110517869Y-97802702D01*
X110508245Y-97800077D01*
X110499030Y-97796260D01*
X110494249Y-97796260D01*
X110489637Y-97795002D01*
X110479740Y-97796260D01*
X110469766Y-97796260D01*
X110465350Y-97798089D01*
X110460607Y-97798692D01*
X110451942Y-97803642D01*
X110442730Y-97807459D01*
X110439351Y-97810837D01*
X110435198Y-97813211D01*
X110429088Y-97821100D01*
X110422038Y-97828151D01*
X110420208Y-97832567D01*
X110417281Y-97836348D01*
X110414656Y-97845971D01*
X110410839Y-97855187D01*
X110410102Y-97862669D01*
X110409581Y-97864580D01*
X110409768Y-97866055D01*
X110409398Y-97869819D01*
X109969665Y-97869819D01*
X109965477Y-97865711D01*
X109958953Y-97858188D01*
X109955756Y-97856175D01*
X109954637Y-97855078D01*
X109952809Y-97854320D01*
X109946510Y-97850356D01*
X109860621Y-97808681D01*
X109859399Y-97807459D01*
X109850533Y-97803786D01*
X109837540Y-97797482D01*
X109834852Y-97797291D01*
X109832363Y-97796260D01*
X109817731Y-97794819D01*
X109638642Y-97796077D01*
X109636635Y-97795408D01*
X109625962Y-97796166D01*
X109612623Y-97796260D01*
X109610134Y-97797290D01*
X109607445Y-97797482D01*
X109593714Y-97802737D01*
X109499164Y-97851425D01*
X109490349Y-97855077D01*
X109487443Y-97857461D01*
X109486033Y-97858188D01*
X109484734Y-97859684D01*
X109478984Y-97864405D01*
X109390388Y-97954726D01*
X109386387Y-97957128D01*
X109381300Y-97963991D01*
X109374419Y-97971008D01*
X109372285Y-97976158D01*
X109368965Y-97980640D01*
X109364018Y-97994486D01*
X109318777Y-98180851D01*
X109315601Y-98188520D01*
X109314703Y-98197634D01*
X109314249Y-98199506D01*
X109314411Y-98200598D01*
X109314160Y-98203152D01*
X109203049Y-98203152D01*
X109203049Y-97636089D01*
X115145258Y-97636089D01*
X115145258Y-99294025D01*
G37*
G36*
X125950020Y-77554489D02*
G01*
X125009252Y-77554489D01*
X125009252Y-76355187D01*
X125120363Y-76355187D01*
X125120363Y-76384451D01*
X125131562Y-76411487D01*
X125152254Y-76432179D01*
X125179290Y-76443378D01*
X125193922Y-76444819D01*
X125404741Y-76444300D01*
X125406077Y-77384451D01*
X125417276Y-77411487D01*
X125437968Y-77432179D01*
X125465004Y-77443378D01*
X125494268Y-77443378D01*
X125521304Y-77432179D01*
X125541996Y-77411487D01*
X125553195Y-77384451D01*
X125554636Y-77369819D01*
X125553321Y-76443935D01*
X125779982Y-76443378D01*
X125807018Y-76432179D01*
X125827710Y-76411487D01*
X125838909Y-76384451D01*
X125838909Y-76355187D01*
X125827710Y-76328151D01*
X125807018Y-76307459D01*
X125779982Y-76296260D01*
X125765350Y-76294819D01*
X125179290Y-76296260D01*
X125152254Y-76307459D01*
X125131562Y-76328151D01*
X125120363Y-76355187D01*
X125009252Y-76355187D01*
X125009252Y-76183708D01*
X125950020Y-76183708D01*
X125950020Y-77554489D01*
G37*
G36*
X123697639Y-77655930D02*
G01*
X122850668Y-77655930D01*
X122850668Y-76469819D01*
X122961779Y-76469819D01*
X122963220Y-77484451D01*
X122974419Y-77511487D01*
X122995111Y-77532179D01*
X123022147Y-77543378D01*
X123036779Y-77544819D01*
X123527601Y-77543378D01*
X123554637Y-77532179D01*
X123575329Y-77511487D01*
X123586528Y-77484451D01*
X123586528Y-77455187D01*
X123575329Y-77428151D01*
X123554637Y-77407459D01*
X123527601Y-77396260D01*
X123512969Y-77394819D01*
X123111674Y-77395997D01*
X123111141Y-77020701D01*
X123384744Y-77019568D01*
X123411780Y-77008369D01*
X123432472Y-76987677D01*
X123443671Y-76960641D01*
X123443671Y-76931377D01*
X123432472Y-76904341D01*
X123411780Y-76883649D01*
X123384744Y-76872450D01*
X123370112Y-76871009D01*
X123110930Y-76872082D01*
X123110464Y-76544602D01*
X123527601Y-76543378D01*
X123554637Y-76532179D01*
X123575329Y-76511487D01*
X123586528Y-76484451D01*
X123586528Y-76455187D01*
X123575329Y-76428151D01*
X123554637Y-76407459D01*
X123527601Y-76396260D01*
X123512969Y-76394819D01*
X123022147Y-76396260D01*
X122995111Y-76407459D01*
X122974419Y-76428151D01*
X122963220Y-76455187D01*
X122961779Y-76469819D01*
X122850668Y-76469819D01*
X122850668Y-76283708D01*
X123697639Y-76283708D01*
X123697639Y-77655930D01*
G37*
G36*
X121271231Y-76957566D02*
G01*
X121297892Y-76983305D01*
X121333350Y-77052162D01*
X121334335Y-77159794D01*
X121301155Y-77228175D01*
X121270909Y-77259504D01*
X121202222Y-77294875D01*
X120911674Y-77295933D01*
X120911141Y-76920701D01*
X121154225Y-76919694D01*
X121271231Y-76957566D01*
G37*
G36*
X121218946Y-76476871D02*
G01*
X121250273Y-76507115D01*
X121285795Y-76576096D01*
X121286584Y-76636257D01*
X121253536Y-76704366D01*
X121223291Y-76735694D01*
X121154588Y-76771073D01*
X120910930Y-76772082D01*
X120910464Y-76444513D01*
X121150214Y-76443520D01*
X121218946Y-76476871D01*
G37*
G36*
X121594318Y-77555930D02*
G01*
X120650668Y-77555930D01*
X120650668Y-76369819D01*
X120761779Y-76369819D01*
X120763220Y-77384451D01*
X120774419Y-77411487D01*
X120795111Y-77432179D01*
X120822147Y-77443378D01*
X120836779Y-77444819D01*
X121206081Y-77443473D01*
X121208350Y-77444230D01*
X121219691Y-77443424D01*
X121232363Y-77443378D01*
X121234852Y-77442346D01*
X121237540Y-77442156D01*
X121251272Y-77436901D01*
X121345826Y-77388209D01*
X121354637Y-77384560D01*
X121357539Y-77382177D01*
X121358953Y-77381450D01*
X121360253Y-77379950D01*
X121366003Y-77375232D01*
X121413344Y-77326195D01*
X121419838Y-77320564D01*
X121421817Y-77317418D01*
X121422949Y-77316247D01*
X121423706Y-77314417D01*
X121427670Y-77308121D01*
X121469345Y-77222231D01*
X121470567Y-77221010D01*
X121474236Y-77212150D01*
X121480544Y-77199152D01*
X121480735Y-77196462D01*
X121481766Y-77193974D01*
X121483207Y-77179342D01*
X121482002Y-77047711D01*
X121482618Y-77045865D01*
X121481892Y-77035650D01*
X121481766Y-77021853D01*
X121480735Y-77019364D01*
X121480544Y-77016675D01*
X121475289Y-77002944D01*
X121426597Y-76908389D01*
X121422948Y-76899579D01*
X121420565Y-76896676D01*
X121419838Y-76895263D01*
X121418339Y-76893963D01*
X121413621Y-76888214D01*
X121372794Y-76848798D01*
X121372218Y-76847645D01*
X121366138Y-76842371D01*
X121354637Y-76831268D01*
X121352146Y-76830236D01*
X121350111Y-76828471D01*
X121343424Y-76825485D01*
X121365724Y-76802387D01*
X121372219Y-76796755D01*
X121374198Y-76793609D01*
X121375329Y-76792439D01*
X121376086Y-76790611D01*
X121380051Y-76784312D01*
X121421726Y-76698422D01*
X121422948Y-76697201D01*
X121426617Y-76688341D01*
X121432925Y-76675343D01*
X121433116Y-76672653D01*
X121434147Y-76670165D01*
X121435588Y-76655533D01*
X121434482Y-76571225D01*
X121434999Y-76569675D01*
X121434340Y-76560404D01*
X121434147Y-76545663D01*
X121433116Y-76543174D01*
X121432925Y-76540485D01*
X121427670Y-76526754D01*
X121378978Y-76432199D01*
X121375329Y-76423389D01*
X121372946Y-76420486D01*
X121372219Y-76419073D01*
X121370720Y-76417773D01*
X121366002Y-76412024D01*
X121316966Y-76364682D01*
X121311334Y-76358188D01*
X121308188Y-76356208D01*
X121307018Y-76355078D01*
X121305190Y-76354320D01*
X121298891Y-76350356D01*
X121213002Y-76308681D01*
X121211780Y-76307459D01*
X121202914Y-76303786D01*
X121189921Y-76297482D01*
X121187233Y-76297291D01*
X121184744Y-76296260D01*
X121170112Y-76294819D01*
X120822147Y-76296260D01*
X120795111Y-76307459D01*
X120774419Y-76328151D01*
X120763220Y-76355187D01*
X120761779Y-76369819D01*
X120650668Y-76369819D01*
X120650668Y-76183708D01*
X121594318Y-76183708D01*
X121594318Y-77555930D01*
G37*
G36*
X132866565Y-98176871D02*
G01*
X132897892Y-98207115D01*
X132933350Y-98275972D01*
X132934335Y-98383604D01*
X132901155Y-98451985D01*
X132870910Y-98483313D01*
X132802222Y-98518684D01*
X132676071Y-98519144D01*
X132673249Y-98518646D01*
X132670915Y-98519162D01*
X132510997Y-98519745D01*
X132510464Y-98144550D01*
X132797798Y-98143503D01*
X132866565Y-98176871D01*
G37*
G36*
X136811925Y-99255930D02*
G01*
X132250668Y-99255930D01*
X132250668Y-98069819D01*
X132361779Y-98069819D01*
X132363220Y-99084451D01*
X132374419Y-99111487D01*
X132395111Y-99132179D01*
X132422147Y-99143378D01*
X132451411Y-99143378D01*
X132478447Y-99132179D01*
X132499139Y-99111487D01*
X132510338Y-99084451D01*
X132511779Y-99069819D01*
X132511208Y-98668356D01*
X132635431Y-98667904D01*
X132956336Y-99123989D01*
X132981015Y-99139716D01*
X133009832Y-99144802D01*
X133038403Y-99138472D01*
X133062377Y-99121690D01*
X133078104Y-99097012D01*
X133083189Y-99068194D01*
X133076860Y-99039623D01*
X133069650Y-99026810D01*
X132816793Y-98667439D01*
X132819691Y-98667233D01*
X132832363Y-98667187D01*
X132834852Y-98666155D01*
X132837540Y-98665965D01*
X132851272Y-98660710D01*
X132945828Y-98612017D01*
X132954637Y-98608369D01*
X132957539Y-98605986D01*
X132958953Y-98605259D01*
X132960252Y-98603760D01*
X132966002Y-98599042D01*
X133013343Y-98550006D01*
X133019838Y-98544374D01*
X133021817Y-98541228D01*
X133022948Y-98540058D01*
X133023705Y-98538230D01*
X133027670Y-98531931D01*
X133069345Y-98446041D01*
X133070567Y-98444820D01*
X133074236Y-98435960D01*
X133080544Y-98422962D01*
X133080735Y-98420272D01*
X133081766Y-98417784D01*
X133083207Y-98403152D01*
X133082002Y-98271521D01*
X133082618Y-98269675D01*
X133081892Y-98259460D01*
X133081766Y-98245663D01*
X133080735Y-98243174D01*
X133080544Y-98240485D01*
X133075289Y-98226754D01*
X133026597Y-98132199D01*
X133022948Y-98123389D01*
X133020565Y-98120486D01*
X133019838Y-98119073D01*
X133018339Y-98117773D01*
X133013621Y-98112024D01*
X132969906Y-98069819D01*
X133361779Y-98069819D01*
X133363220Y-99084451D01*
X133374419Y-99111487D01*
X133395111Y-99132179D01*
X133422147Y-99143378D01*
X133436779Y-99144819D01*
X133927601Y-99143378D01*
X133954637Y-99132179D01*
X133975329Y-99111487D01*
X133986528Y-99084451D01*
X133986528Y-99055187D01*
X133975329Y-99028151D01*
X133954637Y-99007459D01*
X133927601Y-98996260D01*
X133912969Y-98994819D01*
X133511674Y-98995997D01*
X133511141Y-98620701D01*
X133784744Y-98619568D01*
X133811780Y-98608369D01*
X133832472Y-98587677D01*
X133843671Y-98560641D01*
X133843671Y-98531377D01*
X133832472Y-98504341D01*
X133811780Y-98483649D01*
X133784744Y-98472450D01*
X133770112Y-98471009D01*
X133510930Y-98472082D01*
X133510629Y-98260295D01*
X134218922Y-98260295D01*
X134220027Y-98344601D01*
X134219511Y-98346152D01*
X134220169Y-98355421D01*
X134220363Y-98370165D01*
X134221394Y-98372654D01*
X134221585Y-98375342D01*
X134226840Y-98389074D01*
X134275532Y-98483630D01*
X134279181Y-98492439D01*
X134281563Y-98495341D01*
X134282291Y-98496755D01*
X134283789Y-98498054D01*
X134288508Y-98503804D01*
X134337543Y-98551145D01*
X134343176Y-98557640D01*
X134346321Y-98559619D01*
X134347492Y-98560750D01*
X134349319Y-98561507D01*
X134355619Y-98565472D01*
X134446851Y-98609740D01*
X134452362Y-98613823D01*
X134463377Y-98617758D01*
X134464588Y-98618346D01*
X134465128Y-98618384D01*
X134466208Y-98618770D01*
X134643691Y-98661854D01*
X134723708Y-98700680D01*
X134755035Y-98730924D01*
X134790557Y-98799905D01*
X134791346Y-98860066D01*
X134758298Y-98928175D01*
X134728052Y-98959504D01*
X134659302Y-98994907D01*
X134452521Y-98996086D01*
X134303302Y-98947789D01*
X134274112Y-98949864D01*
X134247939Y-98962950D01*
X134228765Y-98985057D01*
X134219511Y-99012820D01*
X134221586Y-99042010D01*
X134234672Y-99068183D01*
X134256779Y-99087357D01*
X134270205Y-99093351D01*
X134412786Y-99139500D01*
X134422147Y-99143378D01*
X134425910Y-99143748D01*
X134427398Y-99144230D01*
X134429372Y-99144089D01*
X134436779Y-99144819D01*
X134663383Y-99143526D01*
X134665493Y-99144230D01*
X134676435Y-99143452D01*
X134689506Y-99143378D01*
X134691995Y-99142346D01*
X134694683Y-99142156D01*
X134708415Y-99136901D01*
X134802969Y-99088209D01*
X134811780Y-99084560D01*
X134814682Y-99082177D01*
X134816096Y-99081450D01*
X134817396Y-99079950D01*
X134823146Y-99075232D01*
X134870487Y-99026195D01*
X134876981Y-99020564D01*
X134878960Y-99017418D01*
X134880092Y-99016247D01*
X134880849Y-99014417D01*
X134884813Y-99008121D01*
X134926488Y-98922231D01*
X134927710Y-98921010D01*
X134931379Y-98912150D01*
X134937687Y-98899152D01*
X134937878Y-98896462D01*
X134938909Y-98893974D01*
X134940350Y-98879342D01*
X134939244Y-98795034D01*
X134939761Y-98793484D01*
X134939102Y-98784213D01*
X134938909Y-98769472D01*
X134937878Y-98766983D01*
X134937687Y-98764294D01*
X134932432Y-98750563D01*
X134883740Y-98656008D01*
X134880091Y-98647198D01*
X134877708Y-98644295D01*
X134876981Y-98642882D01*
X134875482Y-98641582D01*
X134870764Y-98635833D01*
X134821728Y-98588491D01*
X134816096Y-98581997D01*
X134812950Y-98580017D01*
X134811780Y-98578887D01*
X134809952Y-98578129D01*
X134803653Y-98574165D01*
X134712421Y-98529898D01*
X134706910Y-98525814D01*
X134695890Y-98521876D01*
X134694683Y-98521291D01*
X134694143Y-98521252D01*
X134693064Y-98520867D01*
X134515580Y-98477782D01*
X134435564Y-98438957D01*
X134404236Y-98408712D01*
X134368714Y-98339731D01*
X134367925Y-98279570D01*
X134400974Y-98211460D01*
X134431218Y-98180133D01*
X134499969Y-98144730D01*
X134706750Y-98143551D01*
X134855969Y-98191849D01*
X134885159Y-98189774D01*
X134911333Y-98176688D01*
X134930507Y-98154580D01*
X134939761Y-98126818D01*
X134937686Y-98097628D01*
X134924599Y-98071455D01*
X134922713Y-98069819D01*
X135218922Y-98069819D01*
X135220363Y-99084451D01*
X135231562Y-99111487D01*
X135252254Y-99132179D01*
X135279290Y-99143378D01*
X135293922Y-99144819D01*
X135784744Y-99143378D01*
X135811780Y-99132179D01*
X135832472Y-99111487D01*
X135843671Y-99084451D01*
X135843671Y-99055187D01*
X135832472Y-99028151D01*
X135811780Y-99007459D01*
X135784744Y-98996260D01*
X135770112Y-98994819D01*
X135368817Y-98995997D01*
X135368284Y-98620701D01*
X135641887Y-98619568D01*
X135668923Y-98608369D01*
X135689615Y-98587677D01*
X135700814Y-98560641D01*
X135700814Y-98531377D01*
X135689615Y-98504341D01*
X135668923Y-98483649D01*
X135641887Y-98472450D01*
X135627255Y-98471009D01*
X135368073Y-98472082D01*
X135367607Y-98144602D01*
X135784744Y-98143378D01*
X135811780Y-98132179D01*
X135832472Y-98111487D01*
X135843671Y-98084451D01*
X135843671Y-98055187D01*
X135982268Y-98055187D01*
X135982268Y-98084451D01*
X135993467Y-98111487D01*
X136014159Y-98132179D01*
X136041195Y-98143378D01*
X136055827Y-98144819D01*
X136266646Y-98144300D01*
X136267982Y-99084451D01*
X136279181Y-99111487D01*
X136299873Y-99132179D01*
X136326909Y-99143378D01*
X136356173Y-99143378D01*
X136383209Y-99132179D01*
X136403901Y-99111487D01*
X136415100Y-99084451D01*
X136416541Y-99069819D01*
X136415226Y-98143935D01*
X136641887Y-98143378D01*
X136668923Y-98132179D01*
X136689615Y-98111487D01*
X136700814Y-98084451D01*
X136700814Y-98055187D01*
X136689615Y-98028151D01*
X136668923Y-98007459D01*
X136641887Y-97996260D01*
X136627255Y-97994819D01*
X136041195Y-97996260D01*
X136014159Y-98007459D01*
X135993467Y-98028151D01*
X135982268Y-98055187D01*
X135843671Y-98055187D01*
X135832472Y-98028151D01*
X135811780Y-98007459D01*
X135784744Y-97996260D01*
X135770112Y-97994819D01*
X135279290Y-97996260D01*
X135252254Y-98007459D01*
X135231562Y-98028151D01*
X135220363Y-98055187D01*
X135218922Y-98069819D01*
X134922713Y-98069819D01*
X134902492Y-98052281D01*
X134889067Y-98046287D01*
X134746488Y-98000138D01*
X134737125Y-97996260D01*
X134733359Y-97995889D01*
X134731873Y-97995408D01*
X134729898Y-97995548D01*
X134722493Y-97994819D01*
X134495887Y-97996111D01*
X134493778Y-97995408D01*
X134482835Y-97996185D01*
X134469766Y-97996260D01*
X134467277Y-97997290D01*
X134464588Y-97997482D01*
X134450857Y-98002737D01*
X134356302Y-98051428D01*
X134347492Y-98055078D01*
X134344589Y-98057460D01*
X134343176Y-98058188D01*
X134341876Y-98059686D01*
X134336127Y-98064405D01*
X134288785Y-98113440D01*
X134282291Y-98119073D01*
X134280311Y-98122218D01*
X134279181Y-98123389D01*
X134278423Y-98125216D01*
X134274459Y-98131516D01*
X134232784Y-98217404D01*
X134231562Y-98218627D01*
X134227889Y-98227492D01*
X134221585Y-98240486D01*
X134221394Y-98243173D01*
X134220363Y-98245663D01*
X134218922Y-98260295D01*
X133510629Y-98260295D01*
X133510464Y-98144602D01*
X133927601Y-98143378D01*
X133954637Y-98132179D01*
X133975329Y-98111487D01*
X133986528Y-98084451D01*
X133986528Y-98055187D01*
X133975329Y-98028151D01*
X133954637Y-98007459D01*
X133927601Y-97996260D01*
X133912969Y-97994819D01*
X133422147Y-97996260D01*
X133395111Y-98007459D01*
X133374419Y-98028151D01*
X133363220Y-98055187D01*
X133361779Y-98069819D01*
X132969906Y-98069819D01*
X132964585Y-98064682D01*
X132958953Y-98058188D01*
X132955807Y-98056208D01*
X132954637Y-98055078D01*
X132952809Y-98054320D01*
X132946510Y-98050356D01*
X132860621Y-98008681D01*
X132859399Y-98007459D01*
X132850533Y-98003786D01*
X132837540Y-97997482D01*
X132834852Y-97997291D01*
X132832363Y-97996260D01*
X132817731Y-97994819D01*
X132422147Y-97996260D01*
X132395111Y-98007459D01*
X132374419Y-98028151D01*
X132363220Y-98055187D01*
X132361779Y-98069819D01*
X132250668Y-98069819D01*
X132250668Y-97883708D01*
X136811925Y-97883708D01*
X136811925Y-99255930D01*
G37*
G36*
X127866565Y-76476871D02*
G01*
X127897892Y-76507115D01*
X127933350Y-76575972D01*
X127934335Y-76683604D01*
X127901155Y-76751985D01*
X127870910Y-76783313D01*
X127802222Y-76818684D01*
X127676071Y-76819144D01*
X127673249Y-76818646D01*
X127670915Y-76819162D01*
X127510997Y-76819745D01*
X127510464Y-76444550D01*
X127797798Y-76443503D01*
X127866565Y-76476871D01*
G37*
G36*
X128194318Y-77555913D02*
G01*
X127250668Y-77555913D01*
X127250668Y-76369819D01*
X127361779Y-76369819D01*
X127363220Y-77384451D01*
X127374419Y-77411487D01*
X127395111Y-77432179D01*
X127422147Y-77443378D01*
X127451411Y-77443378D01*
X127478447Y-77432179D01*
X127499139Y-77411487D01*
X127510338Y-77384451D01*
X127511779Y-77369819D01*
X127511208Y-76968356D01*
X127635431Y-76967904D01*
X127956336Y-77423989D01*
X127981015Y-77439716D01*
X128009832Y-77444802D01*
X128038403Y-77438472D01*
X128062377Y-77421690D01*
X128078104Y-77397012D01*
X128083189Y-77368194D01*
X128076860Y-77339623D01*
X128069650Y-77326810D01*
X127816793Y-76967439D01*
X127819691Y-76967233D01*
X127832363Y-76967187D01*
X127834852Y-76966155D01*
X127837540Y-76965965D01*
X127851272Y-76960710D01*
X127945828Y-76912017D01*
X127954637Y-76908369D01*
X127957539Y-76905986D01*
X127958953Y-76905259D01*
X127960252Y-76903760D01*
X127966002Y-76899042D01*
X128013343Y-76850006D01*
X128019838Y-76844374D01*
X128021817Y-76841228D01*
X128022948Y-76840058D01*
X128023705Y-76838230D01*
X128027670Y-76831931D01*
X128069345Y-76746041D01*
X128070567Y-76744820D01*
X128074236Y-76735960D01*
X128080544Y-76722962D01*
X128080735Y-76720272D01*
X128081766Y-76717784D01*
X128083207Y-76703152D01*
X128082002Y-76571521D01*
X128082618Y-76569675D01*
X128081892Y-76559460D01*
X128081766Y-76545663D01*
X128080735Y-76543174D01*
X128080544Y-76540485D01*
X128075289Y-76526754D01*
X128026597Y-76432199D01*
X128022948Y-76423389D01*
X128020565Y-76420486D01*
X128019838Y-76419073D01*
X128018339Y-76417773D01*
X128013621Y-76412024D01*
X127964585Y-76364682D01*
X127958953Y-76358188D01*
X127955807Y-76356208D01*
X127954637Y-76355078D01*
X127952809Y-76354320D01*
X127946510Y-76350356D01*
X127860621Y-76308681D01*
X127859399Y-76307459D01*
X127850533Y-76303786D01*
X127837540Y-76297482D01*
X127834852Y-76297291D01*
X127832363Y-76296260D01*
X127817731Y-76294819D01*
X127422147Y-76296260D01*
X127395111Y-76307459D01*
X127374419Y-76328151D01*
X127363220Y-76355187D01*
X127361779Y-76369819D01*
X127250668Y-76369819D01*
X127250668Y-76183708D01*
X128194318Y-76183708D01*
X128194318Y-77555913D01*
G37*
G36*
X130294318Y-77655930D02*
G01*
X129303049Y-77655930D01*
X129303049Y-76898390D01*
X129414160Y-76898390D01*
X129415427Y-77036969D01*
X129414249Y-77044893D01*
X129415583Y-77053917D01*
X129415601Y-77055879D01*
X129416023Y-77056900D01*
X129416399Y-77059437D01*
X129463916Y-77244135D01*
X129464442Y-77251532D01*
X129468644Y-77262514D01*
X129468965Y-77263759D01*
X129469287Y-77264194D01*
X129469697Y-77265264D01*
X129518387Y-77359816D01*
X129522037Y-77368628D01*
X129524420Y-77371532D01*
X129525148Y-77372945D01*
X129526646Y-77374244D01*
X129531365Y-77379994D01*
X129619534Y-77466479D01*
X129620386Y-77468183D01*
X129628030Y-77474813D01*
X129637968Y-77484561D01*
X129640458Y-77485592D01*
X129642493Y-77487357D01*
X129655919Y-77493351D01*
X129798500Y-77539500D01*
X129807861Y-77543378D01*
X129811624Y-77543748D01*
X129813112Y-77544230D01*
X129815086Y-77544089D01*
X129822493Y-77544819D01*
X129917810Y-77543568D01*
X129927111Y-77544230D01*
X129930765Y-77543398D01*
X129932363Y-77543378D01*
X129934194Y-77542619D01*
X129941448Y-77540970D01*
X130073238Y-77495759D01*
X130075220Y-77495759D01*
X130084772Y-77491802D01*
X130097730Y-77487357D01*
X130099765Y-77485591D01*
X130102256Y-77484560D01*
X130113622Y-77475232D01*
X130170568Y-77416247D01*
X130177849Y-77398668D01*
X130181766Y-77389212D01*
X130183207Y-77374580D01*
X130181766Y-77026615D01*
X130170567Y-76999579D01*
X130149875Y-76978887D01*
X130122839Y-76967688D01*
X130108207Y-76966247D01*
X129903099Y-76967688D01*
X129876063Y-76978887D01*
X129855371Y-76999579D01*
X129844172Y-77026615D01*
X129844172Y-77055879D01*
X129855371Y-77082915D01*
X129876063Y-77103607D01*
X129903099Y-77114806D01*
X129917731Y-77116247D01*
X130033514Y-77115433D01*
X130034456Y-77343006D01*
X130021651Y-77356269D01*
X129908944Y-77394934D01*
X129837566Y-77395870D01*
X129721639Y-77358348D01*
X129647431Y-77285558D01*
X129608739Y-77210421D01*
X129564121Y-77036991D01*
X129562979Y-76912219D01*
X129605005Y-76739096D01*
X129643730Y-76659286D01*
X129718009Y-76583561D01*
X129831174Y-76544739D01*
X129945802Y-76543690D01*
X130040778Y-76589775D01*
X130069968Y-76591849D01*
X130097730Y-76582595D01*
X130119837Y-76563422D01*
X130132925Y-76537247D01*
X130134999Y-76508057D01*
X130125745Y-76480296D01*
X130106572Y-76458188D01*
X130094129Y-76450356D01*
X130008240Y-76408681D01*
X130007018Y-76407459D01*
X129998152Y-76403786D01*
X129985159Y-76397482D01*
X129982471Y-76397291D01*
X129979982Y-76396260D01*
X129965350Y-76394819D01*
X129823131Y-76396120D01*
X129813112Y-76395408D01*
X129809428Y-76396245D01*
X129807861Y-76396260D01*
X129806030Y-76397018D01*
X129798775Y-76398668D01*
X129666985Y-76443879D01*
X129665005Y-76443879D01*
X129655455Y-76447834D01*
X129642493Y-76452281D01*
X129640458Y-76454045D01*
X129637968Y-76455077D01*
X129626603Y-76464405D01*
X129532671Y-76560167D01*
X129525148Y-76566692D01*
X129523135Y-76569888D01*
X129522038Y-76571008D01*
X129521280Y-76572835D01*
X129517316Y-76579135D01*
X129473049Y-76670366D01*
X129468965Y-76675878D01*
X129465027Y-76686897D01*
X129464442Y-76688105D01*
X129464403Y-76688644D01*
X129464018Y-76689724D01*
X129418777Y-76876089D01*
X129415601Y-76883758D01*
X129414703Y-76892872D01*
X129414249Y-76894744D01*
X129414411Y-76895836D01*
X129414160Y-76898390D01*
X129303049Y-76898390D01*
X129303049Y-76283708D01*
X130294318Y-76283708D01*
X130294318Y-77655930D01*
G37*
D12*
%TO.C,C7*%
X112240000Y-95508767D02*
X112240000Y-95216233D01*
X113260000Y-95508767D02*
X113260000Y-95216233D01*
%TO.C,C9*%
X115303733Y-91652500D02*
X115596267Y-91652500D01*
X115303733Y-92672500D02*
X115596267Y-92672500D01*
%TO.C,U3*%
X113890000Y-95262500D02*
X113890000Y-96062500D01*
X113890000Y-95262500D02*
X113890000Y-94462500D01*
X117010000Y-95262500D02*
X117010000Y-96062500D01*
X117010000Y-95262500D02*
X117010000Y-94462500D01*
X113940000Y-96562500D02*
X113610000Y-96802500D01*
X113610000Y-96322500D01*
X113940000Y-96562500D01*
G36*
X113940000Y-96562500D02*
G01*
X113610000Y-96802500D01*
X113610000Y-96322500D01*
X113940000Y-96562500D01*
G37*
%TO.C,R10*%
X114677500Y-87254724D02*
X114677500Y-86745276D01*
X115722500Y-87254724D02*
X115722500Y-86745276D01*
%TO.C,D5*%
X116105000Y-88617500D02*
X117575000Y-88617500D01*
X117575000Y-88617500D02*
X117575000Y-86157500D01*
X116105000Y-86157500D02*
X116105000Y-88617500D01*
%TO.C,D3*%
X119350000Y-99550000D02*
X126650000Y-99550000D01*
X119350000Y-105050000D02*
X126650000Y-105050000D01*
X126650000Y-105050000D02*
X126650000Y-103900000D01*
%TO.C,C4*%
X128490000Y-96296267D02*
X128490000Y-96003733D01*
X129510000Y-96296267D02*
X129510000Y-96003733D01*
%TO.C,Q2*%
X119377500Y-82800000D02*
X119377500Y-82150000D01*
X119377500Y-82800000D02*
X119377500Y-83450000D01*
X122497500Y-82800000D02*
X122497500Y-82150000D01*
X122497500Y-82800000D02*
X122497500Y-83450000D01*
X122777500Y-81877500D02*
X122447500Y-81637500D01*
X122777500Y-81397500D01*
X122777500Y-81877500D01*
G36*
X122777500Y-81877500D02*
G01*
X122447500Y-81637500D01*
X122777500Y-81397500D01*
X122777500Y-81877500D01*
G37*
D13*
%TO.C,SW2*%
X91158000Y-80892000D02*
G75*
G02*
X89204000Y-80892000I-977000J0D01*
G01*
X89204000Y-80892000D02*
G75*
G02*
X91158000Y-80892000I977000J0D01*
G01*
X96281000Y-80892000D02*
G75*
G02*
X84081000Y-80892000I-6100000J0D01*
G01*
X84081000Y-80892000D02*
G75*
G02*
X96281000Y-80892000I6100000J0D01*
G01*
X93813000Y-80890000D02*
G75*
G02*
X86545000Y-80890000I-3634000J0D01*
G01*
X86545000Y-80890000D02*
G75*
G02*
X93813000Y-80890000I3634000J0D01*
G01*
X97828000Y-85228000D02*
X97828000Y-76555000D01*
X96728000Y-87461000D02*
X94928000Y-87461000D01*
X96728000Y-74361000D02*
X94806000Y-74361000D01*
X94928000Y-89761000D02*
X94378000Y-90311000D01*
X94928000Y-87461000D02*
X94928000Y-89761000D01*
X94478000Y-74021000D02*
X94478000Y-71679000D01*
X94378000Y-90311000D02*
X93577000Y-90311000D01*
X93680000Y-81892000D02*
X86680000Y-81892000D01*
X93680000Y-79891000D02*
X86680000Y-79892000D01*
X93144000Y-69392000D02*
X87255000Y-69392000D01*
X91880000Y-72692000D02*
X88580000Y-72692000D01*
X91880000Y-71492000D02*
X91880000Y-72692000D01*
X91784000Y-90311000D02*
X91077000Y-90311000D01*
X91433000Y-78644000D02*
X91433000Y-79894000D01*
X91430000Y-83142000D02*
X88930000Y-83142000D01*
X91430000Y-81892000D02*
X91430000Y-83142000D01*
X91181000Y-73691000D02*
X91181000Y-70793000D01*
X91181000Y-70793000D02*
X89180000Y-70793000D01*
X89284000Y-90311000D02*
X88577000Y-90311000D01*
X89180000Y-73691000D02*
X89281000Y-73691000D01*
X89180000Y-70793000D02*
X89180000Y-73691000D01*
X88933000Y-79894000D02*
X88933000Y-78644000D01*
X88933000Y-78644000D02*
X91433000Y-78644000D01*
X88930000Y-83142000D02*
X88930000Y-81892000D01*
X88580000Y-72692000D02*
X88580000Y-71492000D01*
X88580000Y-71492000D02*
X91880000Y-71492000D01*
X86784000Y-90311000D02*
X85928000Y-90311000D01*
X85928000Y-90311000D02*
X85428000Y-89811000D01*
X85878000Y-73911000D02*
X85878000Y-71647000D01*
X85428000Y-89811000D02*
X85428000Y-87461000D01*
X85428000Y-87461000D02*
X83628000Y-87461000D01*
X83628000Y-87461000D02*
X83628000Y-87355000D01*
X83628000Y-74311000D02*
X85628000Y-74311000D01*
X82980000Y-84697000D02*
X82980000Y-77086000D01*
X82972000Y-84705000D02*
X82980000Y-84697000D01*
X82972000Y-77078000D02*
X82980000Y-77086000D01*
X82392000Y-85661000D02*
X81378000Y-85661000D01*
X81378000Y-85661000D02*
X80828000Y-85111000D01*
X81328000Y-76161000D02*
X82399000Y-76161000D01*
X80828000Y-85111000D02*
X80828000Y-84336000D01*
X80828000Y-82448000D02*
X80828000Y-81836000D01*
X80828000Y-79948000D02*
X80828000Y-79336000D01*
X80828000Y-77448000D02*
X80828000Y-76661000D01*
X80828000Y-76661000D02*
X81328000Y-76161000D01*
D12*
%TO.C,R1*%
X110877500Y-87054724D02*
X110877500Y-86545276D01*
X111922500Y-87054724D02*
X111922500Y-86545276D01*
%TO.C,R3*%
X130077500Y-96454724D02*
X130077500Y-95945276D01*
X131122500Y-96454724D02*
X131122500Y-95945276D01*
%TO.C,R6*%
X129347500Y-87672224D02*
X129347500Y-87162776D01*
X130392500Y-87672224D02*
X130392500Y-87162776D01*
%TO.C,R8*%
X118277500Y-86854724D02*
X118277500Y-86345276D01*
X119322500Y-86854724D02*
X119322500Y-86345276D01*
%TO.C,D2*%
X133435000Y-96860000D02*
X133435000Y-94400000D01*
X131965000Y-96860000D02*
X133435000Y-96860000D01*
X131965000Y-94400000D02*
X131965000Y-96860000D01*
%TO.C,TP4*%
X123900000Y-78500000D02*
G75*
G02*
X122500000Y-78500000I-700000J0D01*
G01*
X122500000Y-78500000D02*
G75*
G02*
X123900000Y-78500000I700000J0D01*
G01*
%TO.C,C2*%
X111135000Y-63838748D02*
X111135000Y-64361252D01*
X109665000Y-63838748D02*
X109665000Y-64361252D01*
%TO.C,C6*%
X129390000Y-84133767D02*
X129390000Y-83841233D01*
X130410000Y-84133767D02*
X130410000Y-83841233D01*
%TO.C,C1*%
X112490000Y-86946267D02*
X112490000Y-86653733D01*
X113510000Y-86946267D02*
X113510000Y-86653733D01*
%TO.C,TP1*%
X119500000Y-78400000D02*
G75*
G02*
X118100000Y-78400000I-700000J0D01*
G01*
X118100000Y-78400000D02*
G75*
G02*
X119500000Y-78400000I700000J0D01*
G01*
%TO.C,R4*%
X130154724Y-93077500D02*
X129645276Y-93077500D01*
X130154724Y-94122500D02*
X129645276Y-94122500D01*
D13*
%TO.C,SW5*%
X130863052Y-102394307D02*
X131217312Y-102040047D01*
X130865173Y-103807814D02*
X130863052Y-102394307D01*
X130940834Y-103883474D02*
X131408231Y-104350872D01*
X131217312Y-102040047D02*
X133694307Y-99563052D01*
X131218019Y-102746447D02*
X134046447Y-99918019D01*
X131218019Y-103453553D02*
X131218019Y-102746447D01*
X131218019Y-103453553D02*
X131761785Y-103997319D01*
X133149128Y-106091769D02*
X133694307Y-106636948D01*
X133502681Y-105738215D02*
X134046447Y-106281981D01*
X133694307Y-99563052D02*
X135107814Y-99565173D01*
X134046447Y-99918019D02*
X134753553Y-99918019D01*
X134753553Y-99918019D02*
X135297319Y-100461785D01*
X134753553Y-106281981D02*
X134046447Y-106281981D01*
X135107814Y-106634827D02*
X133694307Y-106636948D01*
X135650872Y-100108231D02*
X135107814Y-99565173D01*
X137038215Y-102202681D02*
X137581981Y-102746447D01*
X137581981Y-102746447D02*
X137581981Y-103453553D01*
X137581981Y-103453553D02*
X134753553Y-106281981D01*
X137936948Y-102394307D02*
X137391769Y-101849128D01*
X137936948Y-102394307D02*
X137936948Y-103805693D01*
X137936948Y-103805693D02*
X135107814Y-106634827D01*
X135904828Y-103100000D02*
G75*
G02*
X132900828Y-103100000I-1502000J0D01*
G01*
X132900828Y-103100000D02*
G75*
G02*
X135904828Y-103100000I1502000J0D01*
G01*
D12*
%TO.C,D4*%
X124240000Y-90362500D02*
X124240000Y-89712500D01*
X124240000Y-90362500D02*
X124240000Y-91012500D01*
X127360000Y-90362500D02*
X127360000Y-89712500D01*
X127360000Y-90362500D02*
X127360000Y-91012500D01*
X127640000Y-89440000D02*
X127310000Y-89200000D01*
X127640000Y-88960000D01*
X127640000Y-89440000D01*
G36*
X127640000Y-89440000D02*
G01*
X127310000Y-89200000D01*
X127640000Y-88960000D01*
X127640000Y-89440000D01*
G37*
%TO.C,R7*%
X130977500Y-83732776D02*
X130977500Y-84242224D01*
X132022500Y-83732776D02*
X132022500Y-84242224D01*
%TO.C,D1*%
X123815000Y-92615000D02*
X123815000Y-94085000D01*
X123815000Y-94085000D02*
X126275000Y-94085000D01*
X126275000Y-92615000D02*
X123815000Y-92615000D01*
%TO.C,Q1*%
X120040000Y-86737500D02*
X120040000Y-86087500D01*
X120040000Y-86737500D02*
X120040000Y-87387500D01*
X123160000Y-86737500D02*
X123160000Y-86087500D01*
X123160000Y-86737500D02*
X123160000Y-87387500D01*
X120090000Y-87900000D02*
X119760000Y-88140000D01*
X119760000Y-87660000D01*
X120090000Y-87900000D01*
G36*
X120090000Y-87900000D02*
G01*
X119760000Y-88140000D01*
X119760000Y-87660000D01*
X120090000Y-87900000D01*
G37*
%TO.C,U4*%
X132300000Y-75900000D02*
X114300000Y-75900000D01*
X132300000Y-75650000D02*
X132300000Y-75900000D01*
X132300000Y-61900000D02*
X114350000Y-61900000D01*
X132300000Y-55900000D02*
X132300000Y-62400000D01*
X114300000Y-75900000D02*
X114300000Y-75650000D01*
X114300000Y-55900000D02*
X132300000Y-55900000D01*
X114300000Y-55900000D02*
X114300000Y-62400000D01*
%TO.C,C11*%
X117353733Y-98590000D02*
X117646267Y-98590000D01*
X117353733Y-99610000D02*
X117646267Y-99610000D01*
%TO.C,R5*%
X130857500Y-87154798D02*
X130857500Y-87664246D01*
X131902500Y-87154798D02*
X131902500Y-87664246D01*
%TO.C,C5*%
X121415000Y-96211252D02*
X121415000Y-95688748D01*
X122885000Y-96211252D02*
X122885000Y-95688748D01*
D13*
%TO.C,SW3*%
X157058000Y-80792000D02*
G75*
G02*
X155104000Y-80792000I-977000J0D01*
G01*
X155104000Y-80792000D02*
G75*
G02*
X157058000Y-80792000I977000J0D01*
G01*
X162181000Y-80792000D02*
G75*
G02*
X149981000Y-80792000I-6100000J0D01*
G01*
X149981000Y-80792000D02*
G75*
G02*
X162181000Y-80792000I6100000J0D01*
G01*
X159713000Y-80790000D02*
G75*
G02*
X152445000Y-80790000I-3634000J0D01*
G01*
X152445000Y-80790000D02*
G75*
G02*
X159713000Y-80790000I3634000J0D01*
G01*
X163728000Y-85128000D02*
X163728000Y-76455000D01*
X162628000Y-87361000D02*
X160828000Y-87361000D01*
X162628000Y-74261000D02*
X160706000Y-74261000D01*
X160828000Y-89661000D02*
X160278000Y-90211000D01*
X160828000Y-87361000D02*
X160828000Y-89661000D01*
X160378000Y-73921000D02*
X160378000Y-71579000D01*
X160278000Y-90211000D02*
X159477000Y-90211000D01*
X159580000Y-81792000D02*
X152580000Y-81792000D01*
X159580000Y-79791000D02*
X152580000Y-79792000D01*
X159044000Y-69292000D02*
X153155000Y-69292000D01*
X157780000Y-72592000D02*
X154480000Y-72592000D01*
X157780000Y-71392000D02*
X157780000Y-72592000D01*
X157684000Y-90211000D02*
X156977000Y-90211000D01*
X157333000Y-78544000D02*
X157333000Y-79794000D01*
X157330000Y-83042000D02*
X154830000Y-83042000D01*
X157330000Y-81792000D02*
X157330000Y-83042000D01*
X157081000Y-73591000D02*
X157081000Y-70693000D01*
X157081000Y-70693000D02*
X155080000Y-70693000D01*
X155184000Y-90211000D02*
X154477000Y-90211000D01*
X155080000Y-73591000D02*
X155181000Y-73591000D01*
X155080000Y-70693000D02*
X155080000Y-73591000D01*
X154833000Y-79794000D02*
X154833000Y-78544000D01*
X154833000Y-78544000D02*
X157333000Y-78544000D01*
X154830000Y-83042000D02*
X154830000Y-81792000D01*
X154480000Y-72592000D02*
X154480000Y-71392000D01*
X154480000Y-71392000D02*
X157780000Y-71392000D01*
X152684000Y-90211000D02*
X151828000Y-90211000D01*
X151828000Y-90211000D02*
X151328000Y-89711000D01*
X151778000Y-73811000D02*
X151778000Y-71547000D01*
X151328000Y-89711000D02*
X151328000Y-87361000D01*
X151328000Y-87361000D02*
X149528000Y-87361000D01*
X149528000Y-87361000D02*
X149528000Y-87255000D01*
X149528000Y-74211000D02*
X151528000Y-74211000D01*
X148880000Y-84597000D02*
X148880000Y-76986000D01*
X148872000Y-84605000D02*
X148880000Y-84597000D01*
X148872000Y-76978000D02*
X148880000Y-76986000D01*
X148292000Y-85561000D02*
X147278000Y-85561000D01*
X147278000Y-85561000D02*
X146728000Y-85011000D01*
X147228000Y-76061000D02*
X148299000Y-76061000D01*
X146728000Y-85011000D02*
X146728000Y-84236000D01*
X146728000Y-82348000D02*
X146728000Y-81736000D01*
X146728000Y-79848000D02*
X146728000Y-79236000D01*
X146728000Y-77348000D02*
X146728000Y-76561000D01*
X146728000Y-76561000D02*
X147228000Y-76061000D01*
D12*
%TO.C,R2*%
X111377500Y-72945276D02*
X111377500Y-73454724D01*
X112422500Y-72945276D02*
X112422500Y-73454724D01*
%TO.C,TP5*%
X121700000Y-78400000D02*
G75*
G02*
X120300000Y-78400000I-700000J0D01*
G01*
X120300000Y-78400000D02*
G75*
G02*
X121700000Y-78400000I700000J0D01*
G01*
D13*
%TO.C,U1*%
X126650000Y-94700000D02*
X124850000Y-94700000D01*
X126650000Y-97800000D02*
X124850000Y-97800000D01*
X124480000Y-94599000D02*
G75*
G02*
X124226000Y-94599000I-127000J0D01*
G01*
X124226000Y-94599000D02*
G75*
G02*
X124480000Y-94599000I127000J0D01*
G01*
D12*
%TO.C,R9*%
X123277500Y-82954724D02*
X123277500Y-82445276D01*
X124322500Y-82954724D02*
X124322500Y-82445276D01*
%TO.C,TP2*%
X126100000Y-78500000D02*
G75*
G02*
X124700000Y-78500000I-700000J0D01*
G01*
X124700000Y-78500000D02*
G75*
G02*
X126100000Y-78500000I700000J0D01*
G01*
%TO.C,TP3*%
X128300000Y-78500000D02*
G75*
G02*
X126900000Y-78500000I-700000J0D01*
G01*
X126900000Y-78500000D02*
G75*
G02*
X128300000Y-78500000I700000J0D01*
G01*
%TO.C,TP6*%
X130400000Y-78500000D02*
G75*
G02*
X129000000Y-78500000I-700000J0D01*
G01*
X129000000Y-78500000D02*
G75*
G02*
X130400000Y-78500000I700000J0D01*
G01*
D13*
%TO.C,SW8*%
X108641732Y-103784373D02*
X108643853Y-102370866D01*
X108996699Y-102725127D02*
X109540465Y-102181361D01*
X108996699Y-103432233D02*
X108996699Y-102725127D01*
X109186911Y-101827808D02*
X108643853Y-102370866D01*
X111118727Y-106261368D02*
X108641732Y-103784373D01*
X111281361Y-100440465D02*
X111825127Y-99896699D01*
X111472987Y-99541732D02*
X110927808Y-100086911D01*
X111472987Y-99541732D02*
X112884373Y-99541732D01*
X111472987Y-106615628D02*
X111118727Y-106261368D01*
X111825127Y-99896699D02*
X112532233Y-99896699D01*
X111825127Y-106260661D02*
X108996699Y-103432233D01*
X112532233Y-99896699D02*
X115360661Y-102725127D01*
X112532233Y-106260661D02*
X111825127Y-106260661D01*
X112532233Y-106260661D02*
X113075999Y-105716895D01*
X112884373Y-99541732D02*
X115713507Y-102370866D01*
X112886494Y-106613507D02*
X111472987Y-106615628D01*
X112962154Y-106537846D02*
X113429552Y-106070449D01*
X114816895Y-103975999D02*
X115360661Y-103432233D01*
X115170449Y-104329552D02*
X115715628Y-103784373D01*
X115360661Y-102725127D02*
X115360661Y-103432233D01*
X115713507Y-102370866D02*
X115715628Y-103784373D01*
X113680680Y-103075852D02*
G75*
G02*
X110676680Y-103075852I-1502000J0D01*
G01*
X110676680Y-103075852D02*
G75*
G02*
X113680680Y-103075852I1502000J0D01*
G01*
D12*
%TO.C,C3*%
X112910000Y-63753733D02*
X112910000Y-64046267D01*
X111890000Y-63753733D02*
X111890000Y-64046267D01*
%TD*%
M02*
