M48
; DRILL file {KiCad 8.0.1} date 2024-04-23T15:56:54+0800
; FORMAT={-:-/ absolute / inch / decimal}
; #@! TF.CreationDate,2024-04-23T15:56:54+08:00
; #@! TF.GenerationSoftware,Kicad,Pcbnew,8.0.1
; #@! TF.FileFunction,Plated,1,2,PTH
FMAT,2
INCH
; #@! TA.AperFunction,Plated,PTH,ViaDrill
T1C0.0098
; #@! TA.AperFunction,Plated,PTH,ViaDrill
T2C0.0118
; #@! TA.AperFunction,Plated,PTH,ComponentDrill
T3C0.0197
; #@! TA.AperFunction,Plated,PTH,ViaDrill
T4C0.0236
; #@! TA.AperFunction,Plated,PTH,ViaDrill
T5C0.0315
; #@! TA.AperFunction,Plated,PTH,ComponentDrill
T6C0.0394
; #@! TA.AperFunction,Plated,PTH,ComponentDrill
T7C0.0472
; #@! TA.AperFunction,Plated,PTH,ComponentDrill
T8C0.0591
; #@! TA.AperFunction,Plated,PTH,ComponentDrill
T9C0.0630
; #@! TA.AperFunction,Plated,PTH,ComponentDrill
T10C0.0709
; #@! TA.AperFunction,Plated,PTH,ComponentDrill
T11C0.0866
%
G90
G05
T1
X4.4788Y-3.242
X4.5048Y-4.1386
X4.5118Y-2.4803
X4.5118Y-2.5984
X4.5118Y-2.6575
X4.5653Y-3.2221
X4.6929Y-3.4016
X4.7047Y-3.752
X4.8701Y-3.7559
X5.0256Y-3.7638
X5.1929Y-3.2594
X5.1929Y-3.3312
X5.2008Y-2.4803
X5.2278Y-2.3234
X5.249Y-2.753
X5.2559Y-2.6457
X5.2559Y-3.2613
X5.2795Y-2.3858
X5.499Y-2.8917
T2
X4.5984Y-4.0261
T4
X4.5709Y-3.9016
X4.6417Y-3.874
X4.6535Y-2.4961
X4.8091Y-3.8002
X4.8268Y-2.878
X4.9016Y-2.8898
X4.9449Y-4.0276
X5.0Y-3.122
X5.0157Y-2.4409
X5.0591Y-2.7598
X5.0866Y-2.8465
X5.122Y-2.2441
X5.122Y-3.7205
X5.185Y-2.7655
X5.2982Y-3.3465
T5
X4.9788Y-2.8071
T6
X5.4213Y-2.6181
X5.4213Y-2.7181
T7
X3.2067Y-3.0863
X3.2067Y-3.1847
X3.2067Y-3.2831
X3.452Y-3.5284
X3.5504Y-3.5284
X3.6489Y-3.5284
X4.1703Y-2.3546
X4.2956Y-2.2293
X5.4173Y-2.2283
X5.5426Y-2.3536
X5.8012Y-3.0824
X5.8012Y-3.1808
X5.8012Y-3.2792
X6.0465Y-3.5245
X6.1449Y-3.5245
X6.2433Y-3.5245
T8
X4.2051Y-2.459
X4.4Y-2.2641
X5.3129Y-2.2631
X5.5078Y-2.458
T9
X3.4134Y-2.7795
X3.4134Y-2.9567
X3.689Y-2.7795
X3.689Y-2.9567
X6.0079Y-2.7756
X6.0079Y-2.9528
X6.2835Y-2.7756
X6.2835Y-2.9528
T10
X3.3014Y-2.9879
X3.3014Y-3.3816
X3.7994Y-2.9879
X3.7994Y-3.3816
X5.8959Y-2.9839
X5.8959Y-3.3776
X6.3939Y-2.9839
X6.3939Y-3.3776
T11
X4.0669Y-2.6339
X4.0669Y-3.7402
X5.6417Y-2.6339
X5.6417Y-3.7402
T3
G00X4.6646Y-3.969
M15
G01X4.6646Y-3.9414
M16
G05
G00X4.6646Y-4.1186
M15
G01X4.6646Y-4.091
M16
G05
G00X5.0047Y-3.969
M15
G01X5.0047Y-3.9414
M16
G05
G00X5.0047Y-4.1186
M15
G01X5.0047Y-4.091
M16
G05
M30
