%TF.GenerationSoftware,KiCad,Pcbnew,8.0.2*%
%TF.CreationDate,2024-05-05T16:16:47+08:00*%
%TF.ProjectId,controller,636f6e74-726f-46c6-9c65-722e6b696361,rev?*%
%TF.SameCoordinates,Original*%
%TF.FileFunction,Copper,L1,Top*%
%TF.FilePolarity,Positive*%
%FSLAX46Y46*%
G04 Gerber Fmt 4.6, Leading zero omitted, Abs format (unit mm)*
G04 Created by KiCad (PCBNEW 8.0.2) date 2024-05-05 16:16:47*
%MOMM*%
%LPD*%
G01*
G04 APERTURE LIST*
G04 Aperture macros list*
%AMRoundRect*
0 Rectangle with rounded corners*
0 $1 Rounding radius*
0 $2 $3 $4 $5 $6 $7 $8 $9 X,Y pos of 4 corners*
0 Add a 4 corners polygon primitive as box body*
4,1,4,$2,$3,$4,$5,$6,$7,$8,$9,$2,$3,0*
0 Add four circle primitives for the rounded corners*
1,1,$1+$1,$2,$3*
1,1,$1+$1,$4,$5*
1,1,$1+$1,$6,$7*
1,1,$1+$1,$8,$9*
0 Add four rect primitives between the rounded corners*
20,1,$1+$1,$2,$3,$4,$5,0*
20,1,$1+$1,$4,$5,$6,$7,0*
20,1,$1+$1,$6,$7,$8,$9,0*
20,1,$1+$1,$8,$9,$2,$3,0*%
%AMRotRect*
0 Rectangle, with rotation*
0 The origin of the aperture is its center*
0 $1 length*
0 $2 width*
0 $3 Rotation angle, in degrees counterclockwise*
0 Add horizontal line*
21,1,$1,$2,0,0,$3*%
G04 Aperture macros list end*
%TA.AperFunction,SMDPad,CuDef*%
%ADD10RoundRect,0.237500X0.237500X-0.300000X0.237500X0.300000X-0.237500X0.300000X-0.237500X-0.300000X0*%
%TD*%
%TA.AperFunction,SMDPad,CuDef*%
%ADD11RoundRect,0.237500X-0.300000X-0.237500X0.300000X-0.237500X0.300000X0.237500X-0.300000X0.237500X0*%
%TD*%
%TA.AperFunction,SMDPad,CuDef*%
%ADD12RoundRect,0.150000X0.150000X-0.512500X0.150000X0.512500X-0.150000X0.512500X-0.150000X-0.512500X0*%
%TD*%
%TA.AperFunction,SMDPad,CuDef*%
%ADD13RoundRect,0.237500X0.237500X-0.250000X0.237500X0.250000X-0.237500X0.250000X-0.237500X-0.250000X0*%
%TD*%
%TA.AperFunction,SMDPad,CuDef*%
%ADD14RoundRect,0.237500X0.237500X-0.287500X0.237500X0.287500X-0.237500X0.287500X-0.237500X-0.287500X0*%
%TD*%
%TA.AperFunction,SMDPad,CuDef*%
%ADD15R,1.500000X0.900000*%
%TD*%
%TA.AperFunction,ComponentPad*%
%ADD16C,4.400000*%
%TD*%
%TA.AperFunction,SMDPad,CuDef*%
%ADD17RoundRect,0.150000X-0.150000X0.587500X-0.150000X-0.587500X0.150000X-0.587500X0.150000X0.587500X0*%
%TD*%
%TA.AperFunction,ComponentPad*%
%ADD18C,2.200000*%
%TD*%
%TA.AperFunction,ComponentPad*%
%ADD19C,2.500000*%
%TD*%
%TA.AperFunction,ComponentPad*%
%ADD20C,1.800000*%
%TD*%
%TA.AperFunction,SMDPad,CuDef*%
%ADD21C,1.000000*%
%TD*%
%TA.AperFunction,SMDPad,CuDef*%
%ADD22RoundRect,0.250000X-0.475000X0.337500X-0.475000X-0.337500X0.475000X-0.337500X0.475000X0.337500X0*%
%TD*%
%TA.AperFunction,SMDPad,CuDef*%
%ADD23RoundRect,0.237500X0.250000X0.237500X-0.250000X0.237500X-0.250000X-0.237500X0.250000X-0.237500X0*%
%TD*%
%TA.AperFunction,SMDPad,CuDef*%
%ADD24RotRect,2.000000X2.000000X45.000000*%
%TD*%
%TA.AperFunction,SMDPad,CuDef*%
%ADD25RoundRect,0.237500X-0.237500X0.250000X-0.237500X-0.250000X0.237500X-0.250000X0.237500X0.250000X0*%
%TD*%
%TA.AperFunction,SMDPad,CuDef*%
%ADD26RoundRect,0.237500X-0.287500X-0.237500X0.287500X-0.237500X0.287500X0.237500X-0.287500X0.237500X0*%
%TD*%
%TA.AperFunction,SMDPad,CuDef*%
%ADD27RoundRect,0.150000X0.150000X-0.587500X0.150000X0.587500X-0.150000X0.587500X-0.150000X-0.587500X0*%
%TD*%
%TA.AperFunction,SMDPad,CuDef*%
%ADD28R,0.700000X0.700000*%
%TD*%
%TA.AperFunction,SMDPad,CuDef*%
%ADD29RoundRect,0.250000X0.475000X-0.337500X0.475000X0.337500X-0.475000X0.337500X-0.475000X-0.337500X0*%
%TD*%
%TA.AperFunction,SMDPad,CuDef*%
%ADD30R,1.100000X0.600000*%
%TD*%
%TA.AperFunction,SMDPad,CuDef*%
%ADD31RotRect,2.000000X2.000000X135.000000*%
%TD*%
%TA.AperFunction,SMDPad,CuDef*%
%ADD32RoundRect,0.237500X-0.237500X0.300000X-0.237500X-0.300000X0.237500X-0.300000X0.237500X0.300000X0*%
%TD*%
%TA.AperFunction,ComponentPad*%
%ADD33O,1.200000X1.700000*%
%TD*%
%TA.AperFunction,ViaPad*%
%ADD34C,1.200000*%
%TD*%
%TA.AperFunction,ViaPad*%
%ADD35C,0.500000*%
%TD*%
%TA.AperFunction,ViaPad*%
%ADD36C,1.500000*%
%TD*%
%TA.AperFunction,ViaPad*%
%ADD37C,0.600000*%
%TD*%
%TA.AperFunction,Conductor*%
%ADD38C,0.600000*%
%TD*%
%TA.AperFunction,Conductor*%
%ADD39C,0.800000*%
%TD*%
%TA.AperFunction,Conductor*%
%ADD40C,0.250000*%
%TD*%
%TA.AperFunction,Conductor*%
%ADD41C,0.300000*%
%TD*%
G04 APERTURE END LIST*
D10*
%TO.P,C7,1*%
%TO.N,+BATT*%
X112750000Y-96225000D03*
%TO.P,C7,2*%
%TO.N,GND*%
X112750000Y-94500000D03*
%TD*%
D11*
%TO.P,C9,1*%
%TO.N,+3V3*%
X114587500Y-92162500D03*
%TO.P,C9,2*%
%TO.N,GND*%
X116312500Y-92162500D03*
%TD*%
D12*
%TO.P,U3,1,VIN*%
%TO.N,+BATT*%
X114500000Y-96400000D03*
%TO.P,U3,2,GND*%
%TO.N,GND*%
X115450000Y-96400000D03*
%TO.P,U3,3,CE*%
%TO.N,+BATT*%
X116400000Y-96400000D03*
%TO.P,U3,4,NC*%
%TO.N,unconnected-(U3-NC-Pad4)*%
X116400000Y-94125000D03*
%TO.P,U3,5,VOUT*%
%TO.N,+3V3*%
X114500000Y-94125000D03*
%TD*%
D13*
%TO.P,R10,1*%
%TO.N,Net-(D5-K)*%
X115200000Y-87912500D03*
%TO.P,R10,2*%
%TO.N,GND*%
X115200000Y-86087500D03*
%TD*%
D14*
%TO.P,D5,1,K*%
%TO.N,Net-(D5-K)*%
X116840000Y-87832500D03*
%TO.P,D5,2,A*%
%TO.N,VCC*%
X116840000Y-86082500D03*
%TD*%
D15*
%TO.P,D3,1,VDD*%
%TO.N,+BATT*%
X120550000Y-100650000D03*
%TO.P,D3,2,DOUT*%
%TO.N,unconnected-(D3-DOUT-Pad2)*%
X120550000Y-103950000D03*
%TO.P,D3,3,VSS*%
%TO.N,GND*%
X125450000Y-103950000D03*
%TO.P,D3,4,DIN*%
%TO.N,/RGB*%
X125450000Y-100650000D03*
%TD*%
D10*
%TO.P,C4,1*%
%TO.N,Net-(U1-VCC)*%
X129000000Y-97012500D03*
%TO.P,C4,2*%
%TO.N,GND*%
X129000000Y-95287500D03*
%TD*%
D16*
%TO.P,H1,1*%
%TO.N,N/C*%
X103300000Y-95000000D03*
%TD*%
D17*
%TO.P,Q2,1,G*%
%TO.N,/POWER_EN*%
X121887500Y-81862500D03*
%TO.P,Q2,2,S*%
%TO.N,GND*%
X119987500Y-81862500D03*
%TO.P,Q2,3,D*%
%TO.N,Net-(Q1-G)*%
X120937500Y-83737500D03*
%TD*%
D18*
%TO.P,SW2,d,d*%
%TO.N,GND*%
X86700000Y-70600000D03*
%TO.P,SW2,c,c*%
%TO.N,/IO9*%
X86700000Y-75100000D03*
%TO.P,SW2,b,b*%
%TO.N,GND*%
X93700000Y-70600000D03*
%TO.P,SW2,a,a*%
%TO.N,/IO9*%
X93700000Y-75100000D03*
D19*
%TO.P,SW2,10,GND*%
%TO.N,GND*%
X83855000Y-85892000D03*
%TO.P,SW2,9,GND*%
X83855000Y-75892000D03*
%TO.P,SW2,8,GND*%
X96505000Y-75892000D03*
%TO.P,SW2,7,GND*%
X96505000Y-85892000D03*
D20*
%TO.P,SW2,6,B*%
X92681000Y-89622000D03*
%TO.P,SW2,5,DTA*%
%TO.N,/ADC2_CH0*%
X90180000Y-89622000D03*
%TO.P,SW2,4,A*%
%TO.N,VCC*%
X87681000Y-89622000D03*
%TO.P,SW2,3,A*%
%TO.N,GND*%
X81451000Y-83392000D03*
%TO.P,SW2,2,DTA*%
%TO.N,/ADC1_CH4*%
X81451000Y-80892000D03*
%TO.P,SW2,1,B*%
%TO.N,VCC*%
X81451000Y-78392000D03*
%TD*%
D13*
%TO.P,R1,1*%
%TO.N,/EN*%
X111400000Y-87712500D03*
%TO.P,R1,2*%
%TO.N,VCC*%
X111400000Y-85887500D03*
%TD*%
%TO.P,R3,1*%
%TO.N,Net-(U1-VCC)*%
X130600000Y-97112500D03*
%TO.P,R3,2*%
%TO.N,Net-(D1-A)*%
X130600000Y-95287500D03*
%TD*%
%TO.P,R6,1*%
%TO.N,GND*%
X129870000Y-88330000D03*
%TO.P,R6,2*%
%TO.N,Net-(C6-Pad1)*%
X129870000Y-86505000D03*
%TD*%
%TO.P,R8,1*%
%TO.N,+3V3*%
X118800000Y-87512500D03*
%TO.P,R8,2*%
%TO.N,Net-(Q1-G)*%
X118800000Y-85687500D03*
%TD*%
D14*
%TO.P,D2,2,A*%
%TO.N,Net-(D1-A)*%
X132700000Y-94325000D03*
%TO.P,D2,1,K*%
%TO.N,Net-(D2-K)*%
X132700000Y-96075000D03*
%TD*%
D21*
%TO.P,TP4,1,1*%
%TO.N,/EN*%
X123200000Y-78500000D03*
%TD*%
D22*
%TO.P,C2,2*%
%TO.N,GND*%
X110400000Y-65137500D03*
%TO.P,C2,1*%
%TO.N,VCC*%
X110400000Y-63062500D03*
%TD*%
D10*
%TO.P,C6,1*%
%TO.N,Net-(C6-Pad1)*%
X129900000Y-84850000D03*
%TO.P,C6,2*%
%TO.N,GND*%
X129900000Y-83125000D03*
%TD*%
%TO.P,C1,1*%
%TO.N,/EN*%
X113000000Y-87662500D03*
%TO.P,C1,2*%
%TO.N,GND*%
X113000000Y-85937500D03*
%TD*%
D16*
%TO.P,H3,1*%
%TO.N,N/C*%
X143300000Y-95000000D03*
%TD*%
D21*
%TO.P,TP1,1,1*%
%TO.N,VCC*%
X118800000Y-78400000D03*
%TD*%
D16*
%TO.P,H4,1*%
%TO.N,N/C*%
X103300000Y-66900000D03*
%TD*%
D23*
%TO.P,R4,1*%
%TO.N,GND*%
X130812500Y-93600000D03*
%TO.P,R4,2*%
%TO.N,Net-(U1-PROG)*%
X128987500Y-93600000D03*
%TD*%
D24*
%TO.P,SW5,1,1*%
%TO.N,GND*%
X132278680Y-105221320D03*
%TO.P,SW5,2,2*%
%TO.N,Net-(D4-C)*%
X136521320Y-100978680D03*
%TD*%
D17*
%TO.P,D4,1,A*%
%TO.N,/KEY*%
X126750000Y-89425000D03*
%TO.P,D4,2,A*%
%TO.N,Net-(Q1-G)*%
X124850000Y-89425000D03*
%TO.P,D4,3,C*%
%TO.N,Net-(D4-C)*%
X125800000Y-91300000D03*
%TD*%
D25*
%TO.P,R7,1*%
%TO.N,/ADC1_CH3*%
X131500000Y-83075000D03*
%TO.P,R7,2*%
%TO.N,Net-(C6-Pad1)*%
X131500000Y-84900000D03*
%TD*%
D26*
%TO.P,D1,1,K*%
%TO.N,Net-(D1-K)*%
X124600000Y-93350000D03*
%TO.P,D1,2,A*%
%TO.N,Net-(D1-A)*%
X126350000Y-93350000D03*
%TD*%
D27*
%TO.P,Q1,1,G*%
%TO.N,Net-(Q1-G)*%
X120650000Y-87675000D03*
%TO.P,Q1,2,S*%
%TO.N,+3V3*%
X122550000Y-87675000D03*
%TO.P,Q1,3,D*%
%TO.N,VCC*%
X121600000Y-85800000D03*
%TD*%
D28*
%TO.P,U4,19,EP*%
%TO.N,GND*%
X125360000Y-70300000D03*
X125360000Y-69200000D03*
X125360000Y-68100000D03*
X124210000Y-70300000D03*
X124210000Y-69200000D03*
X124210000Y-68100000D03*
X123160000Y-70300000D03*
X123160000Y-69200000D03*
X123160000Y-68100000D03*
D15*
%TO.P,U4,18,IO0*%
%TO.N,/R_U_SW*%
X132050000Y-63000000D03*
%TO.P,U4,17,IO1*%
%TO.N,/ADC1_CH1*%
X132050000Y-64500000D03*
%TO.P,U4,16,IO2*%
%TO.N,/ADC1_CH2*%
X132050000Y-66000000D03*
%TO.P,U4,15,IO3*%
%TO.N,/ADC1_CH3*%
X132050000Y-67500000D03*
%TO.P,U4,14,IO19*%
%TO.N,/R_BUTTON*%
X132050000Y-69000000D03*
%TO.P,U4,13,IO18*%
%TO.N,/POWER_EN*%
X132050000Y-70500000D03*
%TO.P,U4,12,TXD*%
%TO.N,/TXD*%
X132050000Y-72000000D03*
%TO.P,U4,11,RXD*%
%TO.N,/RXD*%
X132050000Y-73500000D03*
%TO.P,U4,10,IO10*%
%TO.N,/KEY*%
X132050000Y-75000000D03*
%TO.P,U4,9,GND*%
%TO.N,GND*%
X114550000Y-75000000D03*
%TO.P,U4,8,IO9*%
%TO.N,/IO9*%
X114550000Y-73500000D03*
%TO.P,U4,7,IO8*%
%TO.N,Net-(U4-IO8)*%
X114550000Y-72000000D03*
%TO.P,U4,6,IO7*%
%TO.N,/RGB*%
X114550000Y-70500000D03*
%TO.P,U4,5,IO6*%
%TO.N,/L_U_SW*%
X114550000Y-69000000D03*
%TO.P,U4,4,IO5*%
%TO.N,/ADC2_CH0*%
X114550000Y-67500000D03*
%TO.P,U4,3,IO4*%
%TO.N,/ADC1_CH4*%
X114550000Y-66000000D03*
%TO.P,U4,2,EN*%
%TO.N,/EN*%
X114550000Y-64500000D03*
%TO.P,U4,1,3V3*%
%TO.N,VCC*%
X114550000Y-63000000D03*
%TD*%
D11*
%TO.P,C11,1*%
%TO.N,GND*%
X116637500Y-99100000D03*
%TO.P,C11,2*%
%TO.N,+BATT*%
X118362500Y-99100000D03*
%TD*%
D25*
%TO.P,R5,1*%
%TO.N,Net-(C6-Pad1)*%
X131380000Y-86497022D03*
%TO.P,R5,2*%
%TO.N,+BATT*%
X131380000Y-88322022D03*
%TD*%
D29*
%TO.P,C5,1*%
%TO.N,+BATT*%
X122150000Y-96987500D03*
%TO.P,C5,2*%
%TO.N,GND*%
X122150000Y-94912500D03*
%TD*%
D18*
%TO.P,SW3,d,d*%
%TO.N,GND*%
X152600000Y-70500000D03*
%TO.P,SW3,c,c*%
%TO.N,/R_BUTTON*%
X152600000Y-75000000D03*
%TO.P,SW3,b,b*%
%TO.N,GND*%
X159600000Y-70500000D03*
%TO.P,SW3,a,a*%
%TO.N,/R_BUTTON*%
X159600000Y-75000000D03*
D19*
%TO.P,SW3,10,GND*%
%TO.N,GND*%
X149755000Y-85792000D03*
%TO.P,SW3,9,GND*%
X149755000Y-75792000D03*
%TO.P,SW3,8,GND*%
X162405000Y-75792000D03*
%TO.P,SW3,7,GND*%
X162405000Y-85792000D03*
D20*
%TO.P,SW3,6,B*%
X158581000Y-89522000D03*
%TO.P,SW3,5,DTA*%
%TO.N,/ADC1_CH2*%
X156080000Y-89522000D03*
%TO.P,SW3,4,A*%
%TO.N,VCC*%
X153581000Y-89522000D03*
%TO.P,SW3,3,A*%
%TO.N,GND*%
X147351000Y-83292000D03*
%TO.P,SW3,2,DTA*%
%TO.N,/ADC1_CH1*%
X147351000Y-80792000D03*
%TO.P,SW3,1,B*%
%TO.N,VCC*%
X147351000Y-78292000D03*
%TD*%
D25*
%TO.P,R2,1*%
%TO.N,Net-(U4-IO8)*%
X111900000Y-72287500D03*
%TO.P,R2,2*%
%TO.N,VCC*%
X111900000Y-74112500D03*
%TD*%
D21*
%TO.P,TP5,1,1*%
%TO.N,/IO9*%
X121000000Y-78400000D03*
%TD*%
D30*
%TO.P,U1,1,/CHRG*%
%TO.N,Net-(D1-K)*%
X124400000Y-95300000D03*
%TO.P,U1,2,GND*%
%TO.N,GND*%
X124400000Y-96250000D03*
%TO.P,U1,3,BAT*%
%TO.N,+BATT*%
X124400000Y-97200000D03*
%TO.P,U1,4,VCC*%
%TO.N,Net-(U1-VCC)*%
X127100000Y-97200000D03*
%TO.P,U1,5,STDBY*%
%TO.N,Net-(D2-K)*%
X127100000Y-96250000D03*
%TO.P,U1,6,PROG*%
%TO.N,Net-(U1-PROG)*%
X127100000Y-95300000D03*
%TD*%
D13*
%TO.P,R9,1*%
%TO.N,GND*%
X123800000Y-83612500D03*
%TO.P,R9,2*%
%TO.N,/POWER_EN*%
X123800000Y-81787500D03*
%TD*%
D16*
%TO.P,H2,1*%
%TO.N,N/C*%
X143300000Y-66900000D03*
%TD*%
D21*
%TO.P,TP2,1,1*%
%TO.N,/TXD*%
X125400000Y-78500000D03*
%TD*%
%TO.P,TP3,1,1*%
%TO.N,/RXD*%
X127600000Y-78500000D03*
%TD*%
%TO.P,TP6,1,1*%
%TO.N,GND*%
X129700000Y-78500000D03*
%TD*%
D31*
%TO.P,SW8,1,1*%
%TO.N,GND*%
X114300000Y-105200000D03*
%TO.P,SW8,2,2*%
%TO.N,/EN*%
X110057360Y-100957360D03*
%TD*%
D32*
%TO.P,C3,2*%
%TO.N,GND*%
X112400000Y-64762500D03*
%TO.P,C3,1*%
%TO.N,VCC*%
X112400000Y-63037500D03*
%TD*%
D20*
%TO.P,SW4,1,1*%
%TO.N,/L_U_SW*%
X106325126Y-59607107D03*
%TO.P,SW4,2,2*%
%TO.N,GND*%
X109507107Y-56425126D03*
D18*
%TO.P,SW4,3,3*%
X112158757Y-57309010D03*
%TO.P,SW4,4,4*%
X107209010Y-62258757D03*
%TD*%
D33*
%TO.P,J1,16*%
%TO.N,N/C*%
X118680000Y-104900000D03*
%TO.P,J1,15*%
X127320000Y-104900000D03*
%TO.P,J1,14*%
X118680000Y-101100000D03*
%TO.P,J1,13*%
X127320000Y-101100000D03*
%TD*%
D18*
%TO.P,SW6,4,4*%
%TO.N,GND*%
X134541243Y-57409010D03*
%TO.P,SW6,3,3*%
X139490990Y-62358757D03*
D20*
%TO.P,SW6,2,2*%
%TO.N,/R_U_SW*%
X140374874Y-59707107D03*
%TO.P,SW6,1,1*%
%TO.N,GND*%
X137192893Y-56525126D03*
%TD*%
D34*
%TO.N,GND*%
X112600000Y-93500000D03*
X115410677Y-95208463D03*
X117500000Y-92000000D03*
D35*
%TO.N,/EN*%
X110200000Y-100800000D03*
X123043413Y-78656587D03*
X113000000Y-87662500D03*
D34*
%TO.N,GND*%
X112700000Y-64400000D03*
X122669024Y-94069024D03*
X116200000Y-75000000D03*
X109900000Y-65500000D03*
X130400000Y-104100000D03*
X128841574Y-88641574D03*
X124000000Y-84800000D03*
X129700000Y-82300000D03*
X131425001Y-94182264D03*
X116100000Y-104500000D03*
X123700000Y-103800000D03*
X116700000Y-100400000D03*
X113300000Y-84600000D03*
X124210000Y-69200000D03*
X120400000Y-81800000D03*
X130800000Y-78500000D03*
X129337851Y-94871290D03*
D36*
%TO.N,Net-(U1-VCC)*%
X130800000Y-98200000D03*
X129000000Y-98200000D03*
%TO.N,+BATT*%
X103100000Y-86400000D03*
X103130000Y-89200000D03*
X103130000Y-87775000D03*
D37*
%TO.N,VCC*%
X121600000Y-85800000D03*
%TO.N,Net-(Q1-G)*%
X118800000Y-85687500D03*
X120937500Y-83737500D03*
D35*
%TO.N,/IO9*%
X109893413Y-73193413D03*
X104800000Y-73200000D03*
%TO.N,/RGB*%
X125721852Y-90112501D03*
X125485949Y-93962098D03*
X114550000Y-70500000D03*
X125100000Y-79900000D03*
%TO.N,/L_U_SW*%
X109300000Y-66600000D03*
%TO.N,/ADC1_CH4*%
X114550000Y-66000000D03*
%TO.N,/ADC2_CH0*%
X114550000Y-67500000D03*
%TO.N,Net-(D4-C)*%
X125800000Y-91300000D03*
X129007598Y-91507598D03*
%TO.N,/R_BUTTON*%
X132050000Y-69000000D03*
%TD*%
D38*
%TO.N,GND*%
X129153148Y-88330000D02*
X129870000Y-88330000D01*
X128841574Y-88641574D02*
X129153148Y-88330000D01*
X129900000Y-82500000D02*
X129900000Y-83125000D01*
X129700000Y-82300000D02*
X129900000Y-82500000D01*
X112750000Y-93650000D02*
X112600000Y-93500000D01*
X112750000Y-94500000D02*
X112750000Y-93650000D01*
X115450000Y-95247786D02*
X115410677Y-95208463D01*
X115450000Y-96400000D02*
X115450000Y-95247786D01*
X117337500Y-92162500D02*
X117500000Y-92000000D01*
X116312500Y-92162500D02*
X117337500Y-92162500D01*
X122150000Y-94588048D02*
X122150000Y-94912500D01*
X122669024Y-95419024D02*
X123500000Y-96250000D01*
X122669024Y-94069024D02*
X122150000Y-94588048D01*
X122669024Y-94069024D02*
X122669024Y-95419024D01*
X123500000Y-96250000D02*
X124400000Y-96250000D01*
X129337851Y-94949649D02*
X129000000Y-95287500D01*
X129337851Y-94871290D02*
X129337851Y-94949649D01*
X131425001Y-94182264D02*
X131394764Y-94182264D01*
X131394764Y-94182264D02*
X130812500Y-93600000D01*
D39*
%TO.N,Net-(U1-VCC)*%
X129800000Y-97400000D02*
X129000000Y-98200000D01*
X129800000Y-97200000D02*
X129800000Y-97400000D01*
X129800000Y-97200000D02*
X127100000Y-97200000D01*
X130800000Y-98200000D02*
X129800000Y-97200000D01*
D40*
%TO.N,Net-(D2-K)*%
X127200000Y-96150000D02*
X127100000Y-96250000D01*
X132625000Y-96150000D02*
X127200000Y-96150000D01*
X132700000Y-96075000D02*
X132625000Y-96150000D01*
D38*
%TO.N,GND*%
X130800000Y-78500000D02*
X129700000Y-78500000D01*
D40*
%TO.N,/IO9*%
X103893413Y-74106587D02*
X94693413Y-74106587D01*
X104800000Y-73200000D02*
X103893413Y-74106587D01*
X94693413Y-74106587D02*
X93700000Y-75100000D01*
D39*
%TO.N,+3V3*%
X114587500Y-94037500D02*
X114500000Y-94125000D01*
X114587500Y-92162500D02*
X114587500Y-94037500D01*
X118800000Y-88290000D02*
X118800000Y-87512500D01*
X120367500Y-89857500D02*
X118800000Y-88290000D01*
D40*
%TO.N,GND*%
X113712500Y-84600000D02*
X113300000Y-84600000D01*
X115200000Y-86087500D02*
X113712500Y-84600000D01*
%TO.N,Net-(D5-K)*%
X115280000Y-87832500D02*
X115200000Y-87912500D01*
X116840000Y-87832500D02*
X115280000Y-87832500D01*
%TO.N,VCC*%
X116840000Y-85460000D02*
X118750000Y-83550000D01*
X116840000Y-86082500D02*
X116840000Y-85460000D01*
D39*
X118750000Y-83550000D02*
X116200000Y-81000000D01*
X120962500Y-85762500D02*
X118750000Y-83550000D01*
%TO.N,+3V3*%
X120367500Y-89857500D02*
X116842500Y-89857500D01*
X122012500Y-88212500D02*
X120367500Y-89857500D01*
X116842500Y-89857500D02*
X114587500Y-92112500D01*
X122012500Y-88212500D02*
X122550000Y-87675000D01*
X114587500Y-92112500D02*
X114587500Y-92162500D01*
D40*
%TO.N,+BATT*%
X122150000Y-96866852D02*
X122150000Y-96987500D01*
X121091574Y-95808426D02*
X122150000Y-96866852D01*
X121091574Y-94338326D02*
X121091574Y-95808426D01*
X122879900Y-92550000D02*
X121091574Y-94338326D01*
X125963408Y-92550000D02*
X122879900Y-92550000D01*
X126163408Y-92350000D02*
X125963408Y-92550000D01*
X127200000Y-92350000D02*
X126163408Y-92350000D01*
X127200000Y-92350000D02*
X126150000Y-92350000D01*
X127352022Y-92350000D02*
X127200000Y-92350000D01*
X116400000Y-97562500D02*
X116300000Y-97662500D01*
D39*
X119462500Y-97662500D02*
X116300000Y-97662500D01*
X116300000Y-97662500D02*
X114985184Y-97662500D01*
D40*
X116400000Y-96400000D02*
X116400000Y-97562500D01*
D39*
X114325000Y-96225000D02*
X114500000Y-96400000D01*
X112750000Y-96225000D02*
X114325000Y-96225000D01*
X110734014Y-96225000D02*
X112750000Y-96225000D01*
X110204507Y-95695493D02*
X110734014Y-96225000D01*
X108104507Y-93595493D02*
X110204507Y-95695493D01*
X119500000Y-97625000D02*
X119462500Y-97662500D01*
X114985184Y-97662500D02*
X114500000Y-97177316D01*
X119500000Y-97625000D02*
X121512500Y-97625000D01*
X114500000Y-97177316D02*
X114500000Y-96400000D01*
X118287500Y-97625000D02*
X119500000Y-97625000D01*
X103100000Y-88590986D02*
X108104507Y-93595493D01*
D38*
%TO.N,/EN*%
X112950000Y-87712500D02*
X113000000Y-87662500D01*
D40*
X110057360Y-100957360D02*
X110057360Y-100942640D01*
D38*
X111400000Y-87712500D02*
X112950000Y-87712500D01*
D40*
X110057360Y-100942640D02*
X110200000Y-100800000D01*
D38*
%TO.N,GND*%
X125360000Y-68100000D02*
X125310000Y-68100000D01*
X125360000Y-68100000D02*
X124260000Y-68100000D01*
X120337500Y-81862500D02*
X120400000Y-81800000D01*
X114300000Y-105200000D02*
X115400000Y-105200000D01*
X116637500Y-100337500D02*
X116700000Y-100400000D01*
X125360000Y-70300000D02*
X123160000Y-70300000D01*
X125360000Y-70300000D02*
X125360000Y-68100000D01*
X113000000Y-85937500D02*
X113000000Y-84900000D01*
X123850000Y-103950000D02*
X123700000Y-103800000D01*
X113000000Y-84900000D02*
X113300000Y-84600000D01*
X123800000Y-83612500D02*
X123800000Y-84600000D01*
X116637500Y-99100000D02*
X116637500Y-100337500D01*
X115400000Y-105200000D02*
X116100000Y-104500000D01*
X124260000Y-68100000D02*
X123160000Y-69200000D01*
X119987500Y-81862500D02*
X120337500Y-81862500D01*
X125450000Y-103950000D02*
X123850000Y-103950000D01*
X125360000Y-68100000D02*
X123160000Y-68100000D01*
X125310000Y-68100000D02*
X124210000Y-69200000D01*
X131521320Y-105221320D02*
X130400000Y-104100000D01*
X132278680Y-105221320D02*
X131521320Y-105221320D01*
X123800000Y-84600000D02*
X124000000Y-84800000D01*
D40*
%TO.N,+3V3*%
X118800000Y-87512500D02*
X119075000Y-87787500D01*
D39*
%TO.N,Net-(U1-VCC)*%
X127100000Y-97200000D02*
X130337500Y-97200000D01*
X130337500Y-97200000D02*
X130475000Y-97062500D01*
D40*
%TO.N,+BATT*%
X131380000Y-88322022D02*
X127352022Y-92350000D01*
D39*
X103100000Y-86400000D02*
X103100000Y-88590986D01*
D41*
X118362500Y-97700000D02*
X118287500Y-97625000D01*
X120550000Y-100650000D02*
X119912500Y-100650000D01*
D40*
X126150000Y-92350000D02*
X125950000Y-92550000D01*
D41*
X118362500Y-99100000D02*
X118362500Y-97700000D01*
D39*
X122362500Y-97200000D02*
X124400000Y-97200000D01*
X121512500Y-97625000D02*
X122150000Y-96987500D01*
D41*
X119912500Y-100650000D02*
X118362500Y-99100000D01*
D39*
X122150000Y-96987500D02*
X122362500Y-97200000D01*
D40*
%TO.N,Net-(C6-Pad1)*%
X129900000Y-86475000D02*
X129870000Y-86505000D01*
X129870000Y-86505000D02*
X131372022Y-86505000D01*
X129900000Y-84850000D02*
X129900000Y-86475000D01*
X131500000Y-86377022D02*
X131380000Y-86497022D01*
X131500000Y-84900000D02*
X131500000Y-86377022D01*
X129950000Y-84900000D02*
X129900000Y-84850000D01*
X131372022Y-86505000D02*
X131380000Y-86497022D01*
X131500000Y-84900000D02*
X129950000Y-84900000D01*
D39*
%TO.N,VCC*%
X121600000Y-85800000D02*
X121562500Y-85762500D01*
D41*
X99572365Y-88372000D02*
X102744365Y-85200000D01*
D39*
X121562500Y-85762500D02*
X120962500Y-85762500D01*
D41*
X88931000Y-88372000D02*
X99572365Y-88372000D01*
D40*
X111400000Y-85191852D02*
X115591852Y-81000000D01*
D39*
X108200000Y-73000000D02*
X108200000Y-64900000D01*
D40*
X111400000Y-85887500D02*
X111400000Y-85191852D01*
D41*
X110712500Y-85200000D02*
X111400000Y-85887500D01*
D40*
X81451000Y-78392000D02*
X105533000Y-78392000D01*
D41*
X102744365Y-85200000D02*
X110712500Y-85200000D01*
D39*
X108200000Y-64900000D02*
X109150000Y-63950000D01*
X116200000Y-81000000D02*
X108200000Y-73000000D01*
D38*
X110462500Y-63000000D02*
X110400000Y-63062500D01*
X109150000Y-63950000D02*
X110100000Y-63000000D01*
D41*
X111400000Y-85887500D02*
X111400000Y-85156497D01*
D40*
X118800000Y-78400000D02*
X116200000Y-81000000D01*
D41*
X87681000Y-89622000D02*
X88931000Y-88372000D01*
D40*
X109812500Y-74112500D02*
X111900000Y-74112500D01*
X115591852Y-81000000D02*
X116200000Y-81000000D01*
D39*
X109150000Y-63950000D02*
X109437500Y-63662500D01*
D40*
X105533000Y-78392000D02*
X109812500Y-74112500D01*
%TO.N,Net-(Q1-G)*%
X118800000Y-85687500D02*
X118800000Y-85825000D01*
X124850000Y-87350001D02*
X124850000Y-89425000D01*
X120937500Y-83737500D02*
X121237499Y-83737500D01*
X118800000Y-85825000D02*
X120650000Y-87675000D01*
X121237499Y-83737500D02*
X124850000Y-87350001D01*
%TO.N,Net-(D1-K)*%
X124600000Y-95100000D02*
X124400000Y-95300000D01*
X124600000Y-93350000D02*
X124600000Y-95100000D01*
%TO.N,Net-(D1-A)*%
X132700000Y-94325000D02*
X132700000Y-93800000D01*
X132700000Y-93800000D02*
X131700000Y-92800000D01*
X130600000Y-95287500D02*
X131737500Y-95287500D01*
X131700000Y-92800000D02*
X126900000Y-92800000D01*
X126900000Y-92800000D02*
X126350000Y-93350000D01*
X131737500Y-95287500D02*
X132700000Y-94325000D01*
D39*
%TO.N,Net-(U1-PROG)*%
X128800000Y-93600000D02*
X127100000Y-95300000D01*
X128987500Y-93600000D02*
X128800000Y-93600000D01*
D40*
%TO.N,/RGB*%
X125100000Y-79900000D02*
X125721852Y-80521852D01*
X125485949Y-93962098D02*
X125450000Y-93998047D01*
X125450000Y-93998047D02*
X125450000Y-100650000D01*
X125721852Y-80521852D02*
X125721852Y-90112501D01*
%TO.N,/POWER_EN*%
X123800000Y-81787500D02*
X121962500Y-81787500D01*
X121962500Y-81787500D02*
X121887500Y-81862500D01*
%TO.N,/R_U_SW*%
X135642893Y-59707107D02*
X140374874Y-59707107D01*
%TO.N,/ADC1_CH3*%
X133200000Y-81375000D02*
X131500000Y-83075000D01*
%TO.N,/ADC1_CH1*%
X147351000Y-80792000D02*
X137400000Y-70841000D01*
%TO.N,/ADC1_CH2*%
X149102613Y-87367000D02*
X146126000Y-84390387D01*
%TO.N,Net-(D4-C)*%
X136521320Y-96819244D02*
X131209674Y-91507598D01*
X136521320Y-96819244D02*
X136521320Y-100978680D01*
X131209674Y-91507598D02*
X129007598Y-91507598D01*
%TO.N,/ADC1_CH3*%
X133200000Y-68350000D02*
X133200000Y-81375000D01*
X132050000Y-67500000D02*
X132350000Y-67500000D01*
X132350000Y-67500000D02*
X133200000Y-68350000D01*
%TO.N,/ADC1_CH2*%
X146126000Y-84390387D02*
X146126000Y-80226000D01*
X156080000Y-89522000D02*
X153925000Y-87367000D01*
X153925000Y-87367000D02*
X149102613Y-87367000D01*
X132350000Y-66000000D02*
X132050000Y-66000000D01*
X133200000Y-66850000D02*
X132350000Y-66000000D01*
X133200000Y-67300000D02*
X133200000Y-66850000D01*
X146126000Y-80226000D02*
X133200000Y-67300000D01*
%TO.N,/ADC1_CH1*%
X133600000Y-64500000D02*
X132050000Y-64500000D01*
X137400000Y-68300000D02*
X133600000Y-64500000D01*
X137400000Y-70841000D02*
X137400000Y-68300000D01*
%TO.N,/R_U_SW*%
X132350000Y-63000000D02*
X135642893Y-59707107D01*
X132050000Y-63000000D02*
X132350000Y-63000000D01*
%TO.N,/RXD*%
X131750000Y-73500000D02*
X132050000Y-73500000D01*
X127700000Y-77550000D02*
X131750000Y-73500000D01*
X127700000Y-78400000D02*
X127700000Y-77550000D01*
X127600000Y-78500000D02*
X127700000Y-78400000D01*
%TO.N,/TXD*%
X131192894Y-72000000D02*
X132050000Y-72000000D01*
X125400000Y-78500000D02*
X125400000Y-77792894D01*
X125400000Y-77792894D02*
X131192894Y-72000000D01*
%TO.N,/POWER_EN*%
X124025000Y-81562500D02*
X123800000Y-81787500D01*
X124025000Y-78175000D02*
X124025000Y-81562500D01*
X131700000Y-70500000D02*
X124025000Y-78175000D01*
X132050000Y-70500000D02*
X131700000Y-70500000D01*
%TO.N,/KEY*%
X131200000Y-75000000D02*
X132050000Y-75000000D01*
X128425000Y-77775000D02*
X131200000Y-75000000D01*
X128425000Y-87750000D02*
X128425000Y-77775000D01*
X126750000Y-89425000D02*
X128425000Y-87750000D01*
D38*
%TO.N,GND*%
X114550000Y-75000000D02*
X116200000Y-75000000D01*
D40*
%TO.N,/IO9*%
X109893413Y-73193413D02*
X110000000Y-73300000D01*
X110000000Y-73300000D02*
X114350000Y-73300000D01*
X114350000Y-73300000D02*
X114550000Y-73500000D01*
X116100000Y-73500000D02*
X114550000Y-73500000D01*
X121000000Y-78400000D02*
X116100000Y-73500000D01*
%TO.N,Net-(U4-IO8)*%
X111900000Y-72287500D02*
X114262500Y-72287500D01*
X114262500Y-72287500D02*
X114550000Y-72000000D01*
%TO.N,/L_U_SW*%
X111700000Y-69000000D02*
X109300000Y-66600000D01*
X114550000Y-69000000D02*
X111700000Y-69000000D01*
%TO.N,/EN*%
X123200000Y-78500000D02*
X123200000Y-72800000D01*
X114900000Y-64500000D02*
X114550000Y-64500000D01*
X123200000Y-72800000D02*
X114900000Y-64500000D01*
D38*
%TO.N,GND*%
X112400000Y-65062500D02*
X111075000Y-65062500D01*
%TO.N,VCC*%
X114550000Y-63000000D02*
X110462500Y-63000000D01*
X110100000Y-63000000D02*
X114550000Y-63000000D01*
%TO.N,GND*%
X112400000Y-64762500D02*
X110775000Y-64762500D01*
X110775000Y-64762500D02*
X110400000Y-65137500D01*
X112400000Y-64762500D02*
X112400000Y-64700000D01*
X110400000Y-65137500D02*
X111962500Y-65137500D01*
X112400000Y-64700000D02*
X112700000Y-64400000D01*
X111962500Y-65137500D02*
X112700000Y-64400000D01*
%TD*%
M02*
