%TF.GenerationSoftware,KiCad,Pcbnew,8.0.2*%
%TF.CreationDate,2024-05-05T16:16:47+08:00*%
%TF.ProjectId,controller,636f6e74-726f-46c6-9c65-722e6b696361,rev?*%
%TF.SameCoordinates,Original*%
%TF.FileFunction,Paste,Top*%
%TF.FilePolarity,Positive*%
%FSLAX46Y46*%
G04 Gerber Fmt 4.6, Leading zero omitted, Abs format (unit mm)*
G04 Created by KiCad (PCBNEW 8.0.2) date 2024-05-05 16:16:47*
%MOMM*%
%LPD*%
G01*
G04 APERTURE LIST*
G04 Aperture macros list*
%AMRoundRect*
0 Rectangle with rounded corners*
0 $1 Rounding radius*
0 $2 $3 $4 $5 $6 $7 $8 $9 X,Y pos of 4 corners*
0 Add a 4 corners polygon primitive as box body*
4,1,4,$2,$3,$4,$5,$6,$7,$8,$9,$2,$3,0*
0 Add four circle primitives for the rounded corners*
1,1,$1+$1,$2,$3*
1,1,$1+$1,$4,$5*
1,1,$1+$1,$6,$7*
1,1,$1+$1,$8,$9*
0 Add four rect primitives between the rounded corners*
20,1,$1+$1,$2,$3,$4,$5,0*
20,1,$1+$1,$4,$5,$6,$7,0*
20,1,$1+$1,$6,$7,$8,$9,0*
20,1,$1+$1,$8,$9,$2,$3,0*%
%AMRotRect*
0 Rectangle, with rotation*
0 The origin of the aperture is its center*
0 $1 length*
0 $2 width*
0 $3 Rotation angle, in degrees counterclockwise*
0 Add horizontal line*
21,1,$1,$2,0,0,$3*%
G04 Aperture macros list end*
%ADD10RoundRect,0.237500X0.237500X-0.300000X0.237500X0.300000X-0.237500X0.300000X-0.237500X-0.300000X0*%
%ADD11RoundRect,0.237500X-0.300000X-0.237500X0.300000X-0.237500X0.300000X0.237500X-0.300000X0.237500X0*%
%ADD12RoundRect,0.150000X0.150000X-0.512500X0.150000X0.512500X-0.150000X0.512500X-0.150000X-0.512500X0*%
%ADD13RoundRect,0.237500X0.237500X-0.250000X0.237500X0.250000X-0.237500X0.250000X-0.237500X-0.250000X0*%
%ADD14RoundRect,0.237500X0.237500X-0.287500X0.237500X0.287500X-0.237500X0.287500X-0.237500X-0.287500X0*%
%ADD15R,1.500000X0.900000*%
%ADD16RoundRect,0.150000X-0.150000X0.587500X-0.150000X-0.587500X0.150000X-0.587500X0.150000X0.587500X0*%
%ADD17RoundRect,0.250000X-0.475000X0.337500X-0.475000X-0.337500X0.475000X-0.337500X0.475000X0.337500X0*%
%ADD18RoundRect,0.237500X0.250000X0.237500X-0.250000X0.237500X-0.250000X-0.237500X0.250000X-0.237500X0*%
%ADD19RotRect,2.000000X2.000000X45.000000*%
%ADD20RoundRect,0.237500X-0.237500X0.250000X-0.237500X-0.250000X0.237500X-0.250000X0.237500X0.250000X0*%
%ADD21RoundRect,0.237500X-0.287500X-0.237500X0.287500X-0.237500X0.287500X0.237500X-0.287500X0.237500X0*%
%ADD22RoundRect,0.150000X0.150000X-0.587500X0.150000X0.587500X-0.150000X0.587500X-0.150000X-0.587500X0*%
%ADD23R,0.700000X0.700000*%
%ADD24RoundRect,0.250000X0.475000X-0.337500X0.475000X0.337500X-0.475000X0.337500X-0.475000X-0.337500X0*%
%ADD25R,1.100000X0.600000*%
%ADD26RotRect,2.000000X2.000000X135.000000*%
%ADD27RoundRect,0.237500X-0.237500X0.300000X-0.237500X-0.300000X0.237500X-0.300000X0.237500X0.300000X0*%
G04 APERTURE END LIST*
D10*
%TO.C,C7*%
X112750000Y-96225000D03*
X112750000Y-94500000D03*
%TD*%
D11*
%TO.C,C9*%
X114587500Y-92162500D03*
X116312500Y-92162500D03*
%TD*%
D12*
%TO.C,U3*%
X114500000Y-96400000D03*
X115450000Y-96400000D03*
X116400000Y-96400000D03*
X116400000Y-94125000D03*
X114500000Y-94125000D03*
%TD*%
D13*
%TO.C,R10*%
X115200000Y-87912500D03*
X115200000Y-86087500D03*
%TD*%
D14*
%TO.C,D5*%
X116840000Y-87832500D03*
X116840000Y-86082500D03*
%TD*%
D15*
%TO.C,D3*%
X120550000Y-100650000D03*
X120550000Y-103950000D03*
X125450000Y-103950000D03*
X125450000Y-100650000D03*
%TD*%
D10*
%TO.C,C4*%
X129000000Y-97012500D03*
X129000000Y-95287500D03*
%TD*%
D16*
%TO.C,Q2*%
X121887500Y-81862500D03*
X119987500Y-81862500D03*
X120937500Y-83737500D03*
%TD*%
D13*
%TO.C,R1*%
X111400000Y-87712500D03*
X111400000Y-85887500D03*
%TD*%
%TO.C,R3*%
X130600000Y-97112500D03*
X130600000Y-95287500D03*
%TD*%
%TO.C,R6*%
X129870000Y-88330000D03*
X129870000Y-86505000D03*
%TD*%
%TO.C,R8*%
X118800000Y-87512500D03*
X118800000Y-85687500D03*
%TD*%
D14*
%TO.C,D2*%
X132700000Y-94325000D03*
X132700000Y-96075000D03*
%TD*%
D17*
%TO.C,C2*%
X110400000Y-65137500D03*
X110400000Y-63062500D03*
%TD*%
D10*
%TO.C,C6*%
X129900000Y-84850000D03*
X129900000Y-83125000D03*
%TD*%
%TO.C,C1*%
X113000000Y-87662500D03*
X113000000Y-85937500D03*
%TD*%
D18*
%TO.C,R4*%
X130812500Y-93600000D03*
X128987500Y-93600000D03*
%TD*%
D19*
%TO.C,SW5*%
X132278680Y-105221320D03*
X136521320Y-100978680D03*
%TD*%
D16*
%TO.C,D4*%
X126750000Y-89425000D03*
X124850000Y-89425000D03*
X125800000Y-91300000D03*
%TD*%
D20*
%TO.C,R7*%
X131500000Y-83075000D03*
X131500000Y-84900000D03*
%TD*%
D21*
%TO.C,D1*%
X124600000Y-93350000D03*
X126350000Y-93350000D03*
%TD*%
D22*
%TO.C,Q1*%
X120650000Y-87675000D03*
X122550000Y-87675000D03*
X121600000Y-85800000D03*
%TD*%
D23*
%TO.C,U4*%
X125360000Y-70300000D03*
X125360000Y-69200000D03*
X125360000Y-68100000D03*
X124210000Y-70300000D03*
X124210000Y-69200000D03*
X124210000Y-68100000D03*
X123160000Y-70300000D03*
X123160000Y-69200000D03*
X123160000Y-68100000D03*
D15*
X132050000Y-63000000D03*
X132050000Y-64500000D03*
X132050000Y-66000000D03*
X132050000Y-67500000D03*
X132050000Y-69000000D03*
X132050000Y-70500000D03*
X132050000Y-72000000D03*
X132050000Y-73500000D03*
X132050000Y-75000000D03*
X114550000Y-75000000D03*
X114550000Y-73500000D03*
X114550000Y-72000000D03*
X114550000Y-70500000D03*
X114550000Y-69000000D03*
X114550000Y-67500000D03*
X114550000Y-66000000D03*
X114550000Y-64500000D03*
X114550000Y-63000000D03*
%TD*%
D11*
%TO.C,C11*%
X116637500Y-99100000D03*
X118362500Y-99100000D03*
%TD*%
D20*
%TO.C,R5*%
X131380000Y-86497022D03*
X131380000Y-88322022D03*
%TD*%
D24*
%TO.C,C5*%
X122150000Y-96987500D03*
X122150000Y-94912500D03*
%TD*%
D20*
%TO.C,R2*%
X111900000Y-72287500D03*
X111900000Y-74112500D03*
%TD*%
D25*
%TO.C,U1*%
X124400000Y-95300000D03*
X124400000Y-96250000D03*
X124400000Y-97200000D03*
X127100000Y-97200000D03*
X127100000Y-96250000D03*
X127100000Y-95300000D03*
%TD*%
D13*
%TO.C,R9*%
X123800000Y-83612500D03*
X123800000Y-81787500D03*
%TD*%
D26*
%TO.C,SW8*%
X114300000Y-105200000D03*
X110057360Y-100957360D03*
%TD*%
D27*
%TO.C,C3*%
X112400000Y-64762500D03*
X112400000Y-63037500D03*
%TD*%
M02*
