%TF.GenerationSoftware,KiCad,Pcbnew,8.0.1*%
%TF.CreationDate,2024-04-23T15:56:56+08:00*%
%TF.ProjectId,controller,636f6e74-726f-46c6-9c65-722e6b696361,rev?*%
%TF.SameCoordinates,Original*%
%TF.FileFunction,Copper,L2,Bot*%
%TF.FilePolarity,Positive*%
%FSLAX46Y46*%
G04 Gerber Fmt 4.6, Leading zero omitted, Abs format (unit mm)*
G04 Created by KiCad (PCBNEW 8.0.1) date 2024-04-23 15:56:56*
%MOMM*%
%LPD*%
G01*
G04 APERTURE LIST*
G04 Aperture macros list*
%AMRoundRect*
0 Rectangle with rounded corners*
0 $1 Rounding radius*
0 $2 $3 $4 $5 $6 $7 $8 $9 X,Y pos of 4 corners*
0 Add a 4 corners polygon primitive as box body*
4,1,4,$2,$3,$4,$5,$6,$7,$8,$9,$2,$3,0*
0 Add four circle primitives for the rounded corners*
1,1,$1+$1,$2,$3*
1,1,$1+$1,$4,$5*
1,1,$1+$1,$6,$7*
1,1,$1+$1,$8,$9*
0 Add four rect primitives between the rounded corners*
20,1,$1+$1,$2,$3,$4,$5,0*
20,1,$1+$1,$4,$5,$6,$7,0*
20,1,$1+$1,$6,$7,$8,$9,0*
20,1,$1+$1,$8,$9,$2,$3,0*%
%AMFreePoly0*
4,1,9,5.362500,-0.866500,1.237500,-0.866500,1.237500,-0.450000,-1.237500,-0.450000,-1.237500,0.450000,1.237500,0.450000,1.237500,0.866500,5.362500,0.866500,5.362500,-0.866500,5.362500,-0.866500,$1*%
G04 Aperture macros list end*
%TA.AperFunction,ComponentPad*%
%ADD10R,1.700000X1.700000*%
%TD*%
%TA.AperFunction,ComponentPad*%
%ADD11O,1.700000X1.700000*%
%TD*%
%TA.AperFunction,ComponentPad*%
%ADD12C,1.800000*%
%TD*%
%TA.AperFunction,ComponentPad*%
%ADD13C,2.200000*%
%TD*%
%TA.AperFunction,ComponentPad*%
%ADD14C,4.400000*%
%TD*%
%TA.AperFunction,ComponentPad*%
%ADD15C,2.500000*%
%TD*%
%TA.AperFunction,SMDPad,CuDef*%
%ADD16RoundRect,0.250000X-0.337500X-0.475000X0.337500X-0.475000X0.337500X0.475000X-0.337500X0.475000X0*%
%TD*%
%TA.AperFunction,SMDPad,CuDef*%
%ADD17RoundRect,0.237500X-0.300000X-0.237500X0.300000X-0.237500X0.300000X0.237500X-0.300000X0.237500X0*%
%TD*%
%TA.AperFunction,SMDPad,CuDef*%
%ADD18RoundRect,0.237500X0.237500X-0.300000X0.237500X0.300000X-0.237500X0.300000X-0.237500X-0.300000X0*%
%TD*%
%TA.AperFunction,SMDPad,CuDef*%
%ADD19R,0.900000X1.200000*%
%TD*%
%TA.AperFunction,SMDPad,CuDef*%
%ADD20R,0.800000X1.200000*%
%TD*%
%TA.AperFunction,SMDPad,CuDef*%
%ADD21R,0.700000X1.200000*%
%TD*%
%TA.AperFunction,ComponentPad*%
%ADD22O,1.200000X1.700000*%
%TD*%
%TA.AperFunction,SMDPad,CuDef*%
%ADD23RoundRect,0.237500X-0.237500X0.250000X-0.237500X-0.250000X0.237500X-0.250000X0.237500X0.250000X0*%
%TD*%
%TA.AperFunction,SMDPad,CuDef*%
%ADD24RoundRect,0.237500X0.237500X-0.250000X0.237500X0.250000X-0.237500X0.250000X-0.237500X-0.250000X0*%
%TD*%
%TA.AperFunction,SMDPad,CuDef*%
%ADD25RoundRect,0.237500X0.250000X0.237500X-0.250000X0.237500X-0.250000X-0.237500X0.250000X-0.237500X0*%
%TD*%
%TA.AperFunction,SMDPad,CuDef*%
%ADD26RoundRect,0.237500X0.287500X0.237500X-0.287500X0.237500X-0.287500X-0.237500X0.287500X-0.237500X0*%
%TD*%
%TA.AperFunction,SMDPad,CuDef*%
%ADD27R,2.000000X1.000000*%
%TD*%
%TA.AperFunction,SMDPad,CuDef*%
%ADD28R,0.700000X0.700000*%
%TD*%
%TA.AperFunction,SMDPad,CuDef*%
%ADD29RoundRect,0.237500X-0.237500X0.300000X-0.237500X-0.300000X0.237500X-0.300000X0.237500X0.300000X0*%
%TD*%
%TA.AperFunction,SMDPad,CuDef*%
%ADD30RoundRect,0.250000X0.475000X-0.337500X0.475000X0.337500X-0.475000X0.337500X-0.475000X-0.337500X0*%
%TD*%
%TA.AperFunction,SMDPad,CuDef*%
%ADD31RoundRect,0.237500X-0.250000X-0.237500X0.250000X-0.237500X0.250000X0.237500X-0.250000X0.237500X0*%
%TD*%
%TA.AperFunction,SMDPad,CuDef*%
%ADD32RoundRect,0.225000X-0.925000X-0.225000X0.925000X-0.225000X0.925000X0.225000X-0.925000X0.225000X0*%
%TD*%
%TA.AperFunction,SMDPad,CuDef*%
%ADD33FreePoly0,0.000000*%
%TD*%
%TA.AperFunction,SMDPad,CuDef*%
%ADD34R,1.100000X0.600000*%
%TD*%
%TA.AperFunction,ViaPad*%
%ADD35C,0.500000*%
%TD*%
%TA.AperFunction,ViaPad*%
%ADD36C,1.200000*%
%TD*%
%TA.AperFunction,ViaPad*%
%ADD37C,1.500000*%
%TD*%
%TA.AperFunction,ViaPad*%
%ADD38C,0.600000*%
%TD*%
%TA.AperFunction,Conductor*%
%ADD39C,0.250000*%
%TD*%
%TA.AperFunction,Conductor*%
%ADD40C,0.300000*%
%TD*%
%TA.AperFunction,Conductor*%
%ADD41C,0.600000*%
%TD*%
G04 APERTURE END LIST*
D10*
%TO.P,J2,1,Pin_1*%
%TO.N,GND*%
X137700000Y-66500000D03*
D11*
%TO.P,J2,2,Pin_2*%
%TO.N,+BATT*%
X137700000Y-69040000D03*
%TD*%
D12*
%TO.P,SW4,1,1*%
%TO.N,/L_U_SW*%
X109107107Y-56625126D03*
%TO.P,SW4,2,2*%
%TO.N,GND*%
X105925126Y-59807107D03*
D13*
%TO.P,SW4,3,3*%
X106809010Y-62458757D03*
%TO.P,SW4,4,4*%
X111758757Y-57509010D03*
%TD*%
D14*
%TO.P,H1,1*%
%TO.N,N/C*%
X103300000Y-95000000D03*
%TD*%
D13*
%TO.P,SW2,d,d*%
%TO.N,GND*%
X86700000Y-70600000D03*
%TO.P,SW2,c,c*%
%TO.N,/L_BUTTON*%
X86700000Y-75100000D03*
%TO.P,SW2,b,b*%
%TO.N,GND*%
X93700000Y-70600000D03*
%TO.P,SW2,a,a*%
%TO.N,/L_BUTTON*%
X93700000Y-75100000D03*
D15*
%TO.P,SW2,10,GND*%
%TO.N,GND*%
X83855000Y-85892000D03*
%TO.P,SW2,9,GND*%
X83855000Y-75892000D03*
%TO.P,SW2,8,GND*%
X96505000Y-75892000D03*
%TO.P,SW2,7,GND*%
X96505000Y-85892000D03*
D12*
%TO.P,SW2,6,B*%
X92681000Y-89622000D03*
%TO.P,SW2,5,DTA*%
%TO.N,/ADC1_CH2*%
X90180000Y-89622000D03*
%TO.P,SW2,4,A*%
%TO.N,+3V3*%
X87681000Y-89622000D03*
%TO.P,SW2,3,A*%
%TO.N,GND*%
X81451000Y-83392000D03*
%TO.P,SW2,2,DTA*%
%TO.N,/ADC1_CH1*%
X81451000Y-80892000D03*
%TO.P,SW2,1,B*%
%TO.N,+3V3*%
X81451000Y-78392000D03*
%TD*%
%TO.P,SW6,1,1*%
%TO.N,GND*%
X140781981Y-59781981D03*
%TO.P,SW6,2,2*%
%TO.N,/R_U_SW*%
X137600000Y-56600000D03*
D13*
%TO.P,SW6,3,3*%
%TO.N,GND*%
X134948350Y-57483884D03*
%TO.P,SW6,4,4*%
X139898097Y-62433631D03*
%TD*%
D14*
%TO.P,H3,1*%
%TO.N,N/C*%
X143300000Y-95000000D03*
%TD*%
%TO.P,H4,1*%
%TO.N,N/C*%
X103300000Y-66900000D03*
%TD*%
D13*
%TO.P,SW3,d,d*%
%TO.N,GND*%
X152600000Y-70500000D03*
%TO.P,SW3,c,c*%
%TO.N,/IO9*%
X152600000Y-75000000D03*
%TO.P,SW3,b,b*%
%TO.N,GND*%
X159600000Y-70500000D03*
%TO.P,SW3,a,a*%
%TO.N,/IO9*%
X159600000Y-75000000D03*
D15*
%TO.P,SW3,10,GND*%
%TO.N,GND*%
X149755000Y-85792000D03*
%TO.P,SW3,9,GND*%
X149755000Y-75792000D03*
%TO.P,SW3,8,GND*%
X162405000Y-75792000D03*
%TO.P,SW3,7,GND*%
X162405000Y-85792000D03*
D12*
%TO.P,SW3,6,B*%
X158581000Y-89522000D03*
%TO.P,SW3,5,DTA*%
%TO.N,/ADC2_CH0*%
X156080000Y-89522000D03*
%TO.P,SW3,4,A*%
%TO.N,+3V3*%
X153581000Y-89522000D03*
%TO.P,SW3,3,A*%
%TO.N,GND*%
X147351000Y-83292000D03*
%TO.P,SW3,2,DTA*%
%TO.N,/ADC1_CH4*%
X147351000Y-80792000D03*
%TO.P,SW3,1,B*%
%TO.N,+3V3*%
X147351000Y-78292000D03*
%TD*%
D14*
%TO.P,H2,1*%
%TO.N,N/C*%
X143300000Y-66900000D03*
%TD*%
D16*
%TO.P,C7,1*%
%TO.N,VCC*%
X126462500Y-71300000D03*
%TO.P,C7,2*%
%TO.N,GND*%
X128537500Y-71300000D03*
%TD*%
D17*
%TO.P,C8,1*%
%TO.N,VCC*%
X126537500Y-73100000D03*
%TO.P,C8,2*%
%TO.N,GND*%
X128262500Y-73100000D03*
%TD*%
D18*
%TO.P,C4,1*%
%TO.N,Net-(U1-VCC)*%
X122175000Y-97862500D03*
%TO.P,C4,2*%
%TO.N,GND*%
X122175000Y-96137500D03*
%TD*%
D19*
%TO.P,J1,B12,GND*%
%TO.N,GND*%
X125550000Y-100481500D03*
D20*
%TO.P,J1,B9,VBUS*%
%TO.N,Net-(U1-VCC)*%
X124320000Y-100481500D03*
D21*
%TO.P,J1,B5,CC2*%
%TO.N,unconnected-(J1-CC2-PadB5)*%
X122300000Y-100481500D03*
D19*
%TO.P,J1,A12,GND*%
%TO.N,GND*%
X120050000Y-100481500D03*
D20*
%TO.P,J1,A9,VBUS*%
%TO.N,Net-(U1-VCC)*%
X121280000Y-100481500D03*
D21*
%TO.P,J1,A5,CC1*%
%TO.N,unconnected-(J1-CC1-PadA5)*%
X123300000Y-100481500D03*
D22*
%TO.P,J1,16*%
%TO.N,N/C*%
X118480000Y-104261500D03*
%TO.P,J1,15*%
X127120000Y-104261500D03*
%TO.P,J1,14*%
X118480000Y-100461500D03*
%TO.P,J1,13*%
X127120000Y-100461500D03*
%TD*%
D23*
%TO.P,R1,1*%
%TO.N,/EN*%
X131900000Y-82787500D03*
%TO.P,R1,2*%
%TO.N,+3V3*%
X131900000Y-84612500D03*
%TD*%
D24*
%TO.P,R3,1*%
%TO.N,Net-(U1-VCC)*%
X120575000Y-97912500D03*
%TO.P,R3,2*%
%TO.N,Net-(D1-A)*%
X120575000Y-96087500D03*
%TD*%
D25*
%TO.P,R6,1*%
%TO.N,GND*%
X114704522Y-82870000D03*
%TO.P,R6,2*%
%TO.N,Net-(C6-Pad1)*%
X112879522Y-82870000D03*
%TD*%
D26*
%TO.P,D2,1,K*%
%TO.N,Net-(D2-K)*%
X122050000Y-94300000D03*
%TO.P,D2,2,A*%
%TO.N,Net-(D1-A)*%
X120300000Y-94300000D03*
%TD*%
D17*
%TO.P,C6,1*%
%TO.N,Net-(C6-Pad1)*%
X112937500Y-81000000D03*
%TO.P,C6,2*%
%TO.N,GND*%
X114662500Y-81000000D03*
%TD*%
D27*
%TO.P,U2,1,3V3*%
%TO.N,+3V3*%
X132100000Y-57000000D03*
%TO.P,U2,2,EN*%
%TO.N,/EN*%
X132100000Y-58500000D03*
%TO.P,U2,3,IO4*%
%TO.N,/ADC1_CH4*%
X132100000Y-60000000D03*
%TO.P,U2,4,IO5*%
%TO.N,/ADC2_CH0*%
X132100000Y-61500000D03*
%TO.P,U2,5,IO6*%
%TO.N,/R_U_SW*%
X132100000Y-63000000D03*
%TO.P,U2,6,IO7*%
%TO.N,/RGB*%
X132100000Y-64500000D03*
%TO.P,U2,7,IO8*%
%TO.N,Net-(U2-IO8)*%
X132100000Y-66000000D03*
%TO.P,U2,8,IO9*%
%TO.N,/IO9*%
X132100000Y-67500000D03*
%TO.P,U2,9,GND*%
%TO.N,GND*%
X132100000Y-69000000D03*
%TO.P,U2,10,IO10*%
%TO.N,/R_D_SW*%
X114600000Y-69000000D03*
%TO.P,U2,11,RXD*%
%TO.N,/RXD*%
X114600000Y-67500000D03*
%TO.P,U2,12,TXD*%
%TO.N,/TXD*%
X114600000Y-66000000D03*
%TO.P,U2,13,IO18*%
%TO.N,/L_D_SW*%
X114600000Y-64500000D03*
%TO.P,U2,14,IO19*%
%TO.N,/L_BUTTON*%
X114600000Y-63000000D03*
%TO.P,U2,15,IO3*%
%TO.N,/ADC1_CH3*%
X114600000Y-61500000D03*
%TO.P,U2,16,IO2*%
%TO.N,/ADC1_CH2*%
X114600000Y-60000000D03*
%TO.P,U2,17,IO1*%
%TO.N,/ADC1_CH1*%
X114600000Y-58500000D03*
%TO.P,U2,18,IO0*%
%TO.N,/L_U_SW*%
X114600000Y-57000000D03*
D28*
%TO.P,U2,19,EP*%
%TO.N,GND*%
X123490000Y-64300000D03*
X123490000Y-63200000D03*
X123490000Y-62100000D03*
X122390000Y-64300000D03*
X122390000Y-63200000D03*
X122390000Y-62100000D03*
X121290000Y-64300000D03*
X121290000Y-63200000D03*
X121290000Y-62100000D03*
%TD*%
D29*
%TO.P,C1,1*%
%TO.N,/EN*%
X133500000Y-82837500D03*
%TO.P,C1,2*%
%TO.N,GND*%
X133500000Y-84562500D03*
%TD*%
D24*
%TO.P,R4,1*%
%TO.N,GND*%
X118975000Y-97912500D03*
%TO.P,R4,2*%
%TO.N,Net-(U1-PROG)*%
X118975000Y-96087500D03*
%TD*%
D18*
%TO.P,C9,1*%
%TO.N,+3V3*%
X124800000Y-76462500D03*
%TO.P,C9,2*%
%TO.N,GND*%
X124800000Y-74737500D03*
%TD*%
D25*
%TO.P,R7,1*%
%TO.N,/ADC1_CH3*%
X114712500Y-79200000D03*
%TO.P,R7,2*%
%TO.N,Net-(C6-Pad1)*%
X112887500Y-79200000D03*
%TD*%
D26*
%TO.P,D1,1,K*%
%TO.N,Net-(D1-K)*%
X125975000Y-94200000D03*
%TO.P,D1,2,A*%
%TO.N,Net-(D1-A)*%
X124225000Y-94200000D03*
%TD*%
D30*
%TO.P,C10,1*%
%TO.N,+3V3*%
X122900000Y-76437500D03*
%TO.P,C10,2*%
%TO.N,GND*%
X122900000Y-74362500D03*
%TD*%
D29*
%TO.P,C11,1*%
%TO.N,GND*%
X116800000Y-100537500D03*
%TO.P,C11,2*%
%TO.N,Net-(D3-VDD)*%
X116800000Y-102262500D03*
%TD*%
D31*
%TO.P,R5,1*%
%TO.N,Net-(C6-Pad1)*%
X112871544Y-84380000D03*
%TO.P,R5,2*%
%TO.N,+BATT*%
X114696544Y-84380000D03*
%TD*%
D30*
%TO.P,C5,1*%
%TO.N,+BATT*%
X128900000Y-97837500D03*
%TO.P,C5,2*%
%TO.N,GND*%
X128900000Y-95762500D03*
%TD*%
D32*
%TO.P,U3,1,ADJ*%
%TO.N,GND*%
X127100000Y-77900000D03*
D33*
%TO.P,U3,2,VO*%
%TO.N,+3V3*%
X127187500Y-76400000D03*
D32*
%TO.P,U3,3,VI*%
%TO.N,VCC*%
X127100000Y-74900000D03*
%TD*%
D23*
%TO.P,R2,1*%
%TO.N,Net-(U2-IO8)*%
X134400000Y-66087500D03*
%TO.P,R2,2*%
%TO.N,+3V3*%
X134400000Y-67912500D03*
%TD*%
D34*
%TO.P,U1,1,/CHRG*%
%TO.N,Net-(D1-K)*%
X126650000Y-96150000D03*
%TO.P,U1,2,GND*%
%TO.N,GND*%
X126650000Y-97100000D03*
%TO.P,U1,3,BAT*%
%TO.N,+BATT*%
X126650000Y-98050000D03*
%TO.P,U1,4,VCC*%
%TO.N,Net-(U1-VCC)*%
X123950000Y-98050000D03*
%TO.P,U1,5,STDBY*%
%TO.N,Net-(D2-K)*%
X123950000Y-97100000D03*
%TO.P,U1,6,PROG*%
%TO.N,Net-(U1-PROG)*%
X123950000Y-96150000D03*
%TD*%
D35*
%TO.N,/EN*%
X139675000Y-73450000D03*
X132785539Y-59014461D03*
X131900000Y-82787500D03*
X133500000Y-82837500D03*
X134100000Y-60600000D03*
D36*
%TO.N,GND*%
X130100000Y-94500000D03*
D35*
X113761733Y-82347400D03*
D36*
X116100000Y-99100000D03*
X118200000Y-63400000D03*
X129200000Y-72300000D03*
X127000000Y-79300000D03*
X122150000Y-96525000D03*
X125600000Y-102300000D03*
D35*
X115957625Y-81842375D03*
D36*
X128500000Y-70100000D03*
X122600000Y-73100000D03*
X134575000Y-85000000D03*
X131700000Y-70242860D03*
X124500000Y-73400000D03*
X117900000Y-98400000D03*
X127400000Y-62000000D03*
D35*
%TO.N,+3V3*%
X131900000Y-84612500D03*
D36*
X130100000Y-57000000D03*
D37*
%TO.N,VCC*%
X126462500Y-71300000D03*
D38*
%TO.N,Net-(D3-VDD)*%
X116800000Y-102262500D03*
D35*
%TO.N,Net-(U1-PROG)*%
X119500000Y-95300000D03*
X123700000Y-95400000D03*
%TO.N,/TXD*%
X114600000Y-66000000D03*
%TO.N,/RXD*%
X114600000Y-67500000D03*
%TO.N,/IO9*%
X133325000Y-69925000D03*
X133500000Y-67200000D03*
%TO.N,/RGB*%
X127650002Y-95600000D03*
%TO.N,/R_U_SW*%
X132100000Y-63000000D03*
%TO.N,/R_D_SW*%
X119200000Y-86400000D03*
%TO.N,/L_D_SW*%
X114421320Y-105121320D03*
%TO.N,/L_BUTTON*%
X114600000Y-63000000D03*
%TD*%
D39*
%TO.N,/EN*%
X133500000Y-82837500D02*
X131950000Y-82837500D01*
X139675000Y-65375000D02*
X134900000Y-60600000D01*
X139675000Y-73450000D02*
X139675000Y-65375000D01*
X132100000Y-58500000D02*
X132750000Y-58500000D01*
X134900000Y-60600000D02*
X134100000Y-60600000D01*
D40*
X132271078Y-58500000D02*
X132785539Y-59014461D01*
X132100000Y-58500000D02*
X132271078Y-58500000D01*
D41*
%TO.N,GND*%
X124425000Y-74362500D02*
X124800000Y-74737500D01*
X120050000Y-98987500D02*
X118975000Y-97912500D01*
X128900000Y-95762500D02*
X127562500Y-97100000D01*
X125550000Y-102250000D02*
X125600000Y-102300000D01*
X127562500Y-97100000D02*
X126650000Y-97100000D01*
X128262500Y-71575000D02*
X128537500Y-71300000D01*
X127100000Y-79200000D02*
X127000000Y-79300000D01*
D39*
X114704522Y-82870000D02*
X114284333Y-82870000D01*
D41*
X116800000Y-99500000D02*
X116800000Y-100537500D01*
X123490000Y-62100000D02*
X127300000Y-62100000D01*
X127100000Y-77900000D02*
X127100000Y-79200000D01*
X122900000Y-74362500D02*
X122900000Y-73400000D01*
X128262500Y-73100000D02*
X128400000Y-73100000D01*
X118400000Y-63200000D02*
X118200000Y-63400000D01*
X123490000Y-62100000D02*
X121290000Y-62100000D01*
X128537500Y-71300000D02*
X128537500Y-70137500D01*
X121290000Y-64300000D02*
X123490000Y-64300000D01*
D39*
X114284333Y-82870000D02*
X113761733Y-82347400D01*
D41*
X125550000Y-100481500D02*
X125550000Y-102250000D01*
X134137500Y-84562500D02*
X134575000Y-85000000D01*
X131700000Y-70242860D02*
X132100000Y-69842860D01*
X128900000Y-95700000D02*
X130100000Y-94500000D01*
X122175000Y-96137500D02*
X122175000Y-96500000D01*
X121290000Y-62100000D02*
X121290000Y-64300000D01*
X124800000Y-73700000D02*
X124500000Y-73400000D01*
X128537500Y-70137500D02*
X128500000Y-70100000D01*
X122390000Y-63200000D02*
X118400000Y-63200000D01*
X123490000Y-63200000D02*
X122390000Y-63200000D01*
X116800000Y-99800000D02*
X116100000Y-99100000D01*
X122900000Y-74362500D02*
X124425000Y-74362500D01*
X127300000Y-62100000D02*
X127400000Y-62000000D01*
X122175000Y-96500000D02*
X122150000Y-96525000D01*
D39*
X114662500Y-81000000D02*
X115115250Y-81000000D01*
D41*
X123490000Y-64300000D02*
X123490000Y-62100000D01*
X128400000Y-73100000D02*
X129200000Y-72300000D01*
D39*
X115115250Y-81000000D02*
X115957625Y-81842375D01*
D41*
X133500000Y-84562500D02*
X134137500Y-84562500D01*
X120050000Y-100481500D02*
X120050000Y-98987500D01*
X128262500Y-73100000D02*
X128262500Y-71575000D01*
X117900000Y-98400000D02*
X116800000Y-99500000D01*
X118387500Y-97912500D02*
X117900000Y-98400000D01*
X116800000Y-100537500D02*
X116800000Y-99800000D01*
X132100000Y-69842860D02*
X132100000Y-69000000D01*
X122900000Y-73400000D02*
X122600000Y-73100000D01*
X124800000Y-74737500D02*
X124800000Y-73700000D01*
X128900000Y-95762500D02*
X128900000Y-95700000D01*
X118975000Y-97912500D02*
X118387500Y-97912500D01*
D39*
%TO.N,+3V3*%
X131100000Y-83812500D02*
X131100000Y-79965948D01*
X127534052Y-76400000D02*
X127187500Y-76400000D01*
X131900000Y-84612500D02*
X131100000Y-83812500D01*
X127663173Y-76400000D02*
X127187500Y-76400000D01*
D41*
X127187500Y-76400000D02*
X122937500Y-76400000D01*
X130600000Y-73581540D02*
X130600000Y-57500000D01*
D39*
X134400000Y-67912500D02*
X134400000Y-69663173D01*
X131100000Y-79965948D02*
X127534052Y-76400000D01*
D41*
X127781540Y-76400000D02*
X130600000Y-73581540D01*
D39*
X134400000Y-69663173D02*
X127663173Y-76400000D01*
D41*
X131100000Y-57000000D02*
X132100000Y-57000000D01*
X132100000Y-57000000D02*
X130100000Y-57000000D01*
X127187500Y-76400000D02*
X127781540Y-76400000D01*
X130600000Y-57500000D02*
X131100000Y-57000000D01*
%TO.N,+BATT*%
X128900000Y-97837500D02*
X137700000Y-89037500D01*
D39*
X125075000Y-93722924D02*
X124726038Y-93373962D01*
D41*
X128687500Y-98050000D02*
X128900000Y-97837500D01*
X126650000Y-98050000D02*
X128687500Y-98050000D01*
D39*
X125075000Y-97025000D02*
X125075000Y-93722924D01*
X114696544Y-84380000D02*
X115732076Y-84380000D01*
X126650000Y-98050000D02*
X126100000Y-98050000D01*
D41*
X137700000Y-89037500D02*
X137700000Y-69040000D01*
D39*
X126100000Y-98050000D02*
X125075000Y-97025000D01*
X115732076Y-84380000D02*
X124726038Y-93373962D01*
%TO.N,Net-(C6-Pad1)*%
X112887500Y-84364044D02*
X112871544Y-84380000D01*
X112887500Y-79200000D02*
X112887500Y-84364044D01*
D41*
%TO.N,VCC*%
X126462500Y-71300000D02*
X126462500Y-74262500D01*
X126462500Y-74262500D02*
X127100000Y-74900000D01*
D39*
%TO.N,Net-(D1-K)*%
X125975000Y-95475000D02*
X126650000Y-96150000D01*
X125975000Y-94200000D02*
X125975000Y-95475000D01*
%TO.N,Net-(D1-A)*%
X121100000Y-93500000D02*
X120300000Y-94300000D01*
X124225000Y-94200000D02*
X123525000Y-93500000D01*
X120300000Y-94300000D02*
X120300000Y-95812500D01*
X120300000Y-95812500D02*
X120575000Y-96087500D01*
X123525000Y-93500000D02*
X121100000Y-93500000D01*
%TO.N,Net-(D2-K)*%
X123400000Y-97100000D02*
X123950000Y-97100000D01*
X122050000Y-94300000D02*
X123075000Y-95325000D01*
X123075000Y-95325000D02*
X123075000Y-96775000D01*
X123075000Y-96775000D02*
X123400000Y-97100000D01*
%TO.N,Net-(U2-IO8)*%
X132187500Y-66087500D02*
X132100000Y-66000000D01*
X134400000Y-66087500D02*
X132187500Y-66087500D01*
%TO.N,Net-(U1-PROG)*%
X123700000Y-95900000D02*
X123950000Y-96150000D01*
X123700000Y-95400000D02*
X123700000Y-95900000D01*
X118975000Y-95825000D02*
X119500000Y-95300000D01*
X118975000Y-96087500D02*
X118975000Y-95825000D01*
%TO.N,/IO9*%
X133425000Y-69825000D02*
X133425000Y-68325000D01*
X133200000Y-67500000D02*
X133500000Y-67200000D01*
X133425000Y-68325000D02*
X132600000Y-67500000D01*
X133325000Y-69925000D02*
X133425000Y-69825000D01*
X152600000Y-75000000D02*
X159600000Y-75000000D01*
X132100000Y-67500000D02*
X133200000Y-67500000D01*
X132600000Y-67500000D02*
X132100000Y-67500000D01*
%TO.N,/RGB*%
X135000000Y-64500000D02*
X132100000Y-64500000D01*
X135500000Y-65000000D02*
X135000000Y-64500000D01*
X127650002Y-95379898D02*
X135500000Y-87529900D01*
X135500000Y-87529900D02*
X135500000Y-65000000D01*
X127650002Y-95600000D02*
X127650002Y-95379898D01*
%TO.N,/L_U_SW*%
X109648223Y-56084010D02*
X109107107Y-56625126D01*
X114600000Y-57000000D02*
X113684010Y-56084010D01*
X113684010Y-56084010D02*
X109648223Y-56084010D01*
%TO.N,/R_U_SW*%
X137600000Y-56847489D02*
X137600000Y-56600000D01*
%TO.N,/ADC1_CH4*%
X140500000Y-65500000D02*
X135000000Y-60000000D01*
X140500000Y-73941000D02*
X140500000Y-65500000D01*
X132100000Y-60000000D02*
X132300000Y-59800000D01*
X147351000Y-80792000D02*
X140500000Y-73941000D01*
X135000000Y-60000000D02*
X132100000Y-60000000D01*
%TO.N,/ADC2_CH0*%
X138875000Y-65325000D02*
X135050000Y-61500000D01*
X152482613Y-90747000D02*
X138875000Y-77139387D01*
X156080000Y-89522000D02*
X154855000Y-90747000D01*
X135050000Y-61500000D02*
X132100000Y-61500000D01*
X138875000Y-77139387D02*
X138875000Y-65325000D01*
X154855000Y-90747000D02*
X152482613Y-90747000D01*
%TO.N,/R_D_SW*%
X113800000Y-69800000D02*
X114600000Y-69000000D01*
X113800000Y-81577076D02*
X113800000Y-69800000D01*
X114122924Y-81900000D02*
X113800000Y-81577076D01*
X119200000Y-86400000D02*
X119200000Y-85897924D01*
X119200000Y-85897924D02*
X115202076Y-81900000D01*
X115202076Y-81900000D02*
X114122924Y-81900000D01*
%TO.N,/L_D_SW*%
X112059044Y-102759044D02*
X114421320Y-105121320D01*
X114600000Y-64500000D02*
X114100000Y-64500000D01*
X112059044Y-66540956D02*
X112059044Y-102759044D01*
X114100000Y-64500000D02*
X112059044Y-66540956D01*
%TO.N,/ADC1_CH3*%
X115925000Y-62325000D02*
X115100000Y-61500000D01*
X115925000Y-77987500D02*
X115925000Y-62325000D01*
X114712500Y-79200000D02*
X115925000Y-77987500D01*
X115100000Y-61500000D02*
X114600000Y-61500000D01*
%TO.N,/ADC1_CH1*%
X94940255Y-64375000D02*
X87290255Y-72025000D01*
X85275000Y-72025000D02*
X80226000Y-77074000D01*
X114100000Y-58500000D02*
X108225000Y-64375000D01*
X80226000Y-79667000D02*
X81451000Y-80892000D01*
X114600000Y-58500000D02*
X114100000Y-58500000D01*
X87290255Y-72025000D02*
X85275000Y-72025000D01*
X108225000Y-64375000D02*
X94940255Y-64375000D01*
X80226000Y-77074000D02*
X80226000Y-79667000D01*
%TO.N,/ADC1_CH2*%
X98080000Y-76020000D02*
X98080000Y-81722000D01*
X114100000Y-60000000D02*
X98080000Y-76020000D01*
X114600000Y-60000000D02*
X114100000Y-60000000D01*
X98080000Y-81722000D02*
X90180000Y-89622000D01*
%TD*%
%TA.AperFunction,Conductor*%
%TO.N,Net-(U1-VCC)*%
G36*
X123124932Y-97819685D02*
G01*
X123132204Y-97824733D01*
X123157668Y-97843795D01*
X123157671Y-97843797D01*
X123292517Y-97894091D01*
X123292516Y-97894091D01*
X123299444Y-97894835D01*
X123352127Y-97900500D01*
X124395326Y-97900499D01*
X124462365Y-97920183D01*
X124508120Y-97972987D01*
X124518846Y-98013600D01*
X124658651Y-99598049D01*
X124651313Y-99652281D01*
X124605908Y-99774017D01*
X124599501Y-99833616D01*
X124599501Y-99833623D01*
X124599500Y-99833635D01*
X124599501Y-101076000D01*
X124579816Y-101143039D01*
X124527013Y-101188794D01*
X124475501Y-101200000D01*
X124274500Y-101200000D01*
X124207461Y-101180315D01*
X124161706Y-101127511D01*
X124150500Y-101076000D01*
X124150499Y-99833629D01*
X124150498Y-99833623D01*
X124150497Y-99833616D01*
X124144091Y-99774017D01*
X124098686Y-99652281D01*
X124093797Y-99639171D01*
X124093793Y-99639164D01*
X124007547Y-99523955D01*
X124007544Y-99523952D01*
X123892335Y-99437706D01*
X123892328Y-99437702D01*
X123757482Y-99387408D01*
X123757483Y-99387408D01*
X123697883Y-99381001D01*
X123697881Y-99381000D01*
X123697873Y-99381000D01*
X123697864Y-99381000D01*
X122902129Y-99381000D01*
X122902123Y-99381001D01*
X122842520Y-99387408D01*
X122834974Y-99389192D01*
X122834628Y-99387730D01*
X122773622Y-99392084D01*
X122758600Y-99387672D01*
X122757482Y-99387408D01*
X122697883Y-99381001D01*
X122697881Y-99381000D01*
X122697873Y-99381000D01*
X122697864Y-99381000D01*
X121902129Y-99381000D01*
X121902123Y-99381001D01*
X121842516Y-99387408D01*
X121707671Y-99437702D01*
X121707664Y-99437706D01*
X121592455Y-99523952D01*
X121592452Y-99523955D01*
X121506206Y-99639164D01*
X121506202Y-99639171D01*
X121455908Y-99774017D01*
X121449501Y-99833616D01*
X121449501Y-99833623D01*
X121449500Y-99833635D01*
X121449501Y-101076000D01*
X121429816Y-101143039D01*
X121377013Y-101188794D01*
X121325501Y-101200000D01*
X121124500Y-101200000D01*
X121057461Y-101180315D01*
X121011706Y-101127511D01*
X121000500Y-101076000D01*
X121000499Y-99833629D01*
X121000498Y-99833623D01*
X121000497Y-99833616D01*
X120994091Y-99774017D01*
X120948686Y-99652281D01*
X120943797Y-99639171D01*
X120943795Y-99639168D01*
X120875233Y-99547580D01*
X120850816Y-99482115D01*
X120850500Y-99473269D01*
X120850500Y-98908657D01*
X120850499Y-98908653D01*
X120819739Y-98754010D01*
X120819738Y-98754003D01*
X120759394Y-98608321D01*
X120759392Y-98608318D01*
X120759390Y-98608314D01*
X120671789Y-98477211D01*
X120671786Y-98477207D01*
X120206259Y-98011681D01*
X120172774Y-97950358D01*
X120177758Y-97880667D01*
X120219629Y-97824733D01*
X120285094Y-97800316D01*
X120293940Y-97800000D01*
X123057893Y-97800000D01*
X123124932Y-97819685D01*
G37*
%TD.AperFunction*%
%TD*%
M02*
