%TF.GenerationSoftware,KiCad,Pcbnew,8.0.2*%
%TF.CreationDate,2024-05-19T19:20:35+08:00*%
%TF.ProjectId,bat_rf,6261745f-7266-42e6-9b69-6361645f7063,rev?*%
%TF.SameCoordinates,Original*%
%TF.FileFunction,Legend,Bot*%
%TF.FilePolarity,Positive*%
%FSLAX46Y46*%
G04 Gerber Fmt 4.6, Leading zero omitted, Abs format (unit mm)*
G04 Created by KiCad (PCBNEW 8.0.2) date 2024-05-19 19:20:35*
%MOMM*%
%LPD*%
G01*
G04 APERTURE LIST*
%ADD10C,0.150000*%
%ADD11C,0.300000*%
%ADD12C,0.100000*%
%ADD13C,0.375000*%
%ADD14C,0.203000*%
%ADD15C,0.127000*%
%ADD16C,0.120000*%
%ADD17C,0.254000*%
%ADD18C,0.152000*%
%ADD19C,0.200000*%
%ADD20C,0.500000*%
G04 APERTURE END LIST*
D10*
X97000000Y-87400000D02*
X121969483Y-87400000D01*
X121969483Y-106155000D01*
X97000000Y-106155000D01*
X97000000Y-87400000D01*
X71200000Y-74100000D02*
X97000000Y-74100000D01*
X97000000Y-89200000D01*
X71200000Y-89200000D01*
X71200000Y-74100000D01*
X83000000Y-89200000D02*
X96900000Y-89200000D01*
X96900000Y-106700000D01*
X83000000Y-106700000D01*
X83000000Y-89200000D01*
X128976250Y-82900000D02*
X147000000Y-82900000D01*
X147000000Y-99832000D01*
X128976250Y-99832000D01*
X128976250Y-82900000D01*
G36*
X143140625Y-83510204D02*
G01*
X143171952Y-83540448D01*
X143207341Y-83609171D01*
X143208542Y-83859490D01*
X143175215Y-83928175D01*
X143144969Y-83959504D01*
X143076179Y-83994928D01*
X142921010Y-83996018D01*
X142880663Y-83976442D01*
X142879825Y-83497147D01*
X142916926Y-83478042D01*
X143072095Y-83476952D01*
X143140625Y-83510204D01*
G37*
G36*
X142273690Y-83505453D02*
G01*
X142302561Y-83561517D01*
X142302866Y-83645339D01*
X141975522Y-83580850D01*
X141975318Y-83565284D01*
X142003616Y-83506966D01*
X142059783Y-83478042D01*
X142214952Y-83476952D01*
X142273690Y-83505453D01*
G37*
G36*
X144405315Y-83761203D02*
G01*
X144408004Y-83761394D01*
X144410493Y-83762425D01*
X144425125Y-83763866D01*
X144643432Y-83762621D01*
X144702262Y-83791167D01*
X144731284Y-83847524D01*
X144732073Y-83907685D01*
X144703776Y-83966004D01*
X144647648Y-83994907D01*
X144444912Y-83996063D01*
X144404637Y-83976521D01*
X144404059Y-83760593D01*
X144405315Y-83761203D01*
G37*
G36*
X146896950Y-84589263D02*
G01*
X141715204Y-84589263D01*
X141715204Y-83546009D01*
X141826315Y-83546009D01*
X141827486Y-83635312D01*
X141826315Y-83641169D01*
X141827651Y-83647925D01*
X141827756Y-83655879D01*
X141830567Y-83662667D01*
X141831994Y-83669876D01*
X141836113Y-83676055D01*
X141838955Y-83682915D01*
X141844150Y-83688110D01*
X141848226Y-83694224D01*
X141854396Y-83698356D01*
X141859647Y-83703607D01*
X141866435Y-83706418D01*
X141872541Y-83710508D01*
X141886606Y-83714791D01*
X142303418Y-83796905D01*
X142303820Y-83907028D01*
X142275204Y-83966004D01*
X142219036Y-83994928D01*
X142063867Y-83996018D01*
X141968743Y-83949863D01*
X141939553Y-83947789D01*
X141911792Y-83957043D01*
X141889684Y-83976216D01*
X141876597Y-84002391D01*
X141874523Y-84031581D01*
X141883777Y-84059342D01*
X141902950Y-84081450D01*
X141915393Y-84089282D01*
X142001282Y-84130957D01*
X142002504Y-84132179D01*
X142011363Y-84135848D01*
X142024362Y-84142156D01*
X142027051Y-84142347D01*
X142029540Y-84143378D01*
X142044172Y-84144819D01*
X142223259Y-84143560D01*
X142225267Y-84144230D01*
X142235939Y-84143471D01*
X142249280Y-84143378D01*
X142251769Y-84142346D01*
X142254457Y-84142156D01*
X142268189Y-84136901D01*
X142359573Y-84089841D01*
X142367028Y-84087357D01*
X142370870Y-84084024D01*
X142375870Y-84081450D01*
X142382031Y-84074345D01*
X142389136Y-84068184D01*
X142393797Y-84060778D01*
X142395043Y-84059342D01*
X142395427Y-84058188D01*
X142396968Y-84055741D01*
X142438642Y-83969851D01*
X142439865Y-83968629D01*
X142443536Y-83959764D01*
X142449842Y-83946770D01*
X142450032Y-83944082D01*
X142451064Y-83941593D01*
X142452505Y-83926961D01*
X142451823Y-83739968D01*
X142452505Y-83736563D01*
X142451798Y-83732991D01*
X142451159Y-83557657D01*
X142451916Y-83555389D01*
X142451110Y-83544047D01*
X142451064Y-83531377D01*
X142450033Y-83528888D01*
X142449842Y-83526199D01*
X142444587Y-83512468D01*
X142397527Y-83421083D01*
X142395043Y-83413629D01*
X142391710Y-83409786D01*
X142389136Y-83404787D01*
X142387251Y-83403152D01*
X142731077Y-83403152D01*
X142732163Y-84024578D01*
X142731666Y-84031581D01*
X142732178Y-84033118D01*
X142732471Y-84200877D01*
X142731666Y-84203295D01*
X142732496Y-84214982D01*
X142732518Y-84227308D01*
X142733549Y-84229797D01*
X142733740Y-84232485D01*
X142738995Y-84246217D01*
X142787687Y-84340773D01*
X142791336Y-84349582D01*
X142793718Y-84352484D01*
X142794446Y-84353898D01*
X142795944Y-84355197D01*
X142800663Y-84360947D01*
X142849698Y-84408288D01*
X142855331Y-84414783D01*
X142858476Y-84416762D01*
X142859647Y-84417893D01*
X142861474Y-84418650D01*
X142867774Y-84422615D01*
X142953663Y-84464290D01*
X142954885Y-84465512D01*
X142963744Y-84469181D01*
X142976743Y-84475489D01*
X142979432Y-84475680D01*
X142981921Y-84476711D01*
X142996553Y-84478152D01*
X143128182Y-84476947D01*
X143130029Y-84477563D01*
X143140243Y-84476837D01*
X143154042Y-84476711D01*
X143156531Y-84475679D01*
X143159219Y-84475489D01*
X143172951Y-84470234D01*
X143280632Y-84414783D01*
X143299805Y-84392675D01*
X143309059Y-84364914D01*
X143306985Y-84335724D01*
X143293897Y-84309549D01*
X143271790Y-84290376D01*
X143244028Y-84281122D01*
X143214838Y-84283196D01*
X143201107Y-84288451D01*
X143123732Y-84328295D01*
X143016100Y-84329280D01*
X142947719Y-84296100D01*
X142916391Y-84265855D01*
X142881049Y-84197224D01*
X142880953Y-84141888D01*
X142881505Y-84142156D01*
X142884194Y-84142347D01*
X142886683Y-84143378D01*
X142901315Y-84144819D01*
X143080402Y-84143560D01*
X143082410Y-84144230D01*
X143093082Y-84143471D01*
X143106423Y-84143378D01*
X143108912Y-84142346D01*
X143111600Y-84142156D01*
X143125332Y-84136901D01*
X143219886Y-84088209D01*
X143228697Y-84084560D01*
X143231599Y-84082177D01*
X143233013Y-84081450D01*
X143234313Y-84079950D01*
X143240063Y-84075232D01*
X143287404Y-84026195D01*
X143293898Y-84020564D01*
X143295877Y-84017418D01*
X143297009Y-84016247D01*
X143297766Y-84014417D01*
X143301730Y-84008121D01*
X143343405Y-83922231D01*
X143344627Y-83921010D01*
X143348296Y-83912150D01*
X143354604Y-83899152D01*
X143354795Y-83896462D01*
X143355826Y-83893974D01*
X143357267Y-83879342D01*
X143355951Y-83605187D01*
X143356678Y-83603008D01*
X143355887Y-83591887D01*
X143355826Y-83578996D01*
X143354795Y-83576507D01*
X143354604Y-83573818D01*
X143349349Y-83560087D01*
X143300657Y-83465532D01*
X143297008Y-83456722D01*
X143294625Y-83453819D01*
X143293898Y-83452406D01*
X143292399Y-83451106D01*
X143287681Y-83445357D01*
X143238645Y-83398015D01*
X143233013Y-83391521D01*
X143229867Y-83389541D01*
X143228810Y-83388520D01*
X143494423Y-83388520D01*
X143494423Y-83417784D01*
X143505622Y-83444820D01*
X143526314Y-83465512D01*
X143553350Y-83476711D01*
X143567982Y-83478152D01*
X143643944Y-83477155D01*
X143712054Y-83510204D01*
X143743381Y-83540448D01*
X143779133Y-83609875D01*
X143780137Y-84084451D01*
X143791336Y-84111487D01*
X143812028Y-84132179D01*
X143839064Y-84143378D01*
X143868328Y-84143378D01*
X143895364Y-84132179D01*
X143916056Y-84111487D01*
X143927255Y-84084451D01*
X143928696Y-84069819D01*
X143927711Y-83604195D01*
X143928107Y-83603008D01*
X143927696Y-83597229D01*
X143927588Y-83546009D01*
X144254887Y-83546009D01*
X144256160Y-84021944D01*
X144255476Y-84031581D01*
X144256192Y-84033729D01*
X144256328Y-84084451D01*
X144267527Y-84111487D01*
X144288219Y-84132179D01*
X144315255Y-84143378D01*
X144344519Y-84143378D01*
X144371555Y-84132179D01*
X144375866Y-84127867D01*
X144382235Y-84130957D01*
X144383457Y-84132179D01*
X144392316Y-84135848D01*
X144405315Y-84142156D01*
X144408004Y-84142347D01*
X144410493Y-84143378D01*
X144425125Y-84144819D01*
X144651729Y-84143526D01*
X144653839Y-84144230D01*
X144664781Y-84143452D01*
X144677852Y-84143378D01*
X144680341Y-84142346D01*
X144683029Y-84142156D01*
X144696761Y-84136901D01*
X144788145Y-84089841D01*
X144795600Y-84087357D01*
X144799442Y-84084024D01*
X144804442Y-84081450D01*
X144810603Y-84074345D01*
X144817708Y-84068184D01*
X144822369Y-84060778D01*
X144823615Y-84059342D01*
X144823999Y-84058188D01*
X144825540Y-84055741D01*
X144867214Y-83969851D01*
X144868437Y-83968629D01*
X144872108Y-83959764D01*
X144878414Y-83946770D01*
X144878604Y-83944082D01*
X144879636Y-83941593D01*
X144881077Y-83926961D01*
X144879971Y-83842653D01*
X144880488Y-83841103D01*
X144879829Y-83831832D01*
X144879636Y-83817091D01*
X144878605Y-83814602D01*
X144878414Y-83811913D01*
X144873159Y-83798182D01*
X144826099Y-83706797D01*
X144823615Y-83699343D01*
X144820282Y-83695500D01*
X144817708Y-83690501D01*
X144810603Y-83684339D01*
X144804442Y-83677235D01*
X144797036Y-83672573D01*
X144795600Y-83671328D01*
X144794446Y-83670943D01*
X144791999Y-83669403D01*
X144706110Y-83627728D01*
X144704888Y-83626506D01*
X144696022Y-83622833D01*
X144683029Y-83616529D01*
X144680341Y-83616338D01*
X144677852Y-83615307D01*
X144663220Y-83613866D01*
X144444912Y-83615110D01*
X144403616Y-83595073D01*
X144403538Y-83566010D01*
X144413243Y-83546009D01*
X145159649Y-83546009D01*
X145161090Y-84084451D01*
X145172289Y-84111487D01*
X145192981Y-84132179D01*
X145220017Y-84143378D01*
X145249281Y-84143378D01*
X145276317Y-84132179D01*
X145297009Y-84111487D01*
X145308208Y-84084451D01*
X145309649Y-84069819D01*
X145308300Y-83566010D01*
X145336950Y-83506966D01*
X145393183Y-83478008D01*
X145500815Y-83477023D01*
X145569197Y-83510204D01*
X145588872Y-83529199D01*
X145589661Y-84084451D01*
X145600860Y-84111487D01*
X145621552Y-84132179D01*
X145648588Y-84143378D01*
X145677852Y-84143378D01*
X145704888Y-84132179D01*
X145725580Y-84111487D01*
X145736779Y-84084451D01*
X145738220Y-84069819D01*
X145736914Y-83150426D01*
X146018233Y-83150426D01*
X146018233Y-83179688D01*
X146029432Y-83206725D01*
X146050124Y-83227417D01*
X146077161Y-83238616D01*
X146106423Y-83238616D01*
X146133460Y-83227417D01*
X146144825Y-83218090D01*
X146178347Y-83183367D01*
X146291053Y-83144703D01*
X146362432Y-83143767D01*
X146478359Y-83181290D01*
X146552568Y-83254080D01*
X146591259Y-83329215D01*
X146635877Y-83502645D01*
X146637019Y-83627417D01*
X146594993Y-83800540D01*
X146556268Y-83880350D01*
X146481991Y-83956076D01*
X146368719Y-83994934D01*
X146297341Y-83995870D01*
X146181149Y-83958262D01*
X146133460Y-83912220D01*
X146106424Y-83901021D01*
X146077161Y-83901021D01*
X146050125Y-83912219D01*
X146029432Y-83932912D01*
X146018233Y-83959948D01*
X146018233Y-83989211D01*
X146029431Y-84016247D01*
X146038758Y-84027612D01*
X146079583Y-84067027D01*
X146080161Y-84068183D01*
X146086252Y-84073466D01*
X146097743Y-84084560D01*
X146100231Y-84085590D01*
X146102268Y-84087357D01*
X146115694Y-84093351D01*
X146258275Y-84139500D01*
X146267636Y-84143378D01*
X146271399Y-84143748D01*
X146272887Y-84144230D01*
X146274861Y-84144089D01*
X146282268Y-84144819D01*
X146377585Y-84143568D01*
X146386886Y-84144230D01*
X146390540Y-84143398D01*
X146392138Y-84143378D01*
X146393969Y-84142619D01*
X146401223Y-84140970D01*
X146533013Y-84095759D01*
X146534995Y-84095759D01*
X146544547Y-84091802D01*
X146557505Y-84087357D01*
X146559540Y-84085591D01*
X146562031Y-84084560D01*
X146573396Y-84075233D01*
X146667328Y-83979468D01*
X146674851Y-83972945D01*
X146676863Y-83969748D01*
X146677962Y-83968628D01*
X146678719Y-83966798D01*
X146682683Y-83960502D01*
X146726951Y-83869269D01*
X146731034Y-83863759D01*
X146734969Y-83852743D01*
X146735557Y-83851533D01*
X146735595Y-83850992D01*
X146735981Y-83849913D01*
X146781221Y-83663547D01*
X146784398Y-83655879D01*
X146785295Y-83646764D01*
X146785750Y-83644893D01*
X146785587Y-83643800D01*
X146785839Y-83641247D01*
X146784571Y-83502667D01*
X146785750Y-83494744D01*
X146784415Y-83485719D01*
X146784398Y-83483758D01*
X146783975Y-83482736D01*
X146783600Y-83480200D01*
X146736082Y-83295501D01*
X146735557Y-83288104D01*
X146731353Y-83277121D01*
X146731034Y-83275878D01*
X146730711Y-83275442D01*
X146730302Y-83274373D01*
X146681613Y-83179823D01*
X146677962Y-83171008D01*
X146675577Y-83168102D01*
X146674851Y-83166692D01*
X146673354Y-83165393D01*
X146668634Y-83159643D01*
X146580463Y-83073158D01*
X146579612Y-83071455D01*
X146571969Y-83064826D01*
X146562031Y-83055078D01*
X146559540Y-83054046D01*
X146557505Y-83052281D01*
X146544080Y-83046287D01*
X146401501Y-83000138D01*
X146392138Y-82996260D01*
X146388372Y-82995889D01*
X146386886Y-82995408D01*
X146384911Y-82995548D01*
X146377506Y-82994819D01*
X146282187Y-82996069D01*
X146272887Y-82995408D01*
X146269232Y-82996239D01*
X146267636Y-82996260D01*
X146265805Y-82997018D01*
X146258550Y-82998668D01*
X146126760Y-83043879D01*
X146124779Y-83043879D01*
X146115231Y-83047833D01*
X146102268Y-83052281D01*
X146100231Y-83054047D01*
X146097743Y-83055078D01*
X146086378Y-83064405D01*
X146029432Y-83123389D01*
X146018233Y-83150426D01*
X145736914Y-83150426D01*
X145736779Y-83055187D01*
X145725580Y-83028151D01*
X145704888Y-83007459D01*
X145677852Y-82996260D01*
X145648588Y-82996260D01*
X145621552Y-83007459D01*
X145600860Y-83028151D01*
X145589661Y-83055187D01*
X145588220Y-83069819D01*
X145588624Y-83354324D01*
X145563253Y-83342014D01*
X145562031Y-83340792D01*
X145553165Y-83337119D01*
X145540172Y-83330815D01*
X145537484Y-83330624D01*
X145534995Y-83329593D01*
X145520363Y-83328152D01*
X145388732Y-83329356D01*
X145386886Y-83328741D01*
X145376671Y-83329466D01*
X145362874Y-83329593D01*
X145360385Y-83330623D01*
X145357696Y-83330815D01*
X145343965Y-83336070D01*
X145252580Y-83383129D01*
X145245126Y-83385614D01*
X145241283Y-83388946D01*
X145236284Y-83391521D01*
X145230122Y-83398625D01*
X145223018Y-83404787D01*
X145218356Y-83412192D01*
X145217111Y-83413629D01*
X145216726Y-83414782D01*
X145215186Y-83417230D01*
X145173511Y-83503118D01*
X145172289Y-83504341D01*
X145168616Y-83513206D01*
X145162312Y-83526200D01*
X145162121Y-83528887D01*
X145161090Y-83531377D01*
X145159649Y-83546009D01*
X144413243Y-83546009D01*
X144432188Y-83506966D01*
X144488355Y-83478042D01*
X144643524Y-83476952D01*
X144738648Y-83523108D01*
X144767838Y-83525182D01*
X144795600Y-83515928D01*
X144817707Y-83496755D01*
X144830795Y-83470580D01*
X144832869Y-83441390D01*
X144823615Y-83413629D01*
X144804442Y-83391521D01*
X144791999Y-83383689D01*
X144706110Y-83342014D01*
X144704888Y-83340792D01*
X144696022Y-83337119D01*
X144683029Y-83330815D01*
X144680341Y-83330624D01*
X144677852Y-83329593D01*
X144663220Y-83328152D01*
X144484131Y-83329410D01*
X144482124Y-83328741D01*
X144471451Y-83329499D01*
X144458112Y-83329593D01*
X144455623Y-83330623D01*
X144452934Y-83330815D01*
X144439203Y-83336070D01*
X144347818Y-83383129D01*
X144340364Y-83385614D01*
X144336521Y-83388946D01*
X144331522Y-83391521D01*
X144325360Y-83398625D01*
X144318256Y-83404787D01*
X144313594Y-83412192D01*
X144312349Y-83413629D01*
X144311964Y-83414782D01*
X144310424Y-83417230D01*
X144268749Y-83503118D01*
X144267527Y-83504341D01*
X144263854Y-83513206D01*
X144257550Y-83526200D01*
X144257359Y-83528887D01*
X144256328Y-83531377D01*
X144254887Y-83546009D01*
X143927588Y-83546009D01*
X143927255Y-83388520D01*
X143916056Y-83361484D01*
X143895364Y-83340792D01*
X143868328Y-83329593D01*
X143839064Y-83329593D01*
X143812028Y-83340792D01*
X143791336Y-83361484D01*
X143783788Y-83379705D01*
X143706110Y-83342014D01*
X143704888Y-83340792D01*
X143696022Y-83337119D01*
X143683029Y-83330815D01*
X143680341Y-83330624D01*
X143677852Y-83329593D01*
X143663220Y-83328152D01*
X143553350Y-83329593D01*
X143526314Y-83340792D01*
X143505622Y-83361484D01*
X143494423Y-83388520D01*
X143228810Y-83388520D01*
X143228697Y-83388411D01*
X143226869Y-83387653D01*
X143220570Y-83383689D01*
X143134681Y-83342014D01*
X143133459Y-83340792D01*
X143124593Y-83337119D01*
X143111600Y-83330815D01*
X143108912Y-83330624D01*
X143106423Y-83329593D01*
X143091791Y-83328152D01*
X142912702Y-83329410D01*
X142910695Y-83328741D01*
X142900022Y-83329499D01*
X142886683Y-83329593D01*
X142884194Y-83330623D01*
X142881505Y-83330815D01*
X142867774Y-83336070D01*
X142851436Y-83344483D01*
X142847745Y-83340792D01*
X142820709Y-83329593D01*
X142791445Y-83329593D01*
X142764409Y-83340792D01*
X142743717Y-83361484D01*
X142732518Y-83388520D01*
X142731077Y-83403152D01*
X142387251Y-83403152D01*
X142382031Y-83398625D01*
X142375870Y-83391521D01*
X142368464Y-83386859D01*
X142367028Y-83385614D01*
X142365874Y-83385229D01*
X142363427Y-83383689D01*
X142277538Y-83342014D01*
X142276316Y-83340792D01*
X142267450Y-83337119D01*
X142254457Y-83330815D01*
X142251769Y-83330624D01*
X142249280Y-83329593D01*
X142234648Y-83328152D01*
X142055559Y-83329410D01*
X142053552Y-83328741D01*
X142042879Y-83329499D01*
X142029540Y-83329593D01*
X142027051Y-83330623D01*
X142024362Y-83330815D01*
X142010631Y-83336070D01*
X141919246Y-83383129D01*
X141911792Y-83385614D01*
X141907949Y-83388946D01*
X141902950Y-83391521D01*
X141896788Y-83398625D01*
X141889684Y-83404787D01*
X141885022Y-83412192D01*
X141883777Y-83413629D01*
X141883392Y-83414782D01*
X141881852Y-83417230D01*
X141840177Y-83503118D01*
X141838955Y-83504341D01*
X141835282Y-83513206D01*
X141828978Y-83526200D01*
X141828787Y-83528887D01*
X141827756Y-83531377D01*
X141826315Y-83546009D01*
X141715204Y-83546009D01*
X141715204Y-82883708D01*
X146896950Y-82883708D01*
X146896950Y-84589263D01*
G37*
X108291792Y-86169819D02*
X108625125Y-85693628D01*
X108863220Y-86169819D02*
X108863220Y-85169819D01*
X108863220Y-85169819D02*
X108482268Y-85169819D01*
X108482268Y-85169819D02*
X108387030Y-85217438D01*
X108387030Y-85217438D02*
X108339411Y-85265057D01*
X108339411Y-85265057D02*
X108291792Y-85360295D01*
X108291792Y-85360295D02*
X108291792Y-85503152D01*
X108291792Y-85503152D02*
X108339411Y-85598390D01*
X108339411Y-85598390D02*
X108387030Y-85646009D01*
X108387030Y-85646009D02*
X108482268Y-85693628D01*
X108482268Y-85693628D02*
X108863220Y-85693628D01*
G36*
X93974066Y-89796392D02*
G01*
X93974747Y-90276048D01*
X93938084Y-90294928D01*
X93782915Y-90296018D01*
X93714386Y-90262767D01*
X93683059Y-90232521D01*
X93647669Y-90163798D01*
X93646468Y-89913479D01*
X93679796Y-89844793D01*
X93710040Y-89813466D01*
X93778831Y-89778042D01*
X93934000Y-89776952D01*
X93974066Y-89796392D01*
G37*
G36*
X93087976Y-89805453D02*
G01*
X93116847Y-89861517D01*
X93117152Y-89945339D01*
X92789808Y-89880850D01*
X92789604Y-89865284D01*
X92817902Y-89806966D01*
X92874069Y-89778042D01*
X93029238Y-89776952D01*
X93087976Y-89805453D01*
G37*
G36*
X94849881Y-89805453D02*
G01*
X94878752Y-89861517D01*
X94879057Y-89945339D01*
X94551713Y-89880850D01*
X94551509Y-89865284D01*
X94579807Y-89806966D01*
X94635974Y-89778042D01*
X94791143Y-89776952D01*
X94849881Y-89805453D01*
G37*
G36*
X95707024Y-89805453D02*
G01*
X95735895Y-89861517D01*
X95736200Y-89945339D01*
X95408856Y-89880850D01*
X95408652Y-89865284D01*
X95436950Y-89806966D01*
X95493117Y-89778042D01*
X95648286Y-89776952D01*
X95707024Y-89805453D01*
G37*
G36*
X96689534Y-90295087D02*
G01*
X96402200Y-90296134D01*
X96333434Y-90262767D01*
X96302107Y-90232521D01*
X96266648Y-90163664D01*
X96265663Y-90056032D01*
X96298844Y-89987650D01*
X96325966Y-89959557D01*
X96438439Y-89920973D01*
X96689001Y-89919935D01*
X96689534Y-90295087D01*
G37*
G36*
X96688790Y-89771317D02*
G01*
X96449784Y-89772307D01*
X96381053Y-89738957D01*
X96349725Y-89708712D01*
X96314203Y-89639731D01*
X96313414Y-89579570D01*
X96346463Y-89511460D01*
X96376707Y-89480133D01*
X96445410Y-89444754D01*
X96688324Y-89443748D01*
X96688790Y-89771317D01*
G37*
G36*
X96949331Y-90887822D02*
G01*
X91816645Y-90887822D01*
X91816645Y-89688520D01*
X91927756Y-89688520D01*
X91927756Y-89717784D01*
X91938955Y-89744820D01*
X91959647Y-89765512D01*
X91986683Y-89776711D01*
X92001315Y-89778152D01*
X92077277Y-89777155D01*
X92145387Y-89810204D01*
X92176714Y-89840448D01*
X92212466Y-89909875D01*
X92213470Y-90384451D01*
X92224669Y-90411487D01*
X92245361Y-90432179D01*
X92272397Y-90443378D01*
X92301661Y-90443378D01*
X92328697Y-90432179D01*
X92349389Y-90411487D01*
X92360588Y-90384451D01*
X92362029Y-90369819D01*
X92361044Y-89904195D01*
X92361440Y-89903008D01*
X92361029Y-89897229D01*
X92360921Y-89846009D01*
X92640601Y-89846009D01*
X92641772Y-89935312D01*
X92640601Y-89941169D01*
X92641937Y-89947925D01*
X92642042Y-89955879D01*
X92644853Y-89962667D01*
X92646280Y-89969876D01*
X92650399Y-89976055D01*
X92653241Y-89982915D01*
X92658436Y-89988110D01*
X92662512Y-89994224D01*
X92668682Y-89998356D01*
X92673933Y-90003607D01*
X92680721Y-90006418D01*
X92686827Y-90010508D01*
X92700892Y-90014791D01*
X93117704Y-90096905D01*
X93118106Y-90207028D01*
X93089490Y-90266004D01*
X93033322Y-90294928D01*
X92878153Y-90296018D01*
X92783029Y-90249863D01*
X92753839Y-90247789D01*
X92726078Y-90257043D01*
X92703970Y-90276216D01*
X92690883Y-90302391D01*
X92688809Y-90331581D01*
X92698063Y-90359342D01*
X92717236Y-90381450D01*
X92729679Y-90389282D01*
X92815568Y-90430957D01*
X92816790Y-90432179D01*
X92825649Y-90435848D01*
X92838648Y-90442156D01*
X92841337Y-90442347D01*
X92843826Y-90443378D01*
X92858458Y-90444819D01*
X93037545Y-90443560D01*
X93039553Y-90444230D01*
X93050225Y-90443471D01*
X93063566Y-90443378D01*
X93066055Y-90442346D01*
X93068743Y-90442156D01*
X93082475Y-90436901D01*
X93173859Y-90389841D01*
X93181314Y-90387357D01*
X93185156Y-90384024D01*
X93190156Y-90381450D01*
X93196317Y-90374345D01*
X93203422Y-90368184D01*
X93208083Y-90360778D01*
X93209329Y-90359342D01*
X93209713Y-90358188D01*
X93211254Y-90355741D01*
X93252928Y-90269851D01*
X93254151Y-90268629D01*
X93257822Y-90259764D01*
X93264128Y-90246770D01*
X93264318Y-90244082D01*
X93265350Y-90241593D01*
X93266791Y-90226961D01*
X93266109Y-90039968D01*
X93266791Y-90036563D01*
X93266084Y-90032991D01*
X93265576Y-89893628D01*
X93497744Y-89893628D01*
X93499059Y-90167782D01*
X93498333Y-90169961D01*
X93499123Y-90181081D01*
X93499185Y-90193974D01*
X93500216Y-90196463D01*
X93500407Y-90199151D01*
X93505662Y-90212883D01*
X93554352Y-90307435D01*
X93558002Y-90316247D01*
X93560385Y-90319151D01*
X93561113Y-90320564D01*
X93562611Y-90321863D01*
X93567329Y-90327612D01*
X93616364Y-90374953D01*
X93621998Y-90381450D01*
X93625143Y-90383429D01*
X93626314Y-90384560D01*
X93628141Y-90385317D01*
X93634441Y-90389282D01*
X93720330Y-90430957D01*
X93721552Y-90432179D01*
X93730411Y-90435848D01*
X93743410Y-90442156D01*
X93746099Y-90442347D01*
X93748588Y-90443378D01*
X93763220Y-90444819D01*
X93942307Y-90443560D01*
X93944315Y-90444230D01*
X93954987Y-90443471D01*
X93968328Y-90443378D01*
X93970817Y-90442346D01*
X93973505Y-90442156D01*
X93974982Y-90441590D01*
X93975375Y-90717784D01*
X93986574Y-90744820D01*
X94007266Y-90765512D01*
X94034302Y-90776711D01*
X94063566Y-90776711D01*
X94090602Y-90765512D01*
X94111294Y-90744820D01*
X94122493Y-90717784D01*
X94123934Y-90703152D01*
X94122716Y-89846009D01*
X94402506Y-89846009D01*
X94403677Y-89935312D01*
X94402506Y-89941169D01*
X94403842Y-89947925D01*
X94403947Y-89955879D01*
X94406758Y-89962667D01*
X94408185Y-89969876D01*
X94412304Y-89976055D01*
X94415146Y-89982915D01*
X94420341Y-89988110D01*
X94424417Y-89994224D01*
X94430587Y-89998356D01*
X94435838Y-90003607D01*
X94442626Y-90006418D01*
X94448732Y-90010508D01*
X94462797Y-90014791D01*
X94879609Y-90096905D01*
X94880011Y-90207028D01*
X94851395Y-90266004D01*
X94795227Y-90294928D01*
X94640058Y-90296018D01*
X94544934Y-90249863D01*
X94515744Y-90247789D01*
X94487983Y-90257043D01*
X94465875Y-90276216D01*
X94452788Y-90302391D01*
X94450714Y-90331581D01*
X94459968Y-90359342D01*
X94479141Y-90381450D01*
X94491584Y-90389282D01*
X94577473Y-90430957D01*
X94578695Y-90432179D01*
X94587554Y-90435848D01*
X94600553Y-90442156D01*
X94603242Y-90442347D01*
X94605731Y-90443378D01*
X94620363Y-90444819D01*
X94799450Y-90443560D01*
X94801458Y-90444230D01*
X94812130Y-90443471D01*
X94825471Y-90443378D01*
X94827960Y-90442346D01*
X94830648Y-90442156D01*
X94844380Y-90436901D01*
X94935764Y-90389841D01*
X94943219Y-90387357D01*
X94947061Y-90384024D01*
X94952061Y-90381450D01*
X94958222Y-90374345D01*
X94965327Y-90368184D01*
X94969988Y-90360778D01*
X94971234Y-90359342D01*
X94971618Y-90358188D01*
X94973159Y-90355741D01*
X95014833Y-90269851D01*
X95016056Y-90268629D01*
X95019727Y-90259764D01*
X95026033Y-90246770D01*
X95026223Y-90244082D01*
X95027255Y-90241593D01*
X95028696Y-90226961D01*
X95028014Y-90039968D01*
X95028696Y-90036563D01*
X95027989Y-90032991D01*
X95027350Y-89857657D01*
X95028107Y-89855389D01*
X95027440Y-89846009D01*
X95259649Y-89846009D01*
X95260820Y-89935312D01*
X95259649Y-89941169D01*
X95260985Y-89947925D01*
X95261090Y-89955879D01*
X95263901Y-89962667D01*
X95265328Y-89969876D01*
X95269447Y-89976055D01*
X95272289Y-89982915D01*
X95277484Y-89988110D01*
X95281560Y-89994224D01*
X95287730Y-89998356D01*
X95292981Y-90003607D01*
X95299769Y-90006418D01*
X95305875Y-90010508D01*
X95319940Y-90014791D01*
X95736752Y-90096905D01*
X95737154Y-90207028D01*
X95708538Y-90266004D01*
X95652370Y-90294928D01*
X95497201Y-90296018D01*
X95402077Y-90249863D01*
X95372887Y-90247789D01*
X95345126Y-90257043D01*
X95323018Y-90276216D01*
X95309931Y-90302391D01*
X95307857Y-90331581D01*
X95317111Y-90359342D01*
X95336284Y-90381450D01*
X95348727Y-90389282D01*
X95434616Y-90430957D01*
X95435838Y-90432179D01*
X95444697Y-90435848D01*
X95457696Y-90442156D01*
X95460385Y-90442347D01*
X95462874Y-90443378D01*
X95477506Y-90444819D01*
X95656593Y-90443560D01*
X95658601Y-90444230D01*
X95669273Y-90443471D01*
X95682614Y-90443378D01*
X95685103Y-90442346D01*
X95687791Y-90442156D01*
X95701523Y-90436901D01*
X95792907Y-90389841D01*
X95800362Y-90387357D01*
X95804204Y-90384024D01*
X95809204Y-90381450D01*
X95815365Y-90374345D01*
X95822470Y-90368184D01*
X95827131Y-90360778D01*
X95828377Y-90359342D01*
X95828761Y-90358188D01*
X95830302Y-90355741D01*
X95871976Y-90269851D01*
X95873199Y-90268629D01*
X95876870Y-90259764D01*
X95883176Y-90246770D01*
X95883366Y-90244082D01*
X95884398Y-90241593D01*
X95885839Y-90226961D01*
X95885157Y-90039968D01*
X95885839Y-90036563D01*
X95885824Y-90036485D01*
X96116792Y-90036485D01*
X96117996Y-90168114D01*
X96117381Y-90169961D01*
X96118106Y-90180175D01*
X96118233Y-90193974D01*
X96119264Y-90196463D01*
X96119455Y-90199151D01*
X96124710Y-90212883D01*
X96173400Y-90307435D01*
X96177050Y-90316247D01*
X96179433Y-90319151D01*
X96180161Y-90320564D01*
X96181659Y-90321863D01*
X96186377Y-90327612D01*
X96235412Y-90374953D01*
X96241046Y-90381450D01*
X96244191Y-90383429D01*
X96245362Y-90384560D01*
X96247189Y-90385317D01*
X96253489Y-90389282D01*
X96339378Y-90430957D01*
X96340600Y-90432179D01*
X96349459Y-90435848D01*
X96362458Y-90442156D01*
X96365147Y-90442347D01*
X96367636Y-90443378D01*
X96382268Y-90444819D01*
X96777852Y-90443378D01*
X96804888Y-90432179D01*
X96825580Y-90411487D01*
X96836779Y-90384451D01*
X96838220Y-90369819D01*
X96836779Y-89355187D01*
X96825580Y-89328151D01*
X96804888Y-89307459D01*
X96777852Y-89296260D01*
X96763220Y-89294819D01*
X96441496Y-89296151D01*
X96439267Y-89295408D01*
X96428019Y-89296207D01*
X96415255Y-89296260D01*
X96412766Y-89297290D01*
X96410077Y-89297482D01*
X96396346Y-89302737D01*
X96301791Y-89351428D01*
X96292981Y-89355078D01*
X96290078Y-89357460D01*
X96288665Y-89358188D01*
X96287365Y-89359686D01*
X96281616Y-89364405D01*
X96234274Y-89413440D01*
X96227780Y-89419073D01*
X96225800Y-89422218D01*
X96224670Y-89423389D01*
X96223912Y-89425216D01*
X96219948Y-89431516D01*
X96178273Y-89517404D01*
X96177051Y-89518627D01*
X96173378Y-89527492D01*
X96167074Y-89540486D01*
X96166883Y-89543173D01*
X96165852Y-89545663D01*
X96164411Y-89560295D01*
X96165516Y-89644601D01*
X96165000Y-89646152D01*
X96165658Y-89655421D01*
X96165852Y-89670165D01*
X96166883Y-89672654D01*
X96167074Y-89675342D01*
X96172329Y-89689074D01*
X96221021Y-89783630D01*
X96224670Y-89792439D01*
X96227052Y-89795341D01*
X96227780Y-89796755D01*
X96229278Y-89798054D01*
X96233997Y-89803804D01*
X96257014Y-89826025D01*
X96249887Y-89828471D01*
X96247850Y-89830237D01*
X96245362Y-89831268D01*
X96233997Y-89840595D01*
X96186655Y-89889630D01*
X96180161Y-89895263D01*
X96178181Y-89898408D01*
X96177051Y-89899579D01*
X96176293Y-89901406D01*
X96172329Y-89907706D01*
X96130654Y-89993594D01*
X96129432Y-89994817D01*
X96125759Y-90003682D01*
X96119455Y-90016676D01*
X96119264Y-90019363D01*
X96118233Y-90021853D01*
X96116792Y-90036485D01*
X95885824Y-90036485D01*
X95885132Y-90032991D01*
X95884493Y-89857657D01*
X95885250Y-89855389D01*
X95884444Y-89844047D01*
X95884398Y-89831377D01*
X95883367Y-89828888D01*
X95883176Y-89826199D01*
X95877921Y-89812468D01*
X95830861Y-89721083D01*
X95828377Y-89713629D01*
X95825044Y-89709786D01*
X95822470Y-89704787D01*
X95815365Y-89698625D01*
X95809204Y-89691521D01*
X95801798Y-89686859D01*
X95800362Y-89685614D01*
X95799208Y-89685229D01*
X95796761Y-89683689D01*
X95710872Y-89642014D01*
X95709650Y-89640792D01*
X95700784Y-89637119D01*
X95687791Y-89630815D01*
X95685103Y-89630624D01*
X95682614Y-89629593D01*
X95667982Y-89628152D01*
X95488893Y-89629410D01*
X95486886Y-89628741D01*
X95476213Y-89629499D01*
X95462874Y-89629593D01*
X95460385Y-89630623D01*
X95457696Y-89630815D01*
X95443965Y-89636070D01*
X95352580Y-89683129D01*
X95345126Y-89685614D01*
X95341283Y-89688946D01*
X95336284Y-89691521D01*
X95330122Y-89698625D01*
X95323018Y-89704787D01*
X95318356Y-89712192D01*
X95317111Y-89713629D01*
X95316726Y-89714782D01*
X95315186Y-89717230D01*
X95273511Y-89803118D01*
X95272289Y-89804341D01*
X95268616Y-89813206D01*
X95262312Y-89826200D01*
X95262121Y-89828887D01*
X95261090Y-89831377D01*
X95259649Y-89846009D01*
X95027440Y-89846009D01*
X95027301Y-89844047D01*
X95027255Y-89831377D01*
X95026224Y-89828888D01*
X95026033Y-89826199D01*
X95020778Y-89812468D01*
X94973718Y-89721083D01*
X94971234Y-89713629D01*
X94967901Y-89709786D01*
X94965327Y-89704787D01*
X94958222Y-89698625D01*
X94952061Y-89691521D01*
X94944655Y-89686859D01*
X94943219Y-89685614D01*
X94942065Y-89685229D01*
X94939618Y-89683689D01*
X94853729Y-89642014D01*
X94852507Y-89640792D01*
X94843641Y-89637119D01*
X94830648Y-89630815D01*
X94827960Y-89630624D01*
X94825471Y-89629593D01*
X94810839Y-89628152D01*
X94631750Y-89629410D01*
X94629743Y-89628741D01*
X94619070Y-89629499D01*
X94605731Y-89629593D01*
X94603242Y-89630623D01*
X94600553Y-89630815D01*
X94586822Y-89636070D01*
X94495437Y-89683129D01*
X94487983Y-89685614D01*
X94484140Y-89688946D01*
X94479141Y-89691521D01*
X94472979Y-89698625D01*
X94465875Y-89704787D01*
X94461213Y-89712192D01*
X94459968Y-89713629D01*
X94459583Y-89714782D01*
X94458043Y-89717230D01*
X94416368Y-89803118D01*
X94415146Y-89804341D01*
X94411473Y-89813206D01*
X94405169Y-89826200D01*
X94404978Y-89828887D01*
X94403947Y-89831377D01*
X94402506Y-89846009D01*
X94122716Y-89846009D01*
X94122583Y-89752110D01*
X94123345Y-89741390D01*
X94122564Y-89739049D01*
X94122493Y-89688520D01*
X94111294Y-89661484D01*
X94090602Y-89640792D01*
X94063566Y-89629593D01*
X94034302Y-89629593D01*
X94007266Y-89640792D01*
X94002953Y-89645104D01*
X93996586Y-89642014D01*
X93995364Y-89640792D01*
X93986498Y-89637119D01*
X93973505Y-89630815D01*
X93970817Y-89630624D01*
X93968328Y-89629593D01*
X93953696Y-89628152D01*
X93774607Y-89629410D01*
X93772600Y-89628741D01*
X93761927Y-89629499D01*
X93748588Y-89629593D01*
X93746099Y-89630623D01*
X93743410Y-89630815D01*
X93729679Y-89636070D01*
X93635124Y-89684761D01*
X93626314Y-89688411D01*
X93623411Y-89690793D01*
X93621998Y-89691521D01*
X93620698Y-89693019D01*
X93614949Y-89697738D01*
X93567607Y-89746773D01*
X93561113Y-89752406D01*
X93559133Y-89755551D01*
X93558003Y-89756722D01*
X93557245Y-89758549D01*
X93553281Y-89764849D01*
X93511606Y-89850737D01*
X93510384Y-89851960D01*
X93506711Y-89860825D01*
X93500407Y-89873819D01*
X93500216Y-89876506D01*
X93499185Y-89878996D01*
X93497744Y-89893628D01*
X93265576Y-89893628D01*
X93265445Y-89857657D01*
X93266202Y-89855389D01*
X93265396Y-89844047D01*
X93265350Y-89831377D01*
X93264319Y-89828888D01*
X93264128Y-89826199D01*
X93258873Y-89812468D01*
X93211813Y-89721083D01*
X93209329Y-89713629D01*
X93205996Y-89709786D01*
X93203422Y-89704787D01*
X93196317Y-89698625D01*
X93190156Y-89691521D01*
X93182750Y-89686859D01*
X93181314Y-89685614D01*
X93180160Y-89685229D01*
X93177713Y-89683689D01*
X93091824Y-89642014D01*
X93090602Y-89640792D01*
X93081736Y-89637119D01*
X93068743Y-89630815D01*
X93066055Y-89630624D01*
X93063566Y-89629593D01*
X93048934Y-89628152D01*
X92869845Y-89629410D01*
X92867838Y-89628741D01*
X92857165Y-89629499D01*
X92843826Y-89629593D01*
X92841337Y-89630623D01*
X92838648Y-89630815D01*
X92824917Y-89636070D01*
X92733532Y-89683129D01*
X92726078Y-89685614D01*
X92722235Y-89688946D01*
X92717236Y-89691521D01*
X92711074Y-89698625D01*
X92703970Y-89704787D01*
X92699308Y-89712192D01*
X92698063Y-89713629D01*
X92697678Y-89714782D01*
X92696138Y-89717230D01*
X92654463Y-89803118D01*
X92653241Y-89804341D01*
X92649568Y-89813206D01*
X92643264Y-89826200D01*
X92643073Y-89828887D01*
X92642042Y-89831377D01*
X92640601Y-89846009D01*
X92360921Y-89846009D01*
X92360588Y-89688520D01*
X92349389Y-89661484D01*
X92328697Y-89640792D01*
X92301661Y-89629593D01*
X92272397Y-89629593D01*
X92245361Y-89640792D01*
X92224669Y-89661484D01*
X92217121Y-89679705D01*
X92139443Y-89642014D01*
X92138221Y-89640792D01*
X92129355Y-89637119D01*
X92116362Y-89630815D01*
X92113674Y-89630624D01*
X92111185Y-89629593D01*
X92096553Y-89628152D01*
X91986683Y-89629593D01*
X91959647Y-89640792D01*
X91938955Y-89661484D01*
X91927756Y-89688520D01*
X91816645Y-89688520D01*
X91816645Y-89183708D01*
X96949331Y-89183708D01*
X96949331Y-90887822D01*
G37*
G36*
X104222867Y-78395239D02*
G01*
X104074200Y-78396086D01*
X103957604Y-78358348D01*
X103883396Y-78285558D01*
X103844704Y-78210421D01*
X103800086Y-78036991D01*
X103798944Y-77912219D01*
X103840970Y-77739096D01*
X103879695Y-77659286D01*
X103953974Y-77583561D01*
X104067050Y-77544770D01*
X104221658Y-77543888D01*
X104222867Y-78395239D01*
G37*
G36*
X106059466Y-77576770D02*
G01*
X106133258Y-77649152D01*
X106173951Y-77807323D01*
X106175254Y-78122077D01*
X106135140Y-78287325D01*
X106064673Y-78359166D01*
X105995227Y-78394928D01*
X105840058Y-78396018D01*
X105771736Y-78362867D01*
X105697943Y-78290485D01*
X105657250Y-78132313D01*
X105655947Y-77817559D01*
X105696061Y-77652311D01*
X105766529Y-77580470D01*
X105835974Y-77544709D01*
X105991143Y-77543619D01*
X106059466Y-77576770D01*
G37*
G36*
X109821371Y-77576770D02*
G01*
X109895163Y-77649152D01*
X109935856Y-77807323D01*
X109937159Y-78122077D01*
X109897045Y-78287325D01*
X109826578Y-78359166D01*
X109757132Y-78394928D01*
X109601963Y-78396018D01*
X109533641Y-78362867D01*
X109459848Y-78290485D01*
X109419155Y-78132313D01*
X109417852Y-77817559D01*
X109457966Y-77652311D01*
X109528434Y-77580470D01*
X109597879Y-77544709D01*
X109753048Y-77543619D01*
X109821371Y-77576770D01*
G37*
G36*
X110889534Y-78395239D02*
G01*
X110740867Y-78396086D01*
X110624271Y-78358348D01*
X110550063Y-78285558D01*
X110511371Y-78210421D01*
X110466753Y-78036991D01*
X110465611Y-77912219D01*
X110507637Y-77739096D01*
X110546362Y-77659286D01*
X110620641Y-77583561D01*
X110733717Y-77544770D01*
X110888325Y-77543888D01*
X110889534Y-78395239D01*
G37*
G36*
X105098282Y-78109406D02*
G01*
X104828242Y-78110199D01*
X104962787Y-77704742D01*
X105098282Y-78109406D01*
G37*
G36*
X111149331Y-78655930D02*
G01*
X103539014Y-78655930D01*
X103539014Y-77898390D01*
X103650125Y-77898390D01*
X103651392Y-78036969D01*
X103650214Y-78044893D01*
X103651548Y-78053917D01*
X103651566Y-78055879D01*
X103651988Y-78056900D01*
X103652364Y-78059437D01*
X103699881Y-78244135D01*
X103700407Y-78251532D01*
X103704609Y-78262514D01*
X103704930Y-78263759D01*
X103705252Y-78264194D01*
X103705662Y-78265264D01*
X103754352Y-78359816D01*
X103758002Y-78368628D01*
X103760385Y-78371532D01*
X103761113Y-78372945D01*
X103762611Y-78374244D01*
X103767330Y-78379994D01*
X103855499Y-78466479D01*
X103856351Y-78468183D01*
X103863995Y-78474813D01*
X103873933Y-78484561D01*
X103876423Y-78485592D01*
X103878458Y-78487357D01*
X103891884Y-78493351D01*
X104034465Y-78539500D01*
X104043826Y-78543378D01*
X104047589Y-78543748D01*
X104049077Y-78544230D01*
X104051051Y-78544089D01*
X104058458Y-78544819D01*
X104311185Y-78543378D01*
X104338221Y-78532179D01*
X104358913Y-78511487D01*
X104370112Y-78484451D01*
X104371553Y-78469819D01*
X104371540Y-78460439D01*
X104555476Y-78460439D01*
X104557551Y-78489629D01*
X104570637Y-78515802D01*
X104592744Y-78534976D01*
X104620507Y-78544230D01*
X104649697Y-78542155D01*
X104675870Y-78529069D01*
X104695044Y-78506962D01*
X104701038Y-78493536D01*
X104778883Y-78258946D01*
X105147989Y-78257862D01*
X105231396Y-78506961D01*
X105250570Y-78529068D01*
X105276743Y-78542155D01*
X105305933Y-78544230D01*
X105333695Y-78534976D01*
X105355803Y-78515802D01*
X105368889Y-78489628D01*
X105370964Y-78460438D01*
X105367704Y-78446102D01*
X105152424Y-77803152D01*
X105507268Y-77803152D01*
X105508628Y-78131588D01*
X105507357Y-78140131D01*
X105508701Y-78149223D01*
X105508709Y-78151117D01*
X105509131Y-78152138D01*
X105509507Y-78154675D01*
X105556328Y-78336666D01*
X105556328Y-78341592D01*
X105559672Y-78349667D01*
X105562073Y-78358997D01*
X105565392Y-78363476D01*
X105567526Y-78368628D01*
X105576854Y-78379994D01*
X105672621Y-78473932D01*
X105679141Y-78481450D01*
X105682334Y-78483460D01*
X105683457Y-78484561D01*
X105685289Y-78485319D01*
X105691584Y-78489282D01*
X105777473Y-78530957D01*
X105778695Y-78532179D01*
X105787554Y-78535848D01*
X105800553Y-78542156D01*
X105803242Y-78542347D01*
X105805731Y-78543378D01*
X105820363Y-78544819D01*
X105999450Y-78543560D01*
X106001458Y-78544230D01*
X106012130Y-78543471D01*
X106025471Y-78543378D01*
X106027960Y-78542346D01*
X106030648Y-78542156D01*
X106044380Y-78536901D01*
X106138934Y-78488209D01*
X106147745Y-78484560D01*
X106150647Y-78482177D01*
X106152061Y-78481450D01*
X106153360Y-78479951D01*
X106159110Y-78475233D01*
X106173622Y-78460438D01*
X106507857Y-78460438D01*
X106509931Y-78489628D01*
X106523018Y-78515803D01*
X106545126Y-78534976D01*
X106572887Y-78544230D01*
X106602077Y-78542156D01*
X106615809Y-78536901D01*
X106707193Y-78489841D01*
X106714648Y-78487357D01*
X106718490Y-78484024D01*
X106723490Y-78481450D01*
X106729651Y-78474345D01*
X106736756Y-78468184D01*
X106741417Y-78460778D01*
X106742663Y-78459342D01*
X106743047Y-78458188D01*
X106744588Y-78455741D01*
X106786262Y-78369851D01*
X106787485Y-78368629D01*
X106791156Y-78359764D01*
X106797462Y-78346770D01*
X106797652Y-78344082D01*
X106798684Y-78341593D01*
X106800125Y-78326961D01*
X106798708Y-77469819D01*
X107126316Y-77469819D01*
X107127729Y-78465374D01*
X107126499Y-78475058D01*
X107127750Y-78479645D01*
X107127757Y-78484451D01*
X107131574Y-78493666D01*
X107134199Y-78503290D01*
X107137126Y-78507070D01*
X107138956Y-78511487D01*
X107146006Y-78518537D01*
X107152116Y-78526427D01*
X107156269Y-78528800D01*
X107159648Y-78532179D01*
X107168860Y-78535995D01*
X107177525Y-78540946D01*
X107182268Y-78541548D01*
X107186684Y-78543378D01*
X107196658Y-78543378D01*
X107206555Y-78544636D01*
X107211167Y-78543378D01*
X107215948Y-78543378D01*
X107225163Y-78539560D01*
X107234787Y-78536936D01*
X107238567Y-78534008D01*
X107242984Y-78532179D01*
X107250034Y-78525128D01*
X107257924Y-78519019D01*
X107262276Y-78512886D01*
X107263676Y-78511487D01*
X107264245Y-78510112D01*
X107266434Y-78507029D01*
X107698141Y-77749370D01*
X107699185Y-78484451D01*
X107710384Y-78511487D01*
X107731076Y-78532179D01*
X107758112Y-78543378D01*
X107787376Y-78543378D01*
X107814412Y-78532179D01*
X107835104Y-78511487D01*
X107846303Y-78484451D01*
X107847744Y-78469819D01*
X107846330Y-77474263D01*
X107846538Y-77472623D01*
X108078749Y-77472623D01*
X108080737Y-77487191D01*
X108319399Y-78483466D01*
X108320801Y-78494012D01*
X108322720Y-78497327D01*
X108323622Y-78501091D01*
X108330008Y-78509915D01*
X108335463Y-78519337D01*
X108338520Y-78521677D01*
X108340779Y-78524798D01*
X108350054Y-78530505D01*
X108358701Y-78537124D01*
X108362421Y-78538116D01*
X108365701Y-78540134D01*
X108376455Y-78541858D01*
X108386977Y-78544664D01*
X108390792Y-78544157D01*
X108394596Y-78544767D01*
X108405194Y-78542243D01*
X108415985Y-78540810D01*
X108419316Y-78538881D01*
X108423064Y-78537989D01*
X108431888Y-78531602D01*
X108441310Y-78526148D01*
X108443650Y-78523090D01*
X108446771Y-78520832D01*
X108452478Y-78511556D01*
X108459097Y-78502910D01*
X108461122Y-78497510D01*
X108462107Y-78495910D01*
X108462394Y-78494118D01*
X108464260Y-78489144D01*
X108582087Y-78043870D01*
X108700759Y-78485495D01*
X108702429Y-78495910D01*
X108704432Y-78499166D01*
X108705439Y-78502911D01*
X108712059Y-78511559D01*
X108717765Y-78520832D01*
X108720885Y-78523090D01*
X108723226Y-78526148D01*
X108732647Y-78531602D01*
X108741472Y-78537989D01*
X108745219Y-78538881D01*
X108748551Y-78540810D01*
X108759344Y-78542244D01*
X108769940Y-78544767D01*
X108773741Y-78544157D01*
X108777560Y-78544665D01*
X108788091Y-78541856D01*
X108798835Y-78540134D01*
X108802111Y-78538118D01*
X108805835Y-78537125D01*
X108814485Y-78530503D01*
X108823757Y-78524798D01*
X108826015Y-78521677D01*
X108829073Y-78519337D01*
X108834528Y-78509914D01*
X108840914Y-78501091D01*
X108842791Y-78495642D01*
X108843735Y-78494013D01*
X108843974Y-78492209D01*
X108845704Y-78487191D01*
X109007572Y-77803152D01*
X109269173Y-77803152D01*
X109270533Y-78131588D01*
X109269262Y-78140131D01*
X109270606Y-78149223D01*
X109270614Y-78151117D01*
X109271036Y-78152138D01*
X109271412Y-78154675D01*
X109318233Y-78336666D01*
X109318233Y-78341592D01*
X109321577Y-78349667D01*
X109323978Y-78358997D01*
X109327297Y-78363476D01*
X109329431Y-78368628D01*
X109338759Y-78379994D01*
X109434526Y-78473932D01*
X109441046Y-78481450D01*
X109444239Y-78483460D01*
X109445362Y-78484561D01*
X109447194Y-78485319D01*
X109453489Y-78489282D01*
X109539378Y-78530957D01*
X109540600Y-78532179D01*
X109549459Y-78535848D01*
X109562458Y-78542156D01*
X109565147Y-78542347D01*
X109567636Y-78543378D01*
X109582268Y-78544819D01*
X109761355Y-78543560D01*
X109763363Y-78544230D01*
X109774035Y-78543471D01*
X109787376Y-78543378D01*
X109789865Y-78542346D01*
X109792553Y-78542156D01*
X109806285Y-78536901D01*
X109900839Y-78488209D01*
X109909650Y-78484560D01*
X109912552Y-78482177D01*
X109913966Y-78481450D01*
X109915265Y-78479951D01*
X109921015Y-78475233D01*
X110009610Y-78384909D01*
X110013612Y-78382509D01*
X110018697Y-78375645D01*
X110025581Y-78368628D01*
X110027714Y-78363476D01*
X110031034Y-78358997D01*
X110035981Y-78345151D01*
X110081221Y-78158785D01*
X110084398Y-78151117D01*
X110085295Y-78142002D01*
X110085750Y-78140131D01*
X110085587Y-78139038D01*
X110085839Y-78136485D01*
X110084852Y-77898390D01*
X110316792Y-77898390D01*
X110318059Y-78036969D01*
X110316881Y-78044893D01*
X110318215Y-78053917D01*
X110318233Y-78055879D01*
X110318655Y-78056900D01*
X110319031Y-78059437D01*
X110366548Y-78244135D01*
X110367074Y-78251532D01*
X110371276Y-78262514D01*
X110371597Y-78263759D01*
X110371919Y-78264194D01*
X110372329Y-78265264D01*
X110421019Y-78359816D01*
X110424669Y-78368628D01*
X110427052Y-78371532D01*
X110427780Y-78372945D01*
X110429278Y-78374244D01*
X110433997Y-78379994D01*
X110522166Y-78466479D01*
X110523018Y-78468183D01*
X110530662Y-78474813D01*
X110540600Y-78484561D01*
X110543090Y-78485592D01*
X110545125Y-78487357D01*
X110558551Y-78493351D01*
X110701132Y-78539500D01*
X110710493Y-78543378D01*
X110714256Y-78543748D01*
X110715744Y-78544230D01*
X110717718Y-78544089D01*
X110725125Y-78544819D01*
X110977852Y-78543378D01*
X111004888Y-78532179D01*
X111025580Y-78511487D01*
X111036779Y-78484451D01*
X111038220Y-78469819D01*
X111036779Y-77455187D01*
X111025580Y-77428151D01*
X111004888Y-77407459D01*
X110977852Y-77396260D01*
X110963220Y-77394819D01*
X110726449Y-77396169D01*
X110715744Y-77395408D01*
X110712035Y-77396251D01*
X110710493Y-77396260D01*
X110708662Y-77397018D01*
X110701407Y-77398668D01*
X110569617Y-77443879D01*
X110567637Y-77443879D01*
X110558087Y-77447834D01*
X110545125Y-77452281D01*
X110543090Y-77454045D01*
X110540600Y-77455077D01*
X110529235Y-77464405D01*
X110435303Y-77560167D01*
X110427780Y-77566692D01*
X110425767Y-77569888D01*
X110424670Y-77571008D01*
X110423912Y-77572835D01*
X110419948Y-77579135D01*
X110375681Y-77670366D01*
X110371597Y-77675878D01*
X110367659Y-77686897D01*
X110367074Y-77688105D01*
X110367035Y-77688644D01*
X110366650Y-77689724D01*
X110321409Y-77876089D01*
X110318233Y-77883758D01*
X110317335Y-77892872D01*
X110316881Y-77894744D01*
X110317043Y-77895836D01*
X110316792Y-77898390D01*
X110084852Y-77898390D01*
X110084478Y-77808048D01*
X110085750Y-77799506D01*
X110084405Y-77790413D01*
X110084398Y-77788520D01*
X110083975Y-77787498D01*
X110083600Y-77784962D01*
X110036779Y-77602970D01*
X110036779Y-77598045D01*
X110033433Y-77589968D01*
X110031034Y-77580640D01*
X110027715Y-77576161D01*
X110025581Y-77571008D01*
X110016253Y-77559643D01*
X109920490Y-77465711D01*
X109913966Y-77458188D01*
X109910769Y-77456175D01*
X109909650Y-77455078D01*
X109907822Y-77454320D01*
X109901523Y-77450356D01*
X109815634Y-77408681D01*
X109814412Y-77407459D01*
X109805546Y-77403786D01*
X109792553Y-77397482D01*
X109789865Y-77397291D01*
X109787376Y-77396260D01*
X109772744Y-77394819D01*
X109593655Y-77396077D01*
X109591648Y-77395408D01*
X109580975Y-77396166D01*
X109567636Y-77396260D01*
X109565147Y-77397290D01*
X109562458Y-77397482D01*
X109548727Y-77402737D01*
X109454177Y-77451425D01*
X109445362Y-77455077D01*
X109442456Y-77457461D01*
X109441046Y-77458188D01*
X109439747Y-77459684D01*
X109433997Y-77464405D01*
X109345401Y-77554726D01*
X109341400Y-77557128D01*
X109336313Y-77563991D01*
X109329432Y-77571008D01*
X109327298Y-77576158D01*
X109323978Y-77580640D01*
X109319031Y-77594486D01*
X109273790Y-77780851D01*
X109270614Y-77788520D01*
X109269716Y-77797634D01*
X109269262Y-77799506D01*
X109269424Y-77800598D01*
X109269173Y-77803152D01*
X109007572Y-77803152D01*
X109085787Y-77472623D01*
X109081154Y-77443728D01*
X109065818Y-77418806D01*
X109042111Y-77401649D01*
X109013643Y-77394871D01*
X108984748Y-77399504D01*
X108959826Y-77414840D01*
X108942669Y-77438547D01*
X108937879Y-77452447D01*
X108768903Y-78166520D01*
X108654525Y-77740872D01*
X108653259Y-77731339D01*
X108650841Y-77727164D01*
X108649573Y-77722442D01*
X108643558Y-77714583D01*
X108638597Y-77706015D01*
X108634738Y-77703061D01*
X108631786Y-77699204D01*
X108623221Y-77694245D01*
X108615359Y-77688227D01*
X108610662Y-77686974D01*
X108606461Y-77684542D01*
X108596654Y-77683239D01*
X108587084Y-77680687D01*
X108582265Y-77681327D01*
X108577453Y-77680688D01*
X108567892Y-77683237D01*
X108558075Y-77684542D01*
X108553869Y-77686976D01*
X108549177Y-77688228D01*
X108541317Y-77694243D01*
X108532750Y-77699204D01*
X108529796Y-77703062D01*
X108525939Y-77706015D01*
X108520980Y-77714580D01*
X108514963Y-77722441D01*
X108512266Y-77729630D01*
X108511277Y-77731340D01*
X108511085Y-77732779D01*
X108509800Y-77736208D01*
X108396102Y-78165875D01*
X108221867Y-77438547D01*
X108204710Y-77414840D01*
X108179788Y-77399504D01*
X108150893Y-77394871D01*
X108122425Y-77401649D01*
X108098718Y-77418806D01*
X108083382Y-77443728D01*
X108078749Y-77472623D01*
X107846538Y-77472623D01*
X107847561Y-77464580D01*
X107846309Y-77459992D01*
X107846303Y-77455187D01*
X107842485Y-77445971D01*
X107839861Y-77436348D01*
X107836933Y-77432567D01*
X107835104Y-77428151D01*
X107828053Y-77421100D01*
X107821944Y-77413211D01*
X107817790Y-77410837D01*
X107814412Y-77407459D01*
X107805199Y-77403642D01*
X107796535Y-77398692D01*
X107791791Y-77398089D01*
X107787376Y-77396260D01*
X107777402Y-77396260D01*
X107767505Y-77395002D01*
X107762893Y-77396260D01*
X107758112Y-77396260D01*
X107748895Y-77400077D01*
X107739274Y-77402702D01*
X107735494Y-77405628D01*
X107731076Y-77407459D01*
X107724024Y-77414510D01*
X107716136Y-77420619D01*
X107711781Y-77426753D01*
X107710384Y-77428151D01*
X107709815Y-77429523D01*
X107707626Y-77432608D01*
X107275918Y-78190267D01*
X107274875Y-77455187D01*
X107263676Y-77428151D01*
X107242984Y-77407459D01*
X107215948Y-77396260D01*
X107186684Y-77396260D01*
X107159648Y-77407459D01*
X107138956Y-77428151D01*
X107127757Y-77455187D01*
X107126316Y-77469819D01*
X106798708Y-77469819D01*
X106798684Y-77455187D01*
X106787485Y-77428151D01*
X106766793Y-77407459D01*
X106739757Y-77396260D01*
X106710493Y-77396260D01*
X106683457Y-77407459D01*
X106662765Y-77428151D01*
X106651566Y-77455187D01*
X106650125Y-77469819D01*
X106651508Y-78306887D01*
X106622824Y-78366004D01*
X106536284Y-78410569D01*
X106517111Y-78432677D01*
X106507857Y-78460438D01*
X106173622Y-78460438D01*
X106247705Y-78384909D01*
X106251707Y-78382509D01*
X106256792Y-78375645D01*
X106263676Y-78368628D01*
X106265809Y-78363476D01*
X106269129Y-78358997D01*
X106274076Y-78345151D01*
X106319316Y-78158785D01*
X106322493Y-78151117D01*
X106323390Y-78142002D01*
X106323845Y-78140131D01*
X106323682Y-78139038D01*
X106323934Y-78136485D01*
X106322573Y-77808048D01*
X106323845Y-77799506D01*
X106322500Y-77790413D01*
X106322493Y-77788520D01*
X106322070Y-77787498D01*
X106321695Y-77784962D01*
X106274874Y-77602970D01*
X106274874Y-77598045D01*
X106271528Y-77589968D01*
X106269129Y-77580640D01*
X106265810Y-77576161D01*
X106263676Y-77571008D01*
X106254348Y-77559643D01*
X106158585Y-77465711D01*
X106152061Y-77458188D01*
X106148864Y-77456175D01*
X106147745Y-77455078D01*
X106145917Y-77454320D01*
X106139618Y-77450356D01*
X106053729Y-77408681D01*
X106052507Y-77407459D01*
X106043641Y-77403786D01*
X106030648Y-77397482D01*
X106027960Y-77397291D01*
X106025471Y-77396260D01*
X106010839Y-77394819D01*
X105831750Y-77396077D01*
X105829743Y-77395408D01*
X105819070Y-77396166D01*
X105805731Y-77396260D01*
X105803242Y-77397290D01*
X105800553Y-77397482D01*
X105786822Y-77402737D01*
X105692272Y-77451425D01*
X105683457Y-77455077D01*
X105680551Y-77457461D01*
X105679141Y-77458188D01*
X105677842Y-77459684D01*
X105672092Y-77464405D01*
X105583496Y-77554726D01*
X105579495Y-77557128D01*
X105574408Y-77563991D01*
X105567527Y-77571008D01*
X105565393Y-77576158D01*
X105562073Y-77580640D01*
X105557126Y-77594486D01*
X105511885Y-77780851D01*
X105508709Y-77788520D01*
X105507811Y-77797634D01*
X105507357Y-77799506D01*
X105507519Y-77800598D01*
X105507268Y-77803152D01*
X105152424Y-77803152D01*
X105035926Y-77455223D01*
X105035556Y-77450010D01*
X105031392Y-77441683D01*
X105028377Y-77432676D01*
X105024865Y-77428627D01*
X105022470Y-77423836D01*
X105015366Y-77417674D01*
X105009203Y-77410569D01*
X105004409Y-77408172D01*
X105000362Y-77404662D01*
X104991440Y-77401688D01*
X104983030Y-77397483D01*
X104977685Y-77397103D01*
X104972600Y-77395408D01*
X104963220Y-77396074D01*
X104953840Y-77395408D01*
X104948754Y-77397103D01*
X104943410Y-77397483D01*
X104935002Y-77401687D01*
X104926077Y-77404662D01*
X104922026Y-77408175D01*
X104917237Y-77410570D01*
X104911078Y-77417670D01*
X104903970Y-77423836D01*
X104901573Y-77428629D01*
X104898063Y-77432677D01*
X104892069Y-77446102D01*
X104653894Y-78163850D01*
X104651566Y-78169472D01*
X104651566Y-78170867D01*
X104555476Y-78460439D01*
X104371540Y-78460439D01*
X104370112Y-77455187D01*
X104358913Y-77428151D01*
X104338221Y-77407459D01*
X104311185Y-77396260D01*
X104296553Y-77394819D01*
X104059782Y-77396169D01*
X104049077Y-77395408D01*
X104045368Y-77396251D01*
X104043826Y-77396260D01*
X104041995Y-77397018D01*
X104034740Y-77398668D01*
X103902950Y-77443879D01*
X103900970Y-77443879D01*
X103891420Y-77447834D01*
X103878458Y-77452281D01*
X103876423Y-77454045D01*
X103873933Y-77455077D01*
X103862568Y-77464405D01*
X103768636Y-77560167D01*
X103761113Y-77566692D01*
X103759100Y-77569888D01*
X103758003Y-77571008D01*
X103757245Y-77572835D01*
X103753281Y-77579135D01*
X103709014Y-77670366D01*
X103704930Y-77675878D01*
X103700992Y-77686897D01*
X103700407Y-77688105D01*
X103700368Y-77688644D01*
X103699983Y-77689724D01*
X103654742Y-77876089D01*
X103651566Y-77883758D01*
X103650668Y-77892872D01*
X103650214Y-77894744D01*
X103650376Y-77895836D01*
X103650125Y-77898390D01*
X103539014Y-77898390D01*
X103539014Y-77283708D01*
X111149331Y-77283708D01*
X111149331Y-78655930D01*
G37*
X118363220Y-78369819D02*
X118363220Y-77369819D01*
X118363220Y-77369819D02*
X118125125Y-77369819D01*
X118125125Y-77369819D02*
X117982268Y-77417438D01*
X117982268Y-77417438D02*
X117887030Y-77512676D01*
X117887030Y-77512676D02*
X117839411Y-77607914D01*
X117839411Y-77607914D02*
X117791792Y-77798390D01*
X117791792Y-77798390D02*
X117791792Y-77941247D01*
X117791792Y-77941247D02*
X117839411Y-78131723D01*
X117839411Y-78131723D02*
X117887030Y-78226961D01*
X117887030Y-78226961D02*
X117982268Y-78322200D01*
X117982268Y-78322200D02*
X118125125Y-78369819D01*
X118125125Y-78369819D02*
X118363220Y-78369819D01*
X116839411Y-77417438D02*
X116934649Y-77369819D01*
X116934649Y-77369819D02*
X117077506Y-77369819D01*
X117077506Y-77369819D02*
X117220363Y-77417438D01*
X117220363Y-77417438D02*
X117315601Y-77512676D01*
X117315601Y-77512676D02*
X117363220Y-77607914D01*
X117363220Y-77607914D02*
X117410839Y-77798390D01*
X117410839Y-77798390D02*
X117410839Y-77941247D01*
X117410839Y-77941247D02*
X117363220Y-78131723D01*
X117363220Y-78131723D02*
X117315601Y-78226961D01*
X117315601Y-78226961D02*
X117220363Y-78322200D01*
X117220363Y-78322200D02*
X117077506Y-78369819D01*
X117077506Y-78369819D02*
X116982268Y-78369819D01*
X116982268Y-78369819D02*
X116839411Y-78322200D01*
X116839411Y-78322200D02*
X116791792Y-78274580D01*
X116791792Y-78274580D02*
X116791792Y-77941247D01*
X116791792Y-77941247D02*
X116982268Y-77941247D01*
X116363220Y-78369819D02*
X116363220Y-77369819D01*
X116363220Y-77369819D02*
X115791792Y-78369819D01*
X115791792Y-78369819D02*
X115791792Y-77369819D01*
X115315601Y-78369819D02*
X115315601Y-77369819D01*
X115315601Y-77369819D02*
X115077506Y-77369819D01*
X115077506Y-77369819D02*
X114934649Y-77417438D01*
X114934649Y-77417438D02*
X114839411Y-77512676D01*
X114839411Y-77512676D02*
X114791792Y-77607914D01*
X114791792Y-77607914D02*
X114744173Y-77798390D01*
X114744173Y-77798390D02*
X114744173Y-77941247D01*
X114744173Y-77941247D02*
X114791792Y-78131723D01*
X114791792Y-78131723D02*
X114839411Y-78226961D01*
X114839411Y-78226961D02*
X114934649Y-78322200D01*
X114934649Y-78322200D02*
X115077506Y-78369819D01*
X115077506Y-78369819D02*
X115315601Y-78369819D01*
G36*
X72454643Y-74705453D02*
G01*
X72483514Y-74761517D01*
X72483819Y-74845339D01*
X72156475Y-74780850D01*
X72156271Y-74765284D01*
X72184569Y-74706966D01*
X72240736Y-74678042D01*
X72395905Y-74676952D01*
X72454643Y-74705453D01*
G37*
G36*
X74369197Y-74710204D02*
G01*
X74400524Y-74740448D01*
X74435913Y-74809171D01*
X74437114Y-75059490D01*
X74403787Y-75128175D01*
X74373541Y-75159504D01*
X74304685Y-75194962D01*
X74197053Y-75195947D01*
X74128672Y-75162767D01*
X74097345Y-75132521D01*
X74061955Y-75063798D01*
X74060754Y-74813479D01*
X74094082Y-74744793D01*
X74124326Y-74713466D01*
X74193183Y-74678008D01*
X74300815Y-74677023D01*
X74369197Y-74710204D01*
G37*
G36*
X75388857Y-74718898D02*
G01*
X75102200Y-74719943D01*
X75033434Y-74686576D01*
X75002106Y-74656331D01*
X74966648Y-74587474D01*
X74965663Y-74479842D01*
X74998844Y-74411460D01*
X75029088Y-74380133D01*
X75097776Y-74344762D01*
X75388324Y-74343704D01*
X75388857Y-74718898D01*
G37*
G36*
X75649331Y-75455930D02*
G01*
X71183312Y-75455930D01*
X71183312Y-74588520D01*
X71294423Y-74588520D01*
X71294423Y-74617784D01*
X71305622Y-74644820D01*
X71326314Y-74665512D01*
X71353350Y-74676711D01*
X71367982Y-74678152D01*
X71443944Y-74677155D01*
X71512054Y-74710204D01*
X71543381Y-74740448D01*
X71579133Y-74809875D01*
X71580137Y-75284451D01*
X71591336Y-75311487D01*
X71612028Y-75332179D01*
X71639064Y-75343378D01*
X71668328Y-75343378D01*
X71695364Y-75332179D01*
X71716056Y-75311487D01*
X71727255Y-75284451D01*
X71728696Y-75269819D01*
X71727711Y-74804195D01*
X71728107Y-74803008D01*
X71727696Y-74797229D01*
X71727588Y-74746009D01*
X72007268Y-74746009D01*
X72008439Y-74835312D01*
X72007268Y-74841169D01*
X72008604Y-74847925D01*
X72008709Y-74855879D01*
X72011520Y-74862667D01*
X72012947Y-74869876D01*
X72017066Y-74876055D01*
X72019908Y-74882915D01*
X72025103Y-74888110D01*
X72029179Y-74894224D01*
X72035349Y-74898356D01*
X72040600Y-74903607D01*
X72047388Y-74906418D01*
X72053494Y-74910508D01*
X72067559Y-74914791D01*
X72484371Y-74996905D01*
X72484773Y-75107028D01*
X72456157Y-75166004D01*
X72399989Y-75194928D01*
X72244820Y-75196018D01*
X72149696Y-75149863D01*
X72120506Y-75147789D01*
X72092745Y-75157043D01*
X72070637Y-75176216D01*
X72057550Y-75202391D01*
X72055476Y-75231581D01*
X72064730Y-75259342D01*
X72083903Y-75281450D01*
X72096346Y-75289282D01*
X72182235Y-75330957D01*
X72183457Y-75332179D01*
X72192316Y-75335848D01*
X72205315Y-75342156D01*
X72208004Y-75342347D01*
X72210493Y-75343378D01*
X72225125Y-75344819D01*
X72404212Y-75343560D01*
X72406220Y-75344230D01*
X72416892Y-75343471D01*
X72430233Y-75343378D01*
X72432722Y-75342346D01*
X72435410Y-75342156D01*
X72449142Y-75336901D01*
X72540526Y-75289841D01*
X72547981Y-75287357D01*
X72551823Y-75284024D01*
X72556823Y-75281450D01*
X72562984Y-75274345D01*
X72570089Y-75268184D01*
X72574750Y-75260778D01*
X72575996Y-75259342D01*
X72576380Y-75258188D01*
X72577921Y-75255741D01*
X72619595Y-75169851D01*
X72620818Y-75168629D01*
X72624489Y-75159764D01*
X72630795Y-75146770D01*
X72630985Y-75144082D01*
X72632017Y-75141593D01*
X72633458Y-75126961D01*
X72632776Y-74939968D01*
X72633458Y-74936563D01*
X72632751Y-74932991D01*
X72632112Y-74757657D01*
X72632869Y-74755389D01*
X72632063Y-74744047D01*
X72632017Y-74731377D01*
X72630986Y-74728888D01*
X72630795Y-74726199D01*
X72625540Y-74712468D01*
X72578480Y-74621083D01*
X72575996Y-74613629D01*
X72572663Y-74609786D01*
X72572408Y-74609291D01*
X72817044Y-74609291D01*
X72819678Y-74623756D01*
X73008836Y-75280748D01*
X73008893Y-75285347D01*
X73012756Y-75294361D01*
X73015559Y-75304096D01*
X73018534Y-75307843D01*
X73020420Y-75312244D01*
X73027557Y-75319209D01*
X73033754Y-75327015D01*
X73037935Y-75329338D01*
X73041363Y-75332683D01*
X73050622Y-75336386D01*
X73059335Y-75341227D01*
X73064089Y-75341773D01*
X73068534Y-75343551D01*
X73078504Y-75343429D01*
X73088407Y-75344567D01*
X73093008Y-75343252D01*
X73097796Y-75343194D01*
X73106961Y-75339265D01*
X73116545Y-75336528D01*
X73120292Y-75333552D01*
X73124693Y-75331667D01*
X73131658Y-75324529D01*
X73139464Y-75318333D01*
X73141787Y-75314151D01*
X73145132Y-75310724D01*
X73151904Y-75297673D01*
X73272536Y-74993686D01*
X73391294Y-75288247D01*
X73391812Y-75292752D01*
X73396546Y-75301273D01*
X73400356Y-75310723D01*
X73403699Y-75314148D01*
X73406024Y-75318333D01*
X73413833Y-75324532D01*
X73420795Y-75331666D01*
X73425193Y-75333551D01*
X73428943Y-75336528D01*
X73438528Y-75339266D01*
X73447692Y-75343194D01*
X73452479Y-75343252D01*
X73457081Y-75344567D01*
X73466983Y-75343429D01*
X73476954Y-75343551D01*
X73481397Y-75341773D01*
X73486153Y-75341227D01*
X73494871Y-75336383D01*
X73504124Y-75332682D01*
X73507548Y-75329340D01*
X73511734Y-75327015D01*
X73517932Y-75319206D01*
X73525068Y-75312244D01*
X73526953Y-75307843D01*
X73529929Y-75304096D01*
X73535334Y-75290423D01*
X73676182Y-74793628D01*
X73912030Y-74793628D01*
X73913345Y-75067782D01*
X73912619Y-75069961D01*
X73913409Y-75081081D01*
X73913471Y-75093974D01*
X73914502Y-75096463D01*
X73914693Y-75099151D01*
X73919948Y-75112883D01*
X73968638Y-75207435D01*
X73972288Y-75216247D01*
X73974671Y-75219151D01*
X73975399Y-75220564D01*
X73976897Y-75221863D01*
X73981615Y-75227612D01*
X74030650Y-75274953D01*
X74036284Y-75281450D01*
X74039429Y-75283429D01*
X74040600Y-75284560D01*
X74042427Y-75285317D01*
X74048727Y-75289282D01*
X74134616Y-75330957D01*
X74135838Y-75332179D01*
X74144697Y-75335848D01*
X74157696Y-75342156D01*
X74160385Y-75342347D01*
X74162874Y-75343378D01*
X74177506Y-75344819D01*
X74309135Y-75343614D01*
X74310982Y-75344230D01*
X74321196Y-75343504D01*
X74334995Y-75343378D01*
X74337484Y-75342346D01*
X74340172Y-75342156D01*
X74353904Y-75336901D01*
X74448458Y-75288209D01*
X74457269Y-75284560D01*
X74460171Y-75282177D01*
X74461585Y-75281450D01*
X74462885Y-75279950D01*
X74468635Y-75275232D01*
X74515976Y-75226195D01*
X74522470Y-75220564D01*
X74524449Y-75217418D01*
X74525581Y-75216247D01*
X74526338Y-75214417D01*
X74530302Y-75208121D01*
X74571977Y-75122231D01*
X74573199Y-75121010D01*
X74576868Y-75112150D01*
X74583176Y-75099152D01*
X74583367Y-75096462D01*
X74584398Y-75093974D01*
X74585839Y-75079342D01*
X74584523Y-74805187D01*
X74585250Y-74803008D01*
X74584459Y-74791887D01*
X74584398Y-74778996D01*
X74583367Y-74776507D01*
X74583176Y-74773818D01*
X74577921Y-74760087D01*
X74529229Y-74665532D01*
X74525580Y-74656722D01*
X74523197Y-74653819D01*
X74522470Y-74652406D01*
X74520971Y-74651106D01*
X74516253Y-74645357D01*
X74467217Y-74598015D01*
X74461585Y-74591521D01*
X74458439Y-74589541D01*
X74457269Y-74588411D01*
X74455441Y-74587653D01*
X74449142Y-74583689D01*
X74363253Y-74542014D01*
X74362031Y-74540792D01*
X74353165Y-74537119D01*
X74340172Y-74530815D01*
X74337484Y-74530624D01*
X74334995Y-74529593D01*
X74320363Y-74528152D01*
X74188732Y-74529356D01*
X74186886Y-74528741D01*
X74176671Y-74529466D01*
X74162874Y-74529593D01*
X74160385Y-74530623D01*
X74157696Y-74530815D01*
X74143965Y-74536070D01*
X74049410Y-74584761D01*
X74040600Y-74588411D01*
X74037697Y-74590793D01*
X74036284Y-74591521D01*
X74034984Y-74593019D01*
X74029235Y-74597738D01*
X73981893Y-74646773D01*
X73975399Y-74652406D01*
X73973419Y-74655551D01*
X73972289Y-74656722D01*
X73971531Y-74658549D01*
X73967567Y-74664849D01*
X73925892Y-74750737D01*
X73924670Y-74751960D01*
X73920997Y-74760825D01*
X73914693Y-74773819D01*
X73914502Y-74776506D01*
X73913471Y-74778996D01*
X73912030Y-74793628D01*
X73676182Y-74793628D01*
X73728444Y-74609291D01*
X73725104Y-74580219D01*
X73710892Y-74554638D01*
X73687973Y-74536443D01*
X73659835Y-74528404D01*
X73630763Y-74531744D01*
X73605182Y-74545956D01*
X73586987Y-74568875D01*
X73581582Y-74582548D01*
X73451698Y-75040667D01*
X73346127Y-74778815D01*
X73346119Y-74778100D01*
X73341397Y-74767082D01*
X73335608Y-74752723D01*
X73334957Y-74752056D01*
X73334592Y-74751203D01*
X73324781Y-74741629D01*
X73315169Y-74731780D01*
X73314311Y-74731412D01*
X73313648Y-74730765D01*
X73300916Y-74725671D01*
X73288272Y-74720253D01*
X73287342Y-74720241D01*
X73286478Y-74719896D01*
X73272744Y-74720063D01*
X73259010Y-74719896D01*
X73258145Y-74720241D01*
X73257216Y-74720253D01*
X73244614Y-74725654D01*
X73231839Y-74730764D01*
X73231171Y-74731415D01*
X73230319Y-74731781D01*
X73220746Y-74741589D01*
X73210896Y-74751203D01*
X73210529Y-74752058D01*
X73209880Y-74752724D01*
X73203108Y-74765774D01*
X73094204Y-75040204D01*
X72958501Y-74568875D01*
X72940306Y-74545956D01*
X72914725Y-74531744D01*
X72885653Y-74528404D01*
X72857515Y-74536443D01*
X72834596Y-74554638D01*
X72820384Y-74580219D01*
X72817044Y-74609291D01*
X72572408Y-74609291D01*
X72570089Y-74604787D01*
X72562984Y-74598625D01*
X72556823Y-74591521D01*
X72549417Y-74586859D01*
X72547981Y-74585614D01*
X72546827Y-74585229D01*
X72544380Y-74583689D01*
X72458491Y-74542014D01*
X72457269Y-74540792D01*
X72448403Y-74537119D01*
X72435410Y-74530815D01*
X72432722Y-74530624D01*
X72430233Y-74529593D01*
X72415601Y-74528152D01*
X72236512Y-74529410D01*
X72234505Y-74528741D01*
X72223832Y-74529499D01*
X72210493Y-74529593D01*
X72208004Y-74530623D01*
X72205315Y-74530815D01*
X72191584Y-74536070D01*
X72100199Y-74583129D01*
X72092745Y-74585614D01*
X72088902Y-74588946D01*
X72083903Y-74591521D01*
X72077741Y-74598625D01*
X72070637Y-74604787D01*
X72065975Y-74612192D01*
X72064730Y-74613629D01*
X72064345Y-74614782D01*
X72062805Y-74617230D01*
X72021130Y-74703118D01*
X72019908Y-74704341D01*
X72016235Y-74713206D01*
X72009931Y-74726200D01*
X72009740Y-74728887D01*
X72008709Y-74731377D01*
X72007268Y-74746009D01*
X71727588Y-74746009D01*
X71727255Y-74588520D01*
X71716056Y-74561484D01*
X71695364Y-74540792D01*
X71668328Y-74529593D01*
X71639064Y-74529593D01*
X71612028Y-74540792D01*
X71591336Y-74561484D01*
X71583788Y-74579705D01*
X71506110Y-74542014D01*
X71504888Y-74540792D01*
X71496022Y-74537119D01*
X71483029Y-74530815D01*
X71480341Y-74530624D01*
X71477852Y-74529593D01*
X71463220Y-74528152D01*
X71353350Y-74529593D01*
X71326314Y-74540792D01*
X71305622Y-74561484D01*
X71294423Y-74588520D01*
X71183312Y-74588520D01*
X71183312Y-74460295D01*
X74816792Y-74460295D01*
X74817996Y-74591924D01*
X74817381Y-74593771D01*
X74818106Y-74603985D01*
X74818233Y-74617784D01*
X74819264Y-74620273D01*
X74819455Y-74622961D01*
X74824710Y-74636693D01*
X74873402Y-74731249D01*
X74877051Y-74740058D01*
X74879433Y-74742960D01*
X74880161Y-74744374D01*
X74881659Y-74745673D01*
X74886378Y-74751423D01*
X74935413Y-74798764D01*
X74941046Y-74805259D01*
X74944191Y-74807238D01*
X74945362Y-74808369D01*
X74947189Y-74809126D01*
X74953489Y-74813091D01*
X75039378Y-74854766D01*
X75040600Y-74855988D01*
X75049459Y-74859657D01*
X75062458Y-74865965D01*
X75065147Y-74866156D01*
X75067636Y-74867187D01*
X75082268Y-74868628D01*
X75389068Y-74867510D01*
X75389661Y-75284451D01*
X75400860Y-75311487D01*
X75421552Y-75332179D01*
X75448588Y-75343378D01*
X75477852Y-75343378D01*
X75504888Y-75332179D01*
X75525580Y-75311487D01*
X75536779Y-75284451D01*
X75538220Y-75269819D01*
X75536779Y-74255187D01*
X75525580Y-74228151D01*
X75504888Y-74207459D01*
X75477852Y-74196260D01*
X75463220Y-74194819D01*
X75093916Y-74196164D01*
X75091648Y-74195408D01*
X75080306Y-74196213D01*
X75067636Y-74196260D01*
X75065147Y-74197290D01*
X75062458Y-74197482D01*
X75048727Y-74202737D01*
X74954172Y-74251428D01*
X74945362Y-74255078D01*
X74942459Y-74257460D01*
X74941046Y-74258188D01*
X74939746Y-74259686D01*
X74933997Y-74264405D01*
X74886655Y-74313440D01*
X74880161Y-74319073D01*
X74878181Y-74322218D01*
X74877051Y-74323389D01*
X74876293Y-74325216D01*
X74872329Y-74331516D01*
X74830654Y-74417404D01*
X74829432Y-74418627D01*
X74825759Y-74427492D01*
X74819455Y-74440486D01*
X74819264Y-74443173D01*
X74818233Y-74445663D01*
X74816792Y-74460295D01*
X71183312Y-74460295D01*
X71183312Y-74083708D01*
X75649331Y-74083708D01*
X75649331Y-75455930D01*
G37*
X116939411Y-74517438D02*
X117034649Y-74469819D01*
X117034649Y-74469819D02*
X117177506Y-74469819D01*
X117177506Y-74469819D02*
X117320363Y-74517438D01*
X117320363Y-74517438D02*
X117415601Y-74612676D01*
X117415601Y-74612676D02*
X117463220Y-74707914D01*
X117463220Y-74707914D02*
X117510839Y-74898390D01*
X117510839Y-74898390D02*
X117510839Y-75041247D01*
X117510839Y-75041247D02*
X117463220Y-75231723D01*
X117463220Y-75231723D02*
X117415601Y-75326961D01*
X117415601Y-75326961D02*
X117320363Y-75422200D01*
X117320363Y-75422200D02*
X117177506Y-75469819D01*
X117177506Y-75469819D02*
X117082268Y-75469819D01*
X117082268Y-75469819D02*
X116939411Y-75422200D01*
X116939411Y-75422200D02*
X116891792Y-75374580D01*
X116891792Y-75374580D02*
X116891792Y-75041247D01*
X116891792Y-75041247D02*
X117082268Y-75041247D01*
X116463220Y-75469819D02*
X116463220Y-74469819D01*
X116463220Y-74469819D02*
X115891792Y-75469819D01*
X115891792Y-75469819D02*
X115891792Y-74469819D01*
X115415601Y-75469819D02*
X115415601Y-74469819D01*
X115415601Y-74469819D02*
X115177506Y-74469819D01*
X115177506Y-74469819D02*
X115034649Y-74517438D01*
X115034649Y-74517438D02*
X114939411Y-74612676D01*
X114939411Y-74612676D02*
X114891792Y-74707914D01*
X114891792Y-74707914D02*
X114844173Y-74898390D01*
X114844173Y-74898390D02*
X114844173Y-75041247D01*
X114844173Y-75041247D02*
X114891792Y-75231723D01*
X114891792Y-75231723D02*
X114939411Y-75326961D01*
X114939411Y-75326961D02*
X115034649Y-75422200D01*
X115034649Y-75422200D02*
X115177506Y-75469819D01*
X115177506Y-75469819D02*
X115415601Y-75469819D01*
X114415601Y-75469819D02*
X114415601Y-74469819D01*
X114415601Y-74469819D02*
X114034649Y-74469819D01*
X114034649Y-74469819D02*
X113939411Y-74517438D01*
X113939411Y-74517438D02*
X113891792Y-74565057D01*
X113891792Y-74565057D02*
X113844173Y-74660295D01*
X113844173Y-74660295D02*
X113844173Y-74803152D01*
X113844173Y-74803152D02*
X113891792Y-74898390D01*
X113891792Y-74898390D02*
X113939411Y-74946009D01*
X113939411Y-74946009D02*
X114034649Y-74993628D01*
X114034649Y-74993628D02*
X114415601Y-74993628D01*
X133079887Y-84846009D02*
X132937030Y-84893628D01*
X132937030Y-84893628D02*
X132889411Y-84941247D01*
X132889411Y-84941247D02*
X132841792Y-85036485D01*
X132841792Y-85036485D02*
X132841792Y-85179342D01*
X132841792Y-85179342D02*
X132889411Y-85274580D01*
X132889411Y-85274580D02*
X132937030Y-85322200D01*
X132937030Y-85322200D02*
X133032268Y-85369819D01*
X133032268Y-85369819D02*
X133413220Y-85369819D01*
X133413220Y-85369819D02*
X133413220Y-84369819D01*
X133413220Y-84369819D02*
X133079887Y-84369819D01*
X133079887Y-84369819D02*
X132984649Y-84417438D01*
X132984649Y-84417438D02*
X132937030Y-84465057D01*
X132937030Y-84465057D02*
X132889411Y-84560295D01*
X132889411Y-84560295D02*
X132889411Y-84655533D01*
X132889411Y-84655533D02*
X132937030Y-84750771D01*
X132937030Y-84750771D02*
X132984649Y-84798390D01*
X132984649Y-84798390D02*
X133079887Y-84846009D01*
X133079887Y-84846009D02*
X133413220Y-84846009D01*
X132460839Y-85084104D02*
X131984649Y-85084104D01*
X132556077Y-85369819D02*
X132222744Y-84369819D01*
X132222744Y-84369819D02*
X131889411Y-85369819D01*
X131698934Y-84369819D02*
X131127506Y-84369819D01*
X131413220Y-85369819D02*
X131413220Y-84369819D01*
D11*
X79822266Y-92926441D02*
X79822266Y-91402632D01*
X79060361Y-92164536D02*
X80584171Y-92164536D01*
D10*
X108006077Y-85169819D02*
X107434649Y-85169819D01*
X107720363Y-86169819D02*
X107720363Y-85169819D01*
X107006077Y-85169819D02*
X106672744Y-86169819D01*
X106672744Y-86169819D02*
X106339411Y-85169819D01*
X109439411Y-85217438D02*
X109534649Y-85169819D01*
X109534649Y-85169819D02*
X109677506Y-85169819D01*
X109677506Y-85169819D02*
X109820363Y-85217438D01*
X109820363Y-85217438D02*
X109915601Y-85312676D01*
X109915601Y-85312676D02*
X109963220Y-85407914D01*
X109963220Y-85407914D02*
X110010839Y-85598390D01*
X110010839Y-85598390D02*
X110010839Y-85741247D01*
X110010839Y-85741247D02*
X109963220Y-85931723D01*
X109963220Y-85931723D02*
X109915601Y-86026961D01*
X109915601Y-86026961D02*
X109820363Y-86122200D01*
X109820363Y-86122200D02*
X109677506Y-86169819D01*
X109677506Y-86169819D02*
X109582268Y-86169819D01*
X109582268Y-86169819D02*
X109439411Y-86122200D01*
X109439411Y-86122200D02*
X109391792Y-86074580D01*
X109391792Y-86074580D02*
X109391792Y-85741247D01*
X109391792Y-85741247D02*
X109582268Y-85741247D01*
X148663220Y-72469819D02*
X148663220Y-71469819D01*
X148663220Y-71469819D02*
X148329887Y-72184104D01*
X148329887Y-72184104D02*
X147996554Y-71469819D01*
X147996554Y-71469819D02*
X147996554Y-72469819D01*
X147567982Y-71565057D02*
X147520363Y-71517438D01*
X147520363Y-71517438D02*
X147425125Y-71469819D01*
X147425125Y-71469819D02*
X147187030Y-71469819D01*
X147187030Y-71469819D02*
X147091792Y-71517438D01*
X147091792Y-71517438D02*
X147044173Y-71565057D01*
X147044173Y-71565057D02*
X146996554Y-71660295D01*
X146996554Y-71660295D02*
X146996554Y-71755533D01*
X146996554Y-71755533D02*
X147044173Y-71898390D01*
X147044173Y-71898390D02*
X147615601Y-72469819D01*
X147615601Y-72469819D02*
X146996554Y-72469819D01*
D12*
X123916758Y-76812782D02*
X123964377Y-76788972D01*
X123964377Y-76788972D02*
X124035806Y-76788972D01*
X124035806Y-76788972D02*
X124107234Y-76812782D01*
X124107234Y-76812782D02*
X124154853Y-76860401D01*
X124154853Y-76860401D02*
X124178663Y-76908020D01*
X124178663Y-76908020D02*
X124202472Y-77003258D01*
X124202472Y-77003258D02*
X124202472Y-77074686D01*
X124202472Y-77074686D02*
X124178663Y-77169924D01*
X124178663Y-77169924D02*
X124154853Y-77217543D01*
X124154853Y-77217543D02*
X124107234Y-77265163D01*
X124107234Y-77265163D02*
X124035806Y-77288972D01*
X124035806Y-77288972D02*
X123988187Y-77288972D01*
X123988187Y-77288972D02*
X123916758Y-77265163D01*
X123916758Y-77265163D02*
X123892949Y-77241353D01*
X123892949Y-77241353D02*
X123892949Y-77074686D01*
X123892949Y-77074686D02*
X123988187Y-77074686D01*
X123678663Y-77288972D02*
X123678663Y-76788972D01*
X123678663Y-76788972D02*
X123392949Y-77288972D01*
X123392949Y-77288972D02*
X123392949Y-76788972D01*
X123154853Y-77288972D02*
X123154853Y-76788972D01*
X123154853Y-76788972D02*
X123035805Y-76788972D01*
X123035805Y-76788972D02*
X122964377Y-76812782D01*
X122964377Y-76812782D02*
X122916758Y-76860401D01*
X122916758Y-76860401D02*
X122892948Y-76908020D01*
X122892948Y-76908020D02*
X122869139Y-77003258D01*
X122869139Y-77003258D02*
X122869139Y-77074686D01*
X122869139Y-77074686D02*
X122892948Y-77169924D01*
X122892948Y-77169924D02*
X122916758Y-77217543D01*
X122916758Y-77217543D02*
X122964377Y-77265163D01*
X122964377Y-77265163D02*
X123035805Y-77288972D01*
X123035805Y-77288972D02*
X123154853Y-77288972D01*
X123892949Y-79288972D02*
X124059615Y-79050877D01*
X124178663Y-79288972D02*
X124178663Y-78788972D01*
X124178663Y-78788972D02*
X123988187Y-78788972D01*
X123988187Y-78788972D02*
X123940568Y-78812782D01*
X123940568Y-78812782D02*
X123916758Y-78836591D01*
X123916758Y-78836591D02*
X123892949Y-78884210D01*
X123892949Y-78884210D02*
X123892949Y-78955639D01*
X123892949Y-78955639D02*
X123916758Y-79003258D01*
X123916758Y-79003258D02*
X123940568Y-79027067D01*
X123940568Y-79027067D02*
X123988187Y-79050877D01*
X123988187Y-79050877D02*
X124178663Y-79050877D01*
X123726282Y-78788972D02*
X123392949Y-79288972D01*
X123392949Y-78788972D02*
X123726282Y-79288972D01*
D10*
X104529887Y-85646009D02*
X104387030Y-85693628D01*
X104387030Y-85693628D02*
X104339411Y-85741247D01*
X104339411Y-85741247D02*
X104291792Y-85836485D01*
X104291792Y-85836485D02*
X104291792Y-85979342D01*
X104291792Y-85979342D02*
X104339411Y-86074580D01*
X104339411Y-86074580D02*
X104387030Y-86122200D01*
X104387030Y-86122200D02*
X104482268Y-86169819D01*
X104482268Y-86169819D02*
X104863220Y-86169819D01*
X104863220Y-86169819D02*
X104863220Y-85169819D01*
X104863220Y-85169819D02*
X104529887Y-85169819D01*
X104529887Y-85169819D02*
X104434649Y-85217438D01*
X104434649Y-85217438D02*
X104387030Y-85265057D01*
X104387030Y-85265057D02*
X104339411Y-85360295D01*
X104339411Y-85360295D02*
X104339411Y-85455533D01*
X104339411Y-85455533D02*
X104387030Y-85550771D01*
X104387030Y-85550771D02*
X104434649Y-85598390D01*
X104434649Y-85598390D02*
X104529887Y-85646009D01*
X104529887Y-85646009D02*
X104863220Y-85646009D01*
G36*
X121949331Y-88855930D02*
G01*
X118862824Y-88855930D01*
X118862824Y-87669819D01*
X118973935Y-87669819D01*
X118975329Y-88467543D01*
X118974524Y-88469961D01*
X118975354Y-88481648D01*
X118975376Y-88493974D01*
X118976407Y-88496463D01*
X118976598Y-88499151D01*
X118981853Y-88512883D01*
X119030543Y-88607435D01*
X119034193Y-88616247D01*
X119036576Y-88619151D01*
X119037304Y-88620564D01*
X119038802Y-88621863D01*
X119043520Y-88627612D01*
X119092555Y-88674953D01*
X119098189Y-88681450D01*
X119101334Y-88683429D01*
X119102505Y-88684560D01*
X119104332Y-88685317D01*
X119110632Y-88689282D01*
X119196521Y-88730957D01*
X119197743Y-88732179D01*
X119206602Y-88735848D01*
X119219601Y-88742156D01*
X119222290Y-88742347D01*
X119224779Y-88743378D01*
X119239411Y-88744819D01*
X119418498Y-88743560D01*
X119420506Y-88744230D01*
X119431178Y-88743471D01*
X119444519Y-88743378D01*
X119447008Y-88742346D01*
X119449696Y-88742156D01*
X119463428Y-88736901D01*
X119557982Y-88688209D01*
X119566793Y-88684560D01*
X119569695Y-88682177D01*
X119571109Y-88681450D01*
X119572409Y-88679950D01*
X119578159Y-88675232D01*
X119625500Y-88626195D01*
X119631994Y-88620564D01*
X119633973Y-88617418D01*
X119635105Y-88616247D01*
X119635862Y-88614417D01*
X119639826Y-88608121D01*
X119681501Y-88522231D01*
X119682723Y-88521010D01*
X119686392Y-88512150D01*
X119692700Y-88499152D01*
X119692891Y-88496462D01*
X119693922Y-88493974D01*
X119695363Y-88479342D01*
X119694089Y-87750426D01*
X119975376Y-87750426D01*
X119975376Y-87779688D01*
X119986575Y-87806725D01*
X120007267Y-87827417D01*
X120034304Y-87838616D01*
X120063566Y-87838616D01*
X120090603Y-87827417D01*
X120101968Y-87818090D01*
X120135490Y-87783367D01*
X120248196Y-87744703D01*
X120319575Y-87743767D01*
X120435502Y-87781290D01*
X120509711Y-87854080D01*
X120548402Y-87929215D01*
X120593020Y-88102645D01*
X120594162Y-88227417D01*
X120552136Y-88400540D01*
X120513411Y-88480350D01*
X120439134Y-88556076D01*
X120325862Y-88594934D01*
X120254484Y-88595870D01*
X120138292Y-88558262D01*
X120090603Y-88512220D01*
X120063567Y-88501021D01*
X120034304Y-88501021D01*
X120007268Y-88512219D01*
X119986575Y-88532912D01*
X119975376Y-88559948D01*
X119975376Y-88589211D01*
X119986574Y-88616247D01*
X119995901Y-88627612D01*
X120036726Y-88667027D01*
X120037304Y-88668183D01*
X120043395Y-88673466D01*
X120054886Y-88684560D01*
X120057374Y-88685590D01*
X120059411Y-88687357D01*
X120072837Y-88693351D01*
X120215418Y-88739500D01*
X120224779Y-88743378D01*
X120228542Y-88743748D01*
X120230030Y-88744230D01*
X120232004Y-88744089D01*
X120239411Y-88744819D01*
X120334728Y-88743568D01*
X120344029Y-88744230D01*
X120347683Y-88743398D01*
X120349281Y-88743378D01*
X120351112Y-88742619D01*
X120358366Y-88740970D01*
X120490156Y-88695759D01*
X120492138Y-88695759D01*
X120501690Y-88691802D01*
X120514648Y-88687357D01*
X120516683Y-88685591D01*
X120519174Y-88684560D01*
X120530539Y-88675233D01*
X120624471Y-88579468D01*
X120631994Y-88572945D01*
X120634006Y-88569748D01*
X120635105Y-88568628D01*
X120635862Y-88566798D01*
X120639826Y-88560502D01*
X120684094Y-88469269D01*
X120688177Y-88463759D01*
X120692112Y-88452743D01*
X120692700Y-88451533D01*
X120692738Y-88450992D01*
X120693124Y-88449913D01*
X120738364Y-88263547D01*
X120741541Y-88255879D01*
X120742438Y-88246764D01*
X120742893Y-88244893D01*
X120742730Y-88243800D01*
X120742982Y-88241247D01*
X120741714Y-88102667D01*
X120742893Y-88094744D01*
X120741558Y-88085719D01*
X120741541Y-88083758D01*
X120741118Y-88082736D01*
X120740743Y-88080200D01*
X120693225Y-87895501D01*
X120692700Y-87888104D01*
X120688496Y-87877121D01*
X120688177Y-87875878D01*
X120687854Y-87875442D01*
X120687445Y-87874373D01*
X120638756Y-87779823D01*
X120635105Y-87771008D01*
X120632720Y-87768102D01*
X120631994Y-87766692D01*
X120630497Y-87765393D01*
X120625777Y-87759643D01*
X120537606Y-87673158D01*
X120536755Y-87671455D01*
X120534869Y-87669819D01*
X121021554Y-87669819D01*
X121022995Y-88684451D01*
X121034194Y-88711487D01*
X121054886Y-88732179D01*
X121081922Y-88743378D01*
X121111186Y-88743378D01*
X121138222Y-88732179D01*
X121158914Y-88711487D01*
X121170113Y-88684451D01*
X121171554Y-88669819D01*
X121170609Y-88004441D01*
X121361984Y-88412619D01*
X121365757Y-88422993D01*
X121367993Y-88425435D01*
X121369417Y-88428471D01*
X121377826Y-88436171D01*
X121385521Y-88444574D01*
X121388539Y-88445982D01*
X121390998Y-88448234D01*
X121401710Y-88452129D01*
X121412039Y-88456950D01*
X121415367Y-88457096D01*
X121418499Y-88458235D01*
X121429893Y-88457734D01*
X121441275Y-88458234D01*
X121444403Y-88457096D01*
X121447735Y-88456950D01*
X121458070Y-88452126D01*
X121468776Y-88448234D01*
X121471231Y-88445984D01*
X121474253Y-88444575D01*
X121481954Y-88436164D01*
X121490357Y-88428470D01*
X121492840Y-88424277D01*
X121494017Y-88422993D01*
X121494677Y-88421177D01*
X121497851Y-88415820D01*
X121688695Y-88004943D01*
X121689661Y-88684451D01*
X121700860Y-88711487D01*
X121721552Y-88732179D01*
X121748588Y-88743378D01*
X121777852Y-88743378D01*
X121804888Y-88732179D01*
X121825580Y-88711487D01*
X121836779Y-88684451D01*
X121838220Y-88669819D01*
X121836801Y-87670923D01*
X121837350Y-87658431D01*
X121836781Y-87656867D01*
X121836779Y-87655187D01*
X121831797Y-87643160D01*
X121827350Y-87630930D01*
X121826220Y-87629696D01*
X121825580Y-87628151D01*
X121816380Y-87618951D01*
X121807586Y-87609348D01*
X121806069Y-87608640D01*
X121804888Y-87607459D01*
X121792875Y-87602482D01*
X121781068Y-87596973D01*
X121779395Y-87596899D01*
X121777852Y-87596260D01*
X121764846Y-87596260D01*
X121751832Y-87595688D01*
X121750259Y-87596260D01*
X121748588Y-87596260D01*
X121736569Y-87601238D01*
X121724331Y-87605689D01*
X121723097Y-87606819D01*
X121721552Y-87607459D01*
X121712353Y-87616657D01*
X121702750Y-87625452D01*
X121701574Y-87627436D01*
X121700860Y-87628151D01*
X121700183Y-87629784D01*
X121695256Y-87638102D01*
X121430352Y-88208422D01*
X121163653Y-87639592D01*
X121158914Y-87628151D01*
X121157737Y-87626974D01*
X121157024Y-87625453D01*
X121147427Y-87616664D01*
X121138222Y-87607459D01*
X121136676Y-87606818D01*
X121135443Y-87605689D01*
X121123212Y-87601241D01*
X121111186Y-87596260D01*
X121109512Y-87596260D01*
X121107942Y-87595689D01*
X121094941Y-87596260D01*
X121081922Y-87596260D01*
X121080377Y-87596899D01*
X121078706Y-87596973D01*
X121066907Y-87602479D01*
X121054886Y-87607459D01*
X121053703Y-87608641D01*
X121052188Y-87609349D01*
X121043399Y-87618945D01*
X121034194Y-87628151D01*
X121033553Y-87629696D01*
X121032424Y-87630930D01*
X121027976Y-87643160D01*
X121022995Y-87655187D01*
X121022768Y-87657482D01*
X121022424Y-87658431D01*
X121022501Y-87660197D01*
X121021554Y-87669819D01*
X120534869Y-87669819D01*
X120529112Y-87664826D01*
X120519174Y-87655078D01*
X120516683Y-87654046D01*
X120514648Y-87652281D01*
X120501223Y-87646287D01*
X120358644Y-87600138D01*
X120349281Y-87596260D01*
X120345515Y-87595889D01*
X120344029Y-87595408D01*
X120342054Y-87595548D01*
X120334649Y-87594819D01*
X120239330Y-87596069D01*
X120230030Y-87595408D01*
X120226375Y-87596239D01*
X120224779Y-87596260D01*
X120222948Y-87597018D01*
X120215693Y-87598668D01*
X120083903Y-87643879D01*
X120081922Y-87643879D01*
X120072374Y-87647833D01*
X120059411Y-87652281D01*
X120057374Y-87654047D01*
X120054886Y-87655078D01*
X120043521Y-87664405D01*
X119986575Y-87723389D01*
X119975376Y-87750426D01*
X119694089Y-87750426D01*
X119693922Y-87655187D01*
X119682723Y-87628151D01*
X119662031Y-87607459D01*
X119634995Y-87596260D01*
X119605731Y-87596260D01*
X119578695Y-87607459D01*
X119558003Y-87628151D01*
X119546804Y-87655187D01*
X119545363Y-87669819D01*
X119546743Y-88459274D01*
X119513311Y-88528175D01*
X119483065Y-88559504D01*
X119414275Y-88594928D01*
X119259106Y-88596018D01*
X119190577Y-88562767D01*
X119159250Y-88532521D01*
X119123907Y-88463890D01*
X119122494Y-87655187D01*
X119111295Y-87628151D01*
X119090603Y-87607459D01*
X119063567Y-87596260D01*
X119034303Y-87596260D01*
X119007267Y-87607459D01*
X118986575Y-87628151D01*
X118975376Y-87655187D01*
X118973935Y-87669819D01*
X118862824Y-87669819D01*
X118862824Y-87483708D01*
X121949331Y-87483708D01*
X121949331Y-88855930D01*
G37*
X83063220Y-75388866D02*
X82301316Y-75388866D01*
X82682268Y-75769819D02*
X82682268Y-75007914D01*
X81348935Y-74769819D02*
X81825125Y-74769819D01*
X81825125Y-74769819D02*
X81872744Y-75246009D01*
X81872744Y-75246009D02*
X81825125Y-75198390D01*
X81825125Y-75198390D02*
X81729887Y-75150771D01*
X81729887Y-75150771D02*
X81491792Y-75150771D01*
X81491792Y-75150771D02*
X81396554Y-75198390D01*
X81396554Y-75198390D02*
X81348935Y-75246009D01*
X81348935Y-75246009D02*
X81301316Y-75341247D01*
X81301316Y-75341247D02*
X81301316Y-75579342D01*
X81301316Y-75579342D02*
X81348935Y-75674580D01*
X81348935Y-75674580D02*
X81396554Y-75722200D01*
X81396554Y-75722200D02*
X81491792Y-75769819D01*
X81491792Y-75769819D02*
X81729887Y-75769819D01*
X81729887Y-75769819D02*
X81825125Y-75722200D01*
X81825125Y-75722200D02*
X81872744Y-75674580D01*
X81015601Y-74769819D02*
X80682268Y-75769819D01*
X80682268Y-75769819D02*
X80348935Y-74769819D01*
X105863220Y-85646009D02*
X105529887Y-85646009D01*
X105387030Y-86169819D02*
X105863220Y-86169819D01*
X105863220Y-86169819D02*
X105863220Y-85169819D01*
X105863220Y-85169819D02*
X105387030Y-85169819D01*
D13*
G36*
X139806853Y-77471928D02*
G01*
X134703322Y-77471928D01*
X134703322Y-75560349D01*
X134890822Y-75560349D01*
X134890822Y-75633507D01*
X134918818Y-75701097D01*
X134970550Y-75752829D01*
X135038140Y-75780825D01*
X135074719Y-75784428D01*
X135639102Y-75781719D01*
X135684959Y-75981155D01*
X135385932Y-75983891D01*
X135378983Y-75981777D01*
X135354343Y-75984180D01*
X135323854Y-75984460D01*
X135315340Y-75987986D01*
X135306170Y-75988881D01*
X135272199Y-76002915D01*
X135128882Y-76082906D01*
X135112194Y-76091160D01*
X135109404Y-76093778D01*
X135107689Y-76094736D01*
X135105336Y-76097597D01*
X135085395Y-76116316D01*
X135015251Y-76201057D01*
X135004659Y-76212394D01*
X135002891Y-76215989D01*
X135001520Y-76217646D01*
X135000292Y-76221275D01*
X134988442Y-76245379D01*
X134945687Y-76366350D01*
X134942815Y-76370044D01*
X134937322Y-76390020D01*
X134925401Y-76423751D01*
X134925691Y-76432318D01*
X134923419Y-76440584D01*
X134924381Y-76477328D01*
X134968151Y-76803389D01*
X134967663Y-76805506D01*
X134971557Y-76828765D01*
X134977136Y-76870320D01*
X134979091Y-76873759D01*
X134979745Y-76877660D01*
X134996076Y-76910588D01*
X135086049Y-77049072D01*
X135094847Y-77067216D01*
X135104919Y-77078115D01*
X135107803Y-77082554D01*
X135111374Y-77085101D01*
X135119793Y-77094211D01*
X135201232Y-77163035D01*
X135213319Y-77176318D01*
X135225677Y-77183693D01*
X135229884Y-77187248D01*
X135234064Y-77188698D01*
X135244882Y-77195154D01*
X135371572Y-77252066D01*
X135372335Y-77252829D01*
X135384329Y-77257797D01*
X135431299Y-77278897D01*
X135435780Y-77279108D01*
X135439925Y-77280825D01*
X135476504Y-77284428D01*
X135808147Y-77281393D01*
X135815097Y-77283508D01*
X135839736Y-77281104D01*
X135870226Y-77280825D01*
X135878739Y-77277298D01*
X135887910Y-77276404D01*
X135921882Y-77262370D01*
X136065194Y-77182380D01*
X136081886Y-77174125D01*
X136084675Y-77171506D01*
X136086391Y-77170549D01*
X136088744Y-77167686D01*
X136108684Y-77148969D01*
X136192560Y-77047639D01*
X136208255Y-77001234D01*
X136424510Y-77001234D01*
X136426894Y-77037012D01*
X136429001Y-77072816D01*
X136429326Y-77073486D01*
X136429376Y-77074232D01*
X136445271Y-77106372D01*
X136460919Y-77138645D01*
X136461592Y-77139373D01*
X136461808Y-77139810D01*
X136462787Y-77140667D01*
X136485865Y-77165640D01*
X136548329Y-77218428D01*
X136549013Y-77219630D01*
X136558285Y-77226841D01*
X136595956Y-77258677D01*
X136596660Y-77258921D01*
X136597221Y-77259412D01*
X136602423Y-77261171D01*
X136606762Y-77264546D01*
X136636218Y-77272645D01*
X136665073Y-77282656D01*
X136665817Y-77282612D01*
X136666523Y-77282851D01*
X136672005Y-77282485D01*
X136677303Y-77283942D01*
X136707607Y-77280154D01*
X136738106Y-77278360D01*
X136738777Y-77278034D01*
X136739521Y-77277985D01*
X136744446Y-77275549D01*
X136749896Y-77274868D01*
X136776449Y-77259768D01*
X136803935Y-77246442D01*
X136804430Y-77245884D01*
X136805099Y-77245554D01*
X136810710Y-77240286D01*
X136813492Y-77238705D01*
X136816458Y-77234890D01*
X136831898Y-77220398D01*
X136910514Y-77125422D01*
X136915037Y-77120335D01*
X136915261Y-77119688D01*
X136915774Y-77119069D01*
X136927279Y-77085049D01*
X136939018Y-77051219D01*
X136938974Y-77050473D01*
X136939213Y-77049767D01*
X136936828Y-77013988D01*
X136934722Y-76978185D01*
X136934396Y-76977514D01*
X136934347Y-76976769D01*
X136918427Y-76944577D01*
X136902804Y-76912356D01*
X136902133Y-76911629D01*
X136901916Y-76911191D01*
X136900930Y-76910328D01*
X136877858Y-76885361D01*
X136815393Y-76832571D01*
X136814710Y-76831369D01*
X136805434Y-76824154D01*
X136767769Y-76792323D01*
X136767061Y-76792077D01*
X136766501Y-76791587D01*
X136761300Y-76789828D01*
X136756961Y-76786453D01*
X136727508Y-76778354D01*
X136698652Y-76768343D01*
X136697905Y-76768386D01*
X136697199Y-76768148D01*
X136691717Y-76768513D01*
X136686420Y-76767057D01*
X136656114Y-76770845D01*
X136625618Y-76772639D01*
X136624944Y-76772965D01*
X136624201Y-76773015D01*
X136619277Y-76775449D01*
X136613827Y-76776131D01*
X136587267Y-76791233D01*
X136559789Y-76804557D01*
X136559293Y-76805114D01*
X136558623Y-76805446D01*
X136553013Y-76810712D01*
X136550231Y-76812294D01*
X136547264Y-76816108D01*
X136531824Y-76830602D01*
X136453232Y-76925549D01*
X136448685Y-76930665D01*
X136448459Y-76931315D01*
X136447949Y-76931932D01*
X136436468Y-76965875D01*
X136424705Y-76999782D01*
X136424748Y-77000527D01*
X136424510Y-77001234D01*
X136208255Y-77001234D01*
X136215999Y-76978337D01*
X136211132Y-76905339D01*
X136178701Y-76839762D01*
X136123644Y-76791587D01*
X136054342Y-76768148D01*
X135981344Y-76773015D01*
X135915766Y-76805446D01*
X135888967Y-76830602D01*
X135851912Y-76875367D01*
X135790176Y-76909825D01*
X135522942Y-76912271D01*
X135433683Y-76872173D01*
X135391622Y-76836627D01*
X135336213Y-76751344D01*
X135299873Y-76480637D01*
X135324313Y-76411486D01*
X135342165Y-76389918D01*
X135403904Y-76355459D01*
X135671135Y-76353013D01*
X135760397Y-76393112D01*
X135814958Y-76439221D01*
X135820487Y-76447064D01*
X135835412Y-76456506D01*
X135854884Y-76472962D01*
X135869361Y-76477984D01*
X135882313Y-76486179D01*
X135903595Y-76489862D01*
X135924001Y-76496942D01*
X135939301Y-76496041D01*
X135954400Y-76498655D01*
X135975468Y-76493914D01*
X135997035Y-76492646D01*
X136010825Y-76485959D01*
X136025774Y-76482596D01*
X136043427Y-76470151D01*
X136062864Y-76460728D01*
X136073043Y-76449275D01*
X136085570Y-76440446D01*
X136097119Y-76422190D01*
X136111467Y-76406049D01*
X136116489Y-76391572D01*
X136124684Y-76378620D01*
X136128367Y-76357337D01*
X136135447Y-76336932D01*
X136134546Y-76321631D01*
X136137160Y-76306533D01*
X136132646Y-76270055D01*
X136040467Y-75869155D01*
X136994847Y-75869155D01*
X136995809Y-75905898D01*
X137016552Y-76048648D01*
X137017303Y-76068870D01*
X137021089Y-76079866D01*
X137021778Y-76084606D01*
X137024168Y-76088810D01*
X137029269Y-76103623D01*
X137146000Y-76349660D01*
X137147516Y-76351068D01*
X137148419Y-76352929D01*
X137173365Y-76379924D01*
X137774384Y-76911249D01*
X137297068Y-76913031D01*
X137229478Y-76941027D01*
X137177746Y-76992759D01*
X137149750Y-77060349D01*
X137149750Y-77133507D01*
X137177746Y-77201097D01*
X137229478Y-77252829D01*
X137297068Y-77280825D01*
X137333647Y-77284428D01*
X138231941Y-77281074D01*
X138236500Y-77282656D01*
X138265515Y-77280949D01*
X138298797Y-77280825D01*
X138303956Y-77278688D01*
X138309533Y-77278360D01*
X138337581Y-77264760D01*
X138366387Y-77252829D01*
X138370338Y-77248877D01*
X138375362Y-77246442D01*
X138396067Y-77223148D01*
X138418119Y-77201097D01*
X138420256Y-77195935D01*
X138423966Y-77191763D01*
X138434184Y-77162310D01*
X138446115Y-77133507D01*
X138446115Y-77127923D01*
X138447946Y-77122646D01*
X138446115Y-77091518D01*
X138446115Y-77060349D01*
X138443978Y-77055189D01*
X138443650Y-77049612D01*
X138430047Y-77021557D01*
X138418119Y-76992759D01*
X138414168Y-76988808D01*
X138411732Y-76983783D01*
X138386786Y-76956789D01*
X137454670Y-76132760D01*
X137382689Y-75981045D01*
X137371973Y-75907305D01*
X137395740Y-75840060D01*
X137413596Y-75818489D01*
X137475332Y-75784030D01*
X137742565Y-75781584D01*
X137831825Y-75821683D01*
X137926313Y-75901534D01*
X137995430Y-75925513D01*
X138068463Y-75921217D01*
X138134292Y-75889299D01*
X138182896Y-75834620D01*
X138206875Y-75765503D01*
X138202579Y-75692469D01*
X138170661Y-75626640D01*
X138145715Y-75599646D01*
X138107309Y-75567189D01*
X138246734Y-75567189D01*
X138249446Y-75640297D01*
X138261411Y-75675051D01*
X138942948Y-77153693D01*
X138945491Y-77167111D01*
X138957772Y-77185856D01*
X138967427Y-77206802D01*
X138977815Y-77216448D01*
X138985585Y-77228306D01*
X139004374Y-77241108D01*
X139021039Y-77256581D01*
X139034329Y-77261517D01*
X139046044Y-77269499D01*
X139068304Y-77274136D01*
X139089621Y-77282054D01*
X139103786Y-77281528D01*
X139117665Y-77284420D01*
X139140008Y-77280185D01*
X139162730Y-77279343D01*
X139175613Y-77273438D01*
X139189544Y-77270798D01*
X139208569Y-77258333D01*
X139229235Y-77248861D01*
X139238878Y-77238474D01*
X139250739Y-77230704D01*
X139263543Y-77211910D01*
X139279014Y-77195249D01*
X139283949Y-77181960D01*
X139291932Y-77170245D01*
X139302920Y-77135169D01*
X139619353Y-75598625D01*
X139605731Y-75526746D01*
X139565637Y-75465550D01*
X139505178Y-75424357D01*
X139433557Y-75409436D01*
X139361678Y-75423059D01*
X139300483Y-75463152D01*
X139259290Y-75523612D01*
X139248302Y-75558687D01*
X139053286Y-76505649D01*
X138583794Y-75487054D01*
X138530183Y-75437275D01*
X138461600Y-75411801D01*
X138388492Y-75414513D01*
X138321987Y-75444995D01*
X138272208Y-75498606D01*
X138246734Y-75567189D01*
X138107309Y-75567189D01*
X138064277Y-75530822D01*
X138052190Y-75517539D01*
X138039832Y-75510164D01*
X138035625Y-75506609D01*
X138031441Y-75505157D01*
X138020627Y-75498704D01*
X137893935Y-75441789D01*
X137893173Y-75441027D01*
X137881177Y-75436058D01*
X137834210Y-75414959D01*
X137829727Y-75414747D01*
X137825583Y-75413031D01*
X137789004Y-75409428D01*
X137457357Y-75412462D01*
X137450408Y-75410348D01*
X137425772Y-75412751D01*
X137395282Y-75413031D01*
X137386766Y-75416558D01*
X137377596Y-75417453D01*
X137343625Y-75431487D01*
X137200316Y-75511476D01*
X137183625Y-75519731D01*
X137180834Y-75522350D01*
X137179117Y-75523309D01*
X137176761Y-75526173D01*
X137156826Y-75544887D01*
X137086682Y-75629625D01*
X137076089Y-75640963D01*
X137074321Y-75644557D01*
X137072949Y-75646216D01*
X137071720Y-75649848D01*
X137059872Y-75673948D01*
X137017116Y-75794919D01*
X137014243Y-75798614D01*
X137008749Y-75818593D01*
X136996829Y-75852321D01*
X136997119Y-75860889D01*
X136994847Y-75869155D01*
X136040467Y-75869155D01*
X135972901Y-75575302D01*
X135972901Y-75560349D01*
X135965172Y-75541690D01*
X135960386Y-75520873D01*
X135951083Y-75507676D01*
X135944905Y-75492759D01*
X135930210Y-75478064D01*
X135918236Y-75461077D01*
X135904589Y-75452443D01*
X135893173Y-75441027D01*
X135873973Y-75433074D01*
X135856410Y-75421963D01*
X135840499Y-75419209D01*
X135825583Y-75413031D01*
X135789004Y-75409428D01*
X135038140Y-75413031D01*
X134970550Y-75441027D01*
X134918818Y-75492759D01*
X134890822Y-75560349D01*
X134703322Y-75560349D01*
X134703322Y-75221928D01*
X139806853Y-75221928D01*
X139806853Y-77471928D01*
G37*
D10*
G36*
X120788857Y-81718898D02*
G01*
X120630499Y-81719475D01*
X120626750Y-81718645D01*
X120621864Y-81719507D01*
X120502200Y-81719943D01*
X120433434Y-81686576D01*
X120402106Y-81656331D01*
X120366648Y-81587474D01*
X120365663Y-81479842D01*
X120398844Y-81411460D01*
X120429088Y-81380133D01*
X120497776Y-81344762D01*
X120788324Y-81343704D01*
X120788857Y-81718898D01*
G37*
G36*
X121049331Y-82455930D02*
G01*
X116488074Y-82455930D01*
X116488074Y-81255187D01*
X116599185Y-81255187D01*
X116599185Y-81284451D01*
X116610384Y-81311487D01*
X116631076Y-81332179D01*
X116658112Y-81343378D01*
X116672744Y-81344819D01*
X116883563Y-81344300D01*
X116884899Y-82284451D01*
X116896098Y-82311487D01*
X116916790Y-82332179D01*
X116943826Y-82343378D01*
X116973090Y-82343378D01*
X117000126Y-82332179D01*
X117020818Y-82311487D01*
X117032017Y-82284451D01*
X117033458Y-82269819D01*
X117032143Y-81343935D01*
X117258804Y-81343378D01*
X117285840Y-81332179D01*
X117306532Y-81311487D01*
X117317731Y-81284451D01*
X117317731Y-81255187D01*
X117456328Y-81255187D01*
X117456328Y-81284451D01*
X117467527Y-81311487D01*
X117488219Y-81332179D01*
X117515255Y-81343378D01*
X117529887Y-81344819D01*
X117931181Y-81343640D01*
X117931647Y-81671317D01*
X117658112Y-81672450D01*
X117631076Y-81683649D01*
X117610384Y-81704341D01*
X117599185Y-81731377D01*
X117599185Y-81760641D01*
X117610384Y-81787677D01*
X117631076Y-81808369D01*
X117658112Y-81819568D01*
X117672744Y-81821009D01*
X117931858Y-81819935D01*
X117932391Y-82195035D01*
X117515255Y-82196260D01*
X117488219Y-82207459D01*
X117467527Y-82228151D01*
X117456328Y-82255187D01*
X117456328Y-82284451D01*
X117467527Y-82311487D01*
X117488219Y-82332179D01*
X117515255Y-82343378D01*
X117529887Y-82344819D01*
X118020709Y-82343378D01*
X118047745Y-82332179D01*
X118068437Y-82311487D01*
X118079636Y-82284451D01*
X118081077Y-82269819D01*
X118080671Y-81984104D01*
X118359649Y-81984104D01*
X118360754Y-82068410D01*
X118360238Y-82069961D01*
X118360896Y-82079230D01*
X118361090Y-82093974D01*
X118362121Y-82096463D01*
X118362312Y-82099151D01*
X118367567Y-82112883D01*
X118416257Y-82207435D01*
X118419907Y-82216247D01*
X118422290Y-82219151D01*
X118423018Y-82220564D01*
X118424516Y-82221863D01*
X118429234Y-82227612D01*
X118478269Y-82274953D01*
X118483903Y-82281450D01*
X118487048Y-82283429D01*
X118488219Y-82284560D01*
X118490046Y-82285317D01*
X118496346Y-82289282D01*
X118582235Y-82330957D01*
X118583457Y-82332179D01*
X118592316Y-82335848D01*
X118605315Y-82342156D01*
X118608004Y-82342347D01*
X118610493Y-82343378D01*
X118625125Y-82344819D01*
X118861894Y-82343468D01*
X118872600Y-82344230D01*
X118876308Y-82343386D01*
X118877852Y-82343378D01*
X118879683Y-82342619D01*
X118886937Y-82340970D01*
X119043219Y-82287357D01*
X119065326Y-82268183D01*
X119078413Y-82242010D01*
X119080488Y-82212820D01*
X119071234Y-82185058D01*
X119052060Y-82162950D01*
X119025886Y-82149864D01*
X118996696Y-82147789D01*
X118982359Y-82151049D01*
X118854626Y-82194867D01*
X118644912Y-82196063D01*
X118576291Y-82162767D01*
X118544964Y-82132521D01*
X118509441Y-82063540D01*
X118508652Y-82003379D01*
X118541701Y-81935269D01*
X118571945Y-81903942D01*
X118646426Y-81865588D01*
X118828013Y-81818871D01*
X118835410Y-81818346D01*
X118846392Y-81814143D01*
X118847637Y-81813823D01*
X118848072Y-81813500D01*
X118849142Y-81813091D01*
X118943698Y-81764398D01*
X118952507Y-81760750D01*
X118955409Y-81758367D01*
X118956823Y-81757640D01*
X118958122Y-81756141D01*
X118963872Y-81751423D01*
X119011213Y-81702387D01*
X119017708Y-81696755D01*
X119019687Y-81693609D01*
X119020818Y-81692439D01*
X119021575Y-81690611D01*
X119025540Y-81684312D01*
X119067215Y-81598422D01*
X119068437Y-81597201D01*
X119072106Y-81588341D01*
X119078414Y-81575343D01*
X119078605Y-81572653D01*
X119079636Y-81570165D01*
X119081077Y-81555533D01*
X119079971Y-81471225D01*
X119080488Y-81469675D01*
X119079829Y-81460404D01*
X119079636Y-81445663D01*
X119078605Y-81443174D01*
X119078414Y-81440485D01*
X119073159Y-81426754D01*
X119024467Y-81332199D01*
X119020818Y-81323389D01*
X119018435Y-81320486D01*
X119017708Y-81319073D01*
X119016209Y-81317773D01*
X119011491Y-81312024D01*
X118962455Y-81264682D01*
X118956823Y-81258188D01*
X118953677Y-81256208D01*
X118952620Y-81255187D01*
X119313471Y-81255187D01*
X119313471Y-81284451D01*
X119324670Y-81311487D01*
X119345362Y-81332179D01*
X119372398Y-81343378D01*
X119387030Y-81344819D01*
X119788324Y-81343640D01*
X119788790Y-81671317D01*
X119515255Y-81672450D01*
X119488219Y-81683649D01*
X119467527Y-81704341D01*
X119456328Y-81731377D01*
X119456328Y-81760641D01*
X119467527Y-81787677D01*
X119488219Y-81808369D01*
X119515255Y-81819568D01*
X119529887Y-81821009D01*
X119789001Y-81819935D01*
X119789534Y-82195035D01*
X119372398Y-82196260D01*
X119345362Y-82207459D01*
X119324670Y-82228151D01*
X119313471Y-82255187D01*
X119313471Y-82284451D01*
X119324670Y-82311487D01*
X119345362Y-82332179D01*
X119372398Y-82343378D01*
X119387030Y-82344819D01*
X119877852Y-82343378D01*
X119904888Y-82332179D01*
X119925580Y-82311487D01*
X119936779Y-82284451D01*
X119938220Y-82269819D01*
X119937070Y-81460295D01*
X120216792Y-81460295D01*
X120217996Y-81591924D01*
X120217381Y-81593771D01*
X120218106Y-81603985D01*
X120218233Y-81617784D01*
X120219264Y-81620273D01*
X120219455Y-81622961D01*
X120224710Y-81636693D01*
X120273402Y-81731249D01*
X120277051Y-81740058D01*
X120279433Y-81742960D01*
X120280161Y-81744374D01*
X120281659Y-81745673D01*
X120286378Y-81751423D01*
X120335413Y-81798764D01*
X120341046Y-81805259D01*
X120344191Y-81807238D01*
X120345362Y-81808369D01*
X120347189Y-81809126D01*
X120353489Y-81813091D01*
X120439378Y-81854766D01*
X120440600Y-81855988D01*
X120449459Y-81859657D01*
X120462458Y-81865965D01*
X120465147Y-81866156D01*
X120467636Y-81867187D01*
X120481549Y-81868557D01*
X120223139Y-82239623D01*
X120216810Y-82268194D01*
X120221895Y-82297011D01*
X120237622Y-82321690D01*
X120261596Y-82338472D01*
X120290167Y-82344801D01*
X120318984Y-82339716D01*
X120343663Y-82323989D01*
X120353234Y-82312829D01*
X120663034Y-81867969D01*
X120789068Y-81867510D01*
X120789661Y-82284451D01*
X120800860Y-82311487D01*
X120821552Y-82332179D01*
X120848588Y-82343378D01*
X120877852Y-82343378D01*
X120904888Y-82332179D01*
X120925580Y-82311487D01*
X120936779Y-82284451D01*
X120938220Y-82269819D01*
X120936779Y-81255187D01*
X120925580Y-81228151D01*
X120904888Y-81207459D01*
X120877852Y-81196260D01*
X120863220Y-81194819D01*
X120493916Y-81196164D01*
X120491648Y-81195408D01*
X120480306Y-81196213D01*
X120467636Y-81196260D01*
X120465147Y-81197290D01*
X120462458Y-81197482D01*
X120448727Y-81202737D01*
X120354172Y-81251428D01*
X120345362Y-81255078D01*
X120342459Y-81257460D01*
X120341046Y-81258188D01*
X120339746Y-81259686D01*
X120333997Y-81264405D01*
X120286655Y-81313440D01*
X120280161Y-81319073D01*
X120278181Y-81322218D01*
X120277051Y-81323389D01*
X120276293Y-81325216D01*
X120272329Y-81331516D01*
X120230654Y-81417404D01*
X120229432Y-81418627D01*
X120225759Y-81427492D01*
X120219455Y-81440486D01*
X120219264Y-81443173D01*
X120218233Y-81445663D01*
X120216792Y-81460295D01*
X119937070Y-81460295D01*
X119936779Y-81255187D01*
X119925580Y-81228151D01*
X119904888Y-81207459D01*
X119877852Y-81196260D01*
X119863220Y-81194819D01*
X119372398Y-81196260D01*
X119345362Y-81207459D01*
X119324670Y-81228151D01*
X119313471Y-81255187D01*
X118952620Y-81255187D01*
X118952507Y-81255078D01*
X118950679Y-81254320D01*
X118944380Y-81250356D01*
X118858491Y-81208681D01*
X118857269Y-81207459D01*
X118848403Y-81203786D01*
X118835410Y-81197482D01*
X118832722Y-81197291D01*
X118830233Y-81196260D01*
X118815601Y-81194819D01*
X118578830Y-81196169D01*
X118568125Y-81195408D01*
X118564416Y-81196251D01*
X118562874Y-81196260D01*
X118561043Y-81197018D01*
X118553788Y-81198668D01*
X118397506Y-81252281D01*
X118375399Y-81271455D01*
X118362313Y-81297628D01*
X118360238Y-81326818D01*
X118369492Y-81354581D01*
X118388666Y-81376688D01*
X118414839Y-81389774D01*
X118444029Y-81391849D01*
X118458366Y-81388589D01*
X118586098Y-81344770D01*
X118795813Y-81343574D01*
X118864435Y-81376871D01*
X118895762Y-81407115D01*
X118931284Y-81476096D01*
X118932073Y-81536257D01*
X118899025Y-81604366D01*
X118868780Y-81635694D01*
X118794299Y-81674048D01*
X118612712Y-81720765D01*
X118605315Y-81721291D01*
X118594332Y-81725494D01*
X118593089Y-81725814D01*
X118592653Y-81726136D01*
X118591584Y-81726546D01*
X118497029Y-81775237D01*
X118488219Y-81778887D01*
X118485316Y-81781269D01*
X118483903Y-81781997D01*
X118482603Y-81783495D01*
X118476854Y-81788214D01*
X118429512Y-81837249D01*
X118423018Y-81842882D01*
X118421038Y-81846027D01*
X118419908Y-81847198D01*
X118419150Y-81849025D01*
X118415186Y-81855325D01*
X118373511Y-81941213D01*
X118372289Y-81942436D01*
X118368616Y-81951301D01*
X118362312Y-81964295D01*
X118362121Y-81966982D01*
X118361090Y-81969472D01*
X118359649Y-81984104D01*
X118080671Y-81984104D01*
X118079636Y-81255187D01*
X118068437Y-81228151D01*
X118047745Y-81207459D01*
X118020709Y-81196260D01*
X118006077Y-81194819D01*
X117515255Y-81196260D01*
X117488219Y-81207459D01*
X117467527Y-81228151D01*
X117456328Y-81255187D01*
X117317731Y-81255187D01*
X117306532Y-81228151D01*
X117285840Y-81207459D01*
X117258804Y-81196260D01*
X117244172Y-81194819D01*
X116658112Y-81196260D01*
X116631076Y-81207459D01*
X116610384Y-81228151D01*
X116599185Y-81255187D01*
X116488074Y-81255187D01*
X116488074Y-81083708D01*
X121049331Y-81083708D01*
X121049331Y-82455930D01*
G37*
D12*
X124250091Y-77788972D02*
X123964377Y-77788972D01*
X124107234Y-78288972D02*
X124107234Y-77788972D01*
X123845330Y-77788972D02*
X123511997Y-78288972D01*
X123511997Y-77788972D02*
X123845330Y-78288972D01*
D14*
X114521051Y-107375046D02*
X113795337Y-107375046D01*
X114666194Y-107810475D02*
X114158194Y-106286475D01*
X114158194Y-106286475D02*
X113650194Y-107810475D01*
X113142193Y-107810475D02*
X113142193Y-106286475D01*
X113142193Y-106286475D02*
X112271336Y-107810475D01*
X112271336Y-107810475D02*
X112271336Y-106286475D01*
X111763337Y-106286475D02*
X110892480Y-106286475D01*
X111327908Y-107810475D02*
X111327908Y-106286475D01*
X110384479Y-107012189D02*
X109876479Y-107012189D01*
X109658765Y-107810475D02*
X110384479Y-107810475D01*
X110384479Y-107810475D02*
X110384479Y-106286475D01*
X110384479Y-106286475D02*
X109658765Y-106286475D01*
X109005622Y-107810475D02*
X109005622Y-106286475D01*
X109005622Y-106286475D02*
X108134765Y-107810475D01*
X108134765Y-107810475D02*
X108134765Y-106286475D01*
X107409051Y-107810475D02*
X107409051Y-106286475D01*
X107409051Y-106286475D02*
X106538194Y-107810475D01*
X106538194Y-107810475D02*
X106538194Y-106286475D01*
X105885052Y-107375046D02*
X105159338Y-107375046D01*
X106030195Y-107810475D02*
X105522195Y-106286475D01*
X105522195Y-106286475D02*
X105014195Y-107810475D01*
D15*
%TO.C,LED8*%
X152475000Y-98745000D02*
X152475000Y-99042000D01*
X152475000Y-102448000D02*
X152475000Y-102745000D01*
X152475000Y-102745000D02*
X154175000Y-102745000D01*
X154175000Y-98745000D02*
X152475000Y-98745000D01*
X154175000Y-102745000D02*
X154175000Y-98745000D01*
D16*
X154185000Y-102765000D02*
X153435000Y-102765000D01*
X154185000Y-102015000D01*
X154185000Y-102765000D01*
G36*
X154185000Y-102765000D02*
G01*
X153435000Y-102765000D01*
X154185000Y-102015000D01*
X154185000Y-102765000D01*
G37*
X154185000Y-102765000D02*
X153435000Y-102765000D01*
X154185000Y-102015000D01*
X154185000Y-102765000D01*
G36*
X154185000Y-102765000D02*
G01*
X153435000Y-102765000D01*
X154185000Y-102015000D01*
X154185000Y-102765000D01*
G37*
D17*
%TO.C,J4*%
X125650000Y-75325000D02*
X125650000Y-76519000D01*
X125650000Y-77481000D02*
X125650000Y-77519000D01*
X125650000Y-78481000D02*
X125650000Y-78519000D01*
X125650000Y-79481000D02*
X125650000Y-79519000D01*
X125650000Y-80675000D02*
X125650000Y-79519000D01*
X127219000Y-75325000D02*
X125650000Y-75325000D01*
X127219000Y-80675000D02*
X125650000Y-80675000D01*
X129950000Y-79269000D02*
X129950000Y-76731000D01*
X125222000Y-76115000D02*
G75*
G02*
X124678000Y-76115000I-272000J0D01*
G01*
X124678000Y-76115000D02*
G75*
G02*
X125222000Y-76115000I272000J0D01*
G01*
D16*
%TO.C,R17*%
X84277500Y-104645276D02*
X84277500Y-105154724D01*
X85322500Y-104645276D02*
X85322500Y-105154724D01*
%TO.C,U4*%
X86602500Y-79140000D02*
X89322500Y-79140000D01*
X89322500Y-79140000D02*
X89322500Y-80120000D01*
X89322500Y-83860000D02*
X86602500Y-83860000D01*
X89322500Y-83860000D02*
X86742500Y-83860000D01*
X89322500Y-83860000D02*
X89322500Y-82880000D01*
X86432500Y-84040000D02*
X85952500Y-84040000D01*
X86192500Y-83710000D01*
X86432500Y-84040000D01*
G36*
X86432500Y-84040000D02*
G01*
X85952500Y-84040000D01*
X86192500Y-83710000D01*
X86432500Y-84040000D01*
G37*
%TO.C,C31*%
X100298733Y-71615000D02*
X100591267Y-71615000D01*
X100298733Y-72635000D02*
X100591267Y-72635000D01*
%TO.C,TP9*%
X113200000Y-74700000D02*
G75*
G02*
X111800000Y-74700000I-700000J0D01*
G01*
X111800000Y-74700000D02*
G75*
G02*
X113200000Y-74700000I700000J0D01*
G01*
%TO.C,D6*%
X88965000Y-84815000D02*
X88965000Y-87275000D01*
X90435000Y-84815000D02*
X88965000Y-84815000D01*
X90435000Y-87275000D02*
X90435000Y-84815000D01*
D15*
%TO.C,LED12*%
X140745000Y-108475000D02*
X140745000Y-110175000D01*
X140745000Y-110175000D02*
X144745000Y-110175000D01*
X141042000Y-108475000D02*
X140745000Y-108475000D01*
X144745000Y-108475000D02*
X144448000Y-108475000D01*
X144745000Y-110175000D02*
X144745000Y-108475000D01*
D16*
X141475000Y-110185000D02*
X140725000Y-110185000D01*
X140725000Y-109435000D01*
X141475000Y-110185000D01*
G36*
X141475000Y-110185000D02*
G01*
X140725000Y-110185000D01*
X140725000Y-109435000D01*
X141475000Y-110185000D01*
G37*
X141475000Y-110185000D02*
X140725000Y-110185000D01*
X140725000Y-109435000D01*
X141475000Y-110185000D01*
G36*
X141475000Y-110185000D02*
G01*
X140725000Y-110185000D01*
X140725000Y-109435000D01*
X141475000Y-110185000D01*
G37*
%TO.C,FB1*%
X94461252Y-75965000D02*
X93938748Y-75965000D01*
X94461252Y-77435000D02*
X93938748Y-77435000D01*
D15*
%TO.C,LED10*%
X139685000Y-68875000D02*
X139685000Y-70575000D01*
X139685000Y-70575000D02*
X139982000Y-70575000D01*
X143388000Y-70575000D02*
X143685000Y-70575000D01*
X143685000Y-68875000D02*
X139685000Y-68875000D01*
X143685000Y-70575000D02*
X143685000Y-68875000D01*
D16*
X143705000Y-69615000D02*
X142955000Y-68865000D01*
X143705000Y-68865000D01*
X143705000Y-69615000D01*
G36*
X143705000Y-69615000D02*
G01*
X142955000Y-68865000D01*
X143705000Y-68865000D01*
X143705000Y-69615000D01*
G37*
X143705000Y-69615000D02*
X142955000Y-68865000D01*
X143705000Y-68865000D01*
X143705000Y-69615000D01*
G36*
X143705000Y-69615000D02*
G01*
X142955000Y-68865000D01*
X143705000Y-68865000D01*
X143705000Y-69615000D01*
G37*
%TO.C,R6*%
X91745276Y-104777500D02*
X92254724Y-104777500D01*
X91745276Y-105822500D02*
X92254724Y-105822500D01*
%TO.C,C30*%
X122318733Y-71515000D02*
X122611267Y-71515000D01*
X122318733Y-72535000D02*
X122611267Y-72535000D01*
D15*
%TO.C,LED1*%
X120105000Y-68775000D02*
X120105000Y-70475000D01*
X120105000Y-70475000D02*
X120402000Y-70475000D01*
X123808000Y-70475000D02*
X124105000Y-70475000D01*
X124105000Y-68775000D02*
X120105000Y-68775000D01*
X124105000Y-70475000D02*
X124105000Y-68775000D01*
D16*
X124125000Y-69515000D02*
X123375000Y-68765000D01*
X124125000Y-68765000D01*
X124125000Y-69515000D01*
G36*
X124125000Y-69515000D02*
G01*
X123375000Y-68765000D01*
X124125000Y-68765000D01*
X124125000Y-69515000D01*
G37*
X124125000Y-69515000D02*
X123375000Y-68765000D01*
X124125000Y-68765000D01*
X124125000Y-69515000D01*
G36*
X124125000Y-69515000D02*
G01*
X123375000Y-68765000D01*
X124125000Y-68765000D01*
X124125000Y-69515000D01*
G37*
%TO.C,R3*%
X145202500Y-79279724D02*
X145202500Y-78770276D01*
X146247500Y-79279724D02*
X146247500Y-78770276D01*
%TO.C,R16*%
X90877500Y-86742224D02*
X90877500Y-86232776D01*
X91922500Y-86742224D02*
X91922500Y-86232776D01*
%TO.C,SW3*%
X117250000Y-82900000D02*
X120550000Y-82900000D01*
X117250000Y-83200000D02*
X117250000Y-82900000D01*
X117250000Y-85400000D02*
X117250000Y-85700000D01*
X117250000Y-85700000D02*
X120550000Y-85700000D01*
X120550000Y-82900000D02*
X120550000Y-83200000D01*
X120550000Y-85700000D02*
X120550000Y-85400000D01*
%TO.C,R10*%
X127077500Y-88242224D02*
X127077500Y-87732776D01*
X128122500Y-88242224D02*
X128122500Y-87732776D01*
D17*
%TO.C,J3*%
X103100000Y-81331000D02*
X103100000Y-83712000D01*
X103100000Y-83712000D02*
X104169000Y-83712000D01*
X110169000Y-79250000D02*
X104231000Y-79250000D01*
X111300000Y-81331000D02*
X111300000Y-83712000D01*
X111300000Y-83712000D02*
X110231000Y-83712000D01*
D16*
X104120000Y-84474000D02*
X103739000Y-84728000D01*
X103739000Y-84220000D01*
X104120000Y-84474000D01*
G36*
X104120000Y-84474000D02*
G01*
X103739000Y-84728000D01*
X103739000Y-84220000D01*
X104120000Y-84474000D01*
G37*
D15*
%TO.C,LED6*%
X80108250Y-108215000D02*
X80108250Y-109915000D01*
X80108250Y-109915000D02*
X84108250Y-109915000D01*
X80405250Y-108215000D02*
X80108250Y-108215000D01*
X84108250Y-108215000D02*
X83811250Y-108215000D01*
X84108250Y-109915000D02*
X84108250Y-108215000D01*
D16*
X80838250Y-109925000D02*
X80088250Y-109925000D01*
X80088250Y-109175000D01*
X80838250Y-109925000D01*
G36*
X80838250Y-109925000D02*
G01*
X80088250Y-109925000D01*
X80088250Y-109175000D01*
X80838250Y-109925000D01*
G37*
X80838250Y-109925000D02*
X80088250Y-109925000D01*
X80088250Y-109175000D01*
X80838250Y-109925000D01*
G36*
X80838250Y-109925000D02*
G01*
X80088250Y-109925000D01*
X80088250Y-109175000D01*
X80838250Y-109925000D01*
G37*
D15*
%TO.C,LED2*%
X98005000Y-68875000D02*
X98005000Y-70575000D01*
X98005000Y-70575000D02*
X98302000Y-70575000D01*
X101708000Y-70575000D02*
X102005000Y-70575000D01*
X102005000Y-68875000D02*
X98005000Y-68875000D01*
X102005000Y-70575000D02*
X102005000Y-68875000D01*
D16*
X102025000Y-69615000D02*
X101275000Y-68865000D01*
X102025000Y-68865000D01*
X102025000Y-69615000D01*
G36*
X102025000Y-69615000D02*
G01*
X101275000Y-68865000D01*
X102025000Y-68865000D01*
X102025000Y-69615000D01*
G37*
X102025000Y-69615000D02*
X101275000Y-68865000D01*
X102025000Y-68865000D01*
X102025000Y-69615000D01*
G36*
X102025000Y-69615000D02*
G01*
X101275000Y-68865000D01*
X102025000Y-68865000D01*
X102025000Y-69615000D01*
G37*
%TO.C,R5*%
X73477500Y-105157776D02*
X73477500Y-105667224D01*
X74522500Y-105157776D02*
X74522500Y-105667224D01*
D18*
%TO.C,U2*%
X135979000Y-90089000D02*
X139021000Y-90089000D01*
X135979000Y-95241000D02*
X135979000Y-90089000D01*
X139021000Y-90089000D02*
X139021000Y-95241000D01*
X139021000Y-95241000D02*
X135979000Y-95241000D01*
D11*
X134968000Y-95337000D02*
G75*
G02*
X134668000Y-95337000I-150000J0D01*
G01*
X134668000Y-95337000D02*
G75*
G02*
X134968000Y-95337000I150000J0D01*
G01*
X136634000Y-94824000D02*
G75*
G02*
X136334000Y-94824000I-150000J0D01*
G01*
X136334000Y-94824000D02*
G75*
G02*
X136634000Y-94824000I150000J0D01*
G01*
D16*
%TO.C,C33*%
X67415000Y-79031267D02*
X67415000Y-78738733D01*
X68435000Y-79031267D02*
X68435000Y-78738733D01*
%TO.C,R18*%
X131754724Y-90002500D02*
X131245276Y-90002500D01*
X131754724Y-91047500D02*
X131245276Y-91047500D01*
%TO.C,R7*%
X87879724Y-105152500D02*
X87370276Y-105152500D01*
X87879724Y-106197500D02*
X87370276Y-106197500D01*
%TO.C,R11*%
X84977500Y-86545276D02*
X84977500Y-87054724D01*
X86022500Y-86545276D02*
X86022500Y-87054724D01*
%TO.C,R14*%
X125327500Y-91270276D02*
X125327500Y-91779724D01*
X126372500Y-91270276D02*
X126372500Y-91779724D01*
%TO.C,C36*%
X99351267Y-105935000D02*
X99058733Y-105935000D01*
X99351267Y-106955000D02*
X99058733Y-106955000D01*
%TO.C,C34*%
X67415000Y-99891267D02*
X67415000Y-99598733D01*
X68435000Y-99891267D02*
X68435000Y-99598733D01*
%TO.C,C11*%
X122262017Y-106155000D02*
X121969483Y-106155000D01*
X122262017Y-107175000D02*
X121969483Y-107175000D01*
D17*
%TO.C,J1*%
X149000000Y-85977000D02*
X149000000Y-86049000D01*
X149000000Y-92911000D02*
X149000000Y-92983000D01*
X150467000Y-85010000D02*
X152133000Y-85010000D01*
X150467000Y-93950000D02*
X152133000Y-93950000D01*
X154267000Y-85010000D02*
X155800000Y-85010000D01*
X154267000Y-93950000D02*
X155800000Y-93950000D01*
X155800000Y-93950000D02*
X155800000Y-85010000D01*
D16*
%TO.C,J2*%
X78450000Y-92000000D02*
G75*
G02*
X73950000Y-92000000I-2250000J0D01*
G01*
X73950000Y-92000000D02*
G75*
G02*
X78450000Y-92000000I2250000J0D01*
G01*
%TO.C,R1*%
X143702500Y-91692224D02*
X143702500Y-91182776D01*
X144747500Y-91692224D02*
X144747500Y-91182776D01*
D15*
%TO.C,LED4*%
X64675000Y-77285000D02*
X64675000Y-81285000D01*
X64675000Y-81285000D02*
X66375000Y-81285000D01*
X66375000Y-77285000D02*
X64675000Y-77285000D01*
X66375000Y-77582000D02*
X66375000Y-77285000D01*
X66375000Y-81285000D02*
X66375000Y-80988000D01*
D16*
X64665000Y-78015000D02*
X64665000Y-77265000D01*
X65415000Y-77265000D01*
X64665000Y-78015000D01*
G36*
X64665000Y-78015000D02*
G01*
X64665000Y-77265000D01*
X65415000Y-77265000D01*
X64665000Y-78015000D01*
G37*
X64665000Y-78015000D02*
X64665000Y-77265000D01*
X65415000Y-77265000D01*
X64665000Y-78015000D01*
G36*
X64665000Y-78015000D02*
G01*
X64665000Y-77265000D01*
X65415000Y-77265000D01*
X64665000Y-78015000D01*
G37*
D19*
%TO.C,U1*%
X102235500Y-90100000D02*
X102235500Y-90346000D01*
X102235500Y-91654000D02*
X102235500Y-91846000D01*
X102235500Y-93154000D02*
X102235500Y-93346000D01*
X102235500Y-94654000D02*
X102235500Y-94846000D01*
X102235500Y-96154000D02*
X102235500Y-96346000D01*
X102235500Y-97654000D02*
X102235500Y-97846000D01*
X102235500Y-99154000D02*
X102235500Y-99346000D01*
X102235500Y-100654000D02*
X102235500Y-100846000D01*
X102235500Y-102154000D02*
X102235500Y-102346000D01*
X102235500Y-103654000D02*
X102235500Y-110100000D01*
X102235500Y-110100000D02*
X120235500Y-110100000D01*
X120235500Y-90100000D02*
X102235500Y-90100000D01*
X120235500Y-90346000D02*
X120235500Y-90100000D01*
X120235500Y-91846000D02*
X120235500Y-91654000D01*
X120235500Y-93346000D02*
X120235500Y-93154000D01*
X120235500Y-94846000D02*
X120235500Y-94654000D01*
X120235500Y-96346000D02*
X120235500Y-96154000D01*
X120235500Y-97846000D02*
X120235500Y-97654000D01*
X120235500Y-99346000D02*
X120235500Y-99154000D01*
X120235500Y-100846000D02*
X120235500Y-100654000D01*
X120235500Y-102346000D02*
X120235500Y-102154000D01*
X120235500Y-104100000D02*
X102235500Y-104100000D01*
X120235500Y-110100000D02*
X120235500Y-103654000D01*
D20*
X101706500Y-104366000D02*
G75*
G02*
X101206500Y-104366000I-250000J0D01*
G01*
X101206500Y-104366000D02*
G75*
G02*
X101706500Y-104366000I250000J0D01*
G01*
D15*
%TO.C,LED3*%
X80065000Y-68875000D02*
X80065000Y-70575000D01*
X80065000Y-70575000D02*
X80362000Y-70575000D01*
X83768000Y-70575000D02*
X84065000Y-70575000D01*
X84065000Y-68875000D02*
X80065000Y-68875000D01*
X84065000Y-70575000D02*
X84065000Y-68875000D01*
D16*
X84085000Y-69615000D02*
X83335000Y-68865000D01*
X84085000Y-68865000D01*
X84085000Y-69615000D01*
G36*
X84085000Y-69615000D02*
G01*
X83335000Y-68865000D01*
X84085000Y-68865000D01*
X84085000Y-69615000D01*
G37*
X84085000Y-69615000D02*
X83335000Y-68865000D01*
X84085000Y-68865000D01*
X84085000Y-69615000D01*
G36*
X84085000Y-69615000D02*
G01*
X83335000Y-68865000D01*
X84085000Y-68865000D01*
X84085000Y-69615000D01*
G37*
%TO.C,TP11*%
X133000000Y-87000000D02*
G75*
G02*
X131600000Y-87000000I-700000J0D01*
G01*
X131600000Y-87000000D02*
G75*
G02*
X133000000Y-87000000I700000J0D01*
G01*
D17*
%TO.C,U5*%
X85444000Y-93650000D02*
X85444000Y-98242000D01*
X87577000Y-91709000D02*
X91972000Y-91745000D01*
X87584000Y-100274000D02*
X91826000Y-100249000D01*
X91972000Y-91745000D02*
X92088000Y-91951000D01*
X92607000Y-98175000D02*
X92607000Y-97159000D01*
X93165000Y-97692000D02*
X92073000Y-97692000D01*
X93623000Y-93577000D02*
X93961000Y-93727000D01*
X93961000Y-93727000D02*
X93974000Y-98166000D01*
D16*
%TO.C,C35*%
X81908767Y-105915000D02*
X81616233Y-105915000D01*
X81908767Y-106935000D02*
X81616233Y-106935000D01*
%TO.C,C6*%
X151653733Y-82090000D02*
X151946267Y-82090000D01*
X151653733Y-83110000D02*
X151946267Y-83110000D01*
%TO.C,TP1*%
X114100000Y-77900000D02*
G75*
G02*
X112700000Y-77900000I-700000J0D01*
G01*
X112700000Y-77900000D02*
G75*
G02*
X114100000Y-77900000I700000J0D01*
G01*
%TO.C,C27*%
X141990000Y-94646267D02*
X141990000Y-94353733D01*
X143010000Y-94646267D02*
X143010000Y-94353733D01*
%TO.C,R13*%
X71477500Y-72754724D02*
X71477500Y-72245276D01*
X72522500Y-72754724D02*
X72522500Y-72245276D01*
%TO.C,TP7*%
X85100000Y-75200000D02*
G75*
G02*
X83700000Y-75200000I-700000J0D01*
G01*
X83700000Y-75200000D02*
G75*
G02*
X85100000Y-75200000I700000J0D01*
G01*
%TO.C,J5*%
X78250000Y-97800000D02*
G75*
G02*
X73750000Y-97800000I-2250000J0D01*
G01*
X73750000Y-97800000D02*
G75*
G02*
X78250000Y-97800000I2250000J0D01*
G01*
%TO.C,C12*%
X97465000Y-101638748D02*
X97465000Y-102161252D01*
X98935000Y-101638748D02*
X98935000Y-102161252D01*
%TO.C,C28*%
X145190000Y-86738748D02*
X145190000Y-87261252D01*
X146660000Y-86738748D02*
X146660000Y-87261252D01*
%TO.C,C32*%
X82498733Y-71415000D02*
X82791267Y-71415000D01*
X82498733Y-72435000D02*
X82791267Y-72435000D01*
%TO.C,C16*%
X99490000Y-98153733D02*
X99490000Y-98446267D01*
X100510000Y-98153733D02*
X100510000Y-98446267D01*
%TO.C,U7*%
X92740000Y-81200000D02*
X92740000Y-82000000D01*
X92740000Y-82800000D02*
X92740000Y-82000000D01*
X95860000Y-81200000D02*
X95860000Y-82000000D01*
X95860000Y-82800000D02*
X95860000Y-82000000D01*
X92790000Y-80700000D02*
X92460000Y-80940000D01*
X92460000Y-80460000D01*
X92790000Y-80700000D01*
G36*
X92790000Y-80700000D02*
G01*
X92460000Y-80940000D01*
X92460000Y-80460000D01*
X92790000Y-80700000D01*
G37*
%TO.C,C13*%
X99490000Y-101853733D02*
X99490000Y-102146267D01*
X100510000Y-101853733D02*
X100510000Y-102146267D01*
%TO.C,C3*%
X82590000Y-78928733D02*
X82590000Y-79221267D01*
X83610000Y-78928733D02*
X83610000Y-79221267D01*
%TO.C,R15*%
X144254724Y-101477500D02*
X143745276Y-101477500D01*
X144254724Y-102522500D02*
X143745276Y-102522500D01*
%TO.C,C9*%
X94496267Y-78427500D02*
X94203733Y-78427500D01*
X94496267Y-79447500D02*
X94203733Y-79447500D01*
%TO.C,C40*%
X131038748Y-91890000D02*
X131561252Y-91890000D01*
X131038748Y-93360000D02*
X131561252Y-93360000D01*
%TO.C,C29*%
X145486252Y-93790000D02*
X144963748Y-93790000D01*
X145486252Y-95260000D02*
X144963748Y-95260000D01*
%TO.C,C15*%
X94496267Y-84527500D02*
X94203733Y-84527500D01*
X94496267Y-85547500D02*
X94203733Y-85547500D01*
D15*
%TO.C,LED9*%
X152375000Y-77665000D02*
X152375000Y-77962000D01*
X152375000Y-81368000D02*
X152375000Y-81665000D01*
X152375000Y-81665000D02*
X154075000Y-81665000D01*
X154075000Y-77665000D02*
X152375000Y-77665000D01*
X154075000Y-81665000D02*
X154075000Y-77665000D01*
D16*
X154085000Y-81685000D02*
X153335000Y-81685000D01*
X154085000Y-80935000D01*
X154085000Y-81685000D01*
G36*
X154085000Y-81685000D02*
G01*
X153335000Y-81685000D01*
X154085000Y-80935000D01*
X154085000Y-81685000D01*
G37*
X154085000Y-81685000D02*
X153335000Y-81685000D01*
X154085000Y-80935000D01*
X154085000Y-81685000D01*
G36*
X154085000Y-81685000D02*
G01*
X153335000Y-81685000D01*
X154085000Y-80935000D01*
X154085000Y-81685000D01*
G37*
%TO.C,C17*%
X142431267Y-106415000D02*
X142138733Y-106415000D01*
X142431267Y-107435000D02*
X142138733Y-107435000D01*
D18*
%TO.C,Q2*%
X81689000Y-85314000D02*
X83441000Y-85314000D01*
X81689000Y-86355000D02*
X81689000Y-85314000D01*
X81689000Y-87345000D02*
X81689000Y-88386000D01*
X81689000Y-88386000D02*
X83441000Y-88386000D01*
X83441000Y-86395000D02*
X83441000Y-87305000D01*
D16*
%TO.C,C10*%
X137761252Y-96265000D02*
X137238748Y-96265000D01*
X137761252Y-97735000D02*
X137238748Y-97735000D01*
%TO.C,R12*%
X97977500Y-98045276D02*
X97977500Y-98554724D01*
X99022500Y-98045276D02*
X99022500Y-98554724D01*
%TO.C,C2*%
X87465000Y-76738748D02*
X87465000Y-77261252D01*
X88935000Y-76738748D02*
X88935000Y-77261252D01*
D15*
%TO.C,LED7*%
X97610000Y-108350000D02*
X97610000Y-110050000D01*
X97610000Y-110050000D02*
X101610000Y-110050000D01*
X97907000Y-108350000D02*
X97610000Y-108350000D01*
X101610000Y-108350000D02*
X101313000Y-108350000D01*
X101610000Y-110050000D02*
X101610000Y-108350000D01*
D16*
X98340000Y-110060000D02*
X97590000Y-110060000D01*
X97590000Y-109310000D01*
X98340000Y-110060000D01*
G36*
X98340000Y-110060000D02*
G01*
X97590000Y-110060000D01*
X97590000Y-109310000D01*
X98340000Y-110060000D01*
G37*
X98340000Y-110060000D02*
X97590000Y-110060000D01*
X97590000Y-109310000D01*
X98340000Y-110060000D01*
G36*
X98340000Y-110060000D02*
G01*
X97590000Y-110060000D01*
X97590000Y-109310000D01*
X98340000Y-110060000D01*
G37*
%TO.C,C4*%
X80465000Y-78576248D02*
X80465000Y-79098752D01*
X81935000Y-78576248D02*
X81935000Y-79098752D01*
%TO.C,C1*%
X89590000Y-77116233D02*
X89590000Y-77408767D01*
X90610000Y-77116233D02*
X90610000Y-77408767D01*
D15*
%TO.C,LED11*%
X120633250Y-108215000D02*
X120633250Y-109915000D01*
X120633250Y-109915000D02*
X124633250Y-109915000D01*
X120930250Y-108215000D02*
X120633250Y-108215000D01*
X124633250Y-108215000D02*
X124336250Y-108215000D01*
X124633250Y-109915000D02*
X124633250Y-108215000D01*
D16*
X121363250Y-109925000D02*
X120613250Y-109925000D01*
X120613250Y-109175000D01*
X121363250Y-109925000D01*
G36*
X121363250Y-109925000D02*
G01*
X120613250Y-109925000D01*
X120613250Y-109175000D01*
X121363250Y-109925000D01*
G37*
X121363250Y-109925000D02*
X120613250Y-109925000D01*
X120613250Y-109175000D01*
X121363250Y-109925000D01*
G36*
X121363250Y-109925000D02*
G01*
X120613250Y-109925000D01*
X120613250Y-109175000D01*
X121363250Y-109925000D01*
G37*
D15*
%TO.C,D7*%
X80474000Y-82474000D02*
X80474000Y-83926000D01*
X81505000Y-82474000D02*
X80474000Y-82474000D01*
X82455000Y-83926000D02*
X81545000Y-83926000D01*
X82495000Y-82474000D02*
X83526000Y-82474000D01*
X83526000Y-82474000D02*
X83526000Y-83926000D01*
D16*
%TO.C,C14*%
X141978733Y-71815000D02*
X142271267Y-71815000D01*
X141978733Y-72835000D02*
X142271267Y-72835000D01*
%TO.C,D5*%
X90250000Y-101600000D02*
X94260000Y-101600000D01*
X90250000Y-103600000D02*
X94260000Y-103600000D01*
X94260000Y-103600000D02*
X94260000Y-101600000D01*
%TO.C,R4*%
X99777500Y-92545276D02*
X99777500Y-93054724D01*
X100822500Y-92545276D02*
X100822500Y-93054724D01*
%TO.C,R2*%
X145602500Y-91170276D02*
X145602500Y-91679724D01*
X146647500Y-91170276D02*
X146647500Y-91679724D01*
%TO.C,C26*%
X132965000Y-97661252D02*
X132965000Y-97138748D01*
X134435000Y-97661252D02*
X134435000Y-97138748D01*
%TO.C,C5*%
X150475000Y-100944483D02*
X150475000Y-101237017D01*
X151495000Y-100944483D02*
X151495000Y-101237017D01*
%TO.C,R9*%
X127077500Y-91742224D02*
X127077500Y-91232776D01*
X128122500Y-91742224D02*
X128122500Y-91232776D01*
D15*
%TO.C,LED5*%
X64675000Y-98385000D02*
X64675000Y-102385000D01*
X64675000Y-102385000D02*
X66375000Y-102385000D01*
X66375000Y-98385000D02*
X64675000Y-98385000D01*
X66375000Y-98682000D02*
X66375000Y-98385000D01*
X66375000Y-102385000D02*
X66375000Y-102088000D01*
D16*
X64665000Y-99115000D02*
X64665000Y-98365000D01*
X65415000Y-98365000D01*
X64665000Y-99115000D01*
G36*
X64665000Y-99115000D02*
G01*
X64665000Y-98365000D01*
X65415000Y-98365000D01*
X64665000Y-99115000D01*
G37*
X64665000Y-99115000D02*
X64665000Y-98365000D01*
X65415000Y-98365000D01*
X64665000Y-99115000D01*
G36*
X64665000Y-99115000D02*
G01*
X64665000Y-98365000D01*
X65415000Y-98365000D01*
X64665000Y-99115000D01*
G37*
D18*
%TO.C,Q5*%
X85864000Y-101824000D02*
X85864000Y-103576000D01*
X86905000Y-101824000D02*
X85864000Y-101824000D01*
X87855000Y-103576000D02*
X86945000Y-103576000D01*
X87895000Y-101824000D02*
X88936000Y-101824000D01*
X88936000Y-101824000D02*
X88936000Y-103576000D01*
D16*
%TO.C,C37*%
X125390000Y-87841233D02*
X125390000Y-88133767D01*
X126410000Y-87841233D02*
X126410000Y-88133767D01*
%TO.C,Q1*%
X71547500Y-85470000D02*
X71547500Y-79050000D01*
X71817500Y-85470000D02*
X71547500Y-85470000D01*
X78177500Y-85470000D02*
X78447500Y-85470000D01*
X78447500Y-85470000D02*
X78447500Y-79050000D01*
X78467500Y-87130000D02*
X78137500Y-86890000D01*
X78467500Y-86650000D01*
X78467500Y-87130000D01*
G36*
X78467500Y-87130000D02*
G01*
X78137500Y-86890000D01*
X78467500Y-86650000D01*
X78467500Y-87130000D01*
G37*
%TO.C,L2*%
X138500000Y-85150000D02*
X144500000Y-85150000D01*
X138500000Y-89350000D02*
X144500000Y-89350000D01*
%TO.C,R8*%
X79077500Y-87154724D02*
X79077500Y-86645276D01*
X80122500Y-87154724D02*
X80122500Y-86645276D01*
%TD*%
M02*
