%TF.GenerationSoftware,KiCad,Pcbnew,8.0.2*%
%TF.CreationDate,2024-06-01T23:05:54+08:00*%
%TF.ProjectId,bat_rf,6261745f-7266-42e6-9b69-6361645f7063,rev?*%
%TF.SameCoordinates,Original*%
%TF.FileFunction,Soldermask,Bot*%
%TF.FilePolarity,Negative*%
%FSLAX46Y46*%
G04 Gerber Fmt 4.6, Leading zero omitted, Abs format (unit mm)*
G04 Created by KiCad (PCBNEW 8.0.2) date 2024-06-01 23:05:54*
%MOMM*%
%LPD*%
G01*
G04 APERTURE LIST*
G04 Aperture macros list*
%AMRoundRect*
0 Rectangle with rounded corners*
0 $1 Rounding radius*
0 $2 $3 $4 $5 $6 $7 $8 $9 X,Y pos of 4 corners*
0 Add a 4 corners polygon primitive as box body*
4,1,4,$2,$3,$4,$5,$6,$7,$8,$9,$2,$3,0*
0 Add four circle primitives for the rounded corners*
1,1,$1+$1,$2,$3*
1,1,$1+$1,$4,$5*
1,1,$1+$1,$6,$7*
1,1,$1+$1,$8,$9*
0 Add four rect primitives between the rounded corners*
20,1,$1+$1,$2,$3,$4,$5,0*
20,1,$1+$1,$4,$5,$6,$7,0*
20,1,$1+$1,$6,$7,$8,$9,0*
20,1,$1+$1,$8,$9,$2,$3,0*%
G04 Aperture macros list end*
%ADD10R,0.400000X1.500000*%
%ADD11R,2.000000X2.400000*%
%ADD12RoundRect,0.237500X-0.237500X0.300000X-0.237500X-0.300000X0.237500X-0.300000X0.237500X0.300000X0*%
%ADD13C,1.800000*%
%ADD14C,4.400000*%
%ADD15RoundRect,0.237500X-0.250000X-0.237500X0.250000X-0.237500X0.250000X0.237500X-0.250000X0.237500X0*%
%ADD16R,1.200000X0.550000*%
%ADD17RoundRect,0.225000X-0.375000X0.225000X-0.375000X-0.225000X0.375000X-0.225000X0.375000X0.225000X0*%
%ADD18RoundRect,0.237500X0.237500X-0.250000X0.237500X0.250000X-0.237500X0.250000X-0.237500X-0.250000X0*%
%ADD19RoundRect,0.237500X0.300000X0.237500X-0.300000X0.237500X-0.300000X-0.237500X0.300000X-0.237500X0*%
%ADD20C,1.000000*%
%ADD21R,0.550000X1.200000*%
%ADD22RoundRect,0.237500X0.237500X-0.300000X0.237500X0.300000X-0.237500X0.300000X-0.237500X-0.300000X0*%
%ADD23RoundRect,0.237500X0.250000X0.237500X-0.250000X0.237500X-0.250000X-0.237500X0.250000X-0.237500X0*%
%ADD24RoundRect,0.237500X0.237500X-0.287500X0.237500X0.287500X-0.237500X0.287500X-0.237500X-0.287500X0*%
%ADD25RoundRect,0.237500X-0.237500X0.250000X-0.237500X-0.250000X0.237500X-0.250000X0.237500X0.250000X0*%
%ADD26R,1.530000X1.360000*%
%ADD27R,1.200000X2.000000*%
%ADD28R,0.600000X1.600000*%
%ADD29R,0.532000X1.072000*%
%ADD30RoundRect,0.237500X-0.300000X-0.237500X0.300000X-0.237500X0.300000X0.237500X-0.300000X0.237500X0*%
%ADD31O,1.865000X0.630000*%
%ADD32R,2.200000X3.100000*%
%ADD33RoundRect,0.250000X0.337500X0.475000X-0.337500X0.475000X-0.337500X-0.475000X0.337500X-0.475000X0*%
%ADD34R,2.500000X1.500000*%
%ADD35RoundRect,0.225000X0.375000X-0.225000X0.375000X0.225000X-0.375000X0.225000X-0.375000X-0.225000X0*%
%ADD36R,1.200000X0.900000*%
%ADD37R,1.200000X0.800000*%
%ADD38R,1.200000X0.700000*%
%ADD39O,1.700000X1.200000*%
%ADD40O,5.000000X4.000000*%
%ADD41R,2.000000X1.000000*%
%ADD42R,0.700000X0.700000*%
%ADD43R,2.200000X2.200000*%
%ADD44RoundRect,0.250000X0.475000X-0.337500X0.475000X0.337500X-0.475000X0.337500X-0.475000X-0.337500X0*%
%ADD45RoundRect,0.250000X-0.337500X-0.475000X0.337500X-0.475000X0.337500X0.475000X-0.337500X0.475000X0*%
%ADD46R,0.700000X0.450000*%
%ADD47R,2.200000X2.600000*%
%ADD48RoundRect,0.225000X0.225000X0.375000X-0.225000X0.375000X-0.225000X-0.375000X0.225000X-0.375000X0*%
%ADD49RoundRect,0.250000X-0.475000X0.337500X-0.475000X-0.337500X0.475000X-0.337500X0.475000X0.337500X0*%
%ADD50R,0.600000X1.070000*%
%ADD51RoundRect,0.150000X0.150000X-0.512500X0.150000X0.512500X-0.150000X0.512500X-0.150000X-0.512500X0*%
%ADD52R,2.200000X3.900000*%
%ADD53R,1.250000X0.700000*%
G04 APERTURE END LIST*
D10*
%TO.C,P1*%
X125550000Y-80014000D03*
X125050000Y-77986000D03*
X124550000Y-80014000D03*
X124050000Y-77986000D03*
D11*
X122237000Y-79001000D03*
X127363000Y-78992000D03*
%TD*%
D12*
%TO.C,C8*%
X88900000Y-86212500D03*
X88900000Y-87937500D03*
%TD*%
%TO.C,C7*%
X87390000Y-86212500D03*
X87390000Y-87937500D03*
%TD*%
%TO.C,C4*%
X85900000Y-86237500D03*
X85900000Y-87962500D03*
%TD*%
D13*
%TO.C,BT1*%
X145430000Y-106700000D03*
%TD*%
D14*
%TO.C,H3*%
X67025000Y-107625000D03*
%TD*%
%TO.C,H4*%
X67025000Y-71225000D03*
%TD*%
%TO.C,H1*%
X151725000Y-71225000D03*
%TD*%
%TO.C,H2*%
X151725000Y-107625000D03*
%TD*%
D15*
%TO.C,R22*%
X82575000Y-85600000D03*
X84400000Y-85600000D03*
%TD*%
D16*
%TO.C,LED8*%
X152925000Y-102005000D03*
X152925000Y-101165000D03*
X152925000Y-100325000D03*
X152925000Y-99485000D03*
%TD*%
D17*
%TO.C,D1*%
X79100000Y-85350000D03*
X79100000Y-88650000D03*
%TD*%
D18*
%TO.C,R17*%
X84800000Y-105812500D03*
X84800000Y-103987500D03*
%TD*%
D19*
%TO.C,C31*%
X101307500Y-72125000D03*
X99582500Y-72125000D03*
%TD*%
D20*
%TO.C,TP9*%
X101700000Y-81200000D03*
%TD*%
D18*
%TO.C,R16*%
X95800000Y-78700000D03*
X95800000Y-76875000D03*
%TD*%
D21*
%TO.C,LED12*%
X141485000Y-108925000D03*
X142325000Y-108925000D03*
X143165000Y-108925000D03*
X144005000Y-108925000D03*
%TD*%
D22*
%TO.C,C18*%
X85600000Y-82262500D03*
X85600000Y-80537500D03*
%TD*%
D21*
%TO.C,LED10*%
X142945000Y-70125000D03*
X142105000Y-70125000D03*
X141265000Y-70125000D03*
X140425000Y-70125000D03*
%TD*%
D23*
%TO.C,R6*%
X92912500Y-105300000D03*
X91087500Y-105300000D03*
%TD*%
D19*
%TO.C,C30*%
X123327500Y-72025000D03*
X121602500Y-72025000D03*
%TD*%
D21*
%TO.C,LED1*%
X123365000Y-70025000D03*
X122525000Y-70025000D03*
X121685000Y-70025000D03*
X120845000Y-70025000D03*
%TD*%
D24*
%TO.C,D6*%
X94250000Y-78655000D03*
X94250000Y-76905000D03*
%TD*%
D25*
%TO.C,R3*%
X145725000Y-78112500D03*
X145725000Y-79937500D03*
%TD*%
D26*
%TO.C,SW3*%
X115035000Y-82300000D03*
X110965000Y-82300000D03*
%TD*%
D25*
%TO.C,R10*%
X127600000Y-87075000D03*
X127600000Y-88900000D03*
%TD*%
D27*
%TO.C,J3*%
X107800000Y-69800000D03*
X115400000Y-69800000D03*
D28*
X114100000Y-73800000D03*
X113100000Y-73800000D03*
X112100000Y-73800000D03*
X111100000Y-73800000D03*
X110100000Y-73800000D03*
X109100000Y-73800000D03*
%TD*%
D21*
%TO.C,LED6*%
X80848250Y-108665000D03*
X81688250Y-108665000D03*
X82528250Y-108665000D03*
X83368250Y-108665000D03*
%TD*%
D29*
%TO.C,U3*%
X84200000Y-82600000D03*
X83250000Y-82600000D03*
X82300000Y-82600000D03*
X82300000Y-80302000D03*
X83250000Y-80302000D03*
X84200000Y-80302000D03*
%TD*%
D30*
%TO.C,C2*%
X83637500Y-77100000D03*
X85362500Y-77100000D03*
%TD*%
D21*
%TO.C,LED2*%
X101265000Y-70125000D03*
X100425000Y-70125000D03*
X99585000Y-70125000D03*
X98745000Y-70125000D03*
%TD*%
D18*
%TO.C,R5*%
X74000000Y-106325000D03*
X74000000Y-104500000D03*
%TD*%
D31*
%TO.C,U2*%
X134818000Y-94570000D03*
X134818000Y-93300000D03*
X134818000Y-92030000D03*
X134818000Y-90760000D03*
X140182000Y-90760000D03*
X140182000Y-92030000D03*
X140182000Y-93300000D03*
X140182000Y-94570000D03*
D32*
X137500000Y-92665000D03*
%TD*%
D33*
%TO.C,FB1*%
X90437500Y-77800000D03*
X88362500Y-77800000D03*
%TD*%
D12*
%TO.C,C33*%
X67925000Y-78022500D03*
X67925000Y-79747500D03*
%TD*%
D34*
%TO.C,L1*%
X88800000Y-80650000D03*
X88800000Y-84350000D03*
%TD*%
D25*
%TO.C,R8*%
X73000000Y-79800000D03*
X73000000Y-81625000D03*
%TD*%
D15*
%TO.C,R18*%
X130587500Y-90525000D03*
X132412500Y-90525000D03*
%TD*%
%TO.C,R7*%
X86712500Y-105675000D03*
X88537500Y-105675000D03*
%TD*%
D18*
%TO.C,R14*%
X125850000Y-92437500D03*
X125850000Y-90612500D03*
%TD*%
D30*
%TO.C,C36*%
X98342500Y-106445000D03*
X100067500Y-106445000D03*
%TD*%
D35*
%TO.C,D7*%
X79000000Y-83650000D03*
X79000000Y-80350000D03*
%TD*%
D12*
%TO.C,C34*%
X67925000Y-98882500D03*
X67925000Y-100607500D03*
%TD*%
D30*
%TO.C,C11*%
X121253250Y-106665000D03*
X122978250Y-106665000D03*
%TD*%
D36*
%TO.C,J1*%
X149420000Y-86730000D03*
D37*
X149420000Y-87960000D03*
D38*
X149420000Y-89980000D03*
D36*
X149420000Y-92230000D03*
D37*
X149420000Y-91000000D03*
D38*
X149420000Y-88980000D03*
D39*
X153200000Y-93800000D03*
X153200000Y-85160000D03*
X149400000Y-93800000D03*
X149400000Y-85160000D03*
%TD*%
D40*
%TO.C,J2*%
X74700000Y-86300000D03*
%TD*%
D25*
%TO.C,R1*%
X144225000Y-90525000D03*
X144225000Y-92350000D03*
%TD*%
D16*
%TO.C,LED4*%
X65925000Y-78025000D03*
X65925000Y-78865000D03*
X65925000Y-79705000D03*
X65925000Y-80545000D03*
%TD*%
D41*
%TO.C,U1*%
X102485500Y-103000000D03*
X102485500Y-101500000D03*
X102485500Y-100000000D03*
X102485500Y-98500000D03*
X102485500Y-97000000D03*
X102485500Y-95500000D03*
X102485500Y-94000000D03*
X102485500Y-92500000D03*
X102485500Y-91000000D03*
X119985500Y-91000000D03*
X119985500Y-92500000D03*
X119985500Y-94000000D03*
X119985500Y-95500000D03*
X119985500Y-97000000D03*
X119985500Y-98500000D03*
X119985500Y-100000000D03*
X119985500Y-101500000D03*
X119985500Y-103000000D03*
D42*
X111095500Y-95700000D03*
X111095500Y-96800000D03*
X111095500Y-97900000D03*
X112195500Y-95700000D03*
X112195500Y-96800000D03*
X112195500Y-97900000D03*
X113295500Y-95700000D03*
X113295500Y-96800000D03*
X113295500Y-97900000D03*
%TD*%
D21*
%TO.C,LED3*%
X83325000Y-70125000D03*
X82485000Y-70125000D03*
X81645000Y-70125000D03*
X80805000Y-70125000D03*
%TD*%
D20*
%TO.C,TP11*%
X132300000Y-87000000D03*
%TD*%
D43*
%TO.C,U5*%
X93241000Y-99568000D03*
X86143000Y-99581000D03*
X86172000Y-92420000D03*
X93257000Y-92419000D03*
%TD*%
D30*
%TO.C,C35*%
X80900000Y-106425000D03*
X82625000Y-106425000D03*
%TD*%
D19*
%TO.C,C6*%
X152662500Y-82600000D03*
X150937500Y-82600000D03*
%TD*%
D20*
%TO.C,TP1*%
X118400000Y-77100000D03*
%TD*%
D12*
%TO.C,C27*%
X142500000Y-93637500D03*
X142500000Y-95362500D03*
%TD*%
D19*
%TO.C,C15*%
X95812500Y-80362500D03*
X94087500Y-80362500D03*
%TD*%
D25*
%TO.C,R13*%
X72000000Y-71587500D03*
X72000000Y-73412500D03*
%TD*%
D20*
%TO.C,TP7*%
X90400000Y-72400000D03*
%TD*%
D40*
%TO.C,J5*%
X75200000Y-96200000D03*
%TD*%
D44*
%TO.C,C12*%
X98200000Y-102937500D03*
X98200000Y-100862500D03*
%TD*%
D23*
%TO.C,R19*%
X74812500Y-78300000D03*
X72987500Y-78300000D03*
%TD*%
D44*
%TO.C,C28*%
X145925000Y-88037500D03*
X145925000Y-85962500D03*
%TD*%
D19*
%TO.C,C32*%
X83507500Y-71925000D03*
X81782500Y-71925000D03*
%TD*%
D22*
%TO.C,C16*%
X100000000Y-99162500D03*
X100000000Y-97437500D03*
%TD*%
%TO.C,C13*%
X100000000Y-102862500D03*
X100000000Y-101137500D03*
%TD*%
D20*
%TO.C,TP2*%
X100000000Y-75900000D03*
%TD*%
D15*
%TO.C,R15*%
X143087500Y-102000000D03*
X144912500Y-102000000D03*
%TD*%
D33*
%TO.C,C40*%
X132337500Y-92625000D03*
X130262500Y-92625000D03*
%TD*%
D45*
%TO.C,C29*%
X144187500Y-94525000D03*
X146262500Y-94525000D03*
%TD*%
D16*
%TO.C,LED9*%
X152825000Y-80925000D03*
X152825000Y-80085000D03*
X152825000Y-79245000D03*
X152825000Y-78405000D03*
%TD*%
D30*
%TO.C,C17*%
X141422500Y-106925000D03*
X143147500Y-106925000D03*
%TD*%
%TO.C,C1*%
X83637500Y-78620000D03*
X85362500Y-78620000D03*
%TD*%
D45*
%TO.C,C10*%
X136462500Y-97000000D03*
X138537500Y-97000000D03*
%TD*%
D46*
%TO.C,Q2*%
X74400000Y-82250000D03*
X74400000Y-81600000D03*
X74400000Y-80950000D03*
X74400000Y-80300000D03*
X77400000Y-80300000D03*
X77400000Y-80950000D03*
X77400000Y-81600000D03*
X77400000Y-82250000D03*
D47*
X76300000Y-81275000D03*
%TD*%
D15*
%TO.C,R21*%
X78712500Y-75200000D03*
X76887500Y-75200000D03*
%TD*%
D18*
%TO.C,R12*%
X98500000Y-99212500D03*
X98500000Y-97387500D03*
%TD*%
D21*
%TO.C,LED7*%
X98350000Y-108800000D03*
X99190000Y-108800000D03*
X100030000Y-108800000D03*
X100870000Y-108800000D03*
%TD*%
D25*
%TO.C,R23*%
X82100000Y-76787500D03*
X82100000Y-78612500D03*
%TD*%
D21*
%TO.C,LED11*%
X121373250Y-108665000D03*
X122213250Y-108665000D03*
X123053250Y-108665000D03*
X123893250Y-108665000D03*
%TD*%
D19*
%TO.C,C14*%
X142987500Y-72325000D03*
X141262500Y-72325000D03*
%TD*%
D48*
%TO.C,D5*%
X93550000Y-102600000D03*
X90250000Y-102600000D03*
%TD*%
D30*
%TO.C,C3*%
X83637500Y-75600000D03*
X85362500Y-75600000D03*
%TD*%
D18*
%TO.C,R4*%
X100300000Y-93712500D03*
X100300000Y-91887500D03*
%TD*%
%TO.C,R2*%
X146125000Y-92337500D03*
X146125000Y-90512500D03*
%TD*%
D49*
%TO.C,C26*%
X133700000Y-96362500D03*
X133700000Y-98437500D03*
%TD*%
D22*
%TO.C,C5*%
X150985000Y-101953250D03*
X150985000Y-100228250D03*
%TD*%
D25*
%TO.C,R9*%
X127600000Y-90575000D03*
X127600000Y-92400000D03*
%TD*%
D15*
%TO.C,R11*%
X82575000Y-84100000D03*
X84400000Y-84100000D03*
%TD*%
D16*
%TO.C,LED5*%
X65925000Y-99125000D03*
X65925000Y-99965000D03*
X65925000Y-100805000D03*
X65925000Y-101645000D03*
%TD*%
D50*
%TO.C,Q5*%
X88350000Y-103935000D03*
X86450000Y-103935000D03*
X87400000Y-101465000D03*
%TD*%
D51*
%TO.C,U7*%
X95800000Y-84500000D03*
X94850000Y-84500000D03*
X93900000Y-84500000D03*
X93900000Y-82225000D03*
X95800000Y-82225000D03*
%TD*%
D22*
%TO.C,C37*%
X125900000Y-88850000D03*
X125900000Y-87125000D03*
%TD*%
%TO.C,C9*%
X92150000Y-84525000D03*
X92150000Y-82800000D03*
%TD*%
D18*
%TO.C,R20*%
X80400000Y-76887500D03*
X80400000Y-78712500D03*
%TD*%
D52*
%TO.C,L2*%
X143400000Y-87250000D03*
X139600000Y-87250000D03*
%TD*%
D53*
%TO.C,U4*%
X76500000Y-77700000D03*
X78500000Y-78650000D03*
X78500000Y-76750000D03*
%TD*%
M02*
