%TF.GenerationSoftware,KiCad,Pcbnew,8.0.1*%
%TF.CreationDate,2024-04-12T14:38:57+08:00*%
%TF.ProjectId,bat_rf,6261745f-7266-42e6-9b69-6361645f7063,rev?*%
%TF.SameCoordinates,Original*%
%TF.FileFunction,Copper,L1,Top*%
%TF.FilePolarity,Positive*%
%FSLAX46Y46*%
G04 Gerber Fmt 4.6, Leading zero omitted, Abs format (unit mm)*
G04 Created by KiCad (PCBNEW 8.0.1) date 2024-04-12 14:38:57*
%MOMM*%
%LPD*%
G01*
G04 APERTURE LIST*
G04 Aperture macros list*
%AMRoundRect*
0 Rectangle with rounded corners*
0 $1 Rounding radius*
0 $2 $3 $4 $5 $6 $7 $8 $9 X,Y pos of 4 corners*
0 Add a 4 corners polygon primitive as box body*
4,1,4,$2,$3,$4,$5,$6,$7,$8,$9,$2,$3,0*
0 Add four circle primitives for the rounded corners*
1,1,$1+$1,$2,$3*
1,1,$1+$1,$4,$5*
1,1,$1+$1,$6,$7*
1,1,$1+$1,$8,$9*
0 Add four rect primitives between the rounded corners*
20,1,$1+$1,$2,$3,$4,$5,0*
20,1,$1+$1,$4,$5,$6,$7,0*
20,1,$1+$1,$6,$7,$8,$9,0*
20,1,$1+$1,$8,$9,$2,$3,0*%
G04 Aperture macros list end*
%TA.AperFunction,ComponentPad*%
%ADD10C,4.400000*%
%TD*%
%TA.AperFunction,ComponentPad*%
%ADD11O,1.700000X1.200000*%
%TD*%
%TA.AperFunction,SMDPad,CuDef*%
%ADD12R,1.200000X0.700000*%
%TD*%
%TA.AperFunction,SMDPad,CuDef*%
%ADD13R,1.200000X0.800000*%
%TD*%
%TA.AperFunction,SMDPad,CuDef*%
%ADD14R,1.200000X0.900000*%
%TD*%
%TA.AperFunction,SMDPad,CuDef*%
%ADD15RoundRect,0.160000X-0.222500X-0.160000X0.222500X-0.160000X0.222500X0.160000X-0.222500X0.160000X0*%
%TD*%
%TA.AperFunction,SMDPad,CuDef*%
%ADD16RoundRect,0.160000X0.222500X0.160000X-0.222500X0.160000X-0.222500X-0.160000X0.222500X-0.160000X0*%
%TD*%
%TA.AperFunction,ComponentPad*%
%ADD17C,3.200000*%
%TD*%
%TA.AperFunction,SMDPad,CuDef*%
%ADD18R,5.320000X7.350000*%
%TD*%
%TA.AperFunction,ViaPad*%
%ADD19C,0.800000*%
%TD*%
%TA.AperFunction,ViaPad*%
%ADD20C,0.550000*%
%TD*%
%TA.AperFunction,ViaPad*%
%ADD21C,0.700000*%
%TD*%
%TA.AperFunction,Conductor*%
%ADD22C,0.300000*%
%TD*%
%TA.AperFunction,Conductor*%
%ADD23C,0.500000*%
%TD*%
%TA.AperFunction,Conductor*%
%ADD24C,1.200000*%
%TD*%
%TA.AperFunction,Conductor*%
%ADD25C,2.200000*%
%TD*%
%TA.AperFunction,Conductor*%
%ADD26C,2.000000*%
%TD*%
%TA.AperFunction,Conductor*%
%ADD27C,0.800000*%
%TD*%
G04 APERTURE END LIST*
D10*
%TO.P,H3,1*%
%TO.N,N/C*%
X67025000Y-107625000D03*
%TD*%
D11*
%TO.P,J1,13*%
%TO.N,N/C*%
X149236500Y-93795000D03*
%TO.P,J1,14*%
X149236500Y-85155000D03*
%TO.P,J1,15*%
X153036500Y-93795000D03*
%TO.P,J1,16*%
X153036500Y-85155000D03*
D12*
%TO.P,J1,A5,CC1*%
%TO.N,unconnected-(J1-CC1-PadA5)*%
X149256500Y-89975000D03*
D13*
%TO.P,J1,A9,VBUS*%
%TO.N,Net-(C28-Pad1)*%
X149256500Y-87955000D03*
D14*
%TO.P,J1,A12,GND*%
%TO.N,GNDPWR*%
X149256500Y-86725000D03*
D12*
%TO.P,J1,B5,CC2*%
%TO.N,unconnected-(J1-CC2-PadB5)*%
X149256500Y-88975000D03*
D13*
%TO.P,J1,B9,VBUS*%
%TO.N,Net-(C28-Pad1)*%
X149256500Y-90995000D03*
D14*
%TO.P,J1,B12,GND*%
%TO.N,GNDPWR*%
X149256500Y-92225000D03*
%TD*%
D15*
%TO.P,D13,1,K*%
%TO.N,GNDPWR*%
X67927500Y-75000000D03*
%TO.P,D13,2,A*%
%TO.N,Net-(D13-A)*%
X69072500Y-75000000D03*
%TD*%
D16*
%TO.P,D4,1,K*%
%TO.N,GNDPWR*%
X152072500Y-104000000D03*
%TO.P,D4,2,A*%
%TO.N,Net-(D4-A)*%
X150927500Y-104000000D03*
%TD*%
D17*
%TO.P,J2,1,Pin_1*%
%TO.N,Net-(J2-Pin_1)*%
X68000000Y-92000000D03*
%TO.P,J2,2,Pin_2*%
%TO.N,+BATT*%
X68000000Y-87000000D03*
%TD*%
D15*
%TO.P,D3,1,K*%
%TO.N,GNDPWR*%
X66427500Y-104000000D03*
%TO.P,D3,2,A*%
%TO.N,Net-(D3-A)*%
X67572500Y-104000000D03*
%TD*%
D10*
%TO.P,H4,1*%
%TO.N,N/C*%
X67025000Y-71225000D03*
%TD*%
%TO.P,H1,1*%
%TO.N,N/C*%
X151725000Y-71225000D03*
%TD*%
D16*
%TO.P,D2,1,K*%
%TO.N,GNDPWR*%
X150697500Y-74925000D03*
%TO.P,D2,2,A*%
%TO.N,Net-(D2-A)*%
X149552500Y-74925000D03*
%TD*%
D18*
%TO.P,BT1,1,+*%
%TO.N,+BATT*%
X68840000Y-79950000D03*
%TO.P,BT1,2,-*%
%TO.N,Net-(BT1-+-Pad3)*%
X150550000Y-79950000D03*
%TO.P,BT1,3,+*%
X150550000Y-99050000D03*
%TO.P,BT1,4,-*%
%TO.N,GNDPWR*%
X68840000Y-99050000D03*
%TD*%
D10*
%TO.P,H2,1*%
%TO.N,N/C*%
X151725000Y-107625000D03*
%TD*%
D19*
%TO.N,GNDD*%
X117269669Y-90130331D03*
X115500000Y-92700000D03*
X116369669Y-89230331D03*
X114700000Y-92000000D03*
X96679918Y-92700743D03*
X99100000Y-90700000D03*
D20*
%TO.N,/IO9*%
X104100000Y-85900000D03*
%TO.N,VCC*%
X113458058Y-89941942D03*
X113500000Y-87400000D03*
%TO.N,/POWER_EN*%
X97895692Y-92700000D03*
X97895692Y-91262500D03*
%TO.N,/IO9*%
X101250000Y-91911552D03*
%TO.N,/BLUE*%
X118550000Y-90350000D03*
D19*
%TO.N,+BATT*%
X72000000Y-80000000D03*
D20*
X131875000Y-93500000D03*
D19*
X72000000Y-82000000D03*
X72000000Y-81000000D03*
X72000000Y-77000000D03*
D20*
X132137162Y-94237838D03*
X132543750Y-93831250D03*
D19*
X72000000Y-78000000D03*
X72000000Y-79000000D03*
%TO.N,GNDPWR*%
X129000000Y-92500000D03*
D20*
X68469998Y-99025000D03*
D19*
X78212500Y-76800000D03*
X148360135Y-92771443D03*
X137832500Y-92332500D03*
X97500000Y-108900000D03*
X150207430Y-105207431D03*
X82000000Y-96500000D03*
X79500000Y-108500000D03*
X138500000Y-90500000D03*
X116900000Y-74600000D03*
X140182069Y-107090725D03*
X65399847Y-98100153D03*
X65925000Y-75364100D03*
D20*
X116500000Y-69500000D03*
D19*
X144000000Y-73000000D03*
X97200000Y-106500000D03*
D20*
X152500000Y-84100002D03*
D19*
X74300000Y-87600000D03*
X84500000Y-103000000D03*
X79631455Y-79731455D03*
X82000000Y-95200000D03*
X77900000Y-78200000D03*
X148000000Y-105000000D03*
X124500000Y-72000000D03*
X80100000Y-77200000D03*
X82000000Y-97500000D03*
X74200000Y-85700000D03*
X144720000Y-85200000D03*
X148056500Y-86500000D03*
X79500000Y-106500000D03*
X121373250Y-107600000D03*
X124500000Y-70000000D03*
X144000000Y-71000000D03*
X102000000Y-70500000D03*
X84500000Y-70000000D03*
X102500000Y-72000000D03*
X140000000Y-96500000D03*
X93600000Y-88500000D03*
X97300000Y-81800000D03*
D20*
X116500000Y-71500000D03*
D19*
X137500000Y-93500000D03*
X130500000Y-89500000D03*
X148056500Y-92000000D03*
X131500000Y-98700000D03*
X77829373Y-79129373D03*
X85500000Y-106000000D03*
X121000000Y-105600000D03*
X140500000Y-109000000D03*
D20*
X85000000Y-72000000D03*
D19*
X73200000Y-84400000D03*
X137500000Y-95000000D03*
D20*
X151261500Y-84075002D03*
D19*
%TO.N,+5V*%
X84500000Y-101500000D03*
X79500000Y-101000000D03*
X88000000Y-100500000D03*
%TO.N,GNDD*%
X100650584Y-101831498D03*
X83252500Y-81365000D03*
X83400000Y-83900000D03*
X105800000Y-100900000D03*
X99000000Y-101500000D03*
X105800000Y-97700000D03*
X82265000Y-80377500D03*
X100900000Y-97700000D03*
X102069669Y-89969669D03*
X82200000Y-83800000D03*
X106000000Y-101900000D03*
X103400000Y-87800000D03*
%TO.N,Net-(U2-LX)*%
X139750000Y-89250000D03*
X141000000Y-88500000D03*
X144000000Y-96000000D03*
X142500000Y-97000000D03*
%TO.N,Net-(C28-Pad1)*%
X144856500Y-89875000D03*
X142720000Y-87000000D03*
D21*
X148075000Y-90825000D03*
X148075000Y-89125000D03*
D19*
X142000000Y-88000000D03*
X144615463Y-88792136D03*
D21*
X148075000Y-89975000D03*
X148075000Y-88225000D03*
D19*
%TO.N,Net-(D2-A)*%
X144000000Y-78025000D03*
D20*
%TO.N,Net-(D13-A)*%
X70500000Y-75000000D03*
%TO.N,Net-(SW3-A)*%
X108000000Y-69675000D03*
X108500000Y-72325000D03*
X108000000Y-71100000D03*
X92728125Y-79865625D03*
%TO.N,Net-(Q2-G)*%
X88418708Y-86705523D03*
X90200000Y-86640625D03*
%TO.N,/GREEN*%
X82412500Y-100612500D03*
X101174265Y-100025735D03*
%TO.N,Net-(D3-A)*%
X69500000Y-104000000D03*
%TO.N,Net-(D4-A)*%
X145000000Y-103800000D03*
%TO.N,/BLUE*%
X75700000Y-72700000D03*
X78481370Y-74211509D03*
X74500000Y-71500000D03*
%TO.N,/BEEP*%
X104000000Y-103278772D03*
X98112504Y-105495000D03*
%TO.N,/BAT_EN*%
X94522500Y-97927498D03*
X101100000Y-98600000D03*
%TD*%
D22*
%TO.N,/BLUE*%
X111500000Y-83300000D02*
X87569861Y-83300000D01*
X118550000Y-90350000D02*
X111500000Y-83300000D01*
X87569861Y-83300000D02*
X78481370Y-74211509D01*
D23*
%TO.N,GNDD*%
X115500000Y-91900000D02*
X117269669Y-90130331D01*
X115500000Y-92700000D02*
X115500000Y-91900000D01*
X114800000Y-92000000D02*
X115500000Y-92700000D01*
X114700000Y-92000000D02*
X114800000Y-92000000D01*
X114700000Y-90900000D02*
X116369669Y-89230331D01*
X114700000Y-92000000D02*
X114700000Y-90900000D01*
D22*
%TO.N,/IO9*%
X101250000Y-88750000D02*
X101250000Y-91911552D01*
X104100000Y-85900000D02*
X101250000Y-88750000D01*
D23*
%TO.N,GNDD*%
X105800000Y-101700000D02*
X106000000Y-101900000D01*
X105800000Y-97700000D02*
X105800000Y-101700000D01*
X97562500Y-90537500D02*
X96679918Y-91420082D01*
X96679918Y-91420082D02*
X96679918Y-92700743D01*
X99100000Y-90700000D02*
X98937500Y-90537500D01*
X98937500Y-90537500D02*
X97562500Y-90537500D01*
D22*
%TO.N,/POWER_EN*%
X97895692Y-91262500D02*
X97895692Y-92700000D01*
%TO.N,VCC*%
X113500000Y-87400000D02*
X113500000Y-89900000D01*
X113500000Y-89900000D02*
X113458058Y-89941942D01*
D23*
%TO.N,GNDD*%
X106000000Y-101900000D02*
X105931498Y-101831498D01*
X105931498Y-101831498D02*
X100650584Y-101831498D01*
X105800000Y-100900000D02*
X105600000Y-101100000D01*
X105600000Y-101100000D02*
X99400000Y-101100000D01*
X99400000Y-101100000D02*
X99000000Y-101500000D01*
D22*
%TO.N,/BLUE*%
X84760486Y-80490625D02*
X78481370Y-74211509D01*
D24*
%TO.N,+BATT*%
X74750000Y-93900000D02*
X67825000Y-86975000D01*
X132275000Y-93900000D02*
X74750000Y-93900000D01*
X132375000Y-94000000D02*
X132275000Y-93900000D01*
D22*
%TO.N,/BAT_EN*%
X95195002Y-98600000D02*
X101100000Y-98600000D01*
X94522500Y-97927498D02*
X95195002Y-98600000D01*
D23*
%TO.N,+BATT*%
X68470000Y-79925000D02*
X69925000Y-79925000D01*
X68470000Y-79925000D02*
X71925000Y-79925000D01*
D24*
X132543750Y-93831250D02*
X132375000Y-94000000D01*
D25*
X68000000Y-87000000D02*
X68000000Y-80394998D01*
D23*
X70000000Y-78500000D02*
X71500000Y-78500000D01*
X72000000Y-77000000D02*
X71850000Y-77000000D01*
D26*
X67825000Y-86975000D02*
X67825000Y-80570000D01*
D23*
X71075000Y-79925000D02*
X72000000Y-79000000D01*
X68470000Y-79925000D02*
X70925000Y-79925000D01*
X68925000Y-79925000D02*
X68470000Y-79925000D01*
X70925000Y-79925000D02*
X72000000Y-81000000D01*
D25*
X68000000Y-80394998D02*
X68469998Y-79925000D01*
D26*
X67825000Y-80570000D02*
X68470000Y-79925000D01*
D23*
X69925000Y-79925000D02*
X72000000Y-82000000D01*
X71850000Y-77000000D02*
X68925000Y-79925000D01*
X68575000Y-79925000D02*
X70000000Y-78500000D01*
X71925000Y-79925000D02*
X72000000Y-80000000D01*
X68469998Y-79925000D02*
X71075000Y-79925000D01*
D24*
X132543750Y-93831250D02*
X132137162Y-94237838D01*
D23*
X71500000Y-78500000D02*
X72000000Y-78000000D01*
D24*
X132375000Y-94000000D02*
X131875000Y-93500000D01*
D23*
X68469998Y-79925000D02*
X68575000Y-79925000D01*
%TO.N,GNDPWR*%
X149256500Y-92225000D02*
X148906578Y-92225000D01*
X148906578Y-92225000D02*
X148360135Y-92771443D01*
D22*
X152375000Y-104000000D02*
X151550000Y-104825000D01*
D23*
X68470000Y-99025000D02*
X68470000Y-98030000D01*
X68470000Y-99025000D02*
X70025000Y-99025000D01*
X148281500Y-92225000D02*
X148056500Y-92000000D01*
X149256500Y-86725000D02*
X148281500Y-86725000D01*
X149256500Y-92225000D02*
X148281500Y-92225000D01*
X148281500Y-86725000D02*
X148056500Y-86500000D01*
D22*
X150589861Y-104825000D02*
X150207430Y-105207431D01*
D23*
X151261500Y-84075002D02*
X153524998Y-84075002D01*
X68470000Y-99025000D02*
X70709582Y-99025000D01*
X153525000Y-84075000D02*
X153660000Y-84075000D01*
D22*
X66125000Y-104000000D02*
X66125000Y-103875000D01*
X151550000Y-104825000D02*
X150589861Y-104825000D01*
D23*
X153524998Y-84075002D02*
X153525000Y-84075000D01*
%TO.N,+5V*%
X88000000Y-100500000D02*
X85500000Y-100500000D01*
X80000000Y-101500000D02*
X84500000Y-101500000D01*
X79500000Y-101000000D02*
X80000000Y-101500000D01*
X85500000Y-100500000D02*
X84500000Y-101500000D01*
%TO.N,GNDD*%
X82200000Y-83800000D02*
X82200000Y-80442500D01*
X83400000Y-83900000D02*
X83400000Y-81512500D01*
X100900000Y-97700000D02*
X105800000Y-97700000D01*
X82200000Y-80442500D02*
X82265000Y-80377500D01*
D22*
X105800000Y-97700000D02*
X104600000Y-97700000D01*
D23*
X102069669Y-89969669D02*
X102069669Y-89130331D01*
X102069669Y-89130331D02*
X103400000Y-87800000D01*
X83400000Y-81512500D02*
X83252500Y-81365000D01*
D27*
%TO.N,Net-(U2-LX)*%
X142500000Y-92000000D02*
X142500000Y-97000000D01*
X144000000Y-96000000D02*
X144000000Y-91500000D01*
X144000000Y-91500000D02*
X141000000Y-88500000D01*
X139750000Y-89250000D02*
X142500000Y-92000000D01*
%TO.N,Net-(C28-Pad1)*%
X148345000Y-87955000D02*
X149256500Y-87955000D01*
D23*
X144856500Y-89875000D02*
X143875000Y-89875000D01*
D27*
X148056500Y-90925000D02*
X148056500Y-90243500D01*
X149256500Y-90995000D02*
X148126500Y-90995000D01*
X148056500Y-88243500D02*
X148075000Y-88225000D01*
X148056500Y-90925000D02*
X148056500Y-89975000D01*
D23*
X143875000Y-89875000D02*
X142000000Y-88000000D01*
D27*
X148056500Y-90243500D02*
X148075000Y-90225000D01*
X148126500Y-90995000D02*
X148056500Y-90925000D01*
X148056500Y-89243500D02*
X148075000Y-89225000D01*
X148056500Y-90206500D02*
X148056500Y-89243500D01*
X148075000Y-90943500D02*
X148056500Y-90925000D01*
X148075000Y-88225000D02*
X148345000Y-87955000D01*
X148126500Y-90995000D02*
X148106500Y-90975000D01*
X148075000Y-90225000D02*
X148056500Y-90206500D01*
X148106500Y-90975000D02*
X148075000Y-90975000D01*
D23*
X144512136Y-88792136D02*
X142720000Y-87000000D01*
X144615463Y-88792136D02*
X144512136Y-88792136D01*
D27*
X148075000Y-89225000D02*
X148056500Y-89206500D01*
X148056500Y-89206500D02*
X148056500Y-88243500D01*
X148075000Y-90975000D02*
X148075000Y-90943500D01*
D23*
%TO.N,Net-(D2-A)*%
X147100000Y-74925000D02*
X144000000Y-78025000D01*
X149087500Y-74925000D02*
X147100000Y-74925000D01*
D22*
%TO.N,Net-(D13-A)*%
X70500000Y-75000000D02*
X69375000Y-75000000D01*
%TO.N,Net-(SW3-A)*%
X108000000Y-71100000D02*
X108000000Y-69675000D01*
X100959375Y-79865625D02*
X92728125Y-79865625D01*
X108500000Y-72325000D02*
X100959375Y-79865625D01*
%TO.N,Net-(Q2-G)*%
X90200000Y-86640625D02*
X88483606Y-86640625D01*
X88483606Y-86640625D02*
X88418708Y-86705523D01*
%TO.N,/GREEN*%
X101174265Y-100025735D02*
X100898530Y-99750000D01*
X83275000Y-99750000D02*
X82412500Y-100612500D01*
X100898530Y-99750000D02*
X83275000Y-99750000D01*
%TO.N,Net-(D3-A)*%
X67875000Y-104000000D02*
X69500000Y-104000000D01*
%TO.N,Net-(D4-A)*%
X145200000Y-104000000D02*
X145000000Y-103800000D01*
X150625000Y-104000000D02*
X145200000Y-104000000D01*
%TO.N,/BLUE*%
X74500000Y-71500000D02*
X75700000Y-72700000D01*
%TO.N,/BEEP*%
X100328732Y-103278772D02*
X98112504Y-105495000D01*
X102478772Y-103278772D02*
X102400000Y-103200000D01*
X104000000Y-103278772D02*
X102478772Y-103278772D01*
X104000000Y-103278772D02*
X100328732Y-103278772D01*
X102400000Y-103200000D02*
X101557755Y-103200000D01*
D26*
%TO.N,Net-(J2-Pin_1)*%
X68470000Y-92620000D02*
X67825000Y-91975000D01*
%TO.N,Net-(BT1-+-Pad3)*%
X150180000Y-99025000D02*
X146456500Y-95301500D01*
X146456500Y-95301500D02*
X146456500Y-83648500D01*
X146456500Y-83648500D02*
X150180000Y-79925000D01*
%TD*%
%TA.AperFunction,Conductor*%
%TO.N,GNDPWR*%
G36*
X107334903Y-69045185D02*
G01*
X107380658Y-69097989D01*
X107390602Y-69167147D01*
X107372858Y-69215471D01*
X107368282Y-69222754D01*
X107296877Y-69336395D01*
X107239159Y-69501341D01*
X107239157Y-69501351D01*
X107219593Y-69674996D01*
X107219593Y-69675003D01*
X107239157Y-69848648D01*
X107239159Y-69848658D01*
X107296877Y-70013604D01*
X107296879Y-70013608D01*
X107330494Y-70067106D01*
X107349500Y-70133078D01*
X107349500Y-70641922D01*
X107330494Y-70707893D01*
X107296878Y-70761392D01*
X107239159Y-70926341D01*
X107239157Y-70926351D01*
X107219593Y-71099996D01*
X107219593Y-71100003D01*
X107239157Y-71273648D01*
X107239159Y-71273658D01*
X107296877Y-71438604D01*
X107296878Y-71438606D01*
X107389853Y-71586576D01*
X107513424Y-71710147D01*
X107661394Y-71803122D01*
X107722191Y-71824396D01*
X107778967Y-71865117D01*
X107804714Y-71930070D01*
X107798277Y-71982392D01*
X107740673Y-72147014D01*
X107711313Y-72193740D01*
X100726248Y-79178806D01*
X100664925Y-79212291D01*
X100638567Y-79215125D01*
X93186203Y-79215125D01*
X93120231Y-79196119D01*
X93066733Y-79162504D01*
X93066729Y-79162502D01*
X92901783Y-79104784D01*
X92901773Y-79104782D01*
X92728129Y-79085218D01*
X92728121Y-79085218D01*
X92554476Y-79104782D01*
X92554466Y-79104784D01*
X92389520Y-79162502D01*
X92241548Y-79255478D01*
X92117978Y-79379048D01*
X92025002Y-79527020D01*
X91967284Y-79691966D01*
X91967282Y-79691976D01*
X91947718Y-79865621D01*
X91947718Y-79865628D01*
X91967282Y-80039273D01*
X91967284Y-80039283D01*
X92025002Y-80204229D01*
X92025003Y-80204231D01*
X92117978Y-80352201D01*
X92241549Y-80475772D01*
X92389519Y-80568747D01*
X92554468Y-80626466D01*
X92554474Y-80626466D01*
X92554476Y-80626467D01*
X92728121Y-80646032D01*
X92728125Y-80646032D01*
X92728129Y-80646032D01*
X92901773Y-80626467D01*
X92901772Y-80626467D01*
X92901782Y-80626466D01*
X93066731Y-80568747D01*
X93120231Y-80535131D01*
X93186203Y-80516125D01*
X101023446Y-80516125D01*
X101107990Y-80499307D01*
X101149119Y-80491126D01*
X101267502Y-80442090D01*
X101374044Y-80370902D01*
X108631258Y-73113685D01*
X108677979Y-73084328D01*
X108838606Y-73028122D01*
X108986576Y-72935147D01*
X109110147Y-72811576D01*
X109203122Y-72663606D01*
X109260841Y-72498657D01*
X109262687Y-72482274D01*
X109280407Y-72325003D01*
X109280407Y-72324996D01*
X109260842Y-72151351D01*
X109260841Y-72151349D01*
X109260841Y-72151343D01*
X109209303Y-72004057D01*
X111424500Y-72004057D01*
X111463968Y-72151351D01*
X111465423Y-72156783D01*
X111465426Y-72156790D01*
X111544475Y-72293709D01*
X111544479Y-72293714D01*
X111544480Y-72293716D01*
X111656284Y-72405520D01*
X111656286Y-72405521D01*
X111656290Y-72405524D01*
X111789236Y-72482279D01*
X111793216Y-72484577D01*
X111945943Y-72525500D01*
X111945945Y-72525500D01*
X112104055Y-72525500D01*
X112104057Y-72525500D01*
X112256784Y-72484577D01*
X112393716Y-72405520D01*
X112505520Y-72293716D01*
X112584577Y-72156784D01*
X112625500Y-72004057D01*
X112625500Y-71845943D01*
X112584577Y-71693216D01*
X112573280Y-71673648D01*
X112505524Y-71556290D01*
X112505518Y-71556282D01*
X112393717Y-71444481D01*
X112393709Y-71444475D01*
X112256790Y-71365426D01*
X112256786Y-71365424D01*
X112256784Y-71365423D01*
X112104057Y-71324500D01*
X111945943Y-71324500D01*
X111793216Y-71365423D01*
X111793209Y-71365426D01*
X111656290Y-71444475D01*
X111656282Y-71444481D01*
X111544481Y-71556282D01*
X111544475Y-71556290D01*
X111465426Y-71693209D01*
X111465423Y-71693216D01*
X111424500Y-71845943D01*
X111424500Y-72004057D01*
X109209303Y-72004057D01*
X109203122Y-71986394D01*
X109110147Y-71838424D01*
X108986576Y-71714853D01*
X108838606Y-71621878D01*
X108838605Y-71621877D01*
X108838604Y-71621877D01*
X108777807Y-71600603D01*
X108721031Y-71559881D01*
X108695284Y-71494928D01*
X108701721Y-71442606D01*
X108703119Y-71438610D01*
X108703122Y-71438606D01*
X108760841Y-71273657D01*
X108780407Y-71100000D01*
X108770652Y-71013424D01*
X108760842Y-70926351D01*
X108760841Y-70926349D01*
X108760841Y-70926343D01*
X108703122Y-70761394D01*
X108669506Y-70707893D01*
X108650500Y-70641922D01*
X108650500Y-70133078D01*
X108669506Y-70067106D01*
X108671645Y-70063700D01*
X108703122Y-70013606D01*
X108760841Y-69848657D01*
X108776626Y-69708561D01*
X108780407Y-69675003D01*
X108780407Y-69674996D01*
X108760842Y-69501351D01*
X108760841Y-69501349D01*
X108760841Y-69501343D01*
X108703122Y-69336394D01*
X108627141Y-69215471D01*
X108608142Y-69148235D01*
X108628510Y-69081400D01*
X108681778Y-69036186D01*
X108732136Y-69025500D01*
X111300500Y-69025500D01*
X111367539Y-69045185D01*
X111413294Y-69097989D01*
X111424500Y-69149500D01*
X111424500Y-69204057D01*
X111429510Y-69222752D01*
X111465423Y-69356783D01*
X111465426Y-69356790D01*
X111544475Y-69493709D01*
X111544479Y-69493714D01*
X111544480Y-69493716D01*
X111656284Y-69605520D01*
X111656286Y-69605521D01*
X111656290Y-69605524D01*
X111776621Y-69674996D01*
X111793216Y-69684577D01*
X111945943Y-69725500D01*
X111945945Y-69725500D01*
X112104055Y-69725500D01*
X112104057Y-69725500D01*
X112256784Y-69684577D01*
X112393716Y-69605520D01*
X112505520Y-69493716D01*
X112584577Y-69356784D01*
X112625500Y-69204057D01*
X112625500Y-69149500D01*
X112645185Y-69082461D01*
X112697989Y-69036706D01*
X112749500Y-69025500D01*
X149806053Y-69025500D01*
X149873092Y-69045185D01*
X149918847Y-69097989D01*
X149928791Y-69167147D01*
X149899766Y-69230703D01*
X149893734Y-69237181D01*
X149699954Y-69430960D01*
X149498473Y-69688131D01*
X149329454Y-69967723D01*
X149329453Y-69967725D01*
X149308805Y-70013604D01*
X149202171Y-70250536D01*
X149195372Y-70265642D01*
X149195366Y-70265657D01*
X149098178Y-70577547D01*
X149039289Y-70898900D01*
X149019564Y-71225000D01*
X149039289Y-71551099D01*
X149098178Y-71872452D01*
X149195366Y-72184342D01*
X149195370Y-72184354D01*
X149195373Y-72184361D01*
X149329455Y-72482279D01*
X149461074Y-72700003D01*
X149498473Y-72761868D01*
X149699954Y-73019039D01*
X149930960Y-73250045D01*
X150188131Y-73451526D01*
X150188134Y-73451528D01*
X150188137Y-73451530D01*
X150467721Y-73620545D01*
X150765639Y-73754627D01*
X150765652Y-73754631D01*
X150765657Y-73754633D01*
X151077547Y-73851821D01*
X151398896Y-73910710D01*
X151725000Y-73930436D01*
X152051104Y-73910710D01*
X152372453Y-73851821D01*
X152684361Y-73754627D01*
X152982279Y-73620545D01*
X153261863Y-73451530D01*
X153519036Y-73250048D01*
X153582508Y-73186576D01*
X153738660Y-73030425D01*
X153799983Y-72996940D01*
X153869675Y-73001924D01*
X153925608Y-73043796D01*
X153950025Y-73109260D01*
X153950341Y-73118106D01*
X153950341Y-76145658D01*
X153930656Y-76212697D01*
X153877852Y-76258452D01*
X153808694Y-76268396D01*
X153745138Y-76239371D01*
X153707364Y-76180593D01*
X153705665Y-76174175D01*
X153704092Y-76167520D01*
X153693401Y-76138857D01*
X153653796Y-76032669D01*
X153653795Y-76032668D01*
X153653793Y-76032664D01*
X153567547Y-75917455D01*
X153567544Y-75917452D01*
X153452335Y-75831206D01*
X153452328Y-75831202D01*
X153317482Y-75780908D01*
X153317483Y-75780908D01*
X153257883Y-75774501D01*
X153257881Y-75774500D01*
X153257873Y-75774500D01*
X153257865Y-75774500D01*
X150318949Y-75774500D01*
X150251910Y-75754815D01*
X150206155Y-75702011D01*
X150196211Y-75632853D01*
X150225236Y-75569297D01*
X150231241Y-75562846D01*
X150298753Y-75495335D01*
X150381733Y-75358069D01*
X150429452Y-75204933D01*
X150435500Y-75138381D01*
X150435499Y-74711620D01*
X150435499Y-74711611D01*
X150429453Y-74645073D01*
X150429452Y-74645070D01*
X150429452Y-74645067D01*
X150398612Y-74546100D01*
X150381734Y-74491933D01*
X150381732Y-74491929D01*
X150298757Y-74354670D01*
X150298753Y-74354665D01*
X150185334Y-74241246D01*
X150185329Y-74241242D01*
X150048070Y-74158267D01*
X150048066Y-74158265D01*
X149894933Y-74110548D01*
X149894935Y-74110548D01*
X149868312Y-74108128D01*
X149828381Y-74104500D01*
X149828378Y-74104500D01*
X149276611Y-74104500D01*
X149210073Y-74110546D01*
X149210066Y-74110548D01*
X149056933Y-74158265D01*
X149050092Y-74161345D01*
X149049268Y-74159514D01*
X148995511Y-74174500D01*
X147026080Y-74174500D01*
X146881092Y-74203340D01*
X146881086Y-74203342D01*
X146744508Y-74259914D01*
X146744496Y-74259921D01*
X146695269Y-74292813D01*
X146621588Y-74342044D01*
X146621580Y-74342050D01*
X143847228Y-77116402D01*
X143785905Y-77149887D01*
X143785329Y-77150011D01*
X143720196Y-77163856D01*
X143720192Y-77163857D01*
X143547270Y-77240848D01*
X143547265Y-77240851D01*
X143394129Y-77352111D01*
X143267466Y-77492785D01*
X143172821Y-77656715D01*
X143172818Y-77656722D01*
X143122450Y-77811740D01*
X143114326Y-77836744D01*
X143094540Y-78025000D01*
X143114326Y-78213256D01*
X143114327Y-78213259D01*
X143172818Y-78393277D01*
X143172821Y-78393284D01*
X143267467Y-78557216D01*
X143334553Y-78631722D01*
X143394129Y-78697888D01*
X143547265Y-78809148D01*
X143547270Y-78809151D01*
X143720192Y-78886142D01*
X143720197Y-78886144D01*
X143905354Y-78925500D01*
X143905355Y-78925500D01*
X144094644Y-78925500D01*
X144094646Y-78925500D01*
X144279803Y-78886144D01*
X144452730Y-78809151D01*
X144605871Y-78697888D01*
X144732533Y-78557216D01*
X144827179Y-78393284D01*
X144882522Y-78222956D01*
X144912768Y-78173598D01*
X147374549Y-75711819D01*
X147435872Y-75678334D01*
X147462230Y-75675500D01*
X147483106Y-75675500D01*
X147550145Y-75695185D01*
X147595900Y-75747989D01*
X147605844Y-75817147D01*
X147576819Y-75880703D01*
X147557418Y-75898766D01*
X147532452Y-75917455D01*
X147446206Y-76032664D01*
X147446202Y-76032671D01*
X147395908Y-76167517D01*
X147389501Y-76227116D01*
X147389500Y-76227135D01*
X147389500Y-80542110D01*
X147369815Y-80609149D01*
X147353181Y-80629791D01*
X145311984Y-82670988D01*
X145173157Y-82862065D01*
X145080075Y-83044751D01*
X145080074Y-83044752D01*
X145065934Y-83072501D01*
X144992946Y-83297131D01*
X144956000Y-83530402D01*
X144956000Y-87790774D01*
X144936315Y-87857813D01*
X144883511Y-87903568D01*
X144814353Y-87913512D01*
X144806224Y-87912065D01*
X144710109Y-87891636D01*
X144710105Y-87891636D01*
X144703753Y-87890286D01*
X144704131Y-87888505D01*
X144647686Y-87865271D01*
X144637596Y-87856228D01*
X143632770Y-86851402D01*
X143602521Y-86802041D01*
X143565690Y-86688687D01*
X143547181Y-86631721D01*
X143547178Y-86631715D01*
X143546570Y-86630662D01*
X143452533Y-86467784D01*
X143325871Y-86327112D01*
X143291335Y-86302020D01*
X143172734Y-86215851D01*
X143172729Y-86215848D01*
X142999807Y-86138857D01*
X142999802Y-86138855D01*
X142854001Y-86107865D01*
X142814646Y-86099500D01*
X142625354Y-86099500D01*
X142592897Y-86106398D01*
X142440197Y-86138855D01*
X142440192Y-86138857D01*
X142267270Y-86215848D01*
X142267265Y-86215851D01*
X142114129Y-86327111D01*
X141987466Y-86467785D01*
X141892821Y-86631715D01*
X141892818Y-86631722D01*
X141837479Y-86802039D01*
X141834326Y-86811744D01*
X141814540Y-87000000D01*
X141814540Y-87000002D01*
X141814540Y-87000003D01*
X141815083Y-87005172D01*
X141802511Y-87073902D01*
X141754777Y-87124924D01*
X141726124Y-87136081D01*
X141726374Y-87136849D01*
X141720192Y-87138857D01*
X141547270Y-87215848D01*
X141547265Y-87215851D01*
X141394129Y-87327111D01*
X141267466Y-87467785D01*
X141225886Y-87539801D01*
X141175318Y-87588016D01*
X141106711Y-87601237D01*
X141096989Y-87599745D01*
X141094651Y-87599500D01*
X141094646Y-87599500D01*
X140905354Y-87599500D01*
X140819306Y-87617789D01*
X140817717Y-87618115D01*
X140737333Y-87634104D01*
X140731508Y-87635871D01*
X140731378Y-87635443D01*
X140720726Y-87638743D01*
X140720202Y-87638854D01*
X140720198Y-87638855D01*
X140645971Y-87671902D01*
X140642994Y-87673181D01*
X140573453Y-87701988D01*
X140573450Y-87701989D01*
X140572342Y-87702730D01*
X140553921Y-87712886D01*
X140547279Y-87715843D01*
X140547273Y-87715847D01*
X140486993Y-87759641D01*
X140483004Y-87762421D01*
X140425967Y-87800533D01*
X140425955Y-87800543D01*
X140420251Y-87806247D01*
X140405468Y-87818872D01*
X140394136Y-87827105D01*
X140394126Y-87827114D01*
X140348751Y-87877507D01*
X140344286Y-87882212D01*
X140300539Y-87925960D01*
X140300532Y-87925968D01*
X140292308Y-87938277D01*
X140281361Y-87952352D01*
X140267468Y-87967782D01*
X140267467Y-87967783D01*
X140236907Y-88020713D01*
X140232626Y-88027597D01*
X140201987Y-88073454D01*
X140193742Y-88093357D01*
X140186575Y-88107890D01*
X140172820Y-88131716D01*
X140172818Y-88131721D01*
X140156010Y-88183449D01*
X140152642Y-88192580D01*
X140134105Y-88237333D01*
X140134103Y-88237341D01*
X140128588Y-88265067D01*
X140124901Y-88279198D01*
X140120119Y-88293914D01*
X140080680Y-88351588D01*
X140016320Y-88378784D01*
X139977998Y-88377209D01*
X139954814Y-88372597D01*
X139932221Y-88368103D01*
X139930633Y-88367776D01*
X139844650Y-88349500D01*
X139844646Y-88349500D01*
X139655354Y-88349500D01*
X139569306Y-88367789D01*
X139567717Y-88368115D01*
X139487333Y-88384104D01*
X139481508Y-88385871D01*
X139481378Y-88385443D01*
X139470726Y-88388743D01*
X139470202Y-88388854D01*
X139470198Y-88388855D01*
X139395971Y-88421902D01*
X139392994Y-88423181D01*
X139323453Y-88451988D01*
X139323450Y-88451989D01*
X139322342Y-88452730D01*
X139303921Y-88462886D01*
X139297279Y-88465843D01*
X139297273Y-88465847D01*
X139297270Y-88465848D01*
X139297270Y-88465849D01*
X139287581Y-88472888D01*
X139236993Y-88509641D01*
X139233004Y-88512421D01*
X139175967Y-88550533D01*
X139175955Y-88550543D01*
X139170251Y-88556247D01*
X139155468Y-88568872D01*
X139144136Y-88577105D01*
X139144126Y-88577114D01*
X139098751Y-88627507D01*
X139094286Y-88632212D01*
X139050539Y-88675960D01*
X139050532Y-88675968D01*
X139042308Y-88688277D01*
X139031361Y-88702352D01*
X139017468Y-88717782D01*
X139017467Y-88717783D01*
X138986907Y-88770713D01*
X138982626Y-88777597D01*
X138951987Y-88823454D01*
X138943742Y-88843357D01*
X138936575Y-88857890D01*
X138922820Y-88881716D01*
X138922818Y-88881721D01*
X138906010Y-88933449D01*
X138902642Y-88942580D01*
X138884105Y-88987333D01*
X138884103Y-88987341D01*
X138878588Y-89015067D01*
X138874902Y-89029193D01*
X138864326Y-89061743D01*
X138864325Y-89061746D01*
X138859341Y-89109160D01*
X138857639Y-89120384D01*
X138849500Y-89161307D01*
X138849500Y-89196306D01*
X138848821Y-89209266D01*
X138844540Y-89249999D01*
X138848821Y-89290731D01*
X138849500Y-89303692D01*
X138849500Y-89338692D01*
X138857639Y-89379614D01*
X138859341Y-89390839D01*
X138863719Y-89432480D01*
X138864326Y-89438256D01*
X138874176Y-89468572D01*
X138874903Y-89470807D01*
X138878587Y-89484927D01*
X138883500Y-89509622D01*
X138884105Y-89512665D01*
X138884106Y-89512670D01*
X138902641Y-89557417D01*
X138906011Y-89566550D01*
X138922820Y-89618282D01*
X138936571Y-89642100D01*
X138943743Y-89656644D01*
X138951986Y-89676544D01*
X138951988Y-89676547D01*
X138982626Y-89722402D01*
X138986910Y-89729290D01*
X139017467Y-89782216D01*
X139031355Y-89797640D01*
X139042307Y-89811721D01*
X139050535Y-89824035D01*
X139094283Y-89867783D01*
X139098752Y-89872492D01*
X139144129Y-89922888D01*
X139155467Y-89931125D01*
X139170261Y-89943761D01*
X141563181Y-92336680D01*
X141596666Y-92398003D01*
X141599500Y-92424361D01*
X141599500Y-96946306D01*
X141598821Y-96959266D01*
X141594540Y-97000000D01*
X141597390Y-97027112D01*
X141598821Y-97040731D01*
X141599500Y-97053692D01*
X141599500Y-97088695D01*
X141607637Y-97129602D01*
X141609341Y-97140831D01*
X141614325Y-97188253D01*
X141614325Y-97188254D01*
X141624904Y-97220811D01*
X141628590Y-97234938D01*
X141634104Y-97262662D01*
X141634105Y-97262664D01*
X141652644Y-97307423D01*
X141656012Y-97316554D01*
X141672819Y-97368279D01*
X141672822Y-97368286D01*
X141686569Y-97392097D01*
X141693742Y-97406643D01*
X141701984Y-97426542D01*
X141732634Y-97472413D01*
X141736912Y-97479294D01*
X141755645Y-97511740D01*
X141767468Y-97532218D01*
X141767469Y-97532219D01*
X141781357Y-97547643D01*
X141792307Y-97561721D01*
X141800534Y-97574033D01*
X141844274Y-97617773D01*
X141848744Y-97622483D01*
X141894129Y-97672888D01*
X141894131Y-97672890D01*
X141905467Y-97681126D01*
X141920263Y-97693763D01*
X141925961Y-97699461D01*
X141925965Y-97699464D01*
X141982994Y-97737570D01*
X141986966Y-97740338D01*
X142047270Y-97784151D01*
X142053902Y-97787104D01*
X142072361Y-97797283D01*
X142073453Y-97798013D01*
X142143042Y-97826836D01*
X142145987Y-97828102D01*
X142220197Y-97861144D01*
X142220668Y-97861244D01*
X142220696Y-97861250D01*
X142231370Y-97864562D01*
X142231503Y-97864125D01*
X142237330Y-97865892D01*
X142237334Y-97865894D01*
X142317816Y-97881902D01*
X142319282Y-97882204D01*
X142405354Y-97900500D01*
X142405355Y-97900500D01*
X142594645Y-97900500D01*
X142594646Y-97900500D01*
X142680746Y-97882198D01*
X142682180Y-97881902D01*
X142762666Y-97865894D01*
X142762669Y-97865892D01*
X142762672Y-97865892D01*
X142768496Y-97864126D01*
X142768631Y-97864573D01*
X142779315Y-97861247D01*
X142779803Y-97861144D01*
X142854057Y-97828082D01*
X142856955Y-97826837D01*
X142926547Y-97798013D01*
X142927633Y-97797287D01*
X142946095Y-97787104D01*
X142952730Y-97784151D01*
X143013054Y-97740322D01*
X143016952Y-97737605D01*
X143074035Y-97699464D01*
X143079739Y-97693758D01*
X143094531Y-97681126D01*
X143105871Y-97672888D01*
X143151274Y-97622461D01*
X143155687Y-97617810D01*
X143199464Y-97574035D01*
X143207687Y-97561727D01*
X143218642Y-97547643D01*
X143232531Y-97532218D01*
X143232530Y-97532218D01*
X143232533Y-97532216D01*
X143263091Y-97479284D01*
X143267368Y-97472408D01*
X143298012Y-97426548D01*
X143298013Y-97426547D01*
X143306259Y-97406637D01*
X143313433Y-97392091D01*
X143327177Y-97368287D01*
X143327178Y-97368286D01*
X143327179Y-97368284D01*
X143343995Y-97316528D01*
X143347355Y-97307423D01*
X143365894Y-97262666D01*
X143371411Y-97234927D01*
X143375094Y-97220813D01*
X143385674Y-97188256D01*
X143390656Y-97140837D01*
X143392361Y-97129604D01*
X143400500Y-97088695D01*
X143400500Y-97053692D01*
X143401179Y-97040731D01*
X143402610Y-97027112D01*
X143405460Y-97000000D01*
X143401179Y-96959266D01*
X143400500Y-96946306D01*
X143400500Y-96911952D01*
X143420185Y-96844913D01*
X143472989Y-96799158D01*
X143542147Y-96789214D01*
X143571952Y-96797391D01*
X143573451Y-96798012D01*
X143573453Y-96798013D01*
X143599066Y-96808622D01*
X143643008Y-96826823D01*
X143645988Y-96828102D01*
X143720197Y-96861144D01*
X143720668Y-96861244D01*
X143720696Y-96861250D01*
X143731370Y-96864562D01*
X143731503Y-96864125D01*
X143737330Y-96865892D01*
X143737334Y-96865894D01*
X143817816Y-96881902D01*
X143819282Y-96882204D01*
X143905354Y-96900500D01*
X143905355Y-96900500D01*
X144094645Y-96900500D01*
X144094646Y-96900500D01*
X144180746Y-96882198D01*
X144182180Y-96881902D01*
X144262666Y-96865894D01*
X144262669Y-96865892D01*
X144262672Y-96865892D01*
X144268496Y-96864126D01*
X144268631Y-96864573D01*
X144279315Y-96861247D01*
X144279803Y-96861144D01*
X144354057Y-96828082D01*
X144356955Y-96826837D01*
X144426547Y-96798013D01*
X144427633Y-96797287D01*
X144446095Y-96787104D01*
X144452730Y-96784151D01*
X144513054Y-96740322D01*
X144516952Y-96737605D01*
X144574035Y-96699464D01*
X144579739Y-96693758D01*
X144594531Y-96681126D01*
X144605871Y-96672888D01*
X144651274Y-96622461D01*
X144655687Y-96617810D01*
X144699464Y-96574035D01*
X144707687Y-96561727D01*
X144718642Y-96547643D01*
X144732531Y-96532218D01*
X144732530Y-96532218D01*
X144732533Y-96532216D01*
X144763091Y-96479284D01*
X144767368Y-96472408D01*
X144798012Y-96426548D01*
X144798013Y-96426547D01*
X144806259Y-96406637D01*
X144813433Y-96392091D01*
X144827177Y-96368287D01*
X144827178Y-96368286D01*
X144827179Y-96368284D01*
X144843995Y-96316528D01*
X144847351Y-96307431D01*
X144865894Y-96262666D01*
X144871411Y-96234927D01*
X144875094Y-96220813D01*
X144885674Y-96188256D01*
X144890656Y-96140837D01*
X144892361Y-96129604D01*
X144900500Y-96088695D01*
X144900500Y-96069311D01*
X144920185Y-96002272D01*
X144972989Y-95956517D01*
X145042147Y-95946573D01*
X145105703Y-95975598D01*
X145134985Y-96013017D01*
X145173155Y-96087932D01*
X145311984Y-96279011D01*
X147353181Y-98320208D01*
X147386666Y-98381531D01*
X147389500Y-98407889D01*
X147389500Y-102772870D01*
X147389501Y-102772876D01*
X147395908Y-102832483D01*
X147446202Y-102967328D01*
X147446206Y-102967335D01*
X147485327Y-103019593D01*
X147532454Y-103082546D01*
X147590813Y-103126234D01*
X147632684Y-103182167D01*
X147637668Y-103251859D01*
X147604183Y-103313182D01*
X147542859Y-103346666D01*
X147516502Y-103349500D01*
X145697585Y-103349500D01*
X145630546Y-103329815D01*
X145609904Y-103313181D01*
X145486576Y-103189853D01*
X145453059Y-103168793D01*
X145338606Y-103096878D01*
X145338605Y-103096877D01*
X145338604Y-103096877D01*
X145173658Y-103039159D01*
X145173648Y-103039157D01*
X145000004Y-103019593D01*
X144999996Y-103019593D01*
X144826351Y-103039157D01*
X144826341Y-103039159D01*
X144661395Y-103096877D01*
X144513423Y-103189853D01*
X144389853Y-103313423D01*
X144296877Y-103461395D01*
X144239159Y-103626341D01*
X144239157Y-103626351D01*
X144219593Y-103799996D01*
X144219593Y-103800003D01*
X144239157Y-103973648D01*
X144239159Y-103973658D01*
X144262238Y-104039613D01*
X144296878Y-104138606D01*
X144389853Y-104286576D01*
X144513424Y-104410147D01*
X144661394Y-104503122D01*
X144826343Y-104560841D01*
X144848723Y-104563363D01*
X144885914Y-104574928D01*
X144886244Y-104574133D01*
X144891871Y-104576463D01*
X144891873Y-104576465D01*
X145010256Y-104625501D01*
X145010260Y-104625501D01*
X145010261Y-104625502D01*
X145135928Y-104650500D01*
X145135931Y-104650500D01*
X150210050Y-104650500D01*
X150277089Y-104670185D01*
X150288543Y-104679415D01*
X150288766Y-104679131D01*
X150294670Y-104683757D01*
X150431929Y-104766732D01*
X150431933Y-104766734D01*
X150486100Y-104783612D01*
X150585067Y-104814452D01*
X150651619Y-104820500D01*
X150833007Y-104820499D01*
X150900045Y-104840183D01*
X150945800Y-104892987D01*
X150955744Y-104962145D01*
X150926719Y-105025701D01*
X150869897Y-105062884D01*
X150765653Y-105095368D01*
X150765640Y-105095372D01*
X150765639Y-105095373D01*
X150630056Y-105156394D01*
X150467725Y-105229453D01*
X150467723Y-105229454D01*
X150188131Y-105398473D01*
X149930960Y-105599954D01*
X149699954Y-105830960D01*
X149498473Y-106088131D01*
X149329454Y-106367723D01*
X149329453Y-106367725D01*
X149195372Y-106665642D01*
X149195366Y-106665657D01*
X149098178Y-106977547D01*
X149039289Y-107298900D01*
X149019564Y-107625000D01*
X149039289Y-107951097D01*
X149098178Y-108272452D01*
X149195366Y-108584342D01*
X149195370Y-108584354D01*
X149195373Y-108584361D01*
X149329455Y-108882279D01*
X149486118Y-109141431D01*
X149498473Y-109161868D01*
X149699954Y-109419039D01*
X149893734Y-109612819D01*
X149927219Y-109674142D01*
X149922235Y-109743834D01*
X149880363Y-109799767D01*
X149814899Y-109824184D01*
X149806053Y-109824500D01*
X120243345Y-109824500D01*
X120176306Y-109804815D01*
X120130551Y-109752011D01*
X120119358Y-109698729D01*
X120157862Y-107003469D01*
X144574500Y-107003469D01*
X144614868Y-107206412D01*
X144614870Y-107206420D01*
X144694058Y-107397596D01*
X144809024Y-107569657D01*
X144955342Y-107715975D01*
X144955345Y-107715977D01*
X145127402Y-107830941D01*
X145318580Y-107910130D01*
X145521530Y-107950499D01*
X145521534Y-107950500D01*
X145521535Y-107950500D01*
X145728466Y-107950500D01*
X145728467Y-107950499D01*
X145931420Y-107910130D01*
X146122598Y-107830941D01*
X146294655Y-107715977D01*
X146440977Y-107569655D01*
X146555941Y-107397598D01*
X146635130Y-107206420D01*
X146675500Y-107003465D01*
X146675500Y-106796535D01*
X146635130Y-106593580D01*
X146555941Y-106402402D01*
X146440977Y-106230345D01*
X146440975Y-106230342D01*
X146294657Y-106084024D01*
X146141331Y-105981576D01*
X146122598Y-105969059D01*
X145931420Y-105889870D01*
X145931412Y-105889868D01*
X145728469Y-105849500D01*
X145728465Y-105849500D01*
X145521535Y-105849500D01*
X145521530Y-105849500D01*
X145318587Y-105889868D01*
X145318579Y-105889870D01*
X145127403Y-105969058D01*
X144955342Y-106084024D01*
X144809024Y-106230342D01*
X144694058Y-106402403D01*
X144614870Y-106593579D01*
X144614868Y-106593587D01*
X144574500Y-106796530D01*
X144574500Y-107003469D01*
X120157862Y-107003469D01*
X120200000Y-104053772D01*
X104621085Y-104053772D01*
X104554046Y-104034087D01*
X104508291Y-103981283D01*
X104498347Y-103912125D01*
X104527372Y-103848569D01*
X104533404Y-103842091D01*
X104549154Y-103826341D01*
X104610147Y-103765348D01*
X104703122Y-103617378D01*
X104760841Y-103452429D01*
X104763821Y-103425980D01*
X104780407Y-103278775D01*
X104780407Y-103278768D01*
X104760842Y-103105123D01*
X104760841Y-103105121D01*
X104760841Y-103105115D01*
X104703122Y-102940166D01*
X104610147Y-102792196D01*
X104610146Y-102792195D01*
X104605806Y-102786753D01*
X104607228Y-102785618D01*
X104578145Y-102732356D01*
X104583129Y-102662664D01*
X104625001Y-102606731D01*
X104690465Y-102582314D01*
X104699311Y-102581998D01*
X105366378Y-102581998D01*
X105433417Y-102601683D01*
X105439263Y-102605680D01*
X105547265Y-102684148D01*
X105547270Y-102684151D01*
X105720192Y-102761142D01*
X105720197Y-102761144D01*
X105905354Y-102800500D01*
X105905355Y-102800500D01*
X106094644Y-102800500D01*
X106094646Y-102800500D01*
X106279803Y-102761144D01*
X106452730Y-102684151D01*
X106605871Y-102572888D01*
X106732533Y-102432216D01*
X106827179Y-102268284D01*
X106885674Y-102088256D01*
X106905460Y-101900000D01*
X106885674Y-101711744D01*
X106831112Y-101543823D01*
X106827181Y-101531722D01*
X106827180Y-101531721D01*
X106827179Y-101531716D01*
X106732533Y-101367784D01*
X106726553Y-101361142D01*
X106679263Y-101308621D01*
X106649033Y-101245629D01*
X106653481Y-101187332D01*
X106685674Y-101088256D01*
X106705460Y-100900000D01*
X106685674Y-100711744D01*
X106627179Y-100531716D01*
X106618711Y-100517049D01*
X106567113Y-100427677D01*
X106550500Y-100365677D01*
X106550500Y-98234321D01*
X106567113Y-98172321D01*
X106608200Y-98101156D01*
X106627179Y-98068284D01*
X106685674Y-97888256D01*
X106705460Y-97700000D01*
X106685674Y-97511744D01*
X106627179Y-97331716D01*
X106532533Y-97167784D01*
X106405871Y-97027112D01*
X106405870Y-97027111D01*
X106252734Y-96915851D01*
X106252729Y-96915848D01*
X106079807Y-96838857D01*
X106079802Y-96838855D01*
X105934001Y-96807865D01*
X105894646Y-96799500D01*
X105705354Y-96799500D01*
X105672897Y-96806398D01*
X105520197Y-96838855D01*
X105520192Y-96838857D01*
X105347270Y-96915848D01*
X105347265Y-96915851D01*
X105333548Y-96925818D01*
X105267742Y-96949298D01*
X105260663Y-96949500D01*
X101439337Y-96949500D01*
X101372298Y-96929815D01*
X101366452Y-96925818D01*
X101352734Y-96915851D01*
X101352729Y-96915848D01*
X101179807Y-96838857D01*
X101179802Y-96838855D01*
X101034001Y-96807865D01*
X100994646Y-96799500D01*
X100805354Y-96799500D01*
X100772897Y-96806398D01*
X100620197Y-96838855D01*
X100620192Y-96838857D01*
X100447270Y-96915848D01*
X100447265Y-96915851D01*
X100294129Y-97027111D01*
X100167466Y-97167785D01*
X100072821Y-97331715D01*
X100072818Y-97331722D01*
X100027107Y-97472408D01*
X100014326Y-97511744D01*
X100002687Y-97622483D01*
X99995196Y-97693763D01*
X99994540Y-97700000D01*
X100006368Y-97812541D01*
X99993800Y-97881268D01*
X99946068Y-97932292D01*
X99883048Y-97949500D01*
X95515810Y-97949500D01*
X95448771Y-97929815D01*
X95428129Y-97913181D01*
X95311187Y-97796239D01*
X95281827Y-97749513D01*
X95225622Y-97588893D01*
X95225622Y-97588892D01*
X95132647Y-97440922D01*
X95009076Y-97317351D01*
X94861106Y-97224376D01*
X94861105Y-97224375D01*
X94861104Y-97224375D01*
X94696158Y-97166657D01*
X94696148Y-97166655D01*
X94522504Y-97147091D01*
X94522496Y-97147091D01*
X94348851Y-97166655D01*
X94348841Y-97166657D01*
X94183895Y-97224375D01*
X94035923Y-97317351D01*
X93912353Y-97440921D01*
X93819377Y-97588893D01*
X93761659Y-97753839D01*
X93761657Y-97753849D01*
X93742093Y-97927494D01*
X93742093Y-97927501D01*
X93761657Y-98101146D01*
X93761659Y-98101155D01*
X93819378Y-98266104D01*
X93912353Y-98414074D01*
X94035924Y-98537645D01*
X94183894Y-98630620D01*
X94253723Y-98655054D01*
X94344515Y-98686825D01*
X94391241Y-98716185D01*
X94562875Y-98887819D01*
X94596360Y-98949142D01*
X94591376Y-99018834D01*
X94549504Y-99074767D01*
X94484040Y-99099184D01*
X94475194Y-99099500D01*
X83210929Y-99099500D01*
X83085261Y-99124497D01*
X83085255Y-99124499D01*
X82966875Y-99173533D01*
X82966866Y-99173538D01*
X82860331Y-99244723D01*
X82860327Y-99244726D01*
X82281240Y-99823813D01*
X82234515Y-99853173D01*
X82073894Y-99909378D01*
X81925923Y-100002353D01*
X81802353Y-100125923D01*
X81709377Y-100273895D01*
X81651659Y-100438841D01*
X81651657Y-100438850D01*
X81632093Y-100612497D01*
X81632093Y-100619464D01*
X81630620Y-100619464D01*
X81619938Y-100680440D01*
X81572588Y-100731819D01*
X81508773Y-100749500D01*
X80455541Y-100749500D01*
X80388502Y-100729815D01*
X80342747Y-100677011D01*
X80337610Y-100663818D01*
X80327181Y-100631722D01*
X80327180Y-100631721D01*
X80327179Y-100631716D01*
X80232533Y-100467784D01*
X80105871Y-100327112D01*
X80105870Y-100327111D01*
X79952734Y-100215851D01*
X79952729Y-100215848D01*
X79779807Y-100138857D01*
X79779802Y-100138855D01*
X79634001Y-100107865D01*
X79594646Y-100099500D01*
X79405354Y-100099500D01*
X79372897Y-100106398D01*
X79220197Y-100138855D01*
X79220192Y-100138857D01*
X79047270Y-100215848D01*
X79047265Y-100215851D01*
X78894129Y-100327111D01*
X78767466Y-100467785D01*
X78672821Y-100631715D01*
X78672818Y-100631722D01*
X78634550Y-100749500D01*
X78614326Y-100811744D01*
X78594540Y-101000000D01*
X78614326Y-101188256D01*
X78614327Y-101188259D01*
X78672818Y-101368277D01*
X78672821Y-101368284D01*
X78767467Y-101532216D01*
X78894129Y-101672888D01*
X79047265Y-101784148D01*
X79047270Y-101784151D01*
X79220191Y-101861142D01*
X79220193Y-101861142D01*
X79220197Y-101861144D01*
X79285329Y-101874987D01*
X79346809Y-101908178D01*
X79347228Y-101908596D01*
X79521584Y-102082952D01*
X79521590Y-102082957D01*
X79575401Y-102118910D01*
X79575404Y-102118913D01*
X79575405Y-102118913D01*
X79644505Y-102165084D01*
X79644506Y-102165084D01*
X79644507Y-102165085D01*
X79781082Y-102221656D01*
X79781087Y-102221658D01*
X79781091Y-102221658D01*
X79781092Y-102221659D01*
X79926079Y-102250500D01*
X79926082Y-102250500D01*
X79926083Y-102250500D01*
X80073918Y-102250500D01*
X83960663Y-102250500D01*
X84027702Y-102270185D01*
X84033548Y-102274182D01*
X84047265Y-102284148D01*
X84047270Y-102284151D01*
X84220192Y-102361142D01*
X84220197Y-102361144D01*
X84405354Y-102400500D01*
X84405355Y-102400500D01*
X84594644Y-102400500D01*
X84594646Y-102400500D01*
X84779803Y-102361144D01*
X84952730Y-102284151D01*
X85105871Y-102172888D01*
X85232533Y-102032216D01*
X85327179Y-101868284D01*
X85382522Y-101697955D01*
X85412769Y-101648597D01*
X85774548Y-101286819D01*
X85835871Y-101253334D01*
X85862229Y-101250500D01*
X87460663Y-101250500D01*
X87527702Y-101270185D01*
X87533548Y-101274182D01*
X87547265Y-101284148D01*
X87547270Y-101284151D01*
X87720192Y-101361142D01*
X87720197Y-101361144D01*
X87905354Y-101400500D01*
X87905355Y-101400500D01*
X88094644Y-101400500D01*
X88094646Y-101400500D01*
X88279803Y-101361144D01*
X88452730Y-101284151D01*
X88605871Y-101172888D01*
X88732533Y-101032216D01*
X88827179Y-100868284D01*
X88885674Y-100688256D01*
X88904247Y-100511536D01*
X88930832Y-100446924D01*
X88988129Y-100406939D01*
X89027568Y-100400500D01*
X98672179Y-100400500D01*
X98739218Y-100420185D01*
X98784973Y-100472989D01*
X98794917Y-100542147D01*
X98765892Y-100605703D01*
X98722615Y-100637779D01*
X98547270Y-100715848D01*
X98547265Y-100715851D01*
X98394129Y-100827111D01*
X98267466Y-100967785D01*
X98172821Y-101131715D01*
X98172818Y-101131722D01*
X98114327Y-101311740D01*
X98114326Y-101311744D01*
X98094540Y-101500000D01*
X98114326Y-101688256D01*
X98114327Y-101688259D01*
X98172818Y-101868277D01*
X98172821Y-101868284D01*
X98267467Y-102032216D01*
X98384349Y-102162026D01*
X98394129Y-102172888D01*
X98547265Y-102284148D01*
X98547270Y-102284151D01*
X98720192Y-102361142D01*
X98720197Y-102361144D01*
X98905354Y-102400500D01*
X98905355Y-102400500D01*
X99094644Y-102400500D01*
X99094646Y-102400500D01*
X99279803Y-102361144D01*
X99452730Y-102284151D01*
X99605871Y-102172888D01*
X99615651Y-102162025D01*
X99675137Y-102125377D01*
X99744994Y-102126707D01*
X99803043Y-102165594D01*
X99821077Y-102194554D01*
X99823404Y-102199780D01*
X99823405Y-102199782D01*
X99918051Y-102363714D01*
X99979729Y-102432214D01*
X100049062Y-102509216D01*
X100047506Y-102510616D01*
X100079014Y-102561761D01*
X100077683Y-102631618D01*
X100038795Y-102689666D01*
X100025480Y-102698639D01*
X100025670Y-102698923D01*
X99914058Y-102773498D01*
X97981243Y-104706313D01*
X97934518Y-104735673D01*
X97773898Y-104791878D01*
X97625927Y-104884853D01*
X97502357Y-105008423D01*
X97409381Y-105156395D01*
X97351663Y-105321341D01*
X97351661Y-105321351D01*
X97332097Y-105494996D01*
X97332097Y-105495003D01*
X97351661Y-105668648D01*
X97351663Y-105668658D01*
X97409381Y-105833604D01*
X97409382Y-105833606D01*
X97502357Y-105981576D01*
X97625928Y-106105147D01*
X97773898Y-106198122D01*
X97938847Y-106255841D01*
X97938853Y-106255841D01*
X97938855Y-106255842D01*
X98112500Y-106275407D01*
X98112504Y-106275407D01*
X98112508Y-106275407D01*
X98286152Y-106255842D01*
X98286151Y-106255842D01*
X98286161Y-106255841D01*
X98451110Y-106198122D01*
X98599080Y-106105147D01*
X98722651Y-105981576D01*
X98815626Y-105833606D01*
X98871831Y-105672982D01*
X98901189Y-105626259D01*
X100561859Y-103965591D01*
X100623182Y-103932106D01*
X100649540Y-103929272D01*
X102275978Y-103929272D01*
X102343017Y-103948957D01*
X102388772Y-104001761D01*
X102399964Y-104051393D01*
X102400000Y-104053772D01*
X102484446Y-109627246D01*
X102485528Y-109698621D01*
X102466861Y-109765951D01*
X102414756Y-109812501D01*
X102361542Y-109824500D01*
X68943947Y-109824500D01*
X68876908Y-109804815D01*
X68831153Y-109752011D01*
X68821209Y-109682853D01*
X68850234Y-109619297D01*
X68856266Y-109612819D01*
X69050045Y-109419039D01*
X69050048Y-109419036D01*
X69251530Y-109161863D01*
X69420545Y-108882279D01*
X69554627Y-108584361D01*
X69651821Y-108272453D01*
X69710710Y-107951104D01*
X69710710Y-107951101D01*
X69710711Y-107951097D01*
X69717979Y-107830941D01*
X69730436Y-107625000D01*
X69710710Y-107298896D01*
X69651821Y-106977547D01*
X69595416Y-106796535D01*
X69554633Y-106665657D01*
X69554631Y-106665652D01*
X69554627Y-106665639D01*
X69420545Y-106367721D01*
X69251530Y-106088137D01*
X69251528Y-106088134D01*
X69251526Y-106088131D01*
X69050045Y-105830960D01*
X68819039Y-105599954D01*
X68561868Y-105398473D01*
X68554306Y-105393901D01*
X68282279Y-105229455D01*
X67984361Y-105095373D01*
X67984354Y-105095370D01*
X67984342Y-105095366D01*
X67865882Y-105058453D01*
X67807734Y-105019716D01*
X67779760Y-104955691D01*
X67790842Y-104886705D01*
X67837460Y-104834662D01*
X67891552Y-104816577D01*
X67914926Y-104814453D01*
X67914927Y-104814452D01*
X67914933Y-104814452D01*
X68068069Y-104766733D01*
X68173298Y-104703120D01*
X68205329Y-104683757D01*
X68205333Y-104683754D01*
X68205335Y-104683753D01*
X68205338Y-104683749D01*
X68211234Y-104679131D01*
X68212766Y-104681086D01*
X68263592Y-104653334D01*
X68289950Y-104650500D01*
X69041922Y-104650500D01*
X69107894Y-104669506D01*
X69161394Y-104703122D01*
X69326343Y-104760841D01*
X69326349Y-104760841D01*
X69326351Y-104760842D01*
X69499996Y-104780407D01*
X69500000Y-104780407D01*
X69500004Y-104780407D01*
X69673648Y-104760842D01*
X69673647Y-104760842D01*
X69673657Y-104760841D01*
X69838606Y-104703122D01*
X69986576Y-104610147D01*
X70110147Y-104486576D01*
X70203122Y-104338606D01*
X70260841Y-104173657D01*
X70264790Y-104138604D01*
X70280407Y-104000003D01*
X70280407Y-103999996D01*
X70260842Y-103826351D01*
X70260841Y-103826349D01*
X70260841Y-103826343D01*
X70203122Y-103661394D01*
X70110147Y-103513424D01*
X69986576Y-103389853D01*
X69838606Y-103296878D01*
X69838605Y-103296877D01*
X69838604Y-103296877D01*
X69673658Y-103239159D01*
X69673648Y-103239157D01*
X69500004Y-103219593D01*
X69499996Y-103219593D01*
X69326351Y-103239157D01*
X69326341Y-103239159D01*
X69161395Y-103296877D01*
X69161391Y-103296879D01*
X69107894Y-103330494D01*
X69041922Y-103349500D01*
X68289950Y-103349500D01*
X68222911Y-103329815D01*
X68211456Y-103320584D01*
X68211234Y-103320869D01*
X68205329Y-103316242D01*
X68068070Y-103233267D01*
X68068066Y-103233265D01*
X67914933Y-103185548D01*
X67914935Y-103185548D01*
X67888312Y-103183128D01*
X67848381Y-103179500D01*
X67848378Y-103179500D01*
X67296611Y-103179500D01*
X67230073Y-103185546D01*
X67230066Y-103185548D01*
X67076933Y-103233265D01*
X67076929Y-103233267D01*
X66939670Y-103316242D01*
X66939665Y-103316246D01*
X66826246Y-103429665D01*
X66826242Y-103429670D01*
X66743267Y-103566929D01*
X66743265Y-103566933D01*
X66695548Y-103720065D01*
X66689500Y-103786621D01*
X66689500Y-104213388D01*
X66695546Y-104279926D01*
X66695548Y-104279933D01*
X66743265Y-104433066D01*
X66743267Y-104433070D01*
X66826242Y-104570329D01*
X66826246Y-104570334D01*
X66939666Y-104683754D01*
X66961481Y-104696941D01*
X67008669Y-104748467D01*
X67020509Y-104817326D01*
X66993242Y-104881656D01*
X66935524Y-104921031D01*
X66904820Y-104926833D01*
X66698900Y-104939289D01*
X66377547Y-104998178D01*
X66065657Y-105095366D01*
X66065641Y-105095372D01*
X66065639Y-105095373D01*
X65930056Y-105156394D01*
X65767725Y-105229453D01*
X65767723Y-105229454D01*
X65488131Y-105398473D01*
X65230960Y-105599954D01*
X65082179Y-105748736D01*
X65020856Y-105782221D01*
X64951164Y-105777237D01*
X64895231Y-105735365D01*
X64870814Y-105669901D01*
X64870498Y-105661055D01*
X64870498Y-83672870D01*
X65679500Y-83672870D01*
X65679501Y-83672876D01*
X65685908Y-83732483D01*
X65736202Y-83867328D01*
X65736205Y-83867333D01*
X65822452Y-83982544D01*
X65822455Y-83982547D01*
X65937664Y-84068793D01*
X65937671Y-84068797D01*
X65971993Y-84081598D01*
X66072517Y-84119091D01*
X66132127Y-84125500D01*
X66200500Y-84125499D01*
X66267538Y-84145183D01*
X66313294Y-84197986D01*
X66324500Y-84249499D01*
X66324500Y-85691887D01*
X66304815Y-85758926D01*
X66301805Y-85763395D01*
X66201096Y-85906068D01*
X66068894Y-86161206D01*
X65972667Y-86431962D01*
X65972666Y-86431965D01*
X65914201Y-86713319D01*
X65894592Y-87000000D01*
X65914201Y-87286680D01*
X65914201Y-87286684D01*
X65914202Y-87286686D01*
X65922603Y-87327112D01*
X65972666Y-87568034D01*
X65972667Y-87568037D01*
X66068894Y-87838793D01*
X66068893Y-87838793D01*
X66201098Y-88093935D01*
X66366812Y-88328700D01*
X66443963Y-88411308D01*
X66562947Y-88538708D01*
X66785853Y-88720055D01*
X67000953Y-88850861D01*
X67031382Y-88869365D01*
X67189580Y-88938079D01*
X67294942Y-88983844D01*
X67571642Y-89061371D01*
X67821920Y-89095771D01*
X67856321Y-89100500D01*
X67856322Y-89100500D01*
X68143678Y-89100500D01*
X68302875Y-89078618D01*
X68371969Y-89088990D01*
X68407440Y-89113782D01*
X69431848Y-90138190D01*
X69465333Y-90199513D01*
X69460349Y-90269205D01*
X69418477Y-90325138D01*
X69353013Y-90349555D01*
X69284740Y-90334703D01*
X69265912Y-90322059D01*
X69214146Y-90279944D01*
X68968617Y-90130634D01*
X68705063Y-90016158D01*
X68705061Y-90016157D01*
X68705058Y-90016156D01*
X68575578Y-89979877D01*
X68428364Y-89938630D01*
X68428359Y-89938629D01*
X68428358Y-89938629D01*
X68286018Y-89919064D01*
X68143679Y-89899500D01*
X68143678Y-89899500D01*
X67856322Y-89899500D01*
X67856321Y-89899500D01*
X67571642Y-89938629D01*
X67571635Y-89938630D01*
X67375767Y-89993510D01*
X67294942Y-90016156D01*
X67294939Y-90016156D01*
X67294936Y-90016158D01*
X67294935Y-90016158D01*
X67031382Y-90130634D01*
X66785853Y-90279944D01*
X66562950Y-90461289D01*
X66366812Y-90671299D01*
X66201098Y-90906064D01*
X66068894Y-91161206D01*
X65972667Y-91431962D01*
X65972666Y-91431965D01*
X65914201Y-91713319D01*
X65894592Y-92000000D01*
X65914201Y-92286680D01*
X65972666Y-92568034D01*
X65972667Y-92568037D01*
X66068894Y-92838793D01*
X66068893Y-92838793D01*
X66201098Y-93093935D01*
X66366812Y-93328700D01*
X66435441Y-93402183D01*
X66562947Y-93538708D01*
X66785853Y-93720055D01*
X66826279Y-93744639D01*
X67031382Y-93869365D01*
X67143040Y-93917864D01*
X67294942Y-93983844D01*
X67571642Y-94061371D01*
X67812444Y-94094469D01*
X67856321Y-94100500D01*
X67856322Y-94100500D01*
X68143676Y-94100500D01*
X68143678Y-94100500D01*
X68169387Y-94096966D01*
X68205668Y-94097337D01*
X68250457Y-94104431D01*
X68351904Y-94120500D01*
X68351908Y-94120500D01*
X68588097Y-94120500D01*
X68717690Y-94099973D01*
X68821369Y-94083553D01*
X69045992Y-94010568D01*
X69256434Y-93903343D01*
X69447510Y-93764518D01*
X69614518Y-93597510D01*
X69753343Y-93406434D01*
X69860568Y-93195992D01*
X69933553Y-92971369D01*
X69961223Y-92796666D01*
X69971263Y-92733280D01*
X69971952Y-92733389D01*
X69977015Y-92709614D01*
X70027334Y-92568032D01*
X70085798Y-92286686D01*
X70105408Y-92000000D01*
X70085798Y-91713314D01*
X70027334Y-91431968D01*
X69931105Y-91161206D01*
X69931106Y-91161206D01*
X69798901Y-90906064D01*
X69742440Y-90826077D01*
X69672555Y-90727072D01*
X69649978Y-90660952D01*
X69666732Y-90593121D01*
X69717498Y-90545115D01*
X69786159Y-90532176D01*
X69850916Y-90558413D01*
X69861542Y-90567884D01*
X73910586Y-94616928D01*
X74033072Y-94739414D01*
X74173212Y-94841232D01*
X74327555Y-94919873D01*
X74492299Y-94973402D01*
X74663389Y-95000500D01*
X131292120Y-95000500D01*
X131359159Y-95020185D01*
X131379801Y-95036819D01*
X131420234Y-95077252D01*
X131560374Y-95179070D01*
X131714717Y-95257711D01*
X131879461Y-95311240D01*
X132050551Y-95338338D01*
X132050552Y-95338338D01*
X132223772Y-95338338D01*
X132223773Y-95338338D01*
X132394863Y-95311240D01*
X132559607Y-95257711D01*
X132713950Y-95179070D01*
X132854090Y-95077252D01*
X133383164Y-94548178D01*
X133387391Y-94542361D01*
X133401936Y-94522340D01*
X133411006Y-94509857D01*
X133411007Y-94509855D01*
X133484982Y-94408038D01*
X133563623Y-94253696D01*
X133568649Y-94238224D01*
X133581016Y-94200165D01*
X133581016Y-94200162D01*
X133617153Y-94088950D01*
X133633800Y-93983841D01*
X133644250Y-93917864D01*
X133644250Y-93744634D01*
X133620948Y-93597512D01*
X133617153Y-93573549D01*
X133563623Y-93408804D01*
X133563621Y-93408801D01*
X133563621Y-93408799D01*
X133484979Y-93254457D01*
X133383170Y-93114327D01*
X133260672Y-92991829D01*
X133120542Y-92890020D01*
X132966200Y-92811378D01*
X132909826Y-92793061D01*
X132801451Y-92757847D01*
X132801445Y-92757846D01*
X132707856Y-92743023D01*
X132644722Y-92713094D01*
X132639573Y-92708231D01*
X132591930Y-92660588D01*
X132591928Y-92660586D01*
X132451788Y-92558768D01*
X132297445Y-92480127D01*
X132132701Y-92426598D01*
X132132699Y-92426597D01*
X132132698Y-92426597D01*
X132001271Y-92405781D01*
X131961611Y-92399500D01*
X131788389Y-92399500D01*
X131748728Y-92405781D01*
X131617302Y-92426597D01*
X131452552Y-92480128D01*
X131298211Y-92558768D01*
X131158073Y-92660585D01*
X131055476Y-92763182D01*
X130994153Y-92796666D01*
X130967795Y-92799500D01*
X116527568Y-92799500D01*
X116460529Y-92779815D01*
X116414774Y-92727011D01*
X116404247Y-92688462D01*
X116402558Y-92672393D01*
X116385674Y-92511744D01*
X116327179Y-92331716D01*
X116313425Y-92307893D01*
X116302453Y-92288888D01*
X116285980Y-92220988D01*
X116308833Y-92154961D01*
X116322153Y-92139213D01*
X117422440Y-91038926D01*
X117483761Y-91005443D01*
X117484117Y-91005365D01*
X117549472Y-90991475D01*
X117722399Y-90914482D01*
X117807791Y-90852441D01*
X117873596Y-90828962D01*
X117941650Y-90844787D01*
X117968356Y-90865079D01*
X118063424Y-90960147D01*
X118211394Y-91053122D01*
X118376343Y-91110841D01*
X118376349Y-91110841D01*
X118376351Y-91110842D01*
X118549996Y-91130407D01*
X118550000Y-91130407D01*
X118550004Y-91130407D01*
X118723648Y-91110842D01*
X118723647Y-91110842D01*
X118723657Y-91110841D01*
X118888606Y-91053122D01*
X119036576Y-90960147D01*
X119160147Y-90836576D01*
X119253122Y-90688606D01*
X119310841Y-90523657D01*
X119320232Y-90440311D01*
X119330407Y-90350003D01*
X119330407Y-90349996D01*
X119310842Y-90176351D01*
X119310841Y-90176349D01*
X119310841Y-90176343D01*
X119253122Y-90011394D01*
X119160147Y-89863424D01*
X119036576Y-89739853D01*
X118888606Y-89646878D01*
X118888605Y-89646877D01*
X118888604Y-89646877D01*
X118727985Y-89590673D01*
X118681259Y-89561313D01*
X111914674Y-82794727D01*
X111914673Y-82794726D01*
X111914669Y-82794723D01*
X111808127Y-82723535D01*
X111689744Y-82674499D01*
X111689740Y-82674498D01*
X111685694Y-82673693D01*
X111681648Y-82672888D01*
X111681645Y-82672887D01*
X111681645Y-82672888D01*
X111564071Y-82649500D01*
X111564069Y-82649500D01*
X87890669Y-82649500D01*
X87823630Y-82629815D01*
X87802988Y-82613181D01*
X79270057Y-74080250D01*
X79240697Y-74033524D01*
X79184492Y-73872904D01*
X79184492Y-73872903D01*
X79091517Y-73724933D01*
X78967946Y-73601362D01*
X78819976Y-73508387D01*
X78819975Y-73508386D01*
X78819974Y-73508386D01*
X78655028Y-73450668D01*
X78655018Y-73450666D01*
X78481374Y-73431102D01*
X78481366Y-73431102D01*
X78307721Y-73450666D01*
X78307711Y-73450668D01*
X78142765Y-73508386D01*
X77994793Y-73601362D01*
X77871223Y-73724932D01*
X77778247Y-73872904D01*
X77720529Y-74037850D01*
X77720527Y-74037860D01*
X77700963Y-74211505D01*
X77700963Y-74211512D01*
X77720527Y-74385157D01*
X77720529Y-74385167D01*
X77765409Y-74513424D01*
X77778248Y-74550115D01*
X77871223Y-74698085D01*
X77994794Y-74821656D01*
X78142764Y-74914631D01*
X78212593Y-74939065D01*
X78303385Y-74970836D01*
X78350111Y-75000196D01*
X82657038Y-79307124D01*
X82690523Y-79368447D01*
X82685539Y-79438139D01*
X82643667Y-79494072D01*
X82578203Y-79518489D01*
X82543576Y-79516095D01*
X82455496Y-79497373D01*
X82359646Y-79477000D01*
X82170354Y-79477000D01*
X82137897Y-79483898D01*
X81985197Y-79516355D01*
X81985192Y-79516357D01*
X81812270Y-79593348D01*
X81812265Y-79593351D01*
X81659129Y-79704611D01*
X81532466Y-79845285D01*
X81437821Y-80009215D01*
X81437818Y-80009222D01*
X81406699Y-80104998D01*
X81379326Y-80189244D01*
X81359540Y-80377500D01*
X81379326Y-80565756D01*
X81379327Y-80565759D01*
X81437818Y-80745777D01*
X81438777Y-80747930D01*
X81439267Y-80750235D01*
X81439829Y-80751965D01*
X81439647Y-80752024D01*
X81449500Y-80798372D01*
X81449500Y-83265677D01*
X81432887Y-83327677D01*
X81372821Y-83431714D01*
X81314327Y-83611740D01*
X81314326Y-83611744D01*
X81294540Y-83800000D01*
X81314326Y-83988256D01*
X81314327Y-83988259D01*
X81372818Y-84168277D01*
X81372821Y-84168284D01*
X81467467Y-84332216D01*
X81594129Y-84472888D01*
X81747265Y-84584148D01*
X81747270Y-84584151D01*
X81920192Y-84661142D01*
X81920197Y-84661144D01*
X82105354Y-84700500D01*
X82105355Y-84700500D01*
X82294644Y-84700500D01*
X82294646Y-84700500D01*
X82479803Y-84661144D01*
X82652730Y-84584151D01*
X82658294Y-84580108D01*
X82724098Y-84556628D01*
X82792153Y-84572452D01*
X82804065Y-84580108D01*
X82947265Y-84684148D01*
X82947270Y-84684151D01*
X83120192Y-84761142D01*
X83120197Y-84761144D01*
X83305354Y-84800500D01*
X83305355Y-84800500D01*
X83494644Y-84800500D01*
X83494646Y-84800500D01*
X83679803Y-84761144D01*
X83852730Y-84684151D01*
X84005871Y-84572888D01*
X84132533Y-84432216D01*
X84227179Y-84268284D01*
X84285674Y-84088256D01*
X84305460Y-83900000D01*
X84285674Y-83711744D01*
X84227179Y-83531716D01*
X84226424Y-83530408D01*
X84167113Y-83427677D01*
X84150500Y-83365677D01*
X84150500Y-81442472D01*
X84151179Y-81429510D01*
X84157614Y-81368287D01*
X84157960Y-81365000D01*
X84138174Y-81176744D01*
X84110799Y-81092495D01*
X84108805Y-81022657D01*
X84144885Y-80962824D01*
X84207586Y-80931995D01*
X84277000Y-80939959D01*
X84316412Y-80966498D01*
X87155188Y-83805274D01*
X87248065Y-83867332D01*
X87248066Y-83867333D01*
X87261725Y-83876460D01*
X87261733Y-83876464D01*
X87261734Y-83876465D01*
X87380117Y-83925501D01*
X87380121Y-83925501D01*
X87380122Y-83925502D01*
X87505789Y-83950500D01*
X87505792Y-83950500D01*
X111179192Y-83950500D01*
X111246231Y-83970185D01*
X111266873Y-83986819D01*
X113699815Y-86419761D01*
X113733300Y-86481084D01*
X113728316Y-86550776D01*
X113686444Y-86606709D01*
X113620980Y-86631126D01*
X113598251Y-86630662D01*
X113500004Y-86619593D01*
X113499996Y-86619593D01*
X113326351Y-86639157D01*
X113326341Y-86639159D01*
X113161395Y-86696877D01*
X113013423Y-86789853D01*
X112889853Y-86913423D01*
X112796877Y-87061395D01*
X112739159Y-87226341D01*
X112739157Y-87226351D01*
X112719593Y-87399996D01*
X112719593Y-87400003D01*
X112739157Y-87573648D01*
X112739159Y-87573658D01*
X112796877Y-87738604D01*
X112796879Y-87738608D01*
X112830494Y-87792106D01*
X112849500Y-87858078D01*
X112849500Y-89417113D01*
X112830494Y-89483084D01*
X112754936Y-89603334D01*
X112697217Y-89768283D01*
X112697215Y-89768293D01*
X112677651Y-89941938D01*
X112677651Y-89941945D01*
X112697215Y-90115590D01*
X112697217Y-90115600D01*
X112754725Y-90279945D01*
X112754936Y-90280548D01*
X112847911Y-90428518D01*
X112971482Y-90552089D01*
X113119452Y-90645064D01*
X113284401Y-90702783D01*
X113284407Y-90702783D01*
X113284409Y-90702784D01*
X113458054Y-90722349D01*
X113458058Y-90722349D01*
X113458062Y-90722349D01*
X113631706Y-90702784D01*
X113631705Y-90702784D01*
X113631715Y-90702783D01*
X113794706Y-90645748D01*
X113864483Y-90642186D01*
X113925111Y-90676915D01*
X113957338Y-90738908D01*
X113957277Y-90786981D01*
X113949500Y-90826077D01*
X113949500Y-91465677D01*
X113932887Y-91527677D01*
X113872821Y-91631714D01*
X113833560Y-91752547D01*
X113814326Y-91811744D01*
X113794540Y-92000000D01*
X113814326Y-92188256D01*
X113814327Y-92188259D01*
X113872818Y-92368277D01*
X113872821Y-92368284D01*
X113967467Y-92532216D01*
X114001944Y-92570506D01*
X114021772Y-92592528D01*
X114052002Y-92655520D01*
X114043377Y-92724855D01*
X113998635Y-92778520D01*
X113931983Y-92799478D01*
X113929622Y-92799500D01*
X101724871Y-92799500D01*
X101657832Y-92779815D01*
X101612077Y-92727011D01*
X101602133Y-92657853D01*
X101631158Y-92594297D01*
X101658897Y-92570507D01*
X101736576Y-92521699D01*
X101860147Y-92398128D01*
X101953122Y-92250158D01*
X102010841Y-92085209D01*
X102011621Y-92078278D01*
X102030407Y-91911555D01*
X102030407Y-91911548D01*
X102010842Y-91737903D01*
X102010841Y-91737901D01*
X102010841Y-91737895D01*
X101953122Y-91572946D01*
X101953121Y-91572944D01*
X101919506Y-91519445D01*
X101900500Y-91453474D01*
X101900500Y-90994169D01*
X101920185Y-90927130D01*
X101972989Y-90881375D01*
X102024500Y-90870169D01*
X102164313Y-90870169D01*
X102164315Y-90870169D01*
X102349472Y-90830813D01*
X102522399Y-90753820D01*
X102675540Y-90642557D01*
X102802202Y-90501885D01*
X102896848Y-90337953D01*
X102955343Y-90157925D01*
X102975129Y-89969669D01*
X102955343Y-89781413D01*
X102896848Y-89601385D01*
X102890663Y-89590673D01*
X102857723Y-89533618D01*
X102841250Y-89465718D01*
X102864102Y-89399691D01*
X102877423Y-89383943D01*
X103552770Y-88708595D01*
X103614091Y-88675112D01*
X103614427Y-88675039D01*
X103679803Y-88661144D01*
X103852730Y-88584151D01*
X104005871Y-88472888D01*
X104132533Y-88332216D01*
X104227179Y-88168284D01*
X104285674Y-87988256D01*
X104305460Y-87800000D01*
X104285674Y-87611744D01*
X104227179Y-87431716D01*
X104132533Y-87267784D01*
X104005871Y-87127112D01*
X103999935Y-87122799D01*
X103957271Y-87067469D01*
X103951293Y-86997856D01*
X103983900Y-86936061D01*
X103985068Y-86934876D01*
X104231259Y-86688685D01*
X104277982Y-86659327D01*
X104438606Y-86603122D01*
X104586576Y-86510147D01*
X104710147Y-86386576D01*
X104803122Y-86238606D01*
X104860841Y-86073657D01*
X104865706Y-86030478D01*
X104880407Y-85900003D01*
X104880407Y-85899996D01*
X104860842Y-85726351D01*
X104860841Y-85726349D01*
X104860841Y-85726343D01*
X104803122Y-85561394D01*
X104710147Y-85413424D01*
X104586576Y-85289853D01*
X104438606Y-85196878D01*
X104438605Y-85196877D01*
X104438604Y-85196877D01*
X104273658Y-85139159D01*
X104273648Y-85139157D01*
X104100004Y-85119593D01*
X104099996Y-85119593D01*
X103926351Y-85139157D01*
X103926341Y-85139159D01*
X103761395Y-85196877D01*
X103613423Y-85289853D01*
X103489853Y-85413423D01*
X103396878Y-85561394D01*
X103340673Y-85722014D01*
X103311313Y-85768739D01*
X100744725Y-88335328D01*
X100744724Y-88335329D01*
X100693959Y-88411307D01*
X100673533Y-88441876D01*
X100624499Y-88560255D01*
X100624497Y-88560261D01*
X100599500Y-88685928D01*
X100599500Y-91453474D01*
X100580494Y-91519445D01*
X100546878Y-91572944D01*
X100489159Y-91737893D01*
X100489157Y-91737903D01*
X100469593Y-91911548D01*
X100469593Y-91911555D01*
X100489157Y-92085200D01*
X100489159Y-92085210D01*
X100517576Y-92166420D01*
X100546878Y-92250158D01*
X100639853Y-92398128D01*
X100763424Y-92521699D01*
X100841101Y-92570506D01*
X100887392Y-92622840D01*
X100898041Y-92691894D01*
X100869666Y-92755742D01*
X100811276Y-92794114D01*
X100775129Y-92799500D01*
X98798123Y-92799500D01*
X98731084Y-92779815D01*
X98685329Y-92727011D01*
X98674903Y-92689383D01*
X98656534Y-92526350D01*
X98656533Y-92526348D01*
X98656533Y-92526343D01*
X98598814Y-92361394D01*
X98598813Y-92361392D01*
X98565198Y-92307893D01*
X98546192Y-92241922D01*
X98546192Y-91720577D01*
X98565197Y-91654606D01*
X98598814Y-91601106D01*
X98598816Y-91601098D01*
X98601530Y-91595465D01*
X98648351Y-91543604D01*
X98715778Y-91525289D01*
X98763685Y-91535983D01*
X98820197Y-91561144D01*
X99005354Y-91600500D01*
X99005355Y-91600500D01*
X99194644Y-91600500D01*
X99194646Y-91600500D01*
X99379803Y-91561144D01*
X99552730Y-91484151D01*
X99705871Y-91372888D01*
X99832533Y-91232216D01*
X99927179Y-91068284D01*
X99985674Y-90888256D01*
X100005460Y-90700000D01*
X99985674Y-90511744D01*
X99927179Y-90331716D01*
X99832533Y-90167784D01*
X99705871Y-90027112D01*
X99690907Y-90016240D01*
X99552734Y-89915851D01*
X99552729Y-89915848D01*
X99379807Y-89838857D01*
X99379802Y-89838855D01*
X99217172Y-89804288D01*
X99194646Y-89799500D01*
X99194645Y-89799500D01*
X99086471Y-89799500D01*
X99062279Y-89797117D01*
X99011420Y-89787000D01*
X99011418Y-89787000D01*
X97488582Y-89787000D01*
X97488580Y-89787000D01*
X97343592Y-89815840D01*
X97343582Y-89815843D01*
X97207011Y-89872412D01*
X97206998Y-89872419D01*
X97084084Y-89954548D01*
X97084080Y-89954551D01*
X96096970Y-90941660D01*
X96096969Y-90941661D01*
X96096966Y-90941666D01*
X96061886Y-90994169D01*
X96054975Y-91004512D01*
X96054974Y-91004513D01*
X96014832Y-91064589D01*
X95958261Y-91201164D01*
X95958258Y-91201174D01*
X95929418Y-91346161D01*
X95929418Y-92166420D01*
X95912805Y-92228420D01*
X95852739Y-92332457D01*
X95794485Y-92511744D01*
X95794244Y-92512487D01*
X95777438Y-92672393D01*
X95775749Y-92688462D01*
X95749164Y-92753076D01*
X95691867Y-92793061D01*
X95652428Y-92799500D01*
X75257204Y-92799500D01*
X75190165Y-92779815D01*
X75169523Y-92763181D01*
X70065571Y-87659229D01*
X70032086Y-87597906D01*
X70031846Y-87546320D01*
X70048166Y-87467784D01*
X70085798Y-87286686D01*
X70105408Y-87000000D01*
X70085798Y-86713314D01*
X70084180Y-86705526D01*
X87638301Y-86705526D01*
X87657865Y-86879171D01*
X87657867Y-86879181D01*
X87715585Y-87044127D01*
X87715586Y-87044129D01*
X87808561Y-87192099D01*
X87932132Y-87315670D01*
X88080102Y-87408645D01*
X88245051Y-87466364D01*
X88245057Y-87466364D01*
X88245059Y-87466365D01*
X88418704Y-87485930D01*
X88418708Y-87485930D01*
X88418712Y-87485930D01*
X88592356Y-87466365D01*
X88592355Y-87466365D01*
X88592365Y-87466364D01*
X88757314Y-87408645D01*
X88905284Y-87315670D01*
X88905284Y-87315669D01*
X88911180Y-87311965D01*
X88912440Y-87313971D01*
X88966832Y-87291769D01*
X88979452Y-87291125D01*
X89741922Y-87291125D01*
X89807894Y-87310131D01*
X89861394Y-87343747D01*
X90026343Y-87401466D01*
X90026349Y-87401466D01*
X90026351Y-87401467D01*
X90199996Y-87421032D01*
X90200000Y-87421032D01*
X90200004Y-87421032D01*
X90373648Y-87401467D01*
X90373647Y-87401467D01*
X90373657Y-87401466D01*
X90538606Y-87343747D01*
X90686576Y-87250772D01*
X90810147Y-87127201D01*
X90903122Y-86979231D01*
X90960841Y-86814282D01*
X90973095Y-86705523D01*
X90980407Y-86640628D01*
X90980407Y-86640621D01*
X90960842Y-86466976D01*
X90960841Y-86466974D01*
X90960841Y-86466968D01*
X90903122Y-86302019D01*
X90810147Y-86154049D01*
X90686576Y-86030478D01*
X90538606Y-85937503D01*
X90538605Y-85937502D01*
X90538604Y-85937502D01*
X90373658Y-85879784D01*
X90373648Y-85879782D01*
X90200004Y-85860218D01*
X90199996Y-85860218D01*
X90026351Y-85879782D01*
X90026341Y-85879784D01*
X89861395Y-85937502D01*
X89861391Y-85937504D01*
X89807894Y-85971119D01*
X89741922Y-85990125D01*
X88743300Y-85990125D01*
X88702345Y-85983166D01*
X88592367Y-85944682D01*
X88592356Y-85944680D01*
X88418712Y-85925116D01*
X88418704Y-85925116D01*
X88245059Y-85944680D01*
X88245049Y-85944682D01*
X88080103Y-86002400D01*
X87932131Y-86095376D01*
X87808561Y-86218946D01*
X87715585Y-86366918D01*
X87657867Y-86531864D01*
X87657865Y-86531874D01*
X87638301Y-86705519D01*
X87638301Y-86705526D01*
X70084180Y-86705526D01*
X70027334Y-86431968D01*
X69931105Y-86161206D01*
X69931106Y-86161206D01*
X69798901Y-85906064D01*
X69772322Y-85868410D01*
X69633189Y-85671302D01*
X69633184Y-85671296D01*
X69630517Y-85668018D01*
X69631467Y-85667244D01*
X69602504Y-85609606D01*
X69600500Y-85587401D01*
X69600500Y-84249499D01*
X69620185Y-84182460D01*
X69672989Y-84136705D01*
X69724500Y-84125499D01*
X71547871Y-84125499D01*
X71547872Y-84125499D01*
X71607483Y-84119091D01*
X71742331Y-84068796D01*
X71857546Y-83982546D01*
X71936958Y-83876466D01*
X71943795Y-83867333D01*
X71943797Y-83867328D01*
X71994091Y-83732482D01*
X72000500Y-83672873D01*
X72000500Y-83020924D01*
X72020185Y-82953885D01*
X72072989Y-82908130D01*
X72098716Y-82899634D01*
X72279803Y-82861144D01*
X72452730Y-82784151D01*
X72605871Y-82672888D01*
X72732533Y-82532216D01*
X72827179Y-82368284D01*
X72885674Y-82188256D01*
X72905460Y-82000000D01*
X72885674Y-81811744D01*
X72827179Y-81631716D01*
X72786927Y-81561999D01*
X72770454Y-81494101D01*
X72786927Y-81438001D01*
X72827179Y-81368284D01*
X72885674Y-81188256D01*
X72905460Y-81000000D01*
X72885674Y-80811744D01*
X72827179Y-80631716D01*
X72824148Y-80626467D01*
X72814039Y-80608958D01*
X72786927Y-80561999D01*
X72770454Y-80494101D01*
X72786927Y-80438001D01*
X72827179Y-80368284D01*
X72885674Y-80188256D01*
X72905460Y-80000000D01*
X72885674Y-79811744D01*
X72827179Y-79631716D01*
X72786927Y-79561999D01*
X72770454Y-79494101D01*
X72786927Y-79438001D01*
X72827179Y-79368284D01*
X72885674Y-79188256D01*
X72905460Y-79000000D01*
X72885674Y-78811744D01*
X72827179Y-78631716D01*
X72786927Y-78561999D01*
X72770454Y-78494101D01*
X72786927Y-78438001D01*
X72827179Y-78368284D01*
X72885674Y-78188256D01*
X72905460Y-78000000D01*
X72885674Y-77811744D01*
X72827179Y-77631716D01*
X72786927Y-77561999D01*
X72770454Y-77494101D01*
X72786927Y-77438001D01*
X72827179Y-77368284D01*
X72885674Y-77188256D01*
X72905460Y-77000000D01*
X72885674Y-76811744D01*
X72827179Y-76631716D01*
X72732533Y-76467784D01*
X72605871Y-76327112D01*
X72605870Y-76327111D01*
X72452734Y-76215851D01*
X72452729Y-76215848D01*
X72279807Y-76138857D01*
X72279802Y-76138855D01*
X72134001Y-76107865D01*
X72094646Y-76099500D01*
X72094645Y-76099500D01*
X72053861Y-76099500D01*
X71986822Y-76079815D01*
X71949362Y-76039581D01*
X71949112Y-76039769D01*
X71947364Y-76037434D01*
X71945027Y-76034924D01*
X71943797Y-76032673D01*
X71943796Y-76032669D01*
X71943793Y-76032665D01*
X71943792Y-76032663D01*
X71857547Y-75917455D01*
X71857544Y-75917452D01*
X71742335Y-75831206D01*
X71742328Y-75831202D01*
X71607482Y-75780908D01*
X71607483Y-75780908D01*
X71547883Y-75774501D01*
X71547881Y-75774500D01*
X71547873Y-75774500D01*
X71547865Y-75774500D01*
X71121585Y-75774500D01*
X71054546Y-75754815D01*
X71008791Y-75702011D01*
X70998847Y-75632853D01*
X71027872Y-75569297D01*
X71033904Y-75562819D01*
X71033905Y-75562818D01*
X71110147Y-75486576D01*
X71203122Y-75338606D01*
X71260841Y-75173657D01*
X71280407Y-75000000D01*
X71270788Y-74914631D01*
X71260842Y-74826351D01*
X71260841Y-74826349D01*
X71260841Y-74826343D01*
X71203122Y-74661394D01*
X71110147Y-74513424D01*
X70986576Y-74389853D01*
X70838606Y-74296878D01*
X70838605Y-74296877D01*
X70838604Y-74296877D01*
X70673658Y-74239159D01*
X70673648Y-74239157D01*
X70500004Y-74219593D01*
X70499996Y-74219593D01*
X70326351Y-74239157D01*
X70326341Y-74239159D01*
X70161395Y-74296877D01*
X70161391Y-74296879D01*
X70107894Y-74330494D01*
X70041922Y-74349500D01*
X69789950Y-74349500D01*
X69722911Y-74329815D01*
X69711456Y-74320584D01*
X69711234Y-74320869D01*
X69705329Y-74316242D01*
X69568070Y-74233267D01*
X69568066Y-74233265D01*
X69414933Y-74185548D01*
X69414935Y-74185548D01*
X69388312Y-74183128D01*
X69348381Y-74179500D01*
X69348378Y-74179500D01*
X68796611Y-74179500D01*
X68730073Y-74185546D01*
X68730066Y-74185548D01*
X68576933Y-74233265D01*
X68576929Y-74233267D01*
X68439670Y-74316242D01*
X68439665Y-74316246D01*
X68326246Y-74429665D01*
X68326242Y-74429670D01*
X68243267Y-74566929D01*
X68243265Y-74566933D01*
X68195548Y-74720065D01*
X68189500Y-74786621D01*
X68189500Y-75213388D01*
X68195546Y-75279926D01*
X68195548Y-75279933D01*
X68243265Y-75433066D01*
X68243267Y-75433070D01*
X68326244Y-75570332D01*
X68329139Y-75574027D01*
X68354988Y-75638939D01*
X68341639Y-75707522D01*
X68293331Y-75758000D01*
X68231528Y-75774500D01*
X66132129Y-75774500D01*
X66132123Y-75774501D01*
X66072516Y-75780908D01*
X65937671Y-75831202D01*
X65937664Y-75831206D01*
X65822455Y-75917452D01*
X65822452Y-75917455D01*
X65736206Y-76032664D01*
X65736202Y-76032671D01*
X65685908Y-76167517D01*
X65679501Y-76227116D01*
X65679500Y-76227135D01*
X65679500Y-83672870D01*
X64870498Y-83672870D01*
X64870498Y-73188945D01*
X64890183Y-73121906D01*
X64942987Y-73076151D01*
X65012145Y-73066207D01*
X65075701Y-73095232D01*
X65082179Y-73101264D01*
X65230960Y-73250045D01*
X65488131Y-73451526D01*
X65488134Y-73451528D01*
X65488137Y-73451530D01*
X65767721Y-73620545D01*
X66065639Y-73754627D01*
X66065652Y-73754631D01*
X66065657Y-73754633D01*
X66377547Y-73851821D01*
X66698896Y-73910710D01*
X67025000Y-73930436D01*
X67351104Y-73910710D01*
X67672453Y-73851821D01*
X67984361Y-73754627D01*
X68282279Y-73620545D01*
X68561863Y-73451530D01*
X68819036Y-73250048D01*
X69050048Y-73019036D01*
X69251530Y-72761863D01*
X69420545Y-72482279D01*
X69554627Y-72184361D01*
X69651821Y-71872453D01*
X69710710Y-71551104D01*
X69713801Y-71500003D01*
X73719593Y-71500003D01*
X73739157Y-71673648D01*
X73739159Y-71673658D01*
X73796814Y-71838423D01*
X73796878Y-71838606D01*
X73889853Y-71986576D01*
X74013424Y-72110147D01*
X74161394Y-72203122D01*
X74231223Y-72227556D01*
X74322015Y-72259327D01*
X74368741Y-72288687D01*
X74911313Y-72831259D01*
X74940673Y-72877985D01*
X74982298Y-72996940D01*
X74996878Y-73038606D01*
X75089853Y-73186576D01*
X75213424Y-73310147D01*
X75361394Y-73403122D01*
X75526343Y-73460841D01*
X75526349Y-73460841D01*
X75526351Y-73460842D01*
X75699996Y-73480407D01*
X75700000Y-73480407D01*
X75700004Y-73480407D01*
X75873648Y-73460842D01*
X75873647Y-73460842D01*
X75873657Y-73460841D01*
X76038606Y-73403122D01*
X76186576Y-73310147D01*
X76310147Y-73186576D01*
X76403122Y-73038606D01*
X76460841Y-72873657D01*
X76473266Y-72763380D01*
X76480407Y-72700003D01*
X76480407Y-72699996D01*
X76460842Y-72526351D01*
X76460841Y-72526349D01*
X76460841Y-72526343D01*
X76403122Y-72361394D01*
X76310147Y-72213424D01*
X76186576Y-72089853D01*
X76038606Y-71996878D01*
X76038605Y-71996877D01*
X76038604Y-71996877D01*
X75877985Y-71940673D01*
X75831259Y-71911313D01*
X75288687Y-71368741D01*
X75259327Y-71322015D01*
X75203122Y-71161395D01*
X75203122Y-71161394D01*
X75110147Y-71013424D01*
X74986576Y-70889853D01*
X74838606Y-70796878D01*
X74838605Y-70796877D01*
X74838604Y-70796877D01*
X74673658Y-70739159D01*
X74673648Y-70739157D01*
X74500004Y-70719593D01*
X74499996Y-70719593D01*
X74326351Y-70739157D01*
X74326341Y-70739159D01*
X74161395Y-70796877D01*
X74013423Y-70889853D01*
X73889853Y-71013423D01*
X73796877Y-71161395D01*
X73739159Y-71326341D01*
X73739157Y-71326351D01*
X73719593Y-71499996D01*
X73719593Y-71500003D01*
X69713801Y-71500003D01*
X69730436Y-71225000D01*
X69710710Y-70898896D01*
X69651821Y-70577547D01*
X69554627Y-70265639D01*
X69420545Y-69967721D01*
X69251530Y-69688137D01*
X69251528Y-69688134D01*
X69251526Y-69688131D01*
X69050045Y-69430960D01*
X68856266Y-69237181D01*
X68822781Y-69175858D01*
X68827765Y-69106166D01*
X68869637Y-69050233D01*
X68935101Y-69025816D01*
X68943947Y-69025500D01*
X107267864Y-69025500D01*
X107334903Y-69045185D01*
G37*
%TD.AperFunction*%
%TA.AperFunction,Conductor*%
G36*
X153871736Y-102738947D02*
G01*
X153926915Y-102781808D01*
X153950163Y-102847696D01*
X153950341Y-102854339D01*
X153950341Y-105731894D01*
X153930656Y-105798933D01*
X153877852Y-105844688D01*
X153808694Y-105854632D01*
X153745138Y-105825607D01*
X153738660Y-105819575D01*
X153519039Y-105599954D01*
X153261868Y-105398473D01*
X153254306Y-105393901D01*
X152982279Y-105229455D01*
X152684361Y-105095373D01*
X152684354Y-105095370D01*
X152684342Y-105095366D01*
X152372452Y-104998178D01*
X152051099Y-104939289D01*
X151749252Y-104921031D01*
X151725000Y-104919564D01*
X151724999Y-104919564D01*
X151610746Y-104926475D01*
X151542640Y-104910874D01*
X151493780Y-104860929D01*
X151479680Y-104792497D01*
X151504814Y-104727304D01*
X151539109Y-104696584D01*
X151560335Y-104683753D01*
X151673753Y-104570335D01*
X151679493Y-104560841D01*
X151756732Y-104433070D01*
X151756733Y-104433069D01*
X151804452Y-104279933D01*
X151810500Y-104213381D01*
X151810499Y-103786620D01*
X151810499Y-103786619D01*
X151810499Y-103786611D01*
X151804453Y-103720073D01*
X151804452Y-103720070D01*
X151804452Y-103720067D01*
X151756733Y-103566931D01*
X151756732Y-103566929D01*
X151673759Y-103429673D01*
X151670865Y-103425980D01*
X151645011Y-103361070D01*
X151658354Y-103292486D01*
X151706658Y-103242003D01*
X151768470Y-103225499D01*
X153257871Y-103225499D01*
X153257872Y-103225499D01*
X153317483Y-103219091D01*
X153452331Y-103168796D01*
X153567546Y-103082546D01*
X153653796Y-102967331D01*
X153704091Y-102832483D01*
X153704092Y-102832472D01*
X153705663Y-102825828D01*
X153740235Y-102765111D01*
X153802144Y-102732723D01*
X153871736Y-102738947D01*
G37*
%TD.AperFunction*%
%TA.AperFunction,Conductor*%
G36*
X152027336Y-84145184D02*
G01*
X152073091Y-84197988D01*
X152083035Y-84267146D01*
X152054010Y-84330702D01*
X152047978Y-84337180D01*
X151947088Y-84438069D01*
X151947088Y-84438070D01*
X151947086Y-84438072D01*
X151921791Y-84472888D01*
X151845268Y-84578211D01*
X151766628Y-84732552D01*
X151713097Y-84897302D01*
X151686000Y-85068389D01*
X151686000Y-85241611D01*
X151713098Y-85412701D01*
X151766627Y-85577445D01*
X151845268Y-85731788D01*
X151947086Y-85871928D01*
X152069572Y-85994414D01*
X152209712Y-86096232D01*
X152364055Y-86174873D01*
X152528799Y-86228402D01*
X152699889Y-86255500D01*
X152699890Y-86255500D01*
X153373110Y-86255500D01*
X153373111Y-86255500D01*
X153544201Y-86228402D01*
X153708945Y-86174873D01*
X153770045Y-86143740D01*
X153838714Y-86130844D01*
X153903455Y-86157120D01*
X153943713Y-86214226D01*
X153950341Y-86254225D01*
X153950341Y-92695774D01*
X153930656Y-92762813D01*
X153877852Y-92808568D01*
X153808694Y-92818512D01*
X153770047Y-92806259D01*
X153708950Y-92775129D01*
X153708947Y-92775128D01*
X153708945Y-92775127D01*
X153544201Y-92721598D01*
X153544199Y-92721597D01*
X153544198Y-92721597D01*
X153407837Y-92700000D01*
X153373111Y-92694500D01*
X152699889Y-92694500D01*
X152665163Y-92700000D01*
X152528802Y-92721597D01*
X152364052Y-92775128D01*
X152209711Y-92853768D01*
X152129756Y-92911859D01*
X152069572Y-92955586D01*
X152069570Y-92955588D01*
X152069569Y-92955588D01*
X151947088Y-93078069D01*
X151947088Y-93078070D01*
X151947086Y-93078072D01*
X151935561Y-93093935D01*
X151845268Y-93218211D01*
X151766628Y-93372552D01*
X151713097Y-93537302D01*
X151686000Y-93708389D01*
X151686000Y-93881610D01*
X151702191Y-93983841D01*
X151713098Y-94052701D01*
X151766627Y-94217445D01*
X151845268Y-94371788D01*
X151947086Y-94511928D01*
X152069572Y-94634414D01*
X152069575Y-94634416D01*
X152091275Y-94650182D01*
X152133941Y-94705511D01*
X152139920Y-94775125D01*
X152107315Y-94836920D01*
X152046476Y-94871277D01*
X152018390Y-94874500D01*
X150254610Y-94874500D01*
X150187571Y-94854815D01*
X150141816Y-94802011D01*
X150131872Y-94732853D01*
X150160897Y-94669297D01*
X150181725Y-94650182D01*
X150203428Y-94634414D01*
X150325914Y-94511928D01*
X150427732Y-94371788D01*
X150506373Y-94217445D01*
X150559902Y-94052701D01*
X150587000Y-93881611D01*
X150587000Y-93708389D01*
X150559902Y-93537299D01*
X150506373Y-93372555D01*
X150427732Y-93218212D01*
X150325914Y-93078072D01*
X150203428Y-92955586D01*
X150063288Y-92853768D01*
X149908945Y-92775127D01*
X149744201Y-92721598D01*
X149744199Y-92721597D01*
X149744198Y-92721597D01*
X149607837Y-92700000D01*
X149573111Y-92694500D01*
X148899889Y-92694500D01*
X148865163Y-92700000D01*
X148728802Y-92721597D01*
X148564052Y-92775128D01*
X148409711Y-92853768D01*
X148329756Y-92911859D01*
X148269572Y-92955586D01*
X148269570Y-92955588D01*
X148269569Y-92955588D01*
X148168681Y-93056477D01*
X148107358Y-93089962D01*
X148037666Y-93084978D01*
X147981733Y-93043106D01*
X147957316Y-92977642D01*
X147957000Y-92968796D01*
X147957000Y-92019500D01*
X147976685Y-91952461D01*
X148029489Y-91906706D01*
X148081000Y-91895500D01*
X149359625Y-91895500D01*
X149359633Y-91895499D01*
X149904371Y-91895499D01*
X149904372Y-91895499D01*
X149963983Y-91889091D01*
X150098831Y-91838796D01*
X150214046Y-91752546D01*
X150300296Y-91637331D01*
X150350591Y-91502483D01*
X150357000Y-91442873D01*
X150356999Y-90547128D01*
X150350591Y-90487517D01*
X150349762Y-90479803D01*
X150350830Y-90479688D01*
X150350830Y-90440311D01*
X150349761Y-90440197D01*
X150350589Y-90432485D01*
X150350591Y-90432483D01*
X150357000Y-90372873D01*
X150356999Y-89577128D01*
X150350591Y-89517517D01*
X150350590Y-89517515D01*
X150350590Y-89517512D01*
X150348808Y-89509969D01*
X150350273Y-89509622D01*
X150345909Y-89448651D01*
X150350319Y-89433633D01*
X150350589Y-89432488D01*
X150350591Y-89432483D01*
X150357000Y-89372873D01*
X150356999Y-88577128D01*
X150350591Y-88517517D01*
X150349762Y-88509803D01*
X150350830Y-88509688D01*
X150350830Y-88470311D01*
X150349761Y-88470197D01*
X150350589Y-88462485D01*
X150350591Y-88462483D01*
X150357000Y-88402873D01*
X150356999Y-87507128D01*
X150350591Y-87447517D01*
X150344697Y-87431715D01*
X150300297Y-87312671D01*
X150300293Y-87312664D01*
X150214047Y-87197455D01*
X150214044Y-87197452D01*
X150098835Y-87111206D01*
X150098828Y-87111202D01*
X149963982Y-87060908D01*
X149963983Y-87060908D01*
X149904383Y-87054501D01*
X149904381Y-87054500D01*
X149904373Y-87054500D01*
X149345193Y-87054500D01*
X149345191Y-87054500D01*
X148433692Y-87054500D01*
X148256309Y-87054500D01*
X148256304Y-87054500D01*
X148105191Y-87084558D01*
X148035599Y-87078331D01*
X147980422Y-87035467D01*
X147957178Y-86969577D01*
X147957000Y-86962941D01*
X147957000Y-85981204D01*
X147976685Y-85914165D01*
X148029489Y-85868410D01*
X148098647Y-85858466D01*
X148162203Y-85887491D01*
X148168681Y-85893523D01*
X148269572Y-85994414D01*
X148409712Y-86096232D01*
X148564055Y-86174873D01*
X148728799Y-86228402D01*
X148899889Y-86255500D01*
X148899890Y-86255500D01*
X149573110Y-86255500D01*
X149573111Y-86255500D01*
X149744201Y-86228402D01*
X149908945Y-86174873D01*
X150063288Y-86096232D01*
X150203428Y-85994414D01*
X150325914Y-85871928D01*
X150427732Y-85731788D01*
X150506373Y-85577445D01*
X150559902Y-85412701D01*
X150587000Y-85241611D01*
X150587000Y-85068389D01*
X150559902Y-84897299D01*
X150506373Y-84732555D01*
X150427732Y-84578212D01*
X150325914Y-84438072D01*
X150225022Y-84337180D01*
X150191537Y-84275857D01*
X150196521Y-84206165D01*
X150238393Y-84150232D01*
X150303857Y-84125815D01*
X150312703Y-84125499D01*
X151960297Y-84125499D01*
X152027336Y-84145184D01*
G37*
%TD.AperFunction*%
%TA.AperFunction,Conductor*%
G36*
X153871736Y-83638947D02*
G01*
X153926915Y-83681808D01*
X153950163Y-83747696D01*
X153950341Y-83754339D01*
X153950341Y-84055774D01*
X153930656Y-84122813D01*
X153877852Y-84168568D01*
X153808694Y-84178512D01*
X153770047Y-84166259D01*
X153708952Y-84135129D01*
X153695798Y-84130855D01*
X153668113Y-84121859D01*
X153610440Y-84082423D01*
X153583242Y-84018065D01*
X153595157Y-83949218D01*
X153607167Y-83929619D01*
X153610250Y-83925501D01*
X153653796Y-83867331D01*
X153704091Y-83732483D01*
X153704092Y-83732472D01*
X153705663Y-83725828D01*
X153740235Y-83665111D01*
X153802144Y-83632723D01*
X153871736Y-83638947D01*
G37*
%TD.AperFunction*%
%TD*%
M02*
