M48
; DRILL file {KiCad 8.0.1} date 2024-03-28T09:41:02+0800
; FORMAT={-:-/ absolute / inch / decimal}
; #@! TF.CreationDate,2024-03-28T09:41:02+08:00
; #@! TF.GenerationSoftware,Kicad,Pcbnew,8.0.1
; #@! TF.FileFunction,Plated,1,2,PTH
FMAT,2
INCH
; #@! TA.AperFunction,Plated,PTH,ViaDrill
T1C0.0118
; #@! TA.AperFunction,Plated,PTH,ViaDrill
T2C0.0157
; #@! TA.AperFunction,Plated,PTH,ViaDrill
T3C0.0197
; #@! TA.AperFunction,Plated,PTH,ComponentDrill
T4C0.0197
; #@! TA.AperFunction,Plated,PTH,ComponentDrill
T5C0.0866
%
G90
G05
T1
X2.7362Y-4.0945
X2.8346Y-3.0118
X2.9134Y-2.9331
X3.2283Y-3.878
X3.3071Y-3.9115
X3.3661Y-3.8386
X3.4055Y-3.1299
X3.4055Y-3.1693
X3.5039Y-3.1693
X3.5236Y-3.1299
X3.6811Y-3.3465
X3.7008Y-3.3071
X3.7205Y-3.4252
X3.7795Y-3.4055
X3.7919Y-3.9049
X3.8113Y-3.5509
X3.8583Y-3.5039
X3.937Y-3.5787
X3.9528Y-4.1654
X3.9567Y-3.6585
X4.0157Y-4.2323
X4.1339Y-3.1693
X4.2126Y-3.157
X4.252Y-2.7431
X4.252Y-2.7992
X4.2717Y-2.8474
X4.2717Y-2.9134
X5.1919Y-3.6811
X5.2023Y-3.7102
X5.2183Y-3.6941
X5.3116Y-3.9552
X5.7087Y-4.0866
X5.9552Y-3.31
T2
X5.8297Y-3.4734
X5.8297Y-3.5089
X5.8297Y-3.5423
X5.8297Y-3.5758
T3
X2.5748Y-3.8622
X2.5955Y-2.9671
X2.815Y-3.7402
X2.8346Y-3.1496
X2.8346Y-3.189
X2.8346Y-3.2283
X2.8346Y-3.2677
X2.9921Y-3.3465
X3.0315Y-3.2874
X3.0512Y-3.2283
X3.0906Y-3.3071
X3.1299Y-4.1929
X3.1299Y-4.2717
X3.1496Y-3.3268
X3.189Y-3.3268
X3.2283Y-3.2874
X3.2874Y-3.2283
X3.3268Y-2.7559
X3.3268Y-2.8346
X3.3268Y-3.3858
X3.3268Y-3.5236
X3.3465Y-3.3465
X3.3661Y-3.563
X3.3858Y-3.2283
X3.5039Y-3.2283
X3.5039Y-3.6535
X3.5421Y-3.2492
X3.5433Y-3.9764
X3.5827Y-3.8189
X3.6209Y-3.328
X3.6811Y-3.5433
X3.6811Y-3.9764
X3.7205Y-3.6535
X3.7598Y-4.0157
X3.7795Y-3.6535
X3.8386Y-3.6535
X3.8583Y-4.2913
X3.8976Y-3.8976
X3.9173Y-3.2874
X3.9173Y-4.1535
X3.937Y-3.248
X4.0157Y-2.7756
X4.0354Y-2.8346
X4.0354Y-3.3268
X4.1929Y-3.3268
X4.1929Y-3.6417
X4.2913Y-3.622
X4.3307Y-3.2283
X4.3307Y-3.6535
X4.3307Y-3.8976
X4.4094Y-3.5827
X4.4291Y-3.2677
X4.4488Y-3.3071
X4.4488Y-3.622
X4.4872Y-3.2677
X4.5669Y-3.2677
X4.5669Y-3.3071
X4.5866Y-2.7362
X4.5866Y-2.815
X4.5866Y-3.1299
X4.6457Y-3.0118
X4.6457Y-3.1299
X4.7047Y-3.0118
X4.7047Y-3.1299
X4.7638Y-4.1575
X4.7785Y-4.2362
X4.8794Y-3.7795
X4.9016Y-2.7559
X4.9016Y-2.8346
X4.9409Y-4.1142
X5.0787Y-3.6417
X5.1378Y-3.5236
X5.1772Y-3.8858
X5.1969Y-3.8386
X5.2953Y-3.8386
X5.4134Y-3.6811
X5.4134Y-3.7402
X5.4265Y-3.6351
X5.4331Y-3.8976
X5.4528Y-3.563
X5.502Y-3.5138
X5.5118Y-3.7992
X5.519Y-4.2162
X5.5315Y-4.2913
X5.5512Y-3.4843
X5.5906Y-3.4646
X5.6102Y-3.8189
X5.6189Y-3.4252
X5.6693Y-2.7953
X5.6693Y-2.874
X5.6693Y-3.0719
X5.6693Y-3.7795
X5.6976Y-3.3858
X5.703Y-3.5089
X5.703Y-3.5384
X5.8268Y-4.1339
X5.829Y-3.4055
X5.829Y-3.622
X5.841Y-3.6524
X5.9137Y-4.142
X6.0453Y-3.2283
T5
X2.6388Y-2.8041
X2.6388Y-4.2372
X2.6703Y-3.4242
X2.6703Y-3.6211
X5.9734Y-2.8041
X5.9734Y-4.2372
T4
G00X5.8617Y-3.3526
M15
G01X5.8892Y-3.3526
M16
G05
G00X5.8617Y-3.6927
M15
G01X5.8892Y-3.6927
M16
G05
G00X6.0113Y-3.3526
M15
G01X6.0388Y-3.3526
M16
G05
G00X6.0113Y-3.6927
M15
G01X6.0388Y-3.6927
M16
G05
M30
