M48
; DRILL file {KiCad 8.0.1} date 2024-04-26T21:13:33+0800
; FORMAT={-:-/ absolute / inch / decimal}
; #@! TF.CreationDate,2024-04-26T21:13:33+08:00
; #@! TF.GenerationSoftware,Kicad,Pcbnew,8.0.1
; #@! TF.FileFunction,Plated,1,2,PTH
FMAT,2
INCH
; #@! TA.AperFunction,Plated,PTH,ViaDrill
T1C0.0098
; #@! TA.AperFunction,Plated,PTH,ViaDrill
T2C0.0118
; #@! TA.AperFunction,Plated,PTH,ViaDrill
T3C0.0197
; #@! TA.AperFunction,Plated,PTH,ComponentDrill
T4C0.0197
; #@! TA.AperFunction,Plated,PTH,ViaDrill
T5C0.0236
; #@! TA.AperFunction,Plated,PTH,ViaDrill
T6C0.0315
; #@! TA.AperFunction,Plated,PTH,ComponentDrill
T7C0.0866
; #@! TA.AperFunction,Plated,PTH,ComponentDrill
T8C0.1339
%
G90
G05
T1
X3.1693Y-3.8689
X3.6619Y-4.1575
X4.0349Y-3.6417
X4.0551Y-3.3465
X4.4605Y-3.8543
X4.7913Y-3.9055
X5.5669Y-3.5748
X5.7372Y-3.1471
X5.8231Y-3.3615
X5.8268Y-3.7283
T2
X2.6957Y-3.8986
X2.7362Y-4.0945
X2.7756Y-2.9528
X2.9331Y-2.815
X2.9803Y-2.8622
X3.0898Y-2.9217
X3.122Y-4.0669
X3.3465Y-2.8346
X3.8542Y-3.593
X3.8976Y-3.6545
X3.9803Y-3.8819
X3.9832Y-3.938
X4.0253Y-3.455
X4.0945Y-4.0661
X4.4669Y-3.541
X4.4685Y-3.4409
X4.6673Y-3.5571
X5.1919Y-3.6811
X5.2023Y-3.7102
X5.2183Y-3.6941
X5.7087Y-4.0866
X6.0502Y-3.185
T3
X2.5748Y-3.8622
X2.5955Y-2.9671
X2.8346Y-3.0315
X2.8346Y-3.0709
X2.8346Y-3.1102
X2.8346Y-3.1496
X2.8346Y-3.189
X2.8346Y-3.2283
X2.8819Y-3.3228
X2.9213Y-3.374
X2.9252Y-3.4488
X3.0641Y-3.1153
X3.0669Y-3.0787
X3.0792Y-3.0236
X3.1299Y-4.1929
X3.1299Y-4.2717
X3.1351Y-3.139
X3.1535Y-3.0394
X3.2283Y-3.748
X3.2283Y-3.7992
X3.2283Y-3.8386
X3.2362Y-3.2992
X3.2388Y-3.1645
X3.2777Y-3.2033
X3.2835Y-3.3031
X3.3268Y-2.7559
X3.3661Y-4.1732
X3.8268Y-4.1929
X3.8386Y-4.2874
X3.8976Y-3.9961
X3.9626Y-4.0091
X3.9724Y-3.8465
X4.0157Y-2.7756
X4.0354Y-2.8346
X4.1654Y-3.8465
X4.1732Y-4.0118
X4.5815Y-3.513
X4.6024Y-2.937
X4.7638Y-4.1575
X4.7785Y-4.2362
X4.9016Y-2.7559
X4.9016Y-2.8346
X5.0787Y-3.6417
X5.1378Y-3.5236
X5.1772Y-3.8858
X5.4134Y-3.6811
X5.4134Y-3.7402
X5.4265Y-3.6351
X5.4528Y-3.563
X5.5118Y-3.7992
X5.519Y-4.2162
X5.5315Y-4.2913
X5.6693Y-2.7953
X5.6693Y-2.874
X5.6693Y-3.0719
X5.8268Y-4.1339
X5.9137Y-4.142
T5
X3.6496Y-3.3864
X3.8722Y-3.3922
X5.6693Y-3.311
X5.7008Y-3.7992
X5.8762Y-3.6309
T6
X3.1732Y-3.6378
X3.3239Y-3.3864
X4.3543Y-3.5945
X5.4833Y-3.4685
X5.5502Y-3.7544
T7
X2.6388Y-2.8041
X2.6388Y-4.2372
X5.9734Y-2.8041
X5.9734Y-4.2372
T8
X2.6673Y-3.4291
X2.6673Y-3.6181
T4
G00X5.8892Y-3.3526
M15
G01X5.8617Y-3.3526
M16
G05
G00X5.8892Y-3.6927
M15
G01X5.8617Y-3.6927
M16
G05
G00X6.0388Y-3.3526
M15
G01X6.0113Y-3.3526
M16
G05
G00X6.0388Y-3.6927
M15
G01X6.0113Y-3.6927
M16
G05
M30
