%TF.GenerationSoftware,KiCad,Pcbnew,8.0.1*%
%TF.CreationDate,2024-03-28T09:41:08+08:00*%
%TF.ProjectId,bat_rf,6261745f-7266-42e6-9b69-6361645f7063,rev?*%
%TF.SameCoordinates,Original*%
%TF.FileFunction,Legend,Top*%
%TF.FilePolarity,Positive*%
%FSLAX46Y46*%
G04 Gerber Fmt 4.6, Leading zero omitted, Abs format (unit mm)*
G04 Created by KiCad (PCBNEW 8.0.1) date 2024-03-28 09:41:08*
%MOMM*%
%LPD*%
G01*
G04 APERTURE LIST*
%ADD10C,0.150000*%
%ADD11C,0.254000*%
%ADD12C,0.120000*%
%ADD13C,0.500000*%
G04 APERTURE END LIST*
D10*
X109995110Y-86199009D02*
X110137967Y-86246628D01*
X110137967Y-86246628D02*
X110185586Y-86294247D01*
X110185586Y-86294247D02*
X110233205Y-86389485D01*
X110233205Y-86389485D02*
X110233205Y-86532342D01*
X110233205Y-86532342D02*
X110185586Y-86627580D01*
X110185586Y-86627580D02*
X110137967Y-86675200D01*
X110137967Y-86675200D02*
X110042729Y-86722819D01*
X110042729Y-86722819D02*
X109661777Y-86722819D01*
X109661777Y-86722819D02*
X109661777Y-85722819D01*
X109661777Y-85722819D02*
X109995110Y-85722819D01*
X109995110Y-85722819D02*
X110090348Y-85770438D01*
X110090348Y-85770438D02*
X110137967Y-85818057D01*
X110137967Y-85818057D02*
X110185586Y-85913295D01*
X110185586Y-85913295D02*
X110185586Y-86008533D01*
X110185586Y-86008533D02*
X110137967Y-86103771D01*
X110137967Y-86103771D02*
X110090348Y-86151390D01*
X110090348Y-86151390D02*
X109995110Y-86199009D01*
X109995110Y-86199009D02*
X109661777Y-86199009D01*
X110518920Y-85722819D02*
X111090348Y-85722819D01*
X110804634Y-86722819D02*
X110804634Y-85722819D01*
X111376063Y-85818057D02*
X111423682Y-85770438D01*
X111423682Y-85770438D02*
X111518920Y-85722819D01*
X111518920Y-85722819D02*
X111757015Y-85722819D01*
X111757015Y-85722819D02*
X111852253Y-85770438D01*
X111852253Y-85770438D02*
X111899872Y-85818057D01*
X111899872Y-85818057D02*
X111947491Y-85913295D01*
X111947491Y-85913295D02*
X111947491Y-86008533D01*
X111947491Y-86008533D02*
X111899872Y-86151390D01*
X111899872Y-86151390D02*
X111328444Y-86722819D01*
X111328444Y-86722819D02*
X111947491Y-86722819D01*
D11*
%TO.C,J1*%
X148836500Y-85972000D02*
X148836500Y-86044000D01*
X148836500Y-92906000D02*
X148836500Y-92978000D01*
X151969500Y-85005000D02*
X150303500Y-85005000D01*
X151969500Y-93945000D02*
X150303500Y-93945000D01*
X155636500Y-85005000D02*
X154103500Y-85005000D01*
X155636500Y-93945000D02*
X154103500Y-93945000D01*
X155636500Y-93945000D02*
X155636500Y-85005000D01*
D12*
%TO.C,D13*%
X67125000Y-76060000D02*
X69585000Y-76060000D01*
X69585000Y-74590000D02*
X67125000Y-74590000D01*
X69585000Y-76060000D02*
X69585000Y-74590000D01*
D11*
%TO.C,BT2*%
X70843998Y-69536000D02*
X147805998Y-69536000D01*
X70843998Y-76019000D02*
X70843998Y-69536000D01*
X70843998Y-95119000D02*
X70843998Y-83831000D01*
X70843998Y-109414000D02*
X70843998Y-102931000D01*
D13*
X80324998Y-79975000D02*
X83324998Y-79975000D01*
X80324998Y-99475000D02*
X83324998Y-99475000D01*
X81824998Y-78525000D02*
X81824998Y-81425000D01*
X134799998Y-79475000D02*
X137849998Y-79475000D01*
X135824998Y-98975000D02*
X138824998Y-98975000D01*
X137324998Y-97525000D02*
X137324998Y-100425000D01*
D11*
X147805998Y-69536000D02*
X147805998Y-76019000D01*
X147805998Y-83831000D02*
X147805998Y-95119000D01*
X147805998Y-102931000D02*
X147805998Y-109414000D01*
X147805998Y-109414000D02*
X70843998Y-109414000D01*
D12*
%TO.C,D4*%
X150700000Y-104735000D02*
X153160000Y-104735000D01*
X153160000Y-103265000D02*
X150700000Y-103265000D01*
X153160000Y-104735000D02*
X153160000Y-103265000D01*
%TO.C,D3*%
X65340000Y-103265000D02*
X65340000Y-104735000D01*
X65340000Y-104735000D02*
X67800000Y-104735000D01*
X67800000Y-103265000D02*
X65340000Y-103265000D01*
%TO.C,D2*%
X150386252Y-74190000D02*
X149863748Y-74190000D01*
X150386252Y-75660000D02*
X149863748Y-75660000D01*
%TD*%
M02*
