M48
<<<<<<< HEAD
<<<<<<< HEAD
; DRILL file {KiCad 8.0.1} date 2024-04-12T14:34:24+0800
; FORMAT={-:-/ absolute / inch / decimal}
; #@! TF.CreationDate,2024-04-12T14:34:24+08:00
=======
; DRILL file {KiCad 8.0.1} date 2024-05-01T11:44:24+0800
; FORMAT={-:-/ absolute / inch / decimal}
; #@! TF.CreationDate,2024-05-01T11:44:24+08:00
>>>>>>> 3f97a153d958220e151b39468fc548032aad0f0d
; #@! TF.GenerationSoftware,Kicad,Pcbnew,8.0.1
=======
; DRILL file {KiCad 8.0.2} date 2024-05-29T00:04:52+0800
; FORMAT={-:-/ absolute / inch / decimal}
; #@! TF.CreationDate,2024-05-29T00:04:52+08:00
; #@! TF.GenerationSoftware,Kicad,Pcbnew,8.0.2
>>>>>>> eb250e1e65e3fef6f6998880e309a2abd2231076
; #@! TF.FileFunction,Plated,1,2,PTH
FMAT,2
INCH
; #@! TA.AperFunction,Plated,PTH,ViaDrill
T1C0.0098
; #@! TA.AperFunction,Plated,PTH,ViaDrill
T2C0.0118
; #@! TA.AperFunction,Plated,PTH,ViaDrill
T3C0.0157
; #@! TA.AperFunction,Plated,PTH,ViaDrill
T4C0.0197
; #@! TA.AperFunction,Plated,PTH,ComponentDrill
T5C0.0197
; #@! TA.AperFunction,Plated,PTH,ViaDrill
T6C0.0236
; #@! TA.AperFunction,Plated,PTH,ViaDrill
T7C0.0315
; #@! TA.AperFunction,Plated,PTH,ComponentDrill
T8C0.0866
%
G90
G05
T1
X2.8346Y-2.8903
X3.0502Y-3.4341
X3.0669Y-3.0236
X3.1654Y-3.0271
X3.1717Y-3.1244
X3.2323Y-3.0512
X3.2402Y-3.1615
X3.3326Y-2.9055
X3.397Y-3.5014
X3.658Y-4.1457
X3.9029Y-3.7264
X3.9124Y-3.7005
X3.9823Y-2.9035
X4.0039Y-3.1969
X4.4882Y-3.0748
X5.5669Y-3.5748
X5.7372Y-3.1471
T2
X2.7026Y-3.8917
X2.7362Y-4.0945
X2.748Y-3.1929
X2.752Y-3.2283
X2.7559Y-3.2598
X2.7756Y-3.1929
X2.7874Y-3.2205
X2.7992Y-3.252
X2.8071Y-3.189
X2.8189Y-3.2165
X2.8307Y-3.1929
X2.8307Y-3.2441
X2.8504Y-3.2165
X2.8661Y-3.1929
X2.8661Y-3.2402
X2.8858Y-3.2165
X2.9016Y-3.1929
X2.9094Y-3.2402
X2.9252Y-2.8268
X2.9252Y-3.1929
X2.9252Y-3.2205
X3.122Y-4.0669
X3.3465Y-2.8346
<<<<<<< HEAD
<<<<<<< HEAD
X3.4811Y-3.4136
X3.5512Y-3.411
X3.6507Y-3.1443
X3.7214Y-3.8554
X3.8542Y-3.593
X3.8542Y-3.6496
X3.8627Y-4.1533
X3.9803Y-3.8819
X3.9832Y-3.938
X3.9862Y-3.6186
X4.0945Y-4.0661
X4.0984Y-3.3819
X4.252Y-2.7431
X4.252Y-2.7992
X4.2717Y-2.8474
X4.4669Y-3.541
X4.4685Y-3.4409
X4.5866Y-2.7362
X4.5866Y-2.815
=======
X3.8408Y-3.6545
X3.9803Y-3.8819
X3.9832Y-3.938
X4.0253Y-3.455
X4.0945Y-4.0661
X4.4669Y-3.541
X4.4685Y-3.4409
>>>>>>> 3f97a153d958220e151b39468fc548032aad0f0d
X4.6673Y-3.5571
=======
X4.0079Y-3.9449
X4.0945Y-4.0661
X5.1693Y-3.6811
X5.1732Y-3.7047
>>>>>>> eb250e1e65e3fef6f6998880e309a2abd2231076
X5.1919Y-3.6811
X5.2023Y-3.7102
X5.2183Y-3.6941
X5.7087Y-4.0866
X6.0502Y-3.185
T3
X3.3268Y-2.9451
X3.4528Y-3.2953
X3.7717Y-3.0984
X3.8937Y-3.0236
X4.5289Y-3.2402
T4
X2.5697Y-2.9764
X2.5807Y-3.8681
X3.1299Y-4.1929
X3.1299Y-4.2717
X3.3268Y-2.7559
<<<<<<< HEAD
X3.3661Y-4.1732
<<<<<<< HEAD
X3.4646Y-3.9567
X3.685Y-3.4843
X3.8063Y-3.6496
=======
>>>>>>> 3f97a153d958220e151b39468fc548032aad0f0d
X3.8268Y-4.1929
X3.8386Y-4.2874
X3.8976Y-3.9961
X3.9016Y-3.5709
=======
X3.8268Y-4.1929
X3.8386Y-4.2874
X3.8976Y-3.9961
X3.937Y-3.8465
>>>>>>> eb250e1e65e3fef6f6998880e309a2abd2231076
X3.9626Y-4.0091
X4.0157Y-2.7756
X4.0354Y-2.8346
X4.1732Y-4.0118
<<<<<<< HEAD
<<<<<<< HEAD
X4.5157Y-3.622
X4.5472Y-3.6496
X4.5815Y-3.513
X4.6024Y-2.937
X4.6169Y-3.5484
=======
X4.374Y-2.9449
X4.5789Y-3.5104
>>>>>>> 3f97a153d958220e151b39468fc548032aad0f0d
=======
X4.185Y-3.8504
>>>>>>> eb250e1e65e3fef6f6998880e309a2abd2231076
X4.7638Y-4.1575
X4.7785Y-4.2362
X4.9016Y-2.7559
X4.9016Y-2.8346
X5.0787Y-3.6417
X5.1378Y-3.5236
X5.1772Y-3.8858
X5.4134Y-3.6811
X5.4134Y-3.7402
X5.4265Y-3.6351
X5.4528Y-3.563
X5.5118Y-3.7992
X5.519Y-4.2162
X5.5315Y-4.2913
X5.6693Y-2.7953
X5.6693Y-2.874
X5.7756Y-3.0719
X5.8268Y-4.1339
X5.9137Y-4.142
T6
X2.9094Y-3.7598
X2.9094Y-3.8071
X2.9449Y-3.8425
X2.9488Y-3.7323
X2.9606Y-3.7835
X2.9921Y-3.8346
X2.9961Y-3.7441
X3.0157Y-3.7913
X3.1378Y-2.9291
X3.3031Y-4.1378
X3.334Y-3.4209
X3.374Y-3.311
X3.6181Y-3.063
X5.6535Y-3.3228
X5.6575Y-3.7953
X5.8369Y-3.6457
T7
X3.8722Y-3.3922
X4.185Y-3.626
X5.4833Y-3.4685
X5.5502Y-3.7544
T8
X2.6388Y-2.8041
X2.6388Y-4.2372
X5.9734Y-2.8041
X5.9734Y-4.2372
T5
G00X5.8957Y-3.3528
M15
G01X5.8681Y-3.3528
M16
G05
G00X5.8957Y-3.6929
M15
G01X5.8681Y-3.6929
M16
G05
G00X6.0453Y-3.3528
M15
G01X6.0177Y-3.3528
M16
G05
G00X6.0453Y-3.6929
M15
G01X6.0177Y-3.6929
M16
G05
M30
