%TF.GenerationSoftware,KiCad,Pcbnew,8.0.1*%
%TF.CreationDate,2024-04-12T14:34:24+08:00*%
%TF.ProjectId,bat_rf,6261745f-7266-42e6-9b69-6361645f7063,rev?*%
%TF.SameCoordinates,Original*%
%TF.FileFunction,Drillmap*%
%TF.FilePolarity,Positive*%
%FSLAX45Y45*%
G04 Gerber Fmt 4.5, Leading zero omitted, Abs format (unit mm)*
G04 Created by KiCad (PCBNEW 8.0.1) date 2024-04-12 14:34:24*
%MOMM*%
%LPD*%
G01*
G04 APERTURE LIST*
%ADD10C,0.100000*%
%ADD11C,0.200000*%
%ADD12C,0.220000*%
G04 APERTURE END LIST*
D10*
X15230084Y-6867500D02*
G75*
G02*
X15430090Y-7067500I-4J-200010D01*
G01*
X15142000Y-11017500D02*
X6652000Y-11017500D01*
X15430084Y-7067500D02*
X15430084Y-10817500D01*
X15230084Y-11017500D02*
X15142000Y-11017500D01*
X6452000Y-10817500D02*
X6452000Y-7067500D01*
X6452000Y-7067500D02*
G75*
G02*
X6652000Y-6867500I200000J0D01*
G01*
X6652000Y-6867500D02*
X15142000Y-6867500D01*
X15142000Y-6867500D02*
X15230084Y-6867500D01*
X6652000Y-11017500D02*
G75*
G02*
X6452000Y-10817500I0J200000D01*
G01*
X15430084Y-10817500D02*
G75*
G02*
X15230084Y-11017494I-199994J0D01*
G01*
D11*
D10*
X6832000Y-9887500D02*
X6862000Y-9917500D01*
X6862000Y-9887500D02*
X6832000Y-9917500D01*
X6935000Y-10385000D02*
X6965000Y-10415000D01*
X6965000Y-10385000D02*
X6935000Y-10415000D01*
X7035000Y-7485000D02*
X7065000Y-7515000D01*
X7065000Y-7485000D02*
X7035000Y-7515000D01*
X7435000Y-7135000D02*
X7465000Y-7165000D01*
X7465000Y-7135000D02*
X7435000Y-7165000D01*
X7555000Y-7255000D02*
X7585000Y-7285000D01*
X7585000Y-7255000D02*
X7555000Y-7285000D01*
X7833137Y-7406151D02*
X7863137Y-7436151D01*
X7863137Y-7406151D02*
X7833137Y-7436151D01*
X8226250Y-10046250D02*
X8256250Y-10076250D01*
X8256250Y-10046250D02*
X8226250Y-10076250D01*
X8485000Y-7185000D02*
X8515000Y-7215000D01*
X8515000Y-7185000D02*
X8485000Y-7215000D01*
X8826871Y-8655552D02*
X8856871Y-8685552D01*
X8856871Y-8655552D02*
X8826871Y-8685552D01*
X9005000Y-8649063D02*
X9035000Y-8679063D01*
X9035000Y-8649063D02*
X9005000Y-8679063D01*
X9257813Y-7971562D02*
X9287813Y-8001562D01*
X9287813Y-7971562D02*
X9257813Y-8001562D01*
X9437250Y-9777750D02*
X9467250Y-9807750D01*
X9467250Y-9777750D02*
X9437250Y-9807750D01*
X9774569Y-9111250D02*
X9804569Y-9141250D01*
X9804569Y-9111250D02*
X9774569Y-9141250D01*
X9774569Y-9255000D02*
X9804569Y-9285000D01*
X9804569Y-9255000D02*
X9774569Y-9285000D01*
X9796250Y-10534500D02*
X9826250Y-10564500D01*
X9826250Y-10534500D02*
X9796250Y-10564500D01*
X10095000Y-9845000D02*
X10125000Y-9875000D01*
X10125000Y-9845000D02*
X10095000Y-9875000D01*
X10102427Y-9987574D02*
X10132427Y-10017574D01*
X10132427Y-9987574D02*
X10102427Y-10017574D01*
X10110000Y-9176155D02*
X10140000Y-9206155D01*
X10140000Y-9176155D02*
X10110000Y-9206155D01*
X10385000Y-10312877D02*
X10415000Y-10342877D01*
X10415000Y-10312877D02*
X10385000Y-10342877D01*
X10395000Y-8575000D02*
X10425000Y-8605000D01*
X10425000Y-8575000D02*
X10395000Y-8605000D01*
X10785000Y-6952500D02*
X10815000Y-6982500D01*
X10815000Y-6952500D02*
X10785000Y-6982500D01*
X10785000Y-7095000D02*
X10815000Y-7125000D01*
X10815000Y-7095000D02*
X10785000Y-7125000D01*
X10835000Y-7217500D02*
X10865000Y-7247500D01*
X10865000Y-7217500D02*
X10835000Y-7247500D01*
X11330806Y-8979194D02*
X11360806Y-9009194D01*
X11360806Y-8979194D02*
X11330806Y-9009194D01*
X11335000Y-8725000D02*
X11365000Y-8755000D01*
X11365000Y-8725000D02*
X11335000Y-8755000D01*
X11635000Y-6935000D02*
X11665000Y-6965000D01*
X11665000Y-6935000D02*
X11635000Y-6965000D01*
X11635000Y-7135000D02*
X11665000Y-7165000D01*
X11665000Y-7135000D02*
X11635000Y-7165000D01*
X11840000Y-9020000D02*
X11870000Y-9050000D01*
X11870000Y-9020000D02*
X11840000Y-9050000D01*
X13172500Y-9335000D02*
X13202500Y-9365000D01*
X13202500Y-9335000D02*
X13172500Y-9365000D01*
X13198716Y-9408784D02*
X13228716Y-9438784D01*
X13228716Y-9408784D02*
X13198716Y-9438784D01*
X13239375Y-9368125D02*
X13269375Y-9398125D01*
X13269375Y-9368125D02*
X13239375Y-9398125D01*
X14485000Y-10365000D02*
X14515000Y-10395000D01*
X14515000Y-10365000D02*
X14485000Y-10395000D01*
X15111150Y-8392500D02*
X15141150Y-8422500D01*
X15141150Y-8392500D02*
X15111150Y-8422500D01*
X15235000Y-8395000D02*
X15265000Y-8425000D01*
X15265000Y-8395000D02*
X15235000Y-8425000D01*
X14827500Y-8822500D02*
G75*
G02*
X14787500Y-8822500I-20000J0D01*
G01*
X14787500Y-8822500D02*
G75*
G02*
X14827500Y-8822500I20000J0D01*
G01*
X14827500Y-8912500D02*
G75*
G02*
X14787500Y-8912500I-20000J0D01*
G01*
X14787500Y-8912500D02*
G75*
G02*
X14827500Y-8912500I20000J0D01*
G01*
X14827500Y-8997500D02*
G75*
G02*
X14787500Y-8997500I-20000J0D01*
G01*
X14787500Y-8997500D02*
G75*
G02*
X14827500Y-8997500I20000J0D01*
G01*
X14827500Y-9082500D02*
G75*
G02*
X14787500Y-9082500I-20000J0D01*
G01*
X14787500Y-9082500D02*
G75*
G02*
X14827500Y-9082500I20000J0D01*
G01*
X6539985Y-9785015D02*
X6539985Y-9835015D01*
X6514985Y-9810015D02*
X6564985Y-9810015D01*
X6592500Y-7511410D02*
X6592500Y-7561410D01*
X6567500Y-7536410D02*
X6617500Y-7536410D01*
X7200000Y-7675000D02*
X7200000Y-7725000D01*
X7175000Y-7700000D02*
X7225000Y-7700000D01*
X7200000Y-7775000D02*
X7200000Y-7825000D01*
X7175000Y-7800000D02*
X7225000Y-7800000D01*
X7200000Y-7875000D02*
X7200000Y-7925000D01*
X7175000Y-7900000D02*
X7225000Y-7900000D01*
X7200000Y-7975000D02*
X7200000Y-8025000D01*
X7175000Y-8000000D02*
X7225000Y-8000000D01*
X7200000Y-8075000D02*
X7200000Y-8125000D01*
X7175000Y-8100000D02*
X7225000Y-8100000D01*
X7200000Y-8175000D02*
X7200000Y-8225000D01*
X7175000Y-8200000D02*
X7225000Y-8200000D01*
X7320000Y-8415000D02*
X7320000Y-8465000D01*
X7295000Y-8440000D02*
X7345000Y-8440000D01*
X7420000Y-8545000D02*
X7420000Y-8595000D01*
X7395000Y-8570000D02*
X7445000Y-8570000D01*
X7430000Y-8735000D02*
X7430000Y-8785000D01*
X7405000Y-8760000D02*
X7455000Y-8760000D01*
X7782937Y-7887937D02*
X7782937Y-7937937D01*
X7757937Y-7912937D02*
X7807937Y-7912937D01*
X7790000Y-7795000D02*
X7790000Y-7845000D01*
X7765000Y-7820000D02*
X7815000Y-7820000D01*
X7821250Y-7655000D02*
X7821250Y-7705000D01*
X7796250Y-7680000D02*
X7846250Y-7680000D01*
X7950000Y-10075000D02*
X7950000Y-10125000D01*
X7925000Y-10100000D02*
X7975000Y-10100000D01*
X7950000Y-10625000D02*
X7950000Y-10675000D01*
X7925000Y-10650000D02*
X7975000Y-10650000D01*
X7950000Y-10825000D02*
X7950000Y-10875000D01*
X7925000Y-10850000D02*
X7975000Y-10850000D01*
X7963145Y-7948145D02*
X7963145Y-7998145D01*
X7938145Y-7973145D02*
X7988145Y-7973145D01*
X8010000Y-7695000D02*
X8010000Y-7745000D01*
X7985000Y-7720000D02*
X8035000Y-7720000D01*
X8200000Y-9495000D02*
X8200000Y-9545000D01*
X8175000Y-9520000D02*
X8225000Y-9520000D01*
X8200000Y-9625000D02*
X8200000Y-9675000D01*
X8175000Y-9650000D02*
X8225000Y-9650000D01*
X8200000Y-9725000D02*
X8200000Y-9775000D01*
X8175000Y-9750000D02*
X8225000Y-9750000D01*
X8220000Y-8355000D02*
X8220000Y-8405000D01*
X8195000Y-8380000D02*
X8245000Y-8380000D01*
X8226500Y-8012750D02*
X8226500Y-8062750D01*
X8201500Y-8037750D02*
X8251500Y-8037750D01*
X8325250Y-8111500D02*
X8325250Y-8161500D01*
X8300250Y-8136500D02*
X8350250Y-8136500D01*
X8340000Y-8365000D02*
X8340000Y-8415000D01*
X8315000Y-8390000D02*
X8365000Y-8390000D01*
X8450000Y-6975000D02*
X8450000Y-7025000D01*
X8425000Y-7000000D02*
X8475000Y-7000000D01*
X8450000Y-10125000D02*
X8450000Y-10175000D01*
X8425000Y-10150000D02*
X8475000Y-10150000D01*
X8450000Y-10275000D02*
X8450000Y-10325000D01*
X8425000Y-10300000D02*
X8475000Y-10300000D01*
X8550000Y-10575000D02*
X8550000Y-10625000D01*
X8525000Y-10600000D02*
X8575000Y-10600000D01*
X8800000Y-10025000D02*
X8800000Y-10075000D01*
X8775000Y-10050000D02*
X8825000Y-10050000D01*
X9360000Y-8825000D02*
X9360000Y-8875000D01*
X9335000Y-8850000D02*
X9385000Y-8850000D01*
X9667992Y-9245074D02*
X9667992Y-9295074D01*
X9642992Y-9270074D02*
X9692992Y-9270074D01*
X9720000Y-10625000D02*
X9720000Y-10675000D01*
X9695000Y-10650000D02*
X9745000Y-10650000D01*
X9730000Y-8155000D02*
X9730000Y-8205000D01*
X9705000Y-8180000D02*
X9755000Y-8180000D01*
X9750000Y-10865000D02*
X9750000Y-10915000D01*
X9725000Y-10890000D02*
X9775000Y-10890000D01*
X9900000Y-10125000D02*
X9900000Y-10175000D01*
X9875000Y-10150000D02*
X9925000Y-10150000D01*
X9910000Y-9045000D02*
X9910000Y-9095000D01*
X9885000Y-9070000D02*
X9935000Y-9070000D01*
X10065058Y-10158150D02*
X10065058Y-10208150D01*
X10040058Y-10183150D02*
X10090058Y-10183150D01*
X10090000Y-9745000D02*
X10090000Y-9795000D01*
X10065000Y-9770000D02*
X10115000Y-9770000D01*
X10200000Y-7025000D02*
X10200000Y-7075000D01*
X10175000Y-7050000D02*
X10225000Y-7050000D01*
X10206967Y-8971967D02*
X10206967Y-9021967D01*
X10181967Y-8996967D02*
X10231967Y-8996967D01*
X10250000Y-7175000D02*
X10250000Y-7225000D01*
X10225000Y-7200000D02*
X10275000Y-7200000D01*
X10340000Y-8755000D02*
X10340000Y-8805000D01*
X10315000Y-8780000D02*
X10365000Y-8780000D01*
X10580000Y-9745000D02*
X10580000Y-9795000D01*
X10555000Y-9770000D02*
X10605000Y-9770000D01*
X10580000Y-10065000D02*
X10580000Y-10115000D01*
X10555000Y-10090000D02*
X10605000Y-10090000D01*
X10600000Y-10165000D02*
X10600000Y-10215000D01*
X10575000Y-10190000D02*
X10625000Y-10190000D01*
X11470000Y-9175000D02*
X11470000Y-9225000D01*
X11445000Y-9200000D02*
X11495000Y-9200000D01*
X11550000Y-9245000D02*
X11550000Y-9295000D01*
X11525000Y-9270000D02*
X11575000Y-9270000D01*
X11636967Y-8898033D02*
X11636967Y-8948033D01*
X11611967Y-8923033D02*
X11661967Y-8923033D01*
X11690000Y-7435000D02*
X11690000Y-7485000D01*
X11665000Y-7460000D02*
X11715000Y-7460000D01*
X11726967Y-8988033D02*
X11726967Y-9038033D01*
X11701967Y-9013033D02*
X11751967Y-9013033D01*
X12100000Y-10535000D02*
X12100000Y-10585000D01*
X12075000Y-10560000D02*
X12125000Y-10560000D01*
X12137325Y-10735000D02*
X12137325Y-10785000D01*
X12112325Y-10760000D02*
X12162325Y-10760000D01*
X12450000Y-6975000D02*
X12450000Y-7025000D01*
X12425000Y-7000000D02*
X12475000Y-7000000D01*
X12450000Y-7175000D02*
X12450000Y-7225000D01*
X12425000Y-7200000D02*
X12475000Y-7200000D01*
X12900000Y-9225000D02*
X12900000Y-9275000D01*
X12875000Y-9250000D02*
X12925000Y-9250000D01*
X13050000Y-8925000D02*
X13050000Y-8975000D01*
X13025000Y-8950000D02*
X13075000Y-8950000D01*
X13150000Y-9845000D02*
X13150000Y-9895000D01*
X13125000Y-9870000D02*
X13175000Y-9870000D01*
X13750000Y-9325000D02*
X13750000Y-9375000D01*
X13725000Y-9350000D02*
X13775000Y-9350000D01*
X13750000Y-9475000D02*
X13750000Y-9525000D01*
X13725000Y-9500000D02*
X13775000Y-9500000D01*
X13783250Y-9208250D02*
X13783250Y-9258250D01*
X13758250Y-9233250D02*
X13808250Y-9233250D01*
X13850000Y-9025000D02*
X13850000Y-9075000D01*
X13825000Y-9050000D02*
X13875000Y-9050000D01*
X13975000Y-8900000D02*
X13975000Y-8950000D01*
X13950000Y-8925000D02*
X14000000Y-8925000D01*
X14000000Y-9625000D02*
X14000000Y-9675000D01*
X13975000Y-9650000D02*
X14025000Y-9650000D01*
X14018207Y-10684073D02*
X14018207Y-10734073D01*
X13993207Y-10709073D02*
X14043207Y-10709073D01*
X14050000Y-10875000D02*
X14050000Y-10925000D01*
X14025000Y-10900000D02*
X14075000Y-10900000D01*
X14100000Y-8825000D02*
X14100000Y-8875000D01*
X14075000Y-8850000D02*
X14125000Y-8850000D01*
X14200000Y-8775000D02*
X14200000Y-8825000D01*
X14175000Y-8800000D02*
X14225000Y-8800000D01*
X14250000Y-9675000D02*
X14250000Y-9725000D01*
X14225000Y-9700000D02*
X14275000Y-9700000D01*
X14272000Y-8675000D02*
X14272000Y-8725000D01*
X14247000Y-8700000D02*
X14297000Y-8700000D01*
X14400000Y-7075000D02*
X14400000Y-7125000D01*
X14375000Y-7100000D02*
X14425000Y-7100000D01*
X14400000Y-7275000D02*
X14400000Y-7325000D01*
X14375000Y-7300000D02*
X14425000Y-7300000D01*
X14400000Y-7777500D02*
X14400000Y-7827500D01*
X14375000Y-7802500D02*
X14425000Y-7802500D01*
X14400000Y-9575000D02*
X14400000Y-9625000D01*
X14375000Y-9600000D02*
X14425000Y-9600000D01*
X14461546Y-8854214D02*
X14461546Y-8904214D01*
X14436546Y-8879214D02*
X14486546Y-8879214D01*
X14472000Y-8495000D02*
X14472000Y-8545000D01*
X14447000Y-8520000D02*
X14497000Y-8520000D01*
X14485650Y-8962500D02*
X14485650Y-9012500D01*
X14460650Y-8987500D02*
X14510650Y-8987500D01*
X14800000Y-10475000D02*
X14800000Y-10525000D01*
X14775000Y-10500000D02*
X14825000Y-10500000D01*
X14805650Y-8625000D02*
X14805650Y-8675000D01*
X14780650Y-8650000D02*
X14830650Y-8650000D01*
X14805650Y-9175000D02*
X14805650Y-9225000D01*
X14780650Y-9200000D02*
X14830650Y-9200000D01*
X14836013Y-9252144D02*
X14836013Y-9302144D01*
X14811013Y-9277144D02*
X14861013Y-9277144D01*
X15020743Y-10495743D02*
X15020743Y-10545743D01*
X14995743Y-10520743D02*
X15045743Y-10520743D01*
X14941328Y-8533178D02*
X14941328Y-8497822D01*
X14905972Y-8497822D01*
X14905972Y-8533178D01*
X14941328Y-8533178D01*
X14888650Y-8540500D02*
X14958650Y-8540500D01*
X14958650Y-8490500D02*
G75*
G02*
X14958650Y-8540500I0J-25000D01*
G01*
X14958650Y-8490500D02*
X14888650Y-8490500D01*
X14888650Y-8490500D02*
G75*
G03*
X14888650Y-8540500I0J-25000D01*
G01*
X14941328Y-9397178D02*
X14941328Y-9361822D01*
X14905972Y-9361822D01*
X14905972Y-9397178D01*
X14941328Y-9397178D01*
X14888650Y-9404500D02*
X14958650Y-9404500D01*
X14958650Y-9354500D02*
G75*
G02*
X14958650Y-9404500I0J-25000D01*
G01*
X14958650Y-9354500D02*
X14888650Y-9354500D01*
X14888650Y-9354500D02*
G75*
G03*
X14888650Y-9404500I0J-25000D01*
G01*
X15321328Y-8533178D02*
X15321328Y-8497822D01*
X15285972Y-8497822D01*
X15285972Y-8533178D01*
X15321328Y-8533178D01*
X15268650Y-8540500D02*
X15338650Y-8540500D01*
X15338650Y-8490500D02*
G75*
G02*
X15338650Y-8540500I0J-25000D01*
G01*
X15338650Y-8490500D02*
X15268650Y-8490500D01*
X15268650Y-8490500D02*
G75*
G03*
X15268650Y-8540500I0J-25000D01*
G01*
X15321328Y-9397178D02*
X15321328Y-9361822D01*
X15285972Y-9361822D01*
X15285972Y-9397178D01*
X15321328Y-9397178D01*
X15268650Y-9404500D02*
X15338650Y-9404500D01*
X15338650Y-9354500D02*
G75*
G02*
X15338650Y-9404500I0J-25000D01*
G01*
X15338650Y-9354500D02*
X15268650Y-9354500D01*
X15268650Y-9354500D02*
G75*
G03*
X15268650Y-9404500I0J-25000D01*
G01*
D12*
X6702500Y-7232500D02*
X6812500Y-7122500D01*
X6702500Y-7012500D01*
X6592500Y-7122500D01*
X6702500Y-7232500D01*
X6702500Y-10872500D02*
X6812500Y-10762500D01*
X6702500Y-10652500D01*
X6592500Y-10762500D01*
X6702500Y-10872500D01*
X6800000Y-8810000D02*
X6910000Y-8700000D01*
X6800000Y-8590000D01*
X6690000Y-8700000D01*
X6800000Y-8810000D01*
X6800000Y-9310000D02*
X6910000Y-9200000D01*
X6800000Y-9090000D01*
X6690000Y-9200000D01*
X6800000Y-9310000D01*
X15172500Y-7232500D02*
X15282500Y-7122500D01*
X15172500Y-7012500D01*
X15062500Y-7122500D01*
X15172500Y-7232500D01*
X15172500Y-10872500D02*
X15282500Y-10762500D01*
X15172500Y-10652500D01*
X15062500Y-10762500D01*
X15172500Y-10872500D01*
D11*
X6707777Y-11333984D02*
X6707777Y-11133984D01*
X6707777Y-11133984D02*
X6755396Y-11133984D01*
X6755396Y-11133984D02*
X6783967Y-11143508D01*
X6783967Y-11143508D02*
X6803015Y-11162555D01*
X6803015Y-11162555D02*
X6812538Y-11181603D01*
X6812538Y-11181603D02*
X6822062Y-11219698D01*
X6822062Y-11219698D02*
X6822062Y-11248269D01*
X6822062Y-11248269D02*
X6812538Y-11286365D01*
X6812538Y-11286365D02*
X6803015Y-11305412D01*
X6803015Y-11305412D02*
X6783967Y-11324460D01*
X6783967Y-11324460D02*
X6755396Y-11333984D01*
X6755396Y-11333984D02*
X6707777Y-11333984D01*
X6907777Y-11333984D02*
X6907777Y-11200650D01*
X6907777Y-11238746D02*
X6917300Y-11219698D01*
X6917300Y-11219698D02*
X6926824Y-11210174D01*
X6926824Y-11210174D02*
X6945872Y-11200650D01*
X6945872Y-11200650D02*
X6964919Y-11200650D01*
X7031586Y-11333984D02*
X7031586Y-11200650D01*
X7031586Y-11133984D02*
X7022062Y-11143508D01*
X7022062Y-11143508D02*
X7031586Y-11153031D01*
X7031586Y-11153031D02*
X7041110Y-11143508D01*
X7041110Y-11143508D02*
X7031586Y-11133984D01*
X7031586Y-11133984D02*
X7031586Y-11153031D01*
X7155396Y-11333984D02*
X7136348Y-11324460D01*
X7136348Y-11324460D02*
X7126824Y-11305412D01*
X7126824Y-11305412D02*
X7126824Y-11133984D01*
X7260157Y-11333984D02*
X7241110Y-11324460D01*
X7241110Y-11324460D02*
X7231586Y-11305412D01*
X7231586Y-11305412D02*
X7231586Y-11133984D01*
X7488729Y-11333984D02*
X7488729Y-11133984D01*
X7488729Y-11133984D02*
X7555396Y-11276841D01*
X7555396Y-11276841D02*
X7622062Y-11133984D01*
X7622062Y-11133984D02*
X7622062Y-11333984D01*
X7803015Y-11333984D02*
X7803015Y-11229222D01*
X7803015Y-11229222D02*
X7793491Y-11210174D01*
X7793491Y-11210174D02*
X7774443Y-11200650D01*
X7774443Y-11200650D02*
X7736348Y-11200650D01*
X7736348Y-11200650D02*
X7717300Y-11210174D01*
X7803015Y-11324460D02*
X7783967Y-11333984D01*
X7783967Y-11333984D02*
X7736348Y-11333984D01*
X7736348Y-11333984D02*
X7717300Y-11324460D01*
X7717300Y-11324460D02*
X7707777Y-11305412D01*
X7707777Y-11305412D02*
X7707777Y-11286365D01*
X7707777Y-11286365D02*
X7717300Y-11267317D01*
X7717300Y-11267317D02*
X7736348Y-11257793D01*
X7736348Y-11257793D02*
X7783967Y-11257793D01*
X7783967Y-11257793D02*
X7803015Y-11248269D01*
X7898253Y-11200650D02*
X7898253Y-11400650D01*
X7898253Y-11210174D02*
X7917300Y-11200650D01*
X7917300Y-11200650D02*
X7955396Y-11200650D01*
X7955396Y-11200650D02*
X7974443Y-11210174D01*
X7974443Y-11210174D02*
X7983967Y-11219698D01*
X7983967Y-11219698D02*
X7993491Y-11238746D01*
X7993491Y-11238746D02*
X7993491Y-11295888D01*
X7993491Y-11295888D02*
X7983967Y-11314936D01*
X7983967Y-11314936D02*
X7974443Y-11324460D01*
X7974443Y-11324460D02*
X7955396Y-11333984D01*
X7955396Y-11333984D02*
X7917300Y-11333984D01*
X7917300Y-11333984D02*
X7898253Y-11324460D01*
X8079205Y-11314936D02*
X8088729Y-11324460D01*
X8088729Y-11324460D02*
X8079205Y-11333984D01*
X8079205Y-11333984D02*
X8069681Y-11324460D01*
X8069681Y-11324460D02*
X8079205Y-11314936D01*
X8079205Y-11314936D02*
X8079205Y-11333984D01*
X8079205Y-11210174D02*
X8088729Y-11219698D01*
X8088729Y-11219698D02*
X8079205Y-11229222D01*
X8079205Y-11229222D02*
X8069681Y-11219698D01*
X8069681Y-11219698D02*
X8079205Y-11210174D01*
X8079205Y-11210174D02*
X8079205Y-11229222D01*
D10*
X6417000Y-11647500D02*
X6447000Y-11677500D01*
X6447000Y-11647500D02*
X6417000Y-11677500D01*
D11*
X6745872Y-11553984D02*
X6764919Y-11553984D01*
X6764919Y-11553984D02*
X6783967Y-11563508D01*
X6783967Y-11563508D02*
X6793491Y-11573031D01*
X6793491Y-11573031D02*
X6803015Y-11592079D01*
X6803015Y-11592079D02*
X6812538Y-11630174D01*
X6812538Y-11630174D02*
X6812538Y-11677793D01*
X6812538Y-11677793D02*
X6803015Y-11715888D01*
X6803015Y-11715888D02*
X6793491Y-11734936D01*
X6793491Y-11734936D02*
X6783967Y-11744460D01*
X6783967Y-11744460D02*
X6764919Y-11753984D01*
X6764919Y-11753984D02*
X6745872Y-11753984D01*
X6745872Y-11753984D02*
X6726824Y-11744460D01*
X6726824Y-11744460D02*
X6717300Y-11734936D01*
X6717300Y-11734936D02*
X6707777Y-11715888D01*
X6707777Y-11715888D02*
X6698253Y-11677793D01*
X6698253Y-11677793D02*
X6698253Y-11630174D01*
X6698253Y-11630174D02*
X6707777Y-11592079D01*
X6707777Y-11592079D02*
X6717300Y-11573031D01*
X6717300Y-11573031D02*
X6726824Y-11563508D01*
X6726824Y-11563508D02*
X6745872Y-11553984D01*
X6898253Y-11734936D02*
X6907777Y-11744460D01*
X6907777Y-11744460D02*
X6898253Y-11753984D01*
X6898253Y-11753984D02*
X6888729Y-11744460D01*
X6888729Y-11744460D02*
X6898253Y-11734936D01*
X6898253Y-11734936D02*
X6898253Y-11753984D01*
X6974443Y-11553984D02*
X7098253Y-11553984D01*
X7098253Y-11553984D02*
X7031586Y-11630174D01*
X7031586Y-11630174D02*
X7060158Y-11630174D01*
X7060158Y-11630174D02*
X7079205Y-11639698D01*
X7079205Y-11639698D02*
X7088729Y-11649222D01*
X7088729Y-11649222D02*
X7098253Y-11668269D01*
X7098253Y-11668269D02*
X7098253Y-11715888D01*
X7098253Y-11715888D02*
X7088729Y-11734936D01*
X7088729Y-11734936D02*
X7079205Y-11744460D01*
X7079205Y-11744460D02*
X7060158Y-11753984D01*
X7060158Y-11753984D02*
X7003015Y-11753984D01*
X7003015Y-11753984D02*
X6983967Y-11744460D01*
X6983967Y-11744460D02*
X6974443Y-11734936D01*
X7222062Y-11553984D02*
X7241110Y-11553984D01*
X7241110Y-11553984D02*
X7260158Y-11563508D01*
X7260158Y-11563508D02*
X7269681Y-11573031D01*
X7269681Y-11573031D02*
X7279205Y-11592079D01*
X7279205Y-11592079D02*
X7288729Y-11630174D01*
X7288729Y-11630174D02*
X7288729Y-11677793D01*
X7288729Y-11677793D02*
X7279205Y-11715888D01*
X7279205Y-11715888D02*
X7269681Y-11734936D01*
X7269681Y-11734936D02*
X7260158Y-11744460D01*
X7260158Y-11744460D02*
X7241110Y-11753984D01*
X7241110Y-11753984D02*
X7222062Y-11753984D01*
X7222062Y-11753984D02*
X7203015Y-11744460D01*
X7203015Y-11744460D02*
X7193491Y-11734936D01*
X7193491Y-11734936D02*
X7183967Y-11715888D01*
X7183967Y-11715888D02*
X7174443Y-11677793D01*
X7174443Y-11677793D02*
X7174443Y-11630174D01*
X7174443Y-11630174D02*
X7183967Y-11592079D01*
X7183967Y-11592079D02*
X7193491Y-11573031D01*
X7193491Y-11573031D02*
X7203015Y-11563508D01*
X7203015Y-11563508D02*
X7222062Y-11553984D01*
X7412538Y-11553984D02*
X7431586Y-11553984D01*
X7431586Y-11553984D02*
X7450634Y-11563508D01*
X7450634Y-11563508D02*
X7460158Y-11573031D01*
X7460158Y-11573031D02*
X7469681Y-11592079D01*
X7469681Y-11592079D02*
X7479205Y-11630174D01*
X7479205Y-11630174D02*
X7479205Y-11677793D01*
X7479205Y-11677793D02*
X7469681Y-11715888D01*
X7469681Y-11715888D02*
X7460158Y-11734936D01*
X7460158Y-11734936D02*
X7450634Y-11744460D01*
X7450634Y-11744460D02*
X7431586Y-11753984D01*
X7431586Y-11753984D02*
X7412538Y-11753984D01*
X7412538Y-11753984D02*
X7393491Y-11744460D01*
X7393491Y-11744460D02*
X7383967Y-11734936D01*
X7383967Y-11734936D02*
X7374443Y-11715888D01*
X7374443Y-11715888D02*
X7364919Y-11677793D01*
X7364919Y-11677793D02*
X7364919Y-11630174D01*
X7364919Y-11630174D02*
X7374443Y-11592079D01*
X7374443Y-11592079D02*
X7383967Y-11573031D01*
X7383967Y-11573031D02*
X7393491Y-11563508D01*
X7393491Y-11563508D02*
X7412538Y-11553984D01*
X7564919Y-11753984D02*
X7564919Y-11620650D01*
X7564919Y-11639698D02*
X7574443Y-11630174D01*
X7574443Y-11630174D02*
X7593491Y-11620650D01*
X7593491Y-11620650D02*
X7622062Y-11620650D01*
X7622062Y-11620650D02*
X7641110Y-11630174D01*
X7641110Y-11630174D02*
X7650634Y-11649222D01*
X7650634Y-11649222D02*
X7650634Y-11753984D01*
X7650634Y-11649222D02*
X7660158Y-11630174D01*
X7660158Y-11630174D02*
X7679205Y-11620650D01*
X7679205Y-11620650D02*
X7707777Y-11620650D01*
X7707777Y-11620650D02*
X7726824Y-11630174D01*
X7726824Y-11630174D02*
X7736348Y-11649222D01*
X7736348Y-11649222D02*
X7736348Y-11753984D01*
X7831586Y-11753984D02*
X7831586Y-11620650D01*
X7831586Y-11639698D02*
X7841110Y-11630174D01*
X7841110Y-11630174D02*
X7860158Y-11620650D01*
X7860158Y-11620650D02*
X7888729Y-11620650D01*
X7888729Y-11620650D02*
X7907777Y-11630174D01*
X7907777Y-11630174D02*
X7917300Y-11649222D01*
X7917300Y-11649222D02*
X7917300Y-11753984D01*
X7917300Y-11649222D02*
X7926824Y-11630174D01*
X7926824Y-11630174D02*
X7945872Y-11620650D01*
X7945872Y-11620650D02*
X7974443Y-11620650D01*
X7974443Y-11620650D02*
X7993491Y-11630174D01*
X7993491Y-11630174D02*
X8003015Y-11649222D01*
X8003015Y-11649222D02*
X8003015Y-11753984D01*
X8393491Y-11544460D02*
X8222062Y-11801603D01*
X8650634Y-11553984D02*
X8669682Y-11553984D01*
X8669682Y-11553984D02*
X8688729Y-11563508D01*
X8688729Y-11563508D02*
X8698253Y-11573031D01*
X8698253Y-11573031D02*
X8707777Y-11592079D01*
X8707777Y-11592079D02*
X8717301Y-11630174D01*
X8717301Y-11630174D02*
X8717301Y-11677793D01*
X8717301Y-11677793D02*
X8707777Y-11715888D01*
X8707777Y-11715888D02*
X8698253Y-11734936D01*
X8698253Y-11734936D02*
X8688729Y-11744460D01*
X8688729Y-11744460D02*
X8669682Y-11753984D01*
X8669682Y-11753984D02*
X8650634Y-11753984D01*
X8650634Y-11753984D02*
X8631586Y-11744460D01*
X8631586Y-11744460D02*
X8622063Y-11734936D01*
X8622063Y-11734936D02*
X8612539Y-11715888D01*
X8612539Y-11715888D02*
X8603015Y-11677793D01*
X8603015Y-11677793D02*
X8603015Y-11630174D01*
X8603015Y-11630174D02*
X8612539Y-11592079D01*
X8612539Y-11592079D02*
X8622063Y-11573031D01*
X8622063Y-11573031D02*
X8631586Y-11563508D01*
X8631586Y-11563508D02*
X8650634Y-11553984D01*
X8803015Y-11734936D02*
X8812539Y-11744460D01*
X8812539Y-11744460D02*
X8803015Y-11753984D01*
X8803015Y-11753984D02*
X8793491Y-11744460D01*
X8793491Y-11744460D02*
X8803015Y-11734936D01*
X8803015Y-11734936D02*
X8803015Y-11753984D01*
X8936348Y-11553984D02*
X8955396Y-11553984D01*
X8955396Y-11553984D02*
X8974444Y-11563508D01*
X8974444Y-11563508D02*
X8983967Y-11573031D01*
X8983967Y-11573031D02*
X8993491Y-11592079D01*
X8993491Y-11592079D02*
X9003015Y-11630174D01*
X9003015Y-11630174D02*
X9003015Y-11677793D01*
X9003015Y-11677793D02*
X8993491Y-11715888D01*
X8993491Y-11715888D02*
X8983967Y-11734936D01*
X8983967Y-11734936D02*
X8974444Y-11744460D01*
X8974444Y-11744460D02*
X8955396Y-11753984D01*
X8955396Y-11753984D02*
X8936348Y-11753984D01*
X8936348Y-11753984D02*
X8917301Y-11744460D01*
X8917301Y-11744460D02*
X8907777Y-11734936D01*
X8907777Y-11734936D02*
X8898253Y-11715888D01*
X8898253Y-11715888D02*
X8888729Y-11677793D01*
X8888729Y-11677793D02*
X8888729Y-11630174D01*
X8888729Y-11630174D02*
X8898253Y-11592079D01*
X8898253Y-11592079D02*
X8907777Y-11573031D01*
X8907777Y-11573031D02*
X8917301Y-11563508D01*
X8917301Y-11563508D02*
X8936348Y-11553984D01*
X9193491Y-11753984D02*
X9079205Y-11753984D01*
X9136348Y-11753984D02*
X9136348Y-11553984D01*
X9136348Y-11553984D02*
X9117301Y-11582555D01*
X9117301Y-11582555D02*
X9098253Y-11601603D01*
X9098253Y-11601603D02*
X9079205Y-11611127D01*
X9383967Y-11753984D02*
X9269682Y-11753984D01*
X9326824Y-11753984D02*
X9326824Y-11553984D01*
X9326824Y-11553984D02*
X9307777Y-11582555D01*
X9307777Y-11582555D02*
X9288729Y-11601603D01*
X9288729Y-11601603D02*
X9269682Y-11611127D01*
X9498253Y-11639698D02*
X9479205Y-11630174D01*
X9479205Y-11630174D02*
X9469682Y-11620650D01*
X9469682Y-11620650D02*
X9460158Y-11601603D01*
X9460158Y-11601603D02*
X9460158Y-11592079D01*
X9460158Y-11592079D02*
X9469682Y-11573031D01*
X9469682Y-11573031D02*
X9479205Y-11563508D01*
X9479205Y-11563508D02*
X9498253Y-11553984D01*
X9498253Y-11553984D02*
X9536348Y-11553984D01*
X9536348Y-11553984D02*
X9555396Y-11563508D01*
X9555396Y-11563508D02*
X9564920Y-11573031D01*
X9564920Y-11573031D02*
X9574444Y-11592079D01*
X9574444Y-11592079D02*
X9574444Y-11601603D01*
X9574444Y-11601603D02*
X9564920Y-11620650D01*
X9564920Y-11620650D02*
X9555396Y-11630174D01*
X9555396Y-11630174D02*
X9536348Y-11639698D01*
X9536348Y-11639698D02*
X9498253Y-11639698D01*
X9498253Y-11639698D02*
X9479205Y-11649222D01*
X9479205Y-11649222D02*
X9469682Y-11658746D01*
X9469682Y-11658746D02*
X9460158Y-11677793D01*
X9460158Y-11677793D02*
X9460158Y-11715888D01*
X9460158Y-11715888D02*
X9469682Y-11734936D01*
X9469682Y-11734936D02*
X9479205Y-11744460D01*
X9479205Y-11744460D02*
X9498253Y-11753984D01*
X9498253Y-11753984D02*
X9536348Y-11753984D01*
X9536348Y-11753984D02*
X9555396Y-11744460D01*
X9555396Y-11744460D02*
X9564920Y-11734936D01*
X9564920Y-11734936D02*
X9574444Y-11715888D01*
X9574444Y-11715888D02*
X9574444Y-11677793D01*
X9574444Y-11677793D02*
X9564920Y-11658746D01*
X9564920Y-11658746D02*
X9555396Y-11649222D01*
X9555396Y-11649222D02*
X9536348Y-11639698D01*
X9650634Y-11553984D02*
X9650634Y-11592079D01*
X9726825Y-11553984D02*
X9726825Y-11592079D01*
X10022063Y-11830174D02*
X10012539Y-11820650D01*
X10012539Y-11820650D02*
X9993491Y-11792079D01*
X9993491Y-11792079D02*
X9983967Y-11773031D01*
X9983967Y-11773031D02*
X9974444Y-11744460D01*
X9974444Y-11744460D02*
X9964920Y-11696841D01*
X9964920Y-11696841D02*
X9964920Y-11658746D01*
X9964920Y-11658746D02*
X9974444Y-11611127D01*
X9974444Y-11611127D02*
X9983967Y-11582555D01*
X9983967Y-11582555D02*
X9993491Y-11563508D01*
X9993491Y-11563508D02*
X10012539Y-11534936D01*
X10012539Y-11534936D02*
X10022063Y-11525412D01*
X10079206Y-11553984D02*
X10203015Y-11553984D01*
X10203015Y-11553984D02*
X10136348Y-11630174D01*
X10136348Y-11630174D02*
X10164920Y-11630174D01*
X10164920Y-11630174D02*
X10183967Y-11639698D01*
X10183967Y-11639698D02*
X10193491Y-11649222D01*
X10193491Y-11649222D02*
X10203015Y-11668269D01*
X10203015Y-11668269D02*
X10203015Y-11715888D01*
X10203015Y-11715888D02*
X10193491Y-11734936D01*
X10193491Y-11734936D02*
X10183967Y-11744460D01*
X10183967Y-11744460D02*
X10164920Y-11753984D01*
X10164920Y-11753984D02*
X10107777Y-11753984D01*
X10107777Y-11753984D02*
X10088729Y-11744460D01*
X10088729Y-11744460D02*
X10079206Y-11734936D01*
X10374444Y-11620650D02*
X10374444Y-11753984D01*
X10326825Y-11544460D02*
X10279206Y-11687317D01*
X10279206Y-11687317D02*
X10403015Y-11687317D01*
X10631587Y-11753984D02*
X10631587Y-11553984D01*
X10717301Y-11753984D02*
X10717301Y-11649222D01*
X10717301Y-11649222D02*
X10707777Y-11630174D01*
X10707777Y-11630174D02*
X10688729Y-11620650D01*
X10688729Y-11620650D02*
X10660158Y-11620650D01*
X10660158Y-11620650D02*
X10641110Y-11630174D01*
X10641110Y-11630174D02*
X10631587Y-11639698D01*
X10841110Y-11753984D02*
X10822063Y-11744460D01*
X10822063Y-11744460D02*
X10812539Y-11734936D01*
X10812539Y-11734936D02*
X10803015Y-11715888D01*
X10803015Y-11715888D02*
X10803015Y-11658746D01*
X10803015Y-11658746D02*
X10812539Y-11639698D01*
X10812539Y-11639698D02*
X10822063Y-11630174D01*
X10822063Y-11630174D02*
X10841110Y-11620650D01*
X10841110Y-11620650D02*
X10869682Y-11620650D01*
X10869682Y-11620650D02*
X10888729Y-11630174D01*
X10888729Y-11630174D02*
X10898253Y-11639698D01*
X10898253Y-11639698D02*
X10907777Y-11658746D01*
X10907777Y-11658746D02*
X10907777Y-11715888D01*
X10907777Y-11715888D02*
X10898253Y-11734936D01*
X10898253Y-11734936D02*
X10888729Y-11744460D01*
X10888729Y-11744460D02*
X10869682Y-11753984D01*
X10869682Y-11753984D02*
X10841110Y-11753984D01*
X11022063Y-11753984D02*
X11003015Y-11744460D01*
X11003015Y-11744460D02*
X10993491Y-11725412D01*
X10993491Y-11725412D02*
X10993491Y-11553984D01*
X11174444Y-11744460D02*
X11155396Y-11753984D01*
X11155396Y-11753984D02*
X11117301Y-11753984D01*
X11117301Y-11753984D02*
X11098253Y-11744460D01*
X11098253Y-11744460D02*
X11088729Y-11725412D01*
X11088729Y-11725412D02*
X11088729Y-11649222D01*
X11088729Y-11649222D02*
X11098253Y-11630174D01*
X11098253Y-11630174D02*
X11117301Y-11620650D01*
X11117301Y-11620650D02*
X11155396Y-11620650D01*
X11155396Y-11620650D02*
X11174444Y-11630174D01*
X11174444Y-11630174D02*
X11183968Y-11649222D01*
X11183968Y-11649222D02*
X11183968Y-11668269D01*
X11183968Y-11668269D02*
X11088729Y-11687317D01*
X11260158Y-11744460D02*
X11279206Y-11753984D01*
X11279206Y-11753984D02*
X11317301Y-11753984D01*
X11317301Y-11753984D02*
X11336348Y-11744460D01*
X11336348Y-11744460D02*
X11345872Y-11725412D01*
X11345872Y-11725412D02*
X11345872Y-11715888D01*
X11345872Y-11715888D02*
X11336348Y-11696841D01*
X11336348Y-11696841D02*
X11317301Y-11687317D01*
X11317301Y-11687317D02*
X11288729Y-11687317D01*
X11288729Y-11687317D02*
X11269682Y-11677793D01*
X11269682Y-11677793D02*
X11260158Y-11658746D01*
X11260158Y-11658746D02*
X11260158Y-11649222D01*
X11260158Y-11649222D02*
X11269682Y-11630174D01*
X11269682Y-11630174D02*
X11288729Y-11620650D01*
X11288729Y-11620650D02*
X11317301Y-11620650D01*
X11317301Y-11620650D02*
X11336348Y-11630174D01*
X11412539Y-11830174D02*
X11422063Y-11820650D01*
X11422063Y-11820650D02*
X11441110Y-11792079D01*
X11441110Y-11792079D02*
X11450634Y-11773031D01*
X11450634Y-11773031D02*
X11460158Y-11744460D01*
X11460158Y-11744460D02*
X11469682Y-11696841D01*
X11469682Y-11696841D02*
X11469682Y-11658746D01*
X11469682Y-11658746D02*
X11460158Y-11611127D01*
X11460158Y-11611127D02*
X11450634Y-11582555D01*
X11450634Y-11582555D02*
X11441110Y-11563508D01*
X11441110Y-11563508D02*
X11422063Y-11534936D01*
X11422063Y-11534936D02*
X11412539Y-11525412D01*
D10*
X6447000Y-11926500D02*
G75*
G02*
X6407000Y-11926500I-20000J0D01*
G01*
X6407000Y-11926500D02*
G75*
G02*
X6447000Y-11926500I20000J0D01*
G01*
D11*
X6745872Y-11817984D02*
X6764919Y-11817984D01*
X6764919Y-11817984D02*
X6783967Y-11827508D01*
X6783967Y-11827508D02*
X6793491Y-11837031D01*
X6793491Y-11837031D02*
X6803015Y-11856079D01*
X6803015Y-11856079D02*
X6812538Y-11894174D01*
X6812538Y-11894174D02*
X6812538Y-11941793D01*
X6812538Y-11941793D02*
X6803015Y-11979888D01*
X6803015Y-11979888D02*
X6793491Y-11998936D01*
X6793491Y-11998936D02*
X6783967Y-12008460D01*
X6783967Y-12008460D02*
X6764919Y-12017984D01*
X6764919Y-12017984D02*
X6745872Y-12017984D01*
X6745872Y-12017984D02*
X6726824Y-12008460D01*
X6726824Y-12008460D02*
X6717300Y-11998936D01*
X6717300Y-11998936D02*
X6707777Y-11979888D01*
X6707777Y-11979888D02*
X6698253Y-11941793D01*
X6698253Y-11941793D02*
X6698253Y-11894174D01*
X6698253Y-11894174D02*
X6707777Y-11856079D01*
X6707777Y-11856079D02*
X6717300Y-11837031D01*
X6717300Y-11837031D02*
X6726824Y-11827508D01*
X6726824Y-11827508D02*
X6745872Y-11817984D01*
X6898253Y-11998936D02*
X6907777Y-12008460D01*
X6907777Y-12008460D02*
X6898253Y-12017984D01*
X6898253Y-12017984D02*
X6888729Y-12008460D01*
X6888729Y-12008460D02*
X6898253Y-11998936D01*
X6898253Y-11998936D02*
X6898253Y-12017984D01*
X7079205Y-11884650D02*
X7079205Y-12017984D01*
X7031586Y-11808460D02*
X6983967Y-11951317D01*
X6983967Y-11951317D02*
X7107777Y-11951317D01*
X7222062Y-11817984D02*
X7241110Y-11817984D01*
X7241110Y-11817984D02*
X7260158Y-11827508D01*
X7260158Y-11827508D02*
X7269681Y-11837031D01*
X7269681Y-11837031D02*
X7279205Y-11856079D01*
X7279205Y-11856079D02*
X7288729Y-11894174D01*
X7288729Y-11894174D02*
X7288729Y-11941793D01*
X7288729Y-11941793D02*
X7279205Y-11979888D01*
X7279205Y-11979888D02*
X7269681Y-11998936D01*
X7269681Y-11998936D02*
X7260158Y-12008460D01*
X7260158Y-12008460D02*
X7241110Y-12017984D01*
X7241110Y-12017984D02*
X7222062Y-12017984D01*
X7222062Y-12017984D02*
X7203015Y-12008460D01*
X7203015Y-12008460D02*
X7193491Y-11998936D01*
X7193491Y-11998936D02*
X7183967Y-11979888D01*
X7183967Y-11979888D02*
X7174443Y-11941793D01*
X7174443Y-11941793D02*
X7174443Y-11894174D01*
X7174443Y-11894174D02*
X7183967Y-11856079D01*
X7183967Y-11856079D02*
X7193491Y-11837031D01*
X7193491Y-11837031D02*
X7203015Y-11827508D01*
X7203015Y-11827508D02*
X7222062Y-11817984D01*
X7412538Y-11817984D02*
X7431586Y-11817984D01*
X7431586Y-11817984D02*
X7450634Y-11827508D01*
X7450634Y-11827508D02*
X7460158Y-11837031D01*
X7460158Y-11837031D02*
X7469681Y-11856079D01*
X7469681Y-11856079D02*
X7479205Y-11894174D01*
X7479205Y-11894174D02*
X7479205Y-11941793D01*
X7479205Y-11941793D02*
X7469681Y-11979888D01*
X7469681Y-11979888D02*
X7460158Y-11998936D01*
X7460158Y-11998936D02*
X7450634Y-12008460D01*
X7450634Y-12008460D02*
X7431586Y-12017984D01*
X7431586Y-12017984D02*
X7412538Y-12017984D01*
X7412538Y-12017984D02*
X7393491Y-12008460D01*
X7393491Y-12008460D02*
X7383967Y-11998936D01*
X7383967Y-11998936D02*
X7374443Y-11979888D01*
X7374443Y-11979888D02*
X7364919Y-11941793D01*
X7364919Y-11941793D02*
X7364919Y-11894174D01*
X7364919Y-11894174D02*
X7374443Y-11856079D01*
X7374443Y-11856079D02*
X7383967Y-11837031D01*
X7383967Y-11837031D02*
X7393491Y-11827508D01*
X7393491Y-11827508D02*
X7412538Y-11817984D01*
X7564919Y-12017984D02*
X7564919Y-11884650D01*
X7564919Y-11903698D02*
X7574443Y-11894174D01*
X7574443Y-11894174D02*
X7593491Y-11884650D01*
X7593491Y-11884650D02*
X7622062Y-11884650D01*
X7622062Y-11884650D02*
X7641110Y-11894174D01*
X7641110Y-11894174D02*
X7650634Y-11913222D01*
X7650634Y-11913222D02*
X7650634Y-12017984D01*
X7650634Y-11913222D02*
X7660158Y-11894174D01*
X7660158Y-11894174D02*
X7679205Y-11884650D01*
X7679205Y-11884650D02*
X7707777Y-11884650D01*
X7707777Y-11884650D02*
X7726824Y-11894174D01*
X7726824Y-11894174D02*
X7736348Y-11913222D01*
X7736348Y-11913222D02*
X7736348Y-12017984D01*
X7831586Y-12017984D02*
X7831586Y-11884650D01*
X7831586Y-11903698D02*
X7841110Y-11894174D01*
X7841110Y-11894174D02*
X7860158Y-11884650D01*
X7860158Y-11884650D02*
X7888729Y-11884650D01*
X7888729Y-11884650D02*
X7907777Y-11894174D01*
X7907777Y-11894174D02*
X7917300Y-11913222D01*
X7917300Y-11913222D02*
X7917300Y-12017984D01*
X7917300Y-11913222D02*
X7926824Y-11894174D01*
X7926824Y-11894174D02*
X7945872Y-11884650D01*
X7945872Y-11884650D02*
X7974443Y-11884650D01*
X7974443Y-11884650D02*
X7993491Y-11894174D01*
X7993491Y-11894174D02*
X8003015Y-11913222D01*
X8003015Y-11913222D02*
X8003015Y-12017984D01*
X8393491Y-11808460D02*
X8222062Y-12065603D01*
X8650634Y-11817984D02*
X8669682Y-11817984D01*
X8669682Y-11817984D02*
X8688729Y-11827508D01*
X8688729Y-11827508D02*
X8698253Y-11837031D01*
X8698253Y-11837031D02*
X8707777Y-11856079D01*
X8707777Y-11856079D02*
X8717301Y-11894174D01*
X8717301Y-11894174D02*
X8717301Y-11941793D01*
X8717301Y-11941793D02*
X8707777Y-11979888D01*
X8707777Y-11979888D02*
X8698253Y-11998936D01*
X8698253Y-11998936D02*
X8688729Y-12008460D01*
X8688729Y-12008460D02*
X8669682Y-12017984D01*
X8669682Y-12017984D02*
X8650634Y-12017984D01*
X8650634Y-12017984D02*
X8631586Y-12008460D01*
X8631586Y-12008460D02*
X8622063Y-11998936D01*
X8622063Y-11998936D02*
X8612539Y-11979888D01*
X8612539Y-11979888D02*
X8603015Y-11941793D01*
X8603015Y-11941793D02*
X8603015Y-11894174D01*
X8603015Y-11894174D02*
X8612539Y-11856079D01*
X8612539Y-11856079D02*
X8622063Y-11837031D01*
X8622063Y-11837031D02*
X8631586Y-11827508D01*
X8631586Y-11827508D02*
X8650634Y-11817984D01*
X8803015Y-11998936D02*
X8812539Y-12008460D01*
X8812539Y-12008460D02*
X8803015Y-12017984D01*
X8803015Y-12017984D02*
X8793491Y-12008460D01*
X8793491Y-12008460D02*
X8803015Y-11998936D01*
X8803015Y-11998936D02*
X8803015Y-12017984D01*
X8936348Y-11817984D02*
X8955396Y-11817984D01*
X8955396Y-11817984D02*
X8974444Y-11827508D01*
X8974444Y-11827508D02*
X8983967Y-11837031D01*
X8983967Y-11837031D02*
X8993491Y-11856079D01*
X8993491Y-11856079D02*
X9003015Y-11894174D01*
X9003015Y-11894174D02*
X9003015Y-11941793D01*
X9003015Y-11941793D02*
X8993491Y-11979888D01*
X8993491Y-11979888D02*
X8983967Y-11998936D01*
X8983967Y-11998936D02*
X8974444Y-12008460D01*
X8974444Y-12008460D02*
X8955396Y-12017984D01*
X8955396Y-12017984D02*
X8936348Y-12017984D01*
X8936348Y-12017984D02*
X8917301Y-12008460D01*
X8917301Y-12008460D02*
X8907777Y-11998936D01*
X8907777Y-11998936D02*
X8898253Y-11979888D01*
X8898253Y-11979888D02*
X8888729Y-11941793D01*
X8888729Y-11941793D02*
X8888729Y-11894174D01*
X8888729Y-11894174D02*
X8898253Y-11856079D01*
X8898253Y-11856079D02*
X8907777Y-11837031D01*
X8907777Y-11837031D02*
X8917301Y-11827508D01*
X8917301Y-11827508D02*
X8936348Y-11817984D01*
X9193491Y-12017984D02*
X9079205Y-12017984D01*
X9136348Y-12017984D02*
X9136348Y-11817984D01*
X9136348Y-11817984D02*
X9117301Y-11846555D01*
X9117301Y-11846555D02*
X9098253Y-11865603D01*
X9098253Y-11865603D02*
X9079205Y-11875127D01*
X9374444Y-11817984D02*
X9279205Y-11817984D01*
X9279205Y-11817984D02*
X9269682Y-11913222D01*
X9269682Y-11913222D02*
X9279205Y-11903698D01*
X9279205Y-11903698D02*
X9298253Y-11894174D01*
X9298253Y-11894174D02*
X9345872Y-11894174D01*
X9345872Y-11894174D02*
X9364920Y-11903698D01*
X9364920Y-11903698D02*
X9374444Y-11913222D01*
X9374444Y-11913222D02*
X9383967Y-11932269D01*
X9383967Y-11932269D02*
X9383967Y-11979888D01*
X9383967Y-11979888D02*
X9374444Y-11998936D01*
X9374444Y-11998936D02*
X9364920Y-12008460D01*
X9364920Y-12008460D02*
X9345872Y-12017984D01*
X9345872Y-12017984D02*
X9298253Y-12017984D01*
X9298253Y-12017984D02*
X9279205Y-12008460D01*
X9279205Y-12008460D02*
X9269682Y-11998936D01*
X9450634Y-11817984D02*
X9583967Y-11817984D01*
X9583967Y-11817984D02*
X9498253Y-12017984D01*
X9650634Y-11817984D02*
X9650634Y-11856079D01*
X9726825Y-11817984D02*
X9726825Y-11856079D01*
X10022063Y-12094174D02*
X10012539Y-12084650D01*
X10012539Y-12084650D02*
X9993491Y-12056079D01*
X9993491Y-12056079D02*
X9983967Y-12037031D01*
X9983967Y-12037031D02*
X9974444Y-12008460D01*
X9974444Y-12008460D02*
X9964920Y-11960841D01*
X9964920Y-11960841D02*
X9964920Y-11922746D01*
X9964920Y-11922746D02*
X9974444Y-11875127D01*
X9974444Y-11875127D02*
X9983967Y-11846555D01*
X9983967Y-11846555D02*
X9993491Y-11827508D01*
X9993491Y-11827508D02*
X10012539Y-11798936D01*
X10012539Y-11798936D02*
X10022063Y-11789412D01*
X10183967Y-11884650D02*
X10183967Y-12017984D01*
X10136348Y-11808460D02*
X10088729Y-11951317D01*
X10088729Y-11951317D02*
X10212539Y-11951317D01*
X10441110Y-12017984D02*
X10441110Y-11817984D01*
X10526825Y-12017984D02*
X10526825Y-11913222D01*
X10526825Y-11913222D02*
X10517301Y-11894174D01*
X10517301Y-11894174D02*
X10498253Y-11884650D01*
X10498253Y-11884650D02*
X10469682Y-11884650D01*
X10469682Y-11884650D02*
X10450634Y-11894174D01*
X10450634Y-11894174D02*
X10441110Y-11903698D01*
X10650634Y-12017984D02*
X10631587Y-12008460D01*
X10631587Y-12008460D02*
X10622063Y-11998936D01*
X10622063Y-11998936D02*
X10612539Y-11979888D01*
X10612539Y-11979888D02*
X10612539Y-11922746D01*
X10612539Y-11922746D02*
X10622063Y-11903698D01*
X10622063Y-11903698D02*
X10631587Y-11894174D01*
X10631587Y-11894174D02*
X10650634Y-11884650D01*
X10650634Y-11884650D02*
X10679206Y-11884650D01*
X10679206Y-11884650D02*
X10698253Y-11894174D01*
X10698253Y-11894174D02*
X10707777Y-11903698D01*
X10707777Y-11903698D02*
X10717301Y-11922746D01*
X10717301Y-11922746D02*
X10717301Y-11979888D01*
X10717301Y-11979888D02*
X10707777Y-11998936D01*
X10707777Y-11998936D02*
X10698253Y-12008460D01*
X10698253Y-12008460D02*
X10679206Y-12017984D01*
X10679206Y-12017984D02*
X10650634Y-12017984D01*
X10831587Y-12017984D02*
X10812539Y-12008460D01*
X10812539Y-12008460D02*
X10803015Y-11989412D01*
X10803015Y-11989412D02*
X10803015Y-11817984D01*
X10983968Y-12008460D02*
X10964920Y-12017984D01*
X10964920Y-12017984D02*
X10926825Y-12017984D01*
X10926825Y-12017984D02*
X10907777Y-12008460D01*
X10907777Y-12008460D02*
X10898253Y-11989412D01*
X10898253Y-11989412D02*
X10898253Y-11913222D01*
X10898253Y-11913222D02*
X10907777Y-11894174D01*
X10907777Y-11894174D02*
X10926825Y-11884650D01*
X10926825Y-11884650D02*
X10964920Y-11884650D01*
X10964920Y-11884650D02*
X10983968Y-11894174D01*
X10983968Y-11894174D02*
X10993491Y-11913222D01*
X10993491Y-11913222D02*
X10993491Y-11932269D01*
X10993491Y-11932269D02*
X10898253Y-11951317D01*
X11069682Y-12008460D02*
X11088729Y-12017984D01*
X11088729Y-12017984D02*
X11126825Y-12017984D01*
X11126825Y-12017984D02*
X11145872Y-12008460D01*
X11145872Y-12008460D02*
X11155396Y-11989412D01*
X11155396Y-11989412D02*
X11155396Y-11979888D01*
X11155396Y-11979888D02*
X11145872Y-11960841D01*
X11145872Y-11960841D02*
X11126825Y-11951317D01*
X11126825Y-11951317D02*
X11098253Y-11951317D01*
X11098253Y-11951317D02*
X11079206Y-11941793D01*
X11079206Y-11941793D02*
X11069682Y-11922746D01*
X11069682Y-11922746D02*
X11069682Y-11913222D01*
X11069682Y-11913222D02*
X11079206Y-11894174D01*
X11079206Y-11894174D02*
X11098253Y-11884650D01*
X11098253Y-11884650D02*
X11126825Y-11884650D01*
X11126825Y-11884650D02*
X11145872Y-11894174D01*
X11222063Y-12094174D02*
X11231587Y-12084650D01*
X11231587Y-12084650D02*
X11250634Y-12056079D01*
X11250634Y-12056079D02*
X11260158Y-12037031D01*
X11260158Y-12037031D02*
X11269682Y-12008460D01*
X11269682Y-12008460D02*
X11279206Y-11960841D01*
X11279206Y-11960841D02*
X11279206Y-11922746D01*
X11279206Y-11922746D02*
X11269682Y-11875127D01*
X11269682Y-11875127D02*
X11260158Y-11846555D01*
X11260158Y-11846555D02*
X11250634Y-11827508D01*
X11250634Y-11827508D02*
X11231587Y-11798936D01*
X11231587Y-11798936D02*
X11222063Y-11789412D01*
D10*
X6422000Y-12165500D02*
X6422000Y-12215500D01*
X6397000Y-12190500D02*
X6447000Y-12190500D01*
D11*
X6745872Y-12081984D02*
X6764919Y-12081984D01*
X6764919Y-12081984D02*
X6783967Y-12091508D01*
X6783967Y-12091508D02*
X6793491Y-12101031D01*
X6793491Y-12101031D02*
X6803015Y-12120079D01*
X6803015Y-12120079D02*
X6812538Y-12158174D01*
X6812538Y-12158174D02*
X6812538Y-12205793D01*
X6812538Y-12205793D02*
X6803015Y-12243888D01*
X6803015Y-12243888D02*
X6793491Y-12262936D01*
X6793491Y-12262936D02*
X6783967Y-12272460D01*
X6783967Y-12272460D02*
X6764919Y-12281984D01*
X6764919Y-12281984D02*
X6745872Y-12281984D01*
X6745872Y-12281984D02*
X6726824Y-12272460D01*
X6726824Y-12272460D02*
X6717300Y-12262936D01*
X6717300Y-12262936D02*
X6707777Y-12243888D01*
X6707777Y-12243888D02*
X6698253Y-12205793D01*
X6698253Y-12205793D02*
X6698253Y-12158174D01*
X6698253Y-12158174D02*
X6707777Y-12120079D01*
X6707777Y-12120079D02*
X6717300Y-12101031D01*
X6717300Y-12101031D02*
X6726824Y-12091508D01*
X6726824Y-12091508D02*
X6745872Y-12081984D01*
X6898253Y-12262936D02*
X6907777Y-12272460D01*
X6907777Y-12272460D02*
X6898253Y-12281984D01*
X6898253Y-12281984D02*
X6888729Y-12272460D01*
X6888729Y-12272460D02*
X6898253Y-12262936D01*
X6898253Y-12262936D02*
X6898253Y-12281984D01*
X7088729Y-12081984D02*
X6993491Y-12081984D01*
X6993491Y-12081984D02*
X6983967Y-12177222D01*
X6983967Y-12177222D02*
X6993491Y-12167698D01*
X6993491Y-12167698D02*
X7012538Y-12158174D01*
X7012538Y-12158174D02*
X7060158Y-12158174D01*
X7060158Y-12158174D02*
X7079205Y-12167698D01*
X7079205Y-12167698D02*
X7088729Y-12177222D01*
X7088729Y-12177222D02*
X7098253Y-12196269D01*
X7098253Y-12196269D02*
X7098253Y-12243888D01*
X7098253Y-12243888D02*
X7088729Y-12262936D01*
X7088729Y-12262936D02*
X7079205Y-12272460D01*
X7079205Y-12272460D02*
X7060158Y-12281984D01*
X7060158Y-12281984D02*
X7012538Y-12281984D01*
X7012538Y-12281984D02*
X6993491Y-12272460D01*
X6993491Y-12272460D02*
X6983967Y-12262936D01*
X7222062Y-12081984D02*
X7241110Y-12081984D01*
X7241110Y-12081984D02*
X7260158Y-12091508D01*
X7260158Y-12091508D02*
X7269681Y-12101031D01*
X7269681Y-12101031D02*
X7279205Y-12120079D01*
X7279205Y-12120079D02*
X7288729Y-12158174D01*
X7288729Y-12158174D02*
X7288729Y-12205793D01*
X7288729Y-12205793D02*
X7279205Y-12243888D01*
X7279205Y-12243888D02*
X7269681Y-12262936D01*
X7269681Y-12262936D02*
X7260158Y-12272460D01*
X7260158Y-12272460D02*
X7241110Y-12281984D01*
X7241110Y-12281984D02*
X7222062Y-12281984D01*
X7222062Y-12281984D02*
X7203015Y-12272460D01*
X7203015Y-12272460D02*
X7193491Y-12262936D01*
X7193491Y-12262936D02*
X7183967Y-12243888D01*
X7183967Y-12243888D02*
X7174443Y-12205793D01*
X7174443Y-12205793D02*
X7174443Y-12158174D01*
X7174443Y-12158174D02*
X7183967Y-12120079D01*
X7183967Y-12120079D02*
X7193491Y-12101031D01*
X7193491Y-12101031D02*
X7203015Y-12091508D01*
X7203015Y-12091508D02*
X7222062Y-12081984D01*
X7412538Y-12081984D02*
X7431586Y-12081984D01*
X7431586Y-12081984D02*
X7450634Y-12091508D01*
X7450634Y-12091508D02*
X7460158Y-12101031D01*
X7460158Y-12101031D02*
X7469681Y-12120079D01*
X7469681Y-12120079D02*
X7479205Y-12158174D01*
X7479205Y-12158174D02*
X7479205Y-12205793D01*
X7479205Y-12205793D02*
X7469681Y-12243888D01*
X7469681Y-12243888D02*
X7460158Y-12262936D01*
X7460158Y-12262936D02*
X7450634Y-12272460D01*
X7450634Y-12272460D02*
X7431586Y-12281984D01*
X7431586Y-12281984D02*
X7412538Y-12281984D01*
X7412538Y-12281984D02*
X7393491Y-12272460D01*
X7393491Y-12272460D02*
X7383967Y-12262936D01*
X7383967Y-12262936D02*
X7374443Y-12243888D01*
X7374443Y-12243888D02*
X7364919Y-12205793D01*
X7364919Y-12205793D02*
X7364919Y-12158174D01*
X7364919Y-12158174D02*
X7374443Y-12120079D01*
X7374443Y-12120079D02*
X7383967Y-12101031D01*
X7383967Y-12101031D02*
X7393491Y-12091508D01*
X7393491Y-12091508D02*
X7412538Y-12081984D01*
X7564919Y-12281984D02*
X7564919Y-12148650D01*
X7564919Y-12167698D02*
X7574443Y-12158174D01*
X7574443Y-12158174D02*
X7593491Y-12148650D01*
X7593491Y-12148650D02*
X7622062Y-12148650D01*
X7622062Y-12148650D02*
X7641110Y-12158174D01*
X7641110Y-12158174D02*
X7650634Y-12177222D01*
X7650634Y-12177222D02*
X7650634Y-12281984D01*
X7650634Y-12177222D02*
X7660158Y-12158174D01*
X7660158Y-12158174D02*
X7679205Y-12148650D01*
X7679205Y-12148650D02*
X7707777Y-12148650D01*
X7707777Y-12148650D02*
X7726824Y-12158174D01*
X7726824Y-12158174D02*
X7736348Y-12177222D01*
X7736348Y-12177222D02*
X7736348Y-12281984D01*
X7831586Y-12281984D02*
X7831586Y-12148650D01*
X7831586Y-12167698D02*
X7841110Y-12158174D01*
X7841110Y-12158174D02*
X7860158Y-12148650D01*
X7860158Y-12148650D02*
X7888729Y-12148650D01*
X7888729Y-12148650D02*
X7907777Y-12158174D01*
X7907777Y-12158174D02*
X7917300Y-12177222D01*
X7917300Y-12177222D02*
X7917300Y-12281984D01*
X7917300Y-12177222D02*
X7926824Y-12158174D01*
X7926824Y-12158174D02*
X7945872Y-12148650D01*
X7945872Y-12148650D02*
X7974443Y-12148650D01*
X7974443Y-12148650D02*
X7993491Y-12158174D01*
X7993491Y-12158174D02*
X8003015Y-12177222D01*
X8003015Y-12177222D02*
X8003015Y-12281984D01*
X8393491Y-12072460D02*
X8222062Y-12329603D01*
X8650634Y-12081984D02*
X8669682Y-12081984D01*
X8669682Y-12081984D02*
X8688729Y-12091508D01*
X8688729Y-12091508D02*
X8698253Y-12101031D01*
X8698253Y-12101031D02*
X8707777Y-12120079D01*
X8707777Y-12120079D02*
X8717301Y-12158174D01*
X8717301Y-12158174D02*
X8717301Y-12205793D01*
X8717301Y-12205793D02*
X8707777Y-12243888D01*
X8707777Y-12243888D02*
X8698253Y-12262936D01*
X8698253Y-12262936D02*
X8688729Y-12272460D01*
X8688729Y-12272460D02*
X8669682Y-12281984D01*
X8669682Y-12281984D02*
X8650634Y-12281984D01*
X8650634Y-12281984D02*
X8631586Y-12272460D01*
X8631586Y-12272460D02*
X8622063Y-12262936D01*
X8622063Y-12262936D02*
X8612539Y-12243888D01*
X8612539Y-12243888D02*
X8603015Y-12205793D01*
X8603015Y-12205793D02*
X8603015Y-12158174D01*
X8603015Y-12158174D02*
X8612539Y-12120079D01*
X8612539Y-12120079D02*
X8622063Y-12101031D01*
X8622063Y-12101031D02*
X8631586Y-12091508D01*
X8631586Y-12091508D02*
X8650634Y-12081984D01*
X8803015Y-12262936D02*
X8812539Y-12272460D01*
X8812539Y-12272460D02*
X8803015Y-12281984D01*
X8803015Y-12281984D02*
X8793491Y-12272460D01*
X8793491Y-12272460D02*
X8803015Y-12262936D01*
X8803015Y-12262936D02*
X8803015Y-12281984D01*
X8936348Y-12081984D02*
X8955396Y-12081984D01*
X8955396Y-12081984D02*
X8974444Y-12091508D01*
X8974444Y-12091508D02*
X8983967Y-12101031D01*
X8983967Y-12101031D02*
X8993491Y-12120079D01*
X8993491Y-12120079D02*
X9003015Y-12158174D01*
X9003015Y-12158174D02*
X9003015Y-12205793D01*
X9003015Y-12205793D02*
X8993491Y-12243888D01*
X8993491Y-12243888D02*
X8983967Y-12262936D01*
X8983967Y-12262936D02*
X8974444Y-12272460D01*
X8974444Y-12272460D02*
X8955396Y-12281984D01*
X8955396Y-12281984D02*
X8936348Y-12281984D01*
X8936348Y-12281984D02*
X8917301Y-12272460D01*
X8917301Y-12272460D02*
X8907777Y-12262936D01*
X8907777Y-12262936D02*
X8898253Y-12243888D01*
X8898253Y-12243888D02*
X8888729Y-12205793D01*
X8888729Y-12205793D02*
X8888729Y-12158174D01*
X8888729Y-12158174D02*
X8898253Y-12120079D01*
X8898253Y-12120079D02*
X8907777Y-12101031D01*
X8907777Y-12101031D02*
X8917301Y-12091508D01*
X8917301Y-12091508D02*
X8936348Y-12081984D01*
X9193491Y-12281984D02*
X9079205Y-12281984D01*
X9136348Y-12281984D02*
X9136348Y-12081984D01*
X9136348Y-12081984D02*
X9117301Y-12110555D01*
X9117301Y-12110555D02*
X9098253Y-12129603D01*
X9098253Y-12129603D02*
X9079205Y-12139127D01*
X9288729Y-12281984D02*
X9326824Y-12281984D01*
X9326824Y-12281984D02*
X9345872Y-12272460D01*
X9345872Y-12272460D02*
X9355396Y-12262936D01*
X9355396Y-12262936D02*
X9374444Y-12234365D01*
X9374444Y-12234365D02*
X9383967Y-12196269D01*
X9383967Y-12196269D02*
X9383967Y-12120079D01*
X9383967Y-12120079D02*
X9374444Y-12101031D01*
X9374444Y-12101031D02*
X9364920Y-12091508D01*
X9364920Y-12091508D02*
X9345872Y-12081984D01*
X9345872Y-12081984D02*
X9307777Y-12081984D01*
X9307777Y-12081984D02*
X9288729Y-12091508D01*
X9288729Y-12091508D02*
X9279205Y-12101031D01*
X9279205Y-12101031D02*
X9269682Y-12120079D01*
X9269682Y-12120079D02*
X9269682Y-12167698D01*
X9269682Y-12167698D02*
X9279205Y-12186746D01*
X9279205Y-12186746D02*
X9288729Y-12196269D01*
X9288729Y-12196269D02*
X9307777Y-12205793D01*
X9307777Y-12205793D02*
X9345872Y-12205793D01*
X9345872Y-12205793D02*
X9364920Y-12196269D01*
X9364920Y-12196269D02*
X9374444Y-12186746D01*
X9374444Y-12186746D02*
X9383967Y-12167698D01*
X9450634Y-12081984D02*
X9583967Y-12081984D01*
X9583967Y-12081984D02*
X9498253Y-12281984D01*
X9650634Y-12081984D02*
X9650634Y-12120079D01*
X9726825Y-12081984D02*
X9726825Y-12120079D01*
X10022063Y-12358174D02*
X10012539Y-12348650D01*
X10012539Y-12348650D02*
X9993491Y-12320079D01*
X9993491Y-12320079D02*
X9983967Y-12301031D01*
X9983967Y-12301031D02*
X9974444Y-12272460D01*
X9974444Y-12272460D02*
X9964920Y-12224841D01*
X9964920Y-12224841D02*
X9964920Y-12186746D01*
X9964920Y-12186746D02*
X9974444Y-12139127D01*
X9974444Y-12139127D02*
X9983967Y-12110555D01*
X9983967Y-12110555D02*
X9993491Y-12091508D01*
X9993491Y-12091508D02*
X10012539Y-12062936D01*
X10012539Y-12062936D02*
X10022063Y-12053412D01*
X10126825Y-12167698D02*
X10107777Y-12158174D01*
X10107777Y-12158174D02*
X10098253Y-12148650D01*
X10098253Y-12148650D02*
X10088729Y-12129603D01*
X10088729Y-12129603D02*
X10088729Y-12120079D01*
X10088729Y-12120079D02*
X10098253Y-12101031D01*
X10098253Y-12101031D02*
X10107777Y-12091508D01*
X10107777Y-12091508D02*
X10126825Y-12081984D01*
X10126825Y-12081984D02*
X10164920Y-12081984D01*
X10164920Y-12081984D02*
X10183967Y-12091508D01*
X10183967Y-12091508D02*
X10193491Y-12101031D01*
X10193491Y-12101031D02*
X10203015Y-12120079D01*
X10203015Y-12120079D02*
X10203015Y-12129603D01*
X10203015Y-12129603D02*
X10193491Y-12148650D01*
X10193491Y-12148650D02*
X10183967Y-12158174D01*
X10183967Y-12158174D02*
X10164920Y-12167698D01*
X10164920Y-12167698D02*
X10126825Y-12167698D01*
X10126825Y-12167698D02*
X10107777Y-12177222D01*
X10107777Y-12177222D02*
X10098253Y-12186746D01*
X10098253Y-12186746D02*
X10088729Y-12205793D01*
X10088729Y-12205793D02*
X10088729Y-12243888D01*
X10088729Y-12243888D02*
X10098253Y-12262936D01*
X10098253Y-12262936D02*
X10107777Y-12272460D01*
X10107777Y-12272460D02*
X10126825Y-12281984D01*
X10126825Y-12281984D02*
X10164920Y-12281984D01*
X10164920Y-12281984D02*
X10183967Y-12272460D01*
X10183967Y-12272460D02*
X10193491Y-12262936D01*
X10193491Y-12262936D02*
X10203015Y-12243888D01*
X10203015Y-12243888D02*
X10203015Y-12205793D01*
X10203015Y-12205793D02*
X10193491Y-12186746D01*
X10193491Y-12186746D02*
X10183967Y-12177222D01*
X10183967Y-12177222D02*
X10164920Y-12167698D01*
X10269682Y-12081984D02*
X10393491Y-12081984D01*
X10393491Y-12081984D02*
X10326825Y-12158174D01*
X10326825Y-12158174D02*
X10355396Y-12158174D01*
X10355396Y-12158174D02*
X10374444Y-12167698D01*
X10374444Y-12167698D02*
X10383967Y-12177222D01*
X10383967Y-12177222D02*
X10393491Y-12196269D01*
X10393491Y-12196269D02*
X10393491Y-12243888D01*
X10393491Y-12243888D02*
X10383967Y-12262936D01*
X10383967Y-12262936D02*
X10374444Y-12272460D01*
X10374444Y-12272460D02*
X10355396Y-12281984D01*
X10355396Y-12281984D02*
X10298253Y-12281984D01*
X10298253Y-12281984D02*
X10279206Y-12272460D01*
X10279206Y-12272460D02*
X10269682Y-12262936D01*
X10631587Y-12281984D02*
X10631587Y-12081984D01*
X10717301Y-12281984D02*
X10717301Y-12177222D01*
X10717301Y-12177222D02*
X10707777Y-12158174D01*
X10707777Y-12158174D02*
X10688729Y-12148650D01*
X10688729Y-12148650D02*
X10660158Y-12148650D01*
X10660158Y-12148650D02*
X10641110Y-12158174D01*
X10641110Y-12158174D02*
X10631587Y-12167698D01*
X10841110Y-12281984D02*
X10822063Y-12272460D01*
X10822063Y-12272460D02*
X10812539Y-12262936D01*
X10812539Y-12262936D02*
X10803015Y-12243888D01*
X10803015Y-12243888D02*
X10803015Y-12186746D01*
X10803015Y-12186746D02*
X10812539Y-12167698D01*
X10812539Y-12167698D02*
X10822063Y-12158174D01*
X10822063Y-12158174D02*
X10841110Y-12148650D01*
X10841110Y-12148650D02*
X10869682Y-12148650D01*
X10869682Y-12148650D02*
X10888729Y-12158174D01*
X10888729Y-12158174D02*
X10898253Y-12167698D01*
X10898253Y-12167698D02*
X10907777Y-12186746D01*
X10907777Y-12186746D02*
X10907777Y-12243888D01*
X10907777Y-12243888D02*
X10898253Y-12262936D01*
X10898253Y-12262936D02*
X10888729Y-12272460D01*
X10888729Y-12272460D02*
X10869682Y-12281984D01*
X10869682Y-12281984D02*
X10841110Y-12281984D01*
X11022063Y-12281984D02*
X11003015Y-12272460D01*
X11003015Y-12272460D02*
X10993491Y-12253412D01*
X10993491Y-12253412D02*
X10993491Y-12081984D01*
X11174444Y-12272460D02*
X11155396Y-12281984D01*
X11155396Y-12281984D02*
X11117301Y-12281984D01*
X11117301Y-12281984D02*
X11098253Y-12272460D01*
X11098253Y-12272460D02*
X11088729Y-12253412D01*
X11088729Y-12253412D02*
X11088729Y-12177222D01*
X11088729Y-12177222D02*
X11098253Y-12158174D01*
X11098253Y-12158174D02*
X11117301Y-12148650D01*
X11117301Y-12148650D02*
X11155396Y-12148650D01*
X11155396Y-12148650D02*
X11174444Y-12158174D01*
X11174444Y-12158174D02*
X11183968Y-12177222D01*
X11183968Y-12177222D02*
X11183968Y-12196269D01*
X11183968Y-12196269D02*
X11088729Y-12215317D01*
X11260158Y-12272460D02*
X11279206Y-12281984D01*
X11279206Y-12281984D02*
X11317301Y-12281984D01*
X11317301Y-12281984D02*
X11336348Y-12272460D01*
X11336348Y-12272460D02*
X11345872Y-12253412D01*
X11345872Y-12253412D02*
X11345872Y-12243888D01*
X11345872Y-12243888D02*
X11336348Y-12224841D01*
X11336348Y-12224841D02*
X11317301Y-12215317D01*
X11317301Y-12215317D02*
X11288729Y-12215317D01*
X11288729Y-12215317D02*
X11269682Y-12205793D01*
X11269682Y-12205793D02*
X11260158Y-12186746D01*
X11260158Y-12186746D02*
X11260158Y-12177222D01*
X11260158Y-12177222D02*
X11269682Y-12158174D01*
X11269682Y-12158174D02*
X11288729Y-12148650D01*
X11288729Y-12148650D02*
X11317301Y-12148650D01*
X11317301Y-12148650D02*
X11336348Y-12158174D01*
X11412539Y-12358174D02*
X11422063Y-12348650D01*
X11422063Y-12348650D02*
X11441110Y-12320079D01*
X11441110Y-12320079D02*
X11450634Y-12301031D01*
X11450634Y-12301031D02*
X11460158Y-12272460D01*
X11460158Y-12272460D02*
X11469682Y-12224841D01*
X11469682Y-12224841D02*
X11469682Y-12186746D01*
X11469682Y-12186746D02*
X11460158Y-12139127D01*
X11460158Y-12139127D02*
X11450634Y-12110555D01*
X11450634Y-12110555D02*
X11441110Y-12091508D01*
X11441110Y-12091508D02*
X11422063Y-12062936D01*
X11422063Y-12062936D02*
X11412539Y-12053412D01*
D10*
X6439678Y-12472178D02*
X6439678Y-12436822D01*
X6404322Y-12436822D01*
X6404322Y-12472178D01*
X6439678Y-12472178D01*
D11*
X6745872Y-12345984D02*
X6764919Y-12345984D01*
X6764919Y-12345984D02*
X6783967Y-12355508D01*
X6783967Y-12355508D02*
X6793491Y-12365031D01*
X6793491Y-12365031D02*
X6803015Y-12384079D01*
X6803015Y-12384079D02*
X6812538Y-12422174D01*
X6812538Y-12422174D02*
X6812538Y-12469793D01*
X6812538Y-12469793D02*
X6803015Y-12507888D01*
X6803015Y-12507888D02*
X6793491Y-12526936D01*
X6793491Y-12526936D02*
X6783967Y-12536460D01*
X6783967Y-12536460D02*
X6764919Y-12545984D01*
X6764919Y-12545984D02*
X6745872Y-12545984D01*
X6745872Y-12545984D02*
X6726824Y-12536460D01*
X6726824Y-12536460D02*
X6717300Y-12526936D01*
X6717300Y-12526936D02*
X6707777Y-12507888D01*
X6707777Y-12507888D02*
X6698253Y-12469793D01*
X6698253Y-12469793D02*
X6698253Y-12422174D01*
X6698253Y-12422174D02*
X6707777Y-12384079D01*
X6707777Y-12384079D02*
X6717300Y-12365031D01*
X6717300Y-12365031D02*
X6726824Y-12355508D01*
X6726824Y-12355508D02*
X6745872Y-12345984D01*
X6898253Y-12526936D02*
X6907777Y-12536460D01*
X6907777Y-12536460D02*
X6898253Y-12545984D01*
X6898253Y-12545984D02*
X6888729Y-12536460D01*
X6888729Y-12536460D02*
X6898253Y-12526936D01*
X6898253Y-12526936D02*
X6898253Y-12545984D01*
X7088729Y-12345984D02*
X6993491Y-12345984D01*
X6993491Y-12345984D02*
X6983967Y-12441222D01*
X6983967Y-12441222D02*
X6993491Y-12431698D01*
X6993491Y-12431698D02*
X7012538Y-12422174D01*
X7012538Y-12422174D02*
X7060158Y-12422174D01*
X7060158Y-12422174D02*
X7079205Y-12431698D01*
X7079205Y-12431698D02*
X7088729Y-12441222D01*
X7088729Y-12441222D02*
X7098253Y-12460269D01*
X7098253Y-12460269D02*
X7098253Y-12507888D01*
X7098253Y-12507888D02*
X7088729Y-12526936D01*
X7088729Y-12526936D02*
X7079205Y-12536460D01*
X7079205Y-12536460D02*
X7060158Y-12545984D01*
X7060158Y-12545984D02*
X7012538Y-12545984D01*
X7012538Y-12545984D02*
X6993491Y-12536460D01*
X6993491Y-12536460D02*
X6983967Y-12526936D01*
X7222062Y-12345984D02*
X7241110Y-12345984D01*
X7241110Y-12345984D02*
X7260158Y-12355508D01*
X7260158Y-12355508D02*
X7269681Y-12365031D01*
X7269681Y-12365031D02*
X7279205Y-12384079D01*
X7279205Y-12384079D02*
X7288729Y-12422174D01*
X7288729Y-12422174D02*
X7288729Y-12469793D01*
X7288729Y-12469793D02*
X7279205Y-12507888D01*
X7279205Y-12507888D02*
X7269681Y-12526936D01*
X7269681Y-12526936D02*
X7260158Y-12536460D01*
X7260158Y-12536460D02*
X7241110Y-12545984D01*
X7241110Y-12545984D02*
X7222062Y-12545984D01*
X7222062Y-12545984D02*
X7203015Y-12536460D01*
X7203015Y-12536460D02*
X7193491Y-12526936D01*
X7193491Y-12526936D02*
X7183967Y-12507888D01*
X7183967Y-12507888D02*
X7174443Y-12469793D01*
X7174443Y-12469793D02*
X7174443Y-12422174D01*
X7174443Y-12422174D02*
X7183967Y-12384079D01*
X7183967Y-12384079D02*
X7193491Y-12365031D01*
X7193491Y-12365031D02*
X7203015Y-12355508D01*
X7203015Y-12355508D02*
X7222062Y-12345984D01*
X7412538Y-12345984D02*
X7431586Y-12345984D01*
X7431586Y-12345984D02*
X7450634Y-12355508D01*
X7450634Y-12355508D02*
X7460158Y-12365031D01*
X7460158Y-12365031D02*
X7469681Y-12384079D01*
X7469681Y-12384079D02*
X7479205Y-12422174D01*
X7479205Y-12422174D02*
X7479205Y-12469793D01*
X7479205Y-12469793D02*
X7469681Y-12507888D01*
X7469681Y-12507888D02*
X7460158Y-12526936D01*
X7460158Y-12526936D02*
X7450634Y-12536460D01*
X7450634Y-12536460D02*
X7431586Y-12545984D01*
X7431586Y-12545984D02*
X7412538Y-12545984D01*
X7412538Y-12545984D02*
X7393491Y-12536460D01*
X7393491Y-12536460D02*
X7383967Y-12526936D01*
X7383967Y-12526936D02*
X7374443Y-12507888D01*
X7374443Y-12507888D02*
X7364919Y-12469793D01*
X7364919Y-12469793D02*
X7364919Y-12422174D01*
X7364919Y-12422174D02*
X7374443Y-12384079D01*
X7374443Y-12384079D02*
X7383967Y-12365031D01*
X7383967Y-12365031D02*
X7393491Y-12355508D01*
X7393491Y-12355508D02*
X7412538Y-12345984D01*
X7564919Y-12545984D02*
X7564919Y-12412650D01*
X7564919Y-12431698D02*
X7574443Y-12422174D01*
X7574443Y-12422174D02*
X7593491Y-12412650D01*
X7593491Y-12412650D02*
X7622062Y-12412650D01*
X7622062Y-12412650D02*
X7641110Y-12422174D01*
X7641110Y-12422174D02*
X7650634Y-12441222D01*
X7650634Y-12441222D02*
X7650634Y-12545984D01*
X7650634Y-12441222D02*
X7660158Y-12422174D01*
X7660158Y-12422174D02*
X7679205Y-12412650D01*
X7679205Y-12412650D02*
X7707777Y-12412650D01*
X7707777Y-12412650D02*
X7726824Y-12422174D01*
X7726824Y-12422174D02*
X7736348Y-12441222D01*
X7736348Y-12441222D02*
X7736348Y-12545984D01*
X7831586Y-12545984D02*
X7831586Y-12412650D01*
X7831586Y-12431698D02*
X7841110Y-12422174D01*
X7841110Y-12422174D02*
X7860158Y-12412650D01*
X7860158Y-12412650D02*
X7888729Y-12412650D01*
X7888729Y-12412650D02*
X7907777Y-12422174D01*
X7907777Y-12422174D02*
X7917300Y-12441222D01*
X7917300Y-12441222D02*
X7917300Y-12545984D01*
X7917300Y-12441222D02*
X7926824Y-12422174D01*
X7926824Y-12422174D02*
X7945872Y-12412650D01*
X7945872Y-12412650D02*
X7974443Y-12412650D01*
X7974443Y-12412650D02*
X7993491Y-12422174D01*
X7993491Y-12422174D02*
X8003015Y-12441222D01*
X8003015Y-12441222D02*
X8003015Y-12545984D01*
X8393491Y-12336460D02*
X8222062Y-12593603D01*
X8650634Y-12345984D02*
X8669682Y-12345984D01*
X8669682Y-12345984D02*
X8688729Y-12355508D01*
X8688729Y-12355508D02*
X8698253Y-12365031D01*
X8698253Y-12365031D02*
X8707777Y-12384079D01*
X8707777Y-12384079D02*
X8717301Y-12422174D01*
X8717301Y-12422174D02*
X8717301Y-12469793D01*
X8717301Y-12469793D02*
X8707777Y-12507888D01*
X8707777Y-12507888D02*
X8698253Y-12526936D01*
X8698253Y-12526936D02*
X8688729Y-12536460D01*
X8688729Y-12536460D02*
X8669682Y-12545984D01*
X8669682Y-12545984D02*
X8650634Y-12545984D01*
X8650634Y-12545984D02*
X8631586Y-12536460D01*
X8631586Y-12536460D02*
X8622063Y-12526936D01*
X8622063Y-12526936D02*
X8612539Y-12507888D01*
X8612539Y-12507888D02*
X8603015Y-12469793D01*
X8603015Y-12469793D02*
X8603015Y-12422174D01*
X8603015Y-12422174D02*
X8612539Y-12384079D01*
X8612539Y-12384079D02*
X8622063Y-12365031D01*
X8622063Y-12365031D02*
X8631586Y-12355508D01*
X8631586Y-12355508D02*
X8650634Y-12345984D01*
X8803015Y-12526936D02*
X8812539Y-12536460D01*
X8812539Y-12536460D02*
X8803015Y-12545984D01*
X8803015Y-12545984D02*
X8793491Y-12536460D01*
X8793491Y-12536460D02*
X8803015Y-12526936D01*
X8803015Y-12526936D02*
X8803015Y-12545984D01*
X8936348Y-12345984D02*
X8955396Y-12345984D01*
X8955396Y-12345984D02*
X8974444Y-12355508D01*
X8974444Y-12355508D02*
X8983967Y-12365031D01*
X8983967Y-12365031D02*
X8993491Y-12384079D01*
X8993491Y-12384079D02*
X9003015Y-12422174D01*
X9003015Y-12422174D02*
X9003015Y-12469793D01*
X9003015Y-12469793D02*
X8993491Y-12507888D01*
X8993491Y-12507888D02*
X8983967Y-12526936D01*
X8983967Y-12526936D02*
X8974444Y-12536460D01*
X8974444Y-12536460D02*
X8955396Y-12545984D01*
X8955396Y-12545984D02*
X8936348Y-12545984D01*
X8936348Y-12545984D02*
X8917301Y-12536460D01*
X8917301Y-12536460D02*
X8907777Y-12526936D01*
X8907777Y-12526936D02*
X8898253Y-12507888D01*
X8898253Y-12507888D02*
X8888729Y-12469793D01*
X8888729Y-12469793D02*
X8888729Y-12422174D01*
X8888729Y-12422174D02*
X8898253Y-12384079D01*
X8898253Y-12384079D02*
X8907777Y-12365031D01*
X8907777Y-12365031D02*
X8917301Y-12355508D01*
X8917301Y-12355508D02*
X8936348Y-12345984D01*
X9193491Y-12545984D02*
X9079205Y-12545984D01*
X9136348Y-12545984D02*
X9136348Y-12345984D01*
X9136348Y-12345984D02*
X9117301Y-12374555D01*
X9117301Y-12374555D02*
X9098253Y-12393603D01*
X9098253Y-12393603D02*
X9079205Y-12403127D01*
X9288729Y-12545984D02*
X9326824Y-12545984D01*
X9326824Y-12545984D02*
X9345872Y-12536460D01*
X9345872Y-12536460D02*
X9355396Y-12526936D01*
X9355396Y-12526936D02*
X9374444Y-12498365D01*
X9374444Y-12498365D02*
X9383967Y-12460269D01*
X9383967Y-12460269D02*
X9383967Y-12384079D01*
X9383967Y-12384079D02*
X9374444Y-12365031D01*
X9374444Y-12365031D02*
X9364920Y-12355508D01*
X9364920Y-12355508D02*
X9345872Y-12345984D01*
X9345872Y-12345984D02*
X9307777Y-12345984D01*
X9307777Y-12345984D02*
X9288729Y-12355508D01*
X9288729Y-12355508D02*
X9279205Y-12365031D01*
X9279205Y-12365031D02*
X9269682Y-12384079D01*
X9269682Y-12384079D02*
X9269682Y-12431698D01*
X9269682Y-12431698D02*
X9279205Y-12450746D01*
X9279205Y-12450746D02*
X9288729Y-12460269D01*
X9288729Y-12460269D02*
X9307777Y-12469793D01*
X9307777Y-12469793D02*
X9345872Y-12469793D01*
X9345872Y-12469793D02*
X9364920Y-12460269D01*
X9364920Y-12460269D02*
X9374444Y-12450746D01*
X9374444Y-12450746D02*
X9383967Y-12431698D01*
X9450634Y-12345984D02*
X9583967Y-12345984D01*
X9583967Y-12345984D02*
X9498253Y-12545984D01*
X9650634Y-12345984D02*
X9650634Y-12384079D01*
X9726825Y-12345984D02*
X9726825Y-12384079D01*
X10022063Y-12622174D02*
X10012539Y-12612650D01*
X10012539Y-12612650D02*
X9993491Y-12584079D01*
X9993491Y-12584079D02*
X9983967Y-12565031D01*
X9983967Y-12565031D02*
X9974444Y-12536460D01*
X9974444Y-12536460D02*
X9964920Y-12488841D01*
X9964920Y-12488841D02*
X9964920Y-12450746D01*
X9964920Y-12450746D02*
X9974444Y-12403127D01*
X9974444Y-12403127D02*
X9983967Y-12374555D01*
X9983967Y-12374555D02*
X9993491Y-12355508D01*
X9993491Y-12355508D02*
X10012539Y-12326936D01*
X10012539Y-12326936D02*
X10022063Y-12317412D01*
X10136348Y-12345984D02*
X10155396Y-12345984D01*
X10155396Y-12345984D02*
X10174444Y-12355508D01*
X10174444Y-12355508D02*
X10183967Y-12365031D01*
X10183967Y-12365031D02*
X10193491Y-12384079D01*
X10193491Y-12384079D02*
X10203015Y-12422174D01*
X10203015Y-12422174D02*
X10203015Y-12469793D01*
X10203015Y-12469793D02*
X10193491Y-12507888D01*
X10193491Y-12507888D02*
X10183967Y-12526936D01*
X10183967Y-12526936D02*
X10174444Y-12536460D01*
X10174444Y-12536460D02*
X10155396Y-12545984D01*
X10155396Y-12545984D02*
X10136348Y-12545984D01*
X10136348Y-12545984D02*
X10117301Y-12536460D01*
X10117301Y-12536460D02*
X10107777Y-12526936D01*
X10107777Y-12526936D02*
X10098253Y-12507888D01*
X10098253Y-12507888D02*
X10088729Y-12469793D01*
X10088729Y-12469793D02*
X10088729Y-12422174D01*
X10088729Y-12422174D02*
X10098253Y-12384079D01*
X10098253Y-12384079D02*
X10107777Y-12365031D01*
X10107777Y-12365031D02*
X10117301Y-12355508D01*
X10117301Y-12355508D02*
X10136348Y-12345984D01*
X10441110Y-12545984D02*
X10441110Y-12345984D01*
X10526825Y-12545984D02*
X10526825Y-12441222D01*
X10526825Y-12441222D02*
X10517301Y-12422174D01*
X10517301Y-12422174D02*
X10498253Y-12412650D01*
X10498253Y-12412650D02*
X10469682Y-12412650D01*
X10469682Y-12412650D02*
X10450634Y-12422174D01*
X10450634Y-12422174D02*
X10441110Y-12431698D01*
X10650634Y-12545984D02*
X10631587Y-12536460D01*
X10631587Y-12536460D02*
X10622063Y-12526936D01*
X10622063Y-12526936D02*
X10612539Y-12507888D01*
X10612539Y-12507888D02*
X10612539Y-12450746D01*
X10612539Y-12450746D02*
X10622063Y-12431698D01*
X10622063Y-12431698D02*
X10631587Y-12422174D01*
X10631587Y-12422174D02*
X10650634Y-12412650D01*
X10650634Y-12412650D02*
X10679206Y-12412650D01*
X10679206Y-12412650D02*
X10698253Y-12422174D01*
X10698253Y-12422174D02*
X10707777Y-12431698D01*
X10707777Y-12431698D02*
X10717301Y-12450746D01*
X10717301Y-12450746D02*
X10717301Y-12507888D01*
X10717301Y-12507888D02*
X10707777Y-12526936D01*
X10707777Y-12526936D02*
X10698253Y-12536460D01*
X10698253Y-12536460D02*
X10679206Y-12545984D01*
X10679206Y-12545984D02*
X10650634Y-12545984D01*
X10831587Y-12545984D02*
X10812539Y-12536460D01*
X10812539Y-12536460D02*
X10803015Y-12517412D01*
X10803015Y-12517412D02*
X10803015Y-12345984D01*
X10983968Y-12536460D02*
X10964920Y-12545984D01*
X10964920Y-12545984D02*
X10926825Y-12545984D01*
X10926825Y-12545984D02*
X10907777Y-12536460D01*
X10907777Y-12536460D02*
X10898253Y-12517412D01*
X10898253Y-12517412D02*
X10898253Y-12441222D01*
X10898253Y-12441222D02*
X10907777Y-12422174D01*
X10907777Y-12422174D02*
X10926825Y-12412650D01*
X10926825Y-12412650D02*
X10964920Y-12412650D01*
X10964920Y-12412650D02*
X10983968Y-12422174D01*
X10983968Y-12422174D02*
X10993491Y-12441222D01*
X10993491Y-12441222D02*
X10993491Y-12460269D01*
X10993491Y-12460269D02*
X10898253Y-12479317D01*
X11069682Y-12536460D02*
X11088729Y-12545984D01*
X11088729Y-12545984D02*
X11126825Y-12545984D01*
X11126825Y-12545984D02*
X11145872Y-12536460D01*
X11145872Y-12536460D02*
X11155396Y-12517412D01*
X11155396Y-12517412D02*
X11155396Y-12507888D01*
X11155396Y-12507888D02*
X11145872Y-12488841D01*
X11145872Y-12488841D02*
X11126825Y-12479317D01*
X11126825Y-12479317D02*
X11098253Y-12479317D01*
X11098253Y-12479317D02*
X11079206Y-12469793D01*
X11079206Y-12469793D02*
X11069682Y-12450746D01*
X11069682Y-12450746D02*
X11069682Y-12441222D01*
X11069682Y-12441222D02*
X11079206Y-12422174D01*
X11079206Y-12422174D02*
X11098253Y-12412650D01*
X11098253Y-12412650D02*
X11126825Y-12412650D01*
X11126825Y-12412650D02*
X11145872Y-12422174D01*
X11393491Y-12469793D02*
X11545872Y-12469793D01*
X11469682Y-12545984D02*
X11469682Y-12393603D01*
X11879206Y-12412650D02*
X11879206Y-12545984D01*
X11831587Y-12336460D02*
X11783968Y-12479317D01*
X11783968Y-12479317D02*
X11907777Y-12479317D01*
X12126825Y-12536460D02*
X12145872Y-12545984D01*
X12145872Y-12545984D02*
X12183968Y-12545984D01*
X12183968Y-12545984D02*
X12203015Y-12536460D01*
X12203015Y-12536460D02*
X12212539Y-12517412D01*
X12212539Y-12517412D02*
X12212539Y-12507888D01*
X12212539Y-12507888D02*
X12203015Y-12488841D01*
X12203015Y-12488841D02*
X12183968Y-12479317D01*
X12183968Y-12479317D02*
X12155396Y-12479317D01*
X12155396Y-12479317D02*
X12136349Y-12469793D01*
X12136349Y-12469793D02*
X12126825Y-12450746D01*
X12126825Y-12450746D02*
X12126825Y-12441222D01*
X12126825Y-12441222D02*
X12136349Y-12422174D01*
X12136349Y-12422174D02*
X12155396Y-12412650D01*
X12155396Y-12412650D02*
X12183968Y-12412650D01*
X12183968Y-12412650D02*
X12203015Y-12422174D01*
X12326825Y-12545984D02*
X12307777Y-12536460D01*
X12307777Y-12536460D02*
X12298253Y-12517412D01*
X12298253Y-12517412D02*
X12298253Y-12345984D01*
X12431587Y-12545984D02*
X12412539Y-12536460D01*
X12412539Y-12536460D02*
X12403015Y-12526936D01*
X12403015Y-12526936D02*
X12393491Y-12507888D01*
X12393491Y-12507888D02*
X12393491Y-12450746D01*
X12393491Y-12450746D02*
X12403015Y-12431698D01*
X12403015Y-12431698D02*
X12412539Y-12422174D01*
X12412539Y-12422174D02*
X12431587Y-12412650D01*
X12431587Y-12412650D02*
X12460158Y-12412650D01*
X12460158Y-12412650D02*
X12479206Y-12422174D01*
X12479206Y-12422174D02*
X12488730Y-12431698D01*
X12488730Y-12431698D02*
X12498253Y-12450746D01*
X12498253Y-12450746D02*
X12498253Y-12507888D01*
X12498253Y-12507888D02*
X12488730Y-12526936D01*
X12488730Y-12526936D02*
X12479206Y-12536460D01*
X12479206Y-12536460D02*
X12460158Y-12545984D01*
X12460158Y-12545984D02*
X12431587Y-12545984D01*
X12555396Y-12412650D02*
X12631587Y-12412650D01*
X12583968Y-12345984D02*
X12583968Y-12517412D01*
X12583968Y-12517412D02*
X12593491Y-12536460D01*
X12593491Y-12536460D02*
X12612539Y-12545984D01*
X12612539Y-12545984D02*
X12631587Y-12545984D01*
X12688730Y-12536460D02*
X12707777Y-12545984D01*
X12707777Y-12545984D02*
X12745872Y-12545984D01*
X12745872Y-12545984D02*
X12764920Y-12536460D01*
X12764920Y-12536460D02*
X12774444Y-12517412D01*
X12774444Y-12517412D02*
X12774444Y-12507888D01*
X12774444Y-12507888D02*
X12764920Y-12488841D01*
X12764920Y-12488841D02*
X12745872Y-12479317D01*
X12745872Y-12479317D02*
X12717301Y-12479317D01*
X12717301Y-12479317D02*
X12698253Y-12469793D01*
X12698253Y-12469793D02*
X12688730Y-12450746D01*
X12688730Y-12450746D02*
X12688730Y-12441222D01*
X12688730Y-12441222D02*
X12698253Y-12422174D01*
X12698253Y-12422174D02*
X12717301Y-12412650D01*
X12717301Y-12412650D02*
X12745872Y-12412650D01*
X12745872Y-12412650D02*
X12764920Y-12422174D01*
X12841111Y-12622174D02*
X12850634Y-12612650D01*
X12850634Y-12612650D02*
X12869682Y-12584079D01*
X12869682Y-12584079D02*
X12879206Y-12565031D01*
X12879206Y-12565031D02*
X12888730Y-12536460D01*
X12888730Y-12536460D02*
X12898253Y-12488841D01*
X12898253Y-12488841D02*
X12898253Y-12450746D01*
X12898253Y-12450746D02*
X12888730Y-12403127D01*
X12888730Y-12403127D02*
X12879206Y-12374555D01*
X12879206Y-12374555D02*
X12869682Y-12355508D01*
X12869682Y-12355508D02*
X12850634Y-12326936D01*
X12850634Y-12326936D02*
X12841111Y-12317412D01*
X6347000Y-12818500D02*
X6447000Y-12718500D01*
X6347000Y-12618500D01*
X6247000Y-12718500D01*
X6347000Y-12818500D01*
X6698253Y-12629031D02*
X6707777Y-12619508D01*
X6707777Y-12619508D02*
X6726824Y-12609984D01*
X6726824Y-12609984D02*
X6774443Y-12609984D01*
X6774443Y-12609984D02*
X6793491Y-12619508D01*
X6793491Y-12619508D02*
X6803015Y-12629031D01*
X6803015Y-12629031D02*
X6812538Y-12648079D01*
X6812538Y-12648079D02*
X6812538Y-12667127D01*
X6812538Y-12667127D02*
X6803015Y-12695698D01*
X6803015Y-12695698D02*
X6688729Y-12809984D01*
X6688729Y-12809984D02*
X6812538Y-12809984D01*
X6898253Y-12790936D02*
X6907777Y-12800460D01*
X6907777Y-12800460D02*
X6898253Y-12809984D01*
X6898253Y-12809984D02*
X6888729Y-12800460D01*
X6888729Y-12800460D02*
X6898253Y-12790936D01*
X6898253Y-12790936D02*
X6898253Y-12809984D01*
X6983967Y-12629031D02*
X6993491Y-12619508D01*
X6993491Y-12619508D02*
X7012538Y-12609984D01*
X7012538Y-12609984D02*
X7060158Y-12609984D01*
X7060158Y-12609984D02*
X7079205Y-12619508D01*
X7079205Y-12619508D02*
X7088729Y-12629031D01*
X7088729Y-12629031D02*
X7098253Y-12648079D01*
X7098253Y-12648079D02*
X7098253Y-12667127D01*
X7098253Y-12667127D02*
X7088729Y-12695698D01*
X7088729Y-12695698D02*
X6974443Y-12809984D01*
X6974443Y-12809984D02*
X7098253Y-12809984D01*
X7222062Y-12609984D02*
X7241110Y-12609984D01*
X7241110Y-12609984D02*
X7260158Y-12619508D01*
X7260158Y-12619508D02*
X7269681Y-12629031D01*
X7269681Y-12629031D02*
X7279205Y-12648079D01*
X7279205Y-12648079D02*
X7288729Y-12686174D01*
X7288729Y-12686174D02*
X7288729Y-12733793D01*
X7288729Y-12733793D02*
X7279205Y-12771888D01*
X7279205Y-12771888D02*
X7269681Y-12790936D01*
X7269681Y-12790936D02*
X7260158Y-12800460D01*
X7260158Y-12800460D02*
X7241110Y-12809984D01*
X7241110Y-12809984D02*
X7222062Y-12809984D01*
X7222062Y-12809984D02*
X7203015Y-12800460D01*
X7203015Y-12800460D02*
X7193491Y-12790936D01*
X7193491Y-12790936D02*
X7183967Y-12771888D01*
X7183967Y-12771888D02*
X7174443Y-12733793D01*
X7174443Y-12733793D02*
X7174443Y-12686174D01*
X7174443Y-12686174D02*
X7183967Y-12648079D01*
X7183967Y-12648079D02*
X7193491Y-12629031D01*
X7193491Y-12629031D02*
X7203015Y-12619508D01*
X7203015Y-12619508D02*
X7222062Y-12609984D01*
X7412538Y-12609984D02*
X7431586Y-12609984D01*
X7431586Y-12609984D02*
X7450634Y-12619508D01*
X7450634Y-12619508D02*
X7460158Y-12629031D01*
X7460158Y-12629031D02*
X7469681Y-12648079D01*
X7469681Y-12648079D02*
X7479205Y-12686174D01*
X7479205Y-12686174D02*
X7479205Y-12733793D01*
X7479205Y-12733793D02*
X7469681Y-12771888D01*
X7469681Y-12771888D02*
X7460158Y-12790936D01*
X7460158Y-12790936D02*
X7450634Y-12800460D01*
X7450634Y-12800460D02*
X7431586Y-12809984D01*
X7431586Y-12809984D02*
X7412538Y-12809984D01*
X7412538Y-12809984D02*
X7393491Y-12800460D01*
X7393491Y-12800460D02*
X7383967Y-12790936D01*
X7383967Y-12790936D02*
X7374443Y-12771888D01*
X7374443Y-12771888D02*
X7364919Y-12733793D01*
X7364919Y-12733793D02*
X7364919Y-12686174D01*
X7364919Y-12686174D02*
X7374443Y-12648079D01*
X7374443Y-12648079D02*
X7383967Y-12629031D01*
X7383967Y-12629031D02*
X7393491Y-12619508D01*
X7393491Y-12619508D02*
X7412538Y-12609984D01*
X7564919Y-12809984D02*
X7564919Y-12676650D01*
X7564919Y-12695698D02*
X7574443Y-12686174D01*
X7574443Y-12686174D02*
X7593491Y-12676650D01*
X7593491Y-12676650D02*
X7622062Y-12676650D01*
X7622062Y-12676650D02*
X7641110Y-12686174D01*
X7641110Y-12686174D02*
X7650634Y-12705222D01*
X7650634Y-12705222D02*
X7650634Y-12809984D01*
X7650634Y-12705222D02*
X7660158Y-12686174D01*
X7660158Y-12686174D02*
X7679205Y-12676650D01*
X7679205Y-12676650D02*
X7707777Y-12676650D01*
X7707777Y-12676650D02*
X7726824Y-12686174D01*
X7726824Y-12686174D02*
X7736348Y-12705222D01*
X7736348Y-12705222D02*
X7736348Y-12809984D01*
X7831586Y-12809984D02*
X7831586Y-12676650D01*
X7831586Y-12695698D02*
X7841110Y-12686174D01*
X7841110Y-12686174D02*
X7860158Y-12676650D01*
X7860158Y-12676650D02*
X7888729Y-12676650D01*
X7888729Y-12676650D02*
X7907777Y-12686174D01*
X7907777Y-12686174D02*
X7917300Y-12705222D01*
X7917300Y-12705222D02*
X7917300Y-12809984D01*
X7917300Y-12705222D02*
X7926824Y-12686174D01*
X7926824Y-12686174D02*
X7945872Y-12676650D01*
X7945872Y-12676650D02*
X7974443Y-12676650D01*
X7974443Y-12676650D02*
X7993491Y-12686174D01*
X7993491Y-12686174D02*
X8003015Y-12705222D01*
X8003015Y-12705222D02*
X8003015Y-12809984D01*
X8393491Y-12600460D02*
X8222062Y-12857603D01*
X8650634Y-12609984D02*
X8669682Y-12609984D01*
X8669682Y-12609984D02*
X8688729Y-12619508D01*
X8688729Y-12619508D02*
X8698253Y-12629031D01*
X8698253Y-12629031D02*
X8707777Y-12648079D01*
X8707777Y-12648079D02*
X8717301Y-12686174D01*
X8717301Y-12686174D02*
X8717301Y-12733793D01*
X8717301Y-12733793D02*
X8707777Y-12771888D01*
X8707777Y-12771888D02*
X8698253Y-12790936D01*
X8698253Y-12790936D02*
X8688729Y-12800460D01*
X8688729Y-12800460D02*
X8669682Y-12809984D01*
X8669682Y-12809984D02*
X8650634Y-12809984D01*
X8650634Y-12809984D02*
X8631586Y-12800460D01*
X8631586Y-12800460D02*
X8622063Y-12790936D01*
X8622063Y-12790936D02*
X8612539Y-12771888D01*
X8612539Y-12771888D02*
X8603015Y-12733793D01*
X8603015Y-12733793D02*
X8603015Y-12686174D01*
X8603015Y-12686174D02*
X8612539Y-12648079D01*
X8612539Y-12648079D02*
X8622063Y-12629031D01*
X8622063Y-12629031D02*
X8631586Y-12619508D01*
X8631586Y-12619508D02*
X8650634Y-12609984D01*
X8803015Y-12790936D02*
X8812539Y-12800460D01*
X8812539Y-12800460D02*
X8803015Y-12809984D01*
X8803015Y-12809984D02*
X8793491Y-12800460D01*
X8793491Y-12800460D02*
X8803015Y-12790936D01*
X8803015Y-12790936D02*
X8803015Y-12809984D01*
X8936348Y-12609984D02*
X8955396Y-12609984D01*
X8955396Y-12609984D02*
X8974444Y-12619508D01*
X8974444Y-12619508D02*
X8983967Y-12629031D01*
X8983967Y-12629031D02*
X8993491Y-12648079D01*
X8993491Y-12648079D02*
X9003015Y-12686174D01*
X9003015Y-12686174D02*
X9003015Y-12733793D01*
X9003015Y-12733793D02*
X8993491Y-12771888D01*
X8993491Y-12771888D02*
X8983967Y-12790936D01*
X8983967Y-12790936D02*
X8974444Y-12800460D01*
X8974444Y-12800460D02*
X8955396Y-12809984D01*
X8955396Y-12809984D02*
X8936348Y-12809984D01*
X8936348Y-12809984D02*
X8917301Y-12800460D01*
X8917301Y-12800460D02*
X8907777Y-12790936D01*
X8907777Y-12790936D02*
X8898253Y-12771888D01*
X8898253Y-12771888D02*
X8888729Y-12733793D01*
X8888729Y-12733793D02*
X8888729Y-12686174D01*
X8888729Y-12686174D02*
X8898253Y-12648079D01*
X8898253Y-12648079D02*
X8907777Y-12629031D01*
X8907777Y-12629031D02*
X8917301Y-12619508D01*
X8917301Y-12619508D02*
X8936348Y-12609984D01*
X9117301Y-12695698D02*
X9098253Y-12686174D01*
X9098253Y-12686174D02*
X9088729Y-12676650D01*
X9088729Y-12676650D02*
X9079205Y-12657603D01*
X9079205Y-12657603D02*
X9079205Y-12648079D01*
X9079205Y-12648079D02*
X9088729Y-12629031D01*
X9088729Y-12629031D02*
X9098253Y-12619508D01*
X9098253Y-12619508D02*
X9117301Y-12609984D01*
X9117301Y-12609984D02*
X9155396Y-12609984D01*
X9155396Y-12609984D02*
X9174444Y-12619508D01*
X9174444Y-12619508D02*
X9183967Y-12629031D01*
X9183967Y-12629031D02*
X9193491Y-12648079D01*
X9193491Y-12648079D02*
X9193491Y-12657603D01*
X9193491Y-12657603D02*
X9183967Y-12676650D01*
X9183967Y-12676650D02*
X9174444Y-12686174D01*
X9174444Y-12686174D02*
X9155396Y-12695698D01*
X9155396Y-12695698D02*
X9117301Y-12695698D01*
X9117301Y-12695698D02*
X9098253Y-12705222D01*
X9098253Y-12705222D02*
X9088729Y-12714746D01*
X9088729Y-12714746D02*
X9079205Y-12733793D01*
X9079205Y-12733793D02*
X9079205Y-12771888D01*
X9079205Y-12771888D02*
X9088729Y-12790936D01*
X9088729Y-12790936D02*
X9098253Y-12800460D01*
X9098253Y-12800460D02*
X9117301Y-12809984D01*
X9117301Y-12809984D02*
X9155396Y-12809984D01*
X9155396Y-12809984D02*
X9174444Y-12800460D01*
X9174444Y-12800460D02*
X9183967Y-12790936D01*
X9183967Y-12790936D02*
X9193491Y-12771888D01*
X9193491Y-12771888D02*
X9193491Y-12733793D01*
X9193491Y-12733793D02*
X9183967Y-12714746D01*
X9183967Y-12714746D02*
X9174444Y-12705222D01*
X9174444Y-12705222D02*
X9155396Y-12695698D01*
X9364920Y-12609984D02*
X9326824Y-12609984D01*
X9326824Y-12609984D02*
X9307777Y-12619508D01*
X9307777Y-12619508D02*
X9298253Y-12629031D01*
X9298253Y-12629031D02*
X9279205Y-12657603D01*
X9279205Y-12657603D02*
X9269682Y-12695698D01*
X9269682Y-12695698D02*
X9269682Y-12771888D01*
X9269682Y-12771888D02*
X9279205Y-12790936D01*
X9279205Y-12790936D02*
X9288729Y-12800460D01*
X9288729Y-12800460D02*
X9307777Y-12809984D01*
X9307777Y-12809984D02*
X9345872Y-12809984D01*
X9345872Y-12809984D02*
X9364920Y-12800460D01*
X9364920Y-12800460D02*
X9374444Y-12790936D01*
X9374444Y-12790936D02*
X9383967Y-12771888D01*
X9383967Y-12771888D02*
X9383967Y-12724269D01*
X9383967Y-12724269D02*
X9374444Y-12705222D01*
X9374444Y-12705222D02*
X9364920Y-12695698D01*
X9364920Y-12695698D02*
X9345872Y-12686174D01*
X9345872Y-12686174D02*
X9307777Y-12686174D01*
X9307777Y-12686174D02*
X9288729Y-12695698D01*
X9288729Y-12695698D02*
X9279205Y-12705222D01*
X9279205Y-12705222D02*
X9269682Y-12724269D01*
X9555396Y-12609984D02*
X9517301Y-12609984D01*
X9517301Y-12609984D02*
X9498253Y-12619508D01*
X9498253Y-12619508D02*
X9488729Y-12629031D01*
X9488729Y-12629031D02*
X9469682Y-12657603D01*
X9469682Y-12657603D02*
X9460158Y-12695698D01*
X9460158Y-12695698D02*
X9460158Y-12771888D01*
X9460158Y-12771888D02*
X9469682Y-12790936D01*
X9469682Y-12790936D02*
X9479205Y-12800460D01*
X9479205Y-12800460D02*
X9498253Y-12809984D01*
X9498253Y-12809984D02*
X9536348Y-12809984D01*
X9536348Y-12809984D02*
X9555396Y-12800460D01*
X9555396Y-12800460D02*
X9564920Y-12790936D01*
X9564920Y-12790936D02*
X9574444Y-12771888D01*
X9574444Y-12771888D02*
X9574444Y-12724269D01*
X9574444Y-12724269D02*
X9564920Y-12705222D01*
X9564920Y-12705222D02*
X9555396Y-12695698D01*
X9555396Y-12695698D02*
X9536348Y-12686174D01*
X9536348Y-12686174D02*
X9498253Y-12686174D01*
X9498253Y-12686174D02*
X9479205Y-12695698D01*
X9479205Y-12695698D02*
X9469682Y-12705222D01*
X9469682Y-12705222D02*
X9460158Y-12724269D01*
X9650634Y-12609984D02*
X9650634Y-12648079D01*
X9726825Y-12609984D02*
X9726825Y-12648079D01*
X10022063Y-12886174D02*
X10012539Y-12876650D01*
X10012539Y-12876650D02*
X9993491Y-12848079D01*
X9993491Y-12848079D02*
X9983967Y-12829031D01*
X9983967Y-12829031D02*
X9974444Y-12800460D01*
X9974444Y-12800460D02*
X9964920Y-12752841D01*
X9964920Y-12752841D02*
X9964920Y-12714746D01*
X9964920Y-12714746D02*
X9974444Y-12667127D01*
X9974444Y-12667127D02*
X9983967Y-12638555D01*
X9983967Y-12638555D02*
X9993491Y-12619508D01*
X9993491Y-12619508D02*
X10012539Y-12590936D01*
X10012539Y-12590936D02*
X10022063Y-12581412D01*
X10183967Y-12609984D02*
X10145872Y-12609984D01*
X10145872Y-12609984D02*
X10126825Y-12619508D01*
X10126825Y-12619508D02*
X10117301Y-12629031D01*
X10117301Y-12629031D02*
X10098253Y-12657603D01*
X10098253Y-12657603D02*
X10088729Y-12695698D01*
X10088729Y-12695698D02*
X10088729Y-12771888D01*
X10088729Y-12771888D02*
X10098253Y-12790936D01*
X10098253Y-12790936D02*
X10107777Y-12800460D01*
X10107777Y-12800460D02*
X10126825Y-12809984D01*
X10126825Y-12809984D02*
X10164920Y-12809984D01*
X10164920Y-12809984D02*
X10183967Y-12800460D01*
X10183967Y-12800460D02*
X10193491Y-12790936D01*
X10193491Y-12790936D02*
X10203015Y-12771888D01*
X10203015Y-12771888D02*
X10203015Y-12724269D01*
X10203015Y-12724269D02*
X10193491Y-12705222D01*
X10193491Y-12705222D02*
X10183967Y-12695698D01*
X10183967Y-12695698D02*
X10164920Y-12686174D01*
X10164920Y-12686174D02*
X10126825Y-12686174D01*
X10126825Y-12686174D02*
X10107777Y-12695698D01*
X10107777Y-12695698D02*
X10098253Y-12705222D01*
X10098253Y-12705222D02*
X10088729Y-12724269D01*
X10441110Y-12809984D02*
X10441110Y-12609984D01*
X10526825Y-12809984D02*
X10526825Y-12705222D01*
X10526825Y-12705222D02*
X10517301Y-12686174D01*
X10517301Y-12686174D02*
X10498253Y-12676650D01*
X10498253Y-12676650D02*
X10469682Y-12676650D01*
X10469682Y-12676650D02*
X10450634Y-12686174D01*
X10450634Y-12686174D02*
X10441110Y-12695698D01*
X10650634Y-12809984D02*
X10631587Y-12800460D01*
X10631587Y-12800460D02*
X10622063Y-12790936D01*
X10622063Y-12790936D02*
X10612539Y-12771888D01*
X10612539Y-12771888D02*
X10612539Y-12714746D01*
X10612539Y-12714746D02*
X10622063Y-12695698D01*
X10622063Y-12695698D02*
X10631587Y-12686174D01*
X10631587Y-12686174D02*
X10650634Y-12676650D01*
X10650634Y-12676650D02*
X10679206Y-12676650D01*
X10679206Y-12676650D02*
X10698253Y-12686174D01*
X10698253Y-12686174D02*
X10707777Y-12695698D01*
X10707777Y-12695698D02*
X10717301Y-12714746D01*
X10717301Y-12714746D02*
X10717301Y-12771888D01*
X10717301Y-12771888D02*
X10707777Y-12790936D01*
X10707777Y-12790936D02*
X10698253Y-12800460D01*
X10698253Y-12800460D02*
X10679206Y-12809984D01*
X10679206Y-12809984D02*
X10650634Y-12809984D01*
X10831587Y-12809984D02*
X10812539Y-12800460D01*
X10812539Y-12800460D02*
X10803015Y-12781412D01*
X10803015Y-12781412D02*
X10803015Y-12609984D01*
X10983968Y-12800460D02*
X10964920Y-12809984D01*
X10964920Y-12809984D02*
X10926825Y-12809984D01*
X10926825Y-12809984D02*
X10907777Y-12800460D01*
X10907777Y-12800460D02*
X10898253Y-12781412D01*
X10898253Y-12781412D02*
X10898253Y-12705222D01*
X10898253Y-12705222D02*
X10907777Y-12686174D01*
X10907777Y-12686174D02*
X10926825Y-12676650D01*
X10926825Y-12676650D02*
X10964920Y-12676650D01*
X10964920Y-12676650D02*
X10983968Y-12686174D01*
X10983968Y-12686174D02*
X10993491Y-12705222D01*
X10993491Y-12705222D02*
X10993491Y-12724269D01*
X10993491Y-12724269D02*
X10898253Y-12743317D01*
X11069682Y-12800460D02*
X11088729Y-12809984D01*
X11088729Y-12809984D02*
X11126825Y-12809984D01*
X11126825Y-12809984D02*
X11145872Y-12800460D01*
X11145872Y-12800460D02*
X11155396Y-12781412D01*
X11155396Y-12781412D02*
X11155396Y-12771888D01*
X11155396Y-12771888D02*
X11145872Y-12752841D01*
X11145872Y-12752841D02*
X11126825Y-12743317D01*
X11126825Y-12743317D02*
X11098253Y-12743317D01*
X11098253Y-12743317D02*
X11079206Y-12733793D01*
X11079206Y-12733793D02*
X11069682Y-12714746D01*
X11069682Y-12714746D02*
X11069682Y-12705222D01*
X11069682Y-12705222D02*
X11079206Y-12686174D01*
X11079206Y-12686174D02*
X11098253Y-12676650D01*
X11098253Y-12676650D02*
X11126825Y-12676650D01*
X11126825Y-12676650D02*
X11145872Y-12686174D01*
X11222063Y-12886174D02*
X11231587Y-12876650D01*
X11231587Y-12876650D02*
X11250634Y-12848079D01*
X11250634Y-12848079D02*
X11260158Y-12829031D01*
X11260158Y-12829031D02*
X11269682Y-12800460D01*
X11269682Y-12800460D02*
X11279206Y-12752841D01*
X11279206Y-12752841D02*
X11279206Y-12714746D01*
X11279206Y-12714746D02*
X11269682Y-12667127D01*
X11269682Y-12667127D02*
X11260158Y-12638555D01*
X11260158Y-12638555D02*
X11250634Y-12619508D01*
X11250634Y-12619508D02*
X11231587Y-12590936D01*
X11231587Y-12590936D02*
X11222063Y-12581412D01*
M02*
