%TF.GenerationSoftware,KiCad,Pcbnew,8.0.1*%
%TF.CreationDate,2024-05-01T11:44:26+08:00*%
%TF.ProjectId,bat_rf,6261745f-7266-42e6-9b69-6361645f7063,rev?*%
%TF.SameCoordinates,Original*%
%TF.FileFunction,Legend,Top*%
%TF.FilePolarity,Positive*%
%FSLAX46Y46*%
G04 Gerber Fmt 4.6, Leading zero omitted, Abs format (unit mm)*
G04 Created by KiCad (PCBNEW 8.0.1) date 2024-05-01 11:44:26*
%MOMM*%
%LPD*%
G01*
G04 APERTURE LIST*
%ADD10C,0.150000*%
%ADD11C,0.120000*%
%ADD12C,0.254000*%
%ADD13C,1.000000*%
G04 APERTURE END LIST*
D10*
G36*
X149687325Y-91657966D02*
G01*
X149759166Y-91728433D01*
X149794928Y-91797879D01*
X149796018Y-91953048D01*
X149762867Y-92021370D01*
X149690485Y-92095163D01*
X149532313Y-92135856D01*
X149217559Y-92137159D01*
X149052311Y-92097045D01*
X148980471Y-92026578D01*
X148944709Y-91957132D01*
X148943619Y-91801963D01*
X148976770Y-91733640D01*
X149049152Y-91659848D01*
X149207323Y-91619155D01*
X149522077Y-91617852D01*
X149687325Y-91657966D01*
G37*
G36*
X149687325Y-88515109D02*
G01*
X149759166Y-88585576D01*
X149794928Y-88655022D01*
X149796018Y-88810191D01*
X149762867Y-88878513D01*
X149690485Y-88952306D01*
X149532313Y-88992999D01*
X149217559Y-88994302D01*
X149052311Y-88954188D01*
X148980471Y-88883721D01*
X148944709Y-88814275D01*
X148943619Y-88659106D01*
X148976770Y-88590783D01*
X149049152Y-88516991D01*
X149207323Y-88476298D01*
X149522077Y-88474995D01*
X149687325Y-88515109D01*
G37*
G36*
X150294025Y-92396950D02*
G01*
X148636089Y-92396950D01*
X148636089Y-91782268D01*
X148794819Y-91782268D01*
X148796077Y-91961355D01*
X148795408Y-91963363D01*
X148796166Y-91974035D01*
X148796260Y-91987376D01*
X148797291Y-91989865D01*
X148797482Y-91992553D01*
X148802737Y-92006285D01*
X148851429Y-92100841D01*
X148855078Y-92109650D01*
X148857460Y-92112552D01*
X148858188Y-92113966D01*
X148859686Y-92115265D01*
X148864405Y-92121015D01*
X148954728Y-92209612D01*
X148957128Y-92213612D01*
X148963988Y-92218695D01*
X148971008Y-92225581D01*
X148976161Y-92227715D01*
X148980640Y-92231034D01*
X148994486Y-92235981D01*
X149180851Y-92281221D01*
X149188520Y-92284398D01*
X149197634Y-92285295D01*
X149199506Y-92285750D01*
X149200598Y-92285587D01*
X149203152Y-92285839D01*
X149531588Y-92284478D01*
X149540131Y-92285750D01*
X149549223Y-92284405D01*
X149551117Y-92284398D01*
X149552138Y-92283975D01*
X149554675Y-92283600D01*
X149736666Y-92236779D01*
X149741592Y-92236779D01*
X149749667Y-92233434D01*
X149758997Y-92231034D01*
X149763476Y-92227714D01*
X149768628Y-92225581D01*
X149779994Y-92216253D01*
X149873932Y-92120485D01*
X149881450Y-92113966D01*
X149883460Y-92110772D01*
X149884561Y-92109650D01*
X149885319Y-92107817D01*
X149889282Y-92101523D01*
X149930957Y-92015633D01*
X149932179Y-92014412D01*
X149935848Y-92005552D01*
X149942156Y-91992554D01*
X149942347Y-91989864D01*
X149943378Y-91987376D01*
X149944819Y-91972744D01*
X149943560Y-91793655D01*
X149944230Y-91791648D01*
X149943471Y-91780975D01*
X149943378Y-91767636D01*
X149942347Y-91765147D01*
X149942156Y-91762458D01*
X149936901Y-91748727D01*
X149888212Y-91654178D01*
X149884561Y-91645362D01*
X149882176Y-91642456D01*
X149881450Y-91641046D01*
X149879953Y-91639747D01*
X149875233Y-91633997D01*
X149784909Y-91545401D01*
X149782509Y-91541400D01*
X149775645Y-91536314D01*
X149768628Y-91529431D01*
X149763476Y-91527297D01*
X149758997Y-91523978D01*
X149745151Y-91519031D01*
X149558785Y-91473790D01*
X149551117Y-91470614D01*
X149542002Y-91469716D01*
X149540131Y-91469262D01*
X149539038Y-91469424D01*
X149536485Y-91469173D01*
X149208048Y-91470533D01*
X149199506Y-91469262D01*
X149190413Y-91470606D01*
X149188520Y-91470614D01*
X149187498Y-91471036D01*
X149184962Y-91471412D01*
X149002971Y-91518233D01*
X148998045Y-91518233D01*
X148989968Y-91521578D01*
X148980640Y-91523978D01*
X148976161Y-91527296D01*
X148971008Y-91529431D01*
X148959643Y-91538759D01*
X148865711Y-91634521D01*
X148858188Y-91641046D01*
X148856175Y-91644242D01*
X148855078Y-91645362D01*
X148854320Y-91647189D01*
X148850356Y-91653489D01*
X148808681Y-91739377D01*
X148807459Y-91740600D01*
X148803786Y-91749465D01*
X148797482Y-91762459D01*
X148797291Y-91765146D01*
X148796260Y-91767636D01*
X148794819Y-91782268D01*
X148636089Y-91782268D01*
X148636089Y-91110362D01*
X148795002Y-91110362D01*
X148796260Y-91120258D01*
X148796260Y-91130233D01*
X148798089Y-91134648D01*
X148798692Y-91139392D01*
X148803642Y-91148056D01*
X148807459Y-91157269D01*
X148810837Y-91160647D01*
X148813211Y-91164801D01*
X148821100Y-91170910D01*
X148828151Y-91177961D01*
X148832567Y-91179790D01*
X148836348Y-91182718D01*
X148845971Y-91185342D01*
X148855187Y-91189160D01*
X148862669Y-91189896D01*
X148864580Y-91190418D01*
X148866055Y-91190230D01*
X148869819Y-91190601D01*
X149884451Y-91189160D01*
X149911487Y-91177961D01*
X149932179Y-91157269D01*
X149943378Y-91130233D01*
X149943378Y-91100969D01*
X149932179Y-91073933D01*
X149911487Y-91053241D01*
X149884451Y-91042042D01*
X149869819Y-91040601D01*
X149149749Y-91041623D01*
X149902448Y-90610276D01*
X149911487Y-90606533D01*
X149914849Y-90603170D01*
X149919019Y-90600781D01*
X149925127Y-90592892D01*
X149932179Y-90585841D01*
X149934009Y-90581422D01*
X149936936Y-90577643D01*
X149939560Y-90568021D01*
X149943378Y-90558805D01*
X149943378Y-90554024D01*
X149944636Y-90549412D01*
X149943378Y-90539515D01*
X149943378Y-90529541D01*
X149941548Y-90525125D01*
X149940946Y-90520382D01*
X149935995Y-90511717D01*
X149932179Y-90502505D01*
X149928800Y-90499126D01*
X149926427Y-90494973D01*
X149918537Y-90488863D01*
X149911487Y-90481813D01*
X149907070Y-90479983D01*
X149903290Y-90477056D01*
X149893666Y-90474431D01*
X149884451Y-90470614D01*
X149876968Y-90469877D01*
X149875058Y-90469356D01*
X149873582Y-90469543D01*
X149869819Y-90469173D01*
X148855187Y-90470614D01*
X148828151Y-90481813D01*
X148807459Y-90502505D01*
X148796260Y-90529541D01*
X148796260Y-90558805D01*
X148807459Y-90585841D01*
X148828151Y-90606533D01*
X148855187Y-90617732D01*
X148869819Y-90619173D01*
X149589888Y-90618150D01*
X148837189Y-91049497D01*
X148828151Y-91053241D01*
X148824788Y-91056603D01*
X148820619Y-91058993D01*
X148814509Y-91066882D01*
X148807459Y-91073933D01*
X148805629Y-91078349D01*
X148802702Y-91082130D01*
X148800077Y-91091753D01*
X148796260Y-91100969D01*
X148796260Y-91105749D01*
X148795002Y-91110362D01*
X148636089Y-91110362D01*
X148636089Y-89353776D01*
X148747200Y-89353776D01*
X148752939Y-89382470D01*
X148769222Y-89406785D01*
X148780598Y-89416101D01*
X150079286Y-90280160D01*
X150107993Y-90285839D01*
X150136688Y-90280100D01*
X150161003Y-90263817D01*
X150177236Y-90239468D01*
X150182914Y-90210760D01*
X150177175Y-90182066D01*
X150160892Y-90157751D01*
X150149517Y-90148435D01*
X148850829Y-89284376D01*
X148822121Y-89278697D01*
X148793427Y-89284436D01*
X148769112Y-89300719D01*
X148752879Y-89325068D01*
X148747200Y-89353776D01*
X148636089Y-89353776D01*
X148636089Y-88639411D01*
X148794819Y-88639411D01*
X148796077Y-88818498D01*
X148795408Y-88820506D01*
X148796166Y-88831178D01*
X148796260Y-88844519D01*
X148797291Y-88847008D01*
X148797482Y-88849696D01*
X148802737Y-88863428D01*
X148851429Y-88957984D01*
X148855078Y-88966793D01*
X148857460Y-88969695D01*
X148858188Y-88971109D01*
X148859686Y-88972408D01*
X148864405Y-88978158D01*
X148954728Y-89066755D01*
X148957128Y-89070755D01*
X148963988Y-89075838D01*
X148971008Y-89082724D01*
X148976161Y-89084858D01*
X148980640Y-89088177D01*
X148994486Y-89093124D01*
X149180851Y-89138364D01*
X149188520Y-89141541D01*
X149197634Y-89142438D01*
X149199506Y-89142893D01*
X149200598Y-89142730D01*
X149203152Y-89142982D01*
X149531588Y-89141621D01*
X149540131Y-89142893D01*
X149549223Y-89141548D01*
X149551117Y-89141541D01*
X149552138Y-89141118D01*
X149554675Y-89140743D01*
X149736666Y-89093922D01*
X149741592Y-89093922D01*
X149749667Y-89090577D01*
X149758997Y-89088177D01*
X149763476Y-89084857D01*
X149768628Y-89082724D01*
X149779994Y-89073396D01*
X149873932Y-88977628D01*
X149881450Y-88971109D01*
X149883460Y-88967915D01*
X149884561Y-88966793D01*
X149885319Y-88964960D01*
X149889282Y-88958666D01*
X149930957Y-88872776D01*
X149932179Y-88871555D01*
X149935848Y-88862695D01*
X149942156Y-88849697D01*
X149942347Y-88847007D01*
X149943378Y-88844519D01*
X149944819Y-88829887D01*
X149943560Y-88650798D01*
X149944230Y-88648791D01*
X149943471Y-88638118D01*
X149943378Y-88624779D01*
X149942347Y-88622290D01*
X149942156Y-88619601D01*
X149936901Y-88605870D01*
X149888212Y-88511321D01*
X149884561Y-88502505D01*
X149882176Y-88499599D01*
X149881450Y-88498189D01*
X149879953Y-88496890D01*
X149875233Y-88491140D01*
X149784909Y-88402544D01*
X149782509Y-88398543D01*
X149775645Y-88393457D01*
X149768628Y-88386574D01*
X149763476Y-88384440D01*
X149758997Y-88381121D01*
X149745151Y-88376174D01*
X149558785Y-88330933D01*
X149551117Y-88327757D01*
X149542002Y-88326859D01*
X149540131Y-88326405D01*
X149539038Y-88326567D01*
X149536485Y-88326316D01*
X149208048Y-88327676D01*
X149199506Y-88326405D01*
X149190413Y-88327749D01*
X149188520Y-88327757D01*
X149187498Y-88328179D01*
X149184962Y-88328555D01*
X149002971Y-88375376D01*
X148998045Y-88375376D01*
X148989968Y-88378721D01*
X148980640Y-88381121D01*
X148976161Y-88384439D01*
X148971008Y-88386574D01*
X148959643Y-88395902D01*
X148865711Y-88491664D01*
X148858188Y-88498189D01*
X148856175Y-88501385D01*
X148855078Y-88502505D01*
X148854320Y-88504332D01*
X148850356Y-88510632D01*
X148808681Y-88596520D01*
X148807459Y-88597743D01*
X148803786Y-88606608D01*
X148797482Y-88619602D01*
X148797291Y-88622289D01*
X148796260Y-88624779D01*
X148794819Y-88639411D01*
X148636089Y-88639411D01*
X148636089Y-87496554D01*
X148794819Y-87496554D01*
X148796260Y-87987376D01*
X148807459Y-88014412D01*
X148828151Y-88035104D01*
X148855187Y-88046303D01*
X148869819Y-88047744D01*
X149884451Y-88046303D01*
X149911487Y-88035104D01*
X149932179Y-88014412D01*
X149943378Y-87987376D01*
X149943378Y-87958112D01*
X149932179Y-87931076D01*
X149911487Y-87910384D01*
X149884451Y-87899185D01*
X149869819Y-87897744D01*
X149420701Y-87898381D01*
X149419568Y-87624779D01*
X149408369Y-87597743D01*
X149387677Y-87577051D01*
X149360641Y-87565852D01*
X149331377Y-87565852D01*
X149304341Y-87577051D01*
X149283649Y-87597743D01*
X149272450Y-87624779D01*
X149271009Y-87639411D01*
X149272082Y-87898592D01*
X148944602Y-87899058D01*
X148943378Y-87481922D01*
X148932179Y-87454886D01*
X148911487Y-87434194D01*
X148884451Y-87422995D01*
X148855187Y-87422995D01*
X148828151Y-87434194D01*
X148807459Y-87454886D01*
X148796260Y-87481922D01*
X148794819Y-87496554D01*
X148636089Y-87496554D01*
X148636089Y-86639411D01*
X148794819Y-86639411D01*
X148796260Y-87130233D01*
X148807459Y-87157269D01*
X148828151Y-87177961D01*
X148855187Y-87189160D01*
X148869819Y-87190601D01*
X149884451Y-87189160D01*
X149911487Y-87177961D01*
X149932179Y-87157269D01*
X149943378Y-87130233D01*
X149943378Y-87100969D01*
X149932179Y-87073933D01*
X149911487Y-87053241D01*
X149884451Y-87042042D01*
X149869819Y-87040601D01*
X149420701Y-87041238D01*
X149419568Y-86767636D01*
X149408369Y-86740600D01*
X149387677Y-86719908D01*
X149360641Y-86708709D01*
X149331377Y-86708709D01*
X149304341Y-86719908D01*
X149283649Y-86740600D01*
X149272450Y-86767636D01*
X149271009Y-86782268D01*
X149272082Y-87041449D01*
X148944602Y-87041915D01*
X148943378Y-86624779D01*
X148932179Y-86597743D01*
X148911487Y-86577051D01*
X148884451Y-86565852D01*
X148855187Y-86565852D01*
X148828151Y-86577051D01*
X148807459Y-86597743D01*
X148796260Y-86624779D01*
X148794819Y-86639411D01*
X148636089Y-86639411D01*
X148636089Y-86454741D01*
X150294025Y-86454741D01*
X150294025Y-92396950D01*
G37*
X150761905Y-105884819D02*
X150761905Y-104884819D01*
X150761905Y-104884819D02*
X151000000Y-104884819D01*
X151000000Y-104884819D02*
X151142857Y-104932438D01*
X151142857Y-104932438D02*
X151238095Y-105027676D01*
X151238095Y-105027676D02*
X151285714Y-105122914D01*
X151285714Y-105122914D02*
X151333333Y-105313390D01*
X151333333Y-105313390D02*
X151333333Y-105456247D01*
X151333333Y-105456247D02*
X151285714Y-105646723D01*
X151285714Y-105646723D02*
X151238095Y-105741961D01*
X151238095Y-105741961D02*
X151142857Y-105837200D01*
X151142857Y-105837200D02*
X151000000Y-105884819D01*
X151000000Y-105884819D02*
X150761905Y-105884819D01*
X152190476Y-105218152D02*
X152190476Y-105884819D01*
X151952381Y-104837200D02*
X151714286Y-105551485D01*
X151714286Y-105551485D02*
X152333333Y-105551485D01*
D11*
%TO.C,D13*%
X65940000Y-74265000D02*
X65940000Y-75735000D01*
X65940000Y-75735000D02*
X68400000Y-75735000D01*
X68400000Y-74265000D02*
X65940000Y-74265000D01*
%TO.C,D4*%
X153160000Y-104735000D02*
X153160000Y-103265000D01*
X153160000Y-103265000D02*
X150700000Y-103265000D01*
X150700000Y-104735000D02*
X153160000Y-104735000D01*
%TO.C,D3*%
X65340000Y-103265000D02*
X65340000Y-104735000D01*
X65340000Y-104735000D02*
X67800000Y-104735000D01*
X67800000Y-103265000D02*
X65340000Y-103265000D01*
%TO.C,D2*%
X152860000Y-75735000D02*
X152860000Y-74265000D01*
X152860000Y-74265000D02*
X150400000Y-74265000D01*
X150400000Y-75735000D02*
X152860000Y-75735000D01*
D12*
%TO.C,J2*%
X65210000Y-92294000D02*
X65210000Y-84293000D01*
X70290000Y-84293000D02*
X65210000Y-84293000D01*
X70290000Y-92294000D02*
X70290000Y-84293000D01*
X70290000Y-92167000D02*
G75*
G02*
X65210000Y-92167000I-2540000J0D01*
G01*
%TO.C,SW2*%
X150800000Y-87400000D02*
X150800000Y-91600000D01*
X150869000Y-87400000D02*
X150800000Y-87400000D01*
X150869000Y-91600000D02*
X150800000Y-91600000D01*
X151865000Y-88738000D02*
X151865000Y-90262000D01*
X153019000Y-87400000D02*
X151981000Y-87400000D01*
X153019000Y-91600000D02*
X151981000Y-91600000D01*
X153135000Y-88738000D02*
X153135000Y-90262000D01*
X154200000Y-87400000D02*
X154131000Y-87400000D01*
X154200000Y-87400000D02*
X154200000Y-91600000D01*
X154200000Y-91600000D02*
X154131000Y-91600000D01*
X151864000Y-88737000D02*
G75*
G02*
X153136000Y-88737000I636000J0D01*
G01*
X153134000Y-90260932D02*
G75*
G02*
X151866001Y-90261000I-634000J3932D01*
G01*
%TO.C,BT1*%
X71089000Y-69561000D02*
X148051000Y-69561000D01*
X71089000Y-76044000D02*
X71089000Y-69561000D01*
X71089000Y-95144000D02*
X71089000Y-83856000D01*
X71089000Y-109439000D02*
X71089000Y-102956000D01*
D13*
X81570000Y-80000000D02*
X87570000Y-80000000D01*
X81570000Y-99000000D02*
X87570000Y-99000000D01*
X84570000Y-77000000D02*
X84570000Y-83000000D01*
X131570000Y-80000000D02*
X137570000Y-80000000D01*
X131570000Y-99000000D02*
X137570000Y-99000000D01*
X134570000Y-96000000D02*
X134570000Y-102000000D01*
D12*
X148051000Y-69561000D02*
X148051000Y-76044000D01*
X148051000Y-83856000D02*
X148051000Y-95144000D01*
X148051000Y-102956000D02*
X148051000Y-109439000D01*
X148051000Y-109439000D02*
X71089000Y-109439000D01*
%TD*%
M02*
