M48
; DRILL file {KiCad 8.0.2} date 2024-05-19T19:19:31+0800
; FORMAT={-:-/ absolute / inch / decimal}
; #@! TF.CreationDate,2024-05-19T19:19:31+08:00
; #@! TF.GenerationSoftware,Kicad,Pcbnew,8.0.2
; #@! TF.FileFunction,Plated,1,2,PTH
FMAT,2
INCH
; #@! TA.AperFunction,Plated,PTH,ViaDrill
T1C0.0098
; #@! TA.AperFunction,Plated,PTH,ViaDrill
T2C0.0118
; #@! TA.AperFunction,Plated,PTH,ViaDrill
T3C0.0197
; #@! TA.AperFunction,Plated,PTH,ComponentDrill
T4C0.0197
; #@! TA.AperFunction,Plated,PTH,ViaDrill
T5C0.0236
; #@! TA.AperFunction,Plated,PTH,ViaDrill
T6C0.0315
; #@! TA.AperFunction,Plated,PTH,ComponentDrill
T7C0.0866
%
G90
G05
T1
X2.9698Y-3.4594
X3.188Y-3.5758
X3.2657Y-3.315
X3.2992Y-3.3819
X3.3228Y-3.5079
X3.3307Y-3.5315
X3.3326Y-2.9055
X3.3425Y-3.5
X3.3465Y-3.5512
X3.3504Y-3.5197
X3.3661Y-3.5394
X3.658Y-4.1457
X3.9029Y-3.7264
X3.9124Y-3.7005
X4.1614Y-3.311
X4.748Y-3.3189
X5.5669Y-3.5748
X5.7372Y-3.1471
T2
X2.7026Y-3.8917
X2.7362Y-4.0945
X2.7756Y-2.9528
X2.878Y-3.1614
X2.878Y-3.185
X2.878Y-3.2087
X2.878Y-3.2323
X2.878Y-3.2559
X2.9016Y-3.1614
X2.9016Y-3.185
X2.9016Y-3.2087
X2.9016Y-3.2323
X2.9016Y-3.2559
X2.9252Y-2.8268
X2.9252Y-3.1614
X2.9252Y-3.185
X2.9252Y-3.2087
X2.9252Y-3.2323
X2.9252Y-3.2559
X2.9488Y-3.1614
X2.9488Y-3.185
X2.9488Y-3.2087
X2.9488Y-3.2323
X2.9488Y-3.2559
X2.9724Y-3.1614
X2.9724Y-3.185
X2.9724Y-3.2087
X2.9724Y-3.2323
X2.9724Y-3.2559
X2.9961Y-3.1614
X2.9961Y-3.185
X2.9961Y-3.2087
X2.9961Y-3.2323
X2.9961Y-3.2559
X3.0197Y-3.1614
X3.0197Y-3.185
X3.0197Y-3.2087
X3.0197Y-3.2323
X3.0197Y-3.2559
X3.122Y-4.0669
X3.1378Y-3.3425
X3.3465Y-2.8346
X3.6969Y-3.4094
X3.9847Y-3.9395
X4.0945Y-4.0661
X4.374Y-3.3189
X5.1693Y-3.6811
X5.1732Y-3.7047
X5.1919Y-3.6811
X5.2023Y-3.7102
X5.2183Y-3.6941
X5.7087Y-4.0866
X6.0502Y-3.185
T3
X2.5697Y-2.9764
X2.5807Y-3.8681
X3.1299Y-4.1929
X3.1299Y-4.2717
X3.3268Y-2.7559
X3.3701Y-3.2087
X3.4724Y-3.4803
X3.8268Y-4.1929
X3.8386Y-4.2874
X3.8976Y-3.9961
X3.9626Y-4.0091
X3.9734Y-3.8471
X4.0157Y-2.7756
X4.0354Y-2.8346
X4.1732Y-4.0118
X4.185Y-3.8504
X4.374Y-2.9449
X4.7638Y-4.1575
X4.7785Y-4.2362
X4.9016Y-2.7559
X4.9016Y-2.8346
X5.0787Y-3.6417
X5.1378Y-3.5236
X5.1772Y-3.8858
X5.4134Y-3.6811
X5.4134Y-3.7402
X5.4265Y-3.6351
X5.4528Y-3.563
X5.5118Y-3.7992
X5.519Y-4.2162
X5.5315Y-4.2913
X5.6693Y-2.7953
X5.6693Y-2.874
X5.7756Y-3.0719
X5.8268Y-4.1339
X5.9137Y-4.142
T5
X2.9409Y-3.8228
X2.9409Y-3.8701
X2.9764Y-3.9055
X2.9803Y-3.7953
X2.9921Y-3.8465
X3.0236Y-3.8976
X3.0276Y-3.8071
X3.0472Y-3.8543
X3.2897Y-3.2154
X3.3031Y-4.1378
X3.7835Y-3.1299
X3.7835Y-3.3514
X5.6535Y-3.3228
X5.6575Y-3.7953
X5.8369Y-3.6457
T6
X3.1614Y-3.0276
X3.3307Y-3.0787
X3.5Y-2.9449
X3.6654Y-2.9646
X3.8722Y-3.3922
X4.185Y-3.626
X5.4833Y-3.4685
X5.5502Y-3.7544
T7
X2.6388Y-2.8041
X2.6388Y-4.2372
X5.9734Y-2.8041
X5.9734Y-4.2372
T4
G00X5.8957Y-3.3528
M15
G01X5.8681Y-3.3528
M16
G05
G00X5.8957Y-3.6929
M15
G01X5.8681Y-3.6929
M16
G05
G00X6.0453Y-3.3528
M15
G01X6.0177Y-3.3528
M16
G05
G00X6.0453Y-3.6929
M15
G01X6.0177Y-3.6929
M16
G05
M30
