%TF.GenerationSoftware,KiCad,Pcbnew,8.0.1*%
%TF.CreationDate,2024-04-07T19:09:59+08:00*%
%TF.ProjectId,bat_rf,6261745f-7266-42e6-9b69-6361645f7063,rev?*%
%TF.SameCoordinates,Original*%
%TF.FileFunction,Paste,Bot*%
%TF.FilePolarity,Positive*%
%FSLAX46Y46*%
G04 Gerber Fmt 4.6, Leading zero omitted, Abs format (unit mm)*
G04 Created by KiCad (PCBNEW 8.0.1) date 2024-04-07 19:09:59*
%MOMM*%
%LPD*%
G01*
G04 APERTURE LIST*
G04 Aperture macros list*
%AMRoundRect*
0 Rectangle with rounded corners*
0 $1 Rounding radius*
0 $2 $3 $4 $5 $6 $7 $8 $9 X,Y pos of 4 corners*
0 Add a 4 corners polygon primitive as box body*
4,1,4,$2,$3,$4,$5,$6,$7,$8,$9,$2,$3,0*
0 Add four circle primitives for the rounded corners*
1,1,$1+$1,$2,$3*
1,1,$1+$1,$4,$5*
1,1,$1+$1,$6,$7*
1,1,$1+$1,$8,$9*
0 Add four rect primitives between the rounded corners*
20,1,$1+$1,$2,$3,$4,$5,0*
20,1,$1+$1,$4,$5,$6,$7,0*
20,1,$1+$1,$6,$7,$8,$9,0*
20,1,$1+$1,$8,$9,$2,$3,0*%
%AMFreePoly0*
4,1,9,5.362500,-0.866500,1.237500,-0.866500,1.237500,-0.450000,-1.237500,-0.450000,-1.237500,0.450000,1.237500,0.450000,1.237500,0.866500,5.362500,0.866500,5.362500,-0.866500,5.362500,-0.866500,$1*%
G04 Aperture macros list end*
%ADD10C,0.120000*%
%ADD11R,0.900000X1.000000*%
%ADD12RoundRect,0.160000X0.222500X0.160000X-0.222500X0.160000X-0.222500X-0.160000X0.222500X-0.160000X0*%
%ADD13R,0.550000X1.200000*%
%ADD14RoundRect,0.237500X-0.300000X-0.237500X0.300000X-0.237500X0.300000X0.237500X-0.300000X0.237500X0*%
%ADD15R,0.700000X0.700000*%
%ADD16R,2.000000X1.000000*%
%ADD17R,1.200000X0.550000*%
%ADD18R,2.500000X1.200000*%
%ADD19R,1.700000X0.500000*%
%ADD20RoundRect,0.225000X-0.925000X-0.225000X0.925000X-0.225000X0.925000X0.225000X-0.925000X0.225000X0*%
%ADD21FreePoly0,0.000000*%
%ADD22RoundRect,0.237500X0.300000X0.237500X-0.300000X0.237500X-0.300000X-0.237500X0.300000X-0.237500X0*%
%ADD23RoundRect,0.250000X-0.337500X-0.475000X0.337500X-0.475000X0.337500X0.475000X-0.337500X0.475000X0*%
%ADD24RoundRect,0.237500X0.250000X0.237500X-0.250000X0.237500X-0.250000X-0.237500X0.250000X-0.237500X0*%
%ADD25RoundRect,0.237500X0.237500X-0.250000X0.237500X0.250000X-0.237500X0.250000X-0.237500X-0.250000X0*%
%ADD26RoundRect,0.237500X-0.237500X0.250000X-0.237500X-0.250000X0.237500X-0.250000X0.237500X0.250000X0*%
%ADD27R,2.200000X3.100000*%
%ADD28O,1.865000X0.630000*%
%ADD29RoundRect,0.237500X-0.237500X0.300000X-0.237500X-0.300000X0.237500X-0.300000X0.237500X0.300000X0*%
%ADD30RoundRect,0.237500X-0.250000X-0.237500X0.250000X-0.237500X0.250000X0.237500X-0.250000X0.237500X0*%
%ADD31R,4.100000X4.600000*%
%ADD32R,1.080000X0.580000*%
%ADD33RoundRect,0.150000X0.587500X0.150000X-0.587500X0.150000X-0.587500X-0.150000X0.587500X-0.150000X0*%
%ADD34RoundRect,0.237500X0.237500X-0.300000X0.237500X0.300000X-0.237500X0.300000X-0.237500X-0.300000X0*%
%ADD35R,2.195000X2.195000*%
%ADD36RoundRect,0.250000X0.475000X-0.337500X0.475000X0.337500X-0.475000X0.337500X-0.475000X-0.337500X0*%
%ADD37RoundRect,0.250000X0.337500X0.475000X-0.337500X0.475000X-0.337500X-0.475000X0.337500X-0.475000X0*%
%ADD38RoundRect,0.150000X0.150000X-0.587500X0.150000X0.587500X-0.150000X0.587500X-0.150000X-0.587500X0*%
%ADD39RoundRect,0.150000X-0.512500X-0.150000X0.512500X-0.150000X0.512500X0.150000X-0.512500X0.150000X0*%
%ADD40RoundRect,0.225000X0.225000X0.375000X-0.225000X0.375000X-0.225000X-0.375000X0.225000X-0.375000X0*%
%ADD41RoundRect,0.250000X-0.475000X0.337500X-0.475000X-0.337500X0.475000X-0.337500X0.475000X0.337500X0*%
%ADD42R,1.550000X1.000000*%
%ADD43RoundRect,0.150000X-0.150000X0.587500X-0.150000X-0.587500X0.150000X-0.587500X0.150000X0.587500X0*%
%ADD44R,2.200000X3.900000*%
G04 APERTURE END LIST*
D10*
%TO.C,Q4*%
X79020000Y-98664000D02*
X74920000Y-98664000D01*
X74920000Y-98564000D01*
X74290000Y-98564000D01*
X74290000Y-97986000D01*
X74291000Y-97985000D01*
X74920000Y-97985000D01*
X74920000Y-97295000D01*
X74290000Y-97295000D01*
X74290000Y-96715000D01*
X74921000Y-96715000D01*
X74921000Y-96024000D01*
X74291000Y-96024000D01*
X74291000Y-95444000D01*
X74921000Y-95444000D01*
X74921000Y-94754000D01*
X74291000Y-94754000D01*
X74291000Y-94175000D01*
X74920000Y-94174000D01*
X74920000Y-94065000D01*
X79020000Y-94065000D01*
X79020000Y-98664000D01*
G36*
X79020000Y-98664000D02*
G01*
X74920000Y-98664000D01*
X74920000Y-98564000D01*
X74290000Y-98564000D01*
X74290000Y-97986000D01*
X74291000Y-97985000D01*
X74920000Y-97985000D01*
X74920000Y-97295000D01*
X74290000Y-97295000D01*
X74290000Y-96715000D01*
X74921000Y-96715000D01*
X74921000Y-96024000D01*
X74291000Y-96024000D01*
X74291000Y-95444000D01*
X74921000Y-95444000D01*
X74921000Y-94754000D01*
X74291000Y-94754000D01*
X74291000Y-94175000D01*
X74920000Y-94174000D01*
X74920000Y-94065000D01*
X79020000Y-94065000D01*
X79020000Y-98664000D01*
G37*
X81045000Y-98565000D02*
X79955000Y-98565000D01*
X79955000Y-97975000D01*
X81045000Y-97975000D01*
X81045000Y-98565000D01*
G36*
X81045000Y-98565000D02*
G01*
X79955000Y-98565000D01*
X79955000Y-97975000D01*
X81045000Y-97975000D01*
X81045000Y-98565000D01*
G37*
X81045000Y-97295000D02*
X79955000Y-97295000D01*
X79955000Y-96705000D01*
X81045000Y-96705000D01*
X81045000Y-97295000D01*
G36*
X81045000Y-97295000D02*
G01*
X79955000Y-97295000D01*
X79955000Y-96705000D01*
X81045000Y-96705000D01*
X81045000Y-97295000D01*
G37*
X81045000Y-96025000D02*
X79955000Y-96025000D01*
X79955000Y-95435000D01*
X81045000Y-95435000D01*
X81045000Y-96025000D01*
G36*
X81045000Y-96025000D02*
G01*
X79955000Y-96025000D01*
X79955000Y-95435000D01*
X81045000Y-95435000D01*
X81045000Y-96025000D01*
G37*
X81045000Y-94755000D02*
X79955000Y-94755000D01*
X79955000Y-94165000D01*
X81045000Y-94165000D01*
X81045000Y-94755000D01*
G36*
X81045000Y-94755000D02*
G01*
X79955000Y-94755000D01*
X79955000Y-94165000D01*
X81045000Y-94165000D01*
X81045000Y-94755000D01*
G37*
%TD*%
D11*
%TO.C,SW2*%
X110050000Y-81300000D03*
X114150000Y-81300000D03*
X110050000Y-79700000D03*
X114150000Y-79700000D03*
%TD*%
D12*
%TO.C,D6*%
X90127500Y-77500000D03*
X91272500Y-77500000D03*
%TD*%
D13*
%TO.C,LED11*%
X123893250Y-108665000D03*
X123053250Y-108665000D03*
X122213250Y-108665000D03*
X121373250Y-108665000D03*
%TD*%
%TO.C,LED7*%
X100870000Y-108800000D03*
X100030000Y-108800000D03*
X99190000Y-108800000D03*
X98350000Y-108800000D03*
%TD*%
D14*
%TO.C,C36*%
X100067500Y-106445000D03*
X98342500Y-106445000D03*
%TD*%
%TO.C,C11*%
X121253250Y-106665000D03*
X122978250Y-106665000D03*
%TD*%
D15*
%TO.C,U1*%
X113295500Y-95700000D03*
X113295500Y-96800000D03*
X113295500Y-97900000D03*
X112195500Y-95700000D03*
X112195500Y-96800000D03*
X112195500Y-97900000D03*
X111095500Y-95700000D03*
X111095500Y-96800000D03*
X111095500Y-97900000D03*
D16*
X119985500Y-103000000D03*
X119985500Y-101500000D03*
X119985500Y-100000000D03*
X119985500Y-98500000D03*
X119985500Y-97000000D03*
X119985500Y-95500000D03*
X119985500Y-94000000D03*
X119985500Y-92500000D03*
X119985500Y-91000000D03*
X102485500Y-91000000D03*
X102485500Y-92500000D03*
X102485500Y-94000000D03*
X102485500Y-95500000D03*
X102485500Y-97000000D03*
X102485500Y-98500000D03*
X102485500Y-100000000D03*
X102485500Y-101500000D03*
X102485500Y-103000000D03*
%TD*%
D17*
%TO.C,LED8*%
X152925000Y-102005000D03*
X152925000Y-101165000D03*
X152925000Y-100325000D03*
X152925000Y-99485000D03*
%TD*%
D18*
%TO.C,J4*%
X128700000Y-80100000D03*
X128700000Y-75900000D03*
D19*
X125300000Y-79000000D03*
X125300000Y-78000000D03*
X125300000Y-77000000D03*
%TD*%
D20*
%TO.C,U4*%
X75050000Y-81000000D03*
D21*
X75137500Y-82500000D03*
D20*
X75050000Y-84000000D03*
%TD*%
D22*
%TO.C,C31*%
X101307500Y-72125000D03*
X99582500Y-72125000D03*
%TD*%
D13*
%TO.C,LED12*%
X141485000Y-108925000D03*
X142325000Y-108925000D03*
X143165000Y-108925000D03*
X144005000Y-108925000D03*
%TD*%
D23*
%TO.C,FB1*%
X82175000Y-78500000D03*
X80100000Y-78500000D03*
%TD*%
D13*
%TO.C,LED10*%
X142945000Y-70125000D03*
X142105000Y-70125000D03*
X141265000Y-70125000D03*
X140425000Y-70125000D03*
%TD*%
D24*
%TO.C,R6*%
X90900000Y-104975000D03*
X92725000Y-104975000D03*
%TD*%
D22*
%TO.C,C30*%
X123327500Y-72025000D03*
X121602500Y-72025000D03*
%TD*%
D13*
%TO.C,LED1*%
X123365000Y-70025000D03*
X122525000Y-70025000D03*
X121685000Y-70025000D03*
X120845000Y-70025000D03*
%TD*%
D25*
%TO.C,R4*%
X100000000Y-90587500D03*
X100000000Y-92412500D03*
%TD*%
D26*
%TO.C,R3*%
X145725000Y-79937500D03*
X145725000Y-78112500D03*
%TD*%
D25*
%TO.C,R16*%
X89700000Y-79687500D03*
X89700000Y-81512500D03*
%TD*%
D26*
%TO.C,R10*%
X127600000Y-88900000D03*
X127600000Y-87075000D03*
%TD*%
D13*
%TO.C,LED6*%
X80848250Y-108665000D03*
X81688250Y-108665000D03*
X82528250Y-108665000D03*
X83368250Y-108665000D03*
%TD*%
D22*
%TO.C,C9*%
X84802500Y-84115000D03*
X86527500Y-84115000D03*
%TD*%
D13*
%TO.C,LED2*%
X101265000Y-70125000D03*
X100425000Y-70125000D03*
X99585000Y-70125000D03*
X98745000Y-70125000D03*
%TD*%
D25*
%TO.C,R5*%
X74000000Y-104500000D03*
X74000000Y-106325000D03*
%TD*%
D27*
%TO.C,U2*%
X137500000Y-92665000D03*
D28*
X140182000Y-94570000D03*
X140182000Y-93300000D03*
X140182000Y-92030000D03*
X140182000Y-90760000D03*
X134818000Y-90760000D03*
X134818000Y-92030000D03*
X134818000Y-93300000D03*
X134818000Y-94570000D03*
%TD*%
D29*
%TO.C,C33*%
X67925000Y-78022500D03*
X67925000Y-79747500D03*
%TD*%
D30*
%TO.C,R18*%
X132412500Y-90525000D03*
X130587500Y-90525000D03*
%TD*%
%TO.C,R7*%
X88637500Y-105975000D03*
X86812500Y-105975000D03*
%TD*%
D26*
%TO.C,R11*%
X95800000Y-83912500D03*
X95800000Y-82087500D03*
%TD*%
D25*
%TO.C,R14*%
X125850000Y-90612500D03*
X125850000Y-92437500D03*
%TD*%
D29*
%TO.C,C34*%
X67925000Y-98882500D03*
X67925000Y-100607500D03*
%TD*%
D31*
%TO.C,Q4*%
X76970000Y-96365000D03*
D32*
X74830000Y-94465000D03*
X74830000Y-95735000D03*
X74830000Y-97005000D03*
X74830000Y-98274000D03*
X80500000Y-98270000D03*
X80500000Y-97000000D03*
X80500000Y-95730000D03*
X80500000Y-94460000D03*
%TD*%
D26*
%TO.C,R1*%
X144225000Y-92350000D03*
X144225000Y-90525000D03*
%TD*%
D17*
%TO.C,LED4*%
X65925000Y-78025000D03*
X65925000Y-78865000D03*
X65925000Y-79705000D03*
X65925000Y-80545000D03*
%TD*%
D33*
%TO.C,Q1*%
X86287500Y-102975000D03*
X88162500Y-103925000D03*
X88162500Y-102025000D03*
%TD*%
D13*
%TO.C,LED3*%
X83325000Y-70125000D03*
X82485000Y-70125000D03*
X81645000Y-70125000D03*
X80805000Y-70125000D03*
%TD*%
D14*
%TO.C,C35*%
X80900000Y-106425000D03*
X82625000Y-106425000D03*
%TD*%
D34*
%TO.C,C6*%
X150925000Y-80987500D03*
X150925000Y-79262500D03*
%TD*%
D35*
%TO.C,BZ1*%
X86300000Y-92100000D03*
X86300000Y-99500000D03*
X93700000Y-99500000D03*
%TD*%
D29*
%TO.C,C27*%
X142500000Y-95362500D03*
X142500000Y-93637500D03*
%TD*%
D26*
%TO.C,R13*%
X72000000Y-73412500D03*
X72000000Y-71587500D03*
%TD*%
D36*
%TO.C,C12*%
X98200000Y-100862500D03*
X98200000Y-102937500D03*
%TD*%
%TO.C,C28*%
X145925000Y-85962500D03*
X145925000Y-88037500D03*
%TD*%
D22*
%TO.C,C32*%
X83507500Y-71925000D03*
X81782500Y-71925000D03*
%TD*%
D34*
%TO.C,C16*%
X100000000Y-97437500D03*
X100000000Y-99162500D03*
%TD*%
%TO.C,C13*%
X100000000Y-101137500D03*
X100000000Y-102862500D03*
%TD*%
D22*
%TO.C,C7*%
X84602500Y-78715000D03*
X86327500Y-78715000D03*
%TD*%
D14*
%TO.C,C3*%
X76700000Y-79100000D03*
X74975000Y-79100000D03*
%TD*%
D30*
%TO.C,R15*%
X144912500Y-102000000D03*
X143087500Y-102000000D03*
%TD*%
D37*
%TO.C,C8*%
X84262500Y-86000000D03*
X86337500Y-86000000D03*
%TD*%
%TO.C,C40*%
X130262500Y-92625000D03*
X132337500Y-92625000D03*
%TD*%
D23*
%TO.C,C29*%
X146262500Y-94525000D03*
X144187500Y-94525000D03*
%TD*%
D38*
%TO.C,D1*%
X94078125Y-83515625D03*
X92178125Y-83515625D03*
X93128125Y-81640625D03*
%TD*%
D39*
%TO.C,U3*%
X86775000Y-82450000D03*
X86775000Y-80550000D03*
X84500000Y-80550000D03*
X84500000Y-81500000D03*
X84500000Y-82450000D03*
%TD*%
D17*
%TO.C,LED9*%
X152825000Y-80925000D03*
X152825000Y-80085000D03*
X152825000Y-79245000D03*
X152825000Y-78405000D03*
%TD*%
D14*
%TO.C,C17*%
X141422500Y-106925000D03*
X143147500Y-106925000D03*
%TD*%
D23*
%TO.C,C10*%
X138537500Y-97000000D03*
X136462500Y-97000000D03*
%TD*%
D38*
%TO.C,Q2*%
X89178125Y-85978125D03*
X88228125Y-87853125D03*
X90128125Y-87853125D03*
%TD*%
D25*
%TO.C,R12*%
X98500000Y-97387500D03*
X98500000Y-99212500D03*
%TD*%
D37*
%TO.C,C2*%
X75462500Y-88000000D03*
X77537500Y-88000000D03*
%TD*%
D23*
%TO.C,C4*%
X77075000Y-77000000D03*
X75000000Y-77000000D03*
%TD*%
D22*
%TO.C,C1*%
X75500000Y-86000000D03*
X77225000Y-86000000D03*
%TD*%
D36*
%TO.C,C15*%
X82265000Y-80377500D03*
X82265000Y-82452500D03*
%TD*%
D22*
%TO.C,C14*%
X142987500Y-72325000D03*
X141262500Y-72325000D03*
%TD*%
D40*
%TO.C,D5*%
X91075000Y-102475000D03*
X94375000Y-102475000D03*
%TD*%
D25*
%TO.C,R2*%
X146125000Y-90512500D03*
X146125000Y-92337500D03*
%TD*%
D41*
%TO.C,C26*%
X133700000Y-98437500D03*
X133700000Y-96362500D03*
%TD*%
D34*
%TO.C,C5*%
X150985000Y-101953250D03*
X150985000Y-100228250D03*
%TD*%
D26*
%TO.C,R9*%
X127600000Y-92400000D03*
X127600000Y-90575000D03*
%TD*%
D17*
%TO.C,LED5*%
X65925000Y-99125000D03*
X65925000Y-99965000D03*
X65925000Y-100805000D03*
X65925000Y-101645000D03*
%TD*%
D42*
%TO.C,SW3*%
X109425000Y-69675000D03*
X109425000Y-71375000D03*
X114625000Y-69675000D03*
X114625000Y-71375000D03*
%TD*%
D34*
%TO.C,C37*%
X125900000Y-87125000D03*
X125900000Y-88850000D03*
%TD*%
D43*
%TO.C,Q3*%
X94700000Y-87937500D03*
X95650000Y-86062500D03*
X93750000Y-86062500D03*
%TD*%
D44*
%TO.C,L2*%
X135600000Y-85000000D03*
X139400000Y-85000000D03*
%TD*%
D26*
%TO.C,R8*%
X91900000Y-87912500D03*
X91900000Y-86087500D03*
%TD*%
M02*
