%TF.GenerationSoftware,KiCad,Pcbnew,8.0.1*%
%TF.CreationDate,2024-05-01T11:44:23+08:00*%
%TF.ProjectId,bat_rf,6261745f-7266-42e6-9b69-6361645f7063,rev?*%
%TF.SameCoordinates,Original*%
%TF.FileFunction,Drillmap*%
%TF.FilePolarity,Positive*%
%FSLAX45Y45*%
G04 Gerber Fmt 4.5, Leading zero omitted, Abs format (unit mm)*
G04 Created by KiCad (PCBNEW 8.0.1) date 2024-05-01 11:44:23*
%MOMM*%
%LPD*%
G01*
G04 APERTURE LIST*
%ADD10C,0.100000*%
%ADD11C,0.200000*%
%ADD12C,0.220000*%
%ADD13C,0.340000*%
G04 APERTURE END LIST*
D10*
X12030088Y-11017662D02*
X15142000Y-11017500D01*
X12029022Y-10408343D02*
X12030088Y-11017662D01*
X10207593Y-10408550D02*
X12029022Y-10408343D01*
X10206036Y-11017101D02*
X10207593Y-10408550D01*
X6652000Y-11017500D02*
X10206036Y-11017101D01*
X15230084Y-6867500D02*
G75*
G02*
X15430090Y-7067500I-4J-200010D01*
G01*
X15430084Y-7067500D02*
X15430084Y-10817500D01*
X15230084Y-11017500D02*
X15142000Y-11017500D01*
X6452000Y-10817500D02*
X6452000Y-7067500D01*
X6452000Y-7067500D02*
G75*
G02*
X6652000Y-6867500I200000J0D01*
G01*
X6652000Y-6867500D02*
X15142000Y-6867500D01*
X15142000Y-6867500D02*
X15230084Y-6867500D01*
X6652000Y-11017500D02*
G75*
G02*
X6452000Y-10817500I0J200000D01*
G01*
X15430084Y-10817500D02*
G75*
G02*
X15230084Y-11017494I-199994J0D01*
G01*
D11*
D10*
X8037500Y-9814500D02*
X8062500Y-9839500D01*
X8062500Y-9814500D02*
X8037500Y-9839500D01*
X8097500Y-8107500D02*
X8122500Y-8132500D01*
X8122500Y-8107500D02*
X8097500Y-8132500D01*
X8157500Y-8397500D02*
X8182500Y-8422500D01*
X8182500Y-8397500D02*
X8157500Y-8422500D01*
X8217500Y-8727500D02*
X8242500Y-8752500D01*
X8242500Y-8727500D02*
X8217500Y-8752500D01*
X8287500Y-7937500D02*
X8312500Y-7962500D01*
X8312500Y-7937500D02*
X8287500Y-7962500D01*
X8457500Y-8827500D02*
X8482500Y-8852500D01*
X8482500Y-8827500D02*
X8457500Y-8852500D01*
X8737500Y-8497500D02*
X8762500Y-8522500D01*
X8762500Y-8497500D02*
X8737500Y-8522500D01*
X8737500Y-8807500D02*
X8762500Y-8832500D01*
X8762500Y-8807500D02*
X8737500Y-8832500D01*
X9043934Y-8357684D02*
X9068934Y-8382684D01*
X9068934Y-8357684D02*
X9043934Y-8382684D01*
X9288750Y-10547500D02*
X9313750Y-10572500D01*
X9313750Y-10547500D02*
X9288750Y-10572500D01*
X9427500Y-8157500D02*
X9452500Y-8182500D01*
X9452500Y-8157500D02*
X9427500Y-8182500D01*
X9682800Y-7637500D02*
X9707800Y-7662500D01*
X9707800Y-7637500D02*
X9682800Y-7662500D01*
X9767500Y-9187500D02*
X9792500Y-9212500D01*
X9792500Y-9187500D02*
X9767500Y-9212500D01*
X10236050Y-9237500D02*
X10261050Y-9262500D01*
X10261050Y-9237500D02*
X10236050Y-9262500D01*
X10287500Y-8487500D02*
X10312500Y-8512500D01*
X10312500Y-8487500D02*
X10287500Y-8512500D01*
X11317050Y-9777500D02*
X11342050Y-9802500D01*
X11342050Y-9777500D02*
X11317050Y-9802500D01*
X12157500Y-9907500D02*
X12182500Y-9932500D01*
X12182500Y-9907500D02*
X12157500Y-9932500D01*
X14127500Y-9067500D02*
X14152500Y-9092500D01*
X14152500Y-9067500D02*
X14127500Y-9092500D01*
X14560000Y-7981250D02*
X14585000Y-8006250D01*
X14585000Y-7981250D02*
X14560000Y-8006250D01*
X14778150Y-8525815D02*
X14803150Y-8550815D01*
X14803150Y-8525815D02*
X14778150Y-8550815D01*
X14787500Y-9457500D02*
X14812500Y-9482500D01*
X14812500Y-9457500D02*
X14787500Y-9482500D01*
X6862000Y-9902500D02*
G75*
G02*
X6832000Y-9902500I-15000J0D01*
G01*
X6832000Y-9902500D02*
G75*
G02*
X6862000Y-9902500I15000J0D01*
G01*
X6965000Y-10400000D02*
G75*
G02*
X6935000Y-10400000I-15000J0D01*
G01*
X6935000Y-10400000D02*
G75*
G02*
X6965000Y-10400000I15000J0D01*
G01*
X7065000Y-7500000D02*
G75*
G02*
X7035000Y-7500000I-15000J0D01*
G01*
X7035000Y-7500000D02*
G75*
G02*
X7065000Y-7500000I15000J0D01*
G01*
X7445000Y-7180000D02*
G75*
G02*
X7415000Y-7180000I-15000J0D01*
G01*
X7415000Y-7180000D02*
G75*
G02*
X7445000Y-7180000I15000J0D01*
G01*
X7945000Y-10330000D02*
G75*
G02*
X7915000Y-10330000I-15000J0D01*
G01*
X7915000Y-10330000D02*
G75*
G02*
X7945000Y-10330000I15000J0D01*
G01*
X8515000Y-7200000D02*
G75*
G02*
X8485000Y-7200000I-15000J0D01*
G01*
X8485000Y-7200000D02*
G75*
G02*
X8515000Y-7200000I15000J0D01*
G01*
X9770625Y-9282500D02*
G75*
G02*
X9740625Y-9282500I-15000J0D01*
G01*
X9740625Y-9282500D02*
G75*
G02*
X9770625Y-9282500I15000J0D01*
G01*
X10125000Y-9860000D02*
G75*
G02*
X10095000Y-9860000I-15000J0D01*
G01*
X10095000Y-9860000D02*
G75*
G02*
X10125000Y-9860000I15000J0D01*
G01*
X10132427Y-10002574D02*
G75*
G02*
X10102427Y-10002574I-15000J0D01*
G01*
X10102427Y-10002574D02*
G75*
G02*
X10132427Y-10002574I15000J0D01*
G01*
X10239202Y-8775799D02*
G75*
G02*
X10209202Y-8775799I-15000J0D01*
G01*
X10209202Y-8775799D02*
G75*
G02*
X10239202Y-8775799I15000J0D01*
G01*
X10415000Y-10327877D02*
G75*
G02*
X10385000Y-10327877I-15000J0D01*
G01*
X10385000Y-10327877D02*
G75*
G02*
X10415000Y-10327877I15000J0D01*
G01*
X11360806Y-8994194D02*
G75*
G02*
X11330806Y-8994194I-15000J0D01*
G01*
X11330806Y-8994194D02*
G75*
G02*
X11360806Y-8994194I15000J0D01*
G01*
X11365000Y-8740000D02*
G75*
G02*
X11335000Y-8740000I-15000J0D01*
G01*
X11335000Y-8740000D02*
G75*
G02*
X11365000Y-8740000I15000J0D01*
G01*
X11870000Y-9035000D02*
G75*
G02*
X11840000Y-9035000I-15000J0D01*
G01*
X11840000Y-9035000D02*
G75*
G02*
X11870000Y-9035000I15000J0D01*
G01*
X13202500Y-9350000D02*
G75*
G02*
X13172500Y-9350000I-15000J0D01*
G01*
X13172500Y-9350000D02*
G75*
G02*
X13202500Y-9350000I15000J0D01*
G01*
X13228716Y-9423784D02*
G75*
G02*
X13198716Y-9423784I-15000J0D01*
G01*
X13198716Y-9423784D02*
G75*
G02*
X13228716Y-9423784I15000J0D01*
G01*
X13269375Y-9383125D02*
G75*
G02*
X13239375Y-9383125I-15000J0D01*
G01*
X13239375Y-9383125D02*
G75*
G02*
X13269375Y-9383125I15000J0D01*
G01*
X14515000Y-10380000D02*
G75*
G02*
X14485000Y-10380000I-15000J0D01*
G01*
X14485000Y-10380000D02*
G75*
G02*
X14515000Y-10380000I15000J0D01*
G01*
X15382584Y-8090000D02*
G75*
G02*
X15352584Y-8090000I-15000J0D01*
G01*
X15352584Y-8090000D02*
G75*
G02*
X15382584Y-8090000I15000J0D01*
G01*
X6527000Y-7535000D02*
X6527000Y-7585000D01*
X6502000Y-7560000D02*
X6552000Y-7560000D01*
X6539985Y-9785015D02*
X6539985Y-9835015D01*
X6514985Y-9810015D02*
X6564985Y-9810015D01*
X7210000Y-7725000D02*
X7210000Y-7775000D01*
X7185000Y-7750000D02*
X7235000Y-7750000D01*
X7210000Y-8205000D02*
X7210000Y-8255000D01*
X7185000Y-8230000D02*
X7235000Y-8230000D01*
X7220000Y-7825000D02*
X7220000Y-7875000D01*
X7195000Y-7850000D02*
X7245000Y-7850000D01*
X7230000Y-8125000D02*
X7230000Y-8175000D01*
X7205000Y-8150000D02*
X7255000Y-8150000D01*
X7240000Y-7915000D02*
X7240000Y-7965000D01*
X7215000Y-7940000D02*
X7265000Y-7940000D01*
X7240000Y-8035000D02*
X7240000Y-8085000D01*
X7215000Y-8060000D02*
X7265000Y-8060000D01*
X7320000Y-8415000D02*
X7320000Y-8465000D01*
X7295000Y-8440000D02*
X7345000Y-8440000D01*
X7420000Y-8545000D02*
X7420000Y-8595000D01*
X7395000Y-8570000D02*
X7445000Y-8570000D01*
X7430000Y-8735000D02*
X7430000Y-8785000D01*
X7405000Y-8760000D02*
X7455000Y-8760000D01*
X7782937Y-7887937D02*
X7782937Y-7937937D01*
X7757937Y-7912937D02*
X7807937Y-7912937D01*
X7790000Y-7795000D02*
X7790000Y-7845000D01*
X7765000Y-7820000D02*
X7815000Y-7820000D01*
X7821250Y-7655000D02*
X7821250Y-7705000D01*
X7796250Y-7680000D02*
X7846250Y-7680000D01*
X7950000Y-10625000D02*
X7950000Y-10675000D01*
X7925000Y-10650000D02*
X7975000Y-10650000D01*
X7950000Y-10825000D02*
X7950000Y-10875000D01*
X7925000Y-10850000D02*
X7975000Y-10850000D01*
X7963145Y-7948145D02*
X7963145Y-7998145D01*
X7938145Y-7973145D02*
X7988145Y-7973145D01*
X8010000Y-7695000D02*
X8010000Y-7745000D01*
X7985000Y-7720000D02*
X8035000Y-7720000D01*
X8200000Y-9495000D02*
X8200000Y-9545000D01*
X8175000Y-9520000D02*
X8225000Y-9520000D01*
X8200000Y-9625000D02*
X8200000Y-9675000D01*
X8175000Y-9650000D02*
X8225000Y-9650000D01*
X8200000Y-9725000D02*
X8200000Y-9775000D01*
X8175000Y-9750000D02*
X8225000Y-9750000D01*
X8450000Y-6975000D02*
X8450000Y-7025000D01*
X8425000Y-7000000D02*
X8475000Y-7000000D01*
X8550000Y-10575000D02*
X8550000Y-10625000D01*
X8525000Y-10600000D02*
X8575000Y-10600000D01*
X9720000Y-10625000D02*
X9720000Y-10675000D01*
X9695000Y-10650000D02*
X9745000Y-10650000D01*
X9750000Y-10865000D02*
X9750000Y-10915000D01*
X9725000Y-10890000D02*
X9775000Y-10890000D01*
X9900000Y-10125000D02*
X9900000Y-10175000D01*
X9875000Y-10150000D02*
X9925000Y-10150000D01*
X10065058Y-10158150D02*
X10065058Y-10208150D01*
X10040058Y-10183150D02*
X10090058Y-10183150D01*
X10090000Y-9745000D02*
X10090000Y-9795000D01*
X10065000Y-9770000D02*
X10115000Y-9770000D01*
X10200000Y-7025000D02*
X10200000Y-7075000D01*
X10175000Y-7050000D02*
X10225000Y-7050000D01*
X10250000Y-7175000D02*
X10250000Y-7225000D01*
X10225000Y-7200000D02*
X10275000Y-7200000D01*
X10580000Y-9745000D02*
X10580000Y-9795000D01*
X10555000Y-9770000D02*
X10605000Y-9770000D01*
X10600000Y-10165000D02*
X10600000Y-10215000D01*
X10575000Y-10190000D02*
X10625000Y-10190000D01*
X11110000Y-7455000D02*
X11110000Y-7505000D01*
X11085000Y-7480000D02*
X11135000Y-7480000D01*
X11630450Y-8891517D02*
X11630450Y-8941517D01*
X11605450Y-8916517D02*
X11655450Y-8916517D01*
X12100000Y-10535000D02*
X12100000Y-10585000D01*
X12075000Y-10560000D02*
X12125000Y-10560000D01*
X12137325Y-10735000D02*
X12137325Y-10785000D01*
X12112325Y-10760000D02*
X12162325Y-10760000D01*
X12450000Y-6975000D02*
X12450000Y-7025000D01*
X12425000Y-7000000D02*
X12475000Y-7000000D01*
X12450000Y-7175000D02*
X12450000Y-7225000D01*
X12425000Y-7200000D02*
X12475000Y-7200000D01*
X12900000Y-9225000D02*
X12900000Y-9275000D01*
X12875000Y-9250000D02*
X12925000Y-9250000D01*
X13050000Y-8925000D02*
X13050000Y-8975000D01*
X13025000Y-8950000D02*
X13075000Y-8950000D01*
X13150000Y-9845000D02*
X13150000Y-9895000D01*
X13125000Y-9870000D02*
X13175000Y-9870000D01*
X13750000Y-9325000D02*
X13750000Y-9375000D01*
X13725000Y-9350000D02*
X13775000Y-9350000D01*
X13750000Y-9475000D02*
X13750000Y-9525000D01*
X13725000Y-9500000D02*
X13775000Y-9500000D01*
X13783250Y-9208250D02*
X13783250Y-9258250D01*
X13758250Y-9233250D02*
X13808250Y-9233250D01*
X13850000Y-9025000D02*
X13850000Y-9075000D01*
X13825000Y-9050000D02*
X13875000Y-9050000D01*
X14000000Y-9625000D02*
X14000000Y-9675000D01*
X13975000Y-9650000D02*
X14025000Y-9650000D01*
X14018207Y-10684073D02*
X14018207Y-10734073D01*
X13993207Y-10709073D02*
X14043207Y-10709073D01*
X14050000Y-10875000D02*
X14050000Y-10925000D01*
X14025000Y-10900000D02*
X14075000Y-10900000D01*
X14400000Y-7075000D02*
X14400000Y-7125000D01*
X14375000Y-7100000D02*
X14425000Y-7100000D01*
X14400000Y-7275000D02*
X14400000Y-7325000D01*
X14375000Y-7300000D02*
X14425000Y-7300000D01*
X14400000Y-7777500D02*
X14400000Y-7827500D01*
X14375000Y-7802500D02*
X14425000Y-7802500D01*
X14800000Y-10475000D02*
X14800000Y-10525000D01*
X14775000Y-10500000D02*
X14825000Y-10500000D01*
X15020743Y-10495743D02*
X15020743Y-10545743D01*
X14995743Y-10520743D02*
X15045743Y-10520743D01*
X14941328Y-8533178D02*
X14941328Y-8497822D01*
X14905972Y-8497822D01*
X14905972Y-8533178D01*
X14941328Y-8533178D01*
X14958650Y-8490500D02*
X14888650Y-8490500D01*
X14888650Y-8540500D02*
G75*
G02*
X14888650Y-8490500I0J25000D01*
G01*
X14888650Y-8540500D02*
X14958650Y-8540500D01*
X14958650Y-8540500D02*
G75*
G03*
X14958650Y-8490500I0J25000D01*
G01*
X14941328Y-9397178D02*
X14941328Y-9361822D01*
X14905972Y-9361822D01*
X14905972Y-9397178D01*
X14941328Y-9397178D01*
X14958650Y-9354500D02*
X14888650Y-9354500D01*
X14888650Y-9404500D02*
G75*
G02*
X14888650Y-9354500I0J25000D01*
G01*
X14888650Y-9404500D02*
X14958650Y-9404500D01*
X14958650Y-9404500D02*
G75*
G03*
X14958650Y-9354500I0J25000D01*
G01*
X15321328Y-8533178D02*
X15321328Y-8497822D01*
X15285972Y-8497822D01*
X15285972Y-8533178D01*
X15321328Y-8533178D01*
X15338650Y-8490500D02*
X15268650Y-8490500D01*
X15268650Y-8540500D02*
G75*
G02*
X15268650Y-8490500I0J25000D01*
G01*
X15268650Y-8540500D02*
X15338650Y-8540500D01*
X15338650Y-8540500D02*
G75*
G03*
X15338650Y-8490500I0J25000D01*
G01*
X15321328Y-9397178D02*
X15321328Y-9361822D01*
X15285972Y-9361822D01*
X15285972Y-9397178D01*
X15321328Y-9397178D01*
X15338650Y-9354500D02*
X15268650Y-9354500D01*
X15268650Y-9404500D02*
G75*
G02*
X15268650Y-9354500I0J25000D01*
G01*
X15268650Y-9404500D02*
X15338650Y-9404500D01*
X15338650Y-9404500D02*
G75*
G03*
X15338650Y-9354500I0J25000D01*
G01*
X8240000Y-7730000D02*
X8270000Y-7700000D01*
X8240000Y-7670000D01*
X8210000Y-7700000D01*
X8240000Y-7730000D01*
X8670000Y-7500000D02*
X8700000Y-7470000D01*
X8670000Y-7440000D01*
X8640000Y-7470000D01*
X8670000Y-7500000D01*
X9835343Y-8646157D02*
X9865343Y-8616157D01*
X9835343Y-8586157D01*
X9805343Y-8616157D01*
X9835343Y-8646157D01*
X14400000Y-8440000D02*
X14430000Y-8410000D01*
X14400000Y-8380000D01*
X14370000Y-8410000D01*
X14400000Y-8440000D01*
X14480000Y-9680000D02*
X14510000Y-9650000D01*
X14480000Y-9620000D01*
X14450000Y-9650000D01*
X14480000Y-9680000D01*
X14925650Y-9252500D02*
X14955650Y-9222500D01*
X14925650Y-9192500D01*
X14895650Y-9222500D01*
X14925650Y-9252500D01*
X8020000Y-9200000D02*
X8100000Y-9280000D01*
X8100000Y-9200000D02*
X8020000Y-9280000D01*
X8100000Y-9240000D02*
G75*
G02*
X8020000Y-9240000I-40000J0D01*
G01*
X8020000Y-9240000D02*
G75*
G02*
X8100000Y-9240000I40000J0D01*
G01*
X11020000Y-9090000D02*
X11100000Y-9170000D01*
X11100000Y-9090000D02*
X11020000Y-9170000D01*
X11100000Y-9130000D02*
G75*
G02*
X11020000Y-9130000I-40000J0D01*
G01*
X11020000Y-9130000D02*
G75*
G02*
X11100000Y-9130000I40000J0D01*
G01*
X13887500Y-8770000D02*
X13967500Y-8850000D01*
X13967500Y-8770000D02*
X13887500Y-8850000D01*
X13967500Y-8810000D02*
G75*
G02*
X13887500Y-8810000I-40000J0D01*
G01*
X13887500Y-8810000D02*
G75*
G02*
X13967500Y-8810000I40000J0D01*
G01*
X14057450Y-9496250D02*
X14137450Y-9576250D01*
X14137450Y-9496250D02*
X14057450Y-9576250D01*
X14137450Y-9536250D02*
G75*
G02*
X14057450Y-9536250I-40000J0D01*
G01*
X14057450Y-9536250D02*
G75*
G02*
X14137450Y-9536250I40000J0D01*
G01*
D12*
X6592500Y-7012500D02*
X6812500Y-7232500D01*
X6812500Y-7012500D02*
X6592500Y-7232500D01*
X6702500Y-7012500D02*
X6702500Y-7232500D01*
X6592500Y-7122500D02*
X6812500Y-7122500D01*
X6592500Y-10652500D02*
X6812500Y-10872500D01*
X6812500Y-10652500D02*
X6592500Y-10872500D01*
X6702500Y-10652500D02*
X6702500Y-10872500D01*
X6592500Y-10762500D02*
X6812500Y-10762500D01*
X15062500Y-7012500D02*
X15282500Y-7232500D01*
X15282500Y-7012500D02*
X15062500Y-7232500D01*
X15172500Y-7012500D02*
X15172500Y-7232500D01*
X15062500Y-7122500D02*
X15282500Y-7122500D01*
X15062500Y-10652500D02*
X15282500Y-10872500D01*
X15282500Y-10652500D02*
X15062500Y-10872500D01*
X15172500Y-10652500D02*
X15172500Y-10872500D01*
X15062500Y-10762500D02*
X15282500Y-10762500D01*
D13*
X6605000Y-8540000D02*
X6945000Y-8880000D01*
X6945000Y-8540000D02*
X6605000Y-8880000D01*
X6895209Y-8830209D02*
X6895209Y-8589791D01*
X6654791Y-8589791D01*
X6654791Y-8830209D01*
X6895209Y-8830209D01*
X6605000Y-9020000D02*
X6945000Y-9360000D01*
X6945000Y-9020000D02*
X6605000Y-9360000D01*
X6895209Y-9310209D02*
X6895209Y-9069791D01*
X6654791Y-9069791D01*
X6654791Y-9310209D01*
X6895209Y-9310209D01*
D11*
X6707777Y-11334146D02*
X6707777Y-11134146D01*
X6707777Y-11134146D02*
X6755396Y-11134146D01*
X6755396Y-11134146D02*
X6783967Y-11143670D01*
X6783967Y-11143670D02*
X6803015Y-11162717D01*
X6803015Y-11162717D02*
X6812538Y-11181765D01*
X6812538Y-11181765D02*
X6822062Y-11219860D01*
X6822062Y-11219860D02*
X6822062Y-11248432D01*
X6822062Y-11248432D02*
X6812538Y-11286527D01*
X6812538Y-11286527D02*
X6803015Y-11305574D01*
X6803015Y-11305574D02*
X6783967Y-11324622D01*
X6783967Y-11324622D02*
X6755396Y-11334146D01*
X6755396Y-11334146D02*
X6707777Y-11334146D01*
X6907777Y-11334146D02*
X6907777Y-11200812D01*
X6907777Y-11238908D02*
X6917300Y-11219860D01*
X6917300Y-11219860D02*
X6926824Y-11210336D01*
X6926824Y-11210336D02*
X6945872Y-11200812D01*
X6945872Y-11200812D02*
X6964919Y-11200812D01*
X7031586Y-11334146D02*
X7031586Y-11200812D01*
X7031586Y-11134146D02*
X7022062Y-11143670D01*
X7022062Y-11143670D02*
X7031586Y-11153194D01*
X7031586Y-11153194D02*
X7041110Y-11143670D01*
X7041110Y-11143670D02*
X7031586Y-11134146D01*
X7031586Y-11134146D02*
X7031586Y-11153194D01*
X7155396Y-11334146D02*
X7136348Y-11324622D01*
X7136348Y-11324622D02*
X7126824Y-11305574D01*
X7126824Y-11305574D02*
X7126824Y-11134146D01*
X7260157Y-11334146D02*
X7241110Y-11324622D01*
X7241110Y-11324622D02*
X7231586Y-11305574D01*
X7231586Y-11305574D02*
X7231586Y-11134146D01*
X7488729Y-11334146D02*
X7488729Y-11134146D01*
X7488729Y-11134146D02*
X7555396Y-11277003D01*
X7555396Y-11277003D02*
X7622062Y-11134146D01*
X7622062Y-11134146D02*
X7622062Y-11334146D01*
X7803015Y-11334146D02*
X7803015Y-11229384D01*
X7803015Y-11229384D02*
X7793491Y-11210336D01*
X7793491Y-11210336D02*
X7774443Y-11200812D01*
X7774443Y-11200812D02*
X7736348Y-11200812D01*
X7736348Y-11200812D02*
X7717300Y-11210336D01*
X7803015Y-11324622D02*
X7783967Y-11334146D01*
X7783967Y-11334146D02*
X7736348Y-11334146D01*
X7736348Y-11334146D02*
X7717300Y-11324622D01*
X7717300Y-11324622D02*
X7707777Y-11305574D01*
X7707777Y-11305574D02*
X7707777Y-11286527D01*
X7707777Y-11286527D02*
X7717300Y-11267479D01*
X7717300Y-11267479D02*
X7736348Y-11257955D01*
X7736348Y-11257955D02*
X7783967Y-11257955D01*
X7783967Y-11257955D02*
X7803015Y-11248432D01*
X7898253Y-11200812D02*
X7898253Y-11400812D01*
X7898253Y-11210336D02*
X7917300Y-11200812D01*
X7917300Y-11200812D02*
X7955396Y-11200812D01*
X7955396Y-11200812D02*
X7974443Y-11210336D01*
X7974443Y-11210336D02*
X7983967Y-11219860D01*
X7983967Y-11219860D02*
X7993491Y-11238908D01*
X7993491Y-11238908D02*
X7993491Y-11296051D01*
X7993491Y-11296051D02*
X7983967Y-11315098D01*
X7983967Y-11315098D02*
X7974443Y-11324622D01*
X7974443Y-11324622D02*
X7955396Y-11334146D01*
X7955396Y-11334146D02*
X7917300Y-11334146D01*
X7917300Y-11334146D02*
X7898253Y-11324622D01*
X8079205Y-11315098D02*
X8088729Y-11324622D01*
X8088729Y-11324622D02*
X8079205Y-11334146D01*
X8079205Y-11334146D02*
X8069681Y-11324622D01*
X8069681Y-11324622D02*
X8079205Y-11315098D01*
X8079205Y-11315098D02*
X8079205Y-11334146D01*
X8079205Y-11210336D02*
X8088729Y-11219860D01*
X8088729Y-11219860D02*
X8079205Y-11229384D01*
X8079205Y-11229384D02*
X8069681Y-11219860D01*
X8069681Y-11219860D02*
X8079205Y-11210336D01*
X8079205Y-11210336D02*
X8079205Y-11229384D01*
D10*
X6422000Y-11650162D02*
X6447000Y-11675162D01*
X6447000Y-11650162D02*
X6422000Y-11675162D01*
D11*
X6745872Y-11554146D02*
X6764919Y-11554146D01*
X6764919Y-11554146D02*
X6783967Y-11563670D01*
X6783967Y-11563670D02*
X6793491Y-11573193D01*
X6793491Y-11573193D02*
X6803015Y-11592241D01*
X6803015Y-11592241D02*
X6812538Y-11630336D01*
X6812538Y-11630336D02*
X6812538Y-11677955D01*
X6812538Y-11677955D02*
X6803015Y-11716051D01*
X6803015Y-11716051D02*
X6793491Y-11735098D01*
X6793491Y-11735098D02*
X6783967Y-11744622D01*
X6783967Y-11744622D02*
X6764919Y-11754146D01*
X6764919Y-11754146D02*
X6745872Y-11754146D01*
X6745872Y-11754146D02*
X6726824Y-11744622D01*
X6726824Y-11744622D02*
X6717300Y-11735098D01*
X6717300Y-11735098D02*
X6707777Y-11716051D01*
X6707777Y-11716051D02*
X6698253Y-11677955D01*
X6698253Y-11677955D02*
X6698253Y-11630336D01*
X6698253Y-11630336D02*
X6707777Y-11592241D01*
X6707777Y-11592241D02*
X6717300Y-11573193D01*
X6717300Y-11573193D02*
X6726824Y-11563670D01*
X6726824Y-11563670D02*
X6745872Y-11554146D01*
X6898253Y-11735098D02*
X6907777Y-11744622D01*
X6907777Y-11744622D02*
X6898253Y-11754146D01*
X6898253Y-11754146D02*
X6888729Y-11744622D01*
X6888729Y-11744622D02*
X6898253Y-11735098D01*
X6898253Y-11735098D02*
X6898253Y-11754146D01*
X6983967Y-11573193D02*
X6993491Y-11563670D01*
X6993491Y-11563670D02*
X7012538Y-11554146D01*
X7012538Y-11554146D02*
X7060158Y-11554146D01*
X7060158Y-11554146D02*
X7079205Y-11563670D01*
X7079205Y-11563670D02*
X7088729Y-11573193D01*
X7088729Y-11573193D02*
X7098253Y-11592241D01*
X7098253Y-11592241D02*
X7098253Y-11611289D01*
X7098253Y-11611289D02*
X7088729Y-11639860D01*
X7088729Y-11639860D02*
X6974443Y-11754146D01*
X6974443Y-11754146D02*
X7098253Y-11754146D01*
X7279205Y-11554146D02*
X7183967Y-11554146D01*
X7183967Y-11554146D02*
X7174443Y-11649384D01*
X7174443Y-11649384D02*
X7183967Y-11639860D01*
X7183967Y-11639860D02*
X7203015Y-11630336D01*
X7203015Y-11630336D02*
X7250634Y-11630336D01*
X7250634Y-11630336D02*
X7269681Y-11639860D01*
X7269681Y-11639860D02*
X7279205Y-11649384D01*
X7279205Y-11649384D02*
X7288729Y-11668432D01*
X7288729Y-11668432D02*
X7288729Y-11716051D01*
X7288729Y-11716051D02*
X7279205Y-11735098D01*
X7279205Y-11735098D02*
X7269681Y-11744622D01*
X7269681Y-11744622D02*
X7250634Y-11754146D01*
X7250634Y-11754146D02*
X7203015Y-11754146D01*
X7203015Y-11754146D02*
X7183967Y-11744622D01*
X7183967Y-11744622D02*
X7174443Y-11735098D01*
X7412538Y-11554146D02*
X7431586Y-11554146D01*
X7431586Y-11554146D02*
X7450634Y-11563670D01*
X7450634Y-11563670D02*
X7460158Y-11573193D01*
X7460158Y-11573193D02*
X7469681Y-11592241D01*
X7469681Y-11592241D02*
X7479205Y-11630336D01*
X7479205Y-11630336D02*
X7479205Y-11677955D01*
X7479205Y-11677955D02*
X7469681Y-11716051D01*
X7469681Y-11716051D02*
X7460158Y-11735098D01*
X7460158Y-11735098D02*
X7450634Y-11744622D01*
X7450634Y-11744622D02*
X7431586Y-11754146D01*
X7431586Y-11754146D02*
X7412538Y-11754146D01*
X7412538Y-11754146D02*
X7393491Y-11744622D01*
X7393491Y-11744622D02*
X7383967Y-11735098D01*
X7383967Y-11735098D02*
X7374443Y-11716051D01*
X7374443Y-11716051D02*
X7364919Y-11677955D01*
X7364919Y-11677955D02*
X7364919Y-11630336D01*
X7364919Y-11630336D02*
X7374443Y-11592241D01*
X7374443Y-11592241D02*
X7383967Y-11573193D01*
X7383967Y-11573193D02*
X7393491Y-11563670D01*
X7393491Y-11563670D02*
X7412538Y-11554146D01*
X7564919Y-11754146D02*
X7564919Y-11620812D01*
X7564919Y-11639860D02*
X7574443Y-11630336D01*
X7574443Y-11630336D02*
X7593491Y-11620812D01*
X7593491Y-11620812D02*
X7622062Y-11620812D01*
X7622062Y-11620812D02*
X7641110Y-11630336D01*
X7641110Y-11630336D02*
X7650634Y-11649384D01*
X7650634Y-11649384D02*
X7650634Y-11754146D01*
X7650634Y-11649384D02*
X7660158Y-11630336D01*
X7660158Y-11630336D02*
X7679205Y-11620812D01*
X7679205Y-11620812D02*
X7707777Y-11620812D01*
X7707777Y-11620812D02*
X7726824Y-11630336D01*
X7726824Y-11630336D02*
X7736348Y-11649384D01*
X7736348Y-11649384D02*
X7736348Y-11754146D01*
X7831586Y-11754146D02*
X7831586Y-11620812D01*
X7831586Y-11639860D02*
X7841110Y-11630336D01*
X7841110Y-11630336D02*
X7860158Y-11620812D01*
X7860158Y-11620812D02*
X7888729Y-11620812D01*
X7888729Y-11620812D02*
X7907777Y-11630336D01*
X7907777Y-11630336D02*
X7917300Y-11649384D01*
X7917300Y-11649384D02*
X7917300Y-11754146D01*
X7917300Y-11649384D02*
X7926824Y-11630336D01*
X7926824Y-11630336D02*
X7945872Y-11620812D01*
X7945872Y-11620812D02*
X7974443Y-11620812D01*
X7974443Y-11620812D02*
X7993491Y-11630336D01*
X7993491Y-11630336D02*
X8003015Y-11649384D01*
X8003015Y-11649384D02*
X8003015Y-11754146D01*
X8393491Y-11544622D02*
X8222062Y-11801765D01*
X8650634Y-11554146D02*
X8669682Y-11554146D01*
X8669682Y-11554146D02*
X8688729Y-11563670D01*
X8688729Y-11563670D02*
X8698253Y-11573193D01*
X8698253Y-11573193D02*
X8707777Y-11592241D01*
X8707777Y-11592241D02*
X8717301Y-11630336D01*
X8717301Y-11630336D02*
X8717301Y-11677955D01*
X8717301Y-11677955D02*
X8707777Y-11716051D01*
X8707777Y-11716051D02*
X8698253Y-11735098D01*
X8698253Y-11735098D02*
X8688729Y-11744622D01*
X8688729Y-11744622D02*
X8669682Y-11754146D01*
X8669682Y-11754146D02*
X8650634Y-11754146D01*
X8650634Y-11754146D02*
X8631586Y-11744622D01*
X8631586Y-11744622D02*
X8622063Y-11735098D01*
X8622063Y-11735098D02*
X8612539Y-11716051D01*
X8612539Y-11716051D02*
X8603015Y-11677955D01*
X8603015Y-11677955D02*
X8603015Y-11630336D01*
X8603015Y-11630336D02*
X8612539Y-11592241D01*
X8612539Y-11592241D02*
X8622063Y-11573193D01*
X8622063Y-11573193D02*
X8631586Y-11563670D01*
X8631586Y-11563670D02*
X8650634Y-11554146D01*
X8803015Y-11735098D02*
X8812539Y-11744622D01*
X8812539Y-11744622D02*
X8803015Y-11754146D01*
X8803015Y-11754146D02*
X8793491Y-11744622D01*
X8793491Y-11744622D02*
X8803015Y-11735098D01*
X8803015Y-11735098D02*
X8803015Y-11754146D01*
X8936348Y-11554146D02*
X8955396Y-11554146D01*
X8955396Y-11554146D02*
X8974444Y-11563670D01*
X8974444Y-11563670D02*
X8983967Y-11573193D01*
X8983967Y-11573193D02*
X8993491Y-11592241D01*
X8993491Y-11592241D02*
X9003015Y-11630336D01*
X9003015Y-11630336D02*
X9003015Y-11677955D01*
X9003015Y-11677955D02*
X8993491Y-11716051D01*
X8993491Y-11716051D02*
X8983967Y-11735098D01*
X8983967Y-11735098D02*
X8974444Y-11744622D01*
X8974444Y-11744622D02*
X8955396Y-11754146D01*
X8955396Y-11754146D02*
X8936348Y-11754146D01*
X8936348Y-11754146D02*
X8917301Y-11744622D01*
X8917301Y-11744622D02*
X8907777Y-11735098D01*
X8907777Y-11735098D02*
X8898253Y-11716051D01*
X8898253Y-11716051D02*
X8888729Y-11677955D01*
X8888729Y-11677955D02*
X8888729Y-11630336D01*
X8888729Y-11630336D02*
X8898253Y-11592241D01*
X8898253Y-11592241D02*
X8907777Y-11573193D01*
X8907777Y-11573193D02*
X8917301Y-11563670D01*
X8917301Y-11563670D02*
X8936348Y-11554146D01*
X9126824Y-11554146D02*
X9145872Y-11554146D01*
X9145872Y-11554146D02*
X9164920Y-11563670D01*
X9164920Y-11563670D02*
X9174444Y-11573193D01*
X9174444Y-11573193D02*
X9183967Y-11592241D01*
X9183967Y-11592241D02*
X9193491Y-11630336D01*
X9193491Y-11630336D02*
X9193491Y-11677955D01*
X9193491Y-11677955D02*
X9183967Y-11716051D01*
X9183967Y-11716051D02*
X9174444Y-11735098D01*
X9174444Y-11735098D02*
X9164920Y-11744622D01*
X9164920Y-11744622D02*
X9145872Y-11754146D01*
X9145872Y-11754146D02*
X9126824Y-11754146D01*
X9126824Y-11754146D02*
X9107777Y-11744622D01*
X9107777Y-11744622D02*
X9098253Y-11735098D01*
X9098253Y-11735098D02*
X9088729Y-11716051D01*
X9088729Y-11716051D02*
X9079205Y-11677955D01*
X9079205Y-11677955D02*
X9079205Y-11630336D01*
X9079205Y-11630336D02*
X9088729Y-11592241D01*
X9088729Y-11592241D02*
X9098253Y-11573193D01*
X9098253Y-11573193D02*
X9107777Y-11563670D01*
X9107777Y-11563670D02*
X9126824Y-11554146D01*
X9288729Y-11754146D02*
X9326824Y-11754146D01*
X9326824Y-11754146D02*
X9345872Y-11744622D01*
X9345872Y-11744622D02*
X9355396Y-11735098D01*
X9355396Y-11735098D02*
X9374444Y-11706527D01*
X9374444Y-11706527D02*
X9383967Y-11668432D01*
X9383967Y-11668432D02*
X9383967Y-11592241D01*
X9383967Y-11592241D02*
X9374444Y-11573193D01*
X9374444Y-11573193D02*
X9364920Y-11563670D01*
X9364920Y-11563670D02*
X9345872Y-11554146D01*
X9345872Y-11554146D02*
X9307777Y-11554146D01*
X9307777Y-11554146D02*
X9288729Y-11563670D01*
X9288729Y-11563670D02*
X9279205Y-11573193D01*
X9279205Y-11573193D02*
X9269682Y-11592241D01*
X9269682Y-11592241D02*
X9269682Y-11639860D01*
X9269682Y-11639860D02*
X9279205Y-11658908D01*
X9279205Y-11658908D02*
X9288729Y-11668432D01*
X9288729Y-11668432D02*
X9307777Y-11677955D01*
X9307777Y-11677955D02*
X9345872Y-11677955D01*
X9345872Y-11677955D02*
X9364920Y-11668432D01*
X9364920Y-11668432D02*
X9374444Y-11658908D01*
X9374444Y-11658908D02*
X9383967Y-11639860D01*
X9498253Y-11639860D02*
X9479205Y-11630336D01*
X9479205Y-11630336D02*
X9469682Y-11620812D01*
X9469682Y-11620812D02*
X9460158Y-11601765D01*
X9460158Y-11601765D02*
X9460158Y-11592241D01*
X9460158Y-11592241D02*
X9469682Y-11573193D01*
X9469682Y-11573193D02*
X9479205Y-11563670D01*
X9479205Y-11563670D02*
X9498253Y-11554146D01*
X9498253Y-11554146D02*
X9536348Y-11554146D01*
X9536348Y-11554146D02*
X9555396Y-11563670D01*
X9555396Y-11563670D02*
X9564920Y-11573193D01*
X9564920Y-11573193D02*
X9574444Y-11592241D01*
X9574444Y-11592241D02*
X9574444Y-11601765D01*
X9574444Y-11601765D02*
X9564920Y-11620812D01*
X9564920Y-11620812D02*
X9555396Y-11630336D01*
X9555396Y-11630336D02*
X9536348Y-11639860D01*
X9536348Y-11639860D02*
X9498253Y-11639860D01*
X9498253Y-11639860D02*
X9479205Y-11649384D01*
X9479205Y-11649384D02*
X9469682Y-11658908D01*
X9469682Y-11658908D02*
X9460158Y-11677955D01*
X9460158Y-11677955D02*
X9460158Y-11716051D01*
X9460158Y-11716051D02*
X9469682Y-11735098D01*
X9469682Y-11735098D02*
X9479205Y-11744622D01*
X9479205Y-11744622D02*
X9498253Y-11754146D01*
X9498253Y-11754146D02*
X9536348Y-11754146D01*
X9536348Y-11754146D02*
X9555396Y-11744622D01*
X9555396Y-11744622D02*
X9564920Y-11735098D01*
X9564920Y-11735098D02*
X9574444Y-11716051D01*
X9574444Y-11716051D02*
X9574444Y-11677955D01*
X9574444Y-11677955D02*
X9564920Y-11658908D01*
X9564920Y-11658908D02*
X9555396Y-11649384D01*
X9555396Y-11649384D02*
X9536348Y-11639860D01*
X9650634Y-11554146D02*
X9650634Y-11592241D01*
X9726825Y-11554146D02*
X9726825Y-11592241D01*
X10022063Y-11830336D02*
X10012539Y-11820812D01*
X10012539Y-11820812D02*
X9993491Y-11792241D01*
X9993491Y-11792241D02*
X9983967Y-11773193D01*
X9983967Y-11773193D02*
X9974444Y-11744622D01*
X9974444Y-11744622D02*
X9964920Y-11697003D01*
X9964920Y-11697003D02*
X9964920Y-11658908D01*
X9964920Y-11658908D02*
X9974444Y-11611289D01*
X9974444Y-11611289D02*
X9983967Y-11582717D01*
X9983967Y-11582717D02*
X9993491Y-11563670D01*
X9993491Y-11563670D02*
X10012539Y-11535098D01*
X10012539Y-11535098D02*
X10022063Y-11525574D01*
X10088729Y-11573193D02*
X10098253Y-11563670D01*
X10098253Y-11563670D02*
X10117301Y-11554146D01*
X10117301Y-11554146D02*
X10164920Y-11554146D01*
X10164920Y-11554146D02*
X10183967Y-11563670D01*
X10183967Y-11563670D02*
X10193491Y-11573193D01*
X10193491Y-11573193D02*
X10203015Y-11592241D01*
X10203015Y-11592241D02*
X10203015Y-11611289D01*
X10203015Y-11611289D02*
X10193491Y-11639860D01*
X10193491Y-11639860D02*
X10079206Y-11754146D01*
X10079206Y-11754146D02*
X10203015Y-11754146D01*
X10393491Y-11754146D02*
X10279206Y-11754146D01*
X10336348Y-11754146D02*
X10336348Y-11554146D01*
X10336348Y-11554146D02*
X10317301Y-11582717D01*
X10317301Y-11582717D02*
X10298253Y-11601765D01*
X10298253Y-11601765D02*
X10279206Y-11611289D01*
X10631587Y-11754146D02*
X10631587Y-11554146D01*
X10717301Y-11754146D02*
X10717301Y-11649384D01*
X10717301Y-11649384D02*
X10707777Y-11630336D01*
X10707777Y-11630336D02*
X10688729Y-11620812D01*
X10688729Y-11620812D02*
X10660158Y-11620812D01*
X10660158Y-11620812D02*
X10641110Y-11630336D01*
X10641110Y-11630336D02*
X10631587Y-11639860D01*
X10841110Y-11754146D02*
X10822063Y-11744622D01*
X10822063Y-11744622D02*
X10812539Y-11735098D01*
X10812539Y-11735098D02*
X10803015Y-11716051D01*
X10803015Y-11716051D02*
X10803015Y-11658908D01*
X10803015Y-11658908D02*
X10812539Y-11639860D01*
X10812539Y-11639860D02*
X10822063Y-11630336D01*
X10822063Y-11630336D02*
X10841110Y-11620812D01*
X10841110Y-11620812D02*
X10869682Y-11620812D01*
X10869682Y-11620812D02*
X10888729Y-11630336D01*
X10888729Y-11630336D02*
X10898253Y-11639860D01*
X10898253Y-11639860D02*
X10907777Y-11658908D01*
X10907777Y-11658908D02*
X10907777Y-11716051D01*
X10907777Y-11716051D02*
X10898253Y-11735098D01*
X10898253Y-11735098D02*
X10888729Y-11744622D01*
X10888729Y-11744622D02*
X10869682Y-11754146D01*
X10869682Y-11754146D02*
X10841110Y-11754146D01*
X11022063Y-11754146D02*
X11003015Y-11744622D01*
X11003015Y-11744622D02*
X10993491Y-11725574D01*
X10993491Y-11725574D02*
X10993491Y-11554146D01*
X11174444Y-11744622D02*
X11155396Y-11754146D01*
X11155396Y-11754146D02*
X11117301Y-11754146D01*
X11117301Y-11754146D02*
X11098253Y-11744622D01*
X11098253Y-11744622D02*
X11088729Y-11725574D01*
X11088729Y-11725574D02*
X11088729Y-11649384D01*
X11088729Y-11649384D02*
X11098253Y-11630336D01*
X11098253Y-11630336D02*
X11117301Y-11620812D01*
X11117301Y-11620812D02*
X11155396Y-11620812D01*
X11155396Y-11620812D02*
X11174444Y-11630336D01*
X11174444Y-11630336D02*
X11183968Y-11649384D01*
X11183968Y-11649384D02*
X11183968Y-11668432D01*
X11183968Y-11668432D02*
X11088729Y-11687479D01*
X11260158Y-11744622D02*
X11279206Y-11754146D01*
X11279206Y-11754146D02*
X11317301Y-11754146D01*
X11317301Y-11754146D02*
X11336348Y-11744622D01*
X11336348Y-11744622D02*
X11345872Y-11725574D01*
X11345872Y-11725574D02*
X11345872Y-11716051D01*
X11345872Y-11716051D02*
X11336348Y-11697003D01*
X11336348Y-11697003D02*
X11317301Y-11687479D01*
X11317301Y-11687479D02*
X11288729Y-11687479D01*
X11288729Y-11687479D02*
X11269682Y-11677955D01*
X11269682Y-11677955D02*
X11260158Y-11658908D01*
X11260158Y-11658908D02*
X11260158Y-11649384D01*
X11260158Y-11649384D02*
X11269682Y-11630336D01*
X11269682Y-11630336D02*
X11288729Y-11620812D01*
X11288729Y-11620812D02*
X11317301Y-11620812D01*
X11317301Y-11620812D02*
X11336348Y-11630336D01*
X11412539Y-11830336D02*
X11422063Y-11820812D01*
X11422063Y-11820812D02*
X11441110Y-11792241D01*
X11441110Y-11792241D02*
X11450634Y-11773193D01*
X11450634Y-11773193D02*
X11460158Y-11744622D01*
X11460158Y-11744622D02*
X11469682Y-11697003D01*
X11469682Y-11697003D02*
X11469682Y-11658908D01*
X11469682Y-11658908D02*
X11460158Y-11611289D01*
X11460158Y-11611289D02*
X11450634Y-11582717D01*
X11450634Y-11582717D02*
X11441110Y-11563670D01*
X11441110Y-11563670D02*
X11422063Y-11535098D01*
X11422063Y-11535098D02*
X11412539Y-11525574D01*
D10*
X6447000Y-11926662D02*
G75*
G02*
X6417000Y-11926662I-15000J0D01*
G01*
X6417000Y-11926662D02*
G75*
G02*
X6447000Y-11926662I15000J0D01*
G01*
D11*
X6745872Y-11818146D02*
X6764919Y-11818146D01*
X6764919Y-11818146D02*
X6783967Y-11827670D01*
X6783967Y-11827670D02*
X6793491Y-11837193D01*
X6793491Y-11837193D02*
X6803015Y-11856241D01*
X6803015Y-11856241D02*
X6812538Y-11894336D01*
X6812538Y-11894336D02*
X6812538Y-11941955D01*
X6812538Y-11941955D02*
X6803015Y-11980051D01*
X6803015Y-11980051D02*
X6793491Y-11999098D01*
X6793491Y-11999098D02*
X6783967Y-12008622D01*
X6783967Y-12008622D02*
X6764919Y-12018146D01*
X6764919Y-12018146D02*
X6745872Y-12018146D01*
X6745872Y-12018146D02*
X6726824Y-12008622D01*
X6726824Y-12008622D02*
X6717300Y-11999098D01*
X6717300Y-11999098D02*
X6707777Y-11980051D01*
X6707777Y-11980051D02*
X6698253Y-11941955D01*
X6698253Y-11941955D02*
X6698253Y-11894336D01*
X6698253Y-11894336D02*
X6707777Y-11856241D01*
X6707777Y-11856241D02*
X6717300Y-11837193D01*
X6717300Y-11837193D02*
X6726824Y-11827670D01*
X6726824Y-11827670D02*
X6745872Y-11818146D01*
X6898253Y-11999098D02*
X6907777Y-12008622D01*
X6907777Y-12008622D02*
X6898253Y-12018146D01*
X6898253Y-12018146D02*
X6888729Y-12008622D01*
X6888729Y-12008622D02*
X6898253Y-11999098D01*
X6898253Y-11999098D02*
X6898253Y-12018146D01*
X6974443Y-11818146D02*
X7098253Y-11818146D01*
X7098253Y-11818146D02*
X7031586Y-11894336D01*
X7031586Y-11894336D02*
X7060158Y-11894336D01*
X7060158Y-11894336D02*
X7079205Y-11903860D01*
X7079205Y-11903860D02*
X7088729Y-11913384D01*
X7088729Y-11913384D02*
X7098253Y-11932432D01*
X7098253Y-11932432D02*
X7098253Y-11980051D01*
X7098253Y-11980051D02*
X7088729Y-11999098D01*
X7088729Y-11999098D02*
X7079205Y-12008622D01*
X7079205Y-12008622D02*
X7060158Y-12018146D01*
X7060158Y-12018146D02*
X7003015Y-12018146D01*
X7003015Y-12018146D02*
X6983967Y-12008622D01*
X6983967Y-12008622D02*
X6974443Y-11999098D01*
X7222062Y-11818146D02*
X7241110Y-11818146D01*
X7241110Y-11818146D02*
X7260158Y-11827670D01*
X7260158Y-11827670D02*
X7269681Y-11837193D01*
X7269681Y-11837193D02*
X7279205Y-11856241D01*
X7279205Y-11856241D02*
X7288729Y-11894336D01*
X7288729Y-11894336D02*
X7288729Y-11941955D01*
X7288729Y-11941955D02*
X7279205Y-11980051D01*
X7279205Y-11980051D02*
X7269681Y-11999098D01*
X7269681Y-11999098D02*
X7260158Y-12008622D01*
X7260158Y-12008622D02*
X7241110Y-12018146D01*
X7241110Y-12018146D02*
X7222062Y-12018146D01*
X7222062Y-12018146D02*
X7203015Y-12008622D01*
X7203015Y-12008622D02*
X7193491Y-11999098D01*
X7193491Y-11999098D02*
X7183967Y-11980051D01*
X7183967Y-11980051D02*
X7174443Y-11941955D01*
X7174443Y-11941955D02*
X7174443Y-11894336D01*
X7174443Y-11894336D02*
X7183967Y-11856241D01*
X7183967Y-11856241D02*
X7193491Y-11837193D01*
X7193491Y-11837193D02*
X7203015Y-11827670D01*
X7203015Y-11827670D02*
X7222062Y-11818146D01*
X7412538Y-11818146D02*
X7431586Y-11818146D01*
X7431586Y-11818146D02*
X7450634Y-11827670D01*
X7450634Y-11827670D02*
X7460158Y-11837193D01*
X7460158Y-11837193D02*
X7469681Y-11856241D01*
X7469681Y-11856241D02*
X7479205Y-11894336D01*
X7479205Y-11894336D02*
X7479205Y-11941955D01*
X7479205Y-11941955D02*
X7469681Y-11980051D01*
X7469681Y-11980051D02*
X7460158Y-11999098D01*
X7460158Y-11999098D02*
X7450634Y-12008622D01*
X7450634Y-12008622D02*
X7431586Y-12018146D01*
X7431586Y-12018146D02*
X7412538Y-12018146D01*
X7412538Y-12018146D02*
X7393491Y-12008622D01*
X7393491Y-12008622D02*
X7383967Y-11999098D01*
X7383967Y-11999098D02*
X7374443Y-11980051D01*
X7374443Y-11980051D02*
X7364919Y-11941955D01*
X7364919Y-11941955D02*
X7364919Y-11894336D01*
X7364919Y-11894336D02*
X7374443Y-11856241D01*
X7374443Y-11856241D02*
X7383967Y-11837193D01*
X7383967Y-11837193D02*
X7393491Y-11827670D01*
X7393491Y-11827670D02*
X7412538Y-11818146D01*
X7564919Y-12018146D02*
X7564919Y-11884812D01*
X7564919Y-11903860D02*
X7574443Y-11894336D01*
X7574443Y-11894336D02*
X7593491Y-11884812D01*
X7593491Y-11884812D02*
X7622062Y-11884812D01*
X7622062Y-11884812D02*
X7641110Y-11894336D01*
X7641110Y-11894336D02*
X7650634Y-11913384D01*
X7650634Y-11913384D02*
X7650634Y-12018146D01*
X7650634Y-11913384D02*
X7660158Y-11894336D01*
X7660158Y-11894336D02*
X7679205Y-11884812D01*
X7679205Y-11884812D02*
X7707777Y-11884812D01*
X7707777Y-11884812D02*
X7726824Y-11894336D01*
X7726824Y-11894336D02*
X7736348Y-11913384D01*
X7736348Y-11913384D02*
X7736348Y-12018146D01*
X7831586Y-12018146D02*
X7831586Y-11884812D01*
X7831586Y-11903860D02*
X7841110Y-11894336D01*
X7841110Y-11894336D02*
X7860158Y-11884812D01*
X7860158Y-11884812D02*
X7888729Y-11884812D01*
X7888729Y-11884812D02*
X7907777Y-11894336D01*
X7907777Y-11894336D02*
X7917300Y-11913384D01*
X7917300Y-11913384D02*
X7917300Y-12018146D01*
X7917300Y-11913384D02*
X7926824Y-11894336D01*
X7926824Y-11894336D02*
X7945872Y-11884812D01*
X7945872Y-11884812D02*
X7974443Y-11884812D01*
X7974443Y-11884812D02*
X7993491Y-11894336D01*
X7993491Y-11894336D02*
X8003015Y-11913384D01*
X8003015Y-11913384D02*
X8003015Y-12018146D01*
X8393491Y-11808622D02*
X8222062Y-12065765D01*
X8650634Y-11818146D02*
X8669682Y-11818146D01*
X8669682Y-11818146D02*
X8688729Y-11827670D01*
X8688729Y-11827670D02*
X8698253Y-11837193D01*
X8698253Y-11837193D02*
X8707777Y-11856241D01*
X8707777Y-11856241D02*
X8717301Y-11894336D01*
X8717301Y-11894336D02*
X8717301Y-11941955D01*
X8717301Y-11941955D02*
X8707777Y-11980051D01*
X8707777Y-11980051D02*
X8698253Y-11999098D01*
X8698253Y-11999098D02*
X8688729Y-12008622D01*
X8688729Y-12008622D02*
X8669682Y-12018146D01*
X8669682Y-12018146D02*
X8650634Y-12018146D01*
X8650634Y-12018146D02*
X8631586Y-12008622D01*
X8631586Y-12008622D02*
X8622063Y-11999098D01*
X8622063Y-11999098D02*
X8612539Y-11980051D01*
X8612539Y-11980051D02*
X8603015Y-11941955D01*
X8603015Y-11941955D02*
X8603015Y-11894336D01*
X8603015Y-11894336D02*
X8612539Y-11856241D01*
X8612539Y-11856241D02*
X8622063Y-11837193D01*
X8622063Y-11837193D02*
X8631586Y-11827670D01*
X8631586Y-11827670D02*
X8650634Y-11818146D01*
X8803015Y-11999098D02*
X8812539Y-12008622D01*
X8812539Y-12008622D02*
X8803015Y-12018146D01*
X8803015Y-12018146D02*
X8793491Y-12008622D01*
X8793491Y-12008622D02*
X8803015Y-11999098D01*
X8803015Y-11999098D02*
X8803015Y-12018146D01*
X8936348Y-11818146D02*
X8955396Y-11818146D01*
X8955396Y-11818146D02*
X8974444Y-11827670D01*
X8974444Y-11827670D02*
X8983967Y-11837193D01*
X8983967Y-11837193D02*
X8993491Y-11856241D01*
X8993491Y-11856241D02*
X9003015Y-11894336D01*
X9003015Y-11894336D02*
X9003015Y-11941955D01*
X9003015Y-11941955D02*
X8993491Y-11980051D01*
X8993491Y-11980051D02*
X8983967Y-11999098D01*
X8983967Y-11999098D02*
X8974444Y-12008622D01*
X8974444Y-12008622D02*
X8955396Y-12018146D01*
X8955396Y-12018146D02*
X8936348Y-12018146D01*
X8936348Y-12018146D02*
X8917301Y-12008622D01*
X8917301Y-12008622D02*
X8907777Y-11999098D01*
X8907777Y-11999098D02*
X8898253Y-11980051D01*
X8898253Y-11980051D02*
X8888729Y-11941955D01*
X8888729Y-11941955D02*
X8888729Y-11894336D01*
X8888729Y-11894336D02*
X8898253Y-11856241D01*
X8898253Y-11856241D02*
X8907777Y-11837193D01*
X8907777Y-11837193D02*
X8917301Y-11827670D01*
X8917301Y-11827670D02*
X8936348Y-11818146D01*
X9193491Y-12018146D02*
X9079205Y-12018146D01*
X9136348Y-12018146D02*
X9136348Y-11818146D01*
X9136348Y-11818146D02*
X9117301Y-11846717D01*
X9117301Y-11846717D02*
X9098253Y-11865765D01*
X9098253Y-11865765D02*
X9079205Y-11875289D01*
X9383967Y-12018146D02*
X9269682Y-12018146D01*
X9326824Y-12018146D02*
X9326824Y-11818146D01*
X9326824Y-11818146D02*
X9307777Y-11846717D01*
X9307777Y-11846717D02*
X9288729Y-11865765D01*
X9288729Y-11865765D02*
X9269682Y-11875289D01*
X9498253Y-11903860D02*
X9479205Y-11894336D01*
X9479205Y-11894336D02*
X9469682Y-11884812D01*
X9469682Y-11884812D02*
X9460158Y-11865765D01*
X9460158Y-11865765D02*
X9460158Y-11856241D01*
X9460158Y-11856241D02*
X9469682Y-11837193D01*
X9469682Y-11837193D02*
X9479205Y-11827670D01*
X9479205Y-11827670D02*
X9498253Y-11818146D01*
X9498253Y-11818146D02*
X9536348Y-11818146D01*
X9536348Y-11818146D02*
X9555396Y-11827670D01*
X9555396Y-11827670D02*
X9564920Y-11837193D01*
X9564920Y-11837193D02*
X9574444Y-11856241D01*
X9574444Y-11856241D02*
X9574444Y-11865765D01*
X9574444Y-11865765D02*
X9564920Y-11884812D01*
X9564920Y-11884812D02*
X9555396Y-11894336D01*
X9555396Y-11894336D02*
X9536348Y-11903860D01*
X9536348Y-11903860D02*
X9498253Y-11903860D01*
X9498253Y-11903860D02*
X9479205Y-11913384D01*
X9479205Y-11913384D02*
X9469682Y-11922908D01*
X9469682Y-11922908D02*
X9460158Y-11941955D01*
X9460158Y-11941955D02*
X9460158Y-11980051D01*
X9460158Y-11980051D02*
X9469682Y-11999098D01*
X9469682Y-11999098D02*
X9479205Y-12008622D01*
X9479205Y-12008622D02*
X9498253Y-12018146D01*
X9498253Y-12018146D02*
X9536348Y-12018146D01*
X9536348Y-12018146D02*
X9555396Y-12008622D01*
X9555396Y-12008622D02*
X9564920Y-11999098D01*
X9564920Y-11999098D02*
X9574444Y-11980051D01*
X9574444Y-11980051D02*
X9574444Y-11941955D01*
X9574444Y-11941955D02*
X9564920Y-11922908D01*
X9564920Y-11922908D02*
X9555396Y-11913384D01*
X9555396Y-11913384D02*
X9536348Y-11903860D01*
X9650634Y-11818146D02*
X9650634Y-11856241D01*
X9726825Y-11818146D02*
X9726825Y-11856241D01*
X10022063Y-12094336D02*
X10012539Y-12084812D01*
X10012539Y-12084812D02*
X9993491Y-12056241D01*
X9993491Y-12056241D02*
X9983967Y-12037193D01*
X9983967Y-12037193D02*
X9974444Y-12008622D01*
X9974444Y-12008622D02*
X9964920Y-11961003D01*
X9964920Y-11961003D02*
X9964920Y-11922908D01*
X9964920Y-11922908D02*
X9974444Y-11875289D01*
X9974444Y-11875289D02*
X9983967Y-11846717D01*
X9983967Y-11846717D02*
X9993491Y-11827670D01*
X9993491Y-11827670D02*
X10012539Y-11799098D01*
X10012539Y-11799098D02*
X10022063Y-11789574D01*
X10203015Y-12018146D02*
X10088729Y-12018146D01*
X10145872Y-12018146D02*
X10145872Y-11818146D01*
X10145872Y-11818146D02*
X10126825Y-11846717D01*
X10126825Y-11846717D02*
X10107777Y-11865765D01*
X10107777Y-11865765D02*
X10088729Y-11875289D01*
X10298253Y-12018146D02*
X10336348Y-12018146D01*
X10336348Y-12018146D02*
X10355396Y-12008622D01*
X10355396Y-12008622D02*
X10364920Y-11999098D01*
X10364920Y-11999098D02*
X10383967Y-11970527D01*
X10383967Y-11970527D02*
X10393491Y-11932432D01*
X10393491Y-11932432D02*
X10393491Y-11856241D01*
X10393491Y-11856241D02*
X10383967Y-11837193D01*
X10383967Y-11837193D02*
X10374444Y-11827670D01*
X10374444Y-11827670D02*
X10355396Y-11818146D01*
X10355396Y-11818146D02*
X10317301Y-11818146D01*
X10317301Y-11818146D02*
X10298253Y-11827670D01*
X10298253Y-11827670D02*
X10288729Y-11837193D01*
X10288729Y-11837193D02*
X10279206Y-11856241D01*
X10279206Y-11856241D02*
X10279206Y-11903860D01*
X10279206Y-11903860D02*
X10288729Y-11922908D01*
X10288729Y-11922908D02*
X10298253Y-11932432D01*
X10298253Y-11932432D02*
X10317301Y-11941955D01*
X10317301Y-11941955D02*
X10355396Y-11941955D01*
X10355396Y-11941955D02*
X10374444Y-11932432D01*
X10374444Y-11932432D02*
X10383967Y-11922908D01*
X10383967Y-11922908D02*
X10393491Y-11903860D01*
X10631587Y-12018146D02*
X10631587Y-11818146D01*
X10717301Y-12018146D02*
X10717301Y-11913384D01*
X10717301Y-11913384D02*
X10707777Y-11894336D01*
X10707777Y-11894336D02*
X10688729Y-11884812D01*
X10688729Y-11884812D02*
X10660158Y-11884812D01*
X10660158Y-11884812D02*
X10641110Y-11894336D01*
X10641110Y-11894336D02*
X10631587Y-11903860D01*
X10841110Y-12018146D02*
X10822063Y-12008622D01*
X10822063Y-12008622D02*
X10812539Y-11999098D01*
X10812539Y-11999098D02*
X10803015Y-11980051D01*
X10803015Y-11980051D02*
X10803015Y-11922908D01*
X10803015Y-11922908D02*
X10812539Y-11903860D01*
X10812539Y-11903860D02*
X10822063Y-11894336D01*
X10822063Y-11894336D02*
X10841110Y-11884812D01*
X10841110Y-11884812D02*
X10869682Y-11884812D01*
X10869682Y-11884812D02*
X10888729Y-11894336D01*
X10888729Y-11894336D02*
X10898253Y-11903860D01*
X10898253Y-11903860D02*
X10907777Y-11922908D01*
X10907777Y-11922908D02*
X10907777Y-11980051D01*
X10907777Y-11980051D02*
X10898253Y-11999098D01*
X10898253Y-11999098D02*
X10888729Y-12008622D01*
X10888729Y-12008622D02*
X10869682Y-12018146D01*
X10869682Y-12018146D02*
X10841110Y-12018146D01*
X11022063Y-12018146D02*
X11003015Y-12008622D01*
X11003015Y-12008622D02*
X10993491Y-11989574D01*
X10993491Y-11989574D02*
X10993491Y-11818146D01*
X11174444Y-12008622D02*
X11155396Y-12018146D01*
X11155396Y-12018146D02*
X11117301Y-12018146D01*
X11117301Y-12018146D02*
X11098253Y-12008622D01*
X11098253Y-12008622D02*
X11088729Y-11989574D01*
X11088729Y-11989574D02*
X11088729Y-11913384D01*
X11088729Y-11913384D02*
X11098253Y-11894336D01*
X11098253Y-11894336D02*
X11117301Y-11884812D01*
X11117301Y-11884812D02*
X11155396Y-11884812D01*
X11155396Y-11884812D02*
X11174444Y-11894336D01*
X11174444Y-11894336D02*
X11183968Y-11913384D01*
X11183968Y-11913384D02*
X11183968Y-11932432D01*
X11183968Y-11932432D02*
X11088729Y-11951479D01*
X11260158Y-12008622D02*
X11279206Y-12018146D01*
X11279206Y-12018146D02*
X11317301Y-12018146D01*
X11317301Y-12018146D02*
X11336348Y-12008622D01*
X11336348Y-12008622D02*
X11345872Y-11989574D01*
X11345872Y-11989574D02*
X11345872Y-11980051D01*
X11345872Y-11980051D02*
X11336348Y-11961003D01*
X11336348Y-11961003D02*
X11317301Y-11951479D01*
X11317301Y-11951479D02*
X11288729Y-11951479D01*
X11288729Y-11951479D02*
X11269682Y-11941955D01*
X11269682Y-11941955D02*
X11260158Y-11922908D01*
X11260158Y-11922908D02*
X11260158Y-11913384D01*
X11260158Y-11913384D02*
X11269682Y-11894336D01*
X11269682Y-11894336D02*
X11288729Y-11884812D01*
X11288729Y-11884812D02*
X11317301Y-11884812D01*
X11317301Y-11884812D02*
X11336348Y-11894336D01*
X11412539Y-12094336D02*
X11422063Y-12084812D01*
X11422063Y-12084812D02*
X11441110Y-12056241D01*
X11441110Y-12056241D02*
X11450634Y-12037193D01*
X11450634Y-12037193D02*
X11460158Y-12008622D01*
X11460158Y-12008622D02*
X11469682Y-11961003D01*
X11469682Y-11961003D02*
X11469682Y-11922908D01*
X11469682Y-11922908D02*
X11460158Y-11875289D01*
X11460158Y-11875289D02*
X11450634Y-11846717D01*
X11450634Y-11846717D02*
X11441110Y-11827670D01*
X11441110Y-11827670D02*
X11422063Y-11799098D01*
X11422063Y-11799098D02*
X11412539Y-11789574D01*
D10*
X6422000Y-12165662D02*
X6422000Y-12215662D01*
X6397000Y-12190662D02*
X6447000Y-12190662D01*
D11*
X6745872Y-12082146D02*
X6764919Y-12082146D01*
X6764919Y-12082146D02*
X6783967Y-12091670D01*
X6783967Y-12091670D02*
X6793491Y-12101193D01*
X6793491Y-12101193D02*
X6803015Y-12120241D01*
X6803015Y-12120241D02*
X6812538Y-12158336D01*
X6812538Y-12158336D02*
X6812538Y-12205955D01*
X6812538Y-12205955D02*
X6803015Y-12244051D01*
X6803015Y-12244051D02*
X6793491Y-12263098D01*
X6793491Y-12263098D02*
X6783967Y-12272622D01*
X6783967Y-12272622D02*
X6764919Y-12282146D01*
X6764919Y-12282146D02*
X6745872Y-12282146D01*
X6745872Y-12282146D02*
X6726824Y-12272622D01*
X6726824Y-12272622D02*
X6717300Y-12263098D01*
X6717300Y-12263098D02*
X6707777Y-12244051D01*
X6707777Y-12244051D02*
X6698253Y-12205955D01*
X6698253Y-12205955D02*
X6698253Y-12158336D01*
X6698253Y-12158336D02*
X6707777Y-12120241D01*
X6707777Y-12120241D02*
X6717300Y-12101193D01*
X6717300Y-12101193D02*
X6726824Y-12091670D01*
X6726824Y-12091670D02*
X6745872Y-12082146D01*
X6898253Y-12263098D02*
X6907777Y-12272622D01*
X6907777Y-12272622D02*
X6898253Y-12282146D01*
X6898253Y-12282146D02*
X6888729Y-12272622D01*
X6888729Y-12272622D02*
X6898253Y-12263098D01*
X6898253Y-12263098D02*
X6898253Y-12282146D01*
X7088729Y-12082146D02*
X6993491Y-12082146D01*
X6993491Y-12082146D02*
X6983967Y-12177384D01*
X6983967Y-12177384D02*
X6993491Y-12167860D01*
X6993491Y-12167860D02*
X7012538Y-12158336D01*
X7012538Y-12158336D02*
X7060158Y-12158336D01*
X7060158Y-12158336D02*
X7079205Y-12167860D01*
X7079205Y-12167860D02*
X7088729Y-12177384D01*
X7088729Y-12177384D02*
X7098253Y-12196432D01*
X7098253Y-12196432D02*
X7098253Y-12244051D01*
X7098253Y-12244051D02*
X7088729Y-12263098D01*
X7088729Y-12263098D02*
X7079205Y-12272622D01*
X7079205Y-12272622D02*
X7060158Y-12282146D01*
X7060158Y-12282146D02*
X7012538Y-12282146D01*
X7012538Y-12282146D02*
X6993491Y-12272622D01*
X6993491Y-12272622D02*
X6983967Y-12263098D01*
X7222062Y-12082146D02*
X7241110Y-12082146D01*
X7241110Y-12082146D02*
X7260158Y-12091670D01*
X7260158Y-12091670D02*
X7269681Y-12101193D01*
X7269681Y-12101193D02*
X7279205Y-12120241D01*
X7279205Y-12120241D02*
X7288729Y-12158336D01*
X7288729Y-12158336D02*
X7288729Y-12205955D01*
X7288729Y-12205955D02*
X7279205Y-12244051D01*
X7279205Y-12244051D02*
X7269681Y-12263098D01*
X7269681Y-12263098D02*
X7260158Y-12272622D01*
X7260158Y-12272622D02*
X7241110Y-12282146D01*
X7241110Y-12282146D02*
X7222062Y-12282146D01*
X7222062Y-12282146D02*
X7203015Y-12272622D01*
X7203015Y-12272622D02*
X7193491Y-12263098D01*
X7193491Y-12263098D02*
X7183967Y-12244051D01*
X7183967Y-12244051D02*
X7174443Y-12205955D01*
X7174443Y-12205955D02*
X7174443Y-12158336D01*
X7174443Y-12158336D02*
X7183967Y-12120241D01*
X7183967Y-12120241D02*
X7193491Y-12101193D01*
X7193491Y-12101193D02*
X7203015Y-12091670D01*
X7203015Y-12091670D02*
X7222062Y-12082146D01*
X7412538Y-12082146D02*
X7431586Y-12082146D01*
X7431586Y-12082146D02*
X7450634Y-12091670D01*
X7450634Y-12091670D02*
X7460158Y-12101193D01*
X7460158Y-12101193D02*
X7469681Y-12120241D01*
X7469681Y-12120241D02*
X7479205Y-12158336D01*
X7479205Y-12158336D02*
X7479205Y-12205955D01*
X7479205Y-12205955D02*
X7469681Y-12244051D01*
X7469681Y-12244051D02*
X7460158Y-12263098D01*
X7460158Y-12263098D02*
X7450634Y-12272622D01*
X7450634Y-12272622D02*
X7431586Y-12282146D01*
X7431586Y-12282146D02*
X7412538Y-12282146D01*
X7412538Y-12282146D02*
X7393491Y-12272622D01*
X7393491Y-12272622D02*
X7383967Y-12263098D01*
X7383967Y-12263098D02*
X7374443Y-12244051D01*
X7374443Y-12244051D02*
X7364919Y-12205955D01*
X7364919Y-12205955D02*
X7364919Y-12158336D01*
X7364919Y-12158336D02*
X7374443Y-12120241D01*
X7374443Y-12120241D02*
X7383967Y-12101193D01*
X7383967Y-12101193D02*
X7393491Y-12091670D01*
X7393491Y-12091670D02*
X7412538Y-12082146D01*
X7564919Y-12282146D02*
X7564919Y-12148812D01*
X7564919Y-12167860D02*
X7574443Y-12158336D01*
X7574443Y-12158336D02*
X7593491Y-12148812D01*
X7593491Y-12148812D02*
X7622062Y-12148812D01*
X7622062Y-12148812D02*
X7641110Y-12158336D01*
X7641110Y-12158336D02*
X7650634Y-12177384D01*
X7650634Y-12177384D02*
X7650634Y-12282146D01*
X7650634Y-12177384D02*
X7660158Y-12158336D01*
X7660158Y-12158336D02*
X7679205Y-12148812D01*
X7679205Y-12148812D02*
X7707777Y-12148812D01*
X7707777Y-12148812D02*
X7726824Y-12158336D01*
X7726824Y-12158336D02*
X7736348Y-12177384D01*
X7736348Y-12177384D02*
X7736348Y-12282146D01*
X7831586Y-12282146D02*
X7831586Y-12148812D01*
X7831586Y-12167860D02*
X7841110Y-12158336D01*
X7841110Y-12158336D02*
X7860158Y-12148812D01*
X7860158Y-12148812D02*
X7888729Y-12148812D01*
X7888729Y-12148812D02*
X7907777Y-12158336D01*
X7907777Y-12158336D02*
X7917300Y-12177384D01*
X7917300Y-12177384D02*
X7917300Y-12282146D01*
X7917300Y-12177384D02*
X7926824Y-12158336D01*
X7926824Y-12158336D02*
X7945872Y-12148812D01*
X7945872Y-12148812D02*
X7974443Y-12148812D01*
X7974443Y-12148812D02*
X7993491Y-12158336D01*
X7993491Y-12158336D02*
X8003015Y-12177384D01*
X8003015Y-12177384D02*
X8003015Y-12282146D01*
X8393491Y-12072622D02*
X8222062Y-12329765D01*
X8650634Y-12082146D02*
X8669682Y-12082146D01*
X8669682Y-12082146D02*
X8688729Y-12091670D01*
X8688729Y-12091670D02*
X8698253Y-12101193D01*
X8698253Y-12101193D02*
X8707777Y-12120241D01*
X8707777Y-12120241D02*
X8717301Y-12158336D01*
X8717301Y-12158336D02*
X8717301Y-12205955D01*
X8717301Y-12205955D02*
X8707777Y-12244051D01*
X8707777Y-12244051D02*
X8698253Y-12263098D01*
X8698253Y-12263098D02*
X8688729Y-12272622D01*
X8688729Y-12272622D02*
X8669682Y-12282146D01*
X8669682Y-12282146D02*
X8650634Y-12282146D01*
X8650634Y-12282146D02*
X8631586Y-12272622D01*
X8631586Y-12272622D02*
X8622063Y-12263098D01*
X8622063Y-12263098D02*
X8612539Y-12244051D01*
X8612539Y-12244051D02*
X8603015Y-12205955D01*
X8603015Y-12205955D02*
X8603015Y-12158336D01*
X8603015Y-12158336D02*
X8612539Y-12120241D01*
X8612539Y-12120241D02*
X8622063Y-12101193D01*
X8622063Y-12101193D02*
X8631586Y-12091670D01*
X8631586Y-12091670D02*
X8650634Y-12082146D01*
X8803015Y-12263098D02*
X8812539Y-12272622D01*
X8812539Y-12272622D02*
X8803015Y-12282146D01*
X8803015Y-12282146D02*
X8793491Y-12272622D01*
X8793491Y-12272622D02*
X8803015Y-12263098D01*
X8803015Y-12263098D02*
X8803015Y-12282146D01*
X8936348Y-12082146D02*
X8955396Y-12082146D01*
X8955396Y-12082146D02*
X8974444Y-12091670D01*
X8974444Y-12091670D02*
X8983967Y-12101193D01*
X8983967Y-12101193D02*
X8993491Y-12120241D01*
X8993491Y-12120241D02*
X9003015Y-12158336D01*
X9003015Y-12158336D02*
X9003015Y-12205955D01*
X9003015Y-12205955D02*
X8993491Y-12244051D01*
X8993491Y-12244051D02*
X8983967Y-12263098D01*
X8983967Y-12263098D02*
X8974444Y-12272622D01*
X8974444Y-12272622D02*
X8955396Y-12282146D01*
X8955396Y-12282146D02*
X8936348Y-12282146D01*
X8936348Y-12282146D02*
X8917301Y-12272622D01*
X8917301Y-12272622D02*
X8907777Y-12263098D01*
X8907777Y-12263098D02*
X8898253Y-12244051D01*
X8898253Y-12244051D02*
X8888729Y-12205955D01*
X8888729Y-12205955D02*
X8888729Y-12158336D01*
X8888729Y-12158336D02*
X8898253Y-12120241D01*
X8898253Y-12120241D02*
X8907777Y-12101193D01*
X8907777Y-12101193D02*
X8917301Y-12091670D01*
X8917301Y-12091670D02*
X8936348Y-12082146D01*
X9193491Y-12282146D02*
X9079205Y-12282146D01*
X9136348Y-12282146D02*
X9136348Y-12082146D01*
X9136348Y-12082146D02*
X9117301Y-12110717D01*
X9117301Y-12110717D02*
X9098253Y-12129765D01*
X9098253Y-12129765D02*
X9079205Y-12139289D01*
X9288729Y-12282146D02*
X9326824Y-12282146D01*
X9326824Y-12282146D02*
X9345872Y-12272622D01*
X9345872Y-12272622D02*
X9355396Y-12263098D01*
X9355396Y-12263098D02*
X9374444Y-12234527D01*
X9374444Y-12234527D02*
X9383967Y-12196432D01*
X9383967Y-12196432D02*
X9383967Y-12120241D01*
X9383967Y-12120241D02*
X9374444Y-12101193D01*
X9374444Y-12101193D02*
X9364920Y-12091670D01*
X9364920Y-12091670D02*
X9345872Y-12082146D01*
X9345872Y-12082146D02*
X9307777Y-12082146D01*
X9307777Y-12082146D02*
X9288729Y-12091670D01*
X9288729Y-12091670D02*
X9279205Y-12101193D01*
X9279205Y-12101193D02*
X9269682Y-12120241D01*
X9269682Y-12120241D02*
X9269682Y-12167860D01*
X9269682Y-12167860D02*
X9279205Y-12186908D01*
X9279205Y-12186908D02*
X9288729Y-12196432D01*
X9288729Y-12196432D02*
X9307777Y-12205955D01*
X9307777Y-12205955D02*
X9345872Y-12205955D01*
X9345872Y-12205955D02*
X9364920Y-12196432D01*
X9364920Y-12196432D02*
X9374444Y-12186908D01*
X9374444Y-12186908D02*
X9383967Y-12167860D01*
X9450634Y-12082146D02*
X9583967Y-12082146D01*
X9583967Y-12082146D02*
X9498253Y-12282146D01*
X9650634Y-12082146D02*
X9650634Y-12120241D01*
X9726825Y-12082146D02*
X9726825Y-12120241D01*
X10022063Y-12358336D02*
X10012539Y-12348812D01*
X10012539Y-12348812D02*
X9993491Y-12320241D01*
X9993491Y-12320241D02*
X9983967Y-12301193D01*
X9983967Y-12301193D02*
X9974444Y-12272622D01*
X9974444Y-12272622D02*
X9964920Y-12225003D01*
X9964920Y-12225003D02*
X9964920Y-12186908D01*
X9964920Y-12186908D02*
X9974444Y-12139289D01*
X9974444Y-12139289D02*
X9983967Y-12110717D01*
X9983967Y-12110717D02*
X9993491Y-12091670D01*
X9993491Y-12091670D02*
X10012539Y-12063098D01*
X10012539Y-12063098D02*
X10022063Y-12053574D01*
X10193491Y-12082146D02*
X10098253Y-12082146D01*
X10098253Y-12082146D02*
X10088729Y-12177384D01*
X10088729Y-12177384D02*
X10098253Y-12167860D01*
X10098253Y-12167860D02*
X10117301Y-12158336D01*
X10117301Y-12158336D02*
X10164920Y-12158336D01*
X10164920Y-12158336D02*
X10183967Y-12167860D01*
X10183967Y-12167860D02*
X10193491Y-12177384D01*
X10193491Y-12177384D02*
X10203015Y-12196432D01*
X10203015Y-12196432D02*
X10203015Y-12244051D01*
X10203015Y-12244051D02*
X10193491Y-12263098D01*
X10193491Y-12263098D02*
X10183967Y-12272622D01*
X10183967Y-12272622D02*
X10164920Y-12282146D01*
X10164920Y-12282146D02*
X10117301Y-12282146D01*
X10117301Y-12282146D02*
X10098253Y-12272622D01*
X10098253Y-12272622D02*
X10088729Y-12263098D01*
X10269682Y-12082146D02*
X10393491Y-12082146D01*
X10393491Y-12082146D02*
X10326825Y-12158336D01*
X10326825Y-12158336D02*
X10355396Y-12158336D01*
X10355396Y-12158336D02*
X10374444Y-12167860D01*
X10374444Y-12167860D02*
X10383967Y-12177384D01*
X10383967Y-12177384D02*
X10393491Y-12196432D01*
X10393491Y-12196432D02*
X10393491Y-12244051D01*
X10393491Y-12244051D02*
X10383967Y-12263098D01*
X10383967Y-12263098D02*
X10374444Y-12272622D01*
X10374444Y-12272622D02*
X10355396Y-12282146D01*
X10355396Y-12282146D02*
X10298253Y-12282146D01*
X10298253Y-12282146D02*
X10279206Y-12272622D01*
X10279206Y-12272622D02*
X10269682Y-12263098D01*
X10631587Y-12282146D02*
X10631587Y-12082146D01*
X10717301Y-12282146D02*
X10717301Y-12177384D01*
X10717301Y-12177384D02*
X10707777Y-12158336D01*
X10707777Y-12158336D02*
X10688729Y-12148812D01*
X10688729Y-12148812D02*
X10660158Y-12148812D01*
X10660158Y-12148812D02*
X10641110Y-12158336D01*
X10641110Y-12158336D02*
X10631587Y-12167860D01*
X10841110Y-12282146D02*
X10822063Y-12272622D01*
X10822063Y-12272622D02*
X10812539Y-12263098D01*
X10812539Y-12263098D02*
X10803015Y-12244051D01*
X10803015Y-12244051D02*
X10803015Y-12186908D01*
X10803015Y-12186908D02*
X10812539Y-12167860D01*
X10812539Y-12167860D02*
X10822063Y-12158336D01*
X10822063Y-12158336D02*
X10841110Y-12148812D01*
X10841110Y-12148812D02*
X10869682Y-12148812D01*
X10869682Y-12148812D02*
X10888729Y-12158336D01*
X10888729Y-12158336D02*
X10898253Y-12167860D01*
X10898253Y-12167860D02*
X10907777Y-12186908D01*
X10907777Y-12186908D02*
X10907777Y-12244051D01*
X10907777Y-12244051D02*
X10898253Y-12263098D01*
X10898253Y-12263098D02*
X10888729Y-12272622D01*
X10888729Y-12272622D02*
X10869682Y-12282146D01*
X10869682Y-12282146D02*
X10841110Y-12282146D01*
X11022063Y-12282146D02*
X11003015Y-12272622D01*
X11003015Y-12272622D02*
X10993491Y-12253574D01*
X10993491Y-12253574D02*
X10993491Y-12082146D01*
X11174444Y-12272622D02*
X11155396Y-12282146D01*
X11155396Y-12282146D02*
X11117301Y-12282146D01*
X11117301Y-12282146D02*
X11098253Y-12272622D01*
X11098253Y-12272622D02*
X11088729Y-12253574D01*
X11088729Y-12253574D02*
X11088729Y-12177384D01*
X11088729Y-12177384D02*
X11098253Y-12158336D01*
X11098253Y-12158336D02*
X11117301Y-12148812D01*
X11117301Y-12148812D02*
X11155396Y-12148812D01*
X11155396Y-12148812D02*
X11174444Y-12158336D01*
X11174444Y-12158336D02*
X11183968Y-12177384D01*
X11183968Y-12177384D02*
X11183968Y-12196432D01*
X11183968Y-12196432D02*
X11088729Y-12215479D01*
X11260158Y-12272622D02*
X11279206Y-12282146D01*
X11279206Y-12282146D02*
X11317301Y-12282146D01*
X11317301Y-12282146D02*
X11336348Y-12272622D01*
X11336348Y-12272622D02*
X11345872Y-12253574D01*
X11345872Y-12253574D02*
X11345872Y-12244051D01*
X11345872Y-12244051D02*
X11336348Y-12225003D01*
X11336348Y-12225003D02*
X11317301Y-12215479D01*
X11317301Y-12215479D02*
X11288729Y-12215479D01*
X11288729Y-12215479D02*
X11269682Y-12205955D01*
X11269682Y-12205955D02*
X11260158Y-12186908D01*
X11260158Y-12186908D02*
X11260158Y-12177384D01*
X11260158Y-12177384D02*
X11269682Y-12158336D01*
X11269682Y-12158336D02*
X11288729Y-12148812D01*
X11288729Y-12148812D02*
X11317301Y-12148812D01*
X11317301Y-12148812D02*
X11336348Y-12158336D01*
X11412539Y-12358336D02*
X11422063Y-12348812D01*
X11422063Y-12348812D02*
X11441110Y-12320241D01*
X11441110Y-12320241D02*
X11450634Y-12301193D01*
X11450634Y-12301193D02*
X11460158Y-12272622D01*
X11460158Y-12272622D02*
X11469682Y-12225003D01*
X11469682Y-12225003D02*
X11469682Y-12186908D01*
X11469682Y-12186908D02*
X11460158Y-12139289D01*
X11460158Y-12139289D02*
X11450634Y-12110717D01*
X11450634Y-12110717D02*
X11441110Y-12091670D01*
X11441110Y-12091670D02*
X11422063Y-12063098D01*
X11422063Y-12063098D02*
X11412539Y-12053574D01*
D10*
X6439678Y-12472340D02*
X6439678Y-12436984D01*
X6404322Y-12436984D01*
X6404322Y-12472340D01*
X6439678Y-12472340D01*
D11*
X6745872Y-12346146D02*
X6764919Y-12346146D01*
X6764919Y-12346146D02*
X6783967Y-12355670D01*
X6783967Y-12355670D02*
X6793491Y-12365193D01*
X6793491Y-12365193D02*
X6803015Y-12384241D01*
X6803015Y-12384241D02*
X6812538Y-12422336D01*
X6812538Y-12422336D02*
X6812538Y-12469955D01*
X6812538Y-12469955D02*
X6803015Y-12508051D01*
X6803015Y-12508051D02*
X6793491Y-12527098D01*
X6793491Y-12527098D02*
X6783967Y-12536622D01*
X6783967Y-12536622D02*
X6764919Y-12546146D01*
X6764919Y-12546146D02*
X6745872Y-12546146D01*
X6745872Y-12546146D02*
X6726824Y-12536622D01*
X6726824Y-12536622D02*
X6717300Y-12527098D01*
X6717300Y-12527098D02*
X6707777Y-12508051D01*
X6707777Y-12508051D02*
X6698253Y-12469955D01*
X6698253Y-12469955D02*
X6698253Y-12422336D01*
X6698253Y-12422336D02*
X6707777Y-12384241D01*
X6707777Y-12384241D02*
X6717300Y-12365193D01*
X6717300Y-12365193D02*
X6726824Y-12355670D01*
X6726824Y-12355670D02*
X6745872Y-12346146D01*
X6898253Y-12527098D02*
X6907777Y-12536622D01*
X6907777Y-12536622D02*
X6898253Y-12546146D01*
X6898253Y-12546146D02*
X6888729Y-12536622D01*
X6888729Y-12536622D02*
X6898253Y-12527098D01*
X6898253Y-12527098D02*
X6898253Y-12546146D01*
X7088729Y-12346146D02*
X6993491Y-12346146D01*
X6993491Y-12346146D02*
X6983967Y-12441384D01*
X6983967Y-12441384D02*
X6993491Y-12431860D01*
X6993491Y-12431860D02*
X7012538Y-12422336D01*
X7012538Y-12422336D02*
X7060158Y-12422336D01*
X7060158Y-12422336D02*
X7079205Y-12431860D01*
X7079205Y-12431860D02*
X7088729Y-12441384D01*
X7088729Y-12441384D02*
X7098253Y-12460432D01*
X7098253Y-12460432D02*
X7098253Y-12508051D01*
X7098253Y-12508051D02*
X7088729Y-12527098D01*
X7088729Y-12527098D02*
X7079205Y-12536622D01*
X7079205Y-12536622D02*
X7060158Y-12546146D01*
X7060158Y-12546146D02*
X7012538Y-12546146D01*
X7012538Y-12546146D02*
X6993491Y-12536622D01*
X6993491Y-12536622D02*
X6983967Y-12527098D01*
X7222062Y-12346146D02*
X7241110Y-12346146D01*
X7241110Y-12346146D02*
X7260158Y-12355670D01*
X7260158Y-12355670D02*
X7269681Y-12365193D01*
X7269681Y-12365193D02*
X7279205Y-12384241D01*
X7279205Y-12384241D02*
X7288729Y-12422336D01*
X7288729Y-12422336D02*
X7288729Y-12469955D01*
X7288729Y-12469955D02*
X7279205Y-12508051D01*
X7279205Y-12508051D02*
X7269681Y-12527098D01*
X7269681Y-12527098D02*
X7260158Y-12536622D01*
X7260158Y-12536622D02*
X7241110Y-12546146D01*
X7241110Y-12546146D02*
X7222062Y-12546146D01*
X7222062Y-12546146D02*
X7203015Y-12536622D01*
X7203015Y-12536622D02*
X7193491Y-12527098D01*
X7193491Y-12527098D02*
X7183967Y-12508051D01*
X7183967Y-12508051D02*
X7174443Y-12469955D01*
X7174443Y-12469955D02*
X7174443Y-12422336D01*
X7174443Y-12422336D02*
X7183967Y-12384241D01*
X7183967Y-12384241D02*
X7193491Y-12365193D01*
X7193491Y-12365193D02*
X7203015Y-12355670D01*
X7203015Y-12355670D02*
X7222062Y-12346146D01*
X7412538Y-12346146D02*
X7431586Y-12346146D01*
X7431586Y-12346146D02*
X7450634Y-12355670D01*
X7450634Y-12355670D02*
X7460158Y-12365193D01*
X7460158Y-12365193D02*
X7469681Y-12384241D01*
X7469681Y-12384241D02*
X7479205Y-12422336D01*
X7479205Y-12422336D02*
X7479205Y-12469955D01*
X7479205Y-12469955D02*
X7469681Y-12508051D01*
X7469681Y-12508051D02*
X7460158Y-12527098D01*
X7460158Y-12527098D02*
X7450634Y-12536622D01*
X7450634Y-12536622D02*
X7431586Y-12546146D01*
X7431586Y-12546146D02*
X7412538Y-12546146D01*
X7412538Y-12546146D02*
X7393491Y-12536622D01*
X7393491Y-12536622D02*
X7383967Y-12527098D01*
X7383967Y-12527098D02*
X7374443Y-12508051D01*
X7374443Y-12508051D02*
X7364919Y-12469955D01*
X7364919Y-12469955D02*
X7364919Y-12422336D01*
X7364919Y-12422336D02*
X7374443Y-12384241D01*
X7374443Y-12384241D02*
X7383967Y-12365193D01*
X7383967Y-12365193D02*
X7393491Y-12355670D01*
X7393491Y-12355670D02*
X7412538Y-12346146D01*
X7564919Y-12546146D02*
X7564919Y-12412812D01*
X7564919Y-12431860D02*
X7574443Y-12422336D01*
X7574443Y-12422336D02*
X7593491Y-12412812D01*
X7593491Y-12412812D02*
X7622062Y-12412812D01*
X7622062Y-12412812D02*
X7641110Y-12422336D01*
X7641110Y-12422336D02*
X7650634Y-12441384D01*
X7650634Y-12441384D02*
X7650634Y-12546146D01*
X7650634Y-12441384D02*
X7660158Y-12422336D01*
X7660158Y-12422336D02*
X7679205Y-12412812D01*
X7679205Y-12412812D02*
X7707777Y-12412812D01*
X7707777Y-12412812D02*
X7726824Y-12422336D01*
X7726824Y-12422336D02*
X7736348Y-12441384D01*
X7736348Y-12441384D02*
X7736348Y-12546146D01*
X7831586Y-12546146D02*
X7831586Y-12412812D01*
X7831586Y-12431860D02*
X7841110Y-12422336D01*
X7841110Y-12422336D02*
X7860158Y-12412812D01*
X7860158Y-12412812D02*
X7888729Y-12412812D01*
X7888729Y-12412812D02*
X7907777Y-12422336D01*
X7907777Y-12422336D02*
X7917300Y-12441384D01*
X7917300Y-12441384D02*
X7917300Y-12546146D01*
X7917300Y-12441384D02*
X7926824Y-12422336D01*
X7926824Y-12422336D02*
X7945872Y-12412812D01*
X7945872Y-12412812D02*
X7974443Y-12412812D01*
X7974443Y-12412812D02*
X7993491Y-12422336D01*
X7993491Y-12422336D02*
X8003015Y-12441384D01*
X8003015Y-12441384D02*
X8003015Y-12546146D01*
X8393491Y-12336622D02*
X8222062Y-12593765D01*
X8650634Y-12346146D02*
X8669682Y-12346146D01*
X8669682Y-12346146D02*
X8688729Y-12355670D01*
X8688729Y-12355670D02*
X8698253Y-12365193D01*
X8698253Y-12365193D02*
X8707777Y-12384241D01*
X8707777Y-12384241D02*
X8717301Y-12422336D01*
X8717301Y-12422336D02*
X8717301Y-12469955D01*
X8717301Y-12469955D02*
X8707777Y-12508051D01*
X8707777Y-12508051D02*
X8698253Y-12527098D01*
X8698253Y-12527098D02*
X8688729Y-12536622D01*
X8688729Y-12536622D02*
X8669682Y-12546146D01*
X8669682Y-12546146D02*
X8650634Y-12546146D01*
X8650634Y-12546146D02*
X8631586Y-12536622D01*
X8631586Y-12536622D02*
X8622063Y-12527098D01*
X8622063Y-12527098D02*
X8612539Y-12508051D01*
X8612539Y-12508051D02*
X8603015Y-12469955D01*
X8603015Y-12469955D02*
X8603015Y-12422336D01*
X8603015Y-12422336D02*
X8612539Y-12384241D01*
X8612539Y-12384241D02*
X8622063Y-12365193D01*
X8622063Y-12365193D02*
X8631586Y-12355670D01*
X8631586Y-12355670D02*
X8650634Y-12346146D01*
X8803015Y-12527098D02*
X8812539Y-12536622D01*
X8812539Y-12536622D02*
X8803015Y-12546146D01*
X8803015Y-12546146D02*
X8793491Y-12536622D01*
X8793491Y-12536622D02*
X8803015Y-12527098D01*
X8803015Y-12527098D02*
X8803015Y-12546146D01*
X8936348Y-12346146D02*
X8955396Y-12346146D01*
X8955396Y-12346146D02*
X8974444Y-12355670D01*
X8974444Y-12355670D02*
X8983967Y-12365193D01*
X8983967Y-12365193D02*
X8993491Y-12384241D01*
X8993491Y-12384241D02*
X9003015Y-12422336D01*
X9003015Y-12422336D02*
X9003015Y-12469955D01*
X9003015Y-12469955D02*
X8993491Y-12508051D01*
X8993491Y-12508051D02*
X8983967Y-12527098D01*
X8983967Y-12527098D02*
X8974444Y-12536622D01*
X8974444Y-12536622D02*
X8955396Y-12546146D01*
X8955396Y-12546146D02*
X8936348Y-12546146D01*
X8936348Y-12546146D02*
X8917301Y-12536622D01*
X8917301Y-12536622D02*
X8907777Y-12527098D01*
X8907777Y-12527098D02*
X8898253Y-12508051D01*
X8898253Y-12508051D02*
X8888729Y-12469955D01*
X8888729Y-12469955D02*
X8888729Y-12422336D01*
X8888729Y-12422336D02*
X8898253Y-12384241D01*
X8898253Y-12384241D02*
X8907777Y-12365193D01*
X8907777Y-12365193D02*
X8917301Y-12355670D01*
X8917301Y-12355670D02*
X8936348Y-12346146D01*
X9193491Y-12546146D02*
X9079205Y-12546146D01*
X9136348Y-12546146D02*
X9136348Y-12346146D01*
X9136348Y-12346146D02*
X9117301Y-12374717D01*
X9117301Y-12374717D02*
X9098253Y-12393765D01*
X9098253Y-12393765D02*
X9079205Y-12403289D01*
X9288729Y-12546146D02*
X9326824Y-12546146D01*
X9326824Y-12546146D02*
X9345872Y-12536622D01*
X9345872Y-12536622D02*
X9355396Y-12527098D01*
X9355396Y-12527098D02*
X9374444Y-12498527D01*
X9374444Y-12498527D02*
X9383967Y-12460432D01*
X9383967Y-12460432D02*
X9383967Y-12384241D01*
X9383967Y-12384241D02*
X9374444Y-12365193D01*
X9374444Y-12365193D02*
X9364920Y-12355670D01*
X9364920Y-12355670D02*
X9345872Y-12346146D01*
X9345872Y-12346146D02*
X9307777Y-12346146D01*
X9307777Y-12346146D02*
X9288729Y-12355670D01*
X9288729Y-12355670D02*
X9279205Y-12365193D01*
X9279205Y-12365193D02*
X9269682Y-12384241D01*
X9269682Y-12384241D02*
X9269682Y-12431860D01*
X9269682Y-12431860D02*
X9279205Y-12450908D01*
X9279205Y-12450908D02*
X9288729Y-12460432D01*
X9288729Y-12460432D02*
X9307777Y-12469955D01*
X9307777Y-12469955D02*
X9345872Y-12469955D01*
X9345872Y-12469955D02*
X9364920Y-12460432D01*
X9364920Y-12460432D02*
X9374444Y-12450908D01*
X9374444Y-12450908D02*
X9383967Y-12431860D01*
X9450634Y-12346146D02*
X9583967Y-12346146D01*
X9583967Y-12346146D02*
X9498253Y-12546146D01*
X9650634Y-12346146D02*
X9650634Y-12384241D01*
X9726825Y-12346146D02*
X9726825Y-12384241D01*
X10022063Y-12622336D02*
X10012539Y-12612812D01*
X10012539Y-12612812D02*
X9993491Y-12584241D01*
X9993491Y-12584241D02*
X9983967Y-12565193D01*
X9983967Y-12565193D02*
X9974444Y-12536622D01*
X9974444Y-12536622D02*
X9964920Y-12489003D01*
X9964920Y-12489003D02*
X9964920Y-12450908D01*
X9964920Y-12450908D02*
X9974444Y-12403289D01*
X9974444Y-12403289D02*
X9983967Y-12374717D01*
X9983967Y-12374717D02*
X9993491Y-12355670D01*
X9993491Y-12355670D02*
X10012539Y-12327098D01*
X10012539Y-12327098D02*
X10022063Y-12317574D01*
X10136348Y-12346146D02*
X10155396Y-12346146D01*
X10155396Y-12346146D02*
X10174444Y-12355670D01*
X10174444Y-12355670D02*
X10183967Y-12365193D01*
X10183967Y-12365193D02*
X10193491Y-12384241D01*
X10193491Y-12384241D02*
X10203015Y-12422336D01*
X10203015Y-12422336D02*
X10203015Y-12469955D01*
X10203015Y-12469955D02*
X10193491Y-12508051D01*
X10193491Y-12508051D02*
X10183967Y-12527098D01*
X10183967Y-12527098D02*
X10174444Y-12536622D01*
X10174444Y-12536622D02*
X10155396Y-12546146D01*
X10155396Y-12546146D02*
X10136348Y-12546146D01*
X10136348Y-12546146D02*
X10117301Y-12536622D01*
X10117301Y-12536622D02*
X10107777Y-12527098D01*
X10107777Y-12527098D02*
X10098253Y-12508051D01*
X10098253Y-12508051D02*
X10088729Y-12469955D01*
X10088729Y-12469955D02*
X10088729Y-12422336D01*
X10088729Y-12422336D02*
X10098253Y-12384241D01*
X10098253Y-12384241D02*
X10107777Y-12365193D01*
X10107777Y-12365193D02*
X10117301Y-12355670D01*
X10117301Y-12355670D02*
X10136348Y-12346146D01*
X10441110Y-12546146D02*
X10441110Y-12346146D01*
X10526825Y-12546146D02*
X10526825Y-12441384D01*
X10526825Y-12441384D02*
X10517301Y-12422336D01*
X10517301Y-12422336D02*
X10498253Y-12412812D01*
X10498253Y-12412812D02*
X10469682Y-12412812D01*
X10469682Y-12412812D02*
X10450634Y-12422336D01*
X10450634Y-12422336D02*
X10441110Y-12431860D01*
X10650634Y-12546146D02*
X10631587Y-12536622D01*
X10631587Y-12536622D02*
X10622063Y-12527098D01*
X10622063Y-12527098D02*
X10612539Y-12508051D01*
X10612539Y-12508051D02*
X10612539Y-12450908D01*
X10612539Y-12450908D02*
X10622063Y-12431860D01*
X10622063Y-12431860D02*
X10631587Y-12422336D01*
X10631587Y-12422336D02*
X10650634Y-12412812D01*
X10650634Y-12412812D02*
X10679206Y-12412812D01*
X10679206Y-12412812D02*
X10698253Y-12422336D01*
X10698253Y-12422336D02*
X10707777Y-12431860D01*
X10707777Y-12431860D02*
X10717301Y-12450908D01*
X10717301Y-12450908D02*
X10717301Y-12508051D01*
X10717301Y-12508051D02*
X10707777Y-12527098D01*
X10707777Y-12527098D02*
X10698253Y-12536622D01*
X10698253Y-12536622D02*
X10679206Y-12546146D01*
X10679206Y-12546146D02*
X10650634Y-12546146D01*
X10831587Y-12546146D02*
X10812539Y-12536622D01*
X10812539Y-12536622D02*
X10803015Y-12517574D01*
X10803015Y-12517574D02*
X10803015Y-12346146D01*
X10983968Y-12536622D02*
X10964920Y-12546146D01*
X10964920Y-12546146D02*
X10926825Y-12546146D01*
X10926825Y-12546146D02*
X10907777Y-12536622D01*
X10907777Y-12536622D02*
X10898253Y-12517574D01*
X10898253Y-12517574D02*
X10898253Y-12441384D01*
X10898253Y-12441384D02*
X10907777Y-12422336D01*
X10907777Y-12422336D02*
X10926825Y-12412812D01*
X10926825Y-12412812D02*
X10964920Y-12412812D01*
X10964920Y-12412812D02*
X10983968Y-12422336D01*
X10983968Y-12422336D02*
X10993491Y-12441384D01*
X10993491Y-12441384D02*
X10993491Y-12460432D01*
X10993491Y-12460432D02*
X10898253Y-12479479D01*
X11069682Y-12536622D02*
X11088729Y-12546146D01*
X11088729Y-12546146D02*
X11126825Y-12546146D01*
X11126825Y-12546146D02*
X11145872Y-12536622D01*
X11145872Y-12536622D02*
X11155396Y-12517574D01*
X11155396Y-12517574D02*
X11155396Y-12508051D01*
X11155396Y-12508051D02*
X11145872Y-12489003D01*
X11145872Y-12489003D02*
X11126825Y-12479479D01*
X11126825Y-12479479D02*
X11098253Y-12479479D01*
X11098253Y-12479479D02*
X11079206Y-12469955D01*
X11079206Y-12469955D02*
X11069682Y-12450908D01*
X11069682Y-12450908D02*
X11069682Y-12441384D01*
X11069682Y-12441384D02*
X11079206Y-12422336D01*
X11079206Y-12422336D02*
X11098253Y-12412812D01*
X11098253Y-12412812D02*
X11126825Y-12412812D01*
X11126825Y-12412812D02*
X11145872Y-12422336D01*
X11393491Y-12469955D02*
X11545872Y-12469955D01*
X11469682Y-12546146D02*
X11469682Y-12393765D01*
X11879206Y-12412812D02*
X11879206Y-12546146D01*
X11831587Y-12336622D02*
X11783968Y-12479479D01*
X11783968Y-12479479D02*
X11907777Y-12479479D01*
X12126825Y-12536622D02*
X12145872Y-12546146D01*
X12145872Y-12546146D02*
X12183968Y-12546146D01*
X12183968Y-12546146D02*
X12203015Y-12536622D01*
X12203015Y-12536622D02*
X12212539Y-12517574D01*
X12212539Y-12517574D02*
X12212539Y-12508051D01*
X12212539Y-12508051D02*
X12203015Y-12489003D01*
X12203015Y-12489003D02*
X12183968Y-12479479D01*
X12183968Y-12479479D02*
X12155396Y-12479479D01*
X12155396Y-12479479D02*
X12136349Y-12469955D01*
X12136349Y-12469955D02*
X12126825Y-12450908D01*
X12126825Y-12450908D02*
X12126825Y-12441384D01*
X12126825Y-12441384D02*
X12136349Y-12422336D01*
X12136349Y-12422336D02*
X12155396Y-12412812D01*
X12155396Y-12412812D02*
X12183968Y-12412812D01*
X12183968Y-12412812D02*
X12203015Y-12422336D01*
X12326825Y-12546146D02*
X12307777Y-12536622D01*
X12307777Y-12536622D02*
X12298253Y-12517574D01*
X12298253Y-12517574D02*
X12298253Y-12346146D01*
X12431587Y-12546146D02*
X12412539Y-12536622D01*
X12412539Y-12536622D02*
X12403015Y-12527098D01*
X12403015Y-12527098D02*
X12393491Y-12508051D01*
X12393491Y-12508051D02*
X12393491Y-12450908D01*
X12393491Y-12450908D02*
X12403015Y-12431860D01*
X12403015Y-12431860D02*
X12412539Y-12422336D01*
X12412539Y-12422336D02*
X12431587Y-12412812D01*
X12431587Y-12412812D02*
X12460158Y-12412812D01*
X12460158Y-12412812D02*
X12479206Y-12422336D01*
X12479206Y-12422336D02*
X12488730Y-12431860D01*
X12488730Y-12431860D02*
X12498253Y-12450908D01*
X12498253Y-12450908D02*
X12498253Y-12508051D01*
X12498253Y-12508051D02*
X12488730Y-12527098D01*
X12488730Y-12527098D02*
X12479206Y-12536622D01*
X12479206Y-12536622D02*
X12460158Y-12546146D01*
X12460158Y-12546146D02*
X12431587Y-12546146D01*
X12555396Y-12412812D02*
X12631587Y-12412812D01*
X12583968Y-12346146D02*
X12583968Y-12517574D01*
X12583968Y-12517574D02*
X12593491Y-12536622D01*
X12593491Y-12536622D02*
X12612539Y-12546146D01*
X12612539Y-12546146D02*
X12631587Y-12546146D01*
X12688730Y-12536622D02*
X12707777Y-12546146D01*
X12707777Y-12546146D02*
X12745872Y-12546146D01*
X12745872Y-12546146D02*
X12764920Y-12536622D01*
X12764920Y-12536622D02*
X12774444Y-12517574D01*
X12774444Y-12517574D02*
X12774444Y-12508051D01*
X12774444Y-12508051D02*
X12764920Y-12489003D01*
X12764920Y-12489003D02*
X12745872Y-12479479D01*
X12745872Y-12479479D02*
X12717301Y-12479479D01*
X12717301Y-12479479D02*
X12698253Y-12469955D01*
X12698253Y-12469955D02*
X12688730Y-12450908D01*
X12688730Y-12450908D02*
X12688730Y-12441384D01*
X12688730Y-12441384D02*
X12698253Y-12422336D01*
X12698253Y-12422336D02*
X12717301Y-12412812D01*
X12717301Y-12412812D02*
X12745872Y-12412812D01*
X12745872Y-12412812D02*
X12764920Y-12422336D01*
X12841111Y-12622336D02*
X12850634Y-12612812D01*
X12850634Y-12612812D02*
X12869682Y-12584241D01*
X12869682Y-12584241D02*
X12879206Y-12565193D01*
X12879206Y-12565193D02*
X12888730Y-12536622D01*
X12888730Y-12536622D02*
X12898253Y-12489003D01*
X12898253Y-12489003D02*
X12898253Y-12450908D01*
X12898253Y-12450908D02*
X12888730Y-12403289D01*
X12888730Y-12403289D02*
X12879206Y-12374717D01*
X12879206Y-12374717D02*
X12869682Y-12355670D01*
X12869682Y-12355670D02*
X12850634Y-12327098D01*
X12850634Y-12327098D02*
X12841111Y-12317574D01*
D10*
X6417000Y-12748662D02*
X6447000Y-12718662D01*
X6417000Y-12688662D01*
X6387000Y-12718662D01*
X6417000Y-12748662D01*
D11*
X6745872Y-12610146D02*
X6764919Y-12610146D01*
X6764919Y-12610146D02*
X6783967Y-12619670D01*
X6783967Y-12619670D02*
X6793491Y-12629193D01*
X6793491Y-12629193D02*
X6803015Y-12648241D01*
X6803015Y-12648241D02*
X6812538Y-12686336D01*
X6812538Y-12686336D02*
X6812538Y-12733955D01*
X6812538Y-12733955D02*
X6803015Y-12772051D01*
X6803015Y-12772051D02*
X6793491Y-12791098D01*
X6793491Y-12791098D02*
X6783967Y-12800622D01*
X6783967Y-12800622D02*
X6764919Y-12810146D01*
X6764919Y-12810146D02*
X6745872Y-12810146D01*
X6745872Y-12810146D02*
X6726824Y-12800622D01*
X6726824Y-12800622D02*
X6717300Y-12791098D01*
X6717300Y-12791098D02*
X6707777Y-12772051D01*
X6707777Y-12772051D02*
X6698253Y-12733955D01*
X6698253Y-12733955D02*
X6698253Y-12686336D01*
X6698253Y-12686336D02*
X6707777Y-12648241D01*
X6707777Y-12648241D02*
X6717300Y-12629193D01*
X6717300Y-12629193D02*
X6726824Y-12619670D01*
X6726824Y-12619670D02*
X6745872Y-12610146D01*
X6898253Y-12791098D02*
X6907777Y-12800622D01*
X6907777Y-12800622D02*
X6898253Y-12810146D01*
X6898253Y-12810146D02*
X6888729Y-12800622D01*
X6888729Y-12800622D02*
X6898253Y-12791098D01*
X6898253Y-12791098D02*
X6898253Y-12810146D01*
X7079205Y-12610146D02*
X7041110Y-12610146D01*
X7041110Y-12610146D02*
X7022062Y-12619670D01*
X7022062Y-12619670D02*
X7012538Y-12629193D01*
X7012538Y-12629193D02*
X6993491Y-12657765D01*
X6993491Y-12657765D02*
X6983967Y-12695860D01*
X6983967Y-12695860D02*
X6983967Y-12772051D01*
X6983967Y-12772051D02*
X6993491Y-12791098D01*
X6993491Y-12791098D02*
X7003015Y-12800622D01*
X7003015Y-12800622D02*
X7022062Y-12810146D01*
X7022062Y-12810146D02*
X7060158Y-12810146D01*
X7060158Y-12810146D02*
X7079205Y-12800622D01*
X7079205Y-12800622D02*
X7088729Y-12791098D01*
X7088729Y-12791098D02*
X7098253Y-12772051D01*
X7098253Y-12772051D02*
X7098253Y-12724432D01*
X7098253Y-12724432D02*
X7088729Y-12705384D01*
X7088729Y-12705384D02*
X7079205Y-12695860D01*
X7079205Y-12695860D02*
X7060158Y-12686336D01*
X7060158Y-12686336D02*
X7022062Y-12686336D01*
X7022062Y-12686336D02*
X7003015Y-12695860D01*
X7003015Y-12695860D02*
X6993491Y-12705384D01*
X6993491Y-12705384D02*
X6983967Y-12724432D01*
X7222062Y-12610146D02*
X7241110Y-12610146D01*
X7241110Y-12610146D02*
X7260158Y-12619670D01*
X7260158Y-12619670D02*
X7269681Y-12629193D01*
X7269681Y-12629193D02*
X7279205Y-12648241D01*
X7279205Y-12648241D02*
X7288729Y-12686336D01*
X7288729Y-12686336D02*
X7288729Y-12733955D01*
X7288729Y-12733955D02*
X7279205Y-12772051D01*
X7279205Y-12772051D02*
X7269681Y-12791098D01*
X7269681Y-12791098D02*
X7260158Y-12800622D01*
X7260158Y-12800622D02*
X7241110Y-12810146D01*
X7241110Y-12810146D02*
X7222062Y-12810146D01*
X7222062Y-12810146D02*
X7203015Y-12800622D01*
X7203015Y-12800622D02*
X7193491Y-12791098D01*
X7193491Y-12791098D02*
X7183967Y-12772051D01*
X7183967Y-12772051D02*
X7174443Y-12733955D01*
X7174443Y-12733955D02*
X7174443Y-12686336D01*
X7174443Y-12686336D02*
X7183967Y-12648241D01*
X7183967Y-12648241D02*
X7193491Y-12629193D01*
X7193491Y-12629193D02*
X7203015Y-12619670D01*
X7203015Y-12619670D02*
X7222062Y-12610146D01*
X7412538Y-12610146D02*
X7431586Y-12610146D01*
X7431586Y-12610146D02*
X7450634Y-12619670D01*
X7450634Y-12619670D02*
X7460158Y-12629193D01*
X7460158Y-12629193D02*
X7469681Y-12648241D01*
X7469681Y-12648241D02*
X7479205Y-12686336D01*
X7479205Y-12686336D02*
X7479205Y-12733955D01*
X7479205Y-12733955D02*
X7469681Y-12772051D01*
X7469681Y-12772051D02*
X7460158Y-12791098D01*
X7460158Y-12791098D02*
X7450634Y-12800622D01*
X7450634Y-12800622D02*
X7431586Y-12810146D01*
X7431586Y-12810146D02*
X7412538Y-12810146D01*
X7412538Y-12810146D02*
X7393491Y-12800622D01*
X7393491Y-12800622D02*
X7383967Y-12791098D01*
X7383967Y-12791098D02*
X7374443Y-12772051D01*
X7374443Y-12772051D02*
X7364919Y-12733955D01*
X7364919Y-12733955D02*
X7364919Y-12686336D01*
X7364919Y-12686336D02*
X7374443Y-12648241D01*
X7374443Y-12648241D02*
X7383967Y-12629193D01*
X7383967Y-12629193D02*
X7393491Y-12619670D01*
X7393491Y-12619670D02*
X7412538Y-12610146D01*
X7564919Y-12810146D02*
X7564919Y-12676812D01*
X7564919Y-12695860D02*
X7574443Y-12686336D01*
X7574443Y-12686336D02*
X7593491Y-12676812D01*
X7593491Y-12676812D02*
X7622062Y-12676812D01*
X7622062Y-12676812D02*
X7641110Y-12686336D01*
X7641110Y-12686336D02*
X7650634Y-12705384D01*
X7650634Y-12705384D02*
X7650634Y-12810146D01*
X7650634Y-12705384D02*
X7660158Y-12686336D01*
X7660158Y-12686336D02*
X7679205Y-12676812D01*
X7679205Y-12676812D02*
X7707777Y-12676812D01*
X7707777Y-12676812D02*
X7726824Y-12686336D01*
X7726824Y-12686336D02*
X7736348Y-12705384D01*
X7736348Y-12705384D02*
X7736348Y-12810146D01*
X7831586Y-12810146D02*
X7831586Y-12676812D01*
X7831586Y-12695860D02*
X7841110Y-12686336D01*
X7841110Y-12686336D02*
X7860158Y-12676812D01*
X7860158Y-12676812D02*
X7888729Y-12676812D01*
X7888729Y-12676812D02*
X7907777Y-12686336D01*
X7907777Y-12686336D02*
X7917300Y-12705384D01*
X7917300Y-12705384D02*
X7917300Y-12810146D01*
X7917300Y-12705384D02*
X7926824Y-12686336D01*
X7926824Y-12686336D02*
X7945872Y-12676812D01*
X7945872Y-12676812D02*
X7974443Y-12676812D01*
X7974443Y-12676812D02*
X7993491Y-12686336D01*
X7993491Y-12686336D02*
X8003015Y-12705384D01*
X8003015Y-12705384D02*
X8003015Y-12810146D01*
X8393491Y-12600622D02*
X8222062Y-12857765D01*
X8650634Y-12610146D02*
X8669682Y-12610146D01*
X8669682Y-12610146D02*
X8688729Y-12619670D01*
X8688729Y-12619670D02*
X8698253Y-12629193D01*
X8698253Y-12629193D02*
X8707777Y-12648241D01*
X8707777Y-12648241D02*
X8717301Y-12686336D01*
X8717301Y-12686336D02*
X8717301Y-12733955D01*
X8717301Y-12733955D02*
X8707777Y-12772051D01*
X8707777Y-12772051D02*
X8698253Y-12791098D01*
X8698253Y-12791098D02*
X8688729Y-12800622D01*
X8688729Y-12800622D02*
X8669682Y-12810146D01*
X8669682Y-12810146D02*
X8650634Y-12810146D01*
X8650634Y-12810146D02*
X8631586Y-12800622D01*
X8631586Y-12800622D02*
X8622063Y-12791098D01*
X8622063Y-12791098D02*
X8612539Y-12772051D01*
X8612539Y-12772051D02*
X8603015Y-12733955D01*
X8603015Y-12733955D02*
X8603015Y-12686336D01*
X8603015Y-12686336D02*
X8612539Y-12648241D01*
X8612539Y-12648241D02*
X8622063Y-12629193D01*
X8622063Y-12629193D02*
X8631586Y-12619670D01*
X8631586Y-12619670D02*
X8650634Y-12610146D01*
X8803015Y-12791098D02*
X8812539Y-12800622D01*
X8812539Y-12800622D02*
X8803015Y-12810146D01*
X8803015Y-12810146D02*
X8793491Y-12800622D01*
X8793491Y-12800622D02*
X8803015Y-12791098D01*
X8803015Y-12791098D02*
X8803015Y-12810146D01*
X8936348Y-12610146D02*
X8955396Y-12610146D01*
X8955396Y-12610146D02*
X8974444Y-12619670D01*
X8974444Y-12619670D02*
X8983967Y-12629193D01*
X8983967Y-12629193D02*
X8993491Y-12648241D01*
X8993491Y-12648241D02*
X9003015Y-12686336D01*
X9003015Y-12686336D02*
X9003015Y-12733955D01*
X9003015Y-12733955D02*
X8993491Y-12772051D01*
X8993491Y-12772051D02*
X8983967Y-12791098D01*
X8983967Y-12791098D02*
X8974444Y-12800622D01*
X8974444Y-12800622D02*
X8955396Y-12810146D01*
X8955396Y-12810146D02*
X8936348Y-12810146D01*
X8936348Y-12810146D02*
X8917301Y-12800622D01*
X8917301Y-12800622D02*
X8907777Y-12791098D01*
X8907777Y-12791098D02*
X8898253Y-12772051D01*
X8898253Y-12772051D02*
X8888729Y-12733955D01*
X8888729Y-12733955D02*
X8888729Y-12686336D01*
X8888729Y-12686336D02*
X8898253Y-12648241D01*
X8898253Y-12648241D02*
X8907777Y-12629193D01*
X8907777Y-12629193D02*
X8917301Y-12619670D01*
X8917301Y-12619670D02*
X8936348Y-12610146D01*
X9079205Y-12629193D02*
X9088729Y-12619670D01*
X9088729Y-12619670D02*
X9107777Y-12610146D01*
X9107777Y-12610146D02*
X9155396Y-12610146D01*
X9155396Y-12610146D02*
X9174444Y-12619670D01*
X9174444Y-12619670D02*
X9183967Y-12629193D01*
X9183967Y-12629193D02*
X9193491Y-12648241D01*
X9193491Y-12648241D02*
X9193491Y-12667289D01*
X9193491Y-12667289D02*
X9183967Y-12695860D01*
X9183967Y-12695860D02*
X9069682Y-12810146D01*
X9069682Y-12810146D02*
X9193491Y-12810146D01*
X9260158Y-12610146D02*
X9383967Y-12610146D01*
X9383967Y-12610146D02*
X9317301Y-12686336D01*
X9317301Y-12686336D02*
X9345872Y-12686336D01*
X9345872Y-12686336D02*
X9364920Y-12695860D01*
X9364920Y-12695860D02*
X9374444Y-12705384D01*
X9374444Y-12705384D02*
X9383967Y-12724432D01*
X9383967Y-12724432D02*
X9383967Y-12772051D01*
X9383967Y-12772051D02*
X9374444Y-12791098D01*
X9374444Y-12791098D02*
X9364920Y-12800622D01*
X9364920Y-12800622D02*
X9345872Y-12810146D01*
X9345872Y-12810146D02*
X9288729Y-12810146D01*
X9288729Y-12810146D02*
X9269682Y-12800622D01*
X9269682Y-12800622D02*
X9260158Y-12791098D01*
X9555396Y-12610146D02*
X9517301Y-12610146D01*
X9517301Y-12610146D02*
X9498253Y-12619670D01*
X9498253Y-12619670D02*
X9488729Y-12629193D01*
X9488729Y-12629193D02*
X9469682Y-12657765D01*
X9469682Y-12657765D02*
X9460158Y-12695860D01*
X9460158Y-12695860D02*
X9460158Y-12772051D01*
X9460158Y-12772051D02*
X9469682Y-12791098D01*
X9469682Y-12791098D02*
X9479205Y-12800622D01*
X9479205Y-12800622D02*
X9498253Y-12810146D01*
X9498253Y-12810146D02*
X9536348Y-12810146D01*
X9536348Y-12810146D02*
X9555396Y-12800622D01*
X9555396Y-12800622D02*
X9564920Y-12791098D01*
X9564920Y-12791098D02*
X9574444Y-12772051D01*
X9574444Y-12772051D02*
X9574444Y-12724432D01*
X9574444Y-12724432D02*
X9564920Y-12705384D01*
X9564920Y-12705384D02*
X9555396Y-12695860D01*
X9555396Y-12695860D02*
X9536348Y-12686336D01*
X9536348Y-12686336D02*
X9498253Y-12686336D01*
X9498253Y-12686336D02*
X9479205Y-12695860D01*
X9479205Y-12695860D02*
X9469682Y-12705384D01*
X9469682Y-12705384D02*
X9460158Y-12724432D01*
X9650634Y-12610146D02*
X9650634Y-12648241D01*
X9726825Y-12610146D02*
X9726825Y-12648241D01*
X10022063Y-12886336D02*
X10012539Y-12876812D01*
X10012539Y-12876812D02*
X9993491Y-12848241D01*
X9993491Y-12848241D02*
X9983967Y-12829193D01*
X9983967Y-12829193D02*
X9974444Y-12800622D01*
X9974444Y-12800622D02*
X9964920Y-12753003D01*
X9964920Y-12753003D02*
X9964920Y-12714908D01*
X9964920Y-12714908D02*
X9974444Y-12667289D01*
X9974444Y-12667289D02*
X9983967Y-12638717D01*
X9983967Y-12638717D02*
X9993491Y-12619670D01*
X9993491Y-12619670D02*
X10012539Y-12591098D01*
X10012539Y-12591098D02*
X10022063Y-12581574D01*
X10183967Y-12610146D02*
X10145872Y-12610146D01*
X10145872Y-12610146D02*
X10126825Y-12619670D01*
X10126825Y-12619670D02*
X10117301Y-12629193D01*
X10117301Y-12629193D02*
X10098253Y-12657765D01*
X10098253Y-12657765D02*
X10088729Y-12695860D01*
X10088729Y-12695860D02*
X10088729Y-12772051D01*
X10088729Y-12772051D02*
X10098253Y-12791098D01*
X10098253Y-12791098D02*
X10107777Y-12800622D01*
X10107777Y-12800622D02*
X10126825Y-12810146D01*
X10126825Y-12810146D02*
X10164920Y-12810146D01*
X10164920Y-12810146D02*
X10183967Y-12800622D01*
X10183967Y-12800622D02*
X10193491Y-12791098D01*
X10193491Y-12791098D02*
X10203015Y-12772051D01*
X10203015Y-12772051D02*
X10203015Y-12724432D01*
X10203015Y-12724432D02*
X10193491Y-12705384D01*
X10193491Y-12705384D02*
X10183967Y-12695860D01*
X10183967Y-12695860D02*
X10164920Y-12686336D01*
X10164920Y-12686336D02*
X10126825Y-12686336D01*
X10126825Y-12686336D02*
X10107777Y-12695860D01*
X10107777Y-12695860D02*
X10098253Y-12705384D01*
X10098253Y-12705384D02*
X10088729Y-12724432D01*
X10441110Y-12810146D02*
X10441110Y-12610146D01*
X10526825Y-12810146D02*
X10526825Y-12705384D01*
X10526825Y-12705384D02*
X10517301Y-12686336D01*
X10517301Y-12686336D02*
X10498253Y-12676812D01*
X10498253Y-12676812D02*
X10469682Y-12676812D01*
X10469682Y-12676812D02*
X10450634Y-12686336D01*
X10450634Y-12686336D02*
X10441110Y-12695860D01*
X10650634Y-12810146D02*
X10631587Y-12800622D01*
X10631587Y-12800622D02*
X10622063Y-12791098D01*
X10622063Y-12791098D02*
X10612539Y-12772051D01*
X10612539Y-12772051D02*
X10612539Y-12714908D01*
X10612539Y-12714908D02*
X10622063Y-12695860D01*
X10622063Y-12695860D02*
X10631587Y-12686336D01*
X10631587Y-12686336D02*
X10650634Y-12676812D01*
X10650634Y-12676812D02*
X10679206Y-12676812D01*
X10679206Y-12676812D02*
X10698253Y-12686336D01*
X10698253Y-12686336D02*
X10707777Y-12695860D01*
X10707777Y-12695860D02*
X10717301Y-12714908D01*
X10717301Y-12714908D02*
X10717301Y-12772051D01*
X10717301Y-12772051D02*
X10707777Y-12791098D01*
X10707777Y-12791098D02*
X10698253Y-12800622D01*
X10698253Y-12800622D02*
X10679206Y-12810146D01*
X10679206Y-12810146D02*
X10650634Y-12810146D01*
X10831587Y-12810146D02*
X10812539Y-12800622D01*
X10812539Y-12800622D02*
X10803015Y-12781574D01*
X10803015Y-12781574D02*
X10803015Y-12610146D01*
X10983968Y-12800622D02*
X10964920Y-12810146D01*
X10964920Y-12810146D02*
X10926825Y-12810146D01*
X10926825Y-12810146D02*
X10907777Y-12800622D01*
X10907777Y-12800622D02*
X10898253Y-12781574D01*
X10898253Y-12781574D02*
X10898253Y-12705384D01*
X10898253Y-12705384D02*
X10907777Y-12686336D01*
X10907777Y-12686336D02*
X10926825Y-12676812D01*
X10926825Y-12676812D02*
X10964920Y-12676812D01*
X10964920Y-12676812D02*
X10983968Y-12686336D01*
X10983968Y-12686336D02*
X10993491Y-12705384D01*
X10993491Y-12705384D02*
X10993491Y-12724432D01*
X10993491Y-12724432D02*
X10898253Y-12743479D01*
X11069682Y-12800622D02*
X11088729Y-12810146D01*
X11088729Y-12810146D02*
X11126825Y-12810146D01*
X11126825Y-12810146D02*
X11145872Y-12800622D01*
X11145872Y-12800622D02*
X11155396Y-12781574D01*
X11155396Y-12781574D02*
X11155396Y-12772051D01*
X11155396Y-12772051D02*
X11145872Y-12753003D01*
X11145872Y-12753003D02*
X11126825Y-12743479D01*
X11126825Y-12743479D02*
X11098253Y-12743479D01*
X11098253Y-12743479D02*
X11079206Y-12733955D01*
X11079206Y-12733955D02*
X11069682Y-12714908D01*
X11069682Y-12714908D02*
X11069682Y-12705384D01*
X11069682Y-12705384D02*
X11079206Y-12686336D01*
X11079206Y-12686336D02*
X11098253Y-12676812D01*
X11098253Y-12676812D02*
X11126825Y-12676812D01*
X11126825Y-12676812D02*
X11145872Y-12686336D01*
X11222063Y-12886336D02*
X11231587Y-12876812D01*
X11231587Y-12876812D02*
X11250634Y-12848241D01*
X11250634Y-12848241D02*
X11260158Y-12829193D01*
X11260158Y-12829193D02*
X11269682Y-12800622D01*
X11269682Y-12800622D02*
X11279206Y-12753003D01*
X11279206Y-12753003D02*
X11279206Y-12714908D01*
X11279206Y-12714908D02*
X11269682Y-12667289D01*
X11269682Y-12667289D02*
X11260158Y-12638717D01*
X11260158Y-12638717D02*
X11250634Y-12619670D01*
X11250634Y-12619670D02*
X11231587Y-12591098D01*
X11231587Y-12591098D02*
X11222063Y-12581574D01*
D10*
X6367000Y-12942662D02*
X6447000Y-13022662D01*
X6447000Y-12942662D02*
X6367000Y-13022662D01*
X6447000Y-12982662D02*
G75*
G02*
X6367000Y-12982662I-40000J0D01*
G01*
X6367000Y-12982662D02*
G75*
G02*
X6447000Y-12982662I40000J0D01*
G01*
D11*
X6745872Y-12874146D02*
X6764919Y-12874146D01*
X6764919Y-12874146D02*
X6783967Y-12883670D01*
X6783967Y-12883670D02*
X6793491Y-12893193D01*
X6793491Y-12893193D02*
X6803015Y-12912241D01*
X6803015Y-12912241D02*
X6812538Y-12950336D01*
X6812538Y-12950336D02*
X6812538Y-12997955D01*
X6812538Y-12997955D02*
X6803015Y-13036051D01*
X6803015Y-13036051D02*
X6793491Y-13055098D01*
X6793491Y-13055098D02*
X6783967Y-13064622D01*
X6783967Y-13064622D02*
X6764919Y-13074146D01*
X6764919Y-13074146D02*
X6745872Y-13074146D01*
X6745872Y-13074146D02*
X6726824Y-13064622D01*
X6726824Y-13064622D02*
X6717300Y-13055098D01*
X6717300Y-13055098D02*
X6707777Y-13036051D01*
X6707777Y-13036051D02*
X6698253Y-12997955D01*
X6698253Y-12997955D02*
X6698253Y-12950336D01*
X6698253Y-12950336D02*
X6707777Y-12912241D01*
X6707777Y-12912241D02*
X6717300Y-12893193D01*
X6717300Y-12893193D02*
X6726824Y-12883670D01*
X6726824Y-12883670D02*
X6745872Y-12874146D01*
X6898253Y-13055098D02*
X6907777Y-13064622D01*
X6907777Y-13064622D02*
X6898253Y-13074146D01*
X6898253Y-13074146D02*
X6888729Y-13064622D01*
X6888729Y-13064622D02*
X6898253Y-13055098D01*
X6898253Y-13055098D02*
X6898253Y-13074146D01*
X7022062Y-12959860D02*
X7003015Y-12950336D01*
X7003015Y-12950336D02*
X6993491Y-12940812D01*
X6993491Y-12940812D02*
X6983967Y-12921765D01*
X6983967Y-12921765D02*
X6983967Y-12912241D01*
X6983967Y-12912241D02*
X6993491Y-12893193D01*
X6993491Y-12893193D02*
X7003015Y-12883670D01*
X7003015Y-12883670D02*
X7022062Y-12874146D01*
X7022062Y-12874146D02*
X7060158Y-12874146D01*
X7060158Y-12874146D02*
X7079205Y-12883670D01*
X7079205Y-12883670D02*
X7088729Y-12893193D01*
X7088729Y-12893193D02*
X7098253Y-12912241D01*
X7098253Y-12912241D02*
X7098253Y-12921765D01*
X7098253Y-12921765D02*
X7088729Y-12940812D01*
X7088729Y-12940812D02*
X7079205Y-12950336D01*
X7079205Y-12950336D02*
X7060158Y-12959860D01*
X7060158Y-12959860D02*
X7022062Y-12959860D01*
X7022062Y-12959860D02*
X7003015Y-12969384D01*
X7003015Y-12969384D02*
X6993491Y-12978908D01*
X6993491Y-12978908D02*
X6983967Y-12997955D01*
X6983967Y-12997955D02*
X6983967Y-13036051D01*
X6983967Y-13036051D02*
X6993491Y-13055098D01*
X6993491Y-13055098D02*
X7003015Y-13064622D01*
X7003015Y-13064622D02*
X7022062Y-13074146D01*
X7022062Y-13074146D02*
X7060158Y-13074146D01*
X7060158Y-13074146D02*
X7079205Y-13064622D01*
X7079205Y-13064622D02*
X7088729Y-13055098D01*
X7088729Y-13055098D02*
X7098253Y-13036051D01*
X7098253Y-13036051D02*
X7098253Y-12997955D01*
X7098253Y-12997955D02*
X7088729Y-12978908D01*
X7088729Y-12978908D02*
X7079205Y-12969384D01*
X7079205Y-12969384D02*
X7060158Y-12959860D01*
X7222062Y-12874146D02*
X7241110Y-12874146D01*
X7241110Y-12874146D02*
X7260158Y-12883670D01*
X7260158Y-12883670D02*
X7269681Y-12893193D01*
X7269681Y-12893193D02*
X7279205Y-12912241D01*
X7279205Y-12912241D02*
X7288729Y-12950336D01*
X7288729Y-12950336D02*
X7288729Y-12997955D01*
X7288729Y-12997955D02*
X7279205Y-13036051D01*
X7279205Y-13036051D02*
X7269681Y-13055098D01*
X7269681Y-13055098D02*
X7260158Y-13064622D01*
X7260158Y-13064622D02*
X7241110Y-13074146D01*
X7241110Y-13074146D02*
X7222062Y-13074146D01*
X7222062Y-13074146D02*
X7203015Y-13064622D01*
X7203015Y-13064622D02*
X7193491Y-13055098D01*
X7193491Y-13055098D02*
X7183967Y-13036051D01*
X7183967Y-13036051D02*
X7174443Y-12997955D01*
X7174443Y-12997955D02*
X7174443Y-12950336D01*
X7174443Y-12950336D02*
X7183967Y-12912241D01*
X7183967Y-12912241D02*
X7193491Y-12893193D01*
X7193491Y-12893193D02*
X7203015Y-12883670D01*
X7203015Y-12883670D02*
X7222062Y-12874146D01*
X7412538Y-12874146D02*
X7431586Y-12874146D01*
X7431586Y-12874146D02*
X7450634Y-12883670D01*
X7450634Y-12883670D02*
X7460158Y-12893193D01*
X7460158Y-12893193D02*
X7469681Y-12912241D01*
X7469681Y-12912241D02*
X7479205Y-12950336D01*
X7479205Y-12950336D02*
X7479205Y-12997955D01*
X7479205Y-12997955D02*
X7469681Y-13036051D01*
X7469681Y-13036051D02*
X7460158Y-13055098D01*
X7460158Y-13055098D02*
X7450634Y-13064622D01*
X7450634Y-13064622D02*
X7431586Y-13074146D01*
X7431586Y-13074146D02*
X7412538Y-13074146D01*
X7412538Y-13074146D02*
X7393491Y-13064622D01*
X7393491Y-13064622D02*
X7383967Y-13055098D01*
X7383967Y-13055098D02*
X7374443Y-13036051D01*
X7374443Y-13036051D02*
X7364919Y-12997955D01*
X7364919Y-12997955D02*
X7364919Y-12950336D01*
X7364919Y-12950336D02*
X7374443Y-12912241D01*
X7374443Y-12912241D02*
X7383967Y-12893193D01*
X7383967Y-12893193D02*
X7393491Y-12883670D01*
X7393491Y-12883670D02*
X7412538Y-12874146D01*
X7564919Y-13074146D02*
X7564919Y-12940812D01*
X7564919Y-12959860D02*
X7574443Y-12950336D01*
X7574443Y-12950336D02*
X7593491Y-12940812D01*
X7593491Y-12940812D02*
X7622062Y-12940812D01*
X7622062Y-12940812D02*
X7641110Y-12950336D01*
X7641110Y-12950336D02*
X7650634Y-12969384D01*
X7650634Y-12969384D02*
X7650634Y-13074146D01*
X7650634Y-12969384D02*
X7660158Y-12950336D01*
X7660158Y-12950336D02*
X7679205Y-12940812D01*
X7679205Y-12940812D02*
X7707777Y-12940812D01*
X7707777Y-12940812D02*
X7726824Y-12950336D01*
X7726824Y-12950336D02*
X7736348Y-12969384D01*
X7736348Y-12969384D02*
X7736348Y-13074146D01*
X7831586Y-13074146D02*
X7831586Y-12940812D01*
X7831586Y-12959860D02*
X7841110Y-12950336D01*
X7841110Y-12950336D02*
X7860158Y-12940812D01*
X7860158Y-12940812D02*
X7888729Y-12940812D01*
X7888729Y-12940812D02*
X7907777Y-12950336D01*
X7907777Y-12950336D02*
X7917300Y-12969384D01*
X7917300Y-12969384D02*
X7917300Y-13074146D01*
X7917300Y-12969384D02*
X7926824Y-12950336D01*
X7926824Y-12950336D02*
X7945872Y-12940812D01*
X7945872Y-12940812D02*
X7974443Y-12940812D01*
X7974443Y-12940812D02*
X7993491Y-12950336D01*
X7993491Y-12950336D02*
X8003015Y-12969384D01*
X8003015Y-12969384D02*
X8003015Y-13074146D01*
X8393491Y-12864622D02*
X8222062Y-13121765D01*
X8650634Y-12874146D02*
X8669682Y-12874146D01*
X8669682Y-12874146D02*
X8688729Y-12883670D01*
X8688729Y-12883670D02*
X8698253Y-12893193D01*
X8698253Y-12893193D02*
X8707777Y-12912241D01*
X8707777Y-12912241D02*
X8717301Y-12950336D01*
X8717301Y-12950336D02*
X8717301Y-12997955D01*
X8717301Y-12997955D02*
X8707777Y-13036051D01*
X8707777Y-13036051D02*
X8698253Y-13055098D01*
X8698253Y-13055098D02*
X8688729Y-13064622D01*
X8688729Y-13064622D02*
X8669682Y-13074146D01*
X8669682Y-13074146D02*
X8650634Y-13074146D01*
X8650634Y-13074146D02*
X8631586Y-13064622D01*
X8631586Y-13064622D02*
X8622063Y-13055098D01*
X8622063Y-13055098D02*
X8612539Y-13036051D01*
X8612539Y-13036051D02*
X8603015Y-12997955D01*
X8603015Y-12997955D02*
X8603015Y-12950336D01*
X8603015Y-12950336D02*
X8612539Y-12912241D01*
X8612539Y-12912241D02*
X8622063Y-12893193D01*
X8622063Y-12893193D02*
X8631586Y-12883670D01*
X8631586Y-12883670D02*
X8650634Y-12874146D01*
X8803015Y-13055098D02*
X8812539Y-13064622D01*
X8812539Y-13064622D02*
X8803015Y-13074146D01*
X8803015Y-13074146D02*
X8793491Y-13064622D01*
X8793491Y-13064622D02*
X8803015Y-13055098D01*
X8803015Y-13055098D02*
X8803015Y-13074146D01*
X8936348Y-12874146D02*
X8955396Y-12874146D01*
X8955396Y-12874146D02*
X8974444Y-12883670D01*
X8974444Y-12883670D02*
X8983967Y-12893193D01*
X8983967Y-12893193D02*
X8993491Y-12912241D01*
X8993491Y-12912241D02*
X9003015Y-12950336D01*
X9003015Y-12950336D02*
X9003015Y-12997955D01*
X9003015Y-12997955D02*
X8993491Y-13036051D01*
X8993491Y-13036051D02*
X8983967Y-13055098D01*
X8983967Y-13055098D02*
X8974444Y-13064622D01*
X8974444Y-13064622D02*
X8955396Y-13074146D01*
X8955396Y-13074146D02*
X8936348Y-13074146D01*
X8936348Y-13074146D02*
X8917301Y-13064622D01*
X8917301Y-13064622D02*
X8907777Y-13055098D01*
X8907777Y-13055098D02*
X8898253Y-13036051D01*
X8898253Y-13036051D02*
X8888729Y-12997955D01*
X8888729Y-12997955D02*
X8888729Y-12950336D01*
X8888729Y-12950336D02*
X8898253Y-12912241D01*
X8898253Y-12912241D02*
X8907777Y-12893193D01*
X8907777Y-12893193D02*
X8917301Y-12883670D01*
X8917301Y-12883670D02*
X8936348Y-12874146D01*
X9069682Y-12874146D02*
X9193491Y-12874146D01*
X9193491Y-12874146D02*
X9126824Y-12950336D01*
X9126824Y-12950336D02*
X9155396Y-12950336D01*
X9155396Y-12950336D02*
X9174444Y-12959860D01*
X9174444Y-12959860D02*
X9183967Y-12969384D01*
X9183967Y-12969384D02*
X9193491Y-12988432D01*
X9193491Y-12988432D02*
X9193491Y-13036051D01*
X9193491Y-13036051D02*
X9183967Y-13055098D01*
X9183967Y-13055098D02*
X9174444Y-13064622D01*
X9174444Y-13064622D02*
X9155396Y-13074146D01*
X9155396Y-13074146D02*
X9098253Y-13074146D01*
X9098253Y-13074146D02*
X9079205Y-13064622D01*
X9079205Y-13064622D02*
X9069682Y-13055098D01*
X9383967Y-13074146D02*
X9269682Y-13074146D01*
X9326824Y-13074146D02*
X9326824Y-12874146D01*
X9326824Y-12874146D02*
X9307777Y-12902717D01*
X9307777Y-12902717D02*
X9288729Y-12921765D01*
X9288729Y-12921765D02*
X9269682Y-12931289D01*
X9564920Y-12874146D02*
X9469682Y-12874146D01*
X9469682Y-12874146D02*
X9460158Y-12969384D01*
X9460158Y-12969384D02*
X9469682Y-12959860D01*
X9469682Y-12959860D02*
X9488729Y-12950336D01*
X9488729Y-12950336D02*
X9536348Y-12950336D01*
X9536348Y-12950336D02*
X9555396Y-12959860D01*
X9555396Y-12959860D02*
X9564920Y-12969384D01*
X9564920Y-12969384D02*
X9574444Y-12988432D01*
X9574444Y-12988432D02*
X9574444Y-13036051D01*
X9574444Y-13036051D02*
X9564920Y-13055098D01*
X9564920Y-13055098D02*
X9555396Y-13064622D01*
X9555396Y-13064622D02*
X9536348Y-13074146D01*
X9536348Y-13074146D02*
X9488729Y-13074146D01*
X9488729Y-13074146D02*
X9469682Y-13064622D01*
X9469682Y-13064622D02*
X9460158Y-13055098D01*
X9650634Y-12874146D02*
X9650634Y-12912241D01*
X9726825Y-12874146D02*
X9726825Y-12912241D01*
X10022063Y-13150336D02*
X10012539Y-13140812D01*
X10012539Y-13140812D02*
X9993491Y-13112241D01*
X9993491Y-13112241D02*
X9983967Y-13093193D01*
X9983967Y-13093193D02*
X9974444Y-13064622D01*
X9974444Y-13064622D02*
X9964920Y-13017003D01*
X9964920Y-13017003D02*
X9964920Y-12978908D01*
X9964920Y-12978908D02*
X9974444Y-12931289D01*
X9974444Y-12931289D02*
X9983967Y-12902717D01*
X9983967Y-12902717D02*
X9993491Y-12883670D01*
X9993491Y-12883670D02*
X10012539Y-12855098D01*
X10012539Y-12855098D02*
X10022063Y-12845574D01*
X10183967Y-12940812D02*
X10183967Y-13074146D01*
X10136348Y-12864622D02*
X10088729Y-13007479D01*
X10088729Y-13007479D02*
X10212539Y-13007479D01*
X10441110Y-13074146D02*
X10441110Y-12874146D01*
X10526825Y-13074146D02*
X10526825Y-12969384D01*
X10526825Y-12969384D02*
X10517301Y-12950336D01*
X10517301Y-12950336D02*
X10498253Y-12940812D01*
X10498253Y-12940812D02*
X10469682Y-12940812D01*
X10469682Y-12940812D02*
X10450634Y-12950336D01*
X10450634Y-12950336D02*
X10441110Y-12959860D01*
X10650634Y-13074146D02*
X10631587Y-13064622D01*
X10631587Y-13064622D02*
X10622063Y-13055098D01*
X10622063Y-13055098D02*
X10612539Y-13036051D01*
X10612539Y-13036051D02*
X10612539Y-12978908D01*
X10612539Y-12978908D02*
X10622063Y-12959860D01*
X10622063Y-12959860D02*
X10631587Y-12950336D01*
X10631587Y-12950336D02*
X10650634Y-12940812D01*
X10650634Y-12940812D02*
X10679206Y-12940812D01*
X10679206Y-12940812D02*
X10698253Y-12950336D01*
X10698253Y-12950336D02*
X10707777Y-12959860D01*
X10707777Y-12959860D02*
X10717301Y-12978908D01*
X10717301Y-12978908D02*
X10717301Y-13036051D01*
X10717301Y-13036051D02*
X10707777Y-13055098D01*
X10707777Y-13055098D02*
X10698253Y-13064622D01*
X10698253Y-13064622D02*
X10679206Y-13074146D01*
X10679206Y-13074146D02*
X10650634Y-13074146D01*
X10831587Y-13074146D02*
X10812539Y-13064622D01*
X10812539Y-13064622D02*
X10803015Y-13045574D01*
X10803015Y-13045574D02*
X10803015Y-12874146D01*
X10983968Y-13064622D02*
X10964920Y-13074146D01*
X10964920Y-13074146D02*
X10926825Y-13074146D01*
X10926825Y-13074146D02*
X10907777Y-13064622D01*
X10907777Y-13064622D02*
X10898253Y-13045574D01*
X10898253Y-13045574D02*
X10898253Y-12969384D01*
X10898253Y-12969384D02*
X10907777Y-12950336D01*
X10907777Y-12950336D02*
X10926825Y-12940812D01*
X10926825Y-12940812D02*
X10964920Y-12940812D01*
X10964920Y-12940812D02*
X10983968Y-12950336D01*
X10983968Y-12950336D02*
X10993491Y-12969384D01*
X10993491Y-12969384D02*
X10993491Y-12988432D01*
X10993491Y-12988432D02*
X10898253Y-13007479D01*
X11069682Y-13064622D02*
X11088729Y-13074146D01*
X11088729Y-13074146D02*
X11126825Y-13074146D01*
X11126825Y-13074146D02*
X11145872Y-13064622D01*
X11145872Y-13064622D02*
X11155396Y-13045574D01*
X11155396Y-13045574D02*
X11155396Y-13036051D01*
X11155396Y-13036051D02*
X11145872Y-13017003D01*
X11145872Y-13017003D02*
X11126825Y-13007479D01*
X11126825Y-13007479D02*
X11098253Y-13007479D01*
X11098253Y-13007479D02*
X11079206Y-12997955D01*
X11079206Y-12997955D02*
X11069682Y-12978908D01*
X11069682Y-12978908D02*
X11069682Y-12969384D01*
X11069682Y-12969384D02*
X11079206Y-12950336D01*
X11079206Y-12950336D02*
X11098253Y-12940812D01*
X11098253Y-12940812D02*
X11126825Y-12940812D01*
X11126825Y-12940812D02*
X11145872Y-12950336D01*
X11222063Y-13150336D02*
X11231587Y-13140812D01*
X11231587Y-13140812D02*
X11250634Y-13112241D01*
X11250634Y-13112241D02*
X11260158Y-13093193D01*
X11260158Y-13093193D02*
X11269682Y-13064622D01*
X11269682Y-13064622D02*
X11279206Y-13017003D01*
X11279206Y-13017003D02*
X11279206Y-12978908D01*
X11279206Y-12978908D02*
X11269682Y-12931289D01*
X11269682Y-12931289D02*
X11260158Y-12902717D01*
X11260158Y-12902717D02*
X11250634Y-12883670D01*
X11250634Y-12883670D02*
X11231587Y-12855098D01*
X11231587Y-12855098D02*
X11222063Y-12845574D01*
X6247000Y-13146662D02*
X6447000Y-13346662D01*
X6447000Y-13146662D02*
X6247000Y-13346662D01*
X6347000Y-13146662D02*
X6347000Y-13346662D01*
X6247000Y-13246662D02*
X6447000Y-13246662D01*
X6698253Y-13157193D02*
X6707777Y-13147670D01*
X6707777Y-13147670D02*
X6726824Y-13138146D01*
X6726824Y-13138146D02*
X6774443Y-13138146D01*
X6774443Y-13138146D02*
X6793491Y-13147670D01*
X6793491Y-13147670D02*
X6803015Y-13157193D01*
X6803015Y-13157193D02*
X6812538Y-13176241D01*
X6812538Y-13176241D02*
X6812538Y-13195289D01*
X6812538Y-13195289D02*
X6803015Y-13223860D01*
X6803015Y-13223860D02*
X6688729Y-13338146D01*
X6688729Y-13338146D02*
X6812538Y-13338146D01*
X6898253Y-13319098D02*
X6907777Y-13328622D01*
X6907777Y-13328622D02*
X6898253Y-13338146D01*
X6898253Y-13338146D02*
X6888729Y-13328622D01*
X6888729Y-13328622D02*
X6898253Y-13319098D01*
X6898253Y-13319098D02*
X6898253Y-13338146D01*
X6983967Y-13157193D02*
X6993491Y-13147670D01*
X6993491Y-13147670D02*
X7012538Y-13138146D01*
X7012538Y-13138146D02*
X7060158Y-13138146D01*
X7060158Y-13138146D02*
X7079205Y-13147670D01*
X7079205Y-13147670D02*
X7088729Y-13157193D01*
X7088729Y-13157193D02*
X7098253Y-13176241D01*
X7098253Y-13176241D02*
X7098253Y-13195289D01*
X7098253Y-13195289D02*
X7088729Y-13223860D01*
X7088729Y-13223860D02*
X6974443Y-13338146D01*
X6974443Y-13338146D02*
X7098253Y-13338146D01*
X7222062Y-13138146D02*
X7241110Y-13138146D01*
X7241110Y-13138146D02*
X7260158Y-13147670D01*
X7260158Y-13147670D02*
X7269681Y-13157193D01*
X7269681Y-13157193D02*
X7279205Y-13176241D01*
X7279205Y-13176241D02*
X7288729Y-13214336D01*
X7288729Y-13214336D02*
X7288729Y-13261955D01*
X7288729Y-13261955D02*
X7279205Y-13300051D01*
X7279205Y-13300051D02*
X7269681Y-13319098D01*
X7269681Y-13319098D02*
X7260158Y-13328622D01*
X7260158Y-13328622D02*
X7241110Y-13338146D01*
X7241110Y-13338146D02*
X7222062Y-13338146D01*
X7222062Y-13338146D02*
X7203015Y-13328622D01*
X7203015Y-13328622D02*
X7193491Y-13319098D01*
X7193491Y-13319098D02*
X7183967Y-13300051D01*
X7183967Y-13300051D02*
X7174443Y-13261955D01*
X7174443Y-13261955D02*
X7174443Y-13214336D01*
X7174443Y-13214336D02*
X7183967Y-13176241D01*
X7183967Y-13176241D02*
X7193491Y-13157193D01*
X7193491Y-13157193D02*
X7203015Y-13147670D01*
X7203015Y-13147670D02*
X7222062Y-13138146D01*
X7412538Y-13138146D02*
X7431586Y-13138146D01*
X7431586Y-13138146D02*
X7450634Y-13147670D01*
X7450634Y-13147670D02*
X7460158Y-13157193D01*
X7460158Y-13157193D02*
X7469681Y-13176241D01*
X7469681Y-13176241D02*
X7479205Y-13214336D01*
X7479205Y-13214336D02*
X7479205Y-13261955D01*
X7479205Y-13261955D02*
X7469681Y-13300051D01*
X7469681Y-13300051D02*
X7460158Y-13319098D01*
X7460158Y-13319098D02*
X7450634Y-13328622D01*
X7450634Y-13328622D02*
X7431586Y-13338146D01*
X7431586Y-13338146D02*
X7412538Y-13338146D01*
X7412538Y-13338146D02*
X7393491Y-13328622D01*
X7393491Y-13328622D02*
X7383967Y-13319098D01*
X7383967Y-13319098D02*
X7374443Y-13300051D01*
X7374443Y-13300051D02*
X7364919Y-13261955D01*
X7364919Y-13261955D02*
X7364919Y-13214336D01*
X7364919Y-13214336D02*
X7374443Y-13176241D01*
X7374443Y-13176241D02*
X7383967Y-13157193D01*
X7383967Y-13157193D02*
X7393491Y-13147670D01*
X7393491Y-13147670D02*
X7412538Y-13138146D01*
X7564919Y-13338146D02*
X7564919Y-13204812D01*
X7564919Y-13223860D02*
X7574443Y-13214336D01*
X7574443Y-13214336D02*
X7593491Y-13204812D01*
X7593491Y-13204812D02*
X7622062Y-13204812D01*
X7622062Y-13204812D02*
X7641110Y-13214336D01*
X7641110Y-13214336D02*
X7650634Y-13233384D01*
X7650634Y-13233384D02*
X7650634Y-13338146D01*
X7650634Y-13233384D02*
X7660158Y-13214336D01*
X7660158Y-13214336D02*
X7679205Y-13204812D01*
X7679205Y-13204812D02*
X7707777Y-13204812D01*
X7707777Y-13204812D02*
X7726824Y-13214336D01*
X7726824Y-13214336D02*
X7736348Y-13233384D01*
X7736348Y-13233384D02*
X7736348Y-13338146D01*
X7831586Y-13338146D02*
X7831586Y-13204812D01*
X7831586Y-13223860D02*
X7841110Y-13214336D01*
X7841110Y-13214336D02*
X7860158Y-13204812D01*
X7860158Y-13204812D02*
X7888729Y-13204812D01*
X7888729Y-13204812D02*
X7907777Y-13214336D01*
X7907777Y-13214336D02*
X7917300Y-13233384D01*
X7917300Y-13233384D02*
X7917300Y-13338146D01*
X7917300Y-13233384D02*
X7926824Y-13214336D01*
X7926824Y-13214336D02*
X7945872Y-13204812D01*
X7945872Y-13204812D02*
X7974443Y-13204812D01*
X7974443Y-13204812D02*
X7993491Y-13214336D01*
X7993491Y-13214336D02*
X8003015Y-13233384D01*
X8003015Y-13233384D02*
X8003015Y-13338146D01*
X8393491Y-13128622D02*
X8222062Y-13385765D01*
X8650634Y-13138146D02*
X8669682Y-13138146D01*
X8669682Y-13138146D02*
X8688729Y-13147670D01*
X8688729Y-13147670D02*
X8698253Y-13157193D01*
X8698253Y-13157193D02*
X8707777Y-13176241D01*
X8707777Y-13176241D02*
X8717301Y-13214336D01*
X8717301Y-13214336D02*
X8717301Y-13261955D01*
X8717301Y-13261955D02*
X8707777Y-13300051D01*
X8707777Y-13300051D02*
X8698253Y-13319098D01*
X8698253Y-13319098D02*
X8688729Y-13328622D01*
X8688729Y-13328622D02*
X8669682Y-13338146D01*
X8669682Y-13338146D02*
X8650634Y-13338146D01*
X8650634Y-13338146D02*
X8631586Y-13328622D01*
X8631586Y-13328622D02*
X8622063Y-13319098D01*
X8622063Y-13319098D02*
X8612539Y-13300051D01*
X8612539Y-13300051D02*
X8603015Y-13261955D01*
X8603015Y-13261955D02*
X8603015Y-13214336D01*
X8603015Y-13214336D02*
X8612539Y-13176241D01*
X8612539Y-13176241D02*
X8622063Y-13157193D01*
X8622063Y-13157193D02*
X8631586Y-13147670D01*
X8631586Y-13147670D02*
X8650634Y-13138146D01*
X8803015Y-13319098D02*
X8812539Y-13328622D01*
X8812539Y-13328622D02*
X8803015Y-13338146D01*
X8803015Y-13338146D02*
X8793491Y-13328622D01*
X8793491Y-13328622D02*
X8803015Y-13319098D01*
X8803015Y-13319098D02*
X8803015Y-13338146D01*
X8936348Y-13138146D02*
X8955396Y-13138146D01*
X8955396Y-13138146D02*
X8974444Y-13147670D01*
X8974444Y-13147670D02*
X8983967Y-13157193D01*
X8983967Y-13157193D02*
X8993491Y-13176241D01*
X8993491Y-13176241D02*
X9003015Y-13214336D01*
X9003015Y-13214336D02*
X9003015Y-13261955D01*
X9003015Y-13261955D02*
X8993491Y-13300051D01*
X8993491Y-13300051D02*
X8983967Y-13319098D01*
X8983967Y-13319098D02*
X8974444Y-13328622D01*
X8974444Y-13328622D02*
X8955396Y-13338146D01*
X8955396Y-13338146D02*
X8936348Y-13338146D01*
X8936348Y-13338146D02*
X8917301Y-13328622D01*
X8917301Y-13328622D02*
X8907777Y-13319098D01*
X8907777Y-13319098D02*
X8898253Y-13300051D01*
X8898253Y-13300051D02*
X8888729Y-13261955D01*
X8888729Y-13261955D02*
X8888729Y-13214336D01*
X8888729Y-13214336D02*
X8898253Y-13176241D01*
X8898253Y-13176241D02*
X8907777Y-13157193D01*
X8907777Y-13157193D02*
X8917301Y-13147670D01*
X8917301Y-13147670D02*
X8936348Y-13138146D01*
X9117301Y-13223860D02*
X9098253Y-13214336D01*
X9098253Y-13214336D02*
X9088729Y-13204812D01*
X9088729Y-13204812D02*
X9079205Y-13185765D01*
X9079205Y-13185765D02*
X9079205Y-13176241D01*
X9079205Y-13176241D02*
X9088729Y-13157193D01*
X9088729Y-13157193D02*
X9098253Y-13147670D01*
X9098253Y-13147670D02*
X9117301Y-13138146D01*
X9117301Y-13138146D02*
X9155396Y-13138146D01*
X9155396Y-13138146D02*
X9174444Y-13147670D01*
X9174444Y-13147670D02*
X9183967Y-13157193D01*
X9183967Y-13157193D02*
X9193491Y-13176241D01*
X9193491Y-13176241D02*
X9193491Y-13185765D01*
X9193491Y-13185765D02*
X9183967Y-13204812D01*
X9183967Y-13204812D02*
X9174444Y-13214336D01*
X9174444Y-13214336D02*
X9155396Y-13223860D01*
X9155396Y-13223860D02*
X9117301Y-13223860D01*
X9117301Y-13223860D02*
X9098253Y-13233384D01*
X9098253Y-13233384D02*
X9088729Y-13242908D01*
X9088729Y-13242908D02*
X9079205Y-13261955D01*
X9079205Y-13261955D02*
X9079205Y-13300051D01*
X9079205Y-13300051D02*
X9088729Y-13319098D01*
X9088729Y-13319098D02*
X9098253Y-13328622D01*
X9098253Y-13328622D02*
X9117301Y-13338146D01*
X9117301Y-13338146D02*
X9155396Y-13338146D01*
X9155396Y-13338146D02*
X9174444Y-13328622D01*
X9174444Y-13328622D02*
X9183967Y-13319098D01*
X9183967Y-13319098D02*
X9193491Y-13300051D01*
X9193491Y-13300051D02*
X9193491Y-13261955D01*
X9193491Y-13261955D02*
X9183967Y-13242908D01*
X9183967Y-13242908D02*
X9174444Y-13233384D01*
X9174444Y-13233384D02*
X9155396Y-13223860D01*
X9364920Y-13138146D02*
X9326824Y-13138146D01*
X9326824Y-13138146D02*
X9307777Y-13147670D01*
X9307777Y-13147670D02*
X9298253Y-13157193D01*
X9298253Y-13157193D02*
X9279205Y-13185765D01*
X9279205Y-13185765D02*
X9269682Y-13223860D01*
X9269682Y-13223860D02*
X9269682Y-13300051D01*
X9269682Y-13300051D02*
X9279205Y-13319098D01*
X9279205Y-13319098D02*
X9288729Y-13328622D01*
X9288729Y-13328622D02*
X9307777Y-13338146D01*
X9307777Y-13338146D02*
X9345872Y-13338146D01*
X9345872Y-13338146D02*
X9364920Y-13328622D01*
X9364920Y-13328622D02*
X9374444Y-13319098D01*
X9374444Y-13319098D02*
X9383967Y-13300051D01*
X9383967Y-13300051D02*
X9383967Y-13252432D01*
X9383967Y-13252432D02*
X9374444Y-13233384D01*
X9374444Y-13233384D02*
X9364920Y-13223860D01*
X9364920Y-13223860D02*
X9345872Y-13214336D01*
X9345872Y-13214336D02*
X9307777Y-13214336D01*
X9307777Y-13214336D02*
X9288729Y-13223860D01*
X9288729Y-13223860D02*
X9279205Y-13233384D01*
X9279205Y-13233384D02*
X9269682Y-13252432D01*
X9555396Y-13138146D02*
X9517301Y-13138146D01*
X9517301Y-13138146D02*
X9498253Y-13147670D01*
X9498253Y-13147670D02*
X9488729Y-13157193D01*
X9488729Y-13157193D02*
X9469682Y-13185765D01*
X9469682Y-13185765D02*
X9460158Y-13223860D01*
X9460158Y-13223860D02*
X9460158Y-13300051D01*
X9460158Y-13300051D02*
X9469682Y-13319098D01*
X9469682Y-13319098D02*
X9479205Y-13328622D01*
X9479205Y-13328622D02*
X9498253Y-13338146D01*
X9498253Y-13338146D02*
X9536348Y-13338146D01*
X9536348Y-13338146D02*
X9555396Y-13328622D01*
X9555396Y-13328622D02*
X9564920Y-13319098D01*
X9564920Y-13319098D02*
X9574444Y-13300051D01*
X9574444Y-13300051D02*
X9574444Y-13252432D01*
X9574444Y-13252432D02*
X9564920Y-13233384D01*
X9564920Y-13233384D02*
X9555396Y-13223860D01*
X9555396Y-13223860D02*
X9536348Y-13214336D01*
X9536348Y-13214336D02*
X9498253Y-13214336D01*
X9498253Y-13214336D02*
X9479205Y-13223860D01*
X9479205Y-13223860D02*
X9469682Y-13233384D01*
X9469682Y-13233384D02*
X9460158Y-13252432D01*
X9650634Y-13138146D02*
X9650634Y-13176241D01*
X9726825Y-13138146D02*
X9726825Y-13176241D01*
X10022063Y-13414336D02*
X10012539Y-13404812D01*
X10012539Y-13404812D02*
X9993491Y-13376241D01*
X9993491Y-13376241D02*
X9983967Y-13357193D01*
X9983967Y-13357193D02*
X9974444Y-13328622D01*
X9974444Y-13328622D02*
X9964920Y-13281003D01*
X9964920Y-13281003D02*
X9964920Y-13242908D01*
X9964920Y-13242908D02*
X9974444Y-13195289D01*
X9974444Y-13195289D02*
X9983967Y-13166717D01*
X9983967Y-13166717D02*
X9993491Y-13147670D01*
X9993491Y-13147670D02*
X10012539Y-13119098D01*
X10012539Y-13119098D02*
X10022063Y-13109574D01*
X10183967Y-13204812D02*
X10183967Y-13338146D01*
X10136348Y-13128622D02*
X10088729Y-13271479D01*
X10088729Y-13271479D02*
X10212539Y-13271479D01*
X10441110Y-13338146D02*
X10441110Y-13138146D01*
X10526825Y-13338146D02*
X10526825Y-13233384D01*
X10526825Y-13233384D02*
X10517301Y-13214336D01*
X10517301Y-13214336D02*
X10498253Y-13204812D01*
X10498253Y-13204812D02*
X10469682Y-13204812D01*
X10469682Y-13204812D02*
X10450634Y-13214336D01*
X10450634Y-13214336D02*
X10441110Y-13223860D01*
X10650634Y-13338146D02*
X10631587Y-13328622D01*
X10631587Y-13328622D02*
X10622063Y-13319098D01*
X10622063Y-13319098D02*
X10612539Y-13300051D01*
X10612539Y-13300051D02*
X10612539Y-13242908D01*
X10612539Y-13242908D02*
X10622063Y-13223860D01*
X10622063Y-13223860D02*
X10631587Y-13214336D01*
X10631587Y-13214336D02*
X10650634Y-13204812D01*
X10650634Y-13204812D02*
X10679206Y-13204812D01*
X10679206Y-13204812D02*
X10698253Y-13214336D01*
X10698253Y-13214336D02*
X10707777Y-13223860D01*
X10707777Y-13223860D02*
X10717301Y-13242908D01*
X10717301Y-13242908D02*
X10717301Y-13300051D01*
X10717301Y-13300051D02*
X10707777Y-13319098D01*
X10707777Y-13319098D02*
X10698253Y-13328622D01*
X10698253Y-13328622D02*
X10679206Y-13338146D01*
X10679206Y-13338146D02*
X10650634Y-13338146D01*
X10831587Y-13338146D02*
X10812539Y-13328622D01*
X10812539Y-13328622D02*
X10803015Y-13309574D01*
X10803015Y-13309574D02*
X10803015Y-13138146D01*
X10983968Y-13328622D02*
X10964920Y-13338146D01*
X10964920Y-13338146D02*
X10926825Y-13338146D01*
X10926825Y-13338146D02*
X10907777Y-13328622D01*
X10907777Y-13328622D02*
X10898253Y-13309574D01*
X10898253Y-13309574D02*
X10898253Y-13233384D01*
X10898253Y-13233384D02*
X10907777Y-13214336D01*
X10907777Y-13214336D02*
X10926825Y-13204812D01*
X10926825Y-13204812D02*
X10964920Y-13204812D01*
X10964920Y-13204812D02*
X10983968Y-13214336D01*
X10983968Y-13214336D02*
X10993491Y-13233384D01*
X10993491Y-13233384D02*
X10993491Y-13252432D01*
X10993491Y-13252432D02*
X10898253Y-13271479D01*
X11069682Y-13328622D02*
X11088729Y-13338146D01*
X11088729Y-13338146D02*
X11126825Y-13338146D01*
X11126825Y-13338146D02*
X11145872Y-13328622D01*
X11145872Y-13328622D02*
X11155396Y-13309574D01*
X11155396Y-13309574D02*
X11155396Y-13300051D01*
X11155396Y-13300051D02*
X11145872Y-13281003D01*
X11145872Y-13281003D02*
X11126825Y-13271479D01*
X11126825Y-13271479D02*
X11098253Y-13271479D01*
X11098253Y-13271479D02*
X11079206Y-13261955D01*
X11079206Y-13261955D02*
X11069682Y-13242908D01*
X11069682Y-13242908D02*
X11069682Y-13233384D01*
X11069682Y-13233384D02*
X11079206Y-13214336D01*
X11079206Y-13214336D02*
X11098253Y-13204812D01*
X11098253Y-13204812D02*
X11126825Y-13204812D01*
X11126825Y-13204812D02*
X11145872Y-13214336D01*
X11222063Y-13414336D02*
X11231587Y-13404812D01*
X11231587Y-13404812D02*
X11250634Y-13376241D01*
X11250634Y-13376241D02*
X11260158Y-13357193D01*
X11260158Y-13357193D02*
X11269682Y-13328622D01*
X11269682Y-13328622D02*
X11279206Y-13281003D01*
X11279206Y-13281003D02*
X11279206Y-13242908D01*
X11279206Y-13242908D02*
X11269682Y-13195289D01*
X11269682Y-13195289D02*
X11260158Y-13166717D01*
X11260158Y-13166717D02*
X11250634Y-13147670D01*
X11250634Y-13147670D02*
X11231587Y-13119098D01*
X11231587Y-13119098D02*
X11222063Y-13109574D01*
X6247000Y-13466662D02*
X6447000Y-13666662D01*
X6447000Y-13466662D02*
X6247000Y-13666662D01*
X6417711Y-13637373D02*
X6417711Y-13495951D01*
X6276288Y-13495951D01*
X6276288Y-13637373D01*
X6417711Y-13637373D01*
X6688729Y-13458146D02*
X6812538Y-13458146D01*
X6812538Y-13458146D02*
X6745872Y-13534336D01*
X6745872Y-13534336D02*
X6774443Y-13534336D01*
X6774443Y-13534336D02*
X6793491Y-13543860D01*
X6793491Y-13543860D02*
X6803015Y-13553384D01*
X6803015Y-13553384D02*
X6812538Y-13572432D01*
X6812538Y-13572432D02*
X6812538Y-13620051D01*
X6812538Y-13620051D02*
X6803015Y-13639098D01*
X6803015Y-13639098D02*
X6793491Y-13648622D01*
X6793491Y-13648622D02*
X6774443Y-13658146D01*
X6774443Y-13658146D02*
X6717300Y-13658146D01*
X6717300Y-13658146D02*
X6698253Y-13648622D01*
X6698253Y-13648622D02*
X6688729Y-13639098D01*
X6898253Y-13639098D02*
X6907777Y-13648622D01*
X6907777Y-13648622D02*
X6898253Y-13658146D01*
X6898253Y-13658146D02*
X6888729Y-13648622D01*
X6888729Y-13648622D02*
X6898253Y-13639098D01*
X6898253Y-13639098D02*
X6898253Y-13658146D01*
X7079205Y-13524812D02*
X7079205Y-13658146D01*
X7031586Y-13448622D02*
X6983967Y-13591479D01*
X6983967Y-13591479D02*
X7107777Y-13591479D01*
X7222062Y-13458146D02*
X7241110Y-13458146D01*
X7241110Y-13458146D02*
X7260158Y-13467670D01*
X7260158Y-13467670D02*
X7269681Y-13477193D01*
X7269681Y-13477193D02*
X7279205Y-13496241D01*
X7279205Y-13496241D02*
X7288729Y-13534336D01*
X7288729Y-13534336D02*
X7288729Y-13581955D01*
X7288729Y-13581955D02*
X7279205Y-13620051D01*
X7279205Y-13620051D02*
X7269681Y-13639098D01*
X7269681Y-13639098D02*
X7260158Y-13648622D01*
X7260158Y-13648622D02*
X7241110Y-13658146D01*
X7241110Y-13658146D02*
X7222062Y-13658146D01*
X7222062Y-13658146D02*
X7203015Y-13648622D01*
X7203015Y-13648622D02*
X7193491Y-13639098D01*
X7193491Y-13639098D02*
X7183967Y-13620051D01*
X7183967Y-13620051D02*
X7174443Y-13581955D01*
X7174443Y-13581955D02*
X7174443Y-13534336D01*
X7174443Y-13534336D02*
X7183967Y-13496241D01*
X7183967Y-13496241D02*
X7193491Y-13477193D01*
X7193491Y-13477193D02*
X7203015Y-13467670D01*
X7203015Y-13467670D02*
X7222062Y-13458146D01*
X7412538Y-13458146D02*
X7431586Y-13458146D01*
X7431586Y-13458146D02*
X7450634Y-13467670D01*
X7450634Y-13467670D02*
X7460158Y-13477193D01*
X7460158Y-13477193D02*
X7469681Y-13496241D01*
X7469681Y-13496241D02*
X7479205Y-13534336D01*
X7479205Y-13534336D02*
X7479205Y-13581955D01*
X7479205Y-13581955D02*
X7469681Y-13620051D01*
X7469681Y-13620051D02*
X7460158Y-13639098D01*
X7460158Y-13639098D02*
X7450634Y-13648622D01*
X7450634Y-13648622D02*
X7431586Y-13658146D01*
X7431586Y-13658146D02*
X7412538Y-13658146D01*
X7412538Y-13658146D02*
X7393491Y-13648622D01*
X7393491Y-13648622D02*
X7383967Y-13639098D01*
X7383967Y-13639098D02*
X7374443Y-13620051D01*
X7374443Y-13620051D02*
X7364919Y-13581955D01*
X7364919Y-13581955D02*
X7364919Y-13534336D01*
X7364919Y-13534336D02*
X7374443Y-13496241D01*
X7374443Y-13496241D02*
X7383967Y-13477193D01*
X7383967Y-13477193D02*
X7393491Y-13467670D01*
X7393491Y-13467670D02*
X7412538Y-13458146D01*
X7564919Y-13658146D02*
X7564919Y-13524812D01*
X7564919Y-13543860D02*
X7574443Y-13534336D01*
X7574443Y-13534336D02*
X7593491Y-13524812D01*
X7593491Y-13524812D02*
X7622062Y-13524812D01*
X7622062Y-13524812D02*
X7641110Y-13534336D01*
X7641110Y-13534336D02*
X7650634Y-13553384D01*
X7650634Y-13553384D02*
X7650634Y-13658146D01*
X7650634Y-13553384D02*
X7660158Y-13534336D01*
X7660158Y-13534336D02*
X7679205Y-13524812D01*
X7679205Y-13524812D02*
X7707777Y-13524812D01*
X7707777Y-13524812D02*
X7726824Y-13534336D01*
X7726824Y-13534336D02*
X7736348Y-13553384D01*
X7736348Y-13553384D02*
X7736348Y-13658146D01*
X7831586Y-13658146D02*
X7831586Y-13524812D01*
X7831586Y-13543860D02*
X7841110Y-13534336D01*
X7841110Y-13534336D02*
X7860158Y-13524812D01*
X7860158Y-13524812D02*
X7888729Y-13524812D01*
X7888729Y-13524812D02*
X7907777Y-13534336D01*
X7907777Y-13534336D02*
X7917300Y-13553384D01*
X7917300Y-13553384D02*
X7917300Y-13658146D01*
X7917300Y-13553384D02*
X7926824Y-13534336D01*
X7926824Y-13534336D02*
X7945872Y-13524812D01*
X7945872Y-13524812D02*
X7974443Y-13524812D01*
X7974443Y-13524812D02*
X7993491Y-13534336D01*
X7993491Y-13534336D02*
X8003015Y-13553384D01*
X8003015Y-13553384D02*
X8003015Y-13658146D01*
X8393491Y-13448622D02*
X8222062Y-13705765D01*
X8650634Y-13458146D02*
X8669682Y-13458146D01*
X8669682Y-13458146D02*
X8688729Y-13467670D01*
X8688729Y-13467670D02*
X8698253Y-13477193D01*
X8698253Y-13477193D02*
X8707777Y-13496241D01*
X8707777Y-13496241D02*
X8717301Y-13534336D01*
X8717301Y-13534336D02*
X8717301Y-13581955D01*
X8717301Y-13581955D02*
X8707777Y-13620051D01*
X8707777Y-13620051D02*
X8698253Y-13639098D01*
X8698253Y-13639098D02*
X8688729Y-13648622D01*
X8688729Y-13648622D02*
X8669682Y-13658146D01*
X8669682Y-13658146D02*
X8650634Y-13658146D01*
X8650634Y-13658146D02*
X8631586Y-13648622D01*
X8631586Y-13648622D02*
X8622063Y-13639098D01*
X8622063Y-13639098D02*
X8612539Y-13620051D01*
X8612539Y-13620051D02*
X8603015Y-13581955D01*
X8603015Y-13581955D02*
X8603015Y-13534336D01*
X8603015Y-13534336D02*
X8612539Y-13496241D01*
X8612539Y-13496241D02*
X8622063Y-13477193D01*
X8622063Y-13477193D02*
X8631586Y-13467670D01*
X8631586Y-13467670D02*
X8650634Y-13458146D01*
X8803015Y-13639098D02*
X8812539Y-13648622D01*
X8812539Y-13648622D02*
X8803015Y-13658146D01*
X8803015Y-13658146D02*
X8793491Y-13648622D01*
X8793491Y-13648622D02*
X8803015Y-13639098D01*
X8803015Y-13639098D02*
X8803015Y-13658146D01*
X9003015Y-13658146D02*
X8888729Y-13658146D01*
X8945872Y-13658146D02*
X8945872Y-13458146D01*
X8945872Y-13458146D02*
X8926824Y-13486717D01*
X8926824Y-13486717D02*
X8907777Y-13505765D01*
X8907777Y-13505765D02*
X8888729Y-13515289D01*
X9069682Y-13458146D02*
X9193491Y-13458146D01*
X9193491Y-13458146D02*
X9126824Y-13534336D01*
X9126824Y-13534336D02*
X9155396Y-13534336D01*
X9155396Y-13534336D02*
X9174444Y-13543860D01*
X9174444Y-13543860D02*
X9183967Y-13553384D01*
X9183967Y-13553384D02*
X9193491Y-13572432D01*
X9193491Y-13572432D02*
X9193491Y-13620051D01*
X9193491Y-13620051D02*
X9183967Y-13639098D01*
X9183967Y-13639098D02*
X9174444Y-13648622D01*
X9174444Y-13648622D02*
X9155396Y-13658146D01*
X9155396Y-13658146D02*
X9098253Y-13658146D01*
X9098253Y-13658146D02*
X9079205Y-13648622D01*
X9079205Y-13648622D02*
X9069682Y-13639098D01*
X9260158Y-13458146D02*
X9383967Y-13458146D01*
X9383967Y-13458146D02*
X9317301Y-13534336D01*
X9317301Y-13534336D02*
X9345872Y-13534336D01*
X9345872Y-13534336D02*
X9364920Y-13543860D01*
X9364920Y-13543860D02*
X9374444Y-13553384D01*
X9374444Y-13553384D02*
X9383967Y-13572432D01*
X9383967Y-13572432D02*
X9383967Y-13620051D01*
X9383967Y-13620051D02*
X9374444Y-13639098D01*
X9374444Y-13639098D02*
X9364920Y-13648622D01*
X9364920Y-13648622D02*
X9345872Y-13658146D01*
X9345872Y-13658146D02*
X9288729Y-13658146D01*
X9288729Y-13658146D02*
X9269682Y-13648622D01*
X9269682Y-13648622D02*
X9260158Y-13639098D01*
X9479205Y-13658146D02*
X9517301Y-13658146D01*
X9517301Y-13658146D02*
X9536348Y-13648622D01*
X9536348Y-13648622D02*
X9545872Y-13639098D01*
X9545872Y-13639098D02*
X9564920Y-13610527D01*
X9564920Y-13610527D02*
X9574444Y-13572432D01*
X9574444Y-13572432D02*
X9574444Y-13496241D01*
X9574444Y-13496241D02*
X9564920Y-13477193D01*
X9564920Y-13477193D02*
X9555396Y-13467670D01*
X9555396Y-13467670D02*
X9536348Y-13458146D01*
X9536348Y-13458146D02*
X9498253Y-13458146D01*
X9498253Y-13458146D02*
X9479205Y-13467670D01*
X9479205Y-13467670D02*
X9469682Y-13477193D01*
X9469682Y-13477193D02*
X9460158Y-13496241D01*
X9460158Y-13496241D02*
X9460158Y-13543860D01*
X9460158Y-13543860D02*
X9469682Y-13562908D01*
X9469682Y-13562908D02*
X9479205Y-13572432D01*
X9479205Y-13572432D02*
X9498253Y-13581955D01*
X9498253Y-13581955D02*
X9536348Y-13581955D01*
X9536348Y-13581955D02*
X9555396Y-13572432D01*
X9555396Y-13572432D02*
X9564920Y-13562908D01*
X9564920Y-13562908D02*
X9574444Y-13543860D01*
X9650634Y-13458146D02*
X9650634Y-13496241D01*
X9726825Y-13458146D02*
X9726825Y-13496241D01*
X10022063Y-13734336D02*
X10012539Y-13724812D01*
X10012539Y-13724812D02*
X9993491Y-13696241D01*
X9993491Y-13696241D02*
X9983967Y-13677193D01*
X9983967Y-13677193D02*
X9974444Y-13648622D01*
X9974444Y-13648622D02*
X9964920Y-13601003D01*
X9964920Y-13601003D02*
X9964920Y-13562908D01*
X9964920Y-13562908D02*
X9974444Y-13515289D01*
X9974444Y-13515289D02*
X9983967Y-13486717D01*
X9983967Y-13486717D02*
X9993491Y-13467670D01*
X9993491Y-13467670D02*
X10012539Y-13439098D01*
X10012539Y-13439098D02*
X10022063Y-13429574D01*
X10088729Y-13477193D02*
X10098253Y-13467670D01*
X10098253Y-13467670D02*
X10117301Y-13458146D01*
X10117301Y-13458146D02*
X10164920Y-13458146D01*
X10164920Y-13458146D02*
X10183967Y-13467670D01*
X10183967Y-13467670D02*
X10193491Y-13477193D01*
X10193491Y-13477193D02*
X10203015Y-13496241D01*
X10203015Y-13496241D02*
X10203015Y-13515289D01*
X10203015Y-13515289D02*
X10193491Y-13543860D01*
X10193491Y-13543860D02*
X10079206Y-13658146D01*
X10079206Y-13658146D02*
X10203015Y-13658146D01*
X10441110Y-13658146D02*
X10441110Y-13458146D01*
X10526825Y-13658146D02*
X10526825Y-13553384D01*
X10526825Y-13553384D02*
X10517301Y-13534336D01*
X10517301Y-13534336D02*
X10498253Y-13524812D01*
X10498253Y-13524812D02*
X10469682Y-13524812D01*
X10469682Y-13524812D02*
X10450634Y-13534336D01*
X10450634Y-13534336D02*
X10441110Y-13543860D01*
X10650634Y-13658146D02*
X10631587Y-13648622D01*
X10631587Y-13648622D02*
X10622063Y-13639098D01*
X10622063Y-13639098D02*
X10612539Y-13620051D01*
X10612539Y-13620051D02*
X10612539Y-13562908D01*
X10612539Y-13562908D02*
X10622063Y-13543860D01*
X10622063Y-13543860D02*
X10631587Y-13534336D01*
X10631587Y-13534336D02*
X10650634Y-13524812D01*
X10650634Y-13524812D02*
X10679206Y-13524812D01*
X10679206Y-13524812D02*
X10698253Y-13534336D01*
X10698253Y-13534336D02*
X10707777Y-13543860D01*
X10707777Y-13543860D02*
X10717301Y-13562908D01*
X10717301Y-13562908D02*
X10717301Y-13620051D01*
X10717301Y-13620051D02*
X10707777Y-13639098D01*
X10707777Y-13639098D02*
X10698253Y-13648622D01*
X10698253Y-13648622D02*
X10679206Y-13658146D01*
X10679206Y-13658146D02*
X10650634Y-13658146D01*
X10831587Y-13658146D02*
X10812539Y-13648622D01*
X10812539Y-13648622D02*
X10803015Y-13629574D01*
X10803015Y-13629574D02*
X10803015Y-13458146D01*
X10983968Y-13648622D02*
X10964920Y-13658146D01*
X10964920Y-13658146D02*
X10926825Y-13658146D01*
X10926825Y-13658146D02*
X10907777Y-13648622D01*
X10907777Y-13648622D02*
X10898253Y-13629574D01*
X10898253Y-13629574D02*
X10898253Y-13553384D01*
X10898253Y-13553384D02*
X10907777Y-13534336D01*
X10907777Y-13534336D02*
X10926825Y-13524812D01*
X10926825Y-13524812D02*
X10964920Y-13524812D01*
X10964920Y-13524812D02*
X10983968Y-13534336D01*
X10983968Y-13534336D02*
X10993491Y-13553384D01*
X10993491Y-13553384D02*
X10993491Y-13572432D01*
X10993491Y-13572432D02*
X10898253Y-13591479D01*
X11069682Y-13648622D02*
X11088729Y-13658146D01*
X11088729Y-13658146D02*
X11126825Y-13658146D01*
X11126825Y-13658146D02*
X11145872Y-13648622D01*
X11145872Y-13648622D02*
X11155396Y-13629574D01*
X11155396Y-13629574D02*
X11155396Y-13620051D01*
X11155396Y-13620051D02*
X11145872Y-13601003D01*
X11145872Y-13601003D02*
X11126825Y-13591479D01*
X11126825Y-13591479D02*
X11098253Y-13591479D01*
X11098253Y-13591479D02*
X11079206Y-13581955D01*
X11079206Y-13581955D02*
X11069682Y-13562908D01*
X11069682Y-13562908D02*
X11069682Y-13553384D01*
X11069682Y-13553384D02*
X11079206Y-13534336D01*
X11079206Y-13534336D02*
X11098253Y-13524812D01*
X11098253Y-13524812D02*
X11126825Y-13524812D01*
X11126825Y-13524812D02*
X11145872Y-13534336D01*
X11222063Y-13734336D02*
X11231587Y-13724812D01*
X11231587Y-13724812D02*
X11250634Y-13696241D01*
X11250634Y-13696241D02*
X11260158Y-13677193D01*
X11260158Y-13677193D02*
X11269682Y-13648622D01*
X11269682Y-13648622D02*
X11279206Y-13601003D01*
X11279206Y-13601003D02*
X11279206Y-13562908D01*
X11279206Y-13562908D02*
X11269682Y-13515289D01*
X11269682Y-13515289D02*
X11260158Y-13486717D01*
X11260158Y-13486717D02*
X11250634Y-13467670D01*
X11250634Y-13467670D02*
X11231587Y-13439098D01*
X11231587Y-13439098D02*
X11222063Y-13429574D01*
M02*
