%TF.GenerationSoftware,KiCad,Pcbnew,7.0.5*%
%TF.CreationDate,2024-02-19T22:42:14+08:00*%
%TF.ProjectId,bat_rf,6261745f-7266-42e6-9b69-6361645f7063,rev?*%
%TF.SameCoordinates,Original*%
%TF.FileFunction,Legend,Top*%
%TF.FilePolarity,Positive*%
%FSLAX46Y46*%
G04 Gerber Fmt 4.6, Leading zero omitted, Abs format (unit mm)*
G04 Created by KiCad (PCBNEW 7.0.5) date 2024-02-19 22:42:14*
%MOMM*%
%LPD*%
G01*
G04 APERTURE LIST*
%ADD10C,0.254000*%
%ADD11C,0.500000*%
G04 APERTURE END LIST*
D10*
%TO.C,BT2*%
X126386000Y-91739000D02*
X49424000Y-91739000D01*
X126386000Y-85256000D02*
X126386000Y-91739000D01*
X126386000Y-66156000D02*
X126386000Y-77444000D01*
X126386000Y-51861000D02*
X126386000Y-58344000D01*
D11*
X115405000Y-60850000D02*
X115405000Y-63750000D01*
X113905000Y-81800000D02*
X116905000Y-81800000D01*
X113905000Y-62300000D02*
X116905000Y-62300000D01*
X59905000Y-79850000D02*
X59905000Y-82750000D01*
X58880000Y-62300000D02*
X61930000Y-62300000D01*
X58405000Y-81300000D02*
X61405000Y-81300000D01*
D10*
X49424000Y-91739000D02*
X49424000Y-85256000D01*
X49424000Y-77444000D02*
X49424000Y-66156000D01*
X49424000Y-58344000D02*
X49424000Y-51861000D01*
X49424000Y-51861000D02*
X126386000Y-51861000D01*
%TO.C,J4*%
X131865000Y-66275000D02*
X126665000Y-66275000D01*
X126665000Y-66275000D02*
X126665000Y-73889000D01*
X131465000Y-66675000D02*
X127065000Y-66675000D01*
X131465000Y-66675000D02*
X131465000Y-73375000D01*
X127065000Y-66675000D02*
X127065000Y-73375000D01*
X131465000Y-73375000D02*
X131465000Y-73875000D01*
X127065000Y-73375000D02*
X127065000Y-73876000D01*
X131465000Y-73875000D02*
X131465000Y-73875000D01*
X127065000Y-73876000D02*
X127065000Y-73876000D01*
X131865000Y-73889000D02*
X131865000Y-66275000D01*
X127065000Y-73875000D02*
G75*
G03*
X131465000Y-73875000I2200000J0D01*
G01*
X126665000Y-73889001D02*
G75*
G03*
X131865000Y-73889000I2600000J1D01*
G01*
%TD*%
M02*
