M48
; DRILL file {KiCad 7.0.5} date Mon Feb 19 22:42:10 2024
; FORMAT={-:-/ absolute / inch / decimal}
; #@! TF.CreationDate,2024-02-19T22:42:10+08:00
; #@! TF.GenerationSoftware,Kicad,Pcbnew,7.0.5
; #@! TF.FileFunction,Plated,1,2,PTH
FMAT,2
INCH
; #@! TA.AperFunction,Plated,PTH,ViaDrill
T1C0.0118
; #@! TA.AperFunction,Plated,PTH,ViaDrill
T2C0.0157
; #@! TA.AperFunction,Plated,PTH,ViaDrill
T3C0.0197
; #@! TA.AperFunction,Plated,PTH,ComponentDrill
T4C0.0197
; #@! TA.AperFunction,Plated,PTH,ComponentDrill
T5C0.0866
; #@! TA.AperFunction,Plated,PTH,ComponentDrill
T6C0.1000
%
G90
G05
T1
X1.8134Y-3.0345
X1.8594Y-2.978
X2.0114Y-2.1053
X2.0803Y-2.0953
X2.2717Y-3.5118
X2.3454Y-3.438
X2.5827Y-3.5157
X2.5945Y-3.5827
X2.6654Y-3.5433
X2.6739Y-2.0927
X2.7566Y-3.5492
X2.7673Y-2.0965
X3.1884Y-2.8667
X3.2317Y-2.91
X3.3014Y-2.86
X3.3228Y-3.5906
X3.3259Y-2.1014
X3.3268Y-3.5354
X3.3661Y-2.8375
X3.4106Y-3.5472
X3.4154Y-2.1043
X3.4648Y-3.5433
X3.6746Y-2.6443
X3.7389Y-2.5722
X3.748Y-3.0197
X3.7608Y-3.0463
X3.781Y-2.5064
X3.7967Y-2.7663
X3.8217Y-2.4775
X3.8786Y-2.7119
X4.0134Y-2.1092
X4.0181Y-3.3795
X4.0354Y-3.5276
X4.0354Y-3.5906
X4.0827Y-2.1024
X4.0984Y-3.2549
X4.1138Y-3.5518
X4.1339Y-2.7913
X4.1417Y-2.4646
X4.1575Y-2.1457
X4.1614Y-2.2717
X4.1765Y-3.0794
X4.2007Y-3.5531
X4.226Y-3.1598
X4.2267Y-2.8698
X4.2447Y-3.0112
X4.2656Y-3.0321
X4.3543Y-2.3401
X4.4055Y-2.282
X4.4094Y-2.4213
X4.5896Y-2.6102
X4.6388Y-2.6063
X4.6457Y-3.5827
X4.6496Y-3.5433
X4.6986Y-2.1053
X4.7367Y-3.5454
X4.7559Y-2.2205
X4.7638Y-2.0984
X4.8247Y-3.5548
X4.9173Y-3.3661
X4.9291Y-2.3228
X4.966Y-3.3605
X5.0Y-2.2795
X5.0024Y-3.404
X5.1422Y-2.6092
X5.1693Y-3.5906
X5.199Y-2.4724
T2
X4.6417Y-2.6969
X4.815Y-2.5591
X4.9449Y-2.4173
T3
X1.8309Y-3.1872
X1.8583Y-2.3406
X1.9631Y-2.3401
X1.9724Y-2.6811
X1.9724Y-2.9291
X1.9764Y-2.7227
X1.9764Y-3.5827
X1.9911Y-2.312
X1.9961Y-3.4724
X2.0571Y-2.6102
X2.1083Y-2.6063
X2.1457Y-2.0591
X2.1496Y-2.439
X2.1521Y-2.1049
X2.2756Y-2.4803
X2.315Y-2.4567
X2.4311Y-2.4173
X2.5Y-2.4213
X2.5551Y-2.8031
X2.565Y-2.2598
X2.5846Y-2.1969
X2.622Y-2.4429
X2.6654Y-3.3898
X2.689Y-2.748
X2.7913Y-2.5945
X2.8346Y-2.063
X2.8386Y-2.1063
X2.8386Y-2.9134
X2.8465Y-2.6772
X2.8465Y-2.7362
X2.8622Y-2.2677
X2.874Y-3.3898
X2.9016Y-2.9252
X2.9528Y-2.3401
X2.9606Y-2.4646
X2.9606Y-2.9252
X2.9961Y-2.3401
X3.0315Y-2.2771
X3.0315Y-2.4646
X3.0394Y-2.3401
X3.0709Y-2.2323
X3.0709Y-2.2677
X3.1063Y-2.1811
X3.1063Y-2.4567
X3.1231Y-2.3499
X3.4606Y-3.2795
X3.4685Y-2.2677
X3.4843Y-2.063
X3.4843Y-2.1024
X3.4982Y-2.1471
X3.5016Y-2.4941
X3.5157Y-2.248
X3.5748Y-3.1457
X3.5827Y-3.3465
X3.6272Y-2.4945
X3.6441Y-2.6079
X3.6496Y-3.2441
X3.6646Y-2.5209
X3.6646Y-2.572
X3.9679Y-3.0603
X3.9986Y-3.0359
X4.0315Y-3.2323
X4.0551Y-3.4252
X4.1535Y-3.4173
X4.2938Y-2.8543
X4.3071Y-3.2992
X4.3071Y-3.4173
X4.8465Y-2.7244
X4.8504Y-2.9094
X4.8543Y-2.6811
X4.8543Y-2.7638
X4.8583Y-2.8622
X4.874Y-2.9291
X4.8804Y-2.884
X4.8858Y-2.7283
X4.8898Y-2.685
X4.8898Y-2.8543
X4.8937Y-2.7717
X4.9002Y-2.9085
T5
X1.8293Y-2.1447
X1.8293Y-3.4833
X5.1181Y-2.1447
X5.1181Y-3.4833
T6
X5.0892Y-2.7116
X5.0892Y-2.9085
T4
G00X1.7461Y-2.6518
M15
G01X1.7736Y-2.6518
M16
G05
G00X1.7461Y-2.9919
M15
G01X1.7736Y-2.9919
M16
G05
G00X1.8957Y-2.6518
M15
G01X1.9232Y-2.6518
M16
G05
G00X1.8957Y-2.9919
M15
G01X1.9232Y-2.9919
M16
G05
T0
M30
