%TF.GenerationSoftware,KiCad,Pcbnew,8.0.2*%
%TF.CreationDate,2024-06-01T23:05:54+08:00*%
%TF.ProjectId,bat_rf,6261745f-7266-42e6-9b69-6361645f7063,rev?*%
%TF.SameCoordinates,Original*%
%TF.FileFunction,Legend,Bot*%
%TF.FilePolarity,Positive*%
%FSLAX46Y46*%
G04 Gerber Fmt 4.6, Leading zero omitted, Abs format (unit mm)*
G04 Created by KiCad (PCBNEW 8.0.2) date 2024-06-01 23:05:54*
%MOMM*%
%LPD*%
G01*
G04 APERTURE LIST*
%ADD10C,0.150000*%
%ADD11C,0.300000*%
%ADD12C,0.100000*%
%ADD13C,0.375000*%
%ADD14C,0.203000*%
%ADD15C,0.152000*%
%ADD16C,0.120000*%
%ADD17C,0.127000*%
%ADD18C,0.254000*%
%ADD19C,0.200000*%
%ADD20C,0.500000*%
G04 APERTURE END LIST*
D10*
X97000000Y-87400000D02*
X121969483Y-87400000D01*
X121969483Y-106155000D01*
X97000000Y-106155000D01*
X97000000Y-87400000D01*
X71100000Y-74000000D02*
X96900000Y-74000000D01*
X96900000Y-89200000D01*
X71100000Y-89200000D01*
X71100000Y-74000000D01*
X83000000Y-89200000D02*
X96900000Y-89200000D01*
X96900000Y-106700000D01*
X83000000Y-106700000D01*
X83000000Y-89200000D01*
X128976250Y-82900000D02*
X147000000Y-82900000D01*
X147000000Y-99832000D01*
X128976250Y-99832000D01*
X128976250Y-82900000D01*
G36*
X143140625Y-83510204D02*
G01*
X143171952Y-83540448D01*
X143207341Y-83609171D01*
X143208542Y-83859490D01*
X143175215Y-83928175D01*
X143144969Y-83959504D01*
X143076179Y-83994928D01*
X142921010Y-83996018D01*
X142880663Y-83976442D01*
X142879825Y-83497147D01*
X142916926Y-83478042D01*
X143072095Y-83476952D01*
X143140625Y-83510204D01*
G37*
G36*
X142273690Y-83505453D02*
G01*
X142302561Y-83561517D01*
X142302866Y-83645339D01*
X141975522Y-83580850D01*
X141975318Y-83565284D01*
X142003616Y-83506966D01*
X142059783Y-83478042D01*
X142214952Y-83476952D01*
X142273690Y-83505453D01*
G37*
G36*
X144405315Y-83761203D02*
G01*
X144408004Y-83761394D01*
X144410493Y-83762425D01*
X144425125Y-83763866D01*
X144643432Y-83762621D01*
X144702262Y-83791167D01*
X144731284Y-83847524D01*
X144732073Y-83907685D01*
X144703776Y-83966004D01*
X144647648Y-83994907D01*
X144444912Y-83996063D01*
X144404637Y-83976521D01*
X144404059Y-83760593D01*
X144405315Y-83761203D01*
G37*
G36*
X146896950Y-84589263D02*
G01*
X141715204Y-84589263D01*
X141715204Y-83546009D01*
X141826315Y-83546009D01*
X141827486Y-83635312D01*
X141826315Y-83641169D01*
X141827651Y-83647925D01*
X141827756Y-83655879D01*
X141830567Y-83662667D01*
X141831994Y-83669876D01*
X141836113Y-83676055D01*
X141838955Y-83682915D01*
X141844150Y-83688110D01*
X141848226Y-83694224D01*
X141854396Y-83698356D01*
X141859647Y-83703607D01*
X141866435Y-83706418D01*
X141872541Y-83710508D01*
X141886606Y-83714791D01*
X142303418Y-83796905D01*
X142303820Y-83907028D01*
X142275204Y-83966004D01*
X142219036Y-83994928D01*
X142063867Y-83996018D01*
X141968743Y-83949863D01*
X141939553Y-83947789D01*
X141911792Y-83957043D01*
X141889684Y-83976216D01*
X141876597Y-84002391D01*
X141874523Y-84031581D01*
X141883777Y-84059342D01*
X141902950Y-84081450D01*
X141915393Y-84089282D01*
X142001282Y-84130957D01*
X142002504Y-84132179D01*
X142011363Y-84135848D01*
X142024362Y-84142156D01*
X142027051Y-84142347D01*
X142029540Y-84143378D01*
X142044172Y-84144819D01*
X142223259Y-84143560D01*
X142225267Y-84144230D01*
X142235939Y-84143471D01*
X142249280Y-84143378D01*
X142251769Y-84142346D01*
X142254457Y-84142156D01*
X142268189Y-84136901D01*
X142359573Y-84089841D01*
X142367028Y-84087357D01*
X142370870Y-84084024D01*
X142375870Y-84081450D01*
X142382031Y-84074345D01*
X142389136Y-84068184D01*
X142393797Y-84060778D01*
X142395043Y-84059342D01*
X142395427Y-84058188D01*
X142396968Y-84055741D01*
X142438642Y-83969851D01*
X142439865Y-83968629D01*
X142443536Y-83959764D01*
X142449842Y-83946770D01*
X142450032Y-83944082D01*
X142451064Y-83941593D01*
X142452505Y-83926961D01*
X142451823Y-83739968D01*
X142452505Y-83736563D01*
X142451798Y-83732991D01*
X142451159Y-83557657D01*
X142451916Y-83555389D01*
X142451110Y-83544047D01*
X142451064Y-83531377D01*
X142450033Y-83528888D01*
X142449842Y-83526199D01*
X142444587Y-83512468D01*
X142397527Y-83421083D01*
X142395043Y-83413629D01*
X142391710Y-83409786D01*
X142389136Y-83404787D01*
X142387251Y-83403152D01*
X142731077Y-83403152D01*
X142732163Y-84024578D01*
X142731666Y-84031581D01*
X142732178Y-84033118D01*
X142732471Y-84200877D01*
X142731666Y-84203295D01*
X142732496Y-84214982D01*
X142732518Y-84227308D01*
X142733549Y-84229797D01*
X142733740Y-84232485D01*
X142738995Y-84246217D01*
X142787687Y-84340773D01*
X142791336Y-84349582D01*
X142793718Y-84352484D01*
X142794446Y-84353898D01*
X142795944Y-84355197D01*
X142800663Y-84360947D01*
X142849698Y-84408288D01*
X142855331Y-84414783D01*
X142858476Y-84416762D01*
X142859647Y-84417893D01*
X142861474Y-84418650D01*
X142867774Y-84422615D01*
X142953663Y-84464290D01*
X142954885Y-84465512D01*
X142963744Y-84469181D01*
X142976743Y-84475489D01*
X142979432Y-84475680D01*
X142981921Y-84476711D01*
X142996553Y-84478152D01*
X143128182Y-84476947D01*
X143130029Y-84477563D01*
X143140243Y-84476837D01*
X143154042Y-84476711D01*
X143156531Y-84475679D01*
X143159219Y-84475489D01*
X143172951Y-84470234D01*
X143280632Y-84414783D01*
X143299805Y-84392675D01*
X143309059Y-84364914D01*
X143306985Y-84335724D01*
X143293897Y-84309549D01*
X143271790Y-84290376D01*
X143244028Y-84281122D01*
X143214838Y-84283196D01*
X143201107Y-84288451D01*
X143123732Y-84328295D01*
X143016100Y-84329280D01*
X142947719Y-84296100D01*
X142916391Y-84265855D01*
X142881049Y-84197224D01*
X142880953Y-84141888D01*
X142881505Y-84142156D01*
X142884194Y-84142347D01*
X142886683Y-84143378D01*
X142901315Y-84144819D01*
X143080402Y-84143560D01*
X143082410Y-84144230D01*
X143093082Y-84143471D01*
X143106423Y-84143378D01*
X143108912Y-84142346D01*
X143111600Y-84142156D01*
X143125332Y-84136901D01*
X143219886Y-84088209D01*
X143228697Y-84084560D01*
X143231599Y-84082177D01*
X143233013Y-84081450D01*
X143234313Y-84079950D01*
X143240063Y-84075232D01*
X143287404Y-84026195D01*
X143293898Y-84020564D01*
X143295877Y-84017418D01*
X143297009Y-84016247D01*
X143297766Y-84014417D01*
X143301730Y-84008121D01*
X143343405Y-83922231D01*
X143344627Y-83921010D01*
X143348296Y-83912150D01*
X143354604Y-83899152D01*
X143354795Y-83896462D01*
X143355826Y-83893974D01*
X143357267Y-83879342D01*
X143355951Y-83605187D01*
X143356678Y-83603008D01*
X143355887Y-83591887D01*
X143355826Y-83578996D01*
X143354795Y-83576507D01*
X143354604Y-83573818D01*
X143349349Y-83560087D01*
X143300657Y-83465532D01*
X143297008Y-83456722D01*
X143294625Y-83453819D01*
X143293898Y-83452406D01*
X143292399Y-83451106D01*
X143287681Y-83445357D01*
X143238645Y-83398015D01*
X143233013Y-83391521D01*
X143229867Y-83389541D01*
X143228810Y-83388520D01*
X143494423Y-83388520D01*
X143494423Y-83417784D01*
X143505622Y-83444820D01*
X143526314Y-83465512D01*
X143553350Y-83476711D01*
X143567982Y-83478152D01*
X143643944Y-83477155D01*
X143712054Y-83510204D01*
X143743381Y-83540448D01*
X143779133Y-83609875D01*
X143780137Y-84084451D01*
X143791336Y-84111487D01*
X143812028Y-84132179D01*
X143839064Y-84143378D01*
X143868328Y-84143378D01*
X143895364Y-84132179D01*
X143916056Y-84111487D01*
X143927255Y-84084451D01*
X143928696Y-84069819D01*
X143927711Y-83604195D01*
X143928107Y-83603008D01*
X143927696Y-83597229D01*
X143927588Y-83546009D01*
X144254887Y-83546009D01*
X144256160Y-84021944D01*
X144255476Y-84031581D01*
X144256192Y-84033729D01*
X144256328Y-84084451D01*
X144267527Y-84111487D01*
X144288219Y-84132179D01*
X144315255Y-84143378D01*
X144344519Y-84143378D01*
X144371555Y-84132179D01*
X144375866Y-84127867D01*
X144382235Y-84130957D01*
X144383457Y-84132179D01*
X144392316Y-84135848D01*
X144405315Y-84142156D01*
X144408004Y-84142347D01*
X144410493Y-84143378D01*
X144425125Y-84144819D01*
X144651729Y-84143526D01*
X144653839Y-84144230D01*
X144664781Y-84143452D01*
X144677852Y-84143378D01*
X144680341Y-84142346D01*
X144683029Y-84142156D01*
X144696761Y-84136901D01*
X144788145Y-84089841D01*
X144795600Y-84087357D01*
X144799442Y-84084024D01*
X144804442Y-84081450D01*
X144810603Y-84074345D01*
X144817708Y-84068184D01*
X144822369Y-84060778D01*
X144823615Y-84059342D01*
X144823999Y-84058188D01*
X144825540Y-84055741D01*
X144867214Y-83969851D01*
X144868437Y-83968629D01*
X144872108Y-83959764D01*
X144878414Y-83946770D01*
X144878604Y-83944082D01*
X144879636Y-83941593D01*
X144881077Y-83926961D01*
X144879971Y-83842653D01*
X144880488Y-83841103D01*
X144879829Y-83831832D01*
X144879636Y-83817091D01*
X144878605Y-83814602D01*
X144878414Y-83811913D01*
X144873159Y-83798182D01*
X144826099Y-83706797D01*
X144823615Y-83699343D01*
X144820282Y-83695500D01*
X144817708Y-83690501D01*
X144810603Y-83684339D01*
X144804442Y-83677235D01*
X144797036Y-83672573D01*
X144795600Y-83671328D01*
X144794446Y-83670943D01*
X144791999Y-83669403D01*
X144706110Y-83627728D01*
X144704888Y-83626506D01*
X144696022Y-83622833D01*
X144683029Y-83616529D01*
X144680341Y-83616338D01*
X144677852Y-83615307D01*
X144663220Y-83613866D01*
X144444912Y-83615110D01*
X144403616Y-83595073D01*
X144403538Y-83566010D01*
X144413243Y-83546009D01*
X145159649Y-83546009D01*
X145161090Y-84084451D01*
X145172289Y-84111487D01*
X145192981Y-84132179D01*
X145220017Y-84143378D01*
X145249281Y-84143378D01*
X145276317Y-84132179D01*
X145297009Y-84111487D01*
X145308208Y-84084451D01*
X145309649Y-84069819D01*
X145308300Y-83566010D01*
X145336950Y-83506966D01*
X145393183Y-83478008D01*
X145500815Y-83477023D01*
X145569197Y-83510204D01*
X145588872Y-83529199D01*
X145589661Y-84084451D01*
X145600860Y-84111487D01*
X145621552Y-84132179D01*
X145648588Y-84143378D01*
X145677852Y-84143378D01*
X145704888Y-84132179D01*
X145725580Y-84111487D01*
X145736779Y-84084451D01*
X145738220Y-84069819D01*
X145736914Y-83150426D01*
X146018233Y-83150426D01*
X146018233Y-83179688D01*
X146029432Y-83206725D01*
X146050124Y-83227417D01*
X146077161Y-83238616D01*
X146106423Y-83238616D01*
X146133460Y-83227417D01*
X146144825Y-83218090D01*
X146178347Y-83183367D01*
X146291053Y-83144703D01*
X146362432Y-83143767D01*
X146478359Y-83181290D01*
X146552568Y-83254080D01*
X146591259Y-83329215D01*
X146635877Y-83502645D01*
X146637019Y-83627417D01*
X146594993Y-83800540D01*
X146556268Y-83880350D01*
X146481991Y-83956076D01*
X146368719Y-83994934D01*
X146297341Y-83995870D01*
X146181149Y-83958262D01*
X146133460Y-83912220D01*
X146106424Y-83901021D01*
X146077161Y-83901021D01*
X146050125Y-83912219D01*
X146029432Y-83932912D01*
X146018233Y-83959948D01*
X146018233Y-83989211D01*
X146029431Y-84016247D01*
X146038758Y-84027612D01*
X146079583Y-84067027D01*
X146080161Y-84068183D01*
X146086252Y-84073466D01*
X146097743Y-84084560D01*
X146100231Y-84085590D01*
X146102268Y-84087357D01*
X146115694Y-84093351D01*
X146258275Y-84139500D01*
X146267636Y-84143378D01*
X146271399Y-84143748D01*
X146272887Y-84144230D01*
X146274861Y-84144089D01*
X146282268Y-84144819D01*
X146377585Y-84143568D01*
X146386886Y-84144230D01*
X146390540Y-84143398D01*
X146392138Y-84143378D01*
X146393969Y-84142619D01*
X146401223Y-84140970D01*
X146533013Y-84095759D01*
X146534995Y-84095759D01*
X146544547Y-84091802D01*
X146557505Y-84087357D01*
X146559540Y-84085591D01*
X146562031Y-84084560D01*
X146573396Y-84075233D01*
X146667328Y-83979468D01*
X146674851Y-83972945D01*
X146676863Y-83969748D01*
X146677962Y-83968628D01*
X146678719Y-83966798D01*
X146682683Y-83960502D01*
X146726951Y-83869269D01*
X146731034Y-83863759D01*
X146734969Y-83852743D01*
X146735557Y-83851533D01*
X146735595Y-83850992D01*
X146735981Y-83849913D01*
X146781221Y-83663547D01*
X146784398Y-83655879D01*
X146785295Y-83646764D01*
X146785750Y-83644893D01*
X146785587Y-83643800D01*
X146785839Y-83641247D01*
X146784571Y-83502667D01*
X146785750Y-83494744D01*
X146784415Y-83485719D01*
X146784398Y-83483758D01*
X146783975Y-83482736D01*
X146783600Y-83480200D01*
X146736082Y-83295501D01*
X146735557Y-83288104D01*
X146731353Y-83277121D01*
X146731034Y-83275878D01*
X146730711Y-83275442D01*
X146730302Y-83274373D01*
X146681613Y-83179823D01*
X146677962Y-83171008D01*
X146675577Y-83168102D01*
X146674851Y-83166692D01*
X146673354Y-83165393D01*
X146668634Y-83159643D01*
X146580463Y-83073158D01*
X146579612Y-83071455D01*
X146571969Y-83064826D01*
X146562031Y-83055078D01*
X146559540Y-83054046D01*
X146557505Y-83052281D01*
X146544080Y-83046287D01*
X146401501Y-83000138D01*
X146392138Y-82996260D01*
X146388372Y-82995889D01*
X146386886Y-82995408D01*
X146384911Y-82995548D01*
X146377506Y-82994819D01*
X146282187Y-82996069D01*
X146272887Y-82995408D01*
X146269232Y-82996239D01*
X146267636Y-82996260D01*
X146265805Y-82997018D01*
X146258550Y-82998668D01*
X146126760Y-83043879D01*
X146124779Y-83043879D01*
X146115231Y-83047833D01*
X146102268Y-83052281D01*
X146100231Y-83054047D01*
X146097743Y-83055078D01*
X146086378Y-83064405D01*
X146029432Y-83123389D01*
X146018233Y-83150426D01*
X145736914Y-83150426D01*
X145736779Y-83055187D01*
X145725580Y-83028151D01*
X145704888Y-83007459D01*
X145677852Y-82996260D01*
X145648588Y-82996260D01*
X145621552Y-83007459D01*
X145600860Y-83028151D01*
X145589661Y-83055187D01*
X145588220Y-83069819D01*
X145588624Y-83354324D01*
X145563253Y-83342014D01*
X145562031Y-83340792D01*
X145553165Y-83337119D01*
X145540172Y-83330815D01*
X145537484Y-83330624D01*
X145534995Y-83329593D01*
X145520363Y-83328152D01*
X145388732Y-83329356D01*
X145386886Y-83328741D01*
X145376671Y-83329466D01*
X145362874Y-83329593D01*
X145360385Y-83330623D01*
X145357696Y-83330815D01*
X145343965Y-83336070D01*
X145252580Y-83383129D01*
X145245126Y-83385614D01*
X145241283Y-83388946D01*
X145236284Y-83391521D01*
X145230122Y-83398625D01*
X145223018Y-83404787D01*
X145218356Y-83412192D01*
X145217111Y-83413629D01*
X145216726Y-83414782D01*
X145215186Y-83417230D01*
X145173511Y-83503118D01*
X145172289Y-83504341D01*
X145168616Y-83513206D01*
X145162312Y-83526200D01*
X145162121Y-83528887D01*
X145161090Y-83531377D01*
X145159649Y-83546009D01*
X144413243Y-83546009D01*
X144432188Y-83506966D01*
X144488355Y-83478042D01*
X144643524Y-83476952D01*
X144738648Y-83523108D01*
X144767838Y-83525182D01*
X144795600Y-83515928D01*
X144817707Y-83496755D01*
X144830795Y-83470580D01*
X144832869Y-83441390D01*
X144823615Y-83413629D01*
X144804442Y-83391521D01*
X144791999Y-83383689D01*
X144706110Y-83342014D01*
X144704888Y-83340792D01*
X144696022Y-83337119D01*
X144683029Y-83330815D01*
X144680341Y-83330624D01*
X144677852Y-83329593D01*
X144663220Y-83328152D01*
X144484131Y-83329410D01*
X144482124Y-83328741D01*
X144471451Y-83329499D01*
X144458112Y-83329593D01*
X144455623Y-83330623D01*
X144452934Y-83330815D01*
X144439203Y-83336070D01*
X144347818Y-83383129D01*
X144340364Y-83385614D01*
X144336521Y-83388946D01*
X144331522Y-83391521D01*
X144325360Y-83398625D01*
X144318256Y-83404787D01*
X144313594Y-83412192D01*
X144312349Y-83413629D01*
X144311964Y-83414782D01*
X144310424Y-83417230D01*
X144268749Y-83503118D01*
X144267527Y-83504341D01*
X144263854Y-83513206D01*
X144257550Y-83526200D01*
X144257359Y-83528887D01*
X144256328Y-83531377D01*
X144254887Y-83546009D01*
X143927588Y-83546009D01*
X143927255Y-83388520D01*
X143916056Y-83361484D01*
X143895364Y-83340792D01*
X143868328Y-83329593D01*
X143839064Y-83329593D01*
X143812028Y-83340792D01*
X143791336Y-83361484D01*
X143783788Y-83379705D01*
X143706110Y-83342014D01*
X143704888Y-83340792D01*
X143696022Y-83337119D01*
X143683029Y-83330815D01*
X143680341Y-83330624D01*
X143677852Y-83329593D01*
X143663220Y-83328152D01*
X143553350Y-83329593D01*
X143526314Y-83340792D01*
X143505622Y-83361484D01*
X143494423Y-83388520D01*
X143228810Y-83388520D01*
X143228697Y-83388411D01*
X143226869Y-83387653D01*
X143220570Y-83383689D01*
X143134681Y-83342014D01*
X143133459Y-83340792D01*
X143124593Y-83337119D01*
X143111600Y-83330815D01*
X143108912Y-83330624D01*
X143106423Y-83329593D01*
X143091791Y-83328152D01*
X142912702Y-83329410D01*
X142910695Y-83328741D01*
X142900022Y-83329499D01*
X142886683Y-83329593D01*
X142884194Y-83330623D01*
X142881505Y-83330815D01*
X142867774Y-83336070D01*
X142851436Y-83344483D01*
X142847745Y-83340792D01*
X142820709Y-83329593D01*
X142791445Y-83329593D01*
X142764409Y-83340792D01*
X142743717Y-83361484D01*
X142732518Y-83388520D01*
X142731077Y-83403152D01*
X142387251Y-83403152D01*
X142382031Y-83398625D01*
X142375870Y-83391521D01*
X142368464Y-83386859D01*
X142367028Y-83385614D01*
X142365874Y-83385229D01*
X142363427Y-83383689D01*
X142277538Y-83342014D01*
X142276316Y-83340792D01*
X142267450Y-83337119D01*
X142254457Y-83330815D01*
X142251769Y-83330624D01*
X142249280Y-83329593D01*
X142234648Y-83328152D01*
X142055559Y-83329410D01*
X142053552Y-83328741D01*
X142042879Y-83329499D01*
X142029540Y-83329593D01*
X142027051Y-83330623D01*
X142024362Y-83330815D01*
X142010631Y-83336070D01*
X141919246Y-83383129D01*
X141911792Y-83385614D01*
X141907949Y-83388946D01*
X141902950Y-83391521D01*
X141896788Y-83398625D01*
X141889684Y-83404787D01*
X141885022Y-83412192D01*
X141883777Y-83413629D01*
X141883392Y-83414782D01*
X141881852Y-83417230D01*
X141840177Y-83503118D01*
X141838955Y-83504341D01*
X141835282Y-83513206D01*
X141828978Y-83526200D01*
X141828787Y-83528887D01*
X141827756Y-83531377D01*
X141826315Y-83546009D01*
X141715204Y-83546009D01*
X141715204Y-82883708D01*
X146896950Y-82883708D01*
X146896950Y-84589263D01*
G37*
X112691792Y-75769819D02*
X113025125Y-75293628D01*
X113263220Y-75769819D02*
X113263220Y-74769819D01*
X113263220Y-74769819D02*
X112882268Y-74769819D01*
X112882268Y-74769819D02*
X112787030Y-74817438D01*
X112787030Y-74817438D02*
X112739411Y-74865057D01*
X112739411Y-74865057D02*
X112691792Y-74960295D01*
X112691792Y-74960295D02*
X112691792Y-75103152D01*
X112691792Y-75103152D02*
X112739411Y-75198390D01*
X112739411Y-75198390D02*
X112787030Y-75246009D01*
X112787030Y-75246009D02*
X112882268Y-75293628D01*
X112882268Y-75293628D02*
X113263220Y-75293628D01*
G36*
X93974066Y-89796392D02*
G01*
X93974747Y-90276048D01*
X93938084Y-90294928D01*
X93782915Y-90296018D01*
X93714386Y-90262767D01*
X93683059Y-90232521D01*
X93647669Y-90163798D01*
X93646468Y-89913479D01*
X93679796Y-89844793D01*
X93710040Y-89813466D01*
X93778831Y-89778042D01*
X93934000Y-89776952D01*
X93974066Y-89796392D01*
G37*
G36*
X93087976Y-89805453D02*
G01*
X93116847Y-89861517D01*
X93117152Y-89945339D01*
X92789808Y-89880850D01*
X92789604Y-89865284D01*
X92817902Y-89806966D01*
X92874069Y-89778042D01*
X93029238Y-89776952D01*
X93087976Y-89805453D01*
G37*
G36*
X94849881Y-89805453D02*
G01*
X94878752Y-89861517D01*
X94879057Y-89945339D01*
X94551713Y-89880850D01*
X94551509Y-89865284D01*
X94579807Y-89806966D01*
X94635974Y-89778042D01*
X94791143Y-89776952D01*
X94849881Y-89805453D01*
G37*
G36*
X95707024Y-89805453D02*
G01*
X95735895Y-89861517D01*
X95736200Y-89945339D01*
X95408856Y-89880850D01*
X95408652Y-89865284D01*
X95436950Y-89806966D01*
X95493117Y-89778042D01*
X95648286Y-89776952D01*
X95707024Y-89805453D01*
G37*
G36*
X96689534Y-90295087D02*
G01*
X96402200Y-90296134D01*
X96333434Y-90262767D01*
X96302107Y-90232521D01*
X96266648Y-90163664D01*
X96265663Y-90056032D01*
X96298844Y-89987650D01*
X96325966Y-89959557D01*
X96438439Y-89920973D01*
X96689001Y-89919935D01*
X96689534Y-90295087D01*
G37*
G36*
X96688790Y-89771317D02*
G01*
X96449784Y-89772307D01*
X96381053Y-89738957D01*
X96349725Y-89708712D01*
X96314203Y-89639731D01*
X96313414Y-89579570D01*
X96346463Y-89511460D01*
X96376707Y-89480133D01*
X96445410Y-89444754D01*
X96688324Y-89443748D01*
X96688790Y-89771317D01*
G37*
G36*
X96949331Y-90887822D02*
G01*
X91816645Y-90887822D01*
X91816645Y-89688520D01*
X91927756Y-89688520D01*
X91927756Y-89717784D01*
X91938955Y-89744820D01*
X91959647Y-89765512D01*
X91986683Y-89776711D01*
X92001315Y-89778152D01*
X92077277Y-89777155D01*
X92145387Y-89810204D01*
X92176714Y-89840448D01*
X92212466Y-89909875D01*
X92213470Y-90384451D01*
X92224669Y-90411487D01*
X92245361Y-90432179D01*
X92272397Y-90443378D01*
X92301661Y-90443378D01*
X92328697Y-90432179D01*
X92349389Y-90411487D01*
X92360588Y-90384451D01*
X92362029Y-90369819D01*
X92361044Y-89904195D01*
X92361440Y-89903008D01*
X92361029Y-89897229D01*
X92360921Y-89846009D01*
X92640601Y-89846009D01*
X92641772Y-89935312D01*
X92640601Y-89941169D01*
X92641937Y-89947925D01*
X92642042Y-89955879D01*
X92644853Y-89962667D01*
X92646280Y-89969876D01*
X92650399Y-89976055D01*
X92653241Y-89982915D01*
X92658436Y-89988110D01*
X92662512Y-89994224D01*
X92668682Y-89998356D01*
X92673933Y-90003607D01*
X92680721Y-90006418D01*
X92686827Y-90010508D01*
X92700892Y-90014791D01*
X93117704Y-90096905D01*
X93118106Y-90207028D01*
X93089490Y-90266004D01*
X93033322Y-90294928D01*
X92878153Y-90296018D01*
X92783029Y-90249863D01*
X92753839Y-90247789D01*
X92726078Y-90257043D01*
X92703970Y-90276216D01*
X92690883Y-90302391D01*
X92688809Y-90331581D01*
X92698063Y-90359342D01*
X92717236Y-90381450D01*
X92729679Y-90389282D01*
X92815568Y-90430957D01*
X92816790Y-90432179D01*
X92825649Y-90435848D01*
X92838648Y-90442156D01*
X92841337Y-90442347D01*
X92843826Y-90443378D01*
X92858458Y-90444819D01*
X93037545Y-90443560D01*
X93039553Y-90444230D01*
X93050225Y-90443471D01*
X93063566Y-90443378D01*
X93066055Y-90442346D01*
X93068743Y-90442156D01*
X93082475Y-90436901D01*
X93173859Y-90389841D01*
X93181314Y-90387357D01*
X93185156Y-90384024D01*
X93190156Y-90381450D01*
X93196317Y-90374345D01*
X93203422Y-90368184D01*
X93208083Y-90360778D01*
X93209329Y-90359342D01*
X93209713Y-90358188D01*
X93211254Y-90355741D01*
X93252928Y-90269851D01*
X93254151Y-90268629D01*
X93257822Y-90259764D01*
X93264128Y-90246770D01*
X93264318Y-90244082D01*
X93265350Y-90241593D01*
X93266791Y-90226961D01*
X93266109Y-90039968D01*
X93266791Y-90036563D01*
X93266084Y-90032991D01*
X93265576Y-89893628D01*
X93497744Y-89893628D01*
X93499059Y-90167782D01*
X93498333Y-90169961D01*
X93499123Y-90181081D01*
X93499185Y-90193974D01*
X93500216Y-90196463D01*
X93500407Y-90199151D01*
X93505662Y-90212883D01*
X93554352Y-90307435D01*
X93558002Y-90316247D01*
X93560385Y-90319151D01*
X93561113Y-90320564D01*
X93562611Y-90321863D01*
X93567329Y-90327612D01*
X93616364Y-90374953D01*
X93621998Y-90381450D01*
X93625143Y-90383429D01*
X93626314Y-90384560D01*
X93628141Y-90385317D01*
X93634441Y-90389282D01*
X93720330Y-90430957D01*
X93721552Y-90432179D01*
X93730411Y-90435848D01*
X93743410Y-90442156D01*
X93746099Y-90442347D01*
X93748588Y-90443378D01*
X93763220Y-90444819D01*
X93942307Y-90443560D01*
X93944315Y-90444230D01*
X93954987Y-90443471D01*
X93968328Y-90443378D01*
X93970817Y-90442346D01*
X93973505Y-90442156D01*
X93974982Y-90441590D01*
X93975375Y-90717784D01*
X93986574Y-90744820D01*
X94007266Y-90765512D01*
X94034302Y-90776711D01*
X94063566Y-90776711D01*
X94090602Y-90765512D01*
X94111294Y-90744820D01*
X94122493Y-90717784D01*
X94123934Y-90703152D01*
X94122716Y-89846009D01*
X94402506Y-89846009D01*
X94403677Y-89935312D01*
X94402506Y-89941169D01*
X94403842Y-89947925D01*
X94403947Y-89955879D01*
X94406758Y-89962667D01*
X94408185Y-89969876D01*
X94412304Y-89976055D01*
X94415146Y-89982915D01*
X94420341Y-89988110D01*
X94424417Y-89994224D01*
X94430587Y-89998356D01*
X94435838Y-90003607D01*
X94442626Y-90006418D01*
X94448732Y-90010508D01*
X94462797Y-90014791D01*
X94879609Y-90096905D01*
X94880011Y-90207028D01*
X94851395Y-90266004D01*
X94795227Y-90294928D01*
X94640058Y-90296018D01*
X94544934Y-90249863D01*
X94515744Y-90247789D01*
X94487983Y-90257043D01*
X94465875Y-90276216D01*
X94452788Y-90302391D01*
X94450714Y-90331581D01*
X94459968Y-90359342D01*
X94479141Y-90381450D01*
X94491584Y-90389282D01*
X94577473Y-90430957D01*
X94578695Y-90432179D01*
X94587554Y-90435848D01*
X94600553Y-90442156D01*
X94603242Y-90442347D01*
X94605731Y-90443378D01*
X94620363Y-90444819D01*
X94799450Y-90443560D01*
X94801458Y-90444230D01*
X94812130Y-90443471D01*
X94825471Y-90443378D01*
X94827960Y-90442346D01*
X94830648Y-90442156D01*
X94844380Y-90436901D01*
X94935764Y-90389841D01*
X94943219Y-90387357D01*
X94947061Y-90384024D01*
X94952061Y-90381450D01*
X94958222Y-90374345D01*
X94965327Y-90368184D01*
X94969988Y-90360778D01*
X94971234Y-90359342D01*
X94971618Y-90358188D01*
X94973159Y-90355741D01*
X95014833Y-90269851D01*
X95016056Y-90268629D01*
X95019727Y-90259764D01*
X95026033Y-90246770D01*
X95026223Y-90244082D01*
X95027255Y-90241593D01*
X95028696Y-90226961D01*
X95028014Y-90039968D01*
X95028696Y-90036563D01*
X95027989Y-90032991D01*
X95027350Y-89857657D01*
X95028107Y-89855389D01*
X95027440Y-89846009D01*
X95259649Y-89846009D01*
X95260820Y-89935312D01*
X95259649Y-89941169D01*
X95260985Y-89947925D01*
X95261090Y-89955879D01*
X95263901Y-89962667D01*
X95265328Y-89969876D01*
X95269447Y-89976055D01*
X95272289Y-89982915D01*
X95277484Y-89988110D01*
X95281560Y-89994224D01*
X95287730Y-89998356D01*
X95292981Y-90003607D01*
X95299769Y-90006418D01*
X95305875Y-90010508D01*
X95319940Y-90014791D01*
X95736752Y-90096905D01*
X95737154Y-90207028D01*
X95708538Y-90266004D01*
X95652370Y-90294928D01*
X95497201Y-90296018D01*
X95402077Y-90249863D01*
X95372887Y-90247789D01*
X95345126Y-90257043D01*
X95323018Y-90276216D01*
X95309931Y-90302391D01*
X95307857Y-90331581D01*
X95317111Y-90359342D01*
X95336284Y-90381450D01*
X95348727Y-90389282D01*
X95434616Y-90430957D01*
X95435838Y-90432179D01*
X95444697Y-90435848D01*
X95457696Y-90442156D01*
X95460385Y-90442347D01*
X95462874Y-90443378D01*
X95477506Y-90444819D01*
X95656593Y-90443560D01*
X95658601Y-90444230D01*
X95669273Y-90443471D01*
X95682614Y-90443378D01*
X95685103Y-90442346D01*
X95687791Y-90442156D01*
X95701523Y-90436901D01*
X95792907Y-90389841D01*
X95800362Y-90387357D01*
X95804204Y-90384024D01*
X95809204Y-90381450D01*
X95815365Y-90374345D01*
X95822470Y-90368184D01*
X95827131Y-90360778D01*
X95828377Y-90359342D01*
X95828761Y-90358188D01*
X95830302Y-90355741D01*
X95871976Y-90269851D01*
X95873199Y-90268629D01*
X95876870Y-90259764D01*
X95883176Y-90246770D01*
X95883366Y-90244082D01*
X95884398Y-90241593D01*
X95885839Y-90226961D01*
X95885157Y-90039968D01*
X95885839Y-90036563D01*
X95885824Y-90036485D01*
X96116792Y-90036485D01*
X96117996Y-90168114D01*
X96117381Y-90169961D01*
X96118106Y-90180175D01*
X96118233Y-90193974D01*
X96119264Y-90196463D01*
X96119455Y-90199151D01*
X96124710Y-90212883D01*
X96173400Y-90307435D01*
X96177050Y-90316247D01*
X96179433Y-90319151D01*
X96180161Y-90320564D01*
X96181659Y-90321863D01*
X96186377Y-90327612D01*
X96235412Y-90374953D01*
X96241046Y-90381450D01*
X96244191Y-90383429D01*
X96245362Y-90384560D01*
X96247189Y-90385317D01*
X96253489Y-90389282D01*
X96339378Y-90430957D01*
X96340600Y-90432179D01*
X96349459Y-90435848D01*
X96362458Y-90442156D01*
X96365147Y-90442347D01*
X96367636Y-90443378D01*
X96382268Y-90444819D01*
X96777852Y-90443378D01*
X96804888Y-90432179D01*
X96825580Y-90411487D01*
X96836779Y-90384451D01*
X96838220Y-90369819D01*
X96836779Y-89355187D01*
X96825580Y-89328151D01*
X96804888Y-89307459D01*
X96777852Y-89296260D01*
X96763220Y-89294819D01*
X96441496Y-89296151D01*
X96439267Y-89295408D01*
X96428019Y-89296207D01*
X96415255Y-89296260D01*
X96412766Y-89297290D01*
X96410077Y-89297482D01*
X96396346Y-89302737D01*
X96301791Y-89351428D01*
X96292981Y-89355078D01*
X96290078Y-89357460D01*
X96288665Y-89358188D01*
X96287365Y-89359686D01*
X96281616Y-89364405D01*
X96234274Y-89413440D01*
X96227780Y-89419073D01*
X96225800Y-89422218D01*
X96224670Y-89423389D01*
X96223912Y-89425216D01*
X96219948Y-89431516D01*
X96178273Y-89517404D01*
X96177051Y-89518627D01*
X96173378Y-89527492D01*
X96167074Y-89540486D01*
X96166883Y-89543173D01*
X96165852Y-89545663D01*
X96164411Y-89560295D01*
X96165516Y-89644601D01*
X96165000Y-89646152D01*
X96165658Y-89655421D01*
X96165852Y-89670165D01*
X96166883Y-89672654D01*
X96167074Y-89675342D01*
X96172329Y-89689074D01*
X96221021Y-89783630D01*
X96224670Y-89792439D01*
X96227052Y-89795341D01*
X96227780Y-89796755D01*
X96229278Y-89798054D01*
X96233997Y-89803804D01*
X96257014Y-89826025D01*
X96249887Y-89828471D01*
X96247850Y-89830237D01*
X96245362Y-89831268D01*
X96233997Y-89840595D01*
X96186655Y-89889630D01*
X96180161Y-89895263D01*
X96178181Y-89898408D01*
X96177051Y-89899579D01*
X96176293Y-89901406D01*
X96172329Y-89907706D01*
X96130654Y-89993594D01*
X96129432Y-89994817D01*
X96125759Y-90003682D01*
X96119455Y-90016676D01*
X96119264Y-90019363D01*
X96118233Y-90021853D01*
X96116792Y-90036485D01*
X95885824Y-90036485D01*
X95885132Y-90032991D01*
X95884493Y-89857657D01*
X95885250Y-89855389D01*
X95884444Y-89844047D01*
X95884398Y-89831377D01*
X95883367Y-89828888D01*
X95883176Y-89826199D01*
X95877921Y-89812468D01*
X95830861Y-89721083D01*
X95828377Y-89713629D01*
X95825044Y-89709786D01*
X95822470Y-89704787D01*
X95815365Y-89698625D01*
X95809204Y-89691521D01*
X95801798Y-89686859D01*
X95800362Y-89685614D01*
X95799208Y-89685229D01*
X95796761Y-89683689D01*
X95710872Y-89642014D01*
X95709650Y-89640792D01*
X95700784Y-89637119D01*
X95687791Y-89630815D01*
X95685103Y-89630624D01*
X95682614Y-89629593D01*
X95667982Y-89628152D01*
X95488893Y-89629410D01*
X95486886Y-89628741D01*
X95476213Y-89629499D01*
X95462874Y-89629593D01*
X95460385Y-89630623D01*
X95457696Y-89630815D01*
X95443965Y-89636070D01*
X95352580Y-89683129D01*
X95345126Y-89685614D01*
X95341283Y-89688946D01*
X95336284Y-89691521D01*
X95330122Y-89698625D01*
X95323018Y-89704787D01*
X95318356Y-89712192D01*
X95317111Y-89713629D01*
X95316726Y-89714782D01*
X95315186Y-89717230D01*
X95273511Y-89803118D01*
X95272289Y-89804341D01*
X95268616Y-89813206D01*
X95262312Y-89826200D01*
X95262121Y-89828887D01*
X95261090Y-89831377D01*
X95259649Y-89846009D01*
X95027440Y-89846009D01*
X95027301Y-89844047D01*
X95027255Y-89831377D01*
X95026224Y-89828888D01*
X95026033Y-89826199D01*
X95020778Y-89812468D01*
X94973718Y-89721083D01*
X94971234Y-89713629D01*
X94967901Y-89709786D01*
X94965327Y-89704787D01*
X94958222Y-89698625D01*
X94952061Y-89691521D01*
X94944655Y-89686859D01*
X94943219Y-89685614D01*
X94942065Y-89685229D01*
X94939618Y-89683689D01*
X94853729Y-89642014D01*
X94852507Y-89640792D01*
X94843641Y-89637119D01*
X94830648Y-89630815D01*
X94827960Y-89630624D01*
X94825471Y-89629593D01*
X94810839Y-89628152D01*
X94631750Y-89629410D01*
X94629743Y-89628741D01*
X94619070Y-89629499D01*
X94605731Y-89629593D01*
X94603242Y-89630623D01*
X94600553Y-89630815D01*
X94586822Y-89636070D01*
X94495437Y-89683129D01*
X94487983Y-89685614D01*
X94484140Y-89688946D01*
X94479141Y-89691521D01*
X94472979Y-89698625D01*
X94465875Y-89704787D01*
X94461213Y-89712192D01*
X94459968Y-89713629D01*
X94459583Y-89714782D01*
X94458043Y-89717230D01*
X94416368Y-89803118D01*
X94415146Y-89804341D01*
X94411473Y-89813206D01*
X94405169Y-89826200D01*
X94404978Y-89828887D01*
X94403947Y-89831377D01*
X94402506Y-89846009D01*
X94122716Y-89846009D01*
X94122583Y-89752110D01*
X94123345Y-89741390D01*
X94122564Y-89739049D01*
X94122493Y-89688520D01*
X94111294Y-89661484D01*
X94090602Y-89640792D01*
X94063566Y-89629593D01*
X94034302Y-89629593D01*
X94007266Y-89640792D01*
X94002953Y-89645104D01*
X93996586Y-89642014D01*
X93995364Y-89640792D01*
X93986498Y-89637119D01*
X93973505Y-89630815D01*
X93970817Y-89630624D01*
X93968328Y-89629593D01*
X93953696Y-89628152D01*
X93774607Y-89629410D01*
X93772600Y-89628741D01*
X93761927Y-89629499D01*
X93748588Y-89629593D01*
X93746099Y-89630623D01*
X93743410Y-89630815D01*
X93729679Y-89636070D01*
X93635124Y-89684761D01*
X93626314Y-89688411D01*
X93623411Y-89690793D01*
X93621998Y-89691521D01*
X93620698Y-89693019D01*
X93614949Y-89697738D01*
X93567607Y-89746773D01*
X93561113Y-89752406D01*
X93559133Y-89755551D01*
X93558003Y-89756722D01*
X93557245Y-89758549D01*
X93553281Y-89764849D01*
X93511606Y-89850737D01*
X93510384Y-89851960D01*
X93506711Y-89860825D01*
X93500407Y-89873819D01*
X93500216Y-89876506D01*
X93499185Y-89878996D01*
X93497744Y-89893628D01*
X93265576Y-89893628D01*
X93265445Y-89857657D01*
X93266202Y-89855389D01*
X93265396Y-89844047D01*
X93265350Y-89831377D01*
X93264319Y-89828888D01*
X93264128Y-89826199D01*
X93258873Y-89812468D01*
X93211813Y-89721083D01*
X93209329Y-89713629D01*
X93205996Y-89709786D01*
X93203422Y-89704787D01*
X93196317Y-89698625D01*
X93190156Y-89691521D01*
X93182750Y-89686859D01*
X93181314Y-89685614D01*
X93180160Y-89685229D01*
X93177713Y-89683689D01*
X93091824Y-89642014D01*
X93090602Y-89640792D01*
X93081736Y-89637119D01*
X93068743Y-89630815D01*
X93066055Y-89630624D01*
X93063566Y-89629593D01*
X93048934Y-89628152D01*
X92869845Y-89629410D01*
X92867838Y-89628741D01*
X92857165Y-89629499D01*
X92843826Y-89629593D01*
X92841337Y-89630623D01*
X92838648Y-89630815D01*
X92824917Y-89636070D01*
X92733532Y-89683129D01*
X92726078Y-89685614D01*
X92722235Y-89688946D01*
X92717236Y-89691521D01*
X92711074Y-89698625D01*
X92703970Y-89704787D01*
X92699308Y-89712192D01*
X92698063Y-89713629D01*
X92697678Y-89714782D01*
X92696138Y-89717230D01*
X92654463Y-89803118D01*
X92653241Y-89804341D01*
X92649568Y-89813206D01*
X92643264Y-89826200D01*
X92643073Y-89828887D01*
X92642042Y-89831377D01*
X92640601Y-89846009D01*
X92360921Y-89846009D01*
X92360588Y-89688520D01*
X92349389Y-89661484D01*
X92328697Y-89640792D01*
X92301661Y-89629593D01*
X92272397Y-89629593D01*
X92245361Y-89640792D01*
X92224669Y-89661484D01*
X92217121Y-89679705D01*
X92139443Y-89642014D01*
X92138221Y-89640792D01*
X92129355Y-89637119D01*
X92116362Y-89630815D01*
X92113674Y-89630624D01*
X92111185Y-89629593D01*
X92096553Y-89628152D01*
X91986683Y-89629593D01*
X91959647Y-89640792D01*
X91938955Y-89661484D01*
X91927756Y-89688520D01*
X91816645Y-89688520D01*
X91816645Y-89183708D01*
X96949331Y-89183708D01*
X96949331Y-90887822D01*
G37*
G36*
X106796086Y-75825798D02*
G01*
X106758348Y-75942394D01*
X106685558Y-76016602D01*
X106610421Y-76055294D01*
X106436991Y-76099912D01*
X106312219Y-76101054D01*
X106139096Y-76059028D01*
X106059286Y-76020303D01*
X105983562Y-75946026D01*
X105944770Y-75832947D01*
X105943888Y-75678340D01*
X106795239Y-75677131D01*
X106796086Y-75825798D01*
G37*
G36*
X106510199Y-75071756D02*
G01*
X106104742Y-74937211D01*
X106509406Y-74801716D01*
X106510199Y-75071756D01*
G37*
G36*
X106687325Y-73764858D02*
G01*
X106759166Y-73835325D01*
X106794928Y-73904771D01*
X106796018Y-74059940D01*
X106762867Y-74128262D01*
X106690485Y-74202055D01*
X106532313Y-74242748D01*
X106217559Y-74244051D01*
X106052311Y-74203937D01*
X105980471Y-74133470D01*
X105944709Y-74064024D01*
X105943619Y-73908855D01*
X105976770Y-73840532D01*
X106049152Y-73766740D01*
X106207323Y-73726047D01*
X106522077Y-73724744D01*
X106687325Y-73764858D01*
G37*
G36*
X106687325Y-70002953D02*
G01*
X106759166Y-70073420D01*
X106794928Y-70142866D01*
X106796018Y-70298035D01*
X106762867Y-70366357D01*
X106690485Y-70440150D01*
X106532313Y-70480843D01*
X106217559Y-70482146D01*
X106052311Y-70442032D01*
X105980471Y-70371565D01*
X105944709Y-70302119D01*
X105943619Y-70146950D01*
X105976770Y-70078627D01*
X106049152Y-70004835D01*
X106207323Y-69964142D01*
X106522077Y-69962839D01*
X106687325Y-70002953D01*
G37*
G36*
X106796086Y-69159131D02*
G01*
X106758348Y-69275727D01*
X106685558Y-69349935D01*
X106610421Y-69388627D01*
X106436991Y-69433245D01*
X106312219Y-69434387D01*
X106139096Y-69392361D01*
X106059286Y-69353636D01*
X105983562Y-69279359D01*
X105944770Y-69166280D01*
X105943888Y-69011673D01*
X106795239Y-69010464D01*
X106796086Y-69159131D01*
G37*
G36*
X107055930Y-76360985D02*
G01*
X105683708Y-76360985D01*
X105683708Y-75603446D01*
X105794819Y-75603446D01*
X105796169Y-75840215D01*
X105795408Y-75850921D01*
X105796251Y-75854629D01*
X105796260Y-75856173D01*
X105797018Y-75858004D01*
X105798668Y-75865258D01*
X105843879Y-75997048D01*
X105843879Y-75999029D01*
X105847834Y-76008578D01*
X105852281Y-76021540D01*
X105854046Y-76023575D01*
X105855078Y-76026066D01*
X105864405Y-76037431D01*
X105960172Y-76131368D01*
X105966692Y-76138886D01*
X105969885Y-76140896D01*
X105971008Y-76141997D01*
X105972840Y-76142755D01*
X105979135Y-76146718D01*
X106070367Y-76190986D01*
X106075878Y-76195069D01*
X106086893Y-76199004D01*
X106088104Y-76199592D01*
X106088644Y-76199630D01*
X106089724Y-76200016D01*
X106276089Y-76245256D01*
X106283758Y-76248433D01*
X106292872Y-76249330D01*
X106294744Y-76249785D01*
X106295836Y-76249622D01*
X106298390Y-76249874D01*
X106436969Y-76248606D01*
X106444893Y-76249785D01*
X106453917Y-76248450D01*
X106455879Y-76248433D01*
X106456900Y-76248010D01*
X106459437Y-76247635D01*
X106644135Y-76200117D01*
X106651532Y-76199592D01*
X106662514Y-76195389D01*
X106663759Y-76195069D01*
X106664194Y-76194746D01*
X106665264Y-76194337D01*
X106759816Y-76145646D01*
X106768628Y-76141997D01*
X106771532Y-76139613D01*
X106772945Y-76138886D01*
X106774244Y-76137387D01*
X106779994Y-76132669D01*
X106866479Y-76044499D01*
X106868183Y-76043648D01*
X106874813Y-76036003D01*
X106884561Y-76026066D01*
X106885592Y-76023575D01*
X106887357Y-76021541D01*
X106893351Y-76008115D01*
X106939500Y-75865533D01*
X106943378Y-75856173D01*
X106943748Y-75852409D01*
X106944230Y-75850922D01*
X106944089Y-75848947D01*
X106944819Y-75841541D01*
X106943378Y-75588814D01*
X106932179Y-75561778D01*
X106911487Y-75541086D01*
X106884451Y-75529887D01*
X106869819Y-75528446D01*
X105855187Y-75529887D01*
X105828151Y-75541086D01*
X105807459Y-75561778D01*
X105796260Y-75588814D01*
X105794819Y-75603446D01*
X105683708Y-75603446D01*
X105683708Y-74927399D01*
X105795408Y-74927399D01*
X105796074Y-74936779D01*
X105795408Y-74946159D01*
X105797103Y-74951244D01*
X105797483Y-74956589D01*
X105801687Y-74964998D01*
X105804662Y-74973922D01*
X105808173Y-74977970D01*
X105810569Y-74982762D01*
X105817673Y-74988924D01*
X105823836Y-74996029D01*
X105828627Y-74998424D01*
X105832676Y-75001936D01*
X105846102Y-75007930D01*
X106563853Y-75246105D01*
X106569472Y-75248433D01*
X106570867Y-75248433D01*
X106860438Y-75344523D01*
X106889628Y-75342448D01*
X106915802Y-75329362D01*
X106934976Y-75307254D01*
X106944230Y-75279492D01*
X106942155Y-75250302D01*
X106929068Y-75224129D01*
X106906961Y-75204955D01*
X106893536Y-75198961D01*
X106658946Y-75121115D01*
X106657862Y-74752009D01*
X106906961Y-74668603D01*
X106929068Y-74649429D01*
X106942155Y-74623256D01*
X106944230Y-74594066D01*
X106934976Y-74566304D01*
X106915802Y-74544196D01*
X106889628Y-74531110D01*
X106860438Y-74529035D01*
X106846102Y-74532295D01*
X105855223Y-74864072D01*
X105850009Y-74864443D01*
X105841680Y-74868606D01*
X105832676Y-74871622D01*
X105828627Y-74875133D01*
X105823836Y-74877529D01*
X105817673Y-74884633D01*
X105810569Y-74890796D01*
X105808173Y-74895587D01*
X105804662Y-74899636D01*
X105801687Y-74908559D01*
X105797483Y-74916969D01*
X105797103Y-74922313D01*
X105795408Y-74927399D01*
X105683708Y-74927399D01*
X105683708Y-73889160D01*
X105794819Y-73889160D01*
X105796077Y-74068247D01*
X105795408Y-74070255D01*
X105796166Y-74080927D01*
X105796260Y-74094268D01*
X105797291Y-74096757D01*
X105797482Y-74099445D01*
X105802737Y-74113177D01*
X105851429Y-74207733D01*
X105855078Y-74216542D01*
X105857460Y-74219444D01*
X105858188Y-74220858D01*
X105859686Y-74222157D01*
X105864405Y-74227907D01*
X105954728Y-74316504D01*
X105957128Y-74320504D01*
X105963988Y-74325587D01*
X105971008Y-74332473D01*
X105976161Y-74334607D01*
X105980640Y-74337926D01*
X105994486Y-74342873D01*
X106180851Y-74388113D01*
X106188520Y-74391290D01*
X106197634Y-74392187D01*
X106199506Y-74392642D01*
X106200598Y-74392479D01*
X106203152Y-74392731D01*
X106531588Y-74391370D01*
X106540131Y-74392642D01*
X106549223Y-74391297D01*
X106551117Y-74391290D01*
X106552138Y-74390867D01*
X106554675Y-74390492D01*
X106736666Y-74343671D01*
X106741592Y-74343671D01*
X106749667Y-74340326D01*
X106758997Y-74337926D01*
X106763476Y-74334606D01*
X106768628Y-74332473D01*
X106779994Y-74323145D01*
X106873932Y-74227377D01*
X106881450Y-74220858D01*
X106883460Y-74217664D01*
X106884561Y-74216542D01*
X106885319Y-74214709D01*
X106889282Y-74208415D01*
X106930957Y-74122525D01*
X106932179Y-74121304D01*
X106935848Y-74112444D01*
X106942156Y-74099446D01*
X106942347Y-74096756D01*
X106943378Y-74094268D01*
X106944819Y-74079636D01*
X106943560Y-73900547D01*
X106944230Y-73898540D01*
X106943471Y-73887867D01*
X106943378Y-73874528D01*
X106942347Y-73872039D01*
X106942156Y-73869350D01*
X106936901Y-73855619D01*
X106888212Y-73761070D01*
X106884561Y-73752254D01*
X106882176Y-73749348D01*
X106881450Y-73747938D01*
X106879953Y-73746639D01*
X106875233Y-73740889D01*
X106784909Y-73652293D01*
X106782509Y-73648292D01*
X106775645Y-73643206D01*
X106768628Y-73636323D01*
X106763476Y-73634189D01*
X106758997Y-73630870D01*
X106745151Y-73625923D01*
X106558785Y-73580682D01*
X106551117Y-73577506D01*
X106542002Y-73576608D01*
X106540131Y-73576154D01*
X106539038Y-73576316D01*
X106536485Y-73576065D01*
X106208048Y-73577425D01*
X106199506Y-73576154D01*
X106190413Y-73577498D01*
X106188520Y-73577506D01*
X106187498Y-73577928D01*
X106184962Y-73578304D01*
X106002971Y-73625125D01*
X105998045Y-73625125D01*
X105989968Y-73628470D01*
X105980640Y-73630870D01*
X105976161Y-73634188D01*
X105971008Y-73636323D01*
X105959643Y-73645651D01*
X105865711Y-73741413D01*
X105858188Y-73747938D01*
X105856175Y-73751134D01*
X105855078Y-73752254D01*
X105854320Y-73754081D01*
X105850356Y-73760381D01*
X105808681Y-73846269D01*
X105807459Y-73847492D01*
X105803786Y-73856357D01*
X105797482Y-73869351D01*
X105797291Y-73872038D01*
X105796260Y-73874528D01*
X105794819Y-73889160D01*
X105683708Y-73889160D01*
X105683708Y-73160242D01*
X105796260Y-73160242D01*
X105796260Y-73189506D01*
X105807459Y-73216542D01*
X105828151Y-73237234D01*
X105855187Y-73248433D01*
X105869819Y-73249874D01*
X106706887Y-73248490D01*
X106766004Y-73277174D01*
X106810569Y-73363715D01*
X106832677Y-73382888D01*
X106860438Y-73392142D01*
X106889628Y-73390068D01*
X106915803Y-73376980D01*
X106934976Y-73354873D01*
X106944230Y-73327111D01*
X106942156Y-73297921D01*
X106936901Y-73284190D01*
X106889841Y-73192805D01*
X106887357Y-73185351D01*
X106884024Y-73181508D01*
X106881450Y-73176509D01*
X106874342Y-73170345D01*
X106868183Y-73163243D01*
X106860779Y-73158582D01*
X106859342Y-73157336D01*
X106858187Y-73156951D01*
X106855741Y-73155411D01*
X106769851Y-73113736D01*
X106768629Y-73112514D01*
X106759764Y-73108842D01*
X106746770Y-73102537D01*
X106744082Y-73102346D01*
X106741593Y-73101315D01*
X106726961Y-73099874D01*
X105855187Y-73101315D01*
X105828151Y-73112514D01*
X105807459Y-73133206D01*
X105796260Y-73160242D01*
X105683708Y-73160242D01*
X105683708Y-72132494D01*
X105795002Y-72132494D01*
X105796260Y-72137106D01*
X105796260Y-72141887D01*
X105800077Y-72151102D01*
X105802702Y-72160726D01*
X105805629Y-72164506D01*
X105807459Y-72168923D01*
X105814509Y-72175973D01*
X105820619Y-72183863D01*
X105826751Y-72188215D01*
X105828151Y-72189615D01*
X105829525Y-72190184D01*
X105832609Y-72192373D01*
X106590267Y-72624080D01*
X105855187Y-72625124D01*
X105828151Y-72636323D01*
X105807459Y-72657015D01*
X105796260Y-72684051D01*
X105796260Y-72713315D01*
X105807459Y-72740351D01*
X105828151Y-72761043D01*
X105855187Y-72772242D01*
X105869819Y-72773683D01*
X106865374Y-72772269D01*
X106875058Y-72773500D01*
X106879645Y-72772248D01*
X106884451Y-72772242D01*
X106893666Y-72768424D01*
X106903290Y-72765800D01*
X106907070Y-72762872D01*
X106911487Y-72761043D01*
X106918537Y-72753992D01*
X106926427Y-72747883D01*
X106928800Y-72743729D01*
X106932179Y-72740351D01*
X106935995Y-72731138D01*
X106940946Y-72722474D01*
X106941548Y-72717730D01*
X106943378Y-72713315D01*
X106943378Y-72703340D01*
X106944636Y-72693444D01*
X106943378Y-72688831D01*
X106943378Y-72684051D01*
X106939560Y-72674834D01*
X106936936Y-72665213D01*
X106934009Y-72661433D01*
X106932179Y-72657015D01*
X106925127Y-72649963D01*
X106919019Y-72642075D01*
X106912884Y-72637720D01*
X106911487Y-72636323D01*
X106910114Y-72635754D01*
X106907030Y-72633565D01*
X106149370Y-72201857D01*
X106884451Y-72200814D01*
X106911487Y-72189615D01*
X106932179Y-72168923D01*
X106943378Y-72141887D01*
X106943378Y-72112623D01*
X106932179Y-72085587D01*
X106911487Y-72064895D01*
X106884451Y-72053696D01*
X106869819Y-72052255D01*
X105874263Y-72053668D01*
X105864580Y-72052438D01*
X105859992Y-72053689D01*
X105855187Y-72053696D01*
X105845971Y-72057513D01*
X105836348Y-72060138D01*
X105832567Y-72063065D01*
X105828151Y-72064895D01*
X105821100Y-72071945D01*
X105813211Y-72078055D01*
X105810837Y-72082208D01*
X105807459Y-72085587D01*
X105803642Y-72094799D01*
X105798692Y-72103464D01*
X105798089Y-72108207D01*
X105796260Y-72112623D01*
X105796260Y-72122597D01*
X105795002Y-72132494D01*
X105683708Y-72132494D01*
X105683708Y-70886356D01*
X105794871Y-70886356D01*
X105799504Y-70915251D01*
X105814840Y-70940173D01*
X105838547Y-70957330D01*
X105852447Y-70962120D01*
X106566520Y-71131095D01*
X106140871Y-71245473D01*
X106131340Y-71246740D01*
X106127165Y-71249156D01*
X106122442Y-71250426D01*
X106114582Y-71256441D01*
X106106015Y-71261402D01*
X106103061Y-71265259D01*
X106099204Y-71268213D01*
X106094243Y-71276780D01*
X106088228Y-71284640D01*
X106086976Y-71289332D01*
X106084542Y-71293538D01*
X106083237Y-71303353D01*
X106080688Y-71312916D01*
X106081327Y-71317731D01*
X106080688Y-71322546D01*
X106083237Y-71332108D01*
X106084542Y-71341924D01*
X106086976Y-71346129D01*
X106088228Y-71350822D01*
X106094243Y-71358681D01*
X106099204Y-71367249D01*
X106103061Y-71370202D01*
X106106015Y-71374060D01*
X106114582Y-71379020D01*
X106122442Y-71385036D01*
X106129629Y-71387731D01*
X106131340Y-71388722D01*
X106132780Y-71388913D01*
X106136208Y-71390199D01*
X106565875Y-71503896D01*
X105838547Y-71678133D01*
X105814840Y-71695290D01*
X105799504Y-71720212D01*
X105794871Y-71749107D01*
X105801649Y-71777575D01*
X105818806Y-71801282D01*
X105843728Y-71816618D01*
X105872623Y-71821251D01*
X105887191Y-71819263D01*
X106883465Y-71580599D01*
X106894013Y-71579198D01*
X106897328Y-71577278D01*
X106901091Y-71576377D01*
X106909914Y-71569991D01*
X106919337Y-71564536D01*
X106921677Y-71561478D01*
X106924798Y-71559220D01*
X106930503Y-71549948D01*
X106937125Y-71541298D01*
X106938118Y-71537574D01*
X106940134Y-71534298D01*
X106941856Y-71523554D01*
X106944665Y-71513023D01*
X106944157Y-71509204D01*
X106944767Y-71505403D01*
X106942244Y-71494811D01*
X106940810Y-71484014D01*
X106938879Y-71480680D01*
X106937988Y-71476935D01*
X106931605Y-71468114D01*
X106926148Y-71458689D01*
X106923090Y-71456348D01*
X106920832Y-71453228D01*
X106911559Y-71447522D01*
X106902911Y-71440902D01*
X106897509Y-71438876D01*
X106895910Y-71437892D01*
X106894119Y-71437604D01*
X106889144Y-71435739D01*
X106443870Y-71317911D01*
X106885495Y-71199239D01*
X106895910Y-71197570D01*
X106899166Y-71195566D01*
X106902911Y-71194560D01*
X106911559Y-71187939D01*
X106920832Y-71182234D01*
X106923090Y-71179113D01*
X106926148Y-71176773D01*
X106931602Y-71167351D01*
X106937989Y-71158527D01*
X106938881Y-71154779D01*
X106940810Y-71151448D01*
X106942244Y-71140654D01*
X106944767Y-71130059D01*
X106944157Y-71126257D01*
X106944665Y-71122439D01*
X106941856Y-71111907D01*
X106940134Y-71101164D01*
X106938118Y-71097887D01*
X106937125Y-71094164D01*
X106930503Y-71085513D01*
X106924798Y-71076242D01*
X106921677Y-71073983D01*
X106919337Y-71070926D01*
X106909914Y-71065470D01*
X106901091Y-71059085D01*
X106895642Y-71057207D01*
X106894013Y-71056264D01*
X106892209Y-71056024D01*
X106887191Y-71054295D01*
X105872623Y-70814212D01*
X105843728Y-70818845D01*
X105818806Y-70834181D01*
X105801649Y-70857888D01*
X105794871Y-70886356D01*
X105683708Y-70886356D01*
X105683708Y-70127255D01*
X105794819Y-70127255D01*
X105796077Y-70306342D01*
X105795408Y-70308350D01*
X105796166Y-70319022D01*
X105796260Y-70332363D01*
X105797291Y-70334852D01*
X105797482Y-70337540D01*
X105802737Y-70351272D01*
X105851429Y-70445828D01*
X105855078Y-70454637D01*
X105857460Y-70457539D01*
X105858188Y-70458953D01*
X105859686Y-70460252D01*
X105864405Y-70466002D01*
X105954728Y-70554599D01*
X105957128Y-70558599D01*
X105963988Y-70563682D01*
X105971008Y-70570568D01*
X105976161Y-70572702D01*
X105980640Y-70576021D01*
X105994486Y-70580968D01*
X106180851Y-70626208D01*
X106188520Y-70629385D01*
X106197634Y-70630282D01*
X106199506Y-70630737D01*
X106200598Y-70630574D01*
X106203152Y-70630826D01*
X106531588Y-70629465D01*
X106540131Y-70630737D01*
X106549223Y-70629392D01*
X106551117Y-70629385D01*
X106552138Y-70628962D01*
X106554675Y-70628587D01*
X106736666Y-70581766D01*
X106741592Y-70581766D01*
X106749667Y-70578421D01*
X106758997Y-70576021D01*
X106763476Y-70572701D01*
X106768628Y-70570568D01*
X106779994Y-70561240D01*
X106873932Y-70465472D01*
X106881450Y-70458953D01*
X106883460Y-70455759D01*
X106884561Y-70454637D01*
X106885319Y-70452804D01*
X106889282Y-70446510D01*
X106930957Y-70360620D01*
X106932179Y-70359399D01*
X106935848Y-70350539D01*
X106942156Y-70337541D01*
X106942347Y-70334851D01*
X106943378Y-70332363D01*
X106944819Y-70317731D01*
X106943560Y-70138642D01*
X106944230Y-70136635D01*
X106943471Y-70125962D01*
X106943378Y-70112623D01*
X106942347Y-70110134D01*
X106942156Y-70107445D01*
X106936901Y-70093714D01*
X106888212Y-69999165D01*
X106884561Y-69990349D01*
X106882176Y-69987443D01*
X106881450Y-69986033D01*
X106879953Y-69984734D01*
X106875233Y-69978984D01*
X106784909Y-69890388D01*
X106782509Y-69886387D01*
X106775645Y-69881301D01*
X106768628Y-69874418D01*
X106763476Y-69872284D01*
X106758997Y-69868965D01*
X106745151Y-69864018D01*
X106558785Y-69818777D01*
X106551117Y-69815601D01*
X106542002Y-69814703D01*
X106540131Y-69814249D01*
X106539038Y-69814411D01*
X106536485Y-69814160D01*
X106208048Y-69815520D01*
X106199506Y-69814249D01*
X106190413Y-69815593D01*
X106188520Y-69815601D01*
X106187498Y-69816023D01*
X106184962Y-69816399D01*
X106002971Y-69863220D01*
X105998045Y-69863220D01*
X105989968Y-69866565D01*
X105980640Y-69868965D01*
X105976161Y-69872283D01*
X105971008Y-69874418D01*
X105959643Y-69883746D01*
X105865711Y-69979508D01*
X105858188Y-69986033D01*
X105856175Y-69989229D01*
X105855078Y-69990349D01*
X105854320Y-69992176D01*
X105850356Y-69998476D01*
X105808681Y-70084364D01*
X105807459Y-70085587D01*
X105803786Y-70094452D01*
X105797482Y-70107446D01*
X105797291Y-70110133D01*
X105796260Y-70112623D01*
X105794819Y-70127255D01*
X105683708Y-70127255D01*
X105683708Y-68936779D01*
X105794819Y-68936779D01*
X105796169Y-69173548D01*
X105795408Y-69184254D01*
X105796251Y-69187962D01*
X105796260Y-69189506D01*
X105797018Y-69191337D01*
X105798668Y-69198591D01*
X105843879Y-69330381D01*
X105843879Y-69332362D01*
X105847834Y-69341911D01*
X105852281Y-69354873D01*
X105854046Y-69356908D01*
X105855078Y-69359399D01*
X105864405Y-69370764D01*
X105960172Y-69464701D01*
X105966692Y-69472219D01*
X105969885Y-69474229D01*
X105971008Y-69475330D01*
X105972840Y-69476088D01*
X105979135Y-69480051D01*
X106070367Y-69524319D01*
X106075878Y-69528402D01*
X106086893Y-69532337D01*
X106088104Y-69532925D01*
X106088644Y-69532963D01*
X106089724Y-69533349D01*
X106276089Y-69578589D01*
X106283758Y-69581766D01*
X106292872Y-69582663D01*
X106294744Y-69583118D01*
X106295836Y-69582955D01*
X106298390Y-69583207D01*
X106436969Y-69581939D01*
X106444893Y-69583118D01*
X106453917Y-69581783D01*
X106455879Y-69581766D01*
X106456900Y-69581343D01*
X106459437Y-69580968D01*
X106644135Y-69533450D01*
X106651532Y-69532925D01*
X106662514Y-69528722D01*
X106663759Y-69528402D01*
X106664194Y-69528079D01*
X106665264Y-69527670D01*
X106759816Y-69478979D01*
X106768628Y-69475330D01*
X106771532Y-69472946D01*
X106772945Y-69472219D01*
X106774244Y-69470720D01*
X106779994Y-69466002D01*
X106866479Y-69377832D01*
X106868183Y-69376981D01*
X106874813Y-69369336D01*
X106884561Y-69359399D01*
X106885592Y-69356908D01*
X106887357Y-69354874D01*
X106893351Y-69341448D01*
X106939500Y-69198866D01*
X106943378Y-69189506D01*
X106943748Y-69185742D01*
X106944230Y-69184255D01*
X106944089Y-69182280D01*
X106944819Y-69174874D01*
X106943378Y-68922147D01*
X106932179Y-68895111D01*
X106911487Y-68874419D01*
X106884451Y-68863220D01*
X106869819Y-68861779D01*
X105855187Y-68863220D01*
X105828151Y-68874419D01*
X105807459Y-68895111D01*
X105796260Y-68922147D01*
X105794819Y-68936779D01*
X105683708Y-68936779D01*
X105683708Y-68750668D01*
X107055930Y-68750668D01*
X107055930Y-76360985D01*
G37*
X120263220Y-79369819D02*
X120263220Y-78369819D01*
X120263220Y-78369819D02*
X120025125Y-78369819D01*
X120025125Y-78369819D02*
X119882268Y-78417438D01*
X119882268Y-78417438D02*
X119787030Y-78512676D01*
X119787030Y-78512676D02*
X119739411Y-78607914D01*
X119739411Y-78607914D02*
X119691792Y-78798390D01*
X119691792Y-78798390D02*
X119691792Y-78941247D01*
X119691792Y-78941247D02*
X119739411Y-79131723D01*
X119739411Y-79131723D02*
X119787030Y-79226961D01*
X119787030Y-79226961D02*
X119882268Y-79322200D01*
X119882268Y-79322200D02*
X120025125Y-79369819D01*
X120025125Y-79369819D02*
X120263220Y-79369819D01*
X118739411Y-78417438D02*
X118834649Y-78369819D01*
X118834649Y-78369819D02*
X118977506Y-78369819D01*
X118977506Y-78369819D02*
X119120363Y-78417438D01*
X119120363Y-78417438D02*
X119215601Y-78512676D01*
X119215601Y-78512676D02*
X119263220Y-78607914D01*
X119263220Y-78607914D02*
X119310839Y-78798390D01*
X119310839Y-78798390D02*
X119310839Y-78941247D01*
X119310839Y-78941247D02*
X119263220Y-79131723D01*
X119263220Y-79131723D02*
X119215601Y-79226961D01*
X119215601Y-79226961D02*
X119120363Y-79322200D01*
X119120363Y-79322200D02*
X118977506Y-79369819D01*
X118977506Y-79369819D02*
X118882268Y-79369819D01*
X118882268Y-79369819D02*
X118739411Y-79322200D01*
X118739411Y-79322200D02*
X118691792Y-79274580D01*
X118691792Y-79274580D02*
X118691792Y-78941247D01*
X118691792Y-78941247D02*
X118882268Y-78941247D01*
X118263220Y-79369819D02*
X118263220Y-78369819D01*
X118263220Y-78369819D02*
X117691792Y-79369819D01*
X117691792Y-79369819D02*
X117691792Y-78369819D01*
X117215601Y-79369819D02*
X117215601Y-78369819D01*
X117215601Y-78369819D02*
X116977506Y-78369819D01*
X116977506Y-78369819D02*
X116834649Y-78417438D01*
X116834649Y-78417438D02*
X116739411Y-78512676D01*
X116739411Y-78512676D02*
X116691792Y-78607914D01*
X116691792Y-78607914D02*
X116644173Y-78798390D01*
X116644173Y-78798390D02*
X116644173Y-78941247D01*
X116644173Y-78941247D02*
X116691792Y-79131723D01*
X116691792Y-79131723D02*
X116739411Y-79226961D01*
X116739411Y-79226961D02*
X116834649Y-79322200D01*
X116834649Y-79322200D02*
X116977506Y-79369819D01*
X116977506Y-79369819D02*
X117215601Y-79369819D01*
G36*
X72454643Y-74705453D02*
G01*
X72483514Y-74761517D01*
X72483819Y-74845339D01*
X72156475Y-74780850D01*
X72156271Y-74765284D01*
X72184569Y-74706966D01*
X72240736Y-74678042D01*
X72395905Y-74676952D01*
X72454643Y-74705453D01*
G37*
G36*
X74369197Y-74710204D02*
G01*
X74400524Y-74740448D01*
X74435913Y-74809171D01*
X74437114Y-75059490D01*
X74403787Y-75128175D01*
X74373541Y-75159504D01*
X74304685Y-75194962D01*
X74197053Y-75195947D01*
X74128672Y-75162767D01*
X74097345Y-75132521D01*
X74061955Y-75063798D01*
X74060754Y-74813479D01*
X74094082Y-74744793D01*
X74124326Y-74713466D01*
X74193183Y-74678008D01*
X74300815Y-74677023D01*
X74369197Y-74710204D01*
G37*
G36*
X75388857Y-74718898D02*
G01*
X75102200Y-74719943D01*
X75033434Y-74686576D01*
X75002106Y-74656331D01*
X74966648Y-74587474D01*
X74965663Y-74479842D01*
X74998844Y-74411460D01*
X75029088Y-74380133D01*
X75097776Y-74344762D01*
X75388324Y-74343704D01*
X75388857Y-74718898D01*
G37*
G36*
X75649331Y-75455930D02*
G01*
X71183312Y-75455930D01*
X71183312Y-74588520D01*
X71294423Y-74588520D01*
X71294423Y-74617784D01*
X71305622Y-74644820D01*
X71326314Y-74665512D01*
X71353350Y-74676711D01*
X71367982Y-74678152D01*
X71443944Y-74677155D01*
X71512054Y-74710204D01*
X71543381Y-74740448D01*
X71579133Y-74809875D01*
X71580137Y-75284451D01*
X71591336Y-75311487D01*
X71612028Y-75332179D01*
X71639064Y-75343378D01*
X71668328Y-75343378D01*
X71695364Y-75332179D01*
X71716056Y-75311487D01*
X71727255Y-75284451D01*
X71728696Y-75269819D01*
X71727711Y-74804195D01*
X71728107Y-74803008D01*
X71727696Y-74797229D01*
X71727588Y-74746009D01*
X72007268Y-74746009D01*
X72008439Y-74835312D01*
X72007268Y-74841169D01*
X72008604Y-74847925D01*
X72008709Y-74855879D01*
X72011520Y-74862667D01*
X72012947Y-74869876D01*
X72017066Y-74876055D01*
X72019908Y-74882915D01*
X72025103Y-74888110D01*
X72029179Y-74894224D01*
X72035349Y-74898356D01*
X72040600Y-74903607D01*
X72047388Y-74906418D01*
X72053494Y-74910508D01*
X72067559Y-74914791D01*
X72484371Y-74996905D01*
X72484773Y-75107028D01*
X72456157Y-75166004D01*
X72399989Y-75194928D01*
X72244820Y-75196018D01*
X72149696Y-75149863D01*
X72120506Y-75147789D01*
X72092745Y-75157043D01*
X72070637Y-75176216D01*
X72057550Y-75202391D01*
X72055476Y-75231581D01*
X72064730Y-75259342D01*
X72083903Y-75281450D01*
X72096346Y-75289282D01*
X72182235Y-75330957D01*
X72183457Y-75332179D01*
X72192316Y-75335848D01*
X72205315Y-75342156D01*
X72208004Y-75342347D01*
X72210493Y-75343378D01*
X72225125Y-75344819D01*
X72404212Y-75343560D01*
X72406220Y-75344230D01*
X72416892Y-75343471D01*
X72430233Y-75343378D01*
X72432722Y-75342346D01*
X72435410Y-75342156D01*
X72449142Y-75336901D01*
X72540526Y-75289841D01*
X72547981Y-75287357D01*
X72551823Y-75284024D01*
X72556823Y-75281450D01*
X72562984Y-75274345D01*
X72570089Y-75268184D01*
X72574750Y-75260778D01*
X72575996Y-75259342D01*
X72576380Y-75258188D01*
X72577921Y-75255741D01*
X72619595Y-75169851D01*
X72620818Y-75168629D01*
X72624489Y-75159764D01*
X72630795Y-75146770D01*
X72630985Y-75144082D01*
X72632017Y-75141593D01*
X72633458Y-75126961D01*
X72632776Y-74939968D01*
X72633458Y-74936563D01*
X72632751Y-74932991D01*
X72632112Y-74757657D01*
X72632869Y-74755389D01*
X72632063Y-74744047D01*
X72632017Y-74731377D01*
X72630986Y-74728888D01*
X72630795Y-74726199D01*
X72625540Y-74712468D01*
X72578480Y-74621083D01*
X72575996Y-74613629D01*
X72572663Y-74609786D01*
X72572408Y-74609291D01*
X72817044Y-74609291D01*
X72819678Y-74623756D01*
X73008836Y-75280748D01*
X73008893Y-75285347D01*
X73012756Y-75294361D01*
X73015559Y-75304096D01*
X73018534Y-75307843D01*
X73020420Y-75312244D01*
X73027557Y-75319209D01*
X73033754Y-75327015D01*
X73037935Y-75329338D01*
X73041363Y-75332683D01*
X73050622Y-75336386D01*
X73059335Y-75341227D01*
X73064089Y-75341773D01*
X73068534Y-75343551D01*
X73078504Y-75343429D01*
X73088407Y-75344567D01*
X73093008Y-75343252D01*
X73097796Y-75343194D01*
X73106961Y-75339265D01*
X73116545Y-75336528D01*
X73120292Y-75333552D01*
X73124693Y-75331667D01*
X73131658Y-75324529D01*
X73139464Y-75318333D01*
X73141787Y-75314151D01*
X73145132Y-75310724D01*
X73151904Y-75297673D01*
X73272536Y-74993686D01*
X73391294Y-75288247D01*
X73391812Y-75292752D01*
X73396546Y-75301273D01*
X73400356Y-75310723D01*
X73403699Y-75314148D01*
X73406024Y-75318333D01*
X73413833Y-75324532D01*
X73420795Y-75331666D01*
X73425193Y-75333551D01*
X73428943Y-75336528D01*
X73438528Y-75339266D01*
X73447692Y-75343194D01*
X73452479Y-75343252D01*
X73457081Y-75344567D01*
X73466983Y-75343429D01*
X73476954Y-75343551D01*
X73481397Y-75341773D01*
X73486153Y-75341227D01*
X73494871Y-75336383D01*
X73504124Y-75332682D01*
X73507548Y-75329340D01*
X73511734Y-75327015D01*
X73517932Y-75319206D01*
X73525068Y-75312244D01*
X73526953Y-75307843D01*
X73529929Y-75304096D01*
X73535334Y-75290423D01*
X73676182Y-74793628D01*
X73912030Y-74793628D01*
X73913345Y-75067782D01*
X73912619Y-75069961D01*
X73913409Y-75081081D01*
X73913471Y-75093974D01*
X73914502Y-75096463D01*
X73914693Y-75099151D01*
X73919948Y-75112883D01*
X73968638Y-75207435D01*
X73972288Y-75216247D01*
X73974671Y-75219151D01*
X73975399Y-75220564D01*
X73976897Y-75221863D01*
X73981615Y-75227612D01*
X74030650Y-75274953D01*
X74036284Y-75281450D01*
X74039429Y-75283429D01*
X74040600Y-75284560D01*
X74042427Y-75285317D01*
X74048727Y-75289282D01*
X74134616Y-75330957D01*
X74135838Y-75332179D01*
X74144697Y-75335848D01*
X74157696Y-75342156D01*
X74160385Y-75342347D01*
X74162874Y-75343378D01*
X74177506Y-75344819D01*
X74309135Y-75343614D01*
X74310982Y-75344230D01*
X74321196Y-75343504D01*
X74334995Y-75343378D01*
X74337484Y-75342346D01*
X74340172Y-75342156D01*
X74353904Y-75336901D01*
X74448458Y-75288209D01*
X74457269Y-75284560D01*
X74460171Y-75282177D01*
X74461585Y-75281450D01*
X74462885Y-75279950D01*
X74468635Y-75275232D01*
X74515976Y-75226195D01*
X74522470Y-75220564D01*
X74524449Y-75217418D01*
X74525581Y-75216247D01*
X74526338Y-75214417D01*
X74530302Y-75208121D01*
X74571977Y-75122231D01*
X74573199Y-75121010D01*
X74576868Y-75112150D01*
X74583176Y-75099152D01*
X74583367Y-75096462D01*
X74584398Y-75093974D01*
X74585839Y-75079342D01*
X74584523Y-74805187D01*
X74585250Y-74803008D01*
X74584459Y-74791887D01*
X74584398Y-74778996D01*
X74583367Y-74776507D01*
X74583176Y-74773818D01*
X74577921Y-74760087D01*
X74529229Y-74665532D01*
X74525580Y-74656722D01*
X74523197Y-74653819D01*
X74522470Y-74652406D01*
X74520971Y-74651106D01*
X74516253Y-74645357D01*
X74467217Y-74598015D01*
X74461585Y-74591521D01*
X74458439Y-74589541D01*
X74457269Y-74588411D01*
X74455441Y-74587653D01*
X74449142Y-74583689D01*
X74363253Y-74542014D01*
X74362031Y-74540792D01*
X74353165Y-74537119D01*
X74340172Y-74530815D01*
X74337484Y-74530624D01*
X74334995Y-74529593D01*
X74320363Y-74528152D01*
X74188732Y-74529356D01*
X74186886Y-74528741D01*
X74176671Y-74529466D01*
X74162874Y-74529593D01*
X74160385Y-74530623D01*
X74157696Y-74530815D01*
X74143965Y-74536070D01*
X74049410Y-74584761D01*
X74040600Y-74588411D01*
X74037697Y-74590793D01*
X74036284Y-74591521D01*
X74034984Y-74593019D01*
X74029235Y-74597738D01*
X73981893Y-74646773D01*
X73975399Y-74652406D01*
X73973419Y-74655551D01*
X73972289Y-74656722D01*
X73971531Y-74658549D01*
X73967567Y-74664849D01*
X73925892Y-74750737D01*
X73924670Y-74751960D01*
X73920997Y-74760825D01*
X73914693Y-74773819D01*
X73914502Y-74776506D01*
X73913471Y-74778996D01*
X73912030Y-74793628D01*
X73676182Y-74793628D01*
X73728444Y-74609291D01*
X73725104Y-74580219D01*
X73710892Y-74554638D01*
X73687973Y-74536443D01*
X73659835Y-74528404D01*
X73630763Y-74531744D01*
X73605182Y-74545956D01*
X73586987Y-74568875D01*
X73581582Y-74582548D01*
X73451698Y-75040667D01*
X73346127Y-74778815D01*
X73346119Y-74778100D01*
X73341397Y-74767082D01*
X73335608Y-74752723D01*
X73334957Y-74752056D01*
X73334592Y-74751203D01*
X73324781Y-74741629D01*
X73315169Y-74731780D01*
X73314311Y-74731412D01*
X73313648Y-74730765D01*
X73300916Y-74725671D01*
X73288272Y-74720253D01*
X73287342Y-74720241D01*
X73286478Y-74719896D01*
X73272744Y-74720063D01*
X73259010Y-74719896D01*
X73258145Y-74720241D01*
X73257216Y-74720253D01*
X73244614Y-74725654D01*
X73231839Y-74730764D01*
X73231171Y-74731415D01*
X73230319Y-74731781D01*
X73220746Y-74741589D01*
X73210896Y-74751203D01*
X73210529Y-74752058D01*
X73209880Y-74752724D01*
X73203108Y-74765774D01*
X73094204Y-75040204D01*
X72958501Y-74568875D01*
X72940306Y-74545956D01*
X72914725Y-74531744D01*
X72885653Y-74528404D01*
X72857515Y-74536443D01*
X72834596Y-74554638D01*
X72820384Y-74580219D01*
X72817044Y-74609291D01*
X72572408Y-74609291D01*
X72570089Y-74604787D01*
X72562984Y-74598625D01*
X72556823Y-74591521D01*
X72549417Y-74586859D01*
X72547981Y-74585614D01*
X72546827Y-74585229D01*
X72544380Y-74583689D01*
X72458491Y-74542014D01*
X72457269Y-74540792D01*
X72448403Y-74537119D01*
X72435410Y-74530815D01*
X72432722Y-74530624D01*
X72430233Y-74529593D01*
X72415601Y-74528152D01*
X72236512Y-74529410D01*
X72234505Y-74528741D01*
X72223832Y-74529499D01*
X72210493Y-74529593D01*
X72208004Y-74530623D01*
X72205315Y-74530815D01*
X72191584Y-74536070D01*
X72100199Y-74583129D01*
X72092745Y-74585614D01*
X72088902Y-74588946D01*
X72083903Y-74591521D01*
X72077741Y-74598625D01*
X72070637Y-74604787D01*
X72065975Y-74612192D01*
X72064730Y-74613629D01*
X72064345Y-74614782D01*
X72062805Y-74617230D01*
X72021130Y-74703118D01*
X72019908Y-74704341D01*
X72016235Y-74713206D01*
X72009931Y-74726200D01*
X72009740Y-74728887D01*
X72008709Y-74731377D01*
X72007268Y-74746009D01*
X71727588Y-74746009D01*
X71727255Y-74588520D01*
X71716056Y-74561484D01*
X71695364Y-74540792D01*
X71668328Y-74529593D01*
X71639064Y-74529593D01*
X71612028Y-74540792D01*
X71591336Y-74561484D01*
X71583788Y-74579705D01*
X71506110Y-74542014D01*
X71504888Y-74540792D01*
X71496022Y-74537119D01*
X71483029Y-74530815D01*
X71480341Y-74530624D01*
X71477852Y-74529593D01*
X71463220Y-74528152D01*
X71353350Y-74529593D01*
X71326314Y-74540792D01*
X71305622Y-74561484D01*
X71294423Y-74588520D01*
X71183312Y-74588520D01*
X71183312Y-74460295D01*
X74816792Y-74460295D01*
X74817996Y-74591924D01*
X74817381Y-74593771D01*
X74818106Y-74603985D01*
X74818233Y-74617784D01*
X74819264Y-74620273D01*
X74819455Y-74622961D01*
X74824710Y-74636693D01*
X74873402Y-74731249D01*
X74877051Y-74740058D01*
X74879433Y-74742960D01*
X74880161Y-74744374D01*
X74881659Y-74745673D01*
X74886378Y-74751423D01*
X74935413Y-74798764D01*
X74941046Y-74805259D01*
X74944191Y-74807238D01*
X74945362Y-74808369D01*
X74947189Y-74809126D01*
X74953489Y-74813091D01*
X75039378Y-74854766D01*
X75040600Y-74855988D01*
X75049459Y-74859657D01*
X75062458Y-74865965D01*
X75065147Y-74866156D01*
X75067636Y-74867187D01*
X75082268Y-74868628D01*
X75389068Y-74867510D01*
X75389661Y-75284451D01*
X75400860Y-75311487D01*
X75421552Y-75332179D01*
X75448588Y-75343378D01*
X75477852Y-75343378D01*
X75504888Y-75332179D01*
X75525580Y-75311487D01*
X75536779Y-75284451D01*
X75538220Y-75269819D01*
X75536779Y-74255187D01*
X75525580Y-74228151D01*
X75504888Y-74207459D01*
X75477852Y-74196260D01*
X75463220Y-74194819D01*
X75093916Y-74196164D01*
X75091648Y-74195408D01*
X75080306Y-74196213D01*
X75067636Y-74196260D01*
X75065147Y-74197290D01*
X75062458Y-74197482D01*
X75048727Y-74202737D01*
X74954172Y-74251428D01*
X74945362Y-74255078D01*
X74942459Y-74257460D01*
X74941046Y-74258188D01*
X74939746Y-74259686D01*
X74933997Y-74264405D01*
X74886655Y-74313440D01*
X74880161Y-74319073D01*
X74878181Y-74322218D01*
X74877051Y-74323389D01*
X74876293Y-74325216D01*
X74872329Y-74331516D01*
X74830654Y-74417404D01*
X74829432Y-74418627D01*
X74825759Y-74427492D01*
X74819455Y-74440486D01*
X74819264Y-74443173D01*
X74818233Y-74445663D01*
X74816792Y-74460295D01*
X71183312Y-74460295D01*
X71183312Y-74083708D01*
X75649331Y-74083708D01*
X75649331Y-75455930D01*
G37*
X105839411Y-80917438D02*
X105934649Y-80869819D01*
X105934649Y-80869819D02*
X106077506Y-80869819D01*
X106077506Y-80869819D02*
X106220363Y-80917438D01*
X106220363Y-80917438D02*
X106315601Y-81012676D01*
X106315601Y-81012676D02*
X106363220Y-81107914D01*
X106363220Y-81107914D02*
X106410839Y-81298390D01*
X106410839Y-81298390D02*
X106410839Y-81441247D01*
X106410839Y-81441247D02*
X106363220Y-81631723D01*
X106363220Y-81631723D02*
X106315601Y-81726961D01*
X106315601Y-81726961D02*
X106220363Y-81822200D01*
X106220363Y-81822200D02*
X106077506Y-81869819D01*
X106077506Y-81869819D02*
X105982268Y-81869819D01*
X105982268Y-81869819D02*
X105839411Y-81822200D01*
X105839411Y-81822200D02*
X105791792Y-81774580D01*
X105791792Y-81774580D02*
X105791792Y-81441247D01*
X105791792Y-81441247D02*
X105982268Y-81441247D01*
X105363220Y-81869819D02*
X105363220Y-80869819D01*
X105363220Y-80869819D02*
X104791792Y-81869819D01*
X104791792Y-81869819D02*
X104791792Y-80869819D01*
X104315601Y-81869819D02*
X104315601Y-80869819D01*
X104315601Y-80869819D02*
X104077506Y-80869819D01*
X104077506Y-80869819D02*
X103934649Y-80917438D01*
X103934649Y-80917438D02*
X103839411Y-81012676D01*
X103839411Y-81012676D02*
X103791792Y-81107914D01*
X103791792Y-81107914D02*
X103744173Y-81298390D01*
X103744173Y-81298390D02*
X103744173Y-81441247D01*
X103744173Y-81441247D02*
X103791792Y-81631723D01*
X103791792Y-81631723D02*
X103839411Y-81726961D01*
X103839411Y-81726961D02*
X103934649Y-81822200D01*
X103934649Y-81822200D02*
X104077506Y-81869819D01*
X104077506Y-81869819D02*
X104315601Y-81869819D01*
X103315601Y-81869819D02*
X103315601Y-80869819D01*
X103315601Y-80869819D02*
X102934649Y-80869819D01*
X102934649Y-80869819D02*
X102839411Y-80917438D01*
X102839411Y-80917438D02*
X102791792Y-80965057D01*
X102791792Y-80965057D02*
X102744173Y-81060295D01*
X102744173Y-81060295D02*
X102744173Y-81203152D01*
X102744173Y-81203152D02*
X102791792Y-81298390D01*
X102791792Y-81298390D02*
X102839411Y-81346009D01*
X102839411Y-81346009D02*
X102934649Y-81393628D01*
X102934649Y-81393628D02*
X103315601Y-81393628D01*
X133079887Y-84846009D02*
X132937030Y-84893628D01*
X132937030Y-84893628D02*
X132889411Y-84941247D01*
X132889411Y-84941247D02*
X132841792Y-85036485D01*
X132841792Y-85036485D02*
X132841792Y-85179342D01*
X132841792Y-85179342D02*
X132889411Y-85274580D01*
X132889411Y-85274580D02*
X132937030Y-85322200D01*
X132937030Y-85322200D02*
X133032268Y-85369819D01*
X133032268Y-85369819D02*
X133413220Y-85369819D01*
X133413220Y-85369819D02*
X133413220Y-84369819D01*
X133413220Y-84369819D02*
X133079887Y-84369819D01*
X133079887Y-84369819D02*
X132984649Y-84417438D01*
X132984649Y-84417438D02*
X132937030Y-84465057D01*
X132937030Y-84465057D02*
X132889411Y-84560295D01*
X132889411Y-84560295D02*
X132889411Y-84655533D01*
X132889411Y-84655533D02*
X132937030Y-84750771D01*
X132937030Y-84750771D02*
X132984649Y-84798390D01*
X132984649Y-84798390D02*
X133079887Y-84846009D01*
X133079887Y-84846009D02*
X133413220Y-84846009D01*
X132460839Y-85084104D02*
X131984649Y-85084104D01*
X132556077Y-85369819D02*
X132222744Y-84369819D01*
X132222744Y-84369819D02*
X131889411Y-85369819D01*
X131698934Y-84369819D02*
X131127506Y-84369819D01*
X131413220Y-85369819D02*
X131413220Y-84369819D01*
D11*
X72222266Y-84526441D02*
X72222266Y-83002632D01*
X71460361Y-83764536D02*
X72984171Y-83764536D01*
D10*
X112406077Y-74769819D02*
X111834649Y-74769819D01*
X112120363Y-75769819D02*
X112120363Y-74769819D01*
X109406077Y-74669819D02*
X109072744Y-75669819D01*
X109072744Y-75669819D02*
X108739411Y-74669819D01*
X113839411Y-74817438D02*
X113934649Y-74769819D01*
X113934649Y-74769819D02*
X114077506Y-74769819D01*
X114077506Y-74769819D02*
X114220363Y-74817438D01*
X114220363Y-74817438D02*
X114315601Y-74912676D01*
X114315601Y-74912676D02*
X114363220Y-75007914D01*
X114363220Y-75007914D02*
X114410839Y-75198390D01*
X114410839Y-75198390D02*
X114410839Y-75341247D01*
X114410839Y-75341247D02*
X114363220Y-75531723D01*
X114363220Y-75531723D02*
X114315601Y-75626961D01*
X114315601Y-75626961D02*
X114220363Y-75722200D01*
X114220363Y-75722200D02*
X114077506Y-75769819D01*
X114077506Y-75769819D02*
X113982268Y-75769819D01*
X113982268Y-75769819D02*
X113839411Y-75722200D01*
X113839411Y-75722200D02*
X113791792Y-75674580D01*
X113791792Y-75674580D02*
X113791792Y-75341247D01*
X113791792Y-75341247D02*
X113982268Y-75341247D01*
X148663220Y-72469819D02*
X148663220Y-71469819D01*
X148663220Y-71469819D02*
X148329887Y-72184104D01*
X148329887Y-72184104D02*
X147996554Y-71469819D01*
X147996554Y-71469819D02*
X147996554Y-72469819D01*
X147567982Y-71565057D02*
X147520363Y-71517438D01*
X147520363Y-71517438D02*
X147425125Y-71469819D01*
X147425125Y-71469819D02*
X147187030Y-71469819D01*
X147187030Y-71469819D02*
X147091792Y-71517438D01*
X147091792Y-71517438D02*
X147044173Y-71565057D01*
X147044173Y-71565057D02*
X146996554Y-71660295D01*
X146996554Y-71660295D02*
X146996554Y-71755533D01*
X146996554Y-71755533D02*
X147044173Y-71898390D01*
X147044173Y-71898390D02*
X147615601Y-72469819D01*
X147615601Y-72469819D02*
X146996554Y-72469819D01*
D12*
X125753258Y-76457419D02*
X125800877Y-76433609D01*
X125800877Y-76433609D02*
X125872306Y-76433609D01*
X125872306Y-76433609D02*
X125943734Y-76457419D01*
X125943734Y-76457419D02*
X125991353Y-76505038D01*
X125991353Y-76505038D02*
X126015163Y-76552657D01*
X126015163Y-76552657D02*
X126038972Y-76647895D01*
X126038972Y-76647895D02*
X126038972Y-76719323D01*
X126038972Y-76719323D02*
X126015163Y-76814561D01*
X126015163Y-76814561D02*
X125991353Y-76862180D01*
X125991353Y-76862180D02*
X125943734Y-76909800D01*
X125943734Y-76909800D02*
X125872306Y-76933609D01*
X125872306Y-76933609D02*
X125824687Y-76933609D01*
X125824687Y-76933609D02*
X125753258Y-76909800D01*
X125753258Y-76909800D02*
X125729449Y-76885990D01*
X125729449Y-76885990D02*
X125729449Y-76719323D01*
X125729449Y-76719323D02*
X125824687Y-76719323D01*
X125515163Y-76933609D02*
X125515163Y-76433609D01*
X125515163Y-76433609D02*
X125229449Y-76933609D01*
X125229449Y-76933609D02*
X125229449Y-76433609D01*
X124991353Y-76933609D02*
X124991353Y-76433609D01*
X124991353Y-76433609D02*
X124872305Y-76433609D01*
X124872305Y-76433609D02*
X124800877Y-76457419D01*
X124800877Y-76457419D02*
X124753258Y-76505038D01*
X124753258Y-76505038D02*
X124729448Y-76552657D01*
X124729448Y-76552657D02*
X124705639Y-76647895D01*
X124705639Y-76647895D02*
X124705639Y-76719323D01*
X124705639Y-76719323D02*
X124729448Y-76814561D01*
X124729448Y-76814561D02*
X124753258Y-76862180D01*
X124753258Y-76862180D02*
X124800877Y-76909800D01*
X124800877Y-76909800D02*
X124872305Y-76933609D01*
X124872305Y-76933609D02*
X124991353Y-76933609D01*
X124529449Y-81533609D02*
X124696115Y-81295514D01*
X124815163Y-81533609D02*
X124815163Y-81033609D01*
X124815163Y-81033609D02*
X124624687Y-81033609D01*
X124624687Y-81033609D02*
X124577068Y-81057419D01*
X124577068Y-81057419D02*
X124553258Y-81081228D01*
X124553258Y-81081228D02*
X124529449Y-81128847D01*
X124529449Y-81128847D02*
X124529449Y-81200276D01*
X124529449Y-81200276D02*
X124553258Y-81247895D01*
X124553258Y-81247895D02*
X124577068Y-81271704D01*
X124577068Y-81271704D02*
X124624687Y-81295514D01*
X124624687Y-81295514D02*
X124815163Y-81295514D01*
X124362782Y-81033609D02*
X124029449Y-81533609D01*
X124029449Y-81033609D02*
X124362782Y-81533609D01*
D10*
X109929887Y-75246009D02*
X109787030Y-75293628D01*
X109787030Y-75293628D02*
X109739411Y-75341247D01*
X109739411Y-75341247D02*
X109691792Y-75436485D01*
X109691792Y-75436485D02*
X109691792Y-75579342D01*
X109691792Y-75579342D02*
X109739411Y-75674580D01*
X109739411Y-75674580D02*
X109787030Y-75722200D01*
X109787030Y-75722200D02*
X109882268Y-75769819D01*
X109882268Y-75769819D02*
X110263220Y-75769819D01*
X110263220Y-75769819D02*
X110263220Y-74769819D01*
X110263220Y-74769819D02*
X109929887Y-74769819D01*
X109929887Y-74769819D02*
X109834649Y-74817438D01*
X109834649Y-74817438D02*
X109787030Y-74865057D01*
X109787030Y-74865057D02*
X109739411Y-74960295D01*
X109739411Y-74960295D02*
X109739411Y-75055533D01*
X109739411Y-75055533D02*
X109787030Y-75150771D01*
X109787030Y-75150771D02*
X109834649Y-75198390D01*
X109834649Y-75198390D02*
X109929887Y-75246009D01*
X109929887Y-75246009D02*
X110263220Y-75246009D01*
G36*
X121949331Y-88855930D02*
G01*
X118862824Y-88855930D01*
X118862824Y-87669819D01*
X118973935Y-87669819D01*
X118975329Y-88467543D01*
X118974524Y-88469961D01*
X118975354Y-88481648D01*
X118975376Y-88493974D01*
X118976407Y-88496463D01*
X118976598Y-88499151D01*
X118981853Y-88512883D01*
X119030543Y-88607435D01*
X119034193Y-88616247D01*
X119036576Y-88619151D01*
X119037304Y-88620564D01*
X119038802Y-88621863D01*
X119043520Y-88627612D01*
X119092555Y-88674953D01*
X119098189Y-88681450D01*
X119101334Y-88683429D01*
X119102505Y-88684560D01*
X119104332Y-88685317D01*
X119110632Y-88689282D01*
X119196521Y-88730957D01*
X119197743Y-88732179D01*
X119206602Y-88735848D01*
X119219601Y-88742156D01*
X119222290Y-88742347D01*
X119224779Y-88743378D01*
X119239411Y-88744819D01*
X119418498Y-88743560D01*
X119420506Y-88744230D01*
X119431178Y-88743471D01*
X119444519Y-88743378D01*
X119447008Y-88742346D01*
X119449696Y-88742156D01*
X119463428Y-88736901D01*
X119557982Y-88688209D01*
X119566793Y-88684560D01*
X119569695Y-88682177D01*
X119571109Y-88681450D01*
X119572409Y-88679950D01*
X119578159Y-88675232D01*
X119625500Y-88626195D01*
X119631994Y-88620564D01*
X119633973Y-88617418D01*
X119635105Y-88616247D01*
X119635862Y-88614417D01*
X119639826Y-88608121D01*
X119681501Y-88522231D01*
X119682723Y-88521010D01*
X119686392Y-88512150D01*
X119692700Y-88499152D01*
X119692891Y-88496462D01*
X119693922Y-88493974D01*
X119695363Y-88479342D01*
X119694089Y-87750426D01*
X119975376Y-87750426D01*
X119975376Y-87779688D01*
X119986575Y-87806725D01*
X120007267Y-87827417D01*
X120034304Y-87838616D01*
X120063566Y-87838616D01*
X120090603Y-87827417D01*
X120101968Y-87818090D01*
X120135490Y-87783367D01*
X120248196Y-87744703D01*
X120319575Y-87743767D01*
X120435502Y-87781290D01*
X120509711Y-87854080D01*
X120548402Y-87929215D01*
X120593020Y-88102645D01*
X120594162Y-88227417D01*
X120552136Y-88400540D01*
X120513411Y-88480350D01*
X120439134Y-88556076D01*
X120325862Y-88594934D01*
X120254484Y-88595870D01*
X120138292Y-88558262D01*
X120090603Y-88512220D01*
X120063567Y-88501021D01*
X120034304Y-88501021D01*
X120007268Y-88512219D01*
X119986575Y-88532912D01*
X119975376Y-88559948D01*
X119975376Y-88589211D01*
X119986574Y-88616247D01*
X119995901Y-88627612D01*
X120036726Y-88667027D01*
X120037304Y-88668183D01*
X120043395Y-88673466D01*
X120054886Y-88684560D01*
X120057374Y-88685590D01*
X120059411Y-88687357D01*
X120072837Y-88693351D01*
X120215418Y-88739500D01*
X120224779Y-88743378D01*
X120228542Y-88743748D01*
X120230030Y-88744230D01*
X120232004Y-88744089D01*
X120239411Y-88744819D01*
X120334728Y-88743568D01*
X120344029Y-88744230D01*
X120347683Y-88743398D01*
X120349281Y-88743378D01*
X120351112Y-88742619D01*
X120358366Y-88740970D01*
X120490156Y-88695759D01*
X120492138Y-88695759D01*
X120501690Y-88691802D01*
X120514648Y-88687357D01*
X120516683Y-88685591D01*
X120519174Y-88684560D01*
X120530539Y-88675233D01*
X120624471Y-88579468D01*
X120631994Y-88572945D01*
X120634006Y-88569748D01*
X120635105Y-88568628D01*
X120635862Y-88566798D01*
X120639826Y-88560502D01*
X120684094Y-88469269D01*
X120688177Y-88463759D01*
X120692112Y-88452743D01*
X120692700Y-88451533D01*
X120692738Y-88450992D01*
X120693124Y-88449913D01*
X120738364Y-88263547D01*
X120741541Y-88255879D01*
X120742438Y-88246764D01*
X120742893Y-88244893D01*
X120742730Y-88243800D01*
X120742982Y-88241247D01*
X120741714Y-88102667D01*
X120742893Y-88094744D01*
X120741558Y-88085719D01*
X120741541Y-88083758D01*
X120741118Y-88082736D01*
X120740743Y-88080200D01*
X120693225Y-87895501D01*
X120692700Y-87888104D01*
X120688496Y-87877121D01*
X120688177Y-87875878D01*
X120687854Y-87875442D01*
X120687445Y-87874373D01*
X120638756Y-87779823D01*
X120635105Y-87771008D01*
X120632720Y-87768102D01*
X120631994Y-87766692D01*
X120630497Y-87765393D01*
X120625777Y-87759643D01*
X120537606Y-87673158D01*
X120536755Y-87671455D01*
X120534869Y-87669819D01*
X121021554Y-87669819D01*
X121022995Y-88684451D01*
X121034194Y-88711487D01*
X121054886Y-88732179D01*
X121081922Y-88743378D01*
X121111186Y-88743378D01*
X121138222Y-88732179D01*
X121158914Y-88711487D01*
X121170113Y-88684451D01*
X121171554Y-88669819D01*
X121170609Y-88004441D01*
X121361984Y-88412619D01*
X121365757Y-88422993D01*
X121367993Y-88425435D01*
X121369417Y-88428471D01*
X121377826Y-88436171D01*
X121385521Y-88444574D01*
X121388539Y-88445982D01*
X121390998Y-88448234D01*
X121401710Y-88452129D01*
X121412039Y-88456950D01*
X121415367Y-88457096D01*
X121418499Y-88458235D01*
X121429893Y-88457734D01*
X121441275Y-88458234D01*
X121444403Y-88457096D01*
X121447735Y-88456950D01*
X121458070Y-88452126D01*
X121468776Y-88448234D01*
X121471231Y-88445984D01*
X121474253Y-88444575D01*
X121481954Y-88436164D01*
X121490357Y-88428470D01*
X121492840Y-88424277D01*
X121494017Y-88422993D01*
X121494677Y-88421177D01*
X121497851Y-88415820D01*
X121688695Y-88004943D01*
X121689661Y-88684451D01*
X121700860Y-88711487D01*
X121721552Y-88732179D01*
X121748588Y-88743378D01*
X121777852Y-88743378D01*
X121804888Y-88732179D01*
X121825580Y-88711487D01*
X121836779Y-88684451D01*
X121838220Y-88669819D01*
X121836801Y-87670923D01*
X121837350Y-87658431D01*
X121836781Y-87656867D01*
X121836779Y-87655187D01*
X121831797Y-87643160D01*
X121827350Y-87630930D01*
X121826220Y-87629696D01*
X121825580Y-87628151D01*
X121816380Y-87618951D01*
X121807586Y-87609348D01*
X121806069Y-87608640D01*
X121804888Y-87607459D01*
X121792875Y-87602482D01*
X121781068Y-87596973D01*
X121779395Y-87596899D01*
X121777852Y-87596260D01*
X121764846Y-87596260D01*
X121751832Y-87595688D01*
X121750259Y-87596260D01*
X121748588Y-87596260D01*
X121736569Y-87601238D01*
X121724331Y-87605689D01*
X121723097Y-87606819D01*
X121721552Y-87607459D01*
X121712353Y-87616657D01*
X121702750Y-87625452D01*
X121701574Y-87627436D01*
X121700860Y-87628151D01*
X121700183Y-87629784D01*
X121695256Y-87638102D01*
X121430352Y-88208422D01*
X121163653Y-87639592D01*
X121158914Y-87628151D01*
X121157737Y-87626974D01*
X121157024Y-87625453D01*
X121147427Y-87616664D01*
X121138222Y-87607459D01*
X121136676Y-87606818D01*
X121135443Y-87605689D01*
X121123212Y-87601241D01*
X121111186Y-87596260D01*
X121109512Y-87596260D01*
X121107942Y-87595689D01*
X121094941Y-87596260D01*
X121081922Y-87596260D01*
X121080377Y-87596899D01*
X121078706Y-87596973D01*
X121066907Y-87602479D01*
X121054886Y-87607459D01*
X121053703Y-87608641D01*
X121052188Y-87609349D01*
X121043399Y-87618945D01*
X121034194Y-87628151D01*
X121033553Y-87629696D01*
X121032424Y-87630930D01*
X121027976Y-87643160D01*
X121022995Y-87655187D01*
X121022768Y-87657482D01*
X121022424Y-87658431D01*
X121022501Y-87660197D01*
X121021554Y-87669819D01*
X120534869Y-87669819D01*
X120529112Y-87664826D01*
X120519174Y-87655078D01*
X120516683Y-87654046D01*
X120514648Y-87652281D01*
X120501223Y-87646287D01*
X120358644Y-87600138D01*
X120349281Y-87596260D01*
X120345515Y-87595889D01*
X120344029Y-87595408D01*
X120342054Y-87595548D01*
X120334649Y-87594819D01*
X120239330Y-87596069D01*
X120230030Y-87595408D01*
X120226375Y-87596239D01*
X120224779Y-87596260D01*
X120222948Y-87597018D01*
X120215693Y-87598668D01*
X120083903Y-87643879D01*
X120081922Y-87643879D01*
X120072374Y-87647833D01*
X120059411Y-87652281D01*
X120057374Y-87654047D01*
X120054886Y-87655078D01*
X120043521Y-87664405D01*
X119986575Y-87723389D01*
X119975376Y-87750426D01*
X119694089Y-87750426D01*
X119693922Y-87655187D01*
X119682723Y-87628151D01*
X119662031Y-87607459D01*
X119634995Y-87596260D01*
X119605731Y-87596260D01*
X119578695Y-87607459D01*
X119558003Y-87628151D01*
X119546804Y-87655187D01*
X119545363Y-87669819D01*
X119546743Y-88459274D01*
X119513311Y-88528175D01*
X119483065Y-88559504D01*
X119414275Y-88594928D01*
X119259106Y-88596018D01*
X119190577Y-88562767D01*
X119159250Y-88532521D01*
X119123907Y-88463890D01*
X119122494Y-87655187D01*
X119111295Y-87628151D01*
X119090603Y-87607459D01*
X119063567Y-87596260D01*
X119034303Y-87596260D01*
X119007267Y-87607459D01*
X118986575Y-87628151D01*
X118975376Y-87655187D01*
X118973935Y-87669819D01*
X118862824Y-87669819D01*
X118862824Y-87483708D01*
X121949331Y-87483708D01*
X121949331Y-88855930D01*
G37*
X94163220Y-72288866D02*
X93401316Y-72288866D01*
X93782268Y-72669819D02*
X93782268Y-71907914D01*
X92448935Y-71669819D02*
X92925125Y-71669819D01*
X92925125Y-71669819D02*
X92972744Y-72146009D01*
X92972744Y-72146009D02*
X92925125Y-72098390D01*
X92925125Y-72098390D02*
X92829887Y-72050771D01*
X92829887Y-72050771D02*
X92591792Y-72050771D01*
X92591792Y-72050771D02*
X92496554Y-72098390D01*
X92496554Y-72098390D02*
X92448935Y-72146009D01*
X92448935Y-72146009D02*
X92401316Y-72241247D01*
X92401316Y-72241247D02*
X92401316Y-72479342D01*
X92401316Y-72479342D02*
X92448935Y-72574580D01*
X92448935Y-72574580D02*
X92496554Y-72622200D01*
X92496554Y-72622200D02*
X92591792Y-72669819D01*
X92591792Y-72669819D02*
X92829887Y-72669819D01*
X92829887Y-72669819D02*
X92925125Y-72622200D01*
X92925125Y-72622200D02*
X92972744Y-72574580D01*
X92115601Y-71669819D02*
X91782268Y-72669819D01*
X91782268Y-72669819D02*
X91448935Y-71669819D01*
X111263220Y-75246009D02*
X110929887Y-75246009D01*
X110787030Y-75769819D02*
X111263220Y-75769819D01*
X111263220Y-75769819D02*
X111263220Y-74769819D01*
X111263220Y-74769819D02*
X110787030Y-74769819D01*
D13*
G36*
X135688968Y-76393111D02*
G01*
X135731030Y-76428658D01*
X135787893Y-76516178D01*
X135822982Y-76784071D01*
X135798338Y-76853796D01*
X135780482Y-76875368D01*
X135718586Y-76909915D01*
X135522576Y-76912107D01*
X135433683Y-76872173D01*
X135391622Y-76836627D01*
X135336213Y-76751344D01*
X135299873Y-76480637D01*
X135324313Y-76411486D01*
X135342165Y-76389918D01*
X135404065Y-76355369D01*
X135600073Y-76353177D01*
X135688968Y-76393111D01*
G37*
G36*
X139806853Y-77471928D02*
G01*
X134735919Y-77471928D01*
X134735919Y-76440584D01*
X134923419Y-76440584D01*
X134924381Y-76477328D01*
X134968151Y-76803389D01*
X134967663Y-76805506D01*
X134971557Y-76828765D01*
X134977136Y-76870320D01*
X134979091Y-76873759D01*
X134979745Y-76877660D01*
X134996076Y-76910588D01*
X135086049Y-77049072D01*
X135094847Y-77067216D01*
X135104919Y-77078115D01*
X135107803Y-77082554D01*
X135111374Y-77085101D01*
X135119793Y-77094211D01*
X135201232Y-77163035D01*
X135213319Y-77176318D01*
X135225677Y-77183693D01*
X135229884Y-77187248D01*
X135234064Y-77188698D01*
X135244882Y-77195154D01*
X135371572Y-77252066D01*
X135372335Y-77252829D01*
X135384329Y-77257797D01*
X135431299Y-77278897D01*
X135435780Y-77279108D01*
X135439925Y-77280825D01*
X135476504Y-77284428D01*
X135737119Y-77281514D01*
X135743670Y-77283508D01*
X135767594Y-77281173D01*
X135798798Y-77280825D01*
X135807311Y-77277298D01*
X135816483Y-77276404D01*
X135850454Y-77262369D01*
X135993764Y-77182380D01*
X136010457Y-77174125D01*
X136013246Y-77171506D01*
X136014962Y-77170549D01*
X136017315Y-77167687D01*
X136037255Y-77148969D01*
X136107400Y-77064227D01*
X136117991Y-77052892D01*
X136119758Y-77049297D01*
X136121131Y-77047639D01*
X136122359Y-77044006D01*
X136134208Y-77019907D01*
X136140808Y-77001234D01*
X136424510Y-77001234D01*
X136426894Y-77037012D01*
X136429001Y-77072816D01*
X136429326Y-77073486D01*
X136429376Y-77074232D01*
X136445259Y-77106348D01*
X136460919Y-77138645D01*
X136461592Y-77139373D01*
X136461808Y-77139810D01*
X136462787Y-77140667D01*
X136485865Y-77165640D01*
X136548329Y-77218428D01*
X136549013Y-77219630D01*
X136558285Y-77226841D01*
X136595956Y-77258677D01*
X136596660Y-77258921D01*
X136597221Y-77259412D01*
X136602423Y-77261171D01*
X136606762Y-77264546D01*
X136636218Y-77272645D01*
X136665073Y-77282656D01*
X136665817Y-77282612D01*
X136666523Y-77282851D01*
X136672005Y-77282485D01*
X136677303Y-77283942D01*
X136707607Y-77280154D01*
X136738106Y-77278360D01*
X136738777Y-77278034D01*
X136739521Y-77277985D01*
X136744446Y-77275549D01*
X136749896Y-77274868D01*
X136776449Y-77259768D01*
X136803935Y-77246442D01*
X136804430Y-77245884D01*
X136805099Y-77245554D01*
X136810710Y-77240286D01*
X136813492Y-77238705D01*
X136816458Y-77234890D01*
X136831898Y-77220398D01*
X136910514Y-77125422D01*
X136915037Y-77120335D01*
X136915261Y-77119688D01*
X136915774Y-77119069D01*
X136927279Y-77085049D01*
X136939018Y-77051219D01*
X136938974Y-77050473D01*
X136939213Y-77049767D01*
X136936828Y-77013988D01*
X136934722Y-76978185D01*
X136934396Y-76977514D01*
X136934347Y-76976769D01*
X136918427Y-76944577D01*
X136902804Y-76912356D01*
X136902133Y-76911629D01*
X136901916Y-76911191D01*
X136900930Y-76910328D01*
X136877858Y-76885361D01*
X136815393Y-76832571D01*
X136814710Y-76831369D01*
X136805434Y-76824154D01*
X136767769Y-76792323D01*
X136767061Y-76792077D01*
X136766501Y-76791587D01*
X136761300Y-76789828D01*
X136756961Y-76786453D01*
X136727508Y-76778354D01*
X136698652Y-76768343D01*
X136697905Y-76768386D01*
X136697199Y-76768148D01*
X136691717Y-76768513D01*
X136686420Y-76767057D01*
X136656114Y-76770845D01*
X136625618Y-76772639D01*
X136624944Y-76772965D01*
X136624201Y-76773015D01*
X136619277Y-76775449D01*
X136613827Y-76776131D01*
X136587267Y-76791233D01*
X136559789Y-76804557D01*
X136559293Y-76805114D01*
X136558623Y-76805446D01*
X136553013Y-76810712D01*
X136550231Y-76812294D01*
X136547264Y-76816108D01*
X136531824Y-76830602D01*
X136453232Y-76925549D01*
X136448685Y-76930665D01*
X136448459Y-76931315D01*
X136447949Y-76931932D01*
X136436468Y-76965875D01*
X136424705Y-76999782D01*
X136424748Y-77000527D01*
X136424510Y-77001234D01*
X136140808Y-77001234D01*
X136176963Y-76898935D01*
X136179837Y-76895241D01*
X136185329Y-76875264D01*
X136197251Y-76841535D01*
X136196960Y-76832966D01*
X136199233Y-76824701D01*
X136198271Y-76787957D01*
X136125138Y-76229606D01*
X136125822Y-76209465D01*
X136119293Y-76184980D01*
X136118730Y-76180679D01*
X136117631Y-76178746D01*
X136116352Y-76173949D01*
X136007100Y-75891701D01*
X136000691Y-75869155D01*
X136994847Y-75869155D01*
X136995809Y-75905898D01*
X137016552Y-76048648D01*
X137017303Y-76068870D01*
X137021089Y-76079866D01*
X137021778Y-76084606D01*
X137024168Y-76088810D01*
X137029269Y-76103623D01*
X137146000Y-76349660D01*
X137147516Y-76351068D01*
X137148419Y-76352929D01*
X137173365Y-76379924D01*
X137774384Y-76911249D01*
X137297068Y-76913031D01*
X137229478Y-76941027D01*
X137177746Y-76992759D01*
X137149750Y-77060349D01*
X137149750Y-77133507D01*
X137177746Y-77201097D01*
X137229478Y-77252829D01*
X137297068Y-77280825D01*
X137333647Y-77284428D01*
X138231941Y-77281074D01*
X138236500Y-77282656D01*
X138265515Y-77280949D01*
X138298797Y-77280825D01*
X138303956Y-77278688D01*
X138309533Y-77278360D01*
X138337581Y-77264760D01*
X138366387Y-77252829D01*
X138370338Y-77248877D01*
X138375362Y-77246442D01*
X138396067Y-77223148D01*
X138418119Y-77201097D01*
X138420256Y-77195935D01*
X138423966Y-77191763D01*
X138434184Y-77162310D01*
X138446115Y-77133507D01*
X138446115Y-77127923D01*
X138447946Y-77122646D01*
X138446115Y-77091518D01*
X138446115Y-77060349D01*
X138443978Y-77055189D01*
X138443650Y-77049612D01*
X138430047Y-77021557D01*
X138418119Y-76992759D01*
X138414168Y-76988808D01*
X138411732Y-76983783D01*
X138386786Y-76956789D01*
X137454670Y-76132760D01*
X137382689Y-75981045D01*
X137371973Y-75907305D01*
X137395740Y-75840060D01*
X137413596Y-75818489D01*
X137475332Y-75784030D01*
X137742565Y-75781584D01*
X137831825Y-75821683D01*
X137926313Y-75901534D01*
X137995430Y-75925513D01*
X138068463Y-75921217D01*
X138134292Y-75889299D01*
X138182896Y-75834620D01*
X138206875Y-75765503D01*
X138202579Y-75692469D01*
X138170661Y-75626640D01*
X138145715Y-75599646D01*
X138107309Y-75567189D01*
X138246734Y-75567189D01*
X138249446Y-75640297D01*
X138261411Y-75675051D01*
X138942948Y-77153693D01*
X138945491Y-77167111D01*
X138957772Y-77185856D01*
X138967427Y-77206802D01*
X138977815Y-77216448D01*
X138985585Y-77228306D01*
X139004374Y-77241108D01*
X139021039Y-77256581D01*
X139034329Y-77261517D01*
X139046044Y-77269499D01*
X139068304Y-77274136D01*
X139089621Y-77282054D01*
X139103786Y-77281528D01*
X139117665Y-77284420D01*
X139140008Y-77280185D01*
X139162730Y-77279343D01*
X139175613Y-77273438D01*
X139189544Y-77270798D01*
X139208569Y-77258333D01*
X139229235Y-77248861D01*
X139238878Y-77238474D01*
X139250739Y-77230704D01*
X139263543Y-77211910D01*
X139279014Y-77195249D01*
X139283949Y-77181960D01*
X139291932Y-77170245D01*
X139302920Y-77135169D01*
X139619353Y-75598625D01*
X139605731Y-75526746D01*
X139565637Y-75465550D01*
X139505178Y-75424357D01*
X139433557Y-75409436D01*
X139361678Y-75423059D01*
X139300483Y-75463152D01*
X139259290Y-75523612D01*
X139248302Y-75558687D01*
X139053286Y-76505649D01*
X138583794Y-75487054D01*
X138530183Y-75437275D01*
X138461600Y-75411801D01*
X138388492Y-75414513D01*
X138321987Y-75444995D01*
X138272208Y-75498606D01*
X138246734Y-75567189D01*
X138107309Y-75567189D01*
X138064277Y-75530822D01*
X138052190Y-75517539D01*
X138039832Y-75510164D01*
X138035625Y-75506609D01*
X138031441Y-75505157D01*
X138020627Y-75498704D01*
X137893935Y-75441789D01*
X137893173Y-75441027D01*
X137881177Y-75436058D01*
X137834210Y-75414959D01*
X137829727Y-75414747D01*
X137825583Y-75413031D01*
X137789004Y-75409428D01*
X137457357Y-75412462D01*
X137450408Y-75410348D01*
X137425772Y-75412751D01*
X137395282Y-75413031D01*
X137386766Y-75416558D01*
X137377596Y-75417453D01*
X137343625Y-75431487D01*
X137200316Y-75511476D01*
X137183625Y-75519731D01*
X137180834Y-75522350D01*
X137179117Y-75523309D01*
X137176761Y-75526173D01*
X137156826Y-75544887D01*
X137086682Y-75629625D01*
X137076089Y-75640963D01*
X137074321Y-75644557D01*
X137072949Y-75646216D01*
X137071720Y-75649848D01*
X137059872Y-75673948D01*
X137017116Y-75794919D01*
X137014243Y-75798614D01*
X137008749Y-75818593D01*
X136996829Y-75852321D01*
X136997119Y-75860889D01*
X136994847Y-75869155D01*
X136000691Y-75869155D01*
X136000535Y-75868605D01*
X135994568Y-75859326D01*
X135992991Y-75855250D01*
X135989645Y-75851669D01*
X135980656Y-75837689D01*
X135819427Y-75638827D01*
X135813518Y-75626640D01*
X135788572Y-75599646D01*
X135785677Y-75597199D01*
X135785483Y-75596960D01*
X135785220Y-75596813D01*
X135707134Y-75530822D01*
X135695047Y-75517539D01*
X135682689Y-75510164D01*
X135678482Y-75506609D01*
X135674298Y-75505157D01*
X135663484Y-75498704D01*
X135536792Y-75441789D01*
X135536030Y-75441027D01*
X135524034Y-75436058D01*
X135477067Y-75414959D01*
X135472584Y-75414747D01*
X135468440Y-75413031D01*
X135431861Y-75409428D01*
X135109568Y-75413031D01*
X135041978Y-75441027D01*
X134990246Y-75492759D01*
X134962250Y-75560349D01*
X134962250Y-75633507D01*
X134990246Y-75701097D01*
X135041978Y-75752829D01*
X135109568Y-75780825D01*
X135146147Y-75784428D01*
X135385788Y-75781748D01*
X135474682Y-75821683D01*
X135520276Y-75860214D01*
X135618340Y-75981167D01*
X135385533Y-75983770D01*
X135378983Y-75981777D01*
X135355058Y-75984111D01*
X135323854Y-75984460D01*
X135315340Y-75987986D01*
X135306170Y-75988881D01*
X135272199Y-76002915D01*
X135128882Y-76082906D01*
X135112194Y-76091160D01*
X135109404Y-76093778D01*
X135107689Y-76094736D01*
X135105336Y-76097597D01*
X135085395Y-76116316D01*
X135015251Y-76201057D01*
X135004659Y-76212394D01*
X135002891Y-76215989D01*
X135001520Y-76217646D01*
X135000292Y-76221275D01*
X134988442Y-76245379D01*
X134945687Y-76366350D01*
X134942815Y-76370044D01*
X134937322Y-76390020D01*
X134925401Y-76423751D01*
X134925691Y-76432318D01*
X134923419Y-76440584D01*
X134735919Y-76440584D01*
X134735919Y-75221928D01*
X139806853Y-75221928D01*
X139806853Y-77471928D01*
G37*
D10*
G36*
X114988857Y-84618898D02*
G01*
X114830499Y-84619475D01*
X114826750Y-84618645D01*
X114821864Y-84619507D01*
X114702200Y-84619943D01*
X114633434Y-84586576D01*
X114602106Y-84556331D01*
X114566648Y-84487474D01*
X114565663Y-84379842D01*
X114598844Y-84311460D01*
X114629088Y-84280133D01*
X114697776Y-84244762D01*
X114988324Y-84243704D01*
X114988857Y-84618898D01*
G37*
G36*
X115249331Y-85355930D02*
G01*
X110688074Y-85355930D01*
X110688074Y-84155187D01*
X110799185Y-84155187D01*
X110799185Y-84184451D01*
X110810384Y-84211487D01*
X110831076Y-84232179D01*
X110858112Y-84243378D01*
X110872744Y-84244819D01*
X111083563Y-84244300D01*
X111084899Y-85184451D01*
X111096098Y-85211487D01*
X111116790Y-85232179D01*
X111143826Y-85243378D01*
X111173090Y-85243378D01*
X111200126Y-85232179D01*
X111220818Y-85211487D01*
X111232017Y-85184451D01*
X111233458Y-85169819D01*
X111232143Y-84243935D01*
X111458804Y-84243378D01*
X111485840Y-84232179D01*
X111506532Y-84211487D01*
X111517731Y-84184451D01*
X111517731Y-84155187D01*
X111656328Y-84155187D01*
X111656328Y-84184451D01*
X111667527Y-84211487D01*
X111688219Y-84232179D01*
X111715255Y-84243378D01*
X111729887Y-84244819D01*
X112131181Y-84243640D01*
X112131647Y-84571317D01*
X111858112Y-84572450D01*
X111831076Y-84583649D01*
X111810384Y-84604341D01*
X111799185Y-84631377D01*
X111799185Y-84660641D01*
X111810384Y-84687677D01*
X111831076Y-84708369D01*
X111858112Y-84719568D01*
X111872744Y-84721009D01*
X112131858Y-84719935D01*
X112132391Y-85095035D01*
X111715255Y-85096260D01*
X111688219Y-85107459D01*
X111667527Y-85128151D01*
X111656328Y-85155187D01*
X111656328Y-85184451D01*
X111667527Y-85211487D01*
X111688219Y-85232179D01*
X111715255Y-85243378D01*
X111729887Y-85244819D01*
X112220709Y-85243378D01*
X112247745Y-85232179D01*
X112268437Y-85211487D01*
X112279636Y-85184451D01*
X112281077Y-85169819D01*
X112280671Y-84884104D01*
X112559649Y-84884104D01*
X112560754Y-84968410D01*
X112560238Y-84969961D01*
X112560896Y-84979230D01*
X112561090Y-84993974D01*
X112562121Y-84996463D01*
X112562312Y-84999151D01*
X112567567Y-85012883D01*
X112616257Y-85107435D01*
X112619907Y-85116247D01*
X112622290Y-85119151D01*
X112623018Y-85120564D01*
X112624516Y-85121863D01*
X112629234Y-85127612D01*
X112678269Y-85174953D01*
X112683903Y-85181450D01*
X112687048Y-85183429D01*
X112688219Y-85184560D01*
X112690046Y-85185317D01*
X112696346Y-85189282D01*
X112782235Y-85230957D01*
X112783457Y-85232179D01*
X112792316Y-85235848D01*
X112805315Y-85242156D01*
X112808004Y-85242347D01*
X112810493Y-85243378D01*
X112825125Y-85244819D01*
X113061894Y-85243468D01*
X113072600Y-85244230D01*
X113076308Y-85243386D01*
X113077852Y-85243378D01*
X113079683Y-85242619D01*
X113086937Y-85240970D01*
X113243219Y-85187357D01*
X113265326Y-85168183D01*
X113278413Y-85142010D01*
X113280488Y-85112820D01*
X113271234Y-85085058D01*
X113252060Y-85062950D01*
X113225886Y-85049864D01*
X113196696Y-85047789D01*
X113182359Y-85051049D01*
X113054626Y-85094867D01*
X112844912Y-85096063D01*
X112776291Y-85062767D01*
X112744964Y-85032521D01*
X112709441Y-84963540D01*
X112708652Y-84903379D01*
X112741701Y-84835269D01*
X112771945Y-84803942D01*
X112846426Y-84765588D01*
X113028013Y-84718871D01*
X113035410Y-84718346D01*
X113046392Y-84714143D01*
X113047637Y-84713823D01*
X113048072Y-84713500D01*
X113049142Y-84713091D01*
X113143698Y-84664398D01*
X113152507Y-84660750D01*
X113155409Y-84658367D01*
X113156823Y-84657640D01*
X113158122Y-84656141D01*
X113163872Y-84651423D01*
X113211213Y-84602387D01*
X113217708Y-84596755D01*
X113219687Y-84593609D01*
X113220818Y-84592439D01*
X113221575Y-84590611D01*
X113225540Y-84584312D01*
X113267215Y-84498422D01*
X113268437Y-84497201D01*
X113272106Y-84488341D01*
X113278414Y-84475343D01*
X113278605Y-84472653D01*
X113279636Y-84470165D01*
X113281077Y-84455533D01*
X113279971Y-84371225D01*
X113280488Y-84369675D01*
X113279829Y-84360404D01*
X113279636Y-84345663D01*
X113278605Y-84343174D01*
X113278414Y-84340485D01*
X113273159Y-84326754D01*
X113224467Y-84232199D01*
X113220818Y-84223389D01*
X113218435Y-84220486D01*
X113217708Y-84219073D01*
X113216209Y-84217773D01*
X113211491Y-84212024D01*
X113162455Y-84164682D01*
X113156823Y-84158188D01*
X113153677Y-84156208D01*
X113152620Y-84155187D01*
X113513471Y-84155187D01*
X113513471Y-84184451D01*
X113524670Y-84211487D01*
X113545362Y-84232179D01*
X113572398Y-84243378D01*
X113587030Y-84244819D01*
X113988324Y-84243640D01*
X113988790Y-84571317D01*
X113715255Y-84572450D01*
X113688219Y-84583649D01*
X113667527Y-84604341D01*
X113656328Y-84631377D01*
X113656328Y-84660641D01*
X113667527Y-84687677D01*
X113688219Y-84708369D01*
X113715255Y-84719568D01*
X113729887Y-84721009D01*
X113989001Y-84719935D01*
X113989534Y-85095035D01*
X113572398Y-85096260D01*
X113545362Y-85107459D01*
X113524670Y-85128151D01*
X113513471Y-85155187D01*
X113513471Y-85184451D01*
X113524670Y-85211487D01*
X113545362Y-85232179D01*
X113572398Y-85243378D01*
X113587030Y-85244819D01*
X114077852Y-85243378D01*
X114104888Y-85232179D01*
X114125580Y-85211487D01*
X114136779Y-85184451D01*
X114138220Y-85169819D01*
X114137070Y-84360295D01*
X114416792Y-84360295D01*
X114417996Y-84491924D01*
X114417381Y-84493771D01*
X114418106Y-84503985D01*
X114418233Y-84517784D01*
X114419264Y-84520273D01*
X114419455Y-84522961D01*
X114424710Y-84536693D01*
X114473402Y-84631249D01*
X114477051Y-84640058D01*
X114479433Y-84642960D01*
X114480161Y-84644374D01*
X114481659Y-84645673D01*
X114486378Y-84651423D01*
X114535413Y-84698764D01*
X114541046Y-84705259D01*
X114544191Y-84707238D01*
X114545362Y-84708369D01*
X114547189Y-84709126D01*
X114553489Y-84713091D01*
X114639378Y-84754766D01*
X114640600Y-84755988D01*
X114649459Y-84759657D01*
X114662458Y-84765965D01*
X114665147Y-84766156D01*
X114667636Y-84767187D01*
X114681549Y-84768557D01*
X114423139Y-85139623D01*
X114416810Y-85168194D01*
X114421895Y-85197011D01*
X114437622Y-85221690D01*
X114461596Y-85238472D01*
X114490167Y-85244801D01*
X114518984Y-85239716D01*
X114543663Y-85223989D01*
X114553234Y-85212829D01*
X114863034Y-84767969D01*
X114989068Y-84767510D01*
X114989661Y-85184451D01*
X115000860Y-85211487D01*
X115021552Y-85232179D01*
X115048588Y-85243378D01*
X115077852Y-85243378D01*
X115104888Y-85232179D01*
X115125580Y-85211487D01*
X115136779Y-85184451D01*
X115138220Y-85169819D01*
X115136779Y-84155187D01*
X115125580Y-84128151D01*
X115104888Y-84107459D01*
X115077852Y-84096260D01*
X115063220Y-84094819D01*
X114693916Y-84096164D01*
X114691648Y-84095408D01*
X114680306Y-84096213D01*
X114667636Y-84096260D01*
X114665147Y-84097290D01*
X114662458Y-84097482D01*
X114648727Y-84102737D01*
X114554172Y-84151428D01*
X114545362Y-84155078D01*
X114542459Y-84157460D01*
X114541046Y-84158188D01*
X114539746Y-84159686D01*
X114533997Y-84164405D01*
X114486655Y-84213440D01*
X114480161Y-84219073D01*
X114478181Y-84222218D01*
X114477051Y-84223389D01*
X114476293Y-84225216D01*
X114472329Y-84231516D01*
X114430654Y-84317404D01*
X114429432Y-84318627D01*
X114425759Y-84327492D01*
X114419455Y-84340486D01*
X114419264Y-84343173D01*
X114418233Y-84345663D01*
X114416792Y-84360295D01*
X114137070Y-84360295D01*
X114136779Y-84155187D01*
X114125580Y-84128151D01*
X114104888Y-84107459D01*
X114077852Y-84096260D01*
X114063220Y-84094819D01*
X113572398Y-84096260D01*
X113545362Y-84107459D01*
X113524670Y-84128151D01*
X113513471Y-84155187D01*
X113152620Y-84155187D01*
X113152507Y-84155078D01*
X113150679Y-84154320D01*
X113144380Y-84150356D01*
X113058491Y-84108681D01*
X113057269Y-84107459D01*
X113048403Y-84103786D01*
X113035410Y-84097482D01*
X113032722Y-84097291D01*
X113030233Y-84096260D01*
X113015601Y-84094819D01*
X112778830Y-84096169D01*
X112768125Y-84095408D01*
X112764416Y-84096251D01*
X112762874Y-84096260D01*
X112761043Y-84097018D01*
X112753788Y-84098668D01*
X112597506Y-84152281D01*
X112575399Y-84171455D01*
X112562313Y-84197628D01*
X112560238Y-84226818D01*
X112569492Y-84254581D01*
X112588666Y-84276688D01*
X112614839Y-84289774D01*
X112644029Y-84291849D01*
X112658366Y-84288589D01*
X112786098Y-84244770D01*
X112995813Y-84243574D01*
X113064435Y-84276871D01*
X113095762Y-84307115D01*
X113131284Y-84376096D01*
X113132073Y-84436257D01*
X113099025Y-84504366D01*
X113068780Y-84535694D01*
X112994299Y-84574048D01*
X112812712Y-84620765D01*
X112805315Y-84621291D01*
X112794332Y-84625494D01*
X112793089Y-84625814D01*
X112792653Y-84626136D01*
X112791584Y-84626546D01*
X112697029Y-84675237D01*
X112688219Y-84678887D01*
X112685316Y-84681269D01*
X112683903Y-84681997D01*
X112682603Y-84683495D01*
X112676854Y-84688214D01*
X112629512Y-84737249D01*
X112623018Y-84742882D01*
X112621038Y-84746027D01*
X112619908Y-84747198D01*
X112619150Y-84749025D01*
X112615186Y-84755325D01*
X112573511Y-84841213D01*
X112572289Y-84842436D01*
X112568616Y-84851301D01*
X112562312Y-84864295D01*
X112562121Y-84866982D01*
X112561090Y-84869472D01*
X112559649Y-84884104D01*
X112280671Y-84884104D01*
X112279636Y-84155187D01*
X112268437Y-84128151D01*
X112247745Y-84107459D01*
X112220709Y-84096260D01*
X112206077Y-84094819D01*
X111715255Y-84096260D01*
X111688219Y-84107459D01*
X111667527Y-84128151D01*
X111656328Y-84155187D01*
X111517731Y-84155187D01*
X111506532Y-84128151D01*
X111485840Y-84107459D01*
X111458804Y-84096260D01*
X111444172Y-84094819D01*
X110858112Y-84096260D01*
X110831076Y-84107459D01*
X110810384Y-84128151D01*
X110799185Y-84155187D01*
X110688074Y-84155187D01*
X110688074Y-83983708D01*
X115249331Y-83983708D01*
X115249331Y-85355930D01*
G37*
D12*
X125986591Y-80933609D02*
X125700877Y-80933609D01*
X125843734Y-81433609D02*
X125843734Y-80933609D01*
X125581830Y-80933609D02*
X125248497Y-81433609D01*
X125248497Y-80933609D02*
X125581830Y-81433609D01*
D10*
X103658458Y-75669819D02*
X103039411Y-75669819D01*
X103039411Y-75669819D02*
X103372744Y-76050771D01*
X103372744Y-76050771D02*
X103229887Y-76050771D01*
X103229887Y-76050771D02*
X103134649Y-76098390D01*
X103134649Y-76098390D02*
X103087030Y-76146009D01*
X103087030Y-76146009D02*
X103039411Y-76241247D01*
X103039411Y-76241247D02*
X103039411Y-76479342D01*
X103039411Y-76479342D02*
X103087030Y-76574580D01*
X103087030Y-76574580D02*
X103134649Y-76622200D01*
X103134649Y-76622200D02*
X103229887Y-76669819D01*
X103229887Y-76669819D02*
X103515601Y-76669819D01*
X103515601Y-76669819D02*
X103610839Y-76622200D01*
X103610839Y-76622200D02*
X103658458Y-76574580D01*
X102753696Y-75669819D02*
X102420363Y-76669819D01*
X102420363Y-76669819D02*
X102087030Y-75669819D01*
X101848934Y-75669819D02*
X101229887Y-75669819D01*
X101229887Y-75669819D02*
X101563220Y-76050771D01*
X101563220Y-76050771D02*
X101420363Y-76050771D01*
X101420363Y-76050771D02*
X101325125Y-76098390D01*
X101325125Y-76098390D02*
X101277506Y-76146009D01*
X101277506Y-76146009D02*
X101229887Y-76241247D01*
X101229887Y-76241247D02*
X101229887Y-76479342D01*
X101229887Y-76479342D02*
X101277506Y-76574580D01*
X101277506Y-76574580D02*
X101325125Y-76622200D01*
X101325125Y-76622200D02*
X101420363Y-76669819D01*
X101420363Y-76669819D02*
X101706077Y-76669819D01*
X101706077Y-76669819D02*
X101801315Y-76622200D01*
X101801315Y-76622200D02*
X101848934Y-76574580D01*
D14*
X114521051Y-107375046D02*
X113795337Y-107375046D01*
X114666194Y-107810475D02*
X114158194Y-106286475D01*
X114158194Y-106286475D02*
X113650194Y-107810475D01*
X113142193Y-107810475D02*
X113142193Y-106286475D01*
X113142193Y-106286475D02*
X112271336Y-107810475D01*
X112271336Y-107810475D02*
X112271336Y-106286475D01*
X111763337Y-106286475D02*
X110892480Y-106286475D01*
X111327908Y-107810475D02*
X111327908Y-106286475D01*
X110384479Y-107012189D02*
X109876479Y-107012189D01*
X109658765Y-107810475D02*
X110384479Y-107810475D01*
X110384479Y-107810475D02*
X110384479Y-106286475D01*
X110384479Y-106286475D02*
X109658765Y-106286475D01*
X109005622Y-107810475D02*
X109005622Y-106286475D01*
X109005622Y-106286475D02*
X108134765Y-107810475D01*
X108134765Y-107810475D02*
X108134765Y-106286475D01*
X107409051Y-107810475D02*
X107409051Y-106286475D01*
X107409051Y-106286475D02*
X106538194Y-107810475D01*
X106538194Y-107810475D02*
X106538194Y-106286475D01*
X105885052Y-107375046D02*
X105159338Y-107375046D01*
X106030195Y-107810475D02*
X105522195Y-106286475D01*
X105522195Y-106286475D02*
X105014195Y-107810475D01*
D15*
%TO.C,P1*%
X125930000Y-80000000D02*
X126183000Y-80000000D01*
X124930000Y-80000000D02*
X125170000Y-80000000D01*
X123418000Y-80000000D02*
X124170000Y-80000000D01*
X121000000Y-78000000D02*
X121000000Y-80000000D01*
X128600000Y-80000000D02*
X128600000Y-78000000D01*
X125430000Y-78000000D02*
X126183000Y-78000000D01*
X124430000Y-78000000D02*
X124670000Y-78000000D01*
X123418000Y-78000000D02*
X123670000Y-78000000D01*
D16*
%TO.C,C8*%
X88390000Y-87221267D02*
X88390000Y-86928733D01*
X89410000Y-87221267D02*
X89410000Y-86928733D01*
%TO.C,C7*%
X86880000Y-87221267D02*
X86880000Y-86928733D01*
X87900000Y-87221267D02*
X87900000Y-86928733D01*
%TO.C,C4*%
X85390000Y-87246267D02*
X85390000Y-86953733D01*
X86410000Y-87246267D02*
X86410000Y-86953733D01*
%TO.C,R22*%
X83742224Y-85077500D02*
X83232776Y-85077500D01*
X83742224Y-86122500D02*
X83232776Y-86122500D01*
D17*
%TO.C,LED8*%
X152475000Y-98745000D02*
X152475000Y-99042000D01*
X152475000Y-102448000D02*
X152475000Y-102745000D01*
X152475000Y-102745000D02*
X154175000Y-102745000D01*
X154175000Y-98745000D02*
X152475000Y-98745000D01*
X154175000Y-102745000D02*
X154175000Y-98745000D01*
D16*
X154185000Y-102765000D02*
X153435000Y-102765000D01*
X154185000Y-102015000D01*
X154185000Y-102765000D01*
G36*
X154185000Y-102765000D02*
G01*
X153435000Y-102765000D01*
X154185000Y-102015000D01*
X154185000Y-102765000D01*
G37*
X154185000Y-102765000D02*
X153435000Y-102765000D01*
X154185000Y-102015000D01*
X154185000Y-102765000D01*
G36*
X154185000Y-102765000D02*
G01*
X153435000Y-102765000D01*
X154185000Y-102015000D01*
X154185000Y-102765000D01*
G37*
%TO.C,D1*%
X78100000Y-88650000D02*
X78100000Y-84640000D01*
X80100000Y-84640000D02*
X78100000Y-84640000D01*
X80100000Y-88650000D02*
X80100000Y-84640000D01*
%TO.C,R17*%
X84277500Y-104645276D02*
X84277500Y-105154724D01*
X85322500Y-104645276D02*
X85322500Y-105154724D01*
%TO.C,C31*%
X100298733Y-71615000D02*
X100591267Y-71615000D01*
X100298733Y-72635000D02*
X100591267Y-72635000D01*
%TO.C,TP9*%
X102400000Y-81200000D02*
G75*
G02*
X101000000Y-81200000I-700000J0D01*
G01*
X101000000Y-81200000D02*
G75*
G02*
X102400000Y-81200000I700000J0D01*
G01*
%TO.C,R16*%
X95277500Y-77532776D02*
X95277500Y-78042224D01*
X96322500Y-77532776D02*
X96322500Y-78042224D01*
D17*
%TO.C,LED12*%
X140745000Y-108475000D02*
X140745000Y-110175000D01*
X140745000Y-110175000D02*
X144745000Y-110175000D01*
X141042000Y-108475000D02*
X140745000Y-108475000D01*
X144745000Y-108475000D02*
X144448000Y-108475000D01*
X144745000Y-110175000D02*
X144745000Y-108475000D01*
D16*
X141475000Y-110185000D02*
X140725000Y-110185000D01*
X140725000Y-109435000D01*
X141475000Y-110185000D01*
G36*
X141475000Y-110185000D02*
G01*
X140725000Y-110185000D01*
X140725000Y-109435000D01*
X141475000Y-110185000D01*
G37*
X141475000Y-110185000D02*
X140725000Y-110185000D01*
X140725000Y-109435000D01*
X141475000Y-110185000D01*
G36*
X141475000Y-110185000D02*
G01*
X140725000Y-110185000D01*
X140725000Y-109435000D01*
X141475000Y-110185000D01*
G37*
%TO.C,C18*%
X85090000Y-81253733D02*
X85090000Y-81546267D01*
X86110000Y-81253733D02*
X86110000Y-81546267D01*
D17*
%TO.C,LED10*%
X139685000Y-68875000D02*
X139685000Y-70575000D01*
X139685000Y-70575000D02*
X139982000Y-70575000D01*
X143388000Y-70575000D02*
X143685000Y-70575000D01*
X143685000Y-68875000D02*
X139685000Y-68875000D01*
X143685000Y-70575000D02*
X143685000Y-68875000D01*
D16*
X143705000Y-69615000D02*
X142955000Y-68865000D01*
X143705000Y-68865000D01*
X143705000Y-69615000D01*
G36*
X143705000Y-69615000D02*
G01*
X142955000Y-68865000D01*
X143705000Y-68865000D01*
X143705000Y-69615000D01*
G37*
X143705000Y-69615000D02*
X142955000Y-68865000D01*
X143705000Y-68865000D01*
X143705000Y-69615000D01*
G36*
X143705000Y-69615000D02*
G01*
X142955000Y-68865000D01*
X143705000Y-68865000D01*
X143705000Y-69615000D01*
G37*
%TO.C,R6*%
X91745276Y-104777500D02*
X92254724Y-104777500D01*
X91745276Y-105822500D02*
X92254724Y-105822500D01*
%TO.C,C30*%
X122318733Y-71515000D02*
X122611267Y-71515000D01*
X122318733Y-72535000D02*
X122611267Y-72535000D01*
D17*
%TO.C,LED1*%
X120105000Y-68775000D02*
X120105000Y-70475000D01*
X120105000Y-70475000D02*
X120402000Y-70475000D01*
X123808000Y-70475000D02*
X124105000Y-70475000D01*
X124105000Y-68775000D02*
X120105000Y-68775000D01*
X124105000Y-70475000D02*
X124105000Y-68775000D01*
D16*
X124125000Y-69515000D02*
X123375000Y-68765000D01*
X124125000Y-68765000D01*
X124125000Y-69515000D01*
G36*
X124125000Y-69515000D02*
G01*
X123375000Y-68765000D01*
X124125000Y-68765000D01*
X124125000Y-69515000D01*
G37*
X124125000Y-69515000D02*
X123375000Y-68765000D01*
X124125000Y-68765000D01*
X124125000Y-69515000D01*
G36*
X124125000Y-69515000D02*
G01*
X123375000Y-68765000D01*
X124125000Y-68765000D01*
X124125000Y-69515000D01*
G37*
%TO.C,D6*%
X93515000Y-76980000D02*
X93515000Y-79440000D01*
X93515000Y-79440000D02*
X94985000Y-79440000D01*
X94985000Y-79440000D02*
X94985000Y-76980000D01*
%TO.C,R3*%
X145202500Y-79279724D02*
X145202500Y-78770276D01*
X146247500Y-79279724D02*
X146247500Y-78770276D01*
D15*
%TO.C,SW3*%
X110924000Y-81417000D02*
X110924000Y-80724000D01*
X110924000Y-83183000D02*
X110924000Y-83876000D01*
X115076000Y-80724000D02*
X110924000Y-80724000D01*
X115076000Y-81417000D02*
X115076000Y-80724000D01*
X115076000Y-83183000D02*
X115076000Y-83876000D01*
X115076000Y-83876000D02*
X110924000Y-83876000D01*
D18*
X113813000Y-82300000D02*
G75*
G02*
X112187000Y-82300000I-813000J0D01*
G01*
X112187000Y-82300000D02*
G75*
G02*
X113813000Y-82300000I813000J0D01*
G01*
D16*
%TO.C,R10*%
X127077500Y-88242224D02*
X127077500Y-87732776D01*
X128122500Y-88242224D02*
X128122500Y-87732776D01*
%TO.C,J3*%
X108520000Y-74174000D02*
X108139000Y-74428000D01*
X108139000Y-73920000D01*
X108520000Y-74174000D01*
G36*
X108520000Y-74174000D02*
G01*
X108139000Y-74428000D01*
X108139000Y-73920000D01*
X108520000Y-74174000D01*
G37*
D18*
X115700000Y-73412000D02*
X114631000Y-73412000D01*
X115700000Y-71031000D02*
X115700000Y-73412000D01*
X114569000Y-68950000D02*
X108631000Y-68950000D01*
X107500000Y-73412000D02*
X108569000Y-73412000D01*
X107500000Y-71031000D02*
X107500000Y-73412000D01*
D17*
%TO.C,LED6*%
X80108250Y-108215000D02*
X80108250Y-109915000D01*
X80108250Y-109915000D02*
X84108250Y-109915000D01*
X80405250Y-108215000D02*
X80108250Y-108215000D01*
X84108250Y-108215000D02*
X83811250Y-108215000D01*
X84108250Y-109915000D02*
X84108250Y-108215000D01*
D16*
X80838250Y-109925000D02*
X80088250Y-109925000D01*
X80088250Y-109175000D01*
X80838250Y-109925000D01*
G36*
X80838250Y-109925000D02*
G01*
X80088250Y-109925000D01*
X80088250Y-109175000D01*
X80838250Y-109925000D01*
G37*
X80838250Y-109925000D02*
X80088250Y-109925000D01*
X80088250Y-109175000D01*
X80838250Y-109925000D01*
G36*
X80838250Y-109925000D02*
G01*
X80088250Y-109925000D01*
X80088250Y-109175000D01*
X80838250Y-109925000D01*
G37*
D15*
%TO.C,U3*%
X81711000Y-80562000D02*
X81711000Y-82340000D01*
X84789000Y-80562000D02*
X84789000Y-82340000D01*
D11*
X85068000Y-82752000D02*
G75*
G02*
X84768000Y-82752000I-150000J0D01*
G01*
X84768000Y-82752000D02*
G75*
G02*
X85068000Y-82752000I150000J0D01*
G01*
D16*
%TO.C,C2*%
X84646267Y-76590000D02*
X84353733Y-76590000D01*
X84646267Y-77610000D02*
X84353733Y-77610000D01*
D17*
%TO.C,LED2*%
X98005000Y-68875000D02*
X98005000Y-70575000D01*
X98005000Y-70575000D02*
X98302000Y-70575000D01*
X101708000Y-70575000D02*
X102005000Y-70575000D01*
X102005000Y-68875000D02*
X98005000Y-68875000D01*
X102005000Y-70575000D02*
X102005000Y-68875000D01*
D16*
X102025000Y-69615000D02*
X101275000Y-68865000D01*
X102025000Y-68865000D01*
X102025000Y-69615000D01*
G36*
X102025000Y-69615000D02*
G01*
X101275000Y-68865000D01*
X102025000Y-68865000D01*
X102025000Y-69615000D01*
G37*
X102025000Y-69615000D02*
X101275000Y-68865000D01*
X102025000Y-68865000D01*
X102025000Y-69615000D01*
G36*
X102025000Y-69615000D02*
G01*
X101275000Y-68865000D01*
X102025000Y-68865000D01*
X102025000Y-69615000D01*
G37*
%TO.C,R5*%
X73477500Y-105157776D02*
X73477500Y-105667224D01*
X74522500Y-105157776D02*
X74522500Y-105667224D01*
D15*
%TO.C,U2*%
X135979000Y-90089000D02*
X139021000Y-90089000D01*
X135979000Y-95241000D02*
X135979000Y-90089000D01*
X139021000Y-90089000D02*
X139021000Y-95241000D01*
X139021000Y-95241000D02*
X135979000Y-95241000D01*
D11*
X134968000Y-95337000D02*
G75*
G02*
X134668000Y-95337000I-150000J0D01*
G01*
X134668000Y-95337000D02*
G75*
G02*
X134968000Y-95337000I150000J0D01*
G01*
X136634000Y-94824000D02*
G75*
G02*
X136334000Y-94824000I-150000J0D01*
G01*
X136334000Y-94824000D02*
G75*
G02*
X136634000Y-94824000I150000J0D01*
G01*
D16*
%TO.C,FB1*%
X89138748Y-77065000D02*
X89661252Y-77065000D01*
X89138748Y-78535000D02*
X89661252Y-78535000D01*
%TO.C,C33*%
X67415000Y-79031267D02*
X67415000Y-78738733D01*
X68435000Y-79031267D02*
X68435000Y-78738733D01*
%TO.C,L1*%
X86490000Y-85060000D02*
X86490000Y-79940000D01*
X87290000Y-79940000D02*
X86490000Y-79940000D01*
X87290000Y-85060000D02*
X86490000Y-85060000D01*
X90310000Y-79940000D02*
X91110000Y-79940000D01*
X90310000Y-85060000D02*
X91110000Y-85060000D01*
X91110000Y-85060000D02*
X91110000Y-79940000D01*
%TO.C,R8*%
X72477500Y-80967224D02*
X72477500Y-80457776D01*
X73522500Y-80967224D02*
X73522500Y-80457776D01*
%TO.C,R18*%
X131754724Y-90002500D02*
X131245276Y-90002500D01*
X131754724Y-91047500D02*
X131245276Y-91047500D01*
%TO.C,R7*%
X87879724Y-105152500D02*
X87370276Y-105152500D01*
X87879724Y-106197500D02*
X87370276Y-106197500D01*
%TO.C,R14*%
X125327500Y-91270276D02*
X125327500Y-91779724D01*
X126372500Y-91270276D02*
X126372500Y-91779724D01*
%TO.C,C36*%
X99351267Y-105935000D02*
X99058733Y-105935000D01*
X99351267Y-106955000D02*
X99058733Y-106955000D01*
%TO.C,D7*%
X78000000Y-80350000D02*
X78000000Y-84360000D01*
X78000000Y-84360000D02*
X80000000Y-84360000D01*
X80000000Y-80350000D02*
X80000000Y-84360000D01*
%TO.C,C34*%
X67415000Y-99891267D02*
X67415000Y-99598733D01*
X68435000Y-99891267D02*
X68435000Y-99598733D01*
%TO.C,C11*%
X122262017Y-106155000D02*
X121969483Y-106155000D01*
X122262017Y-107175000D02*
X121969483Y-107175000D01*
D18*
%TO.C,J1*%
X155800000Y-93950000D02*
X155800000Y-85010000D01*
X154267000Y-93950000D02*
X155800000Y-93950000D01*
X154267000Y-85010000D02*
X155800000Y-85010000D01*
X150467000Y-93950000D02*
X152133000Y-93950000D01*
X150467000Y-85010000D02*
X152133000Y-85010000D01*
X149000000Y-92911000D02*
X149000000Y-92983000D01*
X149000000Y-85977000D02*
X149000000Y-86049000D01*
D16*
%TO.C,J2*%
X76950000Y-86300000D02*
G75*
G02*
X72450000Y-86300000I-2250000J0D01*
G01*
X72450000Y-86300000D02*
G75*
G02*
X76950000Y-86300000I2250000J0D01*
G01*
%TO.C,R1*%
X143702500Y-91692224D02*
X143702500Y-91182776D01*
X144747500Y-91692224D02*
X144747500Y-91182776D01*
D17*
%TO.C,LED4*%
X64675000Y-77285000D02*
X64675000Y-81285000D01*
X64675000Y-81285000D02*
X66375000Y-81285000D01*
X66375000Y-77285000D02*
X64675000Y-77285000D01*
X66375000Y-77582000D02*
X66375000Y-77285000D01*
X66375000Y-81285000D02*
X66375000Y-80988000D01*
D16*
X64665000Y-78015000D02*
X64665000Y-77265000D01*
X65415000Y-77265000D01*
X64665000Y-78015000D01*
G36*
X64665000Y-78015000D02*
G01*
X64665000Y-77265000D01*
X65415000Y-77265000D01*
X64665000Y-78015000D01*
G37*
X64665000Y-78015000D02*
X64665000Y-77265000D01*
X65415000Y-77265000D01*
X64665000Y-78015000D01*
G36*
X64665000Y-78015000D02*
G01*
X64665000Y-77265000D01*
X65415000Y-77265000D01*
X64665000Y-78015000D01*
G37*
D19*
%TO.C,U1*%
X102235500Y-90100000D02*
X102235500Y-90346000D01*
X102235500Y-91654000D02*
X102235500Y-91846000D01*
X102235500Y-93154000D02*
X102235500Y-93346000D01*
X102235500Y-94654000D02*
X102235500Y-94846000D01*
X102235500Y-96154000D02*
X102235500Y-96346000D01*
X102235500Y-97654000D02*
X102235500Y-97846000D01*
X102235500Y-99154000D02*
X102235500Y-99346000D01*
X102235500Y-100654000D02*
X102235500Y-100846000D01*
X102235500Y-102154000D02*
X102235500Y-102346000D01*
X102235500Y-103654000D02*
X102235500Y-110100000D01*
X102235500Y-110100000D02*
X120235500Y-110100000D01*
X120235500Y-90100000D02*
X102235500Y-90100000D01*
X120235500Y-90346000D02*
X120235500Y-90100000D01*
X120235500Y-91846000D02*
X120235500Y-91654000D01*
X120235500Y-93346000D02*
X120235500Y-93154000D01*
X120235500Y-94846000D02*
X120235500Y-94654000D01*
X120235500Y-96346000D02*
X120235500Y-96154000D01*
X120235500Y-97846000D02*
X120235500Y-97654000D01*
X120235500Y-99346000D02*
X120235500Y-99154000D01*
X120235500Y-100846000D02*
X120235500Y-100654000D01*
X120235500Y-102346000D02*
X120235500Y-102154000D01*
X120235500Y-104100000D02*
X102235500Y-104100000D01*
X120235500Y-110100000D02*
X120235500Y-103654000D01*
D20*
X101706500Y-104366000D02*
G75*
G02*
X101206500Y-104366000I-250000J0D01*
G01*
X101206500Y-104366000D02*
G75*
G02*
X101706500Y-104366000I250000J0D01*
G01*
D17*
%TO.C,LED3*%
X80065000Y-68875000D02*
X80065000Y-70575000D01*
X80065000Y-70575000D02*
X80362000Y-70575000D01*
X83768000Y-70575000D02*
X84065000Y-70575000D01*
X84065000Y-68875000D02*
X80065000Y-68875000D01*
X84065000Y-70575000D02*
X84065000Y-68875000D01*
D16*
X84085000Y-69615000D02*
X83335000Y-68865000D01*
X84085000Y-68865000D01*
X84085000Y-69615000D01*
G36*
X84085000Y-69615000D02*
G01*
X83335000Y-68865000D01*
X84085000Y-68865000D01*
X84085000Y-69615000D01*
G37*
X84085000Y-69615000D02*
X83335000Y-68865000D01*
X84085000Y-68865000D01*
X84085000Y-69615000D01*
G36*
X84085000Y-69615000D02*
G01*
X83335000Y-68865000D01*
X84085000Y-68865000D01*
X84085000Y-69615000D01*
G37*
%TO.C,TP11*%
X133000000Y-87000000D02*
G75*
G02*
X131600000Y-87000000I-700000J0D01*
G01*
X131600000Y-87000000D02*
G75*
G02*
X133000000Y-87000000I700000J0D01*
G01*
D18*
%TO.C,U5*%
X85444000Y-93650000D02*
X85444000Y-98242000D01*
X87577000Y-91709000D02*
X91972000Y-91745000D01*
X87584000Y-100274000D02*
X91826000Y-100249000D01*
X91972000Y-91745000D02*
X92088000Y-91951000D01*
X92607000Y-98175000D02*
X92607000Y-97159000D01*
X93165000Y-97692000D02*
X92073000Y-97692000D01*
X93623000Y-93577000D02*
X93961000Y-93727000D01*
X93961000Y-93727000D02*
X93974000Y-98166000D01*
D16*
%TO.C,C35*%
X81908767Y-105915000D02*
X81616233Y-105915000D01*
X81908767Y-106935000D02*
X81616233Y-106935000D01*
%TO.C,C6*%
X151653733Y-82090000D02*
X151946267Y-82090000D01*
X151653733Y-83110000D02*
X151946267Y-83110000D01*
%TO.C,TP1*%
X119100000Y-77100000D02*
G75*
G02*
X117700000Y-77100000I-700000J0D01*
G01*
X117700000Y-77100000D02*
G75*
G02*
X119100000Y-77100000I700000J0D01*
G01*
%TO.C,C27*%
X141990000Y-94646267D02*
X141990000Y-94353733D01*
X143010000Y-94646267D02*
X143010000Y-94353733D01*
%TO.C,C15*%
X94803733Y-79852500D02*
X95096267Y-79852500D01*
X94803733Y-80872500D02*
X95096267Y-80872500D01*
%TO.C,R13*%
X71477500Y-72754724D02*
X71477500Y-72245276D01*
X72522500Y-72754724D02*
X72522500Y-72245276D01*
%TO.C,TP7*%
X91100000Y-72400000D02*
G75*
G02*
X89700000Y-72400000I-700000J0D01*
G01*
X89700000Y-72400000D02*
G75*
G02*
X91100000Y-72400000I700000J0D01*
G01*
%TO.C,J5*%
X77450000Y-96200000D02*
G75*
G02*
X72950000Y-96200000I-2250000J0D01*
G01*
X72950000Y-96200000D02*
G75*
G02*
X77450000Y-96200000I2250000J0D01*
G01*
%TO.C,C12*%
X97465000Y-101638748D02*
X97465000Y-102161252D01*
X98935000Y-101638748D02*
X98935000Y-102161252D01*
%TO.C,R19*%
X73645276Y-77777500D02*
X74154724Y-77777500D01*
X73645276Y-78822500D02*
X74154724Y-78822500D01*
%TO.C,C28*%
X145190000Y-86738748D02*
X145190000Y-87261252D01*
X146660000Y-86738748D02*
X146660000Y-87261252D01*
%TO.C,C32*%
X82498733Y-71415000D02*
X82791267Y-71415000D01*
X82498733Y-72435000D02*
X82791267Y-72435000D01*
%TO.C,C16*%
X99490000Y-98153733D02*
X99490000Y-98446267D01*
X100510000Y-98153733D02*
X100510000Y-98446267D01*
%TO.C,C13*%
X99490000Y-101853733D02*
X99490000Y-102146267D01*
X100510000Y-101853733D02*
X100510000Y-102146267D01*
%TO.C,TP2*%
X100700000Y-75900000D02*
G75*
G02*
X99300000Y-75900000I-700000J0D01*
G01*
X99300000Y-75900000D02*
G75*
G02*
X100700000Y-75900000I700000J0D01*
G01*
%TO.C,R15*%
X144254724Y-101477500D02*
X143745276Y-101477500D01*
X144254724Y-102522500D02*
X143745276Y-102522500D01*
%TO.C,C40*%
X131038748Y-91890000D02*
X131561252Y-91890000D01*
X131038748Y-93360000D02*
X131561252Y-93360000D01*
%TO.C,C29*%
X145486252Y-93790000D02*
X144963748Y-93790000D01*
X145486252Y-95260000D02*
X144963748Y-95260000D01*
D17*
%TO.C,LED9*%
X152375000Y-77665000D02*
X152375000Y-77962000D01*
X152375000Y-81368000D02*
X152375000Y-81665000D01*
X152375000Y-81665000D02*
X154075000Y-81665000D01*
X154075000Y-77665000D02*
X152375000Y-77665000D01*
X154075000Y-81665000D02*
X154075000Y-77665000D01*
D16*
X154085000Y-81685000D02*
X153335000Y-81685000D01*
X154085000Y-80935000D01*
X154085000Y-81685000D01*
G36*
X154085000Y-81685000D02*
G01*
X153335000Y-81685000D01*
X154085000Y-80935000D01*
X154085000Y-81685000D01*
G37*
X154085000Y-81685000D02*
X153335000Y-81685000D01*
X154085000Y-80935000D01*
X154085000Y-81685000D01*
G36*
X154085000Y-81685000D02*
G01*
X153335000Y-81685000D01*
X154085000Y-80935000D01*
X154085000Y-81685000D01*
G37*
%TO.C,C17*%
X142431267Y-106415000D02*
X142138733Y-106415000D01*
X142431267Y-107435000D02*
X142138733Y-107435000D01*
%TO.C,C1*%
X84646267Y-78110000D02*
X84353733Y-78110000D01*
X84646267Y-79130000D02*
X84353733Y-79130000D01*
%TO.C,C10*%
X137761252Y-96265000D02*
X137238748Y-96265000D01*
X137761252Y-97735000D02*
X137238748Y-97735000D01*
D18*
%TO.C,Q2*%
X74350000Y-79725000D02*
X77450000Y-79725000D01*
X77450000Y-82825000D02*
X74350000Y-82825000D01*
X74027000Y-82835000D02*
G75*
G02*
X73773000Y-82835000I-127000J0D01*
G01*
X73773000Y-82835000D02*
G75*
G02*
X74027000Y-82835000I127000J0D01*
G01*
D16*
%TO.C,R21*%
X78054724Y-75722500D02*
X77545276Y-75722500D01*
X78054724Y-74677500D02*
X77545276Y-74677500D01*
%TO.C,R12*%
X97977500Y-98045276D02*
X97977500Y-98554724D01*
X99022500Y-98045276D02*
X99022500Y-98554724D01*
D17*
%TO.C,LED7*%
X97610000Y-108350000D02*
X97610000Y-110050000D01*
X97610000Y-110050000D02*
X101610000Y-110050000D01*
X97907000Y-108350000D02*
X97610000Y-108350000D01*
X101610000Y-108350000D02*
X101313000Y-108350000D01*
X101610000Y-110050000D02*
X101610000Y-108350000D01*
D16*
X98340000Y-110060000D02*
X97590000Y-110060000D01*
X97590000Y-109310000D01*
X98340000Y-110060000D01*
G36*
X98340000Y-110060000D02*
G01*
X97590000Y-110060000D01*
X97590000Y-109310000D01*
X98340000Y-110060000D01*
G37*
X98340000Y-110060000D02*
X97590000Y-110060000D01*
X97590000Y-109310000D01*
X98340000Y-110060000D01*
G36*
X98340000Y-110060000D02*
G01*
X97590000Y-110060000D01*
X97590000Y-109310000D01*
X98340000Y-110060000D01*
G37*
%TO.C,R23*%
X81577500Y-77954724D02*
X81577500Y-77445276D01*
X82622500Y-77954724D02*
X82622500Y-77445276D01*
D17*
%TO.C,LED11*%
X120633250Y-108215000D02*
X120633250Y-109915000D01*
X120633250Y-109915000D02*
X124633250Y-109915000D01*
X120930250Y-108215000D02*
X120633250Y-108215000D01*
X124633250Y-108215000D02*
X124336250Y-108215000D01*
X124633250Y-109915000D02*
X124633250Y-108215000D01*
D16*
X121363250Y-109925000D02*
X120613250Y-109925000D01*
X120613250Y-109175000D01*
X121363250Y-109925000D01*
G36*
X121363250Y-109925000D02*
G01*
X120613250Y-109925000D01*
X120613250Y-109175000D01*
X121363250Y-109925000D01*
G37*
X121363250Y-109925000D02*
X120613250Y-109925000D01*
X120613250Y-109175000D01*
X121363250Y-109925000D01*
G36*
X121363250Y-109925000D02*
G01*
X120613250Y-109925000D01*
X120613250Y-109175000D01*
X121363250Y-109925000D01*
G37*
%TO.C,C14*%
X141978733Y-71815000D02*
X142271267Y-71815000D01*
X141978733Y-72835000D02*
X142271267Y-72835000D01*
%TO.C,D5*%
X90250000Y-101600000D02*
X94260000Y-101600000D01*
X90250000Y-103600000D02*
X94260000Y-103600000D01*
X94260000Y-103600000D02*
X94260000Y-101600000D01*
%TO.C,C3*%
X84646267Y-75090000D02*
X84353733Y-75090000D01*
X84646267Y-76110000D02*
X84353733Y-76110000D01*
%TO.C,R4*%
X99777500Y-92545276D02*
X99777500Y-93054724D01*
X100822500Y-92545276D02*
X100822500Y-93054724D01*
%TO.C,R2*%
X145602500Y-91170276D02*
X145602500Y-91679724D01*
X146647500Y-91170276D02*
X146647500Y-91679724D01*
%TO.C,C26*%
X132965000Y-97661252D02*
X132965000Y-97138748D01*
X134435000Y-97661252D02*
X134435000Y-97138748D01*
%TO.C,C5*%
X150475000Y-100944483D02*
X150475000Y-101237017D01*
X151495000Y-100944483D02*
X151495000Y-101237017D01*
%TO.C,R9*%
X127077500Y-91742224D02*
X127077500Y-91232776D01*
X128122500Y-91742224D02*
X128122500Y-91232776D01*
%TO.C,R11*%
X83742224Y-83577500D02*
X83232776Y-83577500D01*
X83742224Y-84622500D02*
X83232776Y-84622500D01*
D17*
%TO.C,LED5*%
X64675000Y-98385000D02*
X64675000Y-102385000D01*
X64675000Y-102385000D02*
X66375000Y-102385000D01*
X66375000Y-98385000D02*
X64675000Y-98385000D01*
X66375000Y-98682000D02*
X66375000Y-98385000D01*
X66375000Y-102385000D02*
X66375000Y-102088000D01*
D16*
X64665000Y-99115000D02*
X64665000Y-98365000D01*
X65415000Y-98365000D01*
X64665000Y-99115000D01*
G36*
X64665000Y-99115000D02*
G01*
X64665000Y-98365000D01*
X65415000Y-98365000D01*
X64665000Y-99115000D01*
G37*
X64665000Y-99115000D02*
X64665000Y-98365000D01*
X65415000Y-98365000D01*
X64665000Y-99115000D01*
G36*
X64665000Y-99115000D02*
G01*
X64665000Y-98365000D01*
X65415000Y-98365000D01*
X64665000Y-99115000D01*
G37*
D15*
%TO.C,Q5*%
X85864000Y-101824000D02*
X85864000Y-103576000D01*
X86905000Y-101824000D02*
X85864000Y-101824000D01*
X87855000Y-103576000D02*
X86945000Y-103576000D01*
X87895000Y-101824000D02*
X88936000Y-101824000D01*
X88936000Y-101824000D02*
X88936000Y-103576000D01*
D16*
%TO.C,U7*%
X93290000Y-82562500D02*
X93290000Y-83362500D01*
X93290000Y-84162500D02*
X93290000Y-83362500D01*
X96410000Y-82562500D02*
X96410000Y-83362500D01*
X96410000Y-84162500D02*
X96410000Y-83362500D01*
X96690000Y-84902500D02*
X96360000Y-84662500D01*
X96690000Y-84422500D01*
X96690000Y-84902500D01*
G36*
X96690000Y-84902500D02*
G01*
X96360000Y-84662500D01*
X96690000Y-84422500D01*
X96690000Y-84902500D01*
G37*
%TO.C,C37*%
X125390000Y-87841233D02*
X125390000Y-88133767D01*
X126410000Y-87841233D02*
X126410000Y-88133767D01*
%TO.C,C9*%
X91640000Y-83516233D02*
X91640000Y-83808767D01*
X92660000Y-83516233D02*
X92660000Y-83808767D01*
%TO.C,R20*%
X80922500Y-77545276D02*
X80922500Y-78054724D01*
X79877500Y-77545276D02*
X79877500Y-78054724D01*
%TO.C,L2*%
X138500000Y-85150000D02*
X144500000Y-85150000D01*
X138500000Y-89350000D02*
X144500000Y-89350000D01*
D15*
%TO.C,U4*%
X76774000Y-76174000D02*
X78226000Y-76174000D01*
X78226000Y-77245000D02*
X78226000Y-78155000D01*
X76774000Y-79226000D02*
X78226000Y-79226000D01*
X76774000Y-77205000D02*
X76774000Y-76174000D01*
X76774000Y-78195000D02*
X76774000Y-79226000D01*
%TD*%
M02*
