%TF.GenerationSoftware,KiCad,Pcbnew,8.0.1*%
%TF.CreationDate,2024-03-28T09:41:07+08:00*%
%TF.ProjectId,bat_rf,6261745f-7266-42e6-9b69-6361645f7063,rev?*%
%TF.SameCoordinates,Original*%
%TF.FileFunction,Copper,L2,Bot*%
%TF.FilePolarity,Positive*%
%FSLAX46Y46*%
G04 Gerber Fmt 4.6, Leading zero omitted, Abs format (unit mm)*
G04 Created by KiCad (PCBNEW 8.0.1) date 2024-03-28 09:41:07*
%MOMM*%
%LPD*%
G01*
G04 APERTURE LIST*
G04 Aperture macros list*
%AMRoundRect*
0 Rectangle with rounded corners*
0 $1 Rounding radius*
0 $2 $3 $4 $5 $6 $7 $8 $9 X,Y pos of 4 corners*
0 Add a 4 corners polygon primitive as box body*
4,1,4,$2,$3,$4,$5,$6,$7,$8,$9,$2,$3,0*
0 Add four circle primitives for the rounded corners*
1,1,$1+$1,$2,$3*
1,1,$1+$1,$4,$5*
1,1,$1+$1,$6,$7*
1,1,$1+$1,$8,$9*
0 Add four rect primitives between the rounded corners*
20,1,$1+$1,$2,$3,$4,$5,0*
20,1,$1+$1,$4,$5,$6,$7,0*
20,1,$1+$1,$6,$7,$8,$9,0*
20,1,$1+$1,$8,$9,$2,$3,0*%
%AMFreePoly0*
4,1,9,5.362500,-0.866500,1.237500,-0.866500,1.237500,-0.450000,-1.237500,-0.450000,-1.237500,0.450000,1.237500,0.450000,1.237500,0.866500,5.362500,0.866500,5.362500,-0.866500,5.362500,-0.866500,$1*%
G04 Aperture macros list end*
%TA.AperFunction,ComponentPad*%
%ADD10C,4.400000*%
%TD*%
%TA.AperFunction,ComponentPad*%
%ADD11O,1.700000X1.200000*%
%TD*%
%TA.AperFunction,SMDPad,CuDef*%
%ADD12R,1.200000X0.550000*%
%TD*%
%TA.AperFunction,SMDPad,CuDef*%
%ADD13RoundRect,0.225000X0.925000X0.225000X-0.925000X0.225000X-0.925000X-0.225000X0.925000X-0.225000X0*%
%TD*%
%TA.AperFunction,SMDPad,CuDef*%
%ADD14FreePoly0,180.000000*%
%TD*%
%TA.AperFunction,SMDPad,CuDef*%
%ADD15RoundRect,0.237500X0.300000X0.237500X-0.300000X0.237500X-0.300000X-0.237500X0.300000X-0.237500X0*%
%TD*%
%TA.AperFunction,SMDPad,CuDef*%
%ADD16RoundRect,0.237500X0.287500X0.237500X-0.287500X0.237500X-0.287500X-0.237500X0.287500X-0.237500X0*%
%TD*%
%TA.AperFunction,ComponentPad*%
%ADD17C,3.200000*%
%TD*%
%TA.AperFunction,SMDPad,CuDef*%
%ADD18C,1.000000*%
%TD*%
%TA.AperFunction,SMDPad,CuDef*%
%ADD19R,0.550000X1.200000*%
%TD*%
%TA.AperFunction,SMDPad,CuDef*%
%ADD20RoundRect,0.250000X-0.337500X-0.475000X0.337500X-0.475000X0.337500X0.475000X-0.337500X0.475000X0*%
%TD*%
%TA.AperFunction,SMDPad,CuDef*%
%ADD21RoundRect,0.237500X0.250000X0.237500X-0.250000X0.237500X-0.250000X-0.237500X0.250000X-0.237500X0*%
%TD*%
%TA.AperFunction,SMDPad,CuDef*%
%ADD22RoundRect,0.237500X-0.250000X-0.237500X0.250000X-0.237500X0.250000X0.237500X-0.250000X0.237500X0*%
%TD*%
%TA.AperFunction,SMDPad,CuDef*%
%ADD23RoundRect,0.150000X0.625000X-0.150000X0.625000X0.150000X-0.625000X0.150000X-0.625000X-0.150000X0*%
%TD*%
%TA.AperFunction,SMDPad,CuDef*%
%ADD24RoundRect,0.200000X0.700000X-0.200000X0.700000X0.200000X-0.700000X0.200000X-0.700000X-0.200000X0*%
%TD*%
%TA.AperFunction,SMDPad,CuDef*%
%ADD25RoundRect,0.237500X-0.237500X0.250000X-0.237500X-0.250000X0.237500X-0.250000X0.237500X0.250000X0*%
%TD*%
%TA.AperFunction,SMDPad,CuDef*%
%ADD26O,1.865000X0.630000*%
%TD*%
%TA.AperFunction,SMDPad,CuDef*%
%ADD27R,2.200000X3.100000*%
%TD*%
%TA.AperFunction,SMDPad,CuDef*%
%ADD28RoundRect,0.237500X-0.237500X0.300000X-0.237500X-0.300000X0.237500X-0.300000X0.237500X0.300000X0*%
%TD*%
%TA.AperFunction,SMDPad,CuDef*%
%ADD29RoundRect,0.237500X0.237500X-0.250000X0.237500X0.250000X-0.237500X0.250000X-0.237500X-0.250000X0*%
%TD*%
%TA.AperFunction,SMDPad,CuDef*%
%ADD30RoundRect,0.237500X-0.300000X-0.237500X0.300000X-0.237500X0.300000X0.237500X-0.300000X0.237500X0*%
%TD*%
%TA.AperFunction,SMDPad,CuDef*%
%ADD31RoundRect,0.150000X-0.150000X0.587500X-0.150000X-0.587500X0.150000X-0.587500X0.150000X0.587500X0*%
%TD*%
%TA.AperFunction,SMDPad,CuDef*%
%ADD32R,0.900000X1.700000*%
%TD*%
%TA.AperFunction,SMDPad,CuDef*%
%ADD33RoundRect,0.237500X0.237500X-0.300000X0.237500X0.300000X-0.237500X0.300000X-0.237500X-0.300000X0*%
%TD*%
%TA.AperFunction,SMDPad,CuDef*%
%ADD34R,2.195000X2.195000*%
%TD*%
%TA.AperFunction,SMDPad,CuDef*%
%ADD35RoundRect,0.250000X0.475000X-0.337500X0.475000X0.337500X-0.475000X0.337500X-0.475000X-0.337500X0*%
%TD*%
%TA.AperFunction,SMDPad,CuDef*%
%ADD36RoundRect,0.250000X0.337500X0.475000X-0.337500X0.475000X-0.337500X-0.475000X0.337500X-0.475000X0*%
%TD*%
%TA.AperFunction,SMDPad,CuDef*%
%ADD37RoundRect,0.150000X0.150000X-0.587500X0.150000X0.587500X-0.150000X0.587500X-0.150000X-0.587500X0*%
%TD*%
%TA.AperFunction,SMDPad,CuDef*%
%ADD38RoundRect,0.150000X-0.512500X-0.150000X0.512500X-0.150000X0.512500X0.150000X-0.512500X0.150000X0*%
%TD*%
%TA.AperFunction,SMDPad,CuDef*%
%ADD39RoundRect,0.225000X-0.375000X0.225000X-0.375000X-0.225000X0.375000X-0.225000X0.375000X0.225000X0*%
%TD*%
%TA.AperFunction,SMDPad,CuDef*%
%ADD40R,2.150000X1.100000*%
%TD*%
%TA.AperFunction,SMDPad,CuDef*%
%ADD41R,0.900000X1.400000*%
%TD*%
%TA.AperFunction,SMDPad,CuDef*%
%ADD42R,2.800000X0.550000*%
%TD*%
%TA.AperFunction,SMDPad,CuDef*%
%ADD43R,2.800000X1.600000*%
%TD*%
%TA.AperFunction,SMDPad,CuDef*%
%ADD44RoundRect,0.250000X-0.475000X0.337500X-0.475000X-0.337500X0.475000X-0.337500X0.475000X0.337500X0*%
%TD*%
%TA.AperFunction,SMDPad,CuDef*%
%ADD45R,1.550000X1.000000*%
%TD*%
%TA.AperFunction,SMDPad,CuDef*%
%ADD46R,2.200000X3.900000*%
%TD*%
%TA.AperFunction,ViaPad*%
%ADD47C,0.800000*%
%TD*%
%TA.AperFunction,ViaPad*%
%ADD48C,0.550000*%
%TD*%
%TA.AperFunction,ViaPad*%
%ADD49C,0.700000*%
%TD*%
%TA.AperFunction,Conductor*%
%ADD50C,0.500000*%
%TD*%
%TA.AperFunction,Conductor*%
%ADD51C,0.700000*%
%TD*%
%TA.AperFunction,Conductor*%
%ADD52C,0.300000*%
%TD*%
%TA.AperFunction,Conductor*%
%ADD53C,1.200000*%
%TD*%
%TA.AperFunction,Conductor*%
%ADD54C,0.800000*%
%TD*%
%TA.AperFunction,Conductor*%
%ADD55C,0.400000*%
%TD*%
%TA.AperFunction,Conductor*%
%ADD56C,0.350000*%
%TD*%
%TA.AperFunction,Conductor*%
%ADD57C,0.600000*%
%TD*%
%TA.AperFunction,Conductor*%
%ADD58C,1.000000*%
%TD*%
%TA.AperFunction,Conductor*%
%ADD59C,0.250000*%
%TD*%
G04 APERTURE END LIST*
D10*
%TO.P,H3,1*%
%TO.N,N/C*%
X67025000Y-107625000D03*
%TD*%
D11*
%TO.P,J1,13*%
%TO.N,N/C*%
X149236500Y-93795000D03*
%TO.P,J1,14*%
X149236500Y-85155000D03*
%TO.P,J1,15*%
X153036500Y-93795000D03*
%TO.P,J1,16*%
X153036500Y-85155000D03*
%TD*%
D10*
%TO.P,H4,1*%
%TO.N,N/C*%
X67025000Y-71225000D03*
%TD*%
%TO.P,H1,1*%
%TO.N,N/C*%
X151725000Y-71225000D03*
%TD*%
%TO.P,H2,1*%
%TO.N,N/C*%
X151725000Y-107625000D03*
%TD*%
D12*
%TO.P,LED8,1,VSS*%
%TO.N,GNDPWR*%
X152925000Y-102005000D03*
%TO.P,LED8,2,DO*%
%TO.N,Net-(LED12-DI)*%
X152925000Y-101165000D03*
%TO.P,LED8,3,VDD*%
%TO.N,+5V*%
X152925000Y-100325000D03*
%TO.P,LED8,4,DI*%
%TO.N,Net-(LED8-DI)*%
X152925000Y-99485000D03*
%TD*%
D13*
%TO.P,U4,1,ADJ*%
%TO.N,GNDPWR*%
X78225000Y-85325000D03*
D14*
%TO.P,U4,2,VO*%
%TO.N,+BATT*%
X78137500Y-86825000D03*
D13*
%TO.P,U4,3,VI*%
%TO.N,+5V*%
X78225000Y-88325000D03*
%TD*%
D15*
%TO.P,C31,1*%
%TO.N,GNDPWR*%
X101307500Y-72125000D03*
%TO.P,C31,2*%
%TO.N,+5V*%
X99582500Y-72125000D03*
%TD*%
D16*
%TO.P,D6,1,K*%
%TO.N,GNDD*%
X94375000Y-78500000D03*
%TO.P,D6,2,A*%
%TO.N,Net-(D6-A)*%
X92625000Y-78500000D03*
%TD*%
D17*
%TO.P,J3,1,Pin_1*%
%TO.N,GNDPWR*%
X67825000Y-91975000D03*
%TO.P,J3,2,Pin_2*%
%TO.N,+BATT*%
X67825000Y-86975000D03*
%TD*%
D18*
%TO.P,TP12,1,1*%
%TO.N,Net-(C28-Pad1)*%
X141600000Y-81400000D03*
%TD*%
%TO.P,TP2,1,1*%
%TO.N,/TXD*%
X129000000Y-104400000D03*
%TD*%
%TO.P,TP10,1,1*%
%TO.N,GNDD*%
X98000000Y-76500000D03*
%TD*%
D19*
%TO.P,LED12,1,VSS*%
%TO.N,GNDPWR*%
X141485000Y-108925000D03*
%TO.P,LED12,2,DO*%
%TO.N,Net-(LED11-DI)*%
X142325000Y-108925000D03*
%TO.P,LED12,3,VDD*%
%TO.N,+5V*%
X143165000Y-108925000D03*
%TO.P,LED12,4,DI*%
%TO.N,Net-(LED12-DI)*%
X144005000Y-108925000D03*
%TD*%
D20*
%TO.P,FB1,1*%
%TO.N,GNDPWR*%
X83462500Y-83500000D03*
%TO.P,FB1,2*%
%TO.N,GNDD*%
X85537500Y-83500000D03*
%TD*%
D19*
%TO.P,LED10,1,VSS*%
%TO.N,GNDPWR*%
X142945000Y-70125000D03*
%TO.P,LED10,2,DO*%
%TO.N,Net-(LED10-DO)*%
X142105000Y-70125000D03*
%TO.P,LED10,3,VDD*%
%TO.N,Net-(LED10-VDD)*%
X141265000Y-70125000D03*
%TO.P,LED10,4,DI*%
%TO.N,Net-(LED1-DO)*%
X140425000Y-70125000D03*
%TD*%
D21*
%TO.P,R6,1*%
%TO.N,/BEEP*%
X94537500Y-96525000D03*
%TO.P,R6,2*%
%TO.N,Net-(Q1-G)*%
X92712500Y-96525000D03*
%TD*%
D15*
%TO.P,C30,1*%
%TO.N,GNDPWR*%
X123327500Y-72025000D03*
%TO.P,C30,2*%
%TO.N,+5V*%
X121602500Y-72025000D03*
%TD*%
D19*
%TO.P,LED1,1,VSS*%
%TO.N,GNDPWR*%
X123365000Y-70025000D03*
%TO.P,LED1,2,DO*%
%TO.N,Net-(LED1-DO)*%
X122525000Y-70025000D03*
%TO.P,LED1,3,VDD*%
%TO.N,+5V*%
X121685000Y-70025000D03*
%TO.P,LED1,4,DI*%
%TO.N,Net-(LED1-DI)*%
X120845000Y-70025000D03*
%TD*%
D22*
%TO.P,R4,1*%
%TO.N,/IO9*%
X122112500Y-93725000D03*
%TO.P,R4,2*%
%TO.N,VCC*%
X123937500Y-93725000D03*
%TD*%
D23*
%TO.P,J2,1,Pin_1*%
%TO.N,GNDD*%
X128575000Y-81000000D03*
%TO.P,J2,2,Pin_2*%
%TO.N,/ESP_RX*%
X128575000Y-80000000D03*
%TO.P,J2,3,Pin_3*%
%TO.N,/ESP_TX*%
X128575000Y-79000000D03*
%TO.P,J2,4,Pin_4*%
%TO.N,/KEY*%
X128575000Y-78000000D03*
D24*
%TO.P,J2,MP*%
%TO.N,N/C*%
X131100000Y-82300000D03*
X131100000Y-76700000D03*
%TD*%
D25*
%TO.P,R3,1*%
%TO.N,Net-(D2-A)*%
X145725000Y-78112500D03*
%TO.P,R3,2*%
%TO.N,Net-(U2-LED)*%
X145725000Y-79937500D03*
%TD*%
D21*
%TO.P,R16,1*%
%TO.N,+3V3*%
X94367500Y-80550000D03*
%TO.P,R16,2*%
%TO.N,Net-(D6-A)*%
X92542500Y-80550000D03*
%TD*%
D22*
%TO.P,R10,1*%
%TO.N,GNDD*%
X90175000Y-104000000D03*
%TO.P,R10,2*%
%TO.N,Net-(C37-Pad1)*%
X92000000Y-104000000D03*
%TD*%
D19*
%TO.P,LED6,1,VSS*%
%TO.N,GNDPWR*%
X80848250Y-108665000D03*
%TO.P,LED6,2,DO*%
%TO.N,Net-(LED5-DI)*%
X81688250Y-108665000D03*
%TO.P,LED6,3,VDD*%
%TO.N,+5V*%
X82528250Y-108665000D03*
%TO.P,LED6,4,DI*%
%TO.N,Net-(LED6-DI)*%
X83368250Y-108665000D03*
%TD*%
D15*
%TO.P,C9,1*%
%TO.N,+3V3*%
X90390000Y-89615000D03*
%TO.P,C9,2*%
%TO.N,GNDD*%
X88665000Y-89615000D03*
%TD*%
D19*
%TO.P,LED2,1,VSS*%
%TO.N,GNDPWR*%
X101265000Y-70125000D03*
%TO.P,LED2,2,DO*%
%TO.N,Net-(LED1-DI)*%
X100425000Y-70125000D03*
%TO.P,LED2,3,VDD*%
%TO.N,+5V*%
X99585000Y-70125000D03*
%TO.P,LED2,4,DI*%
%TO.N,Net-(LED2-DI)*%
X98745000Y-70125000D03*
%TD*%
D21*
%TO.P,R5,1*%
%TO.N,VCC*%
X73912500Y-104500000D03*
%TO.P,R5,2*%
%TO.N,Net-(D3-A)*%
X72087500Y-104500000D03*
%TD*%
D26*
%TO.P,U2,1,VSYS*%
%TO.N,Net-(U2-VSYS)*%
X134818000Y-94570000D03*
%TO.P,U2,2,VOUT*%
%TO.N,+BATT*%
X134818000Y-93300000D03*
%TO.P,U2,3,VSET*%
%TO.N,unconnected-(U2-VSET-Pad3)*%
X134818000Y-92030000D03*
%TO.P,U2,4,NTC*%
%TO.N,Net-(U2-NTC)*%
X134818000Y-90760000D03*
%TO.P,U2,5,LED*%
%TO.N,Net-(U2-LED)*%
X140182000Y-90760000D03*
%TO.P,U2,6,VIN*%
%TO.N,Net-(U2-VIN)*%
X140182000Y-92030000D03*
%TO.P,U2,7,BST*%
%TO.N,Net-(U2-BST)*%
X140182000Y-93300000D03*
%TO.P,U2,8,LX*%
%TO.N,Net-(U2-LX)*%
X140182000Y-94570000D03*
D27*
%TO.P,U2,9,GND*%
%TO.N,GNDPWR*%
X137500000Y-92665000D03*
%TD*%
D28*
%TO.P,C33,1*%
%TO.N,GNDPWR*%
X67925000Y-78022500D03*
%TO.P,C33,2*%
%TO.N,+5V*%
X67925000Y-79747500D03*
%TD*%
D18*
%TO.P,TP1,1,1*%
%TO.N,VCC*%
X126600000Y-104400000D03*
%TD*%
D22*
%TO.P,R18,1*%
%TO.N,GNDPWR*%
X130587500Y-90525000D03*
%TO.P,R18,2*%
%TO.N,Net-(U2-NTC)*%
X132412500Y-90525000D03*
%TD*%
D29*
%TO.P,R7,1*%
%TO.N,GNDPWR*%
X94918306Y-100497500D03*
%TO.P,R7,2*%
%TO.N,Net-(Q1-G)*%
X94918306Y-98672500D03*
%TD*%
%TO.P,R11,1*%
%TO.N,GNDD*%
X113900000Y-81237500D03*
%TO.P,R11,2*%
%TO.N,/POWER_EN*%
X113900000Y-79412500D03*
%TD*%
D21*
%TO.P,R14,1*%
%TO.N,/BAT_FB*%
X95537500Y-105750000D03*
%TO.P,R14,2*%
%TO.N,Net-(C37-Pad1)*%
X93712500Y-105750000D03*
%TD*%
D30*
%TO.P,C36,1*%
%TO.N,GNDPWR*%
X99200000Y-106825000D03*
%TO.P,C36,2*%
%TO.N,+5V*%
X100925000Y-106825000D03*
%TD*%
D28*
%TO.P,C34,1*%
%TO.N,GNDPWR*%
X67925000Y-98882500D03*
%TO.P,C34,2*%
%TO.N,+5V*%
X67925000Y-100607500D03*
%TD*%
D30*
%TO.P,C11,1*%
%TO.N,GNDPWR*%
X121253250Y-106665000D03*
%TO.P,C11,2*%
%TO.N,+5V*%
X122978250Y-106665000D03*
%TD*%
D18*
%TO.P,TP5,1,1*%
%TO.N,/IO9*%
X136300000Y-104500000D03*
%TD*%
D25*
%TO.P,R1,1*%
%TO.N,Net-(C28-Pad1)*%
X144225000Y-90525000D03*
%TO.P,R1,2*%
%TO.N,Net-(U2-VIN)*%
X144225000Y-92350000D03*
%TD*%
D12*
%TO.P,LED4,1,VSS*%
%TO.N,GNDPWR*%
X65925000Y-78025000D03*
%TO.P,LED4,2,DO*%
%TO.N,Net-(LED3-DI)*%
X65925000Y-78865000D03*
%TO.P,LED4,3,VDD*%
%TO.N,+5V*%
X65925000Y-79705000D03*
%TO.P,LED4,4,DI*%
%TO.N,Net-(LED4-DI)*%
X65925000Y-80545000D03*
%TD*%
D31*
%TO.P,Q1,1,D*%
%TO.N,Net-(BZ1-+)*%
X90768306Y-98747500D03*
%TO.P,Q1,2,G*%
%TO.N,Net-(Q1-G)*%
X92668306Y-98747500D03*
%TO.P,Q1,3,S*%
%TO.N,GNDPWR*%
X91718306Y-100622500D03*
%TD*%
D19*
%TO.P,LED3,1,VSS*%
%TO.N,GNDPWR*%
X83325000Y-70125000D03*
%TO.P,LED3,2,DO*%
%TO.N,Net-(LED2-DI)*%
X82485000Y-70125000D03*
%TO.P,LED3,3,VDD*%
%TO.N,+5V*%
X81645000Y-70125000D03*
%TO.P,LED3,4,DI*%
%TO.N,Net-(LED3-DI)*%
X80805000Y-70125000D03*
%TD*%
D30*
%TO.P,C35,1*%
%TO.N,GNDPWR*%
X80900000Y-106425000D03*
%TO.P,C35,2*%
%TO.N,+5V*%
X82625000Y-106425000D03*
%TD*%
D32*
%TO.P,SW2,1,1*%
%TO.N,/EN*%
X135800000Y-101500000D03*
%TO.P,SW2,2,2*%
%TO.N,GNDD*%
X139200000Y-101500000D03*
%TD*%
D18*
%TO.P,TP4,1,1*%
%TO.N,/EN*%
X133900000Y-104500000D03*
%TD*%
D33*
%TO.P,C6,1*%
%TO.N,GNDPWR*%
X150925000Y-80987500D03*
%TO.P,C6,2*%
%TO.N,+5V*%
X150925000Y-79262500D03*
%TD*%
D34*
%TO.P,BZ1,1,-*%
%TO.N,+5V*%
X84025000Y-93525000D03*
%TO.P,BZ1,2,+*%
%TO.N,Net-(BZ1-+)*%
X84025000Y-100925000D03*
%TO.P,BZ1,3*%
%TO.N,N/C*%
X76625000Y-100925000D03*
%TD*%
D28*
%TO.P,C27,1*%
%TO.N,Net-(U2-BST)*%
X142500000Y-93637500D03*
%TO.P,C27,2*%
%TO.N,Net-(U2-LX)*%
X142500000Y-95362500D03*
%TD*%
D21*
%TO.P,R13,1*%
%TO.N,VCC*%
X75650000Y-75825000D03*
%TO.P,R13,2*%
%TO.N,Net-(D13-A)*%
X73825000Y-75825000D03*
%TD*%
D18*
%TO.P,TP7,1,1*%
%TO.N,+5V*%
X79000000Y-73400000D03*
%TD*%
D35*
%TO.P,C12,1*%
%TO.N,VCC*%
X99025000Y-87562500D03*
%TO.P,C12,2*%
%TO.N,GNDD*%
X99025000Y-85487500D03*
%TD*%
%TO.P,C28,1*%
%TO.N,Net-(C28-Pad1)*%
X145925000Y-88037500D03*
%TO.P,C28,2*%
%TO.N,GNDPWR*%
X145925000Y-85962500D03*
%TD*%
D15*
%TO.P,C32,1*%
%TO.N,GNDPWR*%
X83507500Y-71925000D03*
%TO.P,C32,2*%
%TO.N,+5V*%
X81782500Y-71925000D03*
%TD*%
D28*
%TO.P,C16,1*%
%TO.N,/EN*%
X100500000Y-98137500D03*
%TO.P,C16,2*%
%TO.N,GNDD*%
X100500000Y-99862500D03*
%TD*%
D33*
%TO.P,C13,1*%
%TO.N,VCC*%
X101325000Y-87487500D03*
%TO.P,C13,2*%
%TO.N,GNDD*%
X101325000Y-85762500D03*
%TD*%
D15*
%TO.P,C7,1*%
%TO.N,Net-(U3-BP)*%
X90190000Y-84215000D03*
%TO.P,C7,2*%
%TO.N,GNDD*%
X88465000Y-84215000D03*
%TD*%
D30*
%TO.P,C3,1*%
%TO.N,+BATT*%
X73562500Y-83325000D03*
%TO.P,C3,2*%
%TO.N,GNDPWR*%
X75287500Y-83325000D03*
%TD*%
D22*
%TO.P,R15,1*%
%TO.N,VCC*%
X143087500Y-102000000D03*
%TO.P,R15,2*%
%TO.N,Net-(D4-A)*%
X144912500Y-102000000D03*
%TD*%
D18*
%TO.P,TP3,1,1*%
%TO.N,/RXD*%
X131500000Y-104500000D03*
%TD*%
D36*
%TO.P,C8,1*%
%TO.N,+3V3*%
X90365000Y-91515000D03*
%TO.P,C8,2*%
%TO.N,GNDD*%
X88290000Y-91515000D03*
%TD*%
%TO.P,C40,1*%
%TO.N,+BATT*%
X132337500Y-92625000D03*
%TO.P,C40,2*%
%TO.N,GNDPWR*%
X130262500Y-92625000D03*
%TD*%
D20*
%TO.P,C29,1*%
%TO.N,Net-(U2-VIN)*%
X144187500Y-94525000D03*
%TO.P,C29,2*%
%TO.N,GNDPWR*%
X146262500Y-94525000D03*
%TD*%
D18*
%TO.P,TP8,1,1*%
%TO.N,+3V3*%
X102700000Y-76400000D03*
%TD*%
D37*
%TO.P,D1,1*%
%TO.N,/KEY*%
X110125000Y-76625000D03*
%TO.P,D1,2*%
%TO.N,Net-(Q2-G)*%
X108225000Y-76625000D03*
%TO.P,D1,3*%
%TO.N,Net-(SW3-A)*%
X109175000Y-74750000D03*
%TD*%
D18*
%TO.P,TP9,1,1*%
%TO.N,GNDPWR*%
X86800000Y-73200000D03*
%TD*%
D19*
%TO.P,LED7,1,VSS*%
%TO.N,GNDPWR*%
X99062500Y-108725000D03*
%TO.P,LED7,2,DO*%
%TO.N,Net-(LED6-DI)*%
X99902500Y-108725000D03*
%TO.P,LED7,3,VDD*%
%TO.N,+5V*%
X100742500Y-108725000D03*
%TO.P,LED7,4,DI*%
%TO.N,/RGB*%
X101582500Y-108725000D03*
%TD*%
D38*
%TO.P,U3,1,IN*%
%TO.N,+5V*%
X88362500Y-87950000D03*
%TO.P,U3,2,GND*%
%TO.N,GNDD*%
X88362500Y-87000000D03*
%TO.P,U3,3,EN*%
%TO.N,+5V*%
X88362500Y-86050000D03*
%TO.P,U3,4,BP*%
%TO.N,Net-(U3-BP)*%
X90637500Y-86050000D03*
%TO.P,U3,5,OUT*%
%TO.N,+3V3*%
X90637500Y-87950000D03*
%TD*%
D12*
%TO.P,LED9,1,VSS*%
%TO.N,GNDPWR*%
X152825000Y-80925000D03*
%TO.P,LED9,2,DO*%
%TO.N,Net-(LED8-DI)*%
X152825000Y-80085000D03*
%TO.P,LED9,3,VDD*%
%TO.N,+5V*%
X152825000Y-79245000D03*
%TO.P,LED9,4,DI*%
%TO.N,Net-(LED10-DO)*%
X152825000Y-78405000D03*
%TD*%
D30*
%TO.P,C17,1*%
%TO.N,GNDPWR*%
X141422500Y-106925000D03*
%TO.P,C17,2*%
%TO.N,+5V*%
X143147500Y-106925000D03*
%TD*%
D20*
%TO.P,C10,1*%
%TO.N,Net-(U2-VSYS)*%
X136462500Y-97000000D03*
%TO.P,C10,2*%
%TO.N,GNDPWR*%
X138537500Y-97000000D03*
%TD*%
D37*
%TO.P,Q2,1,D*%
%TO.N,VCC*%
X106175000Y-80962500D03*
%TO.P,Q2,2,G*%
%TO.N,Net-(Q2-G)*%
X104275000Y-80962500D03*
%TO.P,Q2,3,S*%
%TO.N,+3V3*%
X105225000Y-79087500D03*
%TD*%
D29*
%TO.P,R12,1*%
%TO.N,/EN*%
X100525000Y-96237500D03*
%TO.P,R12,2*%
%TO.N,VCC*%
X100525000Y-94412500D03*
%TD*%
D35*
%TO.P,C2,1*%
%TO.N,+5V*%
X82425000Y-87762500D03*
%TO.P,C2,2*%
%TO.N,GNDPWR*%
X82425000Y-85687500D03*
%TD*%
D20*
%TO.P,C4,1*%
%TO.N,+BATT*%
X73587500Y-81225000D03*
%TO.P,C4,2*%
%TO.N,GNDPWR*%
X75662500Y-81225000D03*
%TD*%
D33*
%TO.P,C1,1*%
%TO.N,+5V*%
X80525000Y-87862500D03*
%TO.P,C1,2*%
%TO.N,GNDPWR*%
X80525000Y-86137500D03*
%TD*%
D19*
%TO.P,LED11,1,VSS*%
%TO.N,GNDPWR*%
X121373250Y-108665000D03*
%TO.P,LED11,2,DO*%
%TO.N,unconnected-(LED11-DO-Pad2)*%
X122213250Y-108665000D03*
%TO.P,LED11,3,VDD*%
%TO.N,+5V*%
X123053250Y-108665000D03*
%TO.P,LED11,4,DI*%
%TO.N,Net-(LED11-DI)*%
X123893250Y-108665000D03*
%TD*%
D35*
%TO.P,C15,1*%
%TO.N,+5V*%
X86127500Y-87952500D03*
%TO.P,C15,2*%
%TO.N,GNDD*%
X86127500Y-85877500D03*
%TD*%
D15*
%TO.P,C14,1*%
%TO.N,GNDPWR*%
X142987500Y-72325000D03*
%TO.P,C14,2*%
%TO.N,Net-(LED10-VDD)*%
X141262500Y-72325000D03*
%TD*%
D39*
%TO.P,D5,1,K*%
%TO.N,+5V*%
X87918306Y-95435000D03*
%TO.P,D5,2,A*%
%TO.N,Net-(BZ1-+)*%
X87918306Y-98735000D03*
%TD*%
D40*
%TO.P,U1,1,GPIO0/ADC1_CH0*%
%TO.N,/RGB*%
X104175000Y-101525000D03*
%TO.P,U1,2,GPIO1/ADC1_CH1*%
%TO.N,/BAT_FB*%
X104175000Y-99525000D03*
%TO.P,U1,3,EN*%
%TO.N,/EN*%
X104175000Y-97525000D03*
%TO.P,U1,4,GPIO2/ADC1_CH2/FSPIQ*%
%TO.N,/BEEP*%
X104175000Y-95525000D03*
%TO.P,U1,5,GPIO4/ADC1_CH4/FSPIHD/MTMS/LEDPWM*%
%TO.N,/GREEN*%
X104175000Y-93525000D03*
%TO.P,U1,6,GPIO5/FSPIWP/MTDI/LEDPWM*%
%TO.N,/BLUE*%
X104175000Y-91525000D03*
%TO.P,U1,7,GPIO6/FSPICLK/MTCK/LEDPWM*%
%TO.N,/POWER_EN*%
X104175000Y-89525000D03*
%TO.P,U1,8,3V3*%
%TO.N,VCC*%
X104175000Y-87525000D03*
D41*
%TO.P,U1,9,NC*%
%TO.N,unconnected-(U1-NC-Pad9)*%
X106600000Y-86275000D03*
%TO.P,U1,10,NC*%
%TO.N,unconnected-(U1-NC-Pad10)*%
X108600000Y-86275000D03*
%TO.P,U1,11,NC*%
%TO.N,unconnected-(U1-NC-Pad11)*%
X110600000Y-86275000D03*
%TO.P,U1,12,GPIO18*%
%TO.N,/KEY*%
X112600000Y-86275000D03*
%TO.P,U1,13,NC*%
%TO.N,unconnected-(U1-NC-Pad13)*%
X114600000Y-86275000D03*
%TO.P,U1,14,NC*%
%TO.N,unconnected-(U1-NC-Pad14)*%
X116600000Y-86275000D03*
D40*
%TO.P,U1,15,GND*%
%TO.N,GNDD*%
X119025000Y-87525000D03*
%TO.P,U1,16,GPIO7/FSPID/MTDO/LEDPWM*%
%TO.N,/ESP_TX*%
X119025000Y-89525000D03*
%TO.P,U1,17,GPIO8*%
%TO.N,/ESP_RX*%
X119025000Y-91525000D03*
%TO.P,U1,18,GPIO9*%
%TO.N,/IO9*%
X119025000Y-93525000D03*
%TO.P,U1,19,GPIO10/FSPICS0/LEDPWM*%
%TO.N,unconnected-(U1-GPIO10{slash}FSPICS0{slash}LEDPWM-Pad19)*%
X119025000Y-95525000D03*
%TO.P,U1,20,GPIO3/ADC1_CH3/LEDPWM*%
%TO.N,/YELLOW*%
X119025000Y-97525000D03*
%TO.P,U1,21,GPIO19/U0RXD*%
%TO.N,/RXD*%
X119025000Y-99525000D03*
%TO.P,U1,22,GPIO20/U0TXD*%
%TO.N,/TXD*%
X119025000Y-101525000D03*
D42*
%TO.P,U1,23,GND*%
%TO.N,GNDD*%
X110400000Y-97890000D03*
D43*
%TO.P,U1,24,GND*%
X110400000Y-96425000D03*
%TD*%
D29*
%TO.P,R2,1*%
%TO.N,GNDPWR*%
X146125000Y-92337500D03*
%TO.P,R2,2*%
%TO.N,Net-(C28-Pad1)*%
X146125000Y-90512500D03*
%TD*%
D44*
%TO.P,C26,1*%
%TO.N,Net-(U2-VSYS)*%
X133700000Y-96362500D03*
%TO.P,C26,2*%
%TO.N,GNDPWR*%
X133700000Y-98437500D03*
%TD*%
D18*
%TO.P,TP6,1,1*%
%TO.N,GNDD*%
X138700000Y-104600000D03*
%TD*%
D33*
%TO.P,C5,1*%
%TO.N,GNDPWR*%
X150985000Y-101953250D03*
%TO.P,C5,2*%
%TO.N,+5V*%
X150985000Y-100228250D03*
%TD*%
D22*
%TO.P,R9,1*%
%TO.N,Net-(C37-Pad1)*%
X93675000Y-104000000D03*
%TO.P,R9,2*%
%TO.N,+BATT*%
X95500000Y-104000000D03*
%TD*%
D12*
%TO.P,LED5,1,VSS*%
%TO.N,GNDPWR*%
X65925000Y-99125000D03*
%TO.P,LED5,2,DO*%
%TO.N,Net-(LED4-DI)*%
X65925000Y-99965000D03*
%TO.P,LED5,3,VDD*%
%TO.N,+5V*%
X65925000Y-100805000D03*
%TO.P,LED5,4,DI*%
%TO.N,Net-(LED5-DI)*%
X65925000Y-101645000D03*
%TD*%
D45*
%TO.P,SW3,1,1*%
%TO.N,GNDD*%
X114625000Y-71375000D03*
%TO.P,SW3,2,2*%
X114625000Y-69675000D03*
%TO.P,SW3,3,K*%
%TO.N,Net-(SW3-A)*%
X109425000Y-71375000D03*
%TO.P,SW3,4,A*%
X109425000Y-69675000D03*
%TD*%
D15*
%TO.P,C37,1*%
%TO.N,Net-(C37-Pad1)*%
X91950000Y-105700000D03*
%TO.P,C37,2*%
%TO.N,GNDD*%
X90225000Y-105700000D03*
%TD*%
D31*
%TO.P,Q3,1,D*%
%TO.N,Net-(Q2-G)*%
X110325000Y-79225000D03*
%TO.P,Q3,2,G*%
%TO.N,/POWER_EN*%
X112225000Y-79225000D03*
%TO.P,Q3,3,S*%
%TO.N,GNDD*%
X111275000Y-81100000D03*
%TD*%
D46*
%TO.P,L2,1,1*%
%TO.N,Net-(C28-Pad1)*%
X139400000Y-85000000D03*
%TO.P,L2,2,2*%
%TO.N,Net-(U2-LX)*%
X135600000Y-85000000D03*
%TD*%
D25*
%TO.P,R8,1*%
%TO.N,+3V3*%
X108225000Y-79212500D03*
%TO.P,R8,2*%
%TO.N,Net-(Q2-G)*%
X108225000Y-81037500D03*
%TD*%
D47*
%TO.N,+BATT*%
X72000000Y-80000000D03*
D48*
X131875000Y-93500000D03*
D47*
X72000000Y-82000000D03*
X72000000Y-81000000D03*
X72000000Y-83000000D03*
D48*
X132137162Y-94237838D03*
X132543750Y-93831250D03*
X96314308Y-99185692D03*
D47*
%TO.N,GNDPWR*%
X80000000Y-84500000D03*
X129000000Y-92500000D03*
X148360135Y-92771443D03*
X137832500Y-92332500D03*
X150207430Y-105207431D03*
X134500000Y-97500000D03*
X79500000Y-108500000D03*
X138500000Y-90500000D03*
X82000000Y-83500000D03*
X140182069Y-107090725D03*
X65399847Y-98100153D03*
X78500000Y-84000000D03*
X65925000Y-75364100D03*
X98000000Y-109000000D03*
X144000000Y-73000000D03*
X77000000Y-83500000D03*
X81000000Y-84500000D03*
X84500000Y-72000000D03*
X83500000Y-82000000D03*
X148000000Y-105000000D03*
X124500000Y-72000000D03*
X144720000Y-86000000D03*
X148056500Y-86500000D03*
X79500000Y-106500000D03*
X71500000Y-95000000D03*
X95500000Y-102000000D03*
X121373250Y-107600000D03*
X124500000Y-70000000D03*
X144000000Y-71000000D03*
X102000000Y-70500000D03*
X84500000Y-70000000D03*
X102500000Y-72000000D03*
X140000000Y-96500000D03*
X76000000Y-85000000D03*
X153550843Y-82000000D03*
X77500000Y-82000000D03*
X137500000Y-93500000D03*
X130500000Y-89500000D03*
X90000000Y-101000000D03*
X148056500Y-92000000D03*
X131500000Y-98700000D03*
X121000000Y-105600000D03*
X140500000Y-109000000D03*
X99500000Y-105500000D03*
X137500000Y-95000000D03*
D48*
X151261500Y-84075002D03*
D47*
%TO.N,GNDD*%
X94500000Y-92800000D03*
X89969669Y-82530331D03*
X99000000Y-99000000D03*
X116000000Y-84000000D03*
X89000000Y-82000000D03*
X118000000Y-76500000D03*
X84500000Y-89500000D03*
X112500000Y-83000000D03*
X116000000Y-83000000D03*
X112000000Y-91000000D03*
X91969669Y-84530331D03*
X119500000Y-79500000D03*
X93500000Y-90000000D03*
X113000000Y-84000000D03*
X85500000Y-90500000D03*
X113000000Y-92000000D03*
X93500000Y-101000000D03*
X99500000Y-83500000D03*
X119500000Y-76500000D03*
X84500000Y-86000000D03*
X110000000Y-99000000D03*
X102500000Y-84500000D03*
X89000000Y-92800000D03*
X109000000Y-92000000D03*
X91000000Y-97000000D03*
X116500000Y-79500000D03*
X96000000Y-92800000D03*
X138000000Y-99000000D03*
X85000000Y-85000000D03*
X110000000Y-82000000D03*
X110000000Y-92800000D03*
X100000000Y-82500000D03*
X86000000Y-82000000D03*
X97500000Y-92800000D03*
X116500000Y-69500000D03*
X118000000Y-79500000D03*
X132000000Y-97500000D03*
X113975000Y-83000000D03*
X116500000Y-71500000D03*
X106500000Y-92500000D03*
X106500000Y-84500000D03*
D48*
%TO.N,VCC*%
X89500000Y-79500000D03*
D47*
X125500000Y-104500000D03*
D48*
X94000000Y-84000000D03*
D47*
X123937500Y-96000000D03*
D48*
X98000000Y-89000000D03*
X100000000Y-90900000D03*
X85500000Y-97500000D03*
X100500000Y-92925000D03*
X82000000Y-98500000D03*
X96000000Y-86500000D03*
X96808058Y-90191942D03*
X86500000Y-79500000D03*
D47*
%TO.N,Net-(U2-LX)*%
X139750000Y-89250000D03*
X141000000Y-88500000D03*
X144000000Y-96000000D03*
X142500000Y-97000000D03*
%TO.N,Net-(C28-Pad1)*%
X144856500Y-89875000D03*
X142720000Y-87000000D03*
D49*
X148075000Y-90825000D03*
X148075000Y-89125000D03*
D47*
X142000000Y-88000000D03*
X144856500Y-89125000D03*
D49*
X148075000Y-89975000D03*
X148075000Y-88225000D03*
D47*
%TO.N,Net-(D2-A)*%
X144000000Y-78025000D03*
D48*
%TO.N,Net-(D13-A)*%
X74000000Y-74500000D03*
%TO.N,/RGB*%
X100400000Y-105800000D03*
X102000000Y-107500000D03*
%TO.N,Net-(SW3-A)*%
X108000000Y-69675000D03*
X108500000Y-72325000D03*
X108000000Y-71100000D03*
X108500000Y-74000000D03*
%TO.N,Net-(Q2-G)*%
X107000000Y-80187500D03*
X105000000Y-80500000D03*
%TO.N,/GREEN*%
X84000000Y-99352498D03*
%TO.N,Net-(D3-A)*%
X69500000Y-104000000D03*
%TO.N,Net-(D4-A)*%
X145000000Y-103800000D03*
%TO.N,/YELLOW*%
X134913405Y-100462888D03*
%TO.N,/BLUE*%
X86500000Y-80500000D03*
X89000000Y-80500000D03*
X94500000Y-87000000D03*
X93500000Y-85000000D03*
X72000000Y-76500000D03*
%TD*%
D50*
%TO.N,+BATT*%
X72000000Y-84000000D02*
X72000000Y-83000000D01*
D51*
X134818000Y-93300000D02*
X133012500Y-93300000D01*
D50*
X74825000Y-86825000D02*
X72000000Y-84000000D01*
X78137500Y-86825000D02*
X74825000Y-86825000D01*
X76587500Y-86825000D02*
X73562500Y-83800000D01*
X78137500Y-86825000D02*
X76587500Y-86825000D01*
D52*
X96314308Y-103185692D02*
X96314308Y-99185692D01*
D51*
X133012500Y-93300000D02*
X132337500Y-92625000D01*
D53*
X132543750Y-93831250D02*
X132543750Y-92831250D01*
X132543750Y-92831250D02*
X132337500Y-92625000D01*
X132543750Y-93831250D02*
X132375000Y-94000000D01*
D50*
X73562500Y-83800000D02*
X73562500Y-83325000D01*
D52*
X95500000Y-104000000D02*
X96314308Y-103185692D01*
D50*
%TO.N,GNDPWR*%
X130587500Y-90525000D02*
X130587500Y-92300000D01*
X130587500Y-89587500D02*
X130500000Y-89500000D01*
X67925000Y-98882500D02*
X71153750Y-95653750D01*
X121000000Y-105600000D02*
X121000000Y-106411750D01*
X75287500Y-83325000D02*
X76825000Y-83325000D01*
X152825000Y-81274157D02*
X153550843Y-82000000D01*
X129125000Y-92625000D02*
X129000000Y-92500000D01*
X83507500Y-71925000D02*
X84425000Y-71925000D01*
X139500000Y-97000000D02*
X140000000Y-96500000D01*
X121373250Y-106785000D02*
X121253250Y-106665000D01*
X123327500Y-72025000D02*
X124475000Y-72025000D01*
X85700000Y-73200000D02*
X84500000Y-72000000D01*
X80848250Y-108665000D02*
X79665000Y-108665000D01*
X150207430Y-105207431D02*
X152925000Y-102489861D01*
X75287500Y-83325000D02*
X75287500Y-81600000D01*
X144757500Y-85962500D02*
X144720000Y-86000000D01*
X133700000Y-98437500D02*
X131762500Y-98437500D01*
X76825000Y-83325000D02*
X77000000Y-83500000D01*
D52*
X150925000Y-83738502D02*
X151261500Y-84075002D01*
D50*
X80900000Y-106425000D02*
X79575000Y-106425000D01*
X65925000Y-98625306D02*
X65399847Y-98100153D01*
X124475000Y-70025000D02*
X124500000Y-70000000D01*
X76725000Y-81225000D02*
X77500000Y-82000000D01*
X130262500Y-92625000D02*
X129125000Y-92625000D01*
X101265000Y-70125000D02*
X101625000Y-70125000D01*
X141485000Y-108925000D02*
X140575000Y-108925000D01*
X146606578Y-94525000D02*
X148360135Y-92771443D01*
X83462500Y-83500000D02*
X83462500Y-82037500D01*
X138500000Y-91665000D02*
X137832500Y-92332500D01*
X94918306Y-101418306D02*
X95500000Y-102000000D01*
X91718306Y-100622500D02*
X90377500Y-100622500D01*
X84375000Y-70125000D02*
X84500000Y-70000000D01*
X83325000Y-70125000D02*
X84375000Y-70125000D01*
X138537500Y-97000000D02*
X139500000Y-97000000D01*
X142945000Y-70125000D02*
X143125000Y-70125000D01*
X75287500Y-81600000D02*
X75662500Y-81225000D01*
X150985000Y-101953250D02*
X150985000Y-102015000D01*
X101625000Y-70125000D02*
X102000000Y-70500000D01*
X65925000Y-78025000D02*
X67922500Y-78025000D01*
D54*
X138537500Y-97000000D02*
X138537500Y-93702500D01*
D50*
X78225000Y-85325000D02*
X78225000Y-84275000D01*
X84425000Y-71925000D02*
X84500000Y-72000000D01*
X75662500Y-81225000D02*
X76725000Y-81225000D01*
X90377500Y-100622500D02*
X90000000Y-101000000D01*
X143125000Y-70125000D02*
X144000000Y-71000000D01*
X130587500Y-90525000D02*
X130587500Y-89587500D01*
X152925000Y-102489861D02*
X152925000Y-102005000D01*
X147719000Y-92337500D02*
X148056500Y-92000000D01*
X121373250Y-108665000D02*
X121373250Y-106785000D01*
X99200000Y-106825000D02*
X99200000Y-105800000D01*
X79575000Y-106425000D02*
X79500000Y-106500000D01*
X145925000Y-85962500D02*
X144757500Y-85962500D01*
X152825000Y-80925000D02*
X152825000Y-81274157D01*
X102375000Y-72125000D02*
X102500000Y-72000000D01*
X99200000Y-105800000D02*
X99500000Y-105500000D01*
X133700000Y-98437500D02*
X133700000Y-98300000D01*
X67922500Y-78025000D02*
X67925000Y-78022500D01*
X142987500Y-72325000D02*
X143325000Y-72325000D01*
X146125000Y-94387500D02*
X146262500Y-94525000D01*
X83462500Y-82037500D02*
X83500000Y-82000000D01*
D52*
X150925000Y-80987500D02*
X150925000Y-83738502D01*
D50*
X140575000Y-108925000D02*
X140500000Y-109000000D01*
X137500000Y-92665000D02*
X137832500Y-92332500D01*
X147519000Y-85962500D02*
X148056500Y-86500000D01*
X140347794Y-106925000D02*
X140182069Y-107090725D01*
X76325000Y-85325000D02*
X76000000Y-85000000D01*
X86800000Y-73200000D02*
X85700000Y-73200000D01*
X146125000Y-92337500D02*
X147719000Y-92337500D01*
X101307500Y-72125000D02*
X102375000Y-72125000D01*
X71500000Y-95307500D02*
X71500000Y-95000000D01*
X146262500Y-94525000D02*
X146606578Y-94525000D01*
X131762500Y-98437500D02*
X131500000Y-98700000D01*
X80525000Y-85025000D02*
X80000000Y-84500000D01*
X141422500Y-106925000D02*
X140347794Y-106925000D01*
X130587500Y-92300000D02*
X130262500Y-92625000D01*
X137500000Y-92665000D02*
X137500000Y-93500000D01*
X65925000Y-99125000D02*
X65925000Y-98625306D01*
X94918306Y-100497500D02*
X94918306Y-101418306D01*
X123365000Y-70025000D02*
X124475000Y-70025000D01*
X99062500Y-108725000D02*
X98275000Y-108725000D01*
X83462500Y-83500000D02*
X82000000Y-83500000D01*
X65925000Y-78025000D02*
X65925000Y-75364100D01*
X98275000Y-108725000D02*
X98000000Y-109000000D01*
X150985000Y-102015000D02*
X148000000Y-105000000D01*
X133700000Y-98300000D02*
X134500000Y-97500000D01*
X82425000Y-85687500D02*
X82187500Y-85687500D01*
X124475000Y-72025000D02*
X124500000Y-72000000D01*
X145925000Y-85962500D02*
X147519000Y-85962500D01*
X78225000Y-85325000D02*
X76325000Y-85325000D01*
X146125000Y-92337500D02*
X146125000Y-94387500D01*
X80525000Y-86137500D02*
X80525000Y-85025000D01*
X79665000Y-108665000D02*
X79500000Y-108500000D01*
X121000000Y-106411750D02*
X121253250Y-106665000D01*
X137500000Y-93500000D02*
X137500000Y-95000000D01*
X78225000Y-84275000D02*
X78500000Y-84000000D01*
X143325000Y-72325000D02*
X144000000Y-73000000D01*
X121373250Y-107600000D02*
X121373250Y-108665000D01*
X71153750Y-95653750D02*
X71500000Y-95307500D01*
X138500000Y-90500000D02*
X138500000Y-91665000D01*
D54*
X138537500Y-93702500D02*
X137500000Y-92665000D01*
D50*
X82187500Y-85687500D02*
X81000000Y-84500000D01*
D55*
%TO.N,+5V*%
X122978250Y-106665000D02*
X122978250Y-108590000D01*
D56*
X81782500Y-71925000D02*
X81782500Y-70262500D01*
D55*
X150925000Y-79262500D02*
X152807500Y-79262500D01*
D57*
X139335000Y-106665000D02*
X122978250Y-106665000D01*
D56*
X99582500Y-70127500D02*
X99585000Y-70125000D01*
D57*
X99582500Y-72125000D02*
X100557500Y-73100000D01*
D58*
X82425000Y-87762500D02*
X85937500Y-87762500D01*
D57*
X100557500Y-73100000D02*
X120527500Y-73100000D01*
X139725000Y-73000000D02*
X143850000Y-77125000D01*
X88362500Y-86050000D02*
X87427500Y-85115000D01*
D55*
X150985000Y-100228250D02*
X152828250Y-100228250D01*
X82625000Y-106425000D02*
X82625000Y-108568250D01*
D57*
X89525000Y-87449999D02*
X89024999Y-87950000D01*
D50*
X78225000Y-88325000D02*
X78225000Y-90307500D01*
D57*
X88362500Y-86050000D02*
X89024999Y-86050000D01*
X89525000Y-86550001D02*
X89525000Y-87449999D01*
X143147500Y-106925000D02*
X142172500Y-105950000D01*
X150586500Y-84586500D02*
X150586500Y-93339365D01*
X150586500Y-93339365D02*
X150985000Y-93737865D01*
D55*
X121602500Y-70107500D02*
X121685000Y-70025000D01*
D57*
X102800000Y-102800000D02*
X101500000Y-104100000D01*
X122978250Y-106665000D02*
X122978250Y-105478250D01*
D58*
X84025000Y-93525000D02*
X86008306Y-93525000D01*
D56*
X99582500Y-72125000D02*
X99582500Y-70127500D01*
D57*
X120527500Y-73100000D02*
X121602500Y-72025000D01*
D50*
X78225000Y-90307500D02*
X67925000Y-100607500D01*
D57*
X82427500Y-99327500D02*
X82427500Y-106227500D01*
X120300000Y-102800000D02*
X102800000Y-102800000D01*
X122978250Y-105478250D02*
X120300000Y-102800000D01*
X122577500Y-73000000D02*
X139725000Y-73000000D01*
D55*
X82625000Y-108568250D02*
X82528250Y-108665000D01*
D57*
X149844250Y-100228250D02*
X143147500Y-106925000D01*
X101500000Y-106250000D02*
X100925000Y-106825000D01*
D58*
X86127500Y-87952500D02*
X86952500Y-87952500D01*
D57*
X149950000Y-80237500D02*
X149950000Y-83950000D01*
D50*
X79000000Y-73400000D02*
X80307500Y-73400000D01*
D58*
X87000000Y-88000000D02*
X88362500Y-88000000D01*
D57*
X143850000Y-77125000D02*
X148787500Y-77125000D01*
X92872500Y-72125000D02*
X99582500Y-72125000D01*
D58*
X81862500Y-88325000D02*
X82425000Y-87762500D01*
D57*
X89024999Y-87950000D02*
X88362500Y-87950000D01*
X86320000Y-95435000D02*
X82427500Y-99327500D01*
X82427500Y-106227500D02*
X82625000Y-106425000D01*
X140050000Y-105950000D02*
X139335000Y-106665000D01*
D56*
X81782500Y-70262500D02*
X81645000Y-70125000D01*
D57*
X148787500Y-77125000D02*
X150925000Y-79262500D01*
D58*
X86952500Y-87952500D02*
X87000000Y-88000000D01*
D57*
X87427500Y-85115000D02*
X87427500Y-77570000D01*
D50*
X67925000Y-83484968D02*
X67925000Y-79747500D01*
D55*
X67727500Y-100805000D02*
X67925000Y-100607500D01*
D57*
X87427500Y-77570000D02*
X92872500Y-72125000D01*
D58*
X78225000Y-88325000D02*
X81862500Y-88325000D01*
D55*
X143147500Y-108907500D02*
X143165000Y-108925000D01*
D58*
X82425000Y-91925000D02*
X84025000Y-93525000D01*
X85937500Y-87762500D02*
X86127500Y-87952500D01*
D57*
X150925000Y-79262500D02*
X149950000Y-80237500D01*
X142172500Y-105950000D02*
X140050000Y-105950000D01*
X121602500Y-72025000D02*
X122577500Y-73000000D01*
D55*
X67925000Y-79747500D02*
X65967500Y-79747500D01*
X100925000Y-106825000D02*
X100742500Y-107007500D01*
D57*
X87427500Y-77570000D02*
X81782500Y-71925000D01*
X150985000Y-93737865D02*
X150985000Y-100228250D01*
D55*
X143147500Y-106925000D02*
X143147500Y-108907500D01*
X65925000Y-100805000D02*
X67727500Y-100805000D01*
D58*
X80062500Y-88325000D02*
X80525000Y-87862500D01*
D57*
X150985000Y-100228250D02*
X149844250Y-100228250D01*
D50*
X72765032Y-88325000D02*
X67925000Y-83484968D01*
D55*
X152828250Y-100228250D02*
X152925000Y-100325000D01*
X65967500Y-79747500D02*
X65925000Y-79705000D01*
D58*
X78225000Y-88325000D02*
X80062500Y-88325000D01*
D57*
X149950000Y-83950000D02*
X150586500Y-84586500D01*
D55*
X122978250Y-108590000D02*
X123053250Y-108665000D01*
D50*
X80307500Y-73400000D02*
X81782500Y-71925000D01*
D57*
X89024999Y-86050000D02*
X89525000Y-86550001D01*
X87918306Y-95435000D02*
X86320000Y-95435000D01*
D58*
X86008306Y-93525000D02*
X87918306Y-95435000D01*
D50*
X78225000Y-88325000D02*
X72765032Y-88325000D01*
D55*
X152807500Y-79262500D02*
X152825000Y-79245000D01*
D57*
X101500000Y-104100000D02*
X101500000Y-106250000D01*
D55*
X121602500Y-72025000D02*
X121602500Y-70107500D01*
X100742500Y-107007500D02*
X100742500Y-108725000D01*
D58*
X82425000Y-87762500D02*
X82425000Y-91925000D01*
D50*
%TO.N,Net-(BZ1-+)*%
X86215000Y-98735000D02*
X84025000Y-100925000D01*
X87918306Y-98735000D02*
X86215000Y-98735000D01*
X90755806Y-98735000D02*
X90768306Y-98747500D01*
X87918306Y-98735000D02*
X90755806Y-98735000D01*
%TO.N,GNDD*%
X113900000Y-82925000D02*
X113975000Y-83000000D01*
X90021685Y-82530331D02*
X91969669Y-84478315D01*
X109000000Y-92000000D02*
X109200000Y-92000000D01*
D55*
X139200000Y-101500000D02*
X139200000Y-100200000D01*
D50*
X113900000Y-81237500D02*
X113900000Y-82925000D01*
D55*
X139200000Y-100200000D02*
X138000000Y-99000000D01*
D50*
X86127500Y-85877500D02*
X85877500Y-85877500D01*
X88665000Y-89615000D02*
X84615000Y-89615000D01*
X110400000Y-96425000D02*
X110400000Y-96400000D01*
X118000000Y-79500000D02*
X119500000Y-79500000D01*
X94375000Y-78500000D02*
X93450000Y-77575000D01*
X90225000Y-104500000D02*
X90225000Y-104050000D01*
X90225000Y-104050000D02*
X90175000Y-104000000D01*
X88465000Y-84035000D02*
X89000000Y-83500000D01*
X110400000Y-96400000D02*
X106500000Y-92500000D01*
X88465000Y-84215000D02*
X88465000Y-84035000D01*
X109200000Y-92000000D02*
X110000000Y-92800000D01*
D57*
X86577501Y-85877500D02*
X86127500Y-85877500D01*
D50*
X85537500Y-83500000D02*
X85537500Y-82462500D01*
X85877500Y-85877500D02*
X85000000Y-85000000D01*
D55*
X138700000Y-105200000D02*
X138700000Y-102000000D01*
D50*
X88177500Y-81177500D02*
X89000000Y-82000000D01*
X116000000Y-80000000D02*
X116500000Y-79500000D01*
X113900000Y-81600000D02*
X112500000Y-83000000D01*
D58*
X86127500Y-85877500D02*
X86127500Y-84090000D01*
D50*
X91969669Y-84478315D02*
X91969669Y-84530331D01*
X89969669Y-82530331D02*
X90021685Y-82530331D01*
X93450000Y-77575000D02*
X90102500Y-77575000D01*
X89000000Y-83500000D02*
X89969669Y-82530331D01*
X90225000Y-105700000D02*
X90225000Y-104500000D01*
X90102500Y-77575000D02*
X88177500Y-79500000D01*
X113975000Y-83000000D02*
X113975000Y-83025000D01*
D55*
X138700000Y-102000000D02*
X139200000Y-101500000D01*
D50*
X84615000Y-89615000D02*
X84500000Y-89500000D01*
X116000000Y-83000000D02*
X116000000Y-80000000D01*
X90225000Y-104500000D02*
X90225000Y-104275000D01*
X116500000Y-79500000D02*
X118000000Y-79500000D01*
X96000000Y-92800000D02*
X94500000Y-92800000D01*
D57*
X88362500Y-87000000D02*
X87700001Y-87000000D01*
D58*
X86127500Y-84090000D02*
X85537500Y-83500000D01*
D50*
X106500000Y-92500000D02*
X108500000Y-92500000D01*
X110000000Y-99000000D02*
X110000000Y-96825000D01*
X85537500Y-82462500D02*
X86000000Y-82000000D01*
X88177500Y-79500000D02*
X88177500Y-81177500D01*
X113900000Y-81237500D02*
X113900000Y-81600000D01*
X97500000Y-92800000D02*
X96000000Y-92800000D01*
X110000000Y-96825000D02*
X110400000Y-96425000D01*
X108500000Y-92500000D02*
X109000000Y-92000000D01*
X101325000Y-85675000D02*
X102500000Y-84500000D01*
X90225000Y-104275000D02*
X93500000Y-101000000D01*
D57*
X87700001Y-87000000D02*
X86577501Y-85877500D01*
D50*
X101325000Y-85762500D02*
X101325000Y-85675000D01*
X113975000Y-83025000D02*
X113000000Y-84000000D01*
%TO.N,Net-(U3-BP)*%
X90190000Y-84215000D02*
X90190000Y-85602500D01*
X90190000Y-85602500D02*
X90637500Y-86050000D01*
%TO.N,+3V3*%
X99455000Y-80550000D02*
X100002500Y-80002500D01*
X94367500Y-80550000D02*
X99455000Y-80550000D01*
D58*
X100792500Y-79212500D02*
X108225000Y-79212500D01*
D50*
X102700000Y-77305000D02*
X100792500Y-79212500D01*
D58*
X90390000Y-89615000D02*
X90390000Y-91490000D01*
X90390000Y-89615000D02*
X100002500Y-80002500D01*
X90637500Y-87950000D02*
X90637500Y-89367500D01*
X100002500Y-80002500D02*
X100792500Y-79212500D01*
X90390000Y-91490000D02*
X90365000Y-91515000D01*
D50*
X102700000Y-76400000D02*
X102700000Y-77305000D01*
D58*
X90637500Y-89367500D02*
X90390000Y-89615000D01*
D54*
%TO.N,Net-(U2-VSYS)*%
X135500000Y-97000000D02*
X134862500Y-96362500D01*
X133700000Y-95688000D02*
X134818000Y-94570000D01*
X134862500Y-96362500D02*
X133700000Y-96362500D01*
X136462500Y-97000000D02*
X135500000Y-97000000D01*
X133700000Y-96362500D02*
X133700000Y-95688000D01*
D52*
%TO.N,VCC*%
X96808058Y-90191942D02*
X95100952Y-90191942D01*
X85565000Y-97435000D02*
X85500000Y-97500000D01*
D58*
X99062500Y-87525000D02*
X99025000Y-87562500D01*
D50*
X126500000Y-104500000D02*
X125500000Y-104500000D01*
D52*
X100000000Y-90900000D02*
X99025000Y-89925000D01*
X76000000Y-104500000D02*
X73912500Y-104500000D01*
X99025000Y-89925000D02*
X99025000Y-87562500D01*
D59*
X127925000Y-105725000D02*
X139362500Y-105725000D01*
X126600000Y-104400000D02*
X127925000Y-105725000D01*
D52*
X100525000Y-94412500D02*
X100525000Y-92950000D01*
X121362500Y-94425000D02*
X113425000Y-94425000D01*
D58*
X106175000Y-81699999D02*
X104175000Y-83699999D01*
D55*
X123937500Y-96000000D02*
X123937500Y-93725000D01*
D52*
X81825000Y-75825000D02*
X75650000Y-75825000D01*
X122937500Y-96000000D02*
X121362500Y-94425000D01*
D59*
X139362500Y-105725000D02*
X143087500Y-102000000D01*
D52*
X113425000Y-94425000D02*
X109425000Y-90425000D01*
X99025000Y-87562500D02*
X99025000Y-87975000D01*
X95100952Y-90191942D02*
X87857894Y-97435000D01*
D58*
X106175000Y-80962500D02*
X106175000Y-81699999D01*
D52*
X109425000Y-90425000D02*
X101887500Y-90425000D01*
X85500000Y-79500000D02*
X81825000Y-75825000D01*
D58*
X104175000Y-83699999D02*
X104175000Y-87525000D01*
D52*
X99025000Y-87562500D02*
X97062500Y-87562500D01*
D58*
X104175000Y-87525000D02*
X99062500Y-87525000D01*
D52*
X143087500Y-102000000D02*
X143087500Y-102475000D01*
X82000000Y-98500000D02*
X76000000Y-104500000D01*
X97062500Y-87562500D02*
X96000000Y-86500000D01*
D50*
X126600000Y-104400000D02*
X126500000Y-104500000D01*
D52*
X86500000Y-79500000D02*
X85500000Y-79500000D01*
X123937500Y-96000000D02*
X122937500Y-96000000D01*
X87857894Y-97435000D02*
X85565000Y-97435000D01*
X101887500Y-90425000D02*
X99025000Y-87562500D01*
X100525000Y-92950000D02*
X100500000Y-92925000D01*
X99025000Y-87975000D02*
X98000000Y-89000000D01*
X89500000Y-79500000D02*
X94000000Y-84000000D01*
D56*
%TO.N,Net-(LED10-VDD)*%
X141262500Y-72325000D02*
X141262500Y-70127500D01*
X141262500Y-70127500D02*
X141265000Y-70125000D01*
D54*
%TO.N,Net-(U2-LX)*%
X140500000Y-88500000D02*
X141000000Y-88500000D01*
X142500000Y-95362500D02*
X142500000Y-97000000D01*
X138500000Y-88500000D02*
X135600000Y-85600000D01*
X139750000Y-89250000D02*
X139500000Y-89000000D01*
X141000000Y-88500000D02*
X139500000Y-88500000D01*
X139750000Y-89250000D02*
X140500000Y-88500000D01*
X135600000Y-85600000D02*
X135600000Y-85000000D01*
X142500000Y-95362500D02*
X143137500Y-96000000D01*
X135600000Y-87375000D02*
X135600000Y-85000000D01*
X139500000Y-89000000D02*
X137225000Y-89000000D01*
X140974500Y-95362500D02*
X142500000Y-95362500D01*
X143137500Y-96000000D02*
X144000000Y-96000000D01*
X137225000Y-89000000D02*
X135600000Y-87375000D01*
X140182000Y-94570000D02*
X140974500Y-95362500D01*
X140500000Y-88500000D02*
X138500000Y-88500000D01*
%TO.N,Net-(U2-BST)*%
X140182000Y-93300000D02*
X142162500Y-93300000D01*
X142162500Y-93300000D02*
X142500000Y-93637500D01*
D50*
%TO.N,Net-(C28-Pad1)*%
X144237500Y-90512500D02*
X144225000Y-90525000D01*
X145925000Y-88037500D02*
X145925000Y-88825000D01*
X140500000Y-86500000D02*
X139050000Y-86500000D01*
X146125000Y-90512500D02*
X145494000Y-90512500D01*
X142000000Y-88000000D02*
X140500000Y-86500000D01*
X141600000Y-82800000D02*
X139400000Y-85000000D01*
X146662500Y-89975000D02*
X146125000Y-90512500D01*
X147887500Y-88037500D02*
X148075000Y-88225000D01*
X141600000Y-81400000D02*
X141600000Y-82800000D01*
X145494000Y-90512500D02*
X144856500Y-89875000D01*
X146125000Y-90512500D02*
X146125000Y-88237500D01*
X148075000Y-89975000D02*
X146662500Y-89975000D01*
X148075000Y-88225000D02*
X148075000Y-90825000D01*
X145925000Y-88037500D02*
X147887500Y-88037500D01*
X148075000Y-90825000D02*
X146437500Y-90825000D01*
X145925000Y-88056500D02*
X145925000Y-88037500D01*
X144225000Y-90275000D02*
X145375000Y-89125000D01*
X146125000Y-90512500D02*
X144237500Y-90512500D01*
X145925000Y-88825000D02*
X144225000Y-90525000D01*
X142720000Y-87000000D02*
X141220000Y-85500000D01*
X146125000Y-88237500D02*
X145925000Y-88037500D01*
X146437500Y-90825000D02*
X146125000Y-90512500D01*
X141220000Y-85500000D02*
X140050000Y-85500000D01*
X145375000Y-89125000D02*
X148075000Y-89125000D01*
X140050000Y-85500000D02*
X139050000Y-86500000D01*
X144856500Y-89125000D02*
X145925000Y-88056500D01*
X144225000Y-90525000D02*
X144225000Y-90275000D01*
D54*
%TO.N,Net-(U2-VIN)*%
X144225000Y-92350000D02*
X144225000Y-94487500D01*
X143905000Y-92030000D02*
X140182000Y-92030000D01*
X144225000Y-94487500D02*
X144187500Y-94525000D01*
X144225000Y-92350000D02*
X143905000Y-92030000D01*
D58*
%TO.N,Net-(C37-Pad1)*%
X93675000Y-104000000D02*
X92000000Y-104000000D01*
X93712500Y-105750000D02*
X93712500Y-104037500D01*
X93662500Y-105700000D02*
X93712500Y-105750000D01*
X91950000Y-105700000D02*
X93662500Y-105700000D01*
X93712500Y-104037500D02*
X93675000Y-104000000D01*
X92000000Y-104000000D02*
X92000000Y-105650000D01*
X92000000Y-105650000D02*
X91950000Y-105700000D01*
D52*
%TO.N,/KEY*%
X113500000Y-78000000D02*
X111500000Y-78000000D01*
X114725000Y-78225000D02*
X114500000Y-78000000D01*
X112600000Y-86275000D02*
X114725000Y-84150000D01*
X114725000Y-84150000D02*
X114725000Y-78225000D01*
X114500000Y-78000000D02*
X113500000Y-78000000D01*
X113500000Y-78000000D02*
X128575000Y-78000000D01*
X111500000Y-78000000D02*
X110125000Y-76625000D01*
D50*
%TO.N,Net-(D2-A)*%
X144000000Y-78025000D02*
X145637500Y-78025000D01*
X145637500Y-78025000D02*
X145725000Y-78112500D01*
D52*
%TO.N,Net-(D13-A)*%
X74000000Y-75650000D02*
X73825000Y-75825000D01*
X74000000Y-74500000D02*
X74000000Y-75650000D01*
%TO.N,/ESP_TX*%
X124300001Y-79000000D02*
X128575000Y-79000000D01*
X119025000Y-89525000D02*
X119350000Y-89525000D01*
X120450000Y-82850001D02*
X124300001Y-79000000D01*
X120450000Y-88425000D02*
X120450000Y-82850001D01*
X119350000Y-89525000D02*
X120450000Y-88425000D01*
%TO.N,/ESP_RX*%
X120950000Y-89925000D02*
X120950000Y-83349999D01*
X120950000Y-83349999D02*
X124299999Y-80000000D01*
X124299999Y-80000000D02*
X128575000Y-80000000D01*
X119350000Y-91525000D02*
X120950000Y-89925000D01*
X119025000Y-91525000D02*
X119350000Y-91525000D01*
D59*
%TO.N,Net-(LED1-DO)*%
X139900000Y-70975000D02*
X122790000Y-70975000D01*
X122525000Y-70710000D02*
X122525000Y-70025000D01*
X140425000Y-70450000D02*
X139900000Y-70975000D01*
X122790000Y-70975000D02*
X122525000Y-70710000D01*
X140425000Y-70125000D02*
X140425000Y-70450000D01*
%TO.N,Net-(LED1-DI)*%
X100425000Y-69275000D02*
X100425000Y-70125000D01*
X100500000Y-69200000D02*
X100425000Y-69275000D01*
X120370000Y-70500000D02*
X103165000Y-70500000D01*
X120845000Y-70025000D02*
X120370000Y-70500000D01*
X103165000Y-70500000D02*
X101865000Y-69200000D01*
X101865000Y-69200000D02*
X100500000Y-69200000D01*
%TO.N,Net-(LED2-DI)*%
X82485000Y-70735000D02*
X82485000Y-70125000D01*
X82875000Y-71125000D02*
X82485000Y-70735000D01*
X98745000Y-70125000D02*
X97745000Y-71125000D01*
X97745000Y-71125000D02*
X82875000Y-71125000D01*
%TO.N,Net-(LED3-DI)*%
X68402076Y-78885000D02*
X65945000Y-78885000D01*
X77162076Y-70125000D02*
X68402076Y-78885000D01*
X65945000Y-78885000D02*
X65925000Y-78865000D01*
X80805000Y-70125000D02*
X77162076Y-70125000D01*
%TO.N,Net-(LED4-DI)*%
X66850000Y-99890000D02*
X66775000Y-99965000D01*
X65900000Y-80570000D02*
X65900000Y-97575000D01*
X65925000Y-80545000D02*
X65900000Y-80570000D01*
X65900000Y-97575000D02*
X66850000Y-98525000D01*
X66850000Y-98525000D02*
X66850000Y-99890000D01*
X66775000Y-99965000D02*
X65925000Y-99965000D01*
%TO.N,Net-(LED5-DI)*%
X65925000Y-101645000D02*
X72020000Y-107740000D01*
X72020000Y-107740000D02*
X81613250Y-107740000D01*
X81688250Y-107815000D02*
X81688250Y-108665000D01*
X81613250Y-107740000D02*
X81688250Y-107815000D01*
%TO.N,Net-(LED6-DI)*%
X99827500Y-107800000D02*
X99902500Y-107875000D01*
X99902500Y-107875000D02*
X99902500Y-108725000D01*
X83368250Y-108665000D02*
X84233250Y-107800000D01*
X84233250Y-107800000D02*
X99827500Y-107800000D01*
D52*
%TO.N,/RGB*%
X100400000Y-105800000D02*
X100400000Y-104100000D01*
X101582500Y-107917500D02*
X102000000Y-107500000D01*
X100400000Y-104100000D02*
X102975000Y-101525000D01*
X101582500Y-108725000D02*
X101582500Y-107917500D01*
X102975000Y-101525000D02*
X104175000Y-101525000D01*
D59*
%TO.N,Net-(LED8-DI)*%
X151975000Y-80085000D02*
X152825000Y-80085000D01*
X151861500Y-80198500D02*
X151975000Y-80085000D01*
X152925000Y-99485000D02*
X151861500Y-98421500D01*
X151861500Y-98421500D02*
X151861500Y-80198500D01*
%TO.N,Net-(LED10-DO)*%
X142105000Y-69275000D02*
X142105000Y-70125000D01*
X152825000Y-78405000D02*
X143620000Y-69200000D01*
X142180000Y-69200000D02*
X142105000Y-69275000D01*
X143620000Y-69200000D02*
X142180000Y-69200000D01*
D50*
%TO.N,Net-(Q1-G)*%
X92743306Y-98672500D02*
X92668306Y-98747500D01*
X92712500Y-96525000D02*
X92770806Y-96525000D01*
X92668306Y-98747500D02*
X92668306Y-96569194D01*
X94918306Y-98672500D02*
X92743306Y-98672500D01*
X92770806Y-96525000D02*
X94918306Y-98672500D01*
X92668306Y-96569194D02*
X92712500Y-96525000D01*
D52*
%TO.N,/POWER_EN*%
X109800000Y-86925000D02*
X109800000Y-84023762D01*
X112225000Y-79225000D02*
X113712500Y-79225000D01*
X107200000Y-89525000D02*
X109800000Y-86925000D01*
X112225000Y-81598762D02*
X112225000Y-79225000D01*
X113712500Y-79225000D02*
X113900000Y-79412500D01*
X109800000Y-84023762D02*
X112225000Y-81598762D01*
X104175000Y-89525000D02*
X107200000Y-89525000D01*
D54*
%TO.N,Net-(U2-LED)*%
X140182000Y-90760000D02*
X141307000Y-90760000D01*
X141307000Y-90760000D02*
X143720000Y-88347000D01*
X143720000Y-88347000D02*
X143720000Y-81942500D01*
X143720000Y-81942500D02*
X145725000Y-79937500D01*
D52*
%TO.N,/BAT_FB*%
X104175000Y-99525000D02*
X103475000Y-99525000D01*
X97250000Y-105750000D02*
X95537500Y-105750000D01*
X103475000Y-99525000D02*
X97250000Y-105750000D01*
D54*
%TO.N,Net-(U2-NTC)*%
X134818000Y-90760000D02*
X132647500Y-90760000D01*
X132647500Y-90760000D02*
X132412500Y-90525000D01*
D52*
%TO.N,/EN*%
X124500000Y-101500000D02*
X135800000Y-101500000D01*
X117600000Y-98625000D02*
X121625000Y-98625000D01*
X121625000Y-98625000D02*
X124500000Y-101500000D01*
X116475000Y-99750000D02*
X117600000Y-98625000D01*
X106750000Y-99750000D02*
X116475000Y-99750000D01*
X135800000Y-101500000D02*
X133900000Y-103400000D01*
D55*
X101812500Y-97525000D02*
X104175000Y-97525000D01*
D52*
X104175000Y-97525000D02*
X104525000Y-97525000D01*
D55*
X100525000Y-96237500D02*
X101812500Y-97525000D01*
D52*
X100500000Y-98137500D02*
X103562500Y-98137500D01*
X104525000Y-97525000D02*
X106750000Y-99750000D01*
D55*
X104175000Y-97525000D02*
X101962500Y-97525000D01*
D52*
X133900000Y-103400000D02*
X133900000Y-104500000D01*
X103562500Y-98137500D02*
X104175000Y-97525000D01*
D59*
%TO.N,/TXD*%
X128100000Y-103500000D02*
X129000000Y-104400000D01*
X120025000Y-101525000D02*
X122000000Y-103500000D01*
X122000000Y-103500000D02*
X128100000Y-103500000D01*
X119025000Y-101525000D02*
X120025000Y-101525000D01*
D55*
X119025000Y-101525000D02*
X119550000Y-101525000D01*
D52*
%TO.N,/RXD*%
X122887500Y-102887500D02*
X119525000Y-99525000D01*
X129887500Y-102887500D02*
X122887500Y-102887500D01*
X131500000Y-104500000D02*
X129887500Y-102887500D01*
X119525000Y-99525000D02*
X119025000Y-99525000D01*
D55*
%TO.N,/IO9*%
X122112500Y-93725000D02*
X119225000Y-93725000D01*
D52*
X136300000Y-104500000D02*
X136799999Y-104000001D01*
D55*
X119225000Y-93725000D02*
X119025000Y-93525000D01*
D52*
X136799999Y-100399999D02*
X136450000Y-100050000D01*
D55*
X131108142Y-99500000D02*
X124458142Y-92850000D01*
X122987500Y-92850000D02*
X122112500Y-93725000D01*
D52*
X136799999Y-104000001D02*
X136799999Y-100399999D01*
D55*
X124458142Y-92850000D02*
X122987500Y-92850000D01*
X135900000Y-99500000D02*
X131108142Y-99500000D01*
X136450000Y-100050000D02*
X135900000Y-99500000D01*
D59*
%TO.N,Net-(LED12-DI)*%
X152075000Y-101165000D02*
X152925000Y-101165000D01*
X152000000Y-102389555D02*
X152000000Y-101240000D01*
X145464555Y-108925000D02*
X152000000Y-102389555D01*
X144005000Y-108925000D02*
X145464555Y-108925000D01*
X152000000Y-101240000D02*
X152075000Y-101165000D01*
%TO.N,Net-(LED11-DI)*%
X123893250Y-108340000D02*
X124418250Y-107815000D01*
X123893250Y-108665000D02*
X123893250Y-108340000D01*
X141900000Y-107815000D02*
X142325000Y-108240000D01*
X142325000Y-108240000D02*
X142325000Y-108925000D01*
X124418250Y-107815000D02*
X141900000Y-107815000D01*
D52*
%TO.N,Net-(SW3-A)*%
X109175000Y-74675000D02*
X108500000Y-74000000D01*
X109175000Y-74750000D02*
X109175000Y-74675000D01*
X108500000Y-72300000D02*
X109425000Y-71375000D01*
X108000000Y-69675000D02*
X109425000Y-69675000D01*
X109425000Y-71375000D02*
X108275000Y-71375000D01*
X108500000Y-72325000D02*
X108500000Y-72300000D01*
X108275000Y-71375000D02*
X108000000Y-71100000D01*
%TO.N,Net-(Q2-G)*%
X110325000Y-79225000D02*
X110037500Y-79225000D01*
X105000000Y-80500000D02*
X104737500Y-80500000D01*
X108225000Y-77125000D02*
X108225000Y-76625000D01*
X110037500Y-79225000D02*
X108225000Y-81037500D01*
X107850000Y-81037500D02*
X107000000Y-80187500D01*
X104737500Y-80500000D02*
X104275000Y-80962500D01*
X110325000Y-79225000D02*
X108225000Y-77125000D01*
X108225000Y-81037500D02*
X107850000Y-81037500D01*
%TO.N,/GREEN*%
X85217498Y-98135000D02*
X84000000Y-99352498D01*
X101025000Y-92025000D02*
X102525000Y-93525000D01*
X87098898Y-98135000D02*
X85217498Y-98135000D01*
X102525000Y-93525000D02*
X104175000Y-93525000D01*
X87298898Y-97935000D02*
X87098898Y-98135000D01*
X88065000Y-97935000D02*
X87298898Y-97935000D01*
X101025000Y-92025000D02*
X98817893Y-92025000D01*
X94000000Y-92000000D02*
X88065000Y-97935000D01*
X104700000Y-93525000D02*
X104175000Y-93525000D01*
X98817893Y-92025000D02*
X98792893Y-92000000D01*
X98792893Y-92000000D02*
X94000000Y-92000000D01*
%TO.N,Net-(D3-A)*%
X71587500Y-104000000D02*
X72087500Y-104500000D01*
X69500000Y-104000000D02*
X71587500Y-104000000D01*
%TO.N,Net-(D4-A)*%
X145000000Y-103800000D02*
X145000000Y-102087500D01*
X145000000Y-102087500D02*
X144912500Y-102000000D01*
%TO.N,/YELLOW*%
X119550000Y-97525000D02*
X119575000Y-97500000D01*
X119025000Y-97525000D02*
X119550000Y-97525000D01*
X121500000Y-97500000D02*
X124462888Y-100462888D01*
X124462888Y-100462888D02*
X134913405Y-100462888D01*
X119575000Y-97500000D02*
X121500000Y-97500000D01*
X126075388Y-100462888D02*
X134913405Y-100462888D01*
%TO.N,/BLUE*%
X99025000Y-91525000D02*
X94500000Y-87000000D01*
X73000000Y-76500000D02*
X72000000Y-76500000D01*
X77000000Y-80500000D02*
X73000000Y-76500000D01*
X86500000Y-80500000D02*
X77000000Y-80500000D01*
X89000000Y-80500000D02*
X93500000Y-85000000D01*
X104175000Y-91525000D02*
X99025000Y-91525000D01*
%TO.N,/BEEP*%
X95662500Y-95400000D02*
X94537500Y-96525000D01*
X104050000Y-95400000D02*
X95662500Y-95400000D01*
X104175000Y-95525000D02*
X104050000Y-95400000D01*
D50*
%TO.N,Net-(D6-A)*%
X92542500Y-80550000D02*
X92542500Y-78582500D01*
X92542500Y-78582500D02*
X92625000Y-78500000D01*
%TD*%
%TA.AperFunction,Conductor*%
%TO.N,Net-(C28-Pad1)*%
G36*
X144801994Y-87012960D02*
G01*
X144825000Y-87025000D01*
X146227121Y-87105891D01*
X146292914Y-87129404D01*
X146335552Y-87184756D01*
X146338287Y-87192549D01*
X146352729Y-87238559D01*
X146363248Y-87272073D01*
X146428778Y-87370000D01*
X146443267Y-87391651D01*
X146479413Y-87431837D01*
X146480418Y-87433934D01*
X146486873Y-87440389D01*
X146491384Y-87445145D01*
X146507255Y-87462790D01*
X146520747Y-87474264D01*
X146637612Y-87591129D01*
X146641444Y-87595136D01*
X146649479Y-87603924D01*
X146654469Y-87608327D01*
X146660107Y-87613624D01*
X146665775Y-87619292D01*
X146665801Y-87619262D01*
X146667549Y-87620684D01*
X146668171Y-87621161D01*
X146668469Y-87621432D01*
X146668480Y-87621441D01*
X146668487Y-87621448D01*
X146755912Y-87692567D01*
X146886789Y-87752338D01*
X146953828Y-87772023D01*
X146953832Y-87772024D01*
X147096248Y-87792500D01*
X147096251Y-87792500D01*
X147274782Y-87792500D01*
X147274867Y-87792500D01*
X147279577Y-87792478D01*
X147281938Y-87792456D01*
X147286858Y-87792386D01*
X147428858Y-87769201D01*
X147467906Y-87756922D01*
X147495502Y-87748246D01*
X147495503Y-87748245D01*
X147495510Y-87748243D01*
X147625215Y-87685997D01*
X147732141Y-87589724D01*
X147771504Y-87542509D01*
X147829551Y-87503625D01*
X147899408Y-87502294D01*
X147958895Y-87538943D01*
X147987522Y-87593828D01*
X147992458Y-87615054D01*
X147992458Y-87615055D01*
X147992458Y-87615056D01*
X147992459Y-87615057D01*
X148056225Y-87727976D01*
X148063206Y-87740339D01*
X148063211Y-87740347D01*
X148078095Y-87759649D01*
X148105871Y-87795671D01*
X148105876Y-87795677D01*
X148206308Y-87893283D01*
X148209058Y-87895955D01*
X148209062Y-87895958D01*
X148296576Y-87959541D01*
X148315839Y-87976886D01*
X148346925Y-88011410D01*
X148362162Y-88032382D01*
X148385390Y-88072613D01*
X148395935Y-88096297D01*
X148410291Y-88140481D01*
X148415681Y-88165836D01*
X148420537Y-88212037D01*
X148420537Y-88237960D01*
X148415681Y-88284163D01*
X148410291Y-88309520D01*
X148380636Y-88400788D01*
X148377267Y-88409921D01*
X148353837Y-88466488D01*
X148337225Y-88528483D01*
X148337223Y-88528492D01*
X148320000Y-88659319D01*
X148320000Y-88690685D01*
X148337224Y-88821508D01*
X148337225Y-88821512D01*
X148353838Y-88883512D01*
X148369381Y-88921037D01*
X148377266Y-88940074D01*
X148380635Y-88949207D01*
X148397278Y-89000430D01*
X148410291Y-89040478D01*
X148415681Y-89065835D01*
X148420537Y-89112038D01*
X148420537Y-89137960D01*
X148415681Y-89184163D01*
X148410291Y-89209520D01*
X148379175Y-89305286D01*
X148375232Y-89315780D01*
X148362470Y-89345582D01*
X148345995Y-89401691D01*
X148345995Y-89401692D01*
X148326093Y-89520062D01*
X148339772Y-89663281D01*
X148339775Y-89663297D01*
X148355653Y-89728745D01*
X148356040Y-89730496D01*
X148356247Y-89731188D01*
X148356248Y-89731193D01*
X148358974Y-89738002D01*
X148366859Y-89757698D01*
X148369672Y-89765464D01*
X148387278Y-89819649D01*
X148409401Y-89887738D01*
X148410291Y-89890475D01*
X148415681Y-89915833D01*
X148420537Y-89962038D01*
X148420537Y-89987960D01*
X148415681Y-90034163D01*
X148410291Y-90059520D01*
X148379175Y-90155286D01*
X148375232Y-90165780D01*
X148362470Y-90195582D01*
X148345995Y-90251691D01*
X148345995Y-90251692D01*
X148338461Y-90296504D01*
X148327202Y-90363468D01*
X148326093Y-90370062D01*
X148339772Y-90513281D01*
X148339775Y-90513297D01*
X148355653Y-90578745D01*
X148356040Y-90580496D01*
X148356247Y-90581188D01*
X148356248Y-90581193D01*
X148359965Y-90590476D01*
X148366859Y-90607698D01*
X148369672Y-90615464D01*
X148410291Y-90740475D01*
X148415681Y-90765833D01*
X148420537Y-90812038D01*
X148420537Y-90837961D01*
X148415681Y-90884162D01*
X148410292Y-90909516D01*
X148407144Y-90919205D01*
X148367707Y-90976881D01*
X148303349Y-91004081D01*
X148260274Y-91001465D01*
X143700401Y-89907095D01*
X143639806Y-89872309D01*
X143607638Y-89810285D01*
X143614109Y-89740716D01*
X143641653Y-89698844D01*
X144419463Y-88921036D01*
X144421412Y-88918119D01*
X144518013Y-88773547D01*
X144585894Y-88609666D01*
X144593875Y-88569544D01*
X144599695Y-88540286D01*
X144620500Y-88435694D01*
X144620500Y-87122826D01*
X144640185Y-87055787D01*
X144692989Y-87010032D01*
X144762147Y-87000088D01*
X144801994Y-87012960D01*
G37*
%TD.AperFunction*%
%TA.AperFunction,Conductor*%
G36*
X140027010Y-84514135D02*
G01*
X140467958Y-84744890D01*
X140518229Y-84793414D01*
X140528118Y-84815596D01*
X140551882Y-84886997D01*
X140551885Y-84887003D01*
X140629670Y-85008037D01*
X140629678Y-85008048D01*
X140675422Y-85060840D01*
X140675425Y-85060843D01*
X140675429Y-85060847D01*
X140784163Y-85155067D01*
X140784166Y-85155068D01*
X140784167Y-85155069D01*
X140914218Y-85214463D01*
X140915040Y-85214838D01*
X140982079Y-85234523D01*
X140982083Y-85234524D01*
X141124499Y-85255000D01*
X141231917Y-85255000D01*
X141256105Y-85257382D01*
X141273215Y-85260785D01*
X141279481Y-85262031D01*
X141302740Y-85269086D01*
X141324766Y-85278209D01*
X141346200Y-85289665D01*
X141366036Y-85302919D01*
X141384823Y-85318338D01*
X142250353Y-86183869D01*
X142250377Y-86183892D01*
X142263339Y-86196401D01*
X142269817Y-86202433D01*
X142283265Y-86214514D01*
X142404305Y-86292301D01*
X142404310Y-86292303D01*
X142404315Y-86292306D01*
X142425352Y-86301913D01*
X142467438Y-86321133D01*
X142467849Y-86321322D01*
X142467858Y-86321324D01*
X142467861Y-86321326D01*
X142467864Y-86321328D01*
X142605917Y-86361862D01*
X142695500Y-86361861D01*
X142762538Y-86381545D01*
X142808294Y-86434348D01*
X142819500Y-86485861D01*
X142819500Y-87922638D01*
X142799815Y-87989677D01*
X142783181Y-88010319D01*
X142112181Y-88681319D01*
X142050858Y-88714804D01*
X141981166Y-88709820D01*
X141925233Y-88667948D01*
X141900816Y-88602484D01*
X141900500Y-88593638D01*
X141900500Y-88553692D01*
X141901179Y-88540731D01*
X141901226Y-88540286D01*
X141905460Y-88500000D01*
X141901179Y-88459266D01*
X141900500Y-88446306D01*
X141900500Y-88411309D01*
X141898407Y-88400788D01*
X141892358Y-88370383D01*
X141890656Y-88359156D01*
X141889193Y-88345232D01*
X141885674Y-88311744D01*
X141875094Y-88279183D01*
X141871409Y-88265059D01*
X141865895Y-88237339D01*
X141865894Y-88237338D01*
X141865894Y-88237334D01*
X141847352Y-88192569D01*
X141843990Y-88183455D01*
X141827181Y-88131720D01*
X141826288Y-88130173D01*
X141813424Y-88107892D01*
X141806256Y-88093355D01*
X141799318Y-88076605D01*
X141798013Y-88073453D01*
X141767359Y-88027577D01*
X141763088Y-88020708D01*
X141732534Y-87967785D01*
X141732530Y-87967780D01*
X141718637Y-87952350D01*
X141707684Y-87938268D01*
X141702812Y-87930976D01*
X141699464Y-87925965D01*
X141655724Y-87882225D01*
X141651255Y-87877516D01*
X141605871Y-87827112D01*
X141594528Y-87818871D01*
X141579737Y-87806238D01*
X141574035Y-87800536D01*
X141517008Y-87762431D01*
X141513016Y-87759649D01*
X141452730Y-87715849D01*
X141446092Y-87712893D01*
X141427643Y-87702719D01*
X141426551Y-87701989D01*
X141426546Y-87701986D01*
X141356993Y-87673177D01*
X141354010Y-87671895D01*
X141279806Y-87638856D01*
X141279797Y-87638853D01*
X141279285Y-87638745D01*
X141268626Y-87635438D01*
X141268494Y-87635874D01*
X141262667Y-87634106D01*
X141262666Y-87634106D01*
X141262663Y-87634105D01*
X141262662Y-87634105D01*
X141182268Y-87618113D01*
X141180715Y-87617794D01*
X141094646Y-87599500D01*
X141094642Y-87599500D01*
X138924361Y-87599500D01*
X138857322Y-87579815D01*
X138836680Y-87563181D01*
X138117442Y-86843942D01*
X138083957Y-86782619D01*
X138088941Y-86712927D01*
X138111408Y-86675060D01*
X138205067Y-86566975D01*
X138264838Y-86436098D01*
X138284523Y-86369059D01*
X138284524Y-86369055D01*
X138305000Y-86226639D01*
X138305000Y-84624000D01*
X138324685Y-84556961D01*
X138377489Y-84511206D01*
X138429000Y-84500000D01*
X139969516Y-84500000D01*
X140027010Y-84514135D01*
G37*
%TD.AperFunction*%
%TD*%
%TA.AperFunction,Conductor*%
%TO.N,+BATT*%
G36*
X72054263Y-79607709D02*
G01*
X72070524Y-79611165D01*
X72109987Y-79619552D01*
X72134638Y-79627562D01*
X72186684Y-79650734D01*
X72209127Y-79663692D01*
X72255215Y-79697177D01*
X72274479Y-79714522D01*
X72312600Y-79756860D01*
X72327837Y-79777831D01*
X72356322Y-79827168D01*
X72366864Y-79850848D01*
X72384468Y-79905029D01*
X72389857Y-79930381D01*
X72394098Y-79970724D01*
X72396345Y-79988931D01*
X72397605Y-79997801D01*
X72400499Y-80015839D01*
X72400501Y-80015845D01*
X72445753Y-80152419D01*
X72476945Y-80214941D01*
X72558843Y-80333237D01*
X72558845Y-80333238D01*
X72670751Y-80423666D01*
X72670752Y-80423667D01*
X72670754Y-80423668D01*
X72730795Y-80459401D01*
X72863649Y-80514639D01*
X73006684Y-80530212D01*
X73076513Y-80527812D01*
X73076523Y-80527811D01*
X73170336Y-80511012D01*
X73179563Y-80509717D01*
X73206930Y-80506921D01*
X73219456Y-80505642D01*
X73232057Y-80505000D01*
X73942944Y-80505000D01*
X73955512Y-80505639D01*
X73955873Y-80505675D01*
X73957803Y-80505872D01*
X73984234Y-80511526D01*
X74015491Y-80521884D01*
X74041575Y-80534048D01*
X74065661Y-80548904D01*
X74088243Y-80566759D01*
X74139057Y-80617573D01*
X74145089Y-80624052D01*
X74163496Y-80645295D01*
X74163512Y-80645313D01*
X74212064Y-80692975D01*
X74221637Y-80702373D01*
X74344096Y-80777908D01*
X74408178Y-80805752D01*
X74408723Y-80805901D01*
X74408885Y-80806000D01*
X74412351Y-80807221D01*
X74412085Y-80807974D01*
X74468191Y-80842579D01*
X74498390Y-80905586D01*
X74500000Y-80925505D01*
X74500000Y-82479948D01*
X74480315Y-82546987D01*
X74463681Y-82567629D01*
X74404661Y-82626648D01*
X74314093Y-82773481D01*
X74314091Y-82773486D01*
X74288456Y-82850848D01*
X74259826Y-82937247D01*
X74259826Y-82937248D01*
X74259825Y-82937248D01*
X74249500Y-83038315D01*
X74249500Y-83611669D01*
X74249501Y-83611687D01*
X74259825Y-83712752D01*
X74282630Y-83781571D01*
X74314092Y-83876516D01*
X74403423Y-84021345D01*
X74404661Y-84023351D01*
X74463681Y-84082371D01*
X74497166Y-84143694D01*
X74500000Y-84170052D01*
X74500000Y-84500000D01*
X75033913Y-84713565D01*
X75088847Y-84756739D01*
X75111719Y-84822759D01*
X75111182Y-84841657D01*
X75099743Y-84950500D01*
X75094540Y-85000000D01*
X75114326Y-85188256D01*
X75114327Y-85188259D01*
X75172818Y-85368277D01*
X75172821Y-85368284D01*
X75267467Y-85532216D01*
X75378083Y-85655067D01*
X75394129Y-85672888D01*
X75547265Y-85784148D01*
X75547270Y-85784151D01*
X75720191Y-85861142D01*
X75720197Y-85861144D01*
X75785329Y-85874988D01*
X75841061Y-85905076D01*
X75841874Y-85904086D01*
X75846584Y-85907951D01*
X75969498Y-85990080D01*
X75969511Y-85990087D01*
X76068140Y-86030940D01*
X76106087Y-86046658D01*
X76106091Y-86046658D01*
X76106092Y-86046659D01*
X76251079Y-86075500D01*
X76251082Y-86075500D01*
X76636126Y-86075500D01*
X76703165Y-86095185D01*
X76748920Y-86147989D01*
X76758864Y-86217147D01*
X76753763Y-86238708D01*
X76514992Y-86955026D01*
X76336763Y-87489712D01*
X76296889Y-87547087D01*
X76232325Y-87573795D01*
X76219126Y-87574500D01*
X73127262Y-87574500D01*
X73060223Y-87554815D01*
X73039581Y-87538181D01*
X72587441Y-87086041D01*
X72553956Y-87024718D01*
X72558940Y-86955026D01*
X72581405Y-86917163D01*
X72675067Y-86809074D01*
X72734838Y-86678197D01*
X72754523Y-86611158D01*
X72754524Y-86611154D01*
X72775000Y-86468738D01*
X72775000Y-86008361D01*
X72794685Y-85941322D01*
X72798408Y-85935853D01*
X72836127Y-85883547D01*
X72858596Y-85845677D01*
X72883917Y-85792751D01*
X72897486Y-85764390D01*
X72897487Y-85764387D01*
X72928067Y-85623808D01*
X72928067Y-85623804D01*
X72928069Y-85623797D01*
X72933053Y-85554106D01*
X72922789Y-85410595D01*
X72872507Y-85275786D01*
X72839022Y-85214463D01*
X72839020Y-85214460D01*
X72752804Y-85099288D01*
X72752788Y-85099270D01*
X71818337Y-84164821D01*
X71802916Y-84146031D01*
X71789664Y-84126198D01*
X71778208Y-84104765D01*
X71776027Y-84099500D01*
X71769085Y-84082740D01*
X71762031Y-84059487D01*
X71757380Y-84036105D01*
X71754999Y-84011920D01*
X71754999Y-83781571D01*
X71755000Y-83534322D01*
X71737775Y-83403487D01*
X71721162Y-83341487D01*
X71670662Y-83219570D01*
X71670659Y-83219565D01*
X71670658Y-83219562D01*
X71670655Y-83219557D01*
X71643678Y-83172832D01*
X71633135Y-83149154D01*
X71615529Y-83094969D01*
X71610142Y-83069625D01*
X71604186Y-83012956D01*
X71604186Y-82987037D01*
X71607429Y-82956180D01*
X71610141Y-82930374D01*
X71615527Y-82905034D01*
X71633135Y-82850842D01*
X71643679Y-82827163D01*
X71650851Y-82814742D01*
X71698097Y-82704409D01*
X71714568Y-82648312D01*
X71734470Y-82529963D01*
X71720796Y-82386734D01*
X71704325Y-82318834D01*
X71704323Y-82318826D01*
X71650848Y-82185252D01*
X71644477Y-82174218D01*
X71643679Y-82172835D01*
X71633134Y-82149152D01*
X71615529Y-82094968D01*
X71610142Y-82069625D01*
X71604186Y-82012956D01*
X71604186Y-81987037D01*
X71604647Y-81982652D01*
X71610141Y-81930374D01*
X71615528Y-81905033D01*
X71633135Y-81850843D01*
X71643679Y-81827164D01*
X71650849Y-81814746D01*
X71698098Y-81704408D01*
X71714569Y-81648310D01*
X71734470Y-81529963D01*
X71720796Y-81386734D01*
X71704325Y-81318834D01*
X71704323Y-81318826D01*
X71650848Y-81185252D01*
X71643679Y-81172835D01*
X71633134Y-81149152D01*
X71615529Y-81094968D01*
X71610142Y-81069625D01*
X71604186Y-81012956D01*
X71604186Y-80987037D01*
X71605859Y-80971117D01*
X71610141Y-80930374D01*
X71615527Y-80905034D01*
X71633135Y-80850842D01*
X71643679Y-80827163D01*
X71650851Y-80814742D01*
X71698097Y-80704409D01*
X71714568Y-80648312D01*
X71734470Y-80529963D01*
X71720796Y-80386734D01*
X71704325Y-80318834D01*
X71704323Y-80318826D01*
X71650848Y-80185252D01*
X71643679Y-80172835D01*
X71633134Y-80149152D01*
X71615529Y-80094968D01*
X71610142Y-80069625D01*
X71604186Y-80012956D01*
X71604186Y-79987037D01*
X71610141Y-79930374D01*
X71615529Y-79905029D01*
X71633135Y-79850841D01*
X71643672Y-79827176D01*
X71672165Y-79777824D01*
X71687392Y-79756866D01*
X71725519Y-79714521D01*
X71744771Y-79697185D01*
X71790877Y-79663687D01*
X71813312Y-79650736D01*
X71865357Y-79627563D01*
X71889999Y-79619556D01*
X71945743Y-79607708D01*
X71971514Y-79605000D01*
X72028484Y-79605000D01*
X72054263Y-79607709D01*
G37*
%TD.AperFunction*%
%TD*%
%TA.AperFunction,Conductor*%
%TO.N,GNDD*%
G36*
X94153293Y-99442685D02*
G01*
X94173935Y-99459319D01*
X94211935Y-99497319D01*
X94245420Y-99558642D01*
X94240436Y-99628334D01*
X94211935Y-99672681D01*
X94097967Y-99786648D01*
X94007399Y-99933481D01*
X94007397Y-99933486D01*
X93990009Y-99985961D01*
X93953132Y-100097247D01*
X93953132Y-100097248D01*
X93953131Y-100097248D01*
X93942806Y-100198315D01*
X93942806Y-100796669D01*
X93942807Y-100796687D01*
X93953131Y-100897752D01*
X93987013Y-101000000D01*
X94006150Y-101057751D01*
X94007398Y-101061515D01*
X94007399Y-101061518D01*
X94024406Y-101089091D01*
X94080270Y-101179661D01*
X94097967Y-101208351D01*
X94131487Y-101241871D01*
X94164972Y-101303194D01*
X94167806Y-101329552D01*
X94167806Y-101492224D01*
X94167806Y-101492226D01*
X94167805Y-101492226D01*
X94196646Y-101637213D01*
X94196649Y-101637223D01*
X94253219Y-101773796D01*
X94253220Y-101773798D01*
X94278575Y-101811744D01*
X94278576Y-101811746D01*
X94335349Y-101896716D01*
X94335353Y-101896721D01*
X94587228Y-102148596D01*
X94617478Y-102197958D01*
X94672819Y-102368280D01*
X94672821Y-102368284D01*
X94767467Y-102532216D01*
X94784847Y-102551518D01*
X94894127Y-102672886D01*
X94894129Y-102672888D01*
X95047265Y-102784148D01*
X95047266Y-102784148D01*
X95047270Y-102784151D01*
X95099892Y-102807580D01*
X95153129Y-102852830D01*
X95173450Y-102919679D01*
X95154405Y-102986903D01*
X95102038Y-103033158D01*
X95088461Y-103038565D01*
X94935984Y-103089092D01*
X94935981Y-103089093D01*
X94789148Y-103179661D01*
X94675181Y-103293629D01*
X94613858Y-103327114D01*
X94544166Y-103322130D01*
X94499819Y-103293629D01*
X94385851Y-103179661D01*
X94385850Y-103179660D01*
X94257513Y-103100501D01*
X94239018Y-103089093D01*
X94239013Y-103089091D01*
X94206267Y-103078240D01*
X94075253Y-103034826D01*
X94075251Y-103034825D01*
X93974184Y-103024500D01*
X93974177Y-103024500D01*
X93911435Y-103024500D01*
X93887244Y-103022117D01*
X93851740Y-103015055D01*
X93773543Y-102999500D01*
X93773541Y-102999500D01*
X92098541Y-102999500D01*
X91901459Y-102999500D01*
X91868569Y-103006041D01*
X91787745Y-103022118D01*
X91763557Y-103024500D01*
X91700832Y-103024500D01*
X91700812Y-103024501D01*
X91599747Y-103034825D01*
X91435984Y-103089092D01*
X91435981Y-103089093D01*
X91289148Y-103179661D01*
X91167161Y-103301648D01*
X91076593Y-103448481D01*
X91076591Y-103448486D01*
X91072314Y-103461394D01*
X91022326Y-103612247D01*
X91022326Y-103612248D01*
X91022325Y-103612248D01*
X91012000Y-103713315D01*
X91012000Y-103826404D01*
X91009617Y-103850595D01*
X90999500Y-103901455D01*
X90999500Y-105076178D01*
X90981039Y-105141275D01*
X90976593Y-105148481D01*
X90976591Y-105148486D01*
X90957410Y-105206371D01*
X90922326Y-105312247D01*
X90922326Y-105312248D01*
X90922325Y-105312248D01*
X90912000Y-105413315D01*
X90912000Y-105986669D01*
X90912001Y-105986687D01*
X90922325Y-106087752D01*
X90950242Y-106171998D01*
X90976592Y-106251516D01*
X91067160Y-106398350D01*
X91189150Y-106520340D01*
X91335984Y-106610908D01*
X91499747Y-106665174D01*
X91600823Y-106675500D01*
X91713562Y-106675499D01*
X91737756Y-106677882D01*
X91851458Y-106700500D01*
X91851459Y-106700500D01*
X91851460Y-106700500D01*
X92048540Y-106700500D01*
X93247954Y-106700500D01*
X93286957Y-106706794D01*
X93301715Y-106711684D01*
X93312247Y-106715174D01*
X93413323Y-106725500D01*
X93476060Y-106725499D01*
X93500252Y-106727881D01*
X93580487Y-106743842D01*
X93597223Y-106747171D01*
X93613958Y-106750500D01*
X93613959Y-106750500D01*
X93811042Y-106750500D01*
X93811042Y-106750499D01*
X93924751Y-106727882D01*
X93948942Y-106725499D01*
X94011670Y-106725499D01*
X94011676Y-106725499D01*
X94112753Y-106715174D01*
X94276516Y-106660908D01*
X94423350Y-106570340D01*
X94537319Y-106456371D01*
X94598642Y-106422886D01*
X94668334Y-106427870D01*
X94712681Y-106456371D01*
X94826650Y-106570340D01*
X94973484Y-106660908D01*
X95137247Y-106715174D01*
X95238323Y-106725500D01*
X95836676Y-106725499D01*
X95836684Y-106725498D01*
X95836687Y-106725498D01*
X95892030Y-106719844D01*
X95937753Y-106715174D01*
X96101516Y-106660908D01*
X96248350Y-106570340D01*
X96370340Y-106448350D01*
X96370341Y-106448347D01*
X96370344Y-106448345D01*
X96370945Y-106447586D01*
X96371489Y-106447200D01*
X96375447Y-106443243D01*
X96376123Y-106443919D01*
X96427968Y-106407211D01*
X96468208Y-106400500D01*
X97314071Y-106400500D01*
X97430187Y-106377402D01*
X97439744Y-106375501D01*
X97558127Y-106326465D01*
X97583507Y-106309507D01*
X97583508Y-106309507D01*
X97644240Y-106268926D01*
X97664669Y-106255277D01*
X98237819Y-105682125D01*
X98299142Y-105648641D01*
X98368833Y-105653625D01*
X98424767Y-105695496D01*
X98449184Y-105760961D01*
X98449500Y-105769807D01*
X98449500Y-105942948D01*
X98429815Y-106009987D01*
X98413181Y-106030629D01*
X98317161Y-106126648D01*
X98226593Y-106273481D01*
X98226592Y-106273484D01*
X98172326Y-106437247D01*
X98172326Y-106437248D01*
X98172325Y-106437248D01*
X98162000Y-106538315D01*
X98162000Y-106538323D01*
X98162000Y-106812753D01*
X98162001Y-107050500D01*
X98142317Y-107117539D01*
X98089513Y-107163294D01*
X98038001Y-107174500D01*
X84171639Y-107174500D01*
X84050805Y-107198535D01*
X84050795Y-107198538D01*
X84019078Y-107211676D01*
X84019077Y-107211676D01*
X83936971Y-107245684D01*
X83936958Y-107245691D01*
X83834517Y-107314141D01*
X83834513Y-107314144D01*
X83620478Y-107528181D01*
X83559155Y-107561666D01*
X83532797Y-107564500D01*
X83449500Y-107564500D01*
X83382461Y-107544815D01*
X83336706Y-107492011D01*
X83325500Y-107440500D01*
X83325500Y-107351771D01*
X83345185Y-107284732D01*
X83380429Y-107250132D01*
X83380183Y-107249821D01*
X83383082Y-107247528D01*
X83384401Y-107246233D01*
X83385850Y-107245340D01*
X83507840Y-107123350D01*
X83598408Y-106976516D01*
X83652674Y-106812753D01*
X83663000Y-106711677D01*
X83662999Y-106138324D01*
X83657872Y-106088137D01*
X83652674Y-106037247D01*
X83643641Y-106009987D01*
X83598408Y-105873484D01*
X83507840Y-105726650D01*
X83385850Y-105604660D01*
X83385846Y-105604657D01*
X83286903Y-105543628D01*
X83240178Y-105491680D01*
X83228000Y-105438090D01*
X83228000Y-102646999D01*
X83247685Y-102579960D01*
X83300489Y-102534205D01*
X83352000Y-102522999D01*
X85170371Y-102522999D01*
X85170372Y-102522999D01*
X85229983Y-102516591D01*
X85364831Y-102466296D01*
X85480046Y-102380046D01*
X85566296Y-102264831D01*
X85616591Y-102129983D01*
X85623000Y-102070373D01*
X85622999Y-100439729D01*
X85642684Y-100372691D01*
X85659318Y-100352049D01*
X86489549Y-99521819D01*
X86550872Y-99488334D01*
X86577230Y-99485500D01*
X86991432Y-99485500D01*
X87058471Y-99505185D01*
X87079113Y-99521819D01*
X87090261Y-99532967D01*
X87090265Y-99532970D01*
X87234600Y-99621998D01*
X87234603Y-99621999D01*
X87234609Y-99622003D01*
X87395598Y-99675349D01*
X87494961Y-99685500D01*
X88341650Y-99685499D01*
X88341658Y-99685498D01*
X88341661Y-99685498D01*
X88396066Y-99679940D01*
X88441014Y-99675349D01*
X88602003Y-99622003D01*
X88746350Y-99532968D01*
X88757499Y-99521819D01*
X88818822Y-99488334D01*
X88845180Y-99485500D01*
X89891532Y-99485500D01*
X89958571Y-99505185D01*
X90004326Y-99557989D01*
X90010609Y-99574907D01*
X90016561Y-99595396D01*
X90100223Y-99736862D01*
X90100229Y-99736870D01*
X90102043Y-99738684D01*
X90103010Y-99740455D01*
X90105008Y-99743031D01*
X90104592Y-99743353D01*
X90135528Y-99800007D01*
X90130544Y-99869699D01*
X90088672Y-99925632D01*
X90061815Y-99940926D01*
X90022005Y-99957415D01*
X89966126Y-99994753D01*
X89899086Y-100039547D01*
X89847226Y-100091405D01*
X89785902Y-100124888D01*
X89785329Y-100125011D01*
X89720196Y-100138856D01*
X89720192Y-100138857D01*
X89547270Y-100215848D01*
X89547265Y-100215851D01*
X89394129Y-100327111D01*
X89267466Y-100467785D01*
X89172821Y-100631715D01*
X89172818Y-100631722D01*
X89136100Y-100744730D01*
X89114326Y-100811744D01*
X89094540Y-101000000D01*
X89114326Y-101188256D01*
X89114327Y-101188259D01*
X89172818Y-101368277D01*
X89172821Y-101368284D01*
X89267467Y-101532216D01*
X89362016Y-101637223D01*
X89394129Y-101672888D01*
X89547265Y-101784148D01*
X89547270Y-101784151D01*
X89720192Y-101861142D01*
X89720197Y-101861144D01*
X89905354Y-101900500D01*
X89905355Y-101900500D01*
X90094644Y-101900500D01*
X90094646Y-101900500D01*
X90279803Y-101861144D01*
X90452730Y-101784151D01*
X90605871Y-101672888D01*
X90732533Y-101532216D01*
X90760100Y-101484467D01*
X90810665Y-101436252D01*
X90879272Y-101423028D01*
X90944137Y-101448995D01*
X90974219Y-101483346D01*
X91050222Y-101611861D01*
X91050229Y-101611870D01*
X91166435Y-101728076D01*
X91166439Y-101728079D01*
X91166441Y-101728081D01*
X91307908Y-101811744D01*
X91307915Y-101811746D01*
X91465732Y-101857597D01*
X91465735Y-101857597D01*
X91465737Y-101857598D01*
X91502612Y-101860500D01*
X91502620Y-101860500D01*
X91933992Y-101860500D01*
X91934000Y-101860500D01*
X91970875Y-101857598D01*
X91970877Y-101857597D01*
X91970879Y-101857597D01*
X92045542Y-101835905D01*
X92128704Y-101811744D01*
X92270171Y-101728081D01*
X92386387Y-101611865D01*
X92470050Y-101470398D01*
X92515904Y-101312569D01*
X92518806Y-101275694D01*
X92518806Y-100109500D01*
X92538491Y-100042461D01*
X92591295Y-99996706D01*
X92642806Y-99985500D01*
X92883992Y-99985500D01*
X92884000Y-99985500D01*
X92920875Y-99982598D01*
X92920877Y-99982597D01*
X92920879Y-99982597D01*
X93007551Y-99957416D01*
X93078704Y-99936744D01*
X93220171Y-99853081D01*
X93336387Y-99736865D01*
X93420050Y-99595398D01*
X93423071Y-99585000D01*
X93444163Y-99512404D01*
X93481770Y-99453519D01*
X93545242Y-99424313D01*
X93563239Y-99423000D01*
X94086254Y-99423000D01*
X94153293Y-99442685D01*
G37*
%TD.AperFunction*%
%TA.AperFunction,Conductor*%
G36*
X99492539Y-96070185D02*
G01*
X99538294Y-96122989D01*
X99549500Y-96174500D01*
X99549500Y-96536669D01*
X99549501Y-96536687D01*
X99559825Y-96637752D01*
X99594977Y-96743831D01*
X99612931Y-96798013D01*
X99614092Y-96801515D01*
X99614093Y-96801518D01*
X99628074Y-96824184D01*
X99703399Y-96946306D01*
X99704661Y-96948351D01*
X99820223Y-97063913D01*
X99853708Y-97125236D01*
X99848724Y-97194928D01*
X99806852Y-97250861D01*
X99803985Y-97252813D01*
X99801649Y-97254660D01*
X99679661Y-97376648D01*
X99589093Y-97523481D01*
X99589091Y-97523486D01*
X99572341Y-97574035D01*
X99534826Y-97687247D01*
X99534826Y-97687248D01*
X99534825Y-97687248D01*
X99524500Y-97788315D01*
X99524500Y-98486669D01*
X99524501Y-98486687D01*
X99534825Y-98587752D01*
X99563134Y-98673181D01*
X99580034Y-98724182D01*
X99589092Y-98751515D01*
X99589093Y-98751518D01*
X99618689Y-98799500D01*
X99679660Y-98898350D01*
X99801650Y-99020340D01*
X99948484Y-99110908D01*
X100112247Y-99165174D01*
X100213323Y-99175500D01*
X100786676Y-99175499D01*
X100786684Y-99175498D01*
X100786687Y-99175498D01*
X100842030Y-99169844D01*
X100887753Y-99165174D01*
X101051516Y-99110908D01*
X101198350Y-99020340D01*
X101320340Y-98898350D01*
X101352072Y-98846904D01*
X101404020Y-98800179D01*
X101457611Y-98788000D01*
X102476412Y-98788000D01*
X102543451Y-98807685D01*
X102589206Y-98860489D01*
X102599468Y-98923806D01*
X102599500Y-98923806D01*
X102599500Y-98923809D01*
X102599678Y-98923819D01*
X102599626Y-98924783D01*
X102599702Y-98925251D01*
X102599500Y-98927125D01*
X102599500Y-99429191D01*
X102579815Y-99496230D01*
X102563181Y-99516872D01*
X97016873Y-105063181D01*
X96955550Y-105096666D01*
X96929192Y-105099500D01*
X96468208Y-105099500D01*
X96401169Y-105079815D01*
X96375584Y-105056619D01*
X96375447Y-105056757D01*
X96372647Y-105053957D01*
X96370945Y-105052414D01*
X96370344Y-105051654D01*
X96262621Y-104943931D01*
X96229136Y-104882608D01*
X96234120Y-104812916D01*
X96262621Y-104768569D01*
X96292335Y-104738855D01*
X96332840Y-104698350D01*
X96423408Y-104551516D01*
X96477674Y-104387753D01*
X96488000Y-104286677D01*
X96487999Y-103983307D01*
X96507683Y-103916269D01*
X96524313Y-103895631D01*
X96819584Y-103600362D01*
X96877305Y-103513976D01*
X96890772Y-103493821D01*
X96904204Y-103461394D01*
X96939809Y-103375436D01*
X96947667Y-103335931D01*
X96964808Y-103249761D01*
X96964808Y-99643770D01*
X96983814Y-99577798D01*
X96995850Y-99558642D01*
X97017430Y-99524298D01*
X97075149Y-99359349D01*
X97078072Y-99333408D01*
X97094715Y-99185695D01*
X97094715Y-99185688D01*
X97075150Y-99012043D01*
X97075149Y-99012041D01*
X97075149Y-99012035D01*
X97017430Y-98847086D01*
X96924455Y-98699116D01*
X96800884Y-98575545D01*
X96652914Y-98482570D01*
X96652913Y-98482569D01*
X96652912Y-98482569D01*
X96487966Y-98424851D01*
X96487956Y-98424849D01*
X96314312Y-98405285D01*
X96314304Y-98405285D01*
X96140659Y-98424849D01*
X96140650Y-98424851D01*
X96055745Y-98454560D01*
X95985966Y-98458121D01*
X95925339Y-98423391D01*
X95893113Y-98361398D01*
X95891435Y-98350128D01*
X95883480Y-98272247D01*
X95829214Y-98108484D01*
X95738646Y-97961650D01*
X95616656Y-97839660D01*
X95507630Y-97772412D01*
X95469824Y-97749093D01*
X95469819Y-97749091D01*
X95462975Y-97746823D01*
X95306059Y-97694826D01*
X95306057Y-97694825D01*
X95204990Y-97684500D01*
X95204983Y-97684500D01*
X95119739Y-97684500D01*
X95052700Y-97664815D01*
X95006945Y-97612011D01*
X94997001Y-97542853D01*
X95026026Y-97479297D01*
X95080732Y-97442795D01*
X95101516Y-97435908D01*
X95248350Y-97345340D01*
X95370340Y-97223350D01*
X95460908Y-97076516D01*
X95515174Y-96912753D01*
X95525500Y-96811677D01*
X95525499Y-96508306D01*
X95545183Y-96441268D01*
X95561809Y-96420635D01*
X95895629Y-96086816D01*
X95956950Y-96053334D01*
X95983308Y-96050500D01*
X99425500Y-96050500D01*
X99492539Y-96070185D01*
G37*
%TD.AperFunction*%
%TA.AperFunction,Conductor*%
G36*
X147979953Y-94315505D02*
G01*
X148035886Y-94357377D01*
X148042400Y-94367833D01*
X148042723Y-94367636D01*
X148045263Y-94371781D01*
X148045267Y-94371787D01*
X148045268Y-94371788D01*
X148147086Y-94511928D01*
X148269572Y-94634414D01*
X148409712Y-94736232D01*
X148564055Y-94814873D01*
X148728799Y-94868402D01*
X148899889Y-94895500D01*
X148899890Y-94895500D01*
X149573110Y-94895500D01*
X149573111Y-94895500D01*
X149744201Y-94868402D01*
X149908945Y-94814873D01*
X149908948Y-94814870D01*
X149908952Y-94814870D01*
X149908953Y-94814869D01*
X149992143Y-94772482D01*
X150004205Y-94766335D01*
X150072874Y-94753439D01*
X150137614Y-94779715D01*
X150177872Y-94836821D01*
X150184500Y-94876820D01*
X150184500Y-99303750D01*
X150164815Y-99370789D01*
X150112011Y-99416544D01*
X150060500Y-99427750D01*
X149765403Y-99427750D01*
X149610760Y-99458510D01*
X149610752Y-99458512D01*
X149465074Y-99518854D01*
X149465064Y-99518859D01*
X149333961Y-99606460D01*
X149333957Y-99606463D01*
X145862181Y-103078240D01*
X145800858Y-103111725D01*
X145731166Y-103106741D01*
X145675233Y-103064869D01*
X145650816Y-102999405D01*
X145650500Y-102990559D01*
X145650500Y-102844552D01*
X145670185Y-102777513D01*
X145686819Y-102756871D01*
X145715488Y-102728202D01*
X145745340Y-102698350D01*
X145835908Y-102551516D01*
X145890174Y-102387753D01*
X145900500Y-102286677D01*
X145900499Y-101713324D01*
X145896368Y-101672888D01*
X145890174Y-101612247D01*
X145879789Y-101580907D01*
X145835908Y-101448484D01*
X145745340Y-101301650D01*
X145623350Y-101179660D01*
X145476516Y-101089092D01*
X145312753Y-101034826D01*
X145312751Y-101034825D01*
X145211678Y-101024500D01*
X144613330Y-101024500D01*
X144613312Y-101024501D01*
X144512247Y-101034825D01*
X144348484Y-101089092D01*
X144348481Y-101089093D01*
X144201648Y-101179661D01*
X144087681Y-101293629D01*
X144026358Y-101327114D01*
X143956666Y-101322130D01*
X143912319Y-101293629D01*
X143798351Y-101179661D01*
X143798350Y-101179660D01*
X143651516Y-101089092D01*
X143487753Y-101034826D01*
X143487751Y-101034825D01*
X143386678Y-101024500D01*
X142788330Y-101024500D01*
X142788312Y-101024501D01*
X142687247Y-101034825D01*
X142523484Y-101089092D01*
X142523481Y-101089093D01*
X142376648Y-101179661D01*
X142254661Y-101301648D01*
X142164093Y-101448481D01*
X142164091Y-101448486D01*
X142146028Y-101502997D01*
X142109826Y-101612247D01*
X142109826Y-101612248D01*
X142109825Y-101612248D01*
X142099500Y-101713315D01*
X142099500Y-102052046D01*
X142079815Y-102119085D01*
X142063181Y-102139727D01*
X141327707Y-102875202D01*
X139854471Y-104348439D01*
X139139729Y-105063181D01*
X139078406Y-105096666D01*
X139052048Y-105099500D01*
X137320897Y-105099500D01*
X137253858Y-105079815D01*
X137208103Y-105027011D01*
X137198159Y-104957853D01*
X137211539Y-104917046D01*
X137219100Y-104902900D01*
X137228814Y-104884727D01*
X137286024Y-104696132D01*
X137305341Y-104500000D01*
X137302356Y-104469699D01*
X137315374Y-104401056D01*
X137322648Y-104388669D01*
X137376464Y-104308128D01*
X137425500Y-104189745D01*
X137425500Y-104189741D01*
X137425502Y-104189738D01*
X137432050Y-104156819D01*
X137432050Y-104156818D01*
X137450499Y-104064072D01*
X137450499Y-100335927D01*
X137425501Y-100210260D01*
X137425500Y-100210259D01*
X137425500Y-100210255D01*
X137376464Y-100091872D01*
X137357430Y-100063386D01*
X137305275Y-99985329D01*
X137305273Y-99985327D01*
X137305271Y-99985324D01*
X137305270Y-99985323D01*
X137111295Y-99791349D01*
X137084416Y-99751123D01*
X137070774Y-99718188D01*
X137070772Y-99718185D01*
X137070770Y-99718181D01*
X136994113Y-99603457D01*
X136994110Y-99603453D01*
X136346546Y-98955888D01*
X136346545Y-98955887D01*
X136231807Y-98879222D01*
X136104332Y-98826421D01*
X136104322Y-98826418D01*
X135968996Y-98799500D01*
X135968994Y-98799500D01*
X135968993Y-98799500D01*
X135049500Y-98799500D01*
X134982461Y-98779815D01*
X134936706Y-98727011D01*
X134925500Y-98675500D01*
X134925499Y-98367116D01*
X134945183Y-98300077D01*
X134976614Y-98266798D01*
X135105871Y-98172888D01*
X135232533Y-98032216D01*
X135274732Y-97959123D01*
X135325297Y-97910908D01*
X135393904Y-97897684D01*
X135406301Y-97899504D01*
X135411308Y-97900500D01*
X135411309Y-97900500D01*
X135438132Y-97900500D01*
X135505171Y-97920185D01*
X135526346Y-97939383D01*
X135527181Y-97938549D01*
X135532287Y-97943655D01*
X135532288Y-97943656D01*
X135656344Y-98067712D01*
X135805666Y-98159814D01*
X135972203Y-98214999D01*
X136074991Y-98225500D01*
X136850008Y-98225499D01*
X136850016Y-98225498D01*
X136850019Y-98225498D01*
X136906302Y-98219748D01*
X136952797Y-98214999D01*
X137119334Y-98159814D01*
X137268656Y-98067712D01*
X137392712Y-97943656D01*
X137394461Y-97940819D01*
X137396169Y-97939283D01*
X137397193Y-97937989D01*
X137397414Y-97938163D01*
X137446406Y-97894096D01*
X137515368Y-97882872D01*
X137579451Y-97910713D01*
X137605537Y-97940817D01*
X137607288Y-97943656D01*
X137731344Y-98067712D01*
X137880666Y-98159814D01*
X138047203Y-98214999D01*
X138149991Y-98225500D01*
X138925008Y-98225499D01*
X138925016Y-98225498D01*
X138925019Y-98225498D01*
X138981302Y-98219748D01*
X139027797Y-98214999D01*
X139194334Y-98159814D01*
X139343656Y-98067712D01*
X139467712Y-97943656D01*
X139559814Y-97794334D01*
X139559816Y-97794327D01*
X139560297Y-97793548D01*
X139612244Y-97746823D01*
X139641635Y-97737029D01*
X139718913Y-97721658D01*
X139855495Y-97665084D01*
X139920369Y-97621737D01*
X139978416Y-97582952D01*
X140152772Y-97408594D01*
X140214091Y-97375112D01*
X140214423Y-97375040D01*
X140279803Y-97361144D01*
X140452730Y-97284151D01*
X140605871Y-97172888D01*
X140732533Y-97032216D01*
X140827179Y-96868284D01*
X140885674Y-96688256D01*
X140905460Y-96500000D01*
X140894945Y-96399959D01*
X140907514Y-96331232D01*
X140955246Y-96280208D01*
X141018266Y-96263000D01*
X141475500Y-96263000D01*
X141542539Y-96282685D01*
X141588294Y-96335489D01*
X141599500Y-96387000D01*
X141599500Y-96946306D01*
X141598821Y-96959266D01*
X141594540Y-96999999D01*
X141598821Y-97040731D01*
X141599500Y-97053692D01*
X141599500Y-97088695D01*
X141607637Y-97129602D01*
X141609341Y-97140831D01*
X141614325Y-97188253D01*
X141614325Y-97188254D01*
X141624904Y-97220811D01*
X141628590Y-97234938D01*
X141634104Y-97262662D01*
X141634105Y-97262664D01*
X141652644Y-97307423D01*
X141656012Y-97316554D01*
X141672819Y-97368279D01*
X141672822Y-97368286D01*
X141686569Y-97392097D01*
X141693742Y-97406643D01*
X141701984Y-97426542D01*
X141732634Y-97472413D01*
X141736912Y-97479294D01*
X141752064Y-97505537D01*
X141767468Y-97532218D01*
X141767469Y-97532219D01*
X141781357Y-97547643D01*
X141792307Y-97561721D01*
X141800534Y-97574033D01*
X141844274Y-97617773D01*
X141848743Y-97622482D01*
X141866244Y-97641919D01*
X141894129Y-97672888D01*
X141894131Y-97672890D01*
X141905467Y-97681126D01*
X141920263Y-97693763D01*
X141925961Y-97699461D01*
X141925965Y-97699464D01*
X141982994Y-97737570D01*
X141986966Y-97740338D01*
X142047270Y-97784151D01*
X142053902Y-97787104D01*
X142072361Y-97797283D01*
X142073453Y-97798013D01*
X142143042Y-97826836D01*
X142145987Y-97828102D01*
X142220197Y-97861144D01*
X142220668Y-97861244D01*
X142220696Y-97861250D01*
X142231370Y-97864562D01*
X142231503Y-97864125D01*
X142237330Y-97865892D01*
X142237334Y-97865894D01*
X142317816Y-97881902D01*
X142319282Y-97882204D01*
X142405354Y-97900500D01*
X142405355Y-97900500D01*
X142594645Y-97900500D01*
X142594646Y-97900500D01*
X142680746Y-97882198D01*
X142682180Y-97881902D01*
X142762666Y-97865894D01*
X142762669Y-97865892D01*
X142762672Y-97865892D01*
X142768496Y-97864126D01*
X142768631Y-97864573D01*
X142779315Y-97861247D01*
X142779803Y-97861144D01*
X142854057Y-97828082D01*
X142856955Y-97826837D01*
X142926547Y-97798013D01*
X142927633Y-97797287D01*
X142946095Y-97787104D01*
X142952730Y-97784151D01*
X143013054Y-97740322D01*
X143016952Y-97737605D01*
X143074035Y-97699464D01*
X143079739Y-97693758D01*
X143094531Y-97681126D01*
X143105871Y-97672888D01*
X143151274Y-97622461D01*
X143155687Y-97617810D01*
X143199464Y-97574035D01*
X143207687Y-97561727D01*
X143218642Y-97547643D01*
X143232531Y-97532218D01*
X143232530Y-97532218D01*
X143232533Y-97532216D01*
X143263091Y-97479284D01*
X143267368Y-97472408D01*
X143298013Y-97426547D01*
X143306259Y-97406637D01*
X143313433Y-97392091D01*
X143322349Y-97376650D01*
X143327179Y-97368284D01*
X143343995Y-97316528D01*
X143347355Y-97307423D01*
X143365894Y-97262666D01*
X143371411Y-97234927D01*
X143375094Y-97220813D01*
X143385674Y-97188256D01*
X143390656Y-97140837D01*
X143392361Y-97129604D01*
X143400500Y-97088695D01*
X143400500Y-97053692D01*
X143401179Y-97040731D01*
X143404247Y-97011539D01*
X143430831Y-96946925D01*
X143488128Y-96906939D01*
X143527568Y-96900500D01*
X144094645Y-96900500D01*
X144094646Y-96900500D01*
X144180746Y-96882198D01*
X144182180Y-96881902D01*
X144262666Y-96865894D01*
X144262669Y-96865892D01*
X144262672Y-96865892D01*
X144268496Y-96864126D01*
X144268631Y-96864573D01*
X144279315Y-96861247D01*
X144279803Y-96861144D01*
X144354057Y-96828082D01*
X144356955Y-96826837D01*
X144426547Y-96798013D01*
X144427633Y-96797287D01*
X144446095Y-96787104D01*
X144452730Y-96784151D01*
X144513054Y-96740322D01*
X144516952Y-96737605D01*
X144574035Y-96699464D01*
X144579739Y-96693758D01*
X144594531Y-96681126D01*
X144605871Y-96672888D01*
X144651274Y-96622461D01*
X144655687Y-96617810D01*
X144699464Y-96574035D01*
X144707687Y-96561727D01*
X144718642Y-96547643D01*
X144732531Y-96532218D01*
X144732530Y-96532218D01*
X144732533Y-96532216D01*
X144763091Y-96479284D01*
X144767368Y-96472408D01*
X144790815Y-96437319D01*
X144798013Y-96426547D01*
X144806259Y-96406637D01*
X144813433Y-96392091D01*
X144816373Y-96387000D01*
X144827179Y-96368284D01*
X144843995Y-96316528D01*
X144847351Y-96307431D01*
X144865894Y-96262666D01*
X144871411Y-96234927D01*
X144875094Y-96220813D01*
X144885674Y-96188256D01*
X144890656Y-96140837D01*
X144892361Y-96129604D01*
X144900500Y-96088695D01*
X144900500Y-96053692D01*
X144901179Y-96040731D01*
X144905460Y-96000000D01*
X144901179Y-95959266D01*
X144900500Y-95946306D01*
X144900500Y-95911309D01*
X144894350Y-95880394D01*
X144892358Y-95870383D01*
X144890656Y-95859156D01*
X144889392Y-95847130D01*
X144885674Y-95811744D01*
X144875094Y-95779183D01*
X144871406Y-95765047D01*
X144871038Y-95763196D01*
X144877273Y-95693605D01*
X144920141Y-95638432D01*
X144927547Y-95633487D01*
X144993656Y-95592712D01*
X145117712Y-95468656D01*
X145119461Y-95465819D01*
X145121169Y-95464283D01*
X145122193Y-95462989D01*
X145122414Y-95463163D01*
X145171406Y-95419096D01*
X145240368Y-95407872D01*
X145304451Y-95435713D01*
X145330537Y-95465817D01*
X145332288Y-95468656D01*
X145456344Y-95592712D01*
X145605666Y-95684814D01*
X145772203Y-95739999D01*
X145874991Y-95750500D01*
X146650008Y-95750499D01*
X146650016Y-95750498D01*
X146650019Y-95750498D01*
X146706302Y-95744748D01*
X146752797Y-95739999D01*
X146919334Y-95684814D01*
X147068656Y-95592712D01*
X147192712Y-95468656D01*
X147284814Y-95319334D01*
X147339999Y-95152797D01*
X147350500Y-95050009D01*
X147350499Y-94893807D01*
X147370183Y-94826768D01*
X147386813Y-94806131D01*
X147848940Y-94344004D01*
X147910261Y-94310521D01*
X147979953Y-94315505D01*
G37*
%TD.AperFunction*%
%TA.AperFunction,Conductor*%
G36*
X98640123Y-92652883D02*
G01*
X98753821Y-92675500D01*
X98753824Y-92675500D01*
X99608948Y-92675500D01*
X99675987Y-92695185D01*
X99721742Y-92747989D01*
X99732168Y-92813383D01*
X99719593Y-92924995D01*
X99719593Y-92925003D01*
X99739157Y-93098648D01*
X99739159Y-93098658D01*
X99796877Y-93263604D01*
X99796879Y-93263608D01*
X99855494Y-93356893D01*
X99874500Y-93422865D01*
X99874500Y-93481792D01*
X99854815Y-93548831D01*
X99831619Y-93574415D01*
X99831757Y-93574553D01*
X99828941Y-93577368D01*
X99827407Y-93579061D01*
X99826652Y-93579657D01*
X99704659Y-93701651D01*
X99614093Y-93848481D01*
X99614091Y-93848486D01*
X99613424Y-93850499D01*
X99559826Y-94012247D01*
X99559826Y-94012248D01*
X99559825Y-94012248D01*
X99549500Y-94113315D01*
X99549500Y-94113323D01*
X99549500Y-94402870D01*
X99549501Y-94625500D01*
X99529817Y-94692539D01*
X99477013Y-94738294D01*
X99425501Y-94749500D01*
X95598429Y-94749500D01*
X95482896Y-94772482D01*
X95472756Y-94774499D01*
X95472755Y-94774499D01*
X95354370Y-94823535D01*
X95247831Y-94894722D01*
X95247824Y-94894728D01*
X94629371Y-95513181D01*
X94568048Y-95546666D01*
X94541690Y-95549500D01*
X94238331Y-95549500D01*
X94238312Y-95549501D01*
X94137247Y-95559825D01*
X93973484Y-95614092D01*
X93973481Y-95614093D01*
X93826648Y-95704661D01*
X93712681Y-95818629D01*
X93651358Y-95852114D01*
X93581666Y-95847130D01*
X93537319Y-95818629D01*
X93423351Y-95704661D01*
X93423350Y-95704660D01*
X93316665Y-95638856D01*
X93276518Y-95614093D01*
X93276513Y-95614091D01*
X93275069Y-95613612D01*
X93112753Y-95559826D01*
X93112751Y-95559825D01*
X93011678Y-95549500D01*
X92413330Y-95549500D01*
X92413312Y-95549501D01*
X92312247Y-95559825D01*
X92148484Y-95614092D01*
X92148481Y-95614093D01*
X92001648Y-95704661D01*
X91879661Y-95826648D01*
X91789093Y-95973481D01*
X91789091Y-95973486D01*
X91780306Y-95999999D01*
X91734826Y-96137247D01*
X91734826Y-96137248D01*
X91734825Y-96137248D01*
X91724500Y-96238315D01*
X91724500Y-96811669D01*
X91724501Y-96811687D01*
X91734825Y-96912752D01*
X91763737Y-97000000D01*
X91787045Y-97070340D01*
X91789092Y-97076515D01*
X91789093Y-97076518D01*
X91796604Y-97088695D01*
X91878090Y-97220805D01*
X91879661Y-97223351D01*
X91881487Y-97225177D01*
X91882340Y-97226739D01*
X91884138Y-97229013D01*
X91883749Y-97229320D01*
X91914972Y-97286500D01*
X91917806Y-97312858D01*
X91917806Y-97877670D01*
X91912882Y-97912265D01*
X91870708Y-98057426D01*
X91870707Y-98057432D01*
X91867806Y-98094298D01*
X91867806Y-99260500D01*
X91848121Y-99327539D01*
X91795317Y-99373294D01*
X91743806Y-99384500D01*
X91692806Y-99384500D01*
X91625767Y-99364815D01*
X91580012Y-99312011D01*
X91568806Y-99260500D01*
X91568806Y-98094313D01*
X91568805Y-98094298D01*
X91567353Y-98075852D01*
X91565904Y-98057431D01*
X91563319Y-98048535D01*
X91531608Y-97939383D01*
X91520050Y-97899602D01*
X91436387Y-97758135D01*
X91436385Y-97758133D01*
X91436382Y-97758129D01*
X91320176Y-97641923D01*
X91320168Y-97641917D01*
X91205385Y-97574035D01*
X91178704Y-97558256D01*
X91178703Y-97558255D01*
X91178702Y-97558255D01*
X91178699Y-97558254D01*
X91020879Y-97512402D01*
X91020873Y-97512401D01*
X90984007Y-97509500D01*
X90984000Y-97509500D01*
X90552612Y-97509500D01*
X90552604Y-97509500D01*
X90515738Y-97512401D01*
X90515732Y-97512402D01*
X90357912Y-97558254D01*
X90357909Y-97558255D01*
X90216443Y-97641917D01*
X90216435Y-97641923D01*
X90100229Y-97758129D01*
X90100223Y-97758137D01*
X90016562Y-97899600D01*
X90013463Y-97906764D01*
X90011078Y-97905732D01*
X89980263Y-97953982D01*
X89916790Y-97983187D01*
X89898795Y-97984500D01*
X89234808Y-97984500D01*
X89167769Y-97964815D01*
X89122014Y-97912011D01*
X89112070Y-97842853D01*
X89141095Y-97779297D01*
X89147127Y-97772819D01*
X94233127Y-92686819D01*
X94294450Y-92653334D01*
X94320808Y-92650500D01*
X98615931Y-92650500D01*
X98640123Y-92652883D01*
G37*
%TD.AperFunction*%
%TA.AperFunction,Conductor*%
G36*
X109171231Y-91095185D02*
G01*
X109191873Y-91111819D01*
X113010324Y-94930271D01*
X113010327Y-94930274D01*
X113010330Y-94930276D01*
X113056441Y-94961086D01*
X113116873Y-95001465D01*
X113235256Y-95050501D01*
X113235260Y-95050501D01*
X113235261Y-95050502D01*
X113360928Y-95075500D01*
X113360931Y-95075500D01*
X117325500Y-95075500D01*
X117392539Y-95095185D01*
X117438294Y-95147989D01*
X117449500Y-95199500D01*
X117449500Y-96122870D01*
X117449501Y-96122876D01*
X117455908Y-96182483D01*
X117506202Y-96317328D01*
X117506206Y-96317335D01*
X117592452Y-96432544D01*
X117597227Y-96437319D01*
X117630712Y-96498642D01*
X117625728Y-96568334D01*
X117597227Y-96612681D01*
X117592452Y-96617455D01*
X117506206Y-96732664D01*
X117506202Y-96732671D01*
X117455908Y-96867517D01*
X117451045Y-96912753D01*
X117449501Y-96927123D01*
X117449500Y-96927135D01*
X117449500Y-97900389D01*
X117429815Y-97967428D01*
X117377011Y-98013183D01*
X117372953Y-98014950D01*
X117291871Y-98048535D01*
X117185331Y-98119722D01*
X117185324Y-98119728D01*
X116241873Y-99063181D01*
X116180550Y-99096666D01*
X116154192Y-99099500D01*
X107070807Y-99099500D01*
X107003768Y-99079815D01*
X106983126Y-99063181D01*
X105786818Y-97866873D01*
X105753333Y-97805550D01*
X105750499Y-97779192D01*
X105750499Y-96927129D01*
X105750498Y-96927123D01*
X105750497Y-96927116D01*
X105744841Y-96874497D01*
X105744091Y-96867516D01*
X105693797Y-96732671D01*
X105693793Y-96732664D01*
X105607547Y-96617455D01*
X105602773Y-96612681D01*
X105569288Y-96551358D01*
X105574272Y-96481666D01*
X105602773Y-96437319D01*
X105607542Y-96432548D01*
X105607546Y-96432546D01*
X105693796Y-96317331D01*
X105744091Y-96182483D01*
X105750500Y-96122873D01*
X105750499Y-94927128D01*
X105745091Y-94876820D01*
X105744091Y-94867516D01*
X105693797Y-94732671D01*
X105693793Y-94732664D01*
X105607547Y-94617455D01*
X105602773Y-94612681D01*
X105569288Y-94551358D01*
X105574272Y-94481666D01*
X105602773Y-94437319D01*
X105607542Y-94432548D01*
X105607546Y-94432546D01*
X105693796Y-94317331D01*
X105744091Y-94182483D01*
X105750500Y-94122873D01*
X105750499Y-92927128D01*
X105745299Y-92878757D01*
X105744091Y-92867516D01*
X105693797Y-92732671D01*
X105693793Y-92732664D01*
X105607547Y-92617455D01*
X105602773Y-92612681D01*
X105569288Y-92551358D01*
X105574272Y-92481666D01*
X105602773Y-92437319D01*
X105607542Y-92432548D01*
X105607546Y-92432546D01*
X105693796Y-92317331D01*
X105744091Y-92182483D01*
X105750500Y-92122873D01*
X105750499Y-91199499D01*
X105770183Y-91132461D01*
X105822987Y-91086706D01*
X105874499Y-91075500D01*
X109104192Y-91075500D01*
X109171231Y-91095185D01*
G37*
%TD.AperFunction*%
%TA.AperFunction,Conductor*%
G36*
X121645833Y-73216258D02*
G01*
X121690181Y-73244759D01*
X121955711Y-73510289D01*
X122030149Y-73584727D01*
X122067212Y-73621790D01*
X122198314Y-73709390D01*
X122198316Y-73709391D01*
X122198321Y-73709394D01*
X122309620Y-73755495D01*
X122344003Y-73769737D01*
X122344007Y-73769737D01*
X122344008Y-73769738D01*
X122498654Y-73800500D01*
X122498657Y-73800500D01*
X122498658Y-73800500D01*
X139342060Y-73800500D01*
X139409099Y-73820185D01*
X139429741Y-73836819D01*
X143137928Y-77545006D01*
X143171413Y-77606329D01*
X143168178Y-77671005D01*
X143121637Y-77814244D01*
X143114326Y-77836744D01*
X143094540Y-78025000D01*
X143114326Y-78213256D01*
X143114327Y-78213259D01*
X143172818Y-78393277D01*
X143172821Y-78393284D01*
X143267467Y-78557216D01*
X143362384Y-78662632D01*
X143394129Y-78697888D01*
X143547265Y-78809148D01*
X143547270Y-78809151D01*
X143720192Y-78886142D01*
X143720197Y-78886144D01*
X143905354Y-78925500D01*
X143905355Y-78925500D01*
X144094644Y-78925500D01*
X144094646Y-78925500D01*
X144279803Y-78886144D01*
X144452730Y-78809151D01*
X144454776Y-78807664D01*
X144466452Y-78799182D01*
X144532258Y-78775702D01*
X144539337Y-78775500D01*
X144806792Y-78775500D01*
X144873831Y-78795185D01*
X144899415Y-78818380D01*
X144899553Y-78818243D01*
X144902352Y-78821042D01*
X144904055Y-78822586D01*
X144904655Y-78823345D01*
X145018629Y-78937319D01*
X145052114Y-78998642D01*
X145047130Y-79068334D01*
X145018629Y-79112681D01*
X144904661Y-79226648D01*
X144814093Y-79373481D01*
X144814091Y-79373486D01*
X144759826Y-79537248D01*
X144759825Y-79537249D01*
X144753849Y-79595748D01*
X144727452Y-79660440D01*
X144718172Y-79670826D01*
X143020535Y-81368464D01*
X143020533Y-81368466D01*
X142999801Y-81399497D01*
X142999799Y-81399500D01*
X142921985Y-81515955D01*
X142921984Y-81515957D01*
X142888776Y-81596131D01*
X142888776Y-81596132D01*
X142854105Y-81679833D01*
X142854103Y-81679841D01*
X142828134Y-81810399D01*
X142819500Y-81853804D01*
X142819500Y-85738769D01*
X142799815Y-85805808D01*
X142747011Y-85851563D01*
X142677853Y-85861507D01*
X142614297Y-85832482D01*
X142607819Y-85826450D01*
X141698420Y-84917051D01*
X141693299Y-84913629D01*
X141592957Y-84846584D01*
X141592956Y-84846582D01*
X141579014Y-84837267D01*
X141575495Y-84834916D01*
X141575493Y-84834915D01*
X141575490Y-84834913D01*
X141438917Y-84778343D01*
X141438907Y-84778340D01*
X141293920Y-84749500D01*
X141293918Y-84749500D01*
X141124499Y-84749500D01*
X141057460Y-84729815D01*
X141011705Y-84677011D01*
X141000499Y-84625500D01*
X141000499Y-84512230D01*
X141020184Y-84445191D01*
X141036818Y-84424549D01*
X141601742Y-83859626D01*
X142182952Y-83278416D01*
X142243194Y-83188256D01*
X142265084Y-83155495D01*
X142321658Y-83018913D01*
X142335156Y-82951058D01*
X142350500Y-82873920D01*
X142350500Y-82106976D01*
X142370185Y-82039937D01*
X142378632Y-82028329D01*
X142435910Y-81958538D01*
X142439477Y-81951865D01*
X142528811Y-81784733D01*
X142528811Y-81784732D01*
X142528814Y-81784727D01*
X142586024Y-81596132D01*
X142605341Y-81400000D01*
X142586024Y-81203868D01*
X142528814Y-81015273D01*
X142528811Y-81015269D01*
X142528811Y-81015266D01*
X142435913Y-80841467D01*
X142435909Y-80841460D01*
X142310883Y-80689116D01*
X142158539Y-80564090D01*
X142158532Y-80564086D01*
X141984733Y-80471188D01*
X141984727Y-80471186D01*
X141797019Y-80414245D01*
X141796129Y-80413975D01*
X141600000Y-80394659D01*
X141403870Y-80413975D01*
X141215266Y-80471188D01*
X141041467Y-80564086D01*
X141041460Y-80564090D01*
X140889116Y-80689116D01*
X140764090Y-80841460D01*
X140764086Y-80841467D01*
X140671188Y-81015266D01*
X140613975Y-81203870D01*
X140594659Y-81400000D01*
X140613975Y-81596129D01*
X140613976Y-81596131D01*
X140613976Y-81596132D01*
X140662242Y-81755244D01*
X140671188Y-81784733D01*
X140764084Y-81958529D01*
X140764087Y-81958533D01*
X140764090Y-81958538D01*
X140821354Y-82028314D01*
X140848666Y-82092620D01*
X140849500Y-82106976D01*
X140849500Y-82437768D01*
X140829815Y-82504807D01*
X140813181Y-82525449D01*
X140791466Y-82547164D01*
X140730143Y-82580649D01*
X140660452Y-82575665D01*
X140607482Y-82555908D01*
X140607483Y-82555908D01*
X140547883Y-82549501D01*
X140547881Y-82549500D01*
X140547873Y-82549500D01*
X140547864Y-82549500D01*
X138252129Y-82549500D01*
X138252123Y-82549501D01*
X138192516Y-82555908D01*
X138057671Y-82606202D01*
X138057664Y-82606206D01*
X137942455Y-82692452D01*
X137942452Y-82692455D01*
X137856206Y-82807664D01*
X137856202Y-82807671D01*
X137805908Y-82942517D01*
X137799501Y-83002116D01*
X137799501Y-83002123D01*
X137799500Y-83002135D01*
X137799500Y-86226639D01*
X137779815Y-86293678D01*
X137727011Y-86339433D01*
X137657853Y-86349377D01*
X137594297Y-86320352D01*
X137587819Y-86314320D01*
X137236818Y-85963319D01*
X137203333Y-85901996D01*
X137200499Y-85875638D01*
X137200499Y-83002129D01*
X137200498Y-83002123D01*
X137200497Y-83002116D01*
X137194091Y-82942517D01*
X137191357Y-82935188D01*
X137143797Y-82807671D01*
X137143793Y-82807664D01*
X137057547Y-82692455D01*
X137057544Y-82692452D01*
X136942335Y-82606206D01*
X136942328Y-82606202D01*
X136807482Y-82555908D01*
X136807483Y-82555908D01*
X136747883Y-82549501D01*
X136747881Y-82549500D01*
X136747873Y-82549500D01*
X136747864Y-82549500D01*
X134452129Y-82549500D01*
X134452123Y-82549501D01*
X134392516Y-82555908D01*
X134257671Y-82606202D01*
X134257664Y-82606206D01*
X134142455Y-82692452D01*
X134142452Y-82692455D01*
X134056206Y-82807664D01*
X134056202Y-82807671D01*
X134005908Y-82942517D01*
X133999501Y-83002116D01*
X133999501Y-83002123D01*
X133999500Y-83002135D01*
X133999500Y-86997870D01*
X133999501Y-86997876D01*
X134005908Y-87057483D01*
X134056202Y-87192328D01*
X134056206Y-87192335D01*
X134142452Y-87307544D01*
X134142455Y-87307547D01*
X134257664Y-87393793D01*
X134257671Y-87393797D01*
X134269302Y-87398135D01*
X134392517Y-87444091D01*
X134452127Y-87450500D01*
X134595111Y-87450499D01*
X134662150Y-87470183D01*
X134707905Y-87522987D01*
X134716728Y-87550308D01*
X134734103Y-87637658D01*
X134734105Y-87637666D01*
X134758861Y-87697432D01*
X134801985Y-87801544D01*
X134801987Y-87801547D01*
X134847396Y-87869506D01*
X134887162Y-87929020D01*
X134900537Y-87949038D01*
X136650961Y-89699462D01*
X136692158Y-89726989D01*
X136798448Y-89798010D01*
X136798449Y-89798010D01*
X136798453Y-89798013D01*
X136873466Y-89829084D01*
X136962334Y-89865895D01*
X137104148Y-89894103D01*
X137136303Y-89900499D01*
X137136307Y-89900500D01*
X137136308Y-89900500D01*
X137136309Y-89900500D01*
X137591540Y-89900500D01*
X137658579Y-89920185D01*
X137704334Y-89972989D01*
X137714278Y-90042147D01*
X137698927Y-90086497D01*
X137687877Y-90105639D01*
X137672821Y-90131715D01*
X137672818Y-90131722D01*
X137617271Y-90302679D01*
X137614326Y-90311744D01*
X137605670Y-90394101D01*
X137594176Y-90503462D01*
X137567591Y-90568076D01*
X137510294Y-90608061D01*
X137470855Y-90614500D01*
X136352129Y-90614500D01*
X136348805Y-90614679D01*
X136348748Y-90613618D01*
X136284315Y-90601987D01*
X136233182Y-90554372D01*
X136221166Y-90527094D01*
X136219664Y-90522145D01*
X136219661Y-90522127D01*
X136166631Y-90394101D01*
X136158188Y-90373718D01*
X136158183Y-90373709D01*
X136068940Y-90240149D01*
X136068937Y-90240145D01*
X135955354Y-90126562D01*
X135955350Y-90126559D01*
X135821790Y-90037316D01*
X135821781Y-90037311D01*
X135673373Y-89975839D01*
X135673365Y-89975837D01*
X135515824Y-89944500D01*
X135515820Y-89944500D01*
X135226993Y-89944500D01*
X135179541Y-89935061D01*
X135080667Y-89894106D01*
X135080658Y-89894103D01*
X134906694Y-89859500D01*
X134906691Y-89859500D01*
X133329552Y-89859500D01*
X133262513Y-89839815D01*
X133241871Y-89823181D01*
X133123351Y-89704661D01*
X133123350Y-89704660D01*
X133031196Y-89647819D01*
X132976518Y-89614093D01*
X132976513Y-89614091D01*
X132946640Y-89604192D01*
X132812753Y-89559826D01*
X132812751Y-89559825D01*
X132711678Y-89549500D01*
X132113330Y-89549500D01*
X132113312Y-89549501D01*
X132012247Y-89559825D01*
X131848484Y-89614092D01*
X131848481Y-89614093D01*
X131701651Y-89704659D01*
X131590916Y-89815394D01*
X131529593Y-89848878D01*
X131459901Y-89843894D01*
X131403968Y-89802022D01*
X131379551Y-89736558D01*
X131384659Y-89694689D01*
X131384322Y-89694618D01*
X131385135Y-89690788D01*
X131385307Y-89689386D01*
X131385361Y-89689218D01*
X131385674Y-89688256D01*
X131405460Y-89500000D01*
X131385674Y-89311744D01*
X131327179Y-89131716D01*
X131232533Y-88967784D01*
X131105871Y-88827112D01*
X131101913Y-88824236D01*
X130952734Y-88715851D01*
X130952729Y-88715848D01*
X130779807Y-88638857D01*
X130779802Y-88638855D01*
X130626007Y-88606166D01*
X130594646Y-88599500D01*
X130405354Y-88599500D01*
X130373993Y-88606166D01*
X130220197Y-88638855D01*
X130220192Y-88638857D01*
X130047270Y-88715848D01*
X130047265Y-88715851D01*
X129894129Y-88827111D01*
X129767466Y-88967785D01*
X129672821Y-89131715D01*
X129672818Y-89131722D01*
X129615032Y-89309570D01*
X129614326Y-89311744D01*
X129594540Y-89500000D01*
X129614326Y-89688256D01*
X129672044Y-89865894D01*
X129674465Y-89873343D01*
X129676460Y-89943184D01*
X129666425Y-89966605D01*
X129667144Y-89966940D01*
X129664092Y-89973484D01*
X129609826Y-90137247D01*
X129609826Y-90137248D01*
X129609825Y-90137248D01*
X129599500Y-90238315D01*
X129599500Y-90811669D01*
X129599501Y-90811687D01*
X129609825Y-90912752D01*
X129639666Y-91002803D01*
X129663755Y-91075500D01*
X129664092Y-91076515D01*
X129664093Y-91076518D01*
X129675607Y-91095185D01*
X129745101Y-91207853D01*
X129754661Y-91223351D01*
X129757069Y-91225759D01*
X129758193Y-91227818D01*
X129759138Y-91229013D01*
X129758933Y-91229174D01*
X129790554Y-91287082D01*
X129785570Y-91356774D01*
X129743698Y-91412707D01*
X129708392Y-91431146D01*
X129605668Y-91465185D01*
X129605663Y-91465187D01*
X129528664Y-91512681D01*
X129456344Y-91557288D01*
X129456343Y-91557289D01*
X129405214Y-91608417D01*
X129343890Y-91641901D01*
X129286410Y-91639026D01*
X129286160Y-91640207D01*
X129190855Y-91619949D01*
X129094646Y-91599500D01*
X128905354Y-91599500D01*
X128872897Y-91606398D01*
X128720197Y-91638855D01*
X128720192Y-91638857D01*
X128547270Y-91715848D01*
X128547265Y-91715851D01*
X128394129Y-91827111D01*
X128267466Y-91967785D01*
X128172821Y-92131715D01*
X128172818Y-92131722D01*
X128115110Y-92309331D01*
X128114326Y-92311744D01*
X128094540Y-92500000D01*
X128114326Y-92688256D01*
X128114327Y-92688259D01*
X128172818Y-92868277D01*
X128172821Y-92868284D01*
X128267467Y-93032216D01*
X128344879Y-93118190D01*
X128394129Y-93172888D01*
X128547265Y-93284148D01*
X128547270Y-93284151D01*
X128720192Y-93361142D01*
X128720197Y-93361144D01*
X128905354Y-93400500D01*
X128905355Y-93400500D01*
X129094644Y-93400500D01*
X129094646Y-93400500D01*
X129127591Y-93393497D01*
X129197256Y-93398812D01*
X129252990Y-93440949D01*
X129258905Y-93449683D01*
X129332288Y-93568656D01*
X129456344Y-93692712D01*
X129605666Y-93784814D01*
X129772203Y-93839999D01*
X129874991Y-93850500D01*
X130650008Y-93850499D01*
X130650016Y-93850498D01*
X130650019Y-93850498D01*
X130710056Y-93844365D01*
X130752797Y-93839999D01*
X130919334Y-93784814D01*
X130980347Y-93747180D01*
X131047739Y-93728740D01*
X131114403Y-93749662D01*
X131159172Y-93803304D01*
X131162485Y-93811763D01*
X131171878Y-93838606D01*
X131255494Y-93971682D01*
X131274500Y-94037652D01*
X131274500Y-94086611D01*
X131278731Y-94113323D01*
X131300059Y-94247989D01*
X131301598Y-94257701D01*
X131347147Y-94397886D01*
X131355128Y-94422447D01*
X131433768Y-94576788D01*
X131434919Y-94578372D01*
X131439596Y-94585287D01*
X131497230Y-94677011D01*
X131527015Y-94724414D01*
X131650586Y-94847985D01*
X131789708Y-94935400D01*
X131796603Y-94940062D01*
X131798212Y-94941232D01*
X131952555Y-95019873D01*
X132117299Y-95073402D01*
X132288389Y-95100500D01*
X132288390Y-95100500D01*
X132461610Y-95100500D01*
X132461611Y-95100500D01*
X132632701Y-95073402D01*
X132797079Y-95019991D01*
X132866914Y-95017997D01*
X132926747Y-95054077D01*
X132957576Y-95116777D01*
X132949612Y-95186192D01*
X132938495Y-95206813D01*
X132901989Y-95261448D01*
X132901983Y-95261459D01*
X132872264Y-95333210D01*
X132828423Y-95387614D01*
X132822801Y-95391296D01*
X132756344Y-95432287D01*
X132632289Y-95556342D01*
X132540187Y-95705663D01*
X132540185Y-95705668D01*
X132514179Y-95784151D01*
X132485001Y-95872203D01*
X132485001Y-95872204D01*
X132485000Y-95872204D01*
X132474500Y-95974983D01*
X132474500Y-96750001D01*
X132474501Y-96750019D01*
X132485000Y-96852796D01*
X132485001Y-96852799D01*
X132540185Y-97019331D01*
X132540187Y-97019336D01*
X132553384Y-97040731D01*
X132625462Y-97157590D01*
X132632289Y-97168657D01*
X132756346Y-97292714D01*
X132759182Y-97294463D01*
X132760717Y-97296170D01*
X132762011Y-97297193D01*
X132761836Y-97297414D01*
X132805905Y-97346411D01*
X132817126Y-97415374D01*
X132789282Y-97479456D01*
X132759182Y-97505537D01*
X132756346Y-97507285D01*
X132632288Y-97631343D01*
X132627807Y-97637011D01*
X132625984Y-97635569D01*
X132582335Y-97674825D01*
X132528752Y-97687000D01*
X131688580Y-97687000D01*
X131543592Y-97715840D01*
X131543582Y-97715843D01*
X131407011Y-97772412D01*
X131406998Y-97772419D01*
X131368140Y-97798384D01*
X131325031Y-97816572D01*
X131220196Y-97838856D01*
X131220192Y-97838857D01*
X131047270Y-97915848D01*
X131047265Y-97915851D01*
X130894131Y-98027110D01*
X130854481Y-98071145D01*
X130794993Y-98107792D01*
X130725136Y-98106461D01*
X130674651Y-98075852D01*
X124904688Y-92305888D01*
X124904687Y-92305887D01*
X124789949Y-92229222D01*
X124662474Y-92176421D01*
X124662464Y-92176418D01*
X124527138Y-92149500D01*
X124527136Y-92149500D01*
X124527135Y-92149500D01*
X123056494Y-92149500D01*
X122918506Y-92149500D01*
X122918504Y-92149500D01*
X122783177Y-92176418D01*
X122783167Y-92176421D01*
X122655692Y-92229222D01*
X122540954Y-92305887D01*
X122133660Y-92713181D01*
X122072337Y-92746666D01*
X122045980Y-92749500D01*
X121813331Y-92749500D01*
X121813312Y-92749501D01*
X121712247Y-92759825D01*
X121548484Y-92814092D01*
X121548481Y-92814093D01*
X121401648Y-92904661D01*
X121318129Y-92988181D01*
X121256806Y-93021666D01*
X121230448Y-93024500D01*
X120722351Y-93024500D01*
X120655312Y-93004815D01*
X120609557Y-92952011D01*
X120599061Y-92913752D01*
X120594091Y-92867516D01*
X120543797Y-92732671D01*
X120543793Y-92732664D01*
X120457547Y-92617455D01*
X120452773Y-92612681D01*
X120419288Y-92551358D01*
X120424272Y-92481666D01*
X120452773Y-92437319D01*
X120457542Y-92432548D01*
X120457546Y-92432546D01*
X120543796Y-92317331D01*
X120594091Y-92182483D01*
X120600500Y-92122873D01*
X120600499Y-91245807D01*
X120620183Y-91178769D01*
X120636818Y-91158127D01*
X121030565Y-90764381D01*
X121455277Y-90339669D01*
X121526465Y-90233127D01*
X121539738Y-90201083D01*
X121575501Y-90114744D01*
X121590903Y-90037316D01*
X121600500Y-89989071D01*
X121600500Y-83670807D01*
X121620185Y-83603768D01*
X121636819Y-83583126D01*
X122663332Y-82556613D01*
X129699500Y-82556613D01*
X129705913Y-82627192D01*
X129705913Y-82627194D01*
X129705914Y-82627196D01*
X129756522Y-82789606D01*
X129837075Y-82922857D01*
X129844530Y-82935188D01*
X129964811Y-83055469D01*
X129964813Y-83055470D01*
X129964815Y-83055472D01*
X130110394Y-83143478D01*
X130272804Y-83194086D01*
X130343384Y-83200500D01*
X130343387Y-83200500D01*
X131856613Y-83200500D01*
X131856616Y-83200500D01*
X131927196Y-83194086D01*
X132089606Y-83143478D01*
X132235185Y-83055472D01*
X132355472Y-82935185D01*
X132443478Y-82789606D01*
X132494086Y-82627196D01*
X132500500Y-82556616D01*
X132500500Y-82043384D01*
X132494086Y-81972804D01*
X132443478Y-81810394D01*
X132355472Y-81664815D01*
X132355470Y-81664813D01*
X132355469Y-81664811D01*
X132235188Y-81544530D01*
X132203705Y-81525498D01*
X132089606Y-81456522D01*
X131927196Y-81405914D01*
X131927194Y-81405913D01*
X131927192Y-81405913D01*
X131877778Y-81401423D01*
X131856616Y-81399500D01*
X130343384Y-81399500D01*
X130324145Y-81401248D01*
X130272807Y-81405913D01*
X130110393Y-81456522D01*
X129964811Y-81544530D01*
X129844530Y-81664811D01*
X129756522Y-81810393D01*
X129705913Y-81972807D01*
X129699500Y-82043386D01*
X129699500Y-82556613D01*
X122663332Y-82556613D01*
X124533126Y-80686819D01*
X124594449Y-80653334D01*
X124620807Y-80650500D01*
X127484484Y-80650500D01*
X127547605Y-80667768D01*
X127579819Y-80686819D01*
X127689602Y-80751744D01*
X127731224Y-80763836D01*
X127847426Y-80797597D01*
X127847429Y-80797597D01*
X127847431Y-80797598D01*
X127884306Y-80800500D01*
X127884314Y-80800500D01*
X129265686Y-80800500D01*
X129265694Y-80800500D01*
X129302569Y-80797598D01*
X129302571Y-80797597D01*
X129302573Y-80797597D01*
X129344191Y-80785505D01*
X129460398Y-80751744D01*
X129601865Y-80668081D01*
X129718081Y-80551865D01*
X129801744Y-80410398D01*
X129838034Y-80285489D01*
X129847597Y-80252573D01*
X129847598Y-80252567D01*
X129848848Y-80236684D01*
X129850500Y-80215694D01*
X129850500Y-79784306D01*
X129847598Y-79747431D01*
X129846690Y-79744306D01*
X129809329Y-79615711D01*
X129801744Y-79589602D01*
X129801742Y-79589598D01*
X129786084Y-79563122D01*
X129768900Y-79495399D01*
X129786084Y-79436878D01*
X129801742Y-79410401D01*
X129801744Y-79410398D01*
X129844713Y-79262500D01*
X129847597Y-79252573D01*
X129847598Y-79252567D01*
X129848486Y-79241286D01*
X129850500Y-79215694D01*
X129850500Y-78784306D01*
X129847598Y-78747431D01*
X129845194Y-78739157D01*
X129804619Y-78599499D01*
X129801744Y-78589602D01*
X129801742Y-78589598D01*
X129786084Y-78563122D01*
X129768900Y-78495399D01*
X129786084Y-78436878D01*
X129800983Y-78411684D01*
X129801744Y-78410398D01*
X129847598Y-78252569D01*
X129850500Y-78215694D01*
X129850500Y-77784306D01*
X129847598Y-77747431D01*
X129842701Y-77730576D01*
X129808358Y-77612366D01*
X129808557Y-77542497D01*
X129846499Y-77483827D01*
X129910137Y-77454983D01*
X129979267Y-77465124D01*
X129991577Y-77471650D01*
X130110394Y-77543478D01*
X130272804Y-77594086D01*
X130343384Y-77600500D01*
X130343387Y-77600500D01*
X131856613Y-77600500D01*
X131856616Y-77600500D01*
X131927196Y-77594086D01*
X132089606Y-77543478D01*
X132235185Y-77455472D01*
X132355472Y-77335185D01*
X132443478Y-77189606D01*
X132494086Y-77027196D01*
X132500500Y-76956616D01*
X132500500Y-76443384D01*
X132494086Y-76372804D01*
X132443478Y-76210394D01*
X132355472Y-76064815D01*
X132355470Y-76064813D01*
X132355469Y-76064811D01*
X132235188Y-75944530D01*
X132219309Y-75934931D01*
X132089606Y-75856522D01*
X131927196Y-75805914D01*
X131927194Y-75805913D01*
X131927192Y-75805913D01*
X131877766Y-75801422D01*
X131856616Y-75799500D01*
X130343384Y-75799500D01*
X130324145Y-75801248D01*
X130272807Y-75805913D01*
X130110393Y-75856522D01*
X129964811Y-75944530D01*
X129844530Y-76064811D01*
X129756522Y-76210393D01*
X129705913Y-76372807D01*
X129702025Y-76415602D01*
X129699500Y-76443384D01*
X129699500Y-76956616D01*
X129705914Y-77027196D01*
X129716949Y-77062609D01*
X129749956Y-77168536D01*
X129751106Y-77238396D01*
X129714305Y-77297788D01*
X129651235Y-77327856D01*
X129581923Y-77319052D01*
X129568449Y-77312157D01*
X129559399Y-77306805D01*
X129460398Y-77248256D01*
X129460397Y-77248255D01*
X129460396Y-77248255D01*
X129460393Y-77248254D01*
X129302573Y-77202402D01*
X129302567Y-77202401D01*
X129265701Y-77199500D01*
X129265694Y-77199500D01*
X127884306Y-77199500D01*
X127884298Y-77199500D01*
X127847432Y-77202401D01*
X127847426Y-77202402D01*
X127689606Y-77248254D01*
X127689603Y-77248255D01*
X127547605Y-77332232D01*
X127484484Y-77349500D01*
X111820808Y-77349500D01*
X111753769Y-77329815D01*
X111733127Y-77313181D01*
X110961819Y-76541873D01*
X110928334Y-76480550D01*
X110925500Y-76454192D01*
X110925500Y-75971813D01*
X110925499Y-75971798D01*
X110922598Y-75934932D01*
X110922597Y-75934926D01*
X110876745Y-75777106D01*
X110876744Y-75777103D01*
X110876744Y-75777102D01*
X110793081Y-75635635D01*
X110793079Y-75635633D01*
X110793076Y-75635629D01*
X110676870Y-75519423D01*
X110676862Y-75519417D01*
X110535396Y-75435755D01*
X110535393Y-75435754D01*
X110377573Y-75389902D01*
X110377567Y-75389901D01*
X110340701Y-75387000D01*
X110340694Y-75387000D01*
X110099500Y-75387000D01*
X110032461Y-75367315D01*
X109986706Y-75314511D01*
X109975500Y-75263000D01*
X109975500Y-74096813D01*
X109975499Y-74096798D01*
X109973003Y-74065084D01*
X109972598Y-74059931D01*
X109972597Y-74059928D01*
X109972596Y-74059922D01*
X109972354Y-74059088D01*
X109972355Y-74058603D01*
X109971460Y-74053701D01*
X109972370Y-74053534D01*
X109972557Y-73989218D01*
X110010503Y-73930551D01*
X110074143Y-73901711D01*
X110091432Y-73900500D01*
X120606344Y-73900500D01*
X120606345Y-73900499D01*
X120760997Y-73869737D01*
X120880627Y-73820185D01*
X120906672Y-73809397D01*
X120906672Y-73809396D01*
X120906679Y-73809394D01*
X121037789Y-73721789D01*
X121514819Y-73244759D01*
X121576142Y-73211274D01*
X121645833Y-73216258D01*
G37*
%TD.AperFunction*%
%TA.AperFunction,Conductor*%
G36*
X93954932Y-87567501D02*
G01*
X93999279Y-87596002D01*
X94013424Y-87610147D01*
X94161394Y-87703122D01*
X94216301Y-87722335D01*
X94322015Y-87759327D01*
X94368741Y-87788687D01*
X95909815Y-89329761D01*
X95943300Y-89391084D01*
X95938316Y-89460776D01*
X95896444Y-89516709D01*
X95830980Y-89541126D01*
X95822134Y-89541442D01*
X95036881Y-89541442D01*
X94911213Y-89566439D01*
X94911207Y-89566441D01*
X94792826Y-89615476D01*
X94686278Y-89686668D01*
X89221165Y-95151781D01*
X89159842Y-95185266D01*
X89090150Y-95180282D01*
X89034217Y-95138410D01*
X89010126Y-95076700D01*
X89008655Y-95062292D01*
X88955309Y-94901303D01*
X88955305Y-94901297D01*
X88955304Y-94901294D01*
X88866276Y-94756959D01*
X88866273Y-94756955D01*
X88746350Y-94637032D01*
X88746346Y-94637029D01*
X88602011Y-94548001D01*
X88602005Y-94547998D01*
X88602003Y-94547997D01*
X88515612Y-94519370D01*
X88441015Y-94494651D01*
X88441001Y-94494648D01*
X88431278Y-94493655D01*
X88366587Y-94467256D01*
X88356205Y-94457979D01*
X86789785Y-92891559D01*
X86789765Y-92891537D01*
X86646091Y-92747863D01*
X86646087Y-92747860D01*
X86482223Y-92638369D01*
X86482220Y-92638368D01*
X86349000Y-92583187D01*
X86300142Y-92562949D01*
X86300134Y-92562947D01*
X86200013Y-92543032D01*
X86168957Y-92536854D01*
X86106849Y-92524500D01*
X86106847Y-92524500D01*
X85746999Y-92524500D01*
X85679960Y-92504815D01*
X85634205Y-92452011D01*
X85622999Y-92400500D01*
X85622999Y-92379629D01*
X85622998Y-92379623D01*
X85616591Y-92320016D01*
X85566297Y-92185171D01*
X85566293Y-92185164D01*
X85480047Y-92069955D01*
X85480044Y-92069952D01*
X85364835Y-91983706D01*
X85364828Y-91983702D01*
X85229982Y-91933408D01*
X85229983Y-91933408D01*
X85170383Y-91927001D01*
X85170381Y-91927000D01*
X85170373Y-91927000D01*
X85170365Y-91927000D01*
X83893283Y-91927000D01*
X83826244Y-91907315D01*
X83805602Y-91890681D01*
X83461819Y-91546898D01*
X83428334Y-91485575D01*
X83425500Y-91459217D01*
X83425500Y-88887000D01*
X83445185Y-88819961D01*
X83497989Y-88774206D01*
X83549500Y-88763000D01*
X85012770Y-88763000D01*
X85079809Y-88782685D01*
X85100451Y-88799319D01*
X85183844Y-88882712D01*
X85333166Y-88974814D01*
X85499703Y-89029999D01*
X85602491Y-89040500D01*
X86652508Y-89040499D01*
X86652516Y-89040498D01*
X86652519Y-89040498D01*
X86676396Y-89038058D01*
X86755297Y-89029999D01*
X86834673Y-89003695D01*
X86895388Y-88999940D01*
X86895392Y-88999903D01*
X86895627Y-88999926D01*
X86897875Y-88999787D01*
X86901459Y-89000500D01*
X86901460Y-89000500D01*
X88461043Y-89000500D01*
X88591082Y-88974632D01*
X88654335Y-88962051D01*
X88836414Y-88886632D01*
X88925494Y-88827111D01*
X89005347Y-88773755D01*
X89006367Y-88775282D01*
X89062755Y-88751334D01*
X89077110Y-88750500D01*
X89103843Y-88750500D01*
X89103844Y-88750499D01*
X89258496Y-88719737D01*
X89371165Y-88673067D01*
X89404171Y-88659397D01*
X89404171Y-88659396D01*
X89404178Y-88659394D01*
X89443000Y-88633454D01*
X89509677Y-88612575D01*
X89577057Y-88631059D01*
X89623748Y-88683037D01*
X89634926Y-88752007D01*
X89607041Y-88816071D01*
X89599574Y-88824236D01*
X89507159Y-88916651D01*
X89416593Y-89063481D01*
X89416591Y-89063486D01*
X89412610Y-89075500D01*
X89362326Y-89227247D01*
X89362326Y-89227248D01*
X89362325Y-89227248D01*
X89352000Y-89328315D01*
X89352000Y-89901669D01*
X89352001Y-89901687D01*
X89362325Y-90002752D01*
X89383206Y-90065763D01*
X89389500Y-90104768D01*
X89389500Y-90609601D01*
X89371040Y-90674695D01*
X89342686Y-90720666D01*
X89287501Y-90887203D01*
X89287501Y-90887204D01*
X89287500Y-90887204D01*
X89277000Y-90989983D01*
X89277000Y-92040001D01*
X89277001Y-92040019D01*
X89287500Y-92142796D01*
X89287501Y-92142799D01*
X89342685Y-92309331D01*
X89342687Y-92309336D01*
X89349275Y-92320017D01*
X89434788Y-92458656D01*
X89558844Y-92582712D01*
X89708166Y-92674814D01*
X89874703Y-92729999D01*
X89977491Y-92740500D01*
X90752508Y-92740499D01*
X90752516Y-92740498D01*
X90752519Y-92740498D01*
X90808802Y-92734748D01*
X90855297Y-92729999D01*
X91021834Y-92674814D01*
X91171156Y-92582712D01*
X91295212Y-92458656D01*
X91387314Y-92309334D01*
X91442499Y-92142797D01*
X91453000Y-92040009D01*
X91452999Y-90989992D01*
X91452780Y-90987853D01*
X91442499Y-90887203D01*
X91442498Y-90887200D01*
X91396794Y-90749273D01*
X91390500Y-90710269D01*
X91390500Y-90104768D01*
X91396793Y-90065766D01*
X91396794Y-90065763D01*
X91408682Y-90029886D01*
X91438704Y-89981214D01*
X93823917Y-87596002D01*
X93885240Y-87562517D01*
X93954932Y-87567501D01*
G37*
%TD.AperFunction*%
%TA.AperFunction,Conductor*%
G36*
X123497232Y-78670185D02*
G01*
X123542987Y-78722989D01*
X123552931Y-78792147D01*
X123523906Y-78855703D01*
X123517874Y-78862181D01*
X119944727Y-82435326D01*
X119944724Y-82435329D01*
X119890464Y-82516537D01*
X119873535Y-82541872D01*
X119824499Y-82660256D01*
X119824497Y-82660262D01*
X119799500Y-82785929D01*
X119799500Y-88104191D01*
X119779815Y-88171230D01*
X119763181Y-88191872D01*
X119516872Y-88438181D01*
X119455549Y-88471666D01*
X119429191Y-88474500D01*
X117902129Y-88474500D01*
X117902123Y-88474501D01*
X117842516Y-88480908D01*
X117707671Y-88531202D01*
X117707664Y-88531206D01*
X117592455Y-88617452D01*
X117592452Y-88617455D01*
X117506206Y-88732664D01*
X117506202Y-88732671D01*
X117455908Y-88867517D01*
X117449501Y-88927116D01*
X117449500Y-88927135D01*
X117449500Y-90122870D01*
X117449501Y-90122876D01*
X117455908Y-90182483D01*
X117506202Y-90317328D01*
X117506206Y-90317335D01*
X117592452Y-90432544D01*
X117597227Y-90437319D01*
X117630712Y-90498642D01*
X117625728Y-90568334D01*
X117597227Y-90612681D01*
X117592452Y-90617455D01*
X117506206Y-90732664D01*
X117506202Y-90732671D01*
X117455908Y-90867517D01*
X117449501Y-90927116D01*
X117449500Y-90927135D01*
X117449500Y-92122870D01*
X117449501Y-92122876D01*
X117455908Y-92182483D01*
X117506202Y-92317328D01*
X117506206Y-92317335D01*
X117592452Y-92432544D01*
X117597227Y-92437319D01*
X117630712Y-92498642D01*
X117625728Y-92568334D01*
X117597227Y-92612681D01*
X117592452Y-92617455D01*
X117506206Y-92732664D01*
X117506202Y-92732671D01*
X117455908Y-92867517D01*
X117449728Y-92925003D01*
X117449500Y-92927127D01*
X117449500Y-93341920D01*
X117449501Y-93650500D01*
X117429817Y-93717539D01*
X117377013Y-93763294D01*
X117325501Y-93774500D01*
X113745808Y-93774500D01*
X113678769Y-93754815D01*
X113658127Y-93738181D01*
X109839674Y-89919727D01*
X109839673Y-89919726D01*
X109830550Y-89913630D01*
X109733127Y-89848535D01*
X109686168Y-89829084D01*
X109614744Y-89799499D01*
X109614738Y-89799497D01*
X109489071Y-89774500D01*
X109489069Y-89774500D01*
X108169808Y-89774500D01*
X108102769Y-89754815D01*
X108057014Y-89702011D01*
X108047070Y-89632853D01*
X108076095Y-89569297D01*
X108082127Y-89562819D01*
X110133127Y-87511818D01*
X110194450Y-87478333D01*
X110220808Y-87475499D01*
X111097871Y-87475499D01*
X111097872Y-87475499D01*
X111157483Y-87469091D01*
X111292331Y-87418796D01*
X111407546Y-87332546D01*
X111456378Y-87267315D01*
X111499112Y-87210231D01*
X111501382Y-87211930D01*
X111540565Y-87172743D01*
X111608837Y-87157886D01*
X111674303Y-87182298D01*
X111699443Y-87211311D01*
X111700888Y-87210231D01*
X111792452Y-87332544D01*
X111792455Y-87332547D01*
X111907664Y-87418793D01*
X111907671Y-87418797D01*
X112042517Y-87469091D01*
X112042516Y-87469091D01*
X112049444Y-87469835D01*
X112102127Y-87475500D01*
X113097872Y-87475499D01*
X113157483Y-87469091D01*
X113292331Y-87418796D01*
X113407546Y-87332546D01*
X113456378Y-87267315D01*
X113499112Y-87210231D01*
X113501382Y-87211930D01*
X113540565Y-87172743D01*
X113608837Y-87157886D01*
X113674303Y-87182298D01*
X113699443Y-87211311D01*
X113700888Y-87210231D01*
X113792452Y-87332544D01*
X113792455Y-87332547D01*
X113907664Y-87418793D01*
X113907671Y-87418797D01*
X114042517Y-87469091D01*
X114042516Y-87469091D01*
X114049444Y-87469835D01*
X114102127Y-87475500D01*
X115097872Y-87475499D01*
X115157483Y-87469091D01*
X115292331Y-87418796D01*
X115407546Y-87332546D01*
X115456378Y-87267315D01*
X115499112Y-87210231D01*
X115501382Y-87211930D01*
X115540565Y-87172743D01*
X115608837Y-87157886D01*
X115674303Y-87182298D01*
X115699443Y-87211311D01*
X115700888Y-87210231D01*
X115792452Y-87332544D01*
X115792455Y-87332547D01*
X115907664Y-87418793D01*
X115907671Y-87418797D01*
X116042517Y-87469091D01*
X116042516Y-87469091D01*
X116049444Y-87469835D01*
X116102127Y-87475500D01*
X117097872Y-87475499D01*
X117157483Y-87469091D01*
X117292331Y-87418796D01*
X117407546Y-87332546D01*
X117493796Y-87217331D01*
X117544091Y-87082483D01*
X117550500Y-87022873D01*
X117550499Y-85527128D01*
X117544091Y-85467517D01*
X117540065Y-85456724D01*
X117493797Y-85332671D01*
X117493793Y-85332664D01*
X117407547Y-85217455D01*
X117407544Y-85217452D01*
X117292335Y-85131206D01*
X117292328Y-85131202D01*
X117157482Y-85080908D01*
X117157483Y-85080908D01*
X117097883Y-85074501D01*
X117097881Y-85074500D01*
X117097873Y-85074500D01*
X117097864Y-85074500D01*
X116102129Y-85074500D01*
X116102123Y-85074501D01*
X116042516Y-85080908D01*
X115907671Y-85131202D01*
X115907664Y-85131206D01*
X115792455Y-85217452D01*
X115792452Y-85217455D01*
X115700888Y-85339769D01*
X115698618Y-85338070D01*
X115659420Y-85377264D01*
X115591146Y-85392111D01*
X115525683Y-85367690D01*
X115500554Y-85338689D01*
X115499112Y-85339769D01*
X115407547Y-85217455D01*
X115407544Y-85217452D01*
X115292335Y-85131206D01*
X115292328Y-85131202D01*
X115157482Y-85080908D01*
X115157483Y-85080908D01*
X115097883Y-85074501D01*
X115097881Y-85074500D01*
X115097873Y-85074500D01*
X115097865Y-85074500D01*
X115019808Y-85074500D01*
X114952769Y-85054815D01*
X114907014Y-85002011D01*
X114897070Y-84932853D01*
X114926095Y-84869297D01*
X114932127Y-84862819D01*
X115230273Y-84564673D01*
X115230273Y-84564672D01*
X115230277Y-84564669D01*
X115301465Y-84458127D01*
X115302737Y-84455057D01*
X115314787Y-84425966D01*
X115314787Y-84425965D01*
X115325335Y-84400500D01*
X115350501Y-84339744D01*
X115360331Y-84290327D01*
X115375500Y-84214071D01*
X115375500Y-78774500D01*
X115395185Y-78707461D01*
X115447989Y-78661706D01*
X115499500Y-78650500D01*
X123430193Y-78650500D01*
X123497232Y-78670185D01*
G37*
%TD.AperFunction*%
%TA.AperFunction,Conductor*%
G36*
X86107894Y-81169506D02*
G01*
X86161394Y-81203122D01*
X86326343Y-81260841D01*
X86326348Y-81260841D01*
X86326350Y-81260842D01*
X86499997Y-81280407D01*
X86503000Y-81280407D01*
X86504869Y-81280955D01*
X86506920Y-81281187D01*
X86506879Y-81281546D01*
X86570039Y-81300092D01*
X86615794Y-81352896D01*
X86627000Y-81404407D01*
X86627000Y-85193846D01*
X86657761Y-85348489D01*
X86657764Y-85348501D01*
X86718102Y-85494172D01*
X86718109Y-85494185D01*
X86805710Y-85625288D01*
X86805713Y-85625292D01*
X87163181Y-85982759D01*
X87196666Y-86044082D01*
X87199500Y-86070440D01*
X87199500Y-86265701D01*
X87202401Y-86302567D01*
X87202402Y-86302573D01*
X87248254Y-86460393D01*
X87248255Y-86460396D01*
X87248256Y-86460398D01*
X87279615Y-86513424D01*
X87331917Y-86601862D01*
X87331923Y-86601870D01*
X87448129Y-86718076D01*
X87448138Y-86718083D01*
X87533842Y-86768768D01*
X87581525Y-86819837D01*
X87594029Y-86888579D01*
X87567384Y-86953168D01*
X87510048Y-86993098D01*
X87470721Y-86999500D01*
X87290852Y-86999500D01*
X87250394Y-86991453D01*
X87250163Y-86992217D01*
X87244339Y-86990450D01*
X87244336Y-86990449D01*
X87244331Y-86990448D01*
X87244328Y-86990447D01*
X87091264Y-86960001D01*
X87091263Y-86960000D01*
X87064434Y-86954664D01*
X87051042Y-86952000D01*
X87051041Y-86952000D01*
X86992366Y-86952000D01*
X86927268Y-86933538D01*
X86921838Y-86930188D01*
X86921835Y-86930186D01*
X86921834Y-86930186D01*
X86755297Y-86875001D01*
X86755295Y-86875000D01*
X86652516Y-86864500D01*
X86652509Y-86864500D01*
X86408634Y-86864500D01*
X86361181Y-86855061D01*
X86360836Y-86854918D01*
X86256604Y-86811744D01*
X86229336Y-86800449D01*
X86229331Y-86800448D01*
X86229328Y-86800447D01*
X86103904Y-86775499D01*
X86036043Y-86762000D01*
X86036041Y-86762000D01*
X83523730Y-86762000D01*
X83456691Y-86742315D01*
X83410936Y-86689511D01*
X83400992Y-86620353D01*
X83430017Y-86556797D01*
X83436049Y-86550319D01*
X83462344Y-86524024D01*
X83492712Y-86493656D01*
X83584814Y-86344334D01*
X83639999Y-86177797D01*
X83650500Y-86075009D01*
X83650499Y-85299992D01*
X83650321Y-85298254D01*
X83639999Y-85197203D01*
X83639998Y-85197200D01*
X83630871Y-85169658D01*
X83584814Y-85030666D01*
X83513220Y-84914593D01*
X83494781Y-84847203D01*
X83515704Y-84780540D01*
X83569346Y-84735770D01*
X83618760Y-84725499D01*
X83850002Y-84725499D01*
X83850008Y-84725499D01*
X83952797Y-84714999D01*
X84119334Y-84659814D01*
X84268656Y-84567712D01*
X84392712Y-84443656D01*
X84484814Y-84294334D01*
X84539999Y-84127797D01*
X84550500Y-84025009D01*
X84550499Y-82974992D01*
X84539999Y-82872203D01*
X84484814Y-82705666D01*
X84392712Y-82556344D01*
X84349610Y-82513242D01*
X84316125Y-82451919D01*
X84321109Y-82382227D01*
X84324829Y-82374343D01*
X84324538Y-82374214D01*
X84327174Y-82368292D01*
X84327179Y-82368284D01*
X84385674Y-82188256D01*
X84405460Y-82000000D01*
X84385674Y-81811744D01*
X84327179Y-81631716D01*
X84232533Y-81467784D01*
X84133206Y-81357471D01*
X84102977Y-81294481D01*
X84111602Y-81225146D01*
X84156343Y-81171480D01*
X84222996Y-81150522D01*
X84225357Y-81150500D01*
X86041922Y-81150500D01*
X86107894Y-81169506D01*
G37*
%TD.AperFunction*%
%TA.AperFunction,Conductor*%
G36*
X103417539Y-80232685D02*
G01*
X103463294Y-80285489D01*
X103474500Y-80337000D01*
X103474500Y-81615701D01*
X103477401Y-81652567D01*
X103477402Y-81652573D01*
X103523254Y-81810393D01*
X103523255Y-81810396D01*
X103606917Y-81951862D01*
X103606923Y-81951870D01*
X103723129Y-82068076D01*
X103723133Y-82068079D01*
X103723135Y-82068081D01*
X103864602Y-82151744D01*
X103891780Y-82159640D01*
X104007093Y-82193142D01*
X104065979Y-82230748D01*
X104095185Y-82294220D01*
X104085439Y-82363407D01*
X104060179Y-82399899D01*
X103898079Y-82561999D01*
X103537221Y-82922857D01*
X103537218Y-82922860D01*
X103492294Y-82967784D01*
X103397859Y-83062218D01*
X103288371Y-83226078D01*
X103288364Y-83226091D01*
X103243289Y-83334915D01*
X103243289Y-83334916D01*
X103212950Y-83408159D01*
X103212948Y-83408164D01*
X103211184Y-83417039D01*
X103211182Y-83417048D01*
X103174500Y-83601455D01*
X103174500Y-86350500D01*
X103154815Y-86417539D01*
X103102011Y-86463294D01*
X103055389Y-86473450D01*
X103055423Y-86474099D01*
X103055429Y-86474146D01*
X103055426Y-86474146D01*
X103055436Y-86474324D01*
X103052123Y-86474501D01*
X102992516Y-86480908D01*
X102896604Y-86516682D01*
X102853271Y-86524500D01*
X101926326Y-86524500D01*
X101883800Y-86515071D01*
X101883372Y-86516364D01*
X101833986Y-86499999D01*
X101712753Y-86459826D01*
X101712751Y-86459825D01*
X101611678Y-86449500D01*
X101038330Y-86449500D01*
X101038312Y-86449501D01*
X100937247Y-86459825D01*
X100937244Y-86459826D01*
X100766628Y-86516364D01*
X100766199Y-86515071D01*
X100723674Y-86524500D01*
X99792007Y-86524500D01*
X99753003Y-86518206D01*
X99738572Y-86513424D01*
X99652797Y-86485001D01*
X99652795Y-86485000D01*
X99550010Y-86474500D01*
X98499998Y-86474500D01*
X98499980Y-86474501D01*
X98397203Y-86485000D01*
X98397200Y-86485001D01*
X98230668Y-86540185D01*
X98230663Y-86540187D01*
X98081342Y-86632289D01*
X97957289Y-86756342D01*
X97950566Y-86767242D01*
X97899213Y-86850500D01*
X97897611Y-86853097D01*
X97845663Y-86899821D01*
X97792072Y-86912000D01*
X97383308Y-86912000D01*
X97316269Y-86892315D01*
X97295627Y-86875681D01*
X96788687Y-86368741D01*
X96759327Y-86322015D01*
X96721609Y-86214226D01*
X96703122Y-86161394D01*
X96610147Y-86013424D01*
X96486576Y-85889853D01*
X96338606Y-85796878D01*
X96338605Y-85796877D01*
X96338604Y-85796877D01*
X96173658Y-85739159D01*
X96173648Y-85739157D01*
X96000004Y-85719593D01*
X95999688Y-85719593D01*
X95999491Y-85719535D01*
X95993081Y-85718813D01*
X95993207Y-85717690D01*
X95932649Y-85699908D01*
X95886894Y-85647104D01*
X95876950Y-85577946D01*
X95905975Y-85514390D01*
X95912007Y-85507912D01*
X98170094Y-83249826D01*
X100779639Y-80640281D01*
X100838189Y-80581731D01*
X100838197Y-80581721D01*
X101170603Y-80249317D01*
X101231925Y-80215834D01*
X101258283Y-80213000D01*
X103350500Y-80213000D01*
X103417539Y-80232685D01*
G37*
%TD.AperFunction*%
%TA.AperFunction,Conductor*%
G36*
X91433202Y-83853594D02*
G01*
X91439680Y-83859626D01*
X92711313Y-85131259D01*
X92740673Y-85177985D01*
X92794801Y-85332671D01*
X92796878Y-85338606D01*
X92812964Y-85364207D01*
X92889853Y-85486576D01*
X92908997Y-85505720D01*
X92942482Y-85567043D01*
X92937498Y-85636735D01*
X92908997Y-85681082D01*
X91898796Y-86691282D01*
X91837473Y-86724767D01*
X91767781Y-86719783D01*
X91711848Y-86677911D01*
X91687431Y-86612447D01*
X91702283Y-86544174D01*
X91704362Y-86540516D01*
X91751744Y-86460398D01*
X91794184Y-86314320D01*
X91797597Y-86302573D01*
X91797598Y-86302567D01*
X91797923Y-86298443D01*
X91800500Y-86265694D01*
X91800500Y-85834306D01*
X91797598Y-85797431D01*
X91797437Y-85796878D01*
X91763795Y-85681082D01*
X91751744Y-85639602D01*
X91668081Y-85498135D01*
X91668079Y-85498133D01*
X91668076Y-85498129D01*
X91551870Y-85381923D01*
X91551862Y-85381917D01*
X91427089Y-85308127D01*
X91410398Y-85298256D01*
X91410397Y-85298255D01*
X91410396Y-85298255D01*
X91410393Y-85298254D01*
X91252573Y-85252402D01*
X91252567Y-85252401D01*
X91215701Y-85249500D01*
X91215694Y-85249500D01*
X91064500Y-85249500D01*
X90997461Y-85229815D01*
X90951706Y-85177011D01*
X90940500Y-85125500D01*
X90940500Y-85097052D01*
X90960185Y-85030013D01*
X90976819Y-85009371D01*
X91010690Y-84975500D01*
X91072840Y-84913350D01*
X91163408Y-84766516D01*
X91217674Y-84602753D01*
X91228000Y-84501677D01*
X91227999Y-83947306D01*
X91247683Y-83880268D01*
X91300487Y-83834513D01*
X91369646Y-83824569D01*
X91433202Y-83853594D01*
G37*
%TD.AperFunction*%
%TA.AperFunction,Conductor*%
G36*
X111296951Y-78619989D02*
G01*
X111310256Y-78625501D01*
X111324688Y-78628371D01*
X111386599Y-78660753D01*
X111421175Y-78721468D01*
X111424500Y-78749989D01*
X111424500Y-79878201D01*
X111427401Y-79915067D01*
X111427402Y-79915073D01*
X111473254Y-80072893D01*
X111473255Y-80072896D01*
X111473256Y-80072898D01*
X111523971Y-80158653D01*
X111557232Y-80214894D01*
X111574500Y-80278015D01*
X111574500Y-81277953D01*
X111554815Y-81344992D01*
X111538181Y-81365634D01*
X109294727Y-83609087D01*
X109294721Y-83609094D01*
X109237003Y-83695475D01*
X109237004Y-83695476D01*
X109223535Y-83715634D01*
X109174499Y-83834017D01*
X109174497Y-83834023D01*
X109149500Y-83959690D01*
X109149500Y-84950500D01*
X109129815Y-85017539D01*
X109077011Y-85063294D01*
X109025500Y-85074500D01*
X108102129Y-85074500D01*
X108102123Y-85074501D01*
X108042516Y-85080908D01*
X107907671Y-85131202D01*
X107907664Y-85131206D01*
X107792455Y-85217452D01*
X107792452Y-85217455D01*
X107700888Y-85339769D01*
X107698618Y-85338070D01*
X107659420Y-85377264D01*
X107591146Y-85392111D01*
X107525683Y-85367690D01*
X107500554Y-85338689D01*
X107499112Y-85339769D01*
X107407547Y-85217455D01*
X107407544Y-85217452D01*
X107292335Y-85131206D01*
X107292328Y-85131202D01*
X107157482Y-85080908D01*
X107157483Y-85080908D01*
X107097883Y-85074501D01*
X107097881Y-85074500D01*
X107097873Y-85074500D01*
X107097864Y-85074500D01*
X106102129Y-85074500D01*
X106102123Y-85074501D01*
X106042516Y-85080908D01*
X105907671Y-85131202D01*
X105907664Y-85131206D01*
X105792455Y-85217452D01*
X105792452Y-85217455D01*
X105706206Y-85332664D01*
X105706202Y-85332671D01*
X105655908Y-85467517D01*
X105650869Y-85514390D01*
X105649501Y-85527123D01*
X105649500Y-85527135D01*
X105649500Y-86411230D01*
X105629815Y-86478269D01*
X105577011Y-86524024D01*
X105507853Y-86533968D01*
X105482168Y-86527412D01*
X105357485Y-86480909D01*
X105357483Y-86480908D01*
X105297883Y-86474501D01*
X105297881Y-86474500D01*
X105297873Y-86474500D01*
X105297864Y-86474500D01*
X105294548Y-86474322D01*
X105294615Y-86473065D01*
X105232461Y-86454815D01*
X105186706Y-86402011D01*
X105175500Y-86350500D01*
X105175500Y-84165780D01*
X105195185Y-84098741D01*
X105211814Y-84078104D01*
X106812778Y-82477140D01*
X106812782Y-82477138D01*
X106952139Y-82337781D01*
X107061632Y-82173913D01*
X107123107Y-82025499D01*
X107137051Y-81991835D01*
X107171512Y-81818587D01*
X107175500Y-81798540D01*
X107176689Y-81792564D01*
X107178409Y-81792906D01*
X107201446Y-81735834D01*
X107258475Y-81695467D01*
X107328274Y-81692341D01*
X107388684Y-81727447D01*
X107404235Y-81747661D01*
X107404660Y-81748350D01*
X107526650Y-81870340D01*
X107673484Y-81960908D01*
X107837247Y-82015174D01*
X107938323Y-82025500D01*
X108511676Y-82025499D01*
X108511684Y-82025498D01*
X108511687Y-82025498D01*
X108567030Y-82019844D01*
X108612753Y-82015174D01*
X108776516Y-81960908D01*
X108923350Y-81870340D01*
X109045340Y-81748350D01*
X109135908Y-81601516D01*
X109190174Y-81437753D01*
X109200500Y-81336677D01*
X109200499Y-81033306D01*
X109220183Y-80966268D01*
X109236813Y-80945631D01*
X109754596Y-80427848D01*
X109815917Y-80394365D01*
X109885609Y-80399349D01*
X109905391Y-80408796D01*
X109914602Y-80414244D01*
X109935044Y-80420183D01*
X110072426Y-80460097D01*
X110072429Y-80460097D01*
X110072431Y-80460098D01*
X110109306Y-80463000D01*
X110109314Y-80463000D01*
X110540686Y-80463000D01*
X110540694Y-80463000D01*
X110577569Y-80460098D01*
X110577571Y-80460097D01*
X110577573Y-80460097D01*
X110619258Y-80447986D01*
X110735398Y-80414244D01*
X110876865Y-80330581D01*
X110993081Y-80214365D01*
X111076744Y-80072898D01*
X111122598Y-79915069D01*
X111125500Y-79878194D01*
X111125500Y-78734551D01*
X111145185Y-78667512D01*
X111197989Y-78621757D01*
X111267147Y-78611813D01*
X111296951Y-78619989D01*
G37*
%TD.AperFunction*%
%TA.AperFunction,Conductor*%
G36*
X113099263Y-80143985D02*
G01*
X113109278Y-80152968D01*
X113201650Y-80245340D01*
X113348484Y-80335908D01*
X113512247Y-80390174D01*
X113613323Y-80400500D01*
X113950500Y-80400499D01*
X114017539Y-80420183D01*
X114063294Y-80472987D01*
X114074500Y-80524499D01*
X114074500Y-83829191D01*
X114054815Y-83896230D01*
X114038181Y-83916872D01*
X112916871Y-85038181D01*
X112855548Y-85071666D01*
X112829190Y-85074500D01*
X112102129Y-85074500D01*
X112102123Y-85074501D01*
X112042516Y-85080908D01*
X111907671Y-85131202D01*
X111907664Y-85131206D01*
X111792455Y-85217452D01*
X111792452Y-85217455D01*
X111700888Y-85339769D01*
X111698618Y-85338070D01*
X111659420Y-85377264D01*
X111591146Y-85392111D01*
X111525683Y-85367690D01*
X111500554Y-85338689D01*
X111499112Y-85339769D01*
X111407547Y-85217455D01*
X111407544Y-85217452D01*
X111292335Y-85131206D01*
X111292328Y-85131202D01*
X111157482Y-85080908D01*
X111157483Y-85080908D01*
X111097883Y-85074501D01*
X111097881Y-85074500D01*
X111097873Y-85074500D01*
X111097865Y-85074500D01*
X110574500Y-85074500D01*
X110507461Y-85054815D01*
X110461706Y-85002011D01*
X110450500Y-84950500D01*
X110450500Y-84344570D01*
X110470185Y-84277531D01*
X110486819Y-84256889D01*
X112730273Y-82013435D01*
X112730277Y-82013431D01*
X112801465Y-81906889D01*
X112850501Y-81788506D01*
X112857116Y-81755249D01*
X112875500Y-81662831D01*
X112875500Y-80278015D01*
X112892766Y-80214896D01*
X112893078Y-80214367D01*
X112893081Y-80214365D01*
X112914867Y-80177525D01*
X112965932Y-80129846D01*
X113034673Y-80117340D01*
X113099263Y-80143985D01*
G37*
%TD.AperFunction*%
%TA.AperFunction,Conductor*%
G36*
X88433203Y-81030372D02*
G01*
X88439681Y-81036404D01*
X88513424Y-81110147D01*
X88661394Y-81203122D01*
X88718170Y-81222989D01*
X88822015Y-81259327D01*
X88868741Y-81288687D01*
X90607873Y-83027819D01*
X90641358Y-83089142D01*
X90636374Y-83158834D01*
X90594502Y-83214767D01*
X90529038Y-83239184D01*
X90520192Y-83239500D01*
X89840830Y-83239500D01*
X89840812Y-83239501D01*
X89739747Y-83249825D01*
X89575984Y-83304092D01*
X89575981Y-83304093D01*
X89429148Y-83394661D01*
X89307161Y-83516648D01*
X89216593Y-83663481D01*
X89216591Y-83663486D01*
X89198340Y-83718565D01*
X89162326Y-83827247D01*
X89162326Y-83827248D01*
X89162325Y-83827248D01*
X89152000Y-83928315D01*
X89152000Y-84501669D01*
X89152001Y-84501687D01*
X89162325Y-84602752D01*
X89181234Y-84659814D01*
X89216592Y-84766516D01*
X89258781Y-84834916D01*
X89307161Y-84913351D01*
X89403181Y-85009371D01*
X89436666Y-85070694D01*
X89439500Y-85097052D01*
X89439500Y-85169658D01*
X89419815Y-85236697D01*
X89367011Y-85282452D01*
X89297853Y-85292396D01*
X89268049Y-85284220D01*
X89258496Y-85280263D01*
X89258488Y-85280261D01*
X89103844Y-85249500D01*
X89103841Y-85249500D01*
X88940694Y-85249500D01*
X88745440Y-85249500D01*
X88678401Y-85229815D01*
X88657759Y-85213181D01*
X88264319Y-84819741D01*
X88230834Y-84758418D01*
X88228000Y-84732060D01*
X88228000Y-81124085D01*
X88247685Y-81057046D01*
X88300489Y-81011291D01*
X88369647Y-81001347D01*
X88433203Y-81030372D01*
G37*
%TD.AperFunction*%
%TA.AperFunction,Conductor*%
G36*
X98819415Y-72943961D02*
G01*
X98821648Y-72945338D01*
X98821650Y-72945340D01*
X98968484Y-73035908D01*
X99132247Y-73090174D01*
X99233323Y-73100500D01*
X99374558Y-73100499D01*
X99441598Y-73120183D01*
X99462240Y-73136818D01*
X99935711Y-73610289D01*
X99998310Y-73672888D01*
X100047212Y-73721790D01*
X100178314Y-73809390D01*
X100178316Y-73809391D01*
X100178321Y-73809394D01*
X100280750Y-73851821D01*
X100280753Y-73851822D01*
X100280754Y-73851823D01*
X100312777Y-73865087D01*
X100324003Y-73869737D01*
X100324007Y-73869737D01*
X100324008Y-73869738D01*
X100478654Y-73900500D01*
X100478657Y-73900500D01*
X100478658Y-73900500D01*
X107597569Y-73900500D01*
X107664608Y-73920185D01*
X107710363Y-73972989D01*
X107720789Y-74010617D01*
X107739157Y-74173649D01*
X107739159Y-74173658D01*
X107796877Y-74338604D01*
X107796878Y-74338606D01*
X107889853Y-74486576D01*
X108013424Y-74610147D01*
X108161394Y-74703122D01*
X108284866Y-74746327D01*
X108291455Y-74748633D01*
X108348231Y-74789355D01*
X108373978Y-74854307D01*
X108374500Y-74865674D01*
X108374500Y-75263000D01*
X108354815Y-75330039D01*
X108302011Y-75375794D01*
X108250500Y-75387000D01*
X108009298Y-75387000D01*
X107972432Y-75389901D01*
X107972426Y-75389902D01*
X107814606Y-75435754D01*
X107814603Y-75435755D01*
X107673137Y-75519417D01*
X107673129Y-75519423D01*
X107556923Y-75635629D01*
X107556917Y-75635637D01*
X107473255Y-75777103D01*
X107473254Y-75777106D01*
X107427402Y-75934926D01*
X107427401Y-75934932D01*
X107424500Y-75971798D01*
X107424500Y-77278201D01*
X107427401Y-77315067D01*
X107427402Y-77315073D01*
X107473254Y-77472893D01*
X107473255Y-77472896D01*
X107473256Y-77472898D01*
X107503423Y-77523907D01*
X107556917Y-77614362D01*
X107556923Y-77614370D01*
X107673129Y-77730576D01*
X107673133Y-77730579D01*
X107673135Y-77730581D01*
X107814602Y-77814244D01*
X107856224Y-77826336D01*
X107972426Y-77860097D01*
X107972429Y-77860097D01*
X107972431Y-77860098D01*
X108000330Y-77862293D01*
X108065618Y-77887175D01*
X108078284Y-77898230D01*
X108180373Y-78000319D01*
X108213858Y-78061642D01*
X108208874Y-78131334D01*
X108167002Y-78187267D01*
X108101538Y-78211684D01*
X108092692Y-78212000D01*
X106031149Y-78212000D01*
X105964110Y-78192315D01*
X105924417Y-78151121D01*
X105893083Y-78098138D01*
X105893076Y-78098129D01*
X105776870Y-77981923D01*
X105776862Y-77981917D01*
X105635396Y-77898255D01*
X105635393Y-77898254D01*
X105477573Y-77852402D01*
X105477567Y-77852401D01*
X105440701Y-77849500D01*
X105440694Y-77849500D01*
X105009306Y-77849500D01*
X105009298Y-77849500D01*
X104972432Y-77852401D01*
X104972426Y-77852402D01*
X104814606Y-77898254D01*
X104814603Y-77898255D01*
X104673137Y-77981917D01*
X104673129Y-77981923D01*
X104556923Y-78098129D01*
X104556916Y-78098138D01*
X104525583Y-78151121D01*
X104474514Y-78198805D01*
X104418851Y-78212000D01*
X103153729Y-78212000D01*
X103086690Y-78192315D01*
X103040935Y-78139511D01*
X103030991Y-78070353D01*
X103060016Y-78006797D01*
X103066048Y-78000319D01*
X103282948Y-77783419D01*
X103282951Y-77783416D01*
X103365084Y-77660495D01*
X103421658Y-77523913D01*
X103440566Y-77428858D01*
X103450500Y-77378920D01*
X103450500Y-77106976D01*
X103470185Y-77039937D01*
X103478632Y-77028329D01*
X103535910Y-76958538D01*
X103535915Y-76958529D01*
X103628811Y-76784733D01*
X103628811Y-76784732D01*
X103628814Y-76784727D01*
X103686024Y-76596132D01*
X103705341Y-76400000D01*
X103686024Y-76203868D01*
X103628814Y-76015273D01*
X103628811Y-76015269D01*
X103628811Y-76015266D01*
X103535913Y-75841467D01*
X103535909Y-75841460D01*
X103410883Y-75689116D01*
X103258539Y-75564090D01*
X103258532Y-75564086D01*
X103084733Y-75471188D01*
X103084727Y-75471186D01*
X102896132Y-75413976D01*
X102896129Y-75413975D01*
X102700000Y-75394659D01*
X102503870Y-75413975D01*
X102315266Y-75471188D01*
X102141467Y-75564086D01*
X102141460Y-75564090D01*
X101989116Y-75689116D01*
X101864090Y-75841460D01*
X101864086Y-75841467D01*
X101771188Y-76015266D01*
X101713975Y-76203870D01*
X101694659Y-76400000D01*
X101713975Y-76596129D01*
X101771188Y-76784733D01*
X101862886Y-76956288D01*
X101877128Y-77024691D01*
X101852128Y-77089935D01*
X101841209Y-77102422D01*
X100767120Y-78176511D01*
X100705797Y-78209996D01*
X100697323Y-78211330D01*
X100661891Y-78218376D01*
X100661892Y-78218377D01*
X100500670Y-78250446D01*
X100500661Y-78250449D01*
X100420782Y-78283537D01*
X100318588Y-78325866D01*
X100318579Y-78325871D01*
X100208925Y-78399141D01*
X100154716Y-78435361D01*
X100154713Y-78435364D01*
X99364719Y-79225361D01*
X98826899Y-79763181D01*
X98765576Y-79796666D01*
X98739218Y-79799500D01*
X95199552Y-79799500D01*
X95132513Y-79779815D01*
X95111871Y-79763181D01*
X95078351Y-79729661D01*
X95078350Y-79729660D01*
X94931516Y-79639092D01*
X94767753Y-79584826D01*
X94767751Y-79584825D01*
X94666678Y-79574500D01*
X94068330Y-79574500D01*
X94068312Y-79574501D01*
X93967247Y-79584825D01*
X93803484Y-79639092D01*
X93803481Y-79639093D01*
X93656648Y-79729661D01*
X93542681Y-79843629D01*
X93481358Y-79877114D01*
X93411666Y-79872130D01*
X93367319Y-79843629D01*
X93329319Y-79805629D01*
X93295834Y-79744306D01*
X93293000Y-79717948D01*
X93293000Y-79439107D01*
X93312685Y-79372068D01*
X93351904Y-79333568D01*
X93354233Y-79332131D01*
X93373350Y-79320340D01*
X93495340Y-79198350D01*
X93585908Y-79051516D01*
X93640174Y-78887753D01*
X93650500Y-78786677D01*
X93650499Y-78213324D01*
X93650492Y-78213259D01*
X93640174Y-78112247D01*
X93585908Y-77948484D01*
X93495340Y-77801650D01*
X93373350Y-77679660D01*
X93254462Y-77606329D01*
X93226518Y-77589093D01*
X93226513Y-77589091D01*
X93225069Y-77588612D01*
X93062753Y-77534826D01*
X93062751Y-77534825D01*
X92961678Y-77524500D01*
X92288330Y-77524500D01*
X92288312Y-77524501D01*
X92187247Y-77534825D01*
X92023484Y-77589092D01*
X92023481Y-77589093D01*
X91876648Y-77679661D01*
X91754661Y-77801648D01*
X91664093Y-77948481D01*
X91664091Y-77948486D01*
X91653011Y-77981923D01*
X91609826Y-78112247D01*
X91609826Y-78112248D01*
X91609825Y-78112248D01*
X91599500Y-78213315D01*
X91599500Y-78786669D01*
X91599501Y-78786687D01*
X91609825Y-78887752D01*
X91640946Y-78981666D01*
X91655305Y-79025000D01*
X91664092Y-79051515D01*
X91664093Y-79051518D01*
X91698395Y-79107129D01*
X91731865Y-79161394D01*
X91754661Y-79198351D01*
X91755681Y-79199371D01*
X91756157Y-79200243D01*
X91759138Y-79204013D01*
X91758493Y-79204522D01*
X91789166Y-79260694D01*
X91792000Y-79287052D01*
X91792000Y-79717948D01*
X91772315Y-79784987D01*
X91755681Y-79805629D01*
X91709661Y-79851648D01*
X91619093Y-79998481D01*
X91619091Y-79998486D01*
X91614141Y-80013424D01*
X91564826Y-80162247D01*
X91564826Y-80162248D01*
X91564825Y-80162248D01*
X91554500Y-80263315D01*
X91554500Y-80335192D01*
X91534815Y-80402231D01*
X91482011Y-80447986D01*
X91412853Y-80457930D01*
X91349297Y-80428905D01*
X91342819Y-80422873D01*
X90288687Y-79368741D01*
X90259327Y-79322015D01*
X90222177Y-79215849D01*
X90203122Y-79161394D01*
X90110147Y-79013424D01*
X89986576Y-78889853D01*
X89838606Y-78796878D01*
X89838605Y-78796877D01*
X89838604Y-78796877D01*
X89673658Y-78739159D01*
X89673648Y-78739157D01*
X89500004Y-78719593D01*
X89499996Y-78719593D01*
X89326351Y-78739157D01*
X89326341Y-78739159D01*
X89161395Y-78796877D01*
X89013423Y-78889853D01*
X88889853Y-79013423D01*
X88796877Y-79161395D01*
X88739159Y-79326341D01*
X88739157Y-79326351D01*
X88719593Y-79499996D01*
X88719593Y-79500003D01*
X88738494Y-79667761D01*
X88726439Y-79736583D01*
X88679090Y-79787962D01*
X88667451Y-79793422D01*
X88667662Y-79793860D01*
X88661391Y-79796879D01*
X88513423Y-79889853D01*
X88439681Y-79963596D01*
X88378358Y-79997081D01*
X88308666Y-79992097D01*
X88252733Y-79950225D01*
X88228316Y-79884761D01*
X88228000Y-79875915D01*
X88228000Y-77952940D01*
X88247685Y-77885901D01*
X88264319Y-77865259D01*
X93167759Y-72961819D01*
X93229082Y-72928334D01*
X93255440Y-72925500D01*
X98754318Y-72925500D01*
X98819415Y-72943961D01*
G37*
%TD.AperFunction*%
%TA.AperFunction,Conductor*%
G36*
X120522127Y-71125500D02*
G01*
X120622584Y-71125499D01*
X120689621Y-71145183D01*
X120735377Y-71197986D01*
X120745321Y-71267145D01*
X120722613Y-71319985D01*
X120723452Y-71320503D01*
X120719953Y-71326174D01*
X120719856Y-71326402D01*
X120719662Y-71326646D01*
X120629093Y-71473481D01*
X120629092Y-71473484D01*
X120574826Y-71637247D01*
X120574826Y-71637248D01*
X120574825Y-71637248D01*
X120564500Y-71738315D01*
X120564500Y-71879559D01*
X120544815Y-71946598D01*
X120528181Y-71967240D01*
X120232241Y-72263181D01*
X120170918Y-72296666D01*
X120144560Y-72299500D01*
X112707936Y-72299500D01*
X112640897Y-72279815D01*
X112595142Y-72227011D01*
X112585198Y-72157853D01*
X112588161Y-72143407D01*
X112625500Y-72004057D01*
X112625500Y-71845943D01*
X112584577Y-71693216D01*
X112549074Y-71631722D01*
X112505524Y-71556290D01*
X112505518Y-71556282D01*
X112393717Y-71444481D01*
X112393709Y-71444475D01*
X112256788Y-71365424D01*
X112253498Y-71364062D01*
X112251148Y-71362168D01*
X112249746Y-71361359D01*
X112249872Y-71361140D01*
X112199093Y-71320222D01*
X112177027Y-71253928D01*
X112194305Y-71186229D01*
X112245441Y-71138617D01*
X112300948Y-71125500D01*
X120431610Y-71125500D01*
X120444769Y-71122882D01*
X120482219Y-71121209D01*
X120522127Y-71125500D01*
G37*
%TD.AperFunction*%
%TA.AperFunction,Conductor*%
G36*
X120073270Y-69045185D02*
G01*
X120119025Y-69097989D01*
X120128969Y-69167147D01*
X120122413Y-69192833D01*
X120075908Y-69317517D01*
X120069501Y-69377116D01*
X120069500Y-69377135D01*
X120069500Y-69750500D01*
X120049815Y-69817539D01*
X119997011Y-69863294D01*
X119945500Y-69874500D01*
X112390603Y-69874500D01*
X112323564Y-69854815D01*
X112277809Y-69802011D01*
X112267865Y-69732853D01*
X112296890Y-69669297D01*
X112328603Y-69643113D01*
X112362579Y-69623496D01*
X112393716Y-69605520D01*
X112505520Y-69493716D01*
X112584577Y-69356784D01*
X112625500Y-69204057D01*
X112625500Y-69149500D01*
X112645185Y-69082461D01*
X112697989Y-69036706D01*
X112749500Y-69025500D01*
X120006231Y-69025500D01*
X120073270Y-69045185D01*
G37*
%TD.AperFunction*%
%TD*%
M02*
