%TF.GenerationSoftware,KiCad,Pcbnew,8.0.1*%
%TF.CreationDate,2024-05-01T11:44:26+08:00*%
%TF.ProjectId,bat_rf,6261745f-7266-42e6-9b69-6361645f7063,rev?*%
%TF.SameCoordinates,Original*%
%TF.FileFunction,Copper,L1,Top*%
%TF.FilePolarity,Positive*%
%FSLAX46Y46*%
G04 Gerber Fmt 4.6, Leading zero omitted, Abs format (unit mm)*
G04 Created by KiCad (PCBNEW 8.0.1) date 2024-05-01 11:44:26*
%MOMM*%
%LPD*%
G01*
G04 APERTURE LIST*
G04 Aperture macros list*
%AMRoundRect*
0 Rectangle with rounded corners*
0 $1 Rounding radius*
0 $2 $3 $4 $5 $6 $7 $8 $9 X,Y pos of 4 corners*
0 Add a 4 corners polygon primitive as box body*
4,1,4,$2,$3,$4,$5,$6,$7,$8,$9,$2,$3,0*
0 Add four circle primitives for the rounded corners*
1,1,$1+$1,$2,$3*
1,1,$1+$1,$4,$5*
1,1,$1+$1,$6,$7*
1,1,$1+$1,$8,$9*
0 Add four rect primitives between the rounded corners*
20,1,$1+$1,$2,$3,$4,$5,0*
20,1,$1+$1,$4,$5,$6,$7,0*
20,1,$1+$1,$6,$7,$8,$9,0*
20,1,$1+$1,$8,$9,$2,$3,0*%
G04 Aperture macros list end*
%TA.AperFunction,SMDPad,CuDef*%
%ADD10RoundRect,0.237500X-0.287500X-0.237500X0.287500X-0.237500X0.287500X0.237500X-0.287500X0.237500X0*%
%TD*%
%TA.AperFunction,SMDPad,CuDef*%
%ADD11RoundRect,0.237500X0.287500X0.237500X-0.287500X0.237500X-0.287500X-0.237500X0.287500X-0.237500X0*%
%TD*%
%TA.AperFunction,ComponentPad*%
%ADD12C,4.400000*%
%TD*%
%TA.AperFunction,ComponentPad*%
%ADD13C,4.000000*%
%TD*%
%TA.AperFunction,SMDPad,CuDef*%
%ADD14R,0.700000X1.300000*%
%TD*%
%TA.AperFunction,SMDPad,CuDef*%
%ADD15R,5.320000X7.350000*%
%TD*%
%TA.AperFunction,ComponentPad*%
%ADD16O,1.700000X1.200000*%
%TD*%
%TA.AperFunction,ViaPad*%
%ADD17C,0.500000*%
%TD*%
%TA.AperFunction,ViaPad*%
%ADD18C,1.200000*%
%TD*%
%TA.AperFunction,ViaPad*%
%ADD19C,0.800000*%
%TD*%
%TA.AperFunction,ViaPad*%
%ADD20C,0.550000*%
%TD*%
%TA.AperFunction,ViaPad*%
%ADD21C,1.400000*%
%TD*%
%TA.AperFunction,Conductor*%
%ADD22C,0.250000*%
%TD*%
%TA.AperFunction,Conductor*%
%ADD23C,0.300000*%
%TD*%
%TA.AperFunction,Conductor*%
%ADD24C,0.600000*%
%TD*%
%TA.AperFunction,Conductor*%
%ADD25C,1.200000*%
%TD*%
%TA.AperFunction,Conductor*%
%ADD26C,0.500000*%
%TD*%
%TA.AperFunction,Conductor*%
%ADD27C,3.000000*%
%TD*%
%TA.AperFunction,Conductor*%
%ADD28C,2.200000*%
%TD*%
%TA.AperFunction,Conductor*%
%ADD29C,2.000000*%
%TD*%
%TA.AperFunction,Conductor*%
%ADD30C,2.500000*%
%TD*%
%TA.AperFunction,Conductor*%
%ADD31C,0.800000*%
%TD*%
G04 APERTURE END LIST*
D10*
%TO.P,D13,1,K*%
%TO.N,GNDPWR*%
X66725000Y-75000000D03*
%TO.P,D13,2,A*%
%TO.N,Net-(D13-A)*%
X68475000Y-75000000D03*
%TD*%
D11*
%TO.P,D4,1,K*%
%TO.N,GNDPWR*%
X152375000Y-104000000D03*
%TO.P,D4,2,A*%
%TO.N,Net-(D4-A)*%
X150625000Y-104000000D03*
%TD*%
D10*
%TO.P,D3,1,K*%
%TO.N,GNDPWR*%
X66125000Y-104000000D03*
%TO.P,D3,2,A*%
%TO.N,Net-(D3-A)*%
X67875000Y-104000000D03*
%TD*%
D11*
%TO.P,D2,1,K*%
%TO.N,GNDPWR*%
X152075000Y-75000000D03*
%TO.P,D2,2,A*%
%TO.N,Net-(D2-A)*%
X150325000Y-75000000D03*
%TD*%
D12*
%TO.P,H3,1*%
%TO.N,N/C*%
X67025000Y-107625000D03*
%TD*%
D13*
%TO.P,J2,1,Pin_1*%
%TO.N,Net-(J2-Pin_1)*%
X67750000Y-91900000D03*
%TO.P,J2,2,Pin_2*%
%TO.N,+BATT*%
X67750000Y-87100000D03*
%TD*%
D14*
%TO.P,SW2,1,1*%
%TO.N,Net-(D7-C)*%
X153575000Y-87250000D03*
%TO.P,SW2,2,2*%
%TO.N,unconnected-(SW2-Pad2)*%
X153575000Y-91750000D03*
%TO.P,SW2,3,3*%
%TO.N,unconnected-(SW2-Pad3)*%
X151425000Y-87250000D03*
%TO.P,SW2,4,4*%
%TO.N,GNDD*%
X151425000Y-91750000D03*
%TD*%
D15*
%TO.P,BT1,1,+*%
%TO.N,+BATT*%
X68715000Y-79950000D03*
%TO.P,BT1,2,-*%
%TO.N,Net-(BT1-+-Pad3)*%
X150425000Y-79950000D03*
%TO.P,BT1,3,+*%
X150425000Y-99050000D03*
%TO.P,BT1,4,-*%
%TO.N,GNDPWR*%
X68715000Y-99050000D03*
%TD*%
D12*
%TO.P,H4,1*%
%TO.N,N/C*%
X67025000Y-71225000D03*
%TD*%
%TO.P,H1,1*%
%TO.N,N/C*%
X151725000Y-71225000D03*
%TD*%
%TO.P,H2,1*%
%TO.N,N/C*%
X151725000Y-107625000D03*
%TD*%
D16*
%TO.P,J1,13*%
%TO.N,N/C*%
X149236500Y-85155000D03*
%TO.P,J1,14*%
X149236500Y-93795000D03*
%TO.P,J1,15*%
X153036500Y-85155000D03*
%TO.P,J1,16*%
X153036500Y-93795000D03*
%TD*%
D17*
%TO.N,Net-(Q1-G)*%
X81700000Y-84100000D03*
X81100000Y-81200000D03*
%TO.N,+3V3*%
X90564337Y-83701837D03*
X94400000Y-81700000D03*
%TO.N,GNDD*%
X82300000Y-87400000D03*
X83000000Y-79500000D03*
D18*
X86700000Y-74700000D03*
X82400000Y-77000000D03*
D17*
%TO.N,Net-(D7-C)*%
X96953000Y-76500000D03*
%TO.N,/KEY*%
X97800000Y-92000000D03*
%TO.N,/POWER_EN*%
X84700000Y-88400000D03*
%TO.N,/KEY*%
X87500000Y-88200000D03*
%TO.N,Net-(D7-C)*%
X87500000Y-85100000D03*
D19*
%TO.N,+BATT*%
X72400000Y-80600000D03*
D20*
X131875000Y-93500000D03*
D19*
X72100000Y-82300000D03*
X72300000Y-81500000D03*
X72100000Y-77500000D03*
D20*
X132137162Y-94237838D03*
X132543750Y-93831250D03*
D19*
X72200000Y-78500000D03*
X72400000Y-79400000D03*
%TO.N,GNDPWR*%
X129000000Y-92500000D03*
D20*
X153675841Y-80900000D03*
X68469998Y-99025000D03*
D19*
X78212500Y-76800000D03*
X137832500Y-92332500D03*
X97500000Y-108900000D03*
X150207430Y-105207431D03*
D18*
X144000000Y-84100000D03*
D19*
X82000000Y-96500000D03*
X79500000Y-108500000D03*
X138500000Y-90500000D03*
X111100000Y-74800000D03*
X140182069Y-107090725D03*
X65399847Y-98100153D03*
X65269998Y-75600000D03*
X144000000Y-73000000D03*
X97200000Y-106500000D03*
X74300000Y-87600000D03*
X79631455Y-79731455D03*
X82000000Y-95200000D03*
X77900000Y-78200000D03*
X148000000Y-105000000D03*
D21*
X80600000Y-92400000D03*
D18*
X144800000Y-96500000D03*
D19*
X124500000Y-72000000D03*
X80100000Y-77200000D03*
X82000000Y-97500000D03*
X74200000Y-85700000D03*
X79500000Y-106500000D03*
X121373250Y-107600000D03*
X124500000Y-70000000D03*
X144000000Y-71000000D03*
X102000000Y-70500000D03*
X84500000Y-70000000D03*
X102500000Y-72000000D03*
X140000000Y-96500000D03*
X137500000Y-93500000D03*
D18*
X149256500Y-92225000D03*
D19*
X130500000Y-89500000D03*
X131500000Y-98700000D03*
X77829373Y-79129373D03*
X85500000Y-106000000D03*
X121000000Y-105600000D03*
X140500000Y-109000000D03*
D20*
X85000000Y-72000000D03*
D19*
X73200000Y-84400000D03*
X137500000Y-95000000D03*
%TO.N,GNDD*%
X100650584Y-101831498D03*
X99000000Y-101500000D03*
D17*
X103000000Y-85000000D03*
D19*
X105800000Y-97700000D03*
X100900000Y-97700000D03*
D17*
X148000000Y-94700000D03*
X113295500Y-97900000D03*
D21*
X110600000Y-91300000D03*
D17*
X121700000Y-99200000D03*
D19*
X106000000Y-101900000D03*
D18*
X98353426Y-86161574D03*
D19*
X116304504Y-89165165D03*
D20*
%TO.N,+3V3*%
X113500000Y-87400000D03*
X113458058Y-89941942D03*
D21*
%TO.N,Net-(U2-LX)*%
X140974500Y-95362500D03*
X139275000Y-88100000D03*
D19*
%TO.N,Net-(D2-A)*%
X144000000Y-78025000D03*
D20*
%TO.N,Net-(D13-A)*%
X70500000Y-75000000D03*
%TO.N,/POWER_EN*%
X97556250Y-92825000D03*
D17*
%TO.N,Net-(U2-LED)*%
X145725000Y-79937500D03*
X141400000Y-90800000D03*
D20*
%TO.N,/IO9*%
X102242015Y-87757985D03*
D17*
X102485500Y-92500000D03*
D20*
%TO.N,/GREEN*%
X79300000Y-103300000D03*
X101174265Y-100025735D03*
%TO.N,Net-(D3-A)*%
X69500000Y-104000000D03*
%TO.N,Net-(D4-A)*%
X145000000Y-103800000D03*
%TO.N,/BLUE*%
X118550000Y-90350000D03*
X74300000Y-71800000D03*
%TO.N,/BEEP*%
X104000000Y-103278772D03*
D17*
X93012500Y-105600000D03*
%TO.N,/BAT_EN*%
X80500000Y-98270000D03*
D20*
X101100000Y-98600000D03*
D17*
%TO.N,Net-(D7-C)*%
X147906500Y-85383148D03*
%TD*%
D22*
%TO.N,Net-(D13-A)*%
X69800000Y-75000000D02*
X68475000Y-75000000D01*
D23*
X69800000Y-75000000D02*
X69375000Y-75000000D01*
X70500000Y-75000000D02*
X69800000Y-75000000D01*
D22*
%TO.N,Net-(D2-A)*%
X147025000Y-75000000D02*
X150325000Y-75000000D01*
X144000000Y-78025000D02*
X147025000Y-75000000D01*
%TO.N,Net-(Q1-G)*%
X81700000Y-81800000D02*
X81700000Y-84100000D01*
X81100000Y-81200000D02*
X81700000Y-81800000D01*
%TO.N,+3V3*%
X94400000Y-81700000D02*
X92566174Y-81700000D01*
X92566174Y-81700000D02*
X90564337Y-83701837D01*
D24*
%TO.N,GNDD*%
X103100000Y-86015000D02*
X98500000Y-86015000D01*
X98500000Y-86015000D02*
X98353426Y-86161574D01*
X84400000Y-77000000D02*
X82400000Y-77000000D01*
X86700000Y-74700000D02*
X84400000Y-77000000D01*
D22*
X82900000Y-86800000D02*
X82300000Y-87400000D01*
X83000000Y-79500000D02*
X82900000Y-79600000D01*
X82900000Y-79600000D02*
X82900000Y-86800000D01*
X114169669Y-91300000D02*
X110600000Y-91300000D01*
X116304504Y-89165165D02*
X114169669Y-91300000D01*
D23*
%TO.N,/BLUE*%
X74300000Y-71800000D02*
X74800000Y-71800000D01*
X74800000Y-71800000D02*
X76150000Y-73150000D01*
D22*
X94416173Y-73150000D02*
X76150000Y-73150000D01*
X111750000Y-83550000D02*
X104816173Y-83550000D01*
D23*
X118550000Y-90350000D02*
X111750000Y-83550000D01*
D22*
X104816173Y-83550000D02*
X94416173Y-73150000D01*
%TO.N,Net-(D7-C)*%
X87500000Y-85100000D02*
X88353000Y-85100000D01*
X88353000Y-85100000D02*
X96953000Y-76500000D01*
%TO.N,/KEY*%
X91300000Y-92000000D02*
X87500000Y-88200000D01*
X97800000Y-92000000D02*
X91300000Y-92000000D01*
%TO.N,/POWER_EN*%
X89125000Y-92825000D02*
X84700000Y-88400000D01*
X97556250Y-92825000D02*
X89125000Y-92825000D01*
D25*
%TO.N,+BATT*%
X132275000Y-93900000D02*
X74750000Y-93900000D01*
X132543750Y-93831250D02*
X132375000Y-94000000D01*
D26*
X68575000Y-79925000D02*
X68469998Y-79925000D01*
D27*
X67750000Y-80915000D02*
X68715000Y-79950000D01*
D25*
X74750000Y-93900000D02*
X67825000Y-86975000D01*
D26*
X72300000Y-81500000D02*
X70725000Y-79925000D01*
D28*
X68000000Y-87000000D02*
X68000000Y-80394998D01*
D26*
X72100000Y-82300000D02*
X69725000Y-79925000D01*
X72200000Y-78500000D02*
X71400000Y-79300000D01*
X71400000Y-79300000D02*
X69200000Y-79300000D01*
D29*
X67825000Y-86975000D02*
X67825000Y-80570000D01*
D25*
X132375000Y-94000000D02*
X132275000Y-93900000D01*
D28*
X68000000Y-80394998D02*
X68469998Y-79925000D01*
D29*
X67825000Y-80570000D02*
X68470000Y-79925000D01*
D26*
X72100000Y-77500000D02*
X71350000Y-77500000D01*
X68925000Y-79925000D02*
X68470000Y-79925000D01*
X71350000Y-77500000D02*
X68925000Y-79925000D01*
X71725000Y-79925000D02*
X68470000Y-79925000D01*
D27*
X67750000Y-87100000D02*
X67750000Y-80915000D01*
D26*
X71875000Y-79925000D02*
X68469998Y-79925000D01*
D25*
X132543750Y-93831250D02*
X132137162Y-94237838D01*
D26*
X69200000Y-79300000D02*
X68575000Y-79925000D01*
X72400000Y-80600000D02*
X71725000Y-79925000D01*
D30*
X67825000Y-86975000D02*
X67825000Y-80840000D01*
D25*
X132375000Y-94000000D02*
X131875000Y-93500000D01*
D26*
X69725000Y-79925000D02*
X68470000Y-79925000D01*
D30*
X67825000Y-80840000D02*
X68715000Y-79950000D01*
D26*
X72400000Y-79400000D02*
X71875000Y-79925000D01*
X70725000Y-79925000D02*
X68470000Y-79925000D01*
D23*
%TO.N,GNDPWR*%
X152375000Y-104000000D02*
X151550000Y-104825000D01*
D26*
X68470000Y-99025000D02*
X68470000Y-98030000D01*
X68470000Y-99025000D02*
X70025000Y-99025000D01*
D23*
X150589861Y-104825000D02*
X150207430Y-105207431D01*
D26*
X68470000Y-99025000D02*
X70709582Y-99025000D01*
D23*
X66125000Y-104000000D02*
X66125000Y-103875000D01*
X151550000Y-104825000D02*
X150589861Y-104825000D01*
D26*
X153524998Y-84075002D02*
X153525000Y-84075000D01*
D22*
%TO.N,GNDD*%
X103000000Y-85000000D02*
X103000000Y-85915000D01*
D26*
X105600000Y-101100000D02*
X99400000Y-101100000D01*
D22*
X151425000Y-91750000D02*
X151425000Y-93164648D01*
D26*
X99400000Y-101100000D02*
X99000000Y-101500000D01*
D31*
X105315000Y-86015000D02*
X103100000Y-86015000D01*
D22*
X121700000Y-99200000D02*
X114595500Y-99200000D01*
D26*
X105931498Y-101831498D02*
X100650584Y-101831498D01*
D22*
X148020000Y-94720000D02*
X148000000Y-94700000D01*
D26*
X105800000Y-97700000D02*
X105800000Y-101700000D01*
D22*
X114595500Y-99200000D02*
X113295500Y-97900000D01*
X103000000Y-85915000D02*
X103100000Y-86015000D01*
D26*
X100900000Y-97700000D02*
X105800000Y-97700000D01*
D22*
X149869648Y-94720000D02*
X148020000Y-94720000D01*
D23*
X105800000Y-97700000D02*
X104600000Y-97700000D01*
D26*
X105800000Y-100900000D02*
X105600000Y-101100000D01*
X106000000Y-101900000D02*
X105931498Y-101831498D01*
D22*
X151425000Y-93164648D02*
X149869648Y-94720000D01*
X102900000Y-85100000D02*
X103000000Y-85000000D01*
D31*
X110600000Y-91300000D02*
X105315000Y-86015000D01*
D26*
X105800000Y-101700000D02*
X106000000Y-101900000D01*
D23*
%TO.N,+3V3*%
X113500000Y-89900000D02*
X113458058Y-89941942D01*
X113500000Y-87400000D02*
X113500000Y-89900000D01*
D31*
%TO.N,Net-(U2-LX)*%
X140550000Y-91135786D02*
X140550000Y-94938000D01*
X139275000Y-88100000D02*
X139275000Y-89860786D01*
X139275000Y-89860786D02*
X140550000Y-91135786D01*
X140550000Y-94938000D02*
X140974500Y-95362500D01*
D26*
%TO.N,Net-(D2-A)*%
X147100000Y-74925000D02*
X144000000Y-78025000D01*
X149087500Y-74925000D02*
X147100000Y-74925000D01*
D22*
%TO.N,Net-(U2-LED)*%
X141400000Y-90800000D02*
X141400000Y-84262500D01*
X141400000Y-84262500D02*
X145725000Y-79937500D01*
%TO.N,/IO9*%
X102242015Y-87757985D02*
X102242015Y-92256515D01*
X102242015Y-92256515D02*
X102485500Y-92500000D01*
%TO.N,/GREEN*%
X79400000Y-103300000D02*
X82674265Y-100025735D01*
X79300000Y-103300000D02*
X79400000Y-103300000D01*
X82674265Y-100025735D02*
X101174265Y-100025735D01*
D23*
%TO.N,Net-(D3-A)*%
X67875000Y-104000000D02*
X69500000Y-104000000D01*
%TO.N,Net-(D4-A)*%
X145200000Y-104000000D02*
X145000000Y-103800000D01*
X150625000Y-104000000D02*
X145200000Y-104000000D01*
D22*
%TO.N,/BEEP*%
X97500000Y-105600000D02*
X99821228Y-103278772D01*
D23*
X104000000Y-103278772D02*
X102478772Y-103278772D01*
X104000000Y-103278772D02*
X100328732Y-103278772D01*
D22*
X99821228Y-103278772D02*
X104000000Y-103278772D01*
X97500000Y-105600000D02*
X93012500Y-105600000D01*
D23*
%TO.N,/BAT_EN*%
X96100000Y-98600000D02*
X101100000Y-98600000D01*
X95195002Y-98600000D02*
X96100000Y-98600000D01*
D22*
X96100000Y-98600000D02*
X80830000Y-98600000D01*
X80830000Y-98600000D02*
X80500000Y-98270000D01*
D30*
%TO.N,Net-(J2-Pin_1)*%
X67750000Y-91250000D02*
X67750000Y-91840000D01*
D29*
%TO.N,Net-(BT1-+-Pad3)*%
X150180000Y-99025000D02*
X146456500Y-95301500D01*
X146456500Y-95301500D02*
X146456500Y-83648500D01*
X146456500Y-83648500D02*
X150180000Y-79925000D01*
D22*
%TO.N,Net-(D7-C)*%
X148603352Y-86080000D02*
X152405000Y-86080000D01*
X147906500Y-85383148D02*
X148603352Y-86080000D01*
X152405000Y-86080000D02*
X153575000Y-87250000D01*
%TD*%
%TA.AperFunction,Conductor*%
%TO.N,GNDPWR*%
G36*
X149873092Y-69045185D02*
G01*
X149918847Y-69097989D01*
X149928791Y-69167147D01*
X149899766Y-69230703D01*
X149893734Y-69237181D01*
X149699954Y-69430960D01*
X149498473Y-69688131D01*
X149329454Y-69967723D01*
X149329453Y-69967725D01*
X149280752Y-70075933D01*
X149202171Y-70250536D01*
X149195372Y-70265642D01*
X149195366Y-70265657D01*
X149098178Y-70577547D01*
X149039289Y-70898900D01*
X149019564Y-71225000D01*
X149039289Y-71551099D01*
X149098178Y-71872452D01*
X149195366Y-72184342D01*
X149195370Y-72184354D01*
X149195373Y-72184361D01*
X149329455Y-72482279D01*
X149492064Y-72751267D01*
X149498473Y-72761868D01*
X149699954Y-73019039D01*
X149930960Y-73250045D01*
X150188131Y-73451526D01*
X150188134Y-73451528D01*
X150188137Y-73451530D01*
X150467721Y-73620545D01*
X150765639Y-73754627D01*
X150765652Y-73754631D01*
X150765657Y-73754633D01*
X150949175Y-73811819D01*
X151077547Y-73851821D01*
X151398896Y-73910710D01*
X151725000Y-73930436D01*
X152051104Y-73910710D01*
X152372453Y-73851821D01*
X152684361Y-73754627D01*
X152982279Y-73620545D01*
X153261863Y-73451530D01*
X153519036Y-73250048D01*
X153580139Y-73188945D01*
X153738660Y-73030425D01*
X153799983Y-72996940D01*
X153869675Y-73001924D01*
X153925608Y-73043796D01*
X153950025Y-73109260D01*
X153950341Y-73118106D01*
X153950341Y-84055774D01*
X153930656Y-84122813D01*
X153877852Y-84168568D01*
X153808694Y-84178512D01*
X153770047Y-84166259D01*
X153708950Y-84135129D01*
X153708947Y-84135128D01*
X153708945Y-84135127D01*
X153567569Y-84089190D01*
X153509895Y-84049754D01*
X153482697Y-83985396D01*
X153494612Y-83916549D01*
X153506620Y-83896953D01*
X153528796Y-83867331D01*
X153579091Y-83732483D01*
X153585500Y-83672873D01*
X153585499Y-76227128D01*
X153579091Y-76167517D01*
X153578949Y-76167137D01*
X153528797Y-76032671D01*
X153528793Y-76032664D01*
X153442547Y-75917455D01*
X153442544Y-75917452D01*
X153327335Y-75831206D01*
X153327328Y-75831202D01*
X153192482Y-75780908D01*
X153192483Y-75780908D01*
X153132883Y-75774501D01*
X153132881Y-75774500D01*
X153132873Y-75774500D01*
X153132865Y-75774500D01*
X151370545Y-75774500D01*
X151303506Y-75754815D01*
X151257751Y-75702011D01*
X151247807Y-75632853D01*
X151265006Y-75585404D01*
X151285904Y-75551522D01*
X151285908Y-75551516D01*
X151340174Y-75387753D01*
X151350500Y-75286677D01*
X151350499Y-74713324D01*
X151349347Y-74702051D01*
X151340174Y-74612247D01*
X151307427Y-74513424D01*
X151285908Y-74448484D01*
X151195340Y-74301650D01*
X151073350Y-74179660D01*
X150926516Y-74089092D01*
X150762753Y-74034826D01*
X150762751Y-74034825D01*
X150661678Y-74024500D01*
X149988330Y-74024500D01*
X149988312Y-74024501D01*
X149887247Y-74034825D01*
X149723484Y-74089092D01*
X149723481Y-74089093D01*
X149576648Y-74179661D01*
X149539337Y-74216971D01*
X149478013Y-74250455D01*
X149408322Y-74245469D01*
X149404220Y-74243854D01*
X149306413Y-74203342D01*
X149306407Y-74203340D01*
X149161420Y-74174500D01*
X149161418Y-74174500D01*
X147026082Y-74174500D01*
X147026080Y-74174500D01*
X146881092Y-74203340D01*
X146881086Y-74203342D01*
X146744508Y-74259914D01*
X146744496Y-74259921D01*
X146695269Y-74292813D01*
X146621588Y-74342044D01*
X146621580Y-74342050D01*
X143847228Y-77116402D01*
X143785905Y-77149887D01*
X143785329Y-77150011D01*
X143720196Y-77163856D01*
X143720192Y-77163857D01*
X143547270Y-77240848D01*
X143547265Y-77240851D01*
X143394129Y-77352111D01*
X143267466Y-77492785D01*
X143172821Y-77656715D01*
X143172818Y-77656722D01*
X143126102Y-77800500D01*
X143114326Y-77836744D01*
X143094540Y-78025000D01*
X143114326Y-78213256D01*
X143114327Y-78213259D01*
X143172818Y-78393277D01*
X143172821Y-78393284D01*
X143267467Y-78557216D01*
X143385456Y-78688256D01*
X143394129Y-78697888D01*
X143547265Y-78809148D01*
X143547270Y-78809151D01*
X143720192Y-78886142D01*
X143720197Y-78886144D01*
X143905354Y-78925500D01*
X143905355Y-78925500D01*
X144094644Y-78925500D01*
X144094646Y-78925500D01*
X144279803Y-78886144D01*
X144452730Y-78809151D01*
X144605871Y-78697888D01*
X144732533Y-78557216D01*
X144827179Y-78393284D01*
X144882522Y-78222956D01*
X144912768Y-78173598D01*
X147077266Y-76009100D01*
X147138588Y-75975617D01*
X147208280Y-75980601D01*
X147264213Y-76022473D01*
X147288630Y-76087937D01*
X147281129Y-76140114D01*
X147270908Y-76167517D01*
X147267470Y-76199500D01*
X147264501Y-76227123D01*
X147264500Y-76227135D01*
X147264500Y-80667110D01*
X147244815Y-80734149D01*
X147228181Y-80754791D01*
X145311984Y-82670988D01*
X145173157Y-82862065D01*
X145130091Y-82946588D01*
X145065934Y-83072503D01*
X144992946Y-83297131D01*
X144956000Y-83530402D01*
X144956000Y-95419597D01*
X144992946Y-95652868D01*
X145065933Y-95877496D01*
X145173157Y-96087934D01*
X145311984Y-96279011D01*
X147228181Y-98195208D01*
X147261666Y-98256531D01*
X147264500Y-98282889D01*
X147264500Y-102772870D01*
X147264501Y-102772876D01*
X147270908Y-102832483D01*
X147321202Y-102967328D01*
X147321206Y-102967335D01*
X147364001Y-103024501D01*
X147407454Y-103082546D01*
X147465813Y-103126234D01*
X147507684Y-103182167D01*
X147512668Y-103251859D01*
X147479183Y-103313182D01*
X147417859Y-103346666D01*
X147391502Y-103349500D01*
X145697585Y-103349500D01*
X145630546Y-103329815D01*
X145609904Y-103313181D01*
X145486576Y-103189853D01*
X145385512Y-103126351D01*
X145338606Y-103096878D01*
X145338605Y-103096877D01*
X145338604Y-103096877D01*
X145173658Y-103039159D01*
X145173648Y-103039157D01*
X145000004Y-103019593D01*
X144999996Y-103019593D01*
X144826351Y-103039157D01*
X144826341Y-103039159D01*
X144661395Y-103096877D01*
X144513423Y-103189853D01*
X144389853Y-103313423D01*
X144296877Y-103461395D01*
X144239159Y-103626341D01*
X144239157Y-103626351D01*
X144219593Y-103799996D01*
X144219593Y-103800003D01*
X144239157Y-103973648D01*
X144239159Y-103973658D01*
X144277397Y-104082934D01*
X144296878Y-104138606D01*
X144389853Y-104286576D01*
X144513424Y-104410147D01*
X144661394Y-104503122D01*
X144799700Y-104551518D01*
X144826343Y-104560841D01*
X144848723Y-104563363D01*
X144885914Y-104574928D01*
X144886244Y-104574133D01*
X144891871Y-104576463D01*
X144891873Y-104576465D01*
X145010256Y-104625501D01*
X145010260Y-104625501D01*
X145010261Y-104625502D01*
X145135928Y-104650500D01*
X145135931Y-104650500D01*
X149656792Y-104650500D01*
X149723831Y-104670185D01*
X149749415Y-104693380D01*
X149749553Y-104693243D01*
X149752352Y-104696042D01*
X149754055Y-104697586D01*
X149754655Y-104698345D01*
X149754660Y-104698350D01*
X149876650Y-104820340D01*
X150023484Y-104910908D01*
X150187247Y-104965174D01*
X150288323Y-104975500D01*
X150454335Y-104975499D01*
X150521373Y-104995183D01*
X150567128Y-105047987D01*
X150577072Y-105117145D01*
X150548047Y-105180701D01*
X150505227Y-105212574D01*
X150467728Y-105229451D01*
X150467723Y-105229454D01*
X150188131Y-105398473D01*
X149930960Y-105599954D01*
X149699954Y-105830960D01*
X149498473Y-106088131D01*
X149329454Y-106367723D01*
X149329453Y-106367725D01*
X149195372Y-106665642D01*
X149195366Y-106665657D01*
X149098178Y-106977547D01*
X149039289Y-107298900D01*
X149019564Y-107625000D01*
X149039289Y-107951097D01*
X149098178Y-108272452D01*
X149195366Y-108584342D01*
X149195370Y-108584354D01*
X149195373Y-108584361D01*
X149329455Y-108882279D01*
X149486118Y-109141431D01*
X149498473Y-109161868D01*
X149699954Y-109419039D01*
X149893818Y-109612903D01*
X149927303Y-109674226D01*
X149922319Y-109743918D01*
X149880447Y-109799851D01*
X149814983Y-109824268D01*
X149806143Y-109824584D01*
X120774559Y-109826095D01*
X120707519Y-109806414D01*
X120661761Y-109753612D01*
X120650553Y-109702312D01*
X120650543Y-109696874D01*
X120645830Y-107003469D01*
X144449500Y-107003469D01*
X144489868Y-107206412D01*
X144489870Y-107206420D01*
X144569058Y-107397596D01*
X144684024Y-107569657D01*
X144830342Y-107715975D01*
X144830345Y-107715977D01*
X145002402Y-107830941D01*
X145193580Y-107910130D01*
X145396530Y-107950499D01*
X145396534Y-107950500D01*
X145396535Y-107950500D01*
X145603466Y-107950500D01*
X145603467Y-107950499D01*
X145806420Y-107910130D01*
X145997598Y-107830941D01*
X146169655Y-107715977D01*
X146315977Y-107569655D01*
X146430941Y-107397598D01*
X146510130Y-107206420D01*
X146550500Y-107003465D01*
X146550500Y-106796535D01*
X146510130Y-106593580D01*
X146430941Y-106402402D01*
X146315977Y-106230345D01*
X146315975Y-106230342D01*
X146169657Y-106084024D01*
X146083626Y-106026541D01*
X145997598Y-105969059D01*
X145806420Y-105889870D01*
X145806412Y-105889868D01*
X145603469Y-105849500D01*
X145603465Y-105849500D01*
X145396535Y-105849500D01*
X145396530Y-105849500D01*
X145193587Y-105889868D01*
X145193579Y-105889870D01*
X145002403Y-105969058D01*
X144830342Y-106084024D01*
X144684024Y-106230342D01*
X144569058Y-106402403D01*
X144489870Y-106593579D01*
X144489868Y-106593587D01*
X144449500Y-106796530D01*
X144449500Y-107003469D01*
X120645830Y-107003469D01*
X120640720Y-104082934D01*
X120640716Y-104037243D01*
X120640714Y-104037238D01*
X120640640Y-104036668D01*
X120628690Y-103992382D01*
X120628637Y-103992187D01*
X120623670Y-103973658D01*
X120616819Y-103948102D01*
X120616817Y-103948099D01*
X120616817Y-103948097D01*
X120616599Y-103947575D01*
X120616598Y-103947568D01*
X120593470Y-103907671D01*
X120570665Y-103868183D01*
X120570664Y-103868182D01*
X120570663Y-103868180D01*
X120570568Y-103868056D01*
X120570449Y-103867902D01*
X120570316Y-103867729D01*
X120570314Y-103867727D01*
X120570313Y-103867725D01*
X120538001Y-103835526D01*
X120537906Y-103835430D01*
X120505404Y-103802935D01*
X120505203Y-103802781D01*
X120504950Y-103802587D01*
X120504942Y-103802582D01*
X120465339Y-103779809D01*
X120465366Y-103779761D01*
X120465162Y-103779707D01*
X120425467Y-103756794D01*
X120425289Y-103756721D01*
X120425100Y-103756643D01*
X120424946Y-103756579D01*
X120380754Y-103744821D01*
X120380576Y-103744712D01*
X120380561Y-103744769D01*
X120336315Y-103732919D01*
X120336090Y-103732890D01*
X120335955Y-103732873D01*
X120335758Y-103732847D01*
X120335752Y-103732847D01*
X120289714Y-103732927D01*
X120289513Y-103732927D01*
X104836848Y-103734688D01*
X104769806Y-103715011D01*
X104724046Y-103662212D01*
X104714094Y-103593055D01*
X104719789Y-103569744D01*
X104760841Y-103452429D01*
X104765104Y-103414596D01*
X104780407Y-103278775D01*
X104780407Y-103278768D01*
X104760842Y-103105123D01*
X104760841Y-103105121D01*
X104760841Y-103105115D01*
X104703122Y-102940166D01*
X104610147Y-102792196D01*
X104610146Y-102792195D01*
X104605806Y-102786753D01*
X104607228Y-102785618D01*
X104578145Y-102732356D01*
X104583129Y-102662664D01*
X104625001Y-102606731D01*
X104690465Y-102582314D01*
X104699311Y-102581998D01*
X105366378Y-102581998D01*
X105433417Y-102601683D01*
X105439263Y-102605680D01*
X105547265Y-102684148D01*
X105547270Y-102684151D01*
X105720192Y-102761142D01*
X105720197Y-102761144D01*
X105905354Y-102800500D01*
X105905355Y-102800500D01*
X106094644Y-102800500D01*
X106094646Y-102800500D01*
X106279803Y-102761144D01*
X106452730Y-102684151D01*
X106605871Y-102572888D01*
X106732533Y-102432216D01*
X106827179Y-102268284D01*
X106885674Y-102088256D01*
X106905460Y-101900000D01*
X106885674Y-101711744D01*
X106827179Y-101531716D01*
X106732533Y-101367784D01*
X106605871Y-101227112D01*
X106601610Y-101224016D01*
X106558947Y-101168684D01*
X106550500Y-101123701D01*
X106550500Y-98234321D01*
X106567113Y-98172321D01*
X106627179Y-98068284D01*
X106681857Y-97900002D01*
X112540251Y-97900002D01*
X112559185Y-98068056D01*
X112615045Y-98227694D01*
X112615047Y-98227697D01*
X112705018Y-98370884D01*
X112705023Y-98370890D01*
X112824609Y-98490476D01*
X112824615Y-98490481D01*
X112967802Y-98580452D01*
X112967807Y-98580455D01*
X112967810Y-98580456D01*
X113127441Y-98636313D01*
X113127444Y-98636313D01*
X113131156Y-98637612D01*
X113177883Y-98666973D01*
X114196763Y-99685855D01*
X114196767Y-99685858D01*
X114299210Y-99754309D01*
X114299211Y-99754309D01*
X114299215Y-99754312D01*
X114365896Y-99781931D01*
X114365898Y-99781933D01*
X114413043Y-99801461D01*
X114413048Y-99801463D01*
X114433097Y-99805451D01*
X114466696Y-99812134D01*
X114533892Y-99825501D01*
X114533894Y-99825501D01*
X114663221Y-99825501D01*
X114663241Y-99825500D01*
X121249124Y-99825500D01*
X121315095Y-99844505D01*
X121372310Y-99880456D01*
X121493621Y-99922904D01*
X121531943Y-99936314D01*
X121699997Y-99955249D01*
X121700000Y-99955249D01*
X121700003Y-99955249D01*
X121868056Y-99936314D01*
X121868059Y-99936313D01*
X122027690Y-99880456D01*
X122027692Y-99880454D01*
X122027694Y-99880454D01*
X122027697Y-99880452D01*
X122170884Y-99790481D01*
X122170885Y-99790480D01*
X122170890Y-99790477D01*
X122290477Y-99670890D01*
X122318054Y-99627002D01*
X122380452Y-99527697D01*
X122380454Y-99527694D01*
X122380454Y-99527692D01*
X122380456Y-99527690D01*
X122436313Y-99368059D01*
X122436313Y-99368058D01*
X122436314Y-99368056D01*
X122455249Y-99200002D01*
X122455249Y-99199997D01*
X122436314Y-99031943D01*
X122380454Y-98872305D01*
X122380452Y-98872302D01*
X122290481Y-98729115D01*
X122290476Y-98729109D01*
X122170890Y-98609523D01*
X122170884Y-98609518D01*
X122027697Y-98519547D01*
X122027694Y-98519545D01*
X121868056Y-98463685D01*
X121700003Y-98444751D01*
X121699997Y-98444751D01*
X121531943Y-98463685D01*
X121372307Y-98519545D01*
X121315096Y-98555494D01*
X121249124Y-98574500D01*
X114905953Y-98574500D01*
X114838914Y-98554815D01*
X114818272Y-98538181D01*
X114062473Y-97782383D01*
X114033112Y-97735656D01*
X114031813Y-97731943D01*
X114031813Y-97731941D01*
X113975956Y-97572310D01*
X113975955Y-97572307D01*
X113975952Y-97572302D01*
X113885981Y-97429115D01*
X113885976Y-97429109D01*
X113766390Y-97309523D01*
X113766384Y-97309518D01*
X113623197Y-97219547D01*
X113623194Y-97219545D01*
X113463556Y-97163685D01*
X113295503Y-97144751D01*
X113295497Y-97144751D01*
X113127443Y-97163685D01*
X112967805Y-97219545D01*
X112967802Y-97219547D01*
X112824615Y-97309518D01*
X112824609Y-97309523D01*
X112705023Y-97429109D01*
X112705018Y-97429115D01*
X112615047Y-97572302D01*
X112615045Y-97572305D01*
X112559185Y-97731943D01*
X112540251Y-97899997D01*
X112540251Y-97900002D01*
X106681857Y-97900002D01*
X106685674Y-97888256D01*
X106705460Y-97700000D01*
X106685674Y-97511744D01*
X106627179Y-97331716D01*
X106532533Y-97167784D01*
X106405871Y-97027112D01*
X106405870Y-97027111D01*
X106252734Y-96915851D01*
X106252729Y-96915848D01*
X106079807Y-96838857D01*
X106079802Y-96838855D01*
X105934001Y-96807865D01*
X105894646Y-96799500D01*
X105705354Y-96799500D01*
X105672897Y-96806398D01*
X105520197Y-96838855D01*
X105520192Y-96838857D01*
X105347270Y-96915848D01*
X105347265Y-96915851D01*
X105333548Y-96925818D01*
X105267742Y-96949298D01*
X105260663Y-96949500D01*
X101439337Y-96949500D01*
X101372298Y-96929815D01*
X101366452Y-96925818D01*
X101352734Y-96915851D01*
X101352729Y-96915848D01*
X101179807Y-96838857D01*
X101179802Y-96838855D01*
X101034001Y-96807865D01*
X100994646Y-96799500D01*
X100805354Y-96799500D01*
X100772897Y-96806398D01*
X100620197Y-96838855D01*
X100620192Y-96838857D01*
X100447270Y-96915848D01*
X100447265Y-96915851D01*
X100294129Y-97027111D01*
X100167466Y-97167785D01*
X100072821Y-97331715D01*
X100072818Y-97331722D01*
X100014327Y-97511740D01*
X100014326Y-97511744D01*
X99994540Y-97700000D01*
X100006368Y-97812541D01*
X99993800Y-97881268D01*
X99946068Y-97932292D01*
X99883048Y-97949500D01*
X95130931Y-97949500D01*
X95017232Y-97972117D01*
X94993040Y-97974500D01*
X81269214Y-97974500D01*
X81202175Y-97954815D01*
X81164222Y-97916474D01*
X81090477Y-97799110D01*
X80970890Y-97679523D01*
X80970884Y-97679518D01*
X80827697Y-97589547D01*
X80827694Y-97589545D01*
X80668056Y-97533685D01*
X80500003Y-97514751D01*
X80499997Y-97514751D01*
X80331943Y-97533685D01*
X80172305Y-97589545D01*
X80172302Y-97589547D01*
X80029115Y-97679518D01*
X80029109Y-97679523D01*
X79909523Y-97799109D01*
X79909518Y-97799115D01*
X79819547Y-97942302D01*
X79819545Y-97942305D01*
X79763685Y-98101943D01*
X79744751Y-98269997D01*
X79744751Y-98270002D01*
X79763685Y-98438056D01*
X79819545Y-98597694D01*
X79819547Y-98597697D01*
X79909518Y-98740884D01*
X79909523Y-98740890D01*
X80029109Y-98860476D01*
X80029115Y-98860481D01*
X80172302Y-98950452D01*
X80172307Y-98950455D01*
X80172310Y-98950456D01*
X80331941Y-99006313D01*
X80331943Y-99006313D01*
X80335655Y-99007612D01*
X80382382Y-99036973D01*
X80431268Y-99085859D01*
X80499256Y-99131286D01*
X80533714Y-99154311D01*
X80647548Y-99201463D01*
X80768388Y-99225499D01*
X80768392Y-99225500D01*
X80768393Y-99225500D01*
X80768394Y-99225500D01*
X82348301Y-99225500D01*
X82415340Y-99245185D01*
X82461095Y-99297989D01*
X82471039Y-99367147D01*
X82442014Y-99430703D01*
X82395755Y-99464060D01*
X82390565Y-99466209D01*
X82377978Y-99471423D01*
X82367822Y-99478210D01*
X82367714Y-99478282D01*
X82275533Y-99539875D01*
X82231970Y-99583438D01*
X82188407Y-99627002D01*
X82188404Y-99627005D01*
X79325966Y-102489442D01*
X79264643Y-102522927D01*
X79252169Y-102524981D01*
X79126346Y-102539157D01*
X78961395Y-102596877D01*
X78813423Y-102689853D01*
X78689853Y-102813423D01*
X78596877Y-102961395D01*
X78539159Y-103126341D01*
X78539157Y-103126351D01*
X78519593Y-103299996D01*
X78519593Y-103300003D01*
X78539157Y-103473648D01*
X78539159Y-103473658D01*
X78596877Y-103638604D01*
X78596878Y-103638606D01*
X78689853Y-103786576D01*
X78813424Y-103910147D01*
X78961394Y-104003122D01*
X79126343Y-104060841D01*
X79126349Y-104060841D01*
X79126351Y-104060842D01*
X79299996Y-104080407D01*
X79300000Y-104080407D01*
X79300004Y-104080407D01*
X79473648Y-104060842D01*
X79473647Y-104060842D01*
X79473657Y-104060841D01*
X79638606Y-104003122D01*
X79786576Y-103910147D01*
X79910147Y-103786576D01*
X80003122Y-103638606D01*
X80024530Y-103577424D01*
X80053888Y-103530700D01*
X82897036Y-100687554D01*
X82958359Y-100654069D01*
X82984717Y-100651235D01*
X98273981Y-100651235D01*
X98341020Y-100670920D01*
X98386775Y-100723724D01*
X98396719Y-100792882D01*
X98367694Y-100856438D01*
X98366131Y-100858207D01*
X98267466Y-100967785D01*
X98172821Y-101131715D01*
X98172818Y-101131722D01*
X98114327Y-101311740D01*
X98114326Y-101311744D01*
X98094540Y-101500000D01*
X98114326Y-101688256D01*
X98114327Y-101688259D01*
X98172818Y-101868277D01*
X98172821Y-101868284D01*
X98267467Y-102032216D01*
X98384349Y-102162026D01*
X98394129Y-102172888D01*
X98547265Y-102284148D01*
X98547270Y-102284151D01*
X98720192Y-102361142D01*
X98720197Y-102361144D01*
X98905354Y-102400500D01*
X98905355Y-102400500D01*
X99094644Y-102400500D01*
X99094646Y-102400500D01*
X99279803Y-102361144D01*
X99452730Y-102284151D01*
X99605871Y-102172888D01*
X99615651Y-102162025D01*
X99675137Y-102125377D01*
X99744994Y-102126707D01*
X99803043Y-102165594D01*
X99821077Y-102194554D01*
X99823404Y-102199780D01*
X99823405Y-102199782D01*
X99918051Y-102363714D01*
X99979729Y-102432214D01*
X99992412Y-102446300D01*
X100022642Y-102509291D01*
X100014017Y-102578627D01*
X99969275Y-102632292D01*
X99902623Y-102653250D01*
X99900262Y-102653272D01*
X99759617Y-102653272D01*
X99699199Y-102665290D01*
X99638776Y-102677309D01*
X99638774Y-102677309D01*
X99638773Y-102677310D01*
X99638771Y-102677310D01*
X99614645Y-102687304D01*
X99524946Y-102724457D01*
X99524942Y-102724459D01*
X99493172Y-102745689D01*
X99493170Y-102745690D01*
X99422496Y-102792912D01*
X99382927Y-102832482D01*
X99335370Y-102880039D01*
X99335367Y-102880042D01*
X98305263Y-103910147D01*
X97277229Y-104938181D01*
X97215906Y-104971666D01*
X97189548Y-104974500D01*
X93463376Y-104974500D01*
X93397404Y-104955494D01*
X93340192Y-104919545D01*
X93340191Y-104919544D01*
X93340190Y-104919544D01*
X93285005Y-104900234D01*
X93180556Y-104863685D01*
X93012503Y-104844751D01*
X93012497Y-104844751D01*
X92844443Y-104863685D01*
X92684805Y-104919545D01*
X92684802Y-104919547D01*
X92541615Y-105009518D01*
X92541609Y-105009523D01*
X92422023Y-105129109D01*
X92422018Y-105129115D01*
X92332047Y-105272302D01*
X92332045Y-105272305D01*
X92276185Y-105431943D01*
X92257251Y-105599997D01*
X92257251Y-105600002D01*
X92276185Y-105768056D01*
X92332045Y-105927694D01*
X92332047Y-105927697D01*
X92422018Y-106070884D01*
X92422023Y-106070890D01*
X92541609Y-106190476D01*
X92541615Y-106190481D01*
X92684802Y-106280452D01*
X92684805Y-106280454D01*
X92684809Y-106280455D01*
X92684810Y-106280456D01*
X92757413Y-106305860D01*
X92844443Y-106336314D01*
X93012497Y-106355249D01*
X93012500Y-106355249D01*
X93012503Y-106355249D01*
X93180556Y-106336314D01*
X93180559Y-106336313D01*
X93340190Y-106280456D01*
X93397404Y-106244505D01*
X93463376Y-106225500D01*
X97561607Y-106225500D01*
X97622029Y-106213481D01*
X97682452Y-106201463D01*
X97682455Y-106201461D01*
X97682458Y-106201461D01*
X97715787Y-106187654D01*
X97715786Y-106187654D01*
X97715792Y-106187652D01*
X97796286Y-106154312D01*
X97847509Y-106120084D01*
X97898733Y-106085858D01*
X97985858Y-105998733D01*
X97985859Y-105998731D01*
X97992925Y-105991665D01*
X97992927Y-105991661D01*
X100043186Y-103941403D01*
X100104507Y-103907920D01*
X100155055Y-103907469D01*
X100237701Y-103923908D01*
X100264662Y-103929272D01*
X100264663Y-103929272D01*
X101601425Y-103929272D01*
X101668464Y-103948957D01*
X101714219Y-104001761D01*
X101725425Y-104053260D01*
X101725428Y-104084665D01*
X101725428Y-104084994D01*
X101711069Y-109696874D01*
X101691213Y-109763863D01*
X101638292Y-109809483D01*
X101587083Y-109820557D01*
X68944234Y-109824226D01*
X68877192Y-109804549D01*
X68831431Y-109751750D01*
X68821480Y-109682593D01*
X68850498Y-109619034D01*
X68856539Y-109612545D01*
X69050045Y-109419039D01*
X69050048Y-109419036D01*
X69251530Y-109161863D01*
X69420545Y-108882279D01*
X69554627Y-108584361D01*
X69651821Y-108272453D01*
X69710710Y-107951104D01*
X69710710Y-107951101D01*
X69710711Y-107951097D01*
X69717979Y-107830941D01*
X69730436Y-107625000D01*
X69710710Y-107298896D01*
X69651821Y-106977547D01*
X69595416Y-106796535D01*
X69554633Y-106665657D01*
X69554631Y-106665652D01*
X69554627Y-106665639D01*
X69420545Y-106367721D01*
X69251530Y-106088137D01*
X69251528Y-106088134D01*
X69251526Y-106088131D01*
X69050045Y-105830960D01*
X68819039Y-105599954D01*
X68561868Y-105398473D01*
X68554306Y-105393901D01*
X68282279Y-105229455D01*
X68282275Y-105229453D01*
X68282274Y-105229452D01*
X68230404Y-105206108D01*
X68177349Y-105160643D01*
X68157297Y-105093713D01*
X68176613Y-105026566D01*
X68229165Y-104980522D01*
X68268691Y-104969674D01*
X68312753Y-104965174D01*
X68476516Y-104910908D01*
X68623350Y-104820340D01*
X68745340Y-104698350D01*
X68745341Y-104698347D01*
X68745344Y-104698345D01*
X68745945Y-104697586D01*
X68746489Y-104697200D01*
X68750447Y-104693243D01*
X68751123Y-104693919D01*
X68802968Y-104657211D01*
X68843208Y-104650500D01*
X69041922Y-104650500D01*
X69107894Y-104669506D01*
X69161394Y-104703122D01*
X69326343Y-104760841D01*
X69326349Y-104760841D01*
X69326351Y-104760842D01*
X69499996Y-104780407D01*
X69500000Y-104780407D01*
X69500004Y-104780407D01*
X69673648Y-104760842D01*
X69673647Y-104760842D01*
X69673657Y-104760841D01*
X69838606Y-104703122D01*
X69986576Y-104610147D01*
X70110147Y-104486576D01*
X70203122Y-104338606D01*
X70260841Y-104173657D01*
X70276020Y-104038941D01*
X70280407Y-104000003D01*
X70280407Y-103999996D01*
X70260842Y-103826351D01*
X70260841Y-103826349D01*
X70260841Y-103826343D01*
X70203122Y-103661394D01*
X70110147Y-103513424D01*
X69986576Y-103389853D01*
X69838606Y-103296878D01*
X69838605Y-103296877D01*
X69838604Y-103296877D01*
X69673658Y-103239159D01*
X69673648Y-103239157D01*
X69500004Y-103219593D01*
X69499996Y-103219593D01*
X69326351Y-103239157D01*
X69326341Y-103239159D01*
X69161395Y-103296877D01*
X69161391Y-103296879D01*
X69107894Y-103330494D01*
X69041922Y-103349500D01*
X68843208Y-103349500D01*
X68776169Y-103329815D01*
X68750584Y-103306619D01*
X68750447Y-103306757D01*
X68747647Y-103303957D01*
X68745945Y-103302414D01*
X68745344Y-103301654D01*
X68623351Y-103179661D01*
X68623350Y-103179660D01*
X68532129Y-103123395D01*
X68476518Y-103089093D01*
X68476513Y-103089091D01*
X68475069Y-103088612D01*
X68312753Y-103034826D01*
X68312751Y-103034825D01*
X68211678Y-103024500D01*
X67538330Y-103024500D01*
X67538312Y-103024501D01*
X67437247Y-103034825D01*
X67273484Y-103089092D01*
X67273481Y-103089093D01*
X67126648Y-103179661D01*
X67004661Y-103301648D01*
X66914093Y-103448481D01*
X66914091Y-103448486D01*
X66905753Y-103473648D01*
X66859826Y-103612247D01*
X66859826Y-103612248D01*
X66859825Y-103612248D01*
X66849500Y-103713315D01*
X66849500Y-104286669D01*
X66849501Y-104286687D01*
X66859825Y-104387752D01*
X66892573Y-104486576D01*
X66914092Y-104551516D01*
X67003236Y-104696042D01*
X67004661Y-104698351D01*
X67019596Y-104713286D01*
X67053081Y-104774609D01*
X67048097Y-104844301D01*
X67006225Y-104900234D01*
X66940761Y-104924651D01*
X66939402Y-104924741D01*
X66698900Y-104939289D01*
X66377547Y-104998178D01*
X66065657Y-105095366D01*
X66065641Y-105095372D01*
X66065639Y-105095373D01*
X65920615Y-105160643D01*
X65767725Y-105229453D01*
X65767723Y-105229454D01*
X65488131Y-105398473D01*
X65230960Y-105599954D01*
X65082179Y-105748736D01*
X65020856Y-105782221D01*
X64951164Y-105777237D01*
X64895231Y-105735365D01*
X64870814Y-105669901D01*
X64870498Y-105661055D01*
X64870498Y-91900005D01*
X65244556Y-91900005D01*
X65264310Y-92214004D01*
X65264311Y-92214011D01*
X65286808Y-92331943D01*
X65318866Y-92500000D01*
X65323270Y-92523083D01*
X65420497Y-92822316D01*
X65420499Y-92822321D01*
X65554461Y-93107003D01*
X65554464Y-93107009D01*
X65723051Y-93372661D01*
X65723054Y-93372665D01*
X65923606Y-93615090D01*
X65923608Y-93615092D01*
X66152968Y-93830476D01*
X66152978Y-93830484D01*
X66407504Y-94015408D01*
X66407509Y-94015410D01*
X66407516Y-94015416D01*
X66683234Y-94166994D01*
X66683239Y-94166996D01*
X66683241Y-94166997D01*
X66683242Y-94166998D01*
X66975771Y-94282818D01*
X66975774Y-94282819D01*
X67280523Y-94361065D01*
X67280527Y-94361066D01*
X67346010Y-94369338D01*
X67592670Y-94400499D01*
X67592679Y-94400499D01*
X67592682Y-94400500D01*
X67592684Y-94400500D01*
X67907316Y-94400500D01*
X67907318Y-94400500D01*
X67907321Y-94400499D01*
X67907329Y-94400499D01*
X68093593Y-94376968D01*
X68219473Y-94361066D01*
X68524225Y-94282819D01*
X68527319Y-94281594D01*
X68816757Y-94166998D01*
X68816758Y-94166997D01*
X68816756Y-94166997D01*
X68816766Y-94166994D01*
X69092484Y-94015416D01*
X69347030Y-93830478D01*
X69576390Y-93615094D01*
X69776947Y-93372663D01*
X69945537Y-93107007D01*
X70079503Y-92822315D01*
X70176731Y-92523079D01*
X70235688Y-92214015D01*
X70235689Y-92214004D01*
X70255444Y-91900005D01*
X70255444Y-91899994D01*
X70235689Y-91585995D01*
X70235688Y-91585988D01*
X70235688Y-91585985D01*
X70176731Y-91276921D01*
X70146774Y-91184725D01*
X70144780Y-91114888D01*
X70180860Y-91055055D01*
X70243561Y-91024226D01*
X70312975Y-91032190D01*
X70352387Y-91058729D01*
X74033072Y-94739414D01*
X74173212Y-94841232D01*
X74327555Y-94919873D01*
X74492299Y-94973402D01*
X74663389Y-95000500D01*
X74836611Y-95000500D01*
X131292120Y-95000500D01*
X131359159Y-95020185D01*
X131379801Y-95036819D01*
X131420234Y-95077252D01*
X131560374Y-95179070D01*
X131714717Y-95257711D01*
X131879461Y-95311240D01*
X132050551Y-95338338D01*
X132050552Y-95338338D01*
X132223772Y-95338338D01*
X132223773Y-95338338D01*
X132394863Y-95311240D01*
X132559607Y-95257711D01*
X132713950Y-95179070D01*
X132854090Y-95077252D01*
X133383164Y-94548178D01*
X133387391Y-94542361D01*
X133409500Y-94511930D01*
X133417181Y-94501358D01*
X133417182Y-94501356D01*
X133484982Y-94408038D01*
X133563623Y-94253696D01*
X133571463Y-94229566D01*
X133581016Y-94200165D01*
X133581016Y-94200162D01*
X133617153Y-94088950D01*
X133640017Y-93944587D01*
X133644250Y-93917864D01*
X133644250Y-93744634D01*
X133630701Y-93659094D01*
X133617153Y-93573549D01*
X133563623Y-93408804D01*
X133563621Y-93408801D01*
X133563621Y-93408799D01*
X133520554Y-93324278D01*
X133484982Y-93254462D01*
X133484980Y-93254459D01*
X133484979Y-93254457D01*
X133383170Y-93114327D01*
X133260672Y-92991829D01*
X133120542Y-92890020D01*
X132966200Y-92811378D01*
X132920921Y-92796666D01*
X132801451Y-92757847D01*
X132799532Y-92757543D01*
X132707856Y-92743023D01*
X132644722Y-92713094D01*
X132639573Y-92708231D01*
X132591930Y-92660588D01*
X132591928Y-92660586D01*
X132451788Y-92558768D01*
X132297445Y-92480127D01*
X132132701Y-92426598D01*
X132132699Y-92426597D01*
X132132698Y-92426597D01*
X132001271Y-92405781D01*
X131961611Y-92399500D01*
X131788389Y-92399500D01*
X131748728Y-92405781D01*
X131617302Y-92426597D01*
X131551831Y-92447870D01*
X131480990Y-92470888D01*
X131452552Y-92480128D01*
X131298211Y-92558768D01*
X131158073Y-92660585D01*
X131055476Y-92763182D01*
X130994153Y-92796666D01*
X130967795Y-92799500D01*
X103345760Y-92799500D01*
X103278721Y-92779815D01*
X103232966Y-92727011D01*
X103222540Y-92661617D01*
X103240749Y-92500003D01*
X103240749Y-92499997D01*
X103221814Y-92331943D01*
X103175470Y-92199500D01*
X103165956Y-92172310D01*
X103165955Y-92172309D01*
X103165954Y-92172305D01*
X103165952Y-92172302D01*
X103075981Y-92029115D01*
X103075976Y-92029109D01*
X102956391Y-91909524D01*
X102956385Y-91909519D01*
X102925541Y-91890138D01*
X102879251Y-91837803D01*
X102867515Y-91785146D01*
X102867515Y-88255850D01*
X102886521Y-88189878D01*
X102916394Y-88142335D01*
X102945137Y-88096591D01*
X103002856Y-87931642D01*
X103009702Y-87870884D01*
X103022422Y-87757988D01*
X103022422Y-87757981D01*
X103002857Y-87584336D01*
X103002856Y-87584334D01*
X103002856Y-87584328D01*
X102945137Y-87419379D01*
X102852162Y-87271409D01*
X102728591Y-87147838D01*
X102580621Y-87054863D01*
X102580619Y-87054862D01*
X102580617Y-87054861D01*
X102574350Y-87051843D01*
X102575509Y-87049434D01*
X102528646Y-87015827D01*
X102502894Y-86950876D01*
X102516345Y-86882314D01*
X102564728Y-86831907D01*
X102626371Y-86815500D01*
X102654793Y-86815500D01*
X102702245Y-86824939D01*
X102837334Y-86880894D01*
X102837336Y-86880894D01*
X102837341Y-86880896D01*
X103011304Y-86915499D01*
X103011307Y-86915500D01*
X103011309Y-86915500D01*
X104890638Y-86915500D01*
X104957677Y-86935185D01*
X104978319Y-86951819D01*
X109369627Y-91343126D01*
X109403112Y-91404449D01*
X109405417Y-91419365D01*
X109414885Y-91521535D01*
X109414885Y-91521537D01*
X109475769Y-91735523D01*
X109475775Y-91735538D01*
X109574938Y-91934683D01*
X109574943Y-91934691D01*
X109709020Y-92112238D01*
X109873437Y-92262123D01*
X109873439Y-92262125D01*
X110062595Y-92379245D01*
X110062596Y-92379245D01*
X110062599Y-92379247D01*
X110270060Y-92459618D01*
X110488757Y-92500500D01*
X110488759Y-92500500D01*
X110711241Y-92500500D01*
X110711243Y-92500500D01*
X110929940Y-92459618D01*
X111137401Y-92379247D01*
X111326562Y-92262124D01*
X111490981Y-92112236D01*
X111594788Y-91974772D01*
X111650897Y-91933137D01*
X111693742Y-91925500D01*
X114231277Y-91925500D01*
X114231277Y-91925499D01*
X114311599Y-91909523D01*
X114311600Y-91909523D01*
X114325229Y-91906811D01*
X114352121Y-91901463D01*
X114352126Y-91901460D01*
X114352129Y-91901460D01*
X114385456Y-91887654D01*
X114385455Y-91887654D01*
X114385461Y-91887652D01*
X114465955Y-91854312D01*
X114520975Y-91817548D01*
X114568402Y-91785858D01*
X114655527Y-91698733D01*
X114655527Y-91698731D01*
X114665735Y-91688524D01*
X114665736Y-91688521D01*
X116252276Y-90101984D01*
X116313599Y-90068499D01*
X116339957Y-90065665D01*
X116399148Y-90065665D01*
X116399150Y-90065665D01*
X116584307Y-90026309D01*
X116757234Y-89949316D01*
X116910375Y-89838053D01*
X116921363Y-89825850D01*
X116980849Y-89789201D01*
X117050706Y-89790530D01*
X117101195Y-89821140D01*
X117761313Y-90481258D01*
X117790673Y-90527984D01*
X117838726Y-90665311D01*
X117846878Y-90688606D01*
X117939853Y-90836576D01*
X118063424Y-90960147D01*
X118211394Y-91053122D01*
X118376343Y-91110841D01*
X118376349Y-91110841D01*
X118376351Y-91110842D01*
X118549996Y-91130407D01*
X118550000Y-91130407D01*
X118550004Y-91130407D01*
X118723648Y-91110842D01*
X118723647Y-91110842D01*
X118723657Y-91110841D01*
X118888606Y-91053122D01*
X119036576Y-90960147D01*
X119160147Y-90836576D01*
X119253122Y-90688606D01*
X119310841Y-90523657D01*
X119320850Y-90434822D01*
X119330407Y-90350003D01*
X119330407Y-90349996D01*
X119310842Y-90176351D01*
X119310841Y-90176349D01*
X119310841Y-90176343D01*
X119253122Y-90011394D01*
X119160147Y-89863424D01*
X119036576Y-89739853D01*
X118888606Y-89646878D01*
X118888605Y-89646877D01*
X118888604Y-89646877D01*
X118727984Y-89590673D01*
X118681258Y-89561313D01*
X117219945Y-88100000D01*
X138069357Y-88100000D01*
X138089884Y-88321535D01*
X138089885Y-88321537D01*
X138150769Y-88535523D01*
X138150775Y-88535538D01*
X138249938Y-88734683D01*
X138249943Y-88734691D01*
X138292071Y-88790477D01*
X138349454Y-88866464D01*
X138374146Y-88931824D01*
X138374500Y-88941190D01*
X138374500Y-89949482D01*
X138409103Y-90123445D01*
X138409104Y-90123449D01*
X138409105Y-90123452D01*
X138431014Y-90176343D01*
X138476984Y-90287328D01*
X138476985Y-90287330D01*
X138536063Y-90375746D01*
X138575537Y-90434824D01*
X138575540Y-90434827D01*
X139613181Y-91472466D01*
X139646666Y-91533789D01*
X139649500Y-91560147D01*
X139649500Y-95026696D01*
X139684103Y-95200658D01*
X139684105Y-95200666D01*
X139711796Y-95267517D01*
X139711796Y-95267518D01*
X139751984Y-95364542D01*
X139751986Y-95364545D01*
X139751987Y-95364547D01*
X139754321Y-95368041D01*
X139774694Y-95425495D01*
X139789384Y-95584035D01*
X139789385Y-95584037D01*
X139850269Y-95798023D01*
X139850275Y-95798038D01*
X139949438Y-95997183D01*
X139949443Y-95997191D01*
X140083520Y-96174738D01*
X140247937Y-96324623D01*
X140247939Y-96324625D01*
X140437095Y-96441745D01*
X140437096Y-96441745D01*
X140437099Y-96441747D01*
X140644560Y-96522118D01*
X140863257Y-96563000D01*
X140863259Y-96563000D01*
X141085741Y-96563000D01*
X141085743Y-96563000D01*
X141304440Y-96522118D01*
X141511901Y-96441747D01*
X141701062Y-96324624D01*
X141865481Y-96174736D01*
X141999558Y-95997189D01*
X142098729Y-95798028D01*
X142159615Y-95584036D01*
X142180143Y-95362500D01*
X142176865Y-95327129D01*
X142159615Y-95140964D01*
X142159614Y-95140962D01*
X142157254Y-95132669D01*
X142098729Y-94926972D01*
X142098724Y-94926961D01*
X141999561Y-94727816D01*
X141999556Y-94727808D01*
X141865479Y-94550261D01*
X141701063Y-94400377D01*
X141701062Y-94400376D01*
X141511901Y-94283253D01*
X141511902Y-94283253D01*
X141509222Y-94281594D01*
X141462587Y-94229566D01*
X141450500Y-94176167D01*
X141450500Y-91660372D01*
X141470185Y-91593333D01*
X141522989Y-91547578D01*
X141560615Y-91537151D01*
X141568059Y-91536313D01*
X141727690Y-91480456D01*
X141727693Y-91480453D01*
X141727697Y-91480452D01*
X141870884Y-91390481D01*
X141870885Y-91390480D01*
X141870890Y-91390477D01*
X141990477Y-91270890D01*
X141995004Y-91263685D01*
X142080452Y-91127697D01*
X142080454Y-91127694D01*
X142080454Y-91127692D01*
X142080456Y-91127690D01*
X142136313Y-90968059D01*
X142136313Y-90968058D01*
X142136314Y-90968056D01*
X142155249Y-90800002D01*
X142155249Y-90799997D01*
X142136314Y-90631943D01*
X142118302Y-90580469D01*
X142080456Y-90472310D01*
X142052940Y-90428518D01*
X142044506Y-90415095D01*
X142025500Y-90349123D01*
X142025500Y-84572952D01*
X142045185Y-84505913D01*
X142061819Y-84485271D01*
X143878813Y-82668277D01*
X145842618Y-80704471D01*
X145889343Y-80675112D01*
X145893053Y-80673813D01*
X145893059Y-80673813D01*
X146052690Y-80617956D01*
X146052692Y-80617955D01*
X146052697Y-80617952D01*
X146195884Y-80527981D01*
X146195885Y-80527980D01*
X146195890Y-80527977D01*
X146315477Y-80408390D01*
X146405452Y-80265197D01*
X146405454Y-80265194D01*
X146405454Y-80265192D01*
X146405456Y-80265190D01*
X146461313Y-80105559D01*
X146461313Y-80105558D01*
X146461314Y-80105556D01*
X146480249Y-79937502D01*
X146480249Y-79937497D01*
X146461314Y-79769443D01*
X146405454Y-79609805D01*
X146405452Y-79609802D01*
X146315481Y-79466615D01*
X146315476Y-79466609D01*
X146195890Y-79347023D01*
X146195884Y-79347018D01*
X146052697Y-79257047D01*
X146052694Y-79257045D01*
X145893056Y-79201185D01*
X145725003Y-79182251D01*
X145724997Y-79182251D01*
X145556943Y-79201185D01*
X145397305Y-79257045D01*
X145397302Y-79257047D01*
X145254115Y-79347018D01*
X145254109Y-79347023D01*
X145134523Y-79466609D01*
X145134518Y-79466615D01*
X145044547Y-79609802D01*
X145044544Y-79609808D01*
X144987388Y-79773153D01*
X144958027Y-79819880D01*
X141001269Y-83776640D01*
X140914144Y-83863764D01*
X140914138Y-83863772D01*
X140845690Y-83966208D01*
X140845688Y-83966213D01*
X140816842Y-84035855D01*
X140816842Y-84035856D01*
X140798537Y-84080047D01*
X140798535Y-84080053D01*
X140794454Y-84100569D01*
X140794455Y-84100570D01*
X140777126Y-84187694D01*
X140774500Y-84200894D01*
X140774500Y-84200897D01*
X140774500Y-89787424D01*
X140754815Y-89854463D01*
X140702011Y-89900218D01*
X140632853Y-89910162D01*
X140569297Y-89881137D01*
X140562819Y-89875105D01*
X140211819Y-89524105D01*
X140178334Y-89462782D01*
X140175500Y-89436424D01*
X140175500Y-88941190D01*
X140195185Y-88874151D01*
X140200538Y-88866473D01*
X140300058Y-88734689D01*
X140399229Y-88535528D01*
X140460115Y-88321536D01*
X140480643Y-88100000D01*
X140478076Y-88072302D01*
X140460115Y-87878464D01*
X140460114Y-87878462D01*
X140458362Y-87872305D01*
X140399229Y-87664472D01*
X140399224Y-87664461D01*
X140300061Y-87465316D01*
X140300056Y-87465308D01*
X140165979Y-87287761D01*
X140001562Y-87137876D01*
X140001560Y-87137874D01*
X139812404Y-87020754D01*
X139812398Y-87020752D01*
X139812272Y-87020703D01*
X139604940Y-86940382D01*
X139386243Y-86899500D01*
X139163757Y-86899500D01*
X138945060Y-86940382D01*
X138836470Y-86982450D01*
X138737601Y-87020752D01*
X138737595Y-87020754D01*
X138548439Y-87137874D01*
X138548437Y-87137876D01*
X138384020Y-87287761D01*
X138249943Y-87465308D01*
X138249938Y-87465316D01*
X138150775Y-87664461D01*
X138150769Y-87664476D01*
X138089885Y-87878462D01*
X138089884Y-87878464D01*
X138069357Y-88099999D01*
X138069357Y-88100000D01*
X117219945Y-88100000D01*
X112164674Y-83044727D01*
X112164673Y-83044726D01*
X112164669Y-83044723D01*
X112058127Y-82973535D01*
X111993071Y-82946588D01*
X111939744Y-82924499D01*
X111939736Y-82924497D01*
X111814073Y-82899501D01*
X111814069Y-82899501D01*
X111685931Y-82899501D01*
X111685927Y-82899501D01*
X111572231Y-82922117D01*
X111548040Y-82924500D01*
X105126625Y-82924500D01*
X105059586Y-82904815D01*
X105038944Y-82888181D01*
X94906371Y-72755608D01*
X94906351Y-72755586D01*
X94814906Y-72664141D01*
X94763682Y-72629915D01*
X94712460Y-72595689D01*
X94712461Y-72595689D01*
X94712459Y-72595688D01*
X94628329Y-72560841D01*
X94628327Y-72560840D01*
X94628326Y-72560839D01*
X94598626Y-72548537D01*
X94588600Y-72546543D01*
X94538202Y-72536518D01*
X94477783Y-72524500D01*
X94477780Y-72524500D01*
X94477779Y-72524500D01*
X76495808Y-72524500D01*
X76428769Y-72504815D01*
X76408127Y-72488181D01*
X75214674Y-71294727D01*
X75214673Y-71294726D01*
X75214669Y-71294723D01*
X75108127Y-71223535D01*
X74989744Y-71174499D01*
X74989738Y-71174497D01*
X74864071Y-71149500D01*
X74864069Y-71149500D01*
X74758078Y-71149500D01*
X74692106Y-71130494D01*
X74638608Y-71096879D01*
X74638604Y-71096877D01*
X74473658Y-71039159D01*
X74473648Y-71039157D01*
X74300004Y-71019593D01*
X74299996Y-71019593D01*
X74126351Y-71039157D01*
X74126341Y-71039159D01*
X73961395Y-71096877D01*
X73813423Y-71189853D01*
X73689853Y-71313423D01*
X73596877Y-71461395D01*
X73539159Y-71626341D01*
X73539157Y-71626351D01*
X73519593Y-71799996D01*
X73519593Y-71800003D01*
X73539157Y-71973648D01*
X73539159Y-71973657D01*
X73596878Y-72138606D01*
X73689853Y-72286576D01*
X73813424Y-72410147D01*
X73961394Y-72503122D01*
X74126343Y-72560841D01*
X74126349Y-72560841D01*
X74126351Y-72560842D01*
X74299996Y-72580407D01*
X74300000Y-72580407D01*
X74300004Y-72580407D01*
X74473652Y-72560842D01*
X74473653Y-72560841D01*
X74473657Y-72560841D01*
X74524002Y-72543223D01*
X74593780Y-72539661D01*
X74652638Y-72572584D01*
X75735324Y-73655271D01*
X75735331Y-73655277D01*
X75841871Y-73726464D01*
X75841870Y-73726464D01*
X75876544Y-73740826D01*
X75960256Y-73775501D01*
X76085926Y-73800498D01*
X76085930Y-73800499D01*
X76085931Y-73800499D01*
X76214070Y-73800499D01*
X76214070Y-73800498D01*
X76327768Y-73777882D01*
X76351959Y-73775500D01*
X85770080Y-73775500D01*
X85837119Y-73795185D01*
X85882874Y-73847989D01*
X85892818Y-73917147D01*
X85869034Y-73974227D01*
X85760327Y-74118178D01*
X85669422Y-74300739D01*
X85669417Y-74300752D01*
X85613602Y-74496918D01*
X85601659Y-74625811D01*
X85575873Y-74690749D01*
X85565869Y-74702051D01*
X84104741Y-76163181D01*
X84043418Y-76196666D01*
X84017060Y-76199500D01*
X83203459Y-76199500D01*
X83136420Y-76179815D01*
X83119927Y-76167143D01*
X83066041Y-76118019D01*
X83066038Y-76118017D01*
X83066037Y-76118016D01*
X82892642Y-76010655D01*
X82892635Y-76010651D01*
X82797546Y-75973814D01*
X82702456Y-75936976D01*
X82501976Y-75899500D01*
X82298024Y-75899500D01*
X82097544Y-75936976D01*
X82097541Y-75936976D01*
X82097541Y-75936977D01*
X81907364Y-76010651D01*
X81907357Y-76010655D01*
X81733960Y-76118017D01*
X81733958Y-76118019D01*
X81583237Y-76255418D01*
X81460327Y-76418178D01*
X81369422Y-76600739D01*
X81369417Y-76600752D01*
X81313602Y-76796917D01*
X81294785Y-76999999D01*
X81294785Y-77000000D01*
X81313602Y-77203082D01*
X81369417Y-77399247D01*
X81369422Y-77399260D01*
X81460327Y-77581821D01*
X81583237Y-77744581D01*
X81733958Y-77881980D01*
X81733960Y-77881982D01*
X81733962Y-77881983D01*
X81907363Y-77989348D01*
X82097544Y-78063024D01*
X82298024Y-78100500D01*
X82298026Y-78100500D01*
X82501974Y-78100500D01*
X82501976Y-78100500D01*
X82702456Y-78063024D01*
X82892637Y-77989348D01*
X83066041Y-77881981D01*
X83119922Y-77832861D01*
X83182724Y-77802246D01*
X83203459Y-77800500D01*
X84478844Y-77800500D01*
X84478845Y-77800499D01*
X84633497Y-77769737D01*
X84779179Y-77709394D01*
X84910289Y-77621789D01*
X86695259Y-75836819D01*
X86756582Y-75803334D01*
X86782940Y-75800500D01*
X86801974Y-75800500D01*
X86801976Y-75800500D01*
X87002456Y-75763024D01*
X87192637Y-75689348D01*
X87366041Y-75581981D01*
X87516764Y-75444579D01*
X87639673Y-75281821D01*
X87730582Y-75099250D01*
X87786397Y-74903083D01*
X87805215Y-74700000D01*
X87786397Y-74496917D01*
X87730582Y-74300750D01*
X87728654Y-74296879D01*
X87667717Y-74174500D01*
X87639673Y-74118179D01*
X87530966Y-73974227D01*
X87506274Y-73908865D01*
X87520839Y-73840531D01*
X87570037Y-73790918D01*
X87629920Y-73775500D01*
X94105721Y-73775500D01*
X94172760Y-73795185D01*
X94193402Y-73811819D01*
X96311187Y-75929604D01*
X96344672Y-75990927D01*
X96339688Y-76060619D01*
X96328500Y-76083257D01*
X96272544Y-76172309D01*
X96215388Y-76335653D01*
X96186027Y-76382380D01*
X88130229Y-84438181D01*
X88068906Y-84471666D01*
X88042548Y-84474500D01*
X87950876Y-84474500D01*
X87884904Y-84455494D01*
X87827692Y-84419545D01*
X87827691Y-84419544D01*
X87827690Y-84419544D01*
X87789370Y-84406135D01*
X87668056Y-84363685D01*
X87500003Y-84344751D01*
X87499997Y-84344751D01*
X87331943Y-84363685D01*
X87172305Y-84419545D01*
X87172302Y-84419547D01*
X87029115Y-84509518D01*
X87029109Y-84509523D01*
X86909523Y-84629109D01*
X86909518Y-84629115D01*
X86819547Y-84772302D01*
X86819545Y-84772305D01*
X86763685Y-84931943D01*
X86744751Y-85099997D01*
X86744751Y-85100002D01*
X86763685Y-85268056D01*
X86819545Y-85427694D01*
X86819547Y-85427697D01*
X86909518Y-85570884D01*
X86909523Y-85570890D01*
X87029109Y-85690476D01*
X87029115Y-85690481D01*
X87172302Y-85780452D01*
X87172305Y-85780454D01*
X87172309Y-85780455D01*
X87172310Y-85780456D01*
X87244913Y-85805860D01*
X87331943Y-85836314D01*
X87499997Y-85855249D01*
X87500000Y-85855249D01*
X87500003Y-85855249D01*
X87668056Y-85836314D01*
X87668059Y-85836313D01*
X87827690Y-85780456D01*
X87884904Y-85744505D01*
X87950876Y-85725500D01*
X88414608Y-85725500D01*
X88414608Y-85725499D01*
X88488319Y-85710838D01*
X88488320Y-85710838D01*
X88512211Y-85706085D01*
X88535452Y-85701463D01*
X88586167Y-85680456D01*
X88649286Y-85654312D01*
X88694372Y-85624186D01*
X88702512Y-85618747D01*
X88702526Y-85618737D01*
X88702561Y-85618714D01*
X88751733Y-85585858D01*
X88838858Y-85498733D01*
X88838858Y-85498731D01*
X88849066Y-85488524D01*
X88849068Y-85488521D01*
X89993941Y-84343647D01*
X90055262Y-84310164D01*
X90124954Y-84315148D01*
X90147592Y-84326336D01*
X90207033Y-84363685D01*
X90236647Y-84382293D01*
X90357958Y-84424741D01*
X90396280Y-84438151D01*
X90564334Y-84457086D01*
X90564337Y-84457086D01*
X90564340Y-84457086D01*
X90732393Y-84438151D01*
X90732619Y-84438072D01*
X90892027Y-84382293D01*
X90892029Y-84382291D01*
X90892031Y-84382291D01*
X90892034Y-84382289D01*
X91035221Y-84292318D01*
X91035222Y-84292317D01*
X91035227Y-84292314D01*
X91154814Y-84172727D01*
X91154818Y-84172721D01*
X91244789Y-84029534D01*
X91244792Y-84029529D01*
X91258929Y-83989127D01*
X91300650Y-83869896D01*
X91300650Y-83869891D01*
X91301950Y-83866178D01*
X91331309Y-83819453D01*
X92788945Y-82361819D01*
X92850268Y-82328334D01*
X92876626Y-82325500D01*
X93949124Y-82325500D01*
X94015095Y-82344505D01*
X94072310Y-82380456D01*
X94193621Y-82422904D01*
X94231943Y-82436314D01*
X94399997Y-82455249D01*
X94400000Y-82455249D01*
X94400003Y-82455249D01*
X94568056Y-82436314D01*
X94568059Y-82436313D01*
X94727690Y-82380456D01*
X94727692Y-82380454D01*
X94727694Y-82380454D01*
X94727697Y-82380452D01*
X94870884Y-82290481D01*
X94870885Y-82290480D01*
X94870890Y-82290477D01*
X94990477Y-82170890D01*
X95028453Y-82110452D01*
X95080452Y-82027697D01*
X95080454Y-82027694D01*
X95080454Y-82027692D01*
X95080456Y-82027690D01*
X95136313Y-81868059D01*
X95136313Y-81868058D01*
X95136314Y-81868056D01*
X95155249Y-81700002D01*
X95155249Y-81699997D01*
X95136314Y-81531943D01*
X95080454Y-81372305D01*
X95080452Y-81372302D01*
X94990481Y-81229115D01*
X94990476Y-81229109D01*
X94870890Y-81109523D01*
X94870884Y-81109518D01*
X94727697Y-81019547D01*
X94727694Y-81019545D01*
X94568056Y-80963685D01*
X94400003Y-80944751D01*
X94399997Y-80944751D01*
X94231943Y-80963685D01*
X94072307Y-81019545D01*
X94015096Y-81055494D01*
X93949124Y-81074500D01*
X93562453Y-81074500D01*
X93495414Y-81054815D01*
X93449659Y-81002011D01*
X93439715Y-80932853D01*
X93468740Y-80869297D01*
X93474772Y-80862819D01*
X94366707Y-79970884D01*
X97070618Y-77266971D01*
X97117343Y-77237612D01*
X97121053Y-77236313D01*
X97121059Y-77236313D01*
X97280690Y-77180456D01*
X97369745Y-77124498D01*
X97436977Y-77105499D01*
X97503812Y-77125866D01*
X97523395Y-77141812D01*
X104327189Y-83945606D01*
X104327218Y-83945637D01*
X104417434Y-84035853D01*
X104417437Y-84035855D01*
X104417440Y-84035858D01*
X104445340Y-84054500D01*
X104519887Y-84104312D01*
X104555568Y-84119091D01*
X104594274Y-84135124D01*
X104594279Y-84135125D01*
X104594283Y-84135127D01*
X104633721Y-84151463D01*
X104684715Y-84161606D01*
X104754564Y-84175499D01*
X104754565Y-84175500D01*
X104754566Y-84175500D01*
X104754567Y-84175500D01*
X111404192Y-84175500D01*
X111471231Y-84195185D01*
X111491873Y-84211819D01*
X113699815Y-86419761D01*
X113733300Y-86481084D01*
X113728316Y-86550776D01*
X113686444Y-86606709D01*
X113620980Y-86631126D01*
X113598251Y-86630662D01*
X113500004Y-86619593D01*
X113499996Y-86619593D01*
X113326351Y-86639157D01*
X113326341Y-86639159D01*
X113161395Y-86696877D01*
X113013423Y-86789853D01*
X112889853Y-86913423D01*
X112796877Y-87061395D01*
X112739159Y-87226341D01*
X112739157Y-87226351D01*
X112719593Y-87399996D01*
X112719593Y-87400003D01*
X112739157Y-87573648D01*
X112739159Y-87573658D01*
X112796877Y-87738604D01*
X112796879Y-87738608D01*
X112830494Y-87792106D01*
X112849500Y-87858078D01*
X112849500Y-89417113D01*
X112830494Y-89483084D01*
X112754936Y-89603334D01*
X112697217Y-89768283D01*
X112697215Y-89768293D01*
X112677651Y-89941938D01*
X112677651Y-89941945D01*
X112697215Y-90115590D01*
X112697217Y-90115600D01*
X112734013Y-90220754D01*
X112754936Y-90280548D01*
X112820472Y-90384848D01*
X112847911Y-90428518D01*
X112882212Y-90462819D01*
X112915697Y-90524142D01*
X112910713Y-90593834D01*
X112868841Y-90649767D01*
X112803377Y-90674184D01*
X112794531Y-90674500D01*
X111693742Y-90674500D01*
X111626703Y-90654815D01*
X111594788Y-90625227D01*
X111490979Y-90487761D01*
X111326562Y-90337876D01*
X111326560Y-90337874D01*
X111137404Y-90220754D01*
X111137398Y-90220752D01*
X110929940Y-90140382D01*
X110711243Y-90099500D01*
X110711241Y-90099500D01*
X110705608Y-90098447D01*
X110705942Y-90096657D01*
X110648729Y-90073933D01*
X110637434Y-90063935D01*
X105889041Y-85315540D01*
X105889038Y-85315537D01*
X105817980Y-85268058D01*
X105741544Y-85216985D01*
X105741542Y-85216984D01*
X105658169Y-85182451D01*
X105577666Y-85149105D01*
X105577658Y-85149103D01*
X105403696Y-85114500D01*
X105403692Y-85114500D01*
X105403691Y-85114500D01*
X103878963Y-85114500D01*
X103811924Y-85094815D01*
X103766169Y-85042011D01*
X103755743Y-85004383D01*
X103736314Y-84831944D01*
X103715447Y-84772310D01*
X103680456Y-84672310D01*
X103680455Y-84672309D01*
X103680454Y-84672305D01*
X103680452Y-84672302D01*
X103590481Y-84529115D01*
X103590476Y-84529109D01*
X103470890Y-84409523D01*
X103470884Y-84409518D01*
X103327697Y-84319547D01*
X103327694Y-84319545D01*
X103168056Y-84263685D01*
X103000003Y-84244751D01*
X102999997Y-84244751D01*
X102831943Y-84263685D01*
X102672305Y-84319545D01*
X102672302Y-84319547D01*
X102529115Y-84409518D01*
X102529109Y-84409523D01*
X102409523Y-84529109D01*
X102409518Y-84529115D01*
X102319547Y-84672302D01*
X102319545Y-84672305D01*
X102263685Y-84831943D01*
X102244751Y-84999997D01*
X102244751Y-85000003D01*
X102253383Y-85076617D01*
X102241328Y-85145439D01*
X102193979Y-85196818D01*
X102130163Y-85214500D01*
X98949619Y-85214500D01*
X98884342Y-85195927D01*
X98846068Y-85172229D01*
X98846061Y-85172225D01*
X98659630Y-85100002D01*
X98655882Y-85098550D01*
X98455402Y-85061074D01*
X98251450Y-85061074D01*
X98050970Y-85098550D01*
X98050967Y-85098550D01*
X98050967Y-85098551D01*
X97860790Y-85172225D01*
X97860783Y-85172229D01*
X97687386Y-85279591D01*
X97687384Y-85279593D01*
X97536663Y-85416992D01*
X97413753Y-85579752D01*
X97322848Y-85762313D01*
X97322843Y-85762326D01*
X97267028Y-85958491D01*
X97248211Y-86161573D01*
X97248211Y-86161574D01*
X97267028Y-86364656D01*
X97322843Y-86560821D01*
X97322848Y-86560834D01*
X97413753Y-86743395D01*
X97536663Y-86906155D01*
X97687384Y-87043554D01*
X97687386Y-87043556D01*
X97725915Y-87067412D01*
X97860789Y-87150922D01*
X98050970Y-87224598D01*
X98251450Y-87262074D01*
X98251452Y-87262074D01*
X98455400Y-87262074D01*
X98455402Y-87262074D01*
X98655882Y-87224598D01*
X98846063Y-87150922D01*
X99019467Y-87043555D01*
X99170190Y-86906153D01*
X99201439Y-86864773D01*
X99257548Y-86823137D01*
X99300393Y-86815500D01*
X101857659Y-86815500D01*
X101924698Y-86835185D01*
X101970453Y-86887989D01*
X101980397Y-86957147D01*
X101951372Y-87020703D01*
X101908656Y-87049717D01*
X101909680Y-87051843D01*
X101903412Y-87054861D01*
X101755438Y-87147838D01*
X101631868Y-87271408D01*
X101538892Y-87419380D01*
X101481174Y-87584326D01*
X101481172Y-87584336D01*
X101461608Y-87757981D01*
X101461608Y-87757988D01*
X101481172Y-87931633D01*
X101481174Y-87931643D01*
X101538892Y-88096589D01*
X101538894Y-88096593D01*
X101597509Y-88189878D01*
X101616515Y-88255850D01*
X101616515Y-92318126D01*
X101640550Y-92438959D01*
X101640555Y-92438976D01*
X101687700Y-92552796D01*
X101687704Y-92552804D01*
X101691690Y-92558768D01*
X101694642Y-92563185D01*
X101723658Y-92606611D01*
X101744535Y-92673287D01*
X101726050Y-92740667D01*
X101674071Y-92787357D01*
X101620555Y-92799500D01*
X98444598Y-92799500D01*
X98377559Y-92779815D01*
X98331804Y-92727011D01*
X98321378Y-92689384D01*
X98317092Y-92651349D01*
X98317091Y-92651347D01*
X98317091Y-92651343D01*
X98315070Y-92645569D01*
X98311508Y-92575794D01*
X98344430Y-92516936D01*
X98390477Y-92470890D01*
X98480456Y-92327690D01*
X98536313Y-92168059D01*
X98536313Y-92168058D01*
X98536314Y-92168056D01*
X98555249Y-92000002D01*
X98555249Y-91999997D01*
X98536314Y-91831943D01*
X98480454Y-91672305D01*
X98480452Y-91672302D01*
X98390481Y-91529115D01*
X98390476Y-91529109D01*
X98270890Y-91409523D01*
X98270884Y-91409518D01*
X98127697Y-91319547D01*
X98127694Y-91319545D01*
X97968056Y-91263685D01*
X97800003Y-91244751D01*
X97799997Y-91244751D01*
X97631943Y-91263685D01*
X97472307Y-91319545D01*
X97415096Y-91355494D01*
X97349124Y-91374500D01*
X91610453Y-91374500D01*
X91543414Y-91354815D01*
X91522772Y-91338181D01*
X88266973Y-88082383D01*
X88237612Y-88035656D01*
X88236313Y-88031943D01*
X88236313Y-88031941D01*
X88180456Y-87872310D01*
X88180455Y-87872307D01*
X88180452Y-87872302D01*
X88090481Y-87729115D01*
X88090476Y-87729109D01*
X87970890Y-87609523D01*
X87970884Y-87609518D01*
X87827697Y-87519547D01*
X87827694Y-87519545D01*
X87668056Y-87463685D01*
X87500003Y-87444751D01*
X87499997Y-87444751D01*
X87331943Y-87463685D01*
X87172305Y-87519545D01*
X87172302Y-87519547D01*
X87029115Y-87609518D01*
X87029109Y-87609523D01*
X86909523Y-87729109D01*
X86909518Y-87729115D01*
X86819547Y-87872302D01*
X86819545Y-87872305D01*
X86763685Y-88031943D01*
X86744751Y-88199997D01*
X86744751Y-88200002D01*
X86763685Y-88368056D01*
X86819545Y-88527694D01*
X86819547Y-88527697D01*
X86909518Y-88670884D01*
X86909523Y-88670890D01*
X87029109Y-88790476D01*
X87029115Y-88790481D01*
X87172302Y-88880452D01*
X87172307Y-88880455D01*
X87172310Y-88880456D01*
X87331941Y-88936313D01*
X87331944Y-88936313D01*
X87335656Y-88937612D01*
X87382383Y-88966973D01*
X90403228Y-91987819D01*
X90436713Y-92049142D01*
X90431729Y-92118834D01*
X90389857Y-92174767D01*
X90324393Y-92199184D01*
X90315547Y-92199500D01*
X89435452Y-92199500D01*
X89368413Y-92179815D01*
X89347771Y-92163181D01*
X85466973Y-88282383D01*
X85437612Y-88235656D01*
X85436313Y-88231943D01*
X85436313Y-88231941D01*
X85380456Y-88072310D01*
X85380455Y-88072307D01*
X85380452Y-88072302D01*
X85290481Y-87929115D01*
X85290476Y-87929109D01*
X85170890Y-87809523D01*
X85170884Y-87809518D01*
X85027697Y-87719547D01*
X85027694Y-87719545D01*
X84868056Y-87663685D01*
X84700003Y-87644751D01*
X84699997Y-87644751D01*
X84531943Y-87663685D01*
X84372305Y-87719545D01*
X84372302Y-87719547D01*
X84229115Y-87809518D01*
X84229109Y-87809523D01*
X84109523Y-87929109D01*
X84109518Y-87929115D01*
X84019547Y-88072302D01*
X84019545Y-88072305D01*
X83963685Y-88231943D01*
X83944751Y-88399997D01*
X83944751Y-88400002D01*
X83963685Y-88568056D01*
X84019545Y-88727694D01*
X84019547Y-88727697D01*
X84109518Y-88870884D01*
X84109523Y-88870890D01*
X84229109Y-88990476D01*
X84229115Y-88990481D01*
X84372302Y-89080452D01*
X84372307Y-89080455D01*
X84372310Y-89080456D01*
X84531941Y-89136313D01*
X84531944Y-89136313D01*
X84535656Y-89137612D01*
X84582383Y-89166973D01*
X88003229Y-92587819D01*
X88036714Y-92649142D01*
X88031730Y-92718834D01*
X87989858Y-92774767D01*
X87924394Y-92799184D01*
X87915548Y-92799500D01*
X75257204Y-92799500D01*
X75190165Y-92779815D01*
X75169523Y-92763181D01*
X70215576Y-87809234D01*
X70182091Y-87747911D01*
X70181453Y-87698324D01*
X70235688Y-87414015D01*
X70243306Y-87292931D01*
X70255444Y-87100005D01*
X70255444Y-87099994D01*
X70235689Y-86785995D01*
X70235688Y-86785988D01*
X70235688Y-86785985D01*
X70176731Y-86476921D01*
X70079503Y-86177685D01*
X70071921Y-86161573D01*
X69945538Y-85892996D01*
X69945537Y-85892993D01*
X69874118Y-85780454D01*
X69776948Y-85627338D01*
X69774658Y-85624186D01*
X69776092Y-85623143D01*
X69751381Y-85565476D01*
X69750500Y-85550724D01*
X69750500Y-84249499D01*
X69770185Y-84182460D01*
X69822989Y-84136705D01*
X69874500Y-84125499D01*
X71422871Y-84125499D01*
X71422872Y-84125499D01*
X71482483Y-84119091D01*
X71617331Y-84068796D01*
X71732546Y-83982546D01*
X71818796Y-83867331D01*
X71869091Y-83732483D01*
X71875500Y-83672873D01*
X71875499Y-83324498D01*
X71895183Y-83257461D01*
X71947987Y-83211706D01*
X71999499Y-83200500D01*
X72194644Y-83200500D01*
X72194646Y-83200500D01*
X72379803Y-83161144D01*
X72552730Y-83084151D01*
X72705871Y-82972888D01*
X72832533Y-82832216D01*
X72927179Y-82668284D01*
X72985674Y-82488256D01*
X73005460Y-82300000D01*
X72988857Y-82142034D01*
X73001426Y-82073308D01*
X73020031Y-82046101D01*
X73032530Y-82032220D01*
X73032531Y-82032217D01*
X73032533Y-82032216D01*
X73127179Y-81868284D01*
X73185674Y-81688256D01*
X73205460Y-81500000D01*
X73185674Y-81311744D01*
X73149366Y-81200002D01*
X80344751Y-81200002D01*
X80363685Y-81368056D01*
X80419545Y-81527694D01*
X80419547Y-81527697D01*
X80509518Y-81670884D01*
X80509523Y-81670890D01*
X80629109Y-81790476D01*
X80629115Y-81790481D01*
X80772302Y-81880452D01*
X80772307Y-81880455D01*
X80772310Y-81880456D01*
X80931941Y-81936313D01*
X80931944Y-81936313D01*
X80935656Y-81937612D01*
X80982383Y-81966973D01*
X81038181Y-82022771D01*
X81071666Y-82084094D01*
X81074500Y-82110452D01*
X81074500Y-83649123D01*
X81055494Y-83715095D01*
X81019545Y-83772307D01*
X80963685Y-83931943D01*
X80944751Y-84099997D01*
X80944751Y-84100002D01*
X80963685Y-84268056D01*
X81019545Y-84427694D01*
X81019547Y-84427697D01*
X81109518Y-84570884D01*
X81109523Y-84570890D01*
X81229109Y-84690476D01*
X81229115Y-84690481D01*
X81372302Y-84780452D01*
X81372305Y-84780454D01*
X81372309Y-84780455D01*
X81372310Y-84780456D01*
X81444913Y-84805860D01*
X81531943Y-84836314D01*
X81699997Y-84855249D01*
X81700000Y-84855249D01*
X81700003Y-84855249D01*
X81868056Y-84836314D01*
X81880545Y-84831944D01*
X82027690Y-84780456D01*
X82084527Y-84744743D01*
X82151764Y-84725742D01*
X82218599Y-84746109D01*
X82263814Y-84799377D01*
X82274500Y-84849736D01*
X82274500Y-86489546D01*
X82254815Y-86556585D01*
X82238180Y-86577228D01*
X82182379Y-86633028D01*
X82135653Y-86662388D01*
X81972308Y-86719544D01*
X81972302Y-86719547D01*
X81829115Y-86809518D01*
X81829109Y-86809523D01*
X81709523Y-86929109D01*
X81709518Y-86929115D01*
X81619547Y-87072302D01*
X81619545Y-87072305D01*
X81563685Y-87231943D01*
X81544751Y-87399997D01*
X81544751Y-87400002D01*
X81563685Y-87568056D01*
X81619545Y-87727694D01*
X81619547Y-87727697D01*
X81709518Y-87870884D01*
X81709523Y-87870890D01*
X81829109Y-87990476D01*
X81829115Y-87990481D01*
X81972302Y-88080452D01*
X81972305Y-88080454D01*
X81972309Y-88080455D01*
X81972310Y-88080456D01*
X82018427Y-88096593D01*
X82131943Y-88136314D01*
X82299997Y-88155249D01*
X82300000Y-88155249D01*
X82300003Y-88155249D01*
X82468056Y-88136314D01*
X82468059Y-88136313D01*
X82627690Y-88080456D01*
X82627692Y-88080454D01*
X82627694Y-88080454D01*
X82627697Y-88080452D01*
X82770884Y-87990481D01*
X82770885Y-87990480D01*
X82770890Y-87990477D01*
X82890477Y-87870890D01*
X82890481Y-87870884D01*
X82980452Y-87727697D01*
X82980455Y-87727692D01*
X83002575Y-87664476D01*
X83036313Y-87568059D01*
X83036313Y-87568054D01*
X83037613Y-87564341D01*
X83066972Y-87517616D01*
X83298729Y-87285860D01*
X83298733Y-87285858D01*
X83385858Y-87198733D01*
X83421567Y-87145291D01*
X83421568Y-87145290D01*
X83454309Y-87096291D01*
X83454309Y-87096289D01*
X83454312Y-87096286D01*
X83487652Y-87015792D01*
X83501463Y-86982452D01*
X83525500Y-86861606D01*
X83525500Y-80087229D01*
X83545185Y-80020190D01*
X83561819Y-79999548D01*
X83590477Y-79970890D01*
X83610312Y-79939323D01*
X83680452Y-79827697D01*
X83680454Y-79827694D01*
X83680454Y-79827692D01*
X83680456Y-79827690D01*
X83736313Y-79668059D01*
X83736313Y-79668058D01*
X83736314Y-79668056D01*
X83755249Y-79500002D01*
X83755249Y-79499997D01*
X83736314Y-79331943D01*
X83680454Y-79172305D01*
X83680452Y-79172302D01*
X83590481Y-79029115D01*
X83590476Y-79029109D01*
X83470890Y-78909523D01*
X83470884Y-78909518D01*
X83327697Y-78819547D01*
X83327694Y-78819545D01*
X83168056Y-78763685D01*
X83000003Y-78744751D01*
X82999997Y-78744751D01*
X82831943Y-78763685D01*
X82672305Y-78819545D01*
X82672302Y-78819547D01*
X82529115Y-78909518D01*
X82529109Y-78909523D01*
X82409523Y-79029109D01*
X82409518Y-79029115D01*
X82319547Y-79172302D01*
X82319545Y-79172305D01*
X82263685Y-79331943D01*
X82244751Y-79499997D01*
X82244751Y-79500002D01*
X82263685Y-79668056D01*
X82267541Y-79679073D01*
X82274500Y-79720028D01*
X82274500Y-81190548D01*
X82254815Y-81257587D01*
X82202011Y-81303342D01*
X82132853Y-81313286D01*
X82069297Y-81284261D01*
X82062819Y-81278229D01*
X81866973Y-81082383D01*
X81837612Y-81035656D01*
X81836313Y-81031943D01*
X81836313Y-81031941D01*
X81780456Y-80872310D01*
X81780455Y-80872307D01*
X81780452Y-80872302D01*
X81690481Y-80729115D01*
X81690476Y-80729109D01*
X81570890Y-80609523D01*
X81570884Y-80609518D01*
X81427697Y-80519547D01*
X81427694Y-80519545D01*
X81268056Y-80463685D01*
X81100003Y-80444751D01*
X81099997Y-80444751D01*
X80931943Y-80463685D01*
X80772305Y-80519545D01*
X80772302Y-80519547D01*
X80629115Y-80609518D01*
X80629109Y-80609523D01*
X80509523Y-80729109D01*
X80509518Y-80729115D01*
X80419547Y-80872302D01*
X80419545Y-80872305D01*
X80363685Y-81031943D01*
X80344751Y-81199997D01*
X80344751Y-81200002D01*
X73149366Y-81200002D01*
X73146270Y-81190474D01*
X73144276Y-81120634D01*
X73156813Y-81090161D01*
X73227179Y-80968284D01*
X73285674Y-80788256D01*
X73305460Y-80600000D01*
X73285674Y-80411744D01*
X73227179Y-80231716D01*
X73132533Y-80067784D01*
X73129284Y-80062156D01*
X73131929Y-80060628D01*
X73112779Y-80007421D01*
X73128417Y-79939323D01*
X73129344Y-79937879D01*
X73129284Y-79937844D01*
X73153071Y-79896642D01*
X73227179Y-79768284D01*
X73285674Y-79588256D01*
X73305460Y-79400000D01*
X73285674Y-79211744D01*
X73227179Y-79031716D01*
X73132533Y-78867784D01*
X73103137Y-78835137D01*
X73072909Y-78772148D01*
X73077357Y-78713850D01*
X73085674Y-78688256D01*
X73105460Y-78500000D01*
X73085674Y-78311744D01*
X73027179Y-78131716D01*
X72936024Y-77973830D01*
X72919551Y-77905929D01*
X72925480Y-77873512D01*
X72949203Y-77800500D01*
X72985674Y-77688256D01*
X73005460Y-77500000D01*
X72985674Y-77311744D01*
X72927179Y-77131716D01*
X72832533Y-76967784D01*
X72705871Y-76827112D01*
X72705870Y-76827111D01*
X72552734Y-76715851D01*
X72552729Y-76715848D01*
X72379807Y-76638857D01*
X72379802Y-76638855D01*
X72234001Y-76607865D01*
X72194646Y-76599500D01*
X72005354Y-76599500D01*
X71999499Y-76599500D01*
X71932460Y-76579815D01*
X71886705Y-76527011D01*
X71875499Y-76475500D01*
X71875499Y-76227129D01*
X71875498Y-76227123D01*
X71875497Y-76227116D01*
X71869091Y-76167517D01*
X71868949Y-76167137D01*
X71818797Y-76032671D01*
X71818793Y-76032664D01*
X71732547Y-75917455D01*
X71732544Y-75917452D01*
X71617335Y-75831206D01*
X71617328Y-75831202D01*
X71482482Y-75780908D01*
X71482483Y-75780908D01*
X71422883Y-75774501D01*
X71422881Y-75774500D01*
X71422873Y-75774500D01*
X71422865Y-75774500D01*
X71121585Y-75774500D01*
X71054546Y-75754815D01*
X71008791Y-75702011D01*
X70998847Y-75632853D01*
X71027872Y-75569297D01*
X71033904Y-75562819D01*
X71045210Y-75551513D01*
X71110147Y-75486576D01*
X71203122Y-75338606D01*
X71260841Y-75173657D01*
X71269223Y-75099260D01*
X71280407Y-75000003D01*
X71280407Y-74999996D01*
X71260842Y-74826351D01*
X71260841Y-74826349D01*
X71260841Y-74826343D01*
X71203122Y-74661394D01*
X71110147Y-74513424D01*
X70986576Y-74389853D01*
X70838606Y-74296878D01*
X70838605Y-74296877D01*
X70838604Y-74296877D01*
X70673658Y-74239159D01*
X70673648Y-74239157D01*
X70500004Y-74219593D01*
X70499996Y-74219593D01*
X70326351Y-74239157D01*
X70326341Y-74239159D01*
X70161395Y-74296877D01*
X70161391Y-74296879D01*
X70107894Y-74330494D01*
X70041922Y-74349500D01*
X69443208Y-74349500D01*
X69376169Y-74329815D01*
X69350584Y-74306619D01*
X69350447Y-74306757D01*
X69347647Y-74303957D01*
X69345945Y-74302414D01*
X69345344Y-74301654D01*
X69223351Y-74179661D01*
X69223350Y-74179660D01*
X69076516Y-74089092D01*
X68912753Y-74034826D01*
X68912751Y-74034825D01*
X68811678Y-74024500D01*
X68138330Y-74024500D01*
X68138312Y-74024501D01*
X68037247Y-74034825D01*
X67873484Y-74089092D01*
X67873481Y-74089093D01*
X67726648Y-74179661D01*
X67604661Y-74301648D01*
X67514093Y-74448481D01*
X67514092Y-74448484D01*
X67459826Y-74612247D01*
X67459826Y-74612248D01*
X67459825Y-74612248D01*
X67449500Y-74713315D01*
X67449500Y-75286669D01*
X67449501Y-75286687D01*
X67459825Y-75387752D01*
X67514092Y-75551515D01*
X67514095Y-75551522D01*
X67534994Y-75585404D01*
X67553434Y-75652796D01*
X67532511Y-75719459D01*
X67478869Y-75764229D01*
X67429455Y-75774500D01*
X66007129Y-75774500D01*
X66007123Y-75774501D01*
X65947516Y-75780908D01*
X65812671Y-75831202D01*
X65812664Y-75831206D01*
X65697455Y-75917452D01*
X65697452Y-75917455D01*
X65611206Y-76032664D01*
X65611202Y-76032671D01*
X65560908Y-76167517D01*
X65557470Y-76199500D01*
X65554501Y-76227123D01*
X65554500Y-76227135D01*
X65554500Y-83672870D01*
X65554501Y-83672876D01*
X65560908Y-83732483D01*
X65611202Y-83867328D01*
X65611203Y-83867329D01*
X65611204Y-83867331D01*
X65646882Y-83914990D01*
X65697452Y-83982544D01*
X65697453Y-83982544D01*
X65697454Y-83982546D01*
X65699807Y-83984307D01*
X65701572Y-83986665D01*
X65703725Y-83988818D01*
X65703415Y-83989127D01*
X65741680Y-84040238D01*
X65749500Y-84083577D01*
X65749500Y-85550724D01*
X65729815Y-85617763D01*
X65725199Y-85624082D01*
X65725342Y-85624186D01*
X65723051Y-85627338D01*
X65554464Y-85892990D01*
X65554461Y-85892996D01*
X65420499Y-86177678D01*
X65420497Y-86177683D01*
X65323270Y-86476916D01*
X65264311Y-86785988D01*
X65264310Y-86785995D01*
X65244556Y-87099994D01*
X65244556Y-87100005D01*
X65264310Y-87414004D01*
X65264311Y-87414011D01*
X65284443Y-87519544D01*
X65318545Y-87698317D01*
X65323270Y-87723083D01*
X65420497Y-88022316D01*
X65420499Y-88022321D01*
X65554461Y-88307003D01*
X65554464Y-88307009D01*
X65723051Y-88572661D01*
X65723054Y-88572665D01*
X65923606Y-88815090D01*
X65923608Y-88815092D01*
X65923610Y-88815094D01*
X66110374Y-88990477D01*
X66152968Y-89030476D01*
X66152978Y-89030484D01*
X66407504Y-89215408D01*
X66407509Y-89215410D01*
X66407516Y-89215416D01*
X66683234Y-89366994D01*
X66683238Y-89366995D01*
X66683239Y-89366996D01*
X66727973Y-89384708D01*
X66783058Y-89427689D01*
X66806161Y-89493629D01*
X66789947Y-89561591D01*
X66739564Y-89609999D01*
X66727973Y-89615292D01*
X66683239Y-89633003D01*
X66407516Y-89784584D01*
X66407504Y-89784591D01*
X66152978Y-89969515D01*
X66152968Y-89969523D01*
X65923608Y-90184907D01*
X65923606Y-90184909D01*
X65723054Y-90427334D01*
X65723051Y-90427338D01*
X65554464Y-90692990D01*
X65554461Y-90692996D01*
X65420499Y-90977678D01*
X65420497Y-90977683D01*
X65323270Y-91276916D01*
X65264311Y-91585988D01*
X65264310Y-91585995D01*
X65244556Y-91899994D01*
X65244556Y-91900005D01*
X64870498Y-91900005D01*
X64870498Y-73188945D01*
X64890183Y-73121906D01*
X64942987Y-73076151D01*
X65012145Y-73066207D01*
X65075701Y-73095232D01*
X65082179Y-73101264D01*
X65230960Y-73250045D01*
X65488131Y-73451526D01*
X65488134Y-73451528D01*
X65488137Y-73451530D01*
X65767721Y-73620545D01*
X66065639Y-73754627D01*
X66065652Y-73754631D01*
X66065657Y-73754633D01*
X66249175Y-73811819D01*
X66377547Y-73851821D01*
X66698896Y-73910710D01*
X67025000Y-73930436D01*
X67351104Y-73910710D01*
X67672453Y-73851821D01*
X67984361Y-73754627D01*
X68282279Y-73620545D01*
X68561863Y-73451530D01*
X68819036Y-73250048D01*
X69050048Y-73019036D01*
X69251530Y-72761863D01*
X69420545Y-72482279D01*
X69554627Y-72184361D01*
X69651821Y-71872453D01*
X69710710Y-71551104D01*
X69730436Y-71225000D01*
X69710710Y-70898896D01*
X69651821Y-70577547D01*
X69554627Y-70265639D01*
X69420545Y-69967721D01*
X69251530Y-69688137D01*
X69251528Y-69688134D01*
X69251526Y-69688131D01*
X69050045Y-69430960D01*
X68856266Y-69237181D01*
X68822781Y-69175858D01*
X68827765Y-69106166D01*
X68869637Y-69050233D01*
X68935101Y-69025816D01*
X68943947Y-69025500D01*
X149806053Y-69025500D01*
X149873092Y-69045185D01*
G37*
%TD.AperFunction*%
%TA.AperFunction,Conductor*%
G36*
X153903455Y-94797120D02*
G01*
X153943713Y-94854226D01*
X153950341Y-94894225D01*
X153950341Y-105731894D01*
X153930656Y-105798933D01*
X153877852Y-105844688D01*
X153808694Y-105854632D01*
X153745138Y-105825607D01*
X153738660Y-105819575D01*
X153519039Y-105599954D01*
X153261868Y-105398473D01*
X153254306Y-105393901D01*
X152982279Y-105229455D01*
X152684361Y-105095373D01*
X152684354Y-105095370D01*
X152684342Y-105095366D01*
X152372452Y-104998178D01*
X152051099Y-104939289D01*
X151751021Y-104921138D01*
X151725000Y-104919564D01*
X151724999Y-104919564D01*
X151571460Y-104928851D01*
X151503355Y-104913250D01*
X151454495Y-104863304D01*
X151440395Y-104794872D01*
X151465529Y-104729680D01*
X151476287Y-104717402D01*
X151495340Y-104698350D01*
X151585908Y-104551516D01*
X151640174Y-104387753D01*
X151650500Y-104286677D01*
X151650499Y-103713324D01*
X151645194Y-103661395D01*
X151640174Y-103612247D01*
X151607427Y-103513424D01*
X151585908Y-103448484D01*
X151585904Y-103448478D01*
X151585903Y-103448475D01*
X151565006Y-103414596D01*
X151546565Y-103347204D01*
X151567487Y-103280540D01*
X151621129Y-103235771D01*
X151670544Y-103225499D01*
X153132871Y-103225499D01*
X153132872Y-103225499D01*
X153192483Y-103219091D01*
X153327331Y-103168796D01*
X153442546Y-103082546D01*
X153528796Y-102967331D01*
X153579091Y-102832483D01*
X153585500Y-102772873D01*
X153585499Y-95327128D01*
X153579091Y-95267517D01*
X153554157Y-95200666D01*
X153528797Y-95132671D01*
X153528795Y-95132668D01*
X153476402Y-95062680D01*
X153451985Y-94997218D01*
X153466836Y-94928945D01*
X153516241Y-94879539D01*
X153539754Y-94870481D01*
X153539568Y-94869907D01*
X153544198Y-94868402D01*
X153544201Y-94868402D01*
X153708945Y-94814873D01*
X153770045Y-94783740D01*
X153838714Y-94770844D01*
X153903455Y-94797120D01*
G37*
%TD.AperFunction*%
%TA.AperFunction,Conductor*%
G36*
X148162203Y-86523888D02*
G01*
X148168682Y-86529921D01*
X148204615Y-86565855D01*
X148204619Y-86565858D01*
X148307062Y-86634309D01*
X148307063Y-86634309D01*
X148307067Y-86634312D01*
X148373748Y-86661931D01*
X148373750Y-86661933D01*
X148420895Y-86681461D01*
X148420900Y-86681463D01*
X148440949Y-86685451D01*
X148474548Y-86692134D01*
X148541744Y-86705501D01*
X148541746Y-86705501D01*
X148671073Y-86705501D01*
X148671093Y-86705500D01*
X150450500Y-86705500D01*
X150517539Y-86725185D01*
X150563294Y-86777989D01*
X150574500Y-86829500D01*
X150574500Y-87947870D01*
X150574501Y-87947876D01*
X150580908Y-88007483D01*
X150631202Y-88142328D01*
X150631206Y-88142335D01*
X150717452Y-88257544D01*
X150717455Y-88257547D01*
X150832664Y-88343793D01*
X150832671Y-88343797D01*
X150967517Y-88394091D01*
X150967516Y-88394091D01*
X150974444Y-88394835D01*
X151027127Y-88400500D01*
X151822872Y-88400499D01*
X151882483Y-88394091D01*
X152017331Y-88343796D01*
X152132546Y-88257546D01*
X152218796Y-88142331D01*
X152269091Y-88007483D01*
X152275500Y-87947873D01*
X152275499Y-87134450D01*
X152295183Y-87067412D01*
X152347987Y-87021657D01*
X152417146Y-87011713D01*
X152480702Y-87040738D01*
X152487180Y-87046770D01*
X152688181Y-87247771D01*
X152721666Y-87309094D01*
X152724500Y-87335452D01*
X152724500Y-87947870D01*
X152724501Y-87947876D01*
X152730908Y-88007483D01*
X152781202Y-88142328D01*
X152781206Y-88142335D01*
X152867452Y-88257544D01*
X152867455Y-88257547D01*
X152982664Y-88343793D01*
X152982671Y-88343797D01*
X153027618Y-88360561D01*
X153117517Y-88394091D01*
X153177127Y-88400500D01*
X153826341Y-88400499D01*
X153893380Y-88420183D01*
X153939135Y-88472987D01*
X153950341Y-88524499D01*
X153950341Y-90475500D01*
X153930656Y-90542539D01*
X153877852Y-90588294D01*
X153826341Y-90599500D01*
X153177129Y-90599500D01*
X153177123Y-90599501D01*
X153117516Y-90605908D01*
X152982671Y-90656202D01*
X152982664Y-90656206D01*
X152867455Y-90742452D01*
X152867452Y-90742455D01*
X152781206Y-90857664D01*
X152781202Y-90857671D01*
X152730908Y-90992517D01*
X152724501Y-91052116D01*
X152724501Y-91052123D01*
X152724500Y-91052135D01*
X152724500Y-92447870D01*
X152724501Y-92447876D01*
X152730908Y-92507482D01*
X152742047Y-92537347D01*
X152747030Y-92607038D01*
X152713544Y-92668361D01*
X152652220Y-92701845D01*
X152645263Y-92703151D01*
X152528801Y-92721597D01*
X152386652Y-92767784D01*
X152316810Y-92769779D01*
X152256978Y-92733698D01*
X152226150Y-92670997D01*
X152232151Y-92606522D01*
X152269091Y-92507483D01*
X152275500Y-92447873D01*
X152275499Y-91052128D01*
X152269091Y-90992517D01*
X152263558Y-90977683D01*
X152218797Y-90857671D01*
X152218793Y-90857664D01*
X152132547Y-90742455D01*
X152132544Y-90742452D01*
X152017335Y-90656206D01*
X152017328Y-90656202D01*
X151882482Y-90605908D01*
X151882483Y-90605908D01*
X151822883Y-90599501D01*
X151822881Y-90599500D01*
X151822873Y-90599500D01*
X151822864Y-90599500D01*
X151027129Y-90599500D01*
X151027123Y-90599501D01*
X150967516Y-90605908D01*
X150832671Y-90656202D01*
X150832664Y-90656206D01*
X150717455Y-90742452D01*
X150717452Y-90742455D01*
X150631206Y-90857664D01*
X150631202Y-90857671D01*
X150580908Y-90992517D01*
X150574501Y-91052116D01*
X150574501Y-91052123D01*
X150574500Y-91052135D01*
X150574500Y-92447870D01*
X150574501Y-92447876D01*
X150580908Y-92507483D01*
X150631202Y-92642328D01*
X150631203Y-92642329D01*
X150631204Y-92642331D01*
X150717452Y-92757543D01*
X150717451Y-92757543D01*
X150717452Y-92757544D01*
X150717454Y-92757546D01*
X150734463Y-92770278D01*
X150776332Y-92826210D01*
X150781317Y-92895901D01*
X150747833Y-92957225D01*
X150747832Y-92957225D01*
X150555268Y-93149788D01*
X150493945Y-93183273D01*
X150424253Y-93178289D01*
X150368320Y-93136417D01*
X150367311Y-93135050D01*
X150325914Y-93078072D01*
X150203428Y-92955586D01*
X150063288Y-92853768D01*
X149908945Y-92775127D01*
X149744201Y-92721598D01*
X149744199Y-92721597D01*
X149744198Y-92721597D01*
X149612771Y-92700781D01*
X149573111Y-92694500D01*
X148899889Y-92694500D01*
X148860228Y-92700781D01*
X148728802Y-92721597D01*
X148564052Y-92775128D01*
X148409711Y-92853768D01*
X148338429Y-92905558D01*
X148269572Y-92955586D01*
X148269570Y-92955588D01*
X148269569Y-92955588D01*
X148168681Y-93056477D01*
X148107358Y-93089962D01*
X148037666Y-93084978D01*
X147981733Y-93043106D01*
X147957316Y-92977642D01*
X147957000Y-92968796D01*
X147957000Y-86617601D01*
X147976685Y-86550562D01*
X148029489Y-86504807D01*
X148098647Y-86494863D01*
X148162203Y-86523888D01*
G37*
%TD.AperFunction*%
%TD*%
M02*
