%TF.GenerationSoftware,KiCad,Pcbnew,7.0.5*%
%TF.CreationDate,2023-12-17T20:10:20+08:00*%
%TF.ProjectId,bat_rf,6261745f-7266-42e6-9b69-6361645f7063,rev?*%
%TF.SameCoordinates,Original*%
%TF.FileFunction,Legend,Bot*%
%TF.FilePolarity,Positive*%
%FSLAX46Y46*%
G04 Gerber Fmt 4.6, Leading zero omitted, Abs format (unit mm)*
G04 Created by KiCad (PCBNEW 7.0.5) date 2023-12-17 20:10:20*
%MOMM*%
%LPD*%
G01*
G04 APERTURE LIST*
%ADD10C,0.150000*%
%ADD11C,0.200000*%
%ADD12C,0.203000*%
%ADD13C,0.254000*%
%ADD14C,0.120000*%
%ADD15C,0.127000*%
G04 APERTURE END LIST*
D10*
X71065000Y-74175000D02*
X71865000Y-74175000D01*
X77865000Y-74175000D02*
X72365000Y-74175000D01*
X77966952Y-73004500D02*
X102966952Y-73004500D01*
X102966952Y-88704500D01*
X77966952Y-88704500D01*
X77966952Y-73004500D01*
X93165000Y-67375000D02*
X97965000Y-67375000D01*
X71065000Y-55275000D02*
X93165000Y-55275000D01*
X71065000Y-71875000D02*
X71065000Y-74175000D01*
X55269724Y-75007500D02*
X73969724Y-75007500D01*
X73969724Y-87707500D01*
X55269724Y-87707500D01*
X55269724Y-75007500D01*
X72865000Y-74175000D02*
X71865000Y-74175000D01*
X51600000Y-54850000D02*
X70900000Y-54850000D01*
X70900000Y-71600000D01*
X51600000Y-71600000D01*
X51600000Y-54850000D01*
X97965000Y-67375000D02*
X97965000Y-72975000D01*
X93165000Y-55275000D02*
X93165000Y-67375000D01*
G36*
X95859326Y-61809818D02*
G01*
X95885818Y-61836310D01*
X95921785Y-61944212D01*
X95921276Y-61947045D01*
X95923990Y-61953588D01*
X95923990Y-62196987D01*
X95550180Y-62196987D01*
X95550180Y-61908740D01*
X95584439Y-61840223D01*
X95614845Y-61809817D01*
X95683361Y-61775559D01*
X95790808Y-61775559D01*
X95859326Y-61809818D01*
G37*
G36*
X96335516Y-61857437D02*
G01*
X96365921Y-61887842D01*
X96400180Y-61956358D01*
X96400180Y-62196987D01*
X96073990Y-62196987D01*
X96073990Y-61956360D01*
X96108249Y-61887841D01*
X96138654Y-61857436D01*
X96207170Y-61823178D01*
X96266998Y-61823178D01*
X96335516Y-61857437D01*
G37*
G36*
X96238008Y-61081511D02*
G01*
X95835895Y-61215548D01*
X95835895Y-60947473D01*
X96238008Y-61081511D01*
G37*
G36*
X97087857Y-62976624D02*
G01*
X94977143Y-62976624D01*
X94977143Y-61899425D01*
X95397466Y-61899425D01*
X95400180Y-61905968D01*
X95400180Y-62266627D01*
X95397810Y-62283111D01*
X95404729Y-62298263D01*
X95409423Y-62314247D01*
X95413735Y-62317983D01*
X95416106Y-62323175D01*
X95430122Y-62332182D01*
X95442709Y-62343089D01*
X95448355Y-62343900D01*
X95453158Y-62346987D01*
X95469820Y-62346987D01*
X95486304Y-62349357D01*
X95491494Y-62346987D01*
X95993630Y-62346987D01*
X96010114Y-62349357D01*
X96015304Y-62346987D01*
X96469820Y-62346987D01*
X96486304Y-62349357D01*
X96501456Y-62342437D01*
X96517440Y-62337744D01*
X96521176Y-62333431D01*
X96526368Y-62331061D01*
X96535375Y-62317044D01*
X96546282Y-62304458D01*
X96547093Y-62298811D01*
X96550180Y-62294009D01*
X96550180Y-62277346D01*
X96552550Y-62260863D01*
X96550180Y-62255673D01*
X96550180Y-61942684D01*
X96552110Y-61924810D01*
X96545255Y-61911100D01*
X96540937Y-61896394D01*
X96535582Y-61891754D01*
X96498848Y-61818285D01*
X96496166Y-61805955D01*
X96481546Y-61791335D01*
X96467477Y-61776210D01*
X96466058Y-61775847D01*
X96439623Y-61749412D01*
X96433180Y-61738563D01*
X96414679Y-61729312D01*
X96396557Y-61719417D01*
X96395096Y-61719521D01*
X96321855Y-61682901D01*
X96306726Y-61673178D01*
X96291396Y-61673178D01*
X96276313Y-61670464D01*
X96269769Y-61673178D01*
X96193497Y-61673178D01*
X96175622Y-61671248D01*
X96161912Y-61678102D01*
X96147206Y-61682421D01*
X96142566Y-61687775D01*
X96069097Y-61724509D01*
X96056767Y-61727192D01*
X96042147Y-61741811D01*
X96027022Y-61755881D01*
X96026659Y-61757299D01*
X96020984Y-61762974D01*
X96019976Y-61758336D01*
X96009137Y-61747497D01*
X96000390Y-61734911D01*
X95993842Y-61732202D01*
X95963433Y-61701793D01*
X95956990Y-61690944D01*
X95938489Y-61681693D01*
X95920367Y-61671798D01*
X95918906Y-61671902D01*
X95845665Y-61635282D01*
X95830536Y-61625559D01*
X95815206Y-61625559D01*
X95800123Y-61622845D01*
X95793579Y-61625559D01*
X95669688Y-61625559D01*
X95651813Y-61623629D01*
X95638103Y-61630483D01*
X95623397Y-61634802D01*
X95618757Y-61640156D01*
X95545288Y-61676890D01*
X95532958Y-61679573D01*
X95518338Y-61694192D01*
X95503213Y-61708262D01*
X95502850Y-61709680D01*
X95476417Y-61736113D01*
X95465567Y-61742558D01*
X95456318Y-61761054D01*
X95446420Y-61779182D01*
X95446524Y-61780642D01*
X95409901Y-61853885D01*
X95400180Y-61869013D01*
X95400180Y-61884342D01*
X95397466Y-61899425D01*
X94977143Y-61899425D01*
X94977143Y-61406524D01*
X95397458Y-61406524D01*
X95405298Y-61449864D01*
X95435325Y-61482086D01*
X95478005Y-61492959D01*
X95767782Y-61396366D01*
X95772019Y-61396976D01*
X95788408Y-61389491D01*
X96486028Y-61156951D01*
X96494477Y-61157257D01*
X96506510Y-61150124D01*
X96509125Y-61149253D01*
X96515756Y-61144644D01*
X96532365Y-61134800D01*
X96533671Y-61132193D01*
X96536065Y-61130530D01*
X96543445Y-61112687D01*
X96552097Y-61095424D01*
X96551786Y-61092524D01*
X96552901Y-61089831D01*
X96549464Y-61070836D01*
X96547409Y-61051630D01*
X96545579Y-61049357D01*
X96545061Y-61046491D01*
X96531904Y-61032372D01*
X96519789Y-61017324D01*
X96517022Y-61016401D01*
X96515035Y-61014269D01*
X96496324Y-61009502D01*
X95798747Y-60776976D01*
X95793366Y-60772314D01*
X95778230Y-60770137D01*
X95488668Y-60673617D01*
X95455883Y-60672432D01*
X95417995Y-60694889D01*
X95398263Y-60734265D01*
X95402950Y-60778058D01*
X95430571Y-60812365D01*
X95685895Y-60897473D01*
X95685895Y-61265548D01*
X95441234Y-61347102D01*
X95414294Y-61365825D01*
X95397458Y-61406524D01*
X94977143Y-61406524D01*
X94977143Y-60283111D01*
X95397810Y-60283111D01*
X95416106Y-60323175D01*
X95453158Y-60346987D01*
X96400180Y-60346987D01*
X96400180Y-60568483D01*
X96409423Y-60599961D01*
X96442709Y-60628803D01*
X96486304Y-60635071D01*
X96526368Y-60616775D01*
X96550180Y-60579723D01*
X96550180Y-60277346D01*
X96552550Y-60260863D01*
X96550180Y-60255673D01*
X96550180Y-59975491D01*
X96540937Y-59944013D01*
X96507651Y-59915171D01*
X96464056Y-59908903D01*
X96423992Y-59927199D01*
X96400180Y-59964251D01*
X96400180Y-60196987D01*
X95464398Y-60196987D01*
X95432920Y-60206230D01*
X95404078Y-60239516D01*
X95397810Y-60283111D01*
X94977143Y-60283111D01*
X94977143Y-59901817D01*
X95304942Y-59901817D01*
X95314185Y-59933295D01*
X95347471Y-59962137D01*
X95391066Y-59968405D01*
X95431130Y-59950109D01*
X95454942Y-59913057D01*
X95454942Y-59118348D01*
X95445699Y-59086870D01*
X95412413Y-59058028D01*
X95368818Y-59051760D01*
X95328754Y-59070056D01*
X95304942Y-59107108D01*
X95304942Y-59901817D01*
X94977143Y-59901817D01*
X94977143Y-58692238D01*
X95397458Y-58692238D01*
X95400895Y-58711239D01*
X95402950Y-58730438D01*
X95404779Y-58732709D01*
X95405298Y-58735578D01*
X95418458Y-58749700D01*
X95430571Y-58764745D01*
X95433337Y-58765667D01*
X95435325Y-58767800D01*
X95454036Y-58772566D01*
X96461691Y-59108452D01*
X96494477Y-59109637D01*
X96532365Y-59087180D01*
X96552097Y-59047804D01*
X96547409Y-59004010D01*
X96519789Y-58969704D01*
X95712350Y-58700557D01*
X96509125Y-58434967D01*
X96536065Y-58416244D01*
X96552901Y-58375545D01*
X96545061Y-58332205D01*
X96515035Y-58299983D01*
X96472354Y-58289110D01*
X95464330Y-58625117D01*
X95455883Y-58624812D01*
X95443850Y-58631943D01*
X95441234Y-58632816D01*
X95434596Y-58637428D01*
X95417995Y-58647269D01*
X95416689Y-58649874D01*
X95414294Y-58651539D01*
X95406908Y-58669392D01*
X95398263Y-58686645D01*
X95398573Y-58689542D01*
X95397458Y-58692238D01*
X94977143Y-58692238D01*
X94977143Y-57827814D01*
X97087857Y-57827814D01*
X97087857Y-62976624D01*
G37*
G36*
X121132857Y-68542857D02*
G01*
X118269762Y-68542857D01*
X118269762Y-68048886D01*
X118873970Y-68048886D01*
X118880618Y-68067820D01*
X118886273Y-68087079D01*
X118887863Y-68088457D01*
X118888561Y-68090443D01*
X118904391Y-68102778D01*
X118919559Y-68115921D01*
X118921642Y-68116220D01*
X118923302Y-68117514D01*
X118943292Y-68119333D01*
X118963154Y-68122189D01*
X118965067Y-68121315D01*
X118967165Y-68121506D01*
X118984969Y-68112226D01*
X119003218Y-68103893D01*
X119004355Y-68102122D01*
X119006222Y-68101150D01*
X119016178Y-68083726D01*
X119027030Y-68066841D01*
X119027030Y-68064735D01*
X119448458Y-67327236D01*
X119448458Y-68055601D01*
X119457701Y-68087079D01*
X119490987Y-68115921D01*
X119534582Y-68122189D01*
X119574646Y-68103893D01*
X119598458Y-68066841D01*
X119598458Y-68055943D01*
X119874660Y-68055943D01*
X119892956Y-68096007D01*
X119930008Y-68119819D01*
X120422860Y-68119819D01*
X120439344Y-68122189D01*
X120454496Y-68115269D01*
X120470480Y-68110576D01*
X120474216Y-68106263D01*
X120479408Y-68103893D01*
X120488415Y-68089876D01*
X120499322Y-68077290D01*
X120500133Y-68071643D01*
X120503220Y-68066841D01*
X120503220Y-68050178D01*
X120505590Y-68033695D01*
X120503220Y-68028505D01*
X120503220Y-67526368D01*
X120505590Y-67509885D01*
X120503220Y-67504695D01*
X120503220Y-67050178D01*
X120505590Y-67033695D01*
X120498670Y-67018542D01*
X120493977Y-67002559D01*
X120489664Y-66998822D01*
X120487294Y-66993631D01*
X120473277Y-66984623D01*
X120460691Y-66973717D01*
X120455044Y-66972905D01*
X120450242Y-66969819D01*
X120433580Y-66969819D01*
X120417096Y-66967449D01*
X120411906Y-66969819D01*
X119941248Y-66969819D01*
X119909770Y-66979062D01*
X119880928Y-67012348D01*
X119874660Y-67055943D01*
X119892956Y-67096007D01*
X119930008Y-67119819D01*
X120353220Y-67119819D01*
X120353220Y-67446009D01*
X120084105Y-67446009D01*
X120052627Y-67455252D01*
X120023785Y-67488538D01*
X120017517Y-67532133D01*
X120035813Y-67572197D01*
X120072865Y-67596009D01*
X120353220Y-67596009D01*
X120353220Y-67969819D01*
X119941248Y-67969819D01*
X119909770Y-67979062D01*
X119880928Y-68012348D01*
X119874660Y-68055943D01*
X119598458Y-68055943D01*
X119598457Y-67053615D01*
X119601518Y-67040751D01*
X119594868Y-67021814D01*
X119589215Y-67002559D01*
X119587624Y-67001180D01*
X119586927Y-66999195D01*
X119571096Y-66986859D01*
X119555929Y-66973717D01*
X119553845Y-66973417D01*
X119552186Y-66972124D01*
X119532195Y-66970304D01*
X119512334Y-66967449D01*
X119510420Y-66968322D01*
X119508323Y-66968132D01*
X119490518Y-66977411D01*
X119472270Y-66985745D01*
X119471132Y-66987515D01*
X119469266Y-66988488D01*
X119459309Y-67005911D01*
X119448458Y-67022797D01*
X119448458Y-67024902D01*
X119027030Y-67762400D01*
X119027030Y-67034037D01*
X119017787Y-67002559D01*
X118984501Y-66973717D01*
X118940906Y-66967449D01*
X118900842Y-66985745D01*
X118877030Y-67022797D01*
X118877030Y-68036022D01*
X118873970Y-68048886D01*
X118269762Y-68048886D01*
X118269762Y-66432143D01*
X121132857Y-66432143D01*
X121132857Y-68542857D01*
G37*
G36*
X102534809Y-87872357D02*
G01*
X98433619Y-87872357D01*
X98433619Y-87197686D01*
X99038956Y-87197686D01*
X99045812Y-87211399D01*
X99050130Y-87226102D01*
X99055483Y-87230740D01*
X99092218Y-87304209D01*
X99094901Y-87316540D01*
X99109520Y-87331160D01*
X99123590Y-87346286D01*
X99125008Y-87346648D01*
X99151442Y-87373083D01*
X99157887Y-87383934D01*
X99176398Y-87393189D01*
X99194509Y-87403079D01*
X99195968Y-87402974D01*
X99269214Y-87439597D01*
X99284341Y-87449319D01*
X99299671Y-87449319D01*
X99314754Y-87452033D01*
X99321298Y-87449319D01*
X99492799Y-87449319D01*
X99510683Y-87451250D01*
X99524396Y-87444393D01*
X99539099Y-87440076D01*
X99543737Y-87434722D01*
X99617205Y-87397987D01*
X99629539Y-87395305D01*
X99644170Y-87380672D01*
X99659283Y-87366616D01*
X99659645Y-87365196D01*
X99686079Y-87338762D01*
X99696930Y-87332318D01*
X99706186Y-87313804D01*
X99716076Y-87295694D01*
X99715971Y-87294234D01*
X99726337Y-87273503D01*
X100037920Y-87273503D01*
X100047282Y-87316540D01*
X100107617Y-87376877D01*
X100118897Y-87390887D01*
X100133440Y-87395734D01*
X100146890Y-87403079D01*
X100153956Y-87402573D01*
X100273726Y-87442497D01*
X100284341Y-87449319D01*
X100305020Y-87449319D01*
X100325660Y-87450065D01*
X100326919Y-87449319D01*
X100392199Y-87449319D01*
X100404426Y-87452434D01*
X100424038Y-87445896D01*
X100443861Y-87440076D01*
X100444819Y-87438969D01*
X100564345Y-87399127D01*
X100581919Y-87395305D01*
X100592759Y-87384464D01*
X100605343Y-87375719D01*
X100608050Y-87369172D01*
X100686080Y-87291142D01*
X100696930Y-87284699D01*
X100706180Y-87266198D01*
X100716076Y-87248075D01*
X100715971Y-87246615D01*
X100748423Y-87181712D01*
X100754735Y-87175778D01*
X100758079Y-87162400D01*
X100759219Y-87160121D01*
X100760682Y-87151988D01*
X100804701Y-86975910D01*
X100809934Y-86967769D01*
X100809934Y-86954981D01*
X100810310Y-86953477D01*
X100809934Y-86944230D01*
X100809934Y-86815232D01*
X100813036Y-86806064D01*
X100809934Y-86793656D01*
X100809934Y-86792108D01*
X100807329Y-86783238D01*
X100763315Y-86607181D01*
X100764245Y-86598570D01*
X100758079Y-86586239D01*
X100757461Y-86583764D01*
X100753273Y-86576625D01*
X100710983Y-86492045D01*
X100708301Y-86479715D01*
X100693681Y-86465095D01*
X100679612Y-86449970D01*
X100678193Y-86449607D01*
X100614665Y-86386079D01*
X101086229Y-86386079D01*
X101088506Y-86390958D01*
X101088506Y-87385101D01*
X101097749Y-87416579D01*
X101131035Y-87445421D01*
X101174630Y-87451689D01*
X101214694Y-87433393D01*
X101238506Y-87396341D01*
X101238506Y-86712386D01*
X101428619Y-87119771D01*
X101437346Y-87139304D01*
X101447276Y-87145802D01*
X101455122Y-87154707D01*
X101465324Y-87157611D01*
X101474201Y-87163420D01*
X101486069Y-87163517D01*
X101497482Y-87166767D01*
X101507632Y-87163695D01*
X101518243Y-87163783D01*
X101528282Y-87157447D01*
X101539638Y-87154011D01*
X101546517Y-87145938D01*
X101555490Y-87140276D01*
X101560509Y-87129520D01*
X101568206Y-87120489D01*
X101569629Y-87109977D01*
X101755172Y-86712385D01*
X101755172Y-87385101D01*
X101764415Y-87416579D01*
X101797701Y-87445421D01*
X101841296Y-87451689D01*
X101881360Y-87433393D01*
X101905172Y-87396341D01*
X101905172Y-86379988D01*
X101907631Y-86363831D01*
X101900709Y-86348338D01*
X101895929Y-86332059D01*
X101891860Y-86328534D01*
X101889665Y-86323619D01*
X101875465Y-86314327D01*
X101862643Y-86303217D01*
X101857315Y-86302450D01*
X101852810Y-86299503D01*
X101835838Y-86299363D01*
X101819048Y-86296949D01*
X101814153Y-86299184D01*
X101808768Y-86299140D01*
X101794413Y-86308198D01*
X101778984Y-86315245D01*
X101776074Y-86319772D01*
X101771521Y-86322646D01*
X101764344Y-86338024D01*
X101755172Y-86352297D01*
X101755172Y-86357679D01*
X101496839Y-86911250D01*
X101233868Y-86347742D01*
X101229263Y-86332059D01*
X101216440Y-86320948D01*
X101205223Y-86308216D01*
X101200044Y-86306741D01*
X101195977Y-86303217D01*
X101179183Y-86300802D01*
X101162863Y-86296156D01*
X101157710Y-86297715D01*
X101152382Y-86296949D01*
X101136945Y-86303998D01*
X101120707Y-86308912D01*
X101117216Y-86313008D01*
X101112318Y-86315245D01*
X101103142Y-86329522D01*
X101092139Y-86342434D01*
X101091416Y-86347767D01*
X101088506Y-86352297D01*
X101088506Y-86369263D01*
X101086229Y-86386079D01*
X100614665Y-86386079D01*
X100600344Y-86371758D01*
X100589067Y-86357751D01*
X100574525Y-86352903D01*
X100561073Y-86345558D01*
X100554005Y-86346063D01*
X100434238Y-86306141D01*
X100423623Y-86299319D01*
X100402943Y-86299319D01*
X100382304Y-86298573D01*
X100381045Y-86299319D01*
X100315765Y-86299319D01*
X100303537Y-86296204D01*
X100283917Y-86302743D01*
X100264103Y-86308562D01*
X100263144Y-86309668D01*
X100143615Y-86349510D01*
X100126045Y-86353333D01*
X100115206Y-86364171D01*
X100102620Y-86372919D01*
X100099911Y-86379466D01*
X100055230Y-86424148D01*
X100039507Y-86452942D01*
X100042650Y-86496873D01*
X100069044Y-86532132D01*
X100110311Y-86547524D01*
X100153348Y-86538162D01*
X100204019Y-86487490D01*
X100318534Y-86449319D01*
X100389431Y-86449319D01*
X100503944Y-86487490D01*
X100578056Y-86561602D01*
X100616550Y-86638588D01*
X100659934Y-86812123D01*
X100659934Y-86936513D01*
X100616550Y-87110045D01*
X100578056Y-87187034D01*
X100503944Y-87261147D01*
X100389429Y-87299319D01*
X100318533Y-87299319D01*
X100204019Y-87261147D01*
X100161297Y-87218423D01*
X100132503Y-87202701D01*
X100088572Y-87205843D01*
X100053313Y-87232236D01*
X100037920Y-87273503D01*
X99726337Y-87273503D01*
X99752593Y-87220990D01*
X99762315Y-87205864D01*
X99762315Y-87190534D01*
X99765029Y-87175451D01*
X99762315Y-87168907D01*
X99762315Y-86363537D01*
X99753072Y-86332059D01*
X99719786Y-86303217D01*
X99676191Y-86296949D01*
X99636127Y-86315245D01*
X99612315Y-86352297D01*
X99612314Y-87166136D01*
X99578056Y-87234653D01*
X99547648Y-87265061D01*
X99479134Y-87299319D01*
X99324069Y-87299319D01*
X99255551Y-87265060D01*
X99225143Y-87234651D01*
X99190887Y-87166137D01*
X99190887Y-86363537D01*
X99181644Y-86332059D01*
X99148358Y-86303217D01*
X99104763Y-86296949D01*
X99064699Y-86315245D01*
X99040887Y-86352297D01*
X99040887Y-87179801D01*
X99038956Y-87197686D01*
X98433619Y-87197686D01*
X98433619Y-85761643D01*
X102534809Y-85761643D01*
X102534809Y-87872357D01*
G37*
G36*
X116453220Y-59893628D02*
G01*
X116296980Y-59893628D01*
X116282067Y-59890878D01*
X116275355Y-59893628D01*
X116164974Y-59893628D01*
X116096456Y-59859369D01*
X116066049Y-59828962D01*
X116031791Y-59760447D01*
X116031791Y-59653001D01*
X116066051Y-59584483D01*
X116096456Y-59554077D01*
X116164972Y-59519819D01*
X116453220Y-59519819D01*
X116453220Y-59893628D01*
G37*
G36*
X114500839Y-60369819D02*
G01*
X114349914Y-60369819D01*
X114235399Y-60331647D01*
X114161287Y-60257533D01*
X114122794Y-60180547D01*
X114079411Y-60007012D01*
X114079411Y-59882624D01*
X114122794Y-59709091D01*
X114161288Y-59632102D01*
X114235400Y-59557990D01*
X114349915Y-59519819D01*
X114500839Y-59519819D01*
X114500839Y-60369819D01*
G37*
G36*
X117232857Y-60942857D02*
G01*
X113369762Y-60942857D01*
X113369762Y-60013073D01*
X113926309Y-60013073D01*
X113929411Y-60025481D01*
X113929411Y-60027029D01*
X113932015Y-60035898D01*
X113976029Y-60211953D01*
X113975099Y-60220567D01*
X113981265Y-60232900D01*
X113981884Y-60235373D01*
X113986066Y-60242500D01*
X114028361Y-60327090D01*
X114031044Y-60339422D01*
X114045673Y-60354051D01*
X114059733Y-60369167D01*
X114061151Y-60369529D01*
X114138999Y-60447378D01*
X114150278Y-60461387D01*
X114164819Y-60466234D01*
X114178272Y-60473580D01*
X114185340Y-60473074D01*
X114305107Y-60512997D01*
X114315722Y-60519819D01*
X114336401Y-60519819D01*
X114357041Y-60520565D01*
X114358300Y-60519819D01*
X114570479Y-60519819D01*
X114586963Y-60522189D01*
X114602115Y-60515269D01*
X114618099Y-60510576D01*
X114621835Y-60506263D01*
X114627027Y-60503893D01*
X114636034Y-60489876D01*
X114646941Y-60477290D01*
X114647752Y-60471643D01*
X114650839Y-60466841D01*
X114650839Y-60450178D01*
X114651798Y-60443506D01*
X114878637Y-60443506D01*
X114890334Y-60485968D01*
X114923131Y-60515365D01*
X114966615Y-60522366D01*
X115006980Y-60504745D01*
X115290125Y-60080027D01*
X115567035Y-60495393D01*
X115592186Y-60516457D01*
X115635881Y-60521991D01*
X115675631Y-60503024D01*
X115698817Y-60465578D01*
X115698416Y-60441731D01*
X115878687Y-60441731D01*
X115889416Y-60484447D01*
X115921536Y-60514582D01*
X115964850Y-60522569D01*
X116005606Y-60505870D01*
X116329174Y-60043628D01*
X116453220Y-60043628D01*
X116453220Y-60455601D01*
X116462463Y-60487079D01*
X116495749Y-60515921D01*
X116539344Y-60522189D01*
X116579408Y-60503893D01*
X116603220Y-60466841D01*
X116603220Y-59973987D01*
X116605590Y-59957504D01*
X116603220Y-59952314D01*
X116603220Y-59450178D01*
X116605590Y-59433695D01*
X116598670Y-59418542D01*
X116593977Y-59402559D01*
X116589664Y-59398822D01*
X116587294Y-59393631D01*
X116573277Y-59384623D01*
X116560691Y-59373717D01*
X116555044Y-59372905D01*
X116550242Y-59369819D01*
X116533580Y-59369819D01*
X116517096Y-59367449D01*
X116511906Y-59369819D01*
X116151299Y-59369819D01*
X116133424Y-59367889D01*
X116119714Y-59374743D01*
X116105008Y-59379062D01*
X116100368Y-59384416D01*
X116026899Y-59421150D01*
X116014569Y-59423833D01*
X115999949Y-59438452D01*
X115984824Y-59452522D01*
X115984461Y-59453940D01*
X115958026Y-59480375D01*
X115947177Y-59486819D01*
X115937926Y-59505319D01*
X115928031Y-59523442D01*
X115928135Y-59524902D01*
X115891515Y-59598143D01*
X115881792Y-59613273D01*
X115881792Y-59628603D01*
X115879078Y-59643686D01*
X115881792Y-59650229D01*
X115881792Y-59774111D01*
X115879861Y-59791996D01*
X115886717Y-59805709D01*
X115891035Y-59820412D01*
X115896388Y-59825050D01*
X115933123Y-59898519D01*
X115935806Y-59910851D01*
X115950433Y-59925478D01*
X115964495Y-59940596D01*
X115965913Y-59940958D01*
X115992348Y-59967393D01*
X115998792Y-59978243D01*
X116017301Y-59987497D01*
X116035415Y-59997388D01*
X116036873Y-59997283D01*
X116110119Y-60033906D01*
X116125246Y-60043628D01*
X116140576Y-60043628D01*
X116145460Y-60044506D01*
X115889167Y-60410642D01*
X115878687Y-60441731D01*
X115698416Y-60441731D01*
X115698077Y-60421540D01*
X115380263Y-59944819D01*
X115691843Y-59477450D01*
X115701613Y-59446132D01*
X115689916Y-59403670D01*
X115657119Y-59374273D01*
X115613635Y-59367273D01*
X115573270Y-59384893D01*
X115290124Y-59809610D01*
X115013215Y-59394245D01*
X114988064Y-59373181D01*
X114944369Y-59367647D01*
X114904619Y-59386614D01*
X114881433Y-59424060D01*
X114882173Y-59468098D01*
X115199986Y-59944818D01*
X114888407Y-60412188D01*
X114878637Y-60443506D01*
X114651798Y-60443506D01*
X114653209Y-60433695D01*
X114650839Y-60428505D01*
X114650839Y-59450178D01*
X114653209Y-59433695D01*
X114646289Y-59418542D01*
X114641596Y-59402559D01*
X114637283Y-59398822D01*
X114634913Y-59393631D01*
X114620896Y-59384623D01*
X114608310Y-59373717D01*
X114602663Y-59372905D01*
X114597861Y-59369819D01*
X114581199Y-59369819D01*
X114564715Y-59367449D01*
X114559525Y-59369819D01*
X114347146Y-59369819D01*
X114334918Y-59366704D01*
X114315298Y-59373243D01*
X114295484Y-59379062D01*
X114294525Y-59380168D01*
X114174996Y-59420010D01*
X114157426Y-59423833D01*
X114146587Y-59434671D01*
X114134001Y-59443419D01*
X114131292Y-59449966D01*
X114053264Y-59527994D01*
X114042415Y-59534438D01*
X114033164Y-59552938D01*
X114023269Y-59571061D01*
X114023373Y-59572521D01*
X113990921Y-59637425D01*
X113984610Y-59643360D01*
X113981265Y-59656737D01*
X113980126Y-59659017D01*
X113978662Y-59667149D01*
X113934643Y-59843226D01*
X113929411Y-59851368D01*
X113929411Y-59864155D01*
X113929035Y-59865660D01*
X113929411Y-59874906D01*
X113929411Y-60003904D01*
X113926309Y-60013073D01*
X113369762Y-60013073D01*
X113369762Y-58832143D01*
X117232857Y-58832143D01*
X117232857Y-60942857D01*
G37*
G36*
X116888220Y-85918628D02*
G01*
X116731980Y-85918628D01*
X116717067Y-85915878D01*
X116710355Y-85918628D01*
X116599974Y-85918628D01*
X116531456Y-85884369D01*
X116501049Y-85853962D01*
X116466792Y-85785447D01*
X116466792Y-85678001D01*
X116501051Y-85609482D01*
X116531456Y-85579077D01*
X116599972Y-85544819D01*
X116888220Y-85544819D01*
X116888220Y-85918628D01*
G37*
G36*
X117667857Y-86967857D02*
G01*
X114804762Y-86967857D01*
X114804762Y-86468506D01*
X115313637Y-86468506D01*
X115325334Y-86510968D01*
X115358131Y-86540365D01*
X115401615Y-86547366D01*
X115441980Y-86529745D01*
X115725125Y-86105027D01*
X116002035Y-86520393D01*
X116027186Y-86541457D01*
X116070881Y-86546991D01*
X116110631Y-86528024D01*
X116133817Y-86490578D01*
X116133416Y-86466731D01*
X116313687Y-86466731D01*
X116324416Y-86509447D01*
X116356536Y-86539582D01*
X116399850Y-86547569D01*
X116440606Y-86530870D01*
X116764174Y-86068628D01*
X116888220Y-86068628D01*
X116888220Y-86480601D01*
X116897463Y-86512079D01*
X116930749Y-86540921D01*
X116974344Y-86547189D01*
X117014408Y-86528893D01*
X117038220Y-86491841D01*
X117038219Y-85998987D01*
X117040590Y-85982504D01*
X117038220Y-85977314D01*
X117038219Y-85475178D01*
X117040590Y-85458695D01*
X117033670Y-85443542D01*
X117028977Y-85427559D01*
X117024664Y-85423822D01*
X117022294Y-85418631D01*
X117008277Y-85409623D01*
X116995691Y-85398717D01*
X116990044Y-85397905D01*
X116985242Y-85394819D01*
X116968580Y-85394819D01*
X116952096Y-85392449D01*
X116946906Y-85394819D01*
X116586299Y-85394819D01*
X116568424Y-85392889D01*
X116554714Y-85399743D01*
X116540008Y-85404062D01*
X116535368Y-85409416D01*
X116461899Y-85446150D01*
X116449569Y-85448833D01*
X116434949Y-85463452D01*
X116419824Y-85477522D01*
X116419461Y-85478940D01*
X116393026Y-85505375D01*
X116382177Y-85511819D01*
X116372926Y-85530319D01*
X116363031Y-85548442D01*
X116363135Y-85549902D01*
X116326515Y-85623143D01*
X116316792Y-85638273D01*
X116316792Y-85653603D01*
X116314078Y-85668686D01*
X116316791Y-85675229D01*
X116316792Y-85799111D01*
X116314861Y-85816996D01*
X116321717Y-85830709D01*
X116326035Y-85845412D01*
X116331388Y-85850050D01*
X116368123Y-85923519D01*
X116370806Y-85935851D01*
X116385433Y-85950478D01*
X116399495Y-85965596D01*
X116400913Y-85965958D01*
X116427348Y-85992393D01*
X116433792Y-86003243D01*
X116452301Y-86012497D01*
X116470415Y-86022388D01*
X116471873Y-86022283D01*
X116545119Y-86058906D01*
X116560246Y-86068628D01*
X116575576Y-86068628D01*
X116580460Y-86069506D01*
X116324167Y-86435642D01*
X116313687Y-86466731D01*
X116133416Y-86466731D01*
X116133077Y-86446540D01*
X115815263Y-85969819D01*
X116126843Y-85502450D01*
X116136613Y-85471132D01*
X116124916Y-85428670D01*
X116092119Y-85399273D01*
X116048635Y-85392273D01*
X116008270Y-85409893D01*
X115725124Y-85834610D01*
X115448215Y-85419245D01*
X115423064Y-85398181D01*
X115379369Y-85392647D01*
X115339619Y-85411614D01*
X115316433Y-85449060D01*
X115317173Y-85493098D01*
X115634986Y-85969818D01*
X115323407Y-86437188D01*
X115313637Y-86468506D01*
X114804762Y-86468506D01*
X114804762Y-84857143D01*
X117667857Y-84857143D01*
X117667857Y-86967857D01*
G37*
G36*
X92950125Y-70594819D02*
G01*
X92799200Y-70594819D01*
X92684685Y-70556647D01*
X92610573Y-70482533D01*
X92572080Y-70405547D01*
X92528697Y-70232013D01*
X92528697Y-70107624D01*
X92572080Y-69934091D01*
X92610575Y-69857102D01*
X92684686Y-69782990D01*
X92799201Y-69744819D01*
X92950125Y-69744819D01*
X92950125Y-70594819D01*
G37*
G36*
X96188220Y-70594819D02*
G01*
X96037295Y-70594819D01*
X95922780Y-70556647D01*
X95848668Y-70482533D01*
X95810175Y-70405547D01*
X95766792Y-70232013D01*
X95766792Y-70107624D01*
X95810175Y-69934091D01*
X95848670Y-69857101D01*
X95922781Y-69782990D01*
X96037296Y-69744819D01*
X96188220Y-69744819D01*
X96188220Y-70594819D01*
G37*
G36*
X96967857Y-71167857D02*
G01*
X86247619Y-71167857D01*
X86247619Y-70377218D01*
X86852025Y-70377218D01*
X86854887Y-70391528D01*
X86854887Y-70394886D01*
X86856992Y-70402058D01*
X86900620Y-70620198D01*
X86899391Y-70625025D01*
X86904878Y-70641486D01*
X86906077Y-70647481D01*
X86908270Y-70651663D01*
X86948802Y-70773261D01*
X86948194Y-70778901D01*
X86955659Y-70793832D01*
X86957383Y-70799002D01*
X86960454Y-70803421D01*
X86998041Y-70878594D01*
X86998125Y-70883574D01*
X87007750Y-70898013D01*
X87010484Y-70903479D01*
X87013699Y-70906936D01*
X87097710Y-71032953D01*
X87099377Y-71040613D01*
X87109697Y-71050933D01*
X87111559Y-71053726D01*
X87117287Y-71058523D01*
X87170192Y-71111428D01*
X87198986Y-71127150D01*
X87242917Y-71124008D01*
X87278175Y-71097614D01*
X87293568Y-71056347D01*
X87284206Y-71013310D01*
X87226267Y-70955371D01*
X87137735Y-70822573D01*
X87094591Y-70736284D01*
X87050131Y-70602903D01*
X87004887Y-70376678D01*
X87004887Y-70201055D01*
X87050133Y-69974819D01*
X87094590Y-69841450D01*
X87137740Y-69755151D01*
X87192744Y-69672644D01*
X87375582Y-69672644D01*
X87711589Y-70680668D01*
X87711284Y-70689116D01*
X87718416Y-70701149D01*
X87719288Y-70703764D01*
X87723896Y-70710395D01*
X87733741Y-70727004D01*
X87736347Y-70728310D01*
X87738011Y-70730704D01*
X87755853Y-70738084D01*
X87773117Y-70746736D01*
X87776016Y-70746425D01*
X87778710Y-70747540D01*
X87797697Y-70744105D01*
X87816910Y-70742049D01*
X87819183Y-70740218D01*
X87822050Y-70739700D01*
X87836168Y-70726543D01*
X87851217Y-70714428D01*
X87852139Y-70711661D01*
X87854272Y-70709674D01*
X87859038Y-70690963D01*
X88006147Y-70249638D01*
X88328364Y-70249638D01*
X88331078Y-70256181D01*
X88331078Y-70475301D01*
X88329147Y-70493186D01*
X88336003Y-70506899D01*
X88340321Y-70521602D01*
X88345674Y-70526240D01*
X88382409Y-70599709D01*
X88385092Y-70612040D01*
X88399711Y-70626660D01*
X88413781Y-70641786D01*
X88415199Y-70642148D01*
X88441633Y-70668583D01*
X88448078Y-70679434D01*
X88466589Y-70688689D01*
X88484700Y-70698579D01*
X88486159Y-70698474D01*
X88559405Y-70735097D01*
X88574532Y-70744819D01*
X88589862Y-70744819D01*
X88604945Y-70747533D01*
X88611489Y-70744819D01*
X88878228Y-70744819D01*
X88896112Y-70746750D01*
X88909825Y-70739893D01*
X88924528Y-70735576D01*
X88929166Y-70730222D01*
X89002634Y-70693487D01*
X89014968Y-70690805D01*
X89029599Y-70676172D01*
X89044712Y-70662116D01*
X89045074Y-70660696D01*
X89085782Y-70619988D01*
X89087619Y-70616624D01*
X89280491Y-70616624D01*
X89284032Y-70632903D01*
X89285221Y-70649517D01*
X89288639Y-70654083D01*
X89289853Y-70659661D01*
X89301636Y-70671444D01*
X89311616Y-70684775D01*
X89316960Y-70686768D01*
X89339508Y-70709316D01*
X89340320Y-70712079D01*
X89350869Y-70721219D01*
X89359234Y-70732394D01*
X89367189Y-70735361D01*
X89373606Y-70740921D01*
X89382010Y-70742129D01*
X89389462Y-70746198D01*
X89395152Y-70745791D01*
X89400501Y-70747786D01*
X89408798Y-70745980D01*
X89417201Y-70747189D01*
X89424925Y-70743661D01*
X89433393Y-70743056D01*
X89437959Y-70739637D01*
X89443538Y-70738424D01*
X89449542Y-70732419D01*
X89457265Y-70728893D01*
X89461856Y-70721748D01*
X89468651Y-70716662D01*
X89470644Y-70711317D01*
X89502939Y-70679022D01*
X89516270Y-70669044D01*
X89522092Y-70653434D01*
X89530075Y-70638815D01*
X89529668Y-70633125D01*
X89531663Y-70627777D01*
X89528121Y-70611494D01*
X89526933Y-70594884D01*
X89523514Y-70590317D01*
X89522301Y-70584740D01*
X89510518Y-70572957D01*
X89500539Y-70559626D01*
X89495194Y-70557632D01*
X89472644Y-70535081D01*
X89471834Y-70532320D01*
X89461283Y-70523177D01*
X89452919Y-70512005D01*
X89444965Y-70509038D01*
X89438548Y-70503478D01*
X89430144Y-70502269D01*
X89422693Y-70498201D01*
X89417000Y-70498608D01*
X89411652Y-70496613D01*
X89403355Y-70498418D01*
X89394953Y-70497210D01*
X89387228Y-70500737D01*
X89378762Y-70501343D01*
X89374194Y-70504762D01*
X89368615Y-70505976D01*
X89362611Y-70511979D01*
X89354889Y-70515506D01*
X89350298Y-70522649D01*
X89343503Y-70527736D01*
X89341508Y-70533082D01*
X89309214Y-70565377D01*
X89295883Y-70575357D01*
X89290061Y-70590964D01*
X89282078Y-70605586D01*
X89282485Y-70611277D01*
X89280491Y-70616624D01*
X89087619Y-70616624D01*
X89101505Y-70591194D01*
X89098362Y-70547263D01*
X89071967Y-70512005D01*
X89030700Y-70496613D01*
X88987663Y-70505976D01*
X88933077Y-70560561D01*
X88864563Y-70594819D01*
X88614260Y-70594819D01*
X88545742Y-70560560D01*
X88515334Y-70530151D01*
X88481078Y-70461637D01*
X88481078Y-70258953D01*
X88485735Y-70249638D01*
X89756935Y-70249638D01*
X89759649Y-70256181D01*
X89759649Y-70475301D01*
X89757718Y-70493186D01*
X89764574Y-70506899D01*
X89768892Y-70521602D01*
X89774245Y-70526240D01*
X89810980Y-70599709D01*
X89813663Y-70612040D01*
X89828282Y-70626660D01*
X89842352Y-70641786D01*
X89843770Y-70642148D01*
X89870204Y-70668583D01*
X89876649Y-70679434D01*
X89895160Y-70688689D01*
X89913271Y-70698579D01*
X89914730Y-70698474D01*
X89987976Y-70735097D01*
X90003103Y-70744819D01*
X90018433Y-70744819D01*
X90033516Y-70747533D01*
X90040060Y-70744819D01*
X90306799Y-70744819D01*
X90324683Y-70746750D01*
X90338396Y-70739893D01*
X90353099Y-70735576D01*
X90357737Y-70730222D01*
X90431205Y-70693487D01*
X90443539Y-70690805D01*
X90458170Y-70676172D01*
X90473283Y-70662116D01*
X90473645Y-70660696D01*
X90514353Y-70619988D01*
X90530076Y-70591194D01*
X90526933Y-70547263D01*
X90500538Y-70512005D01*
X90459271Y-70496613D01*
X90416234Y-70505976D01*
X90361648Y-70560561D01*
X90293134Y-70594819D01*
X90042831Y-70594819D01*
X89974313Y-70560560D01*
X89943905Y-70530151D01*
X89909649Y-70461637D01*
X89909649Y-70258952D01*
X89943908Y-70190435D01*
X89974313Y-70160029D01*
X90042829Y-70125771D01*
X90146158Y-70125771D01*
X90146323Y-70125876D01*
X90168034Y-70125771D01*
X90178764Y-70125771D01*
X90178943Y-70125718D01*
X90190366Y-70125663D01*
X90199635Y-70119642D01*
X90210242Y-70116528D01*
X90217722Y-70107894D01*
X90227302Y-70101673D01*
X90231845Y-70091596D01*
X90239084Y-70083242D01*
X90240709Y-70071935D01*
X90245405Y-70061521D01*
X90243779Y-70050586D01*
X90245352Y-70039647D01*
X90240607Y-70029257D01*
X90238927Y-70017956D01*
X90231646Y-70009635D01*
X90227056Y-69999583D01*
X90217447Y-69993407D01*
X89999932Y-69744819D01*
X90464478Y-69744819D01*
X90495956Y-69735576D01*
X90524798Y-69702290D01*
X90531066Y-69658695D01*
X90512770Y-69618631D01*
X90475718Y-69594819D01*
X89856473Y-69594819D01*
X89856308Y-69594714D01*
X89834597Y-69594819D01*
X89823867Y-69594819D01*
X89823687Y-69594871D01*
X89812265Y-69594927D01*
X89802995Y-69600947D01*
X89792389Y-69604062D01*
X89784908Y-69612695D01*
X89775329Y-69618917D01*
X89770785Y-69628993D01*
X89763547Y-69637348D01*
X89761921Y-69648654D01*
X89757226Y-69659069D01*
X89758851Y-69670003D01*
X89757279Y-69680943D01*
X89762023Y-69691332D01*
X89763704Y-69702634D01*
X89770984Y-69710954D01*
X89775575Y-69721007D01*
X89785183Y-69727182D01*
X90004136Y-69977413D01*
X89997571Y-69980695D01*
X89982865Y-69985014D01*
X89978225Y-69990368D01*
X89904756Y-70027102D01*
X89892426Y-70029785D01*
X89877806Y-70044404D01*
X89862681Y-70058474D01*
X89862318Y-70059892D01*
X89835883Y-70086327D01*
X89825034Y-70092771D01*
X89815783Y-70111271D01*
X89805888Y-70129394D01*
X89805992Y-70130854D01*
X89769372Y-70204095D01*
X89759649Y-70219225D01*
X89759649Y-70234555D01*
X89756935Y-70249638D01*
X88485735Y-70249638D01*
X88515336Y-70190435D01*
X88545742Y-70160029D01*
X88614258Y-70125771D01*
X88717587Y-70125771D01*
X88717752Y-70125876D01*
X88739463Y-70125771D01*
X88750193Y-70125771D01*
X88750372Y-70125718D01*
X88761795Y-70125663D01*
X88771064Y-70119642D01*
X88781671Y-70116528D01*
X88789151Y-70107894D01*
X88798731Y-70101673D01*
X88803274Y-70091596D01*
X88810513Y-70083242D01*
X88812138Y-70071935D01*
X88816834Y-70061521D01*
X88815208Y-70050586D01*
X88816781Y-70039647D01*
X88812036Y-70029257D01*
X88810356Y-70017956D01*
X88803075Y-70009635D01*
X88798485Y-69999583D01*
X88788876Y-69993407D01*
X88571361Y-69744819D01*
X89035907Y-69744819D01*
X89067385Y-69735576D01*
X89096227Y-69702290D01*
X89102495Y-69658695D01*
X89084199Y-69618631D01*
X89047147Y-69594819D01*
X88427902Y-69594819D01*
X88427737Y-69594714D01*
X88406026Y-69594819D01*
X88395296Y-69594819D01*
X88395116Y-69594871D01*
X88383694Y-69594927D01*
X88374424Y-69600947D01*
X88363818Y-69604062D01*
X88356337Y-69612695D01*
X88346758Y-69618917D01*
X88342214Y-69628993D01*
X88334976Y-69637348D01*
X88333350Y-69648654D01*
X88328655Y-69659069D01*
X88330280Y-69670003D01*
X88328708Y-69680943D01*
X88333452Y-69691332D01*
X88335133Y-69702634D01*
X88342413Y-69710954D01*
X88347004Y-69721007D01*
X88356612Y-69727182D01*
X88575565Y-69977413D01*
X88569000Y-69980695D01*
X88554294Y-69985014D01*
X88549654Y-69990368D01*
X88476185Y-70027102D01*
X88463855Y-70029785D01*
X88449235Y-70044404D01*
X88434110Y-70058474D01*
X88433747Y-70059892D01*
X88407312Y-70086327D01*
X88396463Y-70092771D01*
X88387212Y-70111271D01*
X88377317Y-70129394D01*
X88377421Y-70130854D01*
X88340801Y-70204095D01*
X88331078Y-70219225D01*
X88331078Y-70234555D01*
X88328364Y-70249638D01*
X88006147Y-70249638D01*
X88194924Y-69683308D01*
X88196109Y-69650522D01*
X88173652Y-69612634D01*
X88134276Y-69592902D01*
X88090482Y-69597590D01*
X88056176Y-69625210D01*
X87787030Y-70432647D01*
X87521439Y-69635873D01*
X87502716Y-69608933D01*
X87462017Y-69592097D01*
X87418677Y-69599937D01*
X87386455Y-69629964D01*
X87375582Y-69672644D01*
X87192744Y-69672644D01*
X87226267Y-69622360D01*
X87276258Y-69572370D01*
X87291980Y-69543576D01*
X87290393Y-69521385D01*
X90661444Y-69521385D01*
X90670806Y-69564422D01*
X90728746Y-69622362D01*
X90817273Y-69755154D01*
X90860421Y-69841448D01*
X90904879Y-69974823D01*
X90950125Y-70201053D01*
X90950125Y-70376676D01*
X90904877Y-70602913D01*
X90860421Y-70736281D01*
X90817273Y-70822578D01*
X90728745Y-70955370D01*
X90678754Y-71005362D01*
X90663031Y-71034156D01*
X90666174Y-71078087D01*
X90692568Y-71113346D01*
X90733835Y-71128738D01*
X90776872Y-71119376D01*
X90830033Y-71066214D01*
X90837218Y-71063078D01*
X90845314Y-71050933D01*
X90847687Y-71048561D01*
X90851266Y-71042005D01*
X90935219Y-70916076D01*
X90939502Y-70913533D01*
X90947263Y-70898010D01*
X90950653Y-70892926D01*
X90952059Y-70888418D01*
X90989657Y-70813221D01*
X90994074Y-70809666D01*
X90999351Y-70793834D01*
X91001791Y-70788955D01*
X91002744Y-70783653D01*
X91043268Y-70662083D01*
X91046731Y-70658503D01*
X91050133Y-70641488D01*
X91052067Y-70635689D01*
X91052237Y-70630969D01*
X91064630Y-70569003D01*
X91375730Y-70569003D01*
X91385092Y-70612040D01*
X91445427Y-70672377D01*
X91456707Y-70686387D01*
X91471250Y-70691234D01*
X91484700Y-70698579D01*
X91491766Y-70698073D01*
X91611536Y-70737997D01*
X91622151Y-70744819D01*
X91642830Y-70744819D01*
X91663470Y-70745565D01*
X91664729Y-70744819D01*
X91730009Y-70744819D01*
X91742236Y-70747934D01*
X91761848Y-70741396D01*
X91781671Y-70735576D01*
X91782629Y-70734469D01*
X91902155Y-70694627D01*
X91919729Y-70690805D01*
X91930569Y-70679964D01*
X91943153Y-70671219D01*
X91945860Y-70664672D01*
X92023890Y-70586642D01*
X92034740Y-70580199D01*
X92043990Y-70561698D01*
X92053886Y-70543575D01*
X92053781Y-70542115D01*
X92086233Y-70477212D01*
X92092545Y-70471278D01*
X92095889Y-70457900D01*
X92097029Y-70455621D01*
X92098492Y-70447488D01*
X92142511Y-70271410D01*
X92147744Y-70263269D01*
X92147744Y-70250481D01*
X92148120Y-70248977D01*
X92147744Y-70239730D01*
X92147744Y-70238073D01*
X92375595Y-70238073D01*
X92378697Y-70250480D01*
X92378697Y-70252029D01*
X92381301Y-70260898D01*
X92425315Y-70436953D01*
X92424385Y-70445567D01*
X92430551Y-70457900D01*
X92431170Y-70460373D01*
X92435352Y-70467500D01*
X92477647Y-70552090D01*
X92480330Y-70564422D01*
X92494959Y-70579051D01*
X92509019Y-70594167D01*
X92510437Y-70594529D01*
X92588285Y-70672378D01*
X92599564Y-70686387D01*
X92614105Y-70691234D01*
X92627558Y-70698580D01*
X92634626Y-70698074D01*
X92754393Y-70737997D01*
X92765008Y-70744819D01*
X92785687Y-70744819D01*
X92806327Y-70745565D01*
X92807586Y-70744819D01*
X93019765Y-70744819D01*
X93036249Y-70747189D01*
X93051401Y-70740269D01*
X93067385Y-70735576D01*
X93071121Y-70731263D01*
X93076313Y-70728893D01*
X93085320Y-70714876D01*
X93096227Y-70702290D01*
X93097038Y-70696643D01*
X93100125Y-70691841D01*
X93100125Y-70675178D01*
X93102495Y-70658695D01*
X93100125Y-70653505D01*
X93100125Y-70569003D01*
X94613825Y-70569003D01*
X94623187Y-70612040D01*
X94683522Y-70672377D01*
X94694802Y-70686387D01*
X94709345Y-70691234D01*
X94722795Y-70698579D01*
X94729861Y-70698073D01*
X94849631Y-70737997D01*
X94860246Y-70744819D01*
X94880925Y-70744819D01*
X94901565Y-70745565D01*
X94902824Y-70744819D01*
X94968104Y-70744819D01*
X94980331Y-70747934D01*
X94999943Y-70741396D01*
X95019766Y-70735576D01*
X95020724Y-70734469D01*
X95140250Y-70694627D01*
X95157824Y-70690805D01*
X95168664Y-70679964D01*
X95181248Y-70671219D01*
X95183955Y-70664672D01*
X95261985Y-70586642D01*
X95272835Y-70580199D01*
X95282085Y-70561698D01*
X95291981Y-70543575D01*
X95291876Y-70542115D01*
X95324328Y-70477212D01*
X95330640Y-70471278D01*
X95333984Y-70457900D01*
X95335124Y-70455621D01*
X95336587Y-70447488D01*
X95380606Y-70271410D01*
X95385839Y-70263269D01*
X95385839Y-70250481D01*
X95386215Y-70248977D01*
X95385839Y-70239730D01*
X95385839Y-70238073D01*
X95613690Y-70238073D01*
X95616792Y-70250480D01*
X95616792Y-70252029D01*
X95619396Y-70260898D01*
X95663410Y-70436953D01*
X95662480Y-70445567D01*
X95668646Y-70457900D01*
X95669265Y-70460373D01*
X95673447Y-70467500D01*
X95715742Y-70552090D01*
X95718425Y-70564422D01*
X95733054Y-70579051D01*
X95747114Y-70594167D01*
X95748532Y-70594529D01*
X95826380Y-70672378D01*
X95837659Y-70686387D01*
X95852200Y-70691234D01*
X95865653Y-70698580D01*
X95872721Y-70698074D01*
X95992488Y-70737997D01*
X96003103Y-70744819D01*
X96023782Y-70744819D01*
X96044422Y-70745565D01*
X96045681Y-70744819D01*
X96257860Y-70744819D01*
X96274344Y-70747189D01*
X96289496Y-70740269D01*
X96305480Y-70735576D01*
X96309216Y-70731263D01*
X96314408Y-70728893D01*
X96323415Y-70714876D01*
X96334322Y-70702290D01*
X96335133Y-70696643D01*
X96338220Y-70691841D01*
X96338219Y-70675178D01*
X96340590Y-70658695D01*
X96338220Y-70653505D01*
X96338219Y-69675178D01*
X96340590Y-69658695D01*
X96333670Y-69643542D01*
X96328977Y-69627559D01*
X96324664Y-69623822D01*
X96322294Y-69618631D01*
X96308277Y-69609623D01*
X96295691Y-69598717D01*
X96290044Y-69597905D01*
X96285242Y-69594819D01*
X96268580Y-69594819D01*
X96252096Y-69592449D01*
X96246906Y-69594819D01*
X96034527Y-69594819D01*
X96022299Y-69591704D01*
X96002679Y-69598243D01*
X95982865Y-69604062D01*
X95981906Y-69605168D01*
X95862377Y-69645010D01*
X95844807Y-69648833D01*
X95833968Y-69659671D01*
X95821382Y-69668419D01*
X95818673Y-69674966D01*
X95740645Y-69752994D01*
X95729796Y-69759438D01*
X95720545Y-69777938D01*
X95710650Y-69796061D01*
X95710754Y-69797521D01*
X95678302Y-69862425D01*
X95671991Y-69868360D01*
X95668646Y-69881737D01*
X95667507Y-69884017D01*
X95666043Y-69892149D01*
X95622024Y-70068226D01*
X95616792Y-70076368D01*
X95616792Y-70089156D01*
X95616416Y-70090660D01*
X95616792Y-70099906D01*
X95616792Y-70228904D01*
X95613690Y-70238073D01*
X95385839Y-70238073D01*
X95385839Y-70110732D01*
X95388941Y-70101564D01*
X95385839Y-70089156D01*
X95385839Y-70087608D01*
X95383234Y-70078738D01*
X95339220Y-69902681D01*
X95340150Y-69894070D01*
X95333984Y-69881739D01*
X95333366Y-69879264D01*
X95329178Y-69872125D01*
X95286888Y-69787545D01*
X95284206Y-69775215D01*
X95269586Y-69760595D01*
X95255517Y-69745470D01*
X95254098Y-69745107D01*
X95176249Y-69667258D01*
X95164972Y-69653251D01*
X95150430Y-69648403D01*
X95136978Y-69641058D01*
X95129910Y-69641563D01*
X95010143Y-69601641D01*
X94999528Y-69594819D01*
X94978848Y-69594819D01*
X94958209Y-69594073D01*
X94956950Y-69594819D01*
X94891670Y-69594819D01*
X94879442Y-69591704D01*
X94859822Y-69598243D01*
X94840008Y-69604062D01*
X94839049Y-69605168D01*
X94719520Y-69645010D01*
X94701950Y-69648833D01*
X94691111Y-69659671D01*
X94678525Y-69668419D01*
X94675816Y-69674966D01*
X94631135Y-69719648D01*
X94615412Y-69748442D01*
X94618555Y-69792373D01*
X94644949Y-69827632D01*
X94686216Y-69843024D01*
X94729253Y-69833662D01*
X94779924Y-69782990D01*
X94894439Y-69744819D01*
X94965336Y-69744819D01*
X95079849Y-69782990D01*
X95153961Y-69857102D01*
X95192455Y-69934088D01*
X95235839Y-70107624D01*
X95235839Y-70232012D01*
X95192455Y-70405545D01*
X95153961Y-70482534D01*
X95079849Y-70556647D01*
X94965334Y-70594819D01*
X94894438Y-70594819D01*
X94779924Y-70556647D01*
X94737202Y-70513923D01*
X94708408Y-70498201D01*
X94664477Y-70501343D01*
X94629218Y-70527736D01*
X94613825Y-70569003D01*
X93100125Y-70569003D01*
X93100125Y-70299990D01*
X93423946Y-70299990D01*
X93442242Y-70340054D01*
X93479294Y-70363866D01*
X94274002Y-70363866D01*
X94305480Y-70354623D01*
X94334322Y-70321337D01*
X94340590Y-70277742D01*
X94322294Y-70237678D01*
X94285242Y-70213866D01*
X93490534Y-70213866D01*
X93459056Y-70223109D01*
X93430214Y-70256395D01*
X93423946Y-70299990D01*
X93100125Y-70299990D01*
X93100125Y-69675178D01*
X93102495Y-69658695D01*
X93095575Y-69643542D01*
X93090882Y-69627559D01*
X93086569Y-69623822D01*
X93084199Y-69618631D01*
X93070182Y-69609623D01*
X93057596Y-69598717D01*
X93051949Y-69597905D01*
X93047147Y-69594819D01*
X93030485Y-69594819D01*
X93014001Y-69592449D01*
X93008811Y-69594819D01*
X92796432Y-69594819D01*
X92784204Y-69591704D01*
X92764584Y-69598243D01*
X92744770Y-69604062D01*
X92743811Y-69605168D01*
X92624282Y-69645010D01*
X92606712Y-69648833D01*
X92595873Y-69659671D01*
X92583287Y-69668419D01*
X92580578Y-69674966D01*
X92502550Y-69752994D01*
X92491701Y-69759438D01*
X92482450Y-69777938D01*
X92472555Y-69796061D01*
X92472659Y-69797521D01*
X92440207Y-69862425D01*
X92433896Y-69868360D01*
X92430551Y-69881737D01*
X92429412Y-69884017D01*
X92427948Y-69892149D01*
X92383929Y-70068226D01*
X92378697Y-70076368D01*
X92378697Y-70089156D01*
X92378321Y-70090660D01*
X92378697Y-70099906D01*
X92378697Y-70228904D01*
X92375595Y-70238073D01*
X92147744Y-70238073D01*
X92147744Y-70110732D01*
X92150846Y-70101564D01*
X92147744Y-70089156D01*
X92147744Y-70087608D01*
X92145139Y-70078738D01*
X92101125Y-69902681D01*
X92102055Y-69894070D01*
X92095889Y-69881739D01*
X92095271Y-69879264D01*
X92091083Y-69872125D01*
X92048793Y-69787545D01*
X92046111Y-69775215D01*
X92031491Y-69760595D01*
X92017422Y-69745470D01*
X92016003Y-69745107D01*
X91938154Y-69667258D01*
X91926877Y-69653251D01*
X91912335Y-69648403D01*
X91898883Y-69641058D01*
X91891815Y-69641563D01*
X91772048Y-69601641D01*
X91761433Y-69594819D01*
X91740753Y-69594819D01*
X91720114Y-69594073D01*
X91718855Y-69594819D01*
X91653575Y-69594819D01*
X91641347Y-69591704D01*
X91621727Y-69598243D01*
X91601913Y-69604062D01*
X91600954Y-69605168D01*
X91481425Y-69645010D01*
X91463855Y-69648833D01*
X91453016Y-69659671D01*
X91440430Y-69668419D01*
X91437721Y-69674966D01*
X91393040Y-69719648D01*
X91377317Y-69748442D01*
X91380460Y-69792373D01*
X91406854Y-69827632D01*
X91448121Y-69843024D01*
X91491158Y-69833662D01*
X91541829Y-69782990D01*
X91656344Y-69744819D01*
X91727241Y-69744819D01*
X91841754Y-69782990D01*
X91915866Y-69857102D01*
X91954360Y-69934088D01*
X91997744Y-70107623D01*
X91997744Y-70232013D01*
X91954360Y-70405545D01*
X91915866Y-70482534D01*
X91841754Y-70556647D01*
X91727239Y-70594819D01*
X91656343Y-70594819D01*
X91541829Y-70556647D01*
X91499107Y-70513923D01*
X91470313Y-70498201D01*
X91426382Y-70501343D01*
X91391123Y-70527736D01*
X91375730Y-70569003D01*
X91064630Y-70569003D01*
X91095886Y-70412720D01*
X91100125Y-70406126D01*
X91100125Y-70391530D01*
X91100783Y-70388240D01*
X91100125Y-70380799D01*
X91100125Y-70207809D01*
X91102987Y-70200513D01*
X91100125Y-70186202D01*
X91100125Y-70182846D01*
X91098019Y-70175675D01*
X91054391Y-69957533D01*
X91055621Y-69952707D01*
X91050133Y-69936244D01*
X91048935Y-69930252D01*
X91046742Y-69926071D01*
X91006208Y-69804468D01*
X91006817Y-69798832D01*
X90999354Y-69783907D01*
X90997629Y-69778730D01*
X90994553Y-69774304D01*
X90956971Y-69699140D01*
X90956888Y-69694159D01*
X90947259Y-69679717D01*
X90944528Y-69674253D01*
X90941313Y-69670797D01*
X90857301Y-69544779D01*
X90855635Y-69537119D01*
X90845313Y-69526797D01*
X90843453Y-69524007D01*
X90837728Y-69519212D01*
X90784820Y-69466304D01*
X90756026Y-69450581D01*
X90712095Y-69453724D01*
X90676836Y-69480118D01*
X90661444Y-69521385D01*
X87290393Y-69521385D01*
X87288838Y-69499645D01*
X87262444Y-69464387D01*
X87221177Y-69448994D01*
X87178140Y-69458356D01*
X87124978Y-69511517D01*
X87117794Y-69514654D01*
X87109698Y-69526797D01*
X87107325Y-69529171D01*
X87103743Y-69535729D01*
X87019792Y-69661656D01*
X87015510Y-69664200D01*
X87007749Y-69679721D01*
X87004359Y-69684807D01*
X87002952Y-69689314D01*
X86965354Y-69764510D01*
X86960938Y-69768067D01*
X86955659Y-69783901D01*
X86953221Y-69788779D01*
X86952267Y-69794078D01*
X86911743Y-69915648D01*
X86908281Y-69919230D01*
X86904877Y-69936247D01*
X86902945Y-69942045D01*
X86902774Y-69946762D01*
X86859125Y-70165011D01*
X86854887Y-70171606D01*
X86854887Y-70186201D01*
X86854229Y-70189492D01*
X86854887Y-70196932D01*
X86854887Y-70369921D01*
X86852025Y-70377218D01*
X86247619Y-70377218D01*
X86247619Y-69057143D01*
X96967857Y-69057143D01*
X96967857Y-71167857D01*
G37*
G36*
X114094819Y-87710322D02*
G01*
X114056647Y-87824837D01*
X113982533Y-87898949D01*
X113905547Y-87937442D01*
X113732013Y-87980826D01*
X113607624Y-87980826D01*
X113434091Y-87937442D01*
X113357102Y-87898948D01*
X113282990Y-87824836D01*
X113244819Y-87710321D01*
X113244819Y-87559398D01*
X114094819Y-87559398D01*
X114094819Y-87710322D01*
G37*
G36*
X114667857Y-88690476D02*
G01*
X112557143Y-88690476D01*
X112557143Y-87725318D01*
X113091704Y-87725318D01*
X113098241Y-87744930D01*
X113104062Y-87764753D01*
X113105168Y-87765711D01*
X113145010Y-87885237D01*
X113148833Y-87902811D01*
X113159673Y-87913651D01*
X113168419Y-87926235D01*
X113174964Y-87928942D01*
X113252994Y-88006972D01*
X113259438Y-88017822D01*
X113277939Y-88027072D01*
X113296061Y-88036968D01*
X113297521Y-88036863D01*
X113362424Y-88069315D01*
X113368359Y-88075627D01*
X113381736Y-88078971D01*
X113384016Y-88080111D01*
X113392148Y-88081574D01*
X113568226Y-88125593D01*
X113576368Y-88130826D01*
X113589156Y-88130826D01*
X113590660Y-88131202D01*
X113599906Y-88130826D01*
X113728904Y-88130826D01*
X113738073Y-88133928D01*
X113750481Y-88130826D01*
X113752029Y-88130826D01*
X113760898Y-88128221D01*
X113936953Y-88084207D01*
X113945567Y-88085138D01*
X113957900Y-88078971D01*
X113960373Y-88078353D01*
X113967500Y-88074170D01*
X114052090Y-88031875D01*
X114064422Y-88029193D01*
X114079051Y-88014563D01*
X114094167Y-88000504D01*
X114094529Y-87999085D01*
X114172378Y-87921237D01*
X114186387Y-87909959D01*
X114191234Y-87895417D01*
X114198580Y-87881965D01*
X114198074Y-87874896D01*
X114237997Y-87755129D01*
X114244819Y-87744515D01*
X114244819Y-87723835D01*
X114245565Y-87703196D01*
X114244819Y-87701937D01*
X114244819Y-87489757D01*
X114247189Y-87473274D01*
X114240269Y-87458121D01*
X114235576Y-87442138D01*
X114231263Y-87438401D01*
X114228893Y-87433210D01*
X114214876Y-87424202D01*
X114202290Y-87413296D01*
X114196643Y-87412484D01*
X114191841Y-87409398D01*
X114175179Y-87409398D01*
X114158695Y-87407028D01*
X114153505Y-87409398D01*
X113175179Y-87409398D01*
X113158695Y-87407028D01*
X113143542Y-87413947D01*
X113127559Y-87418641D01*
X113123822Y-87422953D01*
X113118631Y-87425324D01*
X113109623Y-87439340D01*
X113098717Y-87451927D01*
X113097905Y-87457573D01*
X113094819Y-87462376D01*
X113094819Y-87479038D01*
X113092449Y-87495522D01*
X113094819Y-87500711D01*
X113094819Y-87713090D01*
X113091704Y-87725318D01*
X112557143Y-87725318D01*
X112557143Y-87019331D01*
X113092449Y-87019331D01*
X113110745Y-87059395D01*
X113147797Y-87083207D01*
X114161023Y-87083207D01*
X114173887Y-87086267D01*
X114192823Y-87079617D01*
X114212079Y-87073964D01*
X114213457Y-87072373D01*
X114215443Y-87071676D01*
X114227778Y-87055845D01*
X114240921Y-87040678D01*
X114241220Y-87038594D01*
X114242514Y-87036935D01*
X114244333Y-87016944D01*
X114247189Y-86997083D01*
X114246315Y-86995169D01*
X114246506Y-86993072D01*
X114237226Y-86975267D01*
X114228893Y-86957019D01*
X114227122Y-86955881D01*
X114226150Y-86954015D01*
X114208726Y-86944058D01*
X114191841Y-86933207D01*
X114189736Y-86933207D01*
X113452237Y-86511779D01*
X114180601Y-86511779D01*
X114212079Y-86502536D01*
X114240921Y-86469250D01*
X114247189Y-86425655D01*
X114228893Y-86385591D01*
X114191841Y-86361779D01*
X113178616Y-86361779D01*
X113165752Y-86358719D01*
X113146817Y-86365367D01*
X113127559Y-86371022D01*
X113126180Y-86372612D01*
X113124195Y-86373310D01*
X113111859Y-86389140D01*
X113098717Y-86404308D01*
X113098417Y-86406391D01*
X113097124Y-86408051D01*
X113095304Y-86428041D01*
X113092449Y-86447903D01*
X113093322Y-86449816D01*
X113093132Y-86451914D01*
X113102411Y-86469718D01*
X113110745Y-86487967D01*
X113112515Y-86489104D01*
X113113488Y-86490971D01*
X113130911Y-86500927D01*
X113147797Y-86511779D01*
X113149902Y-86511779D01*
X113887401Y-86933207D01*
X113159037Y-86933207D01*
X113127559Y-86942450D01*
X113098717Y-86975736D01*
X113092449Y-87019331D01*
X112557143Y-87019331D01*
X112557143Y-85879194D01*
X113092888Y-85879194D01*
X113099744Y-85892907D01*
X113104062Y-85907610D01*
X113109415Y-85912248D01*
X113155178Y-86003772D01*
X113177522Y-86027794D01*
X113220193Y-86038705D01*
X113261988Y-86024815D01*
X113289640Y-85990533D01*
X113294368Y-85946744D01*
X113244819Y-85847645D01*
X113244819Y-85734663D01*
X113282990Y-85620149D01*
X113357102Y-85546037D01*
X113434088Y-85507543D01*
X113607624Y-85464160D01*
X113732012Y-85464160D01*
X113905545Y-85507543D01*
X113982535Y-85546038D01*
X114056647Y-85620150D01*
X114094819Y-85734663D01*
X114094819Y-85805560D01*
X114056647Y-85920074D01*
X114043514Y-85933207D01*
X113816247Y-85933207D01*
X113816247Y-85806949D01*
X113807004Y-85775471D01*
X113773718Y-85746629D01*
X113730123Y-85740361D01*
X113690059Y-85758657D01*
X113666247Y-85795709D01*
X113666247Y-86002847D01*
X113663877Y-86019331D01*
X113670796Y-86034483D01*
X113675490Y-86050467D01*
X113679802Y-86054203D01*
X113682173Y-86059395D01*
X113696189Y-86068402D01*
X113708776Y-86079309D01*
X113714422Y-86080120D01*
X113719225Y-86083207D01*
X113735887Y-86083207D01*
X113752371Y-86085577D01*
X113757561Y-86083207D01*
X114061049Y-86083207D01*
X114069003Y-86086174D01*
X114082642Y-86083207D01*
X114085362Y-86083207D01*
X114093136Y-86080924D01*
X114112040Y-86076812D01*
X114114076Y-86074775D01*
X114116840Y-86073964D01*
X114129505Y-86059347D01*
X114172377Y-86016476D01*
X114186387Y-86005197D01*
X114191234Y-85990653D01*
X114198579Y-85977204D01*
X114198073Y-85970137D01*
X114237997Y-85850367D01*
X114244819Y-85839753D01*
X114244819Y-85819073D01*
X114245565Y-85798434D01*
X114244819Y-85797175D01*
X114244818Y-85731894D01*
X114247934Y-85719667D01*
X114241394Y-85700047D01*
X114235576Y-85680233D01*
X114234469Y-85679274D01*
X114194627Y-85559745D01*
X114190805Y-85542175D01*
X114179966Y-85531336D01*
X114171219Y-85518750D01*
X114164671Y-85516041D01*
X114086642Y-85438013D01*
X114080199Y-85427164D01*
X114061694Y-85417911D01*
X114043575Y-85408018D01*
X114042115Y-85408122D01*
X113977211Y-85375670D01*
X113971277Y-85369359D01*
X113957899Y-85366014D01*
X113955620Y-85364875D01*
X113947487Y-85363411D01*
X113771410Y-85319392D01*
X113763269Y-85314160D01*
X113750481Y-85314160D01*
X113748977Y-85313784D01*
X113739731Y-85314160D01*
X113610733Y-85314160D01*
X113601564Y-85311058D01*
X113589156Y-85314160D01*
X113587608Y-85314160D01*
X113578738Y-85316764D01*
X113402681Y-85360778D01*
X113394070Y-85359849D01*
X113381739Y-85366014D01*
X113379264Y-85366633D01*
X113372125Y-85370820D01*
X113287545Y-85413110D01*
X113275215Y-85415793D01*
X113260595Y-85430412D01*
X113245470Y-85444482D01*
X113245107Y-85445900D01*
X113167258Y-85523749D01*
X113153251Y-85535027D01*
X113148403Y-85549568D01*
X113141058Y-85563021D01*
X113141563Y-85570088D01*
X113101641Y-85689855D01*
X113094819Y-85700471D01*
X113094819Y-85721150D01*
X113094073Y-85741790D01*
X113094819Y-85743048D01*
X113094818Y-85861309D01*
X113092888Y-85879194D01*
X112557143Y-85879194D01*
X112557143Y-84732143D01*
X114667857Y-84732143D01*
X114667857Y-88690476D01*
G37*
G36*
X68318628Y-70077542D02*
G01*
X68315878Y-70092456D01*
X68318628Y-70099167D01*
X68318628Y-70209549D01*
X68284369Y-70278066D01*
X68253962Y-70308473D01*
X68185447Y-70342731D01*
X68078001Y-70342731D01*
X68009483Y-70308472D01*
X67979076Y-70278065D01*
X67944819Y-70209550D01*
X67944819Y-69921303D01*
X68318628Y-69921303D01*
X68318628Y-70077542D01*
G37*
G36*
X68318628Y-67172780D02*
G01*
X68315878Y-67187694D01*
X68318628Y-67194405D01*
X68318628Y-67304787D01*
X68284369Y-67373304D01*
X68253962Y-67403711D01*
X68185447Y-67437969D01*
X68078001Y-67437969D01*
X68009483Y-67403710D01*
X67979076Y-67373303D01*
X67944819Y-67304788D01*
X67944819Y-67016541D01*
X68318628Y-67016541D01*
X68318628Y-67172780D01*
G37*
G36*
X68509104Y-66408911D02*
G01*
X68106989Y-66274873D01*
X68509104Y-66140836D01*
X68509104Y-66408911D01*
G37*
G36*
X69367857Y-71052381D02*
G01*
X67257143Y-71052381D01*
X67257143Y-69857427D01*
X67792449Y-69857427D01*
X67794819Y-69862616D01*
X67794819Y-70223214D01*
X67792888Y-70241099D01*
X67799744Y-70254812D01*
X67804062Y-70269515D01*
X67809415Y-70274153D01*
X67846150Y-70347622D01*
X67848833Y-70359954D01*
X67863460Y-70374581D01*
X67877522Y-70389699D01*
X67878940Y-70390061D01*
X67905375Y-70416496D01*
X67911819Y-70427346D01*
X67930328Y-70436600D01*
X67948442Y-70446491D01*
X67949900Y-70446386D01*
X68023146Y-70483009D01*
X68038273Y-70492731D01*
X68053603Y-70492731D01*
X68068686Y-70495445D01*
X68075230Y-70492731D01*
X68199112Y-70492731D01*
X68216996Y-70494662D01*
X68230709Y-70487805D01*
X68245412Y-70483488D01*
X68250050Y-70478134D01*
X68323519Y-70441399D01*
X68335851Y-70438717D01*
X68350478Y-70424089D01*
X68365596Y-70410028D01*
X68365958Y-70408609D01*
X68392393Y-70382174D01*
X68403243Y-70375731D01*
X68412497Y-70357221D01*
X68422388Y-70339108D01*
X68422283Y-70337649D01*
X68458906Y-70264403D01*
X68468628Y-70249277D01*
X68468628Y-70233947D01*
X68469506Y-70229062D01*
X68835643Y-70485357D01*
X68866731Y-70495836D01*
X68909447Y-70485107D01*
X68939582Y-70452987D01*
X68947569Y-70409673D01*
X68930870Y-70368917D01*
X68468628Y-70045348D01*
X68468628Y-69921303D01*
X68880601Y-69921303D01*
X68912079Y-69912060D01*
X68940921Y-69878774D01*
X68947189Y-69835179D01*
X68928893Y-69795115D01*
X68891841Y-69771303D01*
X68398988Y-69771303D01*
X68382504Y-69768933D01*
X68377314Y-69771303D01*
X67875179Y-69771303D01*
X67858695Y-69768933D01*
X67843542Y-69775852D01*
X67827559Y-69780546D01*
X67823822Y-69784858D01*
X67818631Y-69787229D01*
X67809623Y-69801245D01*
X67798717Y-69813832D01*
X67797905Y-69819478D01*
X67794819Y-69824281D01*
X67794819Y-69840943D01*
X67792449Y-69857427D01*
X67257143Y-69857427D01*
X67257143Y-68952665D01*
X67792449Y-68952665D01*
X67794819Y-68957854D01*
X67794819Y-69428513D01*
X67804062Y-69459991D01*
X67837348Y-69488833D01*
X67880943Y-69495101D01*
X67921007Y-69476805D01*
X67944819Y-69439753D01*
X67944819Y-69016541D01*
X68271009Y-69016541D01*
X68271009Y-69285656D01*
X68280252Y-69317134D01*
X68313538Y-69345976D01*
X68357133Y-69352244D01*
X68397197Y-69333948D01*
X68421009Y-69296896D01*
X68421009Y-69016541D01*
X68794819Y-69016541D01*
X68794819Y-69428513D01*
X68804062Y-69459991D01*
X68837348Y-69488833D01*
X68880943Y-69495101D01*
X68921007Y-69476805D01*
X68944819Y-69439753D01*
X68944819Y-68946900D01*
X68947189Y-68930417D01*
X68940269Y-68915264D01*
X68935576Y-68899281D01*
X68931263Y-68895544D01*
X68928893Y-68890353D01*
X68914876Y-68881345D01*
X68902290Y-68870439D01*
X68896643Y-68869627D01*
X68891841Y-68866541D01*
X68875179Y-68866541D01*
X68858695Y-68864171D01*
X68853505Y-68866541D01*
X68351369Y-68866541D01*
X68334885Y-68864171D01*
X68329695Y-68866541D01*
X67875179Y-68866541D01*
X67858695Y-68864171D01*
X67843542Y-68871090D01*
X67827559Y-68875784D01*
X67823822Y-68880096D01*
X67818631Y-68882467D01*
X67809623Y-68896483D01*
X67798717Y-68909070D01*
X67797905Y-68914716D01*
X67794819Y-68919519D01*
X67794819Y-68936181D01*
X67792449Y-68952665D01*
X67257143Y-68952665D01*
X67257143Y-68383956D01*
X67792888Y-68383956D01*
X67799744Y-68397669D01*
X67804062Y-68412372D01*
X67809415Y-68417010D01*
X67855178Y-68508534D01*
X67877522Y-68532556D01*
X67920193Y-68543467D01*
X67961988Y-68529577D01*
X67989640Y-68495295D01*
X67994368Y-68451506D01*
X67944819Y-68352407D01*
X67944819Y-68239425D01*
X67982990Y-68124911D01*
X68057102Y-68050799D01*
X68134088Y-68012305D01*
X68307624Y-67968922D01*
X68432012Y-67968922D01*
X68605545Y-68012305D01*
X68682535Y-68050800D01*
X68756647Y-68124912D01*
X68794819Y-68239425D01*
X68794819Y-68310322D01*
X68756647Y-68424836D01*
X68743514Y-68437969D01*
X68516247Y-68437969D01*
X68516247Y-68311711D01*
X68507004Y-68280233D01*
X68473718Y-68251391D01*
X68430123Y-68245123D01*
X68390059Y-68263419D01*
X68366247Y-68300471D01*
X68366247Y-68507609D01*
X68363877Y-68524093D01*
X68370796Y-68539245D01*
X68375490Y-68555229D01*
X68379802Y-68558965D01*
X68382173Y-68564157D01*
X68396189Y-68573164D01*
X68408776Y-68584071D01*
X68414422Y-68584882D01*
X68419225Y-68587969D01*
X68435887Y-68587969D01*
X68452371Y-68590339D01*
X68457561Y-68587969D01*
X68761049Y-68587969D01*
X68769003Y-68590936D01*
X68782642Y-68587969D01*
X68785362Y-68587969D01*
X68793136Y-68585686D01*
X68812040Y-68581574D01*
X68814076Y-68579537D01*
X68816840Y-68578726D01*
X68829505Y-68564109D01*
X68872377Y-68521238D01*
X68886387Y-68509959D01*
X68891234Y-68495415D01*
X68898579Y-68481966D01*
X68898073Y-68474899D01*
X68937997Y-68355129D01*
X68944819Y-68344515D01*
X68944819Y-68323835D01*
X68945565Y-68303196D01*
X68944819Y-68301937D01*
X68944819Y-68236656D01*
X68947934Y-68224429D01*
X68941394Y-68204809D01*
X68935576Y-68184995D01*
X68934469Y-68184036D01*
X68894627Y-68064507D01*
X68890805Y-68046937D01*
X68879966Y-68036098D01*
X68871219Y-68023512D01*
X68864671Y-68020803D01*
X68786642Y-67942775D01*
X68780199Y-67931926D01*
X68761694Y-67922673D01*
X68743575Y-67912780D01*
X68742115Y-67912884D01*
X68677211Y-67880432D01*
X68671277Y-67874121D01*
X68657899Y-67870776D01*
X68655620Y-67869637D01*
X68647487Y-67868173D01*
X68471410Y-67824154D01*
X68463269Y-67818922D01*
X68450481Y-67818922D01*
X68448977Y-67818546D01*
X68439731Y-67818922D01*
X68310733Y-67818922D01*
X68301564Y-67815820D01*
X68289156Y-67818922D01*
X68287608Y-67818922D01*
X68278738Y-67821526D01*
X68102681Y-67865540D01*
X68094070Y-67864611D01*
X68081739Y-67870776D01*
X68079264Y-67871395D01*
X68072125Y-67875582D01*
X67987545Y-67917872D01*
X67975215Y-67920555D01*
X67960595Y-67935174D01*
X67945470Y-67949244D01*
X67945107Y-67950662D01*
X67867258Y-68028511D01*
X67853251Y-68039789D01*
X67848403Y-68054330D01*
X67841058Y-68067783D01*
X67841563Y-68074850D01*
X67801641Y-68194617D01*
X67794819Y-68205233D01*
X67794819Y-68225912D01*
X67794073Y-68246552D01*
X67794819Y-68247810D01*
X67794819Y-68366071D01*
X67792888Y-68383956D01*
X67257143Y-68383956D01*
X67257143Y-66952665D01*
X67792449Y-66952665D01*
X67794819Y-66957854D01*
X67794819Y-67318452D01*
X67792888Y-67336337D01*
X67799744Y-67350050D01*
X67804062Y-67364753D01*
X67809415Y-67369391D01*
X67846150Y-67442860D01*
X67848833Y-67455192D01*
X67863460Y-67469819D01*
X67877522Y-67484937D01*
X67878940Y-67485299D01*
X67905375Y-67511734D01*
X67911819Y-67522584D01*
X67930328Y-67531838D01*
X67948442Y-67541729D01*
X67949900Y-67541624D01*
X68023146Y-67578247D01*
X68038273Y-67587969D01*
X68053603Y-67587969D01*
X68068686Y-67590683D01*
X68075230Y-67587969D01*
X68199112Y-67587969D01*
X68216996Y-67589900D01*
X68230709Y-67583043D01*
X68245412Y-67578726D01*
X68250050Y-67573372D01*
X68323519Y-67536637D01*
X68335851Y-67533955D01*
X68350478Y-67519327D01*
X68365596Y-67505266D01*
X68365958Y-67503847D01*
X68392393Y-67477412D01*
X68403243Y-67470969D01*
X68412497Y-67452459D01*
X68422388Y-67434346D01*
X68422283Y-67432887D01*
X68458906Y-67359641D01*
X68468628Y-67344515D01*
X68468628Y-67329185D01*
X68469506Y-67324300D01*
X68835643Y-67580595D01*
X68866731Y-67591074D01*
X68909447Y-67580345D01*
X68939582Y-67548225D01*
X68947569Y-67504911D01*
X68930870Y-67464155D01*
X68468628Y-67140586D01*
X68468628Y-67016541D01*
X68880601Y-67016541D01*
X68912079Y-67007298D01*
X68940921Y-66974012D01*
X68947189Y-66930417D01*
X68928893Y-66890353D01*
X68891841Y-66866541D01*
X68398988Y-66866541D01*
X68382504Y-66864171D01*
X68377314Y-66866541D01*
X67875179Y-66866541D01*
X67858695Y-66864171D01*
X67843542Y-66871090D01*
X67827559Y-66875784D01*
X67823822Y-66880096D01*
X67818631Y-66882467D01*
X67809623Y-66896483D01*
X67798717Y-66909070D01*
X67797905Y-66914716D01*
X67794819Y-66919519D01*
X67794819Y-66936181D01*
X67792449Y-66952665D01*
X67257143Y-66952665D01*
X67257143Y-66266554D01*
X67792097Y-66266554D01*
X67795534Y-66285555D01*
X67797589Y-66304754D01*
X67799418Y-66307025D01*
X67799937Y-66309894D01*
X67813097Y-66324016D01*
X67825210Y-66339061D01*
X67827976Y-66339983D01*
X67829964Y-66342116D01*
X67848675Y-66346882D01*
X68546252Y-66579408D01*
X68551633Y-66584071D01*
X68566767Y-66586246D01*
X68856330Y-66682768D01*
X68889116Y-66683953D01*
X68927004Y-66661496D01*
X68946736Y-66622120D01*
X68942048Y-66578326D01*
X68914428Y-66544020D01*
X68659104Y-66458912D01*
X68659104Y-66090836D01*
X68903764Y-66009283D01*
X68930704Y-65990560D01*
X68947540Y-65949861D01*
X68939700Y-65906521D01*
X68909674Y-65874299D01*
X68866993Y-65863426D01*
X68577216Y-65960018D01*
X68572980Y-65959409D01*
X68556592Y-65966892D01*
X67858969Y-66199433D01*
X67850522Y-66199128D01*
X67838489Y-66206259D01*
X67835873Y-66207132D01*
X67829235Y-66211744D01*
X67812634Y-66221585D01*
X67811328Y-66224190D01*
X67808933Y-66225855D01*
X67801547Y-66243708D01*
X67792902Y-66260961D01*
X67793212Y-66263858D01*
X67792097Y-66266554D01*
X67257143Y-66266554D01*
X67257143Y-65619331D01*
X67792449Y-65619331D01*
X67810745Y-65659395D01*
X67847797Y-65683207D01*
X68340649Y-65683207D01*
X68357133Y-65685577D01*
X68362323Y-65683207D01*
X68880601Y-65683207D01*
X68912079Y-65673964D01*
X68940921Y-65640678D01*
X68947189Y-65597083D01*
X68928893Y-65557019D01*
X68891841Y-65533207D01*
X68421009Y-65533207D01*
X68421009Y-65111779D01*
X68880601Y-65111779D01*
X68912079Y-65102536D01*
X68940921Y-65069250D01*
X68947189Y-65025655D01*
X68928893Y-64985591D01*
X68891841Y-64961779D01*
X68351369Y-64961779D01*
X68334885Y-64959409D01*
X68329695Y-64961779D01*
X67859037Y-64961779D01*
X67827559Y-64971022D01*
X67798717Y-65004308D01*
X67792449Y-65047903D01*
X67810745Y-65087967D01*
X67847797Y-65111779D01*
X68271009Y-65111779D01*
X68271009Y-65533207D01*
X67859037Y-65533207D01*
X67827559Y-65542450D01*
X67798717Y-65575736D01*
X67792449Y-65619331D01*
X67257143Y-65619331D01*
X67257143Y-64420556D01*
X67791704Y-64420556D01*
X67798241Y-64440168D01*
X67804062Y-64459991D01*
X67805168Y-64460949D01*
X67845010Y-64580475D01*
X67848833Y-64598049D01*
X67859673Y-64608889D01*
X67868419Y-64621473D01*
X67874964Y-64624180D01*
X67919648Y-64668864D01*
X67948442Y-64684586D01*
X67992373Y-64681444D01*
X68027631Y-64655050D01*
X68043024Y-64613783D01*
X68033662Y-64570746D01*
X67982990Y-64520074D01*
X67944819Y-64405559D01*
X67944819Y-64334663D01*
X67982990Y-64220149D01*
X68057102Y-64146037D01*
X68134088Y-64107543D01*
X68307624Y-64064160D01*
X68432012Y-64064160D01*
X68605545Y-64107543D01*
X68682535Y-64146038D01*
X68756647Y-64220150D01*
X68794819Y-64334663D01*
X68794819Y-64405560D01*
X68756647Y-64520074D01*
X68713923Y-64562797D01*
X68698201Y-64591591D01*
X68701343Y-64635522D01*
X68727736Y-64670781D01*
X68769003Y-64686174D01*
X68812040Y-64676812D01*
X68872377Y-64616476D01*
X68886387Y-64605197D01*
X68891234Y-64590653D01*
X68898579Y-64577204D01*
X68898073Y-64570137D01*
X68937997Y-64450367D01*
X68944819Y-64439753D01*
X68944819Y-64419073D01*
X68945565Y-64398434D01*
X68944819Y-64397175D01*
X68944819Y-64331894D01*
X68947934Y-64319667D01*
X68941394Y-64300047D01*
X68935576Y-64280233D01*
X68934469Y-64279274D01*
X68894627Y-64159745D01*
X68890805Y-64142175D01*
X68879966Y-64131336D01*
X68871219Y-64118750D01*
X68864671Y-64116041D01*
X68786642Y-64038013D01*
X68780199Y-64027164D01*
X68761694Y-64017911D01*
X68743575Y-64008018D01*
X68742115Y-64008122D01*
X68677211Y-63975670D01*
X68671277Y-63969359D01*
X68657899Y-63966014D01*
X68655620Y-63964875D01*
X68647487Y-63963411D01*
X68471410Y-63919392D01*
X68463269Y-63914160D01*
X68450481Y-63914160D01*
X68448977Y-63913784D01*
X68439731Y-63914160D01*
X68310733Y-63914160D01*
X68301564Y-63911058D01*
X68289156Y-63914160D01*
X68287608Y-63914160D01*
X68278738Y-63916764D01*
X68102681Y-63960778D01*
X68094070Y-63959849D01*
X68081739Y-63966014D01*
X68079264Y-63966633D01*
X68072125Y-63970820D01*
X67987545Y-64013110D01*
X67975215Y-64015793D01*
X67960595Y-64030412D01*
X67945470Y-64044482D01*
X67945107Y-64045900D01*
X67867258Y-64123749D01*
X67853251Y-64135027D01*
X67848403Y-64149568D01*
X67841058Y-64163021D01*
X67841563Y-64170088D01*
X67801641Y-64289855D01*
X67794819Y-64300471D01*
X67794819Y-64321150D01*
X67794073Y-64341790D01*
X67794819Y-64343048D01*
X67794819Y-64408328D01*
X67791704Y-64420556D01*
X67257143Y-64420556D01*
X67257143Y-63332143D01*
X69367857Y-63332143D01*
X69367857Y-71052381D01*
G37*
G36*
X122767857Y-88304762D02*
G01*
X120657143Y-88304762D01*
X120657143Y-87648453D01*
X121194714Y-87648453D01*
X121194819Y-87670164D01*
X121194819Y-87680894D01*
X121194871Y-87681073D01*
X121194927Y-87692496D01*
X121200947Y-87701765D01*
X121204062Y-87712372D01*
X121212695Y-87719852D01*
X121218917Y-87729432D01*
X121228993Y-87733975D01*
X121237348Y-87741214D01*
X121248654Y-87742839D01*
X121259069Y-87747535D01*
X121270003Y-87745909D01*
X121280943Y-87747482D01*
X121291332Y-87742737D01*
X121302634Y-87741057D01*
X121310954Y-87733776D01*
X121321007Y-87729186D01*
X121327182Y-87719577D01*
X121577412Y-87500625D01*
X121580696Y-87507193D01*
X121585014Y-87521896D01*
X121590367Y-87526534D01*
X121627102Y-87600003D01*
X121629785Y-87612335D01*
X121644412Y-87626962D01*
X121658474Y-87642080D01*
X121659892Y-87642442D01*
X121686327Y-87668877D01*
X121692771Y-87679727D01*
X121711280Y-87688981D01*
X121729394Y-87698872D01*
X121730852Y-87698767D01*
X121804098Y-87735390D01*
X121819225Y-87745112D01*
X121834555Y-87745112D01*
X121849638Y-87747826D01*
X121856182Y-87745112D01*
X122075302Y-87745112D01*
X122093186Y-87747043D01*
X122106899Y-87740186D01*
X122121602Y-87735869D01*
X122126240Y-87730515D01*
X122199709Y-87693780D01*
X122212040Y-87691098D01*
X122226660Y-87676478D01*
X122241786Y-87662409D01*
X122242148Y-87660990D01*
X122268583Y-87634556D01*
X122279434Y-87628112D01*
X122288689Y-87609600D01*
X122298579Y-87591490D01*
X122298474Y-87590030D01*
X122335097Y-87516784D01*
X122344819Y-87501658D01*
X122344819Y-87486328D01*
X122347533Y-87471245D01*
X122344819Y-87464701D01*
X122344819Y-87197952D01*
X122346749Y-87180078D01*
X122339894Y-87166368D01*
X122335576Y-87151662D01*
X122330221Y-87147022D01*
X122293486Y-87073552D01*
X122290804Y-87061222D01*
X122276188Y-87046606D01*
X122262116Y-87031478D01*
X122260696Y-87031115D01*
X122219988Y-86990407D01*
X122191194Y-86974685D01*
X122147263Y-86977828D01*
X122112005Y-87004223D01*
X122096613Y-87045490D01*
X122105975Y-87088527D01*
X122160560Y-87143109D01*
X122194819Y-87211626D01*
X122194819Y-87461930D01*
X122160560Y-87530447D01*
X122130151Y-87560855D01*
X122061637Y-87595112D01*
X121858953Y-87595112D01*
X121790435Y-87560853D01*
X121760028Y-87530446D01*
X121725771Y-87461931D01*
X121725771Y-87358603D01*
X121725876Y-87358438D01*
X121725771Y-87336726D01*
X121725771Y-87325997D01*
X121725718Y-87325817D01*
X121725663Y-87314395D01*
X121719642Y-87305125D01*
X121716528Y-87294519D01*
X121707894Y-87287038D01*
X121701673Y-87277459D01*
X121691596Y-87272915D01*
X121683242Y-87265677D01*
X121671935Y-87264051D01*
X121661521Y-87259356D01*
X121650586Y-87260981D01*
X121639647Y-87259409D01*
X121629257Y-87264153D01*
X121617956Y-87265834D01*
X121609635Y-87273114D01*
X121599583Y-87277705D01*
X121593407Y-87287313D01*
X121344819Y-87504829D01*
X121344819Y-87040283D01*
X121335576Y-87008805D01*
X121302290Y-86979963D01*
X121258695Y-86973695D01*
X121218631Y-86991991D01*
X121194819Y-87029043D01*
X121194819Y-87648287D01*
X121194714Y-87648453D01*
X120657143Y-87648453D01*
X120657143Y-86804649D01*
X121192097Y-86804649D01*
X121199937Y-86847989D01*
X121229964Y-86880211D01*
X121272644Y-86891084D01*
X122280667Y-86555076D01*
X122289116Y-86555382D01*
X122301149Y-86548249D01*
X122303764Y-86547378D01*
X122310395Y-86542769D01*
X122327004Y-86532925D01*
X122328310Y-86530318D01*
X122330704Y-86528655D01*
X122338084Y-86510812D01*
X122346736Y-86493549D01*
X122346425Y-86490649D01*
X122347540Y-86487956D01*
X122344103Y-86468961D01*
X122342048Y-86449755D01*
X122340218Y-86447482D01*
X122339700Y-86444616D01*
X122326543Y-86430497D01*
X122314428Y-86415449D01*
X122311661Y-86414526D01*
X122309674Y-86412394D01*
X122290963Y-86407627D01*
X121283307Y-86071742D01*
X121250522Y-86070557D01*
X121212634Y-86093014D01*
X121192902Y-86132390D01*
X121197589Y-86176183D01*
X121225210Y-86210490D01*
X122032647Y-86479636D01*
X121235873Y-86745227D01*
X121208933Y-86763950D01*
X121192097Y-86804649D01*
X120657143Y-86804649D01*
X120657143Y-85838929D01*
X121194714Y-85838929D01*
X121194819Y-85860640D01*
X121194819Y-85871370D01*
X121194871Y-85871549D01*
X121194927Y-85882972D01*
X121200947Y-85892241D01*
X121204062Y-85902848D01*
X121212695Y-85910328D01*
X121218917Y-85919908D01*
X121228993Y-85924451D01*
X121237348Y-85931690D01*
X121248654Y-85933315D01*
X121259069Y-85938011D01*
X121270003Y-85936385D01*
X121280943Y-85937958D01*
X121291332Y-85933213D01*
X121302634Y-85931533D01*
X121310954Y-85924252D01*
X121321007Y-85919662D01*
X121327182Y-85910053D01*
X121577412Y-85691101D01*
X121580696Y-85697669D01*
X121585014Y-85712372D01*
X121590367Y-85717010D01*
X121627102Y-85790479D01*
X121629785Y-85802811D01*
X121644412Y-85817438D01*
X121658474Y-85832556D01*
X121659892Y-85832918D01*
X121686327Y-85859353D01*
X121692771Y-85870203D01*
X121711280Y-85879457D01*
X121729394Y-85889348D01*
X121730852Y-85889243D01*
X121804098Y-85925866D01*
X121819225Y-85935588D01*
X121834555Y-85935588D01*
X121849638Y-85938302D01*
X121856182Y-85935588D01*
X122075302Y-85935588D01*
X122093186Y-85937519D01*
X122106899Y-85930662D01*
X122121602Y-85926345D01*
X122126240Y-85920991D01*
X122199709Y-85884256D01*
X122212040Y-85881574D01*
X122226660Y-85866954D01*
X122241786Y-85852885D01*
X122242148Y-85851466D01*
X122268583Y-85825032D01*
X122279434Y-85818588D01*
X122288689Y-85800076D01*
X122298579Y-85781966D01*
X122298474Y-85780506D01*
X122335097Y-85707260D01*
X122344819Y-85692134D01*
X122344819Y-85676804D01*
X122347533Y-85661721D01*
X122344819Y-85655177D01*
X122344819Y-85388428D01*
X122346749Y-85370554D01*
X122339894Y-85356844D01*
X122335576Y-85342138D01*
X122330221Y-85337498D01*
X122293486Y-85264028D01*
X122290804Y-85251698D01*
X122276188Y-85237082D01*
X122262116Y-85221954D01*
X122260696Y-85221591D01*
X122219988Y-85180883D01*
X122191194Y-85165161D01*
X122147263Y-85168304D01*
X122112005Y-85194699D01*
X122096613Y-85235966D01*
X122105975Y-85279003D01*
X122160560Y-85333585D01*
X122194819Y-85402102D01*
X122194819Y-85652406D01*
X122160560Y-85720923D01*
X122130151Y-85751331D01*
X122061637Y-85785588D01*
X121858953Y-85785588D01*
X121790435Y-85751329D01*
X121760028Y-85720922D01*
X121725771Y-85652407D01*
X121725771Y-85549079D01*
X121725876Y-85548914D01*
X121725771Y-85527202D01*
X121725771Y-85516473D01*
X121725718Y-85516293D01*
X121725663Y-85504871D01*
X121719642Y-85495601D01*
X121716528Y-85484995D01*
X121707894Y-85477514D01*
X121701673Y-85467935D01*
X121691596Y-85463391D01*
X121683242Y-85456153D01*
X121671935Y-85454527D01*
X121661521Y-85449832D01*
X121650586Y-85451457D01*
X121639647Y-85449885D01*
X121629257Y-85454629D01*
X121617956Y-85456310D01*
X121609635Y-85463590D01*
X121599583Y-85468181D01*
X121593407Y-85477789D01*
X121344819Y-85695305D01*
X121344819Y-85230759D01*
X121335576Y-85199281D01*
X121302290Y-85170439D01*
X121258695Y-85164171D01*
X121218631Y-85182467D01*
X121194819Y-85219519D01*
X121194819Y-85838763D01*
X121194714Y-85838929D01*
X120657143Y-85838929D01*
X120657143Y-84632143D01*
X122767857Y-84632143D01*
X122767857Y-88304762D01*
G37*
G36*
X119240937Y-63154078D02*
G01*
X119312878Y-63226019D01*
X119353219Y-63387385D01*
X119353219Y-63702251D01*
X119312878Y-63863618D01*
X119240934Y-63935561D01*
X119172420Y-63969819D01*
X119017355Y-63969819D01*
X118948836Y-63935560D01*
X118876895Y-63863618D01*
X118836554Y-63702250D01*
X118836554Y-63387386D01*
X118876895Y-63226019D01*
X118948837Y-63154077D01*
X119017353Y-63119819D01*
X119172419Y-63119819D01*
X119240937Y-63154078D01*
G37*
G36*
X120288555Y-63154077D02*
G01*
X120360497Y-63226019D01*
X120400839Y-63387386D01*
X120400839Y-63702250D01*
X120360497Y-63863618D01*
X120288553Y-63935561D01*
X120220039Y-63969819D01*
X120064974Y-63969819D01*
X119996455Y-63935560D01*
X119924514Y-63863618D01*
X119884173Y-63702250D01*
X119884173Y-63387386D01*
X119924514Y-63226019D01*
X119996456Y-63154077D01*
X120064972Y-63119819D01*
X120220038Y-63119819D01*
X120288555Y-63154077D01*
G37*
G36*
X121353220Y-63969819D02*
G01*
X121064974Y-63969819D01*
X120996456Y-63935560D01*
X120966048Y-63905151D01*
X120931792Y-63836637D01*
X120931792Y-63729190D01*
X120966050Y-63660673D01*
X120992543Y-63634180D01*
X121100445Y-63598213D01*
X121103278Y-63598723D01*
X121109822Y-63596009D01*
X121353220Y-63596009D01*
X121353220Y-63969819D01*
G37*
G36*
X121353220Y-63446009D02*
G01*
X121112593Y-63446009D01*
X121044075Y-63411750D01*
X121013668Y-63381343D01*
X120979411Y-63312828D01*
X120979411Y-63253001D01*
X121013669Y-63184483D01*
X121044075Y-63154077D01*
X121112591Y-63119819D01*
X121353220Y-63119819D01*
X121353220Y-63446009D01*
G37*
G36*
X122132857Y-64542857D02*
G01*
X117365000Y-64542857D01*
X117365000Y-63055943D01*
X117827041Y-63055943D01*
X117845337Y-63096007D01*
X117882389Y-63119819D01*
X118115125Y-63119819D01*
X118115125Y-64055601D01*
X118124368Y-64087079D01*
X118157654Y-64115921D01*
X118201249Y-64122189D01*
X118241313Y-64103893D01*
X118265125Y-64066841D01*
X118265125Y-63708311D01*
X118683452Y-63708311D01*
X118686554Y-63720718D01*
X118686554Y-63722267D01*
X118689158Y-63731136D01*
X118736134Y-63919042D01*
X118740568Y-63939422D01*
X118749348Y-63948202D01*
X118755629Y-63958907D01*
X118764597Y-63963451D01*
X118844728Y-64043583D01*
X118851173Y-64054434D01*
X118869674Y-64063684D01*
X118887796Y-64073580D01*
X118889256Y-64073475D01*
X118962500Y-64110097D01*
X118977627Y-64119819D01*
X118992957Y-64119819D01*
X119008040Y-64122533D01*
X119014584Y-64119819D01*
X119186085Y-64119819D01*
X119203969Y-64121750D01*
X119217682Y-64114893D01*
X119232385Y-64110576D01*
X119237023Y-64105222D01*
X119310492Y-64068487D01*
X119322824Y-64065805D01*
X119337449Y-64051179D01*
X119352569Y-64037116D01*
X119352931Y-64035696D01*
X119432814Y-63955813D01*
X119448021Y-63941516D01*
X119451032Y-63929468D01*
X119456981Y-63918575D01*
X119456263Y-63908545D01*
X119497987Y-63741648D01*
X119503220Y-63733507D01*
X119503220Y-63720719D01*
X119503596Y-63719215D01*
X119503219Y-63709968D01*
X119503219Y-63708311D01*
X119731071Y-63708311D01*
X119734173Y-63720718D01*
X119734173Y-63722267D01*
X119736777Y-63731136D01*
X119783753Y-63919042D01*
X119788187Y-63939422D01*
X119796967Y-63948202D01*
X119803248Y-63958907D01*
X119812216Y-63963451D01*
X119892347Y-64043583D01*
X119898792Y-64054434D01*
X119917293Y-64063684D01*
X119935415Y-64073580D01*
X119936875Y-64073475D01*
X120010119Y-64110097D01*
X120025246Y-64119819D01*
X120040576Y-64119819D01*
X120055659Y-64122533D01*
X120062203Y-64119819D01*
X120233704Y-64119819D01*
X120251588Y-64121750D01*
X120265301Y-64114893D01*
X120280004Y-64110576D01*
X120284642Y-64105222D01*
X120358111Y-64068487D01*
X120370443Y-64065805D01*
X120385068Y-64051179D01*
X120400188Y-64037116D01*
X120400550Y-64035696D01*
X120480433Y-63955813D01*
X120495640Y-63941516D01*
X120498651Y-63929468D01*
X120504600Y-63918575D01*
X120503882Y-63908545D01*
X120545606Y-63741648D01*
X120550839Y-63733507D01*
X120550839Y-63720719D01*
X120551050Y-63719876D01*
X120779078Y-63719876D01*
X120781792Y-63726419D01*
X120781792Y-63850301D01*
X120779861Y-63868186D01*
X120786717Y-63881899D01*
X120791035Y-63896602D01*
X120796388Y-63901240D01*
X120833123Y-63974709D01*
X120835806Y-63987040D01*
X120850425Y-64001660D01*
X120864495Y-64016786D01*
X120865913Y-64017148D01*
X120892347Y-64043583D01*
X120898792Y-64054434D01*
X120917303Y-64063689D01*
X120935414Y-64073579D01*
X120936873Y-64073474D01*
X121010119Y-64110097D01*
X121025246Y-64119819D01*
X121040576Y-64119819D01*
X121055659Y-64122533D01*
X121062203Y-64119819D01*
X121422860Y-64119819D01*
X121439344Y-64122189D01*
X121454496Y-64115269D01*
X121470480Y-64110576D01*
X121474216Y-64106263D01*
X121479408Y-64103893D01*
X121488415Y-64089876D01*
X121499322Y-64077290D01*
X121500133Y-64071643D01*
X121503220Y-64066841D01*
X121503220Y-64050178D01*
X121505590Y-64033695D01*
X121503220Y-64028505D01*
X121503220Y-63526368D01*
X121505590Y-63509885D01*
X121503220Y-63504695D01*
X121503220Y-63050178D01*
X121505590Y-63033695D01*
X121498670Y-63018542D01*
X121493977Y-63002559D01*
X121489664Y-62998822D01*
X121487294Y-62993631D01*
X121473277Y-62984623D01*
X121460691Y-62973717D01*
X121455044Y-62972905D01*
X121450242Y-62969819D01*
X121433580Y-62969819D01*
X121417096Y-62967449D01*
X121411906Y-62969819D01*
X121098918Y-62969819D01*
X121081043Y-62967889D01*
X121067333Y-62974743D01*
X121052627Y-62979062D01*
X121047987Y-62984416D01*
X120974518Y-63021150D01*
X120962188Y-63023833D01*
X120947568Y-63038452D01*
X120932443Y-63052522D01*
X120932080Y-63053940D01*
X120905645Y-63080375D01*
X120894796Y-63086819D01*
X120885545Y-63105319D01*
X120875650Y-63123442D01*
X120875754Y-63124902D01*
X120839134Y-63198143D01*
X120829411Y-63213273D01*
X120829411Y-63228603D01*
X120826697Y-63243686D01*
X120829411Y-63250229D01*
X120829411Y-63326492D01*
X120827480Y-63344377D01*
X120834336Y-63358090D01*
X120838654Y-63372793D01*
X120844007Y-63377431D01*
X120880742Y-63450900D01*
X120883425Y-63463232D01*
X120898052Y-63477859D01*
X120912114Y-63492977D01*
X120913532Y-63493339D01*
X120919207Y-63499014D01*
X120914569Y-63500023D01*
X120903730Y-63510861D01*
X120891144Y-63519609D01*
X120888435Y-63526156D01*
X120858026Y-63556565D01*
X120847177Y-63563009D01*
X120837926Y-63581509D01*
X120828031Y-63599632D01*
X120828135Y-63601092D01*
X120791515Y-63674333D01*
X120781792Y-63689463D01*
X120781792Y-63704793D01*
X120779078Y-63719876D01*
X120551050Y-63719876D01*
X120551215Y-63719215D01*
X120550839Y-63709968D01*
X120550839Y-63390494D01*
X120553941Y-63381326D01*
X120550839Y-63368918D01*
X120550839Y-63367370D01*
X120548234Y-63358500D01*
X120501258Y-63170597D01*
X120496825Y-63150215D01*
X120488045Y-63141435D01*
X120481764Y-63130729D01*
X120472793Y-63126183D01*
X120392663Y-63046053D01*
X120386220Y-63035204D01*
X120367719Y-63025953D01*
X120349597Y-63016058D01*
X120348136Y-63016162D01*
X120274895Y-62979542D01*
X120259766Y-62969819D01*
X120244436Y-62969819D01*
X120229353Y-62967105D01*
X120222809Y-62969819D01*
X120051299Y-62969819D01*
X120033424Y-62967889D01*
X120019714Y-62974743D01*
X120005008Y-62979062D01*
X120000368Y-62984416D01*
X119926899Y-63021150D01*
X119914569Y-63023833D01*
X119899949Y-63038452D01*
X119884824Y-63052522D01*
X119884461Y-63053940D01*
X119804570Y-63133831D01*
X119789372Y-63148122D01*
X119786360Y-63160166D01*
X119780412Y-63171061D01*
X119781129Y-63181091D01*
X119739405Y-63347988D01*
X119734173Y-63356130D01*
X119734173Y-63368917D01*
X119733797Y-63370422D01*
X119734173Y-63379668D01*
X119734173Y-63699142D01*
X119731071Y-63708311D01*
X119503219Y-63708311D01*
X119503220Y-63390494D01*
X119506322Y-63381326D01*
X119503220Y-63368918D01*
X119503220Y-63367370D01*
X119500615Y-63358500D01*
X119453639Y-63170597D01*
X119449206Y-63150215D01*
X119440426Y-63141435D01*
X119434145Y-63130729D01*
X119425174Y-63126183D01*
X119345044Y-63046053D01*
X119338601Y-63035204D01*
X119320100Y-63025953D01*
X119301978Y-63016058D01*
X119300517Y-63016162D01*
X119227276Y-62979542D01*
X119212147Y-62969819D01*
X119196817Y-62969819D01*
X119181734Y-62967105D01*
X119175190Y-62969819D01*
X119003680Y-62969819D01*
X118985805Y-62967889D01*
X118972095Y-62974743D01*
X118957389Y-62979062D01*
X118952749Y-62984416D01*
X118879280Y-63021150D01*
X118866950Y-63023833D01*
X118852330Y-63038452D01*
X118837205Y-63052522D01*
X118836842Y-63053940D01*
X118756951Y-63133831D01*
X118741753Y-63148122D01*
X118738741Y-63160166D01*
X118732793Y-63171061D01*
X118733510Y-63181091D01*
X118691786Y-63347988D01*
X118686554Y-63356130D01*
X118686554Y-63368917D01*
X118686178Y-63370422D01*
X118686554Y-63379668D01*
X118686554Y-63699142D01*
X118683452Y-63708311D01*
X118265125Y-63708311D01*
X118265125Y-63119819D01*
X118486621Y-63119819D01*
X118518099Y-63110576D01*
X118546941Y-63077290D01*
X118553209Y-63033695D01*
X118534913Y-62993631D01*
X118497861Y-62969819D01*
X118195485Y-62969819D01*
X118179001Y-62967449D01*
X118173811Y-62969819D01*
X117893629Y-62969819D01*
X117862151Y-62979062D01*
X117833309Y-63012348D01*
X117827041Y-63055943D01*
X117365000Y-63055943D01*
X117365000Y-62432143D01*
X122132857Y-62432143D01*
X122132857Y-64542857D01*
G37*
D11*
G36*
X105045614Y-59934641D02*
G01*
X105094094Y-59983122D01*
X105153355Y-60101643D01*
X105219136Y-60364767D01*
X105219136Y-60697288D01*
X105153355Y-60960413D01*
X105094093Y-61078934D01*
X105045614Y-61127414D01*
X104938386Y-61181028D01*
X104842742Y-61181028D01*
X104735516Y-61127415D01*
X104687036Y-61078934D01*
X104627774Y-60960411D01*
X104561993Y-60697288D01*
X104561993Y-60364769D01*
X104627774Y-60101644D01*
X104687036Y-59983120D01*
X104735516Y-59934641D01*
X104842742Y-59881028D01*
X104938387Y-59881028D01*
X105045614Y-59934641D01*
G37*
G36*
X109679286Y-61989286D02*
G01*
X103593572Y-61989286D01*
X103593572Y-60705367D01*
X104357857Y-60705367D01*
X104361993Y-60721910D01*
X104361993Y-60723979D01*
X104365472Y-60735830D01*
X104432087Y-61002288D01*
X104430848Y-61013773D01*
X104439069Y-61030216D01*
X104439895Y-61033517D01*
X104445478Y-61043033D01*
X104509800Y-61171675D01*
X104513377Y-61188118D01*
X104532862Y-61207603D01*
X104551630Y-61227780D01*
X104553521Y-61228263D01*
X104596703Y-61271446D01*
X104605295Y-61285911D01*
X104629920Y-61298223D01*
X104654125Y-61311440D01*
X104656074Y-61311300D01*
X104769595Y-61368060D01*
X104789773Y-61381028D01*
X104810209Y-61381028D01*
X104830324Y-61384648D01*
X104839052Y-61381028D01*
X104956608Y-61381028D01*
X104980451Y-61383602D01*
X104998727Y-61374463D01*
X105018340Y-61368705D01*
X105024527Y-61361563D01*
X105138355Y-61304650D01*
X105154800Y-61301073D01*
X105174281Y-61281590D01*
X105194460Y-61262822D01*
X105194944Y-61260927D01*
X105238123Y-61217748D01*
X105252590Y-61209156D01*
X105256085Y-61202165D01*
X105786608Y-61202165D01*
X105791329Y-61223869D01*
X105792914Y-61246022D01*
X105797474Y-61252114D01*
X105799092Y-61259549D01*
X105814795Y-61275252D01*
X105828107Y-61293034D01*
X105835237Y-61295693D01*
X105873235Y-61333690D01*
X105874317Y-61337375D01*
X105888382Y-61349562D01*
X105899536Y-61364462D01*
X105910143Y-61368418D01*
X105918699Y-61375832D01*
X105929906Y-61377443D01*
X105939841Y-61382868D01*
X105947428Y-61382325D01*
X105954559Y-61384985D01*
X105965621Y-61382578D01*
X105976826Y-61384189D01*
X105987124Y-61379485D01*
X105998417Y-61378678D01*
X106004507Y-61374118D01*
X106011942Y-61372501D01*
X106019945Y-61364497D01*
X106030245Y-61359794D01*
X106036366Y-61350268D01*
X106045428Y-61343485D01*
X106048086Y-61336356D01*
X106088583Y-61295860D01*
X106501689Y-61295860D01*
X106526084Y-61349279D01*
X106575487Y-61381028D01*
X107026268Y-61381028D01*
X107048254Y-61384189D01*
X107055176Y-61381028D01*
X107476372Y-61381028D01*
X107518340Y-61368705D01*
X107556797Y-61324323D01*
X107565154Y-61266196D01*
X107540759Y-61212777D01*
X107491356Y-61181028D01*
X107133422Y-61181028D01*
X107133422Y-60093878D01*
X107239558Y-60200014D01*
X107248151Y-60214482D01*
X107272798Y-60226806D01*
X107296982Y-60240011D01*
X107298930Y-60239871D01*
X107430132Y-60305473D01*
X107473180Y-60313220D01*
X107527426Y-60290722D01*
X107560896Y-60242469D01*
X107562966Y-60183780D01*
X107532977Y-60133289D01*
X107378371Y-60055985D01*
X107253992Y-59931606D01*
X107156118Y-59784795D01*
X107786410Y-59784795D01*
X108289975Y-61295489D01*
X108289568Y-61306758D01*
X108299082Y-61322809D01*
X108300243Y-61326292D01*
X108306381Y-61335124D01*
X108319511Y-61357276D01*
X108322986Y-61359017D01*
X108325205Y-61362210D01*
X108349000Y-61372053D01*
X108372012Y-61383585D01*
X108375876Y-61383171D01*
X108379470Y-61384658D01*
X108404806Y-61380074D01*
X108430405Y-61377335D01*
X108433433Y-61374896D01*
X108437257Y-61374205D01*
X108456090Y-61356654D01*
X108476147Y-61340507D01*
X108477375Y-61336820D01*
X108480221Y-61334169D01*
X108486579Y-61309210D01*
X108989979Y-59799009D01*
X108991560Y-59755298D01*
X108961617Y-59704780D01*
X108909116Y-59678470D01*
X108850723Y-59684721D01*
X108804981Y-59721549D01*
X108390564Y-60964800D01*
X107980885Y-59735764D01*
X107955923Y-59699847D01*
X107901658Y-59677398D01*
X107843871Y-59687851D01*
X107800907Y-59727887D01*
X107786410Y-59784795D01*
X107156118Y-59784795D01*
X107125079Y-59738236D01*
X107121099Y-59724681D01*
X107109125Y-59714306D01*
X107108651Y-59713594D01*
X107098277Y-59704905D01*
X107076717Y-59686224D01*
X107075815Y-59686094D01*
X107075118Y-59685510D01*
X107046832Y-59681927D01*
X107018590Y-59677867D01*
X107017761Y-59678245D01*
X107016858Y-59678131D01*
X106991125Y-59690409D01*
X106965171Y-59702262D01*
X106964678Y-59703028D01*
X106963858Y-59703420D01*
X106948841Y-59727672D01*
X106933422Y-59751665D01*
X106933422Y-59752573D01*
X106932942Y-59753349D01*
X106933421Y-59781904D01*
X106933422Y-61181028D01*
X106590471Y-61181028D01*
X106548503Y-61193351D01*
X106510046Y-61237733D01*
X106501689Y-61295860D01*
X106088583Y-61295860D01*
X106099074Y-61285369D01*
X106116855Y-61272059D01*
X106124617Y-61251248D01*
X106135262Y-61231754D01*
X106134719Y-61224166D01*
X106137379Y-61217036D01*
X106132656Y-61195326D01*
X106131072Y-61173178D01*
X106126513Y-61167088D01*
X106124896Y-61159653D01*
X106109188Y-61143945D01*
X106095880Y-61126167D01*
X106088752Y-61123508D01*
X106050752Y-61085508D01*
X106049671Y-61081824D01*
X106035605Y-61069636D01*
X106024452Y-61054737D01*
X106013844Y-61050780D01*
X106005289Y-61043367D01*
X105994083Y-61041755D01*
X105984148Y-61036331D01*
X105976559Y-61036873D01*
X105969429Y-61034214D01*
X105958365Y-61036620D01*
X105947162Y-61035010D01*
X105936864Y-61039712D01*
X105925572Y-61040520D01*
X105919481Y-61045079D01*
X105912046Y-61046697D01*
X105904040Y-61054702D01*
X105893743Y-61059405D01*
X105887622Y-61068928D01*
X105878561Y-61075712D01*
X105875901Y-61082841D01*
X105824911Y-61133832D01*
X105807131Y-61147143D01*
X105799368Y-61167953D01*
X105788725Y-61187446D01*
X105789267Y-61195034D01*
X105786608Y-61202165D01*
X105256085Y-61202165D01*
X105264916Y-61184503D01*
X105278119Y-61160324D01*
X105277979Y-61158376D01*
X105329184Y-61055967D01*
X105337601Y-61048054D01*
X105342060Y-61030216D01*
X105343581Y-61027175D01*
X105345534Y-61016319D01*
X105412159Y-60749819D01*
X105419136Y-60738963D01*
X105419136Y-60721912D01*
X105419638Y-60719904D01*
X105419136Y-60707557D01*
X105419136Y-60368915D01*
X105423272Y-60356690D01*
X105419136Y-60340145D01*
X105419136Y-60338078D01*
X105415656Y-60326229D01*
X105349042Y-60059767D01*
X105350282Y-60048283D01*
X105342060Y-60031839D01*
X105341235Y-60028539D01*
X105335651Y-60019022D01*
X105271328Y-59890376D01*
X105267752Y-59873937D01*
X105248280Y-59854465D01*
X105229500Y-59834276D01*
X105227606Y-59833791D01*
X105184427Y-59790612D01*
X105175835Y-59776146D01*
X105151200Y-59763828D01*
X105127005Y-59750617D01*
X105125055Y-59750756D01*
X105011534Y-59693995D01*
X104991356Y-59681028D01*
X104970920Y-59681028D01*
X104950805Y-59677408D01*
X104942077Y-59681028D01*
X104824520Y-59681028D01*
X104800677Y-59678454D01*
X104782399Y-59687592D01*
X104762789Y-59693351D01*
X104756601Y-59700491D01*
X104642770Y-59757407D01*
X104626331Y-59760984D01*
X104606859Y-59780455D01*
X104586670Y-59799236D01*
X104586185Y-59801129D01*
X104543006Y-59844308D01*
X104528540Y-59852901D01*
X104516221Y-59877538D01*
X104503011Y-59901731D01*
X104503150Y-59903679D01*
X104451945Y-60006088D01*
X104443529Y-60014002D01*
X104439069Y-60031840D01*
X104437549Y-60034881D01*
X104435595Y-60045734D01*
X104368969Y-60312237D01*
X104361993Y-60323094D01*
X104361993Y-60340145D01*
X104361491Y-60342153D01*
X104361993Y-60354499D01*
X104361993Y-60693141D01*
X104357857Y-60705367D01*
X103593572Y-60705367D01*
X103593572Y-58960714D01*
X109679286Y-58960714D01*
X109679286Y-61989286D01*
G37*
D10*
G36*
X108088220Y-84718628D02*
G01*
X107931980Y-84718628D01*
X107917067Y-84715878D01*
X107910355Y-84718628D01*
X107799974Y-84718628D01*
X107731456Y-84684369D01*
X107701049Y-84653962D01*
X107666792Y-84585447D01*
X107666792Y-84478000D01*
X107701050Y-84409483D01*
X107731456Y-84379077D01*
X107799972Y-84344819D01*
X108088220Y-84344819D01*
X108088220Y-84718628D01*
G37*
G36*
X108867857Y-85767857D02*
G01*
X103433333Y-85767857D01*
X103433333Y-84280943D01*
X103895374Y-84280943D01*
X103913670Y-84321007D01*
X103950722Y-84344819D01*
X104183458Y-84344819D01*
X104183458Y-85280601D01*
X104192701Y-85312079D01*
X104225987Y-85340921D01*
X104269582Y-85347189D01*
X104309646Y-85328893D01*
X104333458Y-85291841D01*
X104333458Y-85280943D01*
X104752517Y-85280943D01*
X104770813Y-85321007D01*
X104807865Y-85344819D01*
X105300717Y-85344819D01*
X105317201Y-85347189D01*
X105332353Y-85340269D01*
X105348337Y-85335576D01*
X105352073Y-85331263D01*
X105357265Y-85328893D01*
X105366272Y-85314876D01*
X105377179Y-85302290D01*
X105377990Y-85296643D01*
X105381077Y-85291841D01*
X105381077Y-85275178D01*
X105383447Y-85258695D01*
X105381077Y-85253505D01*
X105381077Y-84751368D01*
X105383447Y-84734885D01*
X105381077Y-84729695D01*
X105381077Y-84309118D01*
X105656927Y-84309118D01*
X105664767Y-84352458D01*
X105694794Y-84384680D01*
X105737474Y-84395553D01*
X105889677Y-84344819D01*
X106097895Y-84344819D01*
X106166413Y-84379078D01*
X106196818Y-84409483D01*
X106231077Y-84477999D01*
X106231077Y-84537827D01*
X106196818Y-84606344D01*
X106166411Y-84636751D01*
X106089425Y-84675244D01*
X105919892Y-84717627D01*
X105911281Y-84716698D01*
X105898950Y-84722863D01*
X105896475Y-84723482D01*
X105889336Y-84727669D01*
X105804756Y-84769959D01*
X105792426Y-84772642D01*
X105777806Y-84787261D01*
X105762681Y-84801331D01*
X105762318Y-84802749D01*
X105735883Y-84829184D01*
X105725034Y-84835628D01*
X105715783Y-84854128D01*
X105705888Y-84872251D01*
X105705992Y-84873711D01*
X105669372Y-84946952D01*
X105659649Y-84962082D01*
X105659649Y-84977412D01*
X105656935Y-84992495D01*
X105659649Y-84999038D01*
X105659649Y-85075301D01*
X105657718Y-85093186D01*
X105664574Y-85106899D01*
X105668892Y-85121602D01*
X105674245Y-85126240D01*
X105710980Y-85199709D01*
X105713663Y-85212040D01*
X105728282Y-85226660D01*
X105742352Y-85241786D01*
X105743770Y-85242148D01*
X105770204Y-85268583D01*
X105776649Y-85279434D01*
X105795160Y-85288689D01*
X105813271Y-85298579D01*
X105814730Y-85298474D01*
X105887976Y-85335097D01*
X105903103Y-85344819D01*
X105918433Y-85344819D01*
X105933516Y-85347533D01*
X105940060Y-85344819D01*
X106153818Y-85344819D01*
X106166045Y-85347934D01*
X106185657Y-85341396D01*
X106205480Y-85335576D01*
X106206438Y-85334469D01*
X106340022Y-85289942D01*
X106352970Y-85280943D01*
X106609660Y-85280943D01*
X106627956Y-85321007D01*
X106665008Y-85344819D01*
X107157860Y-85344819D01*
X107174344Y-85347189D01*
X107189496Y-85340269D01*
X107205480Y-85335576D01*
X107209216Y-85331263D01*
X107214408Y-85328893D01*
X107223415Y-85314876D01*
X107234322Y-85302290D01*
X107235133Y-85296643D01*
X107238220Y-85291841D01*
X107238219Y-85275178D01*
X107239434Y-85266731D01*
X107513687Y-85266731D01*
X107524416Y-85309447D01*
X107556536Y-85339582D01*
X107599850Y-85347569D01*
X107640606Y-85330870D01*
X107964174Y-84868628D01*
X108088220Y-84868628D01*
X108088220Y-85280601D01*
X108097463Y-85312079D01*
X108130749Y-85340921D01*
X108174344Y-85347189D01*
X108214408Y-85328893D01*
X108238220Y-85291841D01*
X108238219Y-84798987D01*
X108240590Y-84782504D01*
X108238220Y-84777314D01*
X108238219Y-84275178D01*
X108240590Y-84258695D01*
X108233670Y-84243542D01*
X108228977Y-84227559D01*
X108224664Y-84223822D01*
X108222294Y-84218631D01*
X108208277Y-84209623D01*
X108195691Y-84198717D01*
X108190044Y-84197905D01*
X108185242Y-84194819D01*
X108168580Y-84194819D01*
X108152096Y-84192449D01*
X108146906Y-84194819D01*
X107786299Y-84194819D01*
X107768424Y-84192889D01*
X107754714Y-84199743D01*
X107740008Y-84204062D01*
X107735368Y-84209416D01*
X107661899Y-84246150D01*
X107649569Y-84248833D01*
X107634949Y-84263452D01*
X107619824Y-84277522D01*
X107619461Y-84278940D01*
X107593026Y-84305375D01*
X107582177Y-84311819D01*
X107572926Y-84330319D01*
X107563031Y-84348442D01*
X107563135Y-84349902D01*
X107526515Y-84423143D01*
X107516792Y-84438273D01*
X107516792Y-84453603D01*
X107514078Y-84468686D01*
X107516791Y-84475229D01*
X107516792Y-84599111D01*
X107514861Y-84616996D01*
X107521717Y-84630709D01*
X107526035Y-84645412D01*
X107531388Y-84650050D01*
X107568123Y-84723519D01*
X107570806Y-84735851D01*
X107585433Y-84750478D01*
X107599495Y-84765596D01*
X107600913Y-84765958D01*
X107627348Y-84792393D01*
X107633792Y-84803243D01*
X107652301Y-84812497D01*
X107670415Y-84822388D01*
X107671873Y-84822283D01*
X107745119Y-84858906D01*
X107760246Y-84868628D01*
X107775576Y-84868628D01*
X107780460Y-84869506D01*
X107524167Y-85235642D01*
X107513687Y-85266731D01*
X107239434Y-85266731D01*
X107240590Y-85258695D01*
X107238220Y-85253505D01*
X107238219Y-84751368D01*
X107240590Y-84734885D01*
X107238220Y-84729695D01*
X107238219Y-84275178D01*
X107240590Y-84258695D01*
X107233670Y-84243542D01*
X107228977Y-84227559D01*
X107224664Y-84223822D01*
X107222294Y-84218631D01*
X107208277Y-84209623D01*
X107195691Y-84198717D01*
X107190044Y-84197905D01*
X107185242Y-84194819D01*
X107168580Y-84194819D01*
X107152096Y-84192449D01*
X107146906Y-84194819D01*
X106676248Y-84194819D01*
X106644770Y-84204062D01*
X106615928Y-84237348D01*
X106609660Y-84280943D01*
X106627956Y-84321007D01*
X106665008Y-84344819D01*
X107088220Y-84344819D01*
X107088220Y-84671009D01*
X106819105Y-84671009D01*
X106787627Y-84680252D01*
X106758785Y-84713538D01*
X106752517Y-84757133D01*
X106770813Y-84797197D01*
X106807865Y-84821009D01*
X107088220Y-84821009D01*
X107088220Y-85194819D01*
X106676248Y-85194819D01*
X106644770Y-85204062D01*
X106615928Y-85237348D01*
X106609660Y-85280943D01*
X106352970Y-85280943D01*
X106366962Y-85271219D01*
X106383798Y-85230520D01*
X106375958Y-85187180D01*
X106345932Y-85154958D01*
X106303251Y-85144085D01*
X106151048Y-85194819D01*
X105942831Y-85194819D01*
X105874313Y-85160560D01*
X105843905Y-85130151D01*
X105809649Y-85061637D01*
X105809649Y-85001810D01*
X105843908Y-84933292D01*
X105874313Y-84902886D01*
X105951299Y-84864392D01*
X106120831Y-84822009D01*
X106129445Y-84822940D01*
X106141778Y-84816773D01*
X106144251Y-84816155D01*
X106151378Y-84811972D01*
X106235968Y-84769677D01*
X106248300Y-84766995D01*
X106262927Y-84752367D01*
X106278045Y-84738306D01*
X106278407Y-84736887D01*
X106304842Y-84710452D01*
X106315692Y-84704009D01*
X106324946Y-84685499D01*
X106334837Y-84667386D01*
X106334732Y-84665927D01*
X106371355Y-84592681D01*
X106381077Y-84577555D01*
X106381077Y-84562225D01*
X106383791Y-84547142D01*
X106381077Y-84540598D01*
X106381077Y-84464325D01*
X106383007Y-84446451D01*
X106376152Y-84432741D01*
X106371834Y-84418035D01*
X106366479Y-84413395D01*
X106329745Y-84339926D01*
X106327063Y-84327596D01*
X106312443Y-84312976D01*
X106298374Y-84297851D01*
X106296955Y-84297488D01*
X106270520Y-84271053D01*
X106264077Y-84260204D01*
X106245576Y-84250953D01*
X106227454Y-84241058D01*
X106225993Y-84241162D01*
X106152752Y-84204542D01*
X106137623Y-84194819D01*
X106122293Y-84194819D01*
X106107210Y-84192105D01*
X106100666Y-84194819D01*
X105886908Y-84194819D01*
X105874680Y-84191704D01*
X105855060Y-84198243D01*
X105835246Y-84204062D01*
X105834287Y-84205168D01*
X105700703Y-84249696D01*
X105673763Y-84268419D01*
X105656927Y-84309118D01*
X105381077Y-84309118D01*
X105381077Y-84275178D01*
X105383447Y-84258695D01*
X105376527Y-84243542D01*
X105371834Y-84227559D01*
X105367521Y-84223822D01*
X105365151Y-84218631D01*
X105351134Y-84209623D01*
X105338548Y-84198717D01*
X105332901Y-84197905D01*
X105328099Y-84194819D01*
X105311437Y-84194819D01*
X105294953Y-84192449D01*
X105289763Y-84194819D01*
X104819105Y-84194819D01*
X104787627Y-84204062D01*
X104758785Y-84237348D01*
X104752517Y-84280943D01*
X104770813Y-84321007D01*
X104807865Y-84344819D01*
X105231077Y-84344819D01*
X105231077Y-84671009D01*
X104961962Y-84671009D01*
X104930484Y-84680252D01*
X104901642Y-84713538D01*
X104895374Y-84757133D01*
X104913670Y-84797197D01*
X104950722Y-84821009D01*
X105231077Y-84821009D01*
X105231077Y-85194819D01*
X104819105Y-85194819D01*
X104787627Y-85204062D01*
X104758785Y-85237348D01*
X104752517Y-85280943D01*
X104333458Y-85280943D01*
X104333458Y-84344819D01*
X104554954Y-84344819D01*
X104586432Y-84335576D01*
X104615274Y-84302290D01*
X104621542Y-84258695D01*
X104603246Y-84218631D01*
X104566194Y-84194819D01*
X104263818Y-84194819D01*
X104247334Y-84192449D01*
X104242144Y-84194819D01*
X103961962Y-84194819D01*
X103930484Y-84204062D01*
X103901642Y-84237348D01*
X103895374Y-84280943D01*
X103433333Y-84280943D01*
X103433333Y-83657143D01*
X108867857Y-83657143D01*
X108867857Y-85767857D01*
G37*
G36*
X114538934Y-63869819D02*
G01*
X114388009Y-63869819D01*
X114273494Y-63831647D01*
X114199382Y-63757533D01*
X114160889Y-63680547D01*
X114117506Y-63507013D01*
X114117506Y-63382624D01*
X114160889Y-63209091D01*
X114199383Y-63132102D01*
X114273495Y-63057990D01*
X114388010Y-63019819D01*
X114538934Y-63019819D01*
X114538934Y-63869819D01*
G37*
G36*
X117032857Y-64442857D02*
G01*
X113407857Y-64442857D01*
X113407857Y-63513073D01*
X113964404Y-63513073D01*
X113967506Y-63525481D01*
X113967506Y-63527029D01*
X113970110Y-63535898D01*
X114014124Y-63711953D01*
X114013194Y-63720567D01*
X114019360Y-63732900D01*
X114019979Y-63735373D01*
X114024161Y-63742500D01*
X114066456Y-63827090D01*
X114069139Y-63839422D01*
X114083768Y-63854051D01*
X114097828Y-63869167D01*
X114099246Y-63869529D01*
X114177094Y-63947378D01*
X114188373Y-63961387D01*
X114202914Y-63966234D01*
X114216367Y-63973580D01*
X114223435Y-63973074D01*
X114343202Y-64012997D01*
X114353817Y-64019819D01*
X114374496Y-64019819D01*
X114395136Y-64020565D01*
X114396395Y-64019819D01*
X114608574Y-64019819D01*
X114625058Y-64022189D01*
X114640210Y-64015269D01*
X114656194Y-64010576D01*
X114659930Y-64006263D01*
X114665122Y-64003893D01*
X114674129Y-63989876D01*
X114685036Y-63977290D01*
X114685847Y-63971643D01*
X114688934Y-63966841D01*
X114688934Y-63950178D01*
X114689893Y-63943506D01*
X114916732Y-63943506D01*
X114928429Y-63985968D01*
X114961226Y-64015365D01*
X115004710Y-64022366D01*
X115045075Y-64004745D01*
X115328220Y-63580027D01*
X115605130Y-63995393D01*
X115630281Y-64016457D01*
X115673976Y-64021991D01*
X115713726Y-64003024D01*
X115736912Y-63965578D01*
X115736172Y-63921540D01*
X115418358Y-63444819D01*
X115729938Y-62977450D01*
X115736647Y-62955943D01*
X115822279Y-62955943D01*
X115840575Y-62996007D01*
X115877627Y-63019819D01*
X116110363Y-63019819D01*
X116110363Y-63955601D01*
X116119606Y-63987079D01*
X116152892Y-64015921D01*
X116196487Y-64022189D01*
X116236551Y-64003893D01*
X116260363Y-63966841D01*
X116260363Y-63019819D01*
X116481859Y-63019819D01*
X116513337Y-63010576D01*
X116542179Y-62977290D01*
X116548447Y-62933695D01*
X116530151Y-62893631D01*
X116493099Y-62869819D01*
X116190723Y-62869819D01*
X116174239Y-62867449D01*
X116169049Y-62869819D01*
X115888867Y-62869819D01*
X115857389Y-62879062D01*
X115828547Y-62912348D01*
X115822279Y-62955943D01*
X115736647Y-62955943D01*
X115739708Y-62946132D01*
X115728011Y-62903670D01*
X115695214Y-62874273D01*
X115651730Y-62867273D01*
X115611365Y-62884893D01*
X115328219Y-63309610D01*
X115051310Y-62894245D01*
X115026159Y-62873181D01*
X114982464Y-62867647D01*
X114942714Y-62886614D01*
X114919528Y-62924060D01*
X114920268Y-62968098D01*
X115238081Y-63444818D01*
X114926502Y-63912188D01*
X114916732Y-63943506D01*
X114689893Y-63943506D01*
X114691304Y-63933695D01*
X114688934Y-63928505D01*
X114688934Y-62950178D01*
X114691304Y-62933695D01*
X114684384Y-62918542D01*
X114679691Y-62902559D01*
X114675378Y-62898822D01*
X114673008Y-62893631D01*
X114658991Y-62884623D01*
X114646405Y-62873717D01*
X114640758Y-62872905D01*
X114635956Y-62869819D01*
X114619294Y-62869819D01*
X114602810Y-62867449D01*
X114597620Y-62869819D01*
X114385241Y-62869819D01*
X114373013Y-62866704D01*
X114353393Y-62873243D01*
X114333579Y-62879062D01*
X114332620Y-62880168D01*
X114213091Y-62920010D01*
X114195521Y-62923833D01*
X114184682Y-62934671D01*
X114172096Y-62943419D01*
X114169387Y-62949966D01*
X114091359Y-63027994D01*
X114080510Y-63034438D01*
X114071259Y-63052938D01*
X114061364Y-63071061D01*
X114061468Y-63072521D01*
X114029016Y-63137425D01*
X114022705Y-63143360D01*
X114019360Y-63156737D01*
X114018221Y-63159017D01*
X114016757Y-63167149D01*
X113972738Y-63343226D01*
X113967506Y-63351368D01*
X113967506Y-63364155D01*
X113967130Y-63365660D01*
X113967505Y-63374906D01*
X113967506Y-63503904D01*
X113964404Y-63513073D01*
X113407857Y-63513073D01*
X113407857Y-62332143D01*
X117032857Y-62332143D01*
X117032857Y-64442857D01*
G37*
G36*
X120467857Y-86967857D02*
G01*
X117842857Y-86967857D01*
X117842857Y-86468506D01*
X118351732Y-86468506D01*
X118363429Y-86510968D01*
X118396226Y-86540365D01*
X118439710Y-86547366D01*
X118480075Y-86529745D01*
X118763220Y-86105027D01*
X119040130Y-86520393D01*
X119065281Y-86541457D01*
X119108976Y-86546991D01*
X119148726Y-86528024D01*
X119171912Y-86490578D01*
X119171172Y-86446540D01*
X118853358Y-85969819D01*
X119164938Y-85502450D01*
X119171647Y-85480943D01*
X119257279Y-85480943D01*
X119275575Y-85521007D01*
X119312627Y-85544819D01*
X119545363Y-85544819D01*
X119545363Y-86480601D01*
X119554606Y-86512079D01*
X119587892Y-86540921D01*
X119631487Y-86547189D01*
X119671551Y-86528893D01*
X119695363Y-86491841D01*
X119695363Y-85544819D01*
X119916859Y-85544819D01*
X119948337Y-85535576D01*
X119977179Y-85502290D01*
X119983447Y-85458695D01*
X119965151Y-85418631D01*
X119928099Y-85394819D01*
X119625723Y-85394819D01*
X119609239Y-85392449D01*
X119604049Y-85394819D01*
X119323867Y-85394819D01*
X119292389Y-85404062D01*
X119263547Y-85437348D01*
X119257279Y-85480943D01*
X119171647Y-85480943D01*
X119174708Y-85471132D01*
X119163011Y-85428670D01*
X119130214Y-85399273D01*
X119086730Y-85392273D01*
X119046365Y-85409893D01*
X118763219Y-85834610D01*
X118486310Y-85419245D01*
X118461159Y-85398181D01*
X118417464Y-85392647D01*
X118377714Y-85411614D01*
X118354528Y-85449060D01*
X118355268Y-85493098D01*
X118673081Y-85969818D01*
X118361502Y-86437188D01*
X118351732Y-86468506D01*
X117842857Y-86468506D01*
X117842857Y-84857143D01*
X120467857Y-84857143D01*
X120467857Y-86967857D01*
G37*
G36*
X122332857Y-60942857D02*
G01*
X117422143Y-60942857D01*
X117422143Y-60024638D01*
X117979078Y-60024638D01*
X117981792Y-60031181D01*
X117981792Y-60250301D01*
X117979861Y-60268186D01*
X117986717Y-60281899D01*
X117991035Y-60296602D01*
X117996388Y-60301240D01*
X118033123Y-60374709D01*
X118035806Y-60387040D01*
X118050425Y-60401660D01*
X118064495Y-60416786D01*
X118065913Y-60417148D01*
X118092347Y-60443583D01*
X118098792Y-60454434D01*
X118117303Y-60463689D01*
X118135414Y-60473579D01*
X118136873Y-60473474D01*
X118210119Y-60510097D01*
X118225246Y-60519819D01*
X118240576Y-60519819D01*
X118255659Y-60522533D01*
X118262203Y-60519819D01*
X118528942Y-60519819D01*
X118546826Y-60521750D01*
X118560539Y-60514893D01*
X118575242Y-60510576D01*
X118579880Y-60505222D01*
X118653348Y-60468487D01*
X118665682Y-60465805D01*
X118680313Y-60451172D01*
X118695426Y-60437116D01*
X118695788Y-60435696D01*
X118736496Y-60394988D01*
X118752219Y-60366194D01*
X118749076Y-60322263D01*
X118722681Y-60287005D01*
X118681414Y-60271613D01*
X118638377Y-60280976D01*
X118583791Y-60335561D01*
X118515277Y-60369819D01*
X118264974Y-60369819D01*
X118196456Y-60335560D01*
X118166048Y-60305151D01*
X118131792Y-60236637D01*
X118131792Y-60033953D01*
X118166050Y-59965435D01*
X118196456Y-59935029D01*
X118264972Y-59900771D01*
X118368301Y-59900771D01*
X118368466Y-59900876D01*
X118390177Y-59900771D01*
X118400907Y-59900771D01*
X118401086Y-59900718D01*
X118412509Y-59900663D01*
X118421778Y-59894642D01*
X118432385Y-59891528D01*
X118439865Y-59882894D01*
X118449445Y-59876673D01*
X118453988Y-59866596D01*
X118461227Y-59858242D01*
X118462852Y-59846935D01*
X118467548Y-59836521D01*
X118465922Y-59825586D01*
X118467495Y-59814647D01*
X118462750Y-59804257D01*
X118461070Y-59792956D01*
X118453789Y-59784635D01*
X118449199Y-59774583D01*
X118439590Y-59768407D01*
X118222075Y-59519819D01*
X118686621Y-59519819D01*
X118718099Y-59510576D01*
X118746941Y-59477290D01*
X118751203Y-59447644D01*
X118835820Y-59447644D01*
X119171827Y-60455668D01*
X119171522Y-60464116D01*
X119178654Y-60476149D01*
X119179526Y-60478764D01*
X119184134Y-60485395D01*
X119193979Y-60502004D01*
X119196585Y-60503310D01*
X119198249Y-60505704D01*
X119216091Y-60513084D01*
X119233355Y-60521736D01*
X119236254Y-60521425D01*
X119238948Y-60522540D01*
X119257935Y-60519105D01*
X119277148Y-60517049D01*
X119279421Y-60515218D01*
X119282288Y-60514700D01*
X119296406Y-60501543D01*
X119311455Y-60489428D01*
X119312377Y-60486661D01*
X119314510Y-60484674D01*
X119319276Y-60465963D01*
X119466385Y-60024638D01*
X119788602Y-60024638D01*
X119791316Y-60031181D01*
X119791316Y-60250301D01*
X119789385Y-60268186D01*
X119796241Y-60281899D01*
X119800559Y-60296602D01*
X119805912Y-60301240D01*
X119842647Y-60374709D01*
X119845330Y-60387040D01*
X119859949Y-60401660D01*
X119874019Y-60416786D01*
X119875437Y-60417148D01*
X119901871Y-60443583D01*
X119908316Y-60454434D01*
X119926827Y-60463689D01*
X119944938Y-60473579D01*
X119946397Y-60473474D01*
X120019643Y-60510097D01*
X120034770Y-60519819D01*
X120050100Y-60519819D01*
X120065183Y-60522533D01*
X120071727Y-60519819D01*
X120338466Y-60519819D01*
X120356350Y-60521750D01*
X120370063Y-60514893D01*
X120384766Y-60510576D01*
X120389404Y-60505222D01*
X120462872Y-60468487D01*
X120475206Y-60465805D01*
X120489837Y-60451172D01*
X120504950Y-60437116D01*
X120505312Y-60435696D01*
X120546020Y-60394988D01*
X120561743Y-60366194D01*
X120558600Y-60322263D01*
X120532205Y-60287005D01*
X120490938Y-60271613D01*
X120447901Y-60280976D01*
X120393315Y-60335561D01*
X120324801Y-60369819D01*
X120074498Y-60369819D01*
X120005980Y-60335560D01*
X119975572Y-60305151D01*
X119941316Y-60236637D01*
X119941316Y-60074990D01*
X120788946Y-60074990D01*
X120807242Y-60115054D01*
X120844294Y-60138866D01*
X121172268Y-60138866D01*
X121172268Y-60455601D01*
X121181511Y-60487079D01*
X121214797Y-60515921D01*
X121258392Y-60522189D01*
X121298456Y-60503893D01*
X121322268Y-60466841D01*
X121322268Y-60138866D01*
X121639002Y-60138866D01*
X121670480Y-60129623D01*
X121699322Y-60096337D01*
X121705590Y-60052742D01*
X121687294Y-60012678D01*
X121650242Y-59988866D01*
X121322268Y-59988866D01*
X121322268Y-59672132D01*
X121313025Y-59640654D01*
X121279739Y-59611812D01*
X121236144Y-59605544D01*
X121196080Y-59623840D01*
X121172268Y-59660892D01*
X121172268Y-59988866D01*
X120855534Y-59988866D01*
X120824056Y-59998109D01*
X120795214Y-60031395D01*
X120788946Y-60074990D01*
X119941316Y-60074990D01*
X119941316Y-60033953D01*
X119975575Y-59965434D01*
X120005980Y-59935029D01*
X120074496Y-59900771D01*
X120177825Y-59900771D01*
X120177990Y-59900876D01*
X120199701Y-59900771D01*
X120210431Y-59900771D01*
X120210610Y-59900718D01*
X120222033Y-59900663D01*
X120231302Y-59894642D01*
X120241909Y-59891528D01*
X120249389Y-59882894D01*
X120258969Y-59876673D01*
X120263512Y-59866596D01*
X120270751Y-59858242D01*
X120272376Y-59846935D01*
X120277072Y-59836521D01*
X120275446Y-59825586D01*
X120277019Y-59814647D01*
X120272274Y-59804257D01*
X120270594Y-59792956D01*
X120263313Y-59784635D01*
X120258723Y-59774583D01*
X120249114Y-59768407D01*
X120031599Y-59519819D01*
X120496145Y-59519819D01*
X120527623Y-59510576D01*
X120556465Y-59477290D01*
X120562733Y-59433695D01*
X120544437Y-59393631D01*
X120507385Y-59369819D01*
X119888140Y-59369819D01*
X119887975Y-59369714D01*
X119866264Y-59369819D01*
X119855534Y-59369819D01*
X119855354Y-59369871D01*
X119843932Y-59369927D01*
X119834662Y-59375947D01*
X119824056Y-59379062D01*
X119816575Y-59387695D01*
X119806996Y-59393917D01*
X119802452Y-59403993D01*
X119795214Y-59412348D01*
X119793588Y-59423654D01*
X119788893Y-59434069D01*
X119790518Y-59445003D01*
X119788946Y-59455943D01*
X119793690Y-59466332D01*
X119795371Y-59477634D01*
X119802651Y-59485954D01*
X119807242Y-59496007D01*
X119816850Y-59502182D01*
X120035803Y-59752413D01*
X120029238Y-59755695D01*
X120014532Y-59760014D01*
X120009892Y-59765368D01*
X119936423Y-59802102D01*
X119924093Y-59804785D01*
X119909473Y-59819404D01*
X119894348Y-59833474D01*
X119893985Y-59834892D01*
X119867550Y-59861327D01*
X119856701Y-59867771D01*
X119847450Y-59886271D01*
X119837555Y-59904394D01*
X119837659Y-59905854D01*
X119801039Y-59979095D01*
X119791316Y-59994225D01*
X119791316Y-60009555D01*
X119788602Y-60024638D01*
X119466385Y-60024638D01*
X119655162Y-59458308D01*
X119656347Y-59425522D01*
X119633890Y-59387634D01*
X119594514Y-59367902D01*
X119550720Y-59372590D01*
X119516414Y-59400210D01*
X119247268Y-60207647D01*
X118981677Y-59410873D01*
X118962954Y-59383933D01*
X118922255Y-59367097D01*
X118878915Y-59374937D01*
X118846693Y-59404964D01*
X118835820Y-59447644D01*
X118751203Y-59447644D01*
X118753209Y-59433695D01*
X118734913Y-59393631D01*
X118697861Y-59369819D01*
X118078616Y-59369819D01*
X118078451Y-59369714D01*
X118056740Y-59369819D01*
X118046010Y-59369819D01*
X118045830Y-59369871D01*
X118034408Y-59369927D01*
X118025138Y-59375947D01*
X118014532Y-59379062D01*
X118007051Y-59387695D01*
X117997472Y-59393917D01*
X117992928Y-59403993D01*
X117985690Y-59412348D01*
X117984064Y-59423654D01*
X117979369Y-59434069D01*
X117980994Y-59445003D01*
X117979422Y-59455943D01*
X117984166Y-59466332D01*
X117985847Y-59477634D01*
X117993127Y-59485954D01*
X117997718Y-59496007D01*
X118007326Y-59502182D01*
X118226279Y-59752413D01*
X118219714Y-59755695D01*
X118205008Y-59760014D01*
X118200368Y-59765368D01*
X118126899Y-59802102D01*
X118114569Y-59804785D01*
X118099949Y-59819404D01*
X118084824Y-59833474D01*
X118084461Y-59834892D01*
X118058026Y-59861327D01*
X118047177Y-59867771D01*
X118037926Y-59886271D01*
X118028031Y-59904394D01*
X118028135Y-59905854D01*
X117991515Y-59979095D01*
X117981792Y-59994225D01*
X117981792Y-60009555D01*
X117979078Y-60024638D01*
X117422143Y-60024638D01*
X117422143Y-58832143D01*
X122332857Y-58832143D01*
X122332857Y-60942857D01*
G37*
G36*
X105173934Y-69794819D02*
G01*
X105023009Y-69794819D01*
X104908494Y-69756647D01*
X104834382Y-69682533D01*
X104795889Y-69605547D01*
X104752506Y-69432012D01*
X104752506Y-69307624D01*
X104795889Y-69134091D01*
X104834383Y-69057102D01*
X104908495Y-68982990D01*
X105023010Y-68944819D01*
X105173934Y-68944819D01*
X105173934Y-69794819D01*
G37*
G36*
X107667857Y-70367857D02*
G01*
X104042857Y-70367857D01*
X104042857Y-69438073D01*
X104599404Y-69438073D01*
X104602506Y-69450481D01*
X104602506Y-69452029D01*
X104605110Y-69460898D01*
X104649124Y-69636953D01*
X104648194Y-69645567D01*
X104654360Y-69657900D01*
X104654979Y-69660373D01*
X104659161Y-69667500D01*
X104701456Y-69752090D01*
X104704139Y-69764422D01*
X104718768Y-69779051D01*
X104732828Y-69794167D01*
X104734246Y-69794529D01*
X104812094Y-69872378D01*
X104823373Y-69886387D01*
X104837914Y-69891234D01*
X104851367Y-69898580D01*
X104858435Y-69898074D01*
X104978202Y-69937997D01*
X104988817Y-69944819D01*
X105009496Y-69944819D01*
X105030136Y-69945565D01*
X105031395Y-69944819D01*
X105243574Y-69944819D01*
X105260058Y-69947189D01*
X105275210Y-69940269D01*
X105291194Y-69935576D01*
X105294930Y-69931263D01*
X105300122Y-69928893D01*
X105309129Y-69914876D01*
X105320036Y-69902290D01*
X105320847Y-69896643D01*
X105323934Y-69891841D01*
X105323934Y-69880943D01*
X105600136Y-69880943D01*
X105618432Y-69921007D01*
X105655484Y-69944819D01*
X106148336Y-69944819D01*
X106164820Y-69947189D01*
X106179972Y-69940269D01*
X106195956Y-69935576D01*
X106199692Y-69931263D01*
X106204884Y-69928893D01*
X106213891Y-69914876D01*
X106224798Y-69902290D01*
X106225609Y-69896643D01*
X106228696Y-69891841D01*
X106228696Y-69880943D01*
X106409660Y-69880943D01*
X106427956Y-69921007D01*
X106465008Y-69944819D01*
X106957860Y-69944819D01*
X106974344Y-69947189D01*
X106989496Y-69940269D01*
X107005480Y-69935576D01*
X107009216Y-69931263D01*
X107014408Y-69928893D01*
X107023415Y-69914876D01*
X107034322Y-69902290D01*
X107035133Y-69896643D01*
X107038220Y-69891841D01*
X107038219Y-69875178D01*
X107040590Y-69858695D01*
X107038220Y-69853505D01*
X107038220Y-68859037D01*
X107028977Y-68827559D01*
X106995691Y-68798717D01*
X106952096Y-68792449D01*
X106912032Y-68810745D01*
X106888220Y-68847797D01*
X106888220Y-69794819D01*
X106476248Y-69794819D01*
X106444770Y-69804062D01*
X106415928Y-69837348D01*
X106409660Y-69880943D01*
X106228696Y-69880943D01*
X106228696Y-69875178D01*
X106231066Y-69858695D01*
X106228696Y-69853505D01*
X106228696Y-69351368D01*
X106231066Y-69334885D01*
X106228696Y-69329695D01*
X106228696Y-68875178D01*
X106231066Y-68858695D01*
X106224146Y-68843542D01*
X106219453Y-68827559D01*
X106215140Y-68823822D01*
X106212770Y-68818631D01*
X106198753Y-68809623D01*
X106186167Y-68798717D01*
X106180520Y-68797905D01*
X106175718Y-68794819D01*
X106159056Y-68794819D01*
X106142572Y-68792449D01*
X106137382Y-68794819D01*
X105666724Y-68794819D01*
X105635246Y-68804062D01*
X105606404Y-68837348D01*
X105600136Y-68880943D01*
X105618432Y-68921007D01*
X105655484Y-68944819D01*
X106078696Y-68944819D01*
X106078696Y-69271009D01*
X105809581Y-69271009D01*
X105778103Y-69280252D01*
X105749261Y-69313538D01*
X105742993Y-69357133D01*
X105761289Y-69397197D01*
X105798341Y-69421009D01*
X106078696Y-69421009D01*
X106078696Y-69794819D01*
X105666724Y-69794819D01*
X105635246Y-69804062D01*
X105606404Y-69837348D01*
X105600136Y-69880943D01*
X105323934Y-69880943D01*
X105323934Y-69875178D01*
X105326304Y-69858695D01*
X105323934Y-69853505D01*
X105323934Y-68875178D01*
X105326304Y-68858695D01*
X105319384Y-68843542D01*
X105314691Y-68827559D01*
X105310378Y-68823822D01*
X105308008Y-68818631D01*
X105293991Y-68809623D01*
X105281405Y-68798717D01*
X105275758Y-68797905D01*
X105270956Y-68794819D01*
X105254294Y-68794819D01*
X105237810Y-68792449D01*
X105232620Y-68794819D01*
X105020241Y-68794819D01*
X105008013Y-68791704D01*
X104988393Y-68798243D01*
X104968579Y-68804062D01*
X104967620Y-68805168D01*
X104848091Y-68845010D01*
X104830521Y-68848833D01*
X104819682Y-68859671D01*
X104807096Y-68868419D01*
X104804387Y-68874966D01*
X104726359Y-68952994D01*
X104715510Y-68959438D01*
X104706259Y-68977938D01*
X104696364Y-68996061D01*
X104696468Y-68997521D01*
X104664016Y-69062425D01*
X104657705Y-69068360D01*
X104654360Y-69081737D01*
X104653221Y-69084017D01*
X104651757Y-69092149D01*
X104607738Y-69268226D01*
X104602506Y-69276368D01*
X104602506Y-69289155D01*
X104602130Y-69290660D01*
X104602505Y-69299906D01*
X104602506Y-69428904D01*
X104599404Y-69438073D01*
X104042857Y-69438073D01*
X104042857Y-68257143D01*
X107667857Y-68257143D01*
X107667857Y-70367857D01*
G37*
G36*
X71888352Y-81889804D02*
G01*
X71885602Y-81904718D01*
X71888352Y-81911429D01*
X71888352Y-82021811D01*
X71854093Y-82090328D01*
X71823686Y-82120735D01*
X71755171Y-82154993D01*
X71647725Y-82154993D01*
X71579207Y-82120734D01*
X71548800Y-82090327D01*
X71514543Y-82021812D01*
X71514543Y-81733565D01*
X71888352Y-81733565D01*
X71888352Y-81889804D01*
G37*
G36*
X71888352Y-80117049D02*
G01*
X71854093Y-80185566D01*
X71823686Y-80215973D01*
X71755171Y-80250231D01*
X71647725Y-80250231D01*
X71579207Y-80215972D01*
X71548800Y-80185565D01*
X71514543Y-80117050D01*
X71514543Y-79828803D01*
X71888352Y-79828803D01*
X71888352Y-80117049D01*
G37*
G36*
X72364543Y-77307525D02*
G01*
X72330284Y-77376042D01*
X72299875Y-77406450D01*
X72231361Y-77440707D01*
X72123915Y-77440707D01*
X72055397Y-77406448D01*
X72028904Y-77379955D01*
X71992937Y-77272053D01*
X71993447Y-77269221D01*
X71990733Y-77262677D01*
X71990733Y-77019279D01*
X72364543Y-77019279D01*
X72364543Y-77307525D01*
G37*
G36*
X71840733Y-77259906D02*
G01*
X71806474Y-77328423D01*
X71776067Y-77358830D01*
X71707552Y-77393088D01*
X71647725Y-77393088D01*
X71579207Y-77358829D01*
X71548800Y-77328422D01*
X71514543Y-77259907D01*
X71514543Y-77019279D01*
X71840733Y-77019279D01*
X71840733Y-77259906D01*
G37*
G36*
X72937581Y-82864643D02*
G01*
X70826867Y-82864643D01*
X70826867Y-81669689D01*
X71362173Y-81669689D01*
X71364543Y-81674878D01*
X71364543Y-82035476D01*
X71362612Y-82053361D01*
X71369468Y-82067074D01*
X71373786Y-82081777D01*
X71379139Y-82086415D01*
X71415874Y-82159884D01*
X71418557Y-82172216D01*
X71433184Y-82186843D01*
X71447246Y-82201961D01*
X71448664Y-82202323D01*
X71475099Y-82228758D01*
X71481543Y-82239608D01*
X71500052Y-82248862D01*
X71518166Y-82258753D01*
X71519624Y-82258648D01*
X71592870Y-82295271D01*
X71607997Y-82304993D01*
X71623327Y-82304993D01*
X71638410Y-82307707D01*
X71644954Y-82304993D01*
X71768836Y-82304993D01*
X71786720Y-82306924D01*
X71800433Y-82300067D01*
X71815136Y-82295750D01*
X71819774Y-82290396D01*
X71893243Y-82253661D01*
X71905575Y-82250979D01*
X71920202Y-82236351D01*
X71935320Y-82222290D01*
X71935682Y-82220871D01*
X71962117Y-82194436D01*
X71972967Y-82187993D01*
X71982221Y-82169483D01*
X71992112Y-82151370D01*
X71992007Y-82149911D01*
X72028630Y-82076665D01*
X72038352Y-82061539D01*
X72038352Y-82046209D01*
X72039230Y-82041324D01*
X72405367Y-82297619D01*
X72436455Y-82308098D01*
X72479171Y-82297369D01*
X72509306Y-82265249D01*
X72517293Y-82221935D01*
X72500594Y-82181179D01*
X72038352Y-81857610D01*
X72038352Y-81733565D01*
X72450325Y-81733565D01*
X72481803Y-81724322D01*
X72510645Y-81691036D01*
X72516913Y-81647441D01*
X72498617Y-81607377D01*
X72461565Y-81583565D01*
X71968712Y-81583565D01*
X71952228Y-81581195D01*
X71947038Y-81583565D01*
X71444903Y-81583565D01*
X71428419Y-81581195D01*
X71413266Y-81588114D01*
X71397283Y-81592808D01*
X71393546Y-81597120D01*
X71388355Y-81599491D01*
X71379347Y-81613507D01*
X71368441Y-81626094D01*
X71367629Y-81631740D01*
X71364543Y-81636543D01*
X71364543Y-81653205D01*
X71362173Y-81669689D01*
X70826867Y-81669689D01*
X70826867Y-80764927D01*
X71362173Y-80764927D01*
X71364543Y-80770116D01*
X71364543Y-81240775D01*
X71373786Y-81272253D01*
X71407072Y-81301095D01*
X71450667Y-81307363D01*
X71490731Y-81289067D01*
X71514543Y-81252015D01*
X71514543Y-80828803D01*
X71840733Y-80828803D01*
X71840733Y-81097918D01*
X71849976Y-81129396D01*
X71883262Y-81158238D01*
X71926857Y-81164506D01*
X71966921Y-81146210D01*
X71990733Y-81109158D01*
X71990733Y-80828803D01*
X72364543Y-80828803D01*
X72364543Y-81240775D01*
X72373786Y-81272253D01*
X72407072Y-81301095D01*
X72450667Y-81307363D01*
X72490731Y-81289067D01*
X72514543Y-81252015D01*
X72514543Y-80759162D01*
X72516913Y-80742679D01*
X72509993Y-80727526D01*
X72505300Y-80711543D01*
X72500987Y-80707806D01*
X72498617Y-80702615D01*
X72484600Y-80693607D01*
X72472014Y-80682701D01*
X72466367Y-80681889D01*
X72461565Y-80678803D01*
X72444903Y-80678803D01*
X72428419Y-80676433D01*
X72423229Y-80678803D01*
X71921093Y-80678803D01*
X71904609Y-80676433D01*
X71899419Y-80678803D01*
X71444903Y-80678803D01*
X71428419Y-80676433D01*
X71413266Y-80683352D01*
X71397283Y-80688046D01*
X71393546Y-80692358D01*
X71388355Y-80694729D01*
X71379347Y-80708745D01*
X71368441Y-80721332D01*
X71367629Y-80726978D01*
X71364543Y-80731781D01*
X71364543Y-80748443D01*
X71362173Y-80764927D01*
X70826867Y-80764927D01*
X70826867Y-79764927D01*
X71362173Y-79764927D01*
X71364543Y-79770116D01*
X71364543Y-80130714D01*
X71362612Y-80148599D01*
X71369468Y-80162312D01*
X71373786Y-80177015D01*
X71379139Y-80181653D01*
X71415874Y-80255122D01*
X71418557Y-80267454D01*
X71433184Y-80282081D01*
X71447246Y-80297199D01*
X71448664Y-80297561D01*
X71475099Y-80323996D01*
X71481543Y-80334846D01*
X71500052Y-80344100D01*
X71518166Y-80353991D01*
X71519624Y-80353886D01*
X71592870Y-80390509D01*
X71607997Y-80400231D01*
X71623327Y-80400231D01*
X71638410Y-80402945D01*
X71644954Y-80400231D01*
X71768836Y-80400231D01*
X71786720Y-80402162D01*
X71800433Y-80395305D01*
X71815136Y-80390988D01*
X71819774Y-80385634D01*
X71893243Y-80348899D01*
X71905575Y-80346217D01*
X71920202Y-80331589D01*
X71935320Y-80317528D01*
X71935682Y-80316109D01*
X71962117Y-80289674D01*
X71972967Y-80283231D01*
X71982221Y-80264721D01*
X71992112Y-80246608D01*
X71992007Y-80245149D01*
X72028630Y-80171903D01*
X72038352Y-80156777D01*
X72038352Y-80141447D01*
X72041066Y-80126364D01*
X72038352Y-80119820D01*
X72038352Y-79828803D01*
X72450325Y-79828803D01*
X72481803Y-79819560D01*
X72510645Y-79786274D01*
X72516913Y-79742679D01*
X72498617Y-79702615D01*
X72461565Y-79678803D01*
X71968712Y-79678803D01*
X71952228Y-79676433D01*
X71947038Y-79678803D01*
X71444903Y-79678803D01*
X71428419Y-79676433D01*
X71413266Y-79683352D01*
X71397283Y-79688046D01*
X71393546Y-79692358D01*
X71388355Y-79694729D01*
X71379347Y-79708745D01*
X71368441Y-79721332D01*
X71367629Y-79726978D01*
X71364543Y-79731781D01*
X71364543Y-79748443D01*
X71362173Y-79764927D01*
X70826867Y-79764927D01*
X70826867Y-78860165D01*
X71362173Y-78860165D01*
X71364543Y-78865354D01*
X71364543Y-79336013D01*
X71373786Y-79367491D01*
X71407072Y-79396333D01*
X71450667Y-79402601D01*
X71490731Y-79384305D01*
X71514543Y-79347253D01*
X71514543Y-78924041D01*
X71840733Y-78924041D01*
X71840733Y-79193156D01*
X71849976Y-79224634D01*
X71883262Y-79253476D01*
X71926857Y-79259744D01*
X71966921Y-79241448D01*
X71990733Y-79204396D01*
X71990733Y-78924041D01*
X72364543Y-78924041D01*
X72364543Y-79336013D01*
X72373786Y-79367491D01*
X72407072Y-79396333D01*
X72450667Y-79402601D01*
X72490731Y-79384305D01*
X72514543Y-79347253D01*
X72514543Y-78854400D01*
X72516913Y-78837917D01*
X72509993Y-78822764D01*
X72505300Y-78806781D01*
X72500987Y-78803044D01*
X72498617Y-78797853D01*
X72484600Y-78788845D01*
X72472014Y-78777939D01*
X72466367Y-78777127D01*
X72461565Y-78774041D01*
X72444903Y-78774041D01*
X72428419Y-78771671D01*
X72423229Y-78774041D01*
X71921093Y-78774041D01*
X71904609Y-78771671D01*
X71899419Y-78774041D01*
X71444903Y-78774041D01*
X71428419Y-78771671D01*
X71413266Y-78778590D01*
X71397283Y-78783284D01*
X71393546Y-78787596D01*
X71388355Y-78789967D01*
X71379347Y-78803983D01*
X71368441Y-78816570D01*
X71367629Y-78822216D01*
X71364543Y-78827019D01*
X71364543Y-78843681D01*
X71362173Y-78860165D01*
X70826867Y-78860165D01*
X70826867Y-77955403D01*
X71362173Y-77955403D01*
X71364543Y-77960592D01*
X71364543Y-78431251D01*
X71373786Y-78462729D01*
X71407072Y-78491571D01*
X71450667Y-78497839D01*
X71490731Y-78479543D01*
X71514543Y-78442491D01*
X71514543Y-78019279D01*
X71840733Y-78019279D01*
X71840733Y-78288394D01*
X71849976Y-78319872D01*
X71883262Y-78348714D01*
X71926857Y-78354982D01*
X71966921Y-78336686D01*
X71990733Y-78299634D01*
X71990733Y-78019279D01*
X72364543Y-78019279D01*
X72364543Y-78431251D01*
X72373786Y-78462729D01*
X72407072Y-78491571D01*
X72450667Y-78497839D01*
X72490731Y-78479543D01*
X72514543Y-78442491D01*
X72514543Y-77949638D01*
X72516913Y-77933155D01*
X72509993Y-77918002D01*
X72505300Y-77902019D01*
X72500987Y-77898282D01*
X72498617Y-77893091D01*
X72484600Y-77884083D01*
X72472014Y-77873177D01*
X72466367Y-77872365D01*
X72461565Y-77869279D01*
X72444903Y-77869279D01*
X72428419Y-77866909D01*
X72423229Y-77869279D01*
X71921093Y-77869279D01*
X71904609Y-77866909D01*
X71899419Y-77869279D01*
X71444903Y-77869279D01*
X71428419Y-77866909D01*
X71413266Y-77873828D01*
X71397283Y-77878522D01*
X71393546Y-77882834D01*
X71388355Y-77885205D01*
X71379347Y-77899221D01*
X71368441Y-77911808D01*
X71367629Y-77917454D01*
X71364543Y-77922257D01*
X71364543Y-77938919D01*
X71362173Y-77955403D01*
X70826867Y-77955403D01*
X70826867Y-76955403D01*
X71362173Y-76955403D01*
X71364543Y-76960592D01*
X71364543Y-77273571D01*
X71362612Y-77291456D01*
X71369468Y-77305169D01*
X71373786Y-77319872D01*
X71379139Y-77324510D01*
X71415874Y-77397979D01*
X71418557Y-77410311D01*
X71433184Y-77424938D01*
X71447246Y-77440056D01*
X71448664Y-77440418D01*
X71475099Y-77466853D01*
X71481543Y-77477703D01*
X71500052Y-77486957D01*
X71518166Y-77496848D01*
X71519624Y-77496743D01*
X71592870Y-77533366D01*
X71607997Y-77543088D01*
X71623327Y-77543088D01*
X71638410Y-77545802D01*
X71644954Y-77543088D01*
X71721217Y-77543088D01*
X71739101Y-77545019D01*
X71752814Y-77538162D01*
X71767517Y-77533845D01*
X71772155Y-77528491D01*
X71845624Y-77491756D01*
X71857956Y-77489074D01*
X71872583Y-77474446D01*
X71887701Y-77460385D01*
X71888063Y-77458966D01*
X71893738Y-77453291D01*
X71894747Y-77457930D01*
X71905587Y-77468770D01*
X71914333Y-77481354D01*
X71920878Y-77484061D01*
X71951289Y-77514472D01*
X71957733Y-77525322D01*
X71976242Y-77534576D01*
X71994356Y-77544467D01*
X71995814Y-77544362D01*
X72069060Y-77580985D01*
X72084187Y-77590707D01*
X72099517Y-77590707D01*
X72114600Y-77593421D01*
X72121144Y-77590707D01*
X72245026Y-77590707D01*
X72262910Y-77592638D01*
X72276623Y-77585781D01*
X72291326Y-77581464D01*
X72295964Y-77576110D01*
X72369433Y-77539375D01*
X72381764Y-77536693D01*
X72396384Y-77522073D01*
X72411510Y-77508004D01*
X72411872Y-77506585D01*
X72438307Y-77480151D01*
X72449158Y-77473707D01*
X72458413Y-77455195D01*
X72468303Y-77437085D01*
X72468198Y-77435625D01*
X72504821Y-77362379D01*
X72514543Y-77347253D01*
X72514543Y-77331923D01*
X72517257Y-77316840D01*
X72514543Y-77310296D01*
X72514543Y-76949638D01*
X72516913Y-76933155D01*
X72509993Y-76918002D01*
X72505300Y-76902019D01*
X72500987Y-76898282D01*
X72498617Y-76893091D01*
X72484600Y-76884083D01*
X72472014Y-76873177D01*
X72466367Y-76872365D01*
X72461565Y-76869279D01*
X72444903Y-76869279D01*
X72428419Y-76866909D01*
X72423229Y-76869279D01*
X71921093Y-76869279D01*
X71904609Y-76866909D01*
X71899419Y-76869279D01*
X71444903Y-76869279D01*
X71428419Y-76866909D01*
X71413266Y-76873828D01*
X71397283Y-76878522D01*
X71393546Y-76882834D01*
X71388355Y-76885205D01*
X71379347Y-76899221D01*
X71368441Y-76911808D01*
X71367629Y-76917454D01*
X71364543Y-76922257D01*
X71364543Y-76938919D01*
X71362173Y-76955403D01*
X70826867Y-76955403D01*
X70826867Y-76239643D01*
X72937581Y-76239643D01*
X72937581Y-82864643D01*
G37*
G36*
X114605601Y-67969819D02*
G01*
X114454676Y-67969819D01*
X114340161Y-67931647D01*
X114266049Y-67857533D01*
X114227556Y-67780547D01*
X114184173Y-67607013D01*
X114184173Y-67482624D01*
X114227556Y-67309091D01*
X114266050Y-67232102D01*
X114340162Y-67157990D01*
X114454677Y-67119819D01*
X114605601Y-67119819D01*
X114605601Y-67969819D01*
G37*
G36*
X117432857Y-68542857D02*
G01*
X113474524Y-68542857D01*
X113474524Y-67613073D01*
X114031071Y-67613073D01*
X114034173Y-67625481D01*
X114034173Y-67627029D01*
X114036777Y-67635898D01*
X114080791Y-67811953D01*
X114079861Y-67820567D01*
X114086027Y-67832900D01*
X114086646Y-67835373D01*
X114090828Y-67842500D01*
X114133123Y-67927090D01*
X114135806Y-67939422D01*
X114150435Y-67954051D01*
X114164495Y-67969167D01*
X114165913Y-67969529D01*
X114243761Y-68047378D01*
X114255040Y-68061387D01*
X114269581Y-68066234D01*
X114283034Y-68073580D01*
X114290102Y-68073074D01*
X114409869Y-68112997D01*
X114420484Y-68119819D01*
X114441163Y-68119819D01*
X114461803Y-68120565D01*
X114463062Y-68119819D01*
X114675241Y-68119819D01*
X114691725Y-68122189D01*
X114706877Y-68115269D01*
X114722861Y-68110576D01*
X114726597Y-68106263D01*
X114731789Y-68103893D01*
X114740796Y-68089876D01*
X114751703Y-68077290D01*
X114752514Y-68071643D01*
X114755601Y-68066841D01*
X114755601Y-68050178D01*
X114755787Y-68048886D01*
X115078732Y-68048886D01*
X115085380Y-68067820D01*
X115091035Y-68087079D01*
X115092625Y-68088457D01*
X115093323Y-68090443D01*
X115109153Y-68102778D01*
X115124321Y-68115921D01*
X115126404Y-68116220D01*
X115128064Y-68117514D01*
X115148054Y-68119333D01*
X115167916Y-68122189D01*
X115169829Y-68121315D01*
X115171927Y-68121506D01*
X115189731Y-68112226D01*
X115207980Y-68103893D01*
X115209117Y-68102122D01*
X115210984Y-68101150D01*
X115220940Y-68083726D01*
X115231792Y-68066841D01*
X115231792Y-68064735D01*
X115653220Y-67327236D01*
X115653220Y-68055601D01*
X115662463Y-68087079D01*
X115695749Y-68115921D01*
X115739344Y-68122189D01*
X115779408Y-68103893D01*
X115803220Y-68066841D01*
X115803220Y-67944003D01*
X116078825Y-67944003D01*
X116081792Y-67957642D01*
X116081792Y-67960362D01*
X116084074Y-67968136D01*
X116088187Y-67987040D01*
X116090223Y-67989076D01*
X116091035Y-67991840D01*
X116105651Y-68004505D01*
X116148522Y-68047377D01*
X116159802Y-68061387D01*
X116174345Y-68066234D01*
X116187795Y-68073579D01*
X116194861Y-68073073D01*
X116314631Y-68112997D01*
X116325246Y-68119819D01*
X116345925Y-68119819D01*
X116366565Y-68120565D01*
X116367824Y-68119819D01*
X116433104Y-68119819D01*
X116445331Y-68122934D01*
X116464943Y-68116396D01*
X116484766Y-68110576D01*
X116485724Y-68109469D01*
X116605250Y-68069627D01*
X116622824Y-68065805D01*
X116633664Y-68054964D01*
X116646248Y-68046219D01*
X116648955Y-68039672D01*
X116726985Y-67961642D01*
X116737835Y-67955199D01*
X116747085Y-67936698D01*
X116756981Y-67918575D01*
X116756876Y-67917115D01*
X116789328Y-67852212D01*
X116795640Y-67846278D01*
X116798984Y-67832900D01*
X116800124Y-67830621D01*
X116801587Y-67822488D01*
X116845606Y-67646410D01*
X116850839Y-67638269D01*
X116850839Y-67625481D01*
X116851215Y-67623977D01*
X116850839Y-67614730D01*
X116850839Y-67485732D01*
X116853941Y-67476564D01*
X116850839Y-67464155D01*
X116850839Y-67462608D01*
X116848234Y-67453738D01*
X116804220Y-67277681D01*
X116805150Y-67269070D01*
X116798984Y-67256739D01*
X116798366Y-67254264D01*
X116794178Y-67247125D01*
X116751888Y-67162545D01*
X116749206Y-67150215D01*
X116734586Y-67135595D01*
X116720517Y-67120470D01*
X116719098Y-67120107D01*
X116641249Y-67042258D01*
X116629972Y-67028251D01*
X116615430Y-67023403D01*
X116601978Y-67016058D01*
X116594910Y-67016563D01*
X116475143Y-66976641D01*
X116464528Y-66969819D01*
X116443848Y-66969819D01*
X116423209Y-66969073D01*
X116421950Y-66969819D01*
X116303680Y-66969819D01*
X116285805Y-66967889D01*
X116272095Y-66974743D01*
X116257389Y-66979062D01*
X116252749Y-66984416D01*
X116161226Y-67030178D01*
X116137205Y-67052522D01*
X116126294Y-67095193D01*
X116140184Y-67136989D01*
X116174466Y-67164641D01*
X116218255Y-67169369D01*
X116317353Y-67119819D01*
X116430336Y-67119819D01*
X116544849Y-67157990D01*
X116618961Y-67232102D01*
X116657455Y-67309088D01*
X116700839Y-67482624D01*
X116700839Y-67607013D01*
X116657455Y-67780545D01*
X116618961Y-67857534D01*
X116544849Y-67931647D01*
X116430334Y-67969819D01*
X116359438Y-67969819D01*
X116244924Y-67931647D01*
X116231792Y-67918514D01*
X116231792Y-67691247D01*
X116358050Y-67691247D01*
X116389528Y-67682004D01*
X116418370Y-67648718D01*
X116424638Y-67605123D01*
X116406342Y-67565059D01*
X116369290Y-67541247D01*
X116162152Y-67541247D01*
X116145668Y-67538877D01*
X116130515Y-67545796D01*
X116114532Y-67550490D01*
X116110795Y-67554802D01*
X116105604Y-67557173D01*
X116096596Y-67571189D01*
X116085690Y-67583776D01*
X116084878Y-67589422D01*
X116081792Y-67594225D01*
X116081792Y-67610887D01*
X116079422Y-67627371D01*
X116081792Y-67632560D01*
X116081792Y-67936048D01*
X116078825Y-67944003D01*
X115803220Y-67944003D01*
X115803220Y-67053615D01*
X115806280Y-67040751D01*
X115799630Y-67021814D01*
X115793977Y-67002559D01*
X115792386Y-67001180D01*
X115791689Y-66999195D01*
X115775858Y-66986859D01*
X115760691Y-66973717D01*
X115758607Y-66973417D01*
X115756948Y-66972124D01*
X115736957Y-66970304D01*
X115717096Y-66967449D01*
X115715182Y-66968322D01*
X115713085Y-66968132D01*
X115695280Y-66977411D01*
X115677032Y-66985745D01*
X115675894Y-66987515D01*
X115674028Y-66988488D01*
X115664071Y-67005911D01*
X115653220Y-67022797D01*
X115653220Y-67024902D01*
X115231792Y-67762400D01*
X115231792Y-67034037D01*
X115222549Y-67002559D01*
X115189263Y-66973717D01*
X115145668Y-66967449D01*
X115105604Y-66985745D01*
X115081792Y-67022797D01*
X115081792Y-68036022D01*
X115078732Y-68048886D01*
X114755787Y-68048886D01*
X114757971Y-68033695D01*
X114755601Y-68028505D01*
X114755601Y-67050178D01*
X114757971Y-67033695D01*
X114751051Y-67018542D01*
X114746358Y-67002559D01*
X114742045Y-66998822D01*
X114739675Y-66993631D01*
X114725658Y-66984623D01*
X114713072Y-66973717D01*
X114707425Y-66972905D01*
X114702623Y-66969819D01*
X114685961Y-66969819D01*
X114669477Y-66967449D01*
X114664287Y-66969819D01*
X114451908Y-66969819D01*
X114439680Y-66966704D01*
X114420060Y-66973243D01*
X114400246Y-66979062D01*
X114399287Y-66980168D01*
X114279758Y-67020010D01*
X114262188Y-67023833D01*
X114251349Y-67034671D01*
X114238763Y-67043419D01*
X114236054Y-67049966D01*
X114158026Y-67127994D01*
X114147177Y-67134438D01*
X114137926Y-67152938D01*
X114128031Y-67171061D01*
X114128135Y-67172521D01*
X114095683Y-67237425D01*
X114089372Y-67243360D01*
X114086027Y-67256737D01*
X114084888Y-67259017D01*
X114083424Y-67267149D01*
X114039405Y-67443226D01*
X114034173Y-67451368D01*
X114034173Y-67464155D01*
X114033797Y-67465660D01*
X114034173Y-67474906D01*
X114034173Y-67603904D01*
X114031071Y-67613073D01*
X113474524Y-67613073D01*
X113474524Y-66432143D01*
X117432857Y-66432143D01*
X117432857Y-68542857D01*
G37*
D12*
%TO.C,J2*%
X124129123Y-78589475D02*
X124129123Y-78952332D01*
X124491980Y-78807189D02*
X124129123Y-78952332D01*
X124129123Y-78952332D02*
X123766266Y-78807189D01*
X124346837Y-79242618D02*
X124129123Y-78952332D01*
X124129123Y-78952332D02*
X123911409Y-79242618D01*
D13*
X110081000Y-79307000D02*
X110081000Y-80935000D01*
X110081000Y-74875000D02*
X110081000Y-74943000D01*
X113010000Y-80935000D02*
X110081000Y-80935000D01*
X115550000Y-80935000D02*
X114772000Y-80935000D01*
X118090000Y-80935000D02*
X117312000Y-80935000D01*
X120630000Y-80935000D02*
X119852000Y-80935000D01*
X125320000Y-80935000D02*
X122392000Y-80935000D01*
X125320000Y-79307000D02*
X125320000Y-80935000D01*
X125320000Y-74875000D02*
X110081000Y-74875000D01*
X125320000Y-74875000D02*
X125320000Y-74943000D01*
D14*
%TO.C,C36*%
X52118733Y-88765000D02*
X52411267Y-88765000D01*
X52118733Y-89785000D02*
X52411267Y-89785000D01*
%TO.C,R4*%
X100110276Y-78552500D02*
X100619724Y-78552500D01*
X100110276Y-79597500D02*
X100619724Y-79597500D01*
%TO.C,C3*%
X76862000Y-64740748D02*
X76862000Y-65263252D01*
X75392000Y-64740748D02*
X75392000Y-65263252D01*
%TO.C,C13*%
X56360000Y-58787248D02*
X56360000Y-59309752D01*
X54890000Y-58787248D02*
X54890000Y-59309752D01*
%TO.C,C19*%
X89779267Y-62658000D02*
X89486733Y-62658000D01*
X89779267Y-61638000D02*
X89486733Y-61638000D01*
%TO.C,C8*%
X64865000Y-62998752D02*
X64865000Y-62476248D01*
X66335000Y-62998752D02*
X66335000Y-62476248D01*
%TO.C,BZ1*%
X65439724Y-78857500D02*
X65439724Y-82857500D01*
X63069724Y-85227500D02*
X59069724Y-85227500D01*
X58319724Y-76487500D02*
X63069724Y-76487500D01*
X58319724Y-76487500D02*
X56699724Y-78107500D01*
X56699724Y-82857500D02*
X56699724Y-78107500D01*
%TO.C,C15*%
X70516267Y-54710000D02*
X70223733Y-54710000D01*
X70516267Y-53690000D02*
X70223733Y-53690000D01*
D15*
%TO.C,LED11*%
X71900000Y-52850000D02*
X71603000Y-52850000D01*
X71900000Y-51150000D02*
X71900000Y-52850000D01*
X68197000Y-52850000D02*
X67900000Y-52850000D01*
X67900000Y-52850000D02*
X67900000Y-51150000D01*
X67900000Y-51150000D02*
X71900000Y-51150000D01*
D14*
X71920000Y-51890000D02*
X71170000Y-51140000D01*
X71920000Y-51140000D01*
X71920000Y-51890000D01*
G36*
X71920000Y-51890000D02*
G01*
X71170000Y-51140000D01*
X71920000Y-51140000D01*
X71920000Y-51890000D01*
G37*
X71920000Y-51890000D02*
X71170000Y-51140000D01*
X71920000Y-51140000D01*
X71920000Y-51890000D01*
G36*
X71920000Y-51890000D02*
G01*
X71170000Y-51140000D01*
X71920000Y-51140000D01*
X71920000Y-51890000D01*
G37*
%TO.C,C25*%
X47010000Y-81153733D02*
X47010000Y-81446267D01*
X45990000Y-81153733D02*
X45990000Y-81446267D01*
%TO.C,D14*%
X71592000Y-66762000D02*
X71592000Y-64302000D01*
X73062000Y-66762000D02*
X71592000Y-66762000D01*
X73062000Y-64302000D02*
X73062000Y-66762000D01*
%TO.C,C2*%
X74365748Y-67767000D02*
X74888252Y-67767000D01*
X74365748Y-69237000D02*
X74888252Y-69237000D01*
%TO.C,R9*%
X98767500Y-62266543D02*
X98767500Y-62775991D01*
X97722500Y-62266543D02*
X97722500Y-62775991D01*
%TO.C,R17*%
X73604500Y-65456724D02*
X73604500Y-64947276D01*
X74649500Y-65456724D02*
X74649500Y-64947276D01*
%TO.C,D5*%
X69169724Y-75597500D02*
X69169724Y-79607500D01*
X67169724Y-75597500D02*
X69169724Y-75597500D01*
X67169724Y-75597500D02*
X67169724Y-79607500D01*
D15*
%TO.C,LED1*%
X130450000Y-63500000D02*
X130450000Y-63203000D01*
X132150000Y-63500000D02*
X130450000Y-63500000D01*
X130450000Y-59797000D02*
X130450000Y-59500000D01*
X130450000Y-59500000D02*
X132150000Y-59500000D01*
X132150000Y-59500000D02*
X132150000Y-63500000D01*
D14*
X132160000Y-63520000D02*
X131410000Y-63520000D01*
X132160000Y-62770000D01*
X132160000Y-63520000D01*
G36*
X132160000Y-63520000D02*
G01*
X131410000Y-63520000D01*
X132160000Y-62770000D01*
X132160000Y-63520000D01*
G37*
X132160000Y-63520000D02*
X131410000Y-63520000D01*
X132160000Y-62770000D01*
X132160000Y-63520000D01*
G36*
X132160000Y-63520000D02*
G01*
X131410000Y-63520000D01*
X132160000Y-62770000D01*
X132160000Y-63520000D01*
G37*
%TO.C,TP3*%
X116265000Y-58075000D02*
G75*
G03*
X116265000Y-58075000I-700000J0D01*
G01*
%TO.C,D13*%
X102530000Y-66440000D02*
X104990000Y-66440000D01*
X102530000Y-67910000D02*
X102530000Y-66440000D01*
X104990000Y-67910000D02*
X102530000Y-67910000D01*
D15*
%TO.C,LED2*%
X130550000Y-83720000D02*
X130550000Y-83423000D01*
X132250000Y-83720000D02*
X130550000Y-83720000D01*
X130550000Y-80017000D02*
X130550000Y-79720000D01*
X130550000Y-79720000D02*
X132250000Y-79720000D01*
X132250000Y-79720000D02*
X132250000Y-83720000D01*
D14*
X132260000Y-83740000D02*
X131510000Y-83740000D01*
X132260000Y-82990000D01*
X132260000Y-83740000D01*
G36*
X132260000Y-83740000D02*
G01*
X131510000Y-83740000D01*
X132260000Y-82990000D01*
X132260000Y-83740000D01*
G37*
X132260000Y-83740000D02*
X131510000Y-83740000D01*
X132260000Y-82990000D01*
X132260000Y-83740000D01*
G36*
X132260000Y-83740000D02*
G01*
X131510000Y-83740000D01*
X132260000Y-82990000D01*
X132260000Y-83740000D01*
G37*
%TO.C,Q1*%
X70229724Y-84957500D02*
X70229724Y-84307500D01*
X70229724Y-84957500D02*
X70229724Y-85607500D01*
X67109724Y-84957500D02*
X67109724Y-83282500D01*
X67109724Y-84957500D02*
X67109724Y-85607500D01*
%TO.C,R7*%
X71047224Y-85312224D02*
X71047224Y-84802776D01*
X72092224Y-85312224D02*
X72092224Y-84802776D01*
%TO.C,R6*%
X68315000Y-81235000D02*
X68824448Y-81235000D01*
X68315000Y-82280000D02*
X68824448Y-82280000D01*
%TO.C,C20*%
X102300000Y-75813748D02*
X102300000Y-76336252D01*
X100830000Y-75813748D02*
X100830000Y-76336252D01*
D15*
%TO.C,LED4*%
X102745000Y-90625000D02*
X103042000Y-90625000D01*
X102745000Y-92325000D02*
X102745000Y-90625000D01*
X106448000Y-90625000D02*
X106745000Y-90625000D01*
X106745000Y-90625000D02*
X106745000Y-92325000D01*
X106745000Y-92325000D02*
X102745000Y-92325000D01*
D14*
X103475000Y-92335000D02*
X102725000Y-92335000D01*
X102725000Y-91585000D01*
X103475000Y-92335000D01*
G36*
X103475000Y-92335000D02*
G01*
X102725000Y-92335000D01*
X102725000Y-91585000D01*
X103475000Y-92335000D01*
G37*
X103475000Y-92335000D02*
X102725000Y-92335000D01*
X102725000Y-91585000D01*
X103475000Y-92335000D01*
G36*
X103475000Y-92335000D02*
G01*
X102725000Y-92335000D01*
X102725000Y-91585000D01*
X103475000Y-92335000D01*
G37*
%TO.C,R16*%
X87681724Y-57224500D02*
X87172276Y-57224500D01*
X87681724Y-56179500D02*
X87172276Y-56179500D01*
%TO.C,C14*%
X121078767Y-54875000D02*
X120786233Y-54875000D01*
X121078767Y-53855000D02*
X120786233Y-53855000D01*
%TO.C,C22*%
X100181233Y-80365000D02*
X100473767Y-80365000D01*
X100181233Y-81385000D02*
X100473767Y-81385000D01*
%TO.C,R13*%
X108419724Y-67727500D02*
X107910276Y-67727500D01*
X108419724Y-66682500D02*
X107910276Y-66682500D01*
D15*
%TO.C,LED13*%
X45450000Y-60020000D02*
X45450000Y-60317000D01*
X43750000Y-60020000D02*
X45450000Y-60020000D01*
X45450000Y-63723000D02*
X45450000Y-64020000D01*
X45450000Y-64020000D02*
X43750000Y-64020000D01*
X43750000Y-64020000D02*
X43750000Y-60020000D01*
D14*
X43740000Y-60750000D02*
X43740000Y-60000000D01*
X44490000Y-60000000D01*
X43740000Y-60750000D01*
G36*
X43740000Y-60750000D02*
G01*
X43740000Y-60000000D01*
X44490000Y-60000000D01*
X43740000Y-60750000D01*
G37*
X43740000Y-60750000D02*
X43740000Y-60000000D01*
X44490000Y-60000000D01*
X43740000Y-60750000D01*
G36*
X43740000Y-60750000D02*
G01*
X43740000Y-60000000D01*
X44490000Y-60000000D01*
X43740000Y-60750000D01*
G37*
%TO.C,C18*%
X80086733Y-56238000D02*
X80379267Y-56238000D01*
X80086733Y-57258000D02*
X80379267Y-57258000D01*
%TO.C,TP5*%
X120365000Y-61675000D02*
G75*
G03*
X120365000Y-61675000I-700000J0D01*
G01*
%TO.C,C9*%
X55390000Y-63083767D02*
X55390000Y-62791233D01*
X56410000Y-63083767D02*
X56410000Y-62791233D01*
%TO.C,C16*%
X77698000Y-59909252D02*
X77698000Y-59386748D01*
X79168000Y-59909252D02*
X79168000Y-59386748D01*
%TO.C,C4*%
X79165748Y-63167000D02*
X79688252Y-63167000D01*
X79165748Y-64637000D02*
X79688252Y-64637000D01*
%TO.C,C23*%
X52978767Y-54635000D02*
X52686233Y-54635000D01*
X52978767Y-53615000D02*
X52686233Y-53615000D01*
D15*
%TO.C,LED7*%
X50645000Y-90625000D02*
X50942000Y-90625000D01*
X50645000Y-92325000D02*
X50645000Y-90625000D01*
X54348000Y-90625000D02*
X54645000Y-90625000D01*
X54645000Y-90625000D02*
X54645000Y-92325000D01*
X54645000Y-92325000D02*
X50645000Y-92325000D01*
D14*
X51375000Y-92335000D02*
X50625000Y-92335000D01*
X50625000Y-91585000D01*
X51375000Y-92335000D01*
G36*
X51375000Y-92335000D02*
G01*
X50625000Y-92335000D01*
X50625000Y-91585000D01*
X51375000Y-92335000D01*
G37*
X51375000Y-92335000D02*
X50625000Y-92335000D01*
X50625000Y-91585000D01*
X51375000Y-92335000D01*
G36*
X51375000Y-92335000D02*
G01*
X50625000Y-92335000D01*
X50625000Y-91585000D01*
X51375000Y-92335000D01*
G37*
%TO.C,TP6*%
X116365000Y-65475000D02*
G75*
G03*
X116365000Y-65475000I-700000J0D01*
G01*
D13*
%TO.C,J1*%
X42100000Y-76145000D02*
X43633000Y-76145000D01*
X42100000Y-76145000D02*
X42100000Y-67205000D01*
X45767000Y-76145000D02*
X47433000Y-76145000D01*
X48900000Y-75106000D02*
X48900000Y-75178000D01*
X48900000Y-68172000D02*
X48900000Y-68244000D01*
X42100000Y-67205000D02*
X43633000Y-67205000D01*
X45767000Y-67205000D02*
X47433000Y-67205000D01*
D14*
%TO.C,C21*%
X99875000Y-75928733D02*
X99875000Y-76221267D01*
X98855000Y-75928733D02*
X98855000Y-76221267D01*
%TO.C,C34*%
X86296233Y-88665000D02*
X86588767Y-88665000D01*
X86296233Y-89685000D02*
X86588767Y-89685000D01*
D13*
%TO.C,U3*%
X97085452Y-86236000D02*
X97085452Y-86374000D01*
X97085452Y-84736000D02*
X97085452Y-84874000D01*
X97085452Y-83236000D02*
X97085452Y-83374000D01*
X97085452Y-81736000D02*
X97085452Y-81874000D01*
X97085452Y-80236000D02*
X97085452Y-80374000D01*
X97085452Y-78736000D02*
X97085452Y-78874000D01*
X97085452Y-77236000D02*
X97085452Y-77374000D01*
X97085452Y-75736000D02*
X97085452Y-75874000D01*
X97068452Y-87955000D02*
X97068452Y-87736000D01*
X97068452Y-74374000D02*
X97068452Y-73655000D01*
X97068452Y-73655000D02*
X79068452Y-73655000D01*
X79068452Y-87955000D02*
X97068452Y-87955000D01*
X79068452Y-87736000D02*
X79068452Y-87955000D01*
X79068452Y-74374000D02*
X79068452Y-73654000D01*
X79051452Y-86374000D02*
X79051452Y-86236000D01*
X79051452Y-84874000D02*
X79051452Y-84736000D01*
X79051452Y-83374000D02*
X79051452Y-83236000D01*
X79051452Y-81874000D02*
X79051452Y-81736000D01*
X79051452Y-80374000D02*
X79051452Y-80236000D01*
X79051452Y-78874000D02*
X79051452Y-78736000D01*
X79051452Y-77374000D02*
X79051452Y-77236000D01*
X79051452Y-75874000D02*
X79051452Y-75736000D01*
X97900452Y-74070000D02*
G75*
G03*
X97900452Y-74070000I-180000J0D01*
G01*
D14*
%TO.C,TP1*%
X120565000Y-58075000D02*
G75*
G03*
X120565000Y-58075000I-700000J0D01*
G01*
D15*
%TO.C,LED14*%
X45445000Y-79632500D02*
X45445000Y-79929500D01*
X43745000Y-79632500D02*
X45445000Y-79632500D01*
X45445000Y-83335500D02*
X45445000Y-83632500D01*
X45445000Y-83632500D02*
X43745000Y-83632500D01*
X43745000Y-83632500D02*
X43745000Y-79632500D01*
D14*
X43735000Y-80362500D02*
X43735000Y-79612500D01*
X44485000Y-79612500D01*
X43735000Y-80362500D01*
G36*
X43735000Y-80362500D02*
G01*
X43735000Y-79612500D01*
X44485000Y-79612500D01*
X43735000Y-80362500D01*
G37*
X43735000Y-80362500D02*
X43735000Y-79612500D01*
X44485000Y-79612500D01*
X43735000Y-80362500D01*
G36*
X43735000Y-80362500D02*
G01*
X43735000Y-79612500D01*
X44485000Y-79612500D01*
X43735000Y-80362500D01*
G37*
D15*
%TO.C,LED6*%
X66065000Y-90525000D02*
X66362000Y-90525000D01*
X66065000Y-92225000D02*
X66065000Y-90525000D01*
X69768000Y-90525000D02*
X70065000Y-90525000D01*
X70065000Y-90525000D02*
X70065000Y-92225000D01*
X70065000Y-92225000D02*
X66065000Y-92225000D01*
D14*
X66795000Y-92235000D02*
X66045000Y-92235000D01*
X66045000Y-91485000D01*
X66795000Y-92235000D01*
G36*
X66795000Y-92235000D02*
G01*
X66045000Y-92235000D01*
X66045000Y-91485000D01*
X66795000Y-92235000D01*
G37*
X66795000Y-92235000D02*
X66045000Y-92235000D01*
X66045000Y-91485000D01*
X66795000Y-92235000D01*
G36*
X66795000Y-92235000D02*
G01*
X66045000Y-92235000D01*
X66045000Y-91485000D01*
X66795000Y-92235000D01*
G37*
%TO.C,C1*%
X72792000Y-72100752D02*
X72792000Y-71578248D01*
X74262000Y-72100752D02*
X74262000Y-71578248D01*
%TO.C,C17*%
X83486733Y-63338000D02*
X83779267Y-63338000D01*
X83486733Y-64358000D02*
X83779267Y-64358000D01*
%TO.C,C33*%
X104158733Y-88865000D02*
X104451267Y-88865000D01*
X104158733Y-89885000D02*
X104451267Y-89885000D01*
%TO.C,C10*%
X54161252Y-66672500D02*
X53638748Y-66672500D01*
X54161252Y-65202500D02*
X53638748Y-65202500D01*
%TO.C,FB1*%
X106564758Y-71590000D02*
X108235242Y-71590000D01*
X106564758Y-73410000D02*
X108235242Y-73410000D01*
D13*
%TO.C,U4*%
X62050000Y-61612500D02*
X62050000Y-62862500D01*
X62050000Y-60012500D02*
X62050000Y-58762500D01*
X62050000Y-58762500D02*
X56950000Y-58762500D01*
X56950000Y-62862500D02*
X62050000Y-62862500D01*
X56950000Y-58762500D02*
X56950000Y-62862500D01*
X61999607Y-60012685D02*
G75*
G03*
X62000000Y-61612500I375394J-799815D01*
G01*
X62700000Y-63312500D02*
G75*
G03*
X62700000Y-63312500I-170000J0D01*
G01*
D14*
%TO.C,C39*%
X74992000Y-72100752D02*
X74992000Y-71578248D01*
X76462000Y-72100752D02*
X76462000Y-71578248D01*
%TO.C,C35*%
X67598733Y-88765000D02*
X67891267Y-88765000D01*
X67598733Y-89785000D02*
X67891267Y-89785000D01*
%TO.C,C32*%
X119978733Y-88665000D02*
X120271267Y-88665000D01*
X119978733Y-89685000D02*
X120271267Y-89685000D01*
%TO.C,D6*%
X64030000Y-57469500D02*
X64030000Y-59929500D01*
X62560000Y-57469500D02*
X64030000Y-57469500D01*
X62560000Y-59929500D02*
X62560000Y-57469500D01*
%TO.C,C6*%
X103741267Y-54835000D02*
X103448733Y-54835000D01*
X103741267Y-53815000D02*
X103448733Y-53815000D01*
D13*
%TO.C,L3*%
X84927000Y-72002000D02*
X77927000Y-72002000D01*
X84927000Y-70683000D02*
X84927000Y-72002000D01*
X84927000Y-65402000D02*
X84927000Y-66721000D01*
X84927000Y-65402000D02*
X77927000Y-65402000D01*
X77927000Y-72002000D02*
X77927000Y-70683000D01*
X77927000Y-66721000D02*
X77927000Y-65402000D01*
D14*
%TO.C,C11*%
X52965000Y-63098752D02*
X52965000Y-62576248D01*
X54435000Y-63098752D02*
X54435000Y-62576248D01*
%TO.C,C5*%
X86871267Y-54790000D02*
X86578733Y-54790000D01*
X86871267Y-53770000D02*
X86578733Y-53770000D01*
%TO.C,C12*%
X56571267Y-56558500D02*
X56278733Y-56558500D01*
X56571267Y-55538500D02*
X56278733Y-55538500D01*
%TO.C,SW2*%
X107600000Y-79350000D02*
X107600000Y-82650000D01*
X107300000Y-79350000D02*
X107600000Y-79350000D01*
X105100000Y-79350000D02*
X104800000Y-79350000D01*
X104800000Y-79350000D02*
X104800000Y-82650000D01*
X107600000Y-82650000D02*
X107300000Y-82650000D01*
X104800000Y-82650000D02*
X105100000Y-82650000D01*
%TO.C,R8*%
X91055500Y-59293276D02*
X91055500Y-59802724D01*
X90010500Y-59293276D02*
X90010500Y-59802724D01*
%TO.C,TP4*%
X120365000Y-65575000D02*
G75*
G03*
X120365000Y-65575000I-700000J0D01*
G01*
D15*
%TO.C,LED12*%
X54500000Y-52850000D02*
X54203000Y-52850000D01*
X54500000Y-51150000D02*
X54500000Y-52850000D01*
X50797000Y-52850000D02*
X50500000Y-52850000D01*
X50500000Y-52850000D02*
X50500000Y-51150000D01*
X50500000Y-51150000D02*
X54500000Y-51150000D01*
D14*
X54520000Y-51890000D02*
X53770000Y-51140000D01*
X54520000Y-51140000D01*
X54520000Y-51890000D01*
G36*
X54520000Y-51890000D02*
G01*
X53770000Y-51140000D01*
X54520000Y-51140000D01*
X54520000Y-51890000D01*
G37*
X54520000Y-51890000D02*
X53770000Y-51140000D01*
X54520000Y-51140000D01*
X54520000Y-51890000D01*
G36*
X54520000Y-51890000D02*
G01*
X53770000Y-51140000D01*
X54520000Y-51140000D01*
X54520000Y-51890000D01*
G37*
%TO.C,R5*%
X100110276Y-84177500D02*
X100619724Y-84177500D01*
X100110276Y-85222500D02*
X100619724Y-85222500D01*
%TO.C,R10*%
X100467500Y-58766543D02*
X100467500Y-59275991D01*
X99422500Y-58766543D02*
X99422500Y-59275991D01*
%TO.C,R12*%
X63822500Y-62457776D02*
X63822500Y-62967224D01*
X62777500Y-62457776D02*
X62777500Y-62967224D01*
%TO.C,C38*%
X89243000Y-59401733D02*
X89243000Y-59694267D01*
X88223000Y-59401733D02*
X88223000Y-59694267D01*
D15*
%TO.C,LED3*%
X118545000Y-90525000D02*
X118842000Y-90525000D01*
X118545000Y-92225000D02*
X118545000Y-90525000D01*
X122248000Y-90525000D02*
X122545000Y-90525000D01*
X122545000Y-90525000D02*
X122545000Y-92225000D01*
X122545000Y-92225000D02*
X118545000Y-92225000D01*
D14*
X119275000Y-92235000D02*
X118525000Y-92235000D01*
X118525000Y-91485000D01*
X119275000Y-92235000D01*
G36*
X119275000Y-92235000D02*
G01*
X118525000Y-92235000D01*
X118525000Y-91485000D01*
X119275000Y-92235000D01*
G37*
X119275000Y-92235000D02*
X118525000Y-92235000D01*
X118525000Y-91485000D01*
X119275000Y-92235000D01*
G36*
X119275000Y-92235000D02*
G01*
X118525000Y-92235000D01*
X118525000Y-91485000D01*
X119275000Y-92235000D01*
G37*
%TO.C,C7*%
X66210000Y-66853733D02*
X66210000Y-67146267D01*
X65190000Y-66853733D02*
X65190000Y-67146267D01*
%TO.C,C24*%
X47110000Y-61623733D02*
X47110000Y-61916267D01*
X46090000Y-61623733D02*
X46090000Y-61916267D01*
D13*
%TO.C,U1*%
X82463000Y-62534000D02*
X82463000Y-57962000D01*
X83130000Y-62534000D02*
X82463000Y-62534000D01*
X85003000Y-57962000D02*
X82463000Y-57962000D01*
X85003000Y-62534000D02*
X84400000Y-62534000D01*
X85003000Y-62534000D02*
X85003000Y-57962000D01*
X84400000Y-62534000D02*
G75*
G03*
X83130000Y-62534000I-635000J0D01*
G01*
%TO.C,L1*%
X63900000Y-71500000D02*
X56900000Y-71500000D01*
X63900000Y-70181000D02*
X63900000Y-71500000D01*
X63900000Y-64900000D02*
X63900000Y-66219000D01*
X63900000Y-64900000D02*
X56900000Y-64900000D01*
X56900000Y-71500000D02*
X56900000Y-70181000D01*
X56900000Y-66219000D02*
X56900000Y-64900000D01*
D14*
%TO.C,C30*%
X128390000Y-62026267D02*
X128390000Y-61733733D01*
X129410000Y-62026267D02*
X129410000Y-61733733D01*
D15*
%TO.C,LED10*%
X122500000Y-52850000D02*
X122203000Y-52850000D01*
X122500000Y-51150000D02*
X122500000Y-52850000D01*
X118797000Y-52850000D02*
X118500000Y-52850000D01*
X118500000Y-52850000D02*
X118500000Y-51150000D01*
X118500000Y-51150000D02*
X122500000Y-51150000D01*
D14*
X122520000Y-51890000D02*
X121770000Y-51140000D01*
X122520000Y-51140000D01*
X122520000Y-51890000D01*
G36*
X122520000Y-51890000D02*
G01*
X121770000Y-51140000D01*
X122520000Y-51140000D01*
X122520000Y-51890000D01*
G37*
X122520000Y-51890000D02*
X121770000Y-51140000D01*
X122520000Y-51140000D01*
X122520000Y-51890000D01*
G36*
X122520000Y-51890000D02*
G01*
X121770000Y-51140000D01*
X122520000Y-51140000D01*
X122520000Y-51890000D01*
G37*
%TO.C,R14*%
X99422500Y-62775991D02*
X99422500Y-62266543D01*
X100467500Y-62775991D02*
X100467500Y-62266543D01*
%TO.C,C31*%
X128490000Y-82146267D02*
X128490000Y-81853733D01*
X129510000Y-82146267D02*
X129510000Y-81853733D01*
%TO.C,R15*%
X84081724Y-57324500D02*
X83572276Y-57324500D01*
X84081724Y-56279500D02*
X83572276Y-56279500D01*
%TO.C,TP2*%
X116365000Y-61575000D02*
G75*
G03*
X116365000Y-61575000I-700000J0D01*
G01*
%TO.C,R11*%
X60040276Y-55482000D02*
X60549724Y-55482000D01*
X60040276Y-56527000D02*
X60549724Y-56527000D01*
%TO.C,D12*%
X85790000Y-63250000D02*
X91300000Y-63250000D01*
X85790000Y-66550000D02*
X85790000Y-63250000D01*
X85790000Y-66550000D02*
X91300000Y-66550000D01*
D15*
%TO.C,LED8*%
X88385000Y-52930000D02*
X88088000Y-52930000D01*
X88385000Y-51230000D02*
X88385000Y-52930000D01*
X84682000Y-52930000D02*
X84385000Y-52930000D01*
X84385000Y-52930000D02*
X84385000Y-51230000D01*
X84385000Y-51230000D02*
X88385000Y-51230000D01*
D14*
X88405000Y-51970000D02*
X87655000Y-51220000D01*
X88405000Y-51220000D01*
X88405000Y-51970000D01*
G36*
X88405000Y-51970000D02*
G01*
X87655000Y-51220000D01*
X88405000Y-51220000D01*
X88405000Y-51970000D01*
G37*
X88405000Y-51970000D02*
X87655000Y-51220000D01*
X88405000Y-51220000D01*
X88405000Y-51970000D01*
G36*
X88405000Y-51970000D02*
G01*
X87655000Y-51220000D01*
X88405000Y-51220000D01*
X88405000Y-51970000D01*
G37*
%TO.C,C37*%
X97735000Y-59167534D02*
X97735000Y-58875000D01*
X98755000Y-59167534D02*
X98755000Y-58875000D01*
D15*
%TO.C,LED9*%
X105400000Y-52950000D02*
X105103000Y-52950000D01*
X105400000Y-51250000D02*
X105400000Y-52950000D01*
X101697000Y-52950000D02*
X101400000Y-52950000D01*
X101400000Y-52950000D02*
X101400000Y-51250000D01*
X101400000Y-51250000D02*
X105400000Y-51250000D01*
D14*
X105420000Y-51990000D02*
X104670000Y-51240000D01*
X105420000Y-51240000D01*
X105420000Y-51990000D01*
G36*
X105420000Y-51990000D02*
G01*
X104670000Y-51240000D01*
X105420000Y-51240000D01*
X105420000Y-51990000D01*
G37*
X105420000Y-51990000D02*
X104670000Y-51240000D01*
X105420000Y-51240000D01*
X105420000Y-51990000D01*
G36*
X105420000Y-51990000D02*
G01*
X104670000Y-51240000D01*
X105420000Y-51240000D01*
X105420000Y-51990000D01*
G37*
D15*
%TO.C,LED5*%
X84800000Y-90625000D02*
X85097000Y-90625000D01*
X84800000Y-92325000D02*
X84800000Y-90625000D01*
X88503000Y-90625000D02*
X88800000Y-90625000D01*
X88800000Y-90625000D02*
X88800000Y-92325000D01*
X88800000Y-92325000D02*
X84800000Y-92325000D01*
D14*
X85530000Y-92335000D02*
X84780000Y-92335000D01*
X84780000Y-91585000D01*
X85530000Y-92335000D01*
G36*
X85530000Y-92335000D02*
G01*
X84780000Y-92335000D01*
X84780000Y-91585000D01*
X85530000Y-92335000D01*
G37*
X85530000Y-92335000D02*
X84780000Y-92335000D01*
X84780000Y-91585000D01*
X85530000Y-92335000D01*
G36*
X85530000Y-92335000D02*
G01*
X84780000Y-92335000D01*
X84780000Y-91585000D01*
X85530000Y-92335000D01*
G37*
%TD*%
M02*
