%TF.GenerationSoftware,KiCad,Pcbnew,7.0.5*%
%TF.CreationDate,2024-01-01T11:18:53+08:00*%
%TF.ProjectId,bat_rf,6261745f-7266-42e6-9b69-6361645f7063,rev?*%
%TF.SameCoordinates,Original*%
%TF.FileFunction,Legend,Top*%
%TF.FilePolarity,Positive*%
%FSLAX46Y46*%
G04 Gerber Fmt 4.6, Leading zero omitted, Abs format (unit mm)*
G04 Created by KiCad (PCBNEW 7.0.5) date 2024-01-01 11:18:53*
%MOMM*%
%LPD*%
G01*
G04 APERTURE LIST*
%ADD10C,0.254000*%
%ADD11C,0.500000*%
G04 APERTURE END LIST*
D10*
%TO.C,BT1*%
X49584000Y-51736000D02*
X126546000Y-51736000D01*
X49584000Y-58219000D02*
X49584000Y-51736000D01*
X49584000Y-77319000D02*
X49584000Y-66031000D01*
X49584000Y-91614000D02*
X49584000Y-85131000D01*
D11*
X58565000Y-81175000D02*
X61565000Y-81175000D01*
X59040000Y-62175000D02*
X62090000Y-62175000D01*
X60065000Y-79725000D02*
X60065000Y-82625000D01*
X114065000Y-62175000D02*
X117065000Y-62175000D01*
X114065000Y-81675000D02*
X117065000Y-81675000D01*
X115565000Y-60725000D02*
X115565000Y-63625000D01*
D10*
X126546000Y-51736000D02*
X126546000Y-58219000D01*
X126546000Y-66031000D02*
X126546000Y-77319000D01*
X126546000Y-85131000D02*
X126546000Y-91614000D01*
X126546000Y-91614000D02*
X49584000Y-91614000D01*
%TO.C,J4*%
X131865000Y-66275000D02*
X126665000Y-66275000D01*
X126665000Y-66275000D02*
X126665000Y-73889000D01*
X131465000Y-66675000D02*
X127065000Y-66675000D01*
X131465000Y-66675000D02*
X131465000Y-73375000D01*
X127065000Y-66675000D02*
X127065000Y-73375000D01*
X131465000Y-73375000D02*
X131465000Y-73875000D01*
X127065000Y-73375000D02*
X127065000Y-73876000D01*
X131465000Y-73875000D02*
X131465000Y-73875000D01*
X127065000Y-73876000D02*
X127065000Y-73876000D01*
X131865000Y-73889000D02*
X131865000Y-66275000D01*
X127065000Y-73875000D02*
G75*
G03*
X131465000Y-73875000I2200000J0D01*
G01*
X126665000Y-73889001D02*
G75*
G03*
X131865000Y-73889000I2600000J1D01*
G01*
%TD*%
M02*
