%TF.GenerationSoftware,KiCad,Pcbnew,7.0.5*%
%TF.CreationDate,2024-01-01T11:18:53+08:00*%
%TF.ProjectId,bat_rf,6261745f-7266-42e6-9b69-6361645f7063,rev?*%
%TF.SameCoordinates,Original*%
%TF.FileFunction,Soldermask,Bot*%
%TF.FilePolarity,Negative*%
%FSLAX46Y46*%
G04 Gerber Fmt 4.6, Leading zero omitted, Abs format (unit mm)*
G04 Created by KiCad (PCBNEW 7.0.5) date 2024-01-01 11:18:53*
%MOMM*%
%LPD*%
G01*
G04 APERTURE LIST*
G04 Aperture macros list*
%AMRoundRect*
0 Rectangle with rounded corners*
0 $1 Rounding radius*
0 $2 $3 $4 $5 $6 $7 $8 $9 X,Y pos of 4 corners*
0 Add a 4 corners polygon primitive as box body*
4,1,4,$2,$3,$4,$5,$6,$7,$8,$9,$2,$3,0*
0 Add four circle primitives for the rounded corners*
1,1,$1+$1,$2,$3*
1,1,$1+$1,$4,$5*
1,1,$1+$1,$6,$7*
1,1,$1+$1,$8,$9*
0 Add four rect primitives between the rounded corners*
20,1,$1+$1,$2,$3,$4,$5,0*
20,1,$1+$1,$4,$5,$6,$7,0*
20,1,$1+$1,$6,$7,$8,$9,0*
20,1,$1+$1,$8,$9,$2,$3,0*%
G04 Aperture macros list end*
%ADD10C,1.000000*%
%ADD11C,1.800000*%
%ADD12R,2.350000X3.500000*%
%ADD13RoundRect,0.250000X-1.000000X-0.650000X1.000000X-0.650000X1.000000X0.650000X-1.000000X0.650000X0*%
%ADD14C,3.800000*%
%ADD15C,4.400000*%
%ADD16RoundRect,0.237500X-0.300000X-0.237500X0.300000X-0.237500X0.300000X0.237500X-0.300000X0.237500X0*%
%ADD17RoundRect,0.237500X-0.250000X-0.237500X0.250000X-0.237500X0.250000X0.237500X-0.250000X0.237500X0*%
%ADD18RoundRect,0.250000X-0.475000X0.337500X-0.475000X-0.337500X0.475000X-0.337500X0.475000X0.337500X0*%
%ADD19RoundRect,0.237500X0.300000X0.237500X-0.300000X0.237500X-0.300000X-0.237500X0.300000X-0.237500X0*%
%ADD20RoundRect,0.250000X0.475000X-0.337500X0.475000X0.337500X-0.475000X0.337500X-0.475000X-0.337500X0*%
%ADD21R,2.195000X2.195000*%
%ADD22R,0.550000X1.200000*%
%ADD23RoundRect,0.237500X-0.237500X0.300000X-0.237500X-0.300000X0.237500X-0.300000X0.237500X0.300000X0*%
%ADD24RoundRect,0.237500X0.237500X-0.287500X0.237500X0.287500X-0.237500X0.287500X-0.237500X-0.287500X0*%
%ADD25RoundRect,0.250000X-0.337500X-0.475000X0.337500X-0.475000X0.337500X0.475000X-0.337500X0.475000X0*%
%ADD26RoundRect,0.237500X-0.237500X0.250000X-0.237500X-0.250000X0.237500X-0.250000X0.237500X0.250000X0*%
%ADD27RoundRect,0.237500X0.237500X-0.250000X0.237500X0.250000X-0.237500X0.250000X-0.237500X-0.250000X0*%
%ADD28RoundRect,0.225000X-0.375000X0.225000X-0.375000X-0.225000X0.375000X-0.225000X0.375000X0.225000X0*%
%ADD29R,1.200000X0.550000*%
%ADD30RoundRect,0.237500X-0.287500X-0.237500X0.287500X-0.237500X0.287500X0.237500X-0.287500X0.237500X0*%
%ADD31RoundRect,0.150000X-0.150000X0.587500X-0.150000X-0.587500X0.150000X-0.587500X0.150000X0.587500X0*%
%ADD32RoundRect,0.237500X0.250000X0.237500X-0.250000X0.237500X-0.250000X-0.237500X0.250000X-0.237500X0*%
%ADD33RoundRect,0.237500X0.237500X-0.300000X0.237500X0.300000X-0.237500X0.300000X-0.237500X-0.300000X0*%
%ADD34R,1.800000X3.900000*%
%ADD35R,1.300000X4.500000*%
%ADD36O,1.700000X1.200000*%
%ADD37R,1.200000X0.700000*%
%ADD38R,1.200000X0.800000*%
%ADD39R,1.200000X0.900000*%
%ADD40R,1.500000X0.900000*%
%ADD41R,2.800000X1.600000*%
%ADD42R,2.800000X0.550000*%
%ADD43RoundRect,0.250000X0.337500X0.475000X-0.337500X0.475000X-0.337500X-0.475000X0.337500X-0.475000X0*%
%ADD44RoundRect,0.250000X-0.362500X-0.700000X0.362500X-0.700000X0.362500X0.700000X-0.362500X0.700000X0*%
%ADD45R,0.600000X1.200000*%
%ADD46R,3.300000X2.400000*%
%ADD47RoundRect,0.237500X-0.237500X0.287500X-0.237500X-0.287500X0.237500X-0.287500X0.237500X0.287500X0*%
%ADD48R,1.700000X0.900000*%
%ADD49O,2.032000X0.610000*%
%ADD50R,1.800000X3.000000*%
G04 APERTURE END LIST*
D10*
%TO.C,TP8*%
X95800000Y-64500000D03*
%TD*%
%TO.C,TP7*%
X74800000Y-80800000D03*
%TD*%
%TO.C,TP9*%
X76200000Y-86800000D03*
%TD*%
D11*
%TO.C,BT1*%
X123995000Y-89075000D03*
%TD*%
D12*
%TO.C,L1*%
X66470000Y-68199000D03*
X60400000Y-68199000D03*
%TD*%
D13*
%TO.C,D1*%
X53400000Y-69100000D03*
X57400000Y-69100000D03*
%TD*%
D14*
%TO.C,J4*%
X129265000Y-68875000D03*
X129265000Y-73875000D03*
%TD*%
D15*
%TO.C,H2*%
X130000000Y-54475000D03*
%TD*%
%TO.C,H1*%
X46465000Y-54475000D03*
%TD*%
%TO.C,H3*%
X130000000Y-88475000D03*
%TD*%
%TO.C,H4*%
X46465000Y-88475000D03*
%TD*%
D16*
%TO.C,C36*%
X51402500Y-89275000D03*
X53127500Y-89275000D03*
%TD*%
D17*
%TO.C,R4*%
X99452500Y-79075000D03*
X101277500Y-79075000D03*
%TD*%
D18*
%TO.C,C3*%
X76127000Y-63964500D03*
X76127000Y-66039500D03*
%TD*%
%TO.C,C13*%
X55625000Y-58011000D03*
X55625000Y-60086000D03*
%TD*%
D19*
%TO.C,C19*%
X90495500Y-62148000D03*
X88770500Y-62148000D03*
%TD*%
D20*
%TO.C,C8*%
X65600000Y-63775000D03*
X65600000Y-61700000D03*
%TD*%
D21*
%TO.C,BZ1*%
X64769724Y-77157500D03*
X64769724Y-84557500D03*
X57369724Y-84557500D03*
%TD*%
D19*
%TO.C,C15*%
X71232500Y-54200000D03*
X69507500Y-54200000D03*
%TD*%
D22*
%TO.C,LED11*%
X71160000Y-52400000D03*
X70320000Y-52400000D03*
X69480000Y-52400000D03*
X68640000Y-52400000D03*
%TD*%
D23*
%TO.C,C25*%
X46500000Y-80437500D03*
X46500000Y-82162500D03*
%TD*%
D24*
%TO.C,D14*%
X72327000Y-65977000D03*
X72327000Y-64227000D03*
%TD*%
D25*
%TO.C,C2*%
X73589500Y-68502000D03*
X75664500Y-68502000D03*
%TD*%
D26*
%TO.C,R9*%
X98245000Y-61608767D03*
X98245000Y-63433767D03*
%TD*%
D27*
%TO.C,R17*%
X74127000Y-66114500D03*
X74127000Y-64289500D03*
%TD*%
D28*
%TO.C,D5*%
X68169724Y-76307500D03*
X68169724Y-79607500D03*
%TD*%
D29*
%TO.C,LED1*%
X130900000Y-62760000D03*
X130900000Y-61920000D03*
X130900000Y-61080000D03*
X130900000Y-60240000D03*
%TD*%
D10*
%TO.C,TP3*%
X115565000Y-58075000D03*
%TD*%
D30*
%TO.C,D13*%
X103315000Y-67175000D03*
X105065000Y-67175000D03*
%TD*%
D29*
%TO.C,LED2*%
X131000000Y-82980000D03*
X131000000Y-82140000D03*
X131000000Y-81300000D03*
X131000000Y-80460000D03*
%TD*%
D31*
%TO.C,Q1*%
X67719724Y-84020000D03*
X69619724Y-84020000D03*
X68669724Y-85895000D03*
%TD*%
D27*
%TO.C,R7*%
X71569724Y-85970000D03*
X71569724Y-84145000D03*
%TD*%
D17*
%TO.C,R6*%
X67657224Y-81757500D03*
X69482224Y-81757500D03*
%TD*%
D18*
%TO.C,C20*%
X101565000Y-75037500D03*
X101565000Y-77112500D03*
%TD*%
D22*
%TO.C,LED4*%
X103485000Y-91075000D03*
X104325000Y-91075000D03*
X105165000Y-91075000D03*
X106005000Y-91075000D03*
%TD*%
D32*
%TO.C,R16*%
X88339500Y-56702000D03*
X86514500Y-56702000D03*
%TD*%
D19*
%TO.C,C14*%
X121795000Y-54365000D03*
X120070000Y-54365000D03*
%TD*%
D16*
%TO.C,C22*%
X99465000Y-80875000D03*
X101190000Y-80875000D03*
%TD*%
D32*
%TO.C,R13*%
X109077500Y-67205000D03*
X107252500Y-67205000D03*
%TD*%
D29*
%TO.C,LED13*%
X45000000Y-60760000D03*
X45000000Y-61600000D03*
X45000000Y-62440000D03*
X45000000Y-63280000D03*
%TD*%
D16*
%TO.C,C18*%
X79370500Y-56748000D03*
X81095500Y-56748000D03*
%TD*%
D10*
%TO.C,TP5*%
X119665000Y-61675000D03*
%TD*%
D33*
%TO.C,C9*%
X55900000Y-63800000D03*
X55900000Y-62075000D03*
%TD*%
D20*
%TO.C,C16*%
X78433000Y-60685500D03*
X78433000Y-58610500D03*
%TD*%
D25*
%TO.C,C4*%
X78389500Y-63902000D03*
X80464500Y-63902000D03*
%TD*%
D19*
%TO.C,C23*%
X53695000Y-54125000D03*
X51970000Y-54125000D03*
%TD*%
D22*
%TO.C,LED7*%
X51385000Y-91075000D03*
X52225000Y-91075000D03*
X53065000Y-91075000D03*
X53905000Y-91075000D03*
%TD*%
D34*
%TO.C,J2*%
X110689000Y-77325000D03*
X124711000Y-77325000D03*
D35*
X113891000Y-82675000D03*
X116431000Y-82675000D03*
X118971000Y-82675000D03*
X121511000Y-82675000D03*
%TD*%
D10*
%TO.C,TP6*%
X115665000Y-65475000D03*
%TD*%
D36*
%TO.C,J1*%
X48500000Y-75995000D03*
X48500000Y-67355000D03*
X44700000Y-75995000D03*
X44700000Y-67355000D03*
D37*
X48480000Y-72175000D03*
D38*
X48480000Y-70155000D03*
D39*
X48480000Y-68925000D03*
D37*
X48480000Y-71175000D03*
D38*
X48480000Y-73195000D03*
D39*
X48480000Y-74425000D03*
%TD*%
D23*
%TO.C,C21*%
X99365000Y-75212500D03*
X99365000Y-76937500D03*
%TD*%
D16*
%TO.C,C34*%
X85580000Y-89175000D03*
X87305000Y-89175000D03*
%TD*%
D40*
%TO.C,U3*%
X96818452Y-75055000D03*
X96818452Y-76555000D03*
X96818452Y-78055000D03*
X96818452Y-79555000D03*
X96818452Y-81055000D03*
X96818452Y-82555000D03*
X96818452Y-84055000D03*
X96818452Y-85555000D03*
X96818452Y-87055000D03*
X79318452Y-87055000D03*
X79318452Y-85555000D03*
X79318452Y-84055000D03*
X79318452Y-82555000D03*
X79318452Y-81055000D03*
X79318452Y-79555000D03*
X79318452Y-78055000D03*
X79318452Y-76555000D03*
X79318452Y-75055000D03*
D41*
X88538452Y-81685000D03*
D42*
X88538452Y-79960000D03*
%TD*%
D10*
%TO.C,TP1*%
X119865000Y-58075000D03*
%TD*%
D29*
%TO.C,LED14*%
X44995000Y-80372500D03*
X44995000Y-81212500D03*
X44995000Y-82052500D03*
X44995000Y-82892500D03*
%TD*%
D22*
%TO.C,LED6*%
X66805000Y-90975000D03*
X67645000Y-90975000D03*
X68485000Y-90975000D03*
X69325000Y-90975000D03*
%TD*%
D20*
%TO.C,C1*%
X73527000Y-72877000D03*
X73527000Y-70802000D03*
%TD*%
D16*
%TO.C,C17*%
X82770500Y-63848000D03*
X84495500Y-63848000D03*
%TD*%
%TO.C,C33*%
X103442500Y-89375000D03*
X105167500Y-89375000D03*
%TD*%
D43*
%TO.C,C10*%
X54937500Y-65937500D03*
X52862500Y-65937500D03*
%TD*%
D44*
%TO.C,FB1*%
X105737500Y-72500000D03*
X109062500Y-72500000D03*
%TD*%
D45*
%TO.C,U4*%
X61405000Y-63720500D03*
X60135000Y-63720500D03*
X58865000Y-63720500D03*
X57595000Y-63720500D03*
X57595000Y-57904500D03*
X58865000Y-57904500D03*
X60135000Y-57904500D03*
X61405000Y-57904500D03*
D46*
X59500000Y-60812500D03*
%TD*%
D20*
%TO.C,C39*%
X75727000Y-72877000D03*
X75727000Y-70802000D03*
%TD*%
D16*
%TO.C,C35*%
X66882500Y-89275000D03*
X68607500Y-89275000D03*
%TD*%
%TO.C,C32*%
X119262500Y-89175000D03*
X120987500Y-89175000D03*
%TD*%
D47*
%TO.C,D6*%
X63295000Y-58254500D03*
X63295000Y-60004500D03*
%TD*%
D19*
%TO.C,C6*%
X104457500Y-54325000D03*
X102732500Y-54325000D03*
%TD*%
D12*
%TO.C,L3*%
X84462000Y-68702000D03*
X78392000Y-68702000D03*
%TD*%
D20*
%TO.C,C11*%
X53700000Y-63875000D03*
X53700000Y-61800000D03*
%TD*%
D19*
%TO.C,C5*%
X87587500Y-54280000D03*
X85862500Y-54280000D03*
%TD*%
%TO.C,C12*%
X57287500Y-56048500D03*
X55562500Y-56048500D03*
%TD*%
D48*
%TO.C,SW2*%
X106200000Y-79300000D03*
X106200000Y-82700000D03*
%TD*%
D26*
%TO.C,R8*%
X90533000Y-58635500D03*
X90533000Y-60460500D03*
%TD*%
D10*
%TO.C,TP4*%
X119665000Y-65575000D03*
%TD*%
D22*
%TO.C,LED12*%
X53760000Y-52400000D03*
X52920000Y-52400000D03*
X52080000Y-52400000D03*
X51240000Y-52400000D03*
%TD*%
D17*
%TO.C,R5*%
X99452500Y-84700000D03*
X101277500Y-84700000D03*
%TD*%
D26*
%TO.C,R10*%
X99945000Y-58108767D03*
X99945000Y-59933767D03*
%TD*%
%TO.C,R12*%
X63300000Y-61800000D03*
X63300000Y-63625000D03*
%TD*%
D23*
%TO.C,C38*%
X88733000Y-58685500D03*
X88733000Y-60410500D03*
%TD*%
D22*
%TO.C,LED3*%
X119285000Y-90975000D03*
X120125000Y-90975000D03*
X120965000Y-90975000D03*
X121805000Y-90975000D03*
%TD*%
D23*
%TO.C,C7*%
X69400000Y-68337500D03*
X69400000Y-70062500D03*
%TD*%
%TO.C,C24*%
X46600000Y-60907500D03*
X46600000Y-62632500D03*
%TD*%
D49*
%TO.C,U1*%
X80939000Y-62142000D03*
X80939000Y-60872000D03*
X80939000Y-59602000D03*
X80939000Y-58332000D03*
X86527000Y-58332000D03*
X86527000Y-59602000D03*
X86527000Y-60872000D03*
X86527000Y-62142000D03*
D50*
X83765000Y-60375000D03*
%TD*%
D33*
%TO.C,C30*%
X128900000Y-62742500D03*
X128900000Y-61017500D03*
%TD*%
D22*
%TO.C,LED10*%
X121760000Y-52400000D03*
X120920000Y-52400000D03*
X120080000Y-52400000D03*
X119240000Y-52400000D03*
%TD*%
D27*
%TO.C,R14*%
X99945000Y-63433767D03*
X99945000Y-61608767D03*
%TD*%
D33*
%TO.C,C31*%
X129000000Y-82862500D03*
X129000000Y-81137500D03*
%TD*%
D32*
%TO.C,R15*%
X84739500Y-56802000D03*
X82914500Y-56802000D03*
%TD*%
D10*
%TO.C,TP2*%
X115665000Y-61575000D03*
%TD*%
D17*
%TO.C,R11*%
X59382500Y-56004500D03*
X61207500Y-56004500D03*
%TD*%
D13*
%TO.C,D12*%
X87300000Y-64900000D03*
X91300000Y-64900000D03*
%TD*%
D22*
%TO.C,LED8*%
X87645000Y-52480000D03*
X86805000Y-52480000D03*
X85965000Y-52480000D03*
X85125000Y-52480000D03*
%TD*%
D33*
%TO.C,C37*%
X98245000Y-59883767D03*
X98245000Y-58158767D03*
%TD*%
D22*
%TO.C,LED9*%
X104660000Y-52500000D03*
X103820000Y-52500000D03*
X102980000Y-52500000D03*
X102140000Y-52500000D03*
%TD*%
%TO.C,LED5*%
X85540000Y-91075000D03*
X86380000Y-91075000D03*
X87220000Y-91075000D03*
X88060000Y-91075000D03*
%TD*%
M02*
