%TF.GenerationSoftware,KiCad,Pcbnew,8.0.2*%
%TF.CreationDate,2024-05-12T09:50:32+08:00*%
%TF.ProjectId,bldcDriver,626c6463-4472-4697-9665-722e6b696361,rev?*%
%TF.SameCoordinates,Original*%
%TF.FileFunction,Legend,Bot*%
%TF.FilePolarity,Positive*%
%FSLAX46Y46*%
G04 Gerber Fmt 4.6, Leading zero omitted, Abs format (unit mm)*
G04 Created by KiCad (PCBNEW 8.0.2) date 2024-05-12 09:50:32*
%MOMM*%
%LPD*%
G01*
G04 APERTURE LIST*
%ADD10C,0.150000*%
%ADD11C,0.100000*%
%ADD12C,0.120000*%
%ADD13C,0.300000*%
%ADD14C,0.152000*%
%ADD15C,0.254000*%
G04 APERTURE END LIST*
D10*
G36*
X65141915Y-42195239D02*
G01*
X64993248Y-42196086D01*
X64876652Y-42158348D01*
X64802444Y-42085558D01*
X64763752Y-42010421D01*
X64719134Y-41836991D01*
X64717992Y-41712219D01*
X64760018Y-41539096D01*
X64798743Y-41459286D01*
X64873022Y-41383561D01*
X64986098Y-41344770D01*
X65140706Y-41343888D01*
X65141915Y-42195239D01*
G37*
G36*
X67496950Y-42455930D02*
G01*
X64458062Y-42455930D01*
X64458062Y-41698390D01*
X64569173Y-41698390D01*
X64570440Y-41836969D01*
X64569262Y-41844893D01*
X64570596Y-41853917D01*
X64570614Y-41855879D01*
X64571036Y-41856900D01*
X64571412Y-41859437D01*
X64618929Y-42044135D01*
X64619455Y-42051532D01*
X64623657Y-42062514D01*
X64623978Y-42063759D01*
X64624300Y-42064194D01*
X64624710Y-42065264D01*
X64673400Y-42159816D01*
X64677050Y-42168628D01*
X64679433Y-42171532D01*
X64680161Y-42172945D01*
X64681659Y-42174244D01*
X64686378Y-42179994D01*
X64774547Y-42266479D01*
X64775399Y-42268183D01*
X64783043Y-42274813D01*
X64792981Y-42284561D01*
X64795471Y-42285592D01*
X64797506Y-42287357D01*
X64810932Y-42293351D01*
X64953513Y-42339500D01*
X64962874Y-42343378D01*
X64966637Y-42343748D01*
X64968125Y-42344230D01*
X64970099Y-42344089D01*
X64977506Y-42344819D01*
X65230233Y-42343378D01*
X65257269Y-42332179D01*
X65277961Y-42311487D01*
X65289160Y-42284451D01*
X65290601Y-42269819D01*
X65289181Y-41269819D01*
X65616792Y-41269819D01*
X65618205Y-42265374D01*
X65616975Y-42275058D01*
X65618226Y-42279645D01*
X65618233Y-42284451D01*
X65622050Y-42293666D01*
X65624675Y-42303290D01*
X65627602Y-42307070D01*
X65629432Y-42311487D01*
X65636482Y-42318537D01*
X65642592Y-42326427D01*
X65646745Y-42328800D01*
X65650124Y-42332179D01*
X65659336Y-42335995D01*
X65668001Y-42340946D01*
X65672744Y-42341548D01*
X65677160Y-42343378D01*
X65687134Y-42343378D01*
X65697031Y-42344636D01*
X65701643Y-42343378D01*
X65706424Y-42343378D01*
X65715639Y-42339560D01*
X65725263Y-42336936D01*
X65729043Y-42334008D01*
X65733460Y-42332179D01*
X65740510Y-42325128D01*
X65748400Y-42319019D01*
X65752752Y-42312886D01*
X65754152Y-42311487D01*
X65754721Y-42310112D01*
X65756910Y-42307029D01*
X66188617Y-41549370D01*
X66189661Y-42284451D01*
X66200860Y-42311487D01*
X66221552Y-42332179D01*
X66248588Y-42343378D01*
X66277852Y-42343378D01*
X66304888Y-42332179D01*
X66325580Y-42311487D01*
X66336779Y-42284451D01*
X66338220Y-42269819D01*
X66337611Y-41841247D01*
X66616792Y-41841247D01*
X66618233Y-42189212D01*
X66622150Y-42198668D01*
X66629431Y-42216247D01*
X66638758Y-42227612D01*
X66679583Y-42267027D01*
X66680161Y-42268183D01*
X66686252Y-42273466D01*
X66697743Y-42284560D01*
X66700231Y-42285590D01*
X66702268Y-42287357D01*
X66715694Y-42293351D01*
X66858275Y-42339500D01*
X66867636Y-42343378D01*
X66871399Y-42343748D01*
X66872887Y-42344230D01*
X66874861Y-42344089D01*
X66882268Y-42344819D01*
X66977585Y-42343568D01*
X66986886Y-42344230D01*
X66990540Y-42343398D01*
X66992138Y-42343378D01*
X66993969Y-42342619D01*
X67001223Y-42340970D01*
X67133013Y-42295759D01*
X67134995Y-42295759D01*
X67144547Y-42291802D01*
X67157505Y-42287357D01*
X67159540Y-42285591D01*
X67162031Y-42284560D01*
X67173396Y-42275233D01*
X67267328Y-42179468D01*
X67274851Y-42172945D01*
X67276863Y-42169748D01*
X67277962Y-42168628D01*
X67278719Y-42166798D01*
X67282683Y-42160502D01*
X67326951Y-42069269D01*
X67331034Y-42063759D01*
X67334969Y-42052743D01*
X67335557Y-42051533D01*
X67335595Y-42050992D01*
X67335981Y-42049913D01*
X67381221Y-41863547D01*
X67384398Y-41855879D01*
X67385295Y-41846764D01*
X67385750Y-41844893D01*
X67385587Y-41843800D01*
X67385839Y-41841247D01*
X67384571Y-41702667D01*
X67385750Y-41694744D01*
X67384415Y-41685719D01*
X67384398Y-41683758D01*
X67383975Y-41682736D01*
X67383600Y-41680200D01*
X67336082Y-41495501D01*
X67335557Y-41488104D01*
X67331353Y-41477121D01*
X67331034Y-41475878D01*
X67330711Y-41475442D01*
X67330302Y-41474373D01*
X67281613Y-41379823D01*
X67277962Y-41371008D01*
X67275577Y-41368102D01*
X67274851Y-41366692D01*
X67273354Y-41365393D01*
X67268634Y-41359643D01*
X67180463Y-41273158D01*
X67179612Y-41271455D01*
X67171969Y-41264826D01*
X67162031Y-41255078D01*
X67159540Y-41254046D01*
X67157505Y-41252281D01*
X67144080Y-41246287D01*
X67001501Y-41200138D01*
X66992138Y-41196260D01*
X66988372Y-41195889D01*
X66986886Y-41195408D01*
X66984911Y-41195548D01*
X66977506Y-41194819D01*
X66845875Y-41196023D01*
X66844029Y-41195408D01*
X66833814Y-41196133D01*
X66820017Y-41196260D01*
X66817528Y-41197290D01*
X66814839Y-41197482D01*
X66801108Y-41202737D01*
X66693427Y-41258188D01*
X66674254Y-41280296D01*
X66665000Y-41308057D01*
X66667074Y-41337247D01*
X66680161Y-41363422D01*
X66702269Y-41382595D01*
X66730030Y-41391849D01*
X66759220Y-41389775D01*
X66772952Y-41384520D01*
X66850326Y-41344675D01*
X66962078Y-41343653D01*
X67078359Y-41381290D01*
X67152568Y-41454080D01*
X67191259Y-41529215D01*
X67235877Y-41702645D01*
X67237019Y-41827417D01*
X67194993Y-42000540D01*
X67156268Y-42080350D01*
X67081991Y-42156076D01*
X66968719Y-42194934D01*
X66897341Y-42195870D01*
X66781149Y-42158262D01*
X66766666Y-42144279D01*
X66765720Y-41915727D01*
X66896900Y-41914806D01*
X66923936Y-41903607D01*
X66944628Y-41882915D01*
X66955827Y-41855879D01*
X66955827Y-41826615D01*
X66944628Y-41799579D01*
X66923936Y-41778887D01*
X66896900Y-41767688D01*
X66882268Y-41766247D01*
X66677160Y-41767688D01*
X66650124Y-41778887D01*
X66629432Y-41799579D01*
X66618233Y-41826615D01*
X66616792Y-41841247D01*
X66337611Y-41841247D01*
X66336806Y-41274263D01*
X66338037Y-41264580D01*
X66336785Y-41259992D01*
X66336779Y-41255187D01*
X66332961Y-41245971D01*
X66330337Y-41236348D01*
X66327409Y-41232567D01*
X66325580Y-41228151D01*
X66318529Y-41221100D01*
X66312420Y-41213211D01*
X66308266Y-41210837D01*
X66304888Y-41207459D01*
X66295675Y-41203642D01*
X66287011Y-41198692D01*
X66282267Y-41198089D01*
X66277852Y-41196260D01*
X66267878Y-41196260D01*
X66257981Y-41195002D01*
X66253369Y-41196260D01*
X66248588Y-41196260D01*
X66239371Y-41200077D01*
X66229750Y-41202702D01*
X66225970Y-41205628D01*
X66221552Y-41207459D01*
X66214500Y-41214510D01*
X66206612Y-41220619D01*
X66202257Y-41226753D01*
X66200860Y-41228151D01*
X66200291Y-41229523D01*
X66198102Y-41232608D01*
X65766394Y-41990267D01*
X65765351Y-41255187D01*
X65754152Y-41228151D01*
X65733460Y-41207459D01*
X65706424Y-41196260D01*
X65677160Y-41196260D01*
X65650124Y-41207459D01*
X65629432Y-41228151D01*
X65618233Y-41255187D01*
X65616792Y-41269819D01*
X65289181Y-41269819D01*
X65289160Y-41255187D01*
X65277961Y-41228151D01*
X65257269Y-41207459D01*
X65230233Y-41196260D01*
X65215601Y-41194819D01*
X64978830Y-41196169D01*
X64968125Y-41195408D01*
X64964416Y-41196251D01*
X64962874Y-41196260D01*
X64961043Y-41197018D01*
X64953788Y-41198668D01*
X64821998Y-41243879D01*
X64820018Y-41243879D01*
X64810468Y-41247834D01*
X64797506Y-41252281D01*
X64795471Y-41254045D01*
X64792981Y-41255077D01*
X64781616Y-41264405D01*
X64687684Y-41360167D01*
X64680161Y-41366692D01*
X64678148Y-41369888D01*
X64677051Y-41371008D01*
X64676293Y-41372835D01*
X64672329Y-41379135D01*
X64628062Y-41470366D01*
X64623978Y-41475878D01*
X64620040Y-41486897D01*
X64619455Y-41488105D01*
X64619416Y-41488644D01*
X64619031Y-41489724D01*
X64573790Y-41676089D01*
X64570614Y-41683758D01*
X64569716Y-41692872D01*
X64569262Y-41694744D01*
X64569424Y-41695836D01*
X64569173Y-41698390D01*
X64458062Y-41698390D01*
X64458062Y-41083708D01*
X67496950Y-41083708D01*
X67496950Y-42455930D01*
G37*
G36*
X64443128Y-34955930D02*
G01*
X61643776Y-34955930D01*
X61643776Y-34341247D01*
X61754887Y-34341247D01*
X61756179Y-34567851D01*
X61755476Y-34569961D01*
X61756253Y-34580903D01*
X61756328Y-34593974D01*
X61757359Y-34596463D01*
X61757550Y-34599151D01*
X61762805Y-34612883D01*
X61811495Y-34707435D01*
X61815145Y-34716247D01*
X61817528Y-34719151D01*
X61818256Y-34720564D01*
X61819754Y-34721863D01*
X61824472Y-34727612D01*
X61873507Y-34774953D01*
X61879141Y-34781450D01*
X61882286Y-34783429D01*
X61883457Y-34784560D01*
X61885284Y-34785317D01*
X61891584Y-34789282D01*
X61977473Y-34830957D01*
X61978695Y-34832179D01*
X61987554Y-34835848D01*
X62000553Y-34842156D01*
X62003242Y-34842347D01*
X62005731Y-34843378D01*
X62020363Y-34844819D01*
X62294517Y-34843503D01*
X62296696Y-34844230D01*
X62307816Y-34843439D01*
X62320709Y-34843378D01*
X62323198Y-34842346D01*
X62325886Y-34842156D01*
X62339618Y-34836901D01*
X62434172Y-34788209D01*
X62442983Y-34784560D01*
X62445885Y-34782177D01*
X62447299Y-34781450D01*
X62448599Y-34779950D01*
X62454349Y-34775232D01*
X62511295Y-34716247D01*
X62522493Y-34689211D01*
X62522493Y-34659948D01*
X62511294Y-34632912D01*
X62490601Y-34612219D01*
X62463565Y-34601021D01*
X62434302Y-34601021D01*
X62407266Y-34612220D01*
X62395900Y-34621548D01*
X62359255Y-34659504D01*
X62290533Y-34694893D01*
X62040214Y-34696094D01*
X61971529Y-34662767D01*
X61940202Y-34632521D01*
X61904798Y-34563770D01*
X61903642Y-34361034D01*
X61936939Y-34292412D01*
X61967183Y-34261085D01*
X62036040Y-34225627D01*
X62162834Y-34224467D01*
X62172926Y-34225140D01*
X62175250Y-34224353D01*
X62177852Y-34224330D01*
X62189109Y-34219666D01*
X62200647Y-34215765D01*
X62202551Y-34214099D01*
X62204888Y-34213131D01*
X62213498Y-34204520D01*
X62222671Y-34196495D01*
X62223793Y-34194225D01*
X62225580Y-34192439D01*
X62230240Y-34181188D01*
X62235643Y-34170263D01*
X62235811Y-34167739D01*
X62236779Y-34165403D01*
X62236779Y-34153218D01*
X62237589Y-34141065D01*
X62236779Y-34138669D01*
X62236779Y-34136139D01*
X62232115Y-34124881D01*
X62228214Y-34113344D01*
X62226128Y-34110426D01*
X62225580Y-34109103D01*
X62224184Y-34107707D01*
X62219663Y-34101383D01*
X61993586Y-33844446D01*
X62463566Y-33843378D01*
X62490602Y-33832179D01*
X62511294Y-33811487D01*
X62522493Y-33784451D01*
X62522493Y-33779199D01*
X62612619Y-33779199D01*
X62615879Y-33793536D01*
X62947656Y-34784413D01*
X62948027Y-34789629D01*
X62952191Y-34797959D01*
X62955206Y-34806961D01*
X62958716Y-34811008D01*
X62961113Y-34815802D01*
X62968221Y-34821967D01*
X62974380Y-34829068D01*
X62979169Y-34831462D01*
X62983220Y-34834976D01*
X62992145Y-34837950D01*
X63000553Y-34842155D01*
X63005897Y-34842534D01*
X63010983Y-34844230D01*
X63020363Y-34843563D01*
X63029743Y-34844230D01*
X63034828Y-34842534D01*
X63040173Y-34842155D01*
X63048583Y-34837949D01*
X63057505Y-34834976D01*
X63061552Y-34831465D01*
X63066346Y-34829069D01*
X63072509Y-34821963D01*
X63079613Y-34815802D01*
X63082008Y-34811010D01*
X63085520Y-34806962D01*
X63091514Y-34793536D01*
X63241600Y-34341247D01*
X63564411Y-34341247D01*
X63565703Y-34567851D01*
X63565000Y-34569961D01*
X63565777Y-34580903D01*
X63565852Y-34593974D01*
X63566883Y-34596463D01*
X63567074Y-34599151D01*
X63572329Y-34612883D01*
X63621019Y-34707435D01*
X63624669Y-34716247D01*
X63627052Y-34719151D01*
X63627780Y-34720564D01*
X63629278Y-34721863D01*
X63633996Y-34727612D01*
X63683031Y-34774953D01*
X63688665Y-34781450D01*
X63691810Y-34783429D01*
X63692981Y-34784560D01*
X63694808Y-34785317D01*
X63701108Y-34789282D01*
X63786997Y-34830957D01*
X63788219Y-34832179D01*
X63797078Y-34835848D01*
X63810077Y-34842156D01*
X63812766Y-34842347D01*
X63815255Y-34843378D01*
X63829887Y-34844819D01*
X64104041Y-34843503D01*
X64106220Y-34844230D01*
X64117340Y-34843439D01*
X64130233Y-34843378D01*
X64132722Y-34842346D01*
X64135410Y-34842156D01*
X64149142Y-34836901D01*
X64243696Y-34788209D01*
X64252507Y-34784560D01*
X64255409Y-34782177D01*
X64256823Y-34781450D01*
X64258123Y-34779950D01*
X64263873Y-34775232D01*
X64320819Y-34716247D01*
X64332017Y-34689211D01*
X64332017Y-34659948D01*
X64320818Y-34632912D01*
X64300125Y-34612219D01*
X64273089Y-34601021D01*
X64243826Y-34601021D01*
X64216790Y-34612220D01*
X64205424Y-34621548D01*
X64168779Y-34659504D01*
X64100057Y-34694893D01*
X63849738Y-34696094D01*
X63781053Y-34662767D01*
X63749726Y-34632521D01*
X63714322Y-34563770D01*
X63713166Y-34361034D01*
X63746463Y-34292412D01*
X63776707Y-34261085D01*
X63845564Y-34225627D01*
X63972358Y-34224467D01*
X63982450Y-34225140D01*
X63984774Y-34224353D01*
X63987376Y-34224330D01*
X63998633Y-34219666D01*
X64010171Y-34215765D01*
X64012075Y-34214099D01*
X64014412Y-34213131D01*
X64023022Y-34204520D01*
X64032195Y-34196495D01*
X64033317Y-34194225D01*
X64035104Y-34192439D01*
X64039764Y-34181188D01*
X64045167Y-34170263D01*
X64045335Y-34167739D01*
X64046303Y-34165403D01*
X64046303Y-34153218D01*
X64047113Y-34141065D01*
X64046303Y-34138669D01*
X64046303Y-34136139D01*
X64041639Y-34124881D01*
X64037738Y-34113344D01*
X64035652Y-34110426D01*
X64035104Y-34109103D01*
X64033708Y-34107707D01*
X64029187Y-34101383D01*
X63803110Y-33844446D01*
X64273090Y-33843378D01*
X64300126Y-33832179D01*
X64320818Y-33811487D01*
X64332017Y-33784451D01*
X64332017Y-33755187D01*
X64320818Y-33728151D01*
X64300126Y-33707459D01*
X64273090Y-33696260D01*
X64258458Y-33694819D01*
X63641294Y-33696222D01*
X63629705Y-33695450D01*
X63627327Y-33696254D01*
X63624779Y-33696260D01*
X63613521Y-33700923D01*
X63601984Y-33704825D01*
X63600079Y-33706490D01*
X63597743Y-33707459D01*
X63589132Y-33716069D01*
X63579960Y-33724095D01*
X63578837Y-33726364D01*
X63577051Y-33728151D01*
X63572390Y-33739401D01*
X63566988Y-33750327D01*
X63566819Y-33752850D01*
X63565852Y-33755187D01*
X63565852Y-33767371D01*
X63565042Y-33779525D01*
X63565852Y-33781920D01*
X63565852Y-33784451D01*
X63570515Y-33795708D01*
X63574417Y-33807246D01*
X63576502Y-33810163D01*
X63577051Y-33811487D01*
X63578446Y-33812882D01*
X63582968Y-33819207D01*
X63811003Y-34078368D01*
X63810077Y-34078434D01*
X63796346Y-34083689D01*
X63701791Y-34132380D01*
X63692981Y-34136030D01*
X63690078Y-34138412D01*
X63688665Y-34139140D01*
X63687365Y-34140638D01*
X63681616Y-34145357D01*
X63634274Y-34194392D01*
X63627780Y-34200025D01*
X63625800Y-34203170D01*
X63624670Y-34204341D01*
X63623912Y-34206168D01*
X63619948Y-34212468D01*
X63578273Y-34298356D01*
X63577051Y-34299579D01*
X63573378Y-34308444D01*
X63567074Y-34321438D01*
X63566883Y-34324125D01*
X63565852Y-34326615D01*
X63564411Y-34341247D01*
X63241600Y-34341247D01*
X63428107Y-33779200D01*
X63426032Y-33750010D01*
X63412946Y-33723836D01*
X63390838Y-33704662D01*
X63363076Y-33695408D01*
X63333886Y-33697483D01*
X63307713Y-33710570D01*
X63288539Y-33732677D01*
X63282545Y-33746102D01*
X63020795Y-34534895D01*
X62752187Y-33732676D01*
X62733013Y-33710569D01*
X62706840Y-33697483D01*
X62677650Y-33695408D01*
X62649887Y-33704662D01*
X62627780Y-33723836D01*
X62614694Y-33750009D01*
X62612619Y-33779199D01*
X62522493Y-33779199D01*
X62522493Y-33755187D01*
X62511294Y-33728151D01*
X62490602Y-33707459D01*
X62463566Y-33696260D01*
X62448934Y-33694819D01*
X61831770Y-33696222D01*
X61820181Y-33695450D01*
X61817803Y-33696254D01*
X61815255Y-33696260D01*
X61803997Y-33700923D01*
X61792460Y-33704825D01*
X61790555Y-33706490D01*
X61788219Y-33707459D01*
X61779608Y-33716069D01*
X61770436Y-33724095D01*
X61769313Y-33726364D01*
X61767527Y-33728151D01*
X61762866Y-33739401D01*
X61757464Y-33750327D01*
X61757295Y-33752850D01*
X61756328Y-33755187D01*
X61756328Y-33767371D01*
X61755518Y-33779525D01*
X61756328Y-33781920D01*
X61756328Y-33784451D01*
X61760991Y-33795708D01*
X61764893Y-33807246D01*
X61766978Y-33810163D01*
X61767527Y-33811487D01*
X61768922Y-33812882D01*
X61773444Y-33819207D01*
X62001479Y-34078368D01*
X62000553Y-34078434D01*
X61986822Y-34083689D01*
X61892267Y-34132380D01*
X61883457Y-34136030D01*
X61880554Y-34138412D01*
X61879141Y-34139140D01*
X61877841Y-34140638D01*
X61872092Y-34145357D01*
X61824750Y-34194392D01*
X61818256Y-34200025D01*
X61816276Y-34203170D01*
X61815146Y-34204341D01*
X61814388Y-34206168D01*
X61810424Y-34212468D01*
X61768749Y-34298356D01*
X61767527Y-34299579D01*
X61763854Y-34308444D01*
X61757550Y-34321438D01*
X61757359Y-34324125D01*
X61756328Y-34326615D01*
X61754887Y-34341247D01*
X61643776Y-34341247D01*
X61643776Y-33583708D01*
X64443128Y-33583708D01*
X64443128Y-34955930D01*
G37*
D11*
X115948496Y-42709800D02*
X115877068Y-42733609D01*
X115877068Y-42733609D02*
X115758020Y-42733609D01*
X115758020Y-42733609D02*
X115710401Y-42709800D01*
X115710401Y-42709800D02*
X115686592Y-42685990D01*
X115686592Y-42685990D02*
X115662782Y-42638371D01*
X115662782Y-42638371D02*
X115662782Y-42590752D01*
X115662782Y-42590752D02*
X115686592Y-42543133D01*
X115686592Y-42543133D02*
X115710401Y-42519323D01*
X115710401Y-42519323D02*
X115758020Y-42495514D01*
X115758020Y-42495514D02*
X115853258Y-42471704D01*
X115853258Y-42471704D02*
X115900877Y-42447895D01*
X115900877Y-42447895D02*
X115924687Y-42424085D01*
X115924687Y-42424085D02*
X115948496Y-42376466D01*
X115948496Y-42376466D02*
X115948496Y-42328847D01*
X115948496Y-42328847D02*
X115924687Y-42281228D01*
X115924687Y-42281228D02*
X115900877Y-42257419D01*
X115900877Y-42257419D02*
X115853258Y-42233609D01*
X115853258Y-42233609D02*
X115734211Y-42233609D01*
X115734211Y-42233609D02*
X115662782Y-42257419D01*
X115162783Y-42685990D02*
X115186592Y-42709800D01*
X115186592Y-42709800D02*
X115258021Y-42733609D01*
X115258021Y-42733609D02*
X115305640Y-42733609D01*
X115305640Y-42733609D02*
X115377068Y-42709800D01*
X115377068Y-42709800D02*
X115424687Y-42662180D01*
X115424687Y-42662180D02*
X115448497Y-42614561D01*
X115448497Y-42614561D02*
X115472306Y-42519323D01*
X115472306Y-42519323D02*
X115472306Y-42447895D01*
X115472306Y-42447895D02*
X115448497Y-42352657D01*
X115448497Y-42352657D02*
X115424687Y-42305038D01*
X115424687Y-42305038D02*
X115377068Y-42257419D01*
X115377068Y-42257419D02*
X115305640Y-42233609D01*
X115305640Y-42233609D02*
X115258021Y-42233609D01*
X115258021Y-42233609D02*
X115186592Y-42257419D01*
X115186592Y-42257419D02*
X115162783Y-42281228D01*
X114948497Y-42733609D02*
X114948497Y-42233609D01*
X114662783Y-42733609D02*
X114877068Y-42447895D01*
X114662783Y-42233609D02*
X114948497Y-42519323D01*
X39972306Y-40533609D02*
X39662782Y-40533609D01*
X39662782Y-40533609D02*
X39829449Y-40724085D01*
X39829449Y-40724085D02*
X39758020Y-40724085D01*
X39758020Y-40724085D02*
X39710401Y-40747895D01*
X39710401Y-40747895D02*
X39686592Y-40771704D01*
X39686592Y-40771704D02*
X39662782Y-40819323D01*
X39662782Y-40819323D02*
X39662782Y-40938371D01*
X39662782Y-40938371D02*
X39686592Y-40985990D01*
X39686592Y-40985990D02*
X39710401Y-41009800D01*
X39710401Y-41009800D02*
X39758020Y-41033609D01*
X39758020Y-41033609D02*
X39900877Y-41033609D01*
X39900877Y-41033609D02*
X39948496Y-41009800D01*
X39948496Y-41009800D02*
X39972306Y-40985990D01*
X39519925Y-40533609D02*
X39353259Y-41033609D01*
X39353259Y-41033609D02*
X39186592Y-40533609D01*
X39067545Y-40533609D02*
X38758021Y-40533609D01*
X38758021Y-40533609D02*
X38924688Y-40724085D01*
X38924688Y-40724085D02*
X38853259Y-40724085D01*
X38853259Y-40724085D02*
X38805640Y-40747895D01*
X38805640Y-40747895D02*
X38781831Y-40771704D01*
X38781831Y-40771704D02*
X38758021Y-40819323D01*
X38758021Y-40819323D02*
X38758021Y-40938371D01*
X38758021Y-40938371D02*
X38781831Y-40985990D01*
X38781831Y-40985990D02*
X38805640Y-41009800D01*
X38805640Y-41009800D02*
X38853259Y-41033609D01*
X38853259Y-41033609D02*
X38996116Y-41033609D01*
X38996116Y-41033609D02*
X39043735Y-41009800D01*
X39043735Y-41009800D02*
X39067545Y-40985990D01*
X115762782Y-40157419D02*
X115810401Y-40133609D01*
X115810401Y-40133609D02*
X115881830Y-40133609D01*
X115881830Y-40133609D02*
X115953258Y-40157419D01*
X115953258Y-40157419D02*
X116000877Y-40205038D01*
X116000877Y-40205038D02*
X116024687Y-40252657D01*
X116024687Y-40252657D02*
X116048496Y-40347895D01*
X116048496Y-40347895D02*
X116048496Y-40419323D01*
X116048496Y-40419323D02*
X116024687Y-40514561D01*
X116024687Y-40514561D02*
X116000877Y-40562180D01*
X116000877Y-40562180D02*
X115953258Y-40609800D01*
X115953258Y-40609800D02*
X115881830Y-40633609D01*
X115881830Y-40633609D02*
X115834211Y-40633609D01*
X115834211Y-40633609D02*
X115762782Y-40609800D01*
X115762782Y-40609800D02*
X115738973Y-40585990D01*
X115738973Y-40585990D02*
X115738973Y-40419323D01*
X115738973Y-40419323D02*
X115834211Y-40419323D01*
X115524687Y-40633609D02*
X115524687Y-40133609D01*
X115524687Y-40133609D02*
X115238973Y-40633609D01*
X115238973Y-40633609D02*
X115238973Y-40133609D01*
X115000877Y-40633609D02*
X115000877Y-40133609D01*
X115000877Y-40133609D02*
X114881829Y-40133609D01*
X114881829Y-40133609D02*
X114810401Y-40157419D01*
X114810401Y-40157419D02*
X114762782Y-40205038D01*
X114762782Y-40205038D02*
X114738972Y-40252657D01*
X114738972Y-40252657D02*
X114715163Y-40347895D01*
X114715163Y-40347895D02*
X114715163Y-40419323D01*
X114715163Y-40419323D02*
X114738972Y-40514561D01*
X114738972Y-40514561D02*
X114762782Y-40562180D01*
X114762782Y-40562180D02*
X114810401Y-40609800D01*
X114810401Y-40609800D02*
X114881829Y-40633609D01*
X114881829Y-40633609D02*
X115000877Y-40633609D01*
X116115163Y-44733609D02*
X116115163Y-44233609D01*
X116115163Y-44233609D02*
X115948496Y-44590752D01*
X115948496Y-44590752D02*
X115781830Y-44233609D01*
X115781830Y-44233609D02*
X115781830Y-44733609D01*
X115543734Y-44733609D02*
X115543734Y-44233609D01*
X115329448Y-44709800D02*
X115258020Y-44733609D01*
X115258020Y-44733609D02*
X115138972Y-44733609D01*
X115138972Y-44733609D02*
X115091353Y-44709800D01*
X115091353Y-44709800D02*
X115067544Y-44685990D01*
X115067544Y-44685990D02*
X115043734Y-44638371D01*
X115043734Y-44638371D02*
X115043734Y-44590752D01*
X115043734Y-44590752D02*
X115067544Y-44543133D01*
X115067544Y-44543133D02*
X115091353Y-44519323D01*
X115091353Y-44519323D02*
X115138972Y-44495514D01*
X115138972Y-44495514D02*
X115234210Y-44471704D01*
X115234210Y-44471704D02*
X115281829Y-44447895D01*
X115281829Y-44447895D02*
X115305639Y-44424085D01*
X115305639Y-44424085D02*
X115329448Y-44376466D01*
X115329448Y-44376466D02*
X115329448Y-44328847D01*
X115329448Y-44328847D02*
X115305639Y-44281228D01*
X115305639Y-44281228D02*
X115281829Y-44257419D01*
X115281829Y-44257419D02*
X115234210Y-44233609D01*
X115234210Y-44233609D02*
X115115163Y-44233609D01*
X115115163Y-44233609D02*
X115043734Y-44257419D01*
X114734211Y-44233609D02*
X114638973Y-44233609D01*
X114638973Y-44233609D02*
X114591354Y-44257419D01*
X114591354Y-44257419D02*
X114543735Y-44305038D01*
X114543735Y-44305038D02*
X114519925Y-44400276D01*
X114519925Y-44400276D02*
X114519925Y-44566942D01*
X114519925Y-44566942D02*
X114543735Y-44662180D01*
X114543735Y-44662180D02*
X114591354Y-44709800D01*
X114591354Y-44709800D02*
X114638973Y-44733609D01*
X114638973Y-44733609D02*
X114734211Y-44733609D01*
X114734211Y-44733609D02*
X114781830Y-44709800D01*
X114781830Y-44709800D02*
X114829449Y-44662180D01*
X114829449Y-44662180D02*
X114853258Y-44566942D01*
X114853258Y-44566942D02*
X114853258Y-44400276D01*
X114853258Y-44400276D02*
X114829449Y-44305038D01*
X114829449Y-44305038D02*
X114781830Y-44257419D01*
X114781830Y-44257419D02*
X114734211Y-44233609D01*
X116072306Y-41233609D02*
X115762782Y-41233609D01*
X115762782Y-41233609D02*
X115929449Y-41424085D01*
X115929449Y-41424085D02*
X115858020Y-41424085D01*
X115858020Y-41424085D02*
X115810401Y-41447895D01*
X115810401Y-41447895D02*
X115786592Y-41471704D01*
X115786592Y-41471704D02*
X115762782Y-41519323D01*
X115762782Y-41519323D02*
X115762782Y-41638371D01*
X115762782Y-41638371D02*
X115786592Y-41685990D01*
X115786592Y-41685990D02*
X115810401Y-41709800D01*
X115810401Y-41709800D02*
X115858020Y-41733609D01*
X115858020Y-41733609D02*
X116000877Y-41733609D01*
X116000877Y-41733609D02*
X116048496Y-41709800D01*
X116048496Y-41709800D02*
X116072306Y-41685990D01*
X115619925Y-41233609D02*
X115453259Y-41733609D01*
X115453259Y-41733609D02*
X115286592Y-41233609D01*
X115167545Y-41233609D02*
X114858021Y-41233609D01*
X114858021Y-41233609D02*
X115024688Y-41424085D01*
X115024688Y-41424085D02*
X114953259Y-41424085D01*
X114953259Y-41424085D02*
X114905640Y-41447895D01*
X114905640Y-41447895D02*
X114881831Y-41471704D01*
X114881831Y-41471704D02*
X114858021Y-41519323D01*
X114858021Y-41519323D02*
X114858021Y-41638371D01*
X114858021Y-41638371D02*
X114881831Y-41685990D01*
X114881831Y-41685990D02*
X114905640Y-41709800D01*
X114905640Y-41709800D02*
X114953259Y-41733609D01*
X114953259Y-41733609D02*
X115096116Y-41733609D01*
X115096116Y-41733609D02*
X115143735Y-41709800D01*
X115143735Y-41709800D02*
X115167545Y-41685990D01*
X116115163Y-45733609D02*
X116115163Y-45233609D01*
X116115163Y-45233609D02*
X115829449Y-45733609D01*
X115829449Y-45733609D02*
X115829449Y-45233609D01*
X115615162Y-45709800D02*
X115543734Y-45733609D01*
X115543734Y-45733609D02*
X115424686Y-45733609D01*
X115424686Y-45733609D02*
X115377067Y-45709800D01*
X115377067Y-45709800D02*
X115353258Y-45685990D01*
X115353258Y-45685990D02*
X115329448Y-45638371D01*
X115329448Y-45638371D02*
X115329448Y-45590752D01*
X115329448Y-45590752D02*
X115353258Y-45543133D01*
X115353258Y-45543133D02*
X115377067Y-45519323D01*
X115377067Y-45519323D02*
X115424686Y-45495514D01*
X115424686Y-45495514D02*
X115519924Y-45471704D01*
X115519924Y-45471704D02*
X115567543Y-45447895D01*
X115567543Y-45447895D02*
X115591353Y-45424085D01*
X115591353Y-45424085D02*
X115615162Y-45376466D01*
X115615162Y-45376466D02*
X115615162Y-45328847D01*
X115615162Y-45328847D02*
X115591353Y-45281228D01*
X115591353Y-45281228D02*
X115567543Y-45257419D01*
X115567543Y-45257419D02*
X115519924Y-45233609D01*
X115519924Y-45233609D02*
X115400877Y-45233609D01*
X115400877Y-45233609D02*
X115329448Y-45257419D01*
X115138972Y-45709800D02*
X115067544Y-45733609D01*
X115067544Y-45733609D02*
X114948496Y-45733609D01*
X114948496Y-45733609D02*
X114900877Y-45709800D01*
X114900877Y-45709800D02*
X114877068Y-45685990D01*
X114877068Y-45685990D02*
X114853258Y-45638371D01*
X114853258Y-45638371D02*
X114853258Y-45590752D01*
X114853258Y-45590752D02*
X114877068Y-45543133D01*
X114877068Y-45543133D02*
X114900877Y-45519323D01*
X114900877Y-45519323D02*
X114948496Y-45495514D01*
X114948496Y-45495514D02*
X115043734Y-45471704D01*
X115043734Y-45471704D02*
X115091353Y-45447895D01*
X115091353Y-45447895D02*
X115115163Y-45424085D01*
X115115163Y-45424085D02*
X115138972Y-45376466D01*
X115138972Y-45376466D02*
X115138972Y-45328847D01*
X115138972Y-45328847D02*
X115115163Y-45281228D01*
X115115163Y-45281228D02*
X115091353Y-45257419D01*
X115091353Y-45257419D02*
X115043734Y-45233609D01*
X115043734Y-45233609D02*
X114924687Y-45233609D01*
X114924687Y-45233609D02*
X114853258Y-45257419D01*
X40024687Y-45033609D02*
X40024687Y-44533609D01*
X40024687Y-44533609D02*
X39738973Y-45033609D01*
X39738973Y-45033609D02*
X39738973Y-44533609D01*
X39524686Y-45009800D02*
X39453258Y-45033609D01*
X39453258Y-45033609D02*
X39334210Y-45033609D01*
X39334210Y-45033609D02*
X39286591Y-45009800D01*
X39286591Y-45009800D02*
X39262782Y-44985990D01*
X39262782Y-44985990D02*
X39238972Y-44938371D01*
X39238972Y-44938371D02*
X39238972Y-44890752D01*
X39238972Y-44890752D02*
X39262782Y-44843133D01*
X39262782Y-44843133D02*
X39286591Y-44819323D01*
X39286591Y-44819323D02*
X39334210Y-44795514D01*
X39334210Y-44795514D02*
X39429448Y-44771704D01*
X39429448Y-44771704D02*
X39477067Y-44747895D01*
X39477067Y-44747895D02*
X39500877Y-44724085D01*
X39500877Y-44724085D02*
X39524686Y-44676466D01*
X39524686Y-44676466D02*
X39524686Y-44628847D01*
X39524686Y-44628847D02*
X39500877Y-44581228D01*
X39500877Y-44581228D02*
X39477067Y-44557419D01*
X39477067Y-44557419D02*
X39429448Y-44533609D01*
X39429448Y-44533609D02*
X39310401Y-44533609D01*
X39310401Y-44533609D02*
X39238972Y-44557419D01*
X39048496Y-45009800D02*
X38977068Y-45033609D01*
X38977068Y-45033609D02*
X38858020Y-45033609D01*
X38858020Y-45033609D02*
X38810401Y-45009800D01*
X38810401Y-45009800D02*
X38786592Y-44985990D01*
X38786592Y-44985990D02*
X38762782Y-44938371D01*
X38762782Y-44938371D02*
X38762782Y-44890752D01*
X38762782Y-44890752D02*
X38786592Y-44843133D01*
X38786592Y-44843133D02*
X38810401Y-44819323D01*
X38810401Y-44819323D02*
X38858020Y-44795514D01*
X38858020Y-44795514D02*
X38953258Y-44771704D01*
X38953258Y-44771704D02*
X39000877Y-44747895D01*
X39000877Y-44747895D02*
X39024687Y-44724085D01*
X39024687Y-44724085D02*
X39048496Y-44676466D01*
X39048496Y-44676466D02*
X39048496Y-44628847D01*
X39048496Y-44628847D02*
X39024687Y-44581228D01*
X39024687Y-44581228D02*
X39000877Y-44557419D01*
X39000877Y-44557419D02*
X38953258Y-44533609D01*
X38953258Y-44533609D02*
X38834211Y-44533609D01*
X38834211Y-44533609D02*
X38762782Y-44557419D01*
X40024687Y-44033609D02*
X40024687Y-43533609D01*
X40024687Y-43533609D02*
X39858020Y-43890752D01*
X39858020Y-43890752D02*
X39691354Y-43533609D01*
X39691354Y-43533609D02*
X39691354Y-44033609D01*
X39453258Y-44033609D02*
X39453258Y-43533609D01*
X39238972Y-44009800D02*
X39167544Y-44033609D01*
X39167544Y-44033609D02*
X39048496Y-44033609D01*
X39048496Y-44033609D02*
X39000877Y-44009800D01*
X39000877Y-44009800D02*
X38977068Y-43985990D01*
X38977068Y-43985990D02*
X38953258Y-43938371D01*
X38953258Y-43938371D02*
X38953258Y-43890752D01*
X38953258Y-43890752D02*
X38977068Y-43843133D01*
X38977068Y-43843133D02*
X39000877Y-43819323D01*
X39000877Y-43819323D02*
X39048496Y-43795514D01*
X39048496Y-43795514D02*
X39143734Y-43771704D01*
X39143734Y-43771704D02*
X39191353Y-43747895D01*
X39191353Y-43747895D02*
X39215163Y-43724085D01*
X39215163Y-43724085D02*
X39238972Y-43676466D01*
X39238972Y-43676466D02*
X39238972Y-43628847D01*
X39238972Y-43628847D02*
X39215163Y-43581228D01*
X39215163Y-43581228D02*
X39191353Y-43557419D01*
X39191353Y-43557419D02*
X39143734Y-43533609D01*
X39143734Y-43533609D02*
X39024687Y-43533609D01*
X39024687Y-43533609D02*
X38953258Y-43557419D01*
X38643735Y-43533609D02*
X38548497Y-43533609D01*
X38548497Y-43533609D02*
X38500878Y-43557419D01*
X38500878Y-43557419D02*
X38453259Y-43605038D01*
X38453259Y-43605038D02*
X38429449Y-43700276D01*
X38429449Y-43700276D02*
X38429449Y-43866942D01*
X38429449Y-43866942D02*
X38453259Y-43962180D01*
X38453259Y-43962180D02*
X38500878Y-44009800D01*
X38500878Y-44009800D02*
X38548497Y-44033609D01*
X38548497Y-44033609D02*
X38643735Y-44033609D01*
X38643735Y-44033609D02*
X38691354Y-44009800D01*
X38691354Y-44009800D02*
X38738973Y-43962180D01*
X38738973Y-43962180D02*
X38762782Y-43866942D01*
X38762782Y-43866942D02*
X38762782Y-43700276D01*
X38762782Y-43700276D02*
X38738973Y-43605038D01*
X38738973Y-43605038D02*
X38691354Y-43557419D01*
X38691354Y-43557419D02*
X38643735Y-43533609D01*
X116015163Y-43733609D02*
X116015163Y-43233609D01*
X116015163Y-43233609D02*
X115848496Y-43590752D01*
X115848496Y-43590752D02*
X115681830Y-43233609D01*
X115681830Y-43233609D02*
X115681830Y-43733609D01*
X115443734Y-43733609D02*
X115443734Y-43233609D01*
X115229448Y-43709800D02*
X115158020Y-43733609D01*
X115158020Y-43733609D02*
X115038972Y-43733609D01*
X115038972Y-43733609D02*
X114991353Y-43709800D01*
X114991353Y-43709800D02*
X114967544Y-43685990D01*
X114967544Y-43685990D02*
X114943734Y-43638371D01*
X114943734Y-43638371D02*
X114943734Y-43590752D01*
X114943734Y-43590752D02*
X114967544Y-43543133D01*
X114967544Y-43543133D02*
X114991353Y-43519323D01*
X114991353Y-43519323D02*
X115038972Y-43495514D01*
X115038972Y-43495514D02*
X115134210Y-43471704D01*
X115134210Y-43471704D02*
X115181829Y-43447895D01*
X115181829Y-43447895D02*
X115205639Y-43424085D01*
X115205639Y-43424085D02*
X115229448Y-43376466D01*
X115229448Y-43376466D02*
X115229448Y-43328847D01*
X115229448Y-43328847D02*
X115205639Y-43281228D01*
X115205639Y-43281228D02*
X115181829Y-43257419D01*
X115181829Y-43257419D02*
X115134210Y-43233609D01*
X115134210Y-43233609D02*
X115015163Y-43233609D01*
X115015163Y-43233609D02*
X114943734Y-43257419D01*
X114634211Y-43233609D02*
X114538973Y-43233609D01*
X114538973Y-43233609D02*
X114491354Y-43257419D01*
X114491354Y-43257419D02*
X114443735Y-43305038D01*
X114443735Y-43305038D02*
X114419925Y-43400276D01*
X114419925Y-43400276D02*
X114419925Y-43566942D01*
X114419925Y-43566942D02*
X114443735Y-43662180D01*
X114443735Y-43662180D02*
X114491354Y-43709800D01*
X114491354Y-43709800D02*
X114538973Y-43733609D01*
X114538973Y-43733609D02*
X114634211Y-43733609D01*
X114634211Y-43733609D02*
X114681830Y-43709800D01*
X114681830Y-43709800D02*
X114729449Y-43662180D01*
X114729449Y-43662180D02*
X114753258Y-43566942D01*
X114753258Y-43566942D02*
X114753258Y-43400276D01*
X114753258Y-43400276D02*
X114729449Y-43305038D01*
X114729449Y-43305038D02*
X114681830Y-43257419D01*
X114681830Y-43257419D02*
X114634211Y-43233609D01*
X39662782Y-39457419D02*
X39710401Y-39433609D01*
X39710401Y-39433609D02*
X39781830Y-39433609D01*
X39781830Y-39433609D02*
X39853258Y-39457419D01*
X39853258Y-39457419D02*
X39900877Y-39505038D01*
X39900877Y-39505038D02*
X39924687Y-39552657D01*
X39924687Y-39552657D02*
X39948496Y-39647895D01*
X39948496Y-39647895D02*
X39948496Y-39719323D01*
X39948496Y-39719323D02*
X39924687Y-39814561D01*
X39924687Y-39814561D02*
X39900877Y-39862180D01*
X39900877Y-39862180D02*
X39853258Y-39909800D01*
X39853258Y-39909800D02*
X39781830Y-39933609D01*
X39781830Y-39933609D02*
X39734211Y-39933609D01*
X39734211Y-39933609D02*
X39662782Y-39909800D01*
X39662782Y-39909800D02*
X39638973Y-39885990D01*
X39638973Y-39885990D02*
X39638973Y-39719323D01*
X39638973Y-39719323D02*
X39734211Y-39719323D01*
X39424687Y-39933609D02*
X39424687Y-39433609D01*
X39424687Y-39433609D02*
X39138973Y-39933609D01*
X39138973Y-39933609D02*
X39138973Y-39433609D01*
X38900877Y-39933609D02*
X38900877Y-39433609D01*
X38900877Y-39433609D02*
X38781829Y-39433609D01*
X38781829Y-39433609D02*
X38710401Y-39457419D01*
X38710401Y-39457419D02*
X38662782Y-39505038D01*
X38662782Y-39505038D02*
X38638972Y-39552657D01*
X38638972Y-39552657D02*
X38615163Y-39647895D01*
X38615163Y-39647895D02*
X38615163Y-39719323D01*
X38615163Y-39719323D02*
X38638972Y-39814561D01*
X38638972Y-39814561D02*
X38662782Y-39862180D01*
X38662782Y-39862180D02*
X38710401Y-39909800D01*
X38710401Y-39909800D02*
X38781829Y-39933609D01*
X38781829Y-39933609D02*
X38900877Y-39933609D01*
X39848496Y-42009800D02*
X39777068Y-42033609D01*
X39777068Y-42033609D02*
X39658020Y-42033609D01*
X39658020Y-42033609D02*
X39610401Y-42009800D01*
X39610401Y-42009800D02*
X39586592Y-41985990D01*
X39586592Y-41985990D02*
X39562782Y-41938371D01*
X39562782Y-41938371D02*
X39562782Y-41890752D01*
X39562782Y-41890752D02*
X39586592Y-41843133D01*
X39586592Y-41843133D02*
X39610401Y-41819323D01*
X39610401Y-41819323D02*
X39658020Y-41795514D01*
X39658020Y-41795514D02*
X39753258Y-41771704D01*
X39753258Y-41771704D02*
X39800877Y-41747895D01*
X39800877Y-41747895D02*
X39824687Y-41724085D01*
X39824687Y-41724085D02*
X39848496Y-41676466D01*
X39848496Y-41676466D02*
X39848496Y-41628847D01*
X39848496Y-41628847D02*
X39824687Y-41581228D01*
X39824687Y-41581228D02*
X39800877Y-41557419D01*
X39800877Y-41557419D02*
X39753258Y-41533609D01*
X39753258Y-41533609D02*
X39634211Y-41533609D01*
X39634211Y-41533609D02*
X39562782Y-41557419D01*
X39062783Y-41985990D02*
X39086592Y-42009800D01*
X39086592Y-42009800D02*
X39158021Y-42033609D01*
X39158021Y-42033609D02*
X39205640Y-42033609D01*
X39205640Y-42033609D02*
X39277068Y-42009800D01*
X39277068Y-42009800D02*
X39324687Y-41962180D01*
X39324687Y-41962180D02*
X39348497Y-41914561D01*
X39348497Y-41914561D02*
X39372306Y-41819323D01*
X39372306Y-41819323D02*
X39372306Y-41747895D01*
X39372306Y-41747895D02*
X39348497Y-41652657D01*
X39348497Y-41652657D02*
X39324687Y-41605038D01*
X39324687Y-41605038D02*
X39277068Y-41557419D01*
X39277068Y-41557419D02*
X39205640Y-41533609D01*
X39205640Y-41533609D02*
X39158021Y-41533609D01*
X39158021Y-41533609D02*
X39086592Y-41557419D01*
X39086592Y-41557419D02*
X39062783Y-41581228D01*
X38848497Y-42033609D02*
X38848497Y-41533609D01*
X38562783Y-42033609D02*
X38777068Y-41747895D01*
X38562783Y-41533609D02*
X38848497Y-41819323D01*
X40015163Y-43033609D02*
X40015163Y-42533609D01*
X40015163Y-42533609D02*
X39848496Y-42890752D01*
X39848496Y-42890752D02*
X39681830Y-42533609D01*
X39681830Y-42533609D02*
X39681830Y-43033609D01*
X39443734Y-43033609D02*
X39443734Y-42533609D01*
X39229448Y-43009800D02*
X39158020Y-43033609D01*
X39158020Y-43033609D02*
X39038972Y-43033609D01*
X39038972Y-43033609D02*
X38991353Y-43009800D01*
X38991353Y-43009800D02*
X38967544Y-42985990D01*
X38967544Y-42985990D02*
X38943734Y-42938371D01*
X38943734Y-42938371D02*
X38943734Y-42890752D01*
X38943734Y-42890752D02*
X38967544Y-42843133D01*
X38967544Y-42843133D02*
X38991353Y-42819323D01*
X38991353Y-42819323D02*
X39038972Y-42795514D01*
X39038972Y-42795514D02*
X39134210Y-42771704D01*
X39134210Y-42771704D02*
X39181829Y-42747895D01*
X39181829Y-42747895D02*
X39205639Y-42724085D01*
X39205639Y-42724085D02*
X39229448Y-42676466D01*
X39229448Y-42676466D02*
X39229448Y-42628847D01*
X39229448Y-42628847D02*
X39205639Y-42581228D01*
X39205639Y-42581228D02*
X39181829Y-42557419D01*
X39181829Y-42557419D02*
X39134210Y-42533609D01*
X39134210Y-42533609D02*
X39015163Y-42533609D01*
X39015163Y-42533609D02*
X38943734Y-42557419D01*
X38634211Y-42533609D02*
X38538973Y-42533609D01*
X38538973Y-42533609D02*
X38491354Y-42557419D01*
X38491354Y-42557419D02*
X38443735Y-42605038D01*
X38443735Y-42605038D02*
X38419925Y-42700276D01*
X38419925Y-42700276D02*
X38419925Y-42866942D01*
X38419925Y-42866942D02*
X38443735Y-42962180D01*
X38443735Y-42962180D02*
X38491354Y-43009800D01*
X38491354Y-43009800D02*
X38538973Y-43033609D01*
X38538973Y-43033609D02*
X38634211Y-43033609D01*
X38634211Y-43033609D02*
X38681830Y-43009800D01*
X38681830Y-43009800D02*
X38729449Y-42962180D01*
X38729449Y-42962180D02*
X38753258Y-42866942D01*
X38753258Y-42866942D02*
X38753258Y-42700276D01*
X38753258Y-42700276D02*
X38729449Y-42605038D01*
X38729449Y-42605038D02*
X38681830Y-42557419D01*
X38681830Y-42557419D02*
X38634211Y-42533609D01*
D12*
%TO.C,TP6*%
X116290000Y-61700000D02*
X117690000Y-61700000D01*
X117690000Y-61700000D02*
X117690000Y-63100000D01*
X116290000Y-63100000D02*
X116290000Y-61700000D01*
X117690000Y-63100000D02*
X116290000Y-63100000D01*
%TO.C,TP5*%
X117820000Y-59990000D02*
X119220000Y-59990000D01*
X119220000Y-59990000D02*
X119220000Y-61390000D01*
X117820000Y-61390000D02*
X117820000Y-59990000D01*
X119220000Y-61390000D02*
X117820000Y-61390000D01*
%TO.C,TP4*%
X116340000Y-58300000D02*
X117740000Y-58300000D01*
X117740000Y-58300000D02*
X117740000Y-59700000D01*
X116340000Y-59700000D02*
X116340000Y-58300000D01*
X117740000Y-59700000D02*
X116340000Y-59700000D01*
%TO.C,TP3*%
X36666500Y-55733500D02*
X38066500Y-55733500D01*
X38066500Y-55733500D02*
X38066500Y-57133500D01*
X36666500Y-57133500D02*
X36666500Y-55733500D01*
X38066500Y-57133500D02*
X36666500Y-57133500D01*
%TO.C,TP2*%
X34566500Y-57433500D02*
X35966500Y-57433500D01*
X35966500Y-57433500D02*
X35966500Y-58833500D01*
X34566500Y-58833500D02*
X34566500Y-57433500D01*
X35966500Y-58833500D02*
X34566500Y-58833500D01*
%TO.C,TP1*%
X36686500Y-59143500D02*
X38086500Y-59143500D01*
X38086500Y-59143500D02*
X38086500Y-60543500D01*
X36686500Y-60543500D02*
X36686500Y-59143500D01*
X38086500Y-60543500D02*
X36686500Y-60543500D01*
%TO.C,TP18*%
X66600000Y-39900000D02*
G75*
G02*
X65200000Y-39900000I-700000J0D01*
G01*
X65200000Y-39900000D02*
G75*
G02*
X66600000Y-39900000I700000J0D01*
G01*
%TO.C,TP17*%
X92900000Y-59100000D02*
G75*
G02*
X91500000Y-59100000I-700000J0D01*
G01*
X91500000Y-59100000D02*
G75*
G02*
X92900000Y-59100000I700000J0D01*
G01*
%TO.C,TP16*%
X97300000Y-66300000D02*
G75*
G02*
X95900000Y-66300000I-700000J0D01*
G01*
X95900000Y-66300000D02*
G75*
G02*
X97300000Y-66300000I700000J0D01*
G01*
%TO.C,TP8*%
X95100000Y-63600000D02*
G75*
G02*
X93700000Y-63600000I-700000J0D01*
G01*
X93700000Y-63600000D02*
G75*
G02*
X95100000Y-63600000I700000J0D01*
G01*
%TO.C,TP15*%
X63800000Y-51200000D02*
G75*
G02*
X62400000Y-51200000I-700000J0D01*
G01*
X62400000Y-51200000D02*
G75*
G02*
X63800000Y-51200000I700000J0D01*
G01*
%TO.C,TP14*%
X58800000Y-54700000D02*
G75*
G02*
X57400000Y-54700000I-700000J0D01*
G01*
X57400000Y-54700000D02*
G75*
G02*
X58800000Y-54700000I700000J0D01*
G01*
%TO.C,TP13*%
X61600000Y-55100000D02*
G75*
G02*
X60200000Y-55100000I-700000J0D01*
G01*
X60200000Y-55100000D02*
G75*
G02*
X61600000Y-55100000I700000J0D01*
G01*
%TO.C,TP12*%
X88700000Y-58500000D02*
G75*
G02*
X87300000Y-58500000I-700000J0D01*
G01*
X87300000Y-58500000D02*
G75*
G02*
X88700000Y-58500000I700000J0D01*
G01*
%TO.C,TP11*%
X81400000Y-58100000D02*
G75*
G02*
X80000000Y-58100000I-700000J0D01*
G01*
X80000000Y-58100000D02*
G75*
G02*
X81400000Y-58100000I700000J0D01*
G01*
%TO.C,TP10*%
X65500000Y-56800000D02*
G75*
G02*
X64100000Y-56800000I-700000J0D01*
G01*
X64100000Y-56800000D02*
G75*
G02*
X65500000Y-56800000I700000J0D01*
G01*
%TO.C,TP9*%
X77400000Y-59600000D02*
G75*
G02*
X76000000Y-59600000I-700000J0D01*
G01*
X76000000Y-59600000D02*
G75*
G02*
X77400000Y-59600000I700000J0D01*
G01*
%TO.C,TP7*%
X64000000Y-36000000D02*
G75*
G02*
X62600000Y-36000000I-700000J0D01*
G01*
X62600000Y-36000000D02*
G75*
G02*
X64000000Y-36000000I700000J0D01*
G01*
%TO.C,FB2*%
X60411252Y-41410000D02*
X58988748Y-41410000D01*
X60411252Y-39590000D02*
X58988748Y-39590000D01*
%TO.C,FB1*%
X89590000Y-34646267D02*
X89590000Y-34353733D01*
X90610000Y-34646267D02*
X90610000Y-34353733D01*
%TO.C,R3*%
X56492224Y-33877500D02*
X55982776Y-33877500D01*
X56492224Y-34922500D02*
X55982776Y-34922500D01*
%TO.C,D1*%
X54577500Y-32065000D02*
X54577500Y-33535000D01*
X57037500Y-32065000D02*
X54577500Y-32065000D01*
X54577500Y-33535000D02*
X57037500Y-33535000D01*
%TO.C,C7*%
X47447500Y-39046267D02*
X47447500Y-38753733D01*
X46427500Y-39046267D02*
X46427500Y-38753733D01*
%TO.C,C6*%
X45772500Y-38923752D02*
X45772500Y-38401248D01*
X44302500Y-38923752D02*
X44302500Y-38401248D01*
D13*
%TO.C,U3*%
X51488500Y-38532000D02*
G75*
G02*
X51188500Y-38532000I-150000J0D01*
G01*
X51188500Y-38532000D02*
G75*
G02*
X51488500Y-38532000I150000J0D01*
G01*
D14*
X49148500Y-41739000D02*
X50926500Y-41739000D01*
X49148500Y-38661000D02*
X50926500Y-38661000D01*
D12*
%TO.C,R53*%
X45782776Y-42222500D02*
X46292224Y-42222500D01*
X45782776Y-41177500D02*
X46292224Y-41177500D01*
%TO.C,R2*%
X53992224Y-42467500D02*
X53482776Y-42467500D01*
X53992224Y-43512500D02*
X53482776Y-43512500D01*
%TO.C,R1*%
X53482776Y-41922500D02*
X53992224Y-41922500D01*
X53482776Y-40877500D02*
X53992224Y-40877500D01*
%TO.C,L1*%
X53937500Y-32100000D02*
X47937500Y-32100000D01*
X53937500Y-36300000D02*
X47937500Y-36300000D01*
%TO.C,C5*%
X54727500Y-37088748D02*
X54727500Y-38511252D01*
X56547500Y-37088748D02*
X56547500Y-38511252D01*
%TO.C,C4*%
X52402500Y-38238748D02*
X52402500Y-38761252D01*
X53872500Y-38238748D02*
X53872500Y-38761252D01*
%TO.C,C3*%
X57327500Y-36953733D02*
X57327500Y-37246267D01*
X58347500Y-36953733D02*
X58347500Y-37246267D01*
%TO.C,C2*%
X43547500Y-38811252D02*
X43547500Y-37388748D01*
X41727500Y-38811252D02*
X41727500Y-37388748D01*
%TO.C,C1*%
X49891233Y-37910000D02*
X50183767Y-37910000D01*
X49891233Y-36890000D02*
X50183767Y-36890000D01*
%TO.C,R20*%
X89977500Y-62357776D02*
X89977500Y-62867224D01*
X91022500Y-62357776D02*
X91022500Y-62867224D01*
%TO.C,R23*%
X52475276Y-67667500D02*
X52984724Y-67667500D01*
X52475276Y-68712500D02*
X52984724Y-68712500D01*
D15*
%TO.C,J5*%
X32740000Y-39480000D02*
X32740000Y-45080000D01*
X35158000Y-38105000D02*
X37013000Y-38105000D01*
X35171000Y-46455000D02*
X37040000Y-46455000D01*
X37040000Y-38105000D02*
X37040000Y-39299000D01*
X37040000Y-40261000D02*
X37040000Y-40299000D01*
X37040000Y-41261000D02*
X37040000Y-41299000D01*
X37040000Y-42261000D02*
X37040000Y-42299000D01*
X37040000Y-43261000D02*
X37040000Y-43299000D01*
X37040000Y-44261000D02*
X37040000Y-44299000D01*
X37040000Y-46455000D02*
X37040000Y-45261000D01*
D12*
X37648000Y-45558000D02*
X37267000Y-45812000D01*
X37267000Y-45304000D01*
X37648000Y-45558000D01*
G36*
X37648000Y-45558000D02*
G01*
X37267000Y-45812000D01*
X37267000Y-45304000D01*
X37648000Y-45558000D01*
G37*
D14*
%TO.C,D2*%
X97574000Y-69776000D02*
X97574000Y-67024000D01*
X97767000Y-69776000D02*
X97574000Y-69776000D01*
X99233000Y-69776000D02*
X99426000Y-69776000D01*
X99376000Y-67483000D02*
X97624000Y-67483000D01*
X99426000Y-69776000D02*
X99426000Y-67024000D01*
D12*
X97818000Y-67100000D02*
X97498000Y-67100000D01*
X97498000Y-66795000D01*
X97818000Y-66795000D01*
X97818000Y-67100000D01*
G36*
X97818000Y-67100000D02*
G01*
X97498000Y-67100000D01*
X97498000Y-66795000D01*
X97818000Y-66795000D01*
X97818000Y-67100000D01*
G37*
X99502000Y-67100000D02*
X99182000Y-67100000D01*
X99182000Y-66795000D01*
X99502000Y-66795000D01*
X99502000Y-67100000D01*
G36*
X99502000Y-67100000D02*
G01*
X99182000Y-67100000D01*
X99182000Y-66795000D01*
X99502000Y-66795000D01*
X99502000Y-67100000D01*
G37*
%TO.C,R8*%
X42057224Y-68377500D02*
X41547776Y-68377500D01*
X42057224Y-69422500D02*
X41547776Y-69422500D01*
D15*
%TO.C,Q11*%
X111817500Y-53779476D02*
X115117500Y-53779476D01*
X115117500Y-57079476D02*
X111817500Y-57079476D01*
X111367500Y-56429476D02*
G75*
G02*
X111167500Y-56429476I-100000J0D01*
G01*
X111167500Y-56429476D02*
G75*
G02*
X111367500Y-56429476I100000J0D01*
G01*
D12*
%TO.C,R17*%
X113097776Y-52548976D02*
X113607224Y-52548976D01*
X113097776Y-53593976D02*
X113607224Y-53593976D01*
%TO.C,C38*%
X74178733Y-56020000D02*
X74471267Y-56020000D01*
X74178733Y-57040000D02*
X74471267Y-57040000D01*
%TO.C,C41*%
X78891233Y-59690000D02*
X79183767Y-59690000D01*
X78891233Y-60710000D02*
X79183767Y-60710000D01*
D15*
%TO.C,Q9*%
X111565000Y-61150000D02*
X114865000Y-61150000D01*
X114865000Y-64450000D02*
X111565000Y-64450000D01*
X111115000Y-63800000D02*
G75*
G02*
X110915000Y-63800000I-100000J0D01*
G01*
X110915000Y-63800000D02*
G75*
G02*
X111115000Y-63800000I100000J0D01*
G01*
D12*
%TO.C,C29*%
X52990000Y-55646267D02*
X52990000Y-55353733D01*
X54010000Y-55646267D02*
X54010000Y-55353733D01*
D15*
%TO.C,Q8*%
X107667500Y-68671476D02*
X110967500Y-68671476D01*
X110967500Y-71971476D02*
X107667500Y-71971476D01*
X107217500Y-71321476D02*
G75*
G02*
X107017500Y-71321476I-100000J0D01*
G01*
X107017500Y-71321476D02*
G75*
G02*
X107217500Y-71321476I100000J0D01*
G01*
D12*
%TO.C,R4*%
X41974724Y-60777500D02*
X41465276Y-60777500D01*
X41974724Y-61822500D02*
X41465276Y-61822500D01*
D15*
%TO.C,Q13*%
X39618500Y-64725000D02*
X42918500Y-64725000D01*
X42918500Y-68025000D02*
X39618500Y-68025000D01*
X43568500Y-65375000D02*
G75*
G02*
X43368500Y-65375000I-100000J0D01*
G01*
X43368500Y-65375000D02*
G75*
G02*
X43568500Y-65375000I100000J0D01*
G01*
D12*
%TO.C,R19*%
X46034724Y-53387500D02*
X45525276Y-53387500D01*
X46034724Y-54432500D02*
X45525276Y-54432500D01*
%TO.C,D22*%
X43662500Y-62350000D02*
X43662500Y-64350000D01*
X47672500Y-62350000D02*
X43662500Y-62350000D01*
X47672500Y-64350000D02*
X43662500Y-64350000D01*
%TO.C,C68*%
X78990000Y-37796233D02*
X78990000Y-38088767D01*
X80010000Y-37796233D02*
X80010000Y-38088767D01*
%TO.C,C35*%
X50813733Y-54000000D02*
X51106267Y-54000000D01*
X50813733Y-55020000D02*
X51106267Y-55020000D01*
%TO.C,D19*%
X106950000Y-57471476D02*
X110960000Y-57471476D01*
X106950000Y-59471476D02*
X110960000Y-59471476D01*
X110960000Y-59471476D02*
X110960000Y-57471476D01*
%TO.C,C30*%
X49490000Y-59383767D02*
X49490000Y-59091233D01*
X50510000Y-59383767D02*
X50510000Y-59091233D01*
%TO.C,C48*%
X77215000Y-51581267D02*
X77215000Y-51288733D01*
X78235000Y-51581267D02*
X78235000Y-51288733D01*
D15*
%TO.C,CN2*%
X117171500Y-58123500D02*
X117171500Y-59222500D01*
X117171500Y-63283500D02*
X117171500Y-62184500D01*
X119090500Y-58123500D02*
X117171500Y-58123500D01*
X119090500Y-63283500D02*
X117171500Y-63283500D01*
X121870500Y-61977500D02*
X121870500Y-59429500D01*
D12*
X116536500Y-59139500D02*
X116282500Y-58758500D01*
X116790500Y-58758500D01*
X116536500Y-59139500D01*
G36*
X116536500Y-59139500D02*
G01*
X116282500Y-58758500D01*
X116790500Y-58758500D01*
X116536500Y-59139500D01*
G37*
%TO.C,R30*%
X88477500Y-66242224D02*
X88477500Y-65732776D01*
X89522500Y-66242224D02*
X89522500Y-65732776D01*
%TO.C,R37*%
X74882776Y-59677500D02*
X75392224Y-59677500D01*
X74882776Y-60722500D02*
X75392224Y-60722500D01*
D15*
%TO.C,Q14*%
X43885000Y-57240000D02*
X47185000Y-57240000D01*
X47185000Y-60540000D02*
X43885000Y-60540000D01*
X47835000Y-57890000D02*
G75*
G02*
X47635000Y-57890000I-100000J0D01*
G01*
X47635000Y-57890000D02*
G75*
G02*
X47835000Y-57890000I100000J0D01*
G01*
D12*
%TO.C,C42*%
X64853733Y-59090000D02*
X65146267Y-59090000D01*
X64853733Y-60110000D02*
X65146267Y-60110000D01*
%TO.C,U6*%
X82550000Y-61105000D02*
X84500000Y-61105000D01*
X82550000Y-66225000D02*
X84500000Y-66225000D01*
X86450000Y-61105000D02*
X84500000Y-61105000D01*
X86450000Y-66225000D02*
X84500000Y-66225000D01*
X87200000Y-61200000D02*
X86960000Y-60870000D01*
X87440000Y-60870000D01*
X87200000Y-61200000D01*
G36*
X87200000Y-61200000D02*
G01*
X86960000Y-60870000D01*
X87440000Y-60870000D01*
X87200000Y-61200000D01*
G37*
%TO.C,R45*%
X79477500Y-67654724D02*
X79477500Y-67145276D01*
X80522500Y-67654724D02*
X80522500Y-67145276D01*
%TO.C,C33*%
X118388748Y-64590000D02*
X119811252Y-64590000D01*
X118388748Y-66410000D02*
X119811252Y-66410000D01*
D15*
%TO.C,Q15*%
X40055000Y-49750714D02*
X43355000Y-49750714D01*
X43355000Y-53050714D02*
X40055000Y-53050714D01*
X44005000Y-50400714D02*
G75*
G02*
X43805000Y-50400714I-100000J0D01*
G01*
X43805000Y-50400714D02*
G75*
G02*
X44005000Y-50400714I100000J0D01*
G01*
%TO.C,Q1*%
X43767500Y-64725000D02*
X47067500Y-64725000D01*
X47067500Y-68025000D02*
X43767500Y-68025000D01*
X47717500Y-65375000D02*
G75*
G02*
X47517500Y-65375000I-100000J0D01*
G01*
X47517500Y-65375000D02*
G75*
G02*
X47717500Y-65375000I100000J0D01*
G01*
D12*
%TO.C,C27*%
X71883767Y-59690000D02*
X71591233Y-59690000D01*
X71883767Y-60710000D02*
X71591233Y-60710000D01*
%TO.C,U7*%
X68462500Y-61145000D02*
X70412500Y-61145000D01*
X68462500Y-66265000D02*
X70412500Y-66265000D01*
X72362500Y-61145000D02*
X70412500Y-61145000D01*
X72362500Y-66265000D02*
X70412500Y-66265000D01*
X73112500Y-61240000D02*
X72872500Y-60910000D01*
X73352500Y-60910000D01*
X73112500Y-61240000D01*
G36*
X73112500Y-61240000D02*
G01*
X72872500Y-60910000D01*
X73352500Y-60910000D01*
X73112500Y-61240000D01*
G37*
%TO.C,C51*%
X36311252Y-64490000D02*
X34888748Y-64490000D01*
X36311252Y-66310000D02*
X34888748Y-66310000D01*
%TO.C,R21*%
X75877500Y-62445276D02*
X75877500Y-62954724D01*
X76922500Y-62445276D02*
X76922500Y-62954724D01*
%TO.C,R22*%
X49584724Y-67667500D02*
X49075276Y-67667500D01*
X49584724Y-68712500D02*
X49075276Y-68712500D01*
%TO.C,C23*%
X92590000Y-34353733D02*
X92590000Y-34646267D01*
X93610000Y-34353733D02*
X93610000Y-34646267D01*
%TO.C,R11*%
X105448564Y-69990000D02*
X103994436Y-69990000D01*
X105448564Y-71810000D02*
X103994436Y-71810000D01*
%TO.C,R44*%
X82754724Y-66677500D02*
X82245276Y-66677500D01*
X82754724Y-67722500D02*
X82245276Y-67722500D01*
%TO.C,C10*%
X80215000Y-54826267D02*
X80215000Y-54533733D01*
X81235000Y-54826267D02*
X81235000Y-54533733D01*
%TO.C,R50*%
X78845276Y-61177500D02*
X79354724Y-61177500D01*
X78845276Y-62222500D02*
X79354724Y-62222500D01*
%TO.C,R29*%
X102647224Y-53328976D02*
X102137776Y-53328976D01*
X102647224Y-54373976D02*
X102137776Y-54373976D01*
%TO.C,R41*%
X68202500Y-57162776D02*
X68202500Y-57672224D01*
X69247500Y-57162776D02*
X69247500Y-57672224D01*
%TO.C,C12*%
X118626248Y-51890000D02*
X120048752Y-51890000D01*
X118626248Y-53710000D02*
X120048752Y-53710000D01*
%TO.C,R24*%
X49614724Y-52487500D02*
X49105276Y-52487500D01*
X49614724Y-53532500D02*
X49105276Y-53532500D01*
%TO.C,C14*%
X118688748Y-55090000D02*
X120111252Y-55090000D01*
X118688748Y-56910000D02*
X120111252Y-56910000D01*
%TO.C,R7*%
X46144724Y-68377500D02*
X45635276Y-68377500D01*
X46144724Y-69422500D02*
X45635276Y-69422500D01*
%TO.C,R5*%
X45934724Y-60767500D02*
X45425276Y-60767500D01*
X45934724Y-61812500D02*
X45425276Y-61812500D01*
%TO.C,C16*%
X104382500Y-64524209D02*
X104382500Y-64816743D01*
X105402500Y-64524209D02*
X105402500Y-64816743D01*
D15*
%TO.C,Q7*%
X111796500Y-68656476D02*
X115096500Y-68656476D01*
X115096500Y-71956476D02*
X111796500Y-71956476D01*
X111346500Y-71306476D02*
G75*
G02*
X111146500Y-71306476I-100000J0D01*
G01*
X111146500Y-71306476D02*
G75*
G02*
X111346500Y-71306476I100000J0D01*
G01*
D12*
%TO.C,C19*%
X71053733Y-38440000D02*
X71346267Y-38440000D01*
X71053733Y-39460000D02*
X71346267Y-39460000D01*
%TO.C,C34*%
X36311252Y-61890000D02*
X34888748Y-61890000D01*
X36311252Y-63710000D02*
X34888748Y-63710000D01*
D15*
%TO.C,Q12*%
X107727500Y-53806476D02*
X111027500Y-53806476D01*
X111027500Y-57106476D02*
X107727500Y-57106476D01*
X107277500Y-56456476D02*
G75*
G02*
X107077500Y-56456476I-100000J0D01*
G01*
X107077500Y-56456476D02*
G75*
G02*
X107277500Y-56456476I100000J0D01*
G01*
D12*
%TO.C,U8*%
X71250000Y-50435000D02*
X73200000Y-50435000D01*
X71250000Y-55555000D02*
X73200000Y-55555000D01*
X75150000Y-50435000D02*
X73200000Y-50435000D01*
X75150000Y-55555000D02*
X73200000Y-55555000D01*
X75900000Y-50530000D02*
X75660000Y-50200000D01*
X76140000Y-50200000D01*
X75900000Y-50530000D01*
G36*
X75900000Y-50530000D02*
G01*
X75660000Y-50200000D01*
X76140000Y-50200000D01*
X75900000Y-50530000D01*
G37*
%TO.C,R38*%
X78702500Y-55102224D02*
X78702500Y-54592776D01*
X79747500Y-55102224D02*
X79747500Y-54592776D01*
%TO.C,R18*%
X108885276Y-52468976D02*
X109394724Y-52468976D01*
X108885276Y-53513976D02*
X109394724Y-53513976D01*
%TO.C,C26*%
X100690000Y-56946267D02*
X100690000Y-56653733D01*
X101710000Y-56946267D02*
X101710000Y-56653733D01*
%TO.C,U4*%
X90600000Y-37625000D02*
X90600000Y-37100000D01*
X90600000Y-41160000D02*
X90600000Y-40935000D01*
X90900000Y-41400000D02*
X91125000Y-41400000D01*
X91125000Y-37100000D02*
X90600000Y-37100000D01*
X94375000Y-37100000D02*
X94900000Y-37100000D01*
X94375000Y-41400000D02*
X94900000Y-41400000D01*
X94900000Y-37625000D02*
X94900000Y-37100000D01*
X94900000Y-40875000D02*
X94900000Y-41400000D01*
X90840000Y-41730000D02*
X90360000Y-41730000D01*
X90600000Y-41400000D01*
X90840000Y-41730000D01*
G36*
X90840000Y-41730000D02*
G01*
X90360000Y-41730000D01*
X90600000Y-41400000D01*
X90840000Y-41730000D01*
G37*
%TO.C,C46*%
X68191233Y-59690000D02*
X68483767Y-59690000D01*
X68191233Y-60710000D02*
X68483767Y-60710000D01*
%TO.C,C21*%
X73853733Y-48390000D02*
X74146267Y-48390000D01*
X73853733Y-49410000D02*
X74146267Y-49410000D01*
%TO.C,R26*%
X105345276Y-68477500D02*
X105854724Y-68477500D01*
X105345276Y-69522500D02*
X105854724Y-69522500D01*
%TO.C,R48*%
X79477500Y-63845276D02*
X79477500Y-64354724D01*
X80522500Y-63845276D02*
X80522500Y-64354724D01*
%TO.C,C45*%
X82353733Y-59690000D02*
X82646267Y-59690000D01*
X82353733Y-60710000D02*
X82646267Y-60710000D01*
%TO.C,R31*%
X89977500Y-66242224D02*
X89977500Y-65732776D01*
X91022500Y-66242224D02*
X91022500Y-65732776D01*
%TO.C,R14*%
X108806776Y-67448976D02*
X109316224Y-67448976D01*
X108806776Y-68493976D02*
X109316224Y-68493976D01*
%TO.C,C49*%
X37611252Y-50590000D02*
X36188748Y-50590000D01*
X37611252Y-52410000D02*
X36188748Y-52410000D01*
%TO.C,C47*%
X68190000Y-53848733D02*
X68190000Y-54141267D01*
X69210000Y-53848733D02*
X69210000Y-54141267D01*
D14*
%TO.C,D7*%
X55074000Y-53224000D02*
X55074000Y-55976000D01*
X55124000Y-55517000D02*
X56876000Y-55517000D01*
X55267000Y-53224000D02*
X55074000Y-53224000D01*
X56733000Y-53224000D02*
X56926000Y-53224000D01*
X56926000Y-53224000D02*
X56926000Y-55976000D01*
D12*
X55318000Y-56205000D02*
X54998000Y-56205000D01*
X54998000Y-55900000D01*
X55318000Y-55900000D01*
X55318000Y-56205000D01*
G36*
X55318000Y-56205000D02*
G01*
X54998000Y-56205000D01*
X54998000Y-55900000D01*
X55318000Y-55900000D01*
X55318000Y-56205000D01*
G37*
X57002000Y-56205000D02*
X56682000Y-56205000D01*
X56682000Y-55900000D01*
X57002000Y-55900000D01*
X57002000Y-56205000D01*
G36*
X57002000Y-56205000D02*
G01*
X56682000Y-56205000D01*
X56682000Y-55900000D01*
X57002000Y-55900000D01*
X57002000Y-56205000D01*
G37*
%TO.C,R39*%
X77202500Y-54580276D02*
X77202500Y-55089724D01*
X78247500Y-54580276D02*
X78247500Y-55089724D01*
%TO.C,C44*%
X78715000Y-51581267D02*
X78715000Y-51288733D01*
X79735000Y-51581267D02*
X79735000Y-51288733D01*
%TO.C,U5*%
X73590000Y-40590000D02*
X73590000Y-40765000D01*
X73590000Y-47510000D02*
X73590000Y-47035000D01*
X73830000Y-40290000D02*
X74065000Y-40290000D01*
X74065000Y-47510000D02*
X73590000Y-47510000D01*
X80335000Y-40290000D02*
X80810000Y-40290000D01*
X80335000Y-47510000D02*
X80810000Y-47510000D01*
X80810000Y-40290000D02*
X80810000Y-40765000D01*
X80810000Y-47510000D02*
X80810000Y-47035000D01*
X73590000Y-40290000D02*
X73260000Y-40530000D01*
X73260000Y-40050000D01*
X73590000Y-40290000D01*
G36*
X73590000Y-40290000D02*
G01*
X73260000Y-40530000D01*
X73260000Y-40050000D01*
X73590000Y-40290000D01*
G37*
%TO.C,C18*%
X83646267Y-45790000D02*
X83353733Y-45790000D01*
X83646267Y-46810000D02*
X83353733Y-46810000D01*
D14*
%TO.C,D3*%
X95974000Y-54824000D02*
X95974000Y-57576000D01*
X96024000Y-57117000D02*
X97776000Y-57117000D01*
X96167000Y-54824000D02*
X95974000Y-54824000D01*
X97633000Y-54824000D02*
X97826000Y-54824000D01*
X97826000Y-54824000D02*
X97826000Y-57576000D01*
D12*
X96218000Y-57805000D02*
X95898000Y-57805000D01*
X95898000Y-57500000D01*
X96218000Y-57500000D01*
X96218000Y-57805000D01*
G36*
X96218000Y-57805000D02*
G01*
X95898000Y-57805000D01*
X95898000Y-57500000D01*
X96218000Y-57500000D01*
X96218000Y-57805000D01*
G37*
X97902000Y-57805000D02*
X97582000Y-57805000D01*
X97582000Y-57500000D01*
X97902000Y-57500000D01*
X97902000Y-57805000D01*
G36*
X97902000Y-57805000D02*
G01*
X97582000Y-57805000D01*
X97582000Y-57500000D01*
X97902000Y-57500000D01*
X97902000Y-57805000D01*
G37*
%TO.C,R9*%
X49402936Y-65270000D02*
X50857064Y-65270000D01*
X49402936Y-67090000D02*
X50857064Y-67090000D01*
%TO.C,D20*%
X112270000Y-50051476D02*
X116280000Y-50051476D01*
X112270000Y-52051476D02*
X116280000Y-52051476D01*
X116280000Y-52051476D02*
X116280000Y-50051476D01*
%TO.C,R51*%
X65377500Y-63245276D02*
X65377500Y-63754724D01*
X66422500Y-63245276D02*
X66422500Y-63754724D01*
D15*
%TO.C,Q16*%
X44164000Y-49760000D02*
X47464000Y-49760000D01*
X47464000Y-53060000D02*
X44164000Y-53060000D01*
X48114000Y-50410000D02*
G75*
G02*
X47914000Y-50410000I-100000J0D01*
G01*
X47914000Y-50410000D02*
G75*
G02*
X48114000Y-50410000I100000J0D01*
G01*
D12*
%TO.C,C24*%
X93390000Y-43746267D02*
X93390000Y-43453733D01*
X94410000Y-43746267D02*
X94410000Y-43453733D01*
%TO.C,C22*%
X91090000Y-34353733D02*
X91090000Y-34646267D01*
X92110000Y-34353733D02*
X92110000Y-34646267D01*
%TO.C,R32*%
X76042224Y-66177500D02*
X75532776Y-66177500D01*
X76042224Y-67222500D02*
X75532776Y-67222500D01*
%TO.C,R33*%
X76042224Y-64677500D02*
X75532776Y-64677500D01*
X76042224Y-65722500D02*
X75532776Y-65722500D01*
%TO.C,C67*%
X73190000Y-38136267D02*
X73190000Y-37843733D01*
X74210000Y-38136267D02*
X74210000Y-37843733D01*
%TO.C,D17*%
X107259000Y-65071476D02*
X111269000Y-65071476D01*
X107259000Y-67071476D02*
X111269000Y-67071476D01*
X111269000Y-67071476D02*
X111269000Y-65071476D01*
D14*
%TO.C,U1*%
X98029000Y-59145500D02*
X101571000Y-59145500D01*
X98029000Y-65797500D02*
X98029000Y-59145500D01*
X101571000Y-59145500D02*
X101571000Y-65797500D01*
X101571000Y-65797500D02*
X98029000Y-65797500D01*
D13*
X97079000Y-66030500D02*
G75*
G02*
X96779000Y-66030500I-150000J0D01*
G01*
X96779000Y-66030500D02*
G75*
G02*
X97079000Y-66030500I150000J0D01*
G01*
X98931000Y-65396500D02*
G75*
G02*
X98631000Y-65396500I-150000J0D01*
G01*
X98631000Y-65396500D02*
G75*
G02*
X98931000Y-65396500I150000J0D01*
G01*
D12*
%TO.C,C11*%
X85983767Y-59690000D02*
X85691233Y-59690000D01*
X85983767Y-60710000D02*
X85691233Y-60710000D01*
D14*
%TO.C,D10*%
X57174000Y-68676000D02*
X57174000Y-65924000D01*
X57367000Y-68676000D02*
X57174000Y-68676000D01*
X58833000Y-68676000D02*
X59026000Y-68676000D01*
X58976000Y-66383000D02*
X57224000Y-66383000D01*
X59026000Y-68676000D02*
X59026000Y-65924000D01*
D12*
X57418000Y-66000000D02*
X57098000Y-66000000D01*
X57098000Y-65695000D01*
X57418000Y-65695000D01*
X57418000Y-66000000D01*
G36*
X57418000Y-66000000D02*
G01*
X57098000Y-66000000D01*
X57098000Y-65695000D01*
X57418000Y-65695000D01*
X57418000Y-66000000D01*
G37*
X59102000Y-66000000D02*
X58782000Y-66000000D01*
X58782000Y-65695000D01*
X59102000Y-65695000D01*
X59102000Y-66000000D01*
G36*
X59102000Y-66000000D02*
G01*
X58782000Y-66000000D01*
X58782000Y-65695000D01*
X59102000Y-65695000D01*
X59102000Y-66000000D01*
G37*
%TO.C,R6*%
X42004724Y-53367500D02*
X41495276Y-53367500D01*
X42004724Y-54412500D02*
X41495276Y-54412500D01*
%TO.C,R47*%
X68654724Y-66677500D02*
X68145276Y-66677500D01*
X68654724Y-67722500D02*
X68145276Y-67722500D01*
%TO.C,R10*%
X49642936Y-50230000D02*
X51097064Y-50230000D01*
X49642936Y-52050000D02*
X51097064Y-52050000D01*
%TO.C,C20*%
X83646267Y-44190000D02*
X83353733Y-44190000D01*
X83646267Y-45210000D02*
X83353733Y-45210000D01*
%TO.C,C9*%
X81715000Y-54881267D02*
X81715000Y-54588733D01*
X82735000Y-54881267D02*
X82735000Y-54588733D01*
%TO.C,C15*%
X94290000Y-59791233D02*
X94290000Y-60083767D01*
X95310000Y-59791233D02*
X95310000Y-60083767D01*
%TO.C,D16*%
X112061500Y-65071476D02*
X116071500Y-65071476D01*
X112061500Y-67071476D02*
X116071500Y-67071476D01*
X116071500Y-67071476D02*
X116071500Y-65071476D01*
%TO.C,Y1*%
X74600000Y-36312500D02*
X74600000Y-39512500D01*
X78600000Y-36312500D02*
X74600000Y-36312500D01*
%TO.C,R46*%
X65377500Y-67054724D02*
X65377500Y-66545276D01*
X66422500Y-67054724D02*
X66422500Y-66545276D01*
D14*
%TO.C,D4*%
X98174000Y-54824000D02*
X98174000Y-57576000D01*
X98224000Y-57117000D02*
X99976000Y-57117000D01*
X98367000Y-54824000D02*
X98174000Y-54824000D01*
X99833000Y-54824000D02*
X100026000Y-54824000D01*
X100026000Y-54824000D02*
X100026000Y-57576000D01*
D12*
X98418000Y-57805000D02*
X98098000Y-57805000D01*
X98098000Y-57500000D01*
X98418000Y-57500000D01*
X98418000Y-57805000D01*
G36*
X98418000Y-57805000D02*
G01*
X98098000Y-57805000D01*
X98098000Y-57500000D01*
X98418000Y-57500000D01*
X98418000Y-57805000D01*
G37*
X100102000Y-57805000D02*
X99782000Y-57805000D01*
X99782000Y-57500000D01*
X100102000Y-57500000D01*
X100102000Y-57805000D01*
G36*
X100102000Y-57805000D02*
G01*
X99782000Y-57805000D01*
X99782000Y-57500000D01*
X100102000Y-57500000D01*
X100102000Y-57805000D01*
G37*
%TO.C,C36*%
X104146267Y-66990000D02*
X103853733Y-66990000D01*
X104146267Y-68010000D02*
X103853733Y-68010000D01*
%TO.C,D9*%
X38750000Y-62320000D02*
X38750000Y-64320000D01*
X42760000Y-62320000D02*
X38750000Y-62320000D01*
X42760000Y-64320000D02*
X38750000Y-64320000D01*
%TO.C,R12*%
X105489564Y-54911476D02*
X104035436Y-54911476D01*
X105489564Y-56731476D02*
X104035436Y-56731476D01*
D14*
%TO.C,U2*%
X53429000Y-57602500D02*
X56971000Y-57602500D01*
X53429000Y-64254500D02*
X53429000Y-57602500D01*
X56971000Y-57602500D02*
X56971000Y-64254500D01*
X56971000Y-64254500D02*
X53429000Y-64254500D01*
D13*
X56369000Y-58003500D02*
G75*
G02*
X56069000Y-58003500I-150000J0D01*
G01*
X56069000Y-58003500D02*
G75*
G02*
X56369000Y-58003500I150000J0D01*
G01*
X58221000Y-57369500D02*
G75*
G02*
X57921000Y-57369500I-150000J0D01*
G01*
X57921000Y-57369500D02*
G75*
G02*
X58221000Y-57369500I150000J0D01*
G01*
D12*
%TO.C,R49*%
X94067500Y-34245276D02*
X94067500Y-34754724D01*
X95112500Y-34245276D02*
X95112500Y-34754724D01*
%TO.C,C13*%
X95690000Y-37003733D02*
X95690000Y-37296267D01*
X96710000Y-37003733D02*
X96710000Y-37296267D01*
%TO.C,C39*%
X71315000Y-57576267D02*
X71315000Y-57283733D01*
X72335000Y-57576267D02*
X72335000Y-57283733D01*
%TO.C,R42*%
X77977500Y-63845276D02*
X77977500Y-64354724D01*
X79022500Y-63845276D02*
X79022500Y-64354724D01*
%TO.C,C32*%
X59690000Y-63683767D02*
X59690000Y-63391233D01*
X60710000Y-63683767D02*
X60710000Y-63391233D01*
%TO.C,R34*%
X88477500Y-62345276D02*
X88477500Y-62854724D01*
X89522500Y-62345276D02*
X89522500Y-62854724D01*
D14*
%TO.C,D11*%
X54774000Y-68676000D02*
X54774000Y-65924000D01*
X54967000Y-68676000D02*
X54774000Y-68676000D01*
X56433000Y-68676000D02*
X56626000Y-68676000D01*
X56576000Y-66383000D02*
X54824000Y-66383000D01*
X56626000Y-68676000D02*
X56626000Y-65924000D01*
D12*
X55018000Y-66000000D02*
X54698000Y-66000000D01*
X54698000Y-65695000D01*
X55018000Y-65695000D01*
X55018000Y-66000000D01*
G36*
X55018000Y-66000000D02*
G01*
X54698000Y-66000000D01*
X54698000Y-65695000D01*
X55018000Y-65695000D01*
X55018000Y-66000000D01*
G37*
X56702000Y-66000000D02*
X56382000Y-66000000D01*
X56382000Y-65695000D01*
X56702000Y-65695000D01*
X56702000Y-66000000D01*
G36*
X56702000Y-66000000D02*
G01*
X56382000Y-66000000D01*
X56382000Y-65695000D01*
X56702000Y-65695000D01*
X56702000Y-66000000D01*
G37*
D15*
%TO.C,J3*%
X117380000Y-38775000D02*
X117380000Y-39969000D01*
X117380000Y-40969000D02*
X117380000Y-40931000D01*
X117380000Y-41969000D02*
X117380000Y-41931000D01*
X117380000Y-42969000D02*
X117380000Y-42931000D01*
X117380000Y-43969000D02*
X117380000Y-43931000D01*
X117380000Y-44969000D02*
X117380000Y-44931000D01*
X117380000Y-47125000D02*
X117380000Y-45931000D01*
X119249000Y-38775000D02*
X117380000Y-38775000D01*
X119262000Y-47125000D02*
X117407000Y-47125000D01*
X121680000Y-45750000D02*
X121680000Y-40150000D01*
D12*
X117153000Y-39926000D02*
X116772000Y-39672000D01*
X117153000Y-39418000D01*
X117153000Y-39926000D01*
G36*
X117153000Y-39926000D02*
G01*
X116772000Y-39672000D01*
X117153000Y-39418000D01*
X117153000Y-39926000D01*
G37*
%TO.C,C17*%
X71171233Y-39970000D02*
X71463767Y-39970000D01*
X71171233Y-40990000D02*
X71463767Y-40990000D01*
%TO.C,D18*%
X111817500Y-57400000D02*
X115827500Y-57400000D01*
X111817500Y-59400000D02*
X115827500Y-59400000D01*
X115827500Y-59400000D02*
X115827500Y-57400000D01*
%TO.C,D23*%
X38792500Y-54940000D02*
X38792500Y-56940000D01*
X42802500Y-54940000D02*
X38792500Y-54940000D01*
X42802500Y-56940000D02*
X38792500Y-56940000D01*
%TO.C,C43*%
X66715000Y-53783733D02*
X66715000Y-54076267D01*
X67735000Y-53783733D02*
X67735000Y-54076267D01*
%TO.C,R16*%
X108525276Y-59888976D02*
X109034724Y-59888976D01*
X108525276Y-60933976D02*
X109034724Y-60933976D01*
%TO.C,D24*%
X43640000Y-54950000D02*
X43640000Y-56950000D01*
X47650000Y-54950000D02*
X43640000Y-54950000D01*
X47650000Y-56950000D02*
X43640000Y-56950000D01*
%TO.C,R52*%
X64782776Y-60477500D02*
X65292224Y-60477500D01*
X64782776Y-61522500D02*
X65292224Y-61522500D01*
D15*
%TO.C,Q10*%
X107435000Y-61216476D02*
X110735000Y-61216476D01*
X110735000Y-64516476D02*
X107435000Y-64516476D01*
X106985000Y-63866476D02*
G75*
G02*
X106785000Y-63866476I-100000J0D01*
G01*
X106785000Y-63866476D02*
G75*
G02*
X106985000Y-63866476I100000J0D01*
G01*
D12*
%TO.C,R25*%
X52425276Y-52487500D02*
X52934724Y-52487500D01*
X52425276Y-53532500D02*
X52934724Y-53532500D01*
D15*
%TO.C,CN1*%
X32586000Y-56826000D02*
X32586000Y-59374000D01*
X35366000Y-55520000D02*
X37285000Y-55520000D01*
X35366000Y-60680000D02*
X37285000Y-60680000D01*
X37285000Y-55520000D02*
X37285000Y-56619000D01*
X37285000Y-60680000D02*
X37285000Y-59581000D01*
D12*
X38174000Y-60045000D02*
X37666000Y-60045000D01*
X37920000Y-59664000D01*
X38174000Y-60045000D01*
G36*
X38174000Y-60045000D02*
G01*
X37666000Y-60045000D01*
X37920000Y-59664000D01*
X38174000Y-60045000D01*
G37*
%TO.C,R73*%
X91877500Y-43332776D02*
X91877500Y-43842224D01*
X92922500Y-43332776D02*
X92922500Y-43842224D01*
%TO.C,D21*%
X107440000Y-50081476D02*
X111450000Y-50081476D01*
X107440000Y-52081476D02*
X111450000Y-52081476D01*
X111450000Y-52081476D02*
X111450000Y-50081476D01*
%TO.C,R27*%
X102554724Y-68477500D02*
X102045276Y-68477500D01*
X102554724Y-69522500D02*
X102045276Y-69522500D01*
%TO.C,C28*%
X50873733Y-69210000D02*
X51166267Y-69210000D01*
X50873733Y-70230000D02*
X51166267Y-70230000D01*
%TO.C,D5*%
X39442500Y-69900000D02*
X39442500Y-71900000D01*
X43452500Y-69900000D02*
X39442500Y-69900000D01*
X43452500Y-71900000D02*
X39442500Y-71900000D01*
%TO.C,C25*%
X104390000Y-60953733D02*
X104390000Y-61246267D01*
X105410000Y-60953733D02*
X105410000Y-61246267D01*
%TO.C,R35*%
X88882776Y-59677500D02*
X89392224Y-59677500D01*
X88882776Y-60722500D02*
X89392224Y-60722500D01*
%TO.C,C37*%
X104238767Y-51831476D02*
X103946233Y-51831476D01*
X104238767Y-52851476D02*
X103946233Y-52851476D01*
%TO.C,R43*%
X63777500Y-63245276D02*
X63777500Y-63754724D01*
X64822500Y-63245276D02*
X64822500Y-63754724D01*
%TO.C,R40*%
X69702500Y-57672224D02*
X69702500Y-57162776D01*
X70747500Y-57672224D02*
X70747500Y-57162776D01*
%TO.C,R28*%
X105507776Y-53328976D02*
X106017224Y-53328976D01*
X105507776Y-54373976D02*
X106017224Y-54373976D01*
%TO.C,R15*%
X112625276Y-59877500D02*
X113134724Y-59877500D01*
X112625276Y-60922500D02*
X113134724Y-60922500D01*
%TO.C,C40*%
X68190000Y-50483733D02*
X68190000Y-50776267D01*
X69210000Y-50483733D02*
X69210000Y-50776267D01*
%TO.C,R72*%
X90377500Y-43332776D02*
X90377500Y-43842224D01*
X91422500Y-43332776D02*
X91422500Y-43842224D01*
%TO.C,R36*%
X74377500Y-62445276D02*
X74377500Y-62954724D01*
X75422500Y-62445276D02*
X75422500Y-62954724D01*
D15*
%TO.C,Q2*%
X39735000Y-57180000D02*
X43035000Y-57180000D01*
X43035000Y-60480000D02*
X39735000Y-60480000D01*
X43685000Y-57830000D02*
G75*
G02*
X43485000Y-57830000I-100000J0D01*
G01*
X43485000Y-57830000D02*
G75*
G02*
X43685000Y-57830000I100000J0D01*
G01*
D12*
%TO.C,D6*%
X44242500Y-69900000D02*
X44242500Y-71900000D01*
X48252500Y-69900000D02*
X44242500Y-69900000D01*
X48252500Y-71900000D02*
X44242500Y-71900000D01*
%TO.C,R13*%
X112836776Y-67448976D02*
X113346224Y-67448976D01*
X112836776Y-68493976D02*
X113346224Y-68493976D01*
%TO.C,C31*%
X49490000Y-62783767D02*
X49490000Y-62491233D01*
X50510000Y-62783767D02*
X50510000Y-62491233D01*
%TO.C,FB3*%
X83190000Y-54588733D02*
X83190000Y-54881267D01*
X84210000Y-54588733D02*
X84210000Y-54881267D01*
%TD*%
M02*
