%TF.GenerationSoftware,KiCad,Pcbnew,8.0.2*%
%TF.CreationDate,2024-05-03T20:10:45+08:00*%
%TF.ProjectId,bldcDriver,626c6463-4472-4697-9665-722e6b696361,rev?*%
%TF.SameCoordinates,Original*%
%TF.FileFunction,Drillmap*%
%TF.FilePolarity,Positive*%
%FSLAX45Y45*%
G04 Gerber Fmt 4.5, Leading zero omitted, Abs format (unit mm)*
G04 Created by KiCad (PCBNEW 8.0.2) date 2024-05-03 20:10:45*
%MOMM*%
%LPD*%
G01*
G04 APERTURE LIST*
%ADD10C,0.100000*%
%ADD11C,0.200000*%
%ADD12C,0.180000*%
%ADD13C,0.220000*%
G04 APERTURE END LIST*
D10*
X3245500Y-7019000D02*
X3245500Y-3269000D01*
X3445500Y-7219000D02*
G75*
G02*
X3245500Y-7019000I0J200000D01*
G01*
X12023584Y-7219000D02*
X11935500Y-7219000D01*
X12023584Y-3069000D02*
G75*
G02*
X12223580Y-3269000I-4J-200000D01*
G01*
X12223584Y-3269000D02*
X12223584Y-7019000D01*
X3445500Y-3069000D02*
X11935500Y-3069000D01*
X12223584Y-7019000D02*
G75*
G02*
X12023584Y-7219004I-200004J0D01*
G01*
X3245500Y-3269000D02*
G75*
G02*
X3445500Y-3069000I200000J0D01*
G01*
X11935500Y-7219000D02*
X3445500Y-7219000D01*
X11935500Y-3069000D02*
X12023584Y-3069000D01*
D11*
D10*
X3701500Y-4165500D02*
X3726500Y-4190500D01*
X3726500Y-4165500D02*
X3701500Y-4190500D01*
X3797500Y-4265500D02*
X3822500Y-4290500D01*
X3822500Y-4265500D02*
X3797500Y-4290500D01*
X3987500Y-5581500D02*
X4012500Y-5606500D01*
X4012500Y-5581500D02*
X3987500Y-5606500D01*
X4057500Y-6557500D02*
X4082500Y-6582500D01*
X4082500Y-6557500D02*
X4057500Y-6582500D01*
X4057500Y-6617500D02*
X4082500Y-6642500D01*
X4082500Y-6617500D02*
X4057500Y-6642500D01*
X4057500Y-6677500D02*
X4082500Y-6702500D01*
X4082500Y-6677500D02*
X4057500Y-6702500D01*
X4067500Y-5817500D02*
X4092500Y-5842500D01*
X4092500Y-5817500D02*
X4067500Y-5842500D01*
X4067500Y-5877500D02*
X4092500Y-5902500D01*
X4092500Y-5877500D02*
X4067500Y-5902500D01*
X4067500Y-5937500D02*
X4092500Y-5962500D01*
X4092500Y-5937500D02*
X4067500Y-5962500D01*
X4087500Y-5057500D02*
X4112500Y-5082500D01*
X4112500Y-5057500D02*
X4087500Y-5082500D01*
X4087500Y-5117500D02*
X4112500Y-5142500D01*
X4112500Y-5117500D02*
X4087500Y-5142500D01*
X4087500Y-5177500D02*
X4112500Y-5202500D01*
X4112500Y-5177500D02*
X4087500Y-5202500D01*
X4117500Y-6557500D02*
X4142500Y-6582500D01*
X4142500Y-6557500D02*
X4117500Y-6582500D01*
X4117500Y-6617500D02*
X4142500Y-6642500D01*
X4142500Y-6617500D02*
X4117500Y-6642500D01*
X4117500Y-6677500D02*
X4142500Y-6702500D01*
X4142500Y-6677500D02*
X4117500Y-6702500D01*
X4127500Y-5817500D02*
X4152500Y-5842500D01*
X4152500Y-5817500D02*
X4127500Y-5842500D01*
X4127500Y-5877500D02*
X4152500Y-5902500D01*
X4152500Y-5877500D02*
X4127500Y-5902500D01*
X4127500Y-5937500D02*
X4152500Y-5962500D01*
X4152500Y-5937500D02*
X4127500Y-5962500D01*
X4127500Y-6137500D02*
X4152500Y-6162500D01*
X4152500Y-6137500D02*
X4127500Y-6162500D01*
X4137500Y-6877500D02*
X4162500Y-6902500D01*
X4162500Y-6877500D02*
X4137500Y-6902500D01*
X4147500Y-5057500D02*
X4172500Y-5082500D01*
X4172500Y-5057500D02*
X4147500Y-5082500D01*
X4147500Y-5117500D02*
X4172500Y-5142500D01*
X4172500Y-5117500D02*
X4147500Y-5142500D01*
X4147500Y-5177500D02*
X4172500Y-5202500D01*
X4172500Y-5177500D02*
X4147500Y-5202500D01*
X4477500Y-5167500D02*
X4502500Y-5192500D01*
X4502500Y-5167500D02*
X4477500Y-5192500D01*
X4497500Y-5077500D02*
X4522500Y-5102500D01*
X4522500Y-5077500D02*
X4497500Y-5102500D01*
X4512500Y-5876500D02*
X4537500Y-5901500D01*
X4537500Y-5876500D02*
X4512500Y-5901500D01*
X4512500Y-5876500D02*
X4537500Y-5901500D01*
X4537500Y-5876500D02*
X4512500Y-5901500D01*
X4516375Y-6168625D02*
X4541375Y-6193625D01*
X4541375Y-6168625D02*
X4516375Y-6193625D01*
X4537500Y-5117500D02*
X4562500Y-5142500D01*
X4562500Y-5117500D02*
X4537500Y-5142500D01*
X4547500Y-7077500D02*
X4572500Y-7102500D01*
X4572500Y-7077500D02*
X4547500Y-7102500D01*
X4587500Y-5077500D02*
X4612500Y-5102500D01*
X4612500Y-5077500D02*
X4587500Y-5102500D01*
X4597500Y-5157500D02*
X4622500Y-5182500D01*
X4622500Y-5157500D02*
X4597500Y-5182500D01*
X4750479Y-5351033D02*
X4775479Y-5376033D01*
X4775479Y-5351033D02*
X4750479Y-5376033D01*
X4967500Y-6337500D02*
X4992500Y-6362500D01*
X4992500Y-6337500D02*
X4967500Y-6362500D01*
X4977500Y-6050000D02*
X5002500Y-6075000D01*
X5002500Y-6050000D02*
X4977500Y-6075000D01*
X5057500Y-5397500D02*
X5082500Y-5422500D01*
X5082500Y-5397500D02*
X5057500Y-5422500D01*
X5060454Y-6250450D02*
X5085454Y-6275450D01*
X5085454Y-6250450D02*
X5060454Y-6275450D01*
X5131371Y-6047500D02*
X5156371Y-6072500D01*
X5156371Y-6047500D02*
X5131371Y-6072500D01*
X5159217Y-5851050D02*
X5184217Y-5876050D01*
X5184217Y-5851050D02*
X5159217Y-5876050D01*
X5227500Y-5455000D02*
X5252500Y-5480000D01*
X5252500Y-5455000D02*
X5227500Y-5480000D01*
X5777500Y-6401642D02*
X5802500Y-6426642D01*
X5802500Y-6401642D02*
X5777500Y-6426642D01*
X5794600Y-5854650D02*
X5819600Y-5879650D01*
X5819600Y-5854650D02*
X5794600Y-5879650D01*
X5794600Y-6047850D02*
X5819600Y-6072850D01*
X5819600Y-6047850D02*
X5794600Y-6072850D01*
X5827500Y-6307500D02*
X5852500Y-6332500D01*
X5852500Y-6307500D02*
X5827500Y-6332500D01*
X5954978Y-5914978D02*
X5979978Y-5939978D01*
X5979978Y-5914978D02*
X5954978Y-5939978D01*
X6024540Y-5828396D02*
X6049540Y-5853396D01*
X6049540Y-5828396D02*
X6024540Y-5853396D01*
X6401250Y-5897500D02*
X6426250Y-5922500D01*
X6426250Y-5897500D02*
X6401250Y-5922500D01*
X6747500Y-4443548D02*
X6772500Y-4468548D01*
X6772500Y-4443548D02*
X6747500Y-4468548D01*
X6797500Y-4372414D02*
X6822500Y-4397414D01*
X6822500Y-4372414D02*
X6797500Y-4397414D01*
X7117250Y-5402500D02*
X7142250Y-5427500D01*
X7142250Y-5402500D02*
X7117250Y-5427500D01*
X7182359Y-4260000D02*
X7207359Y-4285000D01*
X7207359Y-4260000D02*
X7182359Y-4285000D01*
X7197500Y-5096500D02*
X7222500Y-5121500D01*
X7222500Y-5096500D02*
X7197500Y-5121500D01*
X7230862Y-4524029D02*
X7255862Y-4549029D01*
X7255862Y-4524029D02*
X7230862Y-4549029D01*
X7240991Y-4595218D02*
X7265991Y-4620218D01*
X7265991Y-4595218D02*
X7240991Y-4620218D01*
X7273495Y-4442035D02*
X7298495Y-4467035D01*
X7298495Y-4442035D02*
X7273495Y-4467035D01*
X7275172Y-4667500D02*
X7300172Y-4692500D01*
X7300172Y-4667500D02*
X7275172Y-4692500D01*
X7280775Y-4372414D02*
X7305775Y-4397414D01*
X7305775Y-4372414D02*
X7280775Y-4397414D01*
X7367500Y-4677500D02*
X7392500Y-4702500D01*
X7392500Y-4677500D02*
X7367500Y-4702500D01*
X7413125Y-4733125D02*
X7438125Y-4758125D01*
X7438125Y-4733125D02*
X7413125Y-4758125D01*
X7457500Y-6007500D02*
X7482500Y-6032500D01*
X7482500Y-6007500D02*
X7457500Y-6032500D01*
X7657500Y-6457500D02*
X7682500Y-6482500D01*
X7682500Y-6457500D02*
X7657500Y-6482500D01*
X7811351Y-4811000D02*
X7836351Y-4836000D01*
X7836351Y-4811000D02*
X7811351Y-4836000D01*
X7860750Y-5514250D02*
X7885750Y-5539250D01*
X7885750Y-5514250D02*
X7860750Y-5539250D01*
X7867500Y-5947500D02*
X7892500Y-5972500D01*
X7892500Y-5947500D02*
X7867500Y-5972500D01*
X7877500Y-6587500D02*
X7902500Y-6612500D01*
X7902500Y-6587500D02*
X7877500Y-6612500D01*
X7878883Y-3964254D02*
X7903883Y-3989254D01*
X7903883Y-3964254D02*
X7878883Y-3989254D01*
X7887500Y-6306250D02*
X7912500Y-6331250D01*
X7912500Y-6306250D02*
X7887500Y-6331250D01*
X7894858Y-4811000D02*
X7919858Y-4836000D01*
X7919858Y-4811000D02*
X7894858Y-4836000D01*
X7990000Y-4811000D02*
X8015000Y-4836000D01*
X8015000Y-4811000D02*
X7990000Y-4836000D01*
X8037500Y-4033750D02*
X8062500Y-4058750D01*
X8062500Y-4033750D02*
X8037500Y-4058750D01*
X8047500Y-4681000D02*
X8072500Y-4706000D01*
X8072500Y-4681000D02*
X8047500Y-4706000D01*
X8125151Y-4395000D02*
X8150151Y-4420000D01*
X8150151Y-4395000D02*
X8125151Y-4420000D01*
X8147500Y-4560000D02*
X8172500Y-4585000D01*
X8172500Y-4560000D02*
X8147500Y-4585000D01*
X8325000Y-6597500D02*
X8350000Y-6622500D01*
X8350000Y-6597500D02*
X8325000Y-6622500D01*
X8657500Y-5947500D02*
X8682500Y-5972500D01*
X8682500Y-5947500D02*
X8657500Y-5972500D01*
X8937500Y-5547500D02*
X8962500Y-5572500D01*
X8962500Y-5547500D02*
X8937500Y-5572500D01*
X8977500Y-4257500D02*
X9002500Y-4282500D01*
X9002500Y-4257500D02*
X8977500Y-4282500D01*
X9067500Y-4115000D02*
X9092500Y-4140000D01*
X9092500Y-4115000D02*
X9067500Y-4140000D01*
X9077500Y-5687500D02*
X9102500Y-5712500D01*
X9102500Y-5687500D02*
X9077500Y-5712500D01*
X9187500Y-4290000D02*
X9212500Y-4315000D01*
X9212500Y-4290000D02*
X9187500Y-4315000D01*
X9222500Y-3600204D02*
X9247500Y-3625204D01*
X9247500Y-3600204D02*
X9222500Y-3625204D01*
X9285000Y-4405000D02*
X9310000Y-4430000D01*
X9310000Y-4405000D02*
X9285000Y-4430000D01*
X9401375Y-3391375D02*
X9426375Y-3416375D01*
X9426375Y-3391375D02*
X9401375Y-3416375D01*
X9464917Y-3658042D02*
X9489917Y-3683042D01*
X9489917Y-3658042D02*
X9464917Y-3683042D01*
X9607500Y-3866612D02*
X9632500Y-3891612D01*
X9632500Y-3866612D02*
X9607500Y-3891612D01*
X9665350Y-6005350D02*
X9690350Y-6030350D01*
X9690350Y-6005350D02*
X9665350Y-6030350D01*
X9687500Y-6268950D02*
X9712500Y-6293950D01*
X9712500Y-6268950D02*
X9687500Y-6293950D01*
X9687500Y-6460350D02*
X9712500Y-6485350D01*
X9712500Y-6460350D02*
X9687500Y-6485350D01*
X9722850Y-5942150D02*
X9747850Y-5967150D01*
X9747850Y-5942150D02*
X9722850Y-5967150D01*
X10337941Y-5945622D02*
X10362941Y-5970622D01*
X10362941Y-5945622D02*
X10337941Y-5970622D01*
X10361411Y-6252717D02*
X10386411Y-6277717D01*
X10386411Y-6252717D02*
X10361411Y-6277717D01*
X10476750Y-6368298D02*
X10501750Y-6393298D01*
X10501750Y-6368298D02*
X10476750Y-6393298D01*
X10624490Y-6074490D02*
X10649490Y-6099490D01*
X10649490Y-6074490D02*
X10624490Y-6099490D01*
X10937500Y-5286648D02*
X10962500Y-5311648D01*
X10962500Y-5286648D02*
X10937500Y-5311648D01*
X10956750Y-6041500D02*
X10981750Y-6066500D01*
X10981750Y-6041500D02*
X10956750Y-6066500D01*
X10987500Y-6594648D02*
X11012500Y-6619648D01*
X11012500Y-6594648D02*
X10987500Y-6619648D01*
X11307500Y-6207500D02*
X11332500Y-6232500D01*
X11332500Y-6207500D02*
X11307500Y-6232500D01*
X11307500Y-6267500D02*
X11332500Y-6292500D01*
X11332500Y-6267500D02*
X11307500Y-6292500D01*
X11307500Y-6327500D02*
X11332500Y-6352500D01*
X11332500Y-6327500D02*
X11307500Y-6352500D01*
X11327500Y-5477500D02*
X11352500Y-5502500D01*
X11352500Y-5477500D02*
X11327500Y-5502500D01*
X11327500Y-5537500D02*
X11352500Y-5562500D01*
X11352500Y-5537500D02*
X11327500Y-5562500D01*
X11327500Y-5597500D02*
X11352500Y-5622500D01*
X11352500Y-5597500D02*
X11327500Y-5622500D01*
X11327500Y-6957500D02*
X11352500Y-6982500D01*
X11352500Y-6957500D02*
X11327500Y-6982500D01*
X11327500Y-7017500D02*
X11352500Y-7042500D01*
X11352500Y-7017500D02*
X11327500Y-7042500D01*
X11327500Y-7077500D02*
X11352500Y-7102500D01*
X11352500Y-7077500D02*
X11327500Y-7102500D01*
X11367500Y-6207500D02*
X11392500Y-6232500D01*
X11392500Y-6207500D02*
X11367500Y-6232500D01*
X11367500Y-6267500D02*
X11392500Y-6292500D01*
X11392500Y-6267500D02*
X11367500Y-6292500D01*
X11367500Y-6327500D02*
X11392500Y-6352500D01*
X11392500Y-6327500D02*
X11367500Y-6352500D01*
X11387500Y-5477500D02*
X11412500Y-5502500D01*
X11412500Y-5477500D02*
X11387500Y-5502500D01*
X11387500Y-5537500D02*
X11412500Y-5562500D01*
X11412500Y-5537500D02*
X11387500Y-5562500D01*
X11387500Y-5597500D02*
X11412500Y-5622500D01*
X11412500Y-5597500D02*
X11387500Y-5622500D01*
X11387500Y-6957500D02*
X11412500Y-6982500D01*
X11412500Y-6957500D02*
X11387500Y-6982500D01*
X11387500Y-7017500D02*
X11412500Y-7042500D01*
X11412500Y-7017500D02*
X11387500Y-7042500D01*
X11387500Y-7077500D02*
X11412500Y-7102500D01*
X11412500Y-7077500D02*
X11387500Y-7102500D01*
X11422125Y-5972125D02*
X11447125Y-5997125D01*
X11447125Y-5972125D02*
X11422125Y-5997125D01*
X7741125Y-5276125D02*
G75*
G02*
X7711125Y-5276125I-15000J0D01*
G01*
X7711125Y-5276125D02*
G75*
G02*
X7741125Y-5276125I15000J0D01*
G01*
X8410000Y-5456000D02*
G75*
G02*
X8380000Y-5456000I-15000J0D01*
G01*
X8380000Y-5456000D02*
G75*
G02*
X8410000Y-5456000I15000J0D01*
G01*
X8985000Y-3990000D02*
G75*
G02*
X8955000Y-3990000I-15000J0D01*
G01*
X8955000Y-3990000D02*
G75*
G02*
X8985000Y-3990000I15000J0D01*
G01*
X9377500Y-3645899D02*
G75*
G02*
X9347500Y-3645899I-15000J0D01*
G01*
X9347500Y-3645899D02*
G75*
G02*
X9377500Y-3645899I15000J0D01*
G01*
X9595000Y-4007500D02*
G75*
G02*
X9565000Y-4007500I-15000J0D01*
G01*
X9565000Y-4007500D02*
G75*
G02*
X9595000Y-4007500I15000J0D01*
G01*
X5699000Y-3895000D02*
X5699000Y-3925000D01*
X5684000Y-3910000D02*
X5714000Y-3910000D01*
X5699000Y-4015000D02*
X5699000Y-4045000D01*
X5684000Y-4030000D02*
X5714000Y-4030000D01*
X5699000Y-4145000D02*
X5699000Y-4175000D01*
X5684000Y-4160000D02*
X5714000Y-4160000D01*
X5699000Y-4255000D02*
X5699000Y-4285000D01*
X5684000Y-4270000D02*
X5714000Y-4270000D01*
X5819000Y-3895000D02*
X5819000Y-3925000D01*
X5804000Y-3910000D02*
X5834000Y-3910000D01*
X5819000Y-4015000D02*
X5819000Y-4045000D01*
X5804000Y-4030000D02*
X5834000Y-4030000D01*
X5819000Y-4145000D02*
X5819000Y-4175000D01*
X5804000Y-4160000D02*
X5834000Y-4160000D01*
X5819000Y-4255000D02*
X5819000Y-4285000D01*
X5804000Y-4270000D02*
X5834000Y-4270000D01*
X6797218Y-5127218D02*
X6797218Y-5098934D01*
X6768934Y-5098934D01*
X6768934Y-5127218D01*
X6797218Y-5127218D01*
X7344142Y-4976642D02*
X7344142Y-4948358D01*
X7315858Y-4948358D01*
X7315858Y-4976642D01*
X7344142Y-4976642D01*
X7584142Y-4884142D02*
X7584142Y-4855858D01*
X7555858Y-4855858D01*
X7555858Y-4884142D01*
X7584142Y-4884142D01*
X7803272Y-5135142D02*
X7803272Y-5106858D01*
X7774987Y-5106858D01*
X7774987Y-5135142D01*
X7803272Y-5135142D01*
X7976642Y-5120785D02*
X7976642Y-5092500D01*
X7948358Y-5092500D01*
X7948358Y-5120785D01*
X7976642Y-5120785D01*
X8391503Y-5357755D02*
X8391503Y-5329470D01*
X8363218Y-5329470D01*
X8363218Y-5357755D01*
X8391503Y-5357755D01*
X3810000Y-3895000D02*
X3835000Y-3870000D01*
X3810000Y-3845000D01*
X3785000Y-3870000D01*
X3810000Y-3895000D01*
X6610000Y-3205000D02*
X6635000Y-3180000D01*
X6610000Y-3155000D01*
X6585000Y-3180000D01*
X6610000Y-3205000D01*
X6610000Y-5895000D02*
X6635000Y-5870000D01*
X6610000Y-5845000D01*
X6585000Y-5870000D01*
X6610000Y-5895000D01*
X6700000Y-5645000D02*
X6725000Y-5620000D01*
X6700000Y-5595000D01*
X6675000Y-5620000D01*
X6700000Y-5645000D01*
X6790000Y-5815000D02*
X6815000Y-5790000D01*
X6790000Y-5765000D01*
X6765000Y-5790000D01*
X6790000Y-5815000D01*
X6900000Y-3885000D02*
X6925000Y-3860000D01*
X6900000Y-3835000D01*
X6875000Y-3860000D01*
X6900000Y-3885000D01*
X6930000Y-4065000D02*
X6955000Y-4040000D01*
X6930000Y-4015000D01*
X6905000Y-4040000D01*
X6930000Y-4065000D01*
X7090000Y-6155000D02*
X7115000Y-6130000D01*
X7090000Y-6105000D01*
X7065000Y-6130000D01*
X7090000Y-6155000D01*
X7110000Y-6565000D02*
X7135000Y-6540000D01*
X7110000Y-6515000D01*
X7085000Y-6540000D01*
X7110000Y-6565000D01*
X7128677Y-5740298D02*
X7153677Y-5715298D01*
X7128677Y-5690298D01*
X7103677Y-5715298D01*
X7128677Y-5740298D01*
X7449557Y-3962500D02*
X7474557Y-3937500D01*
X7449557Y-3912500D01*
X7424557Y-3937500D01*
X7449557Y-3962500D01*
X7530000Y-4405000D02*
X7555000Y-4380000D01*
X7530000Y-4355000D01*
X7505000Y-4380000D01*
X7530000Y-4405000D01*
X7550000Y-4565000D02*
X7575000Y-4540000D01*
X7550000Y-4515000D01*
X7525000Y-4540000D01*
X7550000Y-4565000D01*
X7567500Y-5585000D02*
X7592500Y-5560000D01*
X7567500Y-5535000D01*
X7542500Y-5560000D01*
X7567500Y-5585000D01*
X7700000Y-4425000D02*
X7725000Y-4400000D01*
X7700000Y-4375000D01*
X7675000Y-4400000D01*
X7700000Y-4425000D01*
X7850000Y-3615000D02*
X7875000Y-3590000D01*
X7850000Y-3565000D01*
X7825000Y-3590000D01*
X7850000Y-3615000D01*
X7860000Y-4435000D02*
X7885000Y-4410000D01*
X7860000Y-4385000D01*
X7835000Y-4410000D01*
X7860000Y-4435000D01*
X7883949Y-5868949D02*
X7908949Y-5843949D01*
X7883949Y-5818949D01*
X7858949Y-5843949D01*
X7883949Y-5868949D01*
X8228602Y-5280000D02*
X8253602Y-5255000D01*
X8228602Y-5230000D01*
X8203602Y-5255000D01*
X8228602Y-5280000D01*
X8263750Y-4755000D02*
X8288750Y-4730000D01*
X8263750Y-4705000D01*
X8238750Y-4730000D01*
X8263750Y-4755000D01*
X8290000Y-4405000D02*
X8315000Y-4380000D01*
X8290000Y-4355000D01*
X8265000Y-4380000D01*
X8290000Y-4405000D01*
X8490000Y-5895000D02*
X8515000Y-5870000D01*
X8490000Y-5845000D01*
X8465000Y-5870000D01*
X8490000Y-5895000D01*
X8540000Y-4495000D02*
X8565000Y-4470000D01*
X8540000Y-4445000D01*
X8515000Y-4470000D01*
X8540000Y-4495000D01*
X8550000Y-3795000D02*
X8575000Y-3770000D01*
X8550000Y-3745000D01*
X8525000Y-3770000D01*
X8550000Y-3795000D01*
X8550000Y-4577500D02*
X8575000Y-4552500D01*
X8550000Y-4527500D01*
X8525000Y-4552500D01*
X8550000Y-4577500D01*
X8550000Y-6585000D02*
X8575000Y-6560000D01*
X8550000Y-6535000D01*
X8525000Y-6560000D01*
X8550000Y-6585000D01*
X9240000Y-3385000D02*
X9265000Y-3360000D01*
X9240000Y-3335000D01*
X9215000Y-3360000D01*
X9240000Y-3385000D01*
X9520000Y-4465000D02*
X9545000Y-4440000D01*
X9520000Y-4415000D01*
X9495000Y-4440000D01*
X9520000Y-4465000D01*
X9740000Y-3655000D02*
X9765000Y-3630000D01*
X9740000Y-3605000D01*
X9715000Y-3630000D01*
X9740000Y-3655000D01*
X11730000Y-3995000D02*
X11755000Y-3970000D01*
X11730000Y-3945000D01*
X11705000Y-3970000D01*
X11730000Y-3995000D01*
X3320000Y-6640000D02*
X3380000Y-6700000D01*
X3380000Y-6640000D02*
X3320000Y-6700000D01*
X3380000Y-6670000D02*
G75*
G02*
X3320000Y-6670000I-30000J0D01*
G01*
X3320000Y-6670000D02*
G75*
G02*
X3380000Y-6670000I30000J0D01*
G01*
X3460000Y-6380000D02*
X3520000Y-6440000D01*
X3520000Y-6380000D02*
X3460000Y-6440000D01*
X3520000Y-6410000D02*
G75*
G02*
X3460000Y-6410000I-30000J0D01*
G01*
X3460000Y-6410000D02*
G75*
G02*
X3520000Y-6410000I30000J0D01*
G01*
X3490000Y-6130000D02*
X3550000Y-6190000D01*
X3550000Y-6130000D02*
X3490000Y-6190000D01*
X3550000Y-6160000D02*
G75*
G02*
X3490000Y-6160000I-30000J0D01*
G01*
X3490000Y-6160000D02*
G75*
G02*
X3550000Y-6160000I30000J0D01*
G01*
X3510000Y-4950000D02*
X3570000Y-5010000D01*
X3570000Y-4950000D02*
X3510000Y-5010000D01*
X3570000Y-4980000D02*
G75*
G02*
X3510000Y-4980000I-30000J0D01*
G01*
X3510000Y-4980000D02*
G75*
G02*
X3570000Y-4980000I30000J0D01*
G01*
X3510000Y-5260000D02*
X3570000Y-5320000D01*
X3570000Y-5260000D02*
X3510000Y-5320000D01*
X3570000Y-5290000D02*
G75*
G02*
X3510000Y-5290000I-30000J0D01*
G01*
X3510000Y-5290000D02*
G75*
G02*
X3570000Y-5290000I30000J0D01*
G01*
X3706650Y-5601534D02*
X3766650Y-5661534D01*
X3766650Y-5601534D02*
X3706650Y-5661534D01*
X3766650Y-5631534D02*
G75*
G02*
X3706650Y-5631534I-30000J0D01*
G01*
X3706650Y-5631534D02*
G75*
G02*
X3766650Y-5631534I30000J0D01*
G01*
X3708650Y-5954350D02*
X3768650Y-6014350D01*
X3768650Y-5954350D02*
X3708650Y-6014350D01*
X3768650Y-5984350D02*
G75*
G02*
X3708650Y-5984350I-30000J0D01*
G01*
X3708650Y-5984350D02*
G75*
G02*
X3768650Y-5984350I30000J0D01*
G01*
X4480000Y-6640000D02*
X4540000Y-6700000D01*
X4540000Y-6640000D02*
X4480000Y-6700000D01*
X4540000Y-6670000D02*
G75*
G02*
X4480000Y-6670000I-30000J0D01*
G01*
X4480000Y-6670000D02*
G75*
G02*
X4540000Y-6670000I30000J0D01*
G01*
X4520000Y-3520000D02*
X4580000Y-3580000D01*
X4580000Y-3520000D02*
X4520000Y-3580000D01*
X4580000Y-3550000D02*
G75*
G02*
X4520000Y-3550000I-30000J0D01*
G01*
X4520000Y-3550000D02*
G75*
G02*
X4580000Y-3550000I30000J0D01*
G01*
X4700000Y-4180000D02*
X4760000Y-4240000D01*
X4760000Y-4180000D02*
X4700000Y-4240000D01*
X4760000Y-4210000D02*
G75*
G02*
X4700000Y-4210000I-30000J0D01*
G01*
X4700000Y-4210000D02*
G75*
G02*
X4760000Y-4210000I30000J0D01*
G01*
X4750000Y-3680000D02*
X4810000Y-3740000D01*
X4810000Y-3680000D02*
X4750000Y-3740000D01*
X4810000Y-3710000D02*
G75*
G02*
X4750000Y-3710000I-30000J0D01*
G01*
X4750000Y-3710000D02*
G75*
G02*
X4810000Y-3710000I30000J0D01*
G01*
X4797500Y-5830000D02*
X4857500Y-5890000D01*
X4857500Y-5830000D02*
X4797500Y-5890000D01*
X4857500Y-5860000D02*
G75*
G02*
X4797500Y-5860000I-30000J0D01*
G01*
X4797500Y-5860000D02*
G75*
G02*
X4857500Y-5860000I30000J0D01*
G01*
X4797500Y-5945000D02*
X4857500Y-6005000D01*
X4857500Y-5945000D02*
X4797500Y-6005000D01*
X4857500Y-5975000D02*
G75*
G02*
X4797500Y-5975000I-30000J0D01*
G01*
X4797500Y-5975000D02*
G75*
G02*
X4857500Y-5975000I30000J0D01*
G01*
X4850000Y-3910000D02*
X4910000Y-3970000D01*
X4910000Y-3910000D02*
X4850000Y-3970000D01*
X4910000Y-3940000D02*
G75*
G02*
X4850000Y-3940000I-30000J0D01*
G01*
X4850000Y-3940000D02*
G75*
G02*
X4910000Y-3940000I30000J0D01*
G01*
X4990000Y-3680000D02*
X5050000Y-3740000D01*
X5050000Y-3680000D02*
X4990000Y-3740000D01*
X5050000Y-3710000D02*
G75*
G02*
X4990000Y-3710000I-30000J0D01*
G01*
X4990000Y-3710000D02*
G75*
G02*
X5050000Y-3710000I30000J0D01*
G01*
X5030000Y-6540000D02*
X5090000Y-6600000D01*
X5090000Y-6540000D02*
X5030000Y-6600000D01*
X5090000Y-6570000D02*
G75*
G02*
X5030000Y-6570000I-30000J0D01*
G01*
X5030000Y-6570000D02*
G75*
G02*
X5090000Y-6570000I30000J0D01*
G01*
X5030000Y-6640000D02*
X5090000Y-6700000D01*
X5090000Y-6640000D02*
X5030000Y-6700000D01*
X5090000Y-6670000D02*
G75*
G02*
X5030000Y-6670000I-30000J0D01*
G01*
X5030000Y-6670000D02*
G75*
G02*
X5090000Y-6670000I30000J0D01*
G01*
X5050000Y-5040000D02*
X5110000Y-5100000D01*
X5110000Y-5040000D02*
X5050000Y-5100000D01*
X5110000Y-5070000D02*
G75*
G02*
X5050000Y-5070000I-30000J0D01*
G01*
X5050000Y-5070000D02*
G75*
G02*
X5110000Y-5070000I30000J0D01*
G01*
X5050000Y-5140000D02*
X5110000Y-5200000D01*
X5110000Y-5140000D02*
X5050000Y-5200000D01*
X5110000Y-5170000D02*
G75*
G02*
X5050000Y-5170000I-30000J0D01*
G01*
X5050000Y-5170000D02*
G75*
G02*
X5110000Y-5170000I30000J0D01*
G01*
X5080000Y-3920000D02*
X5140000Y-3980000D01*
X5140000Y-3920000D02*
X5080000Y-3980000D01*
X5140000Y-3950000D02*
G75*
G02*
X5080000Y-3950000I-30000J0D01*
G01*
X5080000Y-3950000D02*
G75*
G02*
X5140000Y-3950000I30000J0D01*
G01*
X5200000Y-3660000D02*
X5260000Y-3720000D01*
X5260000Y-3660000D02*
X5200000Y-3720000D01*
X5260000Y-3690000D02*
G75*
G02*
X5200000Y-3690000I-30000J0D01*
G01*
X5200000Y-3690000D02*
G75*
G02*
X5260000Y-3690000I30000J0D01*
G01*
X5260000Y-3920000D02*
X5320000Y-3980000D01*
X5320000Y-3920000D02*
X5260000Y-3980000D01*
X5320000Y-3950000D02*
G75*
G02*
X5260000Y-3950000I-30000J0D01*
G01*
X5260000Y-3950000D02*
G75*
G02*
X5320000Y-3950000I30000J0D01*
G01*
X5560000Y-5170000D02*
X5620000Y-5230000D01*
X5620000Y-5170000D02*
X5560000Y-5230000D01*
X5620000Y-5200000D02*
G75*
G02*
X5560000Y-5200000I-30000J0D01*
G01*
X5560000Y-5200000D02*
G75*
G02*
X5620000Y-5200000I30000J0D01*
G01*
X5583744Y-6783744D02*
X5643744Y-6843744D01*
X5643744Y-6783744D02*
X5583744Y-6843744D01*
X5643744Y-6813744D02*
G75*
G02*
X5583744Y-6813744I-30000J0D01*
G01*
X5583744Y-6813744D02*
G75*
G02*
X5643744Y-6813744I30000J0D01*
G01*
X5800000Y-6760000D02*
X5860000Y-6820000D01*
X5860000Y-6760000D02*
X5800000Y-6820000D01*
X5860000Y-6790000D02*
G75*
G02*
X5800000Y-6790000I-30000J0D01*
G01*
X5800000Y-6790000D02*
G75*
G02*
X5860000Y-6790000I30000J0D01*
G01*
X5851944Y-3116600D02*
X5911944Y-3176600D01*
X5911944Y-3116600D02*
X5851944Y-3176600D01*
X5911944Y-3146600D02*
G75*
G02*
X5851944Y-3146600I-30000J0D01*
G01*
X5851944Y-3146600D02*
G75*
G02*
X5911944Y-3146600I30000J0D01*
G01*
X6130000Y-6360000D02*
X6190000Y-6420000D01*
X6190000Y-6360000D02*
X6130000Y-6420000D01*
X6190000Y-6390000D02*
G75*
G02*
X6130000Y-6390000I-30000J0D01*
G01*
X6130000Y-6390000D02*
G75*
G02*
X6190000Y-6390000I30000J0D01*
G01*
X6160000Y-3162100D02*
X6220000Y-3222100D01*
X6220000Y-3162100D02*
X6160000Y-3222100D01*
X6220000Y-3192100D02*
G75*
G02*
X6160000Y-3192100I-30000J0D01*
G01*
X6160000Y-3192100D02*
G75*
G02*
X6220000Y-3192100I30000J0D01*
G01*
X6510000Y-4210000D02*
X6570000Y-4270000D01*
X6570000Y-4210000D02*
X6510000Y-4270000D01*
X6570000Y-4240000D02*
G75*
G02*
X6510000Y-4240000I-30000J0D01*
G01*
X6510000Y-4240000D02*
G75*
G02*
X6570000Y-4240000I30000J0D01*
G01*
X9340000Y-5850000D02*
X9400000Y-5910000D01*
X9400000Y-5850000D02*
X9340000Y-5910000D01*
X9400000Y-5880000D02*
G75*
G02*
X9340000Y-5880000I-30000J0D01*
G01*
X9340000Y-5880000D02*
G75*
G02*
X9400000Y-5880000I30000J0D01*
G01*
X9700000Y-5320000D02*
X9760000Y-5380000D01*
X9760000Y-5320000D02*
X9700000Y-5380000D01*
X9760000Y-5350000D02*
G75*
G02*
X9700000Y-5350000I-30000J0D01*
G01*
X9700000Y-5350000D02*
G75*
G02*
X9760000Y-5350000I30000J0D01*
G01*
X9940000Y-5330000D02*
X10000000Y-5390000D01*
X10000000Y-5330000D02*
X9940000Y-5390000D01*
X10000000Y-5360000D02*
G75*
G02*
X9940000Y-5360000I-30000J0D01*
G01*
X9940000Y-5360000D02*
G75*
G02*
X10000000Y-5360000I30000J0D01*
G01*
X9940000Y-7020000D02*
X10000000Y-7080000D01*
X10000000Y-7020000D02*
X9940000Y-7080000D01*
X10000000Y-7050000D02*
G75*
G02*
X9940000Y-7050000I-30000J0D01*
G01*
X9940000Y-7050000D02*
G75*
G02*
X10000000Y-7050000I30000J0D01*
G01*
X10150000Y-7080000D02*
X10210000Y-7140000D01*
X10210000Y-7080000D02*
X10150000Y-7140000D01*
X10210000Y-7110000D02*
G75*
G02*
X10150000Y-7110000I-30000J0D01*
G01*
X10150000Y-7110000D02*
G75*
G02*
X10210000Y-7110000I30000J0D01*
G01*
X10399486Y-5478397D02*
X10459486Y-5538397D01*
X10459486Y-5478397D02*
X10399486Y-5538397D01*
X10459486Y-5508397D02*
G75*
G02*
X10399486Y-5508397I-30000J0D01*
G01*
X10399486Y-5508397D02*
G75*
G02*
X10459486Y-5508397I30000J0D01*
G01*
X10410000Y-7030000D02*
X10470000Y-7090000D01*
X10470000Y-7030000D02*
X10410000Y-7090000D01*
X10470000Y-7060000D02*
G75*
G02*
X10410000Y-7060000I-30000J0D01*
G01*
X10410000Y-7060000D02*
G75*
G02*
X10470000Y-7060000I30000J0D01*
G01*
X10430000Y-5582500D02*
X10490000Y-5642500D01*
X10490000Y-5582500D02*
X10430000Y-5642500D01*
X10490000Y-5612500D02*
G75*
G02*
X10430000Y-5612500I-30000J0D01*
G01*
X10430000Y-5612500D02*
G75*
G02*
X10490000Y-5612500I30000J0D01*
G01*
X10615009Y-6180373D02*
X10675009Y-6240373D01*
X10675009Y-6180373D02*
X10615009Y-6240373D01*
X10675009Y-6210373D02*
G75*
G02*
X10615009Y-6210373I-30000J0D01*
G01*
X10615009Y-6210373D02*
G75*
G02*
X10675009Y-6210373I30000J0D01*
G01*
X10630407Y-6289593D02*
X10690407Y-6349593D01*
X10690407Y-6289593D02*
X10630407Y-6349593D01*
X10690407Y-6319593D02*
G75*
G02*
X10630407Y-6319593I-30000J0D01*
G01*
X10630407Y-6319593D02*
G75*
G02*
X10690407Y-6319593I30000J0D01*
G01*
X10940000Y-5490000D02*
X11000000Y-5550000D01*
X11000000Y-5490000D02*
X10940000Y-5550000D01*
X11000000Y-5520000D02*
G75*
G02*
X10940000Y-5520000I-30000J0D01*
G01*
X10940000Y-5520000D02*
G75*
G02*
X11000000Y-5520000I30000J0D01*
G01*
X10940000Y-7020000D02*
X11000000Y-7080000D01*
X11000000Y-7020000D02*
X10940000Y-7080000D01*
X11000000Y-7050000D02*
G75*
G02*
X10940000Y-7050000I-30000J0D01*
G01*
X10940000Y-7050000D02*
G75*
G02*
X11000000Y-7050000I30000J0D01*
G01*
X10960000Y-6240000D02*
X11020000Y-6300000D01*
X11020000Y-6240000D02*
X10960000Y-6300000D01*
X11020000Y-6270000D02*
G75*
G02*
X10960000Y-6270000I-30000J0D01*
G01*
X10960000Y-6270000D02*
G75*
G02*
X11020000Y-6270000I30000J0D01*
G01*
X11669000Y-6210000D02*
X11729000Y-6270000D01*
X11729000Y-6210000D02*
X11669000Y-6270000D01*
X11729000Y-6240000D02*
G75*
G02*
X11669000Y-6240000I-30000J0D01*
G01*
X11669000Y-6240000D02*
G75*
G02*
X11729000Y-6240000I30000J0D01*
G01*
X11674000Y-5865000D02*
X11734000Y-5925000D01*
X11734000Y-5865000D02*
X11674000Y-5925000D01*
X11734000Y-5895000D02*
G75*
G02*
X11674000Y-5895000I-30000J0D01*
G01*
X11674000Y-5895000D02*
G75*
G02*
X11734000Y-5895000I30000J0D01*
G01*
X11693750Y-6610000D02*
X11753750Y-6670000D01*
X11753750Y-6610000D02*
X11693750Y-6670000D01*
X11753750Y-6640000D02*
G75*
G02*
X11693750Y-6640000I-30000J0D01*
G01*
X11693750Y-6640000D02*
G75*
G02*
X11753750Y-6640000I30000J0D01*
G01*
X11723750Y-6410000D02*
X11783750Y-6470000D01*
X11783750Y-6410000D02*
X11723750Y-6470000D01*
X11783750Y-6440000D02*
G75*
G02*
X11723750Y-6440000I-30000J0D01*
G01*
X11723750Y-6440000D02*
G75*
G02*
X11783750Y-6440000I30000J0D01*
G01*
X11766250Y-5440000D02*
X11826250Y-5500000D01*
X11826250Y-5440000D02*
X11766250Y-5500000D01*
X11826250Y-5470000D02*
G75*
G02*
X11766250Y-5470000I-30000J0D01*
G01*
X11766250Y-5470000D02*
G75*
G02*
X11826250Y-5470000I30000J0D01*
G01*
X11780000Y-5090000D02*
X11840000Y-5150000D01*
X11840000Y-5090000D02*
X11780000Y-5150000D01*
X11840000Y-5120000D02*
G75*
G02*
X11780000Y-5120000I-30000J0D01*
G01*
X11780000Y-5120000D02*
G75*
G02*
X11840000Y-5120000I30000J0D01*
G01*
X11790000Y-5690000D02*
X11850000Y-5750000D01*
X11850000Y-5690000D02*
X11790000Y-5750000D01*
X11850000Y-5720000D02*
G75*
G02*
X11790000Y-5720000I-30000J0D01*
G01*
X11790000Y-5720000D02*
G75*
G02*
X11850000Y-5720000I30000J0D01*
G01*
X11822000Y-6039000D02*
X11882000Y-6099000D01*
X11882000Y-6039000D02*
X11822000Y-6099000D01*
X11882000Y-6069000D02*
G75*
G02*
X11822000Y-6069000I-30000J0D01*
G01*
X11822000Y-6069000D02*
G75*
G02*
X11882000Y-6069000I30000J0D01*
G01*
X11980000Y-5080000D02*
X12040000Y-5140000D01*
X12040000Y-5080000D02*
X11980000Y-5140000D01*
X12040000Y-5110000D02*
G75*
G02*
X11980000Y-5110000I-30000J0D01*
G01*
X11980000Y-5110000D02*
G75*
G02*
X12040000Y-5110000I30000J0D01*
G01*
X11995827Y-5690350D02*
X12055827Y-5750350D01*
X12055827Y-5690350D02*
X11995827Y-5750350D01*
X12055827Y-5720350D02*
G75*
G02*
X11995827Y-5720350I-30000J0D01*
G01*
X11995827Y-5720350D02*
G75*
G02*
X12055827Y-5720350I30000J0D01*
G01*
X12005185Y-6392176D02*
X12065185Y-6452176D01*
X12065185Y-6392176D02*
X12005185Y-6452176D01*
X12065185Y-6422176D02*
G75*
G02*
X12005185Y-6422176I-30000J0D01*
G01*
X12005185Y-6422176D02*
G75*
G02*
X12065185Y-6422176I30000J0D01*
G01*
X12063750Y-5400000D02*
X12123750Y-5460000D01*
X12123750Y-5400000D02*
X12063750Y-5460000D01*
X12123750Y-5430000D02*
G75*
G02*
X12063750Y-5430000I-30000J0D01*
G01*
X12063750Y-5430000D02*
G75*
G02*
X12123750Y-5430000I30000J0D01*
G01*
X12100000Y-6390350D02*
X12160000Y-6450350D01*
X12160000Y-6390350D02*
X12100000Y-6450350D01*
X12160000Y-6420350D02*
G75*
G02*
X12100000Y-6420350I-30000J0D01*
G01*
X12100000Y-6420350D02*
G75*
G02*
X12160000Y-6420350I30000J0D01*
G01*
X12110000Y-5690350D02*
X12170000Y-5750350D01*
X12170000Y-5690350D02*
X12110000Y-5750350D01*
X12170000Y-5720350D02*
G75*
G02*
X12110000Y-5720350I-30000J0D01*
G01*
X12110000Y-5720350D02*
G75*
G02*
X12170000Y-5720350I30000J0D01*
G01*
X12133584Y-5090000D02*
X12193584Y-5150000D01*
X12193584Y-5090000D02*
X12133584Y-5150000D01*
X12193584Y-5120000D02*
G75*
G02*
X12133584Y-5120000I-30000J0D01*
G01*
X12133584Y-5120000D02*
G75*
G02*
X12193584Y-5120000I30000J0D01*
G01*
X7075000Y-7010000D02*
X7175000Y-7110000D01*
X7175000Y-7010000D02*
X7075000Y-7110000D01*
X7125000Y-7010000D02*
X7125000Y-7110000D01*
X7075000Y-7060000D02*
X7175000Y-7060000D01*
X7329000Y-7010000D02*
X7429000Y-7110000D01*
X7429000Y-7010000D02*
X7329000Y-7110000D01*
X7379000Y-7010000D02*
X7379000Y-7110000D01*
X7329000Y-7060000D02*
X7429000Y-7060000D01*
X7583000Y-7010000D02*
X7683000Y-7110000D01*
X7683000Y-7010000D02*
X7583000Y-7110000D01*
X7633000Y-7010000D02*
X7633000Y-7110000D01*
X7583000Y-7060000D02*
X7683000Y-7060000D01*
X7837000Y-7010000D02*
X7937000Y-7110000D01*
X7937000Y-7010000D02*
X7837000Y-7110000D01*
X7887000Y-7010000D02*
X7887000Y-7110000D01*
X7837000Y-7060000D02*
X7937000Y-7060000D01*
X8091000Y-7010000D02*
X8191000Y-7110000D01*
X8191000Y-7010000D02*
X8091000Y-7110000D01*
X8141000Y-7010000D02*
X8141000Y-7110000D01*
X8091000Y-7060000D02*
X8191000Y-7060000D01*
X8345000Y-7010000D02*
X8445000Y-7110000D01*
X8445000Y-7010000D02*
X8345000Y-7110000D01*
X8395000Y-7010000D02*
X8395000Y-7110000D01*
X8345000Y-7060000D02*
X8445000Y-7060000D01*
D12*
X5500000Y-4740000D02*
X5680000Y-4920000D01*
X5680000Y-4740000D02*
X5500000Y-4920000D01*
X5653640Y-4893640D02*
X5653640Y-4766360D01*
X5526360Y-4766360D01*
X5526360Y-4893640D01*
X5653640Y-4893640D01*
X5900000Y-4740000D02*
X6080000Y-4920000D01*
X6080000Y-4740000D02*
X5900000Y-4920000D01*
X6053640Y-4893640D02*
X6053640Y-4766360D01*
X5926360Y-4766360D01*
X5926360Y-4893640D01*
X6053640Y-4893640D01*
D13*
X3386000Y-3214000D02*
X3606000Y-3434000D01*
X3606000Y-3214000D02*
X3386000Y-3434000D01*
X3496000Y-3434000D02*
X3606000Y-3324000D01*
X3496000Y-3214000D01*
X3386000Y-3324000D01*
X3496000Y-3434000D01*
X3386000Y-6854000D02*
X3606000Y-7074000D01*
X3606000Y-6854000D02*
X3386000Y-7074000D01*
X3496000Y-7074000D02*
X3606000Y-6964000D01*
X3496000Y-6854000D01*
X3386000Y-6964000D01*
X3496000Y-7074000D01*
X11856000Y-3214000D02*
X12076000Y-3434000D01*
X12076000Y-3214000D02*
X11856000Y-3434000D01*
X11966000Y-3434000D02*
X12076000Y-3324000D01*
X11966000Y-3214000D01*
X11856000Y-3324000D01*
X11966000Y-3434000D01*
X11856000Y-6854000D02*
X12076000Y-7074000D01*
X12076000Y-6854000D02*
X11856000Y-7074000D01*
X11966000Y-7074000D02*
X12076000Y-6964000D01*
X11966000Y-6854000D01*
X11856000Y-6964000D01*
X11966000Y-7074000D01*
D11*
X3501277Y-7535484D02*
X3501277Y-7335484D01*
X3501277Y-7335484D02*
X3548896Y-7335484D01*
X3548896Y-7335484D02*
X3577467Y-7345008D01*
X3577467Y-7345008D02*
X3596515Y-7364055D01*
X3596515Y-7364055D02*
X3606038Y-7383103D01*
X3606038Y-7383103D02*
X3615562Y-7421198D01*
X3615562Y-7421198D02*
X3615562Y-7449769D01*
X3615562Y-7449769D02*
X3606038Y-7487865D01*
X3606038Y-7487865D02*
X3596515Y-7506912D01*
X3596515Y-7506912D02*
X3577467Y-7525960D01*
X3577467Y-7525960D02*
X3548896Y-7535484D01*
X3548896Y-7535484D02*
X3501277Y-7535484D01*
X3701277Y-7535484D02*
X3701277Y-7402150D01*
X3701277Y-7440246D02*
X3710800Y-7421198D01*
X3710800Y-7421198D02*
X3720324Y-7411674D01*
X3720324Y-7411674D02*
X3739372Y-7402150D01*
X3739372Y-7402150D02*
X3758419Y-7402150D01*
X3825086Y-7535484D02*
X3825086Y-7402150D01*
X3825086Y-7335484D02*
X3815562Y-7345008D01*
X3815562Y-7345008D02*
X3825086Y-7354531D01*
X3825086Y-7354531D02*
X3834610Y-7345008D01*
X3834610Y-7345008D02*
X3825086Y-7335484D01*
X3825086Y-7335484D02*
X3825086Y-7354531D01*
X3948896Y-7535484D02*
X3929848Y-7525960D01*
X3929848Y-7525960D02*
X3920324Y-7506912D01*
X3920324Y-7506912D02*
X3920324Y-7335484D01*
X4053657Y-7535484D02*
X4034610Y-7525960D01*
X4034610Y-7525960D02*
X4025086Y-7506912D01*
X4025086Y-7506912D02*
X4025086Y-7335484D01*
X4282229Y-7535484D02*
X4282229Y-7335484D01*
X4282229Y-7335484D02*
X4348896Y-7478341D01*
X4348896Y-7478341D02*
X4415562Y-7335484D01*
X4415562Y-7335484D02*
X4415562Y-7535484D01*
X4596515Y-7535484D02*
X4596515Y-7430722D01*
X4596515Y-7430722D02*
X4586991Y-7411674D01*
X4586991Y-7411674D02*
X4567943Y-7402150D01*
X4567943Y-7402150D02*
X4529848Y-7402150D01*
X4529848Y-7402150D02*
X4510800Y-7411674D01*
X4596515Y-7525960D02*
X4577467Y-7535484D01*
X4577467Y-7535484D02*
X4529848Y-7535484D01*
X4529848Y-7535484D02*
X4510800Y-7525960D01*
X4510800Y-7525960D02*
X4501277Y-7506912D01*
X4501277Y-7506912D02*
X4501277Y-7487865D01*
X4501277Y-7487865D02*
X4510800Y-7468817D01*
X4510800Y-7468817D02*
X4529848Y-7459293D01*
X4529848Y-7459293D02*
X4577467Y-7459293D01*
X4577467Y-7459293D02*
X4596515Y-7449769D01*
X4691753Y-7402150D02*
X4691753Y-7602150D01*
X4691753Y-7411674D02*
X4710800Y-7402150D01*
X4710800Y-7402150D02*
X4748896Y-7402150D01*
X4748896Y-7402150D02*
X4767943Y-7411674D01*
X4767943Y-7411674D02*
X4777467Y-7421198D01*
X4777467Y-7421198D02*
X4786991Y-7440246D01*
X4786991Y-7440246D02*
X4786991Y-7497388D01*
X4786991Y-7497388D02*
X4777467Y-7516436D01*
X4777467Y-7516436D02*
X4767943Y-7525960D01*
X4767943Y-7525960D02*
X4748896Y-7535484D01*
X4748896Y-7535484D02*
X4710800Y-7535484D01*
X4710800Y-7535484D02*
X4691753Y-7525960D01*
X4872705Y-7516436D02*
X4882229Y-7525960D01*
X4882229Y-7525960D02*
X4872705Y-7535484D01*
X4872705Y-7535484D02*
X4863181Y-7525960D01*
X4863181Y-7525960D02*
X4872705Y-7516436D01*
X4872705Y-7516436D02*
X4872705Y-7535484D01*
X4872705Y-7411674D02*
X4882229Y-7421198D01*
X4882229Y-7421198D02*
X4872705Y-7430722D01*
X4872705Y-7430722D02*
X4863181Y-7421198D01*
X4863181Y-7421198D02*
X4872705Y-7411674D01*
X4872705Y-7411674D02*
X4872705Y-7430722D01*
D10*
X3215500Y-7851500D02*
X3240500Y-7876500D01*
X3240500Y-7851500D02*
X3215500Y-7876500D01*
D11*
X3539372Y-7755484D02*
X3558419Y-7755484D01*
X3558419Y-7755484D02*
X3577467Y-7765008D01*
X3577467Y-7765008D02*
X3586991Y-7774531D01*
X3586991Y-7774531D02*
X3596515Y-7793579D01*
X3596515Y-7793579D02*
X3606038Y-7831674D01*
X3606038Y-7831674D02*
X3606038Y-7879293D01*
X3606038Y-7879293D02*
X3596515Y-7917388D01*
X3596515Y-7917388D02*
X3586991Y-7936436D01*
X3586991Y-7936436D02*
X3577467Y-7945960D01*
X3577467Y-7945960D02*
X3558419Y-7955484D01*
X3558419Y-7955484D02*
X3539372Y-7955484D01*
X3539372Y-7955484D02*
X3520324Y-7945960D01*
X3520324Y-7945960D02*
X3510800Y-7936436D01*
X3510800Y-7936436D02*
X3501277Y-7917388D01*
X3501277Y-7917388D02*
X3491753Y-7879293D01*
X3491753Y-7879293D02*
X3491753Y-7831674D01*
X3491753Y-7831674D02*
X3501277Y-7793579D01*
X3501277Y-7793579D02*
X3510800Y-7774531D01*
X3510800Y-7774531D02*
X3520324Y-7765008D01*
X3520324Y-7765008D02*
X3539372Y-7755484D01*
X3691753Y-7936436D02*
X3701277Y-7945960D01*
X3701277Y-7945960D02*
X3691753Y-7955484D01*
X3691753Y-7955484D02*
X3682229Y-7945960D01*
X3682229Y-7945960D02*
X3691753Y-7936436D01*
X3691753Y-7936436D02*
X3691753Y-7955484D01*
X3777467Y-7774531D02*
X3786991Y-7765008D01*
X3786991Y-7765008D02*
X3806038Y-7755484D01*
X3806038Y-7755484D02*
X3853658Y-7755484D01*
X3853658Y-7755484D02*
X3872705Y-7765008D01*
X3872705Y-7765008D02*
X3882229Y-7774531D01*
X3882229Y-7774531D02*
X3891753Y-7793579D01*
X3891753Y-7793579D02*
X3891753Y-7812627D01*
X3891753Y-7812627D02*
X3882229Y-7841198D01*
X3882229Y-7841198D02*
X3767943Y-7955484D01*
X3767943Y-7955484D02*
X3891753Y-7955484D01*
X4072705Y-7755484D02*
X3977467Y-7755484D01*
X3977467Y-7755484D02*
X3967943Y-7850722D01*
X3967943Y-7850722D02*
X3977467Y-7841198D01*
X3977467Y-7841198D02*
X3996515Y-7831674D01*
X3996515Y-7831674D02*
X4044134Y-7831674D01*
X4044134Y-7831674D02*
X4063181Y-7841198D01*
X4063181Y-7841198D02*
X4072705Y-7850722D01*
X4072705Y-7850722D02*
X4082229Y-7869769D01*
X4082229Y-7869769D02*
X4082229Y-7917388D01*
X4082229Y-7917388D02*
X4072705Y-7936436D01*
X4072705Y-7936436D02*
X4063181Y-7945960D01*
X4063181Y-7945960D02*
X4044134Y-7955484D01*
X4044134Y-7955484D02*
X3996515Y-7955484D01*
X3996515Y-7955484D02*
X3977467Y-7945960D01*
X3977467Y-7945960D02*
X3967943Y-7936436D01*
X4206039Y-7755484D02*
X4225086Y-7755484D01*
X4225086Y-7755484D02*
X4244134Y-7765008D01*
X4244134Y-7765008D02*
X4253658Y-7774531D01*
X4253658Y-7774531D02*
X4263181Y-7793579D01*
X4263181Y-7793579D02*
X4272705Y-7831674D01*
X4272705Y-7831674D02*
X4272705Y-7879293D01*
X4272705Y-7879293D02*
X4263181Y-7917388D01*
X4263181Y-7917388D02*
X4253658Y-7936436D01*
X4253658Y-7936436D02*
X4244134Y-7945960D01*
X4244134Y-7945960D02*
X4225086Y-7955484D01*
X4225086Y-7955484D02*
X4206039Y-7955484D01*
X4206039Y-7955484D02*
X4186991Y-7945960D01*
X4186991Y-7945960D02*
X4177467Y-7936436D01*
X4177467Y-7936436D02*
X4167943Y-7917388D01*
X4167943Y-7917388D02*
X4158419Y-7879293D01*
X4158419Y-7879293D02*
X4158419Y-7831674D01*
X4158419Y-7831674D02*
X4167943Y-7793579D01*
X4167943Y-7793579D02*
X4177467Y-7774531D01*
X4177467Y-7774531D02*
X4186991Y-7765008D01*
X4186991Y-7765008D02*
X4206039Y-7755484D01*
X4358420Y-7955484D02*
X4358420Y-7822150D01*
X4358420Y-7841198D02*
X4367943Y-7831674D01*
X4367943Y-7831674D02*
X4386991Y-7822150D01*
X4386991Y-7822150D02*
X4415562Y-7822150D01*
X4415562Y-7822150D02*
X4434610Y-7831674D01*
X4434610Y-7831674D02*
X4444134Y-7850722D01*
X4444134Y-7850722D02*
X4444134Y-7955484D01*
X4444134Y-7850722D02*
X4453658Y-7831674D01*
X4453658Y-7831674D02*
X4472705Y-7822150D01*
X4472705Y-7822150D02*
X4501277Y-7822150D01*
X4501277Y-7822150D02*
X4520324Y-7831674D01*
X4520324Y-7831674D02*
X4529848Y-7850722D01*
X4529848Y-7850722D02*
X4529848Y-7955484D01*
X4625086Y-7955484D02*
X4625086Y-7822150D01*
X4625086Y-7841198D02*
X4634610Y-7831674D01*
X4634610Y-7831674D02*
X4653658Y-7822150D01*
X4653658Y-7822150D02*
X4682229Y-7822150D01*
X4682229Y-7822150D02*
X4701277Y-7831674D01*
X4701277Y-7831674D02*
X4710801Y-7850722D01*
X4710801Y-7850722D02*
X4710801Y-7955484D01*
X4710801Y-7850722D02*
X4720324Y-7831674D01*
X4720324Y-7831674D02*
X4739372Y-7822150D01*
X4739372Y-7822150D02*
X4767943Y-7822150D01*
X4767943Y-7822150D02*
X4786991Y-7831674D01*
X4786991Y-7831674D02*
X4796515Y-7850722D01*
X4796515Y-7850722D02*
X4796515Y-7955484D01*
X5186991Y-7745960D02*
X5015563Y-8003103D01*
X5444134Y-7755484D02*
X5463182Y-7755484D01*
X5463182Y-7755484D02*
X5482229Y-7765008D01*
X5482229Y-7765008D02*
X5491753Y-7774531D01*
X5491753Y-7774531D02*
X5501277Y-7793579D01*
X5501277Y-7793579D02*
X5510801Y-7831674D01*
X5510801Y-7831674D02*
X5510801Y-7879293D01*
X5510801Y-7879293D02*
X5501277Y-7917388D01*
X5501277Y-7917388D02*
X5491753Y-7936436D01*
X5491753Y-7936436D02*
X5482229Y-7945960D01*
X5482229Y-7945960D02*
X5463182Y-7955484D01*
X5463182Y-7955484D02*
X5444134Y-7955484D01*
X5444134Y-7955484D02*
X5425086Y-7945960D01*
X5425086Y-7945960D02*
X5415563Y-7936436D01*
X5415563Y-7936436D02*
X5406039Y-7917388D01*
X5406039Y-7917388D02*
X5396515Y-7879293D01*
X5396515Y-7879293D02*
X5396515Y-7831674D01*
X5396515Y-7831674D02*
X5406039Y-7793579D01*
X5406039Y-7793579D02*
X5415563Y-7774531D01*
X5415563Y-7774531D02*
X5425086Y-7765008D01*
X5425086Y-7765008D02*
X5444134Y-7755484D01*
X5596515Y-7936436D02*
X5606039Y-7945960D01*
X5606039Y-7945960D02*
X5596515Y-7955484D01*
X5596515Y-7955484D02*
X5586991Y-7945960D01*
X5586991Y-7945960D02*
X5596515Y-7936436D01*
X5596515Y-7936436D02*
X5596515Y-7955484D01*
X5729848Y-7755484D02*
X5748896Y-7755484D01*
X5748896Y-7755484D02*
X5767943Y-7765008D01*
X5767943Y-7765008D02*
X5777467Y-7774531D01*
X5777467Y-7774531D02*
X5786991Y-7793579D01*
X5786991Y-7793579D02*
X5796515Y-7831674D01*
X5796515Y-7831674D02*
X5796515Y-7879293D01*
X5796515Y-7879293D02*
X5786991Y-7917388D01*
X5786991Y-7917388D02*
X5777467Y-7936436D01*
X5777467Y-7936436D02*
X5767943Y-7945960D01*
X5767943Y-7945960D02*
X5748896Y-7955484D01*
X5748896Y-7955484D02*
X5729848Y-7955484D01*
X5729848Y-7955484D02*
X5710801Y-7945960D01*
X5710801Y-7945960D02*
X5701277Y-7936436D01*
X5701277Y-7936436D02*
X5691753Y-7917388D01*
X5691753Y-7917388D02*
X5682229Y-7879293D01*
X5682229Y-7879293D02*
X5682229Y-7831674D01*
X5682229Y-7831674D02*
X5691753Y-7793579D01*
X5691753Y-7793579D02*
X5701277Y-7774531D01*
X5701277Y-7774531D02*
X5710801Y-7765008D01*
X5710801Y-7765008D02*
X5729848Y-7755484D01*
X5920324Y-7755484D02*
X5939372Y-7755484D01*
X5939372Y-7755484D02*
X5958420Y-7765008D01*
X5958420Y-7765008D02*
X5967943Y-7774531D01*
X5967943Y-7774531D02*
X5977467Y-7793579D01*
X5977467Y-7793579D02*
X5986991Y-7831674D01*
X5986991Y-7831674D02*
X5986991Y-7879293D01*
X5986991Y-7879293D02*
X5977467Y-7917388D01*
X5977467Y-7917388D02*
X5967943Y-7936436D01*
X5967943Y-7936436D02*
X5958420Y-7945960D01*
X5958420Y-7945960D02*
X5939372Y-7955484D01*
X5939372Y-7955484D02*
X5920324Y-7955484D01*
X5920324Y-7955484D02*
X5901277Y-7945960D01*
X5901277Y-7945960D02*
X5891753Y-7936436D01*
X5891753Y-7936436D02*
X5882229Y-7917388D01*
X5882229Y-7917388D02*
X5872705Y-7879293D01*
X5872705Y-7879293D02*
X5872705Y-7831674D01*
X5872705Y-7831674D02*
X5882229Y-7793579D01*
X5882229Y-7793579D02*
X5891753Y-7774531D01*
X5891753Y-7774531D02*
X5901277Y-7765008D01*
X5901277Y-7765008D02*
X5920324Y-7755484D01*
X6082229Y-7955484D02*
X6120324Y-7955484D01*
X6120324Y-7955484D02*
X6139372Y-7945960D01*
X6139372Y-7945960D02*
X6148896Y-7936436D01*
X6148896Y-7936436D02*
X6167943Y-7907865D01*
X6167943Y-7907865D02*
X6177467Y-7869769D01*
X6177467Y-7869769D02*
X6177467Y-7793579D01*
X6177467Y-7793579D02*
X6167943Y-7774531D01*
X6167943Y-7774531D02*
X6158420Y-7765008D01*
X6158420Y-7765008D02*
X6139372Y-7755484D01*
X6139372Y-7755484D02*
X6101277Y-7755484D01*
X6101277Y-7755484D02*
X6082229Y-7765008D01*
X6082229Y-7765008D02*
X6072705Y-7774531D01*
X6072705Y-7774531D02*
X6063182Y-7793579D01*
X6063182Y-7793579D02*
X6063182Y-7841198D01*
X6063182Y-7841198D02*
X6072705Y-7860246D01*
X6072705Y-7860246D02*
X6082229Y-7869769D01*
X6082229Y-7869769D02*
X6101277Y-7879293D01*
X6101277Y-7879293D02*
X6139372Y-7879293D01*
X6139372Y-7879293D02*
X6158420Y-7869769D01*
X6158420Y-7869769D02*
X6167943Y-7860246D01*
X6167943Y-7860246D02*
X6177467Y-7841198D01*
X6291753Y-7841198D02*
X6272705Y-7831674D01*
X6272705Y-7831674D02*
X6263182Y-7822150D01*
X6263182Y-7822150D02*
X6253658Y-7803103D01*
X6253658Y-7803103D02*
X6253658Y-7793579D01*
X6253658Y-7793579D02*
X6263182Y-7774531D01*
X6263182Y-7774531D02*
X6272705Y-7765008D01*
X6272705Y-7765008D02*
X6291753Y-7755484D01*
X6291753Y-7755484D02*
X6329848Y-7755484D01*
X6329848Y-7755484D02*
X6348896Y-7765008D01*
X6348896Y-7765008D02*
X6358420Y-7774531D01*
X6358420Y-7774531D02*
X6367943Y-7793579D01*
X6367943Y-7793579D02*
X6367943Y-7803103D01*
X6367943Y-7803103D02*
X6358420Y-7822150D01*
X6358420Y-7822150D02*
X6348896Y-7831674D01*
X6348896Y-7831674D02*
X6329848Y-7841198D01*
X6329848Y-7841198D02*
X6291753Y-7841198D01*
X6291753Y-7841198D02*
X6272705Y-7850722D01*
X6272705Y-7850722D02*
X6263182Y-7860246D01*
X6263182Y-7860246D02*
X6253658Y-7879293D01*
X6253658Y-7879293D02*
X6253658Y-7917388D01*
X6253658Y-7917388D02*
X6263182Y-7936436D01*
X6263182Y-7936436D02*
X6272705Y-7945960D01*
X6272705Y-7945960D02*
X6291753Y-7955484D01*
X6291753Y-7955484D02*
X6329848Y-7955484D01*
X6329848Y-7955484D02*
X6348896Y-7945960D01*
X6348896Y-7945960D02*
X6358420Y-7936436D01*
X6358420Y-7936436D02*
X6367943Y-7917388D01*
X6367943Y-7917388D02*
X6367943Y-7879293D01*
X6367943Y-7879293D02*
X6358420Y-7860246D01*
X6358420Y-7860246D02*
X6348896Y-7850722D01*
X6348896Y-7850722D02*
X6329848Y-7841198D01*
X6444134Y-7755484D02*
X6444134Y-7793579D01*
X6520324Y-7755484D02*
X6520324Y-7793579D01*
X6815563Y-8031674D02*
X6806039Y-8022150D01*
X6806039Y-8022150D02*
X6786991Y-7993579D01*
X6786991Y-7993579D02*
X6777467Y-7974531D01*
X6777467Y-7974531D02*
X6767944Y-7945960D01*
X6767944Y-7945960D02*
X6758420Y-7898341D01*
X6758420Y-7898341D02*
X6758420Y-7860246D01*
X6758420Y-7860246D02*
X6767944Y-7812627D01*
X6767944Y-7812627D02*
X6777467Y-7784055D01*
X6777467Y-7784055D02*
X6786991Y-7765008D01*
X6786991Y-7765008D02*
X6806039Y-7736436D01*
X6806039Y-7736436D02*
X6815563Y-7726912D01*
X6996515Y-7955484D02*
X6882229Y-7955484D01*
X6939372Y-7955484D02*
X6939372Y-7755484D01*
X6939372Y-7755484D02*
X6920324Y-7784055D01*
X6920324Y-7784055D02*
X6901277Y-7803103D01*
X6901277Y-7803103D02*
X6882229Y-7812627D01*
X7186991Y-7955484D02*
X7072705Y-7955484D01*
X7129848Y-7955484D02*
X7129848Y-7755484D01*
X7129848Y-7755484D02*
X7110801Y-7784055D01*
X7110801Y-7784055D02*
X7091753Y-7803103D01*
X7091753Y-7803103D02*
X7072705Y-7812627D01*
X7367944Y-7755484D02*
X7272705Y-7755484D01*
X7272705Y-7755484D02*
X7263182Y-7850722D01*
X7263182Y-7850722D02*
X7272705Y-7841198D01*
X7272705Y-7841198D02*
X7291753Y-7831674D01*
X7291753Y-7831674D02*
X7339372Y-7831674D01*
X7339372Y-7831674D02*
X7358420Y-7841198D01*
X7358420Y-7841198D02*
X7367944Y-7850722D01*
X7367944Y-7850722D02*
X7377467Y-7869769D01*
X7377467Y-7869769D02*
X7377467Y-7917388D01*
X7377467Y-7917388D02*
X7367944Y-7936436D01*
X7367944Y-7936436D02*
X7358420Y-7945960D01*
X7358420Y-7945960D02*
X7339372Y-7955484D01*
X7339372Y-7955484D02*
X7291753Y-7955484D01*
X7291753Y-7955484D02*
X7272705Y-7945960D01*
X7272705Y-7945960D02*
X7263182Y-7936436D01*
X7615563Y-7955484D02*
X7615563Y-7755484D01*
X7701277Y-7955484D02*
X7701277Y-7850722D01*
X7701277Y-7850722D02*
X7691753Y-7831674D01*
X7691753Y-7831674D02*
X7672706Y-7822150D01*
X7672706Y-7822150D02*
X7644134Y-7822150D01*
X7644134Y-7822150D02*
X7625086Y-7831674D01*
X7625086Y-7831674D02*
X7615563Y-7841198D01*
X7825086Y-7955484D02*
X7806039Y-7945960D01*
X7806039Y-7945960D02*
X7796515Y-7936436D01*
X7796515Y-7936436D02*
X7786991Y-7917388D01*
X7786991Y-7917388D02*
X7786991Y-7860246D01*
X7786991Y-7860246D02*
X7796515Y-7841198D01*
X7796515Y-7841198D02*
X7806039Y-7831674D01*
X7806039Y-7831674D02*
X7825086Y-7822150D01*
X7825086Y-7822150D02*
X7853658Y-7822150D01*
X7853658Y-7822150D02*
X7872706Y-7831674D01*
X7872706Y-7831674D02*
X7882229Y-7841198D01*
X7882229Y-7841198D02*
X7891753Y-7860246D01*
X7891753Y-7860246D02*
X7891753Y-7917388D01*
X7891753Y-7917388D02*
X7882229Y-7936436D01*
X7882229Y-7936436D02*
X7872706Y-7945960D01*
X7872706Y-7945960D02*
X7853658Y-7955484D01*
X7853658Y-7955484D02*
X7825086Y-7955484D01*
X8006039Y-7955484D02*
X7986991Y-7945960D01*
X7986991Y-7945960D02*
X7977467Y-7926912D01*
X7977467Y-7926912D02*
X7977467Y-7755484D01*
X8158420Y-7945960D02*
X8139372Y-7955484D01*
X8139372Y-7955484D02*
X8101277Y-7955484D01*
X8101277Y-7955484D02*
X8082229Y-7945960D01*
X8082229Y-7945960D02*
X8072706Y-7926912D01*
X8072706Y-7926912D02*
X8072706Y-7850722D01*
X8072706Y-7850722D02*
X8082229Y-7831674D01*
X8082229Y-7831674D02*
X8101277Y-7822150D01*
X8101277Y-7822150D02*
X8139372Y-7822150D01*
X8139372Y-7822150D02*
X8158420Y-7831674D01*
X8158420Y-7831674D02*
X8167944Y-7850722D01*
X8167944Y-7850722D02*
X8167944Y-7869769D01*
X8167944Y-7869769D02*
X8072706Y-7888817D01*
X8244134Y-7945960D02*
X8263182Y-7955484D01*
X8263182Y-7955484D02*
X8301277Y-7955484D01*
X8301277Y-7955484D02*
X8320325Y-7945960D01*
X8320325Y-7945960D02*
X8329848Y-7926912D01*
X8329848Y-7926912D02*
X8329848Y-7917388D01*
X8329848Y-7917388D02*
X8320325Y-7898341D01*
X8320325Y-7898341D02*
X8301277Y-7888817D01*
X8301277Y-7888817D02*
X8272706Y-7888817D01*
X8272706Y-7888817D02*
X8253658Y-7879293D01*
X8253658Y-7879293D02*
X8244134Y-7860246D01*
X8244134Y-7860246D02*
X8244134Y-7850722D01*
X8244134Y-7850722D02*
X8253658Y-7831674D01*
X8253658Y-7831674D02*
X8272706Y-7822150D01*
X8272706Y-7822150D02*
X8301277Y-7822150D01*
X8301277Y-7822150D02*
X8320325Y-7831674D01*
X8396515Y-8031674D02*
X8406039Y-8022150D01*
X8406039Y-8022150D02*
X8425087Y-7993579D01*
X8425087Y-7993579D02*
X8434610Y-7974531D01*
X8434610Y-7974531D02*
X8444134Y-7945960D01*
X8444134Y-7945960D02*
X8453658Y-7898341D01*
X8453658Y-7898341D02*
X8453658Y-7860246D01*
X8453658Y-7860246D02*
X8444134Y-7812627D01*
X8444134Y-7812627D02*
X8434610Y-7784055D01*
X8434610Y-7784055D02*
X8425087Y-7765008D01*
X8425087Y-7765008D02*
X8406039Y-7736436D01*
X8406039Y-7736436D02*
X8396515Y-7726912D01*
D10*
X3240500Y-8128000D02*
G75*
G02*
X3210500Y-8128000I-15000J0D01*
G01*
X3210500Y-8128000D02*
G75*
G02*
X3240500Y-8128000I15000J0D01*
G01*
D11*
X3539372Y-8019484D02*
X3558419Y-8019484D01*
X3558419Y-8019484D02*
X3577467Y-8029008D01*
X3577467Y-8029008D02*
X3586991Y-8038531D01*
X3586991Y-8038531D02*
X3596515Y-8057579D01*
X3596515Y-8057579D02*
X3606038Y-8095674D01*
X3606038Y-8095674D02*
X3606038Y-8143293D01*
X3606038Y-8143293D02*
X3596515Y-8181388D01*
X3596515Y-8181388D02*
X3586991Y-8200436D01*
X3586991Y-8200436D02*
X3577467Y-8209960D01*
X3577467Y-8209960D02*
X3558419Y-8219484D01*
X3558419Y-8219484D02*
X3539372Y-8219484D01*
X3539372Y-8219484D02*
X3520324Y-8209960D01*
X3520324Y-8209960D02*
X3510800Y-8200436D01*
X3510800Y-8200436D02*
X3501277Y-8181388D01*
X3501277Y-8181388D02*
X3491753Y-8143293D01*
X3491753Y-8143293D02*
X3491753Y-8095674D01*
X3491753Y-8095674D02*
X3501277Y-8057579D01*
X3501277Y-8057579D02*
X3510800Y-8038531D01*
X3510800Y-8038531D02*
X3520324Y-8029008D01*
X3520324Y-8029008D02*
X3539372Y-8019484D01*
X3691753Y-8200436D02*
X3701277Y-8209960D01*
X3701277Y-8209960D02*
X3691753Y-8219484D01*
X3691753Y-8219484D02*
X3682229Y-8209960D01*
X3682229Y-8209960D02*
X3691753Y-8200436D01*
X3691753Y-8200436D02*
X3691753Y-8219484D01*
X3767943Y-8019484D02*
X3891753Y-8019484D01*
X3891753Y-8019484D02*
X3825086Y-8095674D01*
X3825086Y-8095674D02*
X3853658Y-8095674D01*
X3853658Y-8095674D02*
X3872705Y-8105198D01*
X3872705Y-8105198D02*
X3882229Y-8114722D01*
X3882229Y-8114722D02*
X3891753Y-8133769D01*
X3891753Y-8133769D02*
X3891753Y-8181388D01*
X3891753Y-8181388D02*
X3882229Y-8200436D01*
X3882229Y-8200436D02*
X3872705Y-8209960D01*
X3872705Y-8209960D02*
X3853658Y-8219484D01*
X3853658Y-8219484D02*
X3796515Y-8219484D01*
X3796515Y-8219484D02*
X3777467Y-8209960D01*
X3777467Y-8209960D02*
X3767943Y-8200436D01*
X4015562Y-8019484D02*
X4034610Y-8019484D01*
X4034610Y-8019484D02*
X4053658Y-8029008D01*
X4053658Y-8029008D02*
X4063181Y-8038531D01*
X4063181Y-8038531D02*
X4072705Y-8057579D01*
X4072705Y-8057579D02*
X4082229Y-8095674D01*
X4082229Y-8095674D02*
X4082229Y-8143293D01*
X4082229Y-8143293D02*
X4072705Y-8181388D01*
X4072705Y-8181388D02*
X4063181Y-8200436D01*
X4063181Y-8200436D02*
X4053658Y-8209960D01*
X4053658Y-8209960D02*
X4034610Y-8219484D01*
X4034610Y-8219484D02*
X4015562Y-8219484D01*
X4015562Y-8219484D02*
X3996515Y-8209960D01*
X3996515Y-8209960D02*
X3986991Y-8200436D01*
X3986991Y-8200436D02*
X3977467Y-8181388D01*
X3977467Y-8181388D02*
X3967943Y-8143293D01*
X3967943Y-8143293D02*
X3967943Y-8095674D01*
X3967943Y-8095674D02*
X3977467Y-8057579D01*
X3977467Y-8057579D02*
X3986991Y-8038531D01*
X3986991Y-8038531D02*
X3996515Y-8029008D01*
X3996515Y-8029008D02*
X4015562Y-8019484D01*
X4206039Y-8019484D02*
X4225086Y-8019484D01*
X4225086Y-8019484D02*
X4244134Y-8029008D01*
X4244134Y-8029008D02*
X4253658Y-8038531D01*
X4253658Y-8038531D02*
X4263181Y-8057579D01*
X4263181Y-8057579D02*
X4272705Y-8095674D01*
X4272705Y-8095674D02*
X4272705Y-8143293D01*
X4272705Y-8143293D02*
X4263181Y-8181388D01*
X4263181Y-8181388D02*
X4253658Y-8200436D01*
X4253658Y-8200436D02*
X4244134Y-8209960D01*
X4244134Y-8209960D02*
X4225086Y-8219484D01*
X4225086Y-8219484D02*
X4206039Y-8219484D01*
X4206039Y-8219484D02*
X4186991Y-8209960D01*
X4186991Y-8209960D02*
X4177467Y-8200436D01*
X4177467Y-8200436D02*
X4167943Y-8181388D01*
X4167943Y-8181388D02*
X4158419Y-8143293D01*
X4158419Y-8143293D02*
X4158419Y-8095674D01*
X4158419Y-8095674D02*
X4167943Y-8057579D01*
X4167943Y-8057579D02*
X4177467Y-8038531D01*
X4177467Y-8038531D02*
X4186991Y-8029008D01*
X4186991Y-8029008D02*
X4206039Y-8019484D01*
X4358420Y-8219484D02*
X4358420Y-8086150D01*
X4358420Y-8105198D02*
X4367943Y-8095674D01*
X4367943Y-8095674D02*
X4386991Y-8086150D01*
X4386991Y-8086150D02*
X4415562Y-8086150D01*
X4415562Y-8086150D02*
X4434610Y-8095674D01*
X4434610Y-8095674D02*
X4444134Y-8114722D01*
X4444134Y-8114722D02*
X4444134Y-8219484D01*
X4444134Y-8114722D02*
X4453658Y-8095674D01*
X4453658Y-8095674D02*
X4472705Y-8086150D01*
X4472705Y-8086150D02*
X4501277Y-8086150D01*
X4501277Y-8086150D02*
X4520324Y-8095674D01*
X4520324Y-8095674D02*
X4529848Y-8114722D01*
X4529848Y-8114722D02*
X4529848Y-8219484D01*
X4625086Y-8219484D02*
X4625086Y-8086150D01*
X4625086Y-8105198D02*
X4634610Y-8095674D01*
X4634610Y-8095674D02*
X4653658Y-8086150D01*
X4653658Y-8086150D02*
X4682229Y-8086150D01*
X4682229Y-8086150D02*
X4701277Y-8095674D01*
X4701277Y-8095674D02*
X4710801Y-8114722D01*
X4710801Y-8114722D02*
X4710801Y-8219484D01*
X4710801Y-8114722D02*
X4720324Y-8095674D01*
X4720324Y-8095674D02*
X4739372Y-8086150D01*
X4739372Y-8086150D02*
X4767943Y-8086150D01*
X4767943Y-8086150D02*
X4786991Y-8095674D01*
X4786991Y-8095674D02*
X4796515Y-8114722D01*
X4796515Y-8114722D02*
X4796515Y-8219484D01*
X5186991Y-8009960D02*
X5015563Y-8267103D01*
X5444134Y-8019484D02*
X5463182Y-8019484D01*
X5463182Y-8019484D02*
X5482229Y-8029008D01*
X5482229Y-8029008D02*
X5491753Y-8038531D01*
X5491753Y-8038531D02*
X5501277Y-8057579D01*
X5501277Y-8057579D02*
X5510801Y-8095674D01*
X5510801Y-8095674D02*
X5510801Y-8143293D01*
X5510801Y-8143293D02*
X5501277Y-8181388D01*
X5501277Y-8181388D02*
X5491753Y-8200436D01*
X5491753Y-8200436D02*
X5482229Y-8209960D01*
X5482229Y-8209960D02*
X5463182Y-8219484D01*
X5463182Y-8219484D02*
X5444134Y-8219484D01*
X5444134Y-8219484D02*
X5425086Y-8209960D01*
X5425086Y-8209960D02*
X5415563Y-8200436D01*
X5415563Y-8200436D02*
X5406039Y-8181388D01*
X5406039Y-8181388D02*
X5396515Y-8143293D01*
X5396515Y-8143293D02*
X5396515Y-8095674D01*
X5396515Y-8095674D02*
X5406039Y-8057579D01*
X5406039Y-8057579D02*
X5415563Y-8038531D01*
X5415563Y-8038531D02*
X5425086Y-8029008D01*
X5425086Y-8029008D02*
X5444134Y-8019484D01*
X5596515Y-8200436D02*
X5606039Y-8209960D01*
X5606039Y-8209960D02*
X5596515Y-8219484D01*
X5596515Y-8219484D02*
X5586991Y-8209960D01*
X5586991Y-8209960D02*
X5596515Y-8200436D01*
X5596515Y-8200436D02*
X5596515Y-8219484D01*
X5729848Y-8019484D02*
X5748896Y-8019484D01*
X5748896Y-8019484D02*
X5767943Y-8029008D01*
X5767943Y-8029008D02*
X5777467Y-8038531D01*
X5777467Y-8038531D02*
X5786991Y-8057579D01*
X5786991Y-8057579D02*
X5796515Y-8095674D01*
X5796515Y-8095674D02*
X5796515Y-8143293D01*
X5796515Y-8143293D02*
X5786991Y-8181388D01*
X5786991Y-8181388D02*
X5777467Y-8200436D01*
X5777467Y-8200436D02*
X5767943Y-8209960D01*
X5767943Y-8209960D02*
X5748896Y-8219484D01*
X5748896Y-8219484D02*
X5729848Y-8219484D01*
X5729848Y-8219484D02*
X5710801Y-8209960D01*
X5710801Y-8209960D02*
X5701277Y-8200436D01*
X5701277Y-8200436D02*
X5691753Y-8181388D01*
X5691753Y-8181388D02*
X5682229Y-8143293D01*
X5682229Y-8143293D02*
X5682229Y-8095674D01*
X5682229Y-8095674D02*
X5691753Y-8057579D01*
X5691753Y-8057579D02*
X5701277Y-8038531D01*
X5701277Y-8038531D02*
X5710801Y-8029008D01*
X5710801Y-8029008D02*
X5729848Y-8019484D01*
X5986991Y-8219484D02*
X5872705Y-8219484D01*
X5929848Y-8219484D02*
X5929848Y-8019484D01*
X5929848Y-8019484D02*
X5910801Y-8048055D01*
X5910801Y-8048055D02*
X5891753Y-8067103D01*
X5891753Y-8067103D02*
X5872705Y-8076627D01*
X6177467Y-8219484D02*
X6063182Y-8219484D01*
X6120324Y-8219484D02*
X6120324Y-8019484D01*
X6120324Y-8019484D02*
X6101277Y-8048055D01*
X6101277Y-8048055D02*
X6082229Y-8067103D01*
X6082229Y-8067103D02*
X6063182Y-8076627D01*
X6291753Y-8105198D02*
X6272705Y-8095674D01*
X6272705Y-8095674D02*
X6263182Y-8086150D01*
X6263182Y-8086150D02*
X6253658Y-8067103D01*
X6253658Y-8067103D02*
X6253658Y-8057579D01*
X6253658Y-8057579D02*
X6263182Y-8038531D01*
X6263182Y-8038531D02*
X6272705Y-8029008D01*
X6272705Y-8029008D02*
X6291753Y-8019484D01*
X6291753Y-8019484D02*
X6329848Y-8019484D01*
X6329848Y-8019484D02*
X6348896Y-8029008D01*
X6348896Y-8029008D02*
X6358420Y-8038531D01*
X6358420Y-8038531D02*
X6367943Y-8057579D01*
X6367943Y-8057579D02*
X6367943Y-8067103D01*
X6367943Y-8067103D02*
X6358420Y-8086150D01*
X6358420Y-8086150D02*
X6348896Y-8095674D01*
X6348896Y-8095674D02*
X6329848Y-8105198D01*
X6329848Y-8105198D02*
X6291753Y-8105198D01*
X6291753Y-8105198D02*
X6272705Y-8114722D01*
X6272705Y-8114722D02*
X6263182Y-8124246D01*
X6263182Y-8124246D02*
X6253658Y-8143293D01*
X6253658Y-8143293D02*
X6253658Y-8181388D01*
X6253658Y-8181388D02*
X6263182Y-8200436D01*
X6263182Y-8200436D02*
X6272705Y-8209960D01*
X6272705Y-8209960D02*
X6291753Y-8219484D01*
X6291753Y-8219484D02*
X6329848Y-8219484D01*
X6329848Y-8219484D02*
X6348896Y-8209960D01*
X6348896Y-8209960D02*
X6358420Y-8200436D01*
X6358420Y-8200436D02*
X6367943Y-8181388D01*
X6367943Y-8181388D02*
X6367943Y-8143293D01*
X6367943Y-8143293D02*
X6358420Y-8124246D01*
X6358420Y-8124246D02*
X6348896Y-8114722D01*
X6348896Y-8114722D02*
X6329848Y-8105198D01*
X6444134Y-8019484D02*
X6444134Y-8057579D01*
X6520324Y-8019484D02*
X6520324Y-8057579D01*
X6815563Y-8295674D02*
X6806039Y-8286150D01*
X6806039Y-8286150D02*
X6786991Y-8257579D01*
X6786991Y-8257579D02*
X6777467Y-8238531D01*
X6777467Y-8238531D02*
X6767944Y-8209960D01*
X6767944Y-8209960D02*
X6758420Y-8162341D01*
X6758420Y-8162341D02*
X6758420Y-8124246D01*
X6758420Y-8124246D02*
X6767944Y-8076627D01*
X6767944Y-8076627D02*
X6777467Y-8048055D01*
X6777467Y-8048055D02*
X6786991Y-8029008D01*
X6786991Y-8029008D02*
X6806039Y-8000436D01*
X6806039Y-8000436D02*
X6815563Y-7990912D01*
X6986991Y-8019484D02*
X6891753Y-8019484D01*
X6891753Y-8019484D02*
X6882229Y-8114722D01*
X6882229Y-8114722D02*
X6891753Y-8105198D01*
X6891753Y-8105198D02*
X6910801Y-8095674D01*
X6910801Y-8095674D02*
X6958420Y-8095674D01*
X6958420Y-8095674D02*
X6977467Y-8105198D01*
X6977467Y-8105198D02*
X6986991Y-8114722D01*
X6986991Y-8114722D02*
X6996515Y-8133769D01*
X6996515Y-8133769D02*
X6996515Y-8181388D01*
X6996515Y-8181388D02*
X6986991Y-8200436D01*
X6986991Y-8200436D02*
X6977467Y-8209960D01*
X6977467Y-8209960D02*
X6958420Y-8219484D01*
X6958420Y-8219484D02*
X6910801Y-8219484D01*
X6910801Y-8219484D02*
X6891753Y-8209960D01*
X6891753Y-8209960D02*
X6882229Y-8200436D01*
X7234610Y-8219484D02*
X7234610Y-8019484D01*
X7320325Y-8219484D02*
X7320325Y-8114722D01*
X7320325Y-8114722D02*
X7310801Y-8095674D01*
X7310801Y-8095674D02*
X7291753Y-8086150D01*
X7291753Y-8086150D02*
X7263182Y-8086150D01*
X7263182Y-8086150D02*
X7244134Y-8095674D01*
X7244134Y-8095674D02*
X7234610Y-8105198D01*
X7444134Y-8219484D02*
X7425086Y-8209960D01*
X7425086Y-8209960D02*
X7415563Y-8200436D01*
X7415563Y-8200436D02*
X7406039Y-8181388D01*
X7406039Y-8181388D02*
X7406039Y-8124246D01*
X7406039Y-8124246D02*
X7415563Y-8105198D01*
X7415563Y-8105198D02*
X7425086Y-8095674D01*
X7425086Y-8095674D02*
X7444134Y-8086150D01*
X7444134Y-8086150D02*
X7472706Y-8086150D01*
X7472706Y-8086150D02*
X7491753Y-8095674D01*
X7491753Y-8095674D02*
X7501277Y-8105198D01*
X7501277Y-8105198D02*
X7510801Y-8124246D01*
X7510801Y-8124246D02*
X7510801Y-8181388D01*
X7510801Y-8181388D02*
X7501277Y-8200436D01*
X7501277Y-8200436D02*
X7491753Y-8209960D01*
X7491753Y-8209960D02*
X7472706Y-8219484D01*
X7472706Y-8219484D02*
X7444134Y-8219484D01*
X7625086Y-8219484D02*
X7606039Y-8209960D01*
X7606039Y-8209960D02*
X7596515Y-8190912D01*
X7596515Y-8190912D02*
X7596515Y-8019484D01*
X7777467Y-8209960D02*
X7758420Y-8219484D01*
X7758420Y-8219484D02*
X7720325Y-8219484D01*
X7720325Y-8219484D02*
X7701277Y-8209960D01*
X7701277Y-8209960D02*
X7691753Y-8190912D01*
X7691753Y-8190912D02*
X7691753Y-8114722D01*
X7691753Y-8114722D02*
X7701277Y-8095674D01*
X7701277Y-8095674D02*
X7720325Y-8086150D01*
X7720325Y-8086150D02*
X7758420Y-8086150D01*
X7758420Y-8086150D02*
X7777467Y-8095674D01*
X7777467Y-8095674D02*
X7786991Y-8114722D01*
X7786991Y-8114722D02*
X7786991Y-8133769D01*
X7786991Y-8133769D02*
X7691753Y-8152817D01*
X7863182Y-8209960D02*
X7882229Y-8219484D01*
X7882229Y-8219484D02*
X7920325Y-8219484D01*
X7920325Y-8219484D02*
X7939372Y-8209960D01*
X7939372Y-8209960D02*
X7948896Y-8190912D01*
X7948896Y-8190912D02*
X7948896Y-8181388D01*
X7948896Y-8181388D02*
X7939372Y-8162341D01*
X7939372Y-8162341D02*
X7920325Y-8152817D01*
X7920325Y-8152817D02*
X7891753Y-8152817D01*
X7891753Y-8152817D02*
X7872706Y-8143293D01*
X7872706Y-8143293D02*
X7863182Y-8124246D01*
X7863182Y-8124246D02*
X7863182Y-8114722D01*
X7863182Y-8114722D02*
X7872706Y-8095674D01*
X7872706Y-8095674D02*
X7891753Y-8086150D01*
X7891753Y-8086150D02*
X7920325Y-8086150D01*
X7920325Y-8086150D02*
X7939372Y-8095674D01*
X8015563Y-8295674D02*
X8025087Y-8286150D01*
X8025087Y-8286150D02*
X8044134Y-8257579D01*
X8044134Y-8257579D02*
X8053658Y-8238531D01*
X8053658Y-8238531D02*
X8063182Y-8209960D01*
X8063182Y-8209960D02*
X8072706Y-8162341D01*
X8072706Y-8162341D02*
X8072706Y-8124246D01*
X8072706Y-8124246D02*
X8063182Y-8076627D01*
X8063182Y-8076627D02*
X8053658Y-8048055D01*
X8053658Y-8048055D02*
X8044134Y-8029008D01*
X8044134Y-8029008D02*
X8025087Y-8000436D01*
X8025087Y-8000436D02*
X8015563Y-7990912D01*
D10*
X3225500Y-8377000D02*
X3225500Y-8407000D01*
X3210500Y-8392000D02*
X3240500Y-8392000D01*
D11*
X3539372Y-8283484D02*
X3558419Y-8283484D01*
X3558419Y-8283484D02*
X3577467Y-8293008D01*
X3577467Y-8293008D02*
X3586991Y-8302531D01*
X3586991Y-8302531D02*
X3596515Y-8321579D01*
X3596515Y-8321579D02*
X3606038Y-8359674D01*
X3606038Y-8359674D02*
X3606038Y-8407293D01*
X3606038Y-8407293D02*
X3596515Y-8445389D01*
X3596515Y-8445389D02*
X3586991Y-8464436D01*
X3586991Y-8464436D02*
X3577467Y-8473960D01*
X3577467Y-8473960D02*
X3558419Y-8483484D01*
X3558419Y-8483484D02*
X3539372Y-8483484D01*
X3539372Y-8483484D02*
X3520324Y-8473960D01*
X3520324Y-8473960D02*
X3510800Y-8464436D01*
X3510800Y-8464436D02*
X3501277Y-8445389D01*
X3501277Y-8445389D02*
X3491753Y-8407293D01*
X3491753Y-8407293D02*
X3491753Y-8359674D01*
X3491753Y-8359674D02*
X3501277Y-8321579D01*
X3501277Y-8321579D02*
X3510800Y-8302531D01*
X3510800Y-8302531D02*
X3520324Y-8293008D01*
X3520324Y-8293008D02*
X3539372Y-8283484D01*
X3691753Y-8464436D02*
X3701277Y-8473960D01*
X3701277Y-8473960D02*
X3691753Y-8483484D01*
X3691753Y-8483484D02*
X3682229Y-8473960D01*
X3682229Y-8473960D02*
X3691753Y-8464436D01*
X3691753Y-8464436D02*
X3691753Y-8483484D01*
X3767943Y-8283484D02*
X3891753Y-8283484D01*
X3891753Y-8283484D02*
X3825086Y-8359674D01*
X3825086Y-8359674D02*
X3853658Y-8359674D01*
X3853658Y-8359674D02*
X3872705Y-8369198D01*
X3872705Y-8369198D02*
X3882229Y-8378722D01*
X3882229Y-8378722D02*
X3891753Y-8397770D01*
X3891753Y-8397770D02*
X3891753Y-8445389D01*
X3891753Y-8445389D02*
X3882229Y-8464436D01*
X3882229Y-8464436D02*
X3872705Y-8473960D01*
X3872705Y-8473960D02*
X3853658Y-8483484D01*
X3853658Y-8483484D02*
X3796515Y-8483484D01*
X3796515Y-8483484D02*
X3777467Y-8473960D01*
X3777467Y-8473960D02*
X3767943Y-8464436D01*
X4015562Y-8283484D02*
X4034610Y-8283484D01*
X4034610Y-8283484D02*
X4053658Y-8293008D01*
X4053658Y-8293008D02*
X4063181Y-8302531D01*
X4063181Y-8302531D02*
X4072705Y-8321579D01*
X4072705Y-8321579D02*
X4082229Y-8359674D01*
X4082229Y-8359674D02*
X4082229Y-8407293D01*
X4082229Y-8407293D02*
X4072705Y-8445389D01*
X4072705Y-8445389D02*
X4063181Y-8464436D01*
X4063181Y-8464436D02*
X4053658Y-8473960D01*
X4053658Y-8473960D02*
X4034610Y-8483484D01*
X4034610Y-8483484D02*
X4015562Y-8483484D01*
X4015562Y-8483484D02*
X3996515Y-8473960D01*
X3996515Y-8473960D02*
X3986991Y-8464436D01*
X3986991Y-8464436D02*
X3977467Y-8445389D01*
X3977467Y-8445389D02*
X3967943Y-8407293D01*
X3967943Y-8407293D02*
X3967943Y-8359674D01*
X3967943Y-8359674D02*
X3977467Y-8321579D01*
X3977467Y-8321579D02*
X3986991Y-8302531D01*
X3986991Y-8302531D02*
X3996515Y-8293008D01*
X3996515Y-8293008D02*
X4015562Y-8283484D01*
X4206039Y-8283484D02*
X4225086Y-8283484D01*
X4225086Y-8283484D02*
X4244134Y-8293008D01*
X4244134Y-8293008D02*
X4253658Y-8302531D01*
X4253658Y-8302531D02*
X4263181Y-8321579D01*
X4263181Y-8321579D02*
X4272705Y-8359674D01*
X4272705Y-8359674D02*
X4272705Y-8407293D01*
X4272705Y-8407293D02*
X4263181Y-8445389D01*
X4263181Y-8445389D02*
X4253658Y-8464436D01*
X4253658Y-8464436D02*
X4244134Y-8473960D01*
X4244134Y-8473960D02*
X4225086Y-8483484D01*
X4225086Y-8483484D02*
X4206039Y-8483484D01*
X4206039Y-8483484D02*
X4186991Y-8473960D01*
X4186991Y-8473960D02*
X4177467Y-8464436D01*
X4177467Y-8464436D02*
X4167943Y-8445389D01*
X4167943Y-8445389D02*
X4158419Y-8407293D01*
X4158419Y-8407293D02*
X4158419Y-8359674D01*
X4158419Y-8359674D02*
X4167943Y-8321579D01*
X4167943Y-8321579D02*
X4177467Y-8302531D01*
X4177467Y-8302531D02*
X4186991Y-8293008D01*
X4186991Y-8293008D02*
X4206039Y-8283484D01*
X4358420Y-8483484D02*
X4358420Y-8350150D01*
X4358420Y-8369198D02*
X4367943Y-8359674D01*
X4367943Y-8359674D02*
X4386991Y-8350150D01*
X4386991Y-8350150D02*
X4415562Y-8350150D01*
X4415562Y-8350150D02*
X4434610Y-8359674D01*
X4434610Y-8359674D02*
X4444134Y-8378722D01*
X4444134Y-8378722D02*
X4444134Y-8483484D01*
X4444134Y-8378722D02*
X4453658Y-8359674D01*
X4453658Y-8359674D02*
X4472705Y-8350150D01*
X4472705Y-8350150D02*
X4501277Y-8350150D01*
X4501277Y-8350150D02*
X4520324Y-8359674D01*
X4520324Y-8359674D02*
X4529848Y-8378722D01*
X4529848Y-8378722D02*
X4529848Y-8483484D01*
X4625086Y-8483484D02*
X4625086Y-8350150D01*
X4625086Y-8369198D02*
X4634610Y-8359674D01*
X4634610Y-8359674D02*
X4653658Y-8350150D01*
X4653658Y-8350150D02*
X4682229Y-8350150D01*
X4682229Y-8350150D02*
X4701277Y-8359674D01*
X4701277Y-8359674D02*
X4710801Y-8378722D01*
X4710801Y-8378722D02*
X4710801Y-8483484D01*
X4710801Y-8378722D02*
X4720324Y-8359674D01*
X4720324Y-8359674D02*
X4739372Y-8350150D01*
X4739372Y-8350150D02*
X4767943Y-8350150D01*
X4767943Y-8350150D02*
X4786991Y-8359674D01*
X4786991Y-8359674D02*
X4796515Y-8378722D01*
X4796515Y-8378722D02*
X4796515Y-8483484D01*
X5186991Y-8273960D02*
X5015563Y-8531103D01*
X5444134Y-8283484D02*
X5463182Y-8283484D01*
X5463182Y-8283484D02*
X5482229Y-8293008D01*
X5482229Y-8293008D02*
X5491753Y-8302531D01*
X5491753Y-8302531D02*
X5501277Y-8321579D01*
X5501277Y-8321579D02*
X5510801Y-8359674D01*
X5510801Y-8359674D02*
X5510801Y-8407293D01*
X5510801Y-8407293D02*
X5501277Y-8445389D01*
X5501277Y-8445389D02*
X5491753Y-8464436D01*
X5491753Y-8464436D02*
X5482229Y-8473960D01*
X5482229Y-8473960D02*
X5463182Y-8483484D01*
X5463182Y-8483484D02*
X5444134Y-8483484D01*
X5444134Y-8483484D02*
X5425086Y-8473960D01*
X5425086Y-8473960D02*
X5415563Y-8464436D01*
X5415563Y-8464436D02*
X5406039Y-8445389D01*
X5406039Y-8445389D02*
X5396515Y-8407293D01*
X5396515Y-8407293D02*
X5396515Y-8359674D01*
X5396515Y-8359674D02*
X5406039Y-8321579D01*
X5406039Y-8321579D02*
X5415563Y-8302531D01*
X5415563Y-8302531D02*
X5425086Y-8293008D01*
X5425086Y-8293008D02*
X5444134Y-8283484D01*
X5596515Y-8464436D02*
X5606039Y-8473960D01*
X5606039Y-8473960D02*
X5596515Y-8483484D01*
X5596515Y-8483484D02*
X5586991Y-8473960D01*
X5586991Y-8473960D02*
X5596515Y-8464436D01*
X5596515Y-8464436D02*
X5596515Y-8483484D01*
X5729848Y-8283484D02*
X5748896Y-8283484D01*
X5748896Y-8283484D02*
X5767943Y-8293008D01*
X5767943Y-8293008D02*
X5777467Y-8302531D01*
X5777467Y-8302531D02*
X5786991Y-8321579D01*
X5786991Y-8321579D02*
X5796515Y-8359674D01*
X5796515Y-8359674D02*
X5796515Y-8407293D01*
X5796515Y-8407293D02*
X5786991Y-8445389D01*
X5786991Y-8445389D02*
X5777467Y-8464436D01*
X5777467Y-8464436D02*
X5767943Y-8473960D01*
X5767943Y-8473960D02*
X5748896Y-8483484D01*
X5748896Y-8483484D02*
X5729848Y-8483484D01*
X5729848Y-8483484D02*
X5710801Y-8473960D01*
X5710801Y-8473960D02*
X5701277Y-8464436D01*
X5701277Y-8464436D02*
X5691753Y-8445389D01*
X5691753Y-8445389D02*
X5682229Y-8407293D01*
X5682229Y-8407293D02*
X5682229Y-8359674D01*
X5682229Y-8359674D02*
X5691753Y-8321579D01*
X5691753Y-8321579D02*
X5701277Y-8302531D01*
X5701277Y-8302531D02*
X5710801Y-8293008D01*
X5710801Y-8293008D02*
X5729848Y-8283484D01*
X5986991Y-8483484D02*
X5872705Y-8483484D01*
X5929848Y-8483484D02*
X5929848Y-8283484D01*
X5929848Y-8283484D02*
X5910801Y-8312055D01*
X5910801Y-8312055D02*
X5891753Y-8331103D01*
X5891753Y-8331103D02*
X5872705Y-8340627D01*
X6177467Y-8483484D02*
X6063182Y-8483484D01*
X6120324Y-8483484D02*
X6120324Y-8283484D01*
X6120324Y-8283484D02*
X6101277Y-8312055D01*
X6101277Y-8312055D02*
X6082229Y-8331103D01*
X6082229Y-8331103D02*
X6063182Y-8340627D01*
X6291753Y-8369198D02*
X6272705Y-8359674D01*
X6272705Y-8359674D02*
X6263182Y-8350150D01*
X6263182Y-8350150D02*
X6253658Y-8331103D01*
X6253658Y-8331103D02*
X6253658Y-8321579D01*
X6253658Y-8321579D02*
X6263182Y-8302531D01*
X6263182Y-8302531D02*
X6272705Y-8293008D01*
X6272705Y-8293008D02*
X6291753Y-8283484D01*
X6291753Y-8283484D02*
X6329848Y-8283484D01*
X6329848Y-8283484D02*
X6348896Y-8293008D01*
X6348896Y-8293008D02*
X6358420Y-8302531D01*
X6358420Y-8302531D02*
X6367943Y-8321579D01*
X6367943Y-8321579D02*
X6367943Y-8331103D01*
X6367943Y-8331103D02*
X6358420Y-8350150D01*
X6358420Y-8350150D02*
X6348896Y-8359674D01*
X6348896Y-8359674D02*
X6329848Y-8369198D01*
X6329848Y-8369198D02*
X6291753Y-8369198D01*
X6291753Y-8369198D02*
X6272705Y-8378722D01*
X6272705Y-8378722D02*
X6263182Y-8388246D01*
X6263182Y-8388246D02*
X6253658Y-8407293D01*
X6253658Y-8407293D02*
X6253658Y-8445389D01*
X6253658Y-8445389D02*
X6263182Y-8464436D01*
X6263182Y-8464436D02*
X6272705Y-8473960D01*
X6272705Y-8473960D02*
X6291753Y-8483484D01*
X6291753Y-8483484D02*
X6329848Y-8483484D01*
X6329848Y-8483484D02*
X6348896Y-8473960D01*
X6348896Y-8473960D02*
X6358420Y-8464436D01*
X6358420Y-8464436D02*
X6367943Y-8445389D01*
X6367943Y-8445389D02*
X6367943Y-8407293D01*
X6367943Y-8407293D02*
X6358420Y-8388246D01*
X6358420Y-8388246D02*
X6348896Y-8378722D01*
X6348896Y-8378722D02*
X6329848Y-8369198D01*
X6444134Y-8283484D02*
X6444134Y-8321579D01*
X6520324Y-8283484D02*
X6520324Y-8321579D01*
X6815563Y-8559674D02*
X6806039Y-8550150D01*
X6806039Y-8550150D02*
X6786991Y-8521579D01*
X6786991Y-8521579D02*
X6777467Y-8502531D01*
X6777467Y-8502531D02*
X6767944Y-8473960D01*
X6767944Y-8473960D02*
X6758420Y-8426341D01*
X6758420Y-8426341D02*
X6758420Y-8388246D01*
X6758420Y-8388246D02*
X6767944Y-8340627D01*
X6767944Y-8340627D02*
X6777467Y-8312055D01*
X6777467Y-8312055D02*
X6786991Y-8293008D01*
X6786991Y-8293008D02*
X6806039Y-8264436D01*
X6806039Y-8264436D02*
X6815563Y-8254912D01*
X6920324Y-8369198D02*
X6901277Y-8359674D01*
X6901277Y-8359674D02*
X6891753Y-8350150D01*
X6891753Y-8350150D02*
X6882229Y-8331103D01*
X6882229Y-8331103D02*
X6882229Y-8321579D01*
X6882229Y-8321579D02*
X6891753Y-8302531D01*
X6891753Y-8302531D02*
X6901277Y-8293008D01*
X6901277Y-8293008D02*
X6920324Y-8283484D01*
X6920324Y-8283484D02*
X6958420Y-8283484D01*
X6958420Y-8283484D02*
X6977467Y-8293008D01*
X6977467Y-8293008D02*
X6986991Y-8302531D01*
X6986991Y-8302531D02*
X6996515Y-8321579D01*
X6996515Y-8321579D02*
X6996515Y-8331103D01*
X6996515Y-8331103D02*
X6986991Y-8350150D01*
X6986991Y-8350150D02*
X6977467Y-8359674D01*
X6977467Y-8359674D02*
X6958420Y-8369198D01*
X6958420Y-8369198D02*
X6920324Y-8369198D01*
X6920324Y-8369198D02*
X6901277Y-8378722D01*
X6901277Y-8378722D02*
X6891753Y-8388246D01*
X6891753Y-8388246D02*
X6882229Y-8407293D01*
X6882229Y-8407293D02*
X6882229Y-8445389D01*
X6882229Y-8445389D02*
X6891753Y-8464436D01*
X6891753Y-8464436D02*
X6901277Y-8473960D01*
X6901277Y-8473960D02*
X6920324Y-8483484D01*
X6920324Y-8483484D02*
X6958420Y-8483484D01*
X6958420Y-8483484D02*
X6977467Y-8473960D01*
X6977467Y-8473960D02*
X6986991Y-8464436D01*
X6986991Y-8464436D02*
X6996515Y-8445389D01*
X6996515Y-8445389D02*
X6996515Y-8407293D01*
X6996515Y-8407293D02*
X6986991Y-8388246D01*
X6986991Y-8388246D02*
X6977467Y-8378722D01*
X6977467Y-8378722D02*
X6958420Y-8369198D01*
X7234610Y-8483484D02*
X7234610Y-8283484D01*
X7320325Y-8483484D02*
X7320325Y-8378722D01*
X7320325Y-8378722D02*
X7310801Y-8359674D01*
X7310801Y-8359674D02*
X7291753Y-8350150D01*
X7291753Y-8350150D02*
X7263182Y-8350150D01*
X7263182Y-8350150D02*
X7244134Y-8359674D01*
X7244134Y-8359674D02*
X7234610Y-8369198D01*
X7444134Y-8483484D02*
X7425086Y-8473960D01*
X7425086Y-8473960D02*
X7415563Y-8464436D01*
X7415563Y-8464436D02*
X7406039Y-8445389D01*
X7406039Y-8445389D02*
X7406039Y-8388246D01*
X7406039Y-8388246D02*
X7415563Y-8369198D01*
X7415563Y-8369198D02*
X7425086Y-8359674D01*
X7425086Y-8359674D02*
X7444134Y-8350150D01*
X7444134Y-8350150D02*
X7472706Y-8350150D01*
X7472706Y-8350150D02*
X7491753Y-8359674D01*
X7491753Y-8359674D02*
X7501277Y-8369198D01*
X7501277Y-8369198D02*
X7510801Y-8388246D01*
X7510801Y-8388246D02*
X7510801Y-8445389D01*
X7510801Y-8445389D02*
X7501277Y-8464436D01*
X7501277Y-8464436D02*
X7491753Y-8473960D01*
X7491753Y-8473960D02*
X7472706Y-8483484D01*
X7472706Y-8483484D02*
X7444134Y-8483484D01*
X7625086Y-8483484D02*
X7606039Y-8473960D01*
X7606039Y-8473960D02*
X7596515Y-8454912D01*
X7596515Y-8454912D02*
X7596515Y-8283484D01*
X7777467Y-8473960D02*
X7758420Y-8483484D01*
X7758420Y-8483484D02*
X7720325Y-8483484D01*
X7720325Y-8483484D02*
X7701277Y-8473960D01*
X7701277Y-8473960D02*
X7691753Y-8454912D01*
X7691753Y-8454912D02*
X7691753Y-8378722D01*
X7691753Y-8378722D02*
X7701277Y-8359674D01*
X7701277Y-8359674D02*
X7720325Y-8350150D01*
X7720325Y-8350150D02*
X7758420Y-8350150D01*
X7758420Y-8350150D02*
X7777467Y-8359674D01*
X7777467Y-8359674D02*
X7786991Y-8378722D01*
X7786991Y-8378722D02*
X7786991Y-8397770D01*
X7786991Y-8397770D02*
X7691753Y-8416817D01*
X7863182Y-8473960D02*
X7882229Y-8483484D01*
X7882229Y-8483484D02*
X7920325Y-8483484D01*
X7920325Y-8483484D02*
X7939372Y-8473960D01*
X7939372Y-8473960D02*
X7948896Y-8454912D01*
X7948896Y-8454912D02*
X7948896Y-8445389D01*
X7948896Y-8445389D02*
X7939372Y-8426341D01*
X7939372Y-8426341D02*
X7920325Y-8416817D01*
X7920325Y-8416817D02*
X7891753Y-8416817D01*
X7891753Y-8416817D02*
X7872706Y-8407293D01*
X7872706Y-8407293D02*
X7863182Y-8388246D01*
X7863182Y-8388246D02*
X7863182Y-8378722D01*
X7863182Y-8378722D02*
X7872706Y-8359674D01*
X7872706Y-8359674D02*
X7891753Y-8350150D01*
X7891753Y-8350150D02*
X7920325Y-8350150D01*
X7920325Y-8350150D02*
X7939372Y-8359674D01*
X8015563Y-8559674D02*
X8025087Y-8550150D01*
X8025087Y-8550150D02*
X8044134Y-8521579D01*
X8044134Y-8521579D02*
X8053658Y-8502531D01*
X8053658Y-8502531D02*
X8063182Y-8473960D01*
X8063182Y-8473960D02*
X8072706Y-8426341D01*
X8072706Y-8426341D02*
X8072706Y-8388246D01*
X8072706Y-8388246D02*
X8063182Y-8340627D01*
X8063182Y-8340627D02*
X8053658Y-8312055D01*
X8053658Y-8312055D02*
X8044134Y-8293008D01*
X8044134Y-8293008D02*
X8025087Y-8264436D01*
X8025087Y-8264436D02*
X8015563Y-8254912D01*
D10*
X3234642Y-8670142D02*
X3234642Y-8641858D01*
X3206357Y-8641858D01*
X3206357Y-8670142D01*
X3234642Y-8670142D01*
D11*
X3539372Y-8547484D02*
X3558419Y-8547484D01*
X3558419Y-8547484D02*
X3577467Y-8557008D01*
X3577467Y-8557008D02*
X3586991Y-8566531D01*
X3586991Y-8566531D02*
X3596515Y-8585579D01*
X3596515Y-8585579D02*
X3606038Y-8623674D01*
X3606038Y-8623674D02*
X3606038Y-8671293D01*
X3606038Y-8671293D02*
X3596515Y-8709389D01*
X3596515Y-8709389D02*
X3586991Y-8728436D01*
X3586991Y-8728436D02*
X3577467Y-8737960D01*
X3577467Y-8737960D02*
X3558419Y-8747484D01*
X3558419Y-8747484D02*
X3539372Y-8747484D01*
X3539372Y-8747484D02*
X3520324Y-8737960D01*
X3520324Y-8737960D02*
X3510800Y-8728436D01*
X3510800Y-8728436D02*
X3501277Y-8709389D01*
X3501277Y-8709389D02*
X3491753Y-8671293D01*
X3491753Y-8671293D02*
X3491753Y-8623674D01*
X3491753Y-8623674D02*
X3501277Y-8585579D01*
X3501277Y-8585579D02*
X3510800Y-8566531D01*
X3510800Y-8566531D02*
X3520324Y-8557008D01*
X3520324Y-8557008D02*
X3539372Y-8547484D01*
X3691753Y-8728436D02*
X3701277Y-8737960D01*
X3701277Y-8737960D02*
X3691753Y-8747484D01*
X3691753Y-8747484D02*
X3682229Y-8737960D01*
X3682229Y-8737960D02*
X3691753Y-8728436D01*
X3691753Y-8728436D02*
X3691753Y-8747484D01*
X3872705Y-8614150D02*
X3872705Y-8747484D01*
X3825086Y-8537960D02*
X3777467Y-8680817D01*
X3777467Y-8680817D02*
X3901277Y-8680817D01*
X4015562Y-8547484D02*
X4034610Y-8547484D01*
X4034610Y-8547484D02*
X4053658Y-8557008D01*
X4053658Y-8557008D02*
X4063181Y-8566531D01*
X4063181Y-8566531D02*
X4072705Y-8585579D01*
X4072705Y-8585579D02*
X4082229Y-8623674D01*
X4082229Y-8623674D02*
X4082229Y-8671293D01*
X4082229Y-8671293D02*
X4072705Y-8709389D01*
X4072705Y-8709389D02*
X4063181Y-8728436D01*
X4063181Y-8728436D02*
X4053658Y-8737960D01*
X4053658Y-8737960D02*
X4034610Y-8747484D01*
X4034610Y-8747484D02*
X4015562Y-8747484D01*
X4015562Y-8747484D02*
X3996515Y-8737960D01*
X3996515Y-8737960D02*
X3986991Y-8728436D01*
X3986991Y-8728436D02*
X3977467Y-8709389D01*
X3977467Y-8709389D02*
X3967943Y-8671293D01*
X3967943Y-8671293D02*
X3967943Y-8623674D01*
X3967943Y-8623674D02*
X3977467Y-8585579D01*
X3977467Y-8585579D02*
X3986991Y-8566531D01*
X3986991Y-8566531D02*
X3996515Y-8557008D01*
X3996515Y-8557008D02*
X4015562Y-8547484D01*
X4206039Y-8547484D02*
X4225086Y-8547484D01*
X4225086Y-8547484D02*
X4244134Y-8557008D01*
X4244134Y-8557008D02*
X4253658Y-8566531D01*
X4253658Y-8566531D02*
X4263181Y-8585579D01*
X4263181Y-8585579D02*
X4272705Y-8623674D01*
X4272705Y-8623674D02*
X4272705Y-8671293D01*
X4272705Y-8671293D02*
X4263181Y-8709389D01*
X4263181Y-8709389D02*
X4253658Y-8728436D01*
X4253658Y-8728436D02*
X4244134Y-8737960D01*
X4244134Y-8737960D02*
X4225086Y-8747484D01*
X4225086Y-8747484D02*
X4206039Y-8747484D01*
X4206039Y-8747484D02*
X4186991Y-8737960D01*
X4186991Y-8737960D02*
X4177467Y-8728436D01*
X4177467Y-8728436D02*
X4167943Y-8709389D01*
X4167943Y-8709389D02*
X4158419Y-8671293D01*
X4158419Y-8671293D02*
X4158419Y-8623674D01*
X4158419Y-8623674D02*
X4167943Y-8585579D01*
X4167943Y-8585579D02*
X4177467Y-8566531D01*
X4177467Y-8566531D02*
X4186991Y-8557008D01*
X4186991Y-8557008D02*
X4206039Y-8547484D01*
X4358420Y-8747484D02*
X4358420Y-8614150D01*
X4358420Y-8633198D02*
X4367943Y-8623674D01*
X4367943Y-8623674D02*
X4386991Y-8614150D01*
X4386991Y-8614150D02*
X4415562Y-8614150D01*
X4415562Y-8614150D02*
X4434610Y-8623674D01*
X4434610Y-8623674D02*
X4444134Y-8642722D01*
X4444134Y-8642722D02*
X4444134Y-8747484D01*
X4444134Y-8642722D02*
X4453658Y-8623674D01*
X4453658Y-8623674D02*
X4472705Y-8614150D01*
X4472705Y-8614150D02*
X4501277Y-8614150D01*
X4501277Y-8614150D02*
X4520324Y-8623674D01*
X4520324Y-8623674D02*
X4529848Y-8642722D01*
X4529848Y-8642722D02*
X4529848Y-8747484D01*
X4625086Y-8747484D02*
X4625086Y-8614150D01*
X4625086Y-8633198D02*
X4634610Y-8623674D01*
X4634610Y-8623674D02*
X4653658Y-8614150D01*
X4653658Y-8614150D02*
X4682229Y-8614150D01*
X4682229Y-8614150D02*
X4701277Y-8623674D01*
X4701277Y-8623674D02*
X4710801Y-8642722D01*
X4710801Y-8642722D02*
X4710801Y-8747484D01*
X4710801Y-8642722D02*
X4720324Y-8623674D01*
X4720324Y-8623674D02*
X4739372Y-8614150D01*
X4739372Y-8614150D02*
X4767943Y-8614150D01*
X4767943Y-8614150D02*
X4786991Y-8623674D01*
X4786991Y-8623674D02*
X4796515Y-8642722D01*
X4796515Y-8642722D02*
X4796515Y-8747484D01*
X5186991Y-8537960D02*
X5015563Y-8795103D01*
X5444134Y-8547484D02*
X5463182Y-8547484D01*
X5463182Y-8547484D02*
X5482229Y-8557008D01*
X5482229Y-8557008D02*
X5491753Y-8566531D01*
X5491753Y-8566531D02*
X5501277Y-8585579D01*
X5501277Y-8585579D02*
X5510801Y-8623674D01*
X5510801Y-8623674D02*
X5510801Y-8671293D01*
X5510801Y-8671293D02*
X5501277Y-8709389D01*
X5501277Y-8709389D02*
X5491753Y-8728436D01*
X5491753Y-8728436D02*
X5482229Y-8737960D01*
X5482229Y-8737960D02*
X5463182Y-8747484D01*
X5463182Y-8747484D02*
X5444134Y-8747484D01*
X5444134Y-8747484D02*
X5425086Y-8737960D01*
X5425086Y-8737960D02*
X5415563Y-8728436D01*
X5415563Y-8728436D02*
X5406039Y-8709389D01*
X5406039Y-8709389D02*
X5396515Y-8671293D01*
X5396515Y-8671293D02*
X5396515Y-8623674D01*
X5396515Y-8623674D02*
X5406039Y-8585579D01*
X5406039Y-8585579D02*
X5415563Y-8566531D01*
X5415563Y-8566531D02*
X5425086Y-8557008D01*
X5425086Y-8557008D02*
X5444134Y-8547484D01*
X5596515Y-8728436D02*
X5606039Y-8737960D01*
X5606039Y-8737960D02*
X5596515Y-8747484D01*
X5596515Y-8747484D02*
X5586991Y-8737960D01*
X5586991Y-8737960D02*
X5596515Y-8728436D01*
X5596515Y-8728436D02*
X5596515Y-8747484D01*
X5729848Y-8547484D02*
X5748896Y-8547484D01*
X5748896Y-8547484D02*
X5767943Y-8557008D01*
X5767943Y-8557008D02*
X5777467Y-8566531D01*
X5777467Y-8566531D02*
X5786991Y-8585579D01*
X5786991Y-8585579D02*
X5796515Y-8623674D01*
X5796515Y-8623674D02*
X5796515Y-8671293D01*
X5796515Y-8671293D02*
X5786991Y-8709389D01*
X5786991Y-8709389D02*
X5777467Y-8728436D01*
X5777467Y-8728436D02*
X5767943Y-8737960D01*
X5767943Y-8737960D02*
X5748896Y-8747484D01*
X5748896Y-8747484D02*
X5729848Y-8747484D01*
X5729848Y-8747484D02*
X5710801Y-8737960D01*
X5710801Y-8737960D02*
X5701277Y-8728436D01*
X5701277Y-8728436D02*
X5691753Y-8709389D01*
X5691753Y-8709389D02*
X5682229Y-8671293D01*
X5682229Y-8671293D02*
X5682229Y-8623674D01*
X5682229Y-8623674D02*
X5691753Y-8585579D01*
X5691753Y-8585579D02*
X5701277Y-8566531D01*
X5701277Y-8566531D02*
X5710801Y-8557008D01*
X5710801Y-8557008D02*
X5729848Y-8547484D01*
X5986991Y-8747484D02*
X5872705Y-8747484D01*
X5929848Y-8747484D02*
X5929848Y-8547484D01*
X5929848Y-8547484D02*
X5910801Y-8576055D01*
X5910801Y-8576055D02*
X5891753Y-8595103D01*
X5891753Y-8595103D02*
X5872705Y-8604627D01*
X6167943Y-8547484D02*
X6072705Y-8547484D01*
X6072705Y-8547484D02*
X6063182Y-8642722D01*
X6063182Y-8642722D02*
X6072705Y-8633198D01*
X6072705Y-8633198D02*
X6091753Y-8623674D01*
X6091753Y-8623674D02*
X6139372Y-8623674D01*
X6139372Y-8623674D02*
X6158420Y-8633198D01*
X6158420Y-8633198D02*
X6167943Y-8642722D01*
X6167943Y-8642722D02*
X6177467Y-8661770D01*
X6177467Y-8661770D02*
X6177467Y-8709389D01*
X6177467Y-8709389D02*
X6167943Y-8728436D01*
X6167943Y-8728436D02*
X6158420Y-8737960D01*
X6158420Y-8737960D02*
X6139372Y-8747484D01*
X6139372Y-8747484D02*
X6091753Y-8747484D01*
X6091753Y-8747484D02*
X6072705Y-8737960D01*
X6072705Y-8737960D02*
X6063182Y-8728436D01*
X6244134Y-8547484D02*
X6377467Y-8547484D01*
X6377467Y-8547484D02*
X6291753Y-8747484D01*
X6444134Y-8547484D02*
X6444134Y-8585579D01*
X6520324Y-8547484D02*
X6520324Y-8585579D01*
X6815563Y-8823674D02*
X6806039Y-8814150D01*
X6806039Y-8814150D02*
X6786991Y-8785579D01*
X6786991Y-8785579D02*
X6777467Y-8766531D01*
X6777467Y-8766531D02*
X6767944Y-8737960D01*
X6767944Y-8737960D02*
X6758420Y-8690341D01*
X6758420Y-8690341D02*
X6758420Y-8652246D01*
X6758420Y-8652246D02*
X6767944Y-8604627D01*
X6767944Y-8604627D02*
X6777467Y-8576055D01*
X6777467Y-8576055D02*
X6786991Y-8557008D01*
X6786991Y-8557008D02*
X6806039Y-8528436D01*
X6806039Y-8528436D02*
X6815563Y-8518912D01*
X6977467Y-8547484D02*
X6939372Y-8547484D01*
X6939372Y-8547484D02*
X6920324Y-8557008D01*
X6920324Y-8557008D02*
X6910801Y-8566531D01*
X6910801Y-8566531D02*
X6891753Y-8595103D01*
X6891753Y-8595103D02*
X6882229Y-8633198D01*
X6882229Y-8633198D02*
X6882229Y-8709389D01*
X6882229Y-8709389D02*
X6891753Y-8728436D01*
X6891753Y-8728436D02*
X6901277Y-8737960D01*
X6901277Y-8737960D02*
X6920324Y-8747484D01*
X6920324Y-8747484D02*
X6958420Y-8747484D01*
X6958420Y-8747484D02*
X6977467Y-8737960D01*
X6977467Y-8737960D02*
X6986991Y-8728436D01*
X6986991Y-8728436D02*
X6996515Y-8709389D01*
X6996515Y-8709389D02*
X6996515Y-8661770D01*
X6996515Y-8661770D02*
X6986991Y-8642722D01*
X6986991Y-8642722D02*
X6977467Y-8633198D01*
X6977467Y-8633198D02*
X6958420Y-8623674D01*
X6958420Y-8623674D02*
X6920324Y-8623674D01*
X6920324Y-8623674D02*
X6901277Y-8633198D01*
X6901277Y-8633198D02*
X6891753Y-8642722D01*
X6891753Y-8642722D02*
X6882229Y-8661770D01*
X7234610Y-8747484D02*
X7234610Y-8547484D01*
X7320325Y-8747484D02*
X7320325Y-8642722D01*
X7320325Y-8642722D02*
X7310801Y-8623674D01*
X7310801Y-8623674D02*
X7291753Y-8614150D01*
X7291753Y-8614150D02*
X7263182Y-8614150D01*
X7263182Y-8614150D02*
X7244134Y-8623674D01*
X7244134Y-8623674D02*
X7234610Y-8633198D01*
X7444134Y-8747484D02*
X7425086Y-8737960D01*
X7425086Y-8737960D02*
X7415563Y-8728436D01*
X7415563Y-8728436D02*
X7406039Y-8709389D01*
X7406039Y-8709389D02*
X7406039Y-8652246D01*
X7406039Y-8652246D02*
X7415563Y-8633198D01*
X7415563Y-8633198D02*
X7425086Y-8623674D01*
X7425086Y-8623674D02*
X7444134Y-8614150D01*
X7444134Y-8614150D02*
X7472706Y-8614150D01*
X7472706Y-8614150D02*
X7491753Y-8623674D01*
X7491753Y-8623674D02*
X7501277Y-8633198D01*
X7501277Y-8633198D02*
X7510801Y-8652246D01*
X7510801Y-8652246D02*
X7510801Y-8709389D01*
X7510801Y-8709389D02*
X7501277Y-8728436D01*
X7501277Y-8728436D02*
X7491753Y-8737960D01*
X7491753Y-8737960D02*
X7472706Y-8747484D01*
X7472706Y-8747484D02*
X7444134Y-8747484D01*
X7625086Y-8747484D02*
X7606039Y-8737960D01*
X7606039Y-8737960D02*
X7596515Y-8718912D01*
X7596515Y-8718912D02*
X7596515Y-8547484D01*
X7777467Y-8737960D02*
X7758420Y-8747484D01*
X7758420Y-8747484D02*
X7720325Y-8747484D01*
X7720325Y-8747484D02*
X7701277Y-8737960D01*
X7701277Y-8737960D02*
X7691753Y-8718912D01*
X7691753Y-8718912D02*
X7691753Y-8642722D01*
X7691753Y-8642722D02*
X7701277Y-8623674D01*
X7701277Y-8623674D02*
X7720325Y-8614150D01*
X7720325Y-8614150D02*
X7758420Y-8614150D01*
X7758420Y-8614150D02*
X7777467Y-8623674D01*
X7777467Y-8623674D02*
X7786991Y-8642722D01*
X7786991Y-8642722D02*
X7786991Y-8661770D01*
X7786991Y-8661770D02*
X7691753Y-8680817D01*
X7863182Y-8737960D02*
X7882229Y-8747484D01*
X7882229Y-8747484D02*
X7920325Y-8747484D01*
X7920325Y-8747484D02*
X7939372Y-8737960D01*
X7939372Y-8737960D02*
X7948896Y-8718912D01*
X7948896Y-8718912D02*
X7948896Y-8709389D01*
X7948896Y-8709389D02*
X7939372Y-8690341D01*
X7939372Y-8690341D02*
X7920325Y-8680817D01*
X7920325Y-8680817D02*
X7891753Y-8680817D01*
X7891753Y-8680817D02*
X7872706Y-8671293D01*
X7872706Y-8671293D02*
X7863182Y-8652246D01*
X7863182Y-8652246D02*
X7863182Y-8642722D01*
X7863182Y-8642722D02*
X7872706Y-8623674D01*
X7872706Y-8623674D02*
X7891753Y-8614150D01*
X7891753Y-8614150D02*
X7920325Y-8614150D01*
X7920325Y-8614150D02*
X7939372Y-8623674D01*
X8015563Y-8823674D02*
X8025087Y-8814150D01*
X8025087Y-8814150D02*
X8044134Y-8785579D01*
X8044134Y-8785579D02*
X8053658Y-8766531D01*
X8053658Y-8766531D02*
X8063182Y-8737960D01*
X8063182Y-8737960D02*
X8072706Y-8690341D01*
X8072706Y-8690341D02*
X8072706Y-8652246D01*
X8072706Y-8652246D02*
X8063182Y-8604627D01*
X8063182Y-8604627D02*
X8053658Y-8576055D01*
X8053658Y-8576055D02*
X8044134Y-8557008D01*
X8044134Y-8557008D02*
X8025087Y-8528436D01*
X8025087Y-8528436D02*
X8015563Y-8518912D01*
D10*
X3215500Y-8945000D02*
X3240500Y-8920000D01*
X3215500Y-8895000D01*
X3190500Y-8920000D01*
X3215500Y-8945000D01*
D11*
X3539372Y-8811484D02*
X3558419Y-8811484D01*
X3558419Y-8811484D02*
X3577467Y-8821008D01*
X3577467Y-8821008D02*
X3586991Y-8830531D01*
X3586991Y-8830531D02*
X3596515Y-8849579D01*
X3596515Y-8849579D02*
X3606038Y-8887674D01*
X3606038Y-8887674D02*
X3606038Y-8935293D01*
X3606038Y-8935293D02*
X3596515Y-8973389D01*
X3596515Y-8973389D02*
X3586991Y-8992436D01*
X3586991Y-8992436D02*
X3577467Y-9001960D01*
X3577467Y-9001960D02*
X3558419Y-9011484D01*
X3558419Y-9011484D02*
X3539372Y-9011484D01*
X3539372Y-9011484D02*
X3520324Y-9001960D01*
X3520324Y-9001960D02*
X3510800Y-8992436D01*
X3510800Y-8992436D02*
X3501277Y-8973389D01*
X3501277Y-8973389D02*
X3491753Y-8935293D01*
X3491753Y-8935293D02*
X3491753Y-8887674D01*
X3491753Y-8887674D02*
X3501277Y-8849579D01*
X3501277Y-8849579D02*
X3510800Y-8830531D01*
X3510800Y-8830531D02*
X3520324Y-8821008D01*
X3520324Y-8821008D02*
X3539372Y-8811484D01*
X3691753Y-8992436D02*
X3701277Y-9001960D01*
X3701277Y-9001960D02*
X3691753Y-9011484D01*
X3691753Y-9011484D02*
X3682229Y-9001960D01*
X3682229Y-9001960D02*
X3691753Y-8992436D01*
X3691753Y-8992436D02*
X3691753Y-9011484D01*
X3882229Y-8811484D02*
X3786991Y-8811484D01*
X3786991Y-8811484D02*
X3777467Y-8906722D01*
X3777467Y-8906722D02*
X3786991Y-8897198D01*
X3786991Y-8897198D02*
X3806038Y-8887674D01*
X3806038Y-8887674D02*
X3853658Y-8887674D01*
X3853658Y-8887674D02*
X3872705Y-8897198D01*
X3872705Y-8897198D02*
X3882229Y-8906722D01*
X3882229Y-8906722D02*
X3891753Y-8925770D01*
X3891753Y-8925770D02*
X3891753Y-8973389D01*
X3891753Y-8973389D02*
X3882229Y-8992436D01*
X3882229Y-8992436D02*
X3872705Y-9001960D01*
X3872705Y-9001960D02*
X3853658Y-9011484D01*
X3853658Y-9011484D02*
X3806038Y-9011484D01*
X3806038Y-9011484D02*
X3786991Y-9001960D01*
X3786991Y-9001960D02*
X3777467Y-8992436D01*
X4015562Y-8811484D02*
X4034610Y-8811484D01*
X4034610Y-8811484D02*
X4053658Y-8821008D01*
X4053658Y-8821008D02*
X4063181Y-8830531D01*
X4063181Y-8830531D02*
X4072705Y-8849579D01*
X4072705Y-8849579D02*
X4082229Y-8887674D01*
X4082229Y-8887674D02*
X4082229Y-8935293D01*
X4082229Y-8935293D02*
X4072705Y-8973389D01*
X4072705Y-8973389D02*
X4063181Y-8992436D01*
X4063181Y-8992436D02*
X4053658Y-9001960D01*
X4053658Y-9001960D02*
X4034610Y-9011484D01*
X4034610Y-9011484D02*
X4015562Y-9011484D01*
X4015562Y-9011484D02*
X3996515Y-9001960D01*
X3996515Y-9001960D02*
X3986991Y-8992436D01*
X3986991Y-8992436D02*
X3977467Y-8973389D01*
X3977467Y-8973389D02*
X3967943Y-8935293D01*
X3967943Y-8935293D02*
X3967943Y-8887674D01*
X3967943Y-8887674D02*
X3977467Y-8849579D01*
X3977467Y-8849579D02*
X3986991Y-8830531D01*
X3986991Y-8830531D02*
X3996515Y-8821008D01*
X3996515Y-8821008D02*
X4015562Y-8811484D01*
X4206039Y-8811484D02*
X4225086Y-8811484D01*
X4225086Y-8811484D02*
X4244134Y-8821008D01*
X4244134Y-8821008D02*
X4253658Y-8830531D01*
X4253658Y-8830531D02*
X4263181Y-8849579D01*
X4263181Y-8849579D02*
X4272705Y-8887674D01*
X4272705Y-8887674D02*
X4272705Y-8935293D01*
X4272705Y-8935293D02*
X4263181Y-8973389D01*
X4263181Y-8973389D02*
X4253658Y-8992436D01*
X4253658Y-8992436D02*
X4244134Y-9001960D01*
X4244134Y-9001960D02*
X4225086Y-9011484D01*
X4225086Y-9011484D02*
X4206039Y-9011484D01*
X4206039Y-9011484D02*
X4186991Y-9001960D01*
X4186991Y-9001960D02*
X4177467Y-8992436D01*
X4177467Y-8992436D02*
X4167943Y-8973389D01*
X4167943Y-8973389D02*
X4158419Y-8935293D01*
X4158419Y-8935293D02*
X4158419Y-8887674D01*
X4158419Y-8887674D02*
X4167943Y-8849579D01*
X4167943Y-8849579D02*
X4177467Y-8830531D01*
X4177467Y-8830531D02*
X4186991Y-8821008D01*
X4186991Y-8821008D02*
X4206039Y-8811484D01*
X4358420Y-9011484D02*
X4358420Y-8878150D01*
X4358420Y-8897198D02*
X4367943Y-8887674D01*
X4367943Y-8887674D02*
X4386991Y-8878150D01*
X4386991Y-8878150D02*
X4415562Y-8878150D01*
X4415562Y-8878150D02*
X4434610Y-8887674D01*
X4434610Y-8887674D02*
X4444134Y-8906722D01*
X4444134Y-8906722D02*
X4444134Y-9011484D01*
X4444134Y-8906722D02*
X4453658Y-8887674D01*
X4453658Y-8887674D02*
X4472705Y-8878150D01*
X4472705Y-8878150D02*
X4501277Y-8878150D01*
X4501277Y-8878150D02*
X4520324Y-8887674D01*
X4520324Y-8887674D02*
X4529848Y-8906722D01*
X4529848Y-8906722D02*
X4529848Y-9011484D01*
X4625086Y-9011484D02*
X4625086Y-8878150D01*
X4625086Y-8897198D02*
X4634610Y-8887674D01*
X4634610Y-8887674D02*
X4653658Y-8878150D01*
X4653658Y-8878150D02*
X4682229Y-8878150D01*
X4682229Y-8878150D02*
X4701277Y-8887674D01*
X4701277Y-8887674D02*
X4710801Y-8906722D01*
X4710801Y-8906722D02*
X4710801Y-9011484D01*
X4710801Y-8906722D02*
X4720324Y-8887674D01*
X4720324Y-8887674D02*
X4739372Y-8878150D01*
X4739372Y-8878150D02*
X4767943Y-8878150D01*
X4767943Y-8878150D02*
X4786991Y-8887674D01*
X4786991Y-8887674D02*
X4796515Y-8906722D01*
X4796515Y-8906722D02*
X4796515Y-9011484D01*
X5186991Y-8801960D02*
X5015563Y-9059103D01*
X5444134Y-8811484D02*
X5463182Y-8811484D01*
X5463182Y-8811484D02*
X5482229Y-8821008D01*
X5482229Y-8821008D02*
X5491753Y-8830531D01*
X5491753Y-8830531D02*
X5501277Y-8849579D01*
X5501277Y-8849579D02*
X5510801Y-8887674D01*
X5510801Y-8887674D02*
X5510801Y-8935293D01*
X5510801Y-8935293D02*
X5501277Y-8973389D01*
X5501277Y-8973389D02*
X5491753Y-8992436D01*
X5491753Y-8992436D02*
X5482229Y-9001960D01*
X5482229Y-9001960D02*
X5463182Y-9011484D01*
X5463182Y-9011484D02*
X5444134Y-9011484D01*
X5444134Y-9011484D02*
X5425086Y-9001960D01*
X5425086Y-9001960D02*
X5415563Y-8992436D01*
X5415563Y-8992436D02*
X5406039Y-8973389D01*
X5406039Y-8973389D02*
X5396515Y-8935293D01*
X5396515Y-8935293D02*
X5396515Y-8887674D01*
X5396515Y-8887674D02*
X5406039Y-8849579D01*
X5406039Y-8849579D02*
X5415563Y-8830531D01*
X5415563Y-8830531D02*
X5425086Y-8821008D01*
X5425086Y-8821008D02*
X5444134Y-8811484D01*
X5596515Y-8992436D02*
X5606039Y-9001960D01*
X5606039Y-9001960D02*
X5596515Y-9011484D01*
X5596515Y-9011484D02*
X5586991Y-9001960D01*
X5586991Y-9001960D02*
X5596515Y-8992436D01*
X5596515Y-8992436D02*
X5596515Y-9011484D01*
X5729848Y-8811484D02*
X5748896Y-8811484D01*
X5748896Y-8811484D02*
X5767943Y-8821008D01*
X5767943Y-8821008D02*
X5777467Y-8830531D01*
X5777467Y-8830531D02*
X5786991Y-8849579D01*
X5786991Y-8849579D02*
X5796515Y-8887674D01*
X5796515Y-8887674D02*
X5796515Y-8935293D01*
X5796515Y-8935293D02*
X5786991Y-8973389D01*
X5786991Y-8973389D02*
X5777467Y-8992436D01*
X5777467Y-8992436D02*
X5767943Y-9001960D01*
X5767943Y-9001960D02*
X5748896Y-9011484D01*
X5748896Y-9011484D02*
X5729848Y-9011484D01*
X5729848Y-9011484D02*
X5710801Y-9001960D01*
X5710801Y-9001960D02*
X5701277Y-8992436D01*
X5701277Y-8992436D02*
X5691753Y-8973389D01*
X5691753Y-8973389D02*
X5682229Y-8935293D01*
X5682229Y-8935293D02*
X5682229Y-8887674D01*
X5682229Y-8887674D02*
X5691753Y-8849579D01*
X5691753Y-8849579D02*
X5701277Y-8830531D01*
X5701277Y-8830531D02*
X5710801Y-8821008D01*
X5710801Y-8821008D02*
X5729848Y-8811484D01*
X5986991Y-9011484D02*
X5872705Y-9011484D01*
X5929848Y-9011484D02*
X5929848Y-8811484D01*
X5929848Y-8811484D02*
X5910801Y-8840055D01*
X5910801Y-8840055D02*
X5891753Y-8859103D01*
X5891753Y-8859103D02*
X5872705Y-8868627D01*
X6082229Y-9011484D02*
X6120324Y-9011484D01*
X6120324Y-9011484D02*
X6139372Y-9001960D01*
X6139372Y-9001960D02*
X6148896Y-8992436D01*
X6148896Y-8992436D02*
X6167943Y-8963865D01*
X6167943Y-8963865D02*
X6177467Y-8925770D01*
X6177467Y-8925770D02*
X6177467Y-8849579D01*
X6177467Y-8849579D02*
X6167943Y-8830531D01*
X6167943Y-8830531D02*
X6158420Y-8821008D01*
X6158420Y-8821008D02*
X6139372Y-8811484D01*
X6139372Y-8811484D02*
X6101277Y-8811484D01*
X6101277Y-8811484D02*
X6082229Y-8821008D01*
X6082229Y-8821008D02*
X6072705Y-8830531D01*
X6072705Y-8830531D02*
X6063182Y-8849579D01*
X6063182Y-8849579D02*
X6063182Y-8897198D01*
X6063182Y-8897198D02*
X6072705Y-8916246D01*
X6072705Y-8916246D02*
X6082229Y-8925770D01*
X6082229Y-8925770D02*
X6101277Y-8935293D01*
X6101277Y-8935293D02*
X6139372Y-8935293D01*
X6139372Y-8935293D02*
X6158420Y-8925770D01*
X6158420Y-8925770D02*
X6167943Y-8916246D01*
X6167943Y-8916246D02*
X6177467Y-8897198D01*
X6244134Y-8811484D02*
X6377467Y-8811484D01*
X6377467Y-8811484D02*
X6291753Y-9011484D01*
X6444134Y-8811484D02*
X6444134Y-8849579D01*
X6520324Y-8811484D02*
X6520324Y-8849579D01*
X6815563Y-9087674D02*
X6806039Y-9078150D01*
X6806039Y-9078150D02*
X6786991Y-9049579D01*
X6786991Y-9049579D02*
X6777467Y-9030531D01*
X6777467Y-9030531D02*
X6767944Y-9001960D01*
X6767944Y-9001960D02*
X6758420Y-8954341D01*
X6758420Y-8954341D02*
X6758420Y-8916246D01*
X6758420Y-8916246D02*
X6767944Y-8868627D01*
X6767944Y-8868627D02*
X6777467Y-8840055D01*
X6777467Y-8840055D02*
X6786991Y-8821008D01*
X6786991Y-8821008D02*
X6806039Y-8792436D01*
X6806039Y-8792436D02*
X6815563Y-8782912D01*
X6872705Y-8811484D02*
X6996515Y-8811484D01*
X6996515Y-8811484D02*
X6929848Y-8887674D01*
X6929848Y-8887674D02*
X6958420Y-8887674D01*
X6958420Y-8887674D02*
X6977467Y-8897198D01*
X6977467Y-8897198D02*
X6986991Y-8906722D01*
X6986991Y-8906722D02*
X6996515Y-8925770D01*
X6996515Y-8925770D02*
X6996515Y-8973389D01*
X6996515Y-8973389D02*
X6986991Y-8992436D01*
X6986991Y-8992436D02*
X6977467Y-9001960D01*
X6977467Y-9001960D02*
X6958420Y-9011484D01*
X6958420Y-9011484D02*
X6901277Y-9011484D01*
X6901277Y-9011484D02*
X6882229Y-9001960D01*
X6882229Y-9001960D02*
X6872705Y-8992436D01*
X7120324Y-8811484D02*
X7139372Y-8811484D01*
X7139372Y-8811484D02*
X7158420Y-8821008D01*
X7158420Y-8821008D02*
X7167944Y-8830531D01*
X7167944Y-8830531D02*
X7177467Y-8849579D01*
X7177467Y-8849579D02*
X7186991Y-8887674D01*
X7186991Y-8887674D02*
X7186991Y-8935293D01*
X7186991Y-8935293D02*
X7177467Y-8973389D01*
X7177467Y-8973389D02*
X7167944Y-8992436D01*
X7167944Y-8992436D02*
X7158420Y-9001960D01*
X7158420Y-9001960D02*
X7139372Y-9011484D01*
X7139372Y-9011484D02*
X7120324Y-9011484D01*
X7120324Y-9011484D02*
X7101277Y-9001960D01*
X7101277Y-9001960D02*
X7091753Y-8992436D01*
X7091753Y-8992436D02*
X7082229Y-8973389D01*
X7082229Y-8973389D02*
X7072705Y-8935293D01*
X7072705Y-8935293D02*
X7072705Y-8887674D01*
X7072705Y-8887674D02*
X7082229Y-8849579D01*
X7082229Y-8849579D02*
X7091753Y-8830531D01*
X7091753Y-8830531D02*
X7101277Y-8821008D01*
X7101277Y-8821008D02*
X7120324Y-8811484D01*
X7425086Y-9011484D02*
X7425086Y-8811484D01*
X7510801Y-9011484D02*
X7510801Y-8906722D01*
X7510801Y-8906722D02*
X7501277Y-8887674D01*
X7501277Y-8887674D02*
X7482229Y-8878150D01*
X7482229Y-8878150D02*
X7453658Y-8878150D01*
X7453658Y-8878150D02*
X7434610Y-8887674D01*
X7434610Y-8887674D02*
X7425086Y-8897198D01*
X7634610Y-9011484D02*
X7615563Y-9001960D01*
X7615563Y-9001960D02*
X7606039Y-8992436D01*
X7606039Y-8992436D02*
X7596515Y-8973389D01*
X7596515Y-8973389D02*
X7596515Y-8916246D01*
X7596515Y-8916246D02*
X7606039Y-8897198D01*
X7606039Y-8897198D02*
X7615563Y-8887674D01*
X7615563Y-8887674D02*
X7634610Y-8878150D01*
X7634610Y-8878150D02*
X7663182Y-8878150D01*
X7663182Y-8878150D02*
X7682229Y-8887674D01*
X7682229Y-8887674D02*
X7691753Y-8897198D01*
X7691753Y-8897198D02*
X7701277Y-8916246D01*
X7701277Y-8916246D02*
X7701277Y-8973389D01*
X7701277Y-8973389D02*
X7691753Y-8992436D01*
X7691753Y-8992436D02*
X7682229Y-9001960D01*
X7682229Y-9001960D02*
X7663182Y-9011484D01*
X7663182Y-9011484D02*
X7634610Y-9011484D01*
X7815563Y-9011484D02*
X7796515Y-9001960D01*
X7796515Y-9001960D02*
X7786991Y-8982912D01*
X7786991Y-8982912D02*
X7786991Y-8811484D01*
X7967944Y-9001960D02*
X7948896Y-9011484D01*
X7948896Y-9011484D02*
X7910801Y-9011484D01*
X7910801Y-9011484D02*
X7891753Y-9001960D01*
X7891753Y-9001960D02*
X7882229Y-8982912D01*
X7882229Y-8982912D02*
X7882229Y-8906722D01*
X7882229Y-8906722D02*
X7891753Y-8887674D01*
X7891753Y-8887674D02*
X7910801Y-8878150D01*
X7910801Y-8878150D02*
X7948896Y-8878150D01*
X7948896Y-8878150D02*
X7967944Y-8887674D01*
X7967944Y-8887674D02*
X7977467Y-8906722D01*
X7977467Y-8906722D02*
X7977467Y-8925770D01*
X7977467Y-8925770D02*
X7882229Y-8944817D01*
X8053658Y-9001960D02*
X8072706Y-9011484D01*
X8072706Y-9011484D02*
X8110801Y-9011484D01*
X8110801Y-9011484D02*
X8129848Y-9001960D01*
X8129848Y-9001960D02*
X8139372Y-8982912D01*
X8139372Y-8982912D02*
X8139372Y-8973389D01*
X8139372Y-8973389D02*
X8129848Y-8954341D01*
X8129848Y-8954341D02*
X8110801Y-8944817D01*
X8110801Y-8944817D02*
X8082229Y-8944817D01*
X8082229Y-8944817D02*
X8063182Y-8935293D01*
X8063182Y-8935293D02*
X8053658Y-8916246D01*
X8053658Y-8916246D02*
X8053658Y-8906722D01*
X8053658Y-8906722D02*
X8063182Y-8887674D01*
X8063182Y-8887674D02*
X8082229Y-8878150D01*
X8082229Y-8878150D02*
X8110801Y-8878150D01*
X8110801Y-8878150D02*
X8129848Y-8887674D01*
X8206039Y-9087674D02*
X8215563Y-9078150D01*
X8215563Y-9078150D02*
X8234610Y-9049579D01*
X8234610Y-9049579D02*
X8244134Y-9030531D01*
X8244134Y-9030531D02*
X8253658Y-9001960D01*
X8253658Y-9001960D02*
X8263182Y-8954341D01*
X8263182Y-8954341D02*
X8263182Y-8916246D01*
X8263182Y-8916246D02*
X8253658Y-8868627D01*
X8253658Y-8868627D02*
X8244134Y-8840055D01*
X8244134Y-8840055D02*
X8234610Y-8821008D01*
X8234610Y-8821008D02*
X8215563Y-8792436D01*
X8215563Y-8792436D02*
X8206039Y-8782912D01*
D10*
X3180500Y-9154000D02*
X3240500Y-9214000D01*
X3240500Y-9154000D02*
X3180500Y-9214000D01*
X3240500Y-9184000D02*
G75*
G02*
X3180500Y-9184000I-30000J0D01*
G01*
X3180500Y-9184000D02*
G75*
G02*
X3240500Y-9184000I30000J0D01*
G01*
D11*
X3539372Y-9075484D02*
X3558419Y-9075484D01*
X3558419Y-9075484D02*
X3577467Y-9085008D01*
X3577467Y-9085008D02*
X3586991Y-9094531D01*
X3586991Y-9094531D02*
X3596515Y-9113579D01*
X3596515Y-9113579D02*
X3606038Y-9151674D01*
X3606038Y-9151674D02*
X3606038Y-9199293D01*
X3606038Y-9199293D02*
X3596515Y-9237389D01*
X3596515Y-9237389D02*
X3586991Y-9256436D01*
X3586991Y-9256436D02*
X3577467Y-9265960D01*
X3577467Y-9265960D02*
X3558419Y-9275484D01*
X3558419Y-9275484D02*
X3539372Y-9275484D01*
X3539372Y-9275484D02*
X3520324Y-9265960D01*
X3520324Y-9265960D02*
X3510800Y-9256436D01*
X3510800Y-9256436D02*
X3501277Y-9237389D01*
X3501277Y-9237389D02*
X3491753Y-9199293D01*
X3491753Y-9199293D02*
X3491753Y-9151674D01*
X3491753Y-9151674D02*
X3501277Y-9113579D01*
X3501277Y-9113579D02*
X3510800Y-9094531D01*
X3510800Y-9094531D02*
X3520324Y-9085008D01*
X3520324Y-9085008D02*
X3539372Y-9075484D01*
X3691753Y-9256436D02*
X3701277Y-9265960D01*
X3701277Y-9265960D02*
X3691753Y-9275484D01*
X3691753Y-9275484D02*
X3682229Y-9265960D01*
X3682229Y-9265960D02*
X3691753Y-9256436D01*
X3691753Y-9256436D02*
X3691753Y-9275484D01*
X3872705Y-9075484D02*
X3834610Y-9075484D01*
X3834610Y-9075484D02*
X3815562Y-9085008D01*
X3815562Y-9085008D02*
X3806038Y-9094531D01*
X3806038Y-9094531D02*
X3786991Y-9123103D01*
X3786991Y-9123103D02*
X3777467Y-9161198D01*
X3777467Y-9161198D02*
X3777467Y-9237389D01*
X3777467Y-9237389D02*
X3786991Y-9256436D01*
X3786991Y-9256436D02*
X3796515Y-9265960D01*
X3796515Y-9265960D02*
X3815562Y-9275484D01*
X3815562Y-9275484D02*
X3853658Y-9275484D01*
X3853658Y-9275484D02*
X3872705Y-9265960D01*
X3872705Y-9265960D02*
X3882229Y-9256436D01*
X3882229Y-9256436D02*
X3891753Y-9237389D01*
X3891753Y-9237389D02*
X3891753Y-9189770D01*
X3891753Y-9189770D02*
X3882229Y-9170722D01*
X3882229Y-9170722D02*
X3872705Y-9161198D01*
X3872705Y-9161198D02*
X3853658Y-9151674D01*
X3853658Y-9151674D02*
X3815562Y-9151674D01*
X3815562Y-9151674D02*
X3796515Y-9161198D01*
X3796515Y-9161198D02*
X3786991Y-9170722D01*
X3786991Y-9170722D02*
X3777467Y-9189770D01*
X4015562Y-9075484D02*
X4034610Y-9075484D01*
X4034610Y-9075484D02*
X4053658Y-9085008D01*
X4053658Y-9085008D02*
X4063181Y-9094531D01*
X4063181Y-9094531D02*
X4072705Y-9113579D01*
X4072705Y-9113579D02*
X4082229Y-9151674D01*
X4082229Y-9151674D02*
X4082229Y-9199293D01*
X4082229Y-9199293D02*
X4072705Y-9237389D01*
X4072705Y-9237389D02*
X4063181Y-9256436D01*
X4063181Y-9256436D02*
X4053658Y-9265960D01*
X4053658Y-9265960D02*
X4034610Y-9275484D01*
X4034610Y-9275484D02*
X4015562Y-9275484D01*
X4015562Y-9275484D02*
X3996515Y-9265960D01*
X3996515Y-9265960D02*
X3986991Y-9256436D01*
X3986991Y-9256436D02*
X3977467Y-9237389D01*
X3977467Y-9237389D02*
X3967943Y-9199293D01*
X3967943Y-9199293D02*
X3967943Y-9151674D01*
X3967943Y-9151674D02*
X3977467Y-9113579D01*
X3977467Y-9113579D02*
X3986991Y-9094531D01*
X3986991Y-9094531D02*
X3996515Y-9085008D01*
X3996515Y-9085008D02*
X4015562Y-9075484D01*
X4206039Y-9075484D02*
X4225086Y-9075484D01*
X4225086Y-9075484D02*
X4244134Y-9085008D01*
X4244134Y-9085008D02*
X4253658Y-9094531D01*
X4253658Y-9094531D02*
X4263181Y-9113579D01*
X4263181Y-9113579D02*
X4272705Y-9151674D01*
X4272705Y-9151674D02*
X4272705Y-9199293D01*
X4272705Y-9199293D02*
X4263181Y-9237389D01*
X4263181Y-9237389D02*
X4253658Y-9256436D01*
X4253658Y-9256436D02*
X4244134Y-9265960D01*
X4244134Y-9265960D02*
X4225086Y-9275484D01*
X4225086Y-9275484D02*
X4206039Y-9275484D01*
X4206039Y-9275484D02*
X4186991Y-9265960D01*
X4186991Y-9265960D02*
X4177467Y-9256436D01*
X4177467Y-9256436D02*
X4167943Y-9237389D01*
X4167943Y-9237389D02*
X4158419Y-9199293D01*
X4158419Y-9199293D02*
X4158419Y-9151674D01*
X4158419Y-9151674D02*
X4167943Y-9113579D01*
X4167943Y-9113579D02*
X4177467Y-9094531D01*
X4177467Y-9094531D02*
X4186991Y-9085008D01*
X4186991Y-9085008D02*
X4206039Y-9075484D01*
X4358420Y-9275484D02*
X4358420Y-9142150D01*
X4358420Y-9161198D02*
X4367943Y-9151674D01*
X4367943Y-9151674D02*
X4386991Y-9142150D01*
X4386991Y-9142150D02*
X4415562Y-9142150D01*
X4415562Y-9142150D02*
X4434610Y-9151674D01*
X4434610Y-9151674D02*
X4444134Y-9170722D01*
X4444134Y-9170722D02*
X4444134Y-9275484D01*
X4444134Y-9170722D02*
X4453658Y-9151674D01*
X4453658Y-9151674D02*
X4472705Y-9142150D01*
X4472705Y-9142150D02*
X4501277Y-9142150D01*
X4501277Y-9142150D02*
X4520324Y-9151674D01*
X4520324Y-9151674D02*
X4529848Y-9170722D01*
X4529848Y-9170722D02*
X4529848Y-9275484D01*
X4625086Y-9275484D02*
X4625086Y-9142150D01*
X4625086Y-9161198D02*
X4634610Y-9151674D01*
X4634610Y-9151674D02*
X4653658Y-9142150D01*
X4653658Y-9142150D02*
X4682229Y-9142150D01*
X4682229Y-9142150D02*
X4701277Y-9151674D01*
X4701277Y-9151674D02*
X4710801Y-9170722D01*
X4710801Y-9170722D02*
X4710801Y-9275484D01*
X4710801Y-9170722D02*
X4720324Y-9151674D01*
X4720324Y-9151674D02*
X4739372Y-9142150D01*
X4739372Y-9142150D02*
X4767943Y-9142150D01*
X4767943Y-9142150D02*
X4786991Y-9151674D01*
X4786991Y-9151674D02*
X4796515Y-9170722D01*
X4796515Y-9170722D02*
X4796515Y-9275484D01*
X5186991Y-9065960D02*
X5015563Y-9323103D01*
X5444134Y-9075484D02*
X5463182Y-9075484D01*
X5463182Y-9075484D02*
X5482229Y-9085008D01*
X5482229Y-9085008D02*
X5491753Y-9094531D01*
X5491753Y-9094531D02*
X5501277Y-9113579D01*
X5501277Y-9113579D02*
X5510801Y-9151674D01*
X5510801Y-9151674D02*
X5510801Y-9199293D01*
X5510801Y-9199293D02*
X5501277Y-9237389D01*
X5501277Y-9237389D02*
X5491753Y-9256436D01*
X5491753Y-9256436D02*
X5482229Y-9265960D01*
X5482229Y-9265960D02*
X5463182Y-9275484D01*
X5463182Y-9275484D02*
X5444134Y-9275484D01*
X5444134Y-9275484D02*
X5425086Y-9265960D01*
X5425086Y-9265960D02*
X5415563Y-9256436D01*
X5415563Y-9256436D02*
X5406039Y-9237389D01*
X5406039Y-9237389D02*
X5396515Y-9199293D01*
X5396515Y-9199293D02*
X5396515Y-9151674D01*
X5396515Y-9151674D02*
X5406039Y-9113579D01*
X5406039Y-9113579D02*
X5415563Y-9094531D01*
X5415563Y-9094531D02*
X5425086Y-9085008D01*
X5425086Y-9085008D02*
X5444134Y-9075484D01*
X5596515Y-9256436D02*
X5606039Y-9265960D01*
X5606039Y-9265960D02*
X5596515Y-9275484D01*
X5596515Y-9275484D02*
X5586991Y-9265960D01*
X5586991Y-9265960D02*
X5596515Y-9256436D01*
X5596515Y-9256436D02*
X5596515Y-9275484D01*
X5729848Y-9075484D02*
X5748896Y-9075484D01*
X5748896Y-9075484D02*
X5767943Y-9085008D01*
X5767943Y-9085008D02*
X5777467Y-9094531D01*
X5777467Y-9094531D02*
X5786991Y-9113579D01*
X5786991Y-9113579D02*
X5796515Y-9151674D01*
X5796515Y-9151674D02*
X5796515Y-9199293D01*
X5796515Y-9199293D02*
X5786991Y-9237389D01*
X5786991Y-9237389D02*
X5777467Y-9256436D01*
X5777467Y-9256436D02*
X5767943Y-9265960D01*
X5767943Y-9265960D02*
X5748896Y-9275484D01*
X5748896Y-9275484D02*
X5729848Y-9275484D01*
X5729848Y-9275484D02*
X5710801Y-9265960D01*
X5710801Y-9265960D02*
X5701277Y-9256436D01*
X5701277Y-9256436D02*
X5691753Y-9237389D01*
X5691753Y-9237389D02*
X5682229Y-9199293D01*
X5682229Y-9199293D02*
X5682229Y-9151674D01*
X5682229Y-9151674D02*
X5691753Y-9113579D01*
X5691753Y-9113579D02*
X5701277Y-9094531D01*
X5701277Y-9094531D02*
X5710801Y-9085008D01*
X5710801Y-9085008D02*
X5729848Y-9075484D01*
X5872705Y-9094531D02*
X5882229Y-9085008D01*
X5882229Y-9085008D02*
X5901277Y-9075484D01*
X5901277Y-9075484D02*
X5948896Y-9075484D01*
X5948896Y-9075484D02*
X5967943Y-9085008D01*
X5967943Y-9085008D02*
X5977467Y-9094531D01*
X5977467Y-9094531D02*
X5986991Y-9113579D01*
X5986991Y-9113579D02*
X5986991Y-9132627D01*
X5986991Y-9132627D02*
X5977467Y-9161198D01*
X5977467Y-9161198D02*
X5863182Y-9275484D01*
X5863182Y-9275484D02*
X5986991Y-9275484D01*
X6053658Y-9075484D02*
X6177467Y-9075484D01*
X6177467Y-9075484D02*
X6110801Y-9151674D01*
X6110801Y-9151674D02*
X6139372Y-9151674D01*
X6139372Y-9151674D02*
X6158420Y-9161198D01*
X6158420Y-9161198D02*
X6167943Y-9170722D01*
X6167943Y-9170722D02*
X6177467Y-9189770D01*
X6177467Y-9189770D02*
X6177467Y-9237389D01*
X6177467Y-9237389D02*
X6167943Y-9256436D01*
X6167943Y-9256436D02*
X6158420Y-9265960D01*
X6158420Y-9265960D02*
X6139372Y-9275484D01*
X6139372Y-9275484D02*
X6082229Y-9275484D01*
X6082229Y-9275484D02*
X6063182Y-9265960D01*
X6063182Y-9265960D02*
X6053658Y-9256436D01*
X6348896Y-9075484D02*
X6310801Y-9075484D01*
X6310801Y-9075484D02*
X6291753Y-9085008D01*
X6291753Y-9085008D02*
X6282229Y-9094531D01*
X6282229Y-9094531D02*
X6263182Y-9123103D01*
X6263182Y-9123103D02*
X6253658Y-9161198D01*
X6253658Y-9161198D02*
X6253658Y-9237389D01*
X6253658Y-9237389D02*
X6263182Y-9256436D01*
X6263182Y-9256436D02*
X6272705Y-9265960D01*
X6272705Y-9265960D02*
X6291753Y-9275484D01*
X6291753Y-9275484D02*
X6329848Y-9275484D01*
X6329848Y-9275484D02*
X6348896Y-9265960D01*
X6348896Y-9265960D02*
X6358420Y-9256436D01*
X6358420Y-9256436D02*
X6367943Y-9237389D01*
X6367943Y-9237389D02*
X6367943Y-9189770D01*
X6367943Y-9189770D02*
X6358420Y-9170722D01*
X6358420Y-9170722D02*
X6348896Y-9161198D01*
X6348896Y-9161198D02*
X6329848Y-9151674D01*
X6329848Y-9151674D02*
X6291753Y-9151674D01*
X6291753Y-9151674D02*
X6272705Y-9161198D01*
X6272705Y-9161198D02*
X6263182Y-9170722D01*
X6263182Y-9170722D02*
X6253658Y-9189770D01*
X6444134Y-9075484D02*
X6444134Y-9113579D01*
X6520324Y-9075484D02*
X6520324Y-9113579D01*
X6815563Y-9351674D02*
X6806039Y-9342150D01*
X6806039Y-9342150D02*
X6786991Y-9313579D01*
X6786991Y-9313579D02*
X6777467Y-9294531D01*
X6777467Y-9294531D02*
X6767944Y-9265960D01*
X6767944Y-9265960D02*
X6758420Y-9218341D01*
X6758420Y-9218341D02*
X6758420Y-9180246D01*
X6758420Y-9180246D02*
X6767944Y-9132627D01*
X6767944Y-9132627D02*
X6777467Y-9104055D01*
X6777467Y-9104055D02*
X6786991Y-9085008D01*
X6786991Y-9085008D02*
X6806039Y-9056436D01*
X6806039Y-9056436D02*
X6815563Y-9046912D01*
X6986991Y-9075484D02*
X6891753Y-9075484D01*
X6891753Y-9075484D02*
X6882229Y-9170722D01*
X6882229Y-9170722D02*
X6891753Y-9161198D01*
X6891753Y-9161198D02*
X6910801Y-9151674D01*
X6910801Y-9151674D02*
X6958420Y-9151674D01*
X6958420Y-9151674D02*
X6977467Y-9161198D01*
X6977467Y-9161198D02*
X6986991Y-9170722D01*
X6986991Y-9170722D02*
X6996515Y-9189770D01*
X6996515Y-9189770D02*
X6996515Y-9237389D01*
X6996515Y-9237389D02*
X6986991Y-9256436D01*
X6986991Y-9256436D02*
X6977467Y-9265960D01*
X6977467Y-9265960D02*
X6958420Y-9275484D01*
X6958420Y-9275484D02*
X6910801Y-9275484D01*
X6910801Y-9275484D02*
X6891753Y-9265960D01*
X6891753Y-9265960D02*
X6882229Y-9256436D01*
X7063182Y-9075484D02*
X7196515Y-9075484D01*
X7196515Y-9075484D02*
X7110801Y-9275484D01*
X7425086Y-9275484D02*
X7425086Y-9075484D01*
X7510801Y-9275484D02*
X7510801Y-9170722D01*
X7510801Y-9170722D02*
X7501277Y-9151674D01*
X7501277Y-9151674D02*
X7482229Y-9142150D01*
X7482229Y-9142150D02*
X7453658Y-9142150D01*
X7453658Y-9142150D02*
X7434610Y-9151674D01*
X7434610Y-9151674D02*
X7425086Y-9161198D01*
X7634610Y-9275484D02*
X7615563Y-9265960D01*
X7615563Y-9265960D02*
X7606039Y-9256436D01*
X7606039Y-9256436D02*
X7596515Y-9237389D01*
X7596515Y-9237389D02*
X7596515Y-9180246D01*
X7596515Y-9180246D02*
X7606039Y-9161198D01*
X7606039Y-9161198D02*
X7615563Y-9151674D01*
X7615563Y-9151674D02*
X7634610Y-9142150D01*
X7634610Y-9142150D02*
X7663182Y-9142150D01*
X7663182Y-9142150D02*
X7682229Y-9151674D01*
X7682229Y-9151674D02*
X7691753Y-9161198D01*
X7691753Y-9161198D02*
X7701277Y-9180246D01*
X7701277Y-9180246D02*
X7701277Y-9237389D01*
X7701277Y-9237389D02*
X7691753Y-9256436D01*
X7691753Y-9256436D02*
X7682229Y-9265960D01*
X7682229Y-9265960D02*
X7663182Y-9275484D01*
X7663182Y-9275484D02*
X7634610Y-9275484D01*
X7815563Y-9275484D02*
X7796515Y-9265960D01*
X7796515Y-9265960D02*
X7786991Y-9246912D01*
X7786991Y-9246912D02*
X7786991Y-9075484D01*
X7967944Y-9265960D02*
X7948896Y-9275484D01*
X7948896Y-9275484D02*
X7910801Y-9275484D01*
X7910801Y-9275484D02*
X7891753Y-9265960D01*
X7891753Y-9265960D02*
X7882229Y-9246912D01*
X7882229Y-9246912D02*
X7882229Y-9170722D01*
X7882229Y-9170722D02*
X7891753Y-9151674D01*
X7891753Y-9151674D02*
X7910801Y-9142150D01*
X7910801Y-9142150D02*
X7948896Y-9142150D01*
X7948896Y-9142150D02*
X7967944Y-9151674D01*
X7967944Y-9151674D02*
X7977467Y-9170722D01*
X7977467Y-9170722D02*
X7977467Y-9189770D01*
X7977467Y-9189770D02*
X7882229Y-9208817D01*
X8053658Y-9265960D02*
X8072706Y-9275484D01*
X8072706Y-9275484D02*
X8110801Y-9275484D01*
X8110801Y-9275484D02*
X8129848Y-9265960D01*
X8129848Y-9265960D02*
X8139372Y-9246912D01*
X8139372Y-9246912D02*
X8139372Y-9237389D01*
X8139372Y-9237389D02*
X8129848Y-9218341D01*
X8129848Y-9218341D02*
X8110801Y-9208817D01*
X8110801Y-9208817D02*
X8082229Y-9208817D01*
X8082229Y-9208817D02*
X8063182Y-9199293D01*
X8063182Y-9199293D02*
X8053658Y-9180246D01*
X8053658Y-9180246D02*
X8053658Y-9170722D01*
X8053658Y-9170722D02*
X8063182Y-9151674D01*
X8063182Y-9151674D02*
X8082229Y-9142150D01*
X8082229Y-9142150D02*
X8110801Y-9142150D01*
X8110801Y-9142150D02*
X8129848Y-9151674D01*
X8206039Y-9351674D02*
X8215563Y-9342150D01*
X8215563Y-9342150D02*
X8234610Y-9313579D01*
X8234610Y-9313579D02*
X8244134Y-9294531D01*
X8244134Y-9294531D02*
X8253658Y-9265960D01*
X8253658Y-9265960D02*
X8263182Y-9218341D01*
X8263182Y-9218341D02*
X8263182Y-9180246D01*
X8263182Y-9180246D02*
X8253658Y-9132627D01*
X8253658Y-9132627D02*
X8244134Y-9104055D01*
X8244134Y-9104055D02*
X8234610Y-9085008D01*
X8234610Y-9085008D02*
X8215563Y-9056436D01*
X8215563Y-9056436D02*
X8206039Y-9046912D01*
D10*
X3140500Y-9398000D02*
X3240500Y-9498000D01*
X3240500Y-9398000D02*
X3140500Y-9498000D01*
X3190500Y-9398000D02*
X3190500Y-9498000D01*
X3140500Y-9448000D02*
X3240500Y-9448000D01*
D11*
X3606038Y-9539484D02*
X3491753Y-9539484D01*
X3548896Y-9539484D02*
X3548896Y-9339484D01*
X3548896Y-9339484D02*
X3529848Y-9368055D01*
X3529848Y-9368055D02*
X3510800Y-9387103D01*
X3510800Y-9387103D02*
X3491753Y-9396627D01*
X3691753Y-9520436D02*
X3701277Y-9529960D01*
X3701277Y-9529960D02*
X3691753Y-9539484D01*
X3691753Y-9539484D02*
X3682229Y-9529960D01*
X3682229Y-9529960D02*
X3691753Y-9520436D01*
X3691753Y-9520436D02*
X3691753Y-9539484D01*
X3825086Y-9339484D02*
X3844134Y-9339484D01*
X3844134Y-9339484D02*
X3863181Y-9349008D01*
X3863181Y-9349008D02*
X3872705Y-9358531D01*
X3872705Y-9358531D02*
X3882229Y-9377579D01*
X3882229Y-9377579D02*
X3891753Y-9415674D01*
X3891753Y-9415674D02*
X3891753Y-9463293D01*
X3891753Y-9463293D02*
X3882229Y-9501389D01*
X3882229Y-9501389D02*
X3872705Y-9520436D01*
X3872705Y-9520436D02*
X3863181Y-9529960D01*
X3863181Y-9529960D02*
X3844134Y-9539484D01*
X3844134Y-9539484D02*
X3825086Y-9539484D01*
X3825086Y-9539484D02*
X3806038Y-9529960D01*
X3806038Y-9529960D02*
X3796515Y-9520436D01*
X3796515Y-9520436D02*
X3786991Y-9501389D01*
X3786991Y-9501389D02*
X3777467Y-9463293D01*
X3777467Y-9463293D02*
X3777467Y-9415674D01*
X3777467Y-9415674D02*
X3786991Y-9377579D01*
X3786991Y-9377579D02*
X3796515Y-9358531D01*
X3796515Y-9358531D02*
X3806038Y-9349008D01*
X3806038Y-9349008D02*
X3825086Y-9339484D01*
X4015562Y-9339484D02*
X4034610Y-9339484D01*
X4034610Y-9339484D02*
X4053658Y-9349008D01*
X4053658Y-9349008D02*
X4063181Y-9358531D01*
X4063181Y-9358531D02*
X4072705Y-9377579D01*
X4072705Y-9377579D02*
X4082229Y-9415674D01*
X4082229Y-9415674D02*
X4082229Y-9463293D01*
X4082229Y-9463293D02*
X4072705Y-9501389D01*
X4072705Y-9501389D02*
X4063181Y-9520436D01*
X4063181Y-9520436D02*
X4053658Y-9529960D01*
X4053658Y-9529960D02*
X4034610Y-9539484D01*
X4034610Y-9539484D02*
X4015562Y-9539484D01*
X4015562Y-9539484D02*
X3996515Y-9529960D01*
X3996515Y-9529960D02*
X3986991Y-9520436D01*
X3986991Y-9520436D02*
X3977467Y-9501389D01*
X3977467Y-9501389D02*
X3967943Y-9463293D01*
X3967943Y-9463293D02*
X3967943Y-9415674D01*
X3967943Y-9415674D02*
X3977467Y-9377579D01*
X3977467Y-9377579D02*
X3986991Y-9358531D01*
X3986991Y-9358531D02*
X3996515Y-9349008D01*
X3996515Y-9349008D02*
X4015562Y-9339484D01*
X4206039Y-9339484D02*
X4225086Y-9339484D01*
X4225086Y-9339484D02*
X4244134Y-9349008D01*
X4244134Y-9349008D02*
X4253658Y-9358531D01*
X4253658Y-9358531D02*
X4263181Y-9377579D01*
X4263181Y-9377579D02*
X4272705Y-9415674D01*
X4272705Y-9415674D02*
X4272705Y-9463293D01*
X4272705Y-9463293D02*
X4263181Y-9501389D01*
X4263181Y-9501389D02*
X4253658Y-9520436D01*
X4253658Y-9520436D02*
X4244134Y-9529960D01*
X4244134Y-9529960D02*
X4225086Y-9539484D01*
X4225086Y-9539484D02*
X4206039Y-9539484D01*
X4206039Y-9539484D02*
X4186991Y-9529960D01*
X4186991Y-9529960D02*
X4177467Y-9520436D01*
X4177467Y-9520436D02*
X4167943Y-9501389D01*
X4167943Y-9501389D02*
X4158419Y-9463293D01*
X4158419Y-9463293D02*
X4158419Y-9415674D01*
X4158419Y-9415674D02*
X4167943Y-9377579D01*
X4167943Y-9377579D02*
X4177467Y-9358531D01*
X4177467Y-9358531D02*
X4186991Y-9349008D01*
X4186991Y-9349008D02*
X4206039Y-9339484D01*
X4358420Y-9539484D02*
X4358420Y-9406150D01*
X4358420Y-9425198D02*
X4367943Y-9415674D01*
X4367943Y-9415674D02*
X4386991Y-9406150D01*
X4386991Y-9406150D02*
X4415562Y-9406150D01*
X4415562Y-9406150D02*
X4434610Y-9415674D01*
X4434610Y-9415674D02*
X4444134Y-9434722D01*
X4444134Y-9434722D02*
X4444134Y-9539484D01*
X4444134Y-9434722D02*
X4453658Y-9415674D01*
X4453658Y-9415674D02*
X4472705Y-9406150D01*
X4472705Y-9406150D02*
X4501277Y-9406150D01*
X4501277Y-9406150D02*
X4520324Y-9415674D01*
X4520324Y-9415674D02*
X4529848Y-9434722D01*
X4529848Y-9434722D02*
X4529848Y-9539484D01*
X4625086Y-9539484D02*
X4625086Y-9406150D01*
X4625086Y-9425198D02*
X4634610Y-9415674D01*
X4634610Y-9415674D02*
X4653658Y-9406150D01*
X4653658Y-9406150D02*
X4682229Y-9406150D01*
X4682229Y-9406150D02*
X4701277Y-9415674D01*
X4701277Y-9415674D02*
X4710801Y-9434722D01*
X4710801Y-9434722D02*
X4710801Y-9539484D01*
X4710801Y-9434722D02*
X4720324Y-9415674D01*
X4720324Y-9415674D02*
X4739372Y-9406150D01*
X4739372Y-9406150D02*
X4767943Y-9406150D01*
X4767943Y-9406150D02*
X4786991Y-9415674D01*
X4786991Y-9415674D02*
X4796515Y-9434722D01*
X4796515Y-9434722D02*
X4796515Y-9539484D01*
X5186991Y-9329960D02*
X5015563Y-9587103D01*
X5444134Y-9339484D02*
X5463182Y-9339484D01*
X5463182Y-9339484D02*
X5482229Y-9349008D01*
X5482229Y-9349008D02*
X5491753Y-9358531D01*
X5491753Y-9358531D02*
X5501277Y-9377579D01*
X5501277Y-9377579D02*
X5510801Y-9415674D01*
X5510801Y-9415674D02*
X5510801Y-9463293D01*
X5510801Y-9463293D02*
X5501277Y-9501389D01*
X5501277Y-9501389D02*
X5491753Y-9520436D01*
X5491753Y-9520436D02*
X5482229Y-9529960D01*
X5482229Y-9529960D02*
X5463182Y-9539484D01*
X5463182Y-9539484D02*
X5444134Y-9539484D01*
X5444134Y-9539484D02*
X5425086Y-9529960D01*
X5425086Y-9529960D02*
X5415563Y-9520436D01*
X5415563Y-9520436D02*
X5406039Y-9501389D01*
X5406039Y-9501389D02*
X5396515Y-9463293D01*
X5396515Y-9463293D02*
X5396515Y-9415674D01*
X5396515Y-9415674D02*
X5406039Y-9377579D01*
X5406039Y-9377579D02*
X5415563Y-9358531D01*
X5415563Y-9358531D02*
X5425086Y-9349008D01*
X5425086Y-9349008D02*
X5444134Y-9339484D01*
X5596515Y-9520436D02*
X5606039Y-9529960D01*
X5606039Y-9529960D02*
X5596515Y-9539484D01*
X5596515Y-9539484D02*
X5586991Y-9529960D01*
X5586991Y-9529960D02*
X5596515Y-9520436D01*
X5596515Y-9520436D02*
X5596515Y-9539484D01*
X5729848Y-9339484D02*
X5748896Y-9339484D01*
X5748896Y-9339484D02*
X5767943Y-9349008D01*
X5767943Y-9349008D02*
X5777467Y-9358531D01*
X5777467Y-9358531D02*
X5786991Y-9377579D01*
X5786991Y-9377579D02*
X5796515Y-9415674D01*
X5796515Y-9415674D02*
X5796515Y-9463293D01*
X5796515Y-9463293D02*
X5786991Y-9501389D01*
X5786991Y-9501389D02*
X5777467Y-9520436D01*
X5777467Y-9520436D02*
X5767943Y-9529960D01*
X5767943Y-9529960D02*
X5748896Y-9539484D01*
X5748896Y-9539484D02*
X5729848Y-9539484D01*
X5729848Y-9539484D02*
X5710801Y-9529960D01*
X5710801Y-9529960D02*
X5701277Y-9520436D01*
X5701277Y-9520436D02*
X5691753Y-9501389D01*
X5691753Y-9501389D02*
X5682229Y-9463293D01*
X5682229Y-9463293D02*
X5682229Y-9415674D01*
X5682229Y-9415674D02*
X5691753Y-9377579D01*
X5691753Y-9377579D02*
X5701277Y-9358531D01*
X5701277Y-9358531D02*
X5710801Y-9349008D01*
X5710801Y-9349008D02*
X5729848Y-9339484D01*
X5863182Y-9339484D02*
X5986991Y-9339484D01*
X5986991Y-9339484D02*
X5920324Y-9415674D01*
X5920324Y-9415674D02*
X5948896Y-9415674D01*
X5948896Y-9415674D02*
X5967943Y-9425198D01*
X5967943Y-9425198D02*
X5977467Y-9434722D01*
X5977467Y-9434722D02*
X5986991Y-9453770D01*
X5986991Y-9453770D02*
X5986991Y-9501389D01*
X5986991Y-9501389D02*
X5977467Y-9520436D01*
X5977467Y-9520436D02*
X5967943Y-9529960D01*
X5967943Y-9529960D02*
X5948896Y-9539484D01*
X5948896Y-9539484D02*
X5891753Y-9539484D01*
X5891753Y-9539484D02*
X5872705Y-9529960D01*
X5872705Y-9529960D02*
X5863182Y-9520436D01*
X6082229Y-9539484D02*
X6120324Y-9539484D01*
X6120324Y-9539484D02*
X6139372Y-9529960D01*
X6139372Y-9529960D02*
X6148896Y-9520436D01*
X6148896Y-9520436D02*
X6167943Y-9491865D01*
X6167943Y-9491865D02*
X6177467Y-9453770D01*
X6177467Y-9453770D02*
X6177467Y-9377579D01*
X6177467Y-9377579D02*
X6167943Y-9358531D01*
X6167943Y-9358531D02*
X6158420Y-9349008D01*
X6158420Y-9349008D02*
X6139372Y-9339484D01*
X6139372Y-9339484D02*
X6101277Y-9339484D01*
X6101277Y-9339484D02*
X6082229Y-9349008D01*
X6082229Y-9349008D02*
X6072705Y-9358531D01*
X6072705Y-9358531D02*
X6063182Y-9377579D01*
X6063182Y-9377579D02*
X6063182Y-9425198D01*
X6063182Y-9425198D02*
X6072705Y-9444246D01*
X6072705Y-9444246D02*
X6082229Y-9453770D01*
X6082229Y-9453770D02*
X6101277Y-9463293D01*
X6101277Y-9463293D02*
X6139372Y-9463293D01*
X6139372Y-9463293D02*
X6158420Y-9453770D01*
X6158420Y-9453770D02*
X6167943Y-9444246D01*
X6167943Y-9444246D02*
X6177467Y-9425198D01*
X6348896Y-9406150D02*
X6348896Y-9539484D01*
X6301277Y-9329960D02*
X6253658Y-9472817D01*
X6253658Y-9472817D02*
X6377467Y-9472817D01*
X6444134Y-9339484D02*
X6444134Y-9377579D01*
X6520324Y-9339484D02*
X6520324Y-9377579D01*
X6815563Y-9615674D02*
X6806039Y-9606150D01*
X6806039Y-9606150D02*
X6786991Y-9577579D01*
X6786991Y-9577579D02*
X6777467Y-9558531D01*
X6777467Y-9558531D02*
X6767944Y-9529960D01*
X6767944Y-9529960D02*
X6758420Y-9482341D01*
X6758420Y-9482341D02*
X6758420Y-9444246D01*
X6758420Y-9444246D02*
X6767944Y-9396627D01*
X6767944Y-9396627D02*
X6777467Y-9368055D01*
X6777467Y-9368055D02*
X6786991Y-9349008D01*
X6786991Y-9349008D02*
X6806039Y-9320436D01*
X6806039Y-9320436D02*
X6815563Y-9310912D01*
X6977467Y-9339484D02*
X6939372Y-9339484D01*
X6939372Y-9339484D02*
X6920324Y-9349008D01*
X6920324Y-9349008D02*
X6910801Y-9358531D01*
X6910801Y-9358531D02*
X6891753Y-9387103D01*
X6891753Y-9387103D02*
X6882229Y-9425198D01*
X6882229Y-9425198D02*
X6882229Y-9501389D01*
X6882229Y-9501389D02*
X6891753Y-9520436D01*
X6891753Y-9520436D02*
X6901277Y-9529960D01*
X6901277Y-9529960D02*
X6920324Y-9539484D01*
X6920324Y-9539484D02*
X6958420Y-9539484D01*
X6958420Y-9539484D02*
X6977467Y-9529960D01*
X6977467Y-9529960D02*
X6986991Y-9520436D01*
X6986991Y-9520436D02*
X6996515Y-9501389D01*
X6996515Y-9501389D02*
X6996515Y-9453770D01*
X6996515Y-9453770D02*
X6986991Y-9434722D01*
X6986991Y-9434722D02*
X6977467Y-9425198D01*
X6977467Y-9425198D02*
X6958420Y-9415674D01*
X6958420Y-9415674D02*
X6920324Y-9415674D01*
X6920324Y-9415674D02*
X6901277Y-9425198D01*
X6901277Y-9425198D02*
X6891753Y-9434722D01*
X6891753Y-9434722D02*
X6882229Y-9453770D01*
X7234610Y-9539484D02*
X7234610Y-9339484D01*
X7320325Y-9539484D02*
X7320325Y-9434722D01*
X7320325Y-9434722D02*
X7310801Y-9415674D01*
X7310801Y-9415674D02*
X7291753Y-9406150D01*
X7291753Y-9406150D02*
X7263182Y-9406150D01*
X7263182Y-9406150D02*
X7244134Y-9415674D01*
X7244134Y-9415674D02*
X7234610Y-9425198D01*
X7444134Y-9539484D02*
X7425086Y-9529960D01*
X7425086Y-9529960D02*
X7415563Y-9520436D01*
X7415563Y-9520436D02*
X7406039Y-9501389D01*
X7406039Y-9501389D02*
X7406039Y-9444246D01*
X7406039Y-9444246D02*
X7415563Y-9425198D01*
X7415563Y-9425198D02*
X7425086Y-9415674D01*
X7425086Y-9415674D02*
X7444134Y-9406150D01*
X7444134Y-9406150D02*
X7472706Y-9406150D01*
X7472706Y-9406150D02*
X7491753Y-9415674D01*
X7491753Y-9415674D02*
X7501277Y-9425198D01*
X7501277Y-9425198D02*
X7510801Y-9444246D01*
X7510801Y-9444246D02*
X7510801Y-9501389D01*
X7510801Y-9501389D02*
X7501277Y-9520436D01*
X7501277Y-9520436D02*
X7491753Y-9529960D01*
X7491753Y-9529960D02*
X7472706Y-9539484D01*
X7472706Y-9539484D02*
X7444134Y-9539484D01*
X7625086Y-9539484D02*
X7606039Y-9529960D01*
X7606039Y-9529960D02*
X7596515Y-9510912D01*
X7596515Y-9510912D02*
X7596515Y-9339484D01*
X7777467Y-9529960D02*
X7758420Y-9539484D01*
X7758420Y-9539484D02*
X7720325Y-9539484D01*
X7720325Y-9539484D02*
X7701277Y-9529960D01*
X7701277Y-9529960D02*
X7691753Y-9510912D01*
X7691753Y-9510912D02*
X7691753Y-9434722D01*
X7691753Y-9434722D02*
X7701277Y-9415674D01*
X7701277Y-9415674D02*
X7720325Y-9406150D01*
X7720325Y-9406150D02*
X7758420Y-9406150D01*
X7758420Y-9406150D02*
X7777467Y-9415674D01*
X7777467Y-9415674D02*
X7786991Y-9434722D01*
X7786991Y-9434722D02*
X7786991Y-9453770D01*
X7786991Y-9453770D02*
X7691753Y-9472817D01*
X7863182Y-9529960D02*
X7882229Y-9539484D01*
X7882229Y-9539484D02*
X7920325Y-9539484D01*
X7920325Y-9539484D02*
X7939372Y-9529960D01*
X7939372Y-9529960D02*
X7948896Y-9510912D01*
X7948896Y-9510912D02*
X7948896Y-9501389D01*
X7948896Y-9501389D02*
X7939372Y-9482341D01*
X7939372Y-9482341D02*
X7920325Y-9472817D01*
X7920325Y-9472817D02*
X7891753Y-9472817D01*
X7891753Y-9472817D02*
X7872706Y-9463293D01*
X7872706Y-9463293D02*
X7863182Y-9444246D01*
X7863182Y-9444246D02*
X7863182Y-9434722D01*
X7863182Y-9434722D02*
X7872706Y-9415674D01*
X7872706Y-9415674D02*
X7891753Y-9406150D01*
X7891753Y-9406150D02*
X7920325Y-9406150D01*
X7920325Y-9406150D02*
X7939372Y-9415674D01*
X8015563Y-9615674D02*
X8025087Y-9606150D01*
X8025087Y-9606150D02*
X8044134Y-9577579D01*
X8044134Y-9577579D02*
X8053658Y-9558531D01*
X8053658Y-9558531D02*
X8063182Y-9529960D01*
X8063182Y-9529960D02*
X8072706Y-9482341D01*
X8072706Y-9482341D02*
X8072706Y-9444246D01*
X8072706Y-9444246D02*
X8063182Y-9396627D01*
X8063182Y-9396627D02*
X8053658Y-9368055D01*
X8053658Y-9368055D02*
X8044134Y-9349008D01*
X8044134Y-9349008D02*
X8025087Y-9320436D01*
X8025087Y-9320436D02*
X8015563Y-9310912D01*
D12*
X3060500Y-9622000D02*
X3240500Y-9802000D01*
X3240500Y-9622000D02*
X3060500Y-9802000D01*
X3214140Y-9775640D02*
X3214140Y-9648360D01*
X3086860Y-9648360D01*
X3086860Y-9775640D01*
X3214140Y-9775640D01*
D11*
X3606038Y-9803484D02*
X3491753Y-9803484D01*
X3548896Y-9803484D02*
X3548896Y-9603484D01*
X3548896Y-9603484D02*
X3529848Y-9632055D01*
X3529848Y-9632055D02*
X3510800Y-9651103D01*
X3510800Y-9651103D02*
X3491753Y-9660627D01*
X3691753Y-9784436D02*
X3701277Y-9793960D01*
X3701277Y-9793960D02*
X3691753Y-9803484D01*
X3691753Y-9803484D02*
X3682229Y-9793960D01*
X3682229Y-9793960D02*
X3691753Y-9784436D01*
X3691753Y-9784436D02*
X3691753Y-9803484D01*
X3815562Y-9689198D02*
X3796515Y-9679674D01*
X3796515Y-9679674D02*
X3786991Y-9670150D01*
X3786991Y-9670150D02*
X3777467Y-9651103D01*
X3777467Y-9651103D02*
X3777467Y-9641579D01*
X3777467Y-9641579D02*
X3786991Y-9622531D01*
X3786991Y-9622531D02*
X3796515Y-9613008D01*
X3796515Y-9613008D02*
X3815562Y-9603484D01*
X3815562Y-9603484D02*
X3853658Y-9603484D01*
X3853658Y-9603484D02*
X3872705Y-9613008D01*
X3872705Y-9613008D02*
X3882229Y-9622531D01*
X3882229Y-9622531D02*
X3891753Y-9641579D01*
X3891753Y-9641579D02*
X3891753Y-9651103D01*
X3891753Y-9651103D02*
X3882229Y-9670150D01*
X3882229Y-9670150D02*
X3872705Y-9679674D01*
X3872705Y-9679674D02*
X3853658Y-9689198D01*
X3853658Y-9689198D02*
X3815562Y-9689198D01*
X3815562Y-9689198D02*
X3796515Y-9698722D01*
X3796515Y-9698722D02*
X3786991Y-9708246D01*
X3786991Y-9708246D02*
X3777467Y-9727293D01*
X3777467Y-9727293D02*
X3777467Y-9765389D01*
X3777467Y-9765389D02*
X3786991Y-9784436D01*
X3786991Y-9784436D02*
X3796515Y-9793960D01*
X3796515Y-9793960D02*
X3815562Y-9803484D01*
X3815562Y-9803484D02*
X3853658Y-9803484D01*
X3853658Y-9803484D02*
X3872705Y-9793960D01*
X3872705Y-9793960D02*
X3882229Y-9784436D01*
X3882229Y-9784436D02*
X3891753Y-9765389D01*
X3891753Y-9765389D02*
X3891753Y-9727293D01*
X3891753Y-9727293D02*
X3882229Y-9708246D01*
X3882229Y-9708246D02*
X3872705Y-9698722D01*
X3872705Y-9698722D02*
X3853658Y-9689198D01*
X4015562Y-9603484D02*
X4034610Y-9603484D01*
X4034610Y-9603484D02*
X4053658Y-9613008D01*
X4053658Y-9613008D02*
X4063181Y-9622531D01*
X4063181Y-9622531D02*
X4072705Y-9641579D01*
X4072705Y-9641579D02*
X4082229Y-9679674D01*
X4082229Y-9679674D02*
X4082229Y-9727293D01*
X4082229Y-9727293D02*
X4072705Y-9765389D01*
X4072705Y-9765389D02*
X4063181Y-9784436D01*
X4063181Y-9784436D02*
X4053658Y-9793960D01*
X4053658Y-9793960D02*
X4034610Y-9803484D01*
X4034610Y-9803484D02*
X4015562Y-9803484D01*
X4015562Y-9803484D02*
X3996515Y-9793960D01*
X3996515Y-9793960D02*
X3986991Y-9784436D01*
X3986991Y-9784436D02*
X3977467Y-9765389D01*
X3977467Y-9765389D02*
X3967943Y-9727293D01*
X3967943Y-9727293D02*
X3967943Y-9679674D01*
X3967943Y-9679674D02*
X3977467Y-9641579D01*
X3977467Y-9641579D02*
X3986991Y-9622531D01*
X3986991Y-9622531D02*
X3996515Y-9613008D01*
X3996515Y-9613008D02*
X4015562Y-9603484D01*
X4206039Y-9603484D02*
X4225086Y-9603484D01*
X4225086Y-9603484D02*
X4244134Y-9613008D01*
X4244134Y-9613008D02*
X4253658Y-9622531D01*
X4253658Y-9622531D02*
X4263181Y-9641579D01*
X4263181Y-9641579D02*
X4272705Y-9679674D01*
X4272705Y-9679674D02*
X4272705Y-9727293D01*
X4272705Y-9727293D02*
X4263181Y-9765389D01*
X4263181Y-9765389D02*
X4253658Y-9784436D01*
X4253658Y-9784436D02*
X4244134Y-9793960D01*
X4244134Y-9793960D02*
X4225086Y-9803484D01*
X4225086Y-9803484D02*
X4206039Y-9803484D01*
X4206039Y-9803484D02*
X4186991Y-9793960D01*
X4186991Y-9793960D02*
X4177467Y-9784436D01*
X4177467Y-9784436D02*
X4167943Y-9765389D01*
X4167943Y-9765389D02*
X4158419Y-9727293D01*
X4158419Y-9727293D02*
X4158419Y-9679674D01*
X4158419Y-9679674D02*
X4167943Y-9641579D01*
X4167943Y-9641579D02*
X4177467Y-9622531D01*
X4177467Y-9622531D02*
X4186991Y-9613008D01*
X4186991Y-9613008D02*
X4206039Y-9603484D01*
X4358420Y-9803484D02*
X4358420Y-9670150D01*
X4358420Y-9689198D02*
X4367943Y-9679674D01*
X4367943Y-9679674D02*
X4386991Y-9670150D01*
X4386991Y-9670150D02*
X4415562Y-9670150D01*
X4415562Y-9670150D02*
X4434610Y-9679674D01*
X4434610Y-9679674D02*
X4444134Y-9698722D01*
X4444134Y-9698722D02*
X4444134Y-9803484D01*
X4444134Y-9698722D02*
X4453658Y-9679674D01*
X4453658Y-9679674D02*
X4472705Y-9670150D01*
X4472705Y-9670150D02*
X4501277Y-9670150D01*
X4501277Y-9670150D02*
X4520324Y-9679674D01*
X4520324Y-9679674D02*
X4529848Y-9698722D01*
X4529848Y-9698722D02*
X4529848Y-9803484D01*
X4625086Y-9803484D02*
X4625086Y-9670150D01*
X4625086Y-9689198D02*
X4634610Y-9679674D01*
X4634610Y-9679674D02*
X4653658Y-9670150D01*
X4653658Y-9670150D02*
X4682229Y-9670150D01*
X4682229Y-9670150D02*
X4701277Y-9679674D01*
X4701277Y-9679674D02*
X4710801Y-9698722D01*
X4710801Y-9698722D02*
X4710801Y-9803484D01*
X4710801Y-9698722D02*
X4720324Y-9679674D01*
X4720324Y-9679674D02*
X4739372Y-9670150D01*
X4739372Y-9670150D02*
X4767943Y-9670150D01*
X4767943Y-9670150D02*
X4786991Y-9679674D01*
X4786991Y-9679674D02*
X4796515Y-9698722D01*
X4796515Y-9698722D02*
X4796515Y-9803484D01*
X5186991Y-9593960D02*
X5015563Y-9851103D01*
X5444134Y-9603484D02*
X5463182Y-9603484D01*
X5463182Y-9603484D02*
X5482229Y-9613008D01*
X5482229Y-9613008D02*
X5491753Y-9622531D01*
X5491753Y-9622531D02*
X5501277Y-9641579D01*
X5501277Y-9641579D02*
X5510801Y-9679674D01*
X5510801Y-9679674D02*
X5510801Y-9727293D01*
X5510801Y-9727293D02*
X5501277Y-9765389D01*
X5501277Y-9765389D02*
X5491753Y-9784436D01*
X5491753Y-9784436D02*
X5482229Y-9793960D01*
X5482229Y-9793960D02*
X5463182Y-9803484D01*
X5463182Y-9803484D02*
X5444134Y-9803484D01*
X5444134Y-9803484D02*
X5425086Y-9793960D01*
X5425086Y-9793960D02*
X5415563Y-9784436D01*
X5415563Y-9784436D02*
X5406039Y-9765389D01*
X5406039Y-9765389D02*
X5396515Y-9727293D01*
X5396515Y-9727293D02*
X5396515Y-9679674D01*
X5396515Y-9679674D02*
X5406039Y-9641579D01*
X5406039Y-9641579D02*
X5415563Y-9622531D01*
X5415563Y-9622531D02*
X5425086Y-9613008D01*
X5425086Y-9613008D02*
X5444134Y-9603484D01*
X5596515Y-9784436D02*
X5606039Y-9793960D01*
X5606039Y-9793960D02*
X5596515Y-9803484D01*
X5596515Y-9803484D02*
X5586991Y-9793960D01*
X5586991Y-9793960D02*
X5596515Y-9784436D01*
X5596515Y-9784436D02*
X5596515Y-9803484D01*
X5729848Y-9603484D02*
X5748896Y-9603484D01*
X5748896Y-9603484D02*
X5767943Y-9613008D01*
X5767943Y-9613008D02*
X5777467Y-9622531D01*
X5777467Y-9622531D02*
X5786991Y-9641579D01*
X5786991Y-9641579D02*
X5796515Y-9679674D01*
X5796515Y-9679674D02*
X5796515Y-9727293D01*
X5796515Y-9727293D02*
X5786991Y-9765389D01*
X5786991Y-9765389D02*
X5777467Y-9784436D01*
X5777467Y-9784436D02*
X5767943Y-9793960D01*
X5767943Y-9793960D02*
X5748896Y-9803484D01*
X5748896Y-9803484D02*
X5729848Y-9803484D01*
X5729848Y-9803484D02*
X5710801Y-9793960D01*
X5710801Y-9793960D02*
X5701277Y-9784436D01*
X5701277Y-9784436D02*
X5691753Y-9765389D01*
X5691753Y-9765389D02*
X5682229Y-9727293D01*
X5682229Y-9727293D02*
X5682229Y-9679674D01*
X5682229Y-9679674D02*
X5691753Y-9641579D01*
X5691753Y-9641579D02*
X5701277Y-9622531D01*
X5701277Y-9622531D02*
X5710801Y-9613008D01*
X5710801Y-9613008D02*
X5729848Y-9603484D01*
X5863182Y-9603484D02*
X5996515Y-9603484D01*
X5996515Y-9603484D02*
X5910801Y-9803484D01*
X6110801Y-9603484D02*
X6129848Y-9603484D01*
X6129848Y-9603484D02*
X6148896Y-9613008D01*
X6148896Y-9613008D02*
X6158420Y-9622531D01*
X6158420Y-9622531D02*
X6167943Y-9641579D01*
X6167943Y-9641579D02*
X6177467Y-9679674D01*
X6177467Y-9679674D02*
X6177467Y-9727293D01*
X6177467Y-9727293D02*
X6167943Y-9765389D01*
X6167943Y-9765389D02*
X6158420Y-9784436D01*
X6158420Y-9784436D02*
X6148896Y-9793960D01*
X6148896Y-9793960D02*
X6129848Y-9803484D01*
X6129848Y-9803484D02*
X6110801Y-9803484D01*
X6110801Y-9803484D02*
X6091753Y-9793960D01*
X6091753Y-9793960D02*
X6082229Y-9784436D01*
X6082229Y-9784436D02*
X6072705Y-9765389D01*
X6072705Y-9765389D02*
X6063182Y-9727293D01*
X6063182Y-9727293D02*
X6063182Y-9679674D01*
X6063182Y-9679674D02*
X6072705Y-9641579D01*
X6072705Y-9641579D02*
X6082229Y-9622531D01*
X6082229Y-9622531D02*
X6091753Y-9613008D01*
X6091753Y-9613008D02*
X6110801Y-9603484D01*
X6272705Y-9803484D02*
X6310801Y-9803484D01*
X6310801Y-9803484D02*
X6329848Y-9793960D01*
X6329848Y-9793960D02*
X6339372Y-9784436D01*
X6339372Y-9784436D02*
X6358420Y-9755865D01*
X6358420Y-9755865D02*
X6367943Y-9717770D01*
X6367943Y-9717770D02*
X6367943Y-9641579D01*
X6367943Y-9641579D02*
X6358420Y-9622531D01*
X6358420Y-9622531D02*
X6348896Y-9613008D01*
X6348896Y-9613008D02*
X6329848Y-9603484D01*
X6329848Y-9603484D02*
X6291753Y-9603484D01*
X6291753Y-9603484D02*
X6272705Y-9613008D01*
X6272705Y-9613008D02*
X6263182Y-9622531D01*
X6263182Y-9622531D02*
X6253658Y-9641579D01*
X6253658Y-9641579D02*
X6253658Y-9689198D01*
X6253658Y-9689198D02*
X6263182Y-9708246D01*
X6263182Y-9708246D02*
X6272705Y-9717770D01*
X6272705Y-9717770D02*
X6291753Y-9727293D01*
X6291753Y-9727293D02*
X6329848Y-9727293D01*
X6329848Y-9727293D02*
X6348896Y-9717770D01*
X6348896Y-9717770D02*
X6358420Y-9708246D01*
X6358420Y-9708246D02*
X6367943Y-9689198D01*
X6444134Y-9603484D02*
X6444134Y-9641579D01*
X6520324Y-9603484D02*
X6520324Y-9641579D01*
X6815563Y-9879674D02*
X6806039Y-9870150D01*
X6806039Y-9870150D02*
X6786991Y-9841579D01*
X6786991Y-9841579D02*
X6777467Y-9822531D01*
X6777467Y-9822531D02*
X6767944Y-9793960D01*
X6767944Y-9793960D02*
X6758420Y-9746341D01*
X6758420Y-9746341D02*
X6758420Y-9708246D01*
X6758420Y-9708246D02*
X6767944Y-9660627D01*
X6767944Y-9660627D02*
X6777467Y-9632055D01*
X6777467Y-9632055D02*
X6786991Y-9613008D01*
X6786991Y-9613008D02*
X6806039Y-9584436D01*
X6806039Y-9584436D02*
X6815563Y-9574912D01*
X6882229Y-9622531D02*
X6891753Y-9613008D01*
X6891753Y-9613008D02*
X6910801Y-9603484D01*
X6910801Y-9603484D02*
X6958420Y-9603484D01*
X6958420Y-9603484D02*
X6977467Y-9613008D01*
X6977467Y-9613008D02*
X6986991Y-9622531D01*
X6986991Y-9622531D02*
X6996515Y-9641579D01*
X6996515Y-9641579D02*
X6996515Y-9660627D01*
X6996515Y-9660627D02*
X6986991Y-9689198D01*
X6986991Y-9689198D02*
X6872705Y-9803484D01*
X6872705Y-9803484D02*
X6996515Y-9803484D01*
X7234610Y-9803484D02*
X7234610Y-9603484D01*
X7320325Y-9803484D02*
X7320325Y-9698722D01*
X7320325Y-9698722D02*
X7310801Y-9679674D01*
X7310801Y-9679674D02*
X7291753Y-9670150D01*
X7291753Y-9670150D02*
X7263182Y-9670150D01*
X7263182Y-9670150D02*
X7244134Y-9679674D01*
X7244134Y-9679674D02*
X7234610Y-9689198D01*
X7444134Y-9803484D02*
X7425086Y-9793960D01*
X7425086Y-9793960D02*
X7415563Y-9784436D01*
X7415563Y-9784436D02*
X7406039Y-9765389D01*
X7406039Y-9765389D02*
X7406039Y-9708246D01*
X7406039Y-9708246D02*
X7415563Y-9689198D01*
X7415563Y-9689198D02*
X7425086Y-9679674D01*
X7425086Y-9679674D02*
X7444134Y-9670150D01*
X7444134Y-9670150D02*
X7472706Y-9670150D01*
X7472706Y-9670150D02*
X7491753Y-9679674D01*
X7491753Y-9679674D02*
X7501277Y-9689198D01*
X7501277Y-9689198D02*
X7510801Y-9708246D01*
X7510801Y-9708246D02*
X7510801Y-9765389D01*
X7510801Y-9765389D02*
X7501277Y-9784436D01*
X7501277Y-9784436D02*
X7491753Y-9793960D01*
X7491753Y-9793960D02*
X7472706Y-9803484D01*
X7472706Y-9803484D02*
X7444134Y-9803484D01*
X7625086Y-9803484D02*
X7606039Y-9793960D01*
X7606039Y-9793960D02*
X7596515Y-9774912D01*
X7596515Y-9774912D02*
X7596515Y-9603484D01*
X7777467Y-9793960D02*
X7758420Y-9803484D01*
X7758420Y-9803484D02*
X7720325Y-9803484D01*
X7720325Y-9803484D02*
X7701277Y-9793960D01*
X7701277Y-9793960D02*
X7691753Y-9774912D01*
X7691753Y-9774912D02*
X7691753Y-9698722D01*
X7691753Y-9698722D02*
X7701277Y-9679674D01*
X7701277Y-9679674D02*
X7720325Y-9670150D01*
X7720325Y-9670150D02*
X7758420Y-9670150D01*
X7758420Y-9670150D02*
X7777467Y-9679674D01*
X7777467Y-9679674D02*
X7786991Y-9698722D01*
X7786991Y-9698722D02*
X7786991Y-9717770D01*
X7786991Y-9717770D02*
X7691753Y-9736817D01*
X7863182Y-9793960D02*
X7882229Y-9803484D01*
X7882229Y-9803484D02*
X7920325Y-9803484D01*
X7920325Y-9803484D02*
X7939372Y-9793960D01*
X7939372Y-9793960D02*
X7948896Y-9774912D01*
X7948896Y-9774912D02*
X7948896Y-9765389D01*
X7948896Y-9765389D02*
X7939372Y-9746341D01*
X7939372Y-9746341D02*
X7920325Y-9736817D01*
X7920325Y-9736817D02*
X7891753Y-9736817D01*
X7891753Y-9736817D02*
X7872706Y-9727293D01*
X7872706Y-9727293D02*
X7863182Y-9708246D01*
X7863182Y-9708246D02*
X7863182Y-9698722D01*
X7863182Y-9698722D02*
X7872706Y-9679674D01*
X7872706Y-9679674D02*
X7891753Y-9670150D01*
X7891753Y-9670150D02*
X7920325Y-9670150D01*
X7920325Y-9670150D02*
X7939372Y-9679674D01*
X8015563Y-9879674D02*
X8025087Y-9870150D01*
X8025087Y-9870150D02*
X8044134Y-9841579D01*
X8044134Y-9841579D02*
X8053658Y-9822531D01*
X8053658Y-9822531D02*
X8063182Y-9793960D01*
X8063182Y-9793960D02*
X8072706Y-9746341D01*
X8072706Y-9746341D02*
X8072706Y-9708246D01*
X8072706Y-9708246D02*
X8063182Y-9660627D01*
X8063182Y-9660627D02*
X8053658Y-9632055D01*
X8053658Y-9632055D02*
X8044134Y-9613008D01*
X8044134Y-9613008D02*
X8025087Y-9584436D01*
X8025087Y-9584436D02*
X8015563Y-9574912D01*
X3040500Y-9912000D02*
X3240500Y-10112000D01*
X3240500Y-9912000D02*
X3040500Y-10112000D01*
X3140500Y-10112000D02*
X3240500Y-10012000D01*
X3140500Y-9912000D01*
X3040500Y-10012000D01*
X3140500Y-10112000D01*
X3491753Y-9922531D02*
X3501277Y-9913008D01*
X3501277Y-9913008D02*
X3520324Y-9903484D01*
X3520324Y-9903484D02*
X3567943Y-9903484D01*
X3567943Y-9903484D02*
X3586991Y-9913008D01*
X3586991Y-9913008D02*
X3596515Y-9922531D01*
X3596515Y-9922531D02*
X3606038Y-9941579D01*
X3606038Y-9941579D02*
X3606038Y-9960627D01*
X3606038Y-9960627D02*
X3596515Y-9989198D01*
X3596515Y-9989198D02*
X3482229Y-10103484D01*
X3482229Y-10103484D02*
X3606038Y-10103484D01*
X3691753Y-10084436D02*
X3701277Y-10093960D01*
X3701277Y-10093960D02*
X3691753Y-10103484D01*
X3691753Y-10103484D02*
X3682229Y-10093960D01*
X3682229Y-10093960D02*
X3691753Y-10084436D01*
X3691753Y-10084436D02*
X3691753Y-10103484D01*
X3777467Y-9922531D02*
X3786991Y-9913008D01*
X3786991Y-9913008D02*
X3806038Y-9903484D01*
X3806038Y-9903484D02*
X3853658Y-9903484D01*
X3853658Y-9903484D02*
X3872705Y-9913008D01*
X3872705Y-9913008D02*
X3882229Y-9922531D01*
X3882229Y-9922531D02*
X3891753Y-9941579D01*
X3891753Y-9941579D02*
X3891753Y-9960627D01*
X3891753Y-9960627D02*
X3882229Y-9989198D01*
X3882229Y-9989198D02*
X3767943Y-10103484D01*
X3767943Y-10103484D02*
X3891753Y-10103484D01*
X4015562Y-9903484D02*
X4034610Y-9903484D01*
X4034610Y-9903484D02*
X4053658Y-9913008D01*
X4053658Y-9913008D02*
X4063181Y-9922531D01*
X4063181Y-9922531D02*
X4072705Y-9941579D01*
X4072705Y-9941579D02*
X4082229Y-9979674D01*
X4082229Y-9979674D02*
X4082229Y-10027293D01*
X4082229Y-10027293D02*
X4072705Y-10065389D01*
X4072705Y-10065389D02*
X4063181Y-10084436D01*
X4063181Y-10084436D02*
X4053658Y-10093960D01*
X4053658Y-10093960D02*
X4034610Y-10103484D01*
X4034610Y-10103484D02*
X4015562Y-10103484D01*
X4015562Y-10103484D02*
X3996515Y-10093960D01*
X3996515Y-10093960D02*
X3986991Y-10084436D01*
X3986991Y-10084436D02*
X3977467Y-10065389D01*
X3977467Y-10065389D02*
X3967943Y-10027293D01*
X3967943Y-10027293D02*
X3967943Y-9979674D01*
X3967943Y-9979674D02*
X3977467Y-9941579D01*
X3977467Y-9941579D02*
X3986991Y-9922531D01*
X3986991Y-9922531D02*
X3996515Y-9913008D01*
X3996515Y-9913008D02*
X4015562Y-9903484D01*
X4206039Y-9903484D02*
X4225086Y-9903484D01*
X4225086Y-9903484D02*
X4244134Y-9913008D01*
X4244134Y-9913008D02*
X4253658Y-9922531D01*
X4253658Y-9922531D02*
X4263181Y-9941579D01*
X4263181Y-9941579D02*
X4272705Y-9979674D01*
X4272705Y-9979674D02*
X4272705Y-10027293D01*
X4272705Y-10027293D02*
X4263181Y-10065389D01*
X4263181Y-10065389D02*
X4253658Y-10084436D01*
X4253658Y-10084436D02*
X4244134Y-10093960D01*
X4244134Y-10093960D02*
X4225086Y-10103484D01*
X4225086Y-10103484D02*
X4206039Y-10103484D01*
X4206039Y-10103484D02*
X4186991Y-10093960D01*
X4186991Y-10093960D02*
X4177467Y-10084436D01*
X4177467Y-10084436D02*
X4167943Y-10065389D01*
X4167943Y-10065389D02*
X4158419Y-10027293D01*
X4158419Y-10027293D02*
X4158419Y-9979674D01*
X4158419Y-9979674D02*
X4167943Y-9941579D01*
X4167943Y-9941579D02*
X4177467Y-9922531D01*
X4177467Y-9922531D02*
X4186991Y-9913008D01*
X4186991Y-9913008D02*
X4206039Y-9903484D01*
X4358420Y-10103484D02*
X4358420Y-9970150D01*
X4358420Y-9989198D02*
X4367943Y-9979674D01*
X4367943Y-9979674D02*
X4386991Y-9970150D01*
X4386991Y-9970150D02*
X4415562Y-9970150D01*
X4415562Y-9970150D02*
X4434610Y-9979674D01*
X4434610Y-9979674D02*
X4444134Y-9998722D01*
X4444134Y-9998722D02*
X4444134Y-10103484D01*
X4444134Y-9998722D02*
X4453658Y-9979674D01*
X4453658Y-9979674D02*
X4472705Y-9970150D01*
X4472705Y-9970150D02*
X4501277Y-9970150D01*
X4501277Y-9970150D02*
X4520324Y-9979674D01*
X4520324Y-9979674D02*
X4529848Y-9998722D01*
X4529848Y-9998722D02*
X4529848Y-10103484D01*
X4625086Y-10103484D02*
X4625086Y-9970150D01*
X4625086Y-9989198D02*
X4634610Y-9979674D01*
X4634610Y-9979674D02*
X4653658Y-9970150D01*
X4653658Y-9970150D02*
X4682229Y-9970150D01*
X4682229Y-9970150D02*
X4701277Y-9979674D01*
X4701277Y-9979674D02*
X4710801Y-9998722D01*
X4710801Y-9998722D02*
X4710801Y-10103484D01*
X4710801Y-9998722D02*
X4720324Y-9979674D01*
X4720324Y-9979674D02*
X4739372Y-9970150D01*
X4739372Y-9970150D02*
X4767943Y-9970150D01*
X4767943Y-9970150D02*
X4786991Y-9979674D01*
X4786991Y-9979674D02*
X4796515Y-9998722D01*
X4796515Y-9998722D02*
X4796515Y-10103484D01*
X5186991Y-9893960D02*
X5015563Y-10151103D01*
X5444134Y-9903484D02*
X5463182Y-9903484D01*
X5463182Y-9903484D02*
X5482229Y-9913008D01*
X5482229Y-9913008D02*
X5491753Y-9922531D01*
X5491753Y-9922531D02*
X5501277Y-9941579D01*
X5501277Y-9941579D02*
X5510801Y-9979674D01*
X5510801Y-9979674D02*
X5510801Y-10027293D01*
X5510801Y-10027293D02*
X5501277Y-10065389D01*
X5501277Y-10065389D02*
X5491753Y-10084436D01*
X5491753Y-10084436D02*
X5482229Y-10093960D01*
X5482229Y-10093960D02*
X5463182Y-10103484D01*
X5463182Y-10103484D02*
X5444134Y-10103484D01*
X5444134Y-10103484D02*
X5425086Y-10093960D01*
X5425086Y-10093960D02*
X5415563Y-10084436D01*
X5415563Y-10084436D02*
X5406039Y-10065389D01*
X5406039Y-10065389D02*
X5396515Y-10027293D01*
X5396515Y-10027293D02*
X5396515Y-9979674D01*
X5396515Y-9979674D02*
X5406039Y-9941579D01*
X5406039Y-9941579D02*
X5415563Y-9922531D01*
X5415563Y-9922531D02*
X5425086Y-9913008D01*
X5425086Y-9913008D02*
X5444134Y-9903484D01*
X5596515Y-10084436D02*
X5606039Y-10093960D01*
X5606039Y-10093960D02*
X5596515Y-10103484D01*
X5596515Y-10103484D02*
X5586991Y-10093960D01*
X5586991Y-10093960D02*
X5596515Y-10084436D01*
X5596515Y-10084436D02*
X5596515Y-10103484D01*
X5729848Y-9903484D02*
X5748896Y-9903484D01*
X5748896Y-9903484D02*
X5767943Y-9913008D01*
X5767943Y-9913008D02*
X5777467Y-9922531D01*
X5777467Y-9922531D02*
X5786991Y-9941579D01*
X5786991Y-9941579D02*
X5796515Y-9979674D01*
X5796515Y-9979674D02*
X5796515Y-10027293D01*
X5796515Y-10027293D02*
X5786991Y-10065389D01*
X5786991Y-10065389D02*
X5777467Y-10084436D01*
X5777467Y-10084436D02*
X5767943Y-10093960D01*
X5767943Y-10093960D02*
X5748896Y-10103484D01*
X5748896Y-10103484D02*
X5729848Y-10103484D01*
X5729848Y-10103484D02*
X5710801Y-10093960D01*
X5710801Y-10093960D02*
X5701277Y-10084436D01*
X5701277Y-10084436D02*
X5691753Y-10065389D01*
X5691753Y-10065389D02*
X5682229Y-10027293D01*
X5682229Y-10027293D02*
X5682229Y-9979674D01*
X5682229Y-9979674D02*
X5691753Y-9941579D01*
X5691753Y-9941579D02*
X5701277Y-9922531D01*
X5701277Y-9922531D02*
X5710801Y-9913008D01*
X5710801Y-9913008D02*
X5729848Y-9903484D01*
X5910801Y-9989198D02*
X5891753Y-9979674D01*
X5891753Y-9979674D02*
X5882229Y-9970150D01*
X5882229Y-9970150D02*
X5872705Y-9951103D01*
X5872705Y-9951103D02*
X5872705Y-9941579D01*
X5872705Y-9941579D02*
X5882229Y-9922531D01*
X5882229Y-9922531D02*
X5891753Y-9913008D01*
X5891753Y-9913008D02*
X5910801Y-9903484D01*
X5910801Y-9903484D02*
X5948896Y-9903484D01*
X5948896Y-9903484D02*
X5967943Y-9913008D01*
X5967943Y-9913008D02*
X5977467Y-9922531D01*
X5977467Y-9922531D02*
X5986991Y-9941579D01*
X5986991Y-9941579D02*
X5986991Y-9951103D01*
X5986991Y-9951103D02*
X5977467Y-9970150D01*
X5977467Y-9970150D02*
X5967943Y-9979674D01*
X5967943Y-9979674D02*
X5948896Y-9989198D01*
X5948896Y-9989198D02*
X5910801Y-9989198D01*
X5910801Y-9989198D02*
X5891753Y-9998722D01*
X5891753Y-9998722D02*
X5882229Y-10008246D01*
X5882229Y-10008246D02*
X5872705Y-10027293D01*
X5872705Y-10027293D02*
X5872705Y-10065389D01*
X5872705Y-10065389D02*
X5882229Y-10084436D01*
X5882229Y-10084436D02*
X5891753Y-10093960D01*
X5891753Y-10093960D02*
X5910801Y-10103484D01*
X5910801Y-10103484D02*
X5948896Y-10103484D01*
X5948896Y-10103484D02*
X5967943Y-10093960D01*
X5967943Y-10093960D02*
X5977467Y-10084436D01*
X5977467Y-10084436D02*
X5986991Y-10065389D01*
X5986991Y-10065389D02*
X5986991Y-10027293D01*
X5986991Y-10027293D02*
X5977467Y-10008246D01*
X5977467Y-10008246D02*
X5967943Y-9998722D01*
X5967943Y-9998722D02*
X5948896Y-9989198D01*
X6158420Y-9903484D02*
X6120324Y-9903484D01*
X6120324Y-9903484D02*
X6101277Y-9913008D01*
X6101277Y-9913008D02*
X6091753Y-9922531D01*
X6091753Y-9922531D02*
X6072705Y-9951103D01*
X6072705Y-9951103D02*
X6063182Y-9989198D01*
X6063182Y-9989198D02*
X6063182Y-10065389D01*
X6063182Y-10065389D02*
X6072705Y-10084436D01*
X6072705Y-10084436D02*
X6082229Y-10093960D01*
X6082229Y-10093960D02*
X6101277Y-10103484D01*
X6101277Y-10103484D02*
X6139372Y-10103484D01*
X6139372Y-10103484D02*
X6158420Y-10093960D01*
X6158420Y-10093960D02*
X6167943Y-10084436D01*
X6167943Y-10084436D02*
X6177467Y-10065389D01*
X6177467Y-10065389D02*
X6177467Y-10017770D01*
X6177467Y-10017770D02*
X6167943Y-9998722D01*
X6167943Y-9998722D02*
X6158420Y-9989198D01*
X6158420Y-9989198D02*
X6139372Y-9979674D01*
X6139372Y-9979674D02*
X6101277Y-9979674D01*
X6101277Y-9979674D02*
X6082229Y-9989198D01*
X6082229Y-9989198D02*
X6072705Y-9998722D01*
X6072705Y-9998722D02*
X6063182Y-10017770D01*
X6348896Y-9903484D02*
X6310801Y-9903484D01*
X6310801Y-9903484D02*
X6291753Y-9913008D01*
X6291753Y-9913008D02*
X6282229Y-9922531D01*
X6282229Y-9922531D02*
X6263182Y-9951103D01*
X6263182Y-9951103D02*
X6253658Y-9989198D01*
X6253658Y-9989198D02*
X6253658Y-10065389D01*
X6253658Y-10065389D02*
X6263182Y-10084436D01*
X6263182Y-10084436D02*
X6272705Y-10093960D01*
X6272705Y-10093960D02*
X6291753Y-10103484D01*
X6291753Y-10103484D02*
X6329848Y-10103484D01*
X6329848Y-10103484D02*
X6348896Y-10093960D01*
X6348896Y-10093960D02*
X6358420Y-10084436D01*
X6358420Y-10084436D02*
X6367943Y-10065389D01*
X6367943Y-10065389D02*
X6367943Y-10017770D01*
X6367943Y-10017770D02*
X6358420Y-9998722D01*
X6358420Y-9998722D02*
X6348896Y-9989198D01*
X6348896Y-9989198D02*
X6329848Y-9979674D01*
X6329848Y-9979674D02*
X6291753Y-9979674D01*
X6291753Y-9979674D02*
X6272705Y-9989198D01*
X6272705Y-9989198D02*
X6263182Y-9998722D01*
X6263182Y-9998722D02*
X6253658Y-10017770D01*
X6444134Y-9903484D02*
X6444134Y-9941579D01*
X6520324Y-9903484D02*
X6520324Y-9941579D01*
X6815563Y-10179674D02*
X6806039Y-10170150D01*
X6806039Y-10170150D02*
X6786991Y-10141579D01*
X6786991Y-10141579D02*
X6777467Y-10122531D01*
X6777467Y-10122531D02*
X6767944Y-10093960D01*
X6767944Y-10093960D02*
X6758420Y-10046341D01*
X6758420Y-10046341D02*
X6758420Y-10008246D01*
X6758420Y-10008246D02*
X6767944Y-9960627D01*
X6767944Y-9960627D02*
X6777467Y-9932055D01*
X6777467Y-9932055D02*
X6786991Y-9913008D01*
X6786991Y-9913008D02*
X6806039Y-9884436D01*
X6806039Y-9884436D02*
X6815563Y-9874912D01*
X6977467Y-9970150D02*
X6977467Y-10103484D01*
X6929848Y-9893960D02*
X6882229Y-10036817D01*
X6882229Y-10036817D02*
X7006039Y-10036817D01*
X7234610Y-10103484D02*
X7234610Y-9903484D01*
X7320325Y-10103484D02*
X7320325Y-9998722D01*
X7320325Y-9998722D02*
X7310801Y-9979674D01*
X7310801Y-9979674D02*
X7291753Y-9970150D01*
X7291753Y-9970150D02*
X7263182Y-9970150D01*
X7263182Y-9970150D02*
X7244134Y-9979674D01*
X7244134Y-9979674D02*
X7234610Y-9989198D01*
X7444134Y-10103484D02*
X7425086Y-10093960D01*
X7425086Y-10093960D02*
X7415563Y-10084436D01*
X7415563Y-10084436D02*
X7406039Y-10065389D01*
X7406039Y-10065389D02*
X7406039Y-10008246D01*
X7406039Y-10008246D02*
X7415563Y-9989198D01*
X7415563Y-9989198D02*
X7425086Y-9979674D01*
X7425086Y-9979674D02*
X7444134Y-9970150D01*
X7444134Y-9970150D02*
X7472706Y-9970150D01*
X7472706Y-9970150D02*
X7491753Y-9979674D01*
X7491753Y-9979674D02*
X7501277Y-9989198D01*
X7501277Y-9989198D02*
X7510801Y-10008246D01*
X7510801Y-10008246D02*
X7510801Y-10065389D01*
X7510801Y-10065389D02*
X7501277Y-10084436D01*
X7501277Y-10084436D02*
X7491753Y-10093960D01*
X7491753Y-10093960D02*
X7472706Y-10103484D01*
X7472706Y-10103484D02*
X7444134Y-10103484D01*
X7625086Y-10103484D02*
X7606039Y-10093960D01*
X7606039Y-10093960D02*
X7596515Y-10074912D01*
X7596515Y-10074912D02*
X7596515Y-9903484D01*
X7777467Y-10093960D02*
X7758420Y-10103484D01*
X7758420Y-10103484D02*
X7720325Y-10103484D01*
X7720325Y-10103484D02*
X7701277Y-10093960D01*
X7701277Y-10093960D02*
X7691753Y-10074912D01*
X7691753Y-10074912D02*
X7691753Y-9998722D01*
X7691753Y-9998722D02*
X7701277Y-9979674D01*
X7701277Y-9979674D02*
X7720325Y-9970150D01*
X7720325Y-9970150D02*
X7758420Y-9970150D01*
X7758420Y-9970150D02*
X7777467Y-9979674D01*
X7777467Y-9979674D02*
X7786991Y-9998722D01*
X7786991Y-9998722D02*
X7786991Y-10017770D01*
X7786991Y-10017770D02*
X7691753Y-10036817D01*
X7863182Y-10093960D02*
X7882229Y-10103484D01*
X7882229Y-10103484D02*
X7920325Y-10103484D01*
X7920325Y-10103484D02*
X7939372Y-10093960D01*
X7939372Y-10093960D02*
X7948896Y-10074912D01*
X7948896Y-10074912D02*
X7948896Y-10065389D01*
X7948896Y-10065389D02*
X7939372Y-10046341D01*
X7939372Y-10046341D02*
X7920325Y-10036817D01*
X7920325Y-10036817D02*
X7891753Y-10036817D01*
X7891753Y-10036817D02*
X7872706Y-10027293D01*
X7872706Y-10027293D02*
X7863182Y-10008246D01*
X7863182Y-10008246D02*
X7863182Y-9998722D01*
X7863182Y-9998722D02*
X7872706Y-9979674D01*
X7872706Y-9979674D02*
X7891753Y-9970150D01*
X7891753Y-9970150D02*
X7920325Y-9970150D01*
X7920325Y-9970150D02*
X7939372Y-9979674D01*
X8015563Y-10179674D02*
X8025087Y-10170150D01*
X8025087Y-10170150D02*
X8044134Y-10141579D01*
X8044134Y-10141579D02*
X8053658Y-10122531D01*
X8053658Y-10122531D02*
X8063182Y-10093960D01*
X8063182Y-10093960D02*
X8072706Y-10046341D01*
X8072706Y-10046341D02*
X8072706Y-10008246D01*
X8072706Y-10008246D02*
X8063182Y-9960627D01*
X8063182Y-9960627D02*
X8053658Y-9932055D01*
X8053658Y-9932055D02*
X8044134Y-9913008D01*
X8044134Y-9913008D02*
X8025087Y-9884436D01*
X8025087Y-9884436D02*
X8015563Y-9874912D01*
M02*
