%TF.GenerationSoftware,KiCad,Pcbnew,8.0.2*%
%TF.CreationDate,2024-05-01T20:18:58+08:00*%
%TF.ProjectId,bldcDriver,626c6463-4472-4697-9665-722e6b696361,rev?*%
%TF.SameCoordinates,Original*%
%TF.FileFunction,Legend,Bot*%
%TF.FilePolarity,Positive*%
%FSLAX46Y46*%
G04 Gerber Fmt 4.6, Leading zero omitted, Abs format (unit mm)*
G04 Created by KiCad (PCBNEW 8.0.2) date 2024-05-01 20:18:58*
%MOMM*%
%LPD*%
G01*
G04 APERTURE LIST*
%ADD10C,0.120000*%
%ADD11C,0.254000*%
%ADD12C,0.152000*%
%ADD13C,0.150000*%
%ADD14C,0.300000*%
G04 APERTURE END LIST*
D10*
%TO.C,R20*%
X89977500Y-62357776D02*
X89977500Y-62867224D01*
X91022500Y-62357776D02*
X91022500Y-62867224D01*
%TO.C,C4*%
X46670000Y-33303748D02*
X46670000Y-34726252D01*
X48490000Y-33303748D02*
X48490000Y-34726252D01*
%TO.C,R23*%
X52475276Y-67667500D02*
X52984724Y-67667500D01*
X52475276Y-68712500D02*
X52984724Y-68712500D01*
D11*
%TO.C,J5*%
X32740000Y-39480000D02*
X32740000Y-45080000D01*
X35158000Y-38105000D02*
X37013000Y-38105000D01*
X35171000Y-46455000D02*
X37040000Y-46455000D01*
X37040000Y-38105000D02*
X37040000Y-39299000D01*
X37040000Y-40261000D02*
X37040000Y-40299000D01*
X37040000Y-41261000D02*
X37040000Y-41299000D01*
X37040000Y-42261000D02*
X37040000Y-42299000D01*
X37040000Y-43261000D02*
X37040000Y-43299000D01*
X37040000Y-44261000D02*
X37040000Y-44299000D01*
X37040000Y-46455000D02*
X37040000Y-45261000D01*
D10*
X37648000Y-45558000D02*
X37267000Y-45812000D01*
X37267000Y-45304000D01*
X37648000Y-45558000D01*
G36*
X37648000Y-45558000D02*
G01*
X37267000Y-45812000D01*
X37267000Y-45304000D01*
X37648000Y-45558000D01*
G37*
D12*
%TO.C,D2*%
X97574000Y-69776000D02*
X97574000Y-67024000D01*
X97767000Y-69776000D02*
X97574000Y-69776000D01*
X99233000Y-69776000D02*
X99426000Y-69776000D01*
X99376000Y-67483000D02*
X97624000Y-67483000D01*
X99426000Y-69776000D02*
X99426000Y-67024000D01*
D10*
X97818000Y-67100000D02*
X97498000Y-67100000D01*
X97498000Y-66795000D01*
X97818000Y-66795000D01*
X97818000Y-67100000D01*
G36*
X97818000Y-67100000D02*
G01*
X97498000Y-67100000D01*
X97498000Y-66795000D01*
X97818000Y-66795000D01*
X97818000Y-67100000D01*
G37*
X99502000Y-67100000D02*
X99182000Y-67100000D01*
X99182000Y-66795000D01*
X99502000Y-66795000D01*
X99502000Y-67100000D01*
G36*
X99502000Y-67100000D02*
G01*
X99182000Y-67100000D01*
X99182000Y-66795000D01*
X99502000Y-66795000D01*
X99502000Y-67100000D01*
G37*
%TO.C,R8*%
X42057224Y-68377500D02*
X41547776Y-68377500D01*
X42057224Y-69422500D02*
X41547776Y-69422500D01*
%TO.C,L1*%
X54000000Y-31685000D02*
X54000000Y-37685000D01*
X58200000Y-31685000D02*
X58200000Y-37685000D01*
D11*
%TO.C,Q11*%
X111817500Y-53779476D02*
X115117500Y-53779476D01*
X115117500Y-57079476D02*
X111817500Y-57079476D01*
X111367500Y-56429476D02*
G75*
G02*
X111167500Y-56429476I-100000J0D01*
G01*
X111167500Y-56429476D02*
G75*
G02*
X111367500Y-56429476I100000J0D01*
G01*
D10*
%TO.C,R17*%
X113097776Y-52548976D02*
X113607224Y-52548976D01*
X113097776Y-53593976D02*
X113607224Y-53593976D01*
%TO.C,C38*%
X74178733Y-56020000D02*
X74471267Y-56020000D01*
X74178733Y-57040000D02*
X74471267Y-57040000D01*
%TO.C,C41*%
X78891233Y-59690000D02*
X79183767Y-59690000D01*
X78891233Y-60710000D02*
X79183767Y-60710000D01*
D11*
%TO.C,Q9*%
X111565000Y-61150000D02*
X114865000Y-61150000D01*
X114865000Y-64450000D02*
X111565000Y-64450000D01*
X111115000Y-63800000D02*
G75*
G02*
X110915000Y-63800000I-100000J0D01*
G01*
X110915000Y-63800000D02*
G75*
G02*
X111115000Y-63800000I100000J0D01*
G01*
D10*
%TO.C,C29*%
X52990000Y-55646267D02*
X52990000Y-55353733D01*
X54010000Y-55646267D02*
X54010000Y-55353733D01*
D11*
%TO.C,Q8*%
X107667500Y-68671476D02*
X110967500Y-68671476D01*
X110967500Y-71971476D02*
X107667500Y-71971476D01*
X107217500Y-71321476D02*
G75*
G02*
X107017500Y-71321476I-100000J0D01*
G01*
X107017500Y-71321476D02*
G75*
G02*
X107217500Y-71321476I100000J0D01*
G01*
D10*
%TO.C,R3*%
X42775276Y-31682500D02*
X43284724Y-31682500D01*
X42775276Y-32727500D02*
X43284724Y-32727500D01*
%TO.C,R4*%
X41974724Y-60777500D02*
X41465276Y-60777500D01*
X41974724Y-61822500D02*
X41465276Y-61822500D01*
D11*
%TO.C,Q13*%
X39618500Y-64725000D02*
X42918500Y-64725000D01*
X42918500Y-68025000D02*
X39618500Y-68025000D01*
X43568500Y-65375000D02*
G75*
G02*
X43368500Y-65375000I-100000J0D01*
G01*
X43368500Y-65375000D02*
G75*
G02*
X43568500Y-65375000I100000J0D01*
G01*
D10*
%TO.C,R19*%
X46034724Y-53387500D02*
X45525276Y-53387500D01*
X46034724Y-54432500D02*
X45525276Y-54432500D01*
%TO.C,R2*%
X63522224Y-41702500D02*
X63012776Y-41702500D01*
X63522224Y-42747500D02*
X63012776Y-42747500D01*
%TO.C,D22*%
X43662500Y-62350000D02*
X43662500Y-64350000D01*
X47672500Y-62350000D02*
X43662500Y-62350000D01*
X47672500Y-64350000D02*
X43662500Y-64350000D01*
%TO.C,C68*%
X78990000Y-37796233D02*
X78990000Y-38088767D01*
X80010000Y-37796233D02*
X80010000Y-38088767D01*
%TO.C,C35*%
X50813733Y-54000000D02*
X51106267Y-54000000D01*
X50813733Y-55020000D02*
X51106267Y-55020000D01*
%TO.C,D19*%
X106950000Y-57471476D02*
X110960000Y-57471476D01*
X106950000Y-59471476D02*
X110960000Y-59471476D01*
X110960000Y-59471476D02*
X110960000Y-57471476D01*
%TO.C,C30*%
X49490000Y-59383767D02*
X49490000Y-59091233D01*
X50510000Y-59383767D02*
X50510000Y-59091233D01*
%TO.C,C48*%
X77215000Y-51581267D02*
X77215000Y-51288733D01*
X78235000Y-51581267D02*
X78235000Y-51288733D01*
D11*
%TO.C,CN2*%
X117171500Y-58123500D02*
X117171500Y-59222500D01*
X117171500Y-63283500D02*
X117171500Y-62184500D01*
X119090500Y-58123500D02*
X117171500Y-58123500D01*
X119090500Y-63283500D02*
X117171500Y-63283500D01*
X121870500Y-61977500D02*
X121870500Y-59429500D01*
D10*
X116536500Y-59139500D02*
X116282500Y-58758500D01*
X116790500Y-58758500D01*
X116536500Y-59139500D01*
G36*
X116536500Y-59139500D02*
G01*
X116282500Y-58758500D01*
X116790500Y-58758500D01*
X116536500Y-59139500D01*
G37*
%TO.C,R30*%
X88477500Y-66242224D02*
X88477500Y-65732776D01*
X89522500Y-66242224D02*
X89522500Y-65732776D01*
%TO.C,R37*%
X74882776Y-59677500D02*
X75392224Y-59677500D01*
X74882776Y-60722500D02*
X75392224Y-60722500D01*
D11*
%TO.C,Q14*%
X43885000Y-57240000D02*
X47185000Y-57240000D01*
X47185000Y-60540000D02*
X43885000Y-60540000D01*
X47835000Y-57890000D02*
G75*
G02*
X47635000Y-57890000I-100000J0D01*
G01*
X47635000Y-57890000D02*
G75*
G02*
X47835000Y-57890000I100000J0D01*
G01*
D10*
%TO.C,C42*%
X64853733Y-59090000D02*
X65146267Y-59090000D01*
X64853733Y-60110000D02*
X65146267Y-60110000D01*
%TO.C,U6*%
X82550000Y-61105000D02*
X84500000Y-61105000D01*
X82550000Y-66225000D02*
X84500000Y-66225000D01*
X86450000Y-61105000D02*
X84500000Y-61105000D01*
X86450000Y-66225000D02*
X84500000Y-66225000D01*
X87200000Y-61200000D02*
X86960000Y-60870000D01*
X87440000Y-60870000D01*
X87200000Y-61200000D01*
G36*
X87200000Y-61200000D02*
G01*
X86960000Y-60870000D01*
X87440000Y-60870000D01*
X87200000Y-61200000D01*
G37*
%TO.C,R45*%
X79477500Y-67654724D02*
X79477500Y-67145276D01*
X80522500Y-67654724D02*
X80522500Y-67145276D01*
%TO.C,C33*%
X118388748Y-64590000D02*
X119811252Y-64590000D01*
X118388748Y-66410000D02*
X119811252Y-66410000D01*
D11*
%TO.C,Q15*%
X40055000Y-49750714D02*
X43355000Y-49750714D01*
X43355000Y-53050714D02*
X40055000Y-53050714D01*
X44005000Y-50400714D02*
G75*
G02*
X43805000Y-50400714I-100000J0D01*
G01*
X43805000Y-50400714D02*
G75*
G02*
X44005000Y-50400714I100000J0D01*
G01*
%TO.C,Q1*%
X43767500Y-64725000D02*
X47067500Y-64725000D01*
X47067500Y-68025000D02*
X43767500Y-68025000D01*
X47717500Y-65375000D02*
G75*
G02*
X47517500Y-65375000I-100000J0D01*
G01*
X47517500Y-65375000D02*
G75*
G02*
X47717500Y-65375000I100000J0D01*
G01*
D10*
%TO.C,C27*%
X71883767Y-59690000D02*
X71591233Y-59690000D01*
X71883767Y-60710000D02*
X71591233Y-60710000D01*
%TO.C,U7*%
X68462500Y-61145000D02*
X70412500Y-61145000D01*
X68462500Y-66265000D02*
X70412500Y-66265000D01*
X72362500Y-61145000D02*
X70412500Y-61145000D01*
X72362500Y-66265000D02*
X70412500Y-66265000D01*
X73112500Y-61240000D02*
X72872500Y-60910000D01*
X73352500Y-60910000D01*
X73112500Y-61240000D01*
G36*
X73112500Y-61240000D02*
G01*
X72872500Y-60910000D01*
X73352500Y-60910000D01*
X73112500Y-61240000D01*
G37*
%TO.C,C51*%
X36511252Y-63490000D02*
X35088748Y-63490000D01*
X36511252Y-65310000D02*
X35088748Y-65310000D01*
%TO.C,R21*%
X75877500Y-62445276D02*
X75877500Y-62954724D01*
X76922500Y-62445276D02*
X76922500Y-62954724D01*
%TO.C,R22*%
X49584724Y-67667500D02*
X49075276Y-67667500D01*
X49584724Y-68712500D02*
X49075276Y-68712500D01*
%TO.C,C23*%
X92590000Y-34353733D02*
X92590000Y-34646267D01*
X93610000Y-34353733D02*
X93610000Y-34646267D01*
%TO.C,R11*%
X105448564Y-69990000D02*
X103994436Y-69990000D01*
X105448564Y-71810000D02*
X103994436Y-71810000D01*
%TO.C,R44*%
X82754724Y-66677500D02*
X82245276Y-66677500D01*
X82754724Y-67722500D02*
X82245276Y-67722500D01*
%TO.C,C10*%
X80215000Y-54826267D02*
X80215000Y-54533733D01*
X81235000Y-54826267D02*
X81235000Y-54533733D01*
%TO.C,R50*%
X78845276Y-61177500D02*
X79354724Y-61177500D01*
X78845276Y-62222500D02*
X79354724Y-62222500D01*
%TO.C,R29*%
X102647224Y-53328976D02*
X102137776Y-53328976D01*
X102647224Y-54373976D02*
X102137776Y-54373976D01*
%TO.C,R41*%
X68202500Y-57162776D02*
X68202500Y-57672224D01*
X69247500Y-57162776D02*
X69247500Y-57672224D01*
%TO.C,C12*%
X118626248Y-51890000D02*
X120048752Y-51890000D01*
X118626248Y-53710000D02*
X120048752Y-53710000D01*
%TO.C,C8*%
X45070000Y-32988733D02*
X45070000Y-33281267D01*
X46090000Y-32988733D02*
X46090000Y-33281267D01*
%TO.C,R24*%
X49614724Y-52487500D02*
X49105276Y-52487500D01*
X49614724Y-53532500D02*
X49105276Y-53532500D01*
%TO.C,C14*%
X118688748Y-55090000D02*
X120111252Y-55090000D01*
X118688748Y-56910000D02*
X120111252Y-56910000D01*
%TO.C,R7*%
X46144724Y-68377500D02*
X45635276Y-68377500D01*
X46144724Y-69422500D02*
X45635276Y-69422500D01*
%TO.C,R5*%
X45934724Y-60767500D02*
X45425276Y-60767500D01*
X45934724Y-61812500D02*
X45425276Y-61812500D01*
%TO.C,C16*%
X104382500Y-64524209D02*
X104382500Y-64816743D01*
X105402500Y-64524209D02*
X105402500Y-64816743D01*
D11*
%TO.C,Q7*%
X111796500Y-68656476D02*
X115096500Y-68656476D01*
X115096500Y-71956476D02*
X111796500Y-71956476D01*
X111346500Y-71306476D02*
G75*
G02*
X111146500Y-71306476I-100000J0D01*
G01*
X111146500Y-71306476D02*
G75*
G02*
X111346500Y-71306476I100000J0D01*
G01*
D10*
%TO.C,C19*%
X71053733Y-38440000D02*
X71346267Y-38440000D01*
X71053733Y-39460000D02*
X71346267Y-39460000D01*
%TO.C,C34*%
X37111252Y-49390000D02*
X35688748Y-49390000D01*
X37111252Y-51210000D02*
X35688748Y-51210000D01*
%TO.C,FB2*%
X64116267Y-31460000D02*
X63823733Y-31460000D01*
X64116267Y-32480000D02*
X63823733Y-32480000D01*
D11*
%TO.C,Q12*%
X107727500Y-53806476D02*
X111027500Y-53806476D01*
X111027500Y-57106476D02*
X107727500Y-57106476D01*
X107277500Y-56456476D02*
G75*
G02*
X107077500Y-56456476I-100000J0D01*
G01*
X107077500Y-56456476D02*
G75*
G02*
X107277500Y-56456476I100000J0D01*
G01*
D10*
%TO.C,U8*%
X71250000Y-50435000D02*
X73200000Y-50435000D01*
X71250000Y-55555000D02*
X73200000Y-55555000D01*
X75150000Y-50435000D02*
X73200000Y-50435000D01*
X75150000Y-55555000D02*
X73200000Y-55555000D01*
X75900000Y-50530000D02*
X75660000Y-50200000D01*
X76140000Y-50200000D01*
X75900000Y-50530000D01*
G36*
X75900000Y-50530000D02*
G01*
X75660000Y-50200000D01*
X76140000Y-50200000D01*
X75900000Y-50530000D01*
G37*
%TO.C,R38*%
X78702500Y-55102224D02*
X78702500Y-54592776D01*
X79747500Y-55102224D02*
X79747500Y-54592776D01*
%TO.C,R18*%
X108885276Y-52468976D02*
X109394724Y-52468976D01*
X108885276Y-53513976D02*
X109394724Y-53513976D01*
%TO.C,C26*%
X100690000Y-56946267D02*
X100690000Y-56653733D01*
X101710000Y-56946267D02*
X101710000Y-56653733D01*
%TO.C,R1*%
X62995276Y-40112500D02*
X63504724Y-40112500D01*
X62995276Y-41157500D02*
X63504724Y-41157500D01*
D13*
%TO.C,U3*%
X55515000Y-38325000D02*
X59665000Y-38325000D01*
X55515000Y-43475000D02*
X59665000Y-43475000D01*
D10*
X60090000Y-38400000D02*
X59850000Y-38070000D01*
X60330000Y-38070000D01*
X60090000Y-38400000D01*
G36*
X60090000Y-38400000D02*
G01*
X59850000Y-38070000D01*
X60330000Y-38070000D01*
X60090000Y-38400000D01*
G37*
%TO.C,U4*%
X90600000Y-37625000D02*
X90600000Y-37100000D01*
X90600000Y-41160000D02*
X90600000Y-40935000D01*
X90900000Y-41400000D02*
X91125000Y-41400000D01*
X91125000Y-37100000D02*
X90600000Y-37100000D01*
X94375000Y-37100000D02*
X94900000Y-37100000D01*
X94375000Y-41400000D02*
X94900000Y-41400000D01*
X94900000Y-37625000D02*
X94900000Y-37100000D01*
X94900000Y-40875000D02*
X94900000Y-41400000D01*
X90840000Y-41730000D02*
X90360000Y-41730000D01*
X90600000Y-41400000D01*
X90840000Y-41730000D01*
G36*
X90840000Y-41730000D02*
G01*
X90360000Y-41730000D01*
X90600000Y-41400000D01*
X90840000Y-41730000D01*
G37*
%TO.C,C46*%
X68191233Y-59690000D02*
X68483767Y-59690000D01*
X68191233Y-60710000D02*
X68483767Y-60710000D01*
%TO.C,C21*%
X73853733Y-48390000D02*
X74146267Y-48390000D01*
X73853733Y-49410000D02*
X74146267Y-49410000D01*
%TO.C,R26*%
X105345276Y-68477500D02*
X105854724Y-68477500D01*
X105345276Y-69522500D02*
X105854724Y-69522500D01*
%TO.C,R48*%
X79477500Y-63845276D02*
X79477500Y-64354724D01*
X80522500Y-63845276D02*
X80522500Y-64354724D01*
%TO.C,C45*%
X82291233Y-59690000D02*
X82583767Y-59690000D01*
X82291233Y-60710000D02*
X82583767Y-60710000D01*
%TO.C,R31*%
X89977500Y-66242224D02*
X89977500Y-65732776D01*
X91022500Y-66242224D02*
X91022500Y-65732776D01*
%TO.C,R14*%
X108806776Y-67448976D02*
X109316224Y-67448976D01*
X108806776Y-68493976D02*
X109316224Y-68493976D01*
%TO.C,C49*%
X37111252Y-51890000D02*
X35688748Y-51890000D01*
X37111252Y-53710000D02*
X35688748Y-53710000D01*
%TO.C,C47*%
X68190000Y-53848733D02*
X68190000Y-54141267D01*
X69210000Y-53848733D02*
X69210000Y-54141267D01*
D12*
%TO.C,D7*%
X55074000Y-53224000D02*
X55074000Y-55976000D01*
X55124000Y-55517000D02*
X56876000Y-55517000D01*
X55267000Y-53224000D02*
X55074000Y-53224000D01*
X56733000Y-53224000D02*
X56926000Y-53224000D01*
X56926000Y-53224000D02*
X56926000Y-55976000D01*
D10*
X55318000Y-56205000D02*
X54998000Y-56205000D01*
X54998000Y-55900000D01*
X55318000Y-55900000D01*
X55318000Y-56205000D01*
G36*
X55318000Y-56205000D02*
G01*
X54998000Y-56205000D01*
X54998000Y-55900000D01*
X55318000Y-55900000D01*
X55318000Y-56205000D01*
G37*
X57002000Y-56205000D02*
X56682000Y-56205000D01*
X56682000Y-55900000D01*
X57002000Y-55900000D01*
X57002000Y-56205000D01*
G36*
X57002000Y-56205000D02*
G01*
X56682000Y-56205000D01*
X56682000Y-55900000D01*
X57002000Y-55900000D01*
X57002000Y-56205000D01*
G37*
%TO.C,R39*%
X77202500Y-54580276D02*
X77202500Y-55089724D01*
X78247500Y-54580276D02*
X78247500Y-55089724D01*
%TO.C,C44*%
X78715000Y-51581267D02*
X78715000Y-51288733D01*
X79735000Y-51581267D02*
X79735000Y-51288733D01*
%TO.C,C5*%
X50365000Y-40953748D02*
X50365000Y-41476252D01*
X51835000Y-40953748D02*
X51835000Y-41476252D01*
%TO.C,U5*%
X73590000Y-40590000D02*
X73590000Y-40765000D01*
X73590000Y-47510000D02*
X73590000Y-47035000D01*
X73830000Y-40290000D02*
X74065000Y-40290000D01*
X74065000Y-47510000D02*
X73590000Y-47510000D01*
X80335000Y-40290000D02*
X80810000Y-40290000D01*
X80335000Y-47510000D02*
X80810000Y-47510000D01*
X80810000Y-40290000D02*
X80810000Y-40765000D01*
X80810000Y-47510000D02*
X80810000Y-47035000D01*
X73590000Y-40290000D02*
X73260000Y-40530000D01*
X73260000Y-40050000D01*
X73590000Y-40290000D01*
G36*
X73590000Y-40290000D02*
G01*
X73260000Y-40530000D01*
X73260000Y-40050000D01*
X73590000Y-40290000D01*
G37*
%TO.C,C18*%
X83646267Y-45790000D02*
X83353733Y-45790000D01*
X83646267Y-46810000D02*
X83353733Y-46810000D01*
D12*
%TO.C,D3*%
X95974000Y-54824000D02*
X95974000Y-57576000D01*
X96024000Y-57117000D02*
X97776000Y-57117000D01*
X96167000Y-54824000D02*
X95974000Y-54824000D01*
X97633000Y-54824000D02*
X97826000Y-54824000D01*
X97826000Y-54824000D02*
X97826000Y-57576000D01*
D10*
X96218000Y-57805000D02*
X95898000Y-57805000D01*
X95898000Y-57500000D01*
X96218000Y-57500000D01*
X96218000Y-57805000D01*
G36*
X96218000Y-57805000D02*
G01*
X95898000Y-57805000D01*
X95898000Y-57500000D01*
X96218000Y-57500000D01*
X96218000Y-57805000D01*
G37*
X97902000Y-57805000D02*
X97582000Y-57805000D01*
X97582000Y-57500000D01*
X97902000Y-57500000D01*
X97902000Y-57805000D01*
G36*
X97902000Y-57805000D02*
G01*
X97582000Y-57805000D01*
X97582000Y-57500000D01*
X97902000Y-57500000D01*
X97902000Y-57805000D01*
G37*
%TO.C,R9*%
X49402936Y-65270000D02*
X50857064Y-65270000D01*
X49402936Y-67090000D02*
X50857064Y-67090000D01*
%TO.C,D20*%
X112270000Y-50051476D02*
X116280000Y-50051476D01*
X112270000Y-52051476D02*
X116280000Y-52051476D01*
X116280000Y-52051476D02*
X116280000Y-50051476D01*
%TO.C,R51*%
X65377500Y-63245276D02*
X65377500Y-63754724D01*
X66422500Y-63245276D02*
X66422500Y-63754724D01*
D11*
%TO.C,Q16*%
X44164000Y-49760000D02*
X47464000Y-49760000D01*
X47464000Y-53060000D02*
X44164000Y-53060000D01*
X48114000Y-50410000D02*
G75*
G02*
X47914000Y-50410000I-100000J0D01*
G01*
X47914000Y-50410000D02*
G75*
G02*
X48114000Y-50410000I100000J0D01*
G01*
D10*
%TO.C,C24*%
X93390000Y-43746267D02*
X93390000Y-43453733D01*
X94410000Y-43746267D02*
X94410000Y-43453733D01*
%TO.C,C22*%
X91090000Y-34353733D02*
X91090000Y-34646267D01*
X92110000Y-34353733D02*
X92110000Y-34646267D01*
%TO.C,R32*%
X76042224Y-66177500D02*
X75532776Y-66177500D01*
X76042224Y-67222500D02*
X75532776Y-67222500D01*
%TO.C,R33*%
X76042224Y-64677500D02*
X75532776Y-64677500D01*
X76042224Y-65722500D02*
X75532776Y-65722500D01*
%TO.C,C67*%
X73190000Y-38136267D02*
X73190000Y-37843733D01*
X74210000Y-38136267D02*
X74210000Y-37843733D01*
D12*
%TO.C,D8*%
X58696000Y-32160000D02*
X58696000Y-36829000D01*
X58696000Y-35410000D02*
X61424000Y-35410000D01*
X59047000Y-32166000D02*
X58696000Y-32166000D01*
X60979000Y-32166000D02*
X61330000Y-32166000D01*
X61406000Y-32166000D02*
X61424000Y-36851000D01*
D10*
X59098000Y-36927000D02*
X58620000Y-36927000D01*
X58620000Y-36470000D01*
X59098000Y-36470000D01*
X59098000Y-36927000D01*
G36*
X59098000Y-36927000D02*
G01*
X58620000Y-36927000D01*
X58620000Y-36470000D01*
X59098000Y-36470000D01*
X59098000Y-36927000D01*
G37*
X61500000Y-36940000D02*
X61022000Y-36940000D01*
X61022000Y-36483000D01*
X61500000Y-36483000D01*
X61500000Y-36940000D01*
G36*
X61500000Y-36940000D02*
G01*
X61022000Y-36940000D01*
X61022000Y-36483000D01*
X61500000Y-36483000D01*
X61500000Y-36940000D01*
G37*
%TO.C,D17*%
X107259000Y-65071476D02*
X111269000Y-65071476D01*
X107259000Y-67071476D02*
X111269000Y-67071476D01*
X111269000Y-67071476D02*
X111269000Y-65071476D01*
D12*
%TO.C,U1*%
X98029000Y-59145500D02*
X101571000Y-59145500D01*
X98029000Y-65797500D02*
X98029000Y-59145500D01*
X101571000Y-59145500D02*
X101571000Y-65797500D01*
X101571000Y-65797500D02*
X98029000Y-65797500D01*
D14*
X97079000Y-66030500D02*
G75*
G02*
X96779000Y-66030500I-150000J0D01*
G01*
X96779000Y-66030500D02*
G75*
G02*
X97079000Y-66030500I150000J0D01*
G01*
X98931000Y-65396500D02*
G75*
G02*
X98631000Y-65396500I-150000J0D01*
G01*
X98631000Y-65396500D02*
G75*
G02*
X98931000Y-65396500I150000J0D01*
G01*
D10*
%TO.C,C11*%
X85983767Y-59690000D02*
X85691233Y-59690000D01*
X85983767Y-60710000D02*
X85691233Y-60710000D01*
D12*
%TO.C,D10*%
X57174000Y-68676000D02*
X57174000Y-65924000D01*
X57367000Y-68676000D02*
X57174000Y-68676000D01*
X58833000Y-68676000D02*
X59026000Y-68676000D01*
X58976000Y-66383000D02*
X57224000Y-66383000D01*
X59026000Y-68676000D02*
X59026000Y-65924000D01*
D10*
X57418000Y-66000000D02*
X57098000Y-66000000D01*
X57098000Y-65695000D01*
X57418000Y-65695000D01*
X57418000Y-66000000D01*
G36*
X57418000Y-66000000D02*
G01*
X57098000Y-66000000D01*
X57098000Y-65695000D01*
X57418000Y-65695000D01*
X57418000Y-66000000D01*
G37*
X59102000Y-66000000D02*
X58782000Y-66000000D01*
X58782000Y-65695000D01*
X59102000Y-65695000D01*
X59102000Y-66000000D01*
G36*
X59102000Y-66000000D02*
G01*
X58782000Y-66000000D01*
X58782000Y-65695000D01*
X59102000Y-65695000D01*
X59102000Y-66000000D01*
G37*
%TO.C,R6*%
X42004724Y-53367500D02*
X41495276Y-53367500D01*
X42004724Y-54412500D02*
X41495276Y-54412500D01*
%TO.C,R47*%
X68654724Y-66677500D02*
X68145276Y-66677500D01*
X68654724Y-67722500D02*
X68145276Y-67722500D01*
%TO.C,R10*%
X49642936Y-50230000D02*
X51097064Y-50230000D01*
X49642936Y-52050000D02*
X51097064Y-52050000D01*
%TO.C,C20*%
X83646267Y-44190000D02*
X83353733Y-44190000D01*
X83646267Y-45210000D02*
X83353733Y-45210000D01*
%TO.C,C9*%
X81715000Y-54881267D02*
X81715000Y-54588733D01*
X82735000Y-54881267D02*
X82735000Y-54588733D01*
%TO.C,C15*%
X94290000Y-59791233D02*
X94290000Y-60083767D01*
X95310000Y-59791233D02*
X95310000Y-60083767D01*
%TO.C,D16*%
X112061500Y-65071476D02*
X116071500Y-65071476D01*
X112061500Y-67071476D02*
X116071500Y-67071476D01*
X116071500Y-67071476D02*
X116071500Y-65071476D01*
%TO.C,C1*%
X61860000Y-37868733D02*
X61860000Y-38161267D01*
X62880000Y-37868733D02*
X62880000Y-38161267D01*
%TO.C,Y1*%
X74600000Y-36312500D02*
X74600000Y-39512500D01*
X78600000Y-36312500D02*
X74600000Y-36312500D01*
%TO.C,R46*%
X65377500Y-67054724D02*
X65377500Y-66545276D01*
X66422500Y-67054724D02*
X66422500Y-66545276D01*
D12*
%TO.C,D4*%
X98174000Y-54824000D02*
X98174000Y-57576000D01*
X98224000Y-57117000D02*
X99976000Y-57117000D01*
X98367000Y-54824000D02*
X98174000Y-54824000D01*
X99833000Y-54824000D02*
X100026000Y-54824000D01*
X100026000Y-54824000D02*
X100026000Y-57576000D01*
D10*
X98418000Y-57805000D02*
X98098000Y-57805000D01*
X98098000Y-57500000D01*
X98418000Y-57500000D01*
X98418000Y-57805000D01*
G36*
X98418000Y-57805000D02*
G01*
X98098000Y-57805000D01*
X98098000Y-57500000D01*
X98418000Y-57500000D01*
X98418000Y-57805000D01*
G37*
X100102000Y-57805000D02*
X99782000Y-57805000D01*
X99782000Y-57500000D01*
X100102000Y-57500000D01*
X100102000Y-57805000D01*
G36*
X100102000Y-57805000D02*
G01*
X99782000Y-57805000D01*
X99782000Y-57500000D01*
X100102000Y-57500000D01*
X100102000Y-57805000D01*
G37*
%TO.C,C36*%
X104146267Y-66990000D02*
X103853733Y-66990000D01*
X104146267Y-68010000D02*
X103853733Y-68010000D01*
%TO.C,C2*%
X51570000Y-33323748D02*
X51570000Y-34746252D01*
X53390000Y-33323748D02*
X53390000Y-34746252D01*
%TO.C,D9*%
X38750000Y-62320000D02*
X38750000Y-64320000D01*
X42760000Y-62320000D02*
X38750000Y-62320000D01*
X42760000Y-64320000D02*
X38750000Y-64320000D01*
%TO.C,R12*%
X105489564Y-54911476D02*
X104035436Y-54911476D01*
X105489564Y-56731476D02*
X104035436Y-56731476D01*
D12*
%TO.C,U2*%
X53429000Y-57602500D02*
X56971000Y-57602500D01*
X53429000Y-64254500D02*
X53429000Y-57602500D01*
X56971000Y-57602500D02*
X56971000Y-64254500D01*
X56971000Y-64254500D02*
X53429000Y-64254500D01*
D14*
X56369000Y-58003500D02*
G75*
G02*
X56069000Y-58003500I-150000J0D01*
G01*
X56069000Y-58003500D02*
G75*
G02*
X56369000Y-58003500I150000J0D01*
G01*
X58221000Y-57369500D02*
G75*
G02*
X57921000Y-57369500I-150000J0D01*
G01*
X57921000Y-57369500D02*
G75*
G02*
X58221000Y-57369500I150000J0D01*
G01*
D10*
%TO.C,R49*%
X94067500Y-34245276D02*
X94067500Y-34754724D01*
X95112500Y-34245276D02*
X95112500Y-34754724D01*
%TO.C,C13*%
X95690000Y-37003733D02*
X95690000Y-37296267D01*
X96710000Y-37003733D02*
X96710000Y-37296267D01*
%TO.C,C39*%
X71315000Y-57576267D02*
X71315000Y-57283733D01*
X72335000Y-57576267D02*
X72335000Y-57283733D01*
%TO.C,R42*%
X77977500Y-63845276D02*
X77977500Y-64354724D01*
X79022500Y-63845276D02*
X79022500Y-64354724D01*
%TO.C,D1*%
X42272414Y-34532500D02*
X44732414Y-34532500D01*
X44732414Y-33062500D02*
X42272414Y-33062500D01*
X44732414Y-34532500D02*
X44732414Y-33062500D01*
%TO.C,C32*%
X59690000Y-63683767D02*
X59690000Y-63391233D01*
X60710000Y-63683767D02*
X60710000Y-63391233D01*
%TO.C,R34*%
X88477500Y-62345276D02*
X88477500Y-62854724D01*
X89522500Y-62345276D02*
X89522500Y-62854724D01*
D12*
%TO.C,D11*%
X54774000Y-68676000D02*
X54774000Y-65924000D01*
X54967000Y-68676000D02*
X54774000Y-68676000D01*
X56433000Y-68676000D02*
X56626000Y-68676000D01*
X56576000Y-66383000D02*
X54824000Y-66383000D01*
X56626000Y-68676000D02*
X56626000Y-65924000D01*
D10*
X55018000Y-66000000D02*
X54698000Y-66000000D01*
X54698000Y-65695000D01*
X55018000Y-65695000D01*
X55018000Y-66000000D01*
G36*
X55018000Y-66000000D02*
G01*
X54698000Y-66000000D01*
X54698000Y-65695000D01*
X55018000Y-65695000D01*
X55018000Y-66000000D01*
G37*
X56702000Y-66000000D02*
X56382000Y-66000000D01*
X56382000Y-65695000D01*
X56702000Y-65695000D01*
X56702000Y-66000000D01*
G36*
X56702000Y-66000000D02*
G01*
X56382000Y-66000000D01*
X56382000Y-65695000D01*
X56702000Y-65695000D01*
X56702000Y-66000000D01*
G37*
D11*
%TO.C,J3*%
X117380000Y-38775000D02*
X117380000Y-39969000D01*
X117380000Y-40969000D02*
X117380000Y-40931000D01*
X117380000Y-41969000D02*
X117380000Y-41931000D01*
X117380000Y-42969000D02*
X117380000Y-42931000D01*
X117380000Y-43969000D02*
X117380000Y-43931000D01*
X117380000Y-44969000D02*
X117380000Y-44931000D01*
X117380000Y-47125000D02*
X117380000Y-45931000D01*
X119249000Y-38775000D02*
X117380000Y-38775000D01*
X119262000Y-47125000D02*
X117407000Y-47125000D01*
X121680000Y-45750000D02*
X121680000Y-40150000D01*
D10*
X117153000Y-39926000D02*
X116772000Y-39672000D01*
X117153000Y-39418000D01*
X117153000Y-39926000D01*
G36*
X117153000Y-39926000D02*
G01*
X116772000Y-39672000D01*
X117153000Y-39418000D01*
X117153000Y-39926000D01*
G37*
%TO.C,C17*%
X71171233Y-39970000D02*
X71463767Y-39970000D01*
X71171233Y-40990000D02*
X71463767Y-40990000D01*
%TO.C,D18*%
X111817500Y-57400000D02*
X115827500Y-57400000D01*
X111817500Y-59400000D02*
X115827500Y-59400000D01*
X115827500Y-59400000D02*
X115827500Y-57400000D01*
%TO.C,D23*%
X38792500Y-54940000D02*
X38792500Y-56940000D01*
X42802500Y-54940000D02*
X38792500Y-54940000D01*
X42802500Y-56940000D02*
X38792500Y-56940000D01*
%TO.C,C43*%
X66715000Y-53783733D02*
X66715000Y-54076267D01*
X67735000Y-53783733D02*
X67735000Y-54076267D01*
%TO.C,R16*%
X108525276Y-59888976D02*
X109034724Y-59888976D01*
X108525276Y-60933976D02*
X109034724Y-60933976D01*
%TO.C,D24*%
X43640000Y-54950000D02*
X43640000Y-56950000D01*
X47650000Y-54950000D02*
X43640000Y-54950000D01*
X47650000Y-56950000D02*
X43640000Y-56950000D01*
%TO.C,R52*%
X64782776Y-60477500D02*
X65292224Y-60477500D01*
X64782776Y-61522500D02*
X65292224Y-61522500D01*
%TO.C,C3*%
X49110000Y-33323748D02*
X49110000Y-34746252D01*
X50930000Y-33323748D02*
X50930000Y-34746252D01*
D11*
%TO.C,Q10*%
X107435000Y-61216476D02*
X110735000Y-61216476D01*
X110735000Y-64516476D02*
X107435000Y-64516476D01*
X106985000Y-63866476D02*
G75*
G02*
X106785000Y-63866476I-100000J0D01*
G01*
X106785000Y-63866476D02*
G75*
G02*
X106985000Y-63866476I100000J0D01*
G01*
D10*
%TO.C,R25*%
X52425276Y-52487500D02*
X52934724Y-52487500D01*
X52425276Y-53532500D02*
X52934724Y-53532500D01*
D11*
%TO.C,CN1*%
X32519500Y-57592500D02*
X32519500Y-60140500D01*
X35299500Y-56286500D02*
X37218500Y-56286500D01*
X35299500Y-61446500D02*
X37218500Y-61446500D01*
X37218500Y-56286500D02*
X37218500Y-57385500D01*
X37218500Y-61446500D02*
X37218500Y-60347500D01*
D10*
X38107500Y-60811500D02*
X37599500Y-60811500D01*
X37853500Y-60430500D01*
X38107500Y-60811500D01*
G36*
X38107500Y-60811500D02*
G01*
X37599500Y-60811500D01*
X37853500Y-60430500D01*
X38107500Y-60811500D01*
G37*
%TO.C,R73*%
X91877500Y-43332776D02*
X91877500Y-43842224D01*
X92922500Y-43332776D02*
X92922500Y-43842224D01*
%TO.C,D21*%
X107440000Y-50081476D02*
X111450000Y-50081476D01*
X107440000Y-52081476D02*
X111450000Y-52081476D01*
X111450000Y-52081476D02*
X111450000Y-50081476D01*
%TO.C,R27*%
X102554724Y-68477500D02*
X102045276Y-68477500D01*
X102554724Y-69522500D02*
X102045276Y-69522500D01*
%TO.C,C28*%
X50873733Y-69210000D02*
X51166267Y-69210000D01*
X50873733Y-70230000D02*
X51166267Y-70230000D01*
%TO.C,D5*%
X39442500Y-69900000D02*
X39442500Y-71900000D01*
X43452500Y-69900000D02*
X39442500Y-69900000D01*
X43452500Y-71900000D02*
X39442500Y-71900000D01*
%TO.C,C25*%
X104390000Y-60953733D02*
X104390000Y-61246267D01*
X105410000Y-60953733D02*
X105410000Y-61246267D01*
%TO.C,C7*%
X52430000Y-41048733D02*
X52430000Y-41341267D01*
X53450000Y-41048733D02*
X53450000Y-41341267D01*
%TO.C,R35*%
X88882776Y-59677500D02*
X89392224Y-59677500D01*
X88882776Y-60722500D02*
X89392224Y-60722500D01*
%TO.C,C37*%
X104238767Y-51831476D02*
X103946233Y-51831476D01*
X104238767Y-52851476D02*
X103946233Y-52851476D01*
%TO.C,R43*%
X63777500Y-63245276D02*
X63777500Y-63754724D01*
X64822500Y-63245276D02*
X64822500Y-63754724D01*
%TO.C,R40*%
X69702500Y-57672224D02*
X69702500Y-57162776D01*
X70747500Y-57672224D02*
X70747500Y-57162776D01*
%TO.C,R28*%
X105507776Y-53328976D02*
X106017224Y-53328976D01*
X105507776Y-54373976D02*
X106017224Y-54373976D01*
%TO.C,R15*%
X112625276Y-59877500D02*
X113134724Y-59877500D01*
X112625276Y-60922500D02*
X113134724Y-60922500D01*
%TO.C,C40*%
X68190000Y-50483733D02*
X68190000Y-50776267D01*
X69210000Y-50483733D02*
X69210000Y-50776267D01*
%TO.C,R72*%
X90377500Y-43332776D02*
X90377500Y-43842224D01*
X91422500Y-43332776D02*
X91422500Y-43842224D01*
%TO.C,R36*%
X74377500Y-62445276D02*
X74377500Y-62954724D01*
X75422500Y-62445276D02*
X75422500Y-62954724D01*
D11*
%TO.C,Q2*%
X39735000Y-57180000D02*
X43035000Y-57180000D01*
X43035000Y-60480000D02*
X39735000Y-60480000D01*
X43685000Y-57830000D02*
G75*
G02*
X43485000Y-57830000I-100000J0D01*
G01*
X43485000Y-57830000D02*
G75*
G02*
X43685000Y-57830000I100000J0D01*
G01*
D10*
%TO.C,D6*%
X44242500Y-69900000D02*
X44242500Y-71900000D01*
X48252500Y-69900000D02*
X44242500Y-69900000D01*
X48252500Y-71900000D02*
X44242500Y-71900000D01*
%TO.C,FB1*%
X89590000Y-34646267D02*
X89590000Y-34353733D01*
X90610000Y-34646267D02*
X90610000Y-34353733D01*
%TO.C,R13*%
X112836776Y-67448976D02*
X113346224Y-67448976D01*
X112836776Y-68493976D02*
X113346224Y-68493976D01*
%TO.C,C6*%
X48265000Y-40953748D02*
X48265000Y-41476252D01*
X49735000Y-40953748D02*
X49735000Y-41476252D01*
%TO.C,C31*%
X49490000Y-62783767D02*
X49490000Y-62491233D01*
X50510000Y-62783767D02*
X50510000Y-62491233D01*
%TO.C,FB3*%
X83190000Y-54588733D02*
X83190000Y-54881267D01*
X84210000Y-54588733D02*
X84210000Y-54881267D01*
%TD*%
M02*
