%TF.GenerationSoftware,KiCad,Pcbnew,8.0.2*%
%TF.CreationDate,2024-05-12T09:50:32+08:00*%
%TF.ProjectId,bldcDriver,626c6463-4472-4697-9665-722e6b696361,rev?*%
%TF.SameCoordinates,Original*%
%TF.FileFunction,Legend,Top*%
%TF.FilePolarity,Positive*%
%FSLAX46Y46*%
G04 Gerber Fmt 4.6, Leading zero omitted, Abs format (unit mm)*
G04 Created by KiCad (PCBNEW 8.0.2) date 2024-05-12 09:50:32*
%MOMM*%
%LPD*%
G01*
G04 APERTURE LIST*
%ADD10C,0.100000*%
%ADD11C,0.150000*%
%ADD12C,0.375000*%
%ADD13C,0.250000*%
%ADD14C,0.500000*%
%ADD15C,0.120000*%
%ADD16C,0.254000*%
G04 APERTURE END LIST*
D10*
X102713408Y-39533609D02*
X102999122Y-39533609D01*
X102856265Y-40033609D02*
X102856265Y-39533609D01*
X103118169Y-39533609D02*
X103451502Y-40033609D01*
X103451502Y-39533609D02*
X103118169Y-40033609D01*
D11*
G36*
X79455930Y-69290747D02*
G01*
X78083708Y-69290747D01*
X78083708Y-68534649D01*
X78194819Y-68534649D01*
X78196260Y-69120709D01*
X78207459Y-69147745D01*
X78228151Y-69168437D01*
X78255187Y-69179636D01*
X78284451Y-69179636D01*
X78311487Y-69168437D01*
X78332179Y-69147745D01*
X78343378Y-69120709D01*
X78344819Y-69106077D01*
X78344300Y-68895257D01*
X79284451Y-68893922D01*
X79311487Y-68882723D01*
X79332179Y-68862031D01*
X79343378Y-68834995D01*
X79343378Y-68805731D01*
X79332179Y-68778695D01*
X79311487Y-68758003D01*
X79284451Y-68746804D01*
X79269819Y-68745363D01*
X78343935Y-68746677D01*
X78343378Y-68520017D01*
X78332179Y-68492981D01*
X78311487Y-68472289D01*
X78284451Y-68461090D01*
X78255187Y-68461090D01*
X78228151Y-68472289D01*
X78207459Y-68492981D01*
X78196260Y-68520017D01*
X78194819Y-68534649D01*
X78083708Y-68534649D01*
X78083708Y-67629966D01*
X78194819Y-67629966D01*
X78200558Y-67658660D01*
X78216841Y-67682975D01*
X78228217Y-67692291D01*
X78635894Y-67963378D01*
X78216841Y-68243465D01*
X78200558Y-68267780D01*
X78194819Y-68296474D01*
X78200498Y-68325182D01*
X78216731Y-68349531D01*
X78241046Y-68365814D01*
X78269740Y-68371553D01*
X78298448Y-68365874D01*
X78311421Y-68358957D01*
X78769924Y-68052503D01*
X79241190Y-68365874D01*
X79269898Y-68371553D01*
X79298592Y-68365814D01*
X79322907Y-68349531D01*
X79339140Y-68325182D01*
X79344819Y-68296474D01*
X79339080Y-68267780D01*
X79322797Y-68243465D01*
X79311421Y-68234149D01*
X78903743Y-67963061D01*
X79322797Y-67682975D01*
X79339080Y-67658660D01*
X79344819Y-67629966D01*
X79339140Y-67601258D01*
X79322907Y-67576909D01*
X79298592Y-67560626D01*
X79269898Y-67554887D01*
X79241190Y-67560566D01*
X79228216Y-67567483D01*
X78769713Y-67873936D01*
X78298448Y-67560566D01*
X78269740Y-67554887D01*
X78241046Y-67560626D01*
X78216731Y-67576909D01*
X78200498Y-67601258D01*
X78194819Y-67629966D01*
X78083708Y-67629966D01*
X78083708Y-67443776D01*
X79455930Y-67443776D01*
X79455930Y-69290747D01*
G37*
G36*
X76151986Y-68598844D02*
G01*
X76183313Y-68629088D01*
X76218684Y-68697776D01*
X76219144Y-68823927D01*
X76218646Y-68826750D01*
X76219162Y-68829083D01*
X76219745Y-68989001D01*
X75844550Y-68989534D01*
X75843503Y-68702200D01*
X75876871Y-68633433D01*
X75907115Y-68602106D01*
X75975972Y-68566648D01*
X76083604Y-68565663D01*
X76151986Y-68598844D01*
G37*
G36*
X76955930Y-69249331D02*
G01*
X75583708Y-69249331D01*
X75583708Y-68682268D01*
X75694819Y-68682268D01*
X75696260Y-69077852D01*
X75707459Y-69104888D01*
X75728151Y-69125580D01*
X75755187Y-69136779D01*
X75769819Y-69138220D01*
X76784451Y-69136779D01*
X76811487Y-69125580D01*
X76832179Y-69104888D01*
X76843378Y-69077852D01*
X76843378Y-69048588D01*
X76832179Y-69021552D01*
X76811487Y-69000860D01*
X76784451Y-68989661D01*
X76769819Y-68988220D01*
X76368356Y-68988790D01*
X76367904Y-68864567D01*
X76823989Y-68543663D01*
X76839716Y-68518984D01*
X76844802Y-68490167D01*
X76838472Y-68461596D01*
X76821690Y-68437622D01*
X76797012Y-68421895D01*
X76768194Y-68416810D01*
X76739623Y-68423139D01*
X76726810Y-68430349D01*
X76367439Y-68683205D01*
X76367233Y-68680306D01*
X76367187Y-68667636D01*
X76366156Y-68665147D01*
X76365965Y-68662458D01*
X76360710Y-68648727D01*
X76312018Y-68554172D01*
X76308369Y-68545362D01*
X76305986Y-68542459D01*
X76305259Y-68541046D01*
X76303760Y-68539746D01*
X76299042Y-68533997D01*
X76250006Y-68486655D01*
X76244374Y-68480161D01*
X76241228Y-68478181D01*
X76240058Y-68477051D01*
X76238230Y-68476293D01*
X76231931Y-68472329D01*
X76146042Y-68430654D01*
X76144820Y-68429432D01*
X76135954Y-68425759D01*
X76122961Y-68419455D01*
X76120273Y-68419264D01*
X76117784Y-68418233D01*
X76103152Y-68416792D01*
X75971521Y-68417996D01*
X75969675Y-68417381D01*
X75959460Y-68418106D01*
X75945663Y-68418233D01*
X75943174Y-68419263D01*
X75940485Y-68419455D01*
X75926754Y-68424710D01*
X75832199Y-68473401D01*
X75823389Y-68477051D01*
X75820486Y-68479433D01*
X75819073Y-68480161D01*
X75817773Y-68481659D01*
X75812024Y-68486378D01*
X75764682Y-68535413D01*
X75758188Y-68541046D01*
X75756208Y-68544191D01*
X75755078Y-68545362D01*
X75754320Y-68547189D01*
X75750356Y-68553489D01*
X75708681Y-68639377D01*
X75707459Y-68640600D01*
X75703786Y-68649465D01*
X75697482Y-68662459D01*
X75697291Y-68665146D01*
X75696260Y-68667636D01*
X75694819Y-68682268D01*
X75583708Y-68682268D01*
X75583708Y-67491871D01*
X75694819Y-67491871D01*
X75700558Y-67520565D01*
X75716841Y-67544880D01*
X75728217Y-67554196D01*
X76135894Y-67825283D01*
X75716841Y-68105370D01*
X75700558Y-68129685D01*
X75694819Y-68158379D01*
X75700498Y-68187087D01*
X75716731Y-68211436D01*
X75741046Y-68227719D01*
X75769740Y-68233458D01*
X75798448Y-68227779D01*
X75811421Y-68220862D01*
X76269924Y-67914408D01*
X76741190Y-68227779D01*
X76769898Y-68233458D01*
X76798592Y-68227719D01*
X76822907Y-68211436D01*
X76839140Y-68187087D01*
X76844819Y-68158379D01*
X76839080Y-68129685D01*
X76822797Y-68105370D01*
X76811421Y-68096054D01*
X76403743Y-67824966D01*
X76822797Y-67544880D01*
X76839080Y-67520565D01*
X76844819Y-67491871D01*
X76839140Y-67463163D01*
X76822907Y-67438814D01*
X76798592Y-67422531D01*
X76769898Y-67416792D01*
X76741190Y-67422471D01*
X76728216Y-67429388D01*
X76269713Y-67735841D01*
X75798448Y-67422471D01*
X75769740Y-67416792D01*
X75741046Y-67422531D01*
X75716731Y-67438814D01*
X75700498Y-67463163D01*
X75694819Y-67491871D01*
X75583708Y-67491871D01*
X75583708Y-67305681D01*
X76955930Y-67305681D01*
X76955930Y-69249331D01*
G37*
G36*
X74000540Y-68607637D02*
G01*
X74080350Y-68646363D01*
X74156076Y-68720640D01*
X74194867Y-68833717D01*
X74195749Y-68988325D01*
X73344398Y-68989534D01*
X73343551Y-68840867D01*
X73381290Y-68724271D01*
X73454080Y-68650062D01*
X73529215Y-68611371D01*
X73702645Y-68566753D01*
X73827417Y-68565611D01*
X74000540Y-68607637D01*
G37*
G36*
X74087325Y-67081776D02*
G01*
X74159166Y-67152243D01*
X74194928Y-67221689D01*
X74196018Y-67376858D01*
X74162867Y-67445180D01*
X74090485Y-67518973D01*
X73932313Y-67559666D01*
X73617559Y-67560969D01*
X73452311Y-67520855D01*
X73380471Y-67450388D01*
X73344709Y-67380942D01*
X73343619Y-67225773D01*
X73376770Y-67157450D01*
X73449152Y-67083658D01*
X73607323Y-67042965D01*
X73922077Y-67041662D01*
X74087325Y-67081776D01*
G37*
G36*
X74455930Y-69249331D02*
G01*
X73083708Y-69249331D01*
X73083708Y-68825125D01*
X73194819Y-68825125D01*
X73196260Y-69077852D01*
X73207459Y-69104888D01*
X73228151Y-69125580D01*
X73255187Y-69136779D01*
X73269819Y-69138220D01*
X74284451Y-69136779D01*
X74311487Y-69125580D01*
X74332179Y-69104888D01*
X74343378Y-69077852D01*
X74344819Y-69063220D01*
X74343468Y-68826449D01*
X74344230Y-68815744D01*
X74343386Y-68812035D01*
X74343378Y-68810493D01*
X74342619Y-68808662D01*
X74340970Y-68801407D01*
X74295759Y-68669616D01*
X74295759Y-68667636D01*
X74291802Y-68658083D01*
X74287357Y-68645125D01*
X74285592Y-68643090D01*
X74284561Y-68640600D01*
X74275233Y-68629235D01*
X74179468Y-68535302D01*
X74172945Y-68527780D01*
X74169748Y-68525767D01*
X74168628Y-68524669D01*
X74166798Y-68523911D01*
X74160502Y-68519948D01*
X74069270Y-68475681D01*
X74063759Y-68471597D01*
X74052739Y-68467659D01*
X74051532Y-68467074D01*
X74050992Y-68467035D01*
X74049913Y-68466650D01*
X73863547Y-68421409D01*
X73855879Y-68418233D01*
X73846764Y-68417335D01*
X73844893Y-68416881D01*
X73843800Y-68417043D01*
X73841247Y-68416792D01*
X73702667Y-68418059D01*
X73694744Y-68416881D01*
X73685719Y-68418215D01*
X73683758Y-68418233D01*
X73682736Y-68418655D01*
X73680200Y-68419031D01*
X73495501Y-68466548D01*
X73488104Y-68467074D01*
X73477121Y-68471277D01*
X73475878Y-68471597D01*
X73475442Y-68471919D01*
X73474373Y-68472329D01*
X73379823Y-68521017D01*
X73371008Y-68524669D01*
X73368102Y-68527053D01*
X73366692Y-68527780D01*
X73365393Y-68529276D01*
X73359643Y-68533997D01*
X73273158Y-68622167D01*
X73271455Y-68623019D01*
X73264826Y-68630661D01*
X73255078Y-68640600D01*
X73254046Y-68643090D01*
X73252281Y-68645126D01*
X73246287Y-68658551D01*
X73200138Y-68801129D01*
X73196260Y-68810493D01*
X73195889Y-68814258D01*
X73195408Y-68815745D01*
X73195548Y-68817719D01*
X73194819Y-68825125D01*
X73083708Y-68825125D01*
X73083708Y-68048588D01*
X73196260Y-68048588D01*
X73196260Y-68077852D01*
X73207459Y-68104888D01*
X73228151Y-68125580D01*
X73255187Y-68136779D01*
X73269819Y-68138220D01*
X74284451Y-68136779D01*
X74311487Y-68125580D01*
X74332179Y-68104888D01*
X74343378Y-68077852D01*
X74343378Y-68048588D01*
X74332179Y-68021552D01*
X74311487Y-68000860D01*
X74284451Y-67989661D01*
X74269819Y-67988220D01*
X73255187Y-67989661D01*
X73228151Y-68000860D01*
X73207459Y-68021552D01*
X73196260Y-68048588D01*
X73083708Y-68048588D01*
X73083708Y-67206078D01*
X73194819Y-67206078D01*
X73196077Y-67385165D01*
X73195408Y-67387173D01*
X73196166Y-67397845D01*
X73196260Y-67411186D01*
X73197291Y-67413675D01*
X73197482Y-67416363D01*
X73202737Y-67430095D01*
X73251429Y-67524651D01*
X73255078Y-67533460D01*
X73257460Y-67536362D01*
X73258188Y-67537776D01*
X73259686Y-67539075D01*
X73264405Y-67544825D01*
X73354728Y-67633422D01*
X73357128Y-67637422D01*
X73363988Y-67642505D01*
X73371008Y-67649391D01*
X73376161Y-67651525D01*
X73380640Y-67654844D01*
X73394486Y-67659791D01*
X73580851Y-67705031D01*
X73588520Y-67708208D01*
X73597634Y-67709105D01*
X73599506Y-67709560D01*
X73600598Y-67709397D01*
X73603152Y-67709649D01*
X73931588Y-67708288D01*
X73940131Y-67709560D01*
X73949223Y-67708215D01*
X73951117Y-67708208D01*
X73952138Y-67707785D01*
X73954675Y-67707410D01*
X74136666Y-67660589D01*
X74141592Y-67660589D01*
X74149667Y-67657244D01*
X74158997Y-67654844D01*
X74163476Y-67651524D01*
X74168628Y-67649391D01*
X74179994Y-67640063D01*
X74273932Y-67544295D01*
X74281450Y-67537776D01*
X74283460Y-67534582D01*
X74284561Y-67533460D01*
X74285319Y-67531627D01*
X74289282Y-67525333D01*
X74330957Y-67439443D01*
X74332179Y-67438222D01*
X74335848Y-67429362D01*
X74342156Y-67416364D01*
X74342347Y-67413674D01*
X74343378Y-67411186D01*
X74344819Y-67396554D01*
X74343560Y-67217465D01*
X74344230Y-67215458D01*
X74343471Y-67204785D01*
X74343378Y-67191446D01*
X74342347Y-67188957D01*
X74342156Y-67186268D01*
X74336901Y-67172537D01*
X74288212Y-67077988D01*
X74284561Y-67069172D01*
X74282176Y-67066266D01*
X74281450Y-67064856D01*
X74279953Y-67063557D01*
X74275233Y-67057807D01*
X74184909Y-66969211D01*
X74182509Y-66965210D01*
X74175645Y-66960124D01*
X74168628Y-66953241D01*
X74163476Y-66951107D01*
X74158997Y-66947788D01*
X74145151Y-66942841D01*
X73958785Y-66897600D01*
X73951117Y-66894424D01*
X73942002Y-66893526D01*
X73940131Y-66893072D01*
X73939038Y-66893234D01*
X73936485Y-66892983D01*
X73608048Y-66894343D01*
X73599506Y-66893072D01*
X73590413Y-66894416D01*
X73588520Y-66894424D01*
X73587498Y-66894846D01*
X73584962Y-66895222D01*
X73402971Y-66942043D01*
X73398045Y-66942043D01*
X73389968Y-66945388D01*
X73380640Y-66947788D01*
X73376161Y-66951106D01*
X73371008Y-66953241D01*
X73359643Y-66962569D01*
X73265711Y-67058331D01*
X73258188Y-67064856D01*
X73256175Y-67068052D01*
X73255078Y-67069172D01*
X73254320Y-67070999D01*
X73250356Y-67077299D01*
X73208681Y-67163187D01*
X73207459Y-67164410D01*
X73203786Y-67173275D01*
X73197482Y-67186269D01*
X73197291Y-67188956D01*
X73196260Y-67191446D01*
X73194819Y-67206078D01*
X73083708Y-67206078D01*
X73083708Y-66781872D01*
X74455930Y-66781872D01*
X74455930Y-69249331D01*
G37*
D12*
G36*
X99980606Y-49771928D02*
G01*
X94993146Y-49771928D01*
X94993146Y-47898624D01*
X95180646Y-47898624D01*
X95184579Y-47935169D01*
X95496015Y-49413056D01*
X95495511Y-49426667D01*
X95503307Y-49447655D01*
X95508067Y-49470244D01*
X95516047Y-49481957D01*
X95520985Y-49495250D01*
X95536457Y-49511913D01*
X95549260Y-49530704D01*
X95561119Y-49538473D01*
X95570764Y-49548861D01*
X95591433Y-49558334D01*
X95610455Y-49570797D01*
X95624382Y-49573436D01*
X95637269Y-49579343D01*
X95659994Y-49580186D01*
X95682334Y-49584420D01*
X95696208Y-49581529D01*
X95710377Y-49582055D01*
X95731696Y-49574136D01*
X95753955Y-49569499D01*
X95765669Y-49561517D01*
X95778960Y-49556581D01*
X95795623Y-49541108D01*
X95814414Y-49528306D01*
X95822183Y-49516446D01*
X95832571Y-49506802D01*
X95851088Y-49475051D01*
X95903364Y-49360349D01*
X96425312Y-49360349D01*
X96425312Y-49433507D01*
X96453308Y-49501097D01*
X96505040Y-49552829D01*
X96572630Y-49580825D01*
X96609209Y-49584428D01*
X97041222Y-49582686D01*
X97051268Y-49583942D01*
X97056051Y-49582626D01*
X97502931Y-49580825D01*
X97570521Y-49552829D01*
X97622253Y-49501097D01*
X97650249Y-49433507D01*
X97650249Y-49360349D01*
X97645866Y-49349767D01*
X97860786Y-49349767D01*
X97861024Y-49350473D01*
X97860981Y-49351219D01*
X97872744Y-49385125D01*
X97884225Y-49419069D01*
X97884800Y-49419874D01*
X97884961Y-49420336D01*
X97885828Y-49421311D01*
X97905601Y-49448970D01*
X97975584Y-49524662D01*
X97986507Y-49538705D01*
X97990853Y-49541176D01*
X97994901Y-49545554D01*
X97995567Y-49545883D01*
X97996064Y-49546442D01*
X98023549Y-49559768D01*
X98050103Y-49574868D01*
X98055552Y-49575549D01*
X98060478Y-49577985D01*
X98061221Y-49578034D01*
X98061893Y-49578360D01*
X98092391Y-49580153D01*
X98122696Y-49583942D01*
X98127993Y-49582485D01*
X98133476Y-49582851D01*
X98134182Y-49582612D01*
X98134927Y-49582656D01*
X98163779Y-49572645D01*
X98193237Y-49564546D01*
X98197575Y-49561171D01*
X98202778Y-49559412D01*
X98203339Y-49558920D01*
X98204044Y-49558676D01*
X98233777Y-49537068D01*
X98332608Y-49444693D01*
X98338191Y-49439809D01*
X98338497Y-49439189D01*
X98339080Y-49438645D01*
X98354765Y-49406294D01*
X98370622Y-49374232D01*
X98370671Y-49373489D01*
X98370998Y-49372816D01*
X98371731Y-49360349D01*
X98568169Y-49360349D01*
X98568169Y-49433507D01*
X98596165Y-49501097D01*
X98647897Y-49552829D01*
X98715487Y-49580825D01*
X98752066Y-49584428D01*
X99184079Y-49582686D01*
X99194125Y-49583942D01*
X99198908Y-49582626D01*
X99645788Y-49580825D01*
X99713378Y-49552829D01*
X99765110Y-49501097D01*
X99793106Y-49433507D01*
X99793106Y-49360349D01*
X99765110Y-49292759D01*
X99713378Y-49241027D01*
X99645788Y-49213031D01*
X99609209Y-49209428D01*
X99392429Y-49210301D01*
X99549079Y-47932955D01*
X99555030Y-47912023D01*
X99553383Y-47897863D01*
X99555152Y-47883441D01*
X99549180Y-47861724D01*
X99546579Y-47839352D01*
X99539572Y-47826780D01*
X99535756Y-47812901D01*
X99521927Y-47795121D01*
X99510963Y-47775449D01*
X99499677Y-47766515D01*
X99490840Y-47755152D01*
X99471260Y-47744018D01*
X99453604Y-47730040D01*
X99439757Y-47726104D01*
X99427244Y-47718988D01*
X99404899Y-47716194D01*
X99383233Y-47710036D01*
X99368931Y-47711698D01*
X99354651Y-47709914D01*
X99332940Y-47715883D01*
X99310562Y-47718486D01*
X99297984Y-47725495D01*
X99284111Y-47729311D01*
X99266335Y-47743135D01*
X99246659Y-47754103D01*
X99229849Y-47771514D01*
X99226361Y-47774227D01*
X99225115Y-47776416D01*
X99221129Y-47780546D01*
X99073715Y-47971268D01*
X98940819Y-48092848D01*
X98774595Y-48174682D01*
X98725359Y-48228793D01*
X98700578Y-48297628D01*
X98704026Y-48370706D01*
X98735177Y-48436900D01*
X98789288Y-48486136D01*
X98858123Y-48510917D01*
X98931201Y-48507469D01*
X98965832Y-48495153D01*
X99113525Y-48422442D01*
X99114842Y-48421985D01*
X99017980Y-49211811D01*
X98715487Y-49213031D01*
X98647897Y-49241027D01*
X98596165Y-49292759D01*
X98568169Y-49360349D01*
X98371731Y-49360349D01*
X98373107Y-49336949D01*
X98375489Y-49301234D01*
X98375250Y-49300527D01*
X98375294Y-49299782D01*
X98363511Y-49265819D01*
X98352050Y-49231932D01*
X98351476Y-49231129D01*
X98351315Y-49230665D01*
X98350442Y-49229683D01*
X98330674Y-49202031D01*
X98260687Y-49126333D01*
X98249768Y-49112294D01*
X98245423Y-49109823D01*
X98241376Y-49105446D01*
X98240705Y-49105114D01*
X98240210Y-49104557D01*
X98212731Y-49091233D01*
X98186172Y-49076131D01*
X98180723Y-49075449D01*
X98175798Y-49073014D01*
X98175051Y-49072964D01*
X98174381Y-49072639D01*
X98143884Y-49070845D01*
X98113579Y-49067057D01*
X98108282Y-49068513D01*
X98102800Y-49068148D01*
X98102093Y-49068386D01*
X98101347Y-49068343D01*
X98072496Y-49078353D01*
X98043038Y-49086453D01*
X98038698Y-49089828D01*
X98033498Y-49091587D01*
X98032935Y-49092079D01*
X98032230Y-49092324D01*
X98002497Y-49113933D01*
X97903697Y-49206278D01*
X97898083Y-49211191D01*
X97897774Y-49211813D01*
X97897195Y-49212356D01*
X97881571Y-49244577D01*
X97865652Y-49276769D01*
X97865602Y-49277514D01*
X97865277Y-49278185D01*
X97863170Y-49313988D01*
X97860786Y-49349767D01*
X97645866Y-49349767D01*
X97622253Y-49292759D01*
X97570521Y-49241027D01*
X97502931Y-49213031D01*
X97466352Y-49209428D01*
X97249572Y-49210301D01*
X97406222Y-47932955D01*
X97412173Y-47912023D01*
X97410526Y-47897863D01*
X97412295Y-47883441D01*
X97406323Y-47861724D01*
X97403722Y-47839352D01*
X97396715Y-47826780D01*
X97392899Y-47812901D01*
X97379070Y-47795121D01*
X97368106Y-47775449D01*
X97356820Y-47766515D01*
X97347983Y-47755152D01*
X97328403Y-47744018D01*
X97310747Y-47730040D01*
X97296900Y-47726104D01*
X97284387Y-47718988D01*
X97262042Y-47716194D01*
X97240376Y-47710036D01*
X97226074Y-47711698D01*
X97211794Y-47709914D01*
X97190083Y-47715883D01*
X97167705Y-47718486D01*
X97155127Y-47725495D01*
X97141254Y-47729311D01*
X97123478Y-47743135D01*
X97103802Y-47754103D01*
X97086992Y-47771514D01*
X97083504Y-47774227D01*
X97082258Y-47776416D01*
X97078272Y-47780546D01*
X96930858Y-47971268D01*
X96797962Y-48092848D01*
X96631738Y-48174682D01*
X96582502Y-48228793D01*
X96557721Y-48297628D01*
X96561169Y-48370706D01*
X96592320Y-48436900D01*
X96646431Y-48486136D01*
X96715266Y-48510917D01*
X96788344Y-48507469D01*
X96822975Y-48495153D01*
X96970668Y-48422442D01*
X96971985Y-48421985D01*
X96875123Y-49211811D01*
X96572630Y-49213031D01*
X96505040Y-49241027D01*
X96453308Y-49292759D01*
X96425312Y-49360349D01*
X95903364Y-49360349D01*
X96550553Y-47940297D01*
X96553264Y-47867189D01*
X96527791Y-47798607D01*
X96478012Y-47744995D01*
X96411507Y-47714513D01*
X96338398Y-47711802D01*
X96269816Y-47737275D01*
X96216204Y-47787054D01*
X96197688Y-47818806D01*
X95747742Y-48806066D01*
X95540709Y-47823611D01*
X95499516Y-47763152D01*
X95438321Y-47723058D01*
X95366442Y-47709436D01*
X95294821Y-47724357D01*
X95234362Y-47765550D01*
X95194268Y-47826745D01*
X95180646Y-47898624D01*
X94993146Y-47898624D01*
X94993146Y-47521936D01*
X99980606Y-47521936D01*
X99980606Y-49771928D01*
G37*
D11*
G36*
X81600540Y-66460018D02*
G01*
X81680350Y-66498744D01*
X81756076Y-66573021D01*
X81794867Y-66686098D01*
X81795749Y-66840706D01*
X80944398Y-66841915D01*
X80943551Y-66693248D01*
X80981290Y-66576652D01*
X81054080Y-66502443D01*
X81129215Y-66463752D01*
X81302645Y-66419134D01*
X81427417Y-66417992D01*
X81600540Y-66460018D01*
G37*
G36*
X82055930Y-69196950D02*
G01*
X80683708Y-69196950D01*
X80683708Y-68534649D01*
X80794819Y-68534649D01*
X80796120Y-68676866D01*
X80795408Y-68686886D01*
X80796245Y-68690569D01*
X80796260Y-68692138D01*
X80797018Y-68693969D01*
X80798668Y-68701223D01*
X80843879Y-68833013D01*
X80843879Y-68834994D01*
X80847834Y-68844543D01*
X80852281Y-68857505D01*
X80854046Y-68859540D01*
X80855078Y-68862031D01*
X80864405Y-68873396D01*
X80960172Y-68967333D01*
X80966692Y-68974851D01*
X80969885Y-68976861D01*
X80971008Y-68977962D01*
X80972840Y-68978720D01*
X80979135Y-68982683D01*
X81070367Y-69026951D01*
X81075878Y-69031034D01*
X81086893Y-69034969D01*
X81088104Y-69035557D01*
X81088644Y-69035595D01*
X81089724Y-69035981D01*
X81276089Y-69081221D01*
X81283758Y-69084398D01*
X81292872Y-69085295D01*
X81294744Y-69085750D01*
X81295836Y-69085587D01*
X81298390Y-69085839D01*
X81436969Y-69084571D01*
X81444893Y-69085750D01*
X81453917Y-69084415D01*
X81455879Y-69084398D01*
X81456900Y-69083975D01*
X81459437Y-69083600D01*
X81644135Y-69036082D01*
X81651532Y-69035557D01*
X81662514Y-69031354D01*
X81663759Y-69031034D01*
X81664194Y-69030711D01*
X81665264Y-69030302D01*
X81759816Y-68981611D01*
X81768628Y-68977962D01*
X81771532Y-68975578D01*
X81772945Y-68974851D01*
X81774244Y-68973352D01*
X81779994Y-68968634D01*
X81866479Y-68880464D01*
X81868183Y-68879613D01*
X81874813Y-68871968D01*
X81884561Y-68862031D01*
X81885592Y-68859540D01*
X81887357Y-68857506D01*
X81893351Y-68844080D01*
X81939500Y-68701498D01*
X81943378Y-68692138D01*
X81943748Y-68688374D01*
X81944230Y-68686887D01*
X81944089Y-68684912D01*
X81944819Y-68677506D01*
X81943568Y-68582187D01*
X81944230Y-68572887D01*
X81943398Y-68569232D01*
X81943378Y-68567636D01*
X81942619Y-68565805D01*
X81940970Y-68558550D01*
X81895759Y-68426759D01*
X81895759Y-68424779D01*
X81891804Y-68415231D01*
X81887357Y-68402268D01*
X81885590Y-68400231D01*
X81884560Y-68397743D01*
X81875232Y-68386377D01*
X81816247Y-68329431D01*
X81800410Y-68322871D01*
X81789212Y-68318233D01*
X81774580Y-68316792D01*
X81426615Y-68318233D01*
X81399579Y-68329432D01*
X81378887Y-68350124D01*
X81367688Y-68377160D01*
X81366247Y-68391792D01*
X81367688Y-68596900D01*
X81378887Y-68623936D01*
X81399579Y-68644628D01*
X81426615Y-68655827D01*
X81455879Y-68655827D01*
X81482915Y-68644628D01*
X81503607Y-68623936D01*
X81514806Y-68596900D01*
X81516247Y-68582268D01*
X81515433Y-68466484D01*
X81743006Y-68465542D01*
X81756270Y-68478347D01*
X81794934Y-68591053D01*
X81795870Y-68662432D01*
X81758348Y-68778359D01*
X81685558Y-68852567D01*
X81610421Y-68891259D01*
X81436991Y-68935877D01*
X81312219Y-68937019D01*
X81139096Y-68894993D01*
X81059286Y-68856268D01*
X80983562Y-68781991D01*
X80944739Y-68668823D01*
X80943690Y-68554196D01*
X80989775Y-68459221D01*
X80991849Y-68430031D01*
X80982595Y-68402269D01*
X80963422Y-68380162D01*
X80937247Y-68367074D01*
X80908057Y-68365000D01*
X80880296Y-68374254D01*
X80858188Y-68393427D01*
X80850356Y-68405870D01*
X80808681Y-68491758D01*
X80807459Y-68492981D01*
X80803786Y-68501846D01*
X80797482Y-68514840D01*
X80797291Y-68517527D01*
X80796260Y-68520017D01*
X80794819Y-68534649D01*
X80683708Y-68534649D01*
X80683708Y-67957981D01*
X80795002Y-67957981D01*
X80796260Y-67967877D01*
X80796260Y-67977852D01*
X80798089Y-67982267D01*
X80798692Y-67987011D01*
X80803642Y-67995675D01*
X80807459Y-68004888D01*
X80810837Y-68008266D01*
X80813211Y-68012420D01*
X80821100Y-68018529D01*
X80828151Y-68025580D01*
X80832567Y-68027409D01*
X80836348Y-68030337D01*
X80845971Y-68032961D01*
X80855187Y-68036779D01*
X80862669Y-68037515D01*
X80864580Y-68038037D01*
X80866055Y-68037849D01*
X80869819Y-68038220D01*
X81884451Y-68036779D01*
X81911487Y-68025580D01*
X81932179Y-68004888D01*
X81943378Y-67977852D01*
X81943378Y-67948588D01*
X81932179Y-67921552D01*
X81911487Y-67900860D01*
X81884451Y-67889661D01*
X81869819Y-67888220D01*
X81149749Y-67889242D01*
X81902448Y-67457895D01*
X81911487Y-67454152D01*
X81914849Y-67450789D01*
X81919019Y-67448400D01*
X81925127Y-67440511D01*
X81932179Y-67433460D01*
X81934009Y-67429041D01*
X81936936Y-67425262D01*
X81939560Y-67415640D01*
X81943378Y-67406424D01*
X81943378Y-67401643D01*
X81944636Y-67397031D01*
X81943378Y-67387134D01*
X81943378Y-67377160D01*
X81941548Y-67372744D01*
X81940946Y-67368001D01*
X81935995Y-67359336D01*
X81932179Y-67350124D01*
X81928800Y-67346745D01*
X81926427Y-67342592D01*
X81918537Y-67336482D01*
X81911487Y-67329432D01*
X81907070Y-67327602D01*
X81903290Y-67324675D01*
X81893666Y-67322050D01*
X81884451Y-67318233D01*
X81876968Y-67317496D01*
X81875058Y-67316975D01*
X81873582Y-67317162D01*
X81869819Y-67316792D01*
X80855187Y-67318233D01*
X80828151Y-67329432D01*
X80807459Y-67350124D01*
X80796260Y-67377160D01*
X80796260Y-67406424D01*
X80807459Y-67433460D01*
X80828151Y-67454152D01*
X80855187Y-67465351D01*
X80869819Y-67466792D01*
X81589888Y-67465769D01*
X80837189Y-67897116D01*
X80828151Y-67900860D01*
X80824788Y-67904222D01*
X80820619Y-67906612D01*
X80814509Y-67914501D01*
X80807459Y-67921552D01*
X80805629Y-67925968D01*
X80802702Y-67929749D01*
X80800077Y-67939372D01*
X80796260Y-67948588D01*
X80796260Y-67953368D01*
X80795002Y-67957981D01*
X80683708Y-67957981D01*
X80683708Y-66677506D01*
X80794819Y-66677506D01*
X80796260Y-66930233D01*
X80807459Y-66957269D01*
X80828151Y-66977961D01*
X80855187Y-66989160D01*
X80869819Y-66990601D01*
X81884451Y-66989160D01*
X81911487Y-66977961D01*
X81932179Y-66957269D01*
X81943378Y-66930233D01*
X81944819Y-66915601D01*
X81943468Y-66678830D01*
X81944230Y-66668125D01*
X81943386Y-66664416D01*
X81943378Y-66662874D01*
X81942619Y-66661043D01*
X81940970Y-66653788D01*
X81895759Y-66521997D01*
X81895759Y-66520017D01*
X81891802Y-66510464D01*
X81887357Y-66497506D01*
X81885592Y-66495471D01*
X81884561Y-66492981D01*
X81875233Y-66481616D01*
X81779468Y-66387683D01*
X81772945Y-66380161D01*
X81769748Y-66378148D01*
X81768628Y-66377050D01*
X81766798Y-66376292D01*
X81760502Y-66372329D01*
X81669270Y-66328062D01*
X81663759Y-66323978D01*
X81652739Y-66320040D01*
X81651532Y-66319455D01*
X81650992Y-66319416D01*
X81649913Y-66319031D01*
X81463547Y-66273790D01*
X81455879Y-66270614D01*
X81446764Y-66269716D01*
X81444893Y-66269262D01*
X81443800Y-66269424D01*
X81441247Y-66269173D01*
X81302667Y-66270440D01*
X81294744Y-66269262D01*
X81285719Y-66270596D01*
X81283758Y-66270614D01*
X81282736Y-66271036D01*
X81280200Y-66271412D01*
X81095501Y-66318929D01*
X81088104Y-66319455D01*
X81077121Y-66323658D01*
X81075878Y-66323978D01*
X81075442Y-66324300D01*
X81074373Y-66324710D01*
X80979823Y-66373398D01*
X80971008Y-66377050D01*
X80968102Y-66379434D01*
X80966692Y-66380161D01*
X80965393Y-66381657D01*
X80959643Y-66386378D01*
X80873158Y-66474548D01*
X80871455Y-66475400D01*
X80864826Y-66483042D01*
X80855078Y-66492981D01*
X80854046Y-66495471D01*
X80852281Y-66497507D01*
X80846287Y-66510932D01*
X80800138Y-66653510D01*
X80796260Y-66662874D01*
X80795889Y-66666639D01*
X80795408Y-66668126D01*
X80795548Y-66670100D01*
X80794819Y-66677506D01*
X80683708Y-66677506D01*
X80683708Y-66158062D01*
X82055930Y-66158062D01*
X82055930Y-69196950D01*
G37*
G36*
X84655930Y-69343128D02*
G01*
X83283708Y-69343128D01*
X83283708Y-68539411D01*
X83394819Y-68539411D01*
X83396260Y-69173090D01*
X83407459Y-69200126D01*
X83428151Y-69220818D01*
X83455187Y-69232017D01*
X83484451Y-69232017D01*
X83511487Y-69220818D01*
X83532179Y-69200126D01*
X83543378Y-69173090D01*
X83544819Y-69158458D01*
X83543783Y-68703186D01*
X83800970Y-68926971D01*
X83809103Y-68935104D01*
X83811419Y-68936063D01*
X83813344Y-68937738D01*
X83824881Y-68941639D01*
X83836139Y-68946303D01*
X83838670Y-68946303D01*
X83841065Y-68947113D01*
X83853218Y-68946303D01*
X83865403Y-68946303D01*
X83867739Y-68945335D01*
X83870263Y-68945167D01*
X83881188Y-68939764D01*
X83892439Y-68935104D01*
X83894225Y-68933317D01*
X83896495Y-68932195D01*
X83904520Y-68923022D01*
X83913131Y-68914412D01*
X83914099Y-68912075D01*
X83915765Y-68910171D01*
X83919666Y-68898633D01*
X83924330Y-68887376D01*
X83924681Y-68883805D01*
X83925140Y-68882450D01*
X83925008Y-68880482D01*
X83925771Y-68872744D01*
X83924642Y-68749434D01*
X83957823Y-68681052D01*
X83988067Y-68649725D01*
X84056818Y-68614322D01*
X84259554Y-68613166D01*
X84328176Y-68646463D01*
X84359504Y-68676708D01*
X84394893Y-68745430D01*
X84396094Y-68995749D01*
X84362767Y-69064434D01*
X84312220Y-69116790D01*
X84301021Y-69143826D01*
X84301021Y-69173089D01*
X84312219Y-69200125D01*
X84332912Y-69220818D01*
X84359948Y-69232017D01*
X84389211Y-69232017D01*
X84416247Y-69220819D01*
X84427612Y-69211492D01*
X84474953Y-69162456D01*
X84481450Y-69156823D01*
X84483429Y-69153677D01*
X84484560Y-69152507D01*
X84485317Y-69150679D01*
X84489282Y-69144380D01*
X84530957Y-69058490D01*
X84532179Y-69057269D01*
X84535848Y-69048409D01*
X84542156Y-69035411D01*
X84542347Y-69032721D01*
X84543378Y-69030233D01*
X84544819Y-69015601D01*
X84543503Y-68741446D01*
X84544230Y-68739267D01*
X84543439Y-68728146D01*
X84543378Y-68715255D01*
X84542347Y-68712766D01*
X84542156Y-68710077D01*
X84536901Y-68696346D01*
X84488209Y-68601791D01*
X84484560Y-68592981D01*
X84482177Y-68590078D01*
X84481450Y-68588665D01*
X84479950Y-68587364D01*
X84475232Y-68581615D01*
X84426195Y-68534273D01*
X84420564Y-68527780D01*
X84417418Y-68525800D01*
X84416247Y-68524669D01*
X84414417Y-68523911D01*
X84408121Y-68519948D01*
X84322232Y-68478273D01*
X84321010Y-68477051D01*
X84312144Y-68473378D01*
X84299151Y-68467074D01*
X84296463Y-68466883D01*
X84293974Y-68465852D01*
X84279342Y-68464411D01*
X84052736Y-68465703D01*
X84050627Y-68465000D01*
X84039684Y-68465777D01*
X84026615Y-68465852D01*
X84024126Y-68466882D01*
X84021437Y-68467074D01*
X84007706Y-68472329D01*
X83913151Y-68521020D01*
X83904341Y-68524670D01*
X83901438Y-68527052D01*
X83900025Y-68527780D01*
X83898725Y-68529278D01*
X83892976Y-68533997D01*
X83845634Y-68583032D01*
X83839140Y-68588665D01*
X83837160Y-68591810D01*
X83836030Y-68592981D01*
X83835272Y-68594808D01*
X83831308Y-68601108D01*
X83789633Y-68686996D01*
X83788411Y-68688219D01*
X83784738Y-68697084D01*
X83778434Y-68710078D01*
X83778413Y-68710366D01*
X83519619Y-68485183D01*
X83511487Y-68477051D01*
X83509170Y-68476091D01*
X83507246Y-68474417D01*
X83495708Y-68470515D01*
X83484451Y-68465852D01*
X83481920Y-68465852D01*
X83479525Y-68465042D01*
X83467372Y-68465852D01*
X83455187Y-68465852D01*
X83452850Y-68466819D01*
X83450327Y-68466988D01*
X83439401Y-68472390D01*
X83428151Y-68477051D01*
X83426364Y-68478837D01*
X83424095Y-68479960D01*
X83416069Y-68489132D01*
X83407459Y-68497743D01*
X83406490Y-68500079D01*
X83404825Y-68501984D01*
X83400923Y-68513521D01*
X83396260Y-68524779D01*
X83395908Y-68528349D01*
X83395450Y-68529705D01*
X83395581Y-68531672D01*
X83394819Y-68539411D01*
X83283708Y-68539411D01*
X83283708Y-67577650D01*
X83395408Y-67577650D01*
X83397483Y-67606840D01*
X83410569Y-67633013D01*
X83432676Y-67652187D01*
X83446102Y-67658181D01*
X84234895Y-67919930D01*
X83432676Y-68188539D01*
X83410569Y-68207713D01*
X83397483Y-68233886D01*
X83395408Y-68263076D01*
X83404662Y-68290839D01*
X83423836Y-68312946D01*
X83450009Y-68326032D01*
X83479199Y-68328107D01*
X83493536Y-68324847D01*
X84484413Y-67993069D01*
X84489628Y-67992699D01*
X84497956Y-67988534D01*
X84506961Y-67985520D01*
X84511008Y-67982009D01*
X84515802Y-67979613D01*
X84521966Y-67972505D01*
X84529068Y-67966346D01*
X84531463Y-67961554D01*
X84534976Y-67957505D01*
X84537950Y-67948582D01*
X84542155Y-67940173D01*
X84542534Y-67934828D01*
X84544230Y-67929743D01*
X84543563Y-67920363D01*
X84544230Y-67910983D01*
X84542534Y-67905897D01*
X84542155Y-67900553D01*
X84537950Y-67892143D01*
X84534976Y-67883221D01*
X84531463Y-67879171D01*
X84529068Y-67874380D01*
X84521966Y-67868220D01*
X84515802Y-67861113D01*
X84511008Y-67858716D01*
X84506961Y-67855206D01*
X84493536Y-67849212D01*
X83479199Y-67512619D01*
X83450009Y-67514694D01*
X83423836Y-67527780D01*
X83404662Y-67549887D01*
X83395408Y-67577650D01*
X83283708Y-67577650D01*
X83283708Y-66729887D01*
X83394819Y-66729887D01*
X83396260Y-67363566D01*
X83407459Y-67390602D01*
X83428151Y-67411294D01*
X83455187Y-67422493D01*
X83484451Y-67422493D01*
X83511487Y-67411294D01*
X83532179Y-67390602D01*
X83543378Y-67363566D01*
X83544819Y-67348934D01*
X83543783Y-66893662D01*
X83800970Y-67117447D01*
X83809103Y-67125580D01*
X83811419Y-67126539D01*
X83813344Y-67128214D01*
X83824881Y-67132115D01*
X83836139Y-67136779D01*
X83838670Y-67136779D01*
X83841065Y-67137589D01*
X83853218Y-67136779D01*
X83865403Y-67136779D01*
X83867739Y-67135811D01*
X83870263Y-67135643D01*
X83881188Y-67130240D01*
X83892439Y-67125580D01*
X83894225Y-67123793D01*
X83896495Y-67122671D01*
X83904520Y-67113498D01*
X83913131Y-67104888D01*
X83914099Y-67102551D01*
X83915765Y-67100647D01*
X83919666Y-67089109D01*
X83924330Y-67077852D01*
X83924681Y-67074281D01*
X83925140Y-67072926D01*
X83925008Y-67070958D01*
X83925771Y-67063220D01*
X83924642Y-66939910D01*
X83957823Y-66871528D01*
X83988067Y-66840201D01*
X84056818Y-66804798D01*
X84259554Y-66803642D01*
X84328176Y-66836939D01*
X84359504Y-66867184D01*
X84394893Y-66935906D01*
X84396094Y-67186225D01*
X84362767Y-67254910D01*
X84312220Y-67307266D01*
X84301021Y-67334302D01*
X84301021Y-67363565D01*
X84312219Y-67390601D01*
X84332912Y-67411294D01*
X84359948Y-67422493D01*
X84389211Y-67422493D01*
X84416247Y-67411295D01*
X84427612Y-67401968D01*
X84474953Y-67352932D01*
X84481450Y-67347299D01*
X84483429Y-67344153D01*
X84484560Y-67342983D01*
X84485317Y-67341155D01*
X84489282Y-67334856D01*
X84530957Y-67248966D01*
X84532179Y-67247745D01*
X84535848Y-67238885D01*
X84542156Y-67225887D01*
X84542347Y-67223197D01*
X84543378Y-67220709D01*
X84544819Y-67206077D01*
X84543503Y-66931922D01*
X84544230Y-66929743D01*
X84543439Y-66918622D01*
X84543378Y-66905731D01*
X84542347Y-66903242D01*
X84542156Y-66900553D01*
X84536901Y-66886822D01*
X84488209Y-66792267D01*
X84484560Y-66783457D01*
X84482177Y-66780554D01*
X84481450Y-66779141D01*
X84479950Y-66777840D01*
X84475232Y-66772091D01*
X84426195Y-66724749D01*
X84420564Y-66718256D01*
X84417418Y-66716276D01*
X84416247Y-66715145D01*
X84414417Y-66714387D01*
X84408121Y-66710424D01*
X84322232Y-66668749D01*
X84321010Y-66667527D01*
X84312144Y-66663854D01*
X84299151Y-66657550D01*
X84296463Y-66657359D01*
X84293974Y-66656328D01*
X84279342Y-66654887D01*
X84052736Y-66656179D01*
X84050627Y-66655476D01*
X84039684Y-66656253D01*
X84026615Y-66656328D01*
X84024126Y-66657358D01*
X84021437Y-66657550D01*
X84007706Y-66662805D01*
X83913151Y-66711496D01*
X83904341Y-66715146D01*
X83901438Y-66717528D01*
X83900025Y-66718256D01*
X83898725Y-66719754D01*
X83892976Y-66724473D01*
X83845634Y-66773508D01*
X83839140Y-66779141D01*
X83837160Y-66782286D01*
X83836030Y-66783457D01*
X83835272Y-66785284D01*
X83831308Y-66791584D01*
X83789633Y-66877472D01*
X83788411Y-66878695D01*
X83784738Y-66887560D01*
X83778434Y-66900554D01*
X83778413Y-66900842D01*
X83519619Y-66675659D01*
X83511487Y-66667527D01*
X83509170Y-66666567D01*
X83507246Y-66664893D01*
X83495708Y-66660991D01*
X83484451Y-66656328D01*
X83481920Y-66656328D01*
X83479525Y-66655518D01*
X83467372Y-66656328D01*
X83455187Y-66656328D01*
X83452850Y-66657295D01*
X83450327Y-66657464D01*
X83439401Y-66662866D01*
X83428151Y-66667527D01*
X83426364Y-66669313D01*
X83424095Y-66670436D01*
X83416069Y-66679608D01*
X83407459Y-66688219D01*
X83406490Y-66690555D01*
X83404825Y-66692460D01*
X83400923Y-66703997D01*
X83396260Y-66715255D01*
X83395908Y-66718825D01*
X83395450Y-66720181D01*
X83395581Y-66722148D01*
X83394819Y-66729887D01*
X83283708Y-66729887D01*
X83283708Y-66543776D01*
X84655930Y-66543776D01*
X84655930Y-69343128D01*
G37*
G36*
X71955930Y-69196950D02*
G01*
X70583708Y-69196950D01*
X70583708Y-68582268D01*
X70694819Y-68582268D01*
X70696069Y-68677585D01*
X70695408Y-68686886D01*
X70696239Y-68690540D01*
X70696260Y-68692138D01*
X70697018Y-68693969D01*
X70698668Y-68701223D01*
X70743879Y-68833013D01*
X70743879Y-68834994D01*
X70747834Y-68844543D01*
X70752281Y-68857505D01*
X70754046Y-68859540D01*
X70755078Y-68862031D01*
X70764405Y-68873396D01*
X70860172Y-68967333D01*
X70866692Y-68974851D01*
X70869885Y-68976861D01*
X70871008Y-68977962D01*
X70872840Y-68978720D01*
X70879135Y-68982683D01*
X70970367Y-69026951D01*
X70975878Y-69031034D01*
X70986893Y-69034969D01*
X70988104Y-69035557D01*
X70988644Y-69035595D01*
X70989724Y-69035981D01*
X71176089Y-69081221D01*
X71183758Y-69084398D01*
X71192872Y-69085295D01*
X71194744Y-69085750D01*
X71195836Y-69085587D01*
X71198390Y-69085839D01*
X71336969Y-69084571D01*
X71344893Y-69085750D01*
X71353917Y-69084415D01*
X71355879Y-69084398D01*
X71356900Y-69083975D01*
X71359437Y-69083600D01*
X71544135Y-69036082D01*
X71551532Y-69035557D01*
X71562514Y-69031354D01*
X71563759Y-69031034D01*
X71564194Y-69030711D01*
X71565264Y-69030302D01*
X71659816Y-68981611D01*
X71668628Y-68977962D01*
X71671532Y-68975578D01*
X71672945Y-68974851D01*
X71674244Y-68973352D01*
X71679994Y-68968634D01*
X71766479Y-68880464D01*
X71768183Y-68879613D01*
X71774813Y-68871968D01*
X71784561Y-68862031D01*
X71785592Y-68859540D01*
X71787357Y-68857506D01*
X71793351Y-68844080D01*
X71839500Y-68701498D01*
X71843378Y-68692138D01*
X71843748Y-68688374D01*
X71844230Y-68686887D01*
X71844089Y-68684912D01*
X71844819Y-68677506D01*
X71843568Y-68582187D01*
X71844230Y-68572887D01*
X71843398Y-68569232D01*
X71843378Y-68567636D01*
X71842619Y-68565805D01*
X71840970Y-68558550D01*
X71795759Y-68426759D01*
X71795759Y-68424779D01*
X71791804Y-68415231D01*
X71787357Y-68402268D01*
X71785590Y-68400231D01*
X71784560Y-68397743D01*
X71775232Y-68386377D01*
X71716247Y-68329431D01*
X71689211Y-68318233D01*
X71659948Y-68318233D01*
X71632912Y-68329432D01*
X71612219Y-68350125D01*
X71601021Y-68377161D01*
X71601021Y-68406424D01*
X71612220Y-68433460D01*
X71621548Y-68444826D01*
X71656270Y-68478347D01*
X71694934Y-68591053D01*
X71695870Y-68662432D01*
X71658348Y-68778359D01*
X71585558Y-68852567D01*
X71510421Y-68891259D01*
X71336991Y-68935877D01*
X71212219Y-68937019D01*
X71039096Y-68894993D01*
X70959286Y-68856268D01*
X70883562Y-68781991D01*
X70844703Y-68668719D01*
X70843767Y-68597341D01*
X70881376Y-68481148D01*
X70927417Y-68433460D01*
X70938616Y-68406424D01*
X70938616Y-68377161D01*
X70927417Y-68350125D01*
X70906724Y-68329432D01*
X70879688Y-68318233D01*
X70850425Y-68318233D01*
X70823389Y-68329432D01*
X70812024Y-68338759D01*
X70772608Y-68379585D01*
X70771455Y-68380162D01*
X70766181Y-68386241D01*
X70755078Y-68397743D01*
X70754046Y-68400233D01*
X70752281Y-68402269D01*
X70746287Y-68415694D01*
X70700138Y-68558272D01*
X70696260Y-68567636D01*
X70695889Y-68571401D01*
X70695408Y-68572888D01*
X70695548Y-68574862D01*
X70694819Y-68582268D01*
X70583708Y-68582268D01*
X70583708Y-67948588D01*
X70696260Y-67948588D01*
X70696260Y-67977852D01*
X70707459Y-68004888D01*
X70728151Y-68025580D01*
X70755187Y-68036779D01*
X70769819Y-68038220D01*
X71784451Y-68036779D01*
X71811487Y-68025580D01*
X71832179Y-68004888D01*
X71843378Y-67977852D01*
X71844819Y-67963220D01*
X71843378Y-67472398D01*
X71832179Y-67445362D01*
X71811487Y-67424670D01*
X71784451Y-67413471D01*
X71755187Y-67413471D01*
X71728151Y-67424670D01*
X71707459Y-67445362D01*
X71696260Y-67472398D01*
X71694819Y-67487030D01*
X71695997Y-67888324D01*
X70755187Y-67889661D01*
X70728151Y-67900860D01*
X70707459Y-67921552D01*
X70696260Y-67948588D01*
X70583708Y-67948588D01*
X70583708Y-66567637D01*
X70696260Y-66567637D01*
X70696260Y-66596899D01*
X70707459Y-66623936D01*
X70716786Y-66635301D01*
X71144308Y-67061328D01*
X71148322Y-67066680D01*
X71151665Y-67068659D01*
X71162602Y-67079558D01*
X70755187Y-67080137D01*
X70728151Y-67091336D01*
X70707459Y-67112028D01*
X70696260Y-67139064D01*
X70696260Y-67168328D01*
X70707459Y-67195364D01*
X70728151Y-67216056D01*
X70755187Y-67227255D01*
X70769819Y-67228696D01*
X71784451Y-67227255D01*
X71811487Y-67216056D01*
X71832179Y-67195364D01*
X71843378Y-67168328D01*
X71843378Y-67139064D01*
X71832179Y-67112028D01*
X71811487Y-67091336D01*
X71784451Y-67080137D01*
X71769819Y-67078696D01*
X71372801Y-67079259D01*
X71312284Y-67018954D01*
X71825660Y-66632336D01*
X71840570Y-66607155D01*
X71844708Y-66578186D01*
X71837446Y-66549838D01*
X71819887Y-66526427D01*
X71794706Y-66511518D01*
X71765738Y-66507379D01*
X71737389Y-66514641D01*
X71724819Y-66522268D01*
X71205968Y-66913010D01*
X70811487Y-66519908D01*
X70784450Y-66508709D01*
X70755188Y-66508709D01*
X70728151Y-66519908D01*
X70707459Y-66540600D01*
X70696260Y-66567637D01*
X70583708Y-66567637D01*
X70583708Y-66396268D01*
X71955930Y-66396268D01*
X71955930Y-69196950D01*
G37*
D10*
X103070550Y-40933609D02*
X102903884Y-40695514D01*
X102784836Y-40933609D02*
X102784836Y-40433609D01*
X102784836Y-40433609D02*
X102975312Y-40433609D01*
X102975312Y-40433609D02*
X103022931Y-40457419D01*
X103022931Y-40457419D02*
X103046741Y-40481228D01*
X103046741Y-40481228D02*
X103070550Y-40528847D01*
X103070550Y-40528847D02*
X103070550Y-40600276D01*
X103070550Y-40600276D02*
X103046741Y-40647895D01*
X103046741Y-40647895D02*
X103022931Y-40671704D01*
X103022931Y-40671704D02*
X102975312Y-40695514D01*
X102975312Y-40695514D02*
X102784836Y-40695514D01*
X103237217Y-40433609D02*
X103570550Y-40933609D01*
X103570550Y-40433609D02*
X103237217Y-40933609D01*
X102746741Y-41457419D02*
X102699122Y-41433609D01*
X102699122Y-41433609D02*
X102627693Y-41433609D01*
X102627693Y-41433609D02*
X102556265Y-41457419D01*
X102556265Y-41457419D02*
X102508646Y-41505038D01*
X102508646Y-41505038D02*
X102484836Y-41552657D01*
X102484836Y-41552657D02*
X102461027Y-41647895D01*
X102461027Y-41647895D02*
X102461027Y-41719323D01*
X102461027Y-41719323D02*
X102484836Y-41814561D01*
X102484836Y-41814561D02*
X102508646Y-41862180D01*
X102508646Y-41862180D02*
X102556265Y-41909800D01*
X102556265Y-41909800D02*
X102627693Y-41933609D01*
X102627693Y-41933609D02*
X102675312Y-41933609D01*
X102675312Y-41933609D02*
X102746741Y-41909800D01*
X102746741Y-41909800D02*
X102770550Y-41885990D01*
X102770550Y-41885990D02*
X102770550Y-41719323D01*
X102770550Y-41719323D02*
X102675312Y-41719323D01*
X102984836Y-41933609D02*
X102984836Y-41433609D01*
X102984836Y-41433609D02*
X103270550Y-41933609D01*
X103270550Y-41933609D02*
X103270550Y-41433609D01*
X103508646Y-41933609D02*
X103508646Y-41433609D01*
X103508646Y-41433609D02*
X103627694Y-41433609D01*
X103627694Y-41433609D02*
X103699122Y-41457419D01*
X103699122Y-41457419D02*
X103746741Y-41505038D01*
X103746741Y-41505038D02*
X103770551Y-41552657D01*
X103770551Y-41552657D02*
X103794360Y-41647895D01*
X103794360Y-41647895D02*
X103794360Y-41719323D01*
X103794360Y-41719323D02*
X103770551Y-41814561D01*
X103770551Y-41814561D02*
X103746741Y-41862180D01*
X103746741Y-41862180D02*
X103699122Y-41909800D01*
X103699122Y-41909800D02*
X103627694Y-41933609D01*
X103627694Y-41933609D02*
X103508646Y-41933609D01*
D13*
X49840663Y-48550333D02*
X51364473Y-48550333D01*
X50602568Y-49312238D02*
X50602568Y-47788428D01*
D14*
X62005137Y-48537333D02*
X63528947Y-48537333D01*
D15*
%TO.C,J2*%
X69920000Y-69270000D02*
X69920000Y-71930000D01*
X82680000Y-69270000D02*
X69920000Y-69270000D01*
X82680000Y-69270000D02*
X82680000Y-71930000D01*
X82680000Y-71930000D02*
X69920000Y-71930000D01*
X83950000Y-69270000D02*
X85280000Y-69270000D01*
X85280000Y-69270000D02*
X85280000Y-70600000D01*
D16*
%TO.C,J4*%
X105113500Y-38025000D02*
X106682500Y-38025000D01*
X105113500Y-39181000D02*
X105113500Y-38025000D01*
X105113500Y-39181000D02*
X105113500Y-39219000D01*
X105113500Y-40181000D02*
X105113500Y-40219000D01*
X105113500Y-41181000D02*
X105113500Y-41219000D01*
X105113500Y-42181000D02*
X105113500Y-43375000D01*
X105113500Y-43375000D02*
X106682500Y-43375000D01*
X109413500Y-41969000D02*
X109413500Y-39431000D01*
X104685500Y-42585000D02*
G75*
G02*
X104141500Y-42585000I-272000J0D01*
G01*
X104141500Y-42585000D02*
G75*
G02*
X104685500Y-42585000I272000J0D01*
G01*
%TD*%
M02*
