%TF.GenerationSoftware,KiCad,Pcbnew,8.0.2*%
%TF.CreationDate,2024-05-01T20:18:54+08:00*%
%TF.ProjectId,bldcDriver,626c6463-4472-4697-9665-722e6b696361,rev?*%
%TF.SameCoordinates,Original*%
%TF.FileFunction,Drillmap*%
%TF.FilePolarity,Positive*%
%FSLAX45Y45*%
G04 Gerber Fmt 4.5, Leading zero omitted, Abs format (unit mm)*
G04 Created by KiCad (PCBNEW 8.0.2) date 2024-05-01 20:18:54*
%MOMM*%
%LPD*%
G01*
G04 APERTURE LIST*
%ADD10C,0.100000*%
%ADD11C,0.200000*%
G04 APERTURE END LIST*
D10*
X3245500Y-7019000D02*
X3245500Y-3269000D01*
X3445500Y-7219000D02*
G75*
G02*
X3245500Y-7019000I0J200000D01*
G01*
X12023584Y-7219000D02*
X11935500Y-7219000D01*
X12023584Y-3069000D02*
G75*
G02*
X12223580Y-3269000I-4J-200000D01*
G01*
X12223584Y-3269000D02*
X12223584Y-7019000D01*
X3445500Y-3069000D02*
X11935500Y-3069000D01*
X12223584Y-7019000D02*
G75*
G02*
X12023584Y-7219004I-200004J0D01*
G01*
X3245500Y-3269000D02*
G75*
G02*
X3445500Y-3069000I200000J0D01*
G01*
X11935500Y-7219000D02*
X3445500Y-7219000D01*
X11935500Y-3069000D02*
X12023584Y-3069000D01*
D11*
D10*
X3687500Y-6547500D02*
X3712500Y-6572500D01*
X3712500Y-6547500D02*
X3687500Y-6572500D01*
X3687500Y-6597500D02*
X3712500Y-6622500D01*
X3712500Y-6597500D02*
X3687500Y-6622500D01*
X3697500Y-6327500D02*
X3722500Y-6352500D01*
X3722500Y-6327500D02*
X3697500Y-6352500D01*
X3701500Y-4165500D02*
X3726500Y-4190500D01*
X3726500Y-4165500D02*
X3701500Y-4190500D01*
X3737500Y-6547500D02*
X3762500Y-6572500D01*
X3762500Y-6547500D02*
X3737500Y-6572500D01*
X3737500Y-6597500D02*
X3762500Y-6622500D01*
X3762500Y-6597500D02*
X3737500Y-6622500D01*
X3747500Y-6327500D02*
X3772500Y-6352500D01*
X3772500Y-6327500D02*
X3747500Y-6352500D01*
X3767500Y-5447500D02*
X3792500Y-5472500D01*
X3792500Y-5447500D02*
X3767500Y-5472500D01*
X3769375Y-5393125D02*
X3794375Y-5418125D01*
X3794375Y-5393125D02*
X3769375Y-5418125D01*
X3777500Y-4957500D02*
X3802500Y-4982500D01*
X3802500Y-4957500D02*
X3777500Y-4982500D01*
X3777500Y-5107500D02*
X3802500Y-5132500D01*
X3802500Y-5107500D02*
X3777500Y-5132500D01*
X3777500Y-5157500D02*
X3802500Y-5182500D01*
X3802500Y-5157500D02*
X3777500Y-5182500D01*
X3797500Y-4265500D02*
X3822500Y-4290500D01*
X3822500Y-4265500D02*
X3797500Y-4290500D01*
X3797500Y-4897500D02*
X3822500Y-4922500D01*
X3822500Y-4897500D02*
X3797500Y-4922500D01*
X3817500Y-5447500D02*
X3842500Y-5472500D01*
X3842500Y-5447500D02*
X3817500Y-5472500D01*
X3819375Y-5393125D02*
X3844375Y-5418125D01*
X3844375Y-5393125D02*
X3819375Y-5418125D01*
X3827500Y-4957500D02*
X3852500Y-4982500D01*
X3852500Y-4957500D02*
X3827500Y-4982500D01*
X3827500Y-5107500D02*
X3852500Y-5132500D01*
X3852500Y-5107500D02*
X3827500Y-5132500D01*
X3827500Y-5157500D02*
X3852500Y-5182500D01*
X3852500Y-5157500D02*
X3827500Y-5182500D01*
X3847500Y-4897500D02*
X3872500Y-4922500D01*
X3872500Y-4897500D02*
X3847500Y-4922500D01*
X3937750Y-5581500D02*
X3962750Y-5606500D01*
X3962750Y-5581500D02*
X3937750Y-5606500D01*
X4037500Y-5797500D02*
X4062500Y-5822500D01*
X4062500Y-5797500D02*
X4037500Y-5822500D01*
X4037500Y-5847500D02*
X4062500Y-5872500D01*
X4062500Y-5847500D02*
X4037500Y-5872500D01*
X4037500Y-5897500D02*
X4062500Y-5922500D01*
X4062500Y-5897500D02*
X4037500Y-5922500D01*
X4037500Y-5947500D02*
X4062500Y-5972500D01*
X4062500Y-5947500D02*
X4037500Y-5972500D01*
X4037500Y-6557500D02*
X4062500Y-6582500D01*
X4062500Y-6557500D02*
X4037500Y-6582500D01*
X4037500Y-6607500D02*
X4062500Y-6632500D01*
X4062500Y-6607500D02*
X4037500Y-6632500D01*
X4037500Y-6657500D02*
X4062500Y-6682500D01*
X4062500Y-6657500D02*
X4037500Y-6682500D01*
X4037500Y-6707500D02*
X4062500Y-6732500D01*
X4062500Y-6707500D02*
X4037500Y-6732500D01*
X4068250Y-6117500D02*
X4093250Y-6142500D01*
X4093250Y-6117500D02*
X4068250Y-6142500D01*
X4076500Y-6877500D02*
X4101500Y-6902500D01*
X4101500Y-6877500D02*
X4076500Y-6902500D01*
X4087500Y-5047500D02*
X4112500Y-5072500D01*
X4112500Y-5047500D02*
X4087500Y-5072500D01*
X4087500Y-5097500D02*
X4112500Y-5122500D01*
X4112500Y-5097500D02*
X4087500Y-5122500D01*
X4087500Y-5147500D02*
X4112500Y-5172500D01*
X4112500Y-5147500D02*
X4087500Y-5172500D01*
X4087500Y-5197500D02*
X4112500Y-5222500D01*
X4112500Y-5197500D02*
X4087500Y-5222500D01*
X4087500Y-5797500D02*
X4112500Y-5822500D01*
X4112500Y-5797500D02*
X4087500Y-5822500D01*
X4087500Y-5847500D02*
X4112500Y-5872500D01*
X4112500Y-5847500D02*
X4087500Y-5872500D01*
X4087500Y-5897500D02*
X4112500Y-5922500D01*
X4112500Y-5897500D02*
X4087500Y-5922500D01*
X4087500Y-5947500D02*
X4112500Y-5972500D01*
X4112500Y-5947500D02*
X4087500Y-5972500D01*
X4087500Y-6557500D02*
X4112500Y-6582500D01*
X4112500Y-6557500D02*
X4087500Y-6582500D01*
X4087500Y-6607500D02*
X4112500Y-6632500D01*
X4112500Y-6607500D02*
X4087500Y-6632500D01*
X4087500Y-6657500D02*
X4112500Y-6682500D01*
X4112500Y-6657500D02*
X4087500Y-6682500D01*
X4087500Y-6707500D02*
X4112500Y-6732500D01*
X4112500Y-6707500D02*
X4087500Y-6732500D01*
X4137500Y-5047500D02*
X4162500Y-5072500D01*
X4162500Y-5047500D02*
X4137500Y-5072500D01*
X4137500Y-5097500D02*
X4162500Y-5122500D01*
X4162500Y-5097500D02*
X4137500Y-5122500D01*
X4137500Y-5147500D02*
X4162500Y-5172500D01*
X4162500Y-5147500D02*
X4137500Y-5172500D01*
X4137500Y-5197500D02*
X4162500Y-5222500D01*
X4162500Y-5197500D02*
X4137500Y-5222500D01*
X4137500Y-5797500D02*
X4162500Y-5822500D01*
X4162500Y-5797500D02*
X4137500Y-5822500D01*
X4137500Y-5847500D02*
X4162500Y-5872500D01*
X4162500Y-5847500D02*
X4137500Y-5872500D01*
X4137500Y-5897500D02*
X4162500Y-5922500D01*
X4162500Y-5897500D02*
X4137500Y-5922500D01*
X4137500Y-5947500D02*
X4162500Y-5972500D01*
X4162500Y-5947500D02*
X4137500Y-5972500D01*
X4137500Y-6557500D02*
X4162500Y-6582500D01*
X4162500Y-6557500D02*
X4137500Y-6582500D01*
X4137500Y-6607500D02*
X4162500Y-6632500D01*
X4162500Y-6607500D02*
X4137500Y-6632500D01*
X4137500Y-6657500D02*
X4162500Y-6682500D01*
X4162500Y-6657500D02*
X4137500Y-6682500D01*
X4137500Y-6707500D02*
X4162500Y-6732500D01*
X4162500Y-6707500D02*
X4137500Y-6732500D01*
X4187500Y-5047500D02*
X4212500Y-5072500D01*
X4212500Y-5047500D02*
X4187500Y-5072500D01*
X4187500Y-5097500D02*
X4212500Y-5122500D01*
X4212500Y-5097500D02*
X4187500Y-5122500D01*
X4187500Y-5147500D02*
X4212500Y-5172500D01*
X4212500Y-5147500D02*
X4187500Y-5172500D01*
X4187500Y-5197500D02*
X4212500Y-5222500D01*
X4212500Y-5197500D02*
X4187500Y-5222500D01*
X4447500Y-6557500D02*
X4472500Y-6582500D01*
X4472500Y-6557500D02*
X4447500Y-6582500D01*
X4447500Y-6607500D02*
X4472500Y-6632500D01*
X4472500Y-6607500D02*
X4447500Y-6632500D01*
X4447500Y-6657500D02*
X4472500Y-6682500D01*
X4472500Y-6657500D02*
X4447500Y-6682500D01*
X4447500Y-6707500D02*
X4472500Y-6732500D01*
X4472500Y-6707500D02*
X4447500Y-6732500D01*
X4464250Y-6116500D02*
X4489250Y-6141500D01*
X4489250Y-6116500D02*
X4464250Y-6141500D01*
X4482750Y-7077500D02*
X4507750Y-7102500D01*
X4507750Y-7077500D02*
X4482750Y-7102500D01*
X4487500Y-5047500D02*
X4512500Y-5072500D01*
X4512500Y-5047500D02*
X4487500Y-5072500D01*
X4487500Y-5097500D02*
X4512500Y-5122500D01*
X4512500Y-5097500D02*
X4487500Y-5122500D01*
X4487500Y-5147500D02*
X4512500Y-5172500D01*
X4512500Y-5147500D02*
X4487500Y-5172500D01*
X4487500Y-5197500D02*
X4512500Y-5222500D01*
X4512500Y-5197500D02*
X4487500Y-5222500D01*
X4497500Y-6557500D02*
X4522500Y-6582500D01*
X4522500Y-6557500D02*
X4497500Y-6582500D01*
X4497500Y-6607500D02*
X4522500Y-6632500D01*
X4522500Y-6607500D02*
X4497500Y-6632500D01*
X4497500Y-6657500D02*
X4522500Y-6682500D01*
X4522500Y-6657500D02*
X4497500Y-6682500D01*
X4497500Y-6707500D02*
X4522500Y-6732500D01*
X4522500Y-6707500D02*
X4497500Y-6732500D01*
X4537500Y-5047500D02*
X4562500Y-5072500D01*
X4562500Y-5047500D02*
X4537500Y-5072500D01*
X4537500Y-5097500D02*
X4562500Y-5122500D01*
X4562500Y-5097500D02*
X4537500Y-5122500D01*
X4537500Y-5147500D02*
X4562500Y-5172500D01*
X4562500Y-5147500D02*
X4537500Y-5172500D01*
X4537500Y-5197500D02*
X4562500Y-5222500D01*
X4562500Y-5197500D02*
X4537500Y-5222500D01*
X4547500Y-6557500D02*
X4572500Y-6582500D01*
X4572500Y-6557500D02*
X4547500Y-6582500D01*
X4547500Y-6607500D02*
X4572500Y-6632500D01*
X4572500Y-6607500D02*
X4547500Y-6632500D01*
X4547500Y-6657500D02*
X4572500Y-6682500D01*
X4572500Y-6657500D02*
X4547500Y-6682500D01*
X4547500Y-6707500D02*
X4572500Y-6732500D01*
X4572500Y-6707500D02*
X4547500Y-6732500D01*
X4587500Y-5047500D02*
X4612500Y-5072500D01*
X4612500Y-5047500D02*
X4587500Y-5072500D01*
X4587500Y-5097500D02*
X4612500Y-5122500D01*
X4612500Y-5097500D02*
X4587500Y-5122500D01*
X4587500Y-5147500D02*
X4612500Y-5172500D01*
X4612500Y-5147500D02*
X4587500Y-5172500D01*
X4587500Y-5197500D02*
X4612500Y-5222500D01*
X4612500Y-5197500D02*
X4587500Y-5222500D01*
X4750378Y-5350882D02*
X4775378Y-5375882D01*
X4775378Y-5350882D02*
X4750378Y-5375882D01*
X4897500Y-5967500D02*
X4922500Y-5992500D01*
X4922500Y-5967500D02*
X4897500Y-5992500D01*
X4987500Y-6337500D02*
X5012500Y-6362500D01*
X5012500Y-6337500D02*
X4987500Y-6362500D01*
X4997250Y-5438500D02*
X5022250Y-5463500D01*
X5022250Y-5438500D02*
X4997250Y-5463500D01*
X5052010Y-6250450D02*
X5077010Y-6275450D01*
X5077010Y-6250450D02*
X5052010Y-6275450D01*
X5135563Y-6051692D02*
X5160563Y-6076692D01*
X5160563Y-6051692D02*
X5135563Y-6076692D01*
X5169750Y-5455000D02*
X5194750Y-5480000D01*
X5194750Y-5455000D02*
X5169750Y-5480000D01*
X5220400Y-5852850D02*
X5245400Y-5877850D01*
X5245400Y-5852850D02*
X5220400Y-5877850D01*
X5777500Y-6371050D02*
X5802500Y-6396050D01*
X5802500Y-6371050D02*
X5777500Y-6396050D01*
X5794600Y-5852850D02*
X5819600Y-5877850D01*
X5819600Y-5852850D02*
X5794600Y-5877850D01*
X5794600Y-6047850D02*
X5819600Y-6072850D01*
X5819600Y-6047850D02*
X5794600Y-6072850D01*
X5827500Y-6307500D02*
X5852500Y-6332500D01*
X5852500Y-6307500D02*
X5827500Y-6332500D01*
X5954978Y-5914978D02*
X5979978Y-5939978D01*
X5979978Y-5914978D02*
X5954978Y-5939978D01*
X6024540Y-5828396D02*
X6049540Y-5853396D01*
X6049540Y-5828396D02*
X6024540Y-5853396D01*
X6401250Y-5947500D02*
X6426250Y-5972500D01*
X6426250Y-5947500D02*
X6401250Y-5972500D01*
X6835771Y-4435771D02*
X6860771Y-4460771D01*
X6860771Y-4435771D02*
X6835771Y-4460771D01*
X6887500Y-4372414D02*
X6912500Y-4397414D01*
X6912500Y-4372414D02*
X6887500Y-4397414D01*
X7060000Y-5350500D02*
X7085000Y-5375500D01*
X7085000Y-5350500D02*
X7060000Y-5375500D01*
X7239859Y-4260098D02*
X7264859Y-4285098D01*
X7264859Y-4260098D02*
X7239859Y-4285098D01*
X7248027Y-4501048D02*
X7273027Y-4526048D01*
X7273027Y-4501048D02*
X7248027Y-4526048D01*
X7264543Y-4569072D02*
X7289543Y-4594072D01*
X7289543Y-4569072D02*
X7264543Y-4594072D01*
X7275172Y-4641706D02*
X7300172Y-4666706D01*
X7300172Y-4641706D02*
X7275172Y-4666706D01*
X7280775Y-4372414D02*
X7305775Y-4397414D01*
X7305775Y-4372414D02*
X7280775Y-4397414D01*
X7289944Y-4445096D02*
X7314944Y-4470096D01*
X7314944Y-4445096D02*
X7289944Y-4470096D01*
X7410000Y-6007500D02*
X7435000Y-6032500D01*
X7435000Y-6007500D02*
X7410000Y-6032500D01*
X7805000Y-6007500D02*
X7830000Y-6032500D01*
X7830000Y-6007500D02*
X7805000Y-6032500D01*
X7811351Y-4811000D02*
X7836351Y-4836000D01*
X7836351Y-4811000D02*
X7811351Y-4836000D01*
X7877500Y-6587500D02*
X7902500Y-6612500D01*
X7902500Y-6587500D02*
X7877500Y-6612500D01*
X7894858Y-4811000D02*
X7919858Y-4836000D01*
X7919858Y-4811000D02*
X7894858Y-4836000D01*
X7990000Y-4033750D02*
X8015000Y-4058750D01*
X8015000Y-4033750D02*
X7990000Y-4058750D01*
X8017500Y-4811000D02*
X8042500Y-4836000D01*
X8042500Y-4811000D02*
X8017500Y-4836000D01*
X9077500Y-4255000D02*
X9102500Y-4280000D01*
X9102500Y-4255000D02*
X9077500Y-4280000D01*
X9227500Y-4255000D02*
X9252500Y-4280000D01*
X9252500Y-4255000D02*
X9227500Y-4280000D01*
X9446500Y-3346250D02*
X9471500Y-3371250D01*
X9471500Y-3346250D02*
X9446500Y-3371250D01*
X9464917Y-3658042D02*
X9489917Y-3683042D01*
X9489917Y-3658042D02*
X9464917Y-3683042D01*
X9680400Y-6007150D02*
X9705400Y-6032150D01*
X9705400Y-6007150D02*
X9680400Y-6032150D01*
X9680400Y-6267150D02*
X9705400Y-6292150D01*
X9705400Y-6267150D02*
X9680400Y-6292150D01*
X9687500Y-6460350D02*
X9712500Y-6485350D01*
X9712500Y-6460350D02*
X9687500Y-6485350D01*
X9722850Y-5942150D02*
X9747850Y-5967150D01*
X9747850Y-5942150D02*
X9722850Y-5967150D01*
X10337500Y-5937500D02*
X10362500Y-5962500D01*
X10362500Y-5937500D02*
X10337500Y-5962500D01*
X10476750Y-6368298D02*
X10501750Y-6393298D01*
X10501750Y-6368298D02*
X10476750Y-6393298D01*
X10587500Y-6037500D02*
X10612500Y-6062500D01*
X10612500Y-6037500D02*
X10587500Y-6062500D01*
X10877500Y-6207500D02*
X10902500Y-6232500D01*
X10902500Y-6207500D02*
X10877500Y-6232500D01*
X10877500Y-6257500D02*
X10902500Y-6282500D01*
X10902500Y-6257500D02*
X10877500Y-6282500D01*
X10877500Y-6307500D02*
X10902500Y-6332500D01*
X10902500Y-6307500D02*
X10877500Y-6332500D01*
X10877500Y-6357500D02*
X10902500Y-6382500D01*
X10902500Y-6357500D02*
X10877500Y-6382500D01*
X10907500Y-5457500D02*
X10932500Y-5482500D01*
X10932500Y-5457500D02*
X10907500Y-5482500D01*
X10907500Y-5507500D02*
X10932500Y-5532500D01*
X10932500Y-5507500D02*
X10907500Y-5532500D01*
X10907500Y-5557500D02*
X10932500Y-5582500D01*
X10932500Y-5557500D02*
X10907500Y-5582500D01*
X10907500Y-5607500D02*
X10932500Y-5632500D01*
X10932500Y-5607500D02*
X10907500Y-5632500D01*
X10907500Y-6937500D02*
X10932500Y-6962500D01*
X10932500Y-6937500D02*
X10907500Y-6962500D01*
X10907500Y-6987500D02*
X10932500Y-7012500D01*
X10932500Y-6987500D02*
X10907500Y-7012500D01*
X10907500Y-7037500D02*
X10932500Y-7062500D01*
X10932500Y-7037500D02*
X10907500Y-7062500D01*
X10907500Y-7087500D02*
X10932500Y-7112500D01*
X10932500Y-7087500D02*
X10907500Y-7112500D01*
X10927500Y-6207500D02*
X10952500Y-6232500D01*
X10952500Y-6207500D02*
X10927500Y-6232500D01*
X10927500Y-6257500D02*
X10952500Y-6282500D01*
X10952500Y-6257500D02*
X10927500Y-6282500D01*
X10927500Y-6307500D02*
X10952500Y-6332500D01*
X10952500Y-6307500D02*
X10927500Y-6332500D01*
X10927500Y-6357500D02*
X10952500Y-6382500D01*
X10952500Y-6357500D02*
X10927500Y-6382500D01*
X10957500Y-5457500D02*
X10982500Y-5482500D01*
X10982500Y-5457500D02*
X10957500Y-5482500D01*
X10957500Y-5507500D02*
X10982500Y-5532500D01*
X10982500Y-5507500D02*
X10957500Y-5532500D01*
X10957500Y-5557500D02*
X10982500Y-5582500D01*
X10982500Y-5557500D02*
X10957500Y-5582500D01*
X10957500Y-5607500D02*
X10982500Y-5632500D01*
X10982500Y-5607500D02*
X10957500Y-5632500D01*
X10957500Y-6937500D02*
X10982500Y-6962500D01*
X10982500Y-6937500D02*
X10957500Y-6962500D01*
X10957500Y-6987500D02*
X10982500Y-7012500D01*
X10982500Y-6987500D02*
X10957500Y-7012500D01*
X10957500Y-7037500D02*
X10982500Y-7062500D01*
X10982500Y-7037500D02*
X10957500Y-7062500D01*
X10957500Y-7087500D02*
X10982500Y-7112500D01*
X10982500Y-7087500D02*
X10957500Y-7112500D01*
X10977500Y-6207500D02*
X11002500Y-6232500D01*
X11002500Y-6207500D02*
X10977500Y-6232500D01*
X10977500Y-6257500D02*
X11002500Y-6282500D01*
X11002500Y-6257500D02*
X10977500Y-6282500D01*
X10977500Y-6307500D02*
X11002500Y-6332500D01*
X11002500Y-6307500D02*
X10977500Y-6332500D01*
X10977500Y-6357500D02*
X11002500Y-6382500D01*
X11002500Y-6357500D02*
X10977500Y-6382500D01*
X11007500Y-5457500D02*
X11032500Y-5482500D01*
X11032500Y-5457500D02*
X11007500Y-5482500D01*
X11007500Y-5507500D02*
X11032500Y-5532500D01*
X11032500Y-5507500D02*
X11007500Y-5532500D01*
X11007500Y-5557500D02*
X11032500Y-5582500D01*
X11032500Y-5557500D02*
X11007500Y-5582500D01*
X11007500Y-5607500D02*
X11032500Y-5632500D01*
X11032500Y-5607500D02*
X11007500Y-5632500D01*
X11007500Y-6937500D02*
X11032500Y-6962500D01*
X11032500Y-6937500D02*
X11007500Y-6962500D01*
X11007500Y-6987500D02*
X11032500Y-7012500D01*
X11032500Y-6987500D02*
X11007500Y-7012500D01*
X11007500Y-7037500D02*
X11032500Y-7062500D01*
X11032500Y-7037500D02*
X11007500Y-7062500D01*
X11007500Y-7087500D02*
X11032500Y-7112500D01*
X11032500Y-7087500D02*
X11007500Y-7112500D01*
X11043400Y-6594648D02*
X11068400Y-6619648D01*
X11068400Y-6594648D02*
X11043400Y-6619648D01*
X11287500Y-6197500D02*
X11312500Y-6222500D01*
X11312500Y-6197500D02*
X11287500Y-6222500D01*
X11287500Y-6247500D02*
X11312500Y-6272500D01*
X11312500Y-6247500D02*
X11287500Y-6272500D01*
X11287500Y-6297500D02*
X11312500Y-6322500D01*
X11312500Y-6297500D02*
X11287500Y-6322500D01*
X11287500Y-6347500D02*
X11312500Y-6372500D01*
X11312500Y-6347500D02*
X11287500Y-6372500D01*
X11307500Y-6947500D02*
X11332500Y-6972500D01*
X11332500Y-6947500D02*
X11307500Y-6972500D01*
X11307500Y-6997500D02*
X11332500Y-7022500D01*
X11332500Y-6997500D02*
X11307500Y-7022500D01*
X11307500Y-7047500D02*
X11332500Y-7072500D01*
X11332500Y-7047500D02*
X11307500Y-7072500D01*
X11307500Y-7097500D02*
X11332500Y-7122500D01*
X11332500Y-7097500D02*
X11307500Y-7122500D01*
X11317500Y-5457500D02*
X11342500Y-5482500D01*
X11342500Y-5457500D02*
X11317500Y-5482500D01*
X11317500Y-5507500D02*
X11342500Y-5532500D01*
X11342500Y-5507500D02*
X11317500Y-5532500D01*
X11317500Y-5557500D02*
X11342500Y-5582500D01*
X11342500Y-5557500D02*
X11317500Y-5582500D01*
X11317500Y-5607500D02*
X11342500Y-5632500D01*
X11342500Y-5607500D02*
X11317500Y-5632500D01*
X11337500Y-6197500D02*
X11362500Y-6222500D01*
X11362500Y-6197500D02*
X11337500Y-6222500D01*
X11337500Y-6247500D02*
X11362500Y-6272500D01*
X11362500Y-6247500D02*
X11337500Y-6272500D01*
X11337500Y-6297500D02*
X11362500Y-6322500D01*
X11362500Y-6297500D02*
X11337500Y-6322500D01*
X11337500Y-6347500D02*
X11362500Y-6372500D01*
X11362500Y-6347500D02*
X11337500Y-6372500D01*
X11357500Y-6947500D02*
X11382500Y-6972500D01*
X11382500Y-6947500D02*
X11357500Y-6972500D01*
X11357500Y-6997500D02*
X11382500Y-7022500D01*
X11382500Y-6997500D02*
X11357500Y-7022500D01*
X11357500Y-7047500D02*
X11382500Y-7072500D01*
X11382500Y-7047500D02*
X11357500Y-7072500D01*
X11357500Y-7097500D02*
X11382500Y-7122500D01*
X11382500Y-7097500D02*
X11357500Y-7122500D01*
X11367500Y-5457500D02*
X11392500Y-5482500D01*
X11392500Y-5457500D02*
X11367500Y-5482500D01*
X11367500Y-5507500D02*
X11392500Y-5532500D01*
X11392500Y-5507500D02*
X11367500Y-5532500D01*
X11367500Y-5557500D02*
X11392500Y-5582500D01*
X11392500Y-5557500D02*
X11367500Y-5582500D01*
X11367500Y-5607500D02*
X11392500Y-5632500D01*
X11392500Y-5607500D02*
X11367500Y-5632500D01*
X11387500Y-6197500D02*
X11412500Y-6222500D01*
X11412500Y-6197500D02*
X11387500Y-6222500D01*
X11387500Y-6247500D02*
X11412500Y-6272500D01*
X11412500Y-6247500D02*
X11387500Y-6272500D01*
X11387500Y-6297500D02*
X11412500Y-6322500D01*
X11412500Y-6297500D02*
X11387500Y-6322500D01*
X11387500Y-6347500D02*
X11412500Y-6372500D01*
X11412500Y-6347500D02*
X11387500Y-6372500D01*
X11407500Y-6947500D02*
X11432500Y-6972500D01*
X11432500Y-6947500D02*
X11407500Y-6972500D01*
X11407500Y-6997500D02*
X11432500Y-7022500D01*
X11432500Y-6997500D02*
X11407500Y-7022500D01*
X11407500Y-7047500D02*
X11432500Y-7072500D01*
X11432500Y-7047500D02*
X11407500Y-7072500D01*
X11407500Y-7097500D02*
X11432500Y-7122500D01*
X11432500Y-7097500D02*
X11407500Y-7122500D01*
X11417500Y-5457500D02*
X11442500Y-5482500D01*
X11442500Y-5457500D02*
X11417500Y-5482500D01*
X11417500Y-5507500D02*
X11442500Y-5532500D01*
X11442500Y-5507500D02*
X11417500Y-5532500D01*
X11417500Y-5557500D02*
X11442500Y-5582500D01*
X11442500Y-5557500D02*
X11417500Y-5582500D01*
X11417500Y-5607500D02*
X11442500Y-5632500D01*
X11442500Y-5607500D02*
X11417500Y-5632500D01*
X11711250Y-6407500D02*
X11736250Y-6432500D01*
X11736250Y-6407500D02*
X11711250Y-6432500D01*
X11711250Y-6457500D02*
X11736250Y-6482500D01*
X11736250Y-6457500D02*
X11711250Y-6482500D01*
X11711250Y-6627500D02*
X11736250Y-6652500D01*
X11736250Y-6627500D02*
X11711250Y-6652500D01*
X11747500Y-5107500D02*
X11772500Y-5132500D01*
X11772500Y-5107500D02*
X11747500Y-5132500D01*
X11747500Y-5157500D02*
X11772500Y-5182500D01*
X11772500Y-5157500D02*
X11747500Y-5182500D01*
X11757500Y-5387500D02*
X11782500Y-5412500D01*
X11782500Y-5387500D02*
X11757500Y-5412500D01*
X11757500Y-5437500D02*
X11782500Y-5462500D01*
X11782500Y-5437500D02*
X11757500Y-5462500D01*
X11757500Y-5657500D02*
X11782500Y-5682500D01*
X11782500Y-5657500D02*
X11757500Y-5682500D01*
X11757500Y-5707500D02*
X11782500Y-5732500D01*
X11782500Y-5707500D02*
X11757500Y-5732500D01*
X11761250Y-6407500D02*
X11786250Y-6432500D01*
X11786250Y-6407500D02*
X11761250Y-6432500D01*
X11761250Y-6457500D02*
X11786250Y-6482500D01*
X11786250Y-6457500D02*
X11761250Y-6482500D01*
X11761250Y-6627500D02*
X11786250Y-6652500D01*
X11786250Y-6627500D02*
X11761250Y-6652500D01*
X11797500Y-5107500D02*
X11822500Y-5132500D01*
X11822500Y-5107500D02*
X11797500Y-5132500D01*
X11797500Y-5157500D02*
X11822500Y-5182500D01*
X11822500Y-5157500D02*
X11797500Y-5182500D01*
X11807500Y-5387500D02*
X11832500Y-5412500D01*
X11832500Y-5387500D02*
X11807500Y-5412500D01*
X11807500Y-5437500D02*
X11832500Y-5462500D01*
X11832500Y-5437500D02*
X11807500Y-5462500D01*
X11807500Y-5657500D02*
X11832500Y-5682500D01*
X11832500Y-5657500D02*
X11807500Y-5682500D01*
X11807500Y-5707500D02*
X11832500Y-5732500D01*
X11832500Y-5707500D02*
X11807500Y-5732500D01*
X3785000Y-3970000D02*
G75*
G02*
X3755000Y-3970000I-15000J0D01*
G01*
X3755000Y-3970000D02*
G75*
G02*
X3785000Y-3970000I15000J0D01*
G01*
X6495000Y-3190000D02*
G75*
G02*
X6465000Y-3190000I-15000J0D01*
G01*
X6465000Y-3190000D02*
G75*
G02*
X6495000Y-3190000I15000J0D01*
G01*
X7087500Y-5109000D02*
G75*
G02*
X7057500Y-5109000I-15000J0D01*
G01*
X7057500Y-5109000D02*
G75*
G02*
X7087500Y-5109000I15000J0D01*
G01*
X7865000Y-6318750D02*
G75*
G02*
X7835000Y-6318750I-15000J0D01*
G01*
X7835000Y-6318750D02*
G75*
G02*
X7865000Y-6318750I15000J0D01*
G01*
X7937500Y-5576000D02*
G75*
G02*
X7907500Y-5576000I-15000J0D01*
G01*
X7907500Y-5576000D02*
G75*
G02*
X7937500Y-5576000I15000J0D01*
G01*
X8356250Y-6720000D02*
G75*
G02*
X8326250Y-6720000I-15000J0D01*
G01*
X8326250Y-6720000D02*
G75*
G02*
X8356250Y-6720000I15000J0D01*
G01*
X8937834Y-5587166D02*
G75*
G02*
X8907834Y-5587166I-15000J0D01*
G01*
X8907834Y-5587166D02*
G75*
G02*
X8937834Y-5587166I15000J0D01*
G01*
X9085000Y-5720000D02*
G75*
G02*
X9055000Y-5720000I-15000J0D01*
G01*
X9055000Y-5720000D02*
G75*
G02*
X9085000Y-5720000I15000J0D01*
G01*
X10984250Y-6041148D02*
G75*
G02*
X10954250Y-6041148I-15000J0D01*
G01*
X10954250Y-6041148D02*
G75*
G02*
X10984250Y-6041148I15000J0D01*
G01*
X11020250Y-5299148D02*
G75*
G02*
X10990250Y-5299148I-15000J0D01*
G01*
X10990250Y-5299148D02*
G75*
G02*
X11020250Y-5299148I15000J0D01*
G01*
X7486250Y-4870000D02*
X7486250Y-4910000D01*
X7466250Y-4890000D02*
X7506250Y-4890000D01*
X8263750Y-4710000D02*
X8263750Y-4750000D01*
X8243750Y-4730000D02*
X8283750Y-4730000D01*
X4901213Y-3961213D02*
X4901213Y-3918787D01*
X4858787Y-3918787D01*
X4858787Y-3961213D01*
X4901213Y-3961213D01*
X5131213Y-3971213D02*
X5131213Y-3928787D01*
X5088787Y-3928787D01*
X5088787Y-3971213D01*
X5131213Y-3971213D01*
X5311213Y-3971213D02*
X5311213Y-3928787D01*
X5268787Y-3928787D01*
X5268787Y-3971213D01*
X5311213Y-3971213D01*
X5611213Y-5221213D02*
X5611213Y-5178787D01*
X5568787Y-5178787D01*
X5568787Y-5221213D01*
X5611213Y-5221213D01*
X5661213Y-6861213D02*
X5661213Y-6818787D01*
X5618787Y-6818787D01*
X5618787Y-6861213D01*
X5661213Y-6861213D01*
X5911213Y-6841213D02*
X5911213Y-6798787D01*
X5868787Y-6798787D01*
X5868787Y-6841213D01*
X5911213Y-6841213D01*
X9751213Y-5371213D02*
X9751213Y-5328787D01*
X9708787Y-5328787D01*
X9708787Y-5371213D01*
X9751213Y-5371213D01*
X9871213Y-7054713D02*
X9871213Y-7012287D01*
X9828787Y-7012287D01*
X9828787Y-7054713D01*
X9871213Y-7054713D01*
X9991213Y-5381213D02*
X9991213Y-5338787D01*
X9948787Y-5338787D01*
X9948787Y-5381213D01*
X9991213Y-5381213D01*
D11*
X3501277Y-7535484D02*
X3501277Y-7335484D01*
X3501277Y-7335484D02*
X3548896Y-7335484D01*
X3548896Y-7335484D02*
X3577467Y-7345008D01*
X3577467Y-7345008D02*
X3596515Y-7364055D01*
X3596515Y-7364055D02*
X3606038Y-7383103D01*
X3606038Y-7383103D02*
X3615562Y-7421198D01*
X3615562Y-7421198D02*
X3615562Y-7449769D01*
X3615562Y-7449769D02*
X3606038Y-7487865D01*
X3606038Y-7487865D02*
X3596515Y-7506912D01*
X3596515Y-7506912D02*
X3577467Y-7525960D01*
X3577467Y-7525960D02*
X3548896Y-7535484D01*
X3548896Y-7535484D02*
X3501277Y-7535484D01*
X3701277Y-7535484D02*
X3701277Y-7402150D01*
X3701277Y-7440246D02*
X3710800Y-7421198D01*
X3710800Y-7421198D02*
X3720324Y-7411674D01*
X3720324Y-7411674D02*
X3739372Y-7402150D01*
X3739372Y-7402150D02*
X3758419Y-7402150D01*
X3825086Y-7535484D02*
X3825086Y-7402150D01*
X3825086Y-7335484D02*
X3815562Y-7345008D01*
X3815562Y-7345008D02*
X3825086Y-7354531D01*
X3825086Y-7354531D02*
X3834610Y-7345008D01*
X3834610Y-7345008D02*
X3825086Y-7335484D01*
X3825086Y-7335484D02*
X3825086Y-7354531D01*
X3948896Y-7535484D02*
X3929848Y-7525960D01*
X3929848Y-7525960D02*
X3920324Y-7506912D01*
X3920324Y-7506912D02*
X3920324Y-7335484D01*
X4053657Y-7535484D02*
X4034610Y-7525960D01*
X4034610Y-7525960D02*
X4025086Y-7506912D01*
X4025086Y-7506912D02*
X4025086Y-7335484D01*
X4282229Y-7535484D02*
X4282229Y-7335484D01*
X4282229Y-7335484D02*
X4348896Y-7478341D01*
X4348896Y-7478341D02*
X4415562Y-7335484D01*
X4415562Y-7335484D02*
X4415562Y-7535484D01*
X4596515Y-7535484D02*
X4596515Y-7430722D01*
X4596515Y-7430722D02*
X4586991Y-7411674D01*
X4586991Y-7411674D02*
X4567943Y-7402150D01*
X4567943Y-7402150D02*
X4529848Y-7402150D01*
X4529848Y-7402150D02*
X4510800Y-7411674D01*
X4596515Y-7525960D02*
X4577467Y-7535484D01*
X4577467Y-7535484D02*
X4529848Y-7535484D01*
X4529848Y-7535484D02*
X4510800Y-7525960D01*
X4510800Y-7525960D02*
X4501277Y-7506912D01*
X4501277Y-7506912D02*
X4501277Y-7487865D01*
X4501277Y-7487865D02*
X4510800Y-7468817D01*
X4510800Y-7468817D02*
X4529848Y-7459293D01*
X4529848Y-7459293D02*
X4577467Y-7459293D01*
X4577467Y-7459293D02*
X4596515Y-7449769D01*
X4691753Y-7402150D02*
X4691753Y-7602150D01*
X4691753Y-7411674D02*
X4710800Y-7402150D01*
X4710800Y-7402150D02*
X4748896Y-7402150D01*
X4748896Y-7402150D02*
X4767943Y-7411674D01*
X4767943Y-7411674D02*
X4777467Y-7421198D01*
X4777467Y-7421198D02*
X4786991Y-7440246D01*
X4786991Y-7440246D02*
X4786991Y-7497388D01*
X4786991Y-7497388D02*
X4777467Y-7516436D01*
X4777467Y-7516436D02*
X4767943Y-7525960D01*
X4767943Y-7525960D02*
X4748896Y-7535484D01*
X4748896Y-7535484D02*
X4710800Y-7535484D01*
X4710800Y-7535484D02*
X4691753Y-7525960D01*
X4872705Y-7516436D02*
X4882229Y-7525960D01*
X4882229Y-7525960D02*
X4872705Y-7535484D01*
X4872705Y-7535484D02*
X4863181Y-7525960D01*
X4863181Y-7525960D02*
X4872705Y-7516436D01*
X4872705Y-7516436D02*
X4872705Y-7535484D01*
X4872705Y-7411674D02*
X4882229Y-7421198D01*
X4882229Y-7421198D02*
X4872705Y-7430722D01*
X4872705Y-7430722D02*
X4863181Y-7421198D01*
X4863181Y-7421198D02*
X4872705Y-7411674D01*
X4872705Y-7411674D02*
X4872705Y-7430722D01*
D10*
X3215500Y-7851500D02*
X3240500Y-7876500D01*
X3240500Y-7851500D02*
X3215500Y-7876500D01*
D11*
X3539372Y-7755484D02*
X3558419Y-7755484D01*
X3558419Y-7755484D02*
X3577467Y-7765008D01*
X3577467Y-7765008D02*
X3586991Y-7774531D01*
X3586991Y-7774531D02*
X3596515Y-7793579D01*
X3596515Y-7793579D02*
X3606038Y-7831674D01*
X3606038Y-7831674D02*
X3606038Y-7879293D01*
X3606038Y-7879293D02*
X3596515Y-7917388D01*
X3596515Y-7917388D02*
X3586991Y-7936436D01*
X3586991Y-7936436D02*
X3577467Y-7945960D01*
X3577467Y-7945960D02*
X3558419Y-7955484D01*
X3558419Y-7955484D02*
X3539372Y-7955484D01*
X3539372Y-7955484D02*
X3520324Y-7945960D01*
X3520324Y-7945960D02*
X3510800Y-7936436D01*
X3510800Y-7936436D02*
X3501277Y-7917388D01*
X3501277Y-7917388D02*
X3491753Y-7879293D01*
X3491753Y-7879293D02*
X3491753Y-7831674D01*
X3491753Y-7831674D02*
X3501277Y-7793579D01*
X3501277Y-7793579D02*
X3510800Y-7774531D01*
X3510800Y-7774531D02*
X3520324Y-7765008D01*
X3520324Y-7765008D02*
X3539372Y-7755484D01*
X3691753Y-7936436D02*
X3701277Y-7945960D01*
X3701277Y-7945960D02*
X3691753Y-7955484D01*
X3691753Y-7955484D02*
X3682229Y-7945960D01*
X3682229Y-7945960D02*
X3691753Y-7936436D01*
X3691753Y-7936436D02*
X3691753Y-7955484D01*
X3777467Y-7774531D02*
X3786991Y-7765008D01*
X3786991Y-7765008D02*
X3806038Y-7755484D01*
X3806038Y-7755484D02*
X3853658Y-7755484D01*
X3853658Y-7755484D02*
X3872705Y-7765008D01*
X3872705Y-7765008D02*
X3882229Y-7774531D01*
X3882229Y-7774531D02*
X3891753Y-7793579D01*
X3891753Y-7793579D02*
X3891753Y-7812627D01*
X3891753Y-7812627D02*
X3882229Y-7841198D01*
X3882229Y-7841198D02*
X3767943Y-7955484D01*
X3767943Y-7955484D02*
X3891753Y-7955484D01*
X4072705Y-7755484D02*
X3977467Y-7755484D01*
X3977467Y-7755484D02*
X3967943Y-7850722D01*
X3967943Y-7850722D02*
X3977467Y-7841198D01*
X3977467Y-7841198D02*
X3996515Y-7831674D01*
X3996515Y-7831674D02*
X4044134Y-7831674D01*
X4044134Y-7831674D02*
X4063181Y-7841198D01*
X4063181Y-7841198D02*
X4072705Y-7850722D01*
X4072705Y-7850722D02*
X4082229Y-7869769D01*
X4082229Y-7869769D02*
X4082229Y-7917388D01*
X4082229Y-7917388D02*
X4072705Y-7936436D01*
X4072705Y-7936436D02*
X4063181Y-7945960D01*
X4063181Y-7945960D02*
X4044134Y-7955484D01*
X4044134Y-7955484D02*
X3996515Y-7955484D01*
X3996515Y-7955484D02*
X3977467Y-7945960D01*
X3977467Y-7945960D02*
X3967943Y-7936436D01*
X4206039Y-7755484D02*
X4225086Y-7755484D01*
X4225086Y-7755484D02*
X4244134Y-7765008D01*
X4244134Y-7765008D02*
X4253658Y-7774531D01*
X4253658Y-7774531D02*
X4263181Y-7793579D01*
X4263181Y-7793579D02*
X4272705Y-7831674D01*
X4272705Y-7831674D02*
X4272705Y-7879293D01*
X4272705Y-7879293D02*
X4263181Y-7917388D01*
X4263181Y-7917388D02*
X4253658Y-7936436D01*
X4253658Y-7936436D02*
X4244134Y-7945960D01*
X4244134Y-7945960D02*
X4225086Y-7955484D01*
X4225086Y-7955484D02*
X4206039Y-7955484D01*
X4206039Y-7955484D02*
X4186991Y-7945960D01*
X4186991Y-7945960D02*
X4177467Y-7936436D01*
X4177467Y-7936436D02*
X4167943Y-7917388D01*
X4167943Y-7917388D02*
X4158419Y-7879293D01*
X4158419Y-7879293D02*
X4158419Y-7831674D01*
X4158419Y-7831674D02*
X4167943Y-7793579D01*
X4167943Y-7793579D02*
X4177467Y-7774531D01*
X4177467Y-7774531D02*
X4186991Y-7765008D01*
X4186991Y-7765008D02*
X4206039Y-7755484D01*
X4358420Y-7955484D02*
X4358420Y-7822150D01*
X4358420Y-7841198D02*
X4367943Y-7831674D01*
X4367943Y-7831674D02*
X4386991Y-7822150D01*
X4386991Y-7822150D02*
X4415562Y-7822150D01*
X4415562Y-7822150D02*
X4434610Y-7831674D01*
X4434610Y-7831674D02*
X4444134Y-7850722D01*
X4444134Y-7850722D02*
X4444134Y-7955484D01*
X4444134Y-7850722D02*
X4453658Y-7831674D01*
X4453658Y-7831674D02*
X4472705Y-7822150D01*
X4472705Y-7822150D02*
X4501277Y-7822150D01*
X4501277Y-7822150D02*
X4520324Y-7831674D01*
X4520324Y-7831674D02*
X4529848Y-7850722D01*
X4529848Y-7850722D02*
X4529848Y-7955484D01*
X4625086Y-7955484D02*
X4625086Y-7822150D01*
X4625086Y-7841198D02*
X4634610Y-7831674D01*
X4634610Y-7831674D02*
X4653658Y-7822150D01*
X4653658Y-7822150D02*
X4682229Y-7822150D01*
X4682229Y-7822150D02*
X4701277Y-7831674D01*
X4701277Y-7831674D02*
X4710801Y-7850722D01*
X4710801Y-7850722D02*
X4710801Y-7955484D01*
X4710801Y-7850722D02*
X4720324Y-7831674D01*
X4720324Y-7831674D02*
X4739372Y-7822150D01*
X4739372Y-7822150D02*
X4767943Y-7822150D01*
X4767943Y-7822150D02*
X4786991Y-7831674D01*
X4786991Y-7831674D02*
X4796515Y-7850722D01*
X4796515Y-7850722D02*
X4796515Y-7955484D01*
X5186991Y-7745960D02*
X5015563Y-8003103D01*
X5444134Y-7755484D02*
X5463182Y-7755484D01*
X5463182Y-7755484D02*
X5482229Y-7765008D01*
X5482229Y-7765008D02*
X5491753Y-7774531D01*
X5491753Y-7774531D02*
X5501277Y-7793579D01*
X5501277Y-7793579D02*
X5510801Y-7831674D01*
X5510801Y-7831674D02*
X5510801Y-7879293D01*
X5510801Y-7879293D02*
X5501277Y-7917388D01*
X5501277Y-7917388D02*
X5491753Y-7936436D01*
X5491753Y-7936436D02*
X5482229Y-7945960D01*
X5482229Y-7945960D02*
X5463182Y-7955484D01*
X5463182Y-7955484D02*
X5444134Y-7955484D01*
X5444134Y-7955484D02*
X5425086Y-7945960D01*
X5425086Y-7945960D02*
X5415563Y-7936436D01*
X5415563Y-7936436D02*
X5406039Y-7917388D01*
X5406039Y-7917388D02*
X5396515Y-7879293D01*
X5396515Y-7879293D02*
X5396515Y-7831674D01*
X5396515Y-7831674D02*
X5406039Y-7793579D01*
X5406039Y-7793579D02*
X5415563Y-7774531D01*
X5415563Y-7774531D02*
X5425086Y-7765008D01*
X5425086Y-7765008D02*
X5444134Y-7755484D01*
X5596515Y-7936436D02*
X5606039Y-7945960D01*
X5606039Y-7945960D02*
X5596515Y-7955484D01*
X5596515Y-7955484D02*
X5586991Y-7945960D01*
X5586991Y-7945960D02*
X5596515Y-7936436D01*
X5596515Y-7936436D02*
X5596515Y-7955484D01*
X5729848Y-7755484D02*
X5748896Y-7755484D01*
X5748896Y-7755484D02*
X5767943Y-7765008D01*
X5767943Y-7765008D02*
X5777467Y-7774531D01*
X5777467Y-7774531D02*
X5786991Y-7793579D01*
X5786991Y-7793579D02*
X5796515Y-7831674D01*
X5796515Y-7831674D02*
X5796515Y-7879293D01*
X5796515Y-7879293D02*
X5786991Y-7917388D01*
X5786991Y-7917388D02*
X5777467Y-7936436D01*
X5777467Y-7936436D02*
X5767943Y-7945960D01*
X5767943Y-7945960D02*
X5748896Y-7955484D01*
X5748896Y-7955484D02*
X5729848Y-7955484D01*
X5729848Y-7955484D02*
X5710801Y-7945960D01*
X5710801Y-7945960D02*
X5701277Y-7936436D01*
X5701277Y-7936436D02*
X5691753Y-7917388D01*
X5691753Y-7917388D02*
X5682229Y-7879293D01*
X5682229Y-7879293D02*
X5682229Y-7831674D01*
X5682229Y-7831674D02*
X5691753Y-7793579D01*
X5691753Y-7793579D02*
X5701277Y-7774531D01*
X5701277Y-7774531D02*
X5710801Y-7765008D01*
X5710801Y-7765008D02*
X5729848Y-7755484D01*
X5920324Y-7755484D02*
X5939372Y-7755484D01*
X5939372Y-7755484D02*
X5958420Y-7765008D01*
X5958420Y-7765008D02*
X5967943Y-7774531D01*
X5967943Y-7774531D02*
X5977467Y-7793579D01*
X5977467Y-7793579D02*
X5986991Y-7831674D01*
X5986991Y-7831674D02*
X5986991Y-7879293D01*
X5986991Y-7879293D02*
X5977467Y-7917388D01*
X5977467Y-7917388D02*
X5967943Y-7936436D01*
X5967943Y-7936436D02*
X5958420Y-7945960D01*
X5958420Y-7945960D02*
X5939372Y-7955484D01*
X5939372Y-7955484D02*
X5920324Y-7955484D01*
X5920324Y-7955484D02*
X5901277Y-7945960D01*
X5901277Y-7945960D02*
X5891753Y-7936436D01*
X5891753Y-7936436D02*
X5882229Y-7917388D01*
X5882229Y-7917388D02*
X5872705Y-7879293D01*
X5872705Y-7879293D02*
X5872705Y-7831674D01*
X5872705Y-7831674D02*
X5882229Y-7793579D01*
X5882229Y-7793579D02*
X5891753Y-7774531D01*
X5891753Y-7774531D02*
X5901277Y-7765008D01*
X5901277Y-7765008D02*
X5920324Y-7755484D01*
X6082229Y-7955484D02*
X6120324Y-7955484D01*
X6120324Y-7955484D02*
X6139372Y-7945960D01*
X6139372Y-7945960D02*
X6148896Y-7936436D01*
X6148896Y-7936436D02*
X6167943Y-7907865D01*
X6167943Y-7907865D02*
X6177467Y-7869769D01*
X6177467Y-7869769D02*
X6177467Y-7793579D01*
X6177467Y-7793579D02*
X6167943Y-7774531D01*
X6167943Y-7774531D02*
X6158420Y-7765008D01*
X6158420Y-7765008D02*
X6139372Y-7755484D01*
X6139372Y-7755484D02*
X6101277Y-7755484D01*
X6101277Y-7755484D02*
X6082229Y-7765008D01*
X6082229Y-7765008D02*
X6072705Y-7774531D01*
X6072705Y-7774531D02*
X6063182Y-7793579D01*
X6063182Y-7793579D02*
X6063182Y-7841198D01*
X6063182Y-7841198D02*
X6072705Y-7860246D01*
X6072705Y-7860246D02*
X6082229Y-7869769D01*
X6082229Y-7869769D02*
X6101277Y-7879293D01*
X6101277Y-7879293D02*
X6139372Y-7879293D01*
X6139372Y-7879293D02*
X6158420Y-7869769D01*
X6158420Y-7869769D02*
X6167943Y-7860246D01*
X6167943Y-7860246D02*
X6177467Y-7841198D01*
X6291753Y-7841198D02*
X6272705Y-7831674D01*
X6272705Y-7831674D02*
X6263182Y-7822150D01*
X6263182Y-7822150D02*
X6253658Y-7803103D01*
X6253658Y-7803103D02*
X6253658Y-7793579D01*
X6253658Y-7793579D02*
X6263182Y-7774531D01*
X6263182Y-7774531D02*
X6272705Y-7765008D01*
X6272705Y-7765008D02*
X6291753Y-7755484D01*
X6291753Y-7755484D02*
X6329848Y-7755484D01*
X6329848Y-7755484D02*
X6348896Y-7765008D01*
X6348896Y-7765008D02*
X6358420Y-7774531D01*
X6358420Y-7774531D02*
X6367943Y-7793579D01*
X6367943Y-7793579D02*
X6367943Y-7803103D01*
X6367943Y-7803103D02*
X6358420Y-7822150D01*
X6358420Y-7822150D02*
X6348896Y-7831674D01*
X6348896Y-7831674D02*
X6329848Y-7841198D01*
X6329848Y-7841198D02*
X6291753Y-7841198D01*
X6291753Y-7841198D02*
X6272705Y-7850722D01*
X6272705Y-7850722D02*
X6263182Y-7860246D01*
X6263182Y-7860246D02*
X6253658Y-7879293D01*
X6253658Y-7879293D02*
X6253658Y-7917388D01*
X6253658Y-7917388D02*
X6263182Y-7936436D01*
X6263182Y-7936436D02*
X6272705Y-7945960D01*
X6272705Y-7945960D02*
X6291753Y-7955484D01*
X6291753Y-7955484D02*
X6329848Y-7955484D01*
X6329848Y-7955484D02*
X6348896Y-7945960D01*
X6348896Y-7945960D02*
X6358420Y-7936436D01*
X6358420Y-7936436D02*
X6367943Y-7917388D01*
X6367943Y-7917388D02*
X6367943Y-7879293D01*
X6367943Y-7879293D02*
X6358420Y-7860246D01*
X6358420Y-7860246D02*
X6348896Y-7850722D01*
X6348896Y-7850722D02*
X6329848Y-7841198D01*
X6444134Y-7755484D02*
X6444134Y-7793579D01*
X6520324Y-7755484D02*
X6520324Y-7793579D01*
X6815563Y-8031674D02*
X6806039Y-8022150D01*
X6806039Y-8022150D02*
X6786991Y-7993579D01*
X6786991Y-7993579D02*
X6777467Y-7974531D01*
X6777467Y-7974531D02*
X6767944Y-7945960D01*
X6767944Y-7945960D02*
X6758420Y-7898341D01*
X6758420Y-7898341D02*
X6758420Y-7860246D01*
X6758420Y-7860246D02*
X6767944Y-7812627D01*
X6767944Y-7812627D02*
X6777467Y-7784055D01*
X6777467Y-7784055D02*
X6786991Y-7765008D01*
X6786991Y-7765008D02*
X6806039Y-7736436D01*
X6806039Y-7736436D02*
X6815563Y-7726912D01*
X6882229Y-7774531D02*
X6891753Y-7765008D01*
X6891753Y-7765008D02*
X6910801Y-7755484D01*
X6910801Y-7755484D02*
X6958420Y-7755484D01*
X6958420Y-7755484D02*
X6977467Y-7765008D01*
X6977467Y-7765008D02*
X6986991Y-7774531D01*
X6986991Y-7774531D02*
X6996515Y-7793579D01*
X6996515Y-7793579D02*
X6996515Y-7812627D01*
X6996515Y-7812627D02*
X6986991Y-7841198D01*
X6986991Y-7841198D02*
X6872705Y-7955484D01*
X6872705Y-7955484D02*
X6996515Y-7955484D01*
X7186991Y-7955484D02*
X7072705Y-7955484D01*
X7129848Y-7955484D02*
X7129848Y-7755484D01*
X7129848Y-7755484D02*
X7110801Y-7784055D01*
X7110801Y-7784055D02*
X7091753Y-7803103D01*
X7091753Y-7803103D02*
X7072705Y-7812627D01*
X7301277Y-7841198D02*
X7282229Y-7831674D01*
X7282229Y-7831674D02*
X7272705Y-7822150D01*
X7272705Y-7822150D02*
X7263182Y-7803103D01*
X7263182Y-7803103D02*
X7263182Y-7793579D01*
X7263182Y-7793579D02*
X7272705Y-7774531D01*
X7272705Y-7774531D02*
X7282229Y-7765008D01*
X7282229Y-7765008D02*
X7301277Y-7755484D01*
X7301277Y-7755484D02*
X7339372Y-7755484D01*
X7339372Y-7755484D02*
X7358420Y-7765008D01*
X7358420Y-7765008D02*
X7367944Y-7774531D01*
X7367944Y-7774531D02*
X7377467Y-7793579D01*
X7377467Y-7793579D02*
X7377467Y-7803103D01*
X7377467Y-7803103D02*
X7367944Y-7822150D01*
X7367944Y-7822150D02*
X7358420Y-7831674D01*
X7358420Y-7831674D02*
X7339372Y-7841198D01*
X7339372Y-7841198D02*
X7301277Y-7841198D01*
X7301277Y-7841198D02*
X7282229Y-7850722D01*
X7282229Y-7850722D02*
X7272705Y-7860246D01*
X7272705Y-7860246D02*
X7263182Y-7879293D01*
X7263182Y-7879293D02*
X7263182Y-7917388D01*
X7263182Y-7917388D02*
X7272705Y-7936436D01*
X7272705Y-7936436D02*
X7282229Y-7945960D01*
X7282229Y-7945960D02*
X7301277Y-7955484D01*
X7301277Y-7955484D02*
X7339372Y-7955484D01*
X7339372Y-7955484D02*
X7358420Y-7945960D01*
X7358420Y-7945960D02*
X7367944Y-7936436D01*
X7367944Y-7936436D02*
X7377467Y-7917388D01*
X7377467Y-7917388D02*
X7377467Y-7879293D01*
X7377467Y-7879293D02*
X7367944Y-7860246D01*
X7367944Y-7860246D02*
X7358420Y-7850722D01*
X7358420Y-7850722D02*
X7339372Y-7841198D01*
X7615563Y-7955484D02*
X7615563Y-7755484D01*
X7701277Y-7955484D02*
X7701277Y-7850722D01*
X7701277Y-7850722D02*
X7691753Y-7831674D01*
X7691753Y-7831674D02*
X7672706Y-7822150D01*
X7672706Y-7822150D02*
X7644134Y-7822150D01*
X7644134Y-7822150D02*
X7625086Y-7831674D01*
X7625086Y-7831674D02*
X7615563Y-7841198D01*
X7825086Y-7955484D02*
X7806039Y-7945960D01*
X7806039Y-7945960D02*
X7796515Y-7936436D01*
X7796515Y-7936436D02*
X7786991Y-7917388D01*
X7786991Y-7917388D02*
X7786991Y-7860246D01*
X7786991Y-7860246D02*
X7796515Y-7841198D01*
X7796515Y-7841198D02*
X7806039Y-7831674D01*
X7806039Y-7831674D02*
X7825086Y-7822150D01*
X7825086Y-7822150D02*
X7853658Y-7822150D01*
X7853658Y-7822150D02*
X7872706Y-7831674D01*
X7872706Y-7831674D02*
X7882229Y-7841198D01*
X7882229Y-7841198D02*
X7891753Y-7860246D01*
X7891753Y-7860246D02*
X7891753Y-7917388D01*
X7891753Y-7917388D02*
X7882229Y-7936436D01*
X7882229Y-7936436D02*
X7872706Y-7945960D01*
X7872706Y-7945960D02*
X7853658Y-7955484D01*
X7853658Y-7955484D02*
X7825086Y-7955484D01*
X8006039Y-7955484D02*
X7986991Y-7945960D01*
X7986991Y-7945960D02*
X7977467Y-7926912D01*
X7977467Y-7926912D02*
X7977467Y-7755484D01*
X8158420Y-7945960D02*
X8139372Y-7955484D01*
X8139372Y-7955484D02*
X8101277Y-7955484D01*
X8101277Y-7955484D02*
X8082229Y-7945960D01*
X8082229Y-7945960D02*
X8072706Y-7926912D01*
X8072706Y-7926912D02*
X8072706Y-7850722D01*
X8072706Y-7850722D02*
X8082229Y-7831674D01*
X8082229Y-7831674D02*
X8101277Y-7822150D01*
X8101277Y-7822150D02*
X8139372Y-7822150D01*
X8139372Y-7822150D02*
X8158420Y-7831674D01*
X8158420Y-7831674D02*
X8167944Y-7850722D01*
X8167944Y-7850722D02*
X8167944Y-7869769D01*
X8167944Y-7869769D02*
X8072706Y-7888817D01*
X8244134Y-7945960D02*
X8263182Y-7955484D01*
X8263182Y-7955484D02*
X8301277Y-7955484D01*
X8301277Y-7955484D02*
X8320325Y-7945960D01*
X8320325Y-7945960D02*
X8329848Y-7926912D01*
X8329848Y-7926912D02*
X8329848Y-7917388D01*
X8329848Y-7917388D02*
X8320325Y-7898341D01*
X8320325Y-7898341D02*
X8301277Y-7888817D01*
X8301277Y-7888817D02*
X8272706Y-7888817D01*
X8272706Y-7888817D02*
X8253658Y-7879293D01*
X8253658Y-7879293D02*
X8244134Y-7860246D01*
X8244134Y-7860246D02*
X8244134Y-7850722D01*
X8244134Y-7850722D02*
X8253658Y-7831674D01*
X8253658Y-7831674D02*
X8272706Y-7822150D01*
X8272706Y-7822150D02*
X8301277Y-7822150D01*
X8301277Y-7822150D02*
X8320325Y-7831674D01*
X8396515Y-8031674D02*
X8406039Y-8022150D01*
X8406039Y-8022150D02*
X8425087Y-7993579D01*
X8425087Y-7993579D02*
X8434610Y-7974531D01*
X8434610Y-7974531D02*
X8444134Y-7945960D01*
X8444134Y-7945960D02*
X8453658Y-7898341D01*
X8453658Y-7898341D02*
X8453658Y-7860246D01*
X8453658Y-7860246D02*
X8444134Y-7812627D01*
X8444134Y-7812627D02*
X8434610Y-7784055D01*
X8434610Y-7784055D02*
X8425087Y-7765008D01*
X8425087Y-7765008D02*
X8406039Y-7736436D01*
X8406039Y-7736436D02*
X8396515Y-7726912D01*
D10*
X3240500Y-8128000D02*
G75*
G02*
X3210500Y-8128000I-15000J0D01*
G01*
X3210500Y-8128000D02*
G75*
G02*
X3240500Y-8128000I15000J0D01*
G01*
D11*
X3539372Y-8019484D02*
X3558419Y-8019484D01*
X3558419Y-8019484D02*
X3577467Y-8029008D01*
X3577467Y-8029008D02*
X3586991Y-8038531D01*
X3586991Y-8038531D02*
X3596515Y-8057579D01*
X3596515Y-8057579D02*
X3606038Y-8095674D01*
X3606038Y-8095674D02*
X3606038Y-8143293D01*
X3606038Y-8143293D02*
X3596515Y-8181388D01*
X3596515Y-8181388D02*
X3586991Y-8200436D01*
X3586991Y-8200436D02*
X3577467Y-8209960D01*
X3577467Y-8209960D02*
X3558419Y-8219484D01*
X3558419Y-8219484D02*
X3539372Y-8219484D01*
X3539372Y-8219484D02*
X3520324Y-8209960D01*
X3520324Y-8209960D02*
X3510800Y-8200436D01*
X3510800Y-8200436D02*
X3501277Y-8181388D01*
X3501277Y-8181388D02*
X3491753Y-8143293D01*
X3491753Y-8143293D02*
X3491753Y-8095674D01*
X3491753Y-8095674D02*
X3501277Y-8057579D01*
X3501277Y-8057579D02*
X3510800Y-8038531D01*
X3510800Y-8038531D02*
X3520324Y-8029008D01*
X3520324Y-8029008D02*
X3539372Y-8019484D01*
X3691753Y-8200436D02*
X3701277Y-8209960D01*
X3701277Y-8209960D02*
X3691753Y-8219484D01*
X3691753Y-8219484D02*
X3682229Y-8209960D01*
X3682229Y-8209960D02*
X3691753Y-8200436D01*
X3691753Y-8200436D02*
X3691753Y-8219484D01*
X3767943Y-8019484D02*
X3891753Y-8019484D01*
X3891753Y-8019484D02*
X3825086Y-8095674D01*
X3825086Y-8095674D02*
X3853658Y-8095674D01*
X3853658Y-8095674D02*
X3872705Y-8105198D01*
X3872705Y-8105198D02*
X3882229Y-8114722D01*
X3882229Y-8114722D02*
X3891753Y-8133769D01*
X3891753Y-8133769D02*
X3891753Y-8181388D01*
X3891753Y-8181388D02*
X3882229Y-8200436D01*
X3882229Y-8200436D02*
X3872705Y-8209960D01*
X3872705Y-8209960D02*
X3853658Y-8219484D01*
X3853658Y-8219484D02*
X3796515Y-8219484D01*
X3796515Y-8219484D02*
X3777467Y-8209960D01*
X3777467Y-8209960D02*
X3767943Y-8200436D01*
X4015562Y-8019484D02*
X4034610Y-8019484D01*
X4034610Y-8019484D02*
X4053658Y-8029008D01*
X4053658Y-8029008D02*
X4063181Y-8038531D01*
X4063181Y-8038531D02*
X4072705Y-8057579D01*
X4072705Y-8057579D02*
X4082229Y-8095674D01*
X4082229Y-8095674D02*
X4082229Y-8143293D01*
X4082229Y-8143293D02*
X4072705Y-8181388D01*
X4072705Y-8181388D02*
X4063181Y-8200436D01*
X4063181Y-8200436D02*
X4053658Y-8209960D01*
X4053658Y-8209960D02*
X4034610Y-8219484D01*
X4034610Y-8219484D02*
X4015562Y-8219484D01*
X4015562Y-8219484D02*
X3996515Y-8209960D01*
X3996515Y-8209960D02*
X3986991Y-8200436D01*
X3986991Y-8200436D02*
X3977467Y-8181388D01*
X3977467Y-8181388D02*
X3967943Y-8143293D01*
X3967943Y-8143293D02*
X3967943Y-8095674D01*
X3967943Y-8095674D02*
X3977467Y-8057579D01*
X3977467Y-8057579D02*
X3986991Y-8038531D01*
X3986991Y-8038531D02*
X3996515Y-8029008D01*
X3996515Y-8029008D02*
X4015562Y-8019484D01*
X4206039Y-8019484D02*
X4225086Y-8019484D01*
X4225086Y-8019484D02*
X4244134Y-8029008D01*
X4244134Y-8029008D02*
X4253658Y-8038531D01*
X4253658Y-8038531D02*
X4263181Y-8057579D01*
X4263181Y-8057579D02*
X4272705Y-8095674D01*
X4272705Y-8095674D02*
X4272705Y-8143293D01*
X4272705Y-8143293D02*
X4263181Y-8181388D01*
X4263181Y-8181388D02*
X4253658Y-8200436D01*
X4253658Y-8200436D02*
X4244134Y-8209960D01*
X4244134Y-8209960D02*
X4225086Y-8219484D01*
X4225086Y-8219484D02*
X4206039Y-8219484D01*
X4206039Y-8219484D02*
X4186991Y-8209960D01*
X4186991Y-8209960D02*
X4177467Y-8200436D01*
X4177467Y-8200436D02*
X4167943Y-8181388D01*
X4167943Y-8181388D02*
X4158419Y-8143293D01*
X4158419Y-8143293D02*
X4158419Y-8095674D01*
X4158419Y-8095674D02*
X4167943Y-8057579D01*
X4167943Y-8057579D02*
X4177467Y-8038531D01*
X4177467Y-8038531D02*
X4186991Y-8029008D01*
X4186991Y-8029008D02*
X4206039Y-8019484D01*
X4358420Y-8219484D02*
X4358420Y-8086150D01*
X4358420Y-8105198D02*
X4367943Y-8095674D01*
X4367943Y-8095674D02*
X4386991Y-8086150D01*
X4386991Y-8086150D02*
X4415562Y-8086150D01*
X4415562Y-8086150D02*
X4434610Y-8095674D01*
X4434610Y-8095674D02*
X4444134Y-8114722D01*
X4444134Y-8114722D02*
X4444134Y-8219484D01*
X4444134Y-8114722D02*
X4453658Y-8095674D01*
X4453658Y-8095674D02*
X4472705Y-8086150D01*
X4472705Y-8086150D02*
X4501277Y-8086150D01*
X4501277Y-8086150D02*
X4520324Y-8095674D01*
X4520324Y-8095674D02*
X4529848Y-8114722D01*
X4529848Y-8114722D02*
X4529848Y-8219484D01*
X4625086Y-8219484D02*
X4625086Y-8086150D01*
X4625086Y-8105198D02*
X4634610Y-8095674D01*
X4634610Y-8095674D02*
X4653658Y-8086150D01*
X4653658Y-8086150D02*
X4682229Y-8086150D01*
X4682229Y-8086150D02*
X4701277Y-8095674D01*
X4701277Y-8095674D02*
X4710801Y-8114722D01*
X4710801Y-8114722D02*
X4710801Y-8219484D01*
X4710801Y-8114722D02*
X4720324Y-8095674D01*
X4720324Y-8095674D02*
X4739372Y-8086150D01*
X4739372Y-8086150D02*
X4767943Y-8086150D01*
X4767943Y-8086150D02*
X4786991Y-8095674D01*
X4786991Y-8095674D02*
X4796515Y-8114722D01*
X4796515Y-8114722D02*
X4796515Y-8219484D01*
X5186991Y-8009960D02*
X5015563Y-8267103D01*
X5444134Y-8019484D02*
X5463182Y-8019484D01*
X5463182Y-8019484D02*
X5482229Y-8029008D01*
X5482229Y-8029008D02*
X5491753Y-8038531D01*
X5491753Y-8038531D02*
X5501277Y-8057579D01*
X5501277Y-8057579D02*
X5510801Y-8095674D01*
X5510801Y-8095674D02*
X5510801Y-8143293D01*
X5510801Y-8143293D02*
X5501277Y-8181388D01*
X5501277Y-8181388D02*
X5491753Y-8200436D01*
X5491753Y-8200436D02*
X5482229Y-8209960D01*
X5482229Y-8209960D02*
X5463182Y-8219484D01*
X5463182Y-8219484D02*
X5444134Y-8219484D01*
X5444134Y-8219484D02*
X5425086Y-8209960D01*
X5425086Y-8209960D02*
X5415563Y-8200436D01*
X5415563Y-8200436D02*
X5406039Y-8181388D01*
X5406039Y-8181388D02*
X5396515Y-8143293D01*
X5396515Y-8143293D02*
X5396515Y-8095674D01*
X5396515Y-8095674D02*
X5406039Y-8057579D01*
X5406039Y-8057579D02*
X5415563Y-8038531D01*
X5415563Y-8038531D02*
X5425086Y-8029008D01*
X5425086Y-8029008D02*
X5444134Y-8019484D01*
X5596515Y-8200436D02*
X5606039Y-8209960D01*
X5606039Y-8209960D02*
X5596515Y-8219484D01*
X5596515Y-8219484D02*
X5586991Y-8209960D01*
X5586991Y-8209960D02*
X5596515Y-8200436D01*
X5596515Y-8200436D02*
X5596515Y-8219484D01*
X5729848Y-8019484D02*
X5748896Y-8019484D01*
X5748896Y-8019484D02*
X5767943Y-8029008D01*
X5767943Y-8029008D02*
X5777467Y-8038531D01*
X5777467Y-8038531D02*
X5786991Y-8057579D01*
X5786991Y-8057579D02*
X5796515Y-8095674D01*
X5796515Y-8095674D02*
X5796515Y-8143293D01*
X5796515Y-8143293D02*
X5786991Y-8181388D01*
X5786991Y-8181388D02*
X5777467Y-8200436D01*
X5777467Y-8200436D02*
X5767943Y-8209960D01*
X5767943Y-8209960D02*
X5748896Y-8219484D01*
X5748896Y-8219484D02*
X5729848Y-8219484D01*
X5729848Y-8219484D02*
X5710801Y-8209960D01*
X5710801Y-8209960D02*
X5701277Y-8200436D01*
X5701277Y-8200436D02*
X5691753Y-8181388D01*
X5691753Y-8181388D02*
X5682229Y-8143293D01*
X5682229Y-8143293D02*
X5682229Y-8095674D01*
X5682229Y-8095674D02*
X5691753Y-8057579D01*
X5691753Y-8057579D02*
X5701277Y-8038531D01*
X5701277Y-8038531D02*
X5710801Y-8029008D01*
X5710801Y-8029008D02*
X5729848Y-8019484D01*
X5986991Y-8219484D02*
X5872705Y-8219484D01*
X5929848Y-8219484D02*
X5929848Y-8019484D01*
X5929848Y-8019484D02*
X5910801Y-8048055D01*
X5910801Y-8048055D02*
X5891753Y-8067103D01*
X5891753Y-8067103D02*
X5872705Y-8076627D01*
X6177467Y-8219484D02*
X6063182Y-8219484D01*
X6120324Y-8219484D02*
X6120324Y-8019484D01*
X6120324Y-8019484D02*
X6101277Y-8048055D01*
X6101277Y-8048055D02*
X6082229Y-8067103D01*
X6082229Y-8067103D02*
X6063182Y-8076627D01*
X6291753Y-8105198D02*
X6272705Y-8095674D01*
X6272705Y-8095674D02*
X6263182Y-8086150D01*
X6263182Y-8086150D02*
X6253658Y-8067103D01*
X6253658Y-8067103D02*
X6253658Y-8057579D01*
X6253658Y-8057579D02*
X6263182Y-8038531D01*
X6263182Y-8038531D02*
X6272705Y-8029008D01*
X6272705Y-8029008D02*
X6291753Y-8019484D01*
X6291753Y-8019484D02*
X6329848Y-8019484D01*
X6329848Y-8019484D02*
X6348896Y-8029008D01*
X6348896Y-8029008D02*
X6358420Y-8038531D01*
X6358420Y-8038531D02*
X6367943Y-8057579D01*
X6367943Y-8057579D02*
X6367943Y-8067103D01*
X6367943Y-8067103D02*
X6358420Y-8086150D01*
X6358420Y-8086150D02*
X6348896Y-8095674D01*
X6348896Y-8095674D02*
X6329848Y-8105198D01*
X6329848Y-8105198D02*
X6291753Y-8105198D01*
X6291753Y-8105198D02*
X6272705Y-8114722D01*
X6272705Y-8114722D02*
X6263182Y-8124246D01*
X6263182Y-8124246D02*
X6253658Y-8143293D01*
X6253658Y-8143293D02*
X6253658Y-8181388D01*
X6253658Y-8181388D02*
X6263182Y-8200436D01*
X6263182Y-8200436D02*
X6272705Y-8209960D01*
X6272705Y-8209960D02*
X6291753Y-8219484D01*
X6291753Y-8219484D02*
X6329848Y-8219484D01*
X6329848Y-8219484D02*
X6348896Y-8209960D01*
X6348896Y-8209960D02*
X6358420Y-8200436D01*
X6358420Y-8200436D02*
X6367943Y-8181388D01*
X6367943Y-8181388D02*
X6367943Y-8143293D01*
X6367943Y-8143293D02*
X6358420Y-8124246D01*
X6358420Y-8124246D02*
X6348896Y-8114722D01*
X6348896Y-8114722D02*
X6329848Y-8105198D01*
X6444134Y-8019484D02*
X6444134Y-8057579D01*
X6520324Y-8019484D02*
X6520324Y-8057579D01*
X6815563Y-8295674D02*
X6806039Y-8286150D01*
X6806039Y-8286150D02*
X6786991Y-8257579D01*
X6786991Y-8257579D02*
X6777467Y-8238531D01*
X6777467Y-8238531D02*
X6767944Y-8209960D01*
X6767944Y-8209960D02*
X6758420Y-8162341D01*
X6758420Y-8162341D02*
X6758420Y-8124246D01*
X6758420Y-8124246D02*
X6767944Y-8076627D01*
X6767944Y-8076627D02*
X6777467Y-8048055D01*
X6777467Y-8048055D02*
X6786991Y-8029008D01*
X6786991Y-8029008D02*
X6806039Y-8000436D01*
X6806039Y-8000436D02*
X6815563Y-7990912D01*
X6996515Y-8219484D02*
X6882229Y-8219484D01*
X6939372Y-8219484D02*
X6939372Y-8019484D01*
X6939372Y-8019484D02*
X6920324Y-8048055D01*
X6920324Y-8048055D02*
X6901277Y-8067103D01*
X6901277Y-8067103D02*
X6882229Y-8076627D01*
X7120324Y-8019484D02*
X7139372Y-8019484D01*
X7139372Y-8019484D02*
X7158420Y-8029008D01*
X7158420Y-8029008D02*
X7167944Y-8038531D01*
X7167944Y-8038531D02*
X7177467Y-8057579D01*
X7177467Y-8057579D02*
X7186991Y-8095674D01*
X7186991Y-8095674D02*
X7186991Y-8143293D01*
X7186991Y-8143293D02*
X7177467Y-8181388D01*
X7177467Y-8181388D02*
X7167944Y-8200436D01*
X7167944Y-8200436D02*
X7158420Y-8209960D01*
X7158420Y-8209960D02*
X7139372Y-8219484D01*
X7139372Y-8219484D02*
X7120324Y-8219484D01*
X7120324Y-8219484D02*
X7101277Y-8209960D01*
X7101277Y-8209960D02*
X7091753Y-8200436D01*
X7091753Y-8200436D02*
X7082229Y-8181388D01*
X7082229Y-8181388D02*
X7072705Y-8143293D01*
X7072705Y-8143293D02*
X7072705Y-8095674D01*
X7072705Y-8095674D02*
X7082229Y-8057579D01*
X7082229Y-8057579D02*
X7091753Y-8038531D01*
X7091753Y-8038531D02*
X7101277Y-8029008D01*
X7101277Y-8029008D02*
X7120324Y-8019484D01*
X7425086Y-8219484D02*
X7425086Y-8019484D01*
X7510801Y-8219484D02*
X7510801Y-8114722D01*
X7510801Y-8114722D02*
X7501277Y-8095674D01*
X7501277Y-8095674D02*
X7482229Y-8086150D01*
X7482229Y-8086150D02*
X7453658Y-8086150D01*
X7453658Y-8086150D02*
X7434610Y-8095674D01*
X7434610Y-8095674D02*
X7425086Y-8105198D01*
X7634610Y-8219484D02*
X7615563Y-8209960D01*
X7615563Y-8209960D02*
X7606039Y-8200436D01*
X7606039Y-8200436D02*
X7596515Y-8181388D01*
X7596515Y-8181388D02*
X7596515Y-8124246D01*
X7596515Y-8124246D02*
X7606039Y-8105198D01*
X7606039Y-8105198D02*
X7615563Y-8095674D01*
X7615563Y-8095674D02*
X7634610Y-8086150D01*
X7634610Y-8086150D02*
X7663182Y-8086150D01*
X7663182Y-8086150D02*
X7682229Y-8095674D01*
X7682229Y-8095674D02*
X7691753Y-8105198D01*
X7691753Y-8105198D02*
X7701277Y-8124246D01*
X7701277Y-8124246D02*
X7701277Y-8181388D01*
X7701277Y-8181388D02*
X7691753Y-8200436D01*
X7691753Y-8200436D02*
X7682229Y-8209960D01*
X7682229Y-8209960D02*
X7663182Y-8219484D01*
X7663182Y-8219484D02*
X7634610Y-8219484D01*
X7815563Y-8219484D02*
X7796515Y-8209960D01*
X7796515Y-8209960D02*
X7786991Y-8190912D01*
X7786991Y-8190912D02*
X7786991Y-8019484D01*
X7967944Y-8209960D02*
X7948896Y-8219484D01*
X7948896Y-8219484D02*
X7910801Y-8219484D01*
X7910801Y-8219484D02*
X7891753Y-8209960D01*
X7891753Y-8209960D02*
X7882229Y-8190912D01*
X7882229Y-8190912D02*
X7882229Y-8114722D01*
X7882229Y-8114722D02*
X7891753Y-8095674D01*
X7891753Y-8095674D02*
X7910801Y-8086150D01*
X7910801Y-8086150D02*
X7948896Y-8086150D01*
X7948896Y-8086150D02*
X7967944Y-8095674D01*
X7967944Y-8095674D02*
X7977467Y-8114722D01*
X7977467Y-8114722D02*
X7977467Y-8133769D01*
X7977467Y-8133769D02*
X7882229Y-8152817D01*
X8053658Y-8209960D02*
X8072706Y-8219484D01*
X8072706Y-8219484D02*
X8110801Y-8219484D01*
X8110801Y-8219484D02*
X8129848Y-8209960D01*
X8129848Y-8209960D02*
X8139372Y-8190912D01*
X8139372Y-8190912D02*
X8139372Y-8181388D01*
X8139372Y-8181388D02*
X8129848Y-8162341D01*
X8129848Y-8162341D02*
X8110801Y-8152817D01*
X8110801Y-8152817D02*
X8082229Y-8152817D01*
X8082229Y-8152817D02*
X8063182Y-8143293D01*
X8063182Y-8143293D02*
X8053658Y-8124246D01*
X8053658Y-8124246D02*
X8053658Y-8114722D01*
X8053658Y-8114722D02*
X8063182Y-8095674D01*
X8063182Y-8095674D02*
X8082229Y-8086150D01*
X8082229Y-8086150D02*
X8110801Y-8086150D01*
X8110801Y-8086150D02*
X8129848Y-8095674D01*
X8206039Y-8295674D02*
X8215563Y-8286150D01*
X8215563Y-8286150D02*
X8234610Y-8257579D01*
X8234610Y-8257579D02*
X8244134Y-8238531D01*
X8244134Y-8238531D02*
X8253658Y-8209960D01*
X8253658Y-8209960D02*
X8263182Y-8162341D01*
X8263182Y-8162341D02*
X8263182Y-8124246D01*
X8263182Y-8124246D02*
X8253658Y-8076627D01*
X8253658Y-8076627D02*
X8244134Y-8048055D01*
X8244134Y-8048055D02*
X8234610Y-8029008D01*
X8234610Y-8029008D02*
X8215563Y-8000436D01*
X8215563Y-8000436D02*
X8206039Y-7990912D01*
D10*
X3220500Y-8372000D02*
X3220500Y-8412000D01*
X3200500Y-8392000D02*
X3240500Y-8392000D01*
D11*
X3539372Y-8283484D02*
X3558419Y-8283484D01*
X3558419Y-8283484D02*
X3577467Y-8293008D01*
X3577467Y-8293008D02*
X3586991Y-8302531D01*
X3586991Y-8302531D02*
X3596515Y-8321579D01*
X3596515Y-8321579D02*
X3606038Y-8359674D01*
X3606038Y-8359674D02*
X3606038Y-8407293D01*
X3606038Y-8407293D02*
X3596515Y-8445389D01*
X3596515Y-8445389D02*
X3586991Y-8464436D01*
X3586991Y-8464436D02*
X3577467Y-8473960D01*
X3577467Y-8473960D02*
X3558419Y-8483484D01*
X3558419Y-8483484D02*
X3539372Y-8483484D01*
X3539372Y-8483484D02*
X3520324Y-8473960D01*
X3520324Y-8473960D02*
X3510800Y-8464436D01*
X3510800Y-8464436D02*
X3501277Y-8445389D01*
X3501277Y-8445389D02*
X3491753Y-8407293D01*
X3491753Y-8407293D02*
X3491753Y-8359674D01*
X3491753Y-8359674D02*
X3501277Y-8321579D01*
X3501277Y-8321579D02*
X3510800Y-8302531D01*
X3510800Y-8302531D02*
X3520324Y-8293008D01*
X3520324Y-8293008D02*
X3539372Y-8283484D01*
X3691753Y-8464436D02*
X3701277Y-8473960D01*
X3701277Y-8473960D02*
X3691753Y-8483484D01*
X3691753Y-8483484D02*
X3682229Y-8473960D01*
X3682229Y-8473960D02*
X3691753Y-8464436D01*
X3691753Y-8464436D02*
X3691753Y-8483484D01*
X3872705Y-8350150D02*
X3872705Y-8483484D01*
X3825086Y-8273960D02*
X3777467Y-8416817D01*
X3777467Y-8416817D02*
X3901277Y-8416817D01*
X4015562Y-8283484D02*
X4034610Y-8283484D01*
X4034610Y-8283484D02*
X4053658Y-8293008D01*
X4053658Y-8293008D02*
X4063181Y-8302531D01*
X4063181Y-8302531D02*
X4072705Y-8321579D01*
X4072705Y-8321579D02*
X4082229Y-8359674D01*
X4082229Y-8359674D02*
X4082229Y-8407293D01*
X4082229Y-8407293D02*
X4072705Y-8445389D01*
X4072705Y-8445389D02*
X4063181Y-8464436D01*
X4063181Y-8464436D02*
X4053658Y-8473960D01*
X4053658Y-8473960D02*
X4034610Y-8483484D01*
X4034610Y-8483484D02*
X4015562Y-8483484D01*
X4015562Y-8483484D02*
X3996515Y-8473960D01*
X3996515Y-8473960D02*
X3986991Y-8464436D01*
X3986991Y-8464436D02*
X3977467Y-8445389D01*
X3977467Y-8445389D02*
X3967943Y-8407293D01*
X3967943Y-8407293D02*
X3967943Y-8359674D01*
X3967943Y-8359674D02*
X3977467Y-8321579D01*
X3977467Y-8321579D02*
X3986991Y-8302531D01*
X3986991Y-8302531D02*
X3996515Y-8293008D01*
X3996515Y-8293008D02*
X4015562Y-8283484D01*
X4206039Y-8283484D02*
X4225086Y-8283484D01*
X4225086Y-8283484D02*
X4244134Y-8293008D01*
X4244134Y-8293008D02*
X4253658Y-8302531D01*
X4253658Y-8302531D02*
X4263181Y-8321579D01*
X4263181Y-8321579D02*
X4272705Y-8359674D01*
X4272705Y-8359674D02*
X4272705Y-8407293D01*
X4272705Y-8407293D02*
X4263181Y-8445389D01*
X4263181Y-8445389D02*
X4253658Y-8464436D01*
X4253658Y-8464436D02*
X4244134Y-8473960D01*
X4244134Y-8473960D02*
X4225086Y-8483484D01*
X4225086Y-8483484D02*
X4206039Y-8483484D01*
X4206039Y-8483484D02*
X4186991Y-8473960D01*
X4186991Y-8473960D02*
X4177467Y-8464436D01*
X4177467Y-8464436D02*
X4167943Y-8445389D01*
X4167943Y-8445389D02*
X4158419Y-8407293D01*
X4158419Y-8407293D02*
X4158419Y-8359674D01*
X4158419Y-8359674D02*
X4167943Y-8321579D01*
X4167943Y-8321579D02*
X4177467Y-8302531D01*
X4177467Y-8302531D02*
X4186991Y-8293008D01*
X4186991Y-8293008D02*
X4206039Y-8283484D01*
X4358420Y-8483484D02*
X4358420Y-8350150D01*
X4358420Y-8369198D02*
X4367943Y-8359674D01*
X4367943Y-8359674D02*
X4386991Y-8350150D01*
X4386991Y-8350150D02*
X4415562Y-8350150D01*
X4415562Y-8350150D02*
X4434610Y-8359674D01*
X4434610Y-8359674D02*
X4444134Y-8378722D01*
X4444134Y-8378722D02*
X4444134Y-8483484D01*
X4444134Y-8378722D02*
X4453658Y-8359674D01*
X4453658Y-8359674D02*
X4472705Y-8350150D01*
X4472705Y-8350150D02*
X4501277Y-8350150D01*
X4501277Y-8350150D02*
X4520324Y-8359674D01*
X4520324Y-8359674D02*
X4529848Y-8378722D01*
X4529848Y-8378722D02*
X4529848Y-8483484D01*
X4625086Y-8483484D02*
X4625086Y-8350150D01*
X4625086Y-8369198D02*
X4634610Y-8359674D01*
X4634610Y-8359674D02*
X4653658Y-8350150D01*
X4653658Y-8350150D02*
X4682229Y-8350150D01*
X4682229Y-8350150D02*
X4701277Y-8359674D01*
X4701277Y-8359674D02*
X4710801Y-8378722D01*
X4710801Y-8378722D02*
X4710801Y-8483484D01*
X4710801Y-8378722D02*
X4720324Y-8359674D01*
X4720324Y-8359674D02*
X4739372Y-8350150D01*
X4739372Y-8350150D02*
X4767943Y-8350150D01*
X4767943Y-8350150D02*
X4786991Y-8359674D01*
X4786991Y-8359674D02*
X4796515Y-8378722D01*
X4796515Y-8378722D02*
X4796515Y-8483484D01*
X5186991Y-8273960D02*
X5015563Y-8531103D01*
X5444134Y-8283484D02*
X5463182Y-8283484D01*
X5463182Y-8283484D02*
X5482229Y-8293008D01*
X5482229Y-8293008D02*
X5491753Y-8302531D01*
X5491753Y-8302531D02*
X5501277Y-8321579D01*
X5501277Y-8321579D02*
X5510801Y-8359674D01*
X5510801Y-8359674D02*
X5510801Y-8407293D01*
X5510801Y-8407293D02*
X5501277Y-8445389D01*
X5501277Y-8445389D02*
X5491753Y-8464436D01*
X5491753Y-8464436D02*
X5482229Y-8473960D01*
X5482229Y-8473960D02*
X5463182Y-8483484D01*
X5463182Y-8483484D02*
X5444134Y-8483484D01*
X5444134Y-8483484D02*
X5425086Y-8473960D01*
X5425086Y-8473960D02*
X5415563Y-8464436D01*
X5415563Y-8464436D02*
X5406039Y-8445389D01*
X5406039Y-8445389D02*
X5396515Y-8407293D01*
X5396515Y-8407293D02*
X5396515Y-8359674D01*
X5396515Y-8359674D02*
X5406039Y-8321579D01*
X5406039Y-8321579D02*
X5415563Y-8302531D01*
X5415563Y-8302531D02*
X5425086Y-8293008D01*
X5425086Y-8293008D02*
X5444134Y-8283484D01*
X5596515Y-8464436D02*
X5606039Y-8473960D01*
X5606039Y-8473960D02*
X5596515Y-8483484D01*
X5596515Y-8483484D02*
X5586991Y-8473960D01*
X5586991Y-8473960D02*
X5596515Y-8464436D01*
X5596515Y-8464436D02*
X5596515Y-8483484D01*
X5729848Y-8283484D02*
X5748896Y-8283484D01*
X5748896Y-8283484D02*
X5767943Y-8293008D01*
X5767943Y-8293008D02*
X5777467Y-8302531D01*
X5777467Y-8302531D02*
X5786991Y-8321579D01*
X5786991Y-8321579D02*
X5796515Y-8359674D01*
X5796515Y-8359674D02*
X5796515Y-8407293D01*
X5796515Y-8407293D02*
X5786991Y-8445389D01*
X5786991Y-8445389D02*
X5777467Y-8464436D01*
X5777467Y-8464436D02*
X5767943Y-8473960D01*
X5767943Y-8473960D02*
X5748896Y-8483484D01*
X5748896Y-8483484D02*
X5729848Y-8483484D01*
X5729848Y-8483484D02*
X5710801Y-8473960D01*
X5710801Y-8473960D02*
X5701277Y-8464436D01*
X5701277Y-8464436D02*
X5691753Y-8445389D01*
X5691753Y-8445389D02*
X5682229Y-8407293D01*
X5682229Y-8407293D02*
X5682229Y-8359674D01*
X5682229Y-8359674D02*
X5691753Y-8321579D01*
X5691753Y-8321579D02*
X5701277Y-8302531D01*
X5701277Y-8302531D02*
X5710801Y-8293008D01*
X5710801Y-8293008D02*
X5729848Y-8283484D01*
X5986991Y-8483484D02*
X5872705Y-8483484D01*
X5929848Y-8483484D02*
X5929848Y-8283484D01*
X5929848Y-8283484D02*
X5910801Y-8312055D01*
X5910801Y-8312055D02*
X5891753Y-8331103D01*
X5891753Y-8331103D02*
X5872705Y-8340627D01*
X6167943Y-8283484D02*
X6072705Y-8283484D01*
X6072705Y-8283484D02*
X6063182Y-8378722D01*
X6063182Y-8378722D02*
X6072705Y-8369198D01*
X6072705Y-8369198D02*
X6091753Y-8359674D01*
X6091753Y-8359674D02*
X6139372Y-8359674D01*
X6139372Y-8359674D02*
X6158420Y-8369198D01*
X6158420Y-8369198D02*
X6167943Y-8378722D01*
X6167943Y-8378722D02*
X6177467Y-8397770D01*
X6177467Y-8397770D02*
X6177467Y-8445389D01*
X6177467Y-8445389D02*
X6167943Y-8464436D01*
X6167943Y-8464436D02*
X6158420Y-8473960D01*
X6158420Y-8473960D02*
X6139372Y-8483484D01*
X6139372Y-8483484D02*
X6091753Y-8483484D01*
X6091753Y-8483484D02*
X6072705Y-8473960D01*
X6072705Y-8473960D02*
X6063182Y-8464436D01*
X6244134Y-8283484D02*
X6377467Y-8283484D01*
X6377467Y-8283484D02*
X6291753Y-8483484D01*
X6444134Y-8283484D02*
X6444134Y-8321579D01*
X6520324Y-8283484D02*
X6520324Y-8321579D01*
X6815563Y-8559674D02*
X6806039Y-8550150D01*
X6806039Y-8550150D02*
X6786991Y-8521579D01*
X6786991Y-8521579D02*
X6777467Y-8502531D01*
X6777467Y-8502531D02*
X6767944Y-8473960D01*
X6767944Y-8473960D02*
X6758420Y-8426341D01*
X6758420Y-8426341D02*
X6758420Y-8388246D01*
X6758420Y-8388246D02*
X6767944Y-8340627D01*
X6767944Y-8340627D02*
X6777467Y-8312055D01*
X6777467Y-8312055D02*
X6786991Y-8293008D01*
X6786991Y-8293008D02*
X6806039Y-8264436D01*
X6806039Y-8264436D02*
X6815563Y-8254912D01*
X6882229Y-8302531D02*
X6891753Y-8293008D01*
X6891753Y-8293008D02*
X6910801Y-8283484D01*
X6910801Y-8283484D02*
X6958420Y-8283484D01*
X6958420Y-8283484D02*
X6977467Y-8293008D01*
X6977467Y-8293008D02*
X6986991Y-8302531D01*
X6986991Y-8302531D02*
X6996515Y-8321579D01*
X6996515Y-8321579D02*
X6996515Y-8340627D01*
X6996515Y-8340627D02*
X6986991Y-8369198D01*
X6986991Y-8369198D02*
X6872705Y-8483484D01*
X6872705Y-8483484D02*
X6996515Y-8483484D01*
X7234610Y-8483484D02*
X7234610Y-8283484D01*
X7320325Y-8483484D02*
X7320325Y-8378722D01*
X7320325Y-8378722D02*
X7310801Y-8359674D01*
X7310801Y-8359674D02*
X7291753Y-8350150D01*
X7291753Y-8350150D02*
X7263182Y-8350150D01*
X7263182Y-8350150D02*
X7244134Y-8359674D01*
X7244134Y-8359674D02*
X7234610Y-8369198D01*
X7444134Y-8483484D02*
X7425086Y-8473960D01*
X7425086Y-8473960D02*
X7415563Y-8464436D01*
X7415563Y-8464436D02*
X7406039Y-8445389D01*
X7406039Y-8445389D02*
X7406039Y-8388246D01*
X7406039Y-8388246D02*
X7415563Y-8369198D01*
X7415563Y-8369198D02*
X7425086Y-8359674D01*
X7425086Y-8359674D02*
X7444134Y-8350150D01*
X7444134Y-8350150D02*
X7472706Y-8350150D01*
X7472706Y-8350150D02*
X7491753Y-8359674D01*
X7491753Y-8359674D02*
X7501277Y-8369198D01*
X7501277Y-8369198D02*
X7510801Y-8388246D01*
X7510801Y-8388246D02*
X7510801Y-8445389D01*
X7510801Y-8445389D02*
X7501277Y-8464436D01*
X7501277Y-8464436D02*
X7491753Y-8473960D01*
X7491753Y-8473960D02*
X7472706Y-8483484D01*
X7472706Y-8483484D02*
X7444134Y-8483484D01*
X7625086Y-8483484D02*
X7606039Y-8473960D01*
X7606039Y-8473960D02*
X7596515Y-8454912D01*
X7596515Y-8454912D02*
X7596515Y-8283484D01*
X7777467Y-8473960D02*
X7758420Y-8483484D01*
X7758420Y-8483484D02*
X7720325Y-8483484D01*
X7720325Y-8483484D02*
X7701277Y-8473960D01*
X7701277Y-8473960D02*
X7691753Y-8454912D01*
X7691753Y-8454912D02*
X7691753Y-8378722D01*
X7691753Y-8378722D02*
X7701277Y-8359674D01*
X7701277Y-8359674D02*
X7720325Y-8350150D01*
X7720325Y-8350150D02*
X7758420Y-8350150D01*
X7758420Y-8350150D02*
X7777467Y-8359674D01*
X7777467Y-8359674D02*
X7786991Y-8378722D01*
X7786991Y-8378722D02*
X7786991Y-8397770D01*
X7786991Y-8397770D02*
X7691753Y-8416817D01*
X7863182Y-8473960D02*
X7882229Y-8483484D01*
X7882229Y-8483484D02*
X7920325Y-8483484D01*
X7920325Y-8483484D02*
X7939372Y-8473960D01*
X7939372Y-8473960D02*
X7948896Y-8454912D01*
X7948896Y-8454912D02*
X7948896Y-8445389D01*
X7948896Y-8445389D02*
X7939372Y-8426341D01*
X7939372Y-8426341D02*
X7920325Y-8416817D01*
X7920325Y-8416817D02*
X7891753Y-8416817D01*
X7891753Y-8416817D02*
X7872706Y-8407293D01*
X7872706Y-8407293D02*
X7863182Y-8388246D01*
X7863182Y-8388246D02*
X7863182Y-8378722D01*
X7863182Y-8378722D02*
X7872706Y-8359674D01*
X7872706Y-8359674D02*
X7891753Y-8350150D01*
X7891753Y-8350150D02*
X7920325Y-8350150D01*
X7920325Y-8350150D02*
X7939372Y-8359674D01*
X8015563Y-8559674D02*
X8025087Y-8550150D01*
X8025087Y-8550150D02*
X8044134Y-8521579D01*
X8044134Y-8521579D02*
X8053658Y-8502531D01*
X8053658Y-8502531D02*
X8063182Y-8473960D01*
X8063182Y-8473960D02*
X8072706Y-8426341D01*
X8072706Y-8426341D02*
X8072706Y-8388246D01*
X8072706Y-8388246D02*
X8063182Y-8340627D01*
X8063182Y-8340627D02*
X8053658Y-8312055D01*
X8053658Y-8312055D02*
X8044134Y-8293008D01*
X8044134Y-8293008D02*
X8025087Y-8264436D01*
X8025087Y-8264436D02*
X8015563Y-8254912D01*
D10*
X3231713Y-8677213D02*
X3231713Y-8634787D01*
X3189286Y-8634787D01*
X3189286Y-8677213D01*
X3231713Y-8677213D01*
D11*
X3539372Y-8547484D02*
X3558419Y-8547484D01*
X3558419Y-8547484D02*
X3577467Y-8557008D01*
X3577467Y-8557008D02*
X3586991Y-8566531D01*
X3586991Y-8566531D02*
X3596515Y-8585579D01*
X3596515Y-8585579D02*
X3606038Y-8623674D01*
X3606038Y-8623674D02*
X3606038Y-8671293D01*
X3606038Y-8671293D02*
X3596515Y-8709389D01*
X3596515Y-8709389D02*
X3586991Y-8728436D01*
X3586991Y-8728436D02*
X3577467Y-8737960D01*
X3577467Y-8737960D02*
X3558419Y-8747484D01*
X3558419Y-8747484D02*
X3539372Y-8747484D01*
X3539372Y-8747484D02*
X3520324Y-8737960D01*
X3520324Y-8737960D02*
X3510800Y-8728436D01*
X3510800Y-8728436D02*
X3501277Y-8709389D01*
X3501277Y-8709389D02*
X3491753Y-8671293D01*
X3491753Y-8671293D02*
X3491753Y-8623674D01*
X3491753Y-8623674D02*
X3501277Y-8585579D01*
X3501277Y-8585579D02*
X3510800Y-8566531D01*
X3510800Y-8566531D02*
X3520324Y-8557008D01*
X3520324Y-8557008D02*
X3539372Y-8547484D01*
X3691753Y-8728436D02*
X3701277Y-8737960D01*
X3701277Y-8737960D02*
X3691753Y-8747484D01*
X3691753Y-8747484D02*
X3682229Y-8737960D01*
X3682229Y-8737960D02*
X3691753Y-8728436D01*
X3691753Y-8728436D02*
X3691753Y-8747484D01*
X3872705Y-8547484D02*
X3834610Y-8547484D01*
X3834610Y-8547484D02*
X3815562Y-8557008D01*
X3815562Y-8557008D02*
X3806038Y-8566531D01*
X3806038Y-8566531D02*
X3786991Y-8595103D01*
X3786991Y-8595103D02*
X3777467Y-8633198D01*
X3777467Y-8633198D02*
X3777467Y-8709389D01*
X3777467Y-8709389D02*
X3786991Y-8728436D01*
X3786991Y-8728436D02*
X3796515Y-8737960D01*
X3796515Y-8737960D02*
X3815562Y-8747484D01*
X3815562Y-8747484D02*
X3853658Y-8747484D01*
X3853658Y-8747484D02*
X3872705Y-8737960D01*
X3872705Y-8737960D02*
X3882229Y-8728436D01*
X3882229Y-8728436D02*
X3891753Y-8709389D01*
X3891753Y-8709389D02*
X3891753Y-8661770D01*
X3891753Y-8661770D02*
X3882229Y-8642722D01*
X3882229Y-8642722D02*
X3872705Y-8633198D01*
X3872705Y-8633198D02*
X3853658Y-8623674D01*
X3853658Y-8623674D02*
X3815562Y-8623674D01*
X3815562Y-8623674D02*
X3796515Y-8633198D01*
X3796515Y-8633198D02*
X3786991Y-8642722D01*
X3786991Y-8642722D02*
X3777467Y-8661770D01*
X4015562Y-8547484D02*
X4034610Y-8547484D01*
X4034610Y-8547484D02*
X4053658Y-8557008D01*
X4053658Y-8557008D02*
X4063181Y-8566531D01*
X4063181Y-8566531D02*
X4072705Y-8585579D01*
X4072705Y-8585579D02*
X4082229Y-8623674D01*
X4082229Y-8623674D02*
X4082229Y-8671293D01*
X4082229Y-8671293D02*
X4072705Y-8709389D01*
X4072705Y-8709389D02*
X4063181Y-8728436D01*
X4063181Y-8728436D02*
X4053658Y-8737960D01*
X4053658Y-8737960D02*
X4034610Y-8747484D01*
X4034610Y-8747484D02*
X4015562Y-8747484D01*
X4015562Y-8747484D02*
X3996515Y-8737960D01*
X3996515Y-8737960D02*
X3986991Y-8728436D01*
X3986991Y-8728436D02*
X3977467Y-8709389D01*
X3977467Y-8709389D02*
X3967943Y-8671293D01*
X3967943Y-8671293D02*
X3967943Y-8623674D01*
X3967943Y-8623674D02*
X3977467Y-8585579D01*
X3977467Y-8585579D02*
X3986991Y-8566531D01*
X3986991Y-8566531D02*
X3996515Y-8557008D01*
X3996515Y-8557008D02*
X4015562Y-8547484D01*
X4206039Y-8547484D02*
X4225086Y-8547484D01*
X4225086Y-8547484D02*
X4244134Y-8557008D01*
X4244134Y-8557008D02*
X4253658Y-8566531D01*
X4253658Y-8566531D02*
X4263181Y-8585579D01*
X4263181Y-8585579D02*
X4272705Y-8623674D01*
X4272705Y-8623674D02*
X4272705Y-8671293D01*
X4272705Y-8671293D02*
X4263181Y-8709389D01*
X4263181Y-8709389D02*
X4253658Y-8728436D01*
X4253658Y-8728436D02*
X4244134Y-8737960D01*
X4244134Y-8737960D02*
X4225086Y-8747484D01*
X4225086Y-8747484D02*
X4206039Y-8747484D01*
X4206039Y-8747484D02*
X4186991Y-8737960D01*
X4186991Y-8737960D02*
X4177467Y-8728436D01*
X4177467Y-8728436D02*
X4167943Y-8709389D01*
X4167943Y-8709389D02*
X4158419Y-8671293D01*
X4158419Y-8671293D02*
X4158419Y-8623674D01*
X4158419Y-8623674D02*
X4167943Y-8585579D01*
X4167943Y-8585579D02*
X4177467Y-8566531D01*
X4177467Y-8566531D02*
X4186991Y-8557008D01*
X4186991Y-8557008D02*
X4206039Y-8547484D01*
X4358420Y-8747484D02*
X4358420Y-8614150D01*
X4358420Y-8633198D02*
X4367943Y-8623674D01*
X4367943Y-8623674D02*
X4386991Y-8614150D01*
X4386991Y-8614150D02*
X4415562Y-8614150D01*
X4415562Y-8614150D02*
X4434610Y-8623674D01*
X4434610Y-8623674D02*
X4444134Y-8642722D01*
X4444134Y-8642722D02*
X4444134Y-8747484D01*
X4444134Y-8642722D02*
X4453658Y-8623674D01*
X4453658Y-8623674D02*
X4472705Y-8614150D01*
X4472705Y-8614150D02*
X4501277Y-8614150D01*
X4501277Y-8614150D02*
X4520324Y-8623674D01*
X4520324Y-8623674D02*
X4529848Y-8642722D01*
X4529848Y-8642722D02*
X4529848Y-8747484D01*
X4625086Y-8747484D02*
X4625086Y-8614150D01*
X4625086Y-8633198D02*
X4634610Y-8623674D01*
X4634610Y-8623674D02*
X4653658Y-8614150D01*
X4653658Y-8614150D02*
X4682229Y-8614150D01*
X4682229Y-8614150D02*
X4701277Y-8623674D01*
X4701277Y-8623674D02*
X4710801Y-8642722D01*
X4710801Y-8642722D02*
X4710801Y-8747484D01*
X4710801Y-8642722D02*
X4720324Y-8623674D01*
X4720324Y-8623674D02*
X4739372Y-8614150D01*
X4739372Y-8614150D02*
X4767943Y-8614150D01*
X4767943Y-8614150D02*
X4786991Y-8623674D01*
X4786991Y-8623674D02*
X4796515Y-8642722D01*
X4796515Y-8642722D02*
X4796515Y-8747484D01*
X5186991Y-8537960D02*
X5015563Y-8795103D01*
X5444134Y-8547484D02*
X5463182Y-8547484D01*
X5463182Y-8547484D02*
X5482229Y-8557008D01*
X5482229Y-8557008D02*
X5491753Y-8566531D01*
X5491753Y-8566531D02*
X5501277Y-8585579D01*
X5501277Y-8585579D02*
X5510801Y-8623674D01*
X5510801Y-8623674D02*
X5510801Y-8671293D01*
X5510801Y-8671293D02*
X5501277Y-8709389D01*
X5501277Y-8709389D02*
X5491753Y-8728436D01*
X5491753Y-8728436D02*
X5482229Y-8737960D01*
X5482229Y-8737960D02*
X5463182Y-8747484D01*
X5463182Y-8747484D02*
X5444134Y-8747484D01*
X5444134Y-8747484D02*
X5425086Y-8737960D01*
X5425086Y-8737960D02*
X5415563Y-8728436D01*
X5415563Y-8728436D02*
X5406039Y-8709389D01*
X5406039Y-8709389D02*
X5396515Y-8671293D01*
X5396515Y-8671293D02*
X5396515Y-8623674D01*
X5396515Y-8623674D02*
X5406039Y-8585579D01*
X5406039Y-8585579D02*
X5415563Y-8566531D01*
X5415563Y-8566531D02*
X5425086Y-8557008D01*
X5425086Y-8557008D02*
X5444134Y-8547484D01*
X5596515Y-8728436D02*
X5606039Y-8737960D01*
X5606039Y-8737960D02*
X5596515Y-8747484D01*
X5596515Y-8747484D02*
X5586991Y-8737960D01*
X5586991Y-8737960D02*
X5596515Y-8728436D01*
X5596515Y-8728436D02*
X5596515Y-8747484D01*
X5729848Y-8547484D02*
X5748896Y-8547484D01*
X5748896Y-8547484D02*
X5767943Y-8557008D01*
X5767943Y-8557008D02*
X5777467Y-8566531D01*
X5777467Y-8566531D02*
X5786991Y-8585579D01*
X5786991Y-8585579D02*
X5796515Y-8623674D01*
X5796515Y-8623674D02*
X5796515Y-8671293D01*
X5796515Y-8671293D02*
X5786991Y-8709389D01*
X5786991Y-8709389D02*
X5777467Y-8728436D01*
X5777467Y-8728436D02*
X5767943Y-8737960D01*
X5767943Y-8737960D02*
X5748896Y-8747484D01*
X5748896Y-8747484D02*
X5729848Y-8747484D01*
X5729848Y-8747484D02*
X5710801Y-8737960D01*
X5710801Y-8737960D02*
X5701277Y-8728436D01*
X5701277Y-8728436D02*
X5691753Y-8709389D01*
X5691753Y-8709389D02*
X5682229Y-8671293D01*
X5682229Y-8671293D02*
X5682229Y-8623674D01*
X5682229Y-8623674D02*
X5691753Y-8585579D01*
X5691753Y-8585579D02*
X5701277Y-8566531D01*
X5701277Y-8566531D02*
X5710801Y-8557008D01*
X5710801Y-8557008D02*
X5729848Y-8547484D01*
X5872705Y-8566531D02*
X5882229Y-8557008D01*
X5882229Y-8557008D02*
X5901277Y-8547484D01*
X5901277Y-8547484D02*
X5948896Y-8547484D01*
X5948896Y-8547484D02*
X5967943Y-8557008D01*
X5967943Y-8557008D02*
X5977467Y-8566531D01*
X5977467Y-8566531D02*
X5986991Y-8585579D01*
X5986991Y-8585579D02*
X5986991Y-8604627D01*
X5986991Y-8604627D02*
X5977467Y-8633198D01*
X5977467Y-8633198D02*
X5863182Y-8747484D01*
X5863182Y-8747484D02*
X5986991Y-8747484D01*
X6053658Y-8547484D02*
X6177467Y-8547484D01*
X6177467Y-8547484D02*
X6110801Y-8623674D01*
X6110801Y-8623674D02*
X6139372Y-8623674D01*
X6139372Y-8623674D02*
X6158420Y-8633198D01*
X6158420Y-8633198D02*
X6167943Y-8642722D01*
X6167943Y-8642722D02*
X6177467Y-8661770D01*
X6177467Y-8661770D02*
X6177467Y-8709389D01*
X6177467Y-8709389D02*
X6167943Y-8728436D01*
X6167943Y-8728436D02*
X6158420Y-8737960D01*
X6158420Y-8737960D02*
X6139372Y-8747484D01*
X6139372Y-8747484D02*
X6082229Y-8747484D01*
X6082229Y-8747484D02*
X6063182Y-8737960D01*
X6063182Y-8737960D02*
X6053658Y-8728436D01*
X6348896Y-8547484D02*
X6310801Y-8547484D01*
X6310801Y-8547484D02*
X6291753Y-8557008D01*
X6291753Y-8557008D02*
X6282229Y-8566531D01*
X6282229Y-8566531D02*
X6263182Y-8595103D01*
X6263182Y-8595103D02*
X6253658Y-8633198D01*
X6253658Y-8633198D02*
X6253658Y-8709389D01*
X6253658Y-8709389D02*
X6263182Y-8728436D01*
X6263182Y-8728436D02*
X6272705Y-8737960D01*
X6272705Y-8737960D02*
X6291753Y-8747484D01*
X6291753Y-8747484D02*
X6329848Y-8747484D01*
X6329848Y-8747484D02*
X6348896Y-8737960D01*
X6348896Y-8737960D02*
X6358420Y-8728436D01*
X6358420Y-8728436D02*
X6367943Y-8709389D01*
X6367943Y-8709389D02*
X6367943Y-8661770D01*
X6367943Y-8661770D02*
X6358420Y-8642722D01*
X6358420Y-8642722D02*
X6348896Y-8633198D01*
X6348896Y-8633198D02*
X6329848Y-8623674D01*
X6329848Y-8623674D02*
X6291753Y-8623674D01*
X6291753Y-8623674D02*
X6272705Y-8633198D01*
X6272705Y-8633198D02*
X6263182Y-8642722D01*
X6263182Y-8642722D02*
X6253658Y-8661770D01*
X6444134Y-8547484D02*
X6444134Y-8585579D01*
X6520324Y-8547484D02*
X6520324Y-8585579D01*
X6815563Y-8823674D02*
X6806039Y-8814150D01*
X6806039Y-8814150D02*
X6786991Y-8785579D01*
X6786991Y-8785579D02*
X6777467Y-8766531D01*
X6777467Y-8766531D02*
X6767944Y-8737960D01*
X6767944Y-8737960D02*
X6758420Y-8690341D01*
X6758420Y-8690341D02*
X6758420Y-8652246D01*
X6758420Y-8652246D02*
X6767944Y-8604627D01*
X6767944Y-8604627D02*
X6777467Y-8576055D01*
X6777467Y-8576055D02*
X6786991Y-8557008D01*
X6786991Y-8557008D02*
X6806039Y-8528436D01*
X6806039Y-8528436D02*
X6815563Y-8518912D01*
X6901277Y-8747484D02*
X6939372Y-8747484D01*
X6939372Y-8747484D02*
X6958420Y-8737960D01*
X6958420Y-8737960D02*
X6967944Y-8728436D01*
X6967944Y-8728436D02*
X6986991Y-8699865D01*
X6986991Y-8699865D02*
X6996515Y-8661770D01*
X6996515Y-8661770D02*
X6996515Y-8585579D01*
X6996515Y-8585579D02*
X6986991Y-8566531D01*
X6986991Y-8566531D02*
X6977467Y-8557008D01*
X6977467Y-8557008D02*
X6958420Y-8547484D01*
X6958420Y-8547484D02*
X6920324Y-8547484D01*
X6920324Y-8547484D02*
X6901277Y-8557008D01*
X6901277Y-8557008D02*
X6891753Y-8566531D01*
X6891753Y-8566531D02*
X6882229Y-8585579D01*
X6882229Y-8585579D02*
X6882229Y-8633198D01*
X6882229Y-8633198D02*
X6891753Y-8652246D01*
X6891753Y-8652246D02*
X6901277Y-8661770D01*
X6901277Y-8661770D02*
X6920324Y-8671293D01*
X6920324Y-8671293D02*
X6958420Y-8671293D01*
X6958420Y-8671293D02*
X6977467Y-8661770D01*
X6977467Y-8661770D02*
X6986991Y-8652246D01*
X6986991Y-8652246D02*
X6996515Y-8633198D01*
X7234610Y-8747484D02*
X7234610Y-8547484D01*
X7320325Y-8747484D02*
X7320325Y-8642722D01*
X7320325Y-8642722D02*
X7310801Y-8623674D01*
X7310801Y-8623674D02*
X7291753Y-8614150D01*
X7291753Y-8614150D02*
X7263182Y-8614150D01*
X7263182Y-8614150D02*
X7244134Y-8623674D01*
X7244134Y-8623674D02*
X7234610Y-8633198D01*
X7444134Y-8747484D02*
X7425086Y-8737960D01*
X7425086Y-8737960D02*
X7415563Y-8728436D01*
X7415563Y-8728436D02*
X7406039Y-8709389D01*
X7406039Y-8709389D02*
X7406039Y-8652246D01*
X7406039Y-8652246D02*
X7415563Y-8633198D01*
X7415563Y-8633198D02*
X7425086Y-8623674D01*
X7425086Y-8623674D02*
X7444134Y-8614150D01*
X7444134Y-8614150D02*
X7472706Y-8614150D01*
X7472706Y-8614150D02*
X7491753Y-8623674D01*
X7491753Y-8623674D02*
X7501277Y-8633198D01*
X7501277Y-8633198D02*
X7510801Y-8652246D01*
X7510801Y-8652246D02*
X7510801Y-8709389D01*
X7510801Y-8709389D02*
X7501277Y-8728436D01*
X7501277Y-8728436D02*
X7491753Y-8737960D01*
X7491753Y-8737960D02*
X7472706Y-8747484D01*
X7472706Y-8747484D02*
X7444134Y-8747484D01*
X7625086Y-8747484D02*
X7606039Y-8737960D01*
X7606039Y-8737960D02*
X7596515Y-8718912D01*
X7596515Y-8718912D02*
X7596515Y-8547484D01*
X7777467Y-8737960D02*
X7758420Y-8747484D01*
X7758420Y-8747484D02*
X7720325Y-8747484D01*
X7720325Y-8747484D02*
X7701277Y-8737960D01*
X7701277Y-8737960D02*
X7691753Y-8718912D01*
X7691753Y-8718912D02*
X7691753Y-8642722D01*
X7691753Y-8642722D02*
X7701277Y-8623674D01*
X7701277Y-8623674D02*
X7720325Y-8614150D01*
X7720325Y-8614150D02*
X7758420Y-8614150D01*
X7758420Y-8614150D02*
X7777467Y-8623674D01*
X7777467Y-8623674D02*
X7786991Y-8642722D01*
X7786991Y-8642722D02*
X7786991Y-8661770D01*
X7786991Y-8661770D02*
X7691753Y-8680817D01*
X7863182Y-8737960D02*
X7882229Y-8747484D01*
X7882229Y-8747484D02*
X7920325Y-8747484D01*
X7920325Y-8747484D02*
X7939372Y-8737960D01*
X7939372Y-8737960D02*
X7948896Y-8718912D01*
X7948896Y-8718912D02*
X7948896Y-8709389D01*
X7948896Y-8709389D02*
X7939372Y-8690341D01*
X7939372Y-8690341D02*
X7920325Y-8680817D01*
X7920325Y-8680817D02*
X7891753Y-8680817D01*
X7891753Y-8680817D02*
X7872706Y-8671293D01*
X7872706Y-8671293D02*
X7863182Y-8652246D01*
X7863182Y-8652246D02*
X7863182Y-8642722D01*
X7863182Y-8642722D02*
X7872706Y-8623674D01*
X7872706Y-8623674D02*
X7891753Y-8614150D01*
X7891753Y-8614150D02*
X7920325Y-8614150D01*
X7920325Y-8614150D02*
X7939372Y-8623674D01*
X8015563Y-8823674D02*
X8025087Y-8814150D01*
X8025087Y-8814150D02*
X8044134Y-8785579D01*
X8044134Y-8785579D02*
X8053658Y-8766531D01*
X8053658Y-8766531D02*
X8063182Y-8737960D01*
X8063182Y-8737960D02*
X8072706Y-8690341D01*
X8072706Y-8690341D02*
X8072706Y-8652246D01*
X8072706Y-8652246D02*
X8063182Y-8604627D01*
X8063182Y-8604627D02*
X8053658Y-8576055D01*
X8053658Y-8576055D02*
X8044134Y-8557008D01*
X8044134Y-8557008D02*
X8025087Y-8528436D01*
X8025087Y-8528436D02*
X8015563Y-8518912D01*
M02*
