%TF.GenerationSoftware,KiCad,Pcbnew,8.0.2*%
%TF.CreationDate,2024-06-10T22:47:20+08:00*%
%TF.ProjectId,bldcDriver,626c6463-4472-4697-9665-722e6b696361,rev?*%
%TF.SameCoordinates,Original*%
%TF.FileFunction,Legend,Bot*%
%TF.FilePolarity,Positive*%
%FSLAX46Y46*%
G04 Gerber Fmt 4.6, Leading zero omitted, Abs format (unit mm)*
G04 Created by KiCad (PCBNEW 8.0.2) date 2024-06-10 22:47:20*
%MOMM*%
%LPD*%
G01*
G04 APERTURE LIST*
%ADD10C,0.375000*%
%ADD11C,0.150000*%
%ADD12C,0.120000*%
%ADD13C,0.152000*%
%ADD14C,0.254000*%
%ADD15C,0.000000*%
%ADD16C,0.300000*%
G04 APERTURE END LIST*
D10*
G36*
X109906853Y-42271928D02*
G01*
X104731893Y-42271928D01*
X104731893Y-40360349D01*
X104919393Y-40360349D01*
X104919393Y-40433507D01*
X104947389Y-40501097D01*
X104947390Y-40501098D01*
X104970707Y-40529511D01*
X105291744Y-40847820D01*
X105228882Y-40882906D01*
X105212194Y-40891160D01*
X105209404Y-40893778D01*
X105207689Y-40894736D01*
X105205336Y-40897597D01*
X105185395Y-40916316D01*
X105115251Y-41001057D01*
X105104659Y-41012394D01*
X105102891Y-41015989D01*
X105101520Y-41017646D01*
X105100292Y-41021275D01*
X105088442Y-41045379D01*
X105045687Y-41166350D01*
X105042815Y-41170044D01*
X105037322Y-41190020D01*
X105025401Y-41223751D01*
X105025691Y-41232318D01*
X105023419Y-41240584D01*
X105024381Y-41277328D01*
X105068151Y-41603389D01*
X105067663Y-41605506D01*
X105071557Y-41628765D01*
X105077136Y-41670320D01*
X105079091Y-41673759D01*
X105079745Y-41677660D01*
X105096076Y-41710588D01*
X105186049Y-41849072D01*
X105194847Y-41867216D01*
X105204919Y-41878115D01*
X105207803Y-41882554D01*
X105211374Y-41885101D01*
X105219793Y-41894211D01*
X105301232Y-41963035D01*
X105313319Y-41976318D01*
X105325677Y-41983693D01*
X105329884Y-41987248D01*
X105334064Y-41988698D01*
X105344882Y-41995154D01*
X105471572Y-42052066D01*
X105472335Y-42052829D01*
X105484329Y-42057797D01*
X105531299Y-42078897D01*
X105535780Y-42079108D01*
X105539925Y-42080825D01*
X105576504Y-42084428D01*
X105979298Y-42081308D01*
X105986527Y-42083508D01*
X106011643Y-42081057D01*
X106041655Y-42080825D01*
X106050168Y-42077298D01*
X106059340Y-42076404D01*
X106093311Y-42062369D01*
X106236621Y-41982380D01*
X106253314Y-41974125D01*
X106256103Y-41971506D01*
X106257819Y-41970549D01*
X106260172Y-41967687D01*
X106280112Y-41948969D01*
X106363988Y-41847639D01*
X106379683Y-41801234D01*
X106524510Y-41801234D01*
X106526894Y-41837012D01*
X106529001Y-41872816D01*
X106529326Y-41873486D01*
X106529376Y-41874232D01*
X106545271Y-41906372D01*
X106560919Y-41938645D01*
X106561592Y-41939373D01*
X106561808Y-41939810D01*
X106562787Y-41940667D01*
X106585865Y-41965640D01*
X106648329Y-42018428D01*
X106649013Y-42019630D01*
X106658285Y-42026841D01*
X106695956Y-42058677D01*
X106696660Y-42058921D01*
X106697221Y-42059412D01*
X106702423Y-42061171D01*
X106706762Y-42064546D01*
X106736218Y-42072645D01*
X106765073Y-42082656D01*
X106765817Y-42082612D01*
X106766523Y-42082851D01*
X106772005Y-42082485D01*
X106777303Y-42083942D01*
X106807607Y-42080154D01*
X106838106Y-42078360D01*
X106838777Y-42078034D01*
X106839521Y-42077985D01*
X106844446Y-42075549D01*
X106849896Y-42074868D01*
X106876449Y-42059768D01*
X106903935Y-42046442D01*
X106904430Y-42045884D01*
X106905099Y-42045554D01*
X106910710Y-42040286D01*
X106913492Y-42038705D01*
X106916458Y-42034890D01*
X106931898Y-42020398D01*
X107010514Y-41925422D01*
X107015037Y-41920335D01*
X107015261Y-41919688D01*
X107015774Y-41919069D01*
X107027279Y-41885049D01*
X107035850Y-41860349D01*
X107249750Y-41860349D01*
X107249750Y-41933507D01*
X107277746Y-42001097D01*
X107329478Y-42052829D01*
X107397068Y-42080825D01*
X107433647Y-42084428D01*
X107844475Y-42082771D01*
X107848731Y-42083942D01*
X107858546Y-42082715D01*
X108327369Y-42080825D01*
X108394959Y-42052829D01*
X108446691Y-42001097D01*
X108474687Y-41933507D01*
X108474687Y-41860349D01*
X108446691Y-41792759D01*
X108394959Y-41741027D01*
X108327369Y-41713031D01*
X108290790Y-41709428D01*
X108027486Y-41710489D01*
X107927404Y-40924697D01*
X108111655Y-41007468D01*
X108184732Y-41010917D01*
X108253567Y-40986137D01*
X108307679Y-40936901D01*
X108338829Y-40870706D01*
X108342278Y-40797629D01*
X108317497Y-40728793D01*
X108268262Y-40674682D01*
X108236698Y-40655847D01*
X108114738Y-40601058D01*
X107990531Y-40493797D01*
X107887883Y-40367189D01*
X108346734Y-40367189D01*
X108349446Y-40440297D01*
X108361411Y-40475051D01*
X109042948Y-41953693D01*
X109045491Y-41967111D01*
X109057772Y-41985856D01*
X109067427Y-42006802D01*
X109077815Y-42016448D01*
X109085585Y-42028306D01*
X109104374Y-42041108D01*
X109121039Y-42056581D01*
X109134329Y-42061517D01*
X109146044Y-42069499D01*
X109168304Y-42074136D01*
X109189621Y-42082054D01*
X109203786Y-42081528D01*
X109217665Y-42084420D01*
X109240008Y-42080185D01*
X109262730Y-42079343D01*
X109275613Y-42073438D01*
X109289544Y-42070798D01*
X109308569Y-42058333D01*
X109329235Y-42048861D01*
X109338878Y-42038474D01*
X109350739Y-42030704D01*
X109363543Y-42011910D01*
X109379014Y-41995249D01*
X109383949Y-41981960D01*
X109391932Y-41970245D01*
X109402920Y-41935169D01*
X109719353Y-40398625D01*
X109705731Y-40326746D01*
X109665637Y-40265550D01*
X109605178Y-40224357D01*
X109533557Y-40209436D01*
X109461678Y-40223059D01*
X109400483Y-40263152D01*
X109359290Y-40323612D01*
X109348302Y-40358687D01*
X109153286Y-41305649D01*
X108683794Y-40287054D01*
X108630183Y-40237275D01*
X108561600Y-40211801D01*
X108488492Y-40214513D01*
X108421987Y-40244995D01*
X108372208Y-40298606D01*
X108346734Y-40367189D01*
X107887883Y-40367189D01*
X107825849Y-40290676D01*
X107816495Y-40274226D01*
X107805712Y-40265840D01*
X107796197Y-40254103D01*
X107776526Y-40243139D01*
X107758745Y-40229310D01*
X107744865Y-40225493D01*
X107732294Y-40218487D01*
X107709921Y-40215885D01*
X107688205Y-40209914D01*
X107673924Y-40211699D01*
X107659623Y-40210036D01*
X107637956Y-40216194D01*
X107615612Y-40218988D01*
X107603097Y-40226104D01*
X107589252Y-40230040D01*
X107571598Y-40244015D01*
X107552016Y-40255151D01*
X107543176Y-40266516D01*
X107531893Y-40275449D01*
X107520929Y-40295119D01*
X107507100Y-40312901D01*
X107503283Y-40326780D01*
X107496277Y-40339352D01*
X107493675Y-40361724D01*
X107487704Y-40383441D01*
X107488337Y-40407626D01*
X107487826Y-40412023D01*
X107488515Y-40414449D01*
X107488666Y-40420185D01*
X107653196Y-41711998D01*
X107397068Y-41713031D01*
X107329478Y-41741027D01*
X107277746Y-41792759D01*
X107249750Y-41860349D01*
X107035850Y-41860349D01*
X107039018Y-41851219D01*
X107038974Y-41850473D01*
X107039213Y-41849767D01*
X107036828Y-41813988D01*
X107034722Y-41778185D01*
X107034396Y-41777514D01*
X107034347Y-41776769D01*
X107018427Y-41744577D01*
X107002804Y-41712356D01*
X107002133Y-41711629D01*
X107001916Y-41711191D01*
X107000930Y-41710328D01*
X106977858Y-41685361D01*
X106915393Y-41632571D01*
X106914710Y-41631369D01*
X106905434Y-41624154D01*
X106867769Y-41592323D01*
X106867061Y-41592077D01*
X106866501Y-41591587D01*
X106861300Y-41589828D01*
X106856961Y-41586453D01*
X106827508Y-41578354D01*
X106798652Y-41568343D01*
X106797905Y-41568386D01*
X106797199Y-41568148D01*
X106791717Y-41568513D01*
X106786420Y-41567057D01*
X106756114Y-41570845D01*
X106725618Y-41572639D01*
X106724944Y-41572965D01*
X106724201Y-41573015D01*
X106719277Y-41575449D01*
X106713827Y-41576131D01*
X106687267Y-41591233D01*
X106659789Y-41604557D01*
X106659293Y-41605114D01*
X106658623Y-41605446D01*
X106653013Y-41610712D01*
X106650231Y-41612294D01*
X106647264Y-41616108D01*
X106631824Y-41630602D01*
X106553232Y-41725549D01*
X106548685Y-41730665D01*
X106548459Y-41731315D01*
X106547949Y-41731932D01*
X106536468Y-41765875D01*
X106524705Y-41799782D01*
X106524748Y-41800527D01*
X106524510Y-41801234D01*
X106379683Y-41801234D01*
X106387427Y-41778337D01*
X106382560Y-41705339D01*
X106350129Y-41639762D01*
X106295072Y-41591587D01*
X106225770Y-41568148D01*
X106152772Y-41573015D01*
X106087194Y-41605446D01*
X106060395Y-41630602D01*
X106023339Y-41675368D01*
X105961715Y-41709763D01*
X105623197Y-41712385D01*
X105533683Y-41672173D01*
X105491622Y-41636627D01*
X105436213Y-41551344D01*
X105399873Y-41280637D01*
X105424313Y-41211486D01*
X105442165Y-41189918D01*
X105504320Y-41155226D01*
X105711228Y-41152255D01*
X105711299Y-41152255D01*
X105761720Y-41131369D01*
X105778888Y-41124258D01*
X105830620Y-41072526D01*
X105838819Y-41052730D01*
X105858617Y-41004937D01*
X105858617Y-40931777D01*
X105836051Y-40877301D01*
X105830620Y-40864188D01*
X105830614Y-40864182D01*
X105807302Y-40835775D01*
X105552111Y-40582752D01*
X106068440Y-40580825D01*
X106136030Y-40552829D01*
X106187762Y-40501097D01*
X106215758Y-40433507D01*
X106215758Y-40360349D01*
X106187762Y-40292759D01*
X106136030Y-40241027D01*
X106068440Y-40213031D01*
X106031861Y-40209428D01*
X105066711Y-40213031D01*
X105066710Y-40213031D01*
X105052329Y-40218988D01*
X104999121Y-40241027D01*
X104947389Y-40292759D01*
X104919393Y-40360349D01*
X104731893Y-40360349D01*
X104731893Y-40021928D01*
X109906853Y-40021928D01*
X109906853Y-42271928D01*
G37*
D11*
X77845180Y-36561905D02*
X77035657Y-36561905D01*
X77035657Y-36561905D02*
X76940419Y-36514286D01*
X76940419Y-36514286D02*
X76892800Y-36466667D01*
X76892800Y-36466667D02*
X76845180Y-36371429D01*
X76845180Y-36371429D02*
X76845180Y-36180953D01*
X76845180Y-36180953D02*
X76892800Y-36085715D01*
X76892800Y-36085715D02*
X76940419Y-36038096D01*
X76940419Y-36038096D02*
X77035657Y-35990477D01*
X77035657Y-35990477D02*
X77845180Y-35990477D01*
X76845180Y-35466667D02*
X76845180Y-35276191D01*
X76845180Y-35276191D02*
X76892800Y-35180953D01*
X76892800Y-35180953D02*
X76940419Y-35133334D01*
X76940419Y-35133334D02*
X77083276Y-35038096D01*
X77083276Y-35038096D02*
X77273752Y-34990477D01*
X77273752Y-34990477D02*
X77654704Y-34990477D01*
X77654704Y-34990477D02*
X77749942Y-35038096D01*
X77749942Y-35038096D02*
X77797561Y-35085715D01*
X77797561Y-35085715D02*
X77845180Y-35180953D01*
X77845180Y-35180953D02*
X77845180Y-35371429D01*
X77845180Y-35371429D02*
X77797561Y-35466667D01*
X77797561Y-35466667D02*
X77749942Y-35514286D01*
X77749942Y-35514286D02*
X77654704Y-35561905D01*
X77654704Y-35561905D02*
X77416609Y-35561905D01*
X77416609Y-35561905D02*
X77321371Y-35514286D01*
X77321371Y-35514286D02*
X77273752Y-35466667D01*
X77273752Y-35466667D02*
X77226133Y-35371429D01*
X77226133Y-35371429D02*
X77226133Y-35180953D01*
X77226133Y-35180953D02*
X77273752Y-35085715D01*
X77273752Y-35085715D02*
X77321371Y-35038096D01*
X77321371Y-35038096D02*
X77416609Y-34990477D01*
X79045180Y-38187600D02*
X78807085Y-38187600D01*
X78902323Y-38425695D02*
X78807085Y-38187600D01*
X78807085Y-38187600D02*
X78902323Y-37949505D01*
X78616609Y-38330457D02*
X78807085Y-38187600D01*
X78807085Y-38187600D02*
X78616609Y-38044743D01*
X77954819Y-38187601D02*
X78192914Y-38187601D01*
X78097676Y-37949506D02*
X78192914Y-38187601D01*
X78192914Y-38187601D02*
X78097676Y-38425696D01*
X78383390Y-38044744D02*
X78192914Y-38187601D01*
X78192914Y-38187601D02*
X78383390Y-38330458D01*
D12*
%TO.C,R20*%
X87977500Y-65057776D02*
X87977500Y-65567224D01*
X89022500Y-65057776D02*
X89022500Y-65567224D01*
%TO.C,C9*%
X75257500Y-60496267D02*
X75257500Y-60203733D01*
X76277500Y-60496267D02*
X76277500Y-60203733D01*
%TO.C,R2*%
X63145724Y-42531500D02*
X62636276Y-42531500D01*
X63145724Y-43576500D02*
X62636276Y-43576500D01*
%TO.C,R23*%
X52475276Y-67667500D02*
X52984724Y-67667500D01*
X52475276Y-68712500D02*
X52984724Y-68712500D01*
%TO.C,R3*%
X42758500Y-34183724D02*
X42758500Y-33674276D01*
X43803500Y-34183724D02*
X43803500Y-33674276D01*
%TO.C,C6*%
X48431000Y-34092748D02*
X48431000Y-35515252D01*
X50251000Y-34092748D02*
X50251000Y-35515252D01*
D13*
%TO.C,D2*%
X97574000Y-69776000D02*
X97574000Y-67024000D01*
X97767000Y-69776000D02*
X97574000Y-69776000D01*
X99233000Y-69776000D02*
X99426000Y-69776000D01*
X99376000Y-67483000D02*
X97624000Y-67483000D01*
X99426000Y-69776000D02*
X99426000Y-67024000D01*
D12*
X97818000Y-67100000D02*
X97498000Y-67100000D01*
X97498000Y-66795000D01*
X97818000Y-66795000D01*
X97818000Y-67100000D01*
G36*
X97818000Y-67100000D02*
G01*
X97498000Y-67100000D01*
X97498000Y-66795000D01*
X97818000Y-66795000D01*
X97818000Y-67100000D01*
G37*
X99502000Y-67100000D02*
X99182000Y-67100000D01*
X99182000Y-66795000D01*
X99502000Y-66795000D01*
X99502000Y-67100000D01*
G36*
X99502000Y-67100000D02*
G01*
X99182000Y-67100000D01*
X99182000Y-66795000D01*
X99502000Y-66795000D01*
X99502000Y-67100000D01*
G37*
%TO.C,C18*%
X74516233Y-53840000D02*
X74808767Y-53840000D01*
X74516233Y-54860000D02*
X74808767Y-54860000D01*
%TO.C,R8*%
X42057224Y-68377500D02*
X41547776Y-68377500D01*
X42057224Y-69422500D02*
X41547776Y-69422500D01*
D14*
%TO.C,Q11*%
X111817500Y-53779476D02*
X115117500Y-53779476D01*
X115117500Y-57079476D02*
X111817500Y-57079476D01*
X111367500Y-56429476D02*
G75*
G02*
X111167500Y-56429476I-100000J0D01*
G01*
X111167500Y-56429476D02*
G75*
G02*
X111367500Y-56429476I100000J0D01*
G01*
D12*
%TO.C,R17*%
X113097776Y-52548976D02*
X113607224Y-52548976D01*
X113097776Y-53593976D02*
X113607224Y-53593976D01*
%TO.C,C4*%
X61481000Y-38107733D02*
X61481000Y-38400267D01*
X62501000Y-38107733D02*
X62501000Y-38400267D01*
%TO.C,C41*%
X76891233Y-62390000D02*
X77183767Y-62390000D01*
X76891233Y-63410000D02*
X77183767Y-63410000D01*
D14*
%TO.C,Q9*%
X111565000Y-61150000D02*
X114865000Y-61150000D01*
X114865000Y-64450000D02*
X111565000Y-64450000D01*
X111115000Y-63800000D02*
G75*
G02*
X110915000Y-63800000I-100000J0D01*
G01*
X110915000Y-63800000D02*
G75*
G02*
X111115000Y-63800000I100000J0D01*
G01*
D12*
%TO.C,C29*%
X52990000Y-55646267D02*
X52990000Y-55353733D01*
X54010000Y-55646267D02*
X54010000Y-55353733D01*
D14*
%TO.C,Q8*%
X107667500Y-68671476D02*
X110967500Y-68671476D01*
X110967500Y-71971476D02*
X107667500Y-71971476D01*
X107217500Y-71321476D02*
G75*
G02*
X107017500Y-71321476I-100000J0D01*
G01*
X107017500Y-71321476D02*
G75*
G02*
X107217500Y-71321476I100000J0D01*
G01*
D12*
%TO.C,R4*%
X41974724Y-60777500D02*
X41465276Y-60777500D01*
X41974724Y-61822500D02*
X41465276Y-61822500D01*
D14*
%TO.C,Q13*%
X39618500Y-64725000D02*
X42918500Y-64725000D01*
X42918500Y-68025000D02*
X39618500Y-68025000D01*
X43568500Y-65375000D02*
G75*
G02*
X43368500Y-65375000I-100000J0D01*
G01*
X43368500Y-65375000D02*
G75*
G02*
X43568500Y-65375000I100000J0D01*
G01*
D12*
%TO.C,R19*%
X46034724Y-53387500D02*
X45525276Y-53387500D01*
X46034724Y-54432500D02*
X45525276Y-54432500D01*
%TO.C,D22*%
X43662500Y-62350000D02*
X43662500Y-64350000D01*
X47672500Y-62350000D02*
X43662500Y-62350000D01*
X47672500Y-64350000D02*
X43662500Y-64350000D01*
%TO.C,C68*%
X79502500Y-42953733D02*
X79502500Y-43246267D01*
X80522500Y-42953733D02*
X80522500Y-43246267D01*
%TO.C,C35*%
X50813733Y-54000000D02*
X51106267Y-54000000D01*
X50813733Y-55020000D02*
X51106267Y-55020000D01*
%TO.C,C2*%
X47956000Y-41492748D02*
X47956000Y-42015252D01*
X49426000Y-41492748D02*
X49426000Y-42015252D01*
%TO.C,D19*%
X106950000Y-57471476D02*
X110960000Y-57471476D01*
X106950000Y-59471476D02*
X110960000Y-59471476D01*
X110960000Y-59471476D02*
X110960000Y-57471476D01*
%TO.C,C30*%
X49490000Y-59383767D02*
X49490000Y-59091233D01*
X50510000Y-59383767D02*
X50510000Y-59091233D01*
%TO.C,R30*%
X86477500Y-68942224D02*
X86477500Y-68432776D01*
X87522500Y-68942224D02*
X87522500Y-68432776D01*
%TO.C,R37*%
X72882776Y-62377500D02*
X73392224Y-62377500D01*
X72882776Y-63422500D02*
X73392224Y-63422500D01*
%TO.C,C50*%
X44331000Y-33807733D02*
X44331000Y-34100267D01*
X45351000Y-33807733D02*
X45351000Y-34100267D01*
D14*
%TO.C,Q14*%
X43885000Y-57240000D02*
X47185000Y-57240000D01*
X47185000Y-60540000D02*
X43885000Y-60540000D01*
X47835000Y-57890000D02*
G75*
G02*
X47635000Y-57890000I-100000J0D01*
G01*
X47635000Y-57890000D02*
G75*
G02*
X47835000Y-57890000I100000J0D01*
G01*
D12*
%TO.C,C42*%
X62853733Y-61190000D02*
X63146267Y-61190000D01*
X62853733Y-62210000D02*
X63146267Y-62210000D01*
%TO.C,U6*%
X80550000Y-63805000D02*
X82500000Y-63805000D01*
X80550000Y-68925000D02*
X82500000Y-68925000D01*
X84450000Y-63805000D02*
X82500000Y-63805000D01*
X84450000Y-68925000D02*
X82500000Y-68925000D01*
X85200000Y-63900000D02*
X84960000Y-63570000D01*
X85440000Y-63570000D01*
X85200000Y-63900000D01*
G36*
X85200000Y-63900000D02*
G01*
X84960000Y-63570000D01*
X85440000Y-63570000D01*
X85200000Y-63900000D01*
G37*
%TO.C,R45*%
X77477500Y-70354724D02*
X77477500Y-69845276D01*
X78522500Y-70354724D02*
X78522500Y-69845276D01*
%TO.C,C33*%
X118388748Y-64590000D02*
X119811252Y-64590000D01*
X118388748Y-66410000D02*
X119811252Y-66410000D01*
D14*
%TO.C,Q15*%
X40055000Y-49750714D02*
X43355000Y-49750714D01*
X43355000Y-53050714D02*
X40055000Y-53050714D01*
X44005000Y-50400714D02*
G75*
G02*
X43805000Y-50400714I-100000J0D01*
G01*
X43805000Y-50400714D02*
G75*
G02*
X44005000Y-50400714I100000J0D01*
G01*
%TO.C,Q1*%
X43767500Y-64725000D02*
X47067500Y-64725000D01*
X47067500Y-68025000D02*
X43767500Y-68025000D01*
X47717500Y-65375000D02*
G75*
G02*
X47517500Y-65375000I-100000J0D01*
G01*
X47517500Y-65375000D02*
G75*
G02*
X47717500Y-65375000I100000J0D01*
G01*
D12*
%TO.C,C27*%
X69883767Y-62390000D02*
X69591233Y-62390000D01*
X69883767Y-63410000D02*
X69591233Y-63410000D01*
D15*
%TO.C,U9*%
G36*
X79560600Y-35390502D02*
G01*
X79306600Y-35390502D01*
X79306600Y-35009502D01*
X79560600Y-35009502D01*
X79560600Y-35390502D01*
G37*
G36*
X75293400Y-35790501D02*
G01*
X75039400Y-35790501D01*
X75039400Y-35409501D01*
X75293400Y-35409501D01*
X75293400Y-35790501D01*
G37*
D12*
%TO.C,U7*%
X66462500Y-63845000D02*
X68412500Y-63845000D01*
X66462500Y-68965000D02*
X68412500Y-68965000D01*
X70362500Y-63845000D02*
X68412500Y-63845000D01*
X70362500Y-68965000D02*
X68412500Y-68965000D01*
X71112500Y-63940000D02*
X70872500Y-63610000D01*
X71352500Y-63610000D01*
X71112500Y-63940000D01*
G36*
X71112500Y-63940000D02*
G01*
X70872500Y-63610000D01*
X71352500Y-63610000D01*
X71112500Y-63940000D01*
G37*
%TO.C,U5*%
X74152500Y-46090000D02*
X74152500Y-46265000D01*
X74152500Y-53010000D02*
X74152500Y-52535000D01*
X74392500Y-45790000D02*
X74627500Y-45790000D01*
X74627500Y-53010000D02*
X74152500Y-53010000D01*
X80897500Y-45790000D02*
X81372500Y-45790000D01*
X80897500Y-53010000D02*
X81372500Y-53010000D01*
X81372500Y-45790000D02*
X81372500Y-46265000D01*
X81372500Y-53010000D02*
X81372500Y-52535000D01*
X74152500Y-45790000D02*
X73822500Y-46030000D01*
X73822500Y-45550000D01*
X74152500Y-45790000D01*
G36*
X74152500Y-45790000D02*
G01*
X73822500Y-46030000D01*
X73822500Y-45550000D01*
X74152500Y-45790000D01*
G37*
%TO.C,C51*%
X36311252Y-64490000D02*
X34888748Y-64490000D01*
X36311252Y-66310000D02*
X34888748Y-66310000D01*
%TO.C,R21*%
X73877500Y-65145276D02*
X73877500Y-65654724D01*
X74922500Y-65145276D02*
X74922500Y-65654724D01*
%TO.C,R22*%
X49584724Y-67667500D02*
X49075276Y-67667500D01*
X49584724Y-68712500D02*
X49075276Y-68712500D01*
%TO.C,R11*%
X105448564Y-69990000D02*
X103994436Y-69990000D01*
X105448564Y-71810000D02*
X103994436Y-71810000D01*
%TO.C,D8*%
X43116000Y-37189000D02*
X45576000Y-37189000D01*
X45576000Y-35719000D02*
X43116000Y-35719000D01*
X45576000Y-37189000D02*
X45576000Y-35719000D01*
%TO.C,R44*%
X80754724Y-69377500D02*
X80245276Y-69377500D01*
X80754724Y-70422500D02*
X80245276Y-70422500D01*
%TO.C,R50*%
X76845276Y-63877500D02*
X77354724Y-63877500D01*
X76845276Y-64922500D02*
X77354724Y-64922500D01*
%TO.C,R29*%
X102647224Y-53328976D02*
X102137776Y-53328976D01*
X102647224Y-54373976D02*
X102137776Y-54373976D01*
%TO.C,C12*%
X118626248Y-51890000D02*
X120048752Y-51890000D01*
X118626248Y-53710000D02*
X120048752Y-53710000D01*
%TO.C,R24*%
X49614724Y-52487500D02*
X49105276Y-52487500D01*
X49614724Y-53532500D02*
X49105276Y-53532500D01*
%TO.C,C14*%
X118688748Y-55090000D02*
X120111252Y-55090000D01*
X118688748Y-56910000D02*
X120111252Y-56910000D01*
%TO.C,C10*%
X76867500Y-60496267D02*
X76867500Y-60203733D01*
X77887500Y-60496267D02*
X77887500Y-60203733D01*
%TO.C,R7*%
X46144724Y-68377500D02*
X45635276Y-68377500D01*
X46144724Y-69422500D02*
X45635276Y-69422500D01*
%TO.C,FB3*%
X73682500Y-60166233D02*
X73682500Y-60458767D01*
X74702500Y-60166233D02*
X74702500Y-60458767D01*
%TO.C,C52*%
X70090000Y-32291233D02*
X70090000Y-32583767D01*
X71110000Y-32291233D02*
X71110000Y-32583767D01*
D13*
%TO.C,D1*%
X58077000Y-32539000D02*
X58077000Y-37208000D01*
X58077000Y-35789000D02*
X60805000Y-35789000D01*
X58428000Y-32545000D02*
X58077000Y-32545000D01*
X60360000Y-32545000D02*
X60711000Y-32545000D01*
X60787000Y-32545000D02*
X60805000Y-37230000D01*
D12*
X58479000Y-37306000D02*
X58001000Y-37306000D01*
X58001000Y-36849000D01*
X58479000Y-36849000D01*
X58479000Y-37306000D01*
G36*
X58479000Y-37306000D02*
G01*
X58001000Y-37306000D01*
X58001000Y-36849000D01*
X58479000Y-36849000D01*
X58479000Y-37306000D01*
G37*
X60881000Y-37319000D02*
X60403000Y-37319000D01*
X60403000Y-36862000D01*
X60881000Y-36862000D01*
X60881000Y-37319000D01*
G36*
X60881000Y-37319000D02*
G01*
X60403000Y-37319000D01*
X60403000Y-36862000D01*
X60881000Y-36862000D01*
X60881000Y-37319000D01*
G37*
%TO.C,FB2*%
X61331000Y-34581064D02*
X61331000Y-33126936D01*
X63151000Y-34581064D02*
X63151000Y-33126936D01*
%TO.C,R5*%
X45934724Y-60767500D02*
X45425276Y-60767500D01*
X45934724Y-61812500D02*
X45425276Y-61812500D01*
%TO.C,C16*%
X104382500Y-64524209D02*
X104382500Y-64816743D01*
X105402500Y-64524209D02*
X105402500Y-64816743D01*
D14*
%TO.C,Q7*%
X111796500Y-68656476D02*
X115096500Y-68656476D01*
X115096500Y-71956476D02*
X111796500Y-71956476D01*
X111346500Y-71306476D02*
G75*
G02*
X111146500Y-71306476I-100000J0D01*
G01*
X111146500Y-71306476D02*
G75*
G02*
X111346500Y-71306476I100000J0D01*
G01*
D12*
%TO.C,C34*%
X36311252Y-61890000D02*
X34888748Y-61890000D01*
X36311252Y-63710000D02*
X34888748Y-63710000D01*
%TO.C,C19*%
X71678733Y-45440000D02*
X71971267Y-45440000D01*
X71678733Y-46460000D02*
X71971267Y-46460000D01*
D14*
%TO.C,Q12*%
X107727500Y-53806476D02*
X111027500Y-53806476D01*
X111027500Y-57106476D02*
X107727500Y-57106476D01*
X107277500Y-56456476D02*
G75*
G02*
X107077500Y-56456476I-100000J0D01*
G01*
X107077500Y-56456476D02*
G75*
G02*
X107277500Y-56456476I100000J0D01*
G01*
D12*
%TO.C,R18*%
X108885276Y-52468976D02*
X109394724Y-52468976D01*
X108885276Y-53513976D02*
X109394724Y-53513976D01*
%TO.C,C26*%
X100690000Y-56946267D02*
X100690000Y-56653733D01*
X101710000Y-56946267D02*
X101710000Y-56653733D01*
%TO.C,C46*%
X66191233Y-62390000D02*
X66483767Y-62390000D01*
X66191233Y-63410000D02*
X66483767Y-63410000D01*
%TO.C,R26*%
X105345276Y-68477500D02*
X105854724Y-68477500D01*
X105345276Y-69522500D02*
X105854724Y-69522500D01*
%TO.C,R48*%
X77477500Y-66545276D02*
X77477500Y-67054724D01*
X78522500Y-66545276D02*
X78522500Y-67054724D01*
%TO.C,C45*%
X80291233Y-62390000D02*
X80583767Y-62390000D01*
X80291233Y-63410000D02*
X80583767Y-63410000D01*
%TO.C,R31*%
X87977500Y-68942224D02*
X87977500Y-68432776D01*
X89022500Y-68942224D02*
X89022500Y-68432776D01*
%TO.C,R14*%
X108806776Y-67448976D02*
X109316224Y-67448976D01*
X108806776Y-68493976D02*
X109316224Y-68493976D01*
%TO.C,C23*%
X78846267Y-32490001D02*
X78553733Y-32490001D01*
X78846267Y-33510001D02*
X78553733Y-33510001D01*
%TO.C,C49*%
X37611252Y-50590000D02*
X36188748Y-50590000D01*
X37611252Y-52410000D02*
X36188748Y-52410000D01*
D13*
%TO.C,D7*%
X55074000Y-53224000D02*
X55074000Y-55976000D01*
X55124000Y-55517000D02*
X56876000Y-55517000D01*
X55267000Y-53224000D02*
X55074000Y-53224000D01*
X56733000Y-53224000D02*
X56926000Y-53224000D01*
X56926000Y-53224000D02*
X56926000Y-55976000D01*
D12*
X55318000Y-56205000D02*
X54998000Y-56205000D01*
X54998000Y-55900000D01*
X55318000Y-55900000D01*
X55318000Y-56205000D01*
G36*
X55318000Y-56205000D02*
G01*
X54998000Y-56205000D01*
X54998000Y-55900000D01*
X55318000Y-55900000D01*
X55318000Y-56205000D01*
G37*
X57002000Y-56205000D02*
X56682000Y-56205000D01*
X56682000Y-55900000D01*
X57002000Y-55900000D01*
X57002000Y-56205000D01*
G36*
X57002000Y-56205000D02*
G01*
X56682000Y-56205000D01*
X56682000Y-55900000D01*
X57002000Y-55900000D01*
X57002000Y-56205000D01*
G37*
%TO.C,C7*%
X45971000Y-34072748D02*
X45971000Y-35495252D01*
X47791000Y-34072748D02*
X47791000Y-35495252D01*
%TO.C,R53*%
X98154724Y-44877500D02*
X97645276Y-44877500D01*
X98154724Y-45922500D02*
X97645276Y-45922500D01*
D13*
%TO.C,D3*%
X95974000Y-54824000D02*
X95974000Y-57576000D01*
X96024000Y-57117000D02*
X97776000Y-57117000D01*
X96167000Y-54824000D02*
X95974000Y-54824000D01*
X97633000Y-54824000D02*
X97826000Y-54824000D01*
X97826000Y-54824000D02*
X97826000Y-57576000D01*
D12*
X96218000Y-57805000D02*
X95898000Y-57805000D01*
X95898000Y-57500000D01*
X96218000Y-57500000D01*
X96218000Y-57805000D01*
G36*
X96218000Y-57805000D02*
G01*
X95898000Y-57805000D01*
X95898000Y-57500000D01*
X96218000Y-57500000D01*
X96218000Y-57805000D01*
G37*
X97902000Y-57805000D02*
X97582000Y-57805000D01*
X97582000Y-57500000D01*
X97902000Y-57500000D01*
X97902000Y-57805000D01*
G36*
X97902000Y-57805000D02*
G01*
X97582000Y-57805000D01*
X97582000Y-57500000D01*
X97902000Y-57500000D01*
X97902000Y-57805000D01*
G37*
%TO.C,R9*%
X49402936Y-65270000D02*
X50857064Y-65270000D01*
X49402936Y-67090000D02*
X50857064Y-67090000D01*
%TO.C,C17*%
X84146267Y-49990000D02*
X83853733Y-49990000D01*
X84146267Y-51010000D02*
X83853733Y-51010000D01*
%TO.C,D20*%
X112270000Y-50051476D02*
X116280000Y-50051476D01*
X112270000Y-52051476D02*
X116280000Y-52051476D01*
X116280000Y-52051476D02*
X116280000Y-50051476D01*
%TO.C,C22*%
X73353733Y-34385001D02*
X73646267Y-34385001D01*
X73353733Y-35405001D02*
X73646267Y-35405001D01*
%TO.C,C20*%
X71666233Y-43940000D02*
X71958767Y-43940000D01*
X71666233Y-44960000D02*
X71958767Y-44960000D01*
%TO.C,R51*%
X63377500Y-65345276D02*
X63377500Y-65854724D01*
X64422500Y-65345276D02*
X64422500Y-65854724D01*
D14*
%TO.C,Q16*%
X44164000Y-49760000D02*
X47464000Y-49760000D01*
X47464000Y-53060000D02*
X44164000Y-53060000D01*
X48114000Y-50410000D02*
G75*
G02*
X47914000Y-50410000I-100000J0D01*
G01*
X47914000Y-50410000D02*
G75*
G02*
X48114000Y-50410000I100000J0D01*
G01*
D12*
%TO.C,L1*%
X53341000Y-32004000D02*
X53341000Y-38004000D01*
X57541000Y-32004000D02*
X57541000Y-38004000D01*
%TO.C,R32*%
X74042224Y-68877500D02*
X73532776Y-68877500D01*
X74042224Y-69922500D02*
X73532776Y-69922500D01*
%TO.C,R33*%
X74042224Y-67377500D02*
X73532776Y-67377500D01*
X74042224Y-68422500D02*
X73532776Y-68422500D01*
%TO.C,C67*%
X73752500Y-43636267D02*
X73752500Y-43343733D01*
X74772500Y-43636267D02*
X74772500Y-43343733D01*
%TO.C,D17*%
X107259000Y-65071476D02*
X111269000Y-65071476D01*
X107259000Y-67071476D02*
X111269000Y-67071476D01*
X111269000Y-67071476D02*
X111269000Y-65071476D01*
D13*
%TO.C,U1*%
X98029000Y-59145500D02*
X101571000Y-59145500D01*
X98029000Y-65797500D02*
X98029000Y-59145500D01*
X101571000Y-59145500D02*
X101571000Y-65797500D01*
X101571000Y-65797500D02*
X98029000Y-65797500D01*
D16*
X97079000Y-66030500D02*
G75*
G02*
X96779000Y-66030500I-150000J0D01*
G01*
X96779000Y-66030500D02*
G75*
G02*
X97079000Y-66030500I150000J0D01*
G01*
X98931000Y-65396500D02*
G75*
G02*
X98631000Y-65396500I-150000J0D01*
G01*
X98631000Y-65396500D02*
G75*
G02*
X98931000Y-65396500I150000J0D01*
G01*
D12*
%TO.C,C11*%
X83983767Y-62390000D02*
X83691233Y-62390000D01*
X83983767Y-63410000D02*
X83691233Y-63410000D01*
%TO.C,C1*%
X50056000Y-41492748D02*
X50056000Y-42015252D01*
X51526000Y-41492748D02*
X51526000Y-42015252D01*
D13*
%TO.C,D10*%
X57174000Y-68676000D02*
X57174000Y-65924000D01*
X57367000Y-68676000D02*
X57174000Y-68676000D01*
X58833000Y-68676000D02*
X59026000Y-68676000D01*
X58976000Y-66383000D02*
X57224000Y-66383000D01*
X59026000Y-68676000D02*
X59026000Y-65924000D01*
D12*
X57418000Y-66000000D02*
X57098000Y-66000000D01*
X57098000Y-65695000D01*
X57418000Y-65695000D01*
X57418000Y-66000000D01*
G36*
X57418000Y-66000000D02*
G01*
X57098000Y-66000000D01*
X57098000Y-65695000D01*
X57418000Y-65695000D01*
X57418000Y-66000000D01*
G37*
X59102000Y-66000000D02*
X58782000Y-66000000D01*
X58782000Y-65695000D01*
X59102000Y-65695000D01*
X59102000Y-66000000D01*
G36*
X59102000Y-66000000D02*
G01*
X58782000Y-66000000D01*
X58782000Y-65695000D01*
X59102000Y-65695000D01*
X59102000Y-66000000D01*
G37*
%TO.C,R6*%
X42004724Y-53367500D02*
X41495276Y-53367500D01*
X42004724Y-54412500D02*
X41495276Y-54412500D01*
%TO.C,R47*%
X66654724Y-69377500D02*
X66145276Y-69377500D01*
X66654724Y-70422500D02*
X66145276Y-70422500D01*
%TO.C,FB4*%
X83866233Y-48490000D02*
X84158767Y-48490000D01*
X83866233Y-49510000D02*
X84158767Y-49510000D01*
%TO.C,R1*%
X62636276Y-40981500D02*
X63145724Y-40981500D01*
X62636276Y-42026500D02*
X63145724Y-42026500D01*
%TO.C,R10*%
X49642936Y-50230000D02*
X51097064Y-50230000D01*
X49642936Y-52050000D02*
X51097064Y-52050000D01*
%TO.C,C15*%
X94290000Y-59791233D02*
X94290000Y-60083767D01*
X95310000Y-59791233D02*
X95310000Y-60083767D01*
%TO.C,R38*%
X79612776Y-60690000D02*
X80122224Y-60690000D01*
X79612776Y-61735000D02*
X80122224Y-61735000D01*
%TO.C,D16*%
X112061500Y-65071476D02*
X116071500Y-65071476D01*
X112061500Y-67071476D02*
X116071500Y-67071476D01*
X116071500Y-67071476D02*
X116071500Y-65071476D01*
%TO.C,Y1*%
X75162500Y-41750000D02*
X75162500Y-44950000D01*
X79162500Y-41750000D02*
X75162500Y-41750000D01*
%TO.C,R46*%
X63377500Y-69154724D02*
X63377500Y-68645276D01*
X64422500Y-69154724D02*
X64422500Y-68645276D01*
D13*
%TO.C,D4*%
X98174000Y-54824000D02*
X98174000Y-57576000D01*
X98224000Y-57117000D02*
X99976000Y-57117000D01*
X98367000Y-54824000D02*
X98174000Y-54824000D01*
X99833000Y-54824000D02*
X100026000Y-54824000D01*
X100026000Y-54824000D02*
X100026000Y-57576000D01*
D12*
X98418000Y-57805000D02*
X98098000Y-57805000D01*
X98098000Y-57500000D01*
X98418000Y-57500000D01*
X98418000Y-57805000D01*
G36*
X98418000Y-57805000D02*
G01*
X98098000Y-57805000D01*
X98098000Y-57500000D01*
X98418000Y-57500000D01*
X98418000Y-57805000D01*
G37*
X100102000Y-57805000D02*
X99782000Y-57805000D01*
X99782000Y-57500000D01*
X100102000Y-57500000D01*
X100102000Y-57805000D01*
G36*
X100102000Y-57805000D02*
G01*
X99782000Y-57805000D01*
X99782000Y-57500000D01*
X100102000Y-57500000D01*
X100102000Y-57805000D01*
G37*
%TO.C,R39*%
X80147224Y-59090000D02*
X79637776Y-59090000D01*
X80147224Y-60135000D02*
X79637776Y-60135000D01*
%TO.C,C36*%
X104146267Y-66990000D02*
X103853733Y-66990000D01*
X104146267Y-68010000D02*
X103853733Y-68010000D01*
%TO.C,D9*%
X38750000Y-62320000D02*
X38750000Y-64320000D01*
X42760000Y-62320000D02*
X38750000Y-62320000D01*
X42760000Y-64320000D02*
X38750000Y-64320000D01*
%TO.C,C8*%
X84158767Y-51490000D02*
X83866233Y-51490000D01*
X84158767Y-52510000D02*
X83866233Y-52510000D01*
%TO.C,C38*%
X95890000Y-35853733D02*
X95890000Y-36146267D01*
X96910000Y-35853733D02*
X96910000Y-36146267D01*
%TO.C,R12*%
X105489564Y-54911476D02*
X104035436Y-54911476D01*
X105489564Y-56731476D02*
X104035436Y-56731476D01*
D13*
%TO.C,U2*%
X53429000Y-57602500D02*
X56971000Y-57602500D01*
X53429000Y-64254500D02*
X53429000Y-57602500D01*
X56971000Y-57602500D02*
X56971000Y-64254500D01*
X56971000Y-64254500D02*
X53429000Y-64254500D01*
D16*
X56369000Y-58003500D02*
G75*
G02*
X56069000Y-58003500I-150000J0D01*
G01*
X56069000Y-58003500D02*
G75*
G02*
X56369000Y-58003500I150000J0D01*
G01*
X58221000Y-57369500D02*
G75*
G02*
X57921000Y-57369500I-150000J0D01*
G01*
X57921000Y-57369500D02*
G75*
G02*
X58221000Y-57369500I150000J0D01*
G01*
D12*
%TO.C,R42*%
X75977500Y-66545276D02*
X75977500Y-67054724D01*
X77022500Y-66545276D02*
X77022500Y-67054724D01*
D11*
%TO.C,U3*%
X55216000Y-38684000D02*
X59366000Y-38684000D01*
X55216000Y-43834000D02*
X59366000Y-43834000D01*
D12*
X59791000Y-38759000D02*
X59551000Y-38429000D01*
X60031000Y-38429000D01*
X59791000Y-38759000D01*
G36*
X59791000Y-38759000D02*
G01*
X59551000Y-38429000D01*
X60031000Y-38429000D01*
X59791000Y-38759000D01*
G37*
%TO.C,C32*%
X59690000Y-63683767D02*
X59690000Y-63391233D01*
X60710000Y-63683767D02*
X60710000Y-63391233D01*
%TO.C,R34*%
X86477500Y-65045276D02*
X86477500Y-65554724D01*
X87522500Y-65045276D02*
X87522500Y-65554724D01*
D13*
%TO.C,D11*%
X54774000Y-68676000D02*
X54774000Y-65924000D01*
X54967000Y-68676000D02*
X54774000Y-68676000D01*
X56433000Y-68676000D02*
X56626000Y-68676000D01*
X56576000Y-66383000D02*
X54824000Y-66383000D01*
X56626000Y-68676000D02*
X56626000Y-65924000D01*
D12*
X55018000Y-66000000D02*
X54698000Y-66000000D01*
X54698000Y-65695000D01*
X55018000Y-65695000D01*
X55018000Y-66000000D01*
G36*
X55018000Y-66000000D02*
G01*
X54698000Y-66000000D01*
X54698000Y-65695000D01*
X55018000Y-65695000D01*
X55018000Y-66000000D01*
G37*
X56702000Y-66000000D02*
X56382000Y-66000000D01*
X56382000Y-65695000D01*
X56702000Y-65695000D01*
X56702000Y-66000000D01*
G36*
X56702000Y-66000000D02*
G01*
X56382000Y-66000000D01*
X56382000Y-65695000D01*
X56702000Y-65695000D01*
X56702000Y-66000000D01*
G37*
%TO.C,D18*%
X111817500Y-57400000D02*
X115827500Y-57400000D01*
X111817500Y-59400000D02*
X115827500Y-59400000D01*
X115827500Y-59400000D02*
X115827500Y-57400000D01*
%TO.C,D23*%
X38792500Y-54940000D02*
X38792500Y-56940000D01*
X42802500Y-54940000D02*
X38792500Y-54940000D01*
X42802500Y-56940000D02*
X38792500Y-56940000D01*
%TO.C,R16*%
X108525276Y-59888976D02*
X109034724Y-59888976D01*
X108525276Y-60933976D02*
X109034724Y-60933976D01*
%TO.C,D24*%
X43640000Y-54950000D02*
X43640000Y-56950000D01*
X47650000Y-54950000D02*
X43640000Y-54950000D01*
X47650000Y-56950000D02*
X43640000Y-56950000D01*
%TO.C,R52*%
X62782776Y-62577500D02*
X63292224Y-62577500D01*
X62782776Y-63622500D02*
X63292224Y-63622500D01*
D14*
%TO.C,Q10*%
X107435000Y-61216476D02*
X110735000Y-61216476D01*
X110735000Y-64516476D02*
X107435000Y-64516476D01*
X106985000Y-63866476D02*
G75*
G02*
X106785000Y-63866476I-100000J0D01*
G01*
X106785000Y-63866476D02*
G75*
G02*
X106985000Y-63866476I100000J0D01*
G01*
D12*
%TO.C,R25*%
X52425276Y-52487500D02*
X52934724Y-52487500D01*
X52425276Y-53532500D02*
X52934724Y-53532500D01*
%TO.C,C13*%
X72953733Y-35890000D02*
X73246267Y-35890000D01*
X72953733Y-36910000D02*
X73246267Y-36910000D01*
%TO.C,C21*%
X86090000Y-32253733D02*
X86090000Y-32546267D01*
X87110000Y-32253733D02*
X87110000Y-32546267D01*
%TO.C,D21*%
X107440000Y-50081476D02*
X111450000Y-50081476D01*
X107440000Y-52081476D02*
X111450000Y-52081476D01*
X111450000Y-52081476D02*
X111450000Y-50081476D01*
%TO.C,R27*%
X102554724Y-68477500D02*
X102045276Y-68477500D01*
X102554724Y-69522500D02*
X102045276Y-69522500D01*
%TO.C,C28*%
X50873733Y-69210000D02*
X51166267Y-69210000D01*
X50873733Y-70230000D02*
X51166267Y-70230000D01*
%TO.C,C24*%
X75153733Y-32485001D02*
X75446267Y-32485001D01*
X75153733Y-33505001D02*
X75446267Y-33505001D01*
%TO.C,D5*%
X39442500Y-69900000D02*
X39442500Y-71900000D01*
X43452500Y-69900000D02*
X39442500Y-69900000D01*
X43452500Y-71900000D02*
X39442500Y-71900000D01*
%TO.C,C25*%
X104390000Y-60953733D02*
X104390000Y-61246267D01*
X105410000Y-60953733D02*
X105410000Y-61246267D01*
%TO.C,C3*%
X52131000Y-41407733D02*
X52131000Y-41700267D01*
X53151000Y-41407733D02*
X53151000Y-41700267D01*
%TO.C,R35*%
X86882776Y-62377500D02*
X87392224Y-62377500D01*
X86882776Y-63422500D02*
X87392224Y-63422500D01*
%TO.C,C37*%
X104238767Y-51831476D02*
X103946233Y-51831476D01*
X104238767Y-52851476D02*
X103946233Y-52851476D01*
%TO.C,R43*%
X61777500Y-65345276D02*
X61777500Y-65854724D01*
X62822500Y-65345276D02*
X62822500Y-65854724D01*
%TO.C,R28*%
X105507776Y-53328976D02*
X106017224Y-53328976D01*
X105507776Y-54373976D02*
X106017224Y-54373976D01*
%TO.C,R15*%
X112625276Y-59877500D02*
X113134724Y-59877500D01*
X112625276Y-60922500D02*
X113134724Y-60922500D01*
%TO.C,FB1*%
X75153733Y-30990001D02*
X75446267Y-30990001D01*
X75153733Y-32010001D02*
X75446267Y-32010001D01*
%TO.C,C5*%
X50941000Y-34112748D02*
X50941000Y-35535252D01*
X52761000Y-34112748D02*
X52761000Y-35535252D01*
%TO.C,R36*%
X72377500Y-65145276D02*
X72377500Y-65654724D01*
X73422500Y-65145276D02*
X73422500Y-65654724D01*
D14*
%TO.C,Q2*%
X39735000Y-57180000D02*
X43035000Y-57180000D01*
X43035000Y-60480000D02*
X39735000Y-60480000D01*
X43685000Y-57830000D02*
G75*
G02*
X43485000Y-57830000I-100000J0D01*
G01*
X43485000Y-57830000D02*
G75*
G02*
X43685000Y-57830000I100000J0D01*
G01*
D12*
%TO.C,D6*%
X44242500Y-69900000D02*
X44242500Y-71900000D01*
X48252500Y-69900000D02*
X44242500Y-69900000D01*
X48252500Y-71900000D02*
X44242500Y-71900000D01*
%TO.C,R13*%
X112836776Y-67448976D02*
X113346224Y-67448976D01*
X112836776Y-68493976D02*
X113346224Y-68493976D01*
%TO.C,C31*%
X49490000Y-62783767D02*
X49490000Y-62491233D01*
X50510000Y-62783767D02*
X50510000Y-62491233D01*
%TO.C,R40*%
X66942224Y-53777500D02*
X66432776Y-53777500D01*
X66942224Y-54822500D02*
X66432776Y-54822500D01*
%TD*%
M02*
