M48
; DRILL file {KiCad 8.0.2} date 2024-06-24T01:17:45+0800
; FORMAT={-:-/ absolute / inch / decimal}
; #@! TF.CreationDate,2024-06-24T01:17:45+08:00
; #@! TF.GenerationSoftware,Kicad,Pcbnew,8.0.2
; #@! TF.FileFunction,Plated,1,4,PTH
FMAT,2
INCH
; #@! TA.AperFunction,Plated,PTH,ViaDrill
T1C0.0098
; #@! TA.AperFunction,Plated,PTH,ViaDrill
T2C0.0118
; #@! TA.AperFunction,Plated,PTH,ComponentDrill
T3C0.0118
; #@! TA.AperFunction,Plated,PTH,ViaDrill
T4C0.0157
; #@! TA.AperFunction,Plated,PTH,ViaDrill
T5C0.0197
; #@! TA.AperFunction,Plated,PTH,ViaDrill
T6C0.0236
; #@! TA.AperFunction,Plated,PTH,ComponentDrill
T7C0.0300
; #@! TA.AperFunction,Plated,PTH,ViaDrill
T8C0.0394
; #@! TA.AperFunction,Plated,PTH,ComponentDrill
T9C0.0866
; #@! TA.AperFunction,Plated,PTH,ComponentDrill
T10C0.1063
%
G90
G05
T1
X1.4274Y-1.6772
X1.4814Y-1.7548
X1.528Y-1.8096
X1.5281Y-1.6684
X1.5748Y-2.2024
X1.6024Y-2.5866
X1.6024Y-2.6102
X1.6024Y-2.6339
X1.6063Y-2.2953
X1.6063Y-2.3189
X1.6063Y-2.3425
X1.6066Y-2.4134
X1.6098Y-2.7126
X1.6142Y-1.9961
X1.6142Y-2.0197
X1.6142Y-2.0433
X1.626Y-2.5866
X1.626Y-2.6102
X1.626Y-2.6339
X1.6299Y-2.2953
X1.6299Y-2.3189
X1.6299Y-2.3425
X1.6378Y-1.9961
X1.6378Y-2.0197
X1.6378Y-2.0433
X1.7625Y-2.4321
X1.7677Y-2.0394
X1.7698Y-2.7913
X1.7756Y-2.0039
X1.7815Y-2.3185
X1.7913Y-2.0197
X1.811Y-2.0039
X1.815Y-2.0354
X1.8752Y-2.1116
X1.9062Y-2.6846
X1.922Y-2.0134
X1.9606Y-2.5
X1.9685Y-2.3661
X1.9723Y-2.1461
X1.9972Y-2.4657
X2.0251Y-2.3858
X2.0361Y-2.3085
X2.0403Y-2.1526
X2.2795Y-2.5139
X2.2863Y-2.3099
X2.2863Y-2.386
X2.2992Y-2.4882
X2.4094Y-2.122
X2.4464Y-2.4291
X2.5079Y-2.2165
X2.5157Y-2.7485
X2.5512Y-2.0669
X2.5866Y-2.4291
X2.5896Y-2.1378
X2.7795Y-1.311
X2.811Y-2.4567
X2.8435Y-2.4764
X2.8489Y-2.0138
X2.8543Y-2.0669
X2.8643Y-1.9655
X2.8806Y-1.9882
X2.8883Y-1.94
X2.9119Y-1.4331
X2.9277Y-2.063
X2.9409Y-2.6732
X2.9456Y-2.0849
X2.9517Y-1.4207
X2.9803Y-2.2165
X2.9926Y-1.7815
X2.9961Y-1.2901
X2.999Y-2.4764
X3.0094Y-2.1122
X3.0118Y-2.594
X3.0197Y-1.5551
X3.0276Y-2.7047
X3.0753Y-1.7795
X3.1024Y-1.5591
X3.1024Y-2.1156
X3.1078Y-1.7795
X3.125Y-1.4651
X3.1282Y-1.4133
X3.1353Y-2.1156
X3.1388Y-1.7697
X3.1659Y-1.7746
X3.1727Y-2.1156
X3.1782Y-1.4793
X3.1867Y-1.6897
X3.1908Y-2.3163
X3.1934Y-2.4094
X3.1954Y-2.0644
X3.2052Y-2.752
X3.2087Y-2.2205
X3.2249Y-1.9528
X3.2323Y-1.8504
X3.2347Y-1.927
X3.2347Y-2.0167
X3.252Y-1.873
X3.2756Y-2.2559
X3.3396Y-2.3268
X3.3396Y-2.4771
X3.3655Y-1.8151
X3.4094Y-1.3095
X3.4331Y-2.2835
X3.5039Y-2.3504
X3.6412Y-1.658
X3.6693Y-2.3898
X3.6786Y-1.6575
X3.7362Y-1.7008
X3.7402Y-2.4723
X3.8102Y-2.3692
X3.8184Y-1.7874
X3.8189Y-2.473
X3.8189Y-2.5484
X3.8328Y-2.3444
X3.9724Y-1.7874
X4.075Y-2.3457
X4.0842Y-2.4666
X4.1296Y-2.5121
X4.1878Y-2.3965
X4.1934Y-2.7165
X4.2244Y-2.189
X4.3186Y-2.3835
X4.3328Y-2.0863
X4.3527Y-2.6012
X4.4567Y-2.4488
X4.4567Y-2.4724
X4.4567Y-2.4961
X4.4646Y-2.1614
X4.4646Y-2.185
X4.4646Y-2.2087
X4.4646Y-2.7441
X4.4646Y-2.7677
X4.4646Y-2.7913
X4.4803Y-2.4488
X4.4803Y-2.4724
X4.4803Y-2.4961
X4.4882Y-2.1614
X4.4882Y-2.185
X4.4882Y-2.2087
X4.4882Y-2.7441
X4.4882Y-2.7677
X4.4882Y-2.7913
X4.5018Y-2.3562
X4.566Y-1.7411
T2
X1.704Y-1.2999
X2.3701Y-2.4291
X3.7323Y-2.3937
T3
X2.2319Y-1.5535
X2.2319Y-1.6007
X2.2319Y-1.6519
X2.2319Y-1.6952
X2.2792Y-1.5535
X2.2792Y-1.6007
X2.2792Y-1.6519
X2.2792Y-1.6952
T4
X2.4488Y-2.3543
X2.453Y-2.5465
X2.8639Y-1.8102
X2.921Y-2.3406
X3.252Y-1.5709
X3.6496Y-2.7093
X3.815Y-2.7486
T5
X1.7638Y-1.372
X1.7677Y-1.4724
X1.8268Y-1.435
X1.8622Y-1.435
X1.9035Y-1.685
X1.9075Y-1.6024
X1.9252Y-1.435
X1.9469Y-1.6831
X1.9567Y-1.6043
X1.9626Y-1.435
X1.9902Y-1.685
X2.0039Y-1.6043
X2.0236Y-1.435
X2.0335Y-1.687
X2.0512Y-1.6004
X2.0571Y-1.4331
X2.0748Y-1.6693
X2.0984Y-1.6004
X2.1417Y-1.6004
X2.3209Y-1.2441
X2.3228Y-1.2795
X2.3406Y-1.3051
X2.3602Y-1.2461
X2.3602Y-1.2795
X2.4272Y-1.378
X2.4291Y-1.2598
X2.4291Y-1.2874
X2.4291Y-1.4075
X2.4705Y-1.2559
X2.4744Y-1.2854
X2.4744Y-1.378
X2.4764Y-1.4075
X2.5079Y-1.6949
X2.5079Y-2.3986
X2.7008Y-2.1339
X2.7126Y-2.5197
X2.7205Y-2.6811
X2.7559Y-1.748
X2.7795Y-1.2431
X2.8872Y-1.3295
X2.9007Y-2.117
X2.9237Y-1.7462
X2.9706Y-2.3013
X3.0061Y-1.626
X3.0064Y-1.8701
X3.0669Y-2.4764
X3.0871Y-1.874
X3.1403Y-1.874
X3.1511Y-1.2913
X3.2874Y-2.689
X3.3214Y-1.9882
X3.3257Y-2.1043
X3.335Y-2.062
X3.3576Y-1.9301
X3.4094Y-1.2416
X3.7323Y-2.3189
T6
X1.3401Y-2.4724
X1.3401Y-2.5197
X1.3401Y-2.5748
X1.3898Y-2.2874
X1.3912Y-2.0276
X1.3912Y-2.0802
X1.4711Y-2.2171
X1.4719Y-2.356
X1.7756Y-2.626
X1.9006Y-2.3071
X1.9006Y-2.3524
X1.9921Y-2.5866
X1.9921Y-2.626
X2.0Y-1.9961
X2.0Y-2.0354
X2.1929Y-2.7179
X2.2189Y-2.1123
X2.2874Y-2.7179
X2.3601Y-2.5454
X3.2569Y-2.5157
X3.815Y-2.1443
X3.878Y-2.7612
X3.9016Y-2.1443
X4.0619Y-2.7913
X4.0635Y-2.1977
X4.1061Y-2.1687
X4.1102Y-2.7795
X4.1909Y-2.445
X4.197Y-2.488
X4.3189Y-2.1732
X4.3189Y-2.7756
X4.3268Y-2.4685
X4.6059Y-2.4567
X4.6079Y-2.3209
X4.6156Y-2.6142
X4.6275Y-2.5354
X4.6442Y-2.1535
X4.6496Y-2.0157
X4.6535Y-2.252
X4.6661Y-2.3894
X4.7382Y-2.0217
X4.7505Y-2.5787
X4.7598Y-2.0787
X4.7613Y-2.1378
X4.7623Y-2.2047
X4.7756Y-2.5277
X4.7795Y-2.2521
T7
X3.8764Y-1.3567
X3.9764Y-1.4567
X4.0764Y-1.3567
T8
X2.6496Y-1.4882
T9
X1.3764Y-1.3087
X1.3764Y-2.7417
X4.711Y-1.3087
X4.711Y-2.7417
T10
X2.1654Y-1.8858
X2.3622Y-1.8858
M30
