%TF.GenerationSoftware,KiCad,Pcbnew,8.0.2*%
%TF.CreationDate,2024-06-06T21:52:33+08:00*%
%TF.ProjectId,bldcDriver,626c6463-4472-4697-9665-722e6b696361,rev?*%
%TF.SameCoordinates,Original*%
%TF.FileFunction,Drillmap*%
%TF.FilePolarity,Positive*%
%FSLAX45Y45*%
G04 Gerber Fmt 4.5, Leading zero omitted, Abs format (unit mm)*
G04 Created by KiCad (PCBNEW 8.0.2) date 2024-06-06 21:52:33*
%MOMM*%
%LPD*%
G01*
G04 APERTURE LIST*
%ADD10C,0.100000*%
%ADD11C,0.200000*%
%ADD12C,0.220000*%
%ADD13C,0.270000*%
G04 APERTURE END LIST*
D10*
X3245500Y-7019000D02*
X3245500Y-3269000D01*
X3445500Y-7219000D02*
G75*
G02*
X3245500Y-7019000I0J200000D01*
G01*
X12023584Y-7219000D02*
X11935500Y-7219000D01*
X12023584Y-3069000D02*
G75*
G02*
X12223580Y-3269000I-4J-200000D01*
G01*
X12223584Y-3269000D02*
X12223584Y-7019000D01*
X3445500Y-3069000D02*
X11935500Y-3069000D01*
X12223584Y-7019000D02*
G75*
G02*
X12023584Y-7219004I-200004J0D01*
G01*
X3245500Y-3269000D02*
G75*
G02*
X3445500Y-3069000I200000J0D01*
G01*
X11935500Y-7219000D02*
X3445500Y-7219000D01*
X11935500Y-3069000D02*
X12023584Y-3069000D01*
D11*
D10*
X7422500Y-3632500D02*
X7437500Y-3647500D01*
X7437500Y-3632500D02*
X7422500Y-3647500D01*
X7509673Y-3595036D02*
X7524673Y-3610036D01*
X7524673Y-3595036D02*
X7509673Y-3610036D01*
X7602500Y-3269311D02*
X7617500Y-3284311D01*
X7617500Y-3269311D02*
X7602500Y-3284311D01*
X7662500Y-3942500D02*
X7677500Y-3957500D01*
X7677500Y-3942500D02*
X7662500Y-3957500D01*
X7869820Y-3952500D02*
X7884820Y-3967500D01*
X7884820Y-3952500D02*
X7869820Y-3967500D01*
X7922500Y-3590000D02*
X7937500Y-3605000D01*
X7937500Y-3590000D02*
X7922500Y-3605000D01*
X7928918Y-3698603D02*
X7943918Y-3713603D01*
X7943918Y-3698603D02*
X7928918Y-3713603D01*
X8058013Y-3756987D02*
X8073013Y-3771987D01*
X8073013Y-3756987D02*
X8058013Y-3771987D01*
X8085000Y-4282500D02*
X8100000Y-4297500D01*
X8100000Y-4282500D02*
X8085000Y-4297500D01*
X8112500Y-4707500D02*
X8127500Y-4722500D01*
X8127500Y-4707500D02*
X8112500Y-4722500D01*
X8191231Y-4715508D02*
X8206231Y-4730508D01*
X8206231Y-4715508D02*
X8191231Y-4730508D01*
X3638075Y-4260000D02*
G75*
G02*
X3613075Y-4260000I-12500J0D01*
G01*
X3613075Y-4260000D02*
G75*
G02*
X3638075Y-4260000I12500J0D01*
G01*
X3775191Y-4457309D02*
G75*
G02*
X3750191Y-4457309I-12500J0D01*
G01*
X3750191Y-4457309D02*
G75*
G02*
X3775191Y-4457309I12500J0D01*
G01*
X3893518Y-4596509D02*
G75*
G02*
X3868518Y-4596509I-12500J0D01*
G01*
X3868518Y-4596509D02*
G75*
G02*
X3893518Y-4596509I12500J0D01*
G01*
X3893943Y-4237699D02*
G75*
G02*
X3868943Y-4237699I-12500J0D01*
G01*
X3868943Y-4237699D02*
G75*
G02*
X3893943Y-4237699I12500J0D01*
G01*
X4012500Y-5594000D02*
G75*
G02*
X3987500Y-5594000I-12500J0D01*
G01*
X3987500Y-5594000D02*
G75*
G02*
X4012500Y-5594000I12500J0D01*
G01*
X4042500Y-3335000D02*
G75*
G02*
X4017500Y-3335000I-12500J0D01*
G01*
X4017500Y-3335000D02*
G75*
G02*
X4042500Y-3335000I12500J0D01*
G01*
X4082500Y-6570000D02*
G75*
G02*
X4057500Y-6570000I-12500J0D01*
G01*
X4057500Y-6570000D02*
G75*
G02*
X4082500Y-6570000I12500J0D01*
G01*
X4082500Y-6630000D02*
G75*
G02*
X4057500Y-6630000I-12500J0D01*
G01*
X4057500Y-6630000D02*
G75*
G02*
X4082500Y-6630000I12500J0D01*
G01*
X4082500Y-6690000D02*
G75*
G02*
X4057500Y-6690000I-12500J0D01*
G01*
X4057500Y-6690000D02*
G75*
G02*
X4082500Y-6690000I12500J0D01*
G01*
X4092500Y-5830000D02*
G75*
G02*
X4067500Y-5830000I-12500J0D01*
G01*
X4067500Y-5830000D02*
G75*
G02*
X4092500Y-5830000I12500J0D01*
G01*
X4092500Y-5890000D02*
G75*
G02*
X4067500Y-5890000I-12500J0D01*
G01*
X4067500Y-5890000D02*
G75*
G02*
X4092500Y-5890000I12500J0D01*
G01*
X4092500Y-5950000D02*
G75*
G02*
X4067500Y-5950000I-12500J0D01*
G01*
X4067500Y-5950000D02*
G75*
G02*
X4092500Y-5950000I12500J0D01*
G01*
X4112500Y-5070000D02*
G75*
G02*
X4087500Y-5070000I-12500J0D01*
G01*
X4087500Y-5070000D02*
G75*
G02*
X4112500Y-5070000I12500J0D01*
G01*
X4112500Y-5130000D02*
G75*
G02*
X4087500Y-5130000I-12500J0D01*
G01*
X4087500Y-5130000D02*
G75*
G02*
X4112500Y-5130000I12500J0D01*
G01*
X4112500Y-5190000D02*
G75*
G02*
X4087500Y-5190000I-12500J0D01*
G01*
X4087500Y-5190000D02*
G75*
G02*
X4112500Y-5190000I12500J0D01*
G01*
X4142500Y-6570000D02*
G75*
G02*
X4117500Y-6570000I-12500J0D01*
G01*
X4117500Y-6570000D02*
G75*
G02*
X4142500Y-6570000I12500J0D01*
G01*
X4142500Y-6630000D02*
G75*
G02*
X4117500Y-6630000I-12500J0D01*
G01*
X4117500Y-6630000D02*
G75*
G02*
X4142500Y-6630000I12500J0D01*
G01*
X4142500Y-6690000D02*
G75*
G02*
X4117500Y-6690000I-12500J0D01*
G01*
X4117500Y-6690000D02*
G75*
G02*
X4142500Y-6690000I12500J0D01*
G01*
X4152500Y-5830000D02*
G75*
G02*
X4127500Y-5830000I-12500J0D01*
G01*
X4127500Y-5830000D02*
G75*
G02*
X4152500Y-5830000I12500J0D01*
G01*
X4152500Y-5890000D02*
G75*
G02*
X4127500Y-5890000I-12500J0D01*
G01*
X4127500Y-5890000D02*
G75*
G02*
X4152500Y-5890000I12500J0D01*
G01*
X4152500Y-5950000D02*
G75*
G02*
X4127500Y-5950000I-12500J0D01*
G01*
X4127500Y-5950000D02*
G75*
G02*
X4152500Y-5950000I12500J0D01*
G01*
X4152500Y-6150000D02*
G75*
G02*
X4127500Y-6150000I-12500J0D01*
G01*
X4127500Y-6150000D02*
G75*
G02*
X4152500Y-6150000I12500J0D01*
G01*
X4162500Y-6890000D02*
G75*
G02*
X4137500Y-6890000I-12500J0D01*
G01*
X4137500Y-6890000D02*
G75*
G02*
X4162500Y-6890000I12500J0D01*
G01*
X4172500Y-5070000D02*
G75*
G02*
X4147500Y-5070000I-12500J0D01*
G01*
X4147500Y-5070000D02*
G75*
G02*
X4172500Y-5070000I12500J0D01*
G01*
X4172500Y-5130000D02*
G75*
G02*
X4147500Y-5130000I-12500J0D01*
G01*
X4147500Y-5130000D02*
G75*
G02*
X4172500Y-5130000I12500J0D01*
G01*
X4172500Y-5190000D02*
G75*
G02*
X4147500Y-5190000I-12500J0D01*
G01*
X4147500Y-5190000D02*
G75*
G02*
X4172500Y-5190000I12500J0D01*
G01*
X4502500Y-5180000D02*
G75*
G02*
X4477500Y-5180000I-12500J0D01*
G01*
X4477500Y-5180000D02*
G75*
G02*
X4502500Y-5180000I12500J0D01*
G01*
X4522500Y-5090000D02*
G75*
G02*
X4497500Y-5090000I-12500J0D01*
G01*
X4497500Y-5090000D02*
G75*
G02*
X4522500Y-5090000I12500J0D01*
G01*
X4537500Y-5889000D02*
G75*
G02*
X4512500Y-5889000I-12500J0D01*
G01*
X4512500Y-5889000D02*
G75*
G02*
X4537500Y-5889000I12500J0D01*
G01*
X4541375Y-6181125D02*
G75*
G02*
X4516375Y-6181125I-12500J0D01*
G01*
X4516375Y-6181125D02*
G75*
G02*
X4541375Y-6181125I12500J0D01*
G01*
X4562500Y-5130000D02*
G75*
G02*
X4537500Y-5130000I-12500J0D01*
G01*
X4537500Y-5130000D02*
G75*
G02*
X4562500Y-5130000I12500J0D01*
G01*
X4572500Y-7090000D02*
G75*
G02*
X4547500Y-7090000I-12500J0D01*
G01*
X4547500Y-7090000D02*
G75*
G02*
X4572500Y-7090000I12500J0D01*
G01*
X4612500Y-5090000D02*
G75*
G02*
X4587500Y-5090000I-12500J0D01*
G01*
X4587500Y-5090000D02*
G75*
G02*
X4612500Y-5090000I12500J0D01*
G01*
X4622500Y-5170000D02*
G75*
G02*
X4597500Y-5170000I-12500J0D01*
G01*
X4597500Y-5170000D02*
G75*
G02*
X4622500Y-5170000I12500J0D01*
G01*
X4775479Y-5363533D02*
G75*
G02*
X4750479Y-5363533I-12500J0D01*
G01*
X4750479Y-5363533D02*
G75*
G02*
X4775479Y-5363533I12500J0D01*
G01*
X4802500Y-5070000D02*
G75*
G02*
X4777500Y-5070000I-12500J0D01*
G01*
X4777500Y-5070000D02*
G75*
G02*
X4802500Y-5070000I12500J0D01*
G01*
X4842500Y-6710000D02*
G75*
G02*
X4817500Y-6710000I-12500J0D01*
G01*
X4817500Y-6710000D02*
G75*
G02*
X4842500Y-6710000I12500J0D01*
G01*
X4992500Y-6350000D02*
G75*
G02*
X4967500Y-6350000I-12500J0D01*
G01*
X4967500Y-6350000D02*
G75*
G02*
X4992500Y-6350000I12500J0D01*
G01*
X5002500Y-6062500D02*
G75*
G02*
X4977500Y-6062500I-12500J0D01*
G01*
X4977500Y-6062500D02*
G75*
G02*
X5002500Y-6062500I12500J0D01*
G01*
X5022250Y-5451000D02*
G75*
G02*
X4997250Y-5451000I-12500J0D01*
G01*
X4997250Y-5451000D02*
G75*
G02*
X5022250Y-5451000I12500J0D01*
G01*
X5085454Y-6262950D02*
G75*
G02*
X5060454Y-6262950I-12500J0D01*
G01*
X5060454Y-6262950D02*
G75*
G02*
X5085454Y-6262950I12500J0D01*
G01*
X5156371Y-6060000D02*
G75*
G02*
X5131371Y-6060000I-12500J0D01*
G01*
X5131371Y-6060000D02*
G75*
G02*
X5156371Y-6060000I12500J0D01*
G01*
X5184217Y-5863550D02*
G75*
G02*
X5159217Y-5863550I-12500J0D01*
G01*
X5159217Y-5863550D02*
G75*
G02*
X5184217Y-5863550I12500J0D01*
G01*
X5194750Y-5467500D02*
G75*
G02*
X5169750Y-5467500I-12500J0D01*
G01*
X5169750Y-5467500D02*
G75*
G02*
X5194750Y-5467500I12500J0D01*
G01*
X5802500Y-6414142D02*
G75*
G02*
X5777500Y-6414142I-12500J0D01*
G01*
X5777500Y-6414142D02*
G75*
G02*
X5802500Y-6414142I12500J0D01*
G01*
X5819600Y-5867150D02*
G75*
G02*
X5794600Y-5867150I-12500J0D01*
G01*
X5794600Y-5867150D02*
G75*
G02*
X5819600Y-5867150I12500J0D01*
G01*
X5819600Y-6060350D02*
G75*
G02*
X5794600Y-6060350I-12500J0D01*
G01*
X5794600Y-6060350D02*
G75*
G02*
X5819600Y-6060350I12500J0D01*
G01*
X5852500Y-6320000D02*
G75*
G02*
X5827500Y-6320000I-12500J0D01*
G01*
X5827500Y-6320000D02*
G75*
G02*
X5852500Y-6320000I12500J0D01*
G01*
X6132500Y-5390000D02*
G75*
G02*
X6107500Y-5390000I-12500J0D01*
G01*
X6107500Y-5390000D02*
G75*
G02*
X6132500Y-5390000I12500J0D01*
G01*
X6226250Y-6170000D02*
G75*
G02*
X6201250Y-6170000I-12500J0D01*
G01*
X6201250Y-6170000D02*
G75*
G02*
X6226250Y-6170000I12500J0D01*
G01*
X6382500Y-5630000D02*
G75*
G02*
X6357500Y-5630000I-12500J0D01*
G01*
X6357500Y-5630000D02*
G75*
G02*
X6382500Y-5630000I12500J0D01*
G01*
X6402500Y-6981250D02*
G75*
G02*
X6377500Y-6981250I-12500J0D01*
G01*
X6377500Y-6981250D02*
G75*
G02*
X6402500Y-6981250I12500J0D01*
G01*
X6492500Y-5250000D02*
G75*
G02*
X6467500Y-5250000I-12500J0D01*
G01*
X6467500Y-5250000D02*
G75*
G02*
X6492500Y-5250000I12500J0D01*
G01*
X6590000Y-5430000D02*
G75*
G02*
X6565000Y-5430000I-12500J0D01*
G01*
X6565000Y-5430000D02*
G75*
G02*
X6590000Y-5430000I12500J0D01*
G01*
X6592500Y-6100000D02*
G75*
G02*
X6567500Y-6100000I-12500J0D01*
G01*
X6567500Y-6100000D02*
G75*
G02*
X6592500Y-6100000I12500J0D01*
G01*
X7072500Y-3330000D02*
G75*
G02*
X7047500Y-3330000I-12500J0D01*
G01*
X7047500Y-3330000D02*
G75*
G02*
X7072500Y-3330000I12500J0D01*
G01*
X7152500Y-6240000D02*
G75*
G02*
X7127500Y-6240000I-12500J0D01*
G01*
X7127500Y-6240000D02*
G75*
G02*
X7152500Y-6240000I12500J0D01*
G01*
X7248750Y-5115000D02*
G75*
G02*
X7223750Y-5115000I-12500J0D01*
G01*
X7223750Y-5115000D02*
G75*
G02*
X7248750Y-5115000I12500J0D01*
G01*
X7262500Y-5250000D02*
G75*
G02*
X7237500Y-5250000I-12500J0D01*
G01*
X7237500Y-5250000D02*
G75*
G02*
X7262500Y-5250000I12500J0D01*
G01*
X7287739Y-4992414D02*
G75*
G02*
X7262739Y-4992414I-12500J0D01*
G01*
X7262739Y-4992414D02*
G75*
G02*
X7287739Y-4992414I12500J0D01*
G01*
X7322500Y-6282000D02*
G75*
G02*
X7297500Y-6282000I-12500J0D01*
G01*
X7297500Y-6282000D02*
G75*
G02*
X7322500Y-6282000I12500J0D01*
G01*
X7329317Y-5049914D02*
G75*
G02*
X7304317Y-5049914I-12500J0D01*
G01*
X7304317Y-5049914D02*
G75*
G02*
X7329317Y-5049914I12500J0D01*
G01*
X7348750Y-4927500D02*
G75*
G02*
X7323750Y-4927500I-12500J0D01*
G01*
X7323750Y-4927500D02*
G75*
G02*
X7348750Y-4927500I12500J0D01*
G01*
X7448750Y-5240000D02*
G75*
G02*
X7423750Y-5240000I-12500J0D01*
G01*
X7423750Y-5240000D02*
G75*
G02*
X7448750Y-5240000I12500J0D01*
G01*
X7482500Y-6740000D02*
G75*
G02*
X7457500Y-6740000I-12500J0D01*
G01*
X7457500Y-6740000D02*
G75*
G02*
X7482500Y-6740000I12500J0D01*
G01*
X7494375Y-5295625D02*
G75*
G02*
X7469375Y-5295625I-12500J0D01*
G01*
X7469375Y-5295625D02*
G75*
G02*
X7494375Y-5295625I12500J0D01*
G01*
X7582500Y-5630000D02*
G75*
G02*
X7557500Y-5630000I-12500J0D01*
G01*
X7557500Y-5630000D02*
G75*
G02*
X7582500Y-5630000I12500J0D01*
G01*
X7613750Y-4525000D02*
G75*
G02*
X7588750Y-4525000I-12500J0D01*
G01*
X7588750Y-4525000D02*
G75*
G02*
X7613750Y-4525000I12500J0D01*
G01*
X7630000Y-6290000D02*
G75*
G02*
X7605000Y-6290000I-12500J0D01*
G01*
X7605000Y-6290000D02*
G75*
G02*
X7630000Y-6290000I12500J0D01*
G01*
X7656250Y-5365000D02*
G75*
G02*
X7631250Y-5365000I-12500J0D01*
G01*
X7631250Y-5365000D02*
G75*
G02*
X7656250Y-5365000I12500J0D01*
G01*
X7662500Y-6588750D02*
G75*
G02*
X7637500Y-6588750I-12500J0D01*
G01*
X7637500Y-6588750D02*
G75*
G02*
X7662500Y-6588750I12500J0D01*
G01*
X7702500Y-6870000D02*
G75*
G02*
X7677500Y-6870000I-12500J0D01*
G01*
X7677500Y-6870000D02*
G75*
G02*
X7702500Y-6870000I12500J0D01*
G01*
X7823750Y-4520042D02*
G75*
G02*
X7798750Y-4520042I-12500J0D01*
G01*
X7798750Y-4520042D02*
G75*
G02*
X7823750Y-4520042I12500J0D01*
G01*
X7892601Y-5373500D02*
G75*
G02*
X7867601Y-5373500I-12500J0D01*
G01*
X7867601Y-5373500D02*
G75*
G02*
X7892601Y-5373500I12500J0D01*
G01*
X7906250Y-4520000D02*
G75*
G02*
X7881250Y-4520000I-12500J0D01*
G01*
X7881250Y-4520000D02*
G75*
G02*
X7906250Y-4520000I12500J0D01*
G01*
X7976108Y-5373500D02*
G75*
G02*
X7951108Y-5373500I-12500J0D01*
G01*
X7951108Y-5373500D02*
G75*
G02*
X7976108Y-5373500I12500J0D01*
G01*
X7985035Y-4494923D02*
G75*
G02*
X7960035Y-4494923I-12500J0D01*
G01*
X7960035Y-4494923D02*
G75*
G02*
X7985035Y-4494923I12500J0D01*
G01*
X8053878Y-4507601D02*
G75*
G02*
X8028878Y-4507601I-12500J0D01*
G01*
X8028878Y-4507601D02*
G75*
G02*
X8053878Y-4507601I12500J0D01*
G01*
X8071250Y-5373500D02*
G75*
G02*
X8046250Y-5373500I-12500J0D01*
G01*
X8046250Y-5373500D02*
G75*
G02*
X8071250Y-5373500I12500J0D01*
G01*
X8090500Y-6121250D02*
G75*
G02*
X8065500Y-6121250I-12500J0D01*
G01*
X8065500Y-6121250D02*
G75*
G02*
X8090500Y-6121250I12500J0D01*
G01*
X8128750Y-5243500D02*
G75*
G02*
X8103750Y-5243500I-12500J0D01*
G01*
X8103750Y-5243500D02*
G75*
G02*
X8128750Y-5243500I12500J0D01*
G01*
X8153750Y-6990000D02*
G75*
G02*
X8128750Y-6990000I-12500J0D01*
G01*
X8128750Y-6990000D02*
G75*
G02*
X8153750Y-6990000I12500J0D01*
G01*
X8162500Y-5640000D02*
G75*
G02*
X8137500Y-5640000I-12500J0D01*
G01*
X8137500Y-5640000D02*
G75*
G02*
X8162500Y-5640000I12500J0D01*
G01*
X8203800Y-4960000D02*
G75*
G02*
X8178800Y-4960000I-12500J0D01*
G01*
X8178800Y-4960000D02*
G75*
G02*
X8203800Y-4960000I12500J0D01*
G01*
X8228750Y-4894598D02*
G75*
G02*
X8203750Y-4894598I-12500J0D01*
G01*
X8203750Y-4894598D02*
G75*
G02*
X8228750Y-4894598I12500J0D01*
G01*
X8228750Y-5122500D02*
G75*
G02*
X8203750Y-5122500I-12500J0D01*
G01*
X8203750Y-5122500D02*
G75*
G02*
X8228750Y-5122500I12500J0D01*
G01*
X8332500Y-5730000D02*
G75*
G02*
X8307500Y-5730000I-12500J0D01*
G01*
X8307500Y-5730000D02*
G75*
G02*
X8332500Y-5730000I12500J0D01*
G01*
X8422500Y-4612500D02*
G75*
G02*
X8397500Y-4612500I-12500J0D01*
G01*
X8397500Y-4612500D02*
G75*
G02*
X8422500Y-4612500I12500J0D01*
G01*
X8495065Y-5910000D02*
G75*
G02*
X8470065Y-5910000I-12500J0D01*
G01*
X8470065Y-5910000D02*
G75*
G02*
X8495065Y-5910000I12500J0D01*
G01*
X8495065Y-6291771D02*
G75*
G02*
X8470065Y-6291771I-12500J0D01*
G01*
X8470065Y-6291771D02*
G75*
G02*
X8495065Y-6291771I12500J0D01*
G01*
X8672500Y-3326250D02*
G75*
G02*
X8647500Y-3326250I-12500J0D01*
G01*
X8647500Y-3326250D02*
G75*
G02*
X8672500Y-3326250I12500J0D01*
G01*
X8732500Y-5800000D02*
G75*
G02*
X8707500Y-5800000I-12500J0D01*
G01*
X8707500Y-5800000D02*
G75*
G02*
X8732500Y-5800000I12500J0D01*
G01*
X8912500Y-5970000D02*
G75*
G02*
X8887500Y-5970000I-12500J0D01*
G01*
X8887500Y-5970000D02*
G75*
G02*
X8912500Y-5970000I12500J0D01*
G01*
X9261200Y-4211300D02*
G75*
G02*
X9236200Y-4211300I-12500J0D01*
G01*
X9236200Y-4211300D02*
G75*
G02*
X9261200Y-4211300I12500J0D01*
G01*
X9332500Y-6070000D02*
G75*
G02*
X9307500Y-6070000I-12500J0D01*
G01*
X9307500Y-6070000D02*
G75*
G02*
X9332500Y-6070000I12500J0D01*
G01*
X9356200Y-4210000D02*
G75*
G02*
X9331200Y-4210000I-12500J0D01*
G01*
X9331200Y-4210000D02*
G75*
G02*
X9356200Y-4210000I12500J0D01*
G01*
X9502500Y-4320000D02*
G75*
G02*
X9477500Y-4320000I-12500J0D01*
G01*
X9477500Y-4320000D02*
G75*
G02*
X9502500Y-4320000I12500J0D01*
G01*
X9512500Y-6279650D02*
G75*
G02*
X9487500Y-6279650I-12500J0D01*
G01*
X9487500Y-6279650D02*
G75*
G02*
X9512500Y-6279650I12500J0D01*
G01*
X9690350Y-6017850D02*
G75*
G02*
X9665350Y-6017850I-12500J0D01*
G01*
X9665350Y-6017850D02*
G75*
G02*
X9690350Y-6017850I12500J0D01*
G01*
X9711250Y-4540000D02*
G75*
G02*
X9686250Y-4540000I-12500J0D01*
G01*
X9686250Y-4540000D02*
G75*
G02*
X9711250Y-4540000I12500J0D01*
G01*
X9712500Y-6281450D02*
G75*
G02*
X9687500Y-6281450I-12500J0D01*
G01*
X9687500Y-6281450D02*
G75*
G02*
X9712500Y-6281450I12500J0D01*
G01*
X9712500Y-6472850D02*
G75*
G02*
X9687500Y-6472850I-12500J0D01*
G01*
X9687500Y-6472850D02*
G75*
G02*
X9712500Y-6472850I12500J0D01*
G01*
X9747850Y-5954650D02*
G75*
G02*
X9722850Y-5954650I-12500J0D01*
G01*
X9722850Y-5954650D02*
G75*
G02*
X9747850Y-5954650I12500J0D01*
G01*
X10102500Y-4540000D02*
G75*
G02*
X10077500Y-4540000I-12500J0D01*
G01*
X10077500Y-4540000D02*
G75*
G02*
X10102500Y-4540000I12500J0D01*
G01*
X10362941Y-5958122D02*
G75*
G02*
X10337941Y-5958122I-12500J0D01*
G01*
X10337941Y-5958122D02*
G75*
G02*
X10362941Y-5958122I12500J0D01*
G01*
X10386411Y-6265217D02*
G75*
G02*
X10361411Y-6265217I-12500J0D01*
G01*
X10361411Y-6265217D02*
G75*
G02*
X10386411Y-6265217I12500J0D01*
G01*
X10501750Y-6380798D02*
G75*
G02*
X10476750Y-6380798I-12500J0D01*
G01*
X10476750Y-6380798D02*
G75*
G02*
X10501750Y-6380798I12500J0D01*
G01*
X10649490Y-6086990D02*
G75*
G02*
X10624490Y-6086990I-12500J0D01*
G01*
X10624490Y-6086990D02*
G75*
G02*
X10649490Y-6086990I12500J0D01*
G01*
X10724301Y-6988199D02*
G75*
G02*
X10699301Y-6988199I-12500J0D01*
G01*
X10699301Y-6988199D02*
G75*
G02*
X10724301Y-6988199I12500J0D01*
G01*
X10742500Y-5560000D02*
G75*
G02*
X10717500Y-5560000I-12500J0D01*
G01*
X10717500Y-5560000D02*
G75*
G02*
X10742500Y-5560000I12500J0D01*
G01*
X10962500Y-5299148D02*
G75*
G02*
X10937500Y-5299148I-12500J0D01*
G01*
X10937500Y-5299148D02*
G75*
G02*
X10962500Y-5299148I12500J0D01*
G01*
X10981750Y-6054000D02*
G75*
G02*
X10956750Y-6054000I-12500J0D01*
G01*
X10956750Y-6054000D02*
G75*
G02*
X10981750Y-6054000I12500J0D01*
G01*
X11012500Y-6607148D02*
G75*
G02*
X10987500Y-6607148I-12500J0D01*
G01*
X10987500Y-6607148D02*
G75*
G02*
X11012500Y-6607148I12500J0D01*
G01*
X11332500Y-6220000D02*
G75*
G02*
X11307500Y-6220000I-12500J0D01*
G01*
X11307500Y-6220000D02*
G75*
G02*
X11332500Y-6220000I12500J0D01*
G01*
X11332500Y-6280000D02*
G75*
G02*
X11307500Y-6280000I-12500J0D01*
G01*
X11307500Y-6280000D02*
G75*
G02*
X11332500Y-6280000I12500J0D01*
G01*
X11332500Y-6340000D02*
G75*
G02*
X11307500Y-6340000I-12500J0D01*
G01*
X11307500Y-6340000D02*
G75*
G02*
X11332500Y-6340000I12500J0D01*
G01*
X11352500Y-5490000D02*
G75*
G02*
X11327500Y-5490000I-12500J0D01*
G01*
X11327500Y-5490000D02*
G75*
G02*
X11352500Y-5490000I12500J0D01*
G01*
X11352500Y-5550000D02*
G75*
G02*
X11327500Y-5550000I-12500J0D01*
G01*
X11327500Y-5550000D02*
G75*
G02*
X11352500Y-5550000I12500J0D01*
G01*
X11352500Y-5610000D02*
G75*
G02*
X11327500Y-5610000I-12500J0D01*
G01*
X11327500Y-5610000D02*
G75*
G02*
X11352500Y-5610000I12500J0D01*
G01*
X11352500Y-6970000D02*
G75*
G02*
X11327500Y-6970000I-12500J0D01*
G01*
X11327500Y-6970000D02*
G75*
G02*
X11352500Y-6970000I12500J0D01*
G01*
X11352500Y-7030000D02*
G75*
G02*
X11327500Y-7030000I-12500J0D01*
G01*
X11327500Y-7030000D02*
G75*
G02*
X11352500Y-7030000I12500J0D01*
G01*
X11352500Y-7090000D02*
G75*
G02*
X11327500Y-7090000I-12500J0D01*
G01*
X11327500Y-7090000D02*
G75*
G02*
X11352500Y-7090000I12500J0D01*
G01*
X11392500Y-6220000D02*
G75*
G02*
X11367500Y-6220000I-12500J0D01*
G01*
X11367500Y-6220000D02*
G75*
G02*
X11392500Y-6220000I12500J0D01*
G01*
X11392500Y-6280000D02*
G75*
G02*
X11367500Y-6280000I-12500J0D01*
G01*
X11367500Y-6280000D02*
G75*
G02*
X11392500Y-6280000I12500J0D01*
G01*
X11392500Y-6340000D02*
G75*
G02*
X11367500Y-6340000I-12500J0D01*
G01*
X11367500Y-6340000D02*
G75*
G02*
X11392500Y-6340000I12500J0D01*
G01*
X11412500Y-5490000D02*
G75*
G02*
X11387500Y-5490000I-12500J0D01*
G01*
X11387500Y-5490000D02*
G75*
G02*
X11412500Y-5490000I12500J0D01*
G01*
X11412500Y-5550000D02*
G75*
G02*
X11387500Y-5550000I-12500J0D01*
G01*
X11387500Y-5550000D02*
G75*
G02*
X11412500Y-5550000I12500J0D01*
G01*
X11412500Y-5610000D02*
G75*
G02*
X11387500Y-5610000I-12500J0D01*
G01*
X11387500Y-5610000D02*
G75*
G02*
X11412500Y-5610000I12500J0D01*
G01*
X11412500Y-6970000D02*
G75*
G02*
X11387500Y-6970000I-12500J0D01*
G01*
X11387500Y-6970000D02*
G75*
G02*
X11412500Y-6970000I12500J0D01*
G01*
X11412500Y-7030000D02*
G75*
G02*
X11387500Y-7030000I-12500J0D01*
G01*
X11387500Y-7030000D02*
G75*
G02*
X11412500Y-7030000I12500J0D01*
G01*
X11412500Y-7090000D02*
G75*
G02*
X11387500Y-7090000I-12500J0D01*
G01*
X11387500Y-7090000D02*
G75*
G02*
X11412500Y-7090000I12500J0D01*
G01*
X11447125Y-5984625D02*
G75*
G02*
X11422125Y-5984625I-12500J0D01*
G01*
X11422125Y-5984625D02*
G75*
G02*
X11447125Y-5984625I12500J0D01*
G01*
X11610083Y-4422500D02*
G75*
G02*
X11585083Y-4422500I-12500J0D01*
G01*
X11585083Y-4422500D02*
G75*
G02*
X11610083Y-4422500I12500J0D01*
G01*
X4328100Y-3286650D02*
X4328100Y-3316650D01*
X4313100Y-3301650D02*
X4343100Y-3301650D01*
X6020000Y-6155000D02*
X6020000Y-6185000D01*
X6005000Y-6170000D02*
X6035000Y-6170000D01*
X9480000Y-6065000D02*
X9480000Y-6095000D01*
X9465000Y-6080000D02*
X9495000Y-6080000D01*
X5679707Y-3956507D02*
X5679707Y-3935293D01*
X5658493Y-3935293D01*
X5658493Y-3956507D01*
X5679707Y-3956507D01*
X5679707Y-4076507D02*
X5679707Y-4055293D01*
X5658493Y-4055293D01*
X5658493Y-4076507D01*
X5679707Y-4076507D01*
X5679707Y-4206507D02*
X5679707Y-4185293D01*
X5658493Y-4185293D01*
X5658493Y-4206507D01*
X5679707Y-4206507D01*
X5679707Y-4316507D02*
X5679707Y-4295293D01*
X5658493Y-4295293D01*
X5658493Y-4316507D01*
X5679707Y-4316507D01*
X5799707Y-3956507D02*
X5799707Y-3935293D01*
X5778493Y-3935293D01*
X5778493Y-3956507D01*
X5799707Y-3956507D01*
X5799707Y-4076507D02*
X5799707Y-4055293D01*
X5778493Y-4055293D01*
X5778493Y-4076507D01*
X5799707Y-4076507D01*
X5799707Y-4206507D02*
X5799707Y-4185293D01*
X5778493Y-4185293D01*
X5778493Y-4206507D01*
X5799707Y-4206507D01*
X5799707Y-4316507D02*
X5799707Y-4295293D01*
X5778493Y-4295293D01*
X5778493Y-4316507D01*
X5799707Y-4316507D01*
X6220000Y-6000000D02*
X6240000Y-5980000D01*
X6220000Y-5960000D01*
X6200000Y-5980000D01*
X6220000Y-6000000D01*
X6230640Y-6488110D02*
X6250640Y-6468110D01*
X6230640Y-6448110D01*
X6210640Y-6468110D01*
X6230640Y-6488110D01*
X7274250Y-4618000D02*
X7294250Y-4598000D01*
X7274250Y-4578000D01*
X7254250Y-4598000D01*
X7274250Y-4618000D01*
X7419250Y-5965000D02*
X7439250Y-5945000D01*
X7419250Y-5925000D01*
X7399250Y-5945000D01*
X7419250Y-5965000D01*
X8260000Y-4010000D02*
X8280000Y-3990000D01*
X8260000Y-3970000D01*
X8240000Y-3990000D01*
X8260000Y-4010000D01*
X9270000Y-6901500D02*
X9290000Y-6881500D01*
X9270000Y-6861500D01*
X9250000Y-6881500D01*
X9270000Y-6901500D01*
X9690000Y-7001500D02*
X9710000Y-6981500D01*
X9690000Y-6961500D01*
X9670000Y-6981500D01*
X9690000Y-7001500D01*
X4455000Y-3460000D02*
X4505000Y-3510000D01*
X4505000Y-3460000D02*
X4455000Y-3510000D01*
X4505000Y-3485000D02*
G75*
G02*
X4455000Y-3485000I-25000J0D01*
G01*
X4455000Y-3485000D02*
G75*
G02*
X4505000Y-3485000I25000J0D01*
G01*
X4465000Y-3715000D02*
X4515000Y-3765000D01*
X4515000Y-3715000D02*
X4465000Y-3765000D01*
X4515000Y-3740000D02*
G75*
G02*
X4465000Y-3740000I-25000J0D01*
G01*
X4465000Y-3740000D02*
G75*
G02*
X4515000Y-3740000I25000J0D01*
G01*
X4615000Y-3620000D02*
X4665000Y-3670000D01*
X4665000Y-3620000D02*
X4615000Y-3670000D01*
X4665000Y-3645000D02*
G75*
G02*
X4615000Y-3645000I-25000J0D01*
G01*
X4615000Y-3645000D02*
G75*
G02*
X4665000Y-3645000I25000J0D01*
G01*
X4705000Y-3620000D02*
X4755000Y-3670000D01*
X4755000Y-3620000D02*
X4705000Y-3670000D01*
X4755000Y-3645000D02*
G75*
G02*
X4705000Y-3645000I-25000J0D01*
G01*
X4705000Y-3645000D02*
G75*
G02*
X4755000Y-3645000I25000J0D01*
G01*
X4810000Y-4255000D02*
X4860000Y-4305000D01*
X4860000Y-4255000D02*
X4810000Y-4305000D01*
X4860000Y-4280000D02*
G75*
G02*
X4810000Y-4280000I-25000J0D01*
G01*
X4810000Y-4280000D02*
G75*
G02*
X4860000Y-4280000I25000J0D01*
G01*
X4820000Y-4045000D02*
X4870000Y-4095000D01*
X4870000Y-4045000D02*
X4820000Y-4095000D01*
X4870000Y-4070000D02*
G75*
G02*
X4820000Y-4070000I-25000J0D01*
G01*
X4820000Y-4070000D02*
G75*
G02*
X4870000Y-4070000I25000J0D01*
G01*
X4865000Y-3620000D02*
X4915000Y-3670000D01*
X4915000Y-3620000D02*
X4865000Y-3670000D01*
X4915000Y-3645000D02*
G75*
G02*
X4865000Y-3645000I-25000J0D01*
G01*
X4865000Y-3645000D02*
G75*
G02*
X4915000Y-3645000I25000J0D01*
G01*
X4920000Y-4250000D02*
X4970000Y-4300000D01*
X4970000Y-4250000D02*
X4920000Y-4300000D01*
X4970000Y-4275000D02*
G75*
G02*
X4920000Y-4275000I-25000J0D01*
G01*
X4920000Y-4275000D02*
G75*
G02*
X4970000Y-4275000I25000J0D01*
G01*
X4945000Y-4050000D02*
X4995000Y-4100000D01*
X4995000Y-4050000D02*
X4945000Y-4100000D01*
X4995000Y-4075000D02*
G75*
G02*
X4945000Y-4075000I-25000J0D01*
G01*
X4945000Y-4075000D02*
G75*
G02*
X4995000Y-4075000I25000J0D01*
G01*
X4960000Y-3620000D02*
X5010000Y-3670000D01*
X5010000Y-3620000D02*
X4960000Y-3670000D01*
X5010000Y-3645000D02*
G75*
G02*
X4960000Y-3645000I-25000J0D01*
G01*
X4960000Y-3645000D02*
G75*
G02*
X5010000Y-3645000I25000J0D01*
G01*
X5030000Y-4255000D02*
X5080000Y-4305000D01*
X5080000Y-4255000D02*
X5030000Y-4305000D01*
X5080000Y-4280000D02*
G75*
G02*
X5030000Y-4280000I-25000J0D01*
G01*
X5030000Y-4280000D02*
G75*
G02*
X5080000Y-4280000I25000J0D01*
G01*
X5065000Y-4050000D02*
X5115000Y-4100000D01*
X5115000Y-4050000D02*
X5065000Y-4100000D01*
X5115000Y-4075000D02*
G75*
G02*
X5065000Y-4075000I-25000J0D01*
G01*
X5065000Y-4075000D02*
G75*
G02*
X5115000Y-4075000I25000J0D01*
G01*
X5115000Y-3620000D02*
X5165000Y-3670000D01*
X5165000Y-3620000D02*
X5115000Y-3670000D01*
X5165000Y-3645000D02*
G75*
G02*
X5115000Y-3645000I-25000J0D01*
G01*
X5115000Y-3645000D02*
G75*
G02*
X5165000Y-3645000I25000J0D01*
G01*
X5140000Y-4260000D02*
X5190000Y-4310000D01*
X5190000Y-4260000D02*
X5140000Y-4310000D01*
X5190000Y-4285000D02*
G75*
G02*
X5140000Y-4285000I-25000J0D01*
G01*
X5140000Y-4285000D02*
G75*
G02*
X5190000Y-4285000I25000J0D01*
G01*
X5185000Y-4040000D02*
X5235000Y-4090000D01*
X5235000Y-4040000D02*
X5185000Y-4090000D01*
X5235000Y-4065000D02*
G75*
G02*
X5185000Y-4065000I-25000J0D01*
G01*
X5185000Y-4065000D02*
G75*
G02*
X5235000Y-4065000I25000J0D01*
G01*
X5200000Y-3615000D02*
X5250000Y-3665000D01*
X5250000Y-3615000D02*
X5200000Y-3665000D01*
X5250000Y-3640000D02*
G75*
G02*
X5200000Y-3640000I-25000J0D01*
G01*
X5200000Y-3640000D02*
G75*
G02*
X5250000Y-3640000I25000J0D01*
G01*
X5245000Y-4215000D02*
X5295000Y-4265000D01*
X5295000Y-4215000D02*
X5245000Y-4265000D01*
X5295000Y-4240000D02*
G75*
G02*
X5245000Y-4240000I-25000J0D01*
G01*
X5245000Y-4240000D02*
G75*
G02*
X5295000Y-4240000I25000J0D01*
G01*
X5305000Y-4040000D02*
X5355000Y-4090000D01*
X5355000Y-4040000D02*
X5305000Y-4090000D01*
X5355000Y-4065000D02*
G75*
G02*
X5305000Y-4065000I-25000J0D01*
G01*
X5305000Y-4065000D02*
G75*
G02*
X5355000Y-4065000I25000J0D01*
G01*
X5415000Y-4040000D02*
X5465000Y-4090000D01*
X5465000Y-4040000D02*
X5415000Y-4090000D01*
X5465000Y-4065000D02*
G75*
G02*
X5415000Y-4065000I-25000J0D01*
G01*
X5415000Y-4065000D02*
G75*
G02*
X5465000Y-4065000I25000J0D01*
G01*
X5870000Y-3135000D02*
X5920000Y-3185000D01*
X5920000Y-3135000D02*
X5870000Y-3185000D01*
X5920000Y-3160000D02*
G75*
G02*
X5870000Y-3160000I-25000J0D01*
G01*
X5870000Y-3160000D02*
G75*
G02*
X5920000Y-3160000I25000J0D01*
G01*
X5875000Y-3225000D02*
X5925000Y-3275000D01*
X5925000Y-3225000D02*
X5875000Y-3275000D01*
X5925000Y-3250000D02*
G75*
G02*
X5875000Y-3250000I-25000J0D01*
G01*
X5875000Y-3250000D02*
G75*
G02*
X5925000Y-3250000I25000J0D01*
G01*
X5920000Y-3290000D02*
X5970000Y-3340000D01*
X5970000Y-3290000D02*
X5920000Y-3340000D01*
X5970000Y-3315000D02*
G75*
G02*
X5920000Y-3315000I-25000J0D01*
G01*
X5920000Y-3315000D02*
G75*
G02*
X5970000Y-3315000I25000J0D01*
G01*
X5970000Y-3140000D02*
X6020000Y-3190000D01*
X6020000Y-3140000D02*
X5970000Y-3190000D01*
X6020000Y-3165000D02*
G75*
G02*
X5970000Y-3165000I-25000J0D01*
G01*
X5970000Y-3165000D02*
G75*
G02*
X6020000Y-3165000I25000J0D01*
G01*
X5970000Y-3225000D02*
X6020000Y-3275000D01*
X6020000Y-3225000D02*
X5970000Y-3275000D01*
X6020000Y-3250000D02*
G75*
G02*
X5970000Y-3250000I-25000J0D01*
G01*
X5970000Y-3250000D02*
G75*
G02*
X6020000Y-3250000I25000J0D01*
G01*
X6140000Y-3475000D02*
X6190000Y-3525000D01*
X6190000Y-3475000D02*
X6140000Y-3525000D01*
X6190000Y-3500000D02*
G75*
G02*
X6140000Y-3500000I-25000J0D01*
G01*
X6140000Y-3500000D02*
G75*
G02*
X6190000Y-3500000I25000J0D01*
G01*
X6145000Y-3175000D02*
X6195000Y-3225000D01*
X6195000Y-3175000D02*
X6145000Y-3225000D01*
X6195000Y-3200000D02*
G75*
G02*
X6145000Y-3200000I-25000J0D01*
G01*
X6145000Y-3200000D02*
G75*
G02*
X6195000Y-3200000I25000J0D01*
G01*
X6145000Y-3245000D02*
X6195000Y-3295000D01*
X6195000Y-3245000D02*
X6145000Y-3295000D01*
X6195000Y-3270000D02*
G75*
G02*
X6145000Y-3270000I-25000J0D01*
G01*
X6145000Y-3270000D02*
G75*
G02*
X6195000Y-3270000I25000J0D01*
G01*
X6145000Y-3550000D02*
X6195000Y-3600000D01*
X6195000Y-3550000D02*
X6145000Y-3600000D01*
X6195000Y-3575000D02*
G75*
G02*
X6145000Y-3575000I-25000J0D01*
G01*
X6145000Y-3575000D02*
G75*
G02*
X6195000Y-3575000I25000J0D01*
G01*
X6250000Y-3165000D02*
X6300000Y-3215000D01*
X6300000Y-3165000D02*
X6250000Y-3215000D01*
X6300000Y-3190000D02*
G75*
G02*
X6250000Y-3190000I-25000J0D01*
G01*
X6250000Y-3190000D02*
G75*
G02*
X6300000Y-3190000I25000J0D01*
G01*
X6260000Y-3240000D02*
X6310000Y-3290000D01*
X6310000Y-3240000D02*
X6260000Y-3290000D01*
X6310000Y-3265000D02*
G75*
G02*
X6260000Y-3265000I-25000J0D01*
G01*
X6260000Y-3265000D02*
G75*
G02*
X6310000Y-3265000I25000J0D01*
G01*
X6260000Y-3475000D02*
X6310000Y-3525000D01*
X6310000Y-3475000D02*
X6260000Y-3525000D01*
X6310000Y-3500000D02*
G75*
G02*
X6260000Y-3500000I-25000J0D01*
G01*
X6260000Y-3500000D02*
G75*
G02*
X6310000Y-3500000I25000J0D01*
G01*
X6265000Y-3550000D02*
X6315000Y-3600000D01*
X6315000Y-3550000D02*
X6265000Y-3600000D01*
X6315000Y-3575000D02*
G75*
G02*
X6265000Y-3575000I-25000J0D01*
G01*
X6265000Y-3575000D02*
G75*
G02*
X6315000Y-3575000I25000J0D01*
G01*
X6345000Y-4280000D02*
X6395000Y-4330000D01*
X6395000Y-4280000D02*
X6345000Y-4330000D01*
X6395000Y-4305000D02*
G75*
G02*
X6345000Y-4305000I-25000J0D01*
G01*
X6345000Y-4305000D02*
G75*
G02*
X6395000Y-4305000I25000J0D01*
G01*
X6345000Y-6067500D02*
X6395000Y-6117500D01*
X6395000Y-6067500D02*
X6345000Y-6117500D01*
X6395000Y-6092500D02*
G75*
G02*
X6345000Y-6092500I-25000J0D01*
G01*
X6345000Y-6092500D02*
G75*
G02*
X6395000Y-6092500I25000J0D01*
G01*
X6835000Y-5395000D02*
X6885000Y-5445000D01*
X6885000Y-5395000D02*
X6835000Y-5445000D01*
X6885000Y-5420000D02*
G75*
G02*
X6835000Y-5420000I-25000J0D01*
G01*
X6835000Y-5420000D02*
G75*
G02*
X6885000Y-5420000I25000J0D01*
G01*
X6865000Y-6375000D02*
X6915000Y-6425000D01*
X6915000Y-6375000D02*
X6865000Y-6425000D01*
X6915000Y-6400000D02*
G75*
G02*
X6865000Y-6400000I-25000J0D01*
G01*
X6865000Y-6400000D02*
G75*
G02*
X6915000Y-6400000I25000J0D01*
G01*
X6885000Y-6785000D02*
X6935000Y-6835000D01*
X6935000Y-6785000D02*
X6885000Y-6835000D01*
X6935000Y-6810000D02*
G75*
G02*
X6885000Y-6810000I-25000J0D01*
G01*
X6885000Y-6810000D02*
G75*
G02*
X6935000Y-6810000I25000J0D01*
G01*
X6975000Y-4415000D02*
X7025000Y-4465000D01*
X7025000Y-4415000D02*
X6975000Y-4465000D01*
X7025000Y-4440000D02*
G75*
G02*
X6975000Y-4440000I-25000J0D01*
G01*
X6975000Y-4440000D02*
G75*
G02*
X7025000Y-4440000I25000J0D01*
G01*
X7115000Y-3135000D02*
X7165000Y-3185000D01*
X7165000Y-3135000D02*
X7115000Y-3185000D01*
X7165000Y-3160000D02*
G75*
G02*
X7115000Y-3160000I-25000J0D01*
G01*
X7115000Y-3160000D02*
G75*
G02*
X7165000Y-3160000I25000J0D01*
G01*
X7308364Y-3351853D02*
X7358364Y-3401853D01*
X7358364Y-3351853D02*
X7308364Y-3401853D01*
X7358364Y-3376853D02*
G75*
G02*
X7308364Y-3376853I-25000J0D01*
G01*
X7308364Y-3376853D02*
G75*
G02*
X7358364Y-3376853I25000J0D01*
G01*
X7342653Y-5352185D02*
X7392653Y-5402185D01*
X7392653Y-5352185D02*
X7342653Y-5402185D01*
X7392653Y-5377185D02*
G75*
G02*
X7342653Y-5377185I-25000J0D01*
G01*
X7342653Y-5377185D02*
G75*
G02*
X7392653Y-5377185I25000J0D01*
G01*
X7401250Y-4410250D02*
X7451250Y-4460250D01*
X7451250Y-4410250D02*
X7401250Y-4460250D01*
X7451250Y-4435250D02*
G75*
G02*
X7401250Y-4435250I-25000J0D01*
G01*
X7401250Y-4435250D02*
G75*
G02*
X7451250Y-4435250I25000J0D01*
G01*
X7520199Y-5820199D02*
X7570199Y-5870199D01*
X7570199Y-5820199D02*
X7520199Y-5870199D01*
X7570199Y-5845199D02*
G75*
G02*
X7520199Y-5845199I-25000J0D01*
G01*
X7520199Y-5845199D02*
G75*
G02*
X7570199Y-5845199I25000J0D01*
G01*
X7610493Y-4105000D02*
X7660493Y-4155000D01*
X7660493Y-4105000D02*
X7610493Y-4155000D01*
X7660493Y-4130000D02*
G75*
G02*
X7610493Y-4130000I-25000J0D01*
G01*
X7610493Y-4130000D02*
G75*
G02*
X7660493Y-4130000I25000J0D01*
G01*
X7611250Y-4725000D02*
X7661250Y-4775000D01*
X7661250Y-4725000D02*
X7611250Y-4775000D01*
X7661250Y-4750000D02*
G75*
G02*
X7611250Y-4750000I-25000J0D01*
G01*
X7611250Y-4750000D02*
G75*
G02*
X7661250Y-4750000I25000J0D01*
G01*
X7765000Y-6265000D02*
X7815000Y-6315000D01*
X7815000Y-6265000D02*
X7765000Y-6315000D01*
X7815000Y-6290000D02*
G75*
G02*
X7765000Y-6290000I-25000J0D01*
G01*
X7765000Y-6290000D02*
G75*
G02*
X7815000Y-6290000I25000J0D01*
G01*
X7816221Y-4735000D02*
X7866221Y-4785000D01*
X7866221Y-4735000D02*
X7816221Y-4785000D01*
X7866221Y-4760000D02*
G75*
G02*
X7816221Y-4760000I-25000J0D01*
G01*
X7816221Y-4760000D02*
G75*
G02*
X7866221Y-4760000I25000J0D01*
G01*
X7935000Y-3175000D02*
X7985000Y-3225000D01*
X7985000Y-3175000D02*
X7935000Y-3225000D01*
X7985000Y-3200000D02*
G75*
G02*
X7935000Y-3200000I-25000J0D01*
G01*
X7935000Y-3200000D02*
G75*
G02*
X7985000Y-3200000I25000J0D01*
G01*
X7951250Y-4735000D02*
X8001250Y-4785000D01*
X8001250Y-4735000D02*
X7951250Y-4785000D01*
X8001250Y-4760000D02*
G75*
G02*
X7951250Y-4760000I-25000J0D01*
G01*
X7951250Y-4760000D02*
G75*
G02*
X8001250Y-4760000I25000J0D01*
G01*
X8325000Y-6805000D02*
X8375000Y-6855000D01*
X8375000Y-6805000D02*
X8325000Y-6855000D01*
X8375000Y-6830000D02*
G75*
G02*
X8325000Y-6830000I-25000J0D01*
G01*
X8325000Y-6830000D02*
G75*
G02*
X8375000Y-6830000I25000J0D01*
G01*
X8411250Y-5025000D02*
X8461250Y-5075000D01*
X8461250Y-5025000D02*
X8411250Y-5075000D01*
X8461250Y-5050000D02*
G75*
G02*
X8411250Y-5050000I-25000J0D01*
G01*
X8411250Y-5050000D02*
G75*
G02*
X8461250Y-5050000I25000J0D01*
G01*
X8422223Y-5320000D02*
X8472223Y-5370000D01*
X8472223Y-5320000D02*
X8422223Y-5370000D01*
X8472223Y-5345000D02*
G75*
G02*
X8422223Y-5345000I-25000J0D01*
G01*
X8422223Y-5345000D02*
G75*
G02*
X8472223Y-5345000I25000J0D01*
G01*
X8445842Y-5212565D02*
X8495842Y-5262565D01*
X8495842Y-5212565D02*
X8445842Y-5262565D01*
X8495842Y-5237565D02*
G75*
G02*
X8445842Y-5237565I-25000J0D01*
G01*
X8445842Y-5237565D02*
G75*
G02*
X8495842Y-5237565I25000J0D01*
G01*
X8503277Y-4877575D02*
X8553277Y-4927575D01*
X8553277Y-4877575D02*
X8503277Y-4927575D01*
X8553277Y-4902575D02*
G75*
G02*
X8503277Y-4902575I-25000J0D01*
G01*
X8503277Y-4902575D02*
G75*
G02*
X8553277Y-4902575I25000J0D01*
G01*
X8515000Y-3135000D02*
X8565000Y-3185000D01*
X8565000Y-3135000D02*
X8515000Y-3185000D01*
X8565000Y-3160000D02*
G75*
G02*
X8515000Y-3160000I-25000J0D01*
G01*
X8515000Y-3160000D02*
G75*
G02*
X8565000Y-3160000I25000J0D01*
G01*
X9335000Y-5875000D02*
X9385000Y-5925000D01*
X9385000Y-5875000D02*
X9335000Y-5925000D01*
X9385000Y-5900000D02*
G75*
G02*
X9335000Y-5900000I-25000J0D01*
G01*
X9335000Y-5900000D02*
G75*
G02*
X9385000Y-5900000I25000J0D01*
G01*
X3320000Y-6640000D02*
X3380000Y-6700000D01*
X3380000Y-6640000D02*
X3320000Y-6700000D01*
X3350000Y-6640000D02*
X3350000Y-6700000D01*
X3320000Y-6670000D02*
X3380000Y-6670000D01*
X3460000Y-6380000D02*
X3520000Y-6440000D01*
X3520000Y-6380000D02*
X3460000Y-6440000D01*
X3490000Y-6380000D02*
X3490000Y-6440000D01*
X3460000Y-6410000D02*
X3520000Y-6410000D01*
X3490000Y-6130000D02*
X3550000Y-6190000D01*
X3550000Y-6130000D02*
X3490000Y-6190000D01*
X3520000Y-6130000D02*
X3520000Y-6190000D01*
X3490000Y-6160000D02*
X3550000Y-6160000D01*
X3500000Y-5780000D02*
X3560000Y-5840000D01*
X3560000Y-5780000D02*
X3500000Y-5840000D01*
X3530000Y-5780000D02*
X3530000Y-5840000D01*
X3500000Y-5810000D02*
X3560000Y-5810000D01*
X3510000Y-4950000D02*
X3570000Y-5010000D01*
X3570000Y-4950000D02*
X3510000Y-5010000D01*
X3540000Y-4950000D02*
X3540000Y-5010000D01*
X3510000Y-4980000D02*
X3570000Y-4980000D01*
X3510000Y-5260000D02*
X3570000Y-5320000D01*
X3570000Y-5260000D02*
X3510000Y-5320000D01*
X3540000Y-5260000D02*
X3540000Y-5320000D01*
X3510000Y-5290000D02*
X3570000Y-5290000D01*
X3706650Y-5601534D02*
X3766650Y-5661534D01*
X3766650Y-5601534D02*
X3706650Y-5661534D01*
X3736650Y-5601534D02*
X3736650Y-5661534D01*
X3706650Y-5631534D02*
X3766650Y-5631534D01*
X3708650Y-5954350D02*
X3768650Y-6014350D01*
X3768650Y-5954350D02*
X3708650Y-6014350D01*
X3738650Y-5954350D02*
X3738650Y-6014350D01*
X3708650Y-5984350D02*
X3768650Y-5984350D01*
X4480000Y-6640000D02*
X4540000Y-6700000D01*
X4540000Y-6640000D02*
X4480000Y-6700000D01*
X4510000Y-6640000D02*
X4510000Y-6700000D01*
X4480000Y-6670000D02*
X4540000Y-6670000D01*
X4797500Y-5830000D02*
X4857500Y-5890000D01*
X4857500Y-5830000D02*
X4797500Y-5890000D01*
X4827500Y-5830000D02*
X4827500Y-5890000D01*
X4797500Y-5860000D02*
X4857500Y-5860000D01*
X4797500Y-5945000D02*
X4857500Y-6005000D01*
X4857500Y-5945000D02*
X4797500Y-6005000D01*
X4827500Y-5945000D02*
X4827500Y-6005000D01*
X4797500Y-5975000D02*
X4857500Y-5975000D01*
X5030000Y-6540000D02*
X5090000Y-6600000D01*
X5090000Y-6540000D02*
X5030000Y-6600000D01*
X5060000Y-6540000D02*
X5060000Y-6600000D01*
X5030000Y-6570000D02*
X5090000Y-6570000D01*
X5030000Y-6640000D02*
X5090000Y-6700000D01*
X5090000Y-6640000D02*
X5030000Y-6700000D01*
X5060000Y-6640000D02*
X5060000Y-6700000D01*
X5030000Y-6670000D02*
X5090000Y-6670000D01*
X5050000Y-5040000D02*
X5110000Y-5100000D01*
X5110000Y-5040000D02*
X5050000Y-5100000D01*
X5080000Y-5040000D02*
X5080000Y-5100000D01*
X5050000Y-5070000D02*
X5110000Y-5070000D01*
X5050000Y-5140000D02*
X5110000Y-5200000D01*
X5110000Y-5140000D02*
X5050000Y-5200000D01*
X5080000Y-5140000D02*
X5080000Y-5200000D01*
X5050000Y-5170000D02*
X5110000Y-5170000D01*
X5583744Y-6783744D02*
X5643744Y-6843744D01*
X5643744Y-6783744D02*
X5583744Y-6843744D01*
X5613744Y-6783744D02*
X5613744Y-6843744D01*
X5583744Y-6813744D02*
X5643744Y-6813744D01*
X5606091Y-5335276D02*
X5666091Y-5395276D01*
X5666091Y-5335276D02*
X5606091Y-5395276D01*
X5636091Y-5335276D02*
X5636091Y-5395276D01*
X5606091Y-5365276D02*
X5666091Y-5365276D01*
X5800000Y-6760000D02*
X5860000Y-6820000D01*
X5860000Y-6760000D02*
X5800000Y-6820000D01*
X5830000Y-6760000D02*
X5830000Y-6820000D01*
X5800000Y-6790000D02*
X5860000Y-6790000D01*
X6000000Y-6510000D02*
X6060000Y-6570000D01*
X6060000Y-6510000D02*
X6000000Y-6570000D01*
X6030000Y-6510000D02*
X6030000Y-6570000D01*
X6000000Y-6540000D02*
X6060000Y-6540000D01*
X8242500Y-6360000D02*
X8302500Y-6420000D01*
X8302500Y-6360000D02*
X8242500Y-6420000D01*
X8272500Y-6360000D02*
X8272500Y-6420000D01*
X8242500Y-6390000D02*
X8302500Y-6390000D01*
X9700000Y-5320000D02*
X9760000Y-5380000D01*
X9760000Y-5320000D02*
X9700000Y-5380000D01*
X9730000Y-5320000D02*
X9730000Y-5380000D01*
X9700000Y-5350000D02*
X9760000Y-5350000D01*
X9940000Y-5330000D02*
X10000000Y-5390000D01*
X10000000Y-5330000D02*
X9940000Y-5390000D01*
X9970000Y-5330000D02*
X9970000Y-5390000D01*
X9940000Y-5360000D02*
X10000000Y-5360000D01*
X9940000Y-7020000D02*
X10000000Y-7080000D01*
X10000000Y-7020000D02*
X9940000Y-7080000D01*
X9970000Y-7020000D02*
X9970000Y-7080000D01*
X9940000Y-7050000D02*
X10000000Y-7050000D01*
X10150000Y-7080000D02*
X10210000Y-7140000D01*
X10210000Y-7080000D02*
X10150000Y-7140000D01*
X10180000Y-7080000D02*
X10180000Y-7140000D01*
X10150000Y-7110000D02*
X10210000Y-7110000D01*
X10399486Y-5478397D02*
X10459486Y-5538397D01*
X10459486Y-5478397D02*
X10399486Y-5538397D01*
X10429486Y-5478397D02*
X10429486Y-5538397D01*
X10399486Y-5508397D02*
X10459486Y-5508397D01*
X10410000Y-7030000D02*
X10470000Y-7090000D01*
X10470000Y-7030000D02*
X10410000Y-7090000D01*
X10440000Y-7030000D02*
X10440000Y-7090000D01*
X10410000Y-7060000D02*
X10470000Y-7060000D01*
X10430000Y-5582500D02*
X10490000Y-5642500D01*
X10490000Y-5582500D02*
X10430000Y-5642500D01*
X10460000Y-5582500D02*
X10460000Y-5642500D01*
X10430000Y-5612500D02*
X10490000Y-5612500D01*
X10615009Y-6180373D02*
X10675009Y-6240373D01*
X10675009Y-6180373D02*
X10615009Y-6240373D01*
X10645009Y-6180373D02*
X10645009Y-6240373D01*
X10615009Y-6210373D02*
X10675009Y-6210373D01*
X10630407Y-6289593D02*
X10690407Y-6349593D01*
X10690407Y-6289593D02*
X10630407Y-6349593D01*
X10660407Y-6289593D02*
X10660407Y-6349593D01*
X10630407Y-6319593D02*
X10690407Y-6319593D01*
X10940000Y-5490000D02*
X11000000Y-5550000D01*
X11000000Y-5490000D02*
X10940000Y-5550000D01*
X10970000Y-5490000D02*
X10970000Y-5550000D01*
X10940000Y-5520000D02*
X11000000Y-5520000D01*
X10940000Y-7020000D02*
X11000000Y-7080000D01*
X11000000Y-7020000D02*
X10940000Y-7080000D01*
X10970000Y-7020000D02*
X10970000Y-7080000D01*
X10940000Y-7050000D02*
X11000000Y-7050000D01*
X10960000Y-6240000D02*
X11020000Y-6300000D01*
X11020000Y-6240000D02*
X10960000Y-6300000D01*
X10990000Y-6240000D02*
X10990000Y-6300000D01*
X10960000Y-6270000D02*
X11020000Y-6270000D01*
X11669000Y-6210000D02*
X11729000Y-6270000D01*
X11729000Y-6210000D02*
X11669000Y-6270000D01*
X11699000Y-6210000D02*
X11699000Y-6270000D01*
X11669000Y-6240000D02*
X11729000Y-6240000D01*
X11674000Y-5865000D02*
X11734000Y-5925000D01*
X11734000Y-5865000D02*
X11674000Y-5925000D01*
X11704000Y-5865000D02*
X11704000Y-5925000D01*
X11674000Y-5895000D02*
X11734000Y-5895000D01*
X11693750Y-6610000D02*
X11753750Y-6670000D01*
X11753750Y-6610000D02*
X11693750Y-6670000D01*
X11723750Y-6610000D02*
X11723750Y-6670000D01*
X11693750Y-6640000D02*
X11753750Y-6640000D01*
X11723750Y-6410000D02*
X11783750Y-6470000D01*
X11783750Y-6410000D02*
X11723750Y-6470000D01*
X11753750Y-6410000D02*
X11753750Y-6470000D01*
X11723750Y-6440000D02*
X11783750Y-6440000D01*
X11766250Y-5440000D02*
X11826250Y-5500000D01*
X11826250Y-5440000D02*
X11766250Y-5500000D01*
X11796250Y-5440000D02*
X11796250Y-5500000D01*
X11766250Y-5470000D02*
X11826250Y-5470000D01*
X11780000Y-5090000D02*
X11840000Y-5150000D01*
X11840000Y-5090000D02*
X11780000Y-5150000D01*
X11810000Y-5090000D02*
X11810000Y-5150000D01*
X11780000Y-5120000D02*
X11840000Y-5120000D01*
X11790000Y-5690000D02*
X11850000Y-5750000D01*
X11850000Y-5690000D02*
X11790000Y-5750000D01*
X11820000Y-5690000D02*
X11820000Y-5750000D01*
X11790000Y-5720000D02*
X11850000Y-5720000D01*
X11822000Y-6039000D02*
X11882000Y-6099000D01*
X11882000Y-6039000D02*
X11822000Y-6099000D01*
X11852000Y-6039000D02*
X11852000Y-6099000D01*
X11822000Y-6069000D02*
X11882000Y-6069000D01*
X11980000Y-5080000D02*
X12040000Y-5140000D01*
X12040000Y-5080000D02*
X11980000Y-5140000D01*
X12010000Y-5080000D02*
X12010000Y-5140000D01*
X11980000Y-5110000D02*
X12040000Y-5110000D01*
X11995827Y-5690350D02*
X12055827Y-5750350D01*
X12055827Y-5690350D02*
X11995827Y-5750350D01*
X12025827Y-5690350D02*
X12025827Y-5750350D01*
X11995827Y-5720350D02*
X12055827Y-5720350D01*
X12005185Y-6392176D02*
X12065185Y-6452176D01*
X12065185Y-6392176D02*
X12005185Y-6452176D01*
X12035185Y-6392176D02*
X12035185Y-6452176D01*
X12005185Y-6422176D02*
X12065185Y-6422176D01*
X12063750Y-5400000D02*
X12123750Y-5460000D01*
X12123750Y-5400000D02*
X12063750Y-5460000D01*
X12093750Y-5400000D02*
X12093750Y-5460000D01*
X12063750Y-5430000D02*
X12123750Y-5430000D01*
X12100000Y-6390350D02*
X12160000Y-6450350D01*
X12160000Y-6390350D02*
X12100000Y-6450350D01*
X12130000Y-6390350D02*
X12130000Y-6450350D01*
X12100000Y-6420350D02*
X12160000Y-6420350D01*
X12110000Y-5690350D02*
X12170000Y-5750350D01*
X12170000Y-5690350D02*
X12110000Y-5750350D01*
X12140000Y-5690350D02*
X12140000Y-5750350D01*
X12110000Y-5720350D02*
X12170000Y-5720350D01*
X12133584Y-5090000D02*
X12193584Y-5150000D01*
X12193584Y-5090000D02*
X12133584Y-5150000D01*
X12163584Y-5090000D02*
X12163584Y-5150000D01*
X12133584Y-5120000D02*
X12193584Y-5120000D01*
X9807900Y-3407900D02*
X9884100Y-3484100D01*
X9884100Y-3407900D02*
X9807900Y-3484100D01*
X9872941Y-3472941D02*
X9872941Y-3419059D01*
X9819059Y-3419059D01*
X9819059Y-3472941D01*
X9872941Y-3472941D01*
X10061900Y-3661900D02*
X10138100Y-3738100D01*
X10138100Y-3661900D02*
X10061900Y-3738100D01*
X10126941Y-3726941D02*
X10126941Y-3673059D01*
X10073059Y-3673059D01*
X10073059Y-3726941D01*
X10126941Y-3726941D01*
X10315900Y-3407900D02*
X10392100Y-3484100D01*
X10392100Y-3407900D02*
X10315900Y-3484100D01*
X10380941Y-3472941D02*
X10380941Y-3419059D01*
X10327059Y-3419059D01*
X10327059Y-3472941D01*
X10380941Y-3472941D01*
X6680000Y-3730000D02*
X6780000Y-3830000D01*
X6780000Y-3730000D02*
X6680000Y-3830000D01*
X6730000Y-3830000D02*
X6780000Y-3780000D01*
X6730000Y-3730000D01*
X6680000Y-3780000D01*
X6730000Y-3830000D01*
D12*
X3496000Y-3214000D02*
X3496000Y-3434000D01*
X3386000Y-3324000D02*
X3606000Y-3324000D01*
X3606000Y-3324000D02*
G75*
G02*
X3386000Y-3324000I-110000J0D01*
G01*
X3386000Y-3324000D02*
G75*
G02*
X3606000Y-3324000I110000J0D01*
G01*
X3496000Y-6854000D02*
X3496000Y-7074000D01*
X3386000Y-6964000D02*
X3606000Y-6964000D01*
X3606000Y-6964000D02*
G75*
G02*
X3386000Y-6964000I-110000J0D01*
G01*
X3386000Y-6964000D02*
G75*
G02*
X3606000Y-6964000I110000J0D01*
G01*
X11966000Y-3214000D02*
X11966000Y-3434000D01*
X11856000Y-3324000D02*
X12076000Y-3324000D01*
X12076000Y-3324000D02*
G75*
G02*
X11856000Y-3324000I-110000J0D01*
G01*
X11856000Y-3324000D02*
G75*
G02*
X12076000Y-3324000I110000J0D01*
G01*
X11966000Y-6854000D02*
X11966000Y-7074000D01*
X11856000Y-6964000D02*
X12076000Y-6964000D01*
X12076000Y-6964000D02*
G75*
G02*
X11856000Y-6964000I-110000J0D01*
G01*
X11856000Y-6964000D02*
G75*
G02*
X12076000Y-6964000I110000J0D01*
G01*
D13*
X5595460Y-4885460D02*
X5595460Y-4694540D01*
X5404540Y-4694540D01*
X5404540Y-4885460D01*
X5595460Y-4885460D01*
X5635000Y-4790000D02*
G75*
G02*
X5365000Y-4790000I-135000J0D01*
G01*
X5365000Y-4790000D02*
G75*
G02*
X5635000Y-4790000I135000J0D01*
G01*
X6095460Y-4885460D02*
X6095460Y-4694540D01*
X5904540Y-4694540D01*
X5904540Y-4885460D01*
X6095460Y-4885460D01*
X6135000Y-4790000D02*
G75*
G02*
X5865000Y-4790000I-135000J0D01*
G01*
X5865000Y-4790000D02*
G75*
G02*
X6135000Y-4790000I135000J0D01*
G01*
D11*
X3501277Y-7535484D02*
X3501277Y-7335484D01*
X3501277Y-7335484D02*
X3548896Y-7335484D01*
X3548896Y-7335484D02*
X3577467Y-7345008D01*
X3577467Y-7345008D02*
X3596515Y-7364055D01*
X3596515Y-7364055D02*
X3606038Y-7383103D01*
X3606038Y-7383103D02*
X3615562Y-7421198D01*
X3615562Y-7421198D02*
X3615562Y-7449769D01*
X3615562Y-7449769D02*
X3606038Y-7487865D01*
X3606038Y-7487865D02*
X3596515Y-7506912D01*
X3596515Y-7506912D02*
X3577467Y-7525960D01*
X3577467Y-7525960D02*
X3548896Y-7535484D01*
X3548896Y-7535484D02*
X3501277Y-7535484D01*
X3701277Y-7535484D02*
X3701277Y-7402150D01*
X3701277Y-7440246D02*
X3710800Y-7421198D01*
X3710800Y-7421198D02*
X3720324Y-7411674D01*
X3720324Y-7411674D02*
X3739372Y-7402150D01*
X3739372Y-7402150D02*
X3758419Y-7402150D01*
X3825086Y-7535484D02*
X3825086Y-7402150D01*
X3825086Y-7335484D02*
X3815562Y-7345008D01*
X3815562Y-7345008D02*
X3825086Y-7354531D01*
X3825086Y-7354531D02*
X3834610Y-7345008D01*
X3834610Y-7345008D02*
X3825086Y-7335484D01*
X3825086Y-7335484D02*
X3825086Y-7354531D01*
X3948896Y-7535484D02*
X3929848Y-7525960D01*
X3929848Y-7525960D02*
X3920324Y-7506912D01*
X3920324Y-7506912D02*
X3920324Y-7335484D01*
X4053657Y-7535484D02*
X4034610Y-7525960D01*
X4034610Y-7525960D02*
X4025086Y-7506912D01*
X4025086Y-7506912D02*
X4025086Y-7335484D01*
X4282229Y-7535484D02*
X4282229Y-7335484D01*
X4282229Y-7335484D02*
X4348896Y-7478341D01*
X4348896Y-7478341D02*
X4415562Y-7335484D01*
X4415562Y-7335484D02*
X4415562Y-7535484D01*
X4596515Y-7535484D02*
X4596515Y-7430722D01*
X4596515Y-7430722D02*
X4586991Y-7411674D01*
X4586991Y-7411674D02*
X4567943Y-7402150D01*
X4567943Y-7402150D02*
X4529848Y-7402150D01*
X4529848Y-7402150D02*
X4510800Y-7411674D01*
X4596515Y-7525960D02*
X4577467Y-7535484D01*
X4577467Y-7535484D02*
X4529848Y-7535484D01*
X4529848Y-7535484D02*
X4510800Y-7525960D01*
X4510800Y-7525960D02*
X4501277Y-7506912D01*
X4501277Y-7506912D02*
X4501277Y-7487865D01*
X4501277Y-7487865D02*
X4510800Y-7468817D01*
X4510800Y-7468817D02*
X4529848Y-7459293D01*
X4529848Y-7459293D02*
X4577467Y-7459293D01*
X4577467Y-7459293D02*
X4596515Y-7449769D01*
X4691753Y-7402150D02*
X4691753Y-7602150D01*
X4691753Y-7411674D02*
X4710800Y-7402150D01*
X4710800Y-7402150D02*
X4748896Y-7402150D01*
X4748896Y-7402150D02*
X4767943Y-7411674D01*
X4767943Y-7411674D02*
X4777467Y-7421198D01*
X4777467Y-7421198D02*
X4786991Y-7440246D01*
X4786991Y-7440246D02*
X4786991Y-7497388D01*
X4786991Y-7497388D02*
X4777467Y-7516436D01*
X4777467Y-7516436D02*
X4767943Y-7525960D01*
X4767943Y-7525960D02*
X4748896Y-7535484D01*
X4748896Y-7535484D02*
X4710800Y-7535484D01*
X4710800Y-7535484D02*
X4691753Y-7525960D01*
X4872705Y-7516436D02*
X4882229Y-7525960D01*
X4882229Y-7525960D02*
X4872705Y-7535484D01*
X4872705Y-7535484D02*
X4863181Y-7525960D01*
X4863181Y-7525960D02*
X4872705Y-7516436D01*
X4872705Y-7516436D02*
X4872705Y-7535484D01*
X4872705Y-7411674D02*
X4882229Y-7421198D01*
X4882229Y-7421198D02*
X4872705Y-7430722D01*
X4872705Y-7430722D02*
X4863181Y-7421198D01*
X4863181Y-7421198D02*
X4872705Y-7411674D01*
X4872705Y-7411674D02*
X4872705Y-7430722D01*
D10*
X3225500Y-7856500D02*
X3240500Y-7871500D01*
X3240500Y-7856500D02*
X3225500Y-7871500D01*
D11*
X3539372Y-7755484D02*
X3558419Y-7755484D01*
X3558419Y-7755484D02*
X3577467Y-7765008D01*
X3577467Y-7765008D02*
X3586991Y-7774531D01*
X3586991Y-7774531D02*
X3596515Y-7793579D01*
X3596515Y-7793579D02*
X3606038Y-7831674D01*
X3606038Y-7831674D02*
X3606038Y-7879293D01*
X3606038Y-7879293D02*
X3596515Y-7917388D01*
X3596515Y-7917388D02*
X3586991Y-7936436D01*
X3586991Y-7936436D02*
X3577467Y-7945960D01*
X3577467Y-7945960D02*
X3558419Y-7955484D01*
X3558419Y-7955484D02*
X3539372Y-7955484D01*
X3539372Y-7955484D02*
X3520324Y-7945960D01*
X3520324Y-7945960D02*
X3510800Y-7936436D01*
X3510800Y-7936436D02*
X3501277Y-7917388D01*
X3501277Y-7917388D02*
X3491753Y-7879293D01*
X3491753Y-7879293D02*
X3491753Y-7831674D01*
X3491753Y-7831674D02*
X3501277Y-7793579D01*
X3501277Y-7793579D02*
X3510800Y-7774531D01*
X3510800Y-7774531D02*
X3520324Y-7765008D01*
X3520324Y-7765008D02*
X3539372Y-7755484D01*
X3691753Y-7936436D02*
X3701277Y-7945960D01*
X3701277Y-7945960D02*
X3691753Y-7955484D01*
X3691753Y-7955484D02*
X3682229Y-7945960D01*
X3682229Y-7945960D02*
X3691753Y-7936436D01*
X3691753Y-7936436D02*
X3691753Y-7955484D01*
X3891753Y-7955484D02*
X3777467Y-7955484D01*
X3834610Y-7955484D02*
X3834610Y-7755484D01*
X3834610Y-7755484D02*
X3815562Y-7784055D01*
X3815562Y-7784055D02*
X3796515Y-7803103D01*
X3796515Y-7803103D02*
X3777467Y-7812627D01*
X4072705Y-7755484D02*
X3977467Y-7755484D01*
X3977467Y-7755484D02*
X3967943Y-7850722D01*
X3967943Y-7850722D02*
X3977467Y-7841198D01*
X3977467Y-7841198D02*
X3996515Y-7831674D01*
X3996515Y-7831674D02*
X4044134Y-7831674D01*
X4044134Y-7831674D02*
X4063181Y-7841198D01*
X4063181Y-7841198D02*
X4072705Y-7850722D01*
X4072705Y-7850722D02*
X4082229Y-7869769D01*
X4082229Y-7869769D02*
X4082229Y-7917388D01*
X4082229Y-7917388D02*
X4072705Y-7936436D01*
X4072705Y-7936436D02*
X4063181Y-7945960D01*
X4063181Y-7945960D02*
X4044134Y-7955484D01*
X4044134Y-7955484D02*
X3996515Y-7955484D01*
X3996515Y-7955484D02*
X3977467Y-7945960D01*
X3977467Y-7945960D02*
X3967943Y-7936436D01*
X4206039Y-7755484D02*
X4225086Y-7755484D01*
X4225086Y-7755484D02*
X4244134Y-7765008D01*
X4244134Y-7765008D02*
X4253658Y-7774531D01*
X4253658Y-7774531D02*
X4263181Y-7793579D01*
X4263181Y-7793579D02*
X4272705Y-7831674D01*
X4272705Y-7831674D02*
X4272705Y-7879293D01*
X4272705Y-7879293D02*
X4263181Y-7917388D01*
X4263181Y-7917388D02*
X4253658Y-7936436D01*
X4253658Y-7936436D02*
X4244134Y-7945960D01*
X4244134Y-7945960D02*
X4225086Y-7955484D01*
X4225086Y-7955484D02*
X4206039Y-7955484D01*
X4206039Y-7955484D02*
X4186991Y-7945960D01*
X4186991Y-7945960D02*
X4177467Y-7936436D01*
X4177467Y-7936436D02*
X4167943Y-7917388D01*
X4167943Y-7917388D02*
X4158419Y-7879293D01*
X4158419Y-7879293D02*
X4158419Y-7831674D01*
X4158419Y-7831674D02*
X4167943Y-7793579D01*
X4167943Y-7793579D02*
X4177467Y-7774531D01*
X4177467Y-7774531D02*
X4186991Y-7765008D01*
X4186991Y-7765008D02*
X4206039Y-7755484D01*
X4358420Y-7955484D02*
X4358420Y-7822150D01*
X4358420Y-7841198D02*
X4367943Y-7831674D01*
X4367943Y-7831674D02*
X4386991Y-7822150D01*
X4386991Y-7822150D02*
X4415562Y-7822150D01*
X4415562Y-7822150D02*
X4434610Y-7831674D01*
X4434610Y-7831674D02*
X4444134Y-7850722D01*
X4444134Y-7850722D02*
X4444134Y-7955484D01*
X4444134Y-7850722D02*
X4453658Y-7831674D01*
X4453658Y-7831674D02*
X4472705Y-7822150D01*
X4472705Y-7822150D02*
X4501277Y-7822150D01*
X4501277Y-7822150D02*
X4520324Y-7831674D01*
X4520324Y-7831674D02*
X4529848Y-7850722D01*
X4529848Y-7850722D02*
X4529848Y-7955484D01*
X4625086Y-7955484D02*
X4625086Y-7822150D01*
X4625086Y-7841198D02*
X4634610Y-7831674D01*
X4634610Y-7831674D02*
X4653658Y-7822150D01*
X4653658Y-7822150D02*
X4682229Y-7822150D01*
X4682229Y-7822150D02*
X4701277Y-7831674D01*
X4701277Y-7831674D02*
X4710801Y-7850722D01*
X4710801Y-7850722D02*
X4710801Y-7955484D01*
X4710801Y-7850722D02*
X4720324Y-7831674D01*
X4720324Y-7831674D02*
X4739372Y-7822150D01*
X4739372Y-7822150D02*
X4767943Y-7822150D01*
X4767943Y-7822150D02*
X4786991Y-7831674D01*
X4786991Y-7831674D02*
X4796515Y-7850722D01*
X4796515Y-7850722D02*
X4796515Y-7955484D01*
X5186991Y-7745960D02*
X5015563Y-8003103D01*
X5444134Y-7755484D02*
X5463182Y-7755484D01*
X5463182Y-7755484D02*
X5482229Y-7765008D01*
X5482229Y-7765008D02*
X5491753Y-7774531D01*
X5491753Y-7774531D02*
X5501277Y-7793579D01*
X5501277Y-7793579D02*
X5510801Y-7831674D01*
X5510801Y-7831674D02*
X5510801Y-7879293D01*
X5510801Y-7879293D02*
X5501277Y-7917388D01*
X5501277Y-7917388D02*
X5491753Y-7936436D01*
X5491753Y-7936436D02*
X5482229Y-7945960D01*
X5482229Y-7945960D02*
X5463182Y-7955484D01*
X5463182Y-7955484D02*
X5444134Y-7955484D01*
X5444134Y-7955484D02*
X5425086Y-7945960D01*
X5425086Y-7945960D02*
X5415563Y-7936436D01*
X5415563Y-7936436D02*
X5406039Y-7917388D01*
X5406039Y-7917388D02*
X5396515Y-7879293D01*
X5396515Y-7879293D02*
X5396515Y-7831674D01*
X5396515Y-7831674D02*
X5406039Y-7793579D01*
X5406039Y-7793579D02*
X5415563Y-7774531D01*
X5415563Y-7774531D02*
X5425086Y-7765008D01*
X5425086Y-7765008D02*
X5444134Y-7755484D01*
X5596515Y-7936436D02*
X5606039Y-7945960D01*
X5606039Y-7945960D02*
X5596515Y-7955484D01*
X5596515Y-7955484D02*
X5586991Y-7945960D01*
X5586991Y-7945960D02*
X5596515Y-7936436D01*
X5596515Y-7936436D02*
X5596515Y-7955484D01*
X5729848Y-7755484D02*
X5748896Y-7755484D01*
X5748896Y-7755484D02*
X5767943Y-7765008D01*
X5767943Y-7765008D02*
X5777467Y-7774531D01*
X5777467Y-7774531D02*
X5786991Y-7793579D01*
X5786991Y-7793579D02*
X5796515Y-7831674D01*
X5796515Y-7831674D02*
X5796515Y-7879293D01*
X5796515Y-7879293D02*
X5786991Y-7917388D01*
X5786991Y-7917388D02*
X5777467Y-7936436D01*
X5777467Y-7936436D02*
X5767943Y-7945960D01*
X5767943Y-7945960D02*
X5748896Y-7955484D01*
X5748896Y-7955484D02*
X5729848Y-7955484D01*
X5729848Y-7955484D02*
X5710801Y-7945960D01*
X5710801Y-7945960D02*
X5701277Y-7936436D01*
X5701277Y-7936436D02*
X5691753Y-7917388D01*
X5691753Y-7917388D02*
X5682229Y-7879293D01*
X5682229Y-7879293D02*
X5682229Y-7831674D01*
X5682229Y-7831674D02*
X5691753Y-7793579D01*
X5691753Y-7793579D02*
X5701277Y-7774531D01*
X5701277Y-7774531D02*
X5710801Y-7765008D01*
X5710801Y-7765008D02*
X5729848Y-7755484D01*
X5920324Y-7755484D02*
X5939372Y-7755484D01*
X5939372Y-7755484D02*
X5958420Y-7765008D01*
X5958420Y-7765008D02*
X5967943Y-7774531D01*
X5967943Y-7774531D02*
X5977467Y-7793579D01*
X5977467Y-7793579D02*
X5986991Y-7831674D01*
X5986991Y-7831674D02*
X5986991Y-7879293D01*
X5986991Y-7879293D02*
X5977467Y-7917388D01*
X5977467Y-7917388D02*
X5967943Y-7936436D01*
X5967943Y-7936436D02*
X5958420Y-7945960D01*
X5958420Y-7945960D02*
X5939372Y-7955484D01*
X5939372Y-7955484D02*
X5920324Y-7955484D01*
X5920324Y-7955484D02*
X5901277Y-7945960D01*
X5901277Y-7945960D02*
X5891753Y-7936436D01*
X5891753Y-7936436D02*
X5882229Y-7917388D01*
X5882229Y-7917388D02*
X5872705Y-7879293D01*
X5872705Y-7879293D02*
X5872705Y-7831674D01*
X5872705Y-7831674D02*
X5882229Y-7793579D01*
X5882229Y-7793579D02*
X5891753Y-7774531D01*
X5891753Y-7774531D02*
X5901277Y-7765008D01*
X5901277Y-7765008D02*
X5920324Y-7755484D01*
X6167943Y-7755484D02*
X6072705Y-7755484D01*
X6072705Y-7755484D02*
X6063182Y-7850722D01*
X6063182Y-7850722D02*
X6072705Y-7841198D01*
X6072705Y-7841198D02*
X6091753Y-7831674D01*
X6091753Y-7831674D02*
X6139372Y-7831674D01*
X6139372Y-7831674D02*
X6158420Y-7841198D01*
X6158420Y-7841198D02*
X6167943Y-7850722D01*
X6167943Y-7850722D02*
X6177467Y-7869769D01*
X6177467Y-7869769D02*
X6177467Y-7917388D01*
X6177467Y-7917388D02*
X6167943Y-7936436D01*
X6167943Y-7936436D02*
X6158420Y-7945960D01*
X6158420Y-7945960D02*
X6139372Y-7955484D01*
X6139372Y-7955484D02*
X6091753Y-7955484D01*
X6091753Y-7955484D02*
X6072705Y-7945960D01*
X6072705Y-7945960D02*
X6063182Y-7936436D01*
X6272705Y-7955484D02*
X6310801Y-7955484D01*
X6310801Y-7955484D02*
X6329848Y-7945960D01*
X6329848Y-7945960D02*
X6339372Y-7936436D01*
X6339372Y-7936436D02*
X6358420Y-7907865D01*
X6358420Y-7907865D02*
X6367943Y-7869769D01*
X6367943Y-7869769D02*
X6367943Y-7793579D01*
X6367943Y-7793579D02*
X6358420Y-7774531D01*
X6358420Y-7774531D02*
X6348896Y-7765008D01*
X6348896Y-7765008D02*
X6329848Y-7755484D01*
X6329848Y-7755484D02*
X6291753Y-7755484D01*
X6291753Y-7755484D02*
X6272705Y-7765008D01*
X6272705Y-7765008D02*
X6263182Y-7774531D01*
X6263182Y-7774531D02*
X6253658Y-7793579D01*
X6253658Y-7793579D02*
X6253658Y-7841198D01*
X6253658Y-7841198D02*
X6263182Y-7860246D01*
X6263182Y-7860246D02*
X6272705Y-7869769D01*
X6272705Y-7869769D02*
X6291753Y-7879293D01*
X6291753Y-7879293D02*
X6329848Y-7879293D01*
X6329848Y-7879293D02*
X6348896Y-7869769D01*
X6348896Y-7869769D02*
X6358420Y-7860246D01*
X6358420Y-7860246D02*
X6367943Y-7841198D01*
X6444134Y-7755484D02*
X6444134Y-7793579D01*
X6520324Y-7755484D02*
X6520324Y-7793579D01*
X6815563Y-8031674D02*
X6806039Y-8022150D01*
X6806039Y-8022150D02*
X6786991Y-7993579D01*
X6786991Y-7993579D02*
X6777467Y-7974531D01*
X6777467Y-7974531D02*
X6767944Y-7945960D01*
X6767944Y-7945960D02*
X6758420Y-7898341D01*
X6758420Y-7898341D02*
X6758420Y-7860246D01*
X6758420Y-7860246D02*
X6767944Y-7812627D01*
X6767944Y-7812627D02*
X6777467Y-7784055D01*
X6777467Y-7784055D02*
X6786991Y-7765008D01*
X6786991Y-7765008D02*
X6806039Y-7736436D01*
X6806039Y-7736436D02*
X6815563Y-7726912D01*
X6996515Y-7955484D02*
X6882229Y-7955484D01*
X6939372Y-7955484D02*
X6939372Y-7755484D01*
X6939372Y-7755484D02*
X6920324Y-7784055D01*
X6920324Y-7784055D02*
X6901277Y-7803103D01*
X6901277Y-7803103D02*
X6882229Y-7812627D01*
X7186991Y-7955484D02*
X7072705Y-7955484D01*
X7129848Y-7955484D02*
X7129848Y-7755484D01*
X7129848Y-7755484D02*
X7110801Y-7784055D01*
X7110801Y-7784055D02*
X7091753Y-7803103D01*
X7091753Y-7803103D02*
X7072705Y-7812627D01*
X7425086Y-7955484D02*
X7425086Y-7755484D01*
X7510801Y-7955484D02*
X7510801Y-7850722D01*
X7510801Y-7850722D02*
X7501277Y-7831674D01*
X7501277Y-7831674D02*
X7482229Y-7822150D01*
X7482229Y-7822150D02*
X7453658Y-7822150D01*
X7453658Y-7822150D02*
X7434610Y-7831674D01*
X7434610Y-7831674D02*
X7425086Y-7841198D01*
X7634610Y-7955484D02*
X7615563Y-7945960D01*
X7615563Y-7945960D02*
X7606039Y-7936436D01*
X7606039Y-7936436D02*
X7596515Y-7917388D01*
X7596515Y-7917388D02*
X7596515Y-7860246D01*
X7596515Y-7860246D02*
X7606039Y-7841198D01*
X7606039Y-7841198D02*
X7615563Y-7831674D01*
X7615563Y-7831674D02*
X7634610Y-7822150D01*
X7634610Y-7822150D02*
X7663182Y-7822150D01*
X7663182Y-7822150D02*
X7682229Y-7831674D01*
X7682229Y-7831674D02*
X7691753Y-7841198D01*
X7691753Y-7841198D02*
X7701277Y-7860246D01*
X7701277Y-7860246D02*
X7701277Y-7917388D01*
X7701277Y-7917388D02*
X7691753Y-7936436D01*
X7691753Y-7936436D02*
X7682229Y-7945960D01*
X7682229Y-7945960D02*
X7663182Y-7955484D01*
X7663182Y-7955484D02*
X7634610Y-7955484D01*
X7815563Y-7955484D02*
X7796515Y-7945960D01*
X7796515Y-7945960D02*
X7786991Y-7926912D01*
X7786991Y-7926912D02*
X7786991Y-7755484D01*
X7967944Y-7945960D02*
X7948896Y-7955484D01*
X7948896Y-7955484D02*
X7910801Y-7955484D01*
X7910801Y-7955484D02*
X7891753Y-7945960D01*
X7891753Y-7945960D02*
X7882229Y-7926912D01*
X7882229Y-7926912D02*
X7882229Y-7850722D01*
X7882229Y-7850722D02*
X7891753Y-7831674D01*
X7891753Y-7831674D02*
X7910801Y-7822150D01*
X7910801Y-7822150D02*
X7948896Y-7822150D01*
X7948896Y-7822150D02*
X7967944Y-7831674D01*
X7967944Y-7831674D02*
X7977467Y-7850722D01*
X7977467Y-7850722D02*
X7977467Y-7869769D01*
X7977467Y-7869769D02*
X7882229Y-7888817D01*
X8053658Y-7945960D02*
X8072706Y-7955484D01*
X8072706Y-7955484D02*
X8110801Y-7955484D01*
X8110801Y-7955484D02*
X8129848Y-7945960D01*
X8129848Y-7945960D02*
X8139372Y-7926912D01*
X8139372Y-7926912D02*
X8139372Y-7917388D01*
X8139372Y-7917388D02*
X8129848Y-7898341D01*
X8129848Y-7898341D02*
X8110801Y-7888817D01*
X8110801Y-7888817D02*
X8082229Y-7888817D01*
X8082229Y-7888817D02*
X8063182Y-7879293D01*
X8063182Y-7879293D02*
X8053658Y-7860246D01*
X8053658Y-7860246D02*
X8053658Y-7850722D01*
X8053658Y-7850722D02*
X8063182Y-7831674D01*
X8063182Y-7831674D02*
X8082229Y-7822150D01*
X8082229Y-7822150D02*
X8110801Y-7822150D01*
X8110801Y-7822150D02*
X8129848Y-7831674D01*
X8206039Y-8031674D02*
X8215563Y-8022150D01*
X8215563Y-8022150D02*
X8234610Y-7993579D01*
X8234610Y-7993579D02*
X8244134Y-7974531D01*
X8244134Y-7974531D02*
X8253658Y-7945960D01*
X8253658Y-7945960D02*
X8263182Y-7898341D01*
X8263182Y-7898341D02*
X8263182Y-7860246D01*
X8263182Y-7860246D02*
X8253658Y-7812627D01*
X8253658Y-7812627D02*
X8244134Y-7784055D01*
X8244134Y-7784055D02*
X8234610Y-7765008D01*
X8234610Y-7765008D02*
X8215563Y-7736436D01*
X8215563Y-7736436D02*
X8206039Y-7726912D01*
D10*
X3240500Y-8128000D02*
G75*
G02*
X3215500Y-8128000I-12500J0D01*
G01*
X3215500Y-8128000D02*
G75*
G02*
X3240500Y-8128000I12500J0D01*
G01*
D11*
X3539372Y-8019484D02*
X3558419Y-8019484D01*
X3558419Y-8019484D02*
X3577467Y-8029008D01*
X3577467Y-8029008D02*
X3586991Y-8038531D01*
X3586991Y-8038531D02*
X3596515Y-8057579D01*
X3596515Y-8057579D02*
X3606038Y-8095674D01*
X3606038Y-8095674D02*
X3606038Y-8143293D01*
X3606038Y-8143293D02*
X3596515Y-8181388D01*
X3596515Y-8181388D02*
X3586991Y-8200436D01*
X3586991Y-8200436D02*
X3577467Y-8209960D01*
X3577467Y-8209960D02*
X3558419Y-8219484D01*
X3558419Y-8219484D02*
X3539372Y-8219484D01*
X3539372Y-8219484D02*
X3520324Y-8209960D01*
X3520324Y-8209960D02*
X3510800Y-8200436D01*
X3510800Y-8200436D02*
X3501277Y-8181388D01*
X3501277Y-8181388D02*
X3491753Y-8143293D01*
X3491753Y-8143293D02*
X3491753Y-8095674D01*
X3491753Y-8095674D02*
X3501277Y-8057579D01*
X3501277Y-8057579D02*
X3510800Y-8038531D01*
X3510800Y-8038531D02*
X3520324Y-8029008D01*
X3520324Y-8029008D02*
X3539372Y-8019484D01*
X3691753Y-8200436D02*
X3701277Y-8209960D01*
X3701277Y-8209960D02*
X3691753Y-8219484D01*
X3691753Y-8219484D02*
X3682229Y-8209960D01*
X3682229Y-8209960D02*
X3691753Y-8200436D01*
X3691753Y-8200436D02*
X3691753Y-8219484D01*
X3777467Y-8038531D02*
X3786991Y-8029008D01*
X3786991Y-8029008D02*
X3806038Y-8019484D01*
X3806038Y-8019484D02*
X3853658Y-8019484D01*
X3853658Y-8019484D02*
X3872705Y-8029008D01*
X3872705Y-8029008D02*
X3882229Y-8038531D01*
X3882229Y-8038531D02*
X3891753Y-8057579D01*
X3891753Y-8057579D02*
X3891753Y-8076627D01*
X3891753Y-8076627D02*
X3882229Y-8105198D01*
X3882229Y-8105198D02*
X3767943Y-8219484D01*
X3767943Y-8219484D02*
X3891753Y-8219484D01*
X4072705Y-8019484D02*
X3977467Y-8019484D01*
X3977467Y-8019484D02*
X3967943Y-8114722D01*
X3967943Y-8114722D02*
X3977467Y-8105198D01*
X3977467Y-8105198D02*
X3996515Y-8095674D01*
X3996515Y-8095674D02*
X4044134Y-8095674D01*
X4044134Y-8095674D02*
X4063181Y-8105198D01*
X4063181Y-8105198D02*
X4072705Y-8114722D01*
X4072705Y-8114722D02*
X4082229Y-8133769D01*
X4082229Y-8133769D02*
X4082229Y-8181388D01*
X4082229Y-8181388D02*
X4072705Y-8200436D01*
X4072705Y-8200436D02*
X4063181Y-8209960D01*
X4063181Y-8209960D02*
X4044134Y-8219484D01*
X4044134Y-8219484D02*
X3996515Y-8219484D01*
X3996515Y-8219484D02*
X3977467Y-8209960D01*
X3977467Y-8209960D02*
X3967943Y-8200436D01*
X4206039Y-8019484D02*
X4225086Y-8019484D01*
X4225086Y-8019484D02*
X4244134Y-8029008D01*
X4244134Y-8029008D02*
X4253658Y-8038531D01*
X4253658Y-8038531D02*
X4263181Y-8057579D01*
X4263181Y-8057579D02*
X4272705Y-8095674D01*
X4272705Y-8095674D02*
X4272705Y-8143293D01*
X4272705Y-8143293D02*
X4263181Y-8181388D01*
X4263181Y-8181388D02*
X4253658Y-8200436D01*
X4253658Y-8200436D02*
X4244134Y-8209960D01*
X4244134Y-8209960D02*
X4225086Y-8219484D01*
X4225086Y-8219484D02*
X4206039Y-8219484D01*
X4206039Y-8219484D02*
X4186991Y-8209960D01*
X4186991Y-8209960D02*
X4177467Y-8200436D01*
X4177467Y-8200436D02*
X4167943Y-8181388D01*
X4167943Y-8181388D02*
X4158419Y-8143293D01*
X4158419Y-8143293D02*
X4158419Y-8095674D01*
X4158419Y-8095674D02*
X4167943Y-8057579D01*
X4167943Y-8057579D02*
X4177467Y-8038531D01*
X4177467Y-8038531D02*
X4186991Y-8029008D01*
X4186991Y-8029008D02*
X4206039Y-8019484D01*
X4358420Y-8219484D02*
X4358420Y-8086150D01*
X4358420Y-8105198D02*
X4367943Y-8095674D01*
X4367943Y-8095674D02*
X4386991Y-8086150D01*
X4386991Y-8086150D02*
X4415562Y-8086150D01*
X4415562Y-8086150D02*
X4434610Y-8095674D01*
X4434610Y-8095674D02*
X4444134Y-8114722D01*
X4444134Y-8114722D02*
X4444134Y-8219484D01*
X4444134Y-8114722D02*
X4453658Y-8095674D01*
X4453658Y-8095674D02*
X4472705Y-8086150D01*
X4472705Y-8086150D02*
X4501277Y-8086150D01*
X4501277Y-8086150D02*
X4520324Y-8095674D01*
X4520324Y-8095674D02*
X4529848Y-8114722D01*
X4529848Y-8114722D02*
X4529848Y-8219484D01*
X4625086Y-8219484D02*
X4625086Y-8086150D01*
X4625086Y-8105198D02*
X4634610Y-8095674D01*
X4634610Y-8095674D02*
X4653658Y-8086150D01*
X4653658Y-8086150D02*
X4682229Y-8086150D01*
X4682229Y-8086150D02*
X4701277Y-8095674D01*
X4701277Y-8095674D02*
X4710801Y-8114722D01*
X4710801Y-8114722D02*
X4710801Y-8219484D01*
X4710801Y-8114722D02*
X4720324Y-8095674D01*
X4720324Y-8095674D02*
X4739372Y-8086150D01*
X4739372Y-8086150D02*
X4767943Y-8086150D01*
X4767943Y-8086150D02*
X4786991Y-8095674D01*
X4786991Y-8095674D02*
X4796515Y-8114722D01*
X4796515Y-8114722D02*
X4796515Y-8219484D01*
X5186991Y-8009960D02*
X5015563Y-8267103D01*
X5444134Y-8019484D02*
X5463182Y-8019484D01*
X5463182Y-8019484D02*
X5482229Y-8029008D01*
X5482229Y-8029008D02*
X5491753Y-8038531D01*
X5491753Y-8038531D02*
X5501277Y-8057579D01*
X5501277Y-8057579D02*
X5510801Y-8095674D01*
X5510801Y-8095674D02*
X5510801Y-8143293D01*
X5510801Y-8143293D02*
X5501277Y-8181388D01*
X5501277Y-8181388D02*
X5491753Y-8200436D01*
X5491753Y-8200436D02*
X5482229Y-8209960D01*
X5482229Y-8209960D02*
X5463182Y-8219484D01*
X5463182Y-8219484D02*
X5444134Y-8219484D01*
X5444134Y-8219484D02*
X5425086Y-8209960D01*
X5425086Y-8209960D02*
X5415563Y-8200436D01*
X5415563Y-8200436D02*
X5406039Y-8181388D01*
X5406039Y-8181388D02*
X5396515Y-8143293D01*
X5396515Y-8143293D02*
X5396515Y-8095674D01*
X5396515Y-8095674D02*
X5406039Y-8057579D01*
X5406039Y-8057579D02*
X5415563Y-8038531D01*
X5415563Y-8038531D02*
X5425086Y-8029008D01*
X5425086Y-8029008D02*
X5444134Y-8019484D01*
X5596515Y-8200436D02*
X5606039Y-8209960D01*
X5606039Y-8209960D02*
X5596515Y-8219484D01*
X5596515Y-8219484D02*
X5586991Y-8209960D01*
X5586991Y-8209960D02*
X5596515Y-8200436D01*
X5596515Y-8200436D02*
X5596515Y-8219484D01*
X5729848Y-8019484D02*
X5748896Y-8019484D01*
X5748896Y-8019484D02*
X5767943Y-8029008D01*
X5767943Y-8029008D02*
X5777467Y-8038531D01*
X5777467Y-8038531D02*
X5786991Y-8057579D01*
X5786991Y-8057579D02*
X5796515Y-8095674D01*
X5796515Y-8095674D02*
X5796515Y-8143293D01*
X5796515Y-8143293D02*
X5786991Y-8181388D01*
X5786991Y-8181388D02*
X5777467Y-8200436D01*
X5777467Y-8200436D02*
X5767943Y-8209960D01*
X5767943Y-8209960D02*
X5748896Y-8219484D01*
X5748896Y-8219484D02*
X5729848Y-8219484D01*
X5729848Y-8219484D02*
X5710801Y-8209960D01*
X5710801Y-8209960D02*
X5701277Y-8200436D01*
X5701277Y-8200436D02*
X5691753Y-8181388D01*
X5691753Y-8181388D02*
X5682229Y-8143293D01*
X5682229Y-8143293D02*
X5682229Y-8095674D01*
X5682229Y-8095674D02*
X5691753Y-8057579D01*
X5691753Y-8057579D02*
X5701277Y-8038531D01*
X5701277Y-8038531D02*
X5710801Y-8029008D01*
X5710801Y-8029008D02*
X5729848Y-8019484D01*
X5920324Y-8019484D02*
X5939372Y-8019484D01*
X5939372Y-8019484D02*
X5958420Y-8029008D01*
X5958420Y-8029008D02*
X5967943Y-8038531D01*
X5967943Y-8038531D02*
X5977467Y-8057579D01*
X5977467Y-8057579D02*
X5986991Y-8095674D01*
X5986991Y-8095674D02*
X5986991Y-8143293D01*
X5986991Y-8143293D02*
X5977467Y-8181388D01*
X5977467Y-8181388D02*
X5967943Y-8200436D01*
X5967943Y-8200436D02*
X5958420Y-8209960D01*
X5958420Y-8209960D02*
X5939372Y-8219484D01*
X5939372Y-8219484D02*
X5920324Y-8219484D01*
X5920324Y-8219484D02*
X5901277Y-8209960D01*
X5901277Y-8209960D02*
X5891753Y-8200436D01*
X5891753Y-8200436D02*
X5882229Y-8181388D01*
X5882229Y-8181388D02*
X5872705Y-8143293D01*
X5872705Y-8143293D02*
X5872705Y-8095674D01*
X5872705Y-8095674D02*
X5882229Y-8057579D01*
X5882229Y-8057579D02*
X5891753Y-8038531D01*
X5891753Y-8038531D02*
X5901277Y-8029008D01*
X5901277Y-8029008D02*
X5920324Y-8019484D01*
X6082229Y-8219484D02*
X6120324Y-8219484D01*
X6120324Y-8219484D02*
X6139372Y-8209960D01*
X6139372Y-8209960D02*
X6148896Y-8200436D01*
X6148896Y-8200436D02*
X6167943Y-8171865D01*
X6167943Y-8171865D02*
X6177467Y-8133769D01*
X6177467Y-8133769D02*
X6177467Y-8057579D01*
X6177467Y-8057579D02*
X6167943Y-8038531D01*
X6167943Y-8038531D02*
X6158420Y-8029008D01*
X6158420Y-8029008D02*
X6139372Y-8019484D01*
X6139372Y-8019484D02*
X6101277Y-8019484D01*
X6101277Y-8019484D02*
X6082229Y-8029008D01*
X6082229Y-8029008D02*
X6072705Y-8038531D01*
X6072705Y-8038531D02*
X6063182Y-8057579D01*
X6063182Y-8057579D02*
X6063182Y-8105198D01*
X6063182Y-8105198D02*
X6072705Y-8124246D01*
X6072705Y-8124246D02*
X6082229Y-8133769D01*
X6082229Y-8133769D02*
X6101277Y-8143293D01*
X6101277Y-8143293D02*
X6139372Y-8143293D01*
X6139372Y-8143293D02*
X6158420Y-8133769D01*
X6158420Y-8133769D02*
X6167943Y-8124246D01*
X6167943Y-8124246D02*
X6177467Y-8105198D01*
X6291753Y-8105198D02*
X6272705Y-8095674D01*
X6272705Y-8095674D02*
X6263182Y-8086150D01*
X6263182Y-8086150D02*
X6253658Y-8067103D01*
X6253658Y-8067103D02*
X6253658Y-8057579D01*
X6253658Y-8057579D02*
X6263182Y-8038531D01*
X6263182Y-8038531D02*
X6272705Y-8029008D01*
X6272705Y-8029008D02*
X6291753Y-8019484D01*
X6291753Y-8019484D02*
X6329848Y-8019484D01*
X6329848Y-8019484D02*
X6348896Y-8029008D01*
X6348896Y-8029008D02*
X6358420Y-8038531D01*
X6358420Y-8038531D02*
X6367943Y-8057579D01*
X6367943Y-8057579D02*
X6367943Y-8067103D01*
X6367943Y-8067103D02*
X6358420Y-8086150D01*
X6358420Y-8086150D02*
X6348896Y-8095674D01*
X6348896Y-8095674D02*
X6329848Y-8105198D01*
X6329848Y-8105198D02*
X6291753Y-8105198D01*
X6291753Y-8105198D02*
X6272705Y-8114722D01*
X6272705Y-8114722D02*
X6263182Y-8124246D01*
X6263182Y-8124246D02*
X6253658Y-8143293D01*
X6253658Y-8143293D02*
X6253658Y-8181388D01*
X6253658Y-8181388D02*
X6263182Y-8200436D01*
X6263182Y-8200436D02*
X6272705Y-8209960D01*
X6272705Y-8209960D02*
X6291753Y-8219484D01*
X6291753Y-8219484D02*
X6329848Y-8219484D01*
X6329848Y-8219484D02*
X6348896Y-8209960D01*
X6348896Y-8209960D02*
X6358420Y-8200436D01*
X6358420Y-8200436D02*
X6367943Y-8181388D01*
X6367943Y-8181388D02*
X6367943Y-8143293D01*
X6367943Y-8143293D02*
X6358420Y-8124246D01*
X6358420Y-8124246D02*
X6348896Y-8114722D01*
X6348896Y-8114722D02*
X6329848Y-8105198D01*
X6444134Y-8019484D02*
X6444134Y-8057579D01*
X6520324Y-8019484D02*
X6520324Y-8057579D01*
X6815563Y-8295674D02*
X6806039Y-8286150D01*
X6806039Y-8286150D02*
X6786991Y-8257579D01*
X6786991Y-8257579D02*
X6777467Y-8238531D01*
X6777467Y-8238531D02*
X6767944Y-8209960D01*
X6767944Y-8209960D02*
X6758420Y-8162341D01*
X6758420Y-8162341D02*
X6758420Y-8124246D01*
X6758420Y-8124246D02*
X6767944Y-8076627D01*
X6767944Y-8076627D02*
X6777467Y-8048055D01*
X6777467Y-8048055D02*
X6786991Y-8029008D01*
X6786991Y-8029008D02*
X6806039Y-8000436D01*
X6806039Y-8000436D02*
X6815563Y-7990912D01*
X6996515Y-8219484D02*
X6882229Y-8219484D01*
X6939372Y-8219484D02*
X6939372Y-8019484D01*
X6939372Y-8019484D02*
X6920324Y-8048055D01*
X6920324Y-8048055D02*
X6901277Y-8067103D01*
X6901277Y-8067103D02*
X6882229Y-8076627D01*
X7063182Y-8019484D02*
X7186991Y-8019484D01*
X7186991Y-8019484D02*
X7120324Y-8095674D01*
X7120324Y-8095674D02*
X7148896Y-8095674D01*
X7148896Y-8095674D02*
X7167944Y-8105198D01*
X7167944Y-8105198D02*
X7177467Y-8114722D01*
X7177467Y-8114722D02*
X7186991Y-8133769D01*
X7186991Y-8133769D02*
X7186991Y-8181388D01*
X7186991Y-8181388D02*
X7177467Y-8200436D01*
X7177467Y-8200436D02*
X7167944Y-8209960D01*
X7167944Y-8209960D02*
X7148896Y-8219484D01*
X7148896Y-8219484D02*
X7091753Y-8219484D01*
X7091753Y-8219484D02*
X7072705Y-8209960D01*
X7072705Y-8209960D02*
X7063182Y-8200436D01*
X7253658Y-8019484D02*
X7377467Y-8019484D01*
X7377467Y-8019484D02*
X7310801Y-8095674D01*
X7310801Y-8095674D02*
X7339372Y-8095674D01*
X7339372Y-8095674D02*
X7358420Y-8105198D01*
X7358420Y-8105198D02*
X7367944Y-8114722D01*
X7367944Y-8114722D02*
X7377467Y-8133769D01*
X7377467Y-8133769D02*
X7377467Y-8181388D01*
X7377467Y-8181388D02*
X7367944Y-8200436D01*
X7367944Y-8200436D02*
X7358420Y-8209960D01*
X7358420Y-8209960D02*
X7339372Y-8219484D01*
X7339372Y-8219484D02*
X7282229Y-8219484D01*
X7282229Y-8219484D02*
X7263182Y-8209960D01*
X7263182Y-8209960D02*
X7253658Y-8200436D01*
X7615563Y-8219484D02*
X7615563Y-8019484D01*
X7701277Y-8219484D02*
X7701277Y-8114722D01*
X7701277Y-8114722D02*
X7691753Y-8095674D01*
X7691753Y-8095674D02*
X7672706Y-8086150D01*
X7672706Y-8086150D02*
X7644134Y-8086150D01*
X7644134Y-8086150D02*
X7625086Y-8095674D01*
X7625086Y-8095674D02*
X7615563Y-8105198D01*
X7825086Y-8219484D02*
X7806039Y-8209960D01*
X7806039Y-8209960D02*
X7796515Y-8200436D01*
X7796515Y-8200436D02*
X7786991Y-8181388D01*
X7786991Y-8181388D02*
X7786991Y-8124246D01*
X7786991Y-8124246D02*
X7796515Y-8105198D01*
X7796515Y-8105198D02*
X7806039Y-8095674D01*
X7806039Y-8095674D02*
X7825086Y-8086150D01*
X7825086Y-8086150D02*
X7853658Y-8086150D01*
X7853658Y-8086150D02*
X7872706Y-8095674D01*
X7872706Y-8095674D02*
X7882229Y-8105198D01*
X7882229Y-8105198D02*
X7891753Y-8124246D01*
X7891753Y-8124246D02*
X7891753Y-8181388D01*
X7891753Y-8181388D02*
X7882229Y-8200436D01*
X7882229Y-8200436D02*
X7872706Y-8209960D01*
X7872706Y-8209960D02*
X7853658Y-8219484D01*
X7853658Y-8219484D02*
X7825086Y-8219484D01*
X8006039Y-8219484D02*
X7986991Y-8209960D01*
X7986991Y-8209960D02*
X7977467Y-8190912D01*
X7977467Y-8190912D02*
X7977467Y-8019484D01*
X8158420Y-8209960D02*
X8139372Y-8219484D01*
X8139372Y-8219484D02*
X8101277Y-8219484D01*
X8101277Y-8219484D02*
X8082229Y-8209960D01*
X8082229Y-8209960D02*
X8072706Y-8190912D01*
X8072706Y-8190912D02*
X8072706Y-8114722D01*
X8072706Y-8114722D02*
X8082229Y-8095674D01*
X8082229Y-8095674D02*
X8101277Y-8086150D01*
X8101277Y-8086150D02*
X8139372Y-8086150D01*
X8139372Y-8086150D02*
X8158420Y-8095674D01*
X8158420Y-8095674D02*
X8167944Y-8114722D01*
X8167944Y-8114722D02*
X8167944Y-8133769D01*
X8167944Y-8133769D02*
X8072706Y-8152817D01*
X8244134Y-8209960D02*
X8263182Y-8219484D01*
X8263182Y-8219484D02*
X8301277Y-8219484D01*
X8301277Y-8219484D02*
X8320325Y-8209960D01*
X8320325Y-8209960D02*
X8329848Y-8190912D01*
X8329848Y-8190912D02*
X8329848Y-8181388D01*
X8329848Y-8181388D02*
X8320325Y-8162341D01*
X8320325Y-8162341D02*
X8301277Y-8152817D01*
X8301277Y-8152817D02*
X8272706Y-8152817D01*
X8272706Y-8152817D02*
X8253658Y-8143293D01*
X8253658Y-8143293D02*
X8244134Y-8124246D01*
X8244134Y-8124246D02*
X8244134Y-8114722D01*
X8244134Y-8114722D02*
X8253658Y-8095674D01*
X8253658Y-8095674D02*
X8272706Y-8086150D01*
X8272706Y-8086150D02*
X8301277Y-8086150D01*
X8301277Y-8086150D02*
X8320325Y-8095674D01*
X8396515Y-8295674D02*
X8406039Y-8286150D01*
X8406039Y-8286150D02*
X8425087Y-8257579D01*
X8425087Y-8257579D02*
X8434610Y-8238531D01*
X8434610Y-8238531D02*
X8444134Y-8209960D01*
X8444134Y-8209960D02*
X8453658Y-8162341D01*
X8453658Y-8162341D02*
X8453658Y-8124246D01*
X8453658Y-8124246D02*
X8444134Y-8076627D01*
X8444134Y-8076627D02*
X8434610Y-8048055D01*
X8434610Y-8048055D02*
X8425087Y-8029008D01*
X8425087Y-8029008D02*
X8406039Y-8000436D01*
X8406039Y-8000436D02*
X8396515Y-7990912D01*
D10*
X3225500Y-8377000D02*
X3225500Y-8407000D01*
X3210500Y-8392000D02*
X3240500Y-8392000D01*
D11*
X3539372Y-8283484D02*
X3558419Y-8283484D01*
X3558419Y-8283484D02*
X3577467Y-8293008D01*
X3577467Y-8293008D02*
X3586991Y-8302531D01*
X3586991Y-8302531D02*
X3596515Y-8321579D01*
X3596515Y-8321579D02*
X3606038Y-8359674D01*
X3606038Y-8359674D02*
X3606038Y-8407293D01*
X3606038Y-8407293D02*
X3596515Y-8445389D01*
X3596515Y-8445389D02*
X3586991Y-8464436D01*
X3586991Y-8464436D02*
X3577467Y-8473960D01*
X3577467Y-8473960D02*
X3558419Y-8483484D01*
X3558419Y-8483484D02*
X3539372Y-8483484D01*
X3539372Y-8483484D02*
X3520324Y-8473960D01*
X3520324Y-8473960D02*
X3510800Y-8464436D01*
X3510800Y-8464436D02*
X3501277Y-8445389D01*
X3501277Y-8445389D02*
X3491753Y-8407293D01*
X3491753Y-8407293D02*
X3491753Y-8359674D01*
X3491753Y-8359674D02*
X3501277Y-8321579D01*
X3501277Y-8321579D02*
X3510800Y-8302531D01*
X3510800Y-8302531D02*
X3520324Y-8293008D01*
X3520324Y-8293008D02*
X3539372Y-8283484D01*
X3691753Y-8464436D02*
X3701277Y-8473960D01*
X3701277Y-8473960D02*
X3691753Y-8483484D01*
X3691753Y-8483484D02*
X3682229Y-8473960D01*
X3682229Y-8473960D02*
X3691753Y-8464436D01*
X3691753Y-8464436D02*
X3691753Y-8483484D01*
X3767943Y-8283484D02*
X3891753Y-8283484D01*
X3891753Y-8283484D02*
X3825086Y-8359674D01*
X3825086Y-8359674D02*
X3853658Y-8359674D01*
X3853658Y-8359674D02*
X3872705Y-8369198D01*
X3872705Y-8369198D02*
X3882229Y-8378722D01*
X3882229Y-8378722D02*
X3891753Y-8397770D01*
X3891753Y-8397770D02*
X3891753Y-8445389D01*
X3891753Y-8445389D02*
X3882229Y-8464436D01*
X3882229Y-8464436D02*
X3872705Y-8473960D01*
X3872705Y-8473960D02*
X3853658Y-8483484D01*
X3853658Y-8483484D02*
X3796515Y-8483484D01*
X3796515Y-8483484D02*
X3777467Y-8473960D01*
X3777467Y-8473960D02*
X3767943Y-8464436D01*
X4015562Y-8283484D02*
X4034610Y-8283484D01*
X4034610Y-8283484D02*
X4053658Y-8293008D01*
X4053658Y-8293008D02*
X4063181Y-8302531D01*
X4063181Y-8302531D02*
X4072705Y-8321579D01*
X4072705Y-8321579D02*
X4082229Y-8359674D01*
X4082229Y-8359674D02*
X4082229Y-8407293D01*
X4082229Y-8407293D02*
X4072705Y-8445389D01*
X4072705Y-8445389D02*
X4063181Y-8464436D01*
X4063181Y-8464436D02*
X4053658Y-8473960D01*
X4053658Y-8473960D02*
X4034610Y-8483484D01*
X4034610Y-8483484D02*
X4015562Y-8483484D01*
X4015562Y-8483484D02*
X3996515Y-8473960D01*
X3996515Y-8473960D02*
X3986991Y-8464436D01*
X3986991Y-8464436D02*
X3977467Y-8445389D01*
X3977467Y-8445389D02*
X3967943Y-8407293D01*
X3967943Y-8407293D02*
X3967943Y-8359674D01*
X3967943Y-8359674D02*
X3977467Y-8321579D01*
X3977467Y-8321579D02*
X3986991Y-8302531D01*
X3986991Y-8302531D02*
X3996515Y-8293008D01*
X3996515Y-8293008D02*
X4015562Y-8283484D01*
X4206039Y-8283484D02*
X4225086Y-8283484D01*
X4225086Y-8283484D02*
X4244134Y-8293008D01*
X4244134Y-8293008D02*
X4253658Y-8302531D01*
X4253658Y-8302531D02*
X4263181Y-8321579D01*
X4263181Y-8321579D02*
X4272705Y-8359674D01*
X4272705Y-8359674D02*
X4272705Y-8407293D01*
X4272705Y-8407293D02*
X4263181Y-8445389D01*
X4263181Y-8445389D02*
X4253658Y-8464436D01*
X4253658Y-8464436D02*
X4244134Y-8473960D01*
X4244134Y-8473960D02*
X4225086Y-8483484D01*
X4225086Y-8483484D02*
X4206039Y-8483484D01*
X4206039Y-8483484D02*
X4186991Y-8473960D01*
X4186991Y-8473960D02*
X4177467Y-8464436D01*
X4177467Y-8464436D02*
X4167943Y-8445389D01*
X4167943Y-8445389D02*
X4158419Y-8407293D01*
X4158419Y-8407293D02*
X4158419Y-8359674D01*
X4158419Y-8359674D02*
X4167943Y-8321579D01*
X4167943Y-8321579D02*
X4177467Y-8302531D01*
X4177467Y-8302531D02*
X4186991Y-8293008D01*
X4186991Y-8293008D02*
X4206039Y-8283484D01*
X4358420Y-8483484D02*
X4358420Y-8350150D01*
X4358420Y-8369198D02*
X4367943Y-8359674D01*
X4367943Y-8359674D02*
X4386991Y-8350150D01*
X4386991Y-8350150D02*
X4415562Y-8350150D01*
X4415562Y-8350150D02*
X4434610Y-8359674D01*
X4434610Y-8359674D02*
X4444134Y-8378722D01*
X4444134Y-8378722D02*
X4444134Y-8483484D01*
X4444134Y-8378722D02*
X4453658Y-8359674D01*
X4453658Y-8359674D02*
X4472705Y-8350150D01*
X4472705Y-8350150D02*
X4501277Y-8350150D01*
X4501277Y-8350150D02*
X4520324Y-8359674D01*
X4520324Y-8359674D02*
X4529848Y-8378722D01*
X4529848Y-8378722D02*
X4529848Y-8483484D01*
X4625086Y-8483484D02*
X4625086Y-8350150D01*
X4625086Y-8369198D02*
X4634610Y-8359674D01*
X4634610Y-8359674D02*
X4653658Y-8350150D01*
X4653658Y-8350150D02*
X4682229Y-8350150D01*
X4682229Y-8350150D02*
X4701277Y-8359674D01*
X4701277Y-8359674D02*
X4710801Y-8378722D01*
X4710801Y-8378722D02*
X4710801Y-8483484D01*
X4710801Y-8378722D02*
X4720324Y-8359674D01*
X4720324Y-8359674D02*
X4739372Y-8350150D01*
X4739372Y-8350150D02*
X4767943Y-8350150D01*
X4767943Y-8350150D02*
X4786991Y-8359674D01*
X4786991Y-8359674D02*
X4796515Y-8378722D01*
X4796515Y-8378722D02*
X4796515Y-8483484D01*
X5186991Y-8273960D02*
X5015563Y-8531103D01*
X5444134Y-8283484D02*
X5463182Y-8283484D01*
X5463182Y-8283484D02*
X5482229Y-8293008D01*
X5482229Y-8293008D02*
X5491753Y-8302531D01*
X5491753Y-8302531D02*
X5501277Y-8321579D01*
X5501277Y-8321579D02*
X5510801Y-8359674D01*
X5510801Y-8359674D02*
X5510801Y-8407293D01*
X5510801Y-8407293D02*
X5501277Y-8445389D01*
X5501277Y-8445389D02*
X5491753Y-8464436D01*
X5491753Y-8464436D02*
X5482229Y-8473960D01*
X5482229Y-8473960D02*
X5463182Y-8483484D01*
X5463182Y-8483484D02*
X5444134Y-8483484D01*
X5444134Y-8483484D02*
X5425086Y-8473960D01*
X5425086Y-8473960D02*
X5415563Y-8464436D01*
X5415563Y-8464436D02*
X5406039Y-8445389D01*
X5406039Y-8445389D02*
X5396515Y-8407293D01*
X5396515Y-8407293D02*
X5396515Y-8359674D01*
X5396515Y-8359674D02*
X5406039Y-8321579D01*
X5406039Y-8321579D02*
X5415563Y-8302531D01*
X5415563Y-8302531D02*
X5425086Y-8293008D01*
X5425086Y-8293008D02*
X5444134Y-8283484D01*
X5596515Y-8464436D02*
X5606039Y-8473960D01*
X5606039Y-8473960D02*
X5596515Y-8483484D01*
X5596515Y-8483484D02*
X5586991Y-8473960D01*
X5586991Y-8473960D02*
X5596515Y-8464436D01*
X5596515Y-8464436D02*
X5596515Y-8483484D01*
X5729848Y-8283484D02*
X5748896Y-8283484D01*
X5748896Y-8283484D02*
X5767943Y-8293008D01*
X5767943Y-8293008D02*
X5777467Y-8302531D01*
X5777467Y-8302531D02*
X5786991Y-8321579D01*
X5786991Y-8321579D02*
X5796515Y-8359674D01*
X5796515Y-8359674D02*
X5796515Y-8407293D01*
X5796515Y-8407293D02*
X5786991Y-8445389D01*
X5786991Y-8445389D02*
X5777467Y-8464436D01*
X5777467Y-8464436D02*
X5767943Y-8473960D01*
X5767943Y-8473960D02*
X5748896Y-8483484D01*
X5748896Y-8483484D02*
X5729848Y-8483484D01*
X5729848Y-8483484D02*
X5710801Y-8473960D01*
X5710801Y-8473960D02*
X5701277Y-8464436D01*
X5701277Y-8464436D02*
X5691753Y-8445389D01*
X5691753Y-8445389D02*
X5682229Y-8407293D01*
X5682229Y-8407293D02*
X5682229Y-8359674D01*
X5682229Y-8359674D02*
X5691753Y-8321579D01*
X5691753Y-8321579D02*
X5701277Y-8302531D01*
X5701277Y-8302531D02*
X5710801Y-8293008D01*
X5710801Y-8293008D02*
X5729848Y-8283484D01*
X5986991Y-8483484D02*
X5872705Y-8483484D01*
X5929848Y-8483484D02*
X5929848Y-8283484D01*
X5929848Y-8283484D02*
X5910801Y-8312055D01*
X5910801Y-8312055D02*
X5891753Y-8331103D01*
X5891753Y-8331103D02*
X5872705Y-8340627D01*
X6177467Y-8483484D02*
X6063182Y-8483484D01*
X6120324Y-8483484D02*
X6120324Y-8283484D01*
X6120324Y-8283484D02*
X6101277Y-8312055D01*
X6101277Y-8312055D02*
X6082229Y-8331103D01*
X6082229Y-8331103D02*
X6063182Y-8340627D01*
X6291753Y-8369198D02*
X6272705Y-8359674D01*
X6272705Y-8359674D02*
X6263182Y-8350150D01*
X6263182Y-8350150D02*
X6253658Y-8331103D01*
X6253658Y-8331103D02*
X6253658Y-8321579D01*
X6253658Y-8321579D02*
X6263182Y-8302531D01*
X6263182Y-8302531D02*
X6272705Y-8293008D01*
X6272705Y-8293008D02*
X6291753Y-8283484D01*
X6291753Y-8283484D02*
X6329848Y-8283484D01*
X6329848Y-8283484D02*
X6348896Y-8293008D01*
X6348896Y-8293008D02*
X6358420Y-8302531D01*
X6358420Y-8302531D02*
X6367943Y-8321579D01*
X6367943Y-8321579D02*
X6367943Y-8331103D01*
X6367943Y-8331103D02*
X6358420Y-8350150D01*
X6358420Y-8350150D02*
X6348896Y-8359674D01*
X6348896Y-8359674D02*
X6329848Y-8369198D01*
X6329848Y-8369198D02*
X6291753Y-8369198D01*
X6291753Y-8369198D02*
X6272705Y-8378722D01*
X6272705Y-8378722D02*
X6263182Y-8388246D01*
X6263182Y-8388246D02*
X6253658Y-8407293D01*
X6253658Y-8407293D02*
X6253658Y-8445389D01*
X6253658Y-8445389D02*
X6263182Y-8464436D01*
X6263182Y-8464436D02*
X6272705Y-8473960D01*
X6272705Y-8473960D02*
X6291753Y-8483484D01*
X6291753Y-8483484D02*
X6329848Y-8483484D01*
X6329848Y-8483484D02*
X6348896Y-8473960D01*
X6348896Y-8473960D02*
X6358420Y-8464436D01*
X6358420Y-8464436D02*
X6367943Y-8445389D01*
X6367943Y-8445389D02*
X6367943Y-8407293D01*
X6367943Y-8407293D02*
X6358420Y-8388246D01*
X6358420Y-8388246D02*
X6348896Y-8378722D01*
X6348896Y-8378722D02*
X6329848Y-8369198D01*
X6444134Y-8283484D02*
X6444134Y-8321579D01*
X6520324Y-8283484D02*
X6520324Y-8321579D01*
X6815563Y-8559674D02*
X6806039Y-8550150D01*
X6806039Y-8550150D02*
X6786991Y-8521579D01*
X6786991Y-8521579D02*
X6777467Y-8502531D01*
X6777467Y-8502531D02*
X6767944Y-8473960D01*
X6767944Y-8473960D02*
X6758420Y-8426341D01*
X6758420Y-8426341D02*
X6758420Y-8388246D01*
X6758420Y-8388246D02*
X6767944Y-8340627D01*
X6767944Y-8340627D02*
X6777467Y-8312055D01*
X6777467Y-8312055D02*
X6786991Y-8293008D01*
X6786991Y-8293008D02*
X6806039Y-8264436D01*
X6806039Y-8264436D02*
X6815563Y-8254912D01*
X6872705Y-8283484D02*
X6996515Y-8283484D01*
X6996515Y-8283484D02*
X6929848Y-8359674D01*
X6929848Y-8359674D02*
X6958420Y-8359674D01*
X6958420Y-8359674D02*
X6977467Y-8369198D01*
X6977467Y-8369198D02*
X6986991Y-8378722D01*
X6986991Y-8378722D02*
X6996515Y-8397770D01*
X6996515Y-8397770D02*
X6996515Y-8445389D01*
X6996515Y-8445389D02*
X6986991Y-8464436D01*
X6986991Y-8464436D02*
X6977467Y-8473960D01*
X6977467Y-8473960D02*
X6958420Y-8483484D01*
X6958420Y-8483484D02*
X6901277Y-8483484D01*
X6901277Y-8483484D02*
X6882229Y-8473960D01*
X6882229Y-8473960D02*
X6872705Y-8464436D01*
X7234610Y-8483484D02*
X7234610Y-8283484D01*
X7320325Y-8483484D02*
X7320325Y-8378722D01*
X7320325Y-8378722D02*
X7310801Y-8359674D01*
X7310801Y-8359674D02*
X7291753Y-8350150D01*
X7291753Y-8350150D02*
X7263182Y-8350150D01*
X7263182Y-8350150D02*
X7244134Y-8359674D01*
X7244134Y-8359674D02*
X7234610Y-8369198D01*
X7444134Y-8483484D02*
X7425086Y-8473960D01*
X7425086Y-8473960D02*
X7415563Y-8464436D01*
X7415563Y-8464436D02*
X7406039Y-8445389D01*
X7406039Y-8445389D02*
X7406039Y-8388246D01*
X7406039Y-8388246D02*
X7415563Y-8369198D01*
X7415563Y-8369198D02*
X7425086Y-8359674D01*
X7425086Y-8359674D02*
X7444134Y-8350150D01*
X7444134Y-8350150D02*
X7472706Y-8350150D01*
X7472706Y-8350150D02*
X7491753Y-8359674D01*
X7491753Y-8359674D02*
X7501277Y-8369198D01*
X7501277Y-8369198D02*
X7510801Y-8388246D01*
X7510801Y-8388246D02*
X7510801Y-8445389D01*
X7510801Y-8445389D02*
X7501277Y-8464436D01*
X7501277Y-8464436D02*
X7491753Y-8473960D01*
X7491753Y-8473960D02*
X7472706Y-8483484D01*
X7472706Y-8483484D02*
X7444134Y-8483484D01*
X7625086Y-8483484D02*
X7606039Y-8473960D01*
X7606039Y-8473960D02*
X7596515Y-8454912D01*
X7596515Y-8454912D02*
X7596515Y-8283484D01*
X7777467Y-8473960D02*
X7758420Y-8483484D01*
X7758420Y-8483484D02*
X7720325Y-8483484D01*
X7720325Y-8483484D02*
X7701277Y-8473960D01*
X7701277Y-8473960D02*
X7691753Y-8454912D01*
X7691753Y-8454912D02*
X7691753Y-8378722D01*
X7691753Y-8378722D02*
X7701277Y-8359674D01*
X7701277Y-8359674D02*
X7720325Y-8350150D01*
X7720325Y-8350150D02*
X7758420Y-8350150D01*
X7758420Y-8350150D02*
X7777467Y-8359674D01*
X7777467Y-8359674D02*
X7786991Y-8378722D01*
X7786991Y-8378722D02*
X7786991Y-8397770D01*
X7786991Y-8397770D02*
X7691753Y-8416817D01*
X7863182Y-8473960D02*
X7882229Y-8483484D01*
X7882229Y-8483484D02*
X7920325Y-8483484D01*
X7920325Y-8483484D02*
X7939372Y-8473960D01*
X7939372Y-8473960D02*
X7948896Y-8454912D01*
X7948896Y-8454912D02*
X7948896Y-8445389D01*
X7948896Y-8445389D02*
X7939372Y-8426341D01*
X7939372Y-8426341D02*
X7920325Y-8416817D01*
X7920325Y-8416817D02*
X7891753Y-8416817D01*
X7891753Y-8416817D02*
X7872706Y-8407293D01*
X7872706Y-8407293D02*
X7863182Y-8388246D01*
X7863182Y-8388246D02*
X7863182Y-8378722D01*
X7863182Y-8378722D02*
X7872706Y-8359674D01*
X7872706Y-8359674D02*
X7891753Y-8350150D01*
X7891753Y-8350150D02*
X7920325Y-8350150D01*
X7920325Y-8350150D02*
X7939372Y-8359674D01*
X8015563Y-8559674D02*
X8025087Y-8550150D01*
X8025087Y-8550150D02*
X8044134Y-8521579D01*
X8044134Y-8521579D02*
X8053658Y-8502531D01*
X8053658Y-8502531D02*
X8063182Y-8473960D01*
X8063182Y-8473960D02*
X8072706Y-8426341D01*
X8072706Y-8426341D02*
X8072706Y-8388246D01*
X8072706Y-8388246D02*
X8063182Y-8340627D01*
X8063182Y-8340627D02*
X8053658Y-8312055D01*
X8053658Y-8312055D02*
X8044134Y-8293008D01*
X8044134Y-8293008D02*
X8025087Y-8264436D01*
X8025087Y-8264436D02*
X8015563Y-8254912D01*
D10*
X3236106Y-8666607D02*
X3236106Y-8645393D01*
X3214893Y-8645393D01*
X3214893Y-8666607D01*
X3236106Y-8666607D01*
D11*
X3539372Y-8547484D02*
X3558419Y-8547484D01*
X3558419Y-8547484D02*
X3577467Y-8557008D01*
X3577467Y-8557008D02*
X3586991Y-8566531D01*
X3586991Y-8566531D02*
X3596515Y-8585579D01*
X3596515Y-8585579D02*
X3606038Y-8623674D01*
X3606038Y-8623674D02*
X3606038Y-8671293D01*
X3606038Y-8671293D02*
X3596515Y-8709389D01*
X3596515Y-8709389D02*
X3586991Y-8728436D01*
X3586991Y-8728436D02*
X3577467Y-8737960D01*
X3577467Y-8737960D02*
X3558419Y-8747484D01*
X3558419Y-8747484D02*
X3539372Y-8747484D01*
X3539372Y-8747484D02*
X3520324Y-8737960D01*
X3520324Y-8737960D02*
X3510800Y-8728436D01*
X3510800Y-8728436D02*
X3501277Y-8709389D01*
X3501277Y-8709389D02*
X3491753Y-8671293D01*
X3491753Y-8671293D02*
X3491753Y-8623674D01*
X3491753Y-8623674D02*
X3501277Y-8585579D01*
X3501277Y-8585579D02*
X3510800Y-8566531D01*
X3510800Y-8566531D02*
X3520324Y-8557008D01*
X3520324Y-8557008D02*
X3539372Y-8547484D01*
X3691753Y-8728436D02*
X3701277Y-8737960D01*
X3701277Y-8737960D02*
X3691753Y-8747484D01*
X3691753Y-8747484D02*
X3682229Y-8737960D01*
X3682229Y-8737960D02*
X3691753Y-8728436D01*
X3691753Y-8728436D02*
X3691753Y-8747484D01*
X3767943Y-8547484D02*
X3891753Y-8547484D01*
X3891753Y-8547484D02*
X3825086Y-8623674D01*
X3825086Y-8623674D02*
X3853658Y-8623674D01*
X3853658Y-8623674D02*
X3872705Y-8633198D01*
X3872705Y-8633198D02*
X3882229Y-8642722D01*
X3882229Y-8642722D02*
X3891753Y-8661770D01*
X3891753Y-8661770D02*
X3891753Y-8709389D01*
X3891753Y-8709389D02*
X3882229Y-8728436D01*
X3882229Y-8728436D02*
X3872705Y-8737960D01*
X3872705Y-8737960D02*
X3853658Y-8747484D01*
X3853658Y-8747484D02*
X3796515Y-8747484D01*
X3796515Y-8747484D02*
X3777467Y-8737960D01*
X3777467Y-8737960D02*
X3767943Y-8728436D01*
X4015562Y-8547484D02*
X4034610Y-8547484D01*
X4034610Y-8547484D02*
X4053658Y-8557008D01*
X4053658Y-8557008D02*
X4063181Y-8566531D01*
X4063181Y-8566531D02*
X4072705Y-8585579D01*
X4072705Y-8585579D02*
X4082229Y-8623674D01*
X4082229Y-8623674D02*
X4082229Y-8671293D01*
X4082229Y-8671293D02*
X4072705Y-8709389D01*
X4072705Y-8709389D02*
X4063181Y-8728436D01*
X4063181Y-8728436D02*
X4053658Y-8737960D01*
X4053658Y-8737960D02*
X4034610Y-8747484D01*
X4034610Y-8747484D02*
X4015562Y-8747484D01*
X4015562Y-8747484D02*
X3996515Y-8737960D01*
X3996515Y-8737960D02*
X3986991Y-8728436D01*
X3986991Y-8728436D02*
X3977467Y-8709389D01*
X3977467Y-8709389D02*
X3967943Y-8671293D01*
X3967943Y-8671293D02*
X3967943Y-8623674D01*
X3967943Y-8623674D02*
X3977467Y-8585579D01*
X3977467Y-8585579D02*
X3986991Y-8566531D01*
X3986991Y-8566531D02*
X3996515Y-8557008D01*
X3996515Y-8557008D02*
X4015562Y-8547484D01*
X4206039Y-8547484D02*
X4225086Y-8547484D01*
X4225086Y-8547484D02*
X4244134Y-8557008D01*
X4244134Y-8557008D02*
X4253658Y-8566531D01*
X4253658Y-8566531D02*
X4263181Y-8585579D01*
X4263181Y-8585579D02*
X4272705Y-8623674D01*
X4272705Y-8623674D02*
X4272705Y-8671293D01*
X4272705Y-8671293D02*
X4263181Y-8709389D01*
X4263181Y-8709389D02*
X4253658Y-8728436D01*
X4253658Y-8728436D02*
X4244134Y-8737960D01*
X4244134Y-8737960D02*
X4225086Y-8747484D01*
X4225086Y-8747484D02*
X4206039Y-8747484D01*
X4206039Y-8747484D02*
X4186991Y-8737960D01*
X4186991Y-8737960D02*
X4177467Y-8728436D01*
X4177467Y-8728436D02*
X4167943Y-8709389D01*
X4167943Y-8709389D02*
X4158419Y-8671293D01*
X4158419Y-8671293D02*
X4158419Y-8623674D01*
X4158419Y-8623674D02*
X4167943Y-8585579D01*
X4167943Y-8585579D02*
X4177467Y-8566531D01*
X4177467Y-8566531D02*
X4186991Y-8557008D01*
X4186991Y-8557008D02*
X4206039Y-8547484D01*
X4358420Y-8747484D02*
X4358420Y-8614150D01*
X4358420Y-8633198D02*
X4367943Y-8623674D01*
X4367943Y-8623674D02*
X4386991Y-8614150D01*
X4386991Y-8614150D02*
X4415562Y-8614150D01*
X4415562Y-8614150D02*
X4434610Y-8623674D01*
X4434610Y-8623674D02*
X4444134Y-8642722D01*
X4444134Y-8642722D02*
X4444134Y-8747484D01*
X4444134Y-8642722D02*
X4453658Y-8623674D01*
X4453658Y-8623674D02*
X4472705Y-8614150D01*
X4472705Y-8614150D02*
X4501277Y-8614150D01*
X4501277Y-8614150D02*
X4520324Y-8623674D01*
X4520324Y-8623674D02*
X4529848Y-8642722D01*
X4529848Y-8642722D02*
X4529848Y-8747484D01*
X4625086Y-8747484D02*
X4625086Y-8614150D01*
X4625086Y-8633198D02*
X4634610Y-8623674D01*
X4634610Y-8623674D02*
X4653658Y-8614150D01*
X4653658Y-8614150D02*
X4682229Y-8614150D01*
X4682229Y-8614150D02*
X4701277Y-8623674D01*
X4701277Y-8623674D02*
X4710801Y-8642722D01*
X4710801Y-8642722D02*
X4710801Y-8747484D01*
X4710801Y-8642722D02*
X4720324Y-8623674D01*
X4720324Y-8623674D02*
X4739372Y-8614150D01*
X4739372Y-8614150D02*
X4767943Y-8614150D01*
X4767943Y-8614150D02*
X4786991Y-8623674D01*
X4786991Y-8623674D02*
X4796515Y-8642722D01*
X4796515Y-8642722D02*
X4796515Y-8747484D01*
X5186991Y-8537960D02*
X5015563Y-8795103D01*
X5444134Y-8547484D02*
X5463182Y-8547484D01*
X5463182Y-8547484D02*
X5482229Y-8557008D01*
X5482229Y-8557008D02*
X5491753Y-8566531D01*
X5491753Y-8566531D02*
X5501277Y-8585579D01*
X5501277Y-8585579D02*
X5510801Y-8623674D01*
X5510801Y-8623674D02*
X5510801Y-8671293D01*
X5510801Y-8671293D02*
X5501277Y-8709389D01*
X5501277Y-8709389D02*
X5491753Y-8728436D01*
X5491753Y-8728436D02*
X5482229Y-8737960D01*
X5482229Y-8737960D02*
X5463182Y-8747484D01*
X5463182Y-8747484D02*
X5444134Y-8747484D01*
X5444134Y-8747484D02*
X5425086Y-8737960D01*
X5425086Y-8737960D02*
X5415563Y-8728436D01*
X5415563Y-8728436D02*
X5406039Y-8709389D01*
X5406039Y-8709389D02*
X5396515Y-8671293D01*
X5396515Y-8671293D02*
X5396515Y-8623674D01*
X5396515Y-8623674D02*
X5406039Y-8585579D01*
X5406039Y-8585579D02*
X5415563Y-8566531D01*
X5415563Y-8566531D02*
X5425086Y-8557008D01*
X5425086Y-8557008D02*
X5444134Y-8547484D01*
X5596515Y-8728436D02*
X5606039Y-8737960D01*
X5606039Y-8737960D02*
X5596515Y-8747484D01*
X5596515Y-8747484D02*
X5586991Y-8737960D01*
X5586991Y-8737960D02*
X5596515Y-8728436D01*
X5596515Y-8728436D02*
X5596515Y-8747484D01*
X5729848Y-8547484D02*
X5748896Y-8547484D01*
X5748896Y-8547484D02*
X5767943Y-8557008D01*
X5767943Y-8557008D02*
X5777467Y-8566531D01*
X5777467Y-8566531D02*
X5786991Y-8585579D01*
X5786991Y-8585579D02*
X5796515Y-8623674D01*
X5796515Y-8623674D02*
X5796515Y-8671293D01*
X5796515Y-8671293D02*
X5786991Y-8709389D01*
X5786991Y-8709389D02*
X5777467Y-8728436D01*
X5777467Y-8728436D02*
X5767943Y-8737960D01*
X5767943Y-8737960D02*
X5748896Y-8747484D01*
X5748896Y-8747484D02*
X5729848Y-8747484D01*
X5729848Y-8747484D02*
X5710801Y-8737960D01*
X5710801Y-8737960D02*
X5701277Y-8728436D01*
X5701277Y-8728436D02*
X5691753Y-8709389D01*
X5691753Y-8709389D02*
X5682229Y-8671293D01*
X5682229Y-8671293D02*
X5682229Y-8623674D01*
X5682229Y-8623674D02*
X5691753Y-8585579D01*
X5691753Y-8585579D02*
X5701277Y-8566531D01*
X5701277Y-8566531D02*
X5710801Y-8557008D01*
X5710801Y-8557008D02*
X5729848Y-8547484D01*
X5986991Y-8747484D02*
X5872705Y-8747484D01*
X5929848Y-8747484D02*
X5929848Y-8547484D01*
X5929848Y-8547484D02*
X5910801Y-8576055D01*
X5910801Y-8576055D02*
X5891753Y-8595103D01*
X5891753Y-8595103D02*
X5872705Y-8604627D01*
X6177467Y-8747484D02*
X6063182Y-8747484D01*
X6120324Y-8747484D02*
X6120324Y-8547484D01*
X6120324Y-8547484D02*
X6101277Y-8576055D01*
X6101277Y-8576055D02*
X6082229Y-8595103D01*
X6082229Y-8595103D02*
X6063182Y-8604627D01*
X6291753Y-8633198D02*
X6272705Y-8623674D01*
X6272705Y-8623674D02*
X6263182Y-8614150D01*
X6263182Y-8614150D02*
X6253658Y-8595103D01*
X6253658Y-8595103D02*
X6253658Y-8585579D01*
X6253658Y-8585579D02*
X6263182Y-8566531D01*
X6263182Y-8566531D02*
X6272705Y-8557008D01*
X6272705Y-8557008D02*
X6291753Y-8547484D01*
X6291753Y-8547484D02*
X6329848Y-8547484D01*
X6329848Y-8547484D02*
X6348896Y-8557008D01*
X6348896Y-8557008D02*
X6358420Y-8566531D01*
X6358420Y-8566531D02*
X6367943Y-8585579D01*
X6367943Y-8585579D02*
X6367943Y-8595103D01*
X6367943Y-8595103D02*
X6358420Y-8614150D01*
X6358420Y-8614150D02*
X6348896Y-8623674D01*
X6348896Y-8623674D02*
X6329848Y-8633198D01*
X6329848Y-8633198D02*
X6291753Y-8633198D01*
X6291753Y-8633198D02*
X6272705Y-8642722D01*
X6272705Y-8642722D02*
X6263182Y-8652246D01*
X6263182Y-8652246D02*
X6253658Y-8671293D01*
X6253658Y-8671293D02*
X6253658Y-8709389D01*
X6253658Y-8709389D02*
X6263182Y-8728436D01*
X6263182Y-8728436D02*
X6272705Y-8737960D01*
X6272705Y-8737960D02*
X6291753Y-8747484D01*
X6291753Y-8747484D02*
X6329848Y-8747484D01*
X6329848Y-8747484D02*
X6348896Y-8737960D01*
X6348896Y-8737960D02*
X6358420Y-8728436D01*
X6358420Y-8728436D02*
X6367943Y-8709389D01*
X6367943Y-8709389D02*
X6367943Y-8671293D01*
X6367943Y-8671293D02*
X6358420Y-8652246D01*
X6358420Y-8652246D02*
X6348896Y-8642722D01*
X6348896Y-8642722D02*
X6329848Y-8633198D01*
X6444134Y-8547484D02*
X6444134Y-8585579D01*
X6520324Y-8547484D02*
X6520324Y-8585579D01*
X6815563Y-8823674D02*
X6806039Y-8814150D01*
X6806039Y-8814150D02*
X6786991Y-8785579D01*
X6786991Y-8785579D02*
X6777467Y-8766531D01*
X6777467Y-8766531D02*
X6767944Y-8737960D01*
X6767944Y-8737960D02*
X6758420Y-8690341D01*
X6758420Y-8690341D02*
X6758420Y-8652246D01*
X6758420Y-8652246D02*
X6767944Y-8604627D01*
X6767944Y-8604627D02*
X6777467Y-8576055D01*
X6777467Y-8576055D02*
X6786991Y-8557008D01*
X6786991Y-8557008D02*
X6806039Y-8528436D01*
X6806039Y-8528436D02*
X6815563Y-8518912D01*
X6920324Y-8633198D02*
X6901277Y-8623674D01*
X6901277Y-8623674D02*
X6891753Y-8614150D01*
X6891753Y-8614150D02*
X6882229Y-8595103D01*
X6882229Y-8595103D02*
X6882229Y-8585579D01*
X6882229Y-8585579D02*
X6891753Y-8566531D01*
X6891753Y-8566531D02*
X6901277Y-8557008D01*
X6901277Y-8557008D02*
X6920324Y-8547484D01*
X6920324Y-8547484D02*
X6958420Y-8547484D01*
X6958420Y-8547484D02*
X6977467Y-8557008D01*
X6977467Y-8557008D02*
X6986991Y-8566531D01*
X6986991Y-8566531D02*
X6996515Y-8585579D01*
X6996515Y-8585579D02*
X6996515Y-8595103D01*
X6996515Y-8595103D02*
X6986991Y-8614150D01*
X6986991Y-8614150D02*
X6977467Y-8623674D01*
X6977467Y-8623674D02*
X6958420Y-8633198D01*
X6958420Y-8633198D02*
X6920324Y-8633198D01*
X6920324Y-8633198D02*
X6901277Y-8642722D01*
X6901277Y-8642722D02*
X6891753Y-8652246D01*
X6891753Y-8652246D02*
X6882229Y-8671293D01*
X6882229Y-8671293D02*
X6882229Y-8709389D01*
X6882229Y-8709389D02*
X6891753Y-8728436D01*
X6891753Y-8728436D02*
X6901277Y-8737960D01*
X6901277Y-8737960D02*
X6920324Y-8747484D01*
X6920324Y-8747484D02*
X6958420Y-8747484D01*
X6958420Y-8747484D02*
X6977467Y-8737960D01*
X6977467Y-8737960D02*
X6986991Y-8728436D01*
X6986991Y-8728436D02*
X6996515Y-8709389D01*
X6996515Y-8709389D02*
X6996515Y-8671293D01*
X6996515Y-8671293D02*
X6986991Y-8652246D01*
X6986991Y-8652246D02*
X6977467Y-8642722D01*
X6977467Y-8642722D02*
X6958420Y-8633198D01*
X7234610Y-8747484D02*
X7234610Y-8547484D01*
X7320325Y-8747484D02*
X7320325Y-8642722D01*
X7320325Y-8642722D02*
X7310801Y-8623674D01*
X7310801Y-8623674D02*
X7291753Y-8614150D01*
X7291753Y-8614150D02*
X7263182Y-8614150D01*
X7263182Y-8614150D02*
X7244134Y-8623674D01*
X7244134Y-8623674D02*
X7234610Y-8633198D01*
X7444134Y-8747484D02*
X7425086Y-8737960D01*
X7425086Y-8737960D02*
X7415563Y-8728436D01*
X7415563Y-8728436D02*
X7406039Y-8709389D01*
X7406039Y-8709389D02*
X7406039Y-8652246D01*
X7406039Y-8652246D02*
X7415563Y-8633198D01*
X7415563Y-8633198D02*
X7425086Y-8623674D01*
X7425086Y-8623674D02*
X7444134Y-8614150D01*
X7444134Y-8614150D02*
X7472706Y-8614150D01*
X7472706Y-8614150D02*
X7491753Y-8623674D01*
X7491753Y-8623674D02*
X7501277Y-8633198D01*
X7501277Y-8633198D02*
X7510801Y-8652246D01*
X7510801Y-8652246D02*
X7510801Y-8709389D01*
X7510801Y-8709389D02*
X7501277Y-8728436D01*
X7501277Y-8728436D02*
X7491753Y-8737960D01*
X7491753Y-8737960D02*
X7472706Y-8747484D01*
X7472706Y-8747484D02*
X7444134Y-8747484D01*
X7625086Y-8747484D02*
X7606039Y-8737960D01*
X7606039Y-8737960D02*
X7596515Y-8718912D01*
X7596515Y-8718912D02*
X7596515Y-8547484D01*
X7777467Y-8737960D02*
X7758420Y-8747484D01*
X7758420Y-8747484D02*
X7720325Y-8747484D01*
X7720325Y-8747484D02*
X7701277Y-8737960D01*
X7701277Y-8737960D02*
X7691753Y-8718912D01*
X7691753Y-8718912D02*
X7691753Y-8642722D01*
X7691753Y-8642722D02*
X7701277Y-8623674D01*
X7701277Y-8623674D02*
X7720325Y-8614150D01*
X7720325Y-8614150D02*
X7758420Y-8614150D01*
X7758420Y-8614150D02*
X7777467Y-8623674D01*
X7777467Y-8623674D02*
X7786991Y-8642722D01*
X7786991Y-8642722D02*
X7786991Y-8661770D01*
X7786991Y-8661770D02*
X7691753Y-8680817D01*
X7863182Y-8737960D02*
X7882229Y-8747484D01*
X7882229Y-8747484D02*
X7920325Y-8747484D01*
X7920325Y-8747484D02*
X7939372Y-8737960D01*
X7939372Y-8737960D02*
X7948896Y-8718912D01*
X7948896Y-8718912D02*
X7948896Y-8709389D01*
X7948896Y-8709389D02*
X7939372Y-8690341D01*
X7939372Y-8690341D02*
X7920325Y-8680817D01*
X7920325Y-8680817D02*
X7891753Y-8680817D01*
X7891753Y-8680817D02*
X7872706Y-8671293D01*
X7872706Y-8671293D02*
X7863182Y-8652246D01*
X7863182Y-8652246D02*
X7863182Y-8642722D01*
X7863182Y-8642722D02*
X7872706Y-8623674D01*
X7872706Y-8623674D02*
X7891753Y-8614150D01*
X7891753Y-8614150D02*
X7920325Y-8614150D01*
X7920325Y-8614150D02*
X7939372Y-8623674D01*
X8015563Y-8823674D02*
X8025087Y-8814150D01*
X8025087Y-8814150D02*
X8044134Y-8785579D01*
X8044134Y-8785579D02*
X8053658Y-8766531D01*
X8053658Y-8766531D02*
X8063182Y-8737960D01*
X8063182Y-8737960D02*
X8072706Y-8690341D01*
X8072706Y-8690341D02*
X8072706Y-8652246D01*
X8072706Y-8652246D02*
X8063182Y-8604627D01*
X8063182Y-8604627D02*
X8053658Y-8576055D01*
X8053658Y-8576055D02*
X8044134Y-8557008D01*
X8044134Y-8557008D02*
X8025087Y-8528436D01*
X8025087Y-8528436D02*
X8015563Y-8518912D01*
D10*
X3220500Y-8940000D02*
X3240500Y-8920000D01*
X3220500Y-8900000D01*
X3200500Y-8920000D01*
X3220500Y-8940000D01*
D11*
X3539372Y-8811484D02*
X3558419Y-8811484D01*
X3558419Y-8811484D02*
X3577467Y-8821008D01*
X3577467Y-8821008D02*
X3586991Y-8830531D01*
X3586991Y-8830531D02*
X3596515Y-8849579D01*
X3596515Y-8849579D02*
X3606038Y-8887674D01*
X3606038Y-8887674D02*
X3606038Y-8935293D01*
X3606038Y-8935293D02*
X3596515Y-8973389D01*
X3596515Y-8973389D02*
X3586991Y-8992436D01*
X3586991Y-8992436D02*
X3577467Y-9001960D01*
X3577467Y-9001960D02*
X3558419Y-9011484D01*
X3558419Y-9011484D02*
X3539372Y-9011484D01*
X3539372Y-9011484D02*
X3520324Y-9001960D01*
X3520324Y-9001960D02*
X3510800Y-8992436D01*
X3510800Y-8992436D02*
X3501277Y-8973389D01*
X3501277Y-8973389D02*
X3491753Y-8935293D01*
X3491753Y-8935293D02*
X3491753Y-8887674D01*
X3491753Y-8887674D02*
X3501277Y-8849579D01*
X3501277Y-8849579D02*
X3510800Y-8830531D01*
X3510800Y-8830531D02*
X3520324Y-8821008D01*
X3520324Y-8821008D02*
X3539372Y-8811484D01*
X3691753Y-8992436D02*
X3701277Y-9001960D01*
X3701277Y-9001960D02*
X3691753Y-9011484D01*
X3691753Y-9011484D02*
X3682229Y-9001960D01*
X3682229Y-9001960D02*
X3691753Y-8992436D01*
X3691753Y-8992436D02*
X3691753Y-9011484D01*
X3872705Y-8878150D02*
X3872705Y-9011484D01*
X3825086Y-8801960D02*
X3777467Y-8944817D01*
X3777467Y-8944817D02*
X3901277Y-8944817D01*
X4015562Y-8811484D02*
X4034610Y-8811484D01*
X4034610Y-8811484D02*
X4053658Y-8821008D01*
X4053658Y-8821008D02*
X4063181Y-8830531D01*
X4063181Y-8830531D02*
X4072705Y-8849579D01*
X4072705Y-8849579D02*
X4082229Y-8887674D01*
X4082229Y-8887674D02*
X4082229Y-8935293D01*
X4082229Y-8935293D02*
X4072705Y-8973389D01*
X4072705Y-8973389D02*
X4063181Y-8992436D01*
X4063181Y-8992436D02*
X4053658Y-9001960D01*
X4053658Y-9001960D02*
X4034610Y-9011484D01*
X4034610Y-9011484D02*
X4015562Y-9011484D01*
X4015562Y-9011484D02*
X3996515Y-9001960D01*
X3996515Y-9001960D02*
X3986991Y-8992436D01*
X3986991Y-8992436D02*
X3977467Y-8973389D01*
X3977467Y-8973389D02*
X3967943Y-8935293D01*
X3967943Y-8935293D02*
X3967943Y-8887674D01*
X3967943Y-8887674D02*
X3977467Y-8849579D01*
X3977467Y-8849579D02*
X3986991Y-8830531D01*
X3986991Y-8830531D02*
X3996515Y-8821008D01*
X3996515Y-8821008D02*
X4015562Y-8811484D01*
X4206039Y-8811484D02*
X4225086Y-8811484D01*
X4225086Y-8811484D02*
X4244134Y-8821008D01*
X4244134Y-8821008D02*
X4253658Y-8830531D01*
X4253658Y-8830531D02*
X4263181Y-8849579D01*
X4263181Y-8849579D02*
X4272705Y-8887674D01*
X4272705Y-8887674D02*
X4272705Y-8935293D01*
X4272705Y-8935293D02*
X4263181Y-8973389D01*
X4263181Y-8973389D02*
X4253658Y-8992436D01*
X4253658Y-8992436D02*
X4244134Y-9001960D01*
X4244134Y-9001960D02*
X4225086Y-9011484D01*
X4225086Y-9011484D02*
X4206039Y-9011484D01*
X4206039Y-9011484D02*
X4186991Y-9001960D01*
X4186991Y-9001960D02*
X4177467Y-8992436D01*
X4177467Y-8992436D02*
X4167943Y-8973389D01*
X4167943Y-8973389D02*
X4158419Y-8935293D01*
X4158419Y-8935293D02*
X4158419Y-8887674D01*
X4158419Y-8887674D02*
X4167943Y-8849579D01*
X4167943Y-8849579D02*
X4177467Y-8830531D01*
X4177467Y-8830531D02*
X4186991Y-8821008D01*
X4186991Y-8821008D02*
X4206039Y-8811484D01*
X4358420Y-9011484D02*
X4358420Y-8878150D01*
X4358420Y-8897198D02*
X4367943Y-8887674D01*
X4367943Y-8887674D02*
X4386991Y-8878150D01*
X4386991Y-8878150D02*
X4415562Y-8878150D01*
X4415562Y-8878150D02*
X4434610Y-8887674D01*
X4434610Y-8887674D02*
X4444134Y-8906722D01*
X4444134Y-8906722D02*
X4444134Y-9011484D01*
X4444134Y-8906722D02*
X4453658Y-8887674D01*
X4453658Y-8887674D02*
X4472705Y-8878150D01*
X4472705Y-8878150D02*
X4501277Y-8878150D01*
X4501277Y-8878150D02*
X4520324Y-8887674D01*
X4520324Y-8887674D02*
X4529848Y-8906722D01*
X4529848Y-8906722D02*
X4529848Y-9011484D01*
X4625086Y-9011484D02*
X4625086Y-8878150D01*
X4625086Y-8897198D02*
X4634610Y-8887674D01*
X4634610Y-8887674D02*
X4653658Y-8878150D01*
X4653658Y-8878150D02*
X4682229Y-8878150D01*
X4682229Y-8878150D02*
X4701277Y-8887674D01*
X4701277Y-8887674D02*
X4710801Y-8906722D01*
X4710801Y-8906722D02*
X4710801Y-9011484D01*
X4710801Y-8906722D02*
X4720324Y-8887674D01*
X4720324Y-8887674D02*
X4739372Y-8878150D01*
X4739372Y-8878150D02*
X4767943Y-8878150D01*
X4767943Y-8878150D02*
X4786991Y-8887674D01*
X4786991Y-8887674D02*
X4796515Y-8906722D01*
X4796515Y-8906722D02*
X4796515Y-9011484D01*
X5186991Y-8801960D02*
X5015563Y-9059103D01*
X5444134Y-8811484D02*
X5463182Y-8811484D01*
X5463182Y-8811484D02*
X5482229Y-8821008D01*
X5482229Y-8821008D02*
X5491753Y-8830531D01*
X5491753Y-8830531D02*
X5501277Y-8849579D01*
X5501277Y-8849579D02*
X5510801Y-8887674D01*
X5510801Y-8887674D02*
X5510801Y-8935293D01*
X5510801Y-8935293D02*
X5501277Y-8973389D01*
X5501277Y-8973389D02*
X5491753Y-8992436D01*
X5491753Y-8992436D02*
X5482229Y-9001960D01*
X5482229Y-9001960D02*
X5463182Y-9011484D01*
X5463182Y-9011484D02*
X5444134Y-9011484D01*
X5444134Y-9011484D02*
X5425086Y-9001960D01*
X5425086Y-9001960D02*
X5415563Y-8992436D01*
X5415563Y-8992436D02*
X5406039Y-8973389D01*
X5406039Y-8973389D02*
X5396515Y-8935293D01*
X5396515Y-8935293D02*
X5396515Y-8887674D01*
X5396515Y-8887674D02*
X5406039Y-8849579D01*
X5406039Y-8849579D02*
X5415563Y-8830531D01*
X5415563Y-8830531D02*
X5425086Y-8821008D01*
X5425086Y-8821008D02*
X5444134Y-8811484D01*
X5596515Y-8992436D02*
X5606039Y-9001960D01*
X5606039Y-9001960D02*
X5596515Y-9011484D01*
X5596515Y-9011484D02*
X5586991Y-9001960D01*
X5586991Y-9001960D02*
X5596515Y-8992436D01*
X5596515Y-8992436D02*
X5596515Y-9011484D01*
X5729848Y-8811484D02*
X5748896Y-8811484D01*
X5748896Y-8811484D02*
X5767943Y-8821008D01*
X5767943Y-8821008D02*
X5777467Y-8830531D01*
X5777467Y-8830531D02*
X5786991Y-8849579D01*
X5786991Y-8849579D02*
X5796515Y-8887674D01*
X5796515Y-8887674D02*
X5796515Y-8935293D01*
X5796515Y-8935293D02*
X5786991Y-8973389D01*
X5786991Y-8973389D02*
X5777467Y-8992436D01*
X5777467Y-8992436D02*
X5767943Y-9001960D01*
X5767943Y-9001960D02*
X5748896Y-9011484D01*
X5748896Y-9011484D02*
X5729848Y-9011484D01*
X5729848Y-9011484D02*
X5710801Y-9001960D01*
X5710801Y-9001960D02*
X5701277Y-8992436D01*
X5701277Y-8992436D02*
X5691753Y-8973389D01*
X5691753Y-8973389D02*
X5682229Y-8935293D01*
X5682229Y-8935293D02*
X5682229Y-8887674D01*
X5682229Y-8887674D02*
X5691753Y-8849579D01*
X5691753Y-8849579D02*
X5701277Y-8830531D01*
X5701277Y-8830531D02*
X5710801Y-8821008D01*
X5710801Y-8821008D02*
X5729848Y-8811484D01*
X5986991Y-9011484D02*
X5872705Y-9011484D01*
X5929848Y-9011484D02*
X5929848Y-8811484D01*
X5929848Y-8811484D02*
X5910801Y-8840055D01*
X5910801Y-8840055D02*
X5891753Y-8859103D01*
X5891753Y-8859103D02*
X5872705Y-8868627D01*
X6167943Y-8811484D02*
X6072705Y-8811484D01*
X6072705Y-8811484D02*
X6063182Y-8906722D01*
X6063182Y-8906722D02*
X6072705Y-8897198D01*
X6072705Y-8897198D02*
X6091753Y-8887674D01*
X6091753Y-8887674D02*
X6139372Y-8887674D01*
X6139372Y-8887674D02*
X6158420Y-8897198D01*
X6158420Y-8897198D02*
X6167943Y-8906722D01*
X6167943Y-8906722D02*
X6177467Y-8925770D01*
X6177467Y-8925770D02*
X6177467Y-8973389D01*
X6177467Y-8973389D02*
X6167943Y-8992436D01*
X6167943Y-8992436D02*
X6158420Y-9001960D01*
X6158420Y-9001960D02*
X6139372Y-9011484D01*
X6139372Y-9011484D02*
X6091753Y-9011484D01*
X6091753Y-9011484D02*
X6072705Y-9001960D01*
X6072705Y-9001960D02*
X6063182Y-8992436D01*
X6244134Y-8811484D02*
X6377467Y-8811484D01*
X6377467Y-8811484D02*
X6291753Y-9011484D01*
X6444134Y-8811484D02*
X6444134Y-8849579D01*
X6520324Y-8811484D02*
X6520324Y-8849579D01*
X6815563Y-9087674D02*
X6806039Y-9078150D01*
X6806039Y-9078150D02*
X6786991Y-9049579D01*
X6786991Y-9049579D02*
X6777467Y-9030531D01*
X6777467Y-9030531D02*
X6767944Y-9001960D01*
X6767944Y-9001960D02*
X6758420Y-8954341D01*
X6758420Y-8954341D02*
X6758420Y-8916246D01*
X6758420Y-8916246D02*
X6767944Y-8868627D01*
X6767944Y-8868627D02*
X6777467Y-8840055D01*
X6777467Y-8840055D02*
X6786991Y-8821008D01*
X6786991Y-8821008D02*
X6806039Y-8792436D01*
X6806039Y-8792436D02*
X6815563Y-8782912D01*
X6872705Y-8811484D02*
X7006039Y-8811484D01*
X7006039Y-8811484D02*
X6920324Y-9011484D01*
X7234610Y-9011484D02*
X7234610Y-8811484D01*
X7320325Y-9011484D02*
X7320325Y-8906722D01*
X7320325Y-8906722D02*
X7310801Y-8887674D01*
X7310801Y-8887674D02*
X7291753Y-8878150D01*
X7291753Y-8878150D02*
X7263182Y-8878150D01*
X7263182Y-8878150D02*
X7244134Y-8887674D01*
X7244134Y-8887674D02*
X7234610Y-8897198D01*
X7444134Y-9011484D02*
X7425086Y-9001960D01*
X7425086Y-9001960D02*
X7415563Y-8992436D01*
X7415563Y-8992436D02*
X7406039Y-8973389D01*
X7406039Y-8973389D02*
X7406039Y-8916246D01*
X7406039Y-8916246D02*
X7415563Y-8897198D01*
X7415563Y-8897198D02*
X7425086Y-8887674D01*
X7425086Y-8887674D02*
X7444134Y-8878150D01*
X7444134Y-8878150D02*
X7472706Y-8878150D01*
X7472706Y-8878150D02*
X7491753Y-8887674D01*
X7491753Y-8887674D02*
X7501277Y-8897198D01*
X7501277Y-8897198D02*
X7510801Y-8916246D01*
X7510801Y-8916246D02*
X7510801Y-8973389D01*
X7510801Y-8973389D02*
X7501277Y-8992436D01*
X7501277Y-8992436D02*
X7491753Y-9001960D01*
X7491753Y-9001960D02*
X7472706Y-9011484D01*
X7472706Y-9011484D02*
X7444134Y-9011484D01*
X7625086Y-9011484D02*
X7606039Y-9001960D01*
X7606039Y-9001960D02*
X7596515Y-8982912D01*
X7596515Y-8982912D02*
X7596515Y-8811484D01*
X7777467Y-9001960D02*
X7758420Y-9011484D01*
X7758420Y-9011484D02*
X7720325Y-9011484D01*
X7720325Y-9011484D02*
X7701277Y-9001960D01*
X7701277Y-9001960D02*
X7691753Y-8982912D01*
X7691753Y-8982912D02*
X7691753Y-8906722D01*
X7691753Y-8906722D02*
X7701277Y-8887674D01*
X7701277Y-8887674D02*
X7720325Y-8878150D01*
X7720325Y-8878150D02*
X7758420Y-8878150D01*
X7758420Y-8878150D02*
X7777467Y-8887674D01*
X7777467Y-8887674D02*
X7786991Y-8906722D01*
X7786991Y-8906722D02*
X7786991Y-8925770D01*
X7786991Y-8925770D02*
X7691753Y-8944817D01*
X7863182Y-9001960D02*
X7882229Y-9011484D01*
X7882229Y-9011484D02*
X7920325Y-9011484D01*
X7920325Y-9011484D02*
X7939372Y-9001960D01*
X7939372Y-9001960D02*
X7948896Y-8982912D01*
X7948896Y-8982912D02*
X7948896Y-8973389D01*
X7948896Y-8973389D02*
X7939372Y-8954341D01*
X7939372Y-8954341D02*
X7920325Y-8944817D01*
X7920325Y-8944817D02*
X7891753Y-8944817D01*
X7891753Y-8944817D02*
X7872706Y-8935293D01*
X7872706Y-8935293D02*
X7863182Y-8916246D01*
X7863182Y-8916246D02*
X7863182Y-8906722D01*
X7863182Y-8906722D02*
X7872706Y-8887674D01*
X7872706Y-8887674D02*
X7891753Y-8878150D01*
X7891753Y-8878150D02*
X7920325Y-8878150D01*
X7920325Y-8878150D02*
X7939372Y-8887674D01*
X8015563Y-9087674D02*
X8025087Y-9078150D01*
X8025087Y-9078150D02*
X8044134Y-9049579D01*
X8044134Y-9049579D02*
X8053658Y-9030531D01*
X8053658Y-9030531D02*
X8063182Y-9001960D01*
X8063182Y-9001960D02*
X8072706Y-8954341D01*
X8072706Y-8954341D02*
X8072706Y-8916246D01*
X8072706Y-8916246D02*
X8063182Y-8868627D01*
X8063182Y-8868627D02*
X8053658Y-8840055D01*
X8053658Y-8840055D02*
X8044134Y-8821008D01*
X8044134Y-8821008D02*
X8025087Y-8792436D01*
X8025087Y-8792436D02*
X8015563Y-8782912D01*
D10*
X3190500Y-9159000D02*
X3240500Y-9209000D01*
X3240500Y-9159000D02*
X3190500Y-9209000D01*
X3240500Y-9184000D02*
G75*
G02*
X3190500Y-9184000I-25000J0D01*
G01*
X3190500Y-9184000D02*
G75*
G02*
X3240500Y-9184000I25000J0D01*
G01*
D11*
X3539372Y-9075484D02*
X3558419Y-9075484D01*
X3558419Y-9075484D02*
X3577467Y-9085008D01*
X3577467Y-9085008D02*
X3586991Y-9094531D01*
X3586991Y-9094531D02*
X3596515Y-9113579D01*
X3596515Y-9113579D02*
X3606038Y-9151674D01*
X3606038Y-9151674D02*
X3606038Y-9199293D01*
X3606038Y-9199293D02*
X3596515Y-9237389D01*
X3596515Y-9237389D02*
X3586991Y-9256436D01*
X3586991Y-9256436D02*
X3577467Y-9265960D01*
X3577467Y-9265960D02*
X3558419Y-9275484D01*
X3558419Y-9275484D02*
X3539372Y-9275484D01*
X3539372Y-9275484D02*
X3520324Y-9265960D01*
X3520324Y-9265960D02*
X3510800Y-9256436D01*
X3510800Y-9256436D02*
X3501277Y-9237389D01*
X3501277Y-9237389D02*
X3491753Y-9199293D01*
X3491753Y-9199293D02*
X3491753Y-9151674D01*
X3491753Y-9151674D02*
X3501277Y-9113579D01*
X3501277Y-9113579D02*
X3510800Y-9094531D01*
X3510800Y-9094531D02*
X3520324Y-9085008D01*
X3520324Y-9085008D02*
X3539372Y-9075484D01*
X3691753Y-9256436D02*
X3701277Y-9265960D01*
X3701277Y-9265960D02*
X3691753Y-9275484D01*
X3691753Y-9275484D02*
X3682229Y-9265960D01*
X3682229Y-9265960D02*
X3691753Y-9256436D01*
X3691753Y-9256436D02*
X3691753Y-9275484D01*
X3882229Y-9075484D02*
X3786991Y-9075484D01*
X3786991Y-9075484D02*
X3777467Y-9170722D01*
X3777467Y-9170722D02*
X3786991Y-9161198D01*
X3786991Y-9161198D02*
X3806038Y-9151674D01*
X3806038Y-9151674D02*
X3853658Y-9151674D01*
X3853658Y-9151674D02*
X3872705Y-9161198D01*
X3872705Y-9161198D02*
X3882229Y-9170722D01*
X3882229Y-9170722D02*
X3891753Y-9189770D01*
X3891753Y-9189770D02*
X3891753Y-9237389D01*
X3891753Y-9237389D02*
X3882229Y-9256436D01*
X3882229Y-9256436D02*
X3872705Y-9265960D01*
X3872705Y-9265960D02*
X3853658Y-9275484D01*
X3853658Y-9275484D02*
X3806038Y-9275484D01*
X3806038Y-9275484D02*
X3786991Y-9265960D01*
X3786991Y-9265960D02*
X3777467Y-9256436D01*
X4015562Y-9075484D02*
X4034610Y-9075484D01*
X4034610Y-9075484D02*
X4053658Y-9085008D01*
X4053658Y-9085008D02*
X4063181Y-9094531D01*
X4063181Y-9094531D02*
X4072705Y-9113579D01*
X4072705Y-9113579D02*
X4082229Y-9151674D01*
X4082229Y-9151674D02*
X4082229Y-9199293D01*
X4082229Y-9199293D02*
X4072705Y-9237389D01*
X4072705Y-9237389D02*
X4063181Y-9256436D01*
X4063181Y-9256436D02*
X4053658Y-9265960D01*
X4053658Y-9265960D02*
X4034610Y-9275484D01*
X4034610Y-9275484D02*
X4015562Y-9275484D01*
X4015562Y-9275484D02*
X3996515Y-9265960D01*
X3996515Y-9265960D02*
X3986991Y-9256436D01*
X3986991Y-9256436D02*
X3977467Y-9237389D01*
X3977467Y-9237389D02*
X3967943Y-9199293D01*
X3967943Y-9199293D02*
X3967943Y-9151674D01*
X3967943Y-9151674D02*
X3977467Y-9113579D01*
X3977467Y-9113579D02*
X3986991Y-9094531D01*
X3986991Y-9094531D02*
X3996515Y-9085008D01*
X3996515Y-9085008D02*
X4015562Y-9075484D01*
X4206039Y-9075484D02*
X4225086Y-9075484D01*
X4225086Y-9075484D02*
X4244134Y-9085008D01*
X4244134Y-9085008D02*
X4253658Y-9094531D01*
X4253658Y-9094531D02*
X4263181Y-9113579D01*
X4263181Y-9113579D02*
X4272705Y-9151674D01*
X4272705Y-9151674D02*
X4272705Y-9199293D01*
X4272705Y-9199293D02*
X4263181Y-9237389D01*
X4263181Y-9237389D02*
X4253658Y-9256436D01*
X4253658Y-9256436D02*
X4244134Y-9265960D01*
X4244134Y-9265960D02*
X4225086Y-9275484D01*
X4225086Y-9275484D02*
X4206039Y-9275484D01*
X4206039Y-9275484D02*
X4186991Y-9265960D01*
X4186991Y-9265960D02*
X4177467Y-9256436D01*
X4177467Y-9256436D02*
X4167943Y-9237389D01*
X4167943Y-9237389D02*
X4158419Y-9199293D01*
X4158419Y-9199293D02*
X4158419Y-9151674D01*
X4158419Y-9151674D02*
X4167943Y-9113579D01*
X4167943Y-9113579D02*
X4177467Y-9094531D01*
X4177467Y-9094531D02*
X4186991Y-9085008D01*
X4186991Y-9085008D02*
X4206039Y-9075484D01*
X4358420Y-9275484D02*
X4358420Y-9142150D01*
X4358420Y-9161198D02*
X4367943Y-9151674D01*
X4367943Y-9151674D02*
X4386991Y-9142150D01*
X4386991Y-9142150D02*
X4415562Y-9142150D01*
X4415562Y-9142150D02*
X4434610Y-9151674D01*
X4434610Y-9151674D02*
X4444134Y-9170722D01*
X4444134Y-9170722D02*
X4444134Y-9275484D01*
X4444134Y-9170722D02*
X4453658Y-9151674D01*
X4453658Y-9151674D02*
X4472705Y-9142150D01*
X4472705Y-9142150D02*
X4501277Y-9142150D01*
X4501277Y-9142150D02*
X4520324Y-9151674D01*
X4520324Y-9151674D02*
X4529848Y-9170722D01*
X4529848Y-9170722D02*
X4529848Y-9275484D01*
X4625086Y-9275484D02*
X4625086Y-9142150D01*
X4625086Y-9161198D02*
X4634610Y-9151674D01*
X4634610Y-9151674D02*
X4653658Y-9142150D01*
X4653658Y-9142150D02*
X4682229Y-9142150D01*
X4682229Y-9142150D02*
X4701277Y-9151674D01*
X4701277Y-9151674D02*
X4710801Y-9170722D01*
X4710801Y-9170722D02*
X4710801Y-9275484D01*
X4710801Y-9170722D02*
X4720324Y-9151674D01*
X4720324Y-9151674D02*
X4739372Y-9142150D01*
X4739372Y-9142150D02*
X4767943Y-9142150D01*
X4767943Y-9142150D02*
X4786991Y-9151674D01*
X4786991Y-9151674D02*
X4796515Y-9170722D01*
X4796515Y-9170722D02*
X4796515Y-9275484D01*
X5186991Y-9065960D02*
X5015563Y-9323103D01*
X5444134Y-9075484D02*
X5463182Y-9075484D01*
X5463182Y-9075484D02*
X5482229Y-9085008D01*
X5482229Y-9085008D02*
X5491753Y-9094531D01*
X5491753Y-9094531D02*
X5501277Y-9113579D01*
X5501277Y-9113579D02*
X5510801Y-9151674D01*
X5510801Y-9151674D02*
X5510801Y-9199293D01*
X5510801Y-9199293D02*
X5501277Y-9237389D01*
X5501277Y-9237389D02*
X5491753Y-9256436D01*
X5491753Y-9256436D02*
X5482229Y-9265960D01*
X5482229Y-9265960D02*
X5463182Y-9275484D01*
X5463182Y-9275484D02*
X5444134Y-9275484D01*
X5444134Y-9275484D02*
X5425086Y-9265960D01*
X5425086Y-9265960D02*
X5415563Y-9256436D01*
X5415563Y-9256436D02*
X5406039Y-9237389D01*
X5406039Y-9237389D02*
X5396515Y-9199293D01*
X5396515Y-9199293D02*
X5396515Y-9151674D01*
X5396515Y-9151674D02*
X5406039Y-9113579D01*
X5406039Y-9113579D02*
X5415563Y-9094531D01*
X5415563Y-9094531D02*
X5425086Y-9085008D01*
X5425086Y-9085008D02*
X5444134Y-9075484D01*
X5596515Y-9256436D02*
X5606039Y-9265960D01*
X5606039Y-9265960D02*
X5596515Y-9275484D01*
X5596515Y-9275484D02*
X5586991Y-9265960D01*
X5586991Y-9265960D02*
X5596515Y-9256436D01*
X5596515Y-9256436D02*
X5596515Y-9275484D01*
X5729848Y-9075484D02*
X5748896Y-9075484D01*
X5748896Y-9075484D02*
X5767943Y-9085008D01*
X5767943Y-9085008D02*
X5777467Y-9094531D01*
X5777467Y-9094531D02*
X5786991Y-9113579D01*
X5786991Y-9113579D02*
X5796515Y-9151674D01*
X5796515Y-9151674D02*
X5796515Y-9199293D01*
X5796515Y-9199293D02*
X5786991Y-9237389D01*
X5786991Y-9237389D02*
X5777467Y-9256436D01*
X5777467Y-9256436D02*
X5767943Y-9265960D01*
X5767943Y-9265960D02*
X5748896Y-9275484D01*
X5748896Y-9275484D02*
X5729848Y-9275484D01*
X5729848Y-9275484D02*
X5710801Y-9265960D01*
X5710801Y-9265960D02*
X5701277Y-9256436D01*
X5701277Y-9256436D02*
X5691753Y-9237389D01*
X5691753Y-9237389D02*
X5682229Y-9199293D01*
X5682229Y-9199293D02*
X5682229Y-9151674D01*
X5682229Y-9151674D02*
X5691753Y-9113579D01*
X5691753Y-9113579D02*
X5701277Y-9094531D01*
X5701277Y-9094531D02*
X5710801Y-9085008D01*
X5710801Y-9085008D02*
X5729848Y-9075484D01*
X5986991Y-9275484D02*
X5872705Y-9275484D01*
X5929848Y-9275484D02*
X5929848Y-9075484D01*
X5929848Y-9075484D02*
X5910801Y-9104055D01*
X5910801Y-9104055D02*
X5891753Y-9123103D01*
X5891753Y-9123103D02*
X5872705Y-9132627D01*
X6082229Y-9275484D02*
X6120324Y-9275484D01*
X6120324Y-9275484D02*
X6139372Y-9265960D01*
X6139372Y-9265960D02*
X6148896Y-9256436D01*
X6148896Y-9256436D02*
X6167943Y-9227865D01*
X6167943Y-9227865D02*
X6177467Y-9189770D01*
X6177467Y-9189770D02*
X6177467Y-9113579D01*
X6177467Y-9113579D02*
X6167943Y-9094531D01*
X6167943Y-9094531D02*
X6158420Y-9085008D01*
X6158420Y-9085008D02*
X6139372Y-9075484D01*
X6139372Y-9075484D02*
X6101277Y-9075484D01*
X6101277Y-9075484D02*
X6082229Y-9085008D01*
X6082229Y-9085008D02*
X6072705Y-9094531D01*
X6072705Y-9094531D02*
X6063182Y-9113579D01*
X6063182Y-9113579D02*
X6063182Y-9161198D01*
X6063182Y-9161198D02*
X6072705Y-9180246D01*
X6072705Y-9180246D02*
X6082229Y-9189770D01*
X6082229Y-9189770D02*
X6101277Y-9199293D01*
X6101277Y-9199293D02*
X6139372Y-9199293D01*
X6139372Y-9199293D02*
X6158420Y-9189770D01*
X6158420Y-9189770D02*
X6167943Y-9180246D01*
X6167943Y-9180246D02*
X6177467Y-9161198D01*
X6244134Y-9075484D02*
X6377467Y-9075484D01*
X6377467Y-9075484D02*
X6291753Y-9275484D01*
X6444134Y-9075484D02*
X6444134Y-9113579D01*
X6520324Y-9075484D02*
X6520324Y-9113579D01*
X6815563Y-9351674D02*
X6806039Y-9342150D01*
X6806039Y-9342150D02*
X6786991Y-9313579D01*
X6786991Y-9313579D02*
X6777467Y-9294531D01*
X6777467Y-9294531D02*
X6767944Y-9265960D01*
X6767944Y-9265960D02*
X6758420Y-9218341D01*
X6758420Y-9218341D02*
X6758420Y-9180246D01*
X6758420Y-9180246D02*
X6767944Y-9132627D01*
X6767944Y-9132627D02*
X6777467Y-9104055D01*
X6777467Y-9104055D02*
X6786991Y-9085008D01*
X6786991Y-9085008D02*
X6806039Y-9056436D01*
X6806039Y-9056436D02*
X6815563Y-9046912D01*
X6986991Y-9075484D02*
X6891753Y-9075484D01*
X6891753Y-9075484D02*
X6882229Y-9170722D01*
X6882229Y-9170722D02*
X6891753Y-9161198D01*
X6891753Y-9161198D02*
X6910801Y-9151674D01*
X6910801Y-9151674D02*
X6958420Y-9151674D01*
X6958420Y-9151674D02*
X6977467Y-9161198D01*
X6977467Y-9161198D02*
X6986991Y-9170722D01*
X6986991Y-9170722D02*
X6996515Y-9189770D01*
X6996515Y-9189770D02*
X6996515Y-9237389D01*
X6996515Y-9237389D02*
X6986991Y-9256436D01*
X6986991Y-9256436D02*
X6977467Y-9265960D01*
X6977467Y-9265960D02*
X6958420Y-9275484D01*
X6958420Y-9275484D02*
X6910801Y-9275484D01*
X6910801Y-9275484D02*
X6891753Y-9265960D01*
X6891753Y-9265960D02*
X6882229Y-9256436D01*
X7167944Y-9075484D02*
X7129848Y-9075484D01*
X7129848Y-9075484D02*
X7110801Y-9085008D01*
X7110801Y-9085008D02*
X7101277Y-9094531D01*
X7101277Y-9094531D02*
X7082229Y-9123103D01*
X7082229Y-9123103D02*
X7072705Y-9161198D01*
X7072705Y-9161198D02*
X7072705Y-9237389D01*
X7072705Y-9237389D02*
X7082229Y-9256436D01*
X7082229Y-9256436D02*
X7091753Y-9265960D01*
X7091753Y-9265960D02*
X7110801Y-9275484D01*
X7110801Y-9275484D02*
X7148896Y-9275484D01*
X7148896Y-9275484D02*
X7167944Y-9265960D01*
X7167944Y-9265960D02*
X7177467Y-9256436D01*
X7177467Y-9256436D02*
X7186991Y-9237389D01*
X7186991Y-9237389D02*
X7186991Y-9189770D01*
X7186991Y-9189770D02*
X7177467Y-9170722D01*
X7177467Y-9170722D02*
X7167944Y-9161198D01*
X7167944Y-9161198D02*
X7148896Y-9151674D01*
X7148896Y-9151674D02*
X7110801Y-9151674D01*
X7110801Y-9151674D02*
X7091753Y-9161198D01*
X7091753Y-9161198D02*
X7082229Y-9170722D01*
X7082229Y-9170722D02*
X7072705Y-9189770D01*
X7425086Y-9275484D02*
X7425086Y-9075484D01*
X7510801Y-9275484D02*
X7510801Y-9170722D01*
X7510801Y-9170722D02*
X7501277Y-9151674D01*
X7501277Y-9151674D02*
X7482229Y-9142150D01*
X7482229Y-9142150D02*
X7453658Y-9142150D01*
X7453658Y-9142150D02*
X7434610Y-9151674D01*
X7434610Y-9151674D02*
X7425086Y-9161198D01*
X7634610Y-9275484D02*
X7615563Y-9265960D01*
X7615563Y-9265960D02*
X7606039Y-9256436D01*
X7606039Y-9256436D02*
X7596515Y-9237389D01*
X7596515Y-9237389D02*
X7596515Y-9180246D01*
X7596515Y-9180246D02*
X7606039Y-9161198D01*
X7606039Y-9161198D02*
X7615563Y-9151674D01*
X7615563Y-9151674D02*
X7634610Y-9142150D01*
X7634610Y-9142150D02*
X7663182Y-9142150D01*
X7663182Y-9142150D02*
X7682229Y-9151674D01*
X7682229Y-9151674D02*
X7691753Y-9161198D01*
X7691753Y-9161198D02*
X7701277Y-9180246D01*
X7701277Y-9180246D02*
X7701277Y-9237389D01*
X7701277Y-9237389D02*
X7691753Y-9256436D01*
X7691753Y-9256436D02*
X7682229Y-9265960D01*
X7682229Y-9265960D02*
X7663182Y-9275484D01*
X7663182Y-9275484D02*
X7634610Y-9275484D01*
X7815563Y-9275484D02*
X7796515Y-9265960D01*
X7796515Y-9265960D02*
X7786991Y-9246912D01*
X7786991Y-9246912D02*
X7786991Y-9075484D01*
X7967944Y-9265960D02*
X7948896Y-9275484D01*
X7948896Y-9275484D02*
X7910801Y-9275484D01*
X7910801Y-9275484D02*
X7891753Y-9265960D01*
X7891753Y-9265960D02*
X7882229Y-9246912D01*
X7882229Y-9246912D02*
X7882229Y-9170722D01*
X7882229Y-9170722D02*
X7891753Y-9151674D01*
X7891753Y-9151674D02*
X7910801Y-9142150D01*
X7910801Y-9142150D02*
X7948896Y-9142150D01*
X7948896Y-9142150D02*
X7967944Y-9151674D01*
X7967944Y-9151674D02*
X7977467Y-9170722D01*
X7977467Y-9170722D02*
X7977467Y-9189770D01*
X7977467Y-9189770D02*
X7882229Y-9208817D01*
X8053658Y-9265960D02*
X8072706Y-9275484D01*
X8072706Y-9275484D02*
X8110801Y-9275484D01*
X8110801Y-9275484D02*
X8129848Y-9265960D01*
X8129848Y-9265960D02*
X8139372Y-9246912D01*
X8139372Y-9246912D02*
X8139372Y-9237389D01*
X8139372Y-9237389D02*
X8129848Y-9218341D01*
X8129848Y-9218341D02*
X8110801Y-9208817D01*
X8110801Y-9208817D02*
X8082229Y-9208817D01*
X8082229Y-9208817D02*
X8063182Y-9199293D01*
X8063182Y-9199293D02*
X8053658Y-9180246D01*
X8053658Y-9180246D02*
X8053658Y-9170722D01*
X8053658Y-9170722D02*
X8063182Y-9151674D01*
X8063182Y-9151674D02*
X8082229Y-9142150D01*
X8082229Y-9142150D02*
X8110801Y-9142150D01*
X8110801Y-9142150D02*
X8129848Y-9151674D01*
X8206039Y-9351674D02*
X8215563Y-9342150D01*
X8215563Y-9342150D02*
X8234610Y-9313579D01*
X8234610Y-9313579D02*
X8244134Y-9294531D01*
X8244134Y-9294531D02*
X8253658Y-9265960D01*
X8253658Y-9265960D02*
X8263182Y-9218341D01*
X8263182Y-9218341D02*
X8263182Y-9180246D01*
X8263182Y-9180246D02*
X8253658Y-9132627D01*
X8253658Y-9132627D02*
X8244134Y-9104055D01*
X8244134Y-9104055D02*
X8234610Y-9085008D01*
X8234610Y-9085008D02*
X8215563Y-9056436D01*
X8215563Y-9056436D02*
X8206039Y-9046912D01*
D10*
X3180500Y-9418000D02*
X3240500Y-9478000D01*
X3240500Y-9418000D02*
X3180500Y-9478000D01*
X3210500Y-9418000D02*
X3210500Y-9478000D01*
X3180500Y-9448000D02*
X3240500Y-9448000D01*
D11*
X3539372Y-9339484D02*
X3558419Y-9339484D01*
X3558419Y-9339484D02*
X3577467Y-9349008D01*
X3577467Y-9349008D02*
X3586991Y-9358531D01*
X3586991Y-9358531D02*
X3596515Y-9377579D01*
X3596515Y-9377579D02*
X3606038Y-9415674D01*
X3606038Y-9415674D02*
X3606038Y-9463293D01*
X3606038Y-9463293D02*
X3596515Y-9501389D01*
X3596515Y-9501389D02*
X3586991Y-9520436D01*
X3586991Y-9520436D02*
X3577467Y-9529960D01*
X3577467Y-9529960D02*
X3558419Y-9539484D01*
X3558419Y-9539484D02*
X3539372Y-9539484D01*
X3539372Y-9539484D02*
X3520324Y-9529960D01*
X3520324Y-9529960D02*
X3510800Y-9520436D01*
X3510800Y-9520436D02*
X3501277Y-9501389D01*
X3501277Y-9501389D02*
X3491753Y-9463293D01*
X3491753Y-9463293D02*
X3491753Y-9415674D01*
X3491753Y-9415674D02*
X3501277Y-9377579D01*
X3501277Y-9377579D02*
X3510800Y-9358531D01*
X3510800Y-9358531D02*
X3520324Y-9349008D01*
X3520324Y-9349008D02*
X3539372Y-9339484D01*
X3691753Y-9520436D02*
X3701277Y-9529960D01*
X3701277Y-9529960D02*
X3691753Y-9539484D01*
X3691753Y-9539484D02*
X3682229Y-9529960D01*
X3682229Y-9529960D02*
X3691753Y-9520436D01*
X3691753Y-9520436D02*
X3691753Y-9539484D01*
X3872705Y-9339484D02*
X3834610Y-9339484D01*
X3834610Y-9339484D02*
X3815562Y-9349008D01*
X3815562Y-9349008D02*
X3806038Y-9358531D01*
X3806038Y-9358531D02*
X3786991Y-9387103D01*
X3786991Y-9387103D02*
X3777467Y-9425198D01*
X3777467Y-9425198D02*
X3777467Y-9501389D01*
X3777467Y-9501389D02*
X3786991Y-9520436D01*
X3786991Y-9520436D02*
X3796515Y-9529960D01*
X3796515Y-9529960D02*
X3815562Y-9539484D01*
X3815562Y-9539484D02*
X3853658Y-9539484D01*
X3853658Y-9539484D02*
X3872705Y-9529960D01*
X3872705Y-9529960D02*
X3882229Y-9520436D01*
X3882229Y-9520436D02*
X3891753Y-9501389D01*
X3891753Y-9501389D02*
X3891753Y-9453770D01*
X3891753Y-9453770D02*
X3882229Y-9434722D01*
X3882229Y-9434722D02*
X3872705Y-9425198D01*
X3872705Y-9425198D02*
X3853658Y-9415674D01*
X3853658Y-9415674D02*
X3815562Y-9415674D01*
X3815562Y-9415674D02*
X3796515Y-9425198D01*
X3796515Y-9425198D02*
X3786991Y-9434722D01*
X3786991Y-9434722D02*
X3777467Y-9453770D01*
X4015562Y-9339484D02*
X4034610Y-9339484D01*
X4034610Y-9339484D02*
X4053658Y-9349008D01*
X4053658Y-9349008D02*
X4063181Y-9358531D01*
X4063181Y-9358531D02*
X4072705Y-9377579D01*
X4072705Y-9377579D02*
X4082229Y-9415674D01*
X4082229Y-9415674D02*
X4082229Y-9463293D01*
X4082229Y-9463293D02*
X4072705Y-9501389D01*
X4072705Y-9501389D02*
X4063181Y-9520436D01*
X4063181Y-9520436D02*
X4053658Y-9529960D01*
X4053658Y-9529960D02*
X4034610Y-9539484D01*
X4034610Y-9539484D02*
X4015562Y-9539484D01*
X4015562Y-9539484D02*
X3996515Y-9529960D01*
X3996515Y-9529960D02*
X3986991Y-9520436D01*
X3986991Y-9520436D02*
X3977467Y-9501389D01*
X3977467Y-9501389D02*
X3967943Y-9463293D01*
X3967943Y-9463293D02*
X3967943Y-9415674D01*
X3967943Y-9415674D02*
X3977467Y-9377579D01*
X3977467Y-9377579D02*
X3986991Y-9358531D01*
X3986991Y-9358531D02*
X3996515Y-9349008D01*
X3996515Y-9349008D02*
X4015562Y-9339484D01*
X4206039Y-9339484D02*
X4225086Y-9339484D01*
X4225086Y-9339484D02*
X4244134Y-9349008D01*
X4244134Y-9349008D02*
X4253658Y-9358531D01*
X4253658Y-9358531D02*
X4263181Y-9377579D01*
X4263181Y-9377579D02*
X4272705Y-9415674D01*
X4272705Y-9415674D02*
X4272705Y-9463293D01*
X4272705Y-9463293D02*
X4263181Y-9501389D01*
X4263181Y-9501389D02*
X4253658Y-9520436D01*
X4253658Y-9520436D02*
X4244134Y-9529960D01*
X4244134Y-9529960D02*
X4225086Y-9539484D01*
X4225086Y-9539484D02*
X4206039Y-9539484D01*
X4206039Y-9539484D02*
X4186991Y-9529960D01*
X4186991Y-9529960D02*
X4177467Y-9520436D01*
X4177467Y-9520436D02*
X4167943Y-9501389D01*
X4167943Y-9501389D02*
X4158419Y-9463293D01*
X4158419Y-9463293D02*
X4158419Y-9415674D01*
X4158419Y-9415674D02*
X4167943Y-9377579D01*
X4167943Y-9377579D02*
X4177467Y-9358531D01*
X4177467Y-9358531D02*
X4186991Y-9349008D01*
X4186991Y-9349008D02*
X4206039Y-9339484D01*
X4358420Y-9539484D02*
X4358420Y-9406150D01*
X4358420Y-9425198D02*
X4367943Y-9415674D01*
X4367943Y-9415674D02*
X4386991Y-9406150D01*
X4386991Y-9406150D02*
X4415562Y-9406150D01*
X4415562Y-9406150D02*
X4434610Y-9415674D01*
X4434610Y-9415674D02*
X4444134Y-9434722D01*
X4444134Y-9434722D02*
X4444134Y-9539484D01*
X4444134Y-9434722D02*
X4453658Y-9415674D01*
X4453658Y-9415674D02*
X4472705Y-9406150D01*
X4472705Y-9406150D02*
X4501277Y-9406150D01*
X4501277Y-9406150D02*
X4520324Y-9415674D01*
X4520324Y-9415674D02*
X4529848Y-9434722D01*
X4529848Y-9434722D02*
X4529848Y-9539484D01*
X4625086Y-9539484D02*
X4625086Y-9406150D01*
X4625086Y-9425198D02*
X4634610Y-9415674D01*
X4634610Y-9415674D02*
X4653658Y-9406150D01*
X4653658Y-9406150D02*
X4682229Y-9406150D01*
X4682229Y-9406150D02*
X4701277Y-9415674D01*
X4701277Y-9415674D02*
X4710801Y-9434722D01*
X4710801Y-9434722D02*
X4710801Y-9539484D01*
X4710801Y-9434722D02*
X4720324Y-9415674D01*
X4720324Y-9415674D02*
X4739372Y-9406150D01*
X4739372Y-9406150D02*
X4767943Y-9406150D01*
X4767943Y-9406150D02*
X4786991Y-9415674D01*
X4786991Y-9415674D02*
X4796515Y-9434722D01*
X4796515Y-9434722D02*
X4796515Y-9539484D01*
X5186991Y-9329960D02*
X5015563Y-9587103D01*
X5444134Y-9339484D02*
X5463182Y-9339484D01*
X5463182Y-9339484D02*
X5482229Y-9349008D01*
X5482229Y-9349008D02*
X5491753Y-9358531D01*
X5491753Y-9358531D02*
X5501277Y-9377579D01*
X5501277Y-9377579D02*
X5510801Y-9415674D01*
X5510801Y-9415674D02*
X5510801Y-9463293D01*
X5510801Y-9463293D02*
X5501277Y-9501389D01*
X5501277Y-9501389D02*
X5491753Y-9520436D01*
X5491753Y-9520436D02*
X5482229Y-9529960D01*
X5482229Y-9529960D02*
X5463182Y-9539484D01*
X5463182Y-9539484D02*
X5444134Y-9539484D01*
X5444134Y-9539484D02*
X5425086Y-9529960D01*
X5425086Y-9529960D02*
X5415563Y-9520436D01*
X5415563Y-9520436D02*
X5406039Y-9501389D01*
X5406039Y-9501389D02*
X5396515Y-9463293D01*
X5396515Y-9463293D02*
X5396515Y-9415674D01*
X5396515Y-9415674D02*
X5406039Y-9377579D01*
X5406039Y-9377579D02*
X5415563Y-9358531D01*
X5415563Y-9358531D02*
X5425086Y-9349008D01*
X5425086Y-9349008D02*
X5444134Y-9339484D01*
X5596515Y-9520436D02*
X5606039Y-9529960D01*
X5606039Y-9529960D02*
X5596515Y-9539484D01*
X5596515Y-9539484D02*
X5586991Y-9529960D01*
X5586991Y-9529960D02*
X5596515Y-9520436D01*
X5596515Y-9520436D02*
X5596515Y-9539484D01*
X5729848Y-9339484D02*
X5748896Y-9339484D01*
X5748896Y-9339484D02*
X5767943Y-9349008D01*
X5767943Y-9349008D02*
X5777467Y-9358531D01*
X5777467Y-9358531D02*
X5786991Y-9377579D01*
X5786991Y-9377579D02*
X5796515Y-9415674D01*
X5796515Y-9415674D02*
X5796515Y-9463293D01*
X5796515Y-9463293D02*
X5786991Y-9501389D01*
X5786991Y-9501389D02*
X5777467Y-9520436D01*
X5777467Y-9520436D02*
X5767943Y-9529960D01*
X5767943Y-9529960D02*
X5748896Y-9539484D01*
X5748896Y-9539484D02*
X5729848Y-9539484D01*
X5729848Y-9539484D02*
X5710801Y-9529960D01*
X5710801Y-9529960D02*
X5701277Y-9520436D01*
X5701277Y-9520436D02*
X5691753Y-9501389D01*
X5691753Y-9501389D02*
X5682229Y-9463293D01*
X5682229Y-9463293D02*
X5682229Y-9415674D01*
X5682229Y-9415674D02*
X5691753Y-9377579D01*
X5691753Y-9377579D02*
X5701277Y-9358531D01*
X5701277Y-9358531D02*
X5710801Y-9349008D01*
X5710801Y-9349008D02*
X5729848Y-9339484D01*
X5872705Y-9358531D02*
X5882229Y-9349008D01*
X5882229Y-9349008D02*
X5901277Y-9339484D01*
X5901277Y-9339484D02*
X5948896Y-9339484D01*
X5948896Y-9339484D02*
X5967943Y-9349008D01*
X5967943Y-9349008D02*
X5977467Y-9358531D01*
X5977467Y-9358531D02*
X5986991Y-9377579D01*
X5986991Y-9377579D02*
X5986991Y-9396627D01*
X5986991Y-9396627D02*
X5977467Y-9425198D01*
X5977467Y-9425198D02*
X5863182Y-9539484D01*
X5863182Y-9539484D02*
X5986991Y-9539484D01*
X6053658Y-9339484D02*
X6177467Y-9339484D01*
X6177467Y-9339484D02*
X6110801Y-9415674D01*
X6110801Y-9415674D02*
X6139372Y-9415674D01*
X6139372Y-9415674D02*
X6158420Y-9425198D01*
X6158420Y-9425198D02*
X6167943Y-9434722D01*
X6167943Y-9434722D02*
X6177467Y-9453770D01*
X6177467Y-9453770D02*
X6177467Y-9501389D01*
X6177467Y-9501389D02*
X6167943Y-9520436D01*
X6167943Y-9520436D02*
X6158420Y-9529960D01*
X6158420Y-9529960D02*
X6139372Y-9539484D01*
X6139372Y-9539484D02*
X6082229Y-9539484D01*
X6082229Y-9539484D02*
X6063182Y-9529960D01*
X6063182Y-9529960D02*
X6053658Y-9520436D01*
X6348896Y-9339484D02*
X6310801Y-9339484D01*
X6310801Y-9339484D02*
X6291753Y-9349008D01*
X6291753Y-9349008D02*
X6282229Y-9358531D01*
X6282229Y-9358531D02*
X6263182Y-9387103D01*
X6263182Y-9387103D02*
X6253658Y-9425198D01*
X6253658Y-9425198D02*
X6253658Y-9501389D01*
X6253658Y-9501389D02*
X6263182Y-9520436D01*
X6263182Y-9520436D02*
X6272705Y-9529960D01*
X6272705Y-9529960D02*
X6291753Y-9539484D01*
X6291753Y-9539484D02*
X6329848Y-9539484D01*
X6329848Y-9539484D02*
X6348896Y-9529960D01*
X6348896Y-9529960D02*
X6358420Y-9520436D01*
X6358420Y-9520436D02*
X6367943Y-9501389D01*
X6367943Y-9501389D02*
X6367943Y-9453770D01*
X6367943Y-9453770D02*
X6358420Y-9434722D01*
X6358420Y-9434722D02*
X6348896Y-9425198D01*
X6348896Y-9425198D02*
X6329848Y-9415674D01*
X6329848Y-9415674D02*
X6291753Y-9415674D01*
X6291753Y-9415674D02*
X6272705Y-9425198D01*
X6272705Y-9425198D02*
X6263182Y-9434722D01*
X6263182Y-9434722D02*
X6253658Y-9453770D01*
X6444134Y-9339484D02*
X6444134Y-9377579D01*
X6520324Y-9339484D02*
X6520324Y-9377579D01*
X6815563Y-9615674D02*
X6806039Y-9606150D01*
X6806039Y-9606150D02*
X6786991Y-9577579D01*
X6786991Y-9577579D02*
X6777467Y-9558531D01*
X6777467Y-9558531D02*
X6767944Y-9529960D01*
X6767944Y-9529960D02*
X6758420Y-9482341D01*
X6758420Y-9482341D02*
X6758420Y-9444246D01*
X6758420Y-9444246D02*
X6767944Y-9396627D01*
X6767944Y-9396627D02*
X6777467Y-9368055D01*
X6777467Y-9368055D02*
X6786991Y-9349008D01*
X6786991Y-9349008D02*
X6806039Y-9320436D01*
X6806039Y-9320436D02*
X6815563Y-9310912D01*
X6977467Y-9406150D02*
X6977467Y-9539484D01*
X6929848Y-9329960D02*
X6882229Y-9472817D01*
X6882229Y-9472817D02*
X7006039Y-9472817D01*
X7063182Y-9339484D02*
X7196515Y-9339484D01*
X7196515Y-9339484D02*
X7110801Y-9539484D01*
X7425086Y-9539484D02*
X7425086Y-9339484D01*
X7510801Y-9539484D02*
X7510801Y-9434722D01*
X7510801Y-9434722D02*
X7501277Y-9415674D01*
X7501277Y-9415674D02*
X7482229Y-9406150D01*
X7482229Y-9406150D02*
X7453658Y-9406150D01*
X7453658Y-9406150D02*
X7434610Y-9415674D01*
X7434610Y-9415674D02*
X7425086Y-9425198D01*
X7634610Y-9539484D02*
X7615563Y-9529960D01*
X7615563Y-9529960D02*
X7606039Y-9520436D01*
X7606039Y-9520436D02*
X7596515Y-9501389D01*
X7596515Y-9501389D02*
X7596515Y-9444246D01*
X7596515Y-9444246D02*
X7606039Y-9425198D01*
X7606039Y-9425198D02*
X7615563Y-9415674D01*
X7615563Y-9415674D02*
X7634610Y-9406150D01*
X7634610Y-9406150D02*
X7663182Y-9406150D01*
X7663182Y-9406150D02*
X7682229Y-9415674D01*
X7682229Y-9415674D02*
X7691753Y-9425198D01*
X7691753Y-9425198D02*
X7701277Y-9444246D01*
X7701277Y-9444246D02*
X7701277Y-9501389D01*
X7701277Y-9501389D02*
X7691753Y-9520436D01*
X7691753Y-9520436D02*
X7682229Y-9529960D01*
X7682229Y-9529960D02*
X7663182Y-9539484D01*
X7663182Y-9539484D02*
X7634610Y-9539484D01*
X7815563Y-9539484D02*
X7796515Y-9529960D01*
X7796515Y-9529960D02*
X7786991Y-9510912D01*
X7786991Y-9510912D02*
X7786991Y-9339484D01*
X7967944Y-9529960D02*
X7948896Y-9539484D01*
X7948896Y-9539484D02*
X7910801Y-9539484D01*
X7910801Y-9539484D02*
X7891753Y-9529960D01*
X7891753Y-9529960D02*
X7882229Y-9510912D01*
X7882229Y-9510912D02*
X7882229Y-9434722D01*
X7882229Y-9434722D02*
X7891753Y-9415674D01*
X7891753Y-9415674D02*
X7910801Y-9406150D01*
X7910801Y-9406150D02*
X7948896Y-9406150D01*
X7948896Y-9406150D02*
X7967944Y-9415674D01*
X7967944Y-9415674D02*
X7977467Y-9434722D01*
X7977467Y-9434722D02*
X7977467Y-9453770D01*
X7977467Y-9453770D02*
X7882229Y-9472817D01*
X8053658Y-9529960D02*
X8072706Y-9539484D01*
X8072706Y-9539484D02*
X8110801Y-9539484D01*
X8110801Y-9539484D02*
X8129848Y-9529960D01*
X8129848Y-9529960D02*
X8139372Y-9510912D01*
X8139372Y-9510912D02*
X8139372Y-9501389D01*
X8139372Y-9501389D02*
X8129848Y-9482341D01*
X8129848Y-9482341D02*
X8110801Y-9472817D01*
X8110801Y-9472817D02*
X8082229Y-9472817D01*
X8082229Y-9472817D02*
X8063182Y-9463293D01*
X8063182Y-9463293D02*
X8053658Y-9444246D01*
X8053658Y-9444246D02*
X8053658Y-9434722D01*
X8053658Y-9434722D02*
X8063182Y-9415674D01*
X8063182Y-9415674D02*
X8082229Y-9406150D01*
X8082229Y-9406150D02*
X8110801Y-9406150D01*
X8110801Y-9406150D02*
X8129848Y-9415674D01*
X8206039Y-9615674D02*
X8215563Y-9606150D01*
X8215563Y-9606150D02*
X8234610Y-9577579D01*
X8234610Y-9577579D02*
X8244134Y-9558531D01*
X8244134Y-9558531D02*
X8253658Y-9529960D01*
X8253658Y-9529960D02*
X8263182Y-9482341D01*
X8263182Y-9482341D02*
X8263182Y-9444246D01*
X8263182Y-9444246D02*
X8253658Y-9396627D01*
X8253658Y-9396627D02*
X8244134Y-9368055D01*
X8244134Y-9368055D02*
X8234610Y-9349008D01*
X8234610Y-9349008D02*
X8215563Y-9320436D01*
X8215563Y-9320436D02*
X8206039Y-9310912D01*
D10*
X3164300Y-9673900D02*
X3240500Y-9750100D01*
X3240500Y-9673900D02*
X3164300Y-9750100D01*
X3229341Y-9738941D02*
X3229341Y-9685059D01*
X3175459Y-9685059D01*
X3175459Y-9738941D01*
X3229341Y-9738941D01*
D11*
X3539372Y-9603484D02*
X3558419Y-9603484D01*
X3558419Y-9603484D02*
X3577467Y-9613008D01*
X3577467Y-9613008D02*
X3586991Y-9622531D01*
X3586991Y-9622531D02*
X3596515Y-9641579D01*
X3596515Y-9641579D02*
X3606038Y-9679674D01*
X3606038Y-9679674D02*
X3606038Y-9727293D01*
X3606038Y-9727293D02*
X3596515Y-9765389D01*
X3596515Y-9765389D02*
X3586991Y-9784436D01*
X3586991Y-9784436D02*
X3577467Y-9793960D01*
X3577467Y-9793960D02*
X3558419Y-9803484D01*
X3558419Y-9803484D02*
X3539372Y-9803484D01*
X3539372Y-9803484D02*
X3520324Y-9793960D01*
X3520324Y-9793960D02*
X3510800Y-9784436D01*
X3510800Y-9784436D02*
X3501277Y-9765389D01*
X3501277Y-9765389D02*
X3491753Y-9727293D01*
X3491753Y-9727293D02*
X3491753Y-9679674D01*
X3491753Y-9679674D02*
X3501277Y-9641579D01*
X3501277Y-9641579D02*
X3510800Y-9622531D01*
X3510800Y-9622531D02*
X3520324Y-9613008D01*
X3520324Y-9613008D02*
X3539372Y-9603484D01*
X3691753Y-9784436D02*
X3701277Y-9793960D01*
X3701277Y-9793960D02*
X3691753Y-9803484D01*
X3691753Y-9803484D02*
X3682229Y-9793960D01*
X3682229Y-9793960D02*
X3691753Y-9784436D01*
X3691753Y-9784436D02*
X3691753Y-9803484D01*
X3767943Y-9603484D02*
X3901277Y-9603484D01*
X3901277Y-9603484D02*
X3815562Y-9803484D01*
X4063181Y-9603484D02*
X4025086Y-9603484D01*
X4025086Y-9603484D02*
X4006038Y-9613008D01*
X4006038Y-9613008D02*
X3996515Y-9622531D01*
X3996515Y-9622531D02*
X3977467Y-9651103D01*
X3977467Y-9651103D02*
X3967943Y-9689198D01*
X3967943Y-9689198D02*
X3967943Y-9765389D01*
X3967943Y-9765389D02*
X3977467Y-9784436D01*
X3977467Y-9784436D02*
X3986991Y-9793960D01*
X3986991Y-9793960D02*
X4006038Y-9803484D01*
X4006038Y-9803484D02*
X4044134Y-9803484D01*
X4044134Y-9803484D02*
X4063181Y-9793960D01*
X4063181Y-9793960D02*
X4072705Y-9784436D01*
X4072705Y-9784436D02*
X4082229Y-9765389D01*
X4082229Y-9765389D02*
X4082229Y-9717770D01*
X4082229Y-9717770D02*
X4072705Y-9698722D01*
X4072705Y-9698722D02*
X4063181Y-9689198D01*
X4063181Y-9689198D02*
X4044134Y-9679674D01*
X4044134Y-9679674D02*
X4006038Y-9679674D01*
X4006038Y-9679674D02*
X3986991Y-9689198D01*
X3986991Y-9689198D02*
X3977467Y-9698722D01*
X3977467Y-9698722D02*
X3967943Y-9717770D01*
X4158419Y-9622531D02*
X4167943Y-9613008D01*
X4167943Y-9613008D02*
X4186991Y-9603484D01*
X4186991Y-9603484D02*
X4234610Y-9603484D01*
X4234610Y-9603484D02*
X4253658Y-9613008D01*
X4253658Y-9613008D02*
X4263181Y-9622531D01*
X4263181Y-9622531D02*
X4272705Y-9641579D01*
X4272705Y-9641579D02*
X4272705Y-9660627D01*
X4272705Y-9660627D02*
X4263181Y-9689198D01*
X4263181Y-9689198D02*
X4148896Y-9803484D01*
X4148896Y-9803484D02*
X4272705Y-9803484D01*
X4358420Y-9803484D02*
X4358420Y-9670150D01*
X4358420Y-9689198D02*
X4367943Y-9679674D01*
X4367943Y-9679674D02*
X4386991Y-9670150D01*
X4386991Y-9670150D02*
X4415562Y-9670150D01*
X4415562Y-9670150D02*
X4434610Y-9679674D01*
X4434610Y-9679674D02*
X4444134Y-9698722D01*
X4444134Y-9698722D02*
X4444134Y-9803484D01*
X4444134Y-9698722D02*
X4453658Y-9679674D01*
X4453658Y-9679674D02*
X4472705Y-9670150D01*
X4472705Y-9670150D02*
X4501277Y-9670150D01*
X4501277Y-9670150D02*
X4520324Y-9679674D01*
X4520324Y-9679674D02*
X4529848Y-9698722D01*
X4529848Y-9698722D02*
X4529848Y-9803484D01*
X4625086Y-9803484D02*
X4625086Y-9670150D01*
X4625086Y-9689198D02*
X4634610Y-9679674D01*
X4634610Y-9679674D02*
X4653658Y-9670150D01*
X4653658Y-9670150D02*
X4682229Y-9670150D01*
X4682229Y-9670150D02*
X4701277Y-9679674D01*
X4701277Y-9679674D02*
X4710801Y-9698722D01*
X4710801Y-9698722D02*
X4710801Y-9803484D01*
X4710801Y-9698722D02*
X4720324Y-9679674D01*
X4720324Y-9679674D02*
X4739372Y-9670150D01*
X4739372Y-9670150D02*
X4767943Y-9670150D01*
X4767943Y-9670150D02*
X4786991Y-9679674D01*
X4786991Y-9679674D02*
X4796515Y-9698722D01*
X4796515Y-9698722D02*
X4796515Y-9803484D01*
X5186991Y-9593960D02*
X5015563Y-9851103D01*
X5444134Y-9603484D02*
X5463182Y-9603484D01*
X5463182Y-9603484D02*
X5482229Y-9613008D01*
X5482229Y-9613008D02*
X5491753Y-9622531D01*
X5491753Y-9622531D02*
X5501277Y-9641579D01*
X5501277Y-9641579D02*
X5510801Y-9679674D01*
X5510801Y-9679674D02*
X5510801Y-9727293D01*
X5510801Y-9727293D02*
X5501277Y-9765389D01*
X5501277Y-9765389D02*
X5491753Y-9784436D01*
X5491753Y-9784436D02*
X5482229Y-9793960D01*
X5482229Y-9793960D02*
X5463182Y-9803484D01*
X5463182Y-9803484D02*
X5444134Y-9803484D01*
X5444134Y-9803484D02*
X5425086Y-9793960D01*
X5425086Y-9793960D02*
X5415563Y-9784436D01*
X5415563Y-9784436D02*
X5406039Y-9765389D01*
X5406039Y-9765389D02*
X5396515Y-9727293D01*
X5396515Y-9727293D02*
X5396515Y-9679674D01*
X5396515Y-9679674D02*
X5406039Y-9641579D01*
X5406039Y-9641579D02*
X5415563Y-9622531D01*
X5415563Y-9622531D02*
X5425086Y-9613008D01*
X5425086Y-9613008D02*
X5444134Y-9603484D01*
X5596515Y-9784436D02*
X5606039Y-9793960D01*
X5606039Y-9793960D02*
X5596515Y-9803484D01*
X5596515Y-9803484D02*
X5586991Y-9793960D01*
X5586991Y-9793960D02*
X5596515Y-9784436D01*
X5596515Y-9784436D02*
X5596515Y-9803484D01*
X5729848Y-9603484D02*
X5748896Y-9603484D01*
X5748896Y-9603484D02*
X5767943Y-9613008D01*
X5767943Y-9613008D02*
X5777467Y-9622531D01*
X5777467Y-9622531D02*
X5786991Y-9641579D01*
X5786991Y-9641579D02*
X5796515Y-9679674D01*
X5796515Y-9679674D02*
X5796515Y-9727293D01*
X5796515Y-9727293D02*
X5786991Y-9765389D01*
X5786991Y-9765389D02*
X5777467Y-9784436D01*
X5777467Y-9784436D02*
X5767943Y-9793960D01*
X5767943Y-9793960D02*
X5748896Y-9803484D01*
X5748896Y-9803484D02*
X5729848Y-9803484D01*
X5729848Y-9803484D02*
X5710801Y-9793960D01*
X5710801Y-9793960D02*
X5701277Y-9784436D01*
X5701277Y-9784436D02*
X5691753Y-9765389D01*
X5691753Y-9765389D02*
X5682229Y-9727293D01*
X5682229Y-9727293D02*
X5682229Y-9679674D01*
X5682229Y-9679674D02*
X5691753Y-9641579D01*
X5691753Y-9641579D02*
X5701277Y-9622531D01*
X5701277Y-9622531D02*
X5710801Y-9613008D01*
X5710801Y-9613008D02*
X5729848Y-9603484D01*
X5863182Y-9603484D02*
X5986991Y-9603484D01*
X5986991Y-9603484D02*
X5920324Y-9679674D01*
X5920324Y-9679674D02*
X5948896Y-9679674D01*
X5948896Y-9679674D02*
X5967943Y-9689198D01*
X5967943Y-9689198D02*
X5977467Y-9698722D01*
X5977467Y-9698722D02*
X5986991Y-9717770D01*
X5986991Y-9717770D02*
X5986991Y-9765389D01*
X5986991Y-9765389D02*
X5977467Y-9784436D01*
X5977467Y-9784436D02*
X5967943Y-9793960D01*
X5967943Y-9793960D02*
X5948896Y-9803484D01*
X5948896Y-9803484D02*
X5891753Y-9803484D01*
X5891753Y-9803484D02*
X5872705Y-9793960D01*
X5872705Y-9793960D02*
X5863182Y-9784436D01*
X6110801Y-9603484D02*
X6129848Y-9603484D01*
X6129848Y-9603484D02*
X6148896Y-9613008D01*
X6148896Y-9613008D02*
X6158420Y-9622531D01*
X6158420Y-9622531D02*
X6167943Y-9641579D01*
X6167943Y-9641579D02*
X6177467Y-9679674D01*
X6177467Y-9679674D02*
X6177467Y-9727293D01*
X6177467Y-9727293D02*
X6167943Y-9765389D01*
X6167943Y-9765389D02*
X6158420Y-9784436D01*
X6158420Y-9784436D02*
X6148896Y-9793960D01*
X6148896Y-9793960D02*
X6129848Y-9803484D01*
X6129848Y-9803484D02*
X6110801Y-9803484D01*
X6110801Y-9803484D02*
X6091753Y-9793960D01*
X6091753Y-9793960D02*
X6082229Y-9784436D01*
X6082229Y-9784436D02*
X6072705Y-9765389D01*
X6072705Y-9765389D02*
X6063182Y-9727293D01*
X6063182Y-9727293D02*
X6063182Y-9679674D01*
X6063182Y-9679674D02*
X6072705Y-9641579D01*
X6072705Y-9641579D02*
X6082229Y-9622531D01*
X6082229Y-9622531D02*
X6091753Y-9613008D01*
X6091753Y-9613008D02*
X6110801Y-9603484D01*
X6301277Y-9603484D02*
X6320324Y-9603484D01*
X6320324Y-9603484D02*
X6339372Y-9613008D01*
X6339372Y-9613008D02*
X6348896Y-9622531D01*
X6348896Y-9622531D02*
X6358420Y-9641579D01*
X6358420Y-9641579D02*
X6367943Y-9679674D01*
X6367943Y-9679674D02*
X6367943Y-9727293D01*
X6367943Y-9727293D02*
X6358420Y-9765389D01*
X6358420Y-9765389D02*
X6348896Y-9784436D01*
X6348896Y-9784436D02*
X6339372Y-9793960D01*
X6339372Y-9793960D02*
X6320324Y-9803484D01*
X6320324Y-9803484D02*
X6301277Y-9803484D01*
X6301277Y-9803484D02*
X6282229Y-9793960D01*
X6282229Y-9793960D02*
X6272705Y-9784436D01*
X6272705Y-9784436D02*
X6263182Y-9765389D01*
X6263182Y-9765389D02*
X6253658Y-9727293D01*
X6253658Y-9727293D02*
X6253658Y-9679674D01*
X6253658Y-9679674D02*
X6263182Y-9641579D01*
X6263182Y-9641579D02*
X6272705Y-9622531D01*
X6272705Y-9622531D02*
X6282229Y-9613008D01*
X6282229Y-9613008D02*
X6301277Y-9603484D01*
X6444134Y-9603484D02*
X6444134Y-9641579D01*
X6520324Y-9603484D02*
X6520324Y-9641579D01*
X6815563Y-9879674D02*
X6806039Y-9870150D01*
X6806039Y-9870150D02*
X6786991Y-9841579D01*
X6786991Y-9841579D02*
X6777467Y-9822531D01*
X6777467Y-9822531D02*
X6767944Y-9793960D01*
X6767944Y-9793960D02*
X6758420Y-9746341D01*
X6758420Y-9746341D02*
X6758420Y-9708246D01*
X6758420Y-9708246D02*
X6767944Y-9660627D01*
X6767944Y-9660627D02*
X6777467Y-9632055D01*
X6777467Y-9632055D02*
X6786991Y-9613008D01*
X6786991Y-9613008D02*
X6806039Y-9584436D01*
X6806039Y-9584436D02*
X6815563Y-9574912D01*
X6872705Y-9603484D02*
X6996515Y-9603484D01*
X6996515Y-9603484D02*
X6929848Y-9679674D01*
X6929848Y-9679674D02*
X6958420Y-9679674D01*
X6958420Y-9679674D02*
X6977467Y-9689198D01*
X6977467Y-9689198D02*
X6986991Y-9698722D01*
X6986991Y-9698722D02*
X6996515Y-9717770D01*
X6996515Y-9717770D02*
X6996515Y-9765389D01*
X6996515Y-9765389D02*
X6986991Y-9784436D01*
X6986991Y-9784436D02*
X6977467Y-9793960D01*
X6977467Y-9793960D02*
X6958420Y-9803484D01*
X6958420Y-9803484D02*
X6901277Y-9803484D01*
X6901277Y-9803484D02*
X6882229Y-9793960D01*
X6882229Y-9793960D02*
X6872705Y-9784436D01*
X7234610Y-9803484D02*
X7234610Y-9603484D01*
X7320325Y-9803484D02*
X7320325Y-9698722D01*
X7320325Y-9698722D02*
X7310801Y-9679674D01*
X7310801Y-9679674D02*
X7291753Y-9670150D01*
X7291753Y-9670150D02*
X7263182Y-9670150D01*
X7263182Y-9670150D02*
X7244134Y-9679674D01*
X7244134Y-9679674D02*
X7234610Y-9689198D01*
X7444134Y-9803484D02*
X7425086Y-9793960D01*
X7425086Y-9793960D02*
X7415563Y-9784436D01*
X7415563Y-9784436D02*
X7406039Y-9765389D01*
X7406039Y-9765389D02*
X7406039Y-9708246D01*
X7406039Y-9708246D02*
X7415563Y-9689198D01*
X7415563Y-9689198D02*
X7425086Y-9679674D01*
X7425086Y-9679674D02*
X7444134Y-9670150D01*
X7444134Y-9670150D02*
X7472706Y-9670150D01*
X7472706Y-9670150D02*
X7491753Y-9679674D01*
X7491753Y-9679674D02*
X7501277Y-9689198D01*
X7501277Y-9689198D02*
X7510801Y-9708246D01*
X7510801Y-9708246D02*
X7510801Y-9765389D01*
X7510801Y-9765389D02*
X7501277Y-9784436D01*
X7501277Y-9784436D02*
X7491753Y-9793960D01*
X7491753Y-9793960D02*
X7472706Y-9803484D01*
X7472706Y-9803484D02*
X7444134Y-9803484D01*
X7625086Y-9803484D02*
X7606039Y-9793960D01*
X7606039Y-9793960D02*
X7596515Y-9774912D01*
X7596515Y-9774912D02*
X7596515Y-9603484D01*
X7777467Y-9793960D02*
X7758420Y-9803484D01*
X7758420Y-9803484D02*
X7720325Y-9803484D01*
X7720325Y-9803484D02*
X7701277Y-9793960D01*
X7701277Y-9793960D02*
X7691753Y-9774912D01*
X7691753Y-9774912D02*
X7691753Y-9698722D01*
X7691753Y-9698722D02*
X7701277Y-9679674D01*
X7701277Y-9679674D02*
X7720325Y-9670150D01*
X7720325Y-9670150D02*
X7758420Y-9670150D01*
X7758420Y-9670150D02*
X7777467Y-9679674D01*
X7777467Y-9679674D02*
X7786991Y-9698722D01*
X7786991Y-9698722D02*
X7786991Y-9717770D01*
X7786991Y-9717770D02*
X7691753Y-9736817D01*
X7863182Y-9793960D02*
X7882229Y-9803484D01*
X7882229Y-9803484D02*
X7920325Y-9803484D01*
X7920325Y-9803484D02*
X7939372Y-9793960D01*
X7939372Y-9793960D02*
X7948896Y-9774912D01*
X7948896Y-9774912D02*
X7948896Y-9765389D01*
X7948896Y-9765389D02*
X7939372Y-9746341D01*
X7939372Y-9746341D02*
X7920325Y-9736817D01*
X7920325Y-9736817D02*
X7891753Y-9736817D01*
X7891753Y-9736817D02*
X7872706Y-9727293D01*
X7872706Y-9727293D02*
X7863182Y-9708246D01*
X7863182Y-9708246D02*
X7863182Y-9698722D01*
X7863182Y-9698722D02*
X7872706Y-9679674D01*
X7872706Y-9679674D02*
X7891753Y-9670150D01*
X7891753Y-9670150D02*
X7920325Y-9670150D01*
X7920325Y-9670150D02*
X7939372Y-9679674D01*
X8015563Y-9879674D02*
X8025087Y-9870150D01*
X8025087Y-9870150D02*
X8044134Y-9841579D01*
X8044134Y-9841579D02*
X8053658Y-9822531D01*
X8053658Y-9822531D02*
X8063182Y-9793960D01*
X8063182Y-9793960D02*
X8072706Y-9746341D01*
X8072706Y-9746341D02*
X8072706Y-9708246D01*
X8072706Y-9708246D02*
X8063182Y-9660627D01*
X8063182Y-9660627D02*
X8053658Y-9632055D01*
X8053658Y-9632055D02*
X8044134Y-9613008D01*
X8044134Y-9613008D02*
X8025087Y-9584436D01*
X8025087Y-9584436D02*
X8015563Y-9574912D01*
D10*
X3140500Y-9926000D02*
X3240500Y-10026000D01*
X3240500Y-9926000D02*
X3140500Y-10026000D01*
X3190500Y-10026000D02*
X3240500Y-9976000D01*
X3190500Y-9926000D01*
X3140500Y-9976000D01*
X3190500Y-10026000D01*
D11*
X3606038Y-10067484D02*
X3491753Y-10067484D01*
X3548896Y-10067484D02*
X3548896Y-9867484D01*
X3548896Y-9867484D02*
X3529848Y-9896055D01*
X3529848Y-9896055D02*
X3510800Y-9915103D01*
X3510800Y-9915103D02*
X3491753Y-9924627D01*
X3691753Y-10048436D02*
X3701277Y-10057960D01*
X3701277Y-10057960D02*
X3691753Y-10067484D01*
X3691753Y-10067484D02*
X3682229Y-10057960D01*
X3682229Y-10057960D02*
X3691753Y-10048436D01*
X3691753Y-10048436D02*
X3691753Y-10067484D01*
X3825086Y-9867484D02*
X3844134Y-9867484D01*
X3844134Y-9867484D02*
X3863181Y-9877008D01*
X3863181Y-9877008D02*
X3872705Y-9886531D01*
X3872705Y-9886531D02*
X3882229Y-9905579D01*
X3882229Y-9905579D02*
X3891753Y-9943674D01*
X3891753Y-9943674D02*
X3891753Y-9991293D01*
X3891753Y-9991293D02*
X3882229Y-10029389D01*
X3882229Y-10029389D02*
X3872705Y-10048436D01*
X3872705Y-10048436D02*
X3863181Y-10057960D01*
X3863181Y-10057960D02*
X3844134Y-10067484D01*
X3844134Y-10067484D02*
X3825086Y-10067484D01*
X3825086Y-10067484D02*
X3806038Y-10057960D01*
X3806038Y-10057960D02*
X3796515Y-10048436D01*
X3796515Y-10048436D02*
X3786991Y-10029389D01*
X3786991Y-10029389D02*
X3777467Y-9991293D01*
X3777467Y-9991293D02*
X3777467Y-9943674D01*
X3777467Y-9943674D02*
X3786991Y-9905579D01*
X3786991Y-9905579D02*
X3796515Y-9886531D01*
X3796515Y-9886531D02*
X3806038Y-9877008D01*
X3806038Y-9877008D02*
X3825086Y-9867484D01*
X4015562Y-9867484D02*
X4034610Y-9867484D01*
X4034610Y-9867484D02*
X4053658Y-9877008D01*
X4053658Y-9877008D02*
X4063181Y-9886531D01*
X4063181Y-9886531D02*
X4072705Y-9905579D01*
X4072705Y-9905579D02*
X4082229Y-9943674D01*
X4082229Y-9943674D02*
X4082229Y-9991293D01*
X4082229Y-9991293D02*
X4072705Y-10029389D01*
X4072705Y-10029389D02*
X4063181Y-10048436D01*
X4063181Y-10048436D02*
X4053658Y-10057960D01*
X4053658Y-10057960D02*
X4034610Y-10067484D01*
X4034610Y-10067484D02*
X4015562Y-10067484D01*
X4015562Y-10067484D02*
X3996515Y-10057960D01*
X3996515Y-10057960D02*
X3986991Y-10048436D01*
X3986991Y-10048436D02*
X3977467Y-10029389D01*
X3977467Y-10029389D02*
X3967943Y-9991293D01*
X3967943Y-9991293D02*
X3967943Y-9943674D01*
X3967943Y-9943674D02*
X3977467Y-9905579D01*
X3977467Y-9905579D02*
X3986991Y-9886531D01*
X3986991Y-9886531D02*
X3996515Y-9877008D01*
X3996515Y-9877008D02*
X4015562Y-9867484D01*
X4206039Y-9867484D02*
X4225086Y-9867484D01*
X4225086Y-9867484D02*
X4244134Y-9877008D01*
X4244134Y-9877008D02*
X4253658Y-9886531D01*
X4253658Y-9886531D02*
X4263181Y-9905579D01*
X4263181Y-9905579D02*
X4272705Y-9943674D01*
X4272705Y-9943674D02*
X4272705Y-9991293D01*
X4272705Y-9991293D02*
X4263181Y-10029389D01*
X4263181Y-10029389D02*
X4253658Y-10048436D01*
X4253658Y-10048436D02*
X4244134Y-10057960D01*
X4244134Y-10057960D02*
X4225086Y-10067484D01*
X4225086Y-10067484D02*
X4206039Y-10067484D01*
X4206039Y-10067484D02*
X4186991Y-10057960D01*
X4186991Y-10057960D02*
X4177467Y-10048436D01*
X4177467Y-10048436D02*
X4167943Y-10029389D01*
X4167943Y-10029389D02*
X4158419Y-9991293D01*
X4158419Y-9991293D02*
X4158419Y-9943674D01*
X4158419Y-9943674D02*
X4167943Y-9905579D01*
X4167943Y-9905579D02*
X4177467Y-9886531D01*
X4177467Y-9886531D02*
X4186991Y-9877008D01*
X4186991Y-9877008D02*
X4206039Y-9867484D01*
X4358420Y-10067484D02*
X4358420Y-9934150D01*
X4358420Y-9953198D02*
X4367943Y-9943674D01*
X4367943Y-9943674D02*
X4386991Y-9934150D01*
X4386991Y-9934150D02*
X4415562Y-9934150D01*
X4415562Y-9934150D02*
X4434610Y-9943674D01*
X4434610Y-9943674D02*
X4444134Y-9962722D01*
X4444134Y-9962722D02*
X4444134Y-10067484D01*
X4444134Y-9962722D02*
X4453658Y-9943674D01*
X4453658Y-9943674D02*
X4472705Y-9934150D01*
X4472705Y-9934150D02*
X4501277Y-9934150D01*
X4501277Y-9934150D02*
X4520324Y-9943674D01*
X4520324Y-9943674D02*
X4529848Y-9962722D01*
X4529848Y-9962722D02*
X4529848Y-10067484D01*
X4625086Y-10067484D02*
X4625086Y-9934150D01*
X4625086Y-9953198D02*
X4634610Y-9943674D01*
X4634610Y-9943674D02*
X4653658Y-9934150D01*
X4653658Y-9934150D02*
X4682229Y-9934150D01*
X4682229Y-9934150D02*
X4701277Y-9943674D01*
X4701277Y-9943674D02*
X4710801Y-9962722D01*
X4710801Y-9962722D02*
X4710801Y-10067484D01*
X4710801Y-9962722D02*
X4720324Y-9943674D01*
X4720324Y-9943674D02*
X4739372Y-9934150D01*
X4739372Y-9934150D02*
X4767943Y-9934150D01*
X4767943Y-9934150D02*
X4786991Y-9943674D01*
X4786991Y-9943674D02*
X4796515Y-9962722D01*
X4796515Y-9962722D02*
X4796515Y-10067484D01*
X5186991Y-9857960D02*
X5015563Y-10115103D01*
X5444134Y-9867484D02*
X5463182Y-9867484D01*
X5463182Y-9867484D02*
X5482229Y-9877008D01*
X5482229Y-9877008D02*
X5491753Y-9886531D01*
X5491753Y-9886531D02*
X5501277Y-9905579D01*
X5501277Y-9905579D02*
X5510801Y-9943674D01*
X5510801Y-9943674D02*
X5510801Y-9991293D01*
X5510801Y-9991293D02*
X5501277Y-10029389D01*
X5501277Y-10029389D02*
X5491753Y-10048436D01*
X5491753Y-10048436D02*
X5482229Y-10057960D01*
X5482229Y-10057960D02*
X5463182Y-10067484D01*
X5463182Y-10067484D02*
X5444134Y-10067484D01*
X5444134Y-10067484D02*
X5425086Y-10057960D01*
X5425086Y-10057960D02*
X5415563Y-10048436D01*
X5415563Y-10048436D02*
X5406039Y-10029389D01*
X5406039Y-10029389D02*
X5396515Y-9991293D01*
X5396515Y-9991293D02*
X5396515Y-9943674D01*
X5396515Y-9943674D02*
X5406039Y-9905579D01*
X5406039Y-9905579D02*
X5415563Y-9886531D01*
X5415563Y-9886531D02*
X5425086Y-9877008D01*
X5425086Y-9877008D02*
X5444134Y-9867484D01*
X5596515Y-10048436D02*
X5606039Y-10057960D01*
X5606039Y-10057960D02*
X5596515Y-10067484D01*
X5596515Y-10067484D02*
X5586991Y-10057960D01*
X5586991Y-10057960D02*
X5596515Y-10048436D01*
X5596515Y-10048436D02*
X5596515Y-10067484D01*
X5729848Y-9867484D02*
X5748896Y-9867484D01*
X5748896Y-9867484D02*
X5767943Y-9877008D01*
X5767943Y-9877008D02*
X5777467Y-9886531D01*
X5777467Y-9886531D02*
X5786991Y-9905579D01*
X5786991Y-9905579D02*
X5796515Y-9943674D01*
X5796515Y-9943674D02*
X5796515Y-9991293D01*
X5796515Y-9991293D02*
X5786991Y-10029389D01*
X5786991Y-10029389D02*
X5777467Y-10048436D01*
X5777467Y-10048436D02*
X5767943Y-10057960D01*
X5767943Y-10057960D02*
X5748896Y-10067484D01*
X5748896Y-10067484D02*
X5729848Y-10067484D01*
X5729848Y-10067484D02*
X5710801Y-10057960D01*
X5710801Y-10057960D02*
X5701277Y-10048436D01*
X5701277Y-10048436D02*
X5691753Y-10029389D01*
X5691753Y-10029389D02*
X5682229Y-9991293D01*
X5682229Y-9991293D02*
X5682229Y-9943674D01*
X5682229Y-9943674D02*
X5691753Y-9905579D01*
X5691753Y-9905579D02*
X5701277Y-9886531D01*
X5701277Y-9886531D02*
X5710801Y-9877008D01*
X5710801Y-9877008D02*
X5729848Y-9867484D01*
X5863182Y-9867484D02*
X5986991Y-9867484D01*
X5986991Y-9867484D02*
X5920324Y-9943674D01*
X5920324Y-9943674D02*
X5948896Y-9943674D01*
X5948896Y-9943674D02*
X5967943Y-9953198D01*
X5967943Y-9953198D02*
X5977467Y-9962722D01*
X5977467Y-9962722D02*
X5986991Y-9981770D01*
X5986991Y-9981770D02*
X5986991Y-10029389D01*
X5986991Y-10029389D02*
X5977467Y-10048436D01*
X5977467Y-10048436D02*
X5967943Y-10057960D01*
X5967943Y-10057960D02*
X5948896Y-10067484D01*
X5948896Y-10067484D02*
X5891753Y-10067484D01*
X5891753Y-10067484D02*
X5872705Y-10057960D01*
X5872705Y-10057960D02*
X5863182Y-10048436D01*
X6082229Y-10067484D02*
X6120324Y-10067484D01*
X6120324Y-10067484D02*
X6139372Y-10057960D01*
X6139372Y-10057960D02*
X6148896Y-10048436D01*
X6148896Y-10048436D02*
X6167943Y-10019865D01*
X6167943Y-10019865D02*
X6177467Y-9981770D01*
X6177467Y-9981770D02*
X6177467Y-9905579D01*
X6177467Y-9905579D02*
X6167943Y-9886531D01*
X6167943Y-9886531D02*
X6158420Y-9877008D01*
X6158420Y-9877008D02*
X6139372Y-9867484D01*
X6139372Y-9867484D02*
X6101277Y-9867484D01*
X6101277Y-9867484D02*
X6082229Y-9877008D01*
X6082229Y-9877008D02*
X6072705Y-9886531D01*
X6072705Y-9886531D02*
X6063182Y-9905579D01*
X6063182Y-9905579D02*
X6063182Y-9953198D01*
X6063182Y-9953198D02*
X6072705Y-9972246D01*
X6072705Y-9972246D02*
X6082229Y-9981770D01*
X6082229Y-9981770D02*
X6101277Y-9991293D01*
X6101277Y-9991293D02*
X6139372Y-9991293D01*
X6139372Y-9991293D02*
X6158420Y-9981770D01*
X6158420Y-9981770D02*
X6167943Y-9972246D01*
X6167943Y-9972246D02*
X6177467Y-9953198D01*
X6348896Y-9934150D02*
X6348896Y-10067484D01*
X6301277Y-9857960D02*
X6253658Y-10000817D01*
X6253658Y-10000817D02*
X6377467Y-10000817D01*
X6444134Y-9867484D02*
X6444134Y-9905579D01*
X6520324Y-9867484D02*
X6520324Y-9905579D01*
X6815563Y-10143674D02*
X6806039Y-10134150D01*
X6806039Y-10134150D02*
X6786991Y-10105579D01*
X6786991Y-10105579D02*
X6777467Y-10086531D01*
X6777467Y-10086531D02*
X6767944Y-10057960D01*
X6767944Y-10057960D02*
X6758420Y-10010341D01*
X6758420Y-10010341D02*
X6758420Y-9972246D01*
X6758420Y-9972246D02*
X6767944Y-9924627D01*
X6767944Y-9924627D02*
X6777467Y-9896055D01*
X6777467Y-9896055D02*
X6786991Y-9877008D01*
X6786991Y-9877008D02*
X6806039Y-9848436D01*
X6806039Y-9848436D02*
X6815563Y-9838912D01*
X6996515Y-10067484D02*
X6882229Y-10067484D01*
X6939372Y-10067484D02*
X6939372Y-9867484D01*
X6939372Y-9867484D02*
X6920324Y-9896055D01*
X6920324Y-9896055D02*
X6901277Y-9915103D01*
X6901277Y-9915103D02*
X6882229Y-9924627D01*
X7234610Y-10067484D02*
X7234610Y-9867484D01*
X7320325Y-10067484D02*
X7320325Y-9962722D01*
X7320325Y-9962722D02*
X7310801Y-9943674D01*
X7310801Y-9943674D02*
X7291753Y-9934150D01*
X7291753Y-9934150D02*
X7263182Y-9934150D01*
X7263182Y-9934150D02*
X7244134Y-9943674D01*
X7244134Y-9943674D02*
X7234610Y-9953198D01*
X7444134Y-10067484D02*
X7425086Y-10057960D01*
X7425086Y-10057960D02*
X7415563Y-10048436D01*
X7415563Y-10048436D02*
X7406039Y-10029389D01*
X7406039Y-10029389D02*
X7406039Y-9972246D01*
X7406039Y-9972246D02*
X7415563Y-9953198D01*
X7415563Y-9953198D02*
X7425086Y-9943674D01*
X7425086Y-9943674D02*
X7444134Y-9934150D01*
X7444134Y-9934150D02*
X7472706Y-9934150D01*
X7472706Y-9934150D02*
X7491753Y-9943674D01*
X7491753Y-9943674D02*
X7501277Y-9953198D01*
X7501277Y-9953198D02*
X7510801Y-9972246D01*
X7510801Y-9972246D02*
X7510801Y-10029389D01*
X7510801Y-10029389D02*
X7501277Y-10048436D01*
X7501277Y-10048436D02*
X7491753Y-10057960D01*
X7491753Y-10057960D02*
X7472706Y-10067484D01*
X7472706Y-10067484D02*
X7444134Y-10067484D01*
X7625086Y-10067484D02*
X7606039Y-10057960D01*
X7606039Y-10057960D02*
X7596515Y-10038912D01*
X7596515Y-10038912D02*
X7596515Y-9867484D01*
X7777467Y-10057960D02*
X7758420Y-10067484D01*
X7758420Y-10067484D02*
X7720325Y-10067484D01*
X7720325Y-10067484D02*
X7701277Y-10057960D01*
X7701277Y-10057960D02*
X7691753Y-10038912D01*
X7691753Y-10038912D02*
X7691753Y-9962722D01*
X7691753Y-9962722D02*
X7701277Y-9943674D01*
X7701277Y-9943674D02*
X7720325Y-9934150D01*
X7720325Y-9934150D02*
X7758420Y-9934150D01*
X7758420Y-9934150D02*
X7777467Y-9943674D01*
X7777467Y-9943674D02*
X7786991Y-9962722D01*
X7786991Y-9962722D02*
X7786991Y-9981770D01*
X7786991Y-9981770D02*
X7691753Y-10000817D01*
X7853658Y-10143674D02*
X7863182Y-10134150D01*
X7863182Y-10134150D02*
X7882229Y-10105579D01*
X7882229Y-10105579D02*
X7891753Y-10086531D01*
X7891753Y-10086531D02*
X7901277Y-10057960D01*
X7901277Y-10057960D02*
X7910801Y-10010341D01*
X7910801Y-10010341D02*
X7910801Y-9972246D01*
X7910801Y-9972246D02*
X7901277Y-9924627D01*
X7901277Y-9924627D02*
X7891753Y-9896055D01*
X7891753Y-9896055D02*
X7882229Y-9877008D01*
X7882229Y-9877008D02*
X7863182Y-9848436D01*
X7863182Y-9848436D02*
X7853658Y-9838912D01*
X3140500Y-10140000D02*
X3140500Y-10340000D01*
X3040500Y-10240000D02*
X3240500Y-10240000D01*
X3240500Y-10240000D02*
G75*
G02*
X3040500Y-10240000I-100000J0D01*
G01*
X3040500Y-10240000D02*
G75*
G02*
X3240500Y-10240000I100000J0D01*
G01*
X3491753Y-10150531D02*
X3501277Y-10141008D01*
X3501277Y-10141008D02*
X3520324Y-10131484D01*
X3520324Y-10131484D02*
X3567943Y-10131484D01*
X3567943Y-10131484D02*
X3586991Y-10141008D01*
X3586991Y-10141008D02*
X3596515Y-10150531D01*
X3596515Y-10150531D02*
X3606038Y-10169579D01*
X3606038Y-10169579D02*
X3606038Y-10188627D01*
X3606038Y-10188627D02*
X3596515Y-10217198D01*
X3596515Y-10217198D02*
X3482229Y-10331484D01*
X3482229Y-10331484D02*
X3606038Y-10331484D01*
X3691753Y-10312436D02*
X3701277Y-10321960D01*
X3701277Y-10321960D02*
X3691753Y-10331484D01*
X3691753Y-10331484D02*
X3682229Y-10321960D01*
X3682229Y-10321960D02*
X3691753Y-10312436D01*
X3691753Y-10312436D02*
X3691753Y-10331484D01*
X3777467Y-10150531D02*
X3786991Y-10141008D01*
X3786991Y-10141008D02*
X3806038Y-10131484D01*
X3806038Y-10131484D02*
X3853658Y-10131484D01*
X3853658Y-10131484D02*
X3872705Y-10141008D01*
X3872705Y-10141008D02*
X3882229Y-10150531D01*
X3882229Y-10150531D02*
X3891753Y-10169579D01*
X3891753Y-10169579D02*
X3891753Y-10188627D01*
X3891753Y-10188627D02*
X3882229Y-10217198D01*
X3882229Y-10217198D02*
X3767943Y-10331484D01*
X3767943Y-10331484D02*
X3891753Y-10331484D01*
X4015562Y-10131484D02*
X4034610Y-10131484D01*
X4034610Y-10131484D02*
X4053658Y-10141008D01*
X4053658Y-10141008D02*
X4063181Y-10150531D01*
X4063181Y-10150531D02*
X4072705Y-10169579D01*
X4072705Y-10169579D02*
X4082229Y-10207674D01*
X4082229Y-10207674D02*
X4082229Y-10255293D01*
X4082229Y-10255293D02*
X4072705Y-10293389D01*
X4072705Y-10293389D02*
X4063181Y-10312436D01*
X4063181Y-10312436D02*
X4053658Y-10321960D01*
X4053658Y-10321960D02*
X4034610Y-10331484D01*
X4034610Y-10331484D02*
X4015562Y-10331484D01*
X4015562Y-10331484D02*
X3996515Y-10321960D01*
X3996515Y-10321960D02*
X3986991Y-10312436D01*
X3986991Y-10312436D02*
X3977467Y-10293389D01*
X3977467Y-10293389D02*
X3967943Y-10255293D01*
X3967943Y-10255293D02*
X3967943Y-10207674D01*
X3967943Y-10207674D02*
X3977467Y-10169579D01*
X3977467Y-10169579D02*
X3986991Y-10150531D01*
X3986991Y-10150531D02*
X3996515Y-10141008D01*
X3996515Y-10141008D02*
X4015562Y-10131484D01*
X4206039Y-10131484D02*
X4225086Y-10131484D01*
X4225086Y-10131484D02*
X4244134Y-10141008D01*
X4244134Y-10141008D02*
X4253658Y-10150531D01*
X4253658Y-10150531D02*
X4263181Y-10169579D01*
X4263181Y-10169579D02*
X4272705Y-10207674D01*
X4272705Y-10207674D02*
X4272705Y-10255293D01*
X4272705Y-10255293D02*
X4263181Y-10293389D01*
X4263181Y-10293389D02*
X4253658Y-10312436D01*
X4253658Y-10312436D02*
X4244134Y-10321960D01*
X4244134Y-10321960D02*
X4225086Y-10331484D01*
X4225086Y-10331484D02*
X4206039Y-10331484D01*
X4206039Y-10331484D02*
X4186991Y-10321960D01*
X4186991Y-10321960D02*
X4177467Y-10312436D01*
X4177467Y-10312436D02*
X4167943Y-10293389D01*
X4167943Y-10293389D02*
X4158419Y-10255293D01*
X4158419Y-10255293D02*
X4158419Y-10207674D01*
X4158419Y-10207674D02*
X4167943Y-10169579D01*
X4167943Y-10169579D02*
X4177467Y-10150531D01*
X4177467Y-10150531D02*
X4186991Y-10141008D01*
X4186991Y-10141008D02*
X4206039Y-10131484D01*
X4358420Y-10331484D02*
X4358420Y-10198150D01*
X4358420Y-10217198D02*
X4367943Y-10207674D01*
X4367943Y-10207674D02*
X4386991Y-10198150D01*
X4386991Y-10198150D02*
X4415562Y-10198150D01*
X4415562Y-10198150D02*
X4434610Y-10207674D01*
X4434610Y-10207674D02*
X4444134Y-10226722D01*
X4444134Y-10226722D02*
X4444134Y-10331484D01*
X4444134Y-10226722D02*
X4453658Y-10207674D01*
X4453658Y-10207674D02*
X4472705Y-10198150D01*
X4472705Y-10198150D02*
X4501277Y-10198150D01*
X4501277Y-10198150D02*
X4520324Y-10207674D01*
X4520324Y-10207674D02*
X4529848Y-10226722D01*
X4529848Y-10226722D02*
X4529848Y-10331484D01*
X4625086Y-10331484D02*
X4625086Y-10198150D01*
X4625086Y-10217198D02*
X4634610Y-10207674D01*
X4634610Y-10207674D02*
X4653658Y-10198150D01*
X4653658Y-10198150D02*
X4682229Y-10198150D01*
X4682229Y-10198150D02*
X4701277Y-10207674D01*
X4701277Y-10207674D02*
X4710801Y-10226722D01*
X4710801Y-10226722D02*
X4710801Y-10331484D01*
X4710801Y-10226722D02*
X4720324Y-10207674D01*
X4720324Y-10207674D02*
X4739372Y-10198150D01*
X4739372Y-10198150D02*
X4767943Y-10198150D01*
X4767943Y-10198150D02*
X4786991Y-10207674D01*
X4786991Y-10207674D02*
X4796515Y-10226722D01*
X4796515Y-10226722D02*
X4796515Y-10331484D01*
X5186991Y-10121960D02*
X5015563Y-10379103D01*
X5444134Y-10131484D02*
X5463182Y-10131484D01*
X5463182Y-10131484D02*
X5482229Y-10141008D01*
X5482229Y-10141008D02*
X5491753Y-10150531D01*
X5491753Y-10150531D02*
X5501277Y-10169579D01*
X5501277Y-10169579D02*
X5510801Y-10207674D01*
X5510801Y-10207674D02*
X5510801Y-10255293D01*
X5510801Y-10255293D02*
X5501277Y-10293389D01*
X5501277Y-10293389D02*
X5491753Y-10312436D01*
X5491753Y-10312436D02*
X5482229Y-10321960D01*
X5482229Y-10321960D02*
X5463182Y-10331484D01*
X5463182Y-10331484D02*
X5444134Y-10331484D01*
X5444134Y-10331484D02*
X5425086Y-10321960D01*
X5425086Y-10321960D02*
X5415563Y-10312436D01*
X5415563Y-10312436D02*
X5406039Y-10293389D01*
X5406039Y-10293389D02*
X5396515Y-10255293D01*
X5396515Y-10255293D02*
X5396515Y-10207674D01*
X5396515Y-10207674D02*
X5406039Y-10169579D01*
X5406039Y-10169579D02*
X5415563Y-10150531D01*
X5415563Y-10150531D02*
X5425086Y-10141008D01*
X5425086Y-10141008D02*
X5444134Y-10131484D01*
X5596515Y-10312436D02*
X5606039Y-10321960D01*
X5606039Y-10321960D02*
X5596515Y-10331484D01*
X5596515Y-10331484D02*
X5586991Y-10321960D01*
X5586991Y-10321960D02*
X5596515Y-10312436D01*
X5596515Y-10312436D02*
X5596515Y-10331484D01*
X5729848Y-10131484D02*
X5748896Y-10131484D01*
X5748896Y-10131484D02*
X5767943Y-10141008D01*
X5767943Y-10141008D02*
X5777467Y-10150531D01*
X5777467Y-10150531D02*
X5786991Y-10169579D01*
X5786991Y-10169579D02*
X5796515Y-10207674D01*
X5796515Y-10207674D02*
X5796515Y-10255293D01*
X5796515Y-10255293D02*
X5786991Y-10293389D01*
X5786991Y-10293389D02*
X5777467Y-10312436D01*
X5777467Y-10312436D02*
X5767943Y-10321960D01*
X5767943Y-10321960D02*
X5748896Y-10331484D01*
X5748896Y-10331484D02*
X5729848Y-10331484D01*
X5729848Y-10331484D02*
X5710801Y-10321960D01*
X5710801Y-10321960D02*
X5701277Y-10312436D01*
X5701277Y-10312436D02*
X5691753Y-10293389D01*
X5691753Y-10293389D02*
X5682229Y-10255293D01*
X5682229Y-10255293D02*
X5682229Y-10207674D01*
X5682229Y-10207674D02*
X5691753Y-10169579D01*
X5691753Y-10169579D02*
X5701277Y-10150531D01*
X5701277Y-10150531D02*
X5710801Y-10141008D01*
X5710801Y-10141008D02*
X5729848Y-10131484D01*
X5910801Y-10217198D02*
X5891753Y-10207674D01*
X5891753Y-10207674D02*
X5882229Y-10198150D01*
X5882229Y-10198150D02*
X5872705Y-10179103D01*
X5872705Y-10179103D02*
X5872705Y-10169579D01*
X5872705Y-10169579D02*
X5882229Y-10150531D01*
X5882229Y-10150531D02*
X5891753Y-10141008D01*
X5891753Y-10141008D02*
X5910801Y-10131484D01*
X5910801Y-10131484D02*
X5948896Y-10131484D01*
X5948896Y-10131484D02*
X5967943Y-10141008D01*
X5967943Y-10141008D02*
X5977467Y-10150531D01*
X5977467Y-10150531D02*
X5986991Y-10169579D01*
X5986991Y-10169579D02*
X5986991Y-10179103D01*
X5986991Y-10179103D02*
X5977467Y-10198150D01*
X5977467Y-10198150D02*
X5967943Y-10207674D01*
X5967943Y-10207674D02*
X5948896Y-10217198D01*
X5948896Y-10217198D02*
X5910801Y-10217198D01*
X5910801Y-10217198D02*
X5891753Y-10226722D01*
X5891753Y-10226722D02*
X5882229Y-10236246D01*
X5882229Y-10236246D02*
X5872705Y-10255293D01*
X5872705Y-10255293D02*
X5872705Y-10293389D01*
X5872705Y-10293389D02*
X5882229Y-10312436D01*
X5882229Y-10312436D02*
X5891753Y-10321960D01*
X5891753Y-10321960D02*
X5910801Y-10331484D01*
X5910801Y-10331484D02*
X5948896Y-10331484D01*
X5948896Y-10331484D02*
X5967943Y-10321960D01*
X5967943Y-10321960D02*
X5977467Y-10312436D01*
X5977467Y-10312436D02*
X5986991Y-10293389D01*
X5986991Y-10293389D02*
X5986991Y-10255293D01*
X5986991Y-10255293D02*
X5977467Y-10236246D01*
X5977467Y-10236246D02*
X5967943Y-10226722D01*
X5967943Y-10226722D02*
X5948896Y-10217198D01*
X6158420Y-10131484D02*
X6120324Y-10131484D01*
X6120324Y-10131484D02*
X6101277Y-10141008D01*
X6101277Y-10141008D02*
X6091753Y-10150531D01*
X6091753Y-10150531D02*
X6072705Y-10179103D01*
X6072705Y-10179103D02*
X6063182Y-10217198D01*
X6063182Y-10217198D02*
X6063182Y-10293389D01*
X6063182Y-10293389D02*
X6072705Y-10312436D01*
X6072705Y-10312436D02*
X6082229Y-10321960D01*
X6082229Y-10321960D02*
X6101277Y-10331484D01*
X6101277Y-10331484D02*
X6139372Y-10331484D01*
X6139372Y-10331484D02*
X6158420Y-10321960D01*
X6158420Y-10321960D02*
X6167943Y-10312436D01*
X6167943Y-10312436D02*
X6177467Y-10293389D01*
X6177467Y-10293389D02*
X6177467Y-10245770D01*
X6177467Y-10245770D02*
X6167943Y-10226722D01*
X6167943Y-10226722D02*
X6158420Y-10217198D01*
X6158420Y-10217198D02*
X6139372Y-10207674D01*
X6139372Y-10207674D02*
X6101277Y-10207674D01*
X6101277Y-10207674D02*
X6082229Y-10217198D01*
X6082229Y-10217198D02*
X6072705Y-10226722D01*
X6072705Y-10226722D02*
X6063182Y-10245770D01*
X6348896Y-10131484D02*
X6310801Y-10131484D01*
X6310801Y-10131484D02*
X6291753Y-10141008D01*
X6291753Y-10141008D02*
X6282229Y-10150531D01*
X6282229Y-10150531D02*
X6263182Y-10179103D01*
X6263182Y-10179103D02*
X6253658Y-10217198D01*
X6253658Y-10217198D02*
X6253658Y-10293389D01*
X6253658Y-10293389D02*
X6263182Y-10312436D01*
X6263182Y-10312436D02*
X6272705Y-10321960D01*
X6272705Y-10321960D02*
X6291753Y-10331484D01*
X6291753Y-10331484D02*
X6329848Y-10331484D01*
X6329848Y-10331484D02*
X6348896Y-10321960D01*
X6348896Y-10321960D02*
X6358420Y-10312436D01*
X6358420Y-10312436D02*
X6367943Y-10293389D01*
X6367943Y-10293389D02*
X6367943Y-10245770D01*
X6367943Y-10245770D02*
X6358420Y-10226722D01*
X6358420Y-10226722D02*
X6348896Y-10217198D01*
X6348896Y-10217198D02*
X6329848Y-10207674D01*
X6329848Y-10207674D02*
X6291753Y-10207674D01*
X6291753Y-10207674D02*
X6272705Y-10217198D01*
X6272705Y-10217198D02*
X6263182Y-10226722D01*
X6263182Y-10226722D02*
X6253658Y-10245770D01*
X6444134Y-10131484D02*
X6444134Y-10169579D01*
X6520324Y-10131484D02*
X6520324Y-10169579D01*
X6815563Y-10407674D02*
X6806039Y-10398150D01*
X6806039Y-10398150D02*
X6786991Y-10369579D01*
X6786991Y-10369579D02*
X6777467Y-10350531D01*
X6777467Y-10350531D02*
X6767944Y-10321960D01*
X6767944Y-10321960D02*
X6758420Y-10274341D01*
X6758420Y-10274341D02*
X6758420Y-10236246D01*
X6758420Y-10236246D02*
X6767944Y-10188627D01*
X6767944Y-10188627D02*
X6777467Y-10160055D01*
X6777467Y-10160055D02*
X6786991Y-10141008D01*
X6786991Y-10141008D02*
X6806039Y-10112436D01*
X6806039Y-10112436D02*
X6815563Y-10102912D01*
X6977467Y-10198150D02*
X6977467Y-10331484D01*
X6929848Y-10121960D02*
X6882229Y-10264817D01*
X6882229Y-10264817D02*
X7006039Y-10264817D01*
X7234610Y-10331484D02*
X7234610Y-10131484D01*
X7320325Y-10331484D02*
X7320325Y-10226722D01*
X7320325Y-10226722D02*
X7310801Y-10207674D01*
X7310801Y-10207674D02*
X7291753Y-10198150D01*
X7291753Y-10198150D02*
X7263182Y-10198150D01*
X7263182Y-10198150D02*
X7244134Y-10207674D01*
X7244134Y-10207674D02*
X7234610Y-10217198D01*
X7444134Y-10331484D02*
X7425086Y-10321960D01*
X7425086Y-10321960D02*
X7415563Y-10312436D01*
X7415563Y-10312436D02*
X7406039Y-10293389D01*
X7406039Y-10293389D02*
X7406039Y-10236246D01*
X7406039Y-10236246D02*
X7415563Y-10217198D01*
X7415563Y-10217198D02*
X7425086Y-10207674D01*
X7425086Y-10207674D02*
X7444134Y-10198150D01*
X7444134Y-10198150D02*
X7472706Y-10198150D01*
X7472706Y-10198150D02*
X7491753Y-10207674D01*
X7491753Y-10207674D02*
X7501277Y-10217198D01*
X7501277Y-10217198D02*
X7510801Y-10236246D01*
X7510801Y-10236246D02*
X7510801Y-10293389D01*
X7510801Y-10293389D02*
X7501277Y-10312436D01*
X7501277Y-10312436D02*
X7491753Y-10321960D01*
X7491753Y-10321960D02*
X7472706Y-10331484D01*
X7472706Y-10331484D02*
X7444134Y-10331484D01*
X7625086Y-10331484D02*
X7606039Y-10321960D01*
X7606039Y-10321960D02*
X7596515Y-10302912D01*
X7596515Y-10302912D02*
X7596515Y-10131484D01*
X7777467Y-10321960D02*
X7758420Y-10331484D01*
X7758420Y-10331484D02*
X7720325Y-10331484D01*
X7720325Y-10331484D02*
X7701277Y-10321960D01*
X7701277Y-10321960D02*
X7691753Y-10302912D01*
X7691753Y-10302912D02*
X7691753Y-10226722D01*
X7691753Y-10226722D02*
X7701277Y-10207674D01*
X7701277Y-10207674D02*
X7720325Y-10198150D01*
X7720325Y-10198150D02*
X7758420Y-10198150D01*
X7758420Y-10198150D02*
X7777467Y-10207674D01*
X7777467Y-10207674D02*
X7786991Y-10226722D01*
X7786991Y-10226722D02*
X7786991Y-10245770D01*
X7786991Y-10245770D02*
X7691753Y-10264817D01*
X7863182Y-10321960D02*
X7882229Y-10331484D01*
X7882229Y-10331484D02*
X7920325Y-10331484D01*
X7920325Y-10331484D02*
X7939372Y-10321960D01*
X7939372Y-10321960D02*
X7948896Y-10302912D01*
X7948896Y-10302912D02*
X7948896Y-10293389D01*
X7948896Y-10293389D02*
X7939372Y-10274341D01*
X7939372Y-10274341D02*
X7920325Y-10264817D01*
X7920325Y-10264817D02*
X7891753Y-10264817D01*
X7891753Y-10264817D02*
X7872706Y-10255293D01*
X7872706Y-10255293D02*
X7863182Y-10236246D01*
X7863182Y-10236246D02*
X7863182Y-10226722D01*
X7863182Y-10226722D02*
X7872706Y-10207674D01*
X7872706Y-10207674D02*
X7891753Y-10198150D01*
X7891753Y-10198150D02*
X7920325Y-10198150D01*
X7920325Y-10198150D02*
X7939372Y-10207674D01*
X8015563Y-10407674D02*
X8025087Y-10398150D01*
X8025087Y-10398150D02*
X8044134Y-10369579D01*
X8044134Y-10369579D02*
X8053658Y-10350531D01*
X8053658Y-10350531D02*
X8063182Y-10321960D01*
X8063182Y-10321960D02*
X8072706Y-10274341D01*
X8072706Y-10274341D02*
X8072706Y-10236246D01*
X8072706Y-10236246D02*
X8063182Y-10188627D01*
X8063182Y-10188627D02*
X8053658Y-10160055D01*
X8053658Y-10160055D02*
X8044134Y-10141008D01*
X8044134Y-10141008D02*
X8025087Y-10112436D01*
X8025087Y-10112436D02*
X8015563Y-10102912D01*
X3211211Y-10630711D02*
X3211211Y-10489289D01*
X3069788Y-10489289D01*
X3069788Y-10630711D01*
X3211211Y-10630711D01*
X3240500Y-10560000D02*
G75*
G02*
X3040500Y-10560000I-100000J0D01*
G01*
X3040500Y-10560000D02*
G75*
G02*
X3240500Y-10560000I100000J0D01*
G01*
X3491753Y-10470531D02*
X3501277Y-10461008D01*
X3501277Y-10461008D02*
X3520324Y-10451484D01*
X3520324Y-10451484D02*
X3567943Y-10451484D01*
X3567943Y-10451484D02*
X3586991Y-10461008D01*
X3586991Y-10461008D02*
X3596515Y-10470531D01*
X3596515Y-10470531D02*
X3606038Y-10489579D01*
X3606038Y-10489579D02*
X3606038Y-10508627D01*
X3606038Y-10508627D02*
X3596515Y-10537198D01*
X3596515Y-10537198D02*
X3482229Y-10651484D01*
X3482229Y-10651484D02*
X3606038Y-10651484D01*
X3691753Y-10632436D02*
X3701277Y-10641960D01*
X3701277Y-10641960D02*
X3691753Y-10651484D01*
X3691753Y-10651484D02*
X3682229Y-10641960D01*
X3682229Y-10641960D02*
X3691753Y-10632436D01*
X3691753Y-10632436D02*
X3691753Y-10651484D01*
X3767943Y-10451484D02*
X3901277Y-10451484D01*
X3901277Y-10451484D02*
X3815562Y-10651484D01*
X4015562Y-10451484D02*
X4034610Y-10451484D01*
X4034610Y-10451484D02*
X4053658Y-10461008D01*
X4053658Y-10461008D02*
X4063181Y-10470531D01*
X4063181Y-10470531D02*
X4072705Y-10489579D01*
X4072705Y-10489579D02*
X4082229Y-10527674D01*
X4082229Y-10527674D02*
X4082229Y-10575293D01*
X4082229Y-10575293D02*
X4072705Y-10613389D01*
X4072705Y-10613389D02*
X4063181Y-10632436D01*
X4063181Y-10632436D02*
X4053658Y-10641960D01*
X4053658Y-10641960D02*
X4034610Y-10651484D01*
X4034610Y-10651484D02*
X4015562Y-10651484D01*
X4015562Y-10651484D02*
X3996515Y-10641960D01*
X3996515Y-10641960D02*
X3986991Y-10632436D01*
X3986991Y-10632436D02*
X3977467Y-10613389D01*
X3977467Y-10613389D02*
X3967943Y-10575293D01*
X3967943Y-10575293D02*
X3967943Y-10527674D01*
X3967943Y-10527674D02*
X3977467Y-10489579D01*
X3977467Y-10489579D02*
X3986991Y-10470531D01*
X3986991Y-10470531D02*
X3996515Y-10461008D01*
X3996515Y-10461008D02*
X4015562Y-10451484D01*
X4206039Y-10451484D02*
X4225086Y-10451484D01*
X4225086Y-10451484D02*
X4244134Y-10461008D01*
X4244134Y-10461008D02*
X4253658Y-10470531D01*
X4253658Y-10470531D02*
X4263181Y-10489579D01*
X4263181Y-10489579D02*
X4272705Y-10527674D01*
X4272705Y-10527674D02*
X4272705Y-10575293D01*
X4272705Y-10575293D02*
X4263181Y-10613389D01*
X4263181Y-10613389D02*
X4253658Y-10632436D01*
X4253658Y-10632436D02*
X4244134Y-10641960D01*
X4244134Y-10641960D02*
X4225086Y-10651484D01*
X4225086Y-10651484D02*
X4206039Y-10651484D01*
X4206039Y-10651484D02*
X4186991Y-10641960D01*
X4186991Y-10641960D02*
X4177467Y-10632436D01*
X4177467Y-10632436D02*
X4167943Y-10613389D01*
X4167943Y-10613389D02*
X4158419Y-10575293D01*
X4158419Y-10575293D02*
X4158419Y-10527674D01*
X4158419Y-10527674D02*
X4167943Y-10489579D01*
X4167943Y-10489579D02*
X4177467Y-10470531D01*
X4177467Y-10470531D02*
X4186991Y-10461008D01*
X4186991Y-10461008D02*
X4206039Y-10451484D01*
X4358420Y-10651484D02*
X4358420Y-10518150D01*
X4358420Y-10537198D02*
X4367943Y-10527674D01*
X4367943Y-10527674D02*
X4386991Y-10518150D01*
X4386991Y-10518150D02*
X4415562Y-10518150D01*
X4415562Y-10518150D02*
X4434610Y-10527674D01*
X4434610Y-10527674D02*
X4444134Y-10546722D01*
X4444134Y-10546722D02*
X4444134Y-10651484D01*
X4444134Y-10546722D02*
X4453658Y-10527674D01*
X4453658Y-10527674D02*
X4472705Y-10518150D01*
X4472705Y-10518150D02*
X4501277Y-10518150D01*
X4501277Y-10518150D02*
X4520324Y-10527674D01*
X4520324Y-10527674D02*
X4529848Y-10546722D01*
X4529848Y-10546722D02*
X4529848Y-10651484D01*
X4625086Y-10651484D02*
X4625086Y-10518150D01*
X4625086Y-10537198D02*
X4634610Y-10527674D01*
X4634610Y-10527674D02*
X4653658Y-10518150D01*
X4653658Y-10518150D02*
X4682229Y-10518150D01*
X4682229Y-10518150D02*
X4701277Y-10527674D01*
X4701277Y-10527674D02*
X4710801Y-10546722D01*
X4710801Y-10546722D02*
X4710801Y-10651484D01*
X4710801Y-10546722D02*
X4720324Y-10527674D01*
X4720324Y-10527674D02*
X4739372Y-10518150D01*
X4739372Y-10518150D02*
X4767943Y-10518150D01*
X4767943Y-10518150D02*
X4786991Y-10527674D01*
X4786991Y-10527674D02*
X4796515Y-10546722D01*
X4796515Y-10546722D02*
X4796515Y-10651484D01*
X5186991Y-10441960D02*
X5015563Y-10699103D01*
X5444134Y-10451484D02*
X5463182Y-10451484D01*
X5463182Y-10451484D02*
X5482229Y-10461008D01*
X5482229Y-10461008D02*
X5491753Y-10470531D01*
X5491753Y-10470531D02*
X5501277Y-10489579D01*
X5501277Y-10489579D02*
X5510801Y-10527674D01*
X5510801Y-10527674D02*
X5510801Y-10575293D01*
X5510801Y-10575293D02*
X5501277Y-10613389D01*
X5501277Y-10613389D02*
X5491753Y-10632436D01*
X5491753Y-10632436D02*
X5482229Y-10641960D01*
X5482229Y-10641960D02*
X5463182Y-10651484D01*
X5463182Y-10651484D02*
X5444134Y-10651484D01*
X5444134Y-10651484D02*
X5425086Y-10641960D01*
X5425086Y-10641960D02*
X5415563Y-10632436D01*
X5415563Y-10632436D02*
X5406039Y-10613389D01*
X5406039Y-10613389D02*
X5396515Y-10575293D01*
X5396515Y-10575293D02*
X5396515Y-10527674D01*
X5396515Y-10527674D02*
X5406039Y-10489579D01*
X5406039Y-10489579D02*
X5415563Y-10470531D01*
X5415563Y-10470531D02*
X5425086Y-10461008D01*
X5425086Y-10461008D02*
X5444134Y-10451484D01*
X5596515Y-10632436D02*
X5606039Y-10641960D01*
X5606039Y-10641960D02*
X5596515Y-10651484D01*
X5596515Y-10651484D02*
X5586991Y-10641960D01*
X5586991Y-10641960D02*
X5596515Y-10632436D01*
X5596515Y-10632436D02*
X5596515Y-10651484D01*
X5796515Y-10651484D02*
X5682229Y-10651484D01*
X5739372Y-10651484D02*
X5739372Y-10451484D01*
X5739372Y-10451484D02*
X5720324Y-10480055D01*
X5720324Y-10480055D02*
X5701277Y-10499103D01*
X5701277Y-10499103D02*
X5682229Y-10508627D01*
X5920324Y-10451484D02*
X5939372Y-10451484D01*
X5939372Y-10451484D02*
X5958420Y-10461008D01*
X5958420Y-10461008D02*
X5967943Y-10470531D01*
X5967943Y-10470531D02*
X5977467Y-10489579D01*
X5977467Y-10489579D02*
X5986991Y-10527674D01*
X5986991Y-10527674D02*
X5986991Y-10575293D01*
X5986991Y-10575293D02*
X5977467Y-10613389D01*
X5977467Y-10613389D02*
X5967943Y-10632436D01*
X5967943Y-10632436D02*
X5958420Y-10641960D01*
X5958420Y-10641960D02*
X5939372Y-10651484D01*
X5939372Y-10651484D02*
X5920324Y-10651484D01*
X5920324Y-10651484D02*
X5901277Y-10641960D01*
X5901277Y-10641960D02*
X5891753Y-10632436D01*
X5891753Y-10632436D02*
X5882229Y-10613389D01*
X5882229Y-10613389D02*
X5872705Y-10575293D01*
X5872705Y-10575293D02*
X5872705Y-10527674D01*
X5872705Y-10527674D02*
X5882229Y-10489579D01*
X5882229Y-10489579D02*
X5891753Y-10470531D01*
X5891753Y-10470531D02*
X5901277Y-10461008D01*
X5901277Y-10461008D02*
X5920324Y-10451484D01*
X6158420Y-10451484D02*
X6120324Y-10451484D01*
X6120324Y-10451484D02*
X6101277Y-10461008D01*
X6101277Y-10461008D02*
X6091753Y-10470531D01*
X6091753Y-10470531D02*
X6072705Y-10499103D01*
X6072705Y-10499103D02*
X6063182Y-10537198D01*
X6063182Y-10537198D02*
X6063182Y-10613389D01*
X6063182Y-10613389D02*
X6072705Y-10632436D01*
X6072705Y-10632436D02*
X6082229Y-10641960D01*
X6082229Y-10641960D02*
X6101277Y-10651484D01*
X6101277Y-10651484D02*
X6139372Y-10651484D01*
X6139372Y-10651484D02*
X6158420Y-10641960D01*
X6158420Y-10641960D02*
X6167943Y-10632436D01*
X6167943Y-10632436D02*
X6177467Y-10613389D01*
X6177467Y-10613389D02*
X6177467Y-10565770D01*
X6177467Y-10565770D02*
X6167943Y-10546722D01*
X6167943Y-10546722D02*
X6158420Y-10537198D01*
X6158420Y-10537198D02*
X6139372Y-10527674D01*
X6139372Y-10527674D02*
X6101277Y-10527674D01*
X6101277Y-10527674D02*
X6082229Y-10537198D01*
X6082229Y-10537198D02*
X6072705Y-10546722D01*
X6072705Y-10546722D02*
X6063182Y-10565770D01*
X6244134Y-10451484D02*
X6367943Y-10451484D01*
X6367943Y-10451484D02*
X6301277Y-10527674D01*
X6301277Y-10527674D02*
X6329848Y-10527674D01*
X6329848Y-10527674D02*
X6348896Y-10537198D01*
X6348896Y-10537198D02*
X6358420Y-10546722D01*
X6358420Y-10546722D02*
X6367943Y-10565770D01*
X6367943Y-10565770D02*
X6367943Y-10613389D01*
X6367943Y-10613389D02*
X6358420Y-10632436D01*
X6358420Y-10632436D02*
X6348896Y-10641960D01*
X6348896Y-10641960D02*
X6329848Y-10651484D01*
X6329848Y-10651484D02*
X6272705Y-10651484D01*
X6272705Y-10651484D02*
X6253658Y-10641960D01*
X6253658Y-10641960D02*
X6244134Y-10632436D01*
X6444134Y-10451484D02*
X6444134Y-10489579D01*
X6520324Y-10451484D02*
X6520324Y-10489579D01*
X6815563Y-10727674D02*
X6806039Y-10718150D01*
X6806039Y-10718150D02*
X6786991Y-10689579D01*
X6786991Y-10689579D02*
X6777467Y-10670531D01*
X6777467Y-10670531D02*
X6767944Y-10641960D01*
X6767944Y-10641960D02*
X6758420Y-10594341D01*
X6758420Y-10594341D02*
X6758420Y-10556246D01*
X6758420Y-10556246D02*
X6767944Y-10508627D01*
X6767944Y-10508627D02*
X6777467Y-10480055D01*
X6777467Y-10480055D02*
X6786991Y-10461008D01*
X6786991Y-10461008D02*
X6806039Y-10432436D01*
X6806039Y-10432436D02*
X6815563Y-10422912D01*
X6882229Y-10470531D02*
X6891753Y-10461008D01*
X6891753Y-10461008D02*
X6910801Y-10451484D01*
X6910801Y-10451484D02*
X6958420Y-10451484D01*
X6958420Y-10451484D02*
X6977467Y-10461008D01*
X6977467Y-10461008D02*
X6986991Y-10470531D01*
X6986991Y-10470531D02*
X6996515Y-10489579D01*
X6996515Y-10489579D02*
X6996515Y-10508627D01*
X6996515Y-10508627D02*
X6986991Y-10537198D01*
X6986991Y-10537198D02*
X6872705Y-10651484D01*
X6872705Y-10651484D02*
X6996515Y-10651484D01*
X7234610Y-10651484D02*
X7234610Y-10451484D01*
X7320325Y-10651484D02*
X7320325Y-10546722D01*
X7320325Y-10546722D02*
X7310801Y-10527674D01*
X7310801Y-10527674D02*
X7291753Y-10518150D01*
X7291753Y-10518150D02*
X7263182Y-10518150D01*
X7263182Y-10518150D02*
X7244134Y-10527674D01*
X7244134Y-10527674D02*
X7234610Y-10537198D01*
X7444134Y-10651484D02*
X7425086Y-10641960D01*
X7425086Y-10641960D02*
X7415563Y-10632436D01*
X7415563Y-10632436D02*
X7406039Y-10613389D01*
X7406039Y-10613389D02*
X7406039Y-10556246D01*
X7406039Y-10556246D02*
X7415563Y-10537198D01*
X7415563Y-10537198D02*
X7425086Y-10527674D01*
X7425086Y-10527674D02*
X7444134Y-10518150D01*
X7444134Y-10518150D02*
X7472706Y-10518150D01*
X7472706Y-10518150D02*
X7491753Y-10527674D01*
X7491753Y-10527674D02*
X7501277Y-10537198D01*
X7501277Y-10537198D02*
X7510801Y-10556246D01*
X7510801Y-10556246D02*
X7510801Y-10613389D01*
X7510801Y-10613389D02*
X7501277Y-10632436D01*
X7501277Y-10632436D02*
X7491753Y-10641960D01*
X7491753Y-10641960D02*
X7472706Y-10651484D01*
X7472706Y-10651484D02*
X7444134Y-10651484D01*
X7625086Y-10651484D02*
X7606039Y-10641960D01*
X7606039Y-10641960D02*
X7596515Y-10622912D01*
X7596515Y-10622912D02*
X7596515Y-10451484D01*
X7777467Y-10641960D02*
X7758420Y-10651484D01*
X7758420Y-10651484D02*
X7720325Y-10651484D01*
X7720325Y-10651484D02*
X7701277Y-10641960D01*
X7701277Y-10641960D02*
X7691753Y-10622912D01*
X7691753Y-10622912D02*
X7691753Y-10546722D01*
X7691753Y-10546722D02*
X7701277Y-10527674D01*
X7701277Y-10527674D02*
X7720325Y-10518150D01*
X7720325Y-10518150D02*
X7758420Y-10518150D01*
X7758420Y-10518150D02*
X7777467Y-10527674D01*
X7777467Y-10527674D02*
X7786991Y-10546722D01*
X7786991Y-10546722D02*
X7786991Y-10565770D01*
X7786991Y-10565770D02*
X7691753Y-10584817D01*
X7863182Y-10641960D02*
X7882229Y-10651484D01*
X7882229Y-10651484D02*
X7920325Y-10651484D01*
X7920325Y-10651484D02*
X7939372Y-10641960D01*
X7939372Y-10641960D02*
X7948896Y-10622912D01*
X7948896Y-10622912D02*
X7948896Y-10613389D01*
X7948896Y-10613389D02*
X7939372Y-10594341D01*
X7939372Y-10594341D02*
X7920325Y-10584817D01*
X7920325Y-10584817D02*
X7891753Y-10584817D01*
X7891753Y-10584817D02*
X7872706Y-10575293D01*
X7872706Y-10575293D02*
X7863182Y-10556246D01*
X7863182Y-10556246D02*
X7863182Y-10546722D01*
X7863182Y-10546722D02*
X7872706Y-10527674D01*
X7872706Y-10527674D02*
X7891753Y-10518150D01*
X7891753Y-10518150D02*
X7920325Y-10518150D01*
X7920325Y-10518150D02*
X7939372Y-10527674D01*
X8015563Y-10727674D02*
X8025087Y-10718150D01*
X8025087Y-10718150D02*
X8044134Y-10689579D01*
X8044134Y-10689579D02*
X8053658Y-10670531D01*
X8053658Y-10670531D02*
X8063182Y-10641960D01*
X8063182Y-10641960D02*
X8072706Y-10594341D01*
X8072706Y-10594341D02*
X8072706Y-10556246D01*
X8072706Y-10556246D02*
X8063182Y-10508627D01*
X8063182Y-10508627D02*
X8053658Y-10480055D01*
X8053658Y-10480055D02*
X8044134Y-10461008D01*
X8044134Y-10461008D02*
X8025087Y-10432436D01*
X8025087Y-10432436D02*
X8015563Y-10422912D01*
M02*
