%TF.GenerationSoftware,KiCad,Pcbnew,8.0.2*%
%TF.CreationDate,2024-06-24T01:17:51+08:00*%
%TF.ProjectId,bldcDriver,626c6463-4472-4697-9665-722e6b696361,rev?*%
%TF.SameCoordinates,Original*%
%TF.FileFunction,Copper,L4,Bot*%
%TF.FilePolarity,Positive*%
%FSLAX46Y46*%
G04 Gerber Fmt 4.6, Leading zero omitted, Abs format (unit mm)*
G04 Created by KiCad (PCBNEW 8.0.2) date 2024-06-24 01:17:51*
%MOMM*%
%LPD*%
G01*
G04 APERTURE LIST*
G04 Aperture macros list*
%AMRoundRect*
0 Rectangle with rounded corners*
0 $1 Rounding radius*
0 $2 $3 $4 $5 $6 $7 $8 $9 X,Y pos of 4 corners*
0 Add a 4 corners polygon primitive as box body*
4,1,4,$2,$3,$4,$5,$6,$7,$8,$9,$2,$3,0*
0 Add four circle primitives for the rounded corners*
1,1,$1+$1,$2,$3*
1,1,$1+$1,$4,$5*
1,1,$1+$1,$6,$7*
1,1,$1+$1,$8,$9*
0 Add four rect primitives between the rounded corners*
20,1,$1+$1,$2,$3,$4,$5,0*
20,1,$1+$1,$4,$5,$6,$7,0*
20,1,$1+$1,$6,$7,$8,$9,0*
20,1,$1+$1,$8,$9,$2,$3,0*%
G04 Aperture macros list end*
%TA.AperFunction,SMDPad,CuDef*%
%ADD10RoundRect,0.250000X-0.337500X-0.475000X0.337500X-0.475000X0.337500X0.475000X-0.337500X0.475000X0*%
%TD*%
%TA.AperFunction,SMDPad,CuDef*%
%ADD11RoundRect,0.250000X0.475000X-0.337500X0.475000X0.337500X-0.475000X0.337500X-0.475000X-0.337500X0*%
%TD*%
%TA.AperFunction,SMDPad,CuDef*%
%ADD12RoundRect,0.250000X-0.475000X0.337500X-0.475000X-0.337500X0.475000X-0.337500X0.475000X0.337500X0*%
%TD*%
%TA.AperFunction,ComponentPad*%
%ADD13C,1.524000*%
%TD*%
%TA.AperFunction,ComponentPad*%
%ADD14C,4.400000*%
%TD*%
%TA.AperFunction,ComponentPad*%
%ADD15R,3.800000X3.800000*%
%TD*%
%TA.AperFunction,ComponentPad*%
%ADD16C,3.800000*%
%TD*%
%TA.AperFunction,SMDPad,CuDef*%
%ADD17RoundRect,0.237500X0.237500X-0.250000X0.237500X0.250000X-0.237500X0.250000X-0.237500X-0.250000X0*%
%TD*%
%TA.AperFunction,SMDPad,CuDef*%
%ADD18RoundRect,0.237500X-0.250000X-0.237500X0.250000X-0.237500X0.250000X0.237500X-0.250000X0.237500X0*%
%TD*%
%TA.AperFunction,SMDPad,CuDef*%
%ADD19RoundRect,0.237500X0.250000X0.237500X-0.250000X0.237500X-0.250000X-0.237500X0.250000X-0.237500X0*%
%TD*%
%TA.AperFunction,SMDPad,CuDef*%
%ADD20RoundRect,0.237500X-0.237500X0.250000X-0.237500X-0.250000X0.237500X-0.250000X0.237500X0.250000X0*%
%TD*%
%TA.AperFunction,SMDPad,CuDef*%
%ADD21RoundRect,0.250000X0.650000X-0.412500X0.650000X0.412500X-0.650000X0.412500X-0.650000X-0.412500X0*%
%TD*%
%TA.AperFunction,SMDPad,CuDef*%
%ADD22R,1.200000X1.400000*%
%TD*%
%TA.AperFunction,SMDPad,CuDef*%
%ADD23RoundRect,0.237500X0.300000X0.237500X-0.300000X0.237500X-0.300000X-0.237500X0.300000X-0.237500X0*%
%TD*%
%TA.AperFunction,SMDPad,CuDef*%
%ADD24R,0.700000X0.400000*%
%TD*%
%TA.AperFunction,SMDPad,CuDef*%
%ADD25R,1.800000X2.480000*%
%TD*%
%TA.AperFunction,SMDPad,CuDef*%
%ADD26RoundRect,0.237500X0.237500X-0.300000X0.237500X0.300000X-0.237500X0.300000X-0.237500X-0.300000X0*%
%TD*%
%TA.AperFunction,SMDPad,CuDef*%
%ADD27RoundRect,0.237500X-0.237500X0.300000X-0.237500X-0.300000X0.237500X-0.300000X0.237500X0.300000X0*%
%TD*%
%TA.AperFunction,SMDPad,CuDef*%
%ADD28RoundRect,0.225000X-0.225000X-0.375000X0.225000X-0.375000X0.225000X0.375000X-0.225000X0.375000X0*%
%TD*%
%TA.AperFunction,SMDPad,CuDef*%
%ADD29RoundRect,0.225000X0.225000X0.375000X-0.225000X0.375000X-0.225000X-0.375000X0.225000X-0.375000X0*%
%TD*%
%TA.AperFunction,SMDPad,CuDef*%
%ADD30RoundRect,0.150000X0.825000X0.150000X-0.825000X0.150000X-0.825000X-0.150000X0.825000X-0.150000X0*%
%TD*%
%TA.AperFunction,SMDPad,CuDef*%
%ADD31RoundRect,0.250000X0.412500X0.650000X-0.412500X0.650000X-0.412500X-0.650000X0.412500X-0.650000X0*%
%TD*%
%TA.AperFunction,SMDPad,CuDef*%
%ADD32RoundRect,0.237500X-0.300000X-0.237500X0.300000X-0.237500X0.300000X0.237500X-0.300000X0.237500X0*%
%TD*%
%TA.AperFunction,SMDPad,CuDef*%
%ADD33R,0.203200X0.558800*%
%TD*%
%TA.AperFunction,SMDPad,CuDef*%
%ADD34R,0.558800X0.203200*%
%TD*%
%TA.AperFunction,SMDPad,CuDef*%
%ADD35R,1.600200X1.752600*%
%TD*%
%TA.AperFunction,SMDPad,CuDef*%
%ADD36RoundRect,0.062500X-0.062500X0.375000X-0.062500X-0.375000X0.062500X-0.375000X0.062500X0.375000X0*%
%TD*%
%TA.AperFunction,SMDPad,CuDef*%
%ADD37RoundRect,0.062500X-0.375000X0.062500X-0.375000X-0.062500X0.375000X-0.062500X0.375000X0.062500X0*%
%TD*%
%TA.AperFunction,HeatsinkPad*%
%ADD38R,5.600000X5.600000*%
%TD*%
%TA.AperFunction,SMDPad,CuDef*%
%ADD39RoundRect,0.250000X-0.412500X-0.650000X0.412500X-0.650000X0.412500X0.650000X-0.412500X0.650000X0*%
%TD*%
%TA.AperFunction,SMDPad,CuDef*%
%ADD40RoundRect,0.250000X-0.400000X-0.625000X0.400000X-0.625000X0.400000X0.625000X-0.400000X0.625000X0*%
%TD*%
%TA.AperFunction,SMDPad,CuDef*%
%ADD41RoundRect,0.237500X0.287500X0.237500X-0.287500X0.237500X-0.287500X-0.237500X0.287500X-0.237500X0*%
%TD*%
%TA.AperFunction,SMDPad,CuDef*%
%ADD42R,1.620000X2.046000*%
%TD*%
%TA.AperFunction,SMDPad,CuDef*%
%ADD43RoundRect,0.250000X-0.625000X0.400000X-0.625000X-0.400000X0.625000X-0.400000X0.625000X0.400000X0*%
%TD*%
%TA.AperFunction,SMDPad,CuDef*%
%ADD44RoundRect,0.250000X0.400000X0.625000X-0.400000X0.625000X-0.400000X-0.625000X0.400000X-0.625000X0*%
%TD*%
%TA.AperFunction,SMDPad,CuDef*%
%ADD45R,3.900000X2.200000*%
%TD*%
%TA.AperFunction,SMDPad,CuDef*%
%ADD46O,1.742000X0.364000*%
%TD*%
%TA.AperFunction,SMDPad,CuDef*%
%ADD47R,1.400000X1.200000*%
%TD*%
%TA.AperFunction,SMDPad,CuDef*%
%ADD48R,1.550000X0.600000*%
%TD*%
%TA.AperFunction,ComponentPad*%
%ADD49C,0.600000*%
%TD*%
%TA.AperFunction,SMDPad,CuDef*%
%ADD50R,2.600000X3.100000*%
%TD*%
%TA.AperFunction,SMDPad,CuDef*%
%ADD51R,2.950000X4.500000*%
%TD*%
%TA.AperFunction,ViaPad*%
%ADD52C,0.500000*%
%TD*%
%TA.AperFunction,ViaPad*%
%ADD53C,1.200000*%
%TD*%
%TA.AperFunction,ViaPad*%
%ADD54C,0.900000*%
%TD*%
%TA.AperFunction,ViaPad*%
%ADD55C,0.700000*%
%TD*%
%TA.AperFunction,ViaPad*%
%ADD56C,0.600000*%
%TD*%
%TA.AperFunction,ViaPad*%
%ADD57C,2.000000*%
%TD*%
%TA.AperFunction,ViaPad*%
%ADD58C,0.800000*%
%TD*%
%TA.AperFunction,Conductor*%
%ADD59C,0.250000*%
%TD*%
%TA.AperFunction,Conductor*%
%ADD60C,0.600000*%
%TD*%
%TA.AperFunction,Conductor*%
%ADD61C,0.300000*%
%TD*%
%TA.AperFunction,Conductor*%
%ADD62C,0.500000*%
%TD*%
%TA.AperFunction,Conductor*%
%ADD63C,1.000000*%
%TD*%
%TA.AperFunction,Conductor*%
%ADD64C,0.350000*%
%TD*%
%TA.AperFunction,Conductor*%
%ADD65C,0.150000*%
%TD*%
%TA.AperFunction,Conductor*%
%ADD66C,0.400000*%
%TD*%
%TA.AperFunction,Conductor*%
%ADD67C,2.000000*%
%TD*%
%TA.AperFunction,Conductor*%
%ADD68C,0.700000*%
%TD*%
G04 APERTURE END LIST*
D10*
%TO.P,C23,1*%
%TO.N,Net-(U9-VDD)*%
X77962500Y-32800000D03*
%TO.P,C23,2*%
%TO.N,GNDD*%
X80037500Y-32800000D03*
%TD*%
D11*
%TO.P,C15,1*%
%TO.N,+BATT*%
X94800000Y-60975000D03*
%TO.P,C15,2*%
%TO.N,GNDPWR*%
X94800000Y-58900000D03*
%TD*%
D12*
%TO.P,C9,1*%
%TO.N,GNDD*%
X75767500Y-59312500D03*
%TO.P,C9,2*%
%TO.N,/OP_VCC*%
X75767500Y-61387500D03*
%TD*%
D13*
%TO.P,RV1,1,1*%
%TO.N,+3V3*%
X103540000Y-34460000D03*
%TO.P,RV1,2,2*%
%TO.N,/ADC1_IN2*%
X101000000Y-37000000D03*
%TO.P,RV1,3,3*%
%TO.N,GNDD*%
X98460000Y-34460000D03*
%TD*%
D14*
%TO.P,,1*%
%TO.N,N/C*%
X34960000Y-33240000D03*
%TD*%
%TO.P,,1*%
%TO.N,N/C*%
X119660000Y-33240000D03*
%TD*%
D15*
%TO.P,J1,1,Pin_1*%
%TO.N,GNDPWR*%
X60000000Y-47900000D03*
D16*
%TO.P,J1,2,Pin_2*%
%TO.N,+BATT*%
X55000000Y-47900000D03*
%TD*%
D14*
%TO.P,,1*%
%TO.N,N/C*%
X119660000Y-69640000D03*
%TD*%
%TO.P,,1*%
%TO.N,N/C*%
X34960000Y-69640000D03*
%TD*%
D17*
%TO.P,R20,1*%
%TO.N,Net-(U6A--)*%
X88500000Y-66225000D03*
%TO.P,R20,2*%
%TO.N,/2CS1+*%
X88500000Y-64400000D03*
%TD*%
D18*
%TO.P,R2,1*%
%TO.N,Net-(U3-VSENSE)*%
X61978500Y-43054000D03*
%TO.P,R2,2*%
%TO.N,GNDPWR*%
X63803500Y-43054000D03*
%TD*%
D19*
%TO.P,R23,1*%
%TO.N,GNDPWR*%
X53642500Y-68190000D03*
%TO.P,R23,2*%
%TO.N,/1CS1-*%
X51817500Y-68190000D03*
%TD*%
D20*
%TO.P,R3,1*%
%TO.N,+3V3*%
X43281000Y-33016500D03*
%TO.P,R3,2*%
%TO.N,Net-(D8-A)*%
X43281000Y-34841500D03*
%TD*%
D21*
%TO.P,C6,1*%
%TO.N,GNDPWR*%
X49341000Y-36366500D03*
%TO.P,C6,2*%
%TO.N,+3V3*%
X49341000Y-33241500D03*
%TD*%
D22*
%TO.P,D2,1,K*%
%TO.N,Net-(D2-K)*%
X98500000Y-66665000D03*
%TO.P,D2,2,A*%
%TO.N,+BATT*%
X98500000Y-70135000D03*
%TD*%
D23*
%TO.P,C18,1*%
%TO.N,+3V3*%
X75525000Y-54350000D03*
%TO.P,C18,2*%
%TO.N,GNDD*%
X73800000Y-54350000D03*
%TD*%
D18*
%TO.P,R8,1*%
%TO.N,/inverter/1HO3*%
X40890000Y-68900000D03*
%TO.P,R8,2*%
%TO.N,Net-(D5-A)*%
X42715000Y-68900000D03*
%TD*%
D24*
%TO.P,Q11,1,S*%
%TO.N,/inverter/2VS3*%
X111982500Y-56404476D03*
%TO.P,Q11,2,S*%
X111982500Y-55754476D03*
%TO.P,Q11,3,S*%
X111982500Y-55104476D03*
%TO.P,Q11,4,G*%
%TO.N,Net-(D20-A)*%
X111982500Y-54454476D03*
%TO.P,Q11,5,D*%
%TO.N,+BATT*%
X114952500Y-54454476D03*
%TO.P,Q11,6,D*%
X114952500Y-55104476D03*
%TO.P,Q11,7,D*%
X114952500Y-55754476D03*
%TO.P,Q11,8,D*%
X114952500Y-56404476D03*
D25*
X113752500Y-55429476D03*
%TD*%
D19*
%TO.P,R17,1*%
%TO.N,/inverter/2HO3*%
X114265000Y-53071476D03*
%TO.P,R17,2*%
%TO.N,Net-(D20-A)*%
X112440000Y-53071476D03*
%TD*%
D26*
%TO.P,C4,1*%
%TO.N,Net-(U3-BOOT)*%
X61991000Y-39116500D03*
%TO.P,C4,2*%
%TO.N,Net-(D1-K)*%
X61991000Y-37391500D03*
%TD*%
D23*
%TO.P,C41,1*%
%TO.N,GNDD*%
X77900000Y-62900000D03*
%TO.P,C41,2*%
%TO.N,/ADC1_IN11*%
X76175000Y-62900000D03*
%TD*%
D24*
%TO.P,Q9,1,S*%
%TO.N,/inverter/2VS2*%
X111730000Y-63775000D03*
%TO.P,Q9,2,S*%
X111730000Y-63125000D03*
%TO.P,Q9,3,S*%
X111730000Y-62475000D03*
%TO.P,Q9,4,G*%
%TO.N,Net-(D18-A)*%
X111730000Y-61825000D03*
%TO.P,Q9,5,D*%
%TO.N,+BATT*%
X114700000Y-61825000D03*
%TO.P,Q9,6,D*%
X114700000Y-62475000D03*
%TO.P,Q9,7,D*%
X114700000Y-63125000D03*
%TO.P,Q9,8,D*%
X114700000Y-63775000D03*
D25*
X113500000Y-62800000D03*
%TD*%
D27*
%TO.P,C29,1*%
%TO.N,Net-(D7-K)*%
X53500000Y-54637500D03*
%TO.P,C29,2*%
%TO.N,/inverter/1VS1*%
X53500000Y-56362500D03*
%TD*%
D24*
%TO.P,Q8,1,S*%
%TO.N,Net-(Q8-S-Pad1)*%
X107832500Y-71296476D03*
%TO.P,Q8,2,S*%
X107832500Y-70646476D03*
%TO.P,Q8,3,S*%
X107832500Y-69996476D03*
%TO.P,Q8,4,G*%
%TO.N,Net-(D17-A)*%
X107832500Y-69346476D03*
%TO.P,Q8,5,D*%
%TO.N,/inverter/2VS1*%
X110802500Y-69346476D03*
%TO.P,Q8,6,D*%
X110802500Y-69996476D03*
%TO.P,Q8,7,D*%
X110802500Y-70646476D03*
%TO.P,Q8,8,D*%
X110802500Y-71296476D03*
D25*
X109602500Y-70321476D03*
%TD*%
D18*
%TO.P,R4,1*%
%TO.N,/inverter/1HO2*%
X40807500Y-61300000D03*
%TO.P,R4,2*%
%TO.N,Net-(D9-A)*%
X42632500Y-61300000D03*
%TD*%
D24*
%TO.P,Q13,1,S*%
%TO.N,/inverter/1VS3*%
X42753500Y-65400000D03*
%TO.P,Q13,2,S*%
X42753500Y-66050000D03*
%TO.P,Q13,3,S*%
X42753500Y-66700000D03*
%TO.P,Q13,4,G*%
%TO.N,Net-(D5-A)*%
X42753500Y-67350000D03*
%TO.P,Q13,5,D*%
%TO.N,+BATT*%
X39783500Y-67350000D03*
%TO.P,Q13,6,D*%
X39783500Y-66700000D03*
%TO.P,Q13,7,D*%
X39783500Y-66050000D03*
%TO.P,Q13,8,D*%
X39783500Y-65400000D03*
D25*
X40983500Y-66375000D03*
%TD*%
D18*
%TO.P,R19,1*%
%TO.N,/inverter/1LO1*%
X44867500Y-53910000D03*
%TO.P,R19,2*%
%TO.N,Net-(D24-A)*%
X46692500Y-53910000D03*
%TD*%
D28*
%TO.P,D22,1,K*%
%TO.N,/inverter/1LO2*%
X44372500Y-63350000D03*
%TO.P,D22,2,A*%
%TO.N,Net-(D22-A)*%
X47672500Y-63350000D03*
%TD*%
D26*
%TO.P,C68,1*%
%TO.N,/YO*%
X80012500Y-43962500D03*
%TO.P,C68,2*%
%TO.N,GNDD*%
X80012500Y-42237500D03*
%TD*%
D23*
%TO.P,C35,1*%
%TO.N,/1CS2-*%
X51822500Y-54510000D03*
%TO.P,C35,2*%
%TO.N,/1CS2+*%
X50097500Y-54510000D03*
%TD*%
D11*
%TO.P,C2,1*%
%TO.N,GNDPWR*%
X48691000Y-42791500D03*
%TO.P,C2,2*%
%TO.N,+BATT*%
X48691000Y-40716500D03*
%TD*%
D29*
%TO.P,D19,1,K*%
%TO.N,/inverter/2LO2*%
X110250000Y-58471476D03*
%TO.P,D19,2,A*%
%TO.N,Net-(D19-A)*%
X106950000Y-58471476D03*
%TD*%
D27*
%TO.P,C30,1*%
%TO.N,Net-(D10-K)*%
X50000000Y-58375000D03*
%TO.P,C30,2*%
%TO.N,/inverter/1VS2*%
X50000000Y-60100000D03*
%TD*%
D20*
%TO.P,R30,1*%
%TO.N,Net-(U6A-+)*%
X87000000Y-67775000D03*
%TO.P,R30,2*%
%TO.N,/2CS1-*%
X87000000Y-69600000D03*
%TD*%
D19*
%TO.P,R37,1*%
%TO.N,Net-(R36-Pad2)*%
X74050000Y-62900000D03*
%TO.P,R37,2*%
%TO.N,/ADC1_IN5*%
X72225000Y-62900000D03*
%TD*%
D26*
%TO.P,C50,1*%
%TO.N,GNDPWR*%
X44841000Y-34816500D03*
%TO.P,C50,2*%
%TO.N,+3V3*%
X44841000Y-33091500D03*
%TD*%
D24*
%TO.P,Q14,1,S*%
%TO.N,GNDPWR*%
X47020000Y-57915000D03*
%TO.P,Q14,2,S*%
X47020000Y-58565000D03*
%TO.P,Q14,3,S*%
X47020000Y-59215000D03*
%TO.P,Q14,4,G*%
%TO.N,Net-(D22-A)*%
X47020000Y-59865000D03*
%TO.P,Q14,5,D*%
%TO.N,/inverter/1VS2*%
X44050000Y-59865000D03*
%TO.P,Q14,6,D*%
X44050000Y-59215000D03*
%TO.P,Q14,7,D*%
X44050000Y-58565000D03*
%TO.P,Q14,8,D*%
X44050000Y-57915000D03*
D25*
X45250000Y-58890000D03*
%TD*%
D23*
%TO.P,C42,1*%
%TO.N,GNDD*%
X63862500Y-61700000D03*
%TO.P,C42,2*%
%TO.N,/ADC2_IN15*%
X62137500Y-61700000D03*
%TD*%
D30*
%TO.P,U6,1*%
%TO.N,Net-(R34-Pad2)*%
X84975000Y-64460000D03*
%TO.P,U6,2,-*%
%TO.N,Net-(U6A--)*%
X84975000Y-65730000D03*
%TO.P,U6,3,+*%
%TO.N,Net-(U6A-+)*%
X84975000Y-67000000D03*
%TO.P,U6,4,V-*%
%TO.N,GNDD*%
X84975000Y-68270000D03*
%TO.P,U6,5,+*%
%TO.N,Net-(U6B-+)*%
X80025000Y-68270000D03*
%TO.P,U6,6,-*%
%TO.N,Net-(U6B--)*%
X80025000Y-67000000D03*
%TO.P,U6,7*%
%TO.N,Net-(R48-Pad2)*%
X80025000Y-65730000D03*
%TO.P,U6,8,V+*%
%TO.N,/OP_VCC*%
X80025000Y-64460000D03*
%TD*%
D20*
%TO.P,R45,1*%
%TO.N,Net-(U6B-+)*%
X78000000Y-69187500D03*
%TO.P,R45,2*%
%TO.N,/VREF_OP*%
X78000000Y-71012500D03*
%TD*%
D31*
%TO.P,C33,1*%
%TO.N,GNDPWR*%
X120662500Y-65500000D03*
%TO.P,C33,2*%
%TO.N,+BATT*%
X117537500Y-65500000D03*
%TD*%
D24*
%TO.P,Q15,1,S*%
%TO.N,/inverter/1VS1*%
X43190000Y-50425714D03*
%TO.P,Q15,2,S*%
X43190000Y-51075714D03*
%TO.P,Q15,3,S*%
X43190000Y-51725714D03*
%TO.P,Q15,4,G*%
%TO.N,Net-(D23-A)*%
X43190000Y-52375714D03*
%TO.P,Q15,5,D*%
%TO.N,+BATT*%
X40220000Y-52375714D03*
%TO.P,Q15,6,D*%
X40220000Y-51725714D03*
%TO.P,Q15,7,D*%
X40220000Y-51075714D03*
%TO.P,Q15,8,D*%
X40220000Y-50425714D03*
D25*
X41420000Y-51400714D03*
%TD*%
D24*
%TO.P,Q1,1,S*%
%TO.N,Net-(Q1-S-Pad1)*%
X46902500Y-65400000D03*
%TO.P,Q1,2,S*%
X46902500Y-66050000D03*
%TO.P,Q1,3,S*%
X46902500Y-66700000D03*
%TO.P,Q1,4,G*%
%TO.N,Net-(D6-A)*%
X46902500Y-67350000D03*
%TO.P,Q1,5,D*%
%TO.N,/inverter/1VS3*%
X43932500Y-67350000D03*
%TO.P,Q1,6,D*%
X43932500Y-66700000D03*
%TO.P,Q1,7,D*%
X43932500Y-66050000D03*
%TO.P,Q1,8,D*%
X43932500Y-65400000D03*
D25*
X45132500Y-66375000D03*
%TD*%
D32*
%TO.P,C27,1*%
%TO.N,GNDD*%
X68875000Y-62900000D03*
%TO.P,C27,2*%
%TO.N,/ADC1_IN5*%
X70600000Y-62900000D03*
%TD*%
D33*
%TO.P,U9,1,NC*%
%TO.N,unconnected-(U9-NC-Pad1)*%
X78300001Y-37273201D03*
%TO.P,U9,2,NC*%
%TO.N,unconnected-(U9-NC-Pad2)*%
X77899999Y-37273201D03*
%TO.P,U9,3,NC*%
%TO.N,unconnected-(U9-NC-Pad3)*%
X77500000Y-37273201D03*
%TO.P,U9,4,NC*%
%TO.N,unconnected-(U9-NC-Pad4)*%
X77100000Y-37273201D03*
%TO.P,U9,5,NC*%
%TO.N,unconnected-(U9-NC-Pad5)*%
X76700001Y-37273201D03*
%TO.P,U9,6,NC*%
%TO.N,unconnected-(U9-NC-Pad6)*%
X76299999Y-37273201D03*
D34*
%TO.P,U9,7,AUX_CL*%
%TO.N,unconnected-(U9-AUX_CL-Pad7)*%
X75826800Y-36800002D03*
%TO.P,U9,8,VDDIO*%
%TO.N,Net-(U9-VDD)*%
X75826800Y-36400000D03*
%TO.P,U9,9,SDO/AD0*%
%TO.N,/SPI1_MISO*%
X75826800Y-36000001D03*
%TO.P,U9,10,REGOUT*%
%TO.N,Net-(U9-REGOUT)*%
X75826800Y-35600001D03*
%TO.P,U9,11,FSYNC*%
%TO.N,GNDD*%
X75826800Y-35200002D03*
%TO.P,U9,12,INT*%
%TO.N,unconnected-(U9-INT-Pad12)*%
X75826800Y-34800000D03*
D33*
%TO.P,U9,13,VDD*%
%TO.N,Net-(U9-VDD)*%
X76299999Y-34326801D03*
%TO.P,U9,14,NC*%
%TO.N,unconnected-(U9-NC-Pad14)*%
X76700001Y-34326801D03*
%TO.P,U9,15,NC*%
%TO.N,unconnected-(U9-NC-Pad15)*%
X77100000Y-34326801D03*
%TO.P,U9,16,NC*%
%TO.N,unconnected-(U9-NC-Pad16)*%
X77500000Y-34326801D03*
%TO.P,U9,17,NC*%
%TO.N,unconnected-(U9-NC-Pad17)*%
X77899999Y-34326801D03*
%TO.P,U9,18,GND*%
%TO.N,GNDD*%
X78300001Y-34326801D03*
D34*
%TO.P,U9,19,RESV*%
%TO.N,unconnected-(U9-RESV-Pad19)*%
X78773200Y-34800000D03*
%TO.P,U9,20,RESV*%
%TO.N,GNDD*%
X78773200Y-35200002D03*
%TO.P,U9,21,AUX_DA*%
%TO.N,unconnected-(U9-AUX_DA-Pad21)*%
X78773200Y-35600001D03*
%TO.P,U9,22,nCS*%
%TO.N,/SPI1_CS*%
X78773200Y-36000001D03*
%TO.P,U9,23,SCL/SCLK*%
%TO.N,/SPI1_SCK*%
X78773200Y-36400000D03*
%TO.P,U9,24,SDA/SDI*%
%TO.N,/SPI1_MOSI*%
X78773200Y-36800002D03*
D35*
%TO.P,U9,25,EP*%
%TO.N,unconnected-(U9-EP-Pad25)*%
X77300000Y-35800001D03*
%TD*%
D30*
%TO.P,U7,1*%
%TO.N,Net-(R36-Pad2)*%
X70887500Y-64500000D03*
%TO.P,U7,2,-*%
%TO.N,Net-(U7A--)*%
X70887500Y-65770000D03*
%TO.P,U7,3,+*%
%TO.N,Net-(U7A-+)*%
X70887500Y-67040000D03*
%TO.P,U7,4,V-*%
%TO.N,GNDD*%
X70887500Y-68310000D03*
%TO.P,U7,5,+*%
%TO.N,Net-(U7B-+)*%
X65937500Y-68310000D03*
%TO.P,U7,6,-*%
%TO.N,Net-(U7B--)*%
X65937500Y-67040000D03*
%TO.P,U7,7*%
%TO.N,Net-(R51-Pad2)*%
X65937500Y-65770000D03*
%TO.P,U7,8,V+*%
%TO.N,/OP_VCC*%
X65937500Y-64500000D03*
%TD*%
D36*
%TO.P,U5,1,VBAT*%
%TO.N,+3V3*%
X75012500Y-45962500D03*
%TO.P,U5,2,PC13*%
%TO.N,unconnected-(U5-PC13-Pad2)*%
X75512500Y-45962500D03*
%TO.P,U5,3,PC14*%
%TO.N,/KEY*%
X76012500Y-45962500D03*
%TO.P,U5,4,PC15*%
%TO.N,unconnected-(U5-PC15-Pad4)*%
X76512500Y-45962500D03*
%TO.P,U5,5,PF0*%
%TO.N,/YI*%
X77012500Y-45962500D03*
%TO.P,U5,6,PF1*%
%TO.N,/YO*%
X77512500Y-45962500D03*
%TO.P,U5,7,PG10*%
%TO.N,/RESET*%
X78012500Y-45962500D03*
%TO.P,U5,8,PA0*%
%TO.N,unconnected-(U5-PA0-Pad8)*%
X78512500Y-45962500D03*
%TO.P,U5,9,PA1*%
%TO.N,/ADC1_IN2*%
X79012500Y-45962500D03*
%TO.P,U5,10,PA2*%
%TO.N,/USART2_TX*%
X79512500Y-45962500D03*
%TO.P,U5,11,PA3*%
%TO.N,/USART2_RX*%
X80012500Y-45962500D03*
%TO.P,U5,12,PA4*%
%TO.N,/SPI1_CS*%
X80512500Y-45962500D03*
D37*
%TO.P,U5,13,PA5*%
%TO.N,/SPI1_SCK*%
X81200000Y-46650000D03*
%TO.P,U5,14,PA6*%
%TO.N,/SPI1_MISO*%
X81200000Y-47150000D03*
%TO.P,U5,15,PA7*%
%TO.N,/SPI1_MOSI*%
X81200000Y-47650000D03*
%TO.P,U5,16,PC4*%
%TO.N,/NSS2*%
X81200000Y-48150000D03*
%TO.P,U5,17,PB0*%
%TO.N,/LED*%
X81200000Y-48650000D03*
%TO.P,U5,18,PB1*%
%TO.N,unconnected-(U5-PB1-Pad18)*%
X81200000Y-49150000D03*
%TO.P,U5,19,PB2*%
%TO.N,/ADC2_IN12*%
X81200000Y-49650000D03*
%TO.P,U5,20,VREF+*%
%TO.N,VDDA*%
X81200000Y-50150000D03*
%TO.P,U5,21,VDDA*%
X81200000Y-50650000D03*
%TO.P,U5,22,PB10*%
%TO.N,/USART3_TX*%
X81200000Y-51150000D03*
%TO.P,U5,23,VDD*%
%TO.N,+3V3*%
X81200000Y-51650000D03*
%TO.P,U5,24,PB11*%
%TO.N,/USART3_RX*%
X81200000Y-52150000D03*
D36*
%TO.P,U5,25,PB12*%
%TO.N,/ADC1_IN11*%
X80512500Y-52837500D03*
%TO.P,U5,26,PB13*%
%TO.N,unconnected-(U5-PB13-Pad26)*%
X80012500Y-52837500D03*
%TO.P,U5,27,PB14*%
%TO.N,/ADC1_IN5*%
X79512500Y-52837500D03*
%TO.P,U5,28,PB15*%
%TO.N,/ADC2_IN15*%
X79012500Y-52837500D03*
%TO.P,U5,29,PC6*%
%TO.N,unconnected-(U5-PC6-Pad29)*%
X78512500Y-52837500D03*
%TO.P,U5,30,PA8*%
%TO.N,/TIM1_CH1*%
X78012500Y-52837500D03*
%TO.P,U5,31,PA9*%
%TO.N,/TIM1_CH2*%
X77512500Y-52837500D03*
%TO.P,U5,32,PA10*%
%TO.N,/TIM1_CH3*%
X77012500Y-52837500D03*
%TO.P,U5,33,PA11*%
%TO.N,Net-(U5-PA11)*%
X76512500Y-52837500D03*
%TO.P,U5,34,PA12*%
%TO.N,unconnected-(U5-PA12-Pad34)*%
X76012500Y-52837500D03*
%TO.P,U5,35,VDD*%
%TO.N,+3V3*%
X75512500Y-52837500D03*
%TO.P,U5,36,PA13*%
%TO.N,/SWDIO*%
X75012500Y-52837500D03*
D37*
%TO.P,U5,37,PA14*%
%TO.N,/SWCLK*%
X74325000Y-52150000D03*
%TO.P,U5,38,PA15*%
%TO.N,Net-(U5-PA15)*%
X74325000Y-51650000D03*
%TO.P,U5,39,PC10*%
%TO.N,/SPI3_SCK*%
X74325000Y-51150000D03*
%TO.P,U5,40,PC11*%
%TO.N,/SPI3_MISO*%
X74325000Y-50650000D03*
%TO.P,U5,41,PB3*%
%TO.N,/NSS1*%
X74325000Y-50150000D03*
%TO.P,U5,42,PB4*%
%TO.N,unconnected-(U5-PB4-Pad42)*%
X74325000Y-49650000D03*
%TO.P,U5,43,PB5*%
%TO.N,/SPI3_MOSI*%
X74325000Y-49150000D03*
%TO.P,U5,44,PB6*%
%TO.N,/TIM8_CH1*%
X74325000Y-48650000D03*
%TO.P,U5,45,PB7*%
%TO.N,unconnected-(U5-PB7-Pad45)*%
X74325000Y-48150000D03*
%TO.P,U5,46,PB8*%
%TO.N,/TIM8_CH2*%
X74325000Y-47650000D03*
%TO.P,U5,47,PB9*%
%TO.N,/TIM8_CH3*%
X74325000Y-47150000D03*
%TO.P,U5,48,VDD*%
%TO.N,+3V3*%
X74325000Y-46650000D03*
D38*
%TO.P,U5,49,VSS*%
%TO.N,GNDD*%
X77762500Y-49400000D03*
%TD*%
D39*
%TO.P,C51,1*%
%TO.N,GNDPWR*%
X34037500Y-65400000D03*
%TO.P,C51,2*%
%TO.N,+BATT*%
X37162500Y-65400000D03*
%TD*%
D17*
%TO.P,R21,1*%
%TO.N,Net-(U7A--)*%
X74400000Y-66312500D03*
%TO.P,R21,2*%
%TO.N,/1CS1+*%
X74400000Y-64487500D03*
%TD*%
D18*
%TO.P,R22,1*%
%TO.N,Net-(Q1-S-Pad1)*%
X48417500Y-68190000D03*
%TO.P,R22,2*%
%TO.N,/1CS1+*%
X50242500Y-68190000D03*
%TD*%
D40*
%TO.P,R11,1*%
%TO.N,GNDPWR*%
X103171500Y-70900000D03*
%TO.P,R11,2*%
%TO.N,Net-(Q8-S-Pad1)*%
X106271500Y-70900000D03*
%TD*%
D41*
%TO.P,D8,1,K*%
%TO.N,GNDPWR*%
X44791000Y-36454000D03*
%TO.P,D8,2,A*%
%TO.N,Net-(D8-A)*%
X43041000Y-36454000D03*
%TD*%
D18*
%TO.P,R44,1*%
%TO.N,Net-(U6B-+)*%
X79587500Y-69900000D03*
%TO.P,R44,2*%
%TO.N,/2CS2-*%
X81412500Y-69900000D03*
%TD*%
D19*
%TO.P,R50,1*%
%TO.N,Net-(R48-Pad2)*%
X78012500Y-64400000D03*
%TO.P,R50,2*%
%TO.N,/ADC1_IN11*%
X76187500Y-64400000D03*
%TD*%
D18*
%TO.P,R29,1*%
%TO.N,GNDPWR*%
X101480000Y-53851476D03*
%TO.P,R29,2*%
%TO.N,/2CS2-*%
X103305000Y-53851476D03*
%TD*%
D31*
%TO.P,C12,1*%
%TO.N,GNDPWR*%
X120900000Y-52800000D03*
%TO.P,C12,2*%
%TO.N,+BATT*%
X117775000Y-52800000D03*
%TD*%
D18*
%TO.P,R24,1*%
%TO.N,Net-(Q16-S-Pad1)*%
X48447500Y-53010000D03*
%TO.P,R24,2*%
%TO.N,/1CS2+*%
X50272500Y-53010000D03*
%TD*%
D31*
%TO.P,C14,1*%
%TO.N,GNDPWR*%
X120962500Y-56000000D03*
%TO.P,C14,2*%
%TO.N,+BATT*%
X117837500Y-56000000D03*
%TD*%
D27*
%TO.P,C10,1*%
%TO.N,GNDD*%
X77600000Y-59487500D03*
%TO.P,C10,2*%
%TO.N,/OP_VCC*%
X77600000Y-61212500D03*
%TD*%
D18*
%TO.P,R7,1*%
%TO.N,/inverter/1LO3*%
X44977500Y-68900000D03*
%TO.P,R7,2*%
%TO.N,Net-(D6-A)*%
X46802500Y-68900000D03*
%TD*%
D26*
%TO.P,FB3,1*%
%TO.N,/OP_VCC*%
X74000000Y-61175000D03*
%TO.P,FB3,2*%
%TO.N,+3V3*%
X74000000Y-59450000D03*
%TD*%
%TO.P,C52,1*%
%TO.N,/KEY*%
X70600000Y-33300000D03*
%TO.P,C52,2*%
%TO.N,GNDD*%
X70600000Y-31575000D03*
%TD*%
D42*
%TO.P,D1,1,K*%
%TO.N,Net-(D1-K)*%
X59432000Y-37108000D03*
%TO.P,D1,2,A*%
%TO.N,GNDPWR*%
X59450000Y-32300000D03*
%TD*%
D43*
%TO.P,FB2,1*%
%TO.N,GNDPWR*%
X62241000Y-32304000D03*
%TO.P,FB2,2*%
%TO.N,GNDD*%
X62241000Y-35404000D03*
%TD*%
D18*
%TO.P,R5,1*%
%TO.N,/inverter/1LO2*%
X44767500Y-61290000D03*
%TO.P,R5,2*%
%TO.N,Net-(D22-A)*%
X46592500Y-61290000D03*
%TD*%
D26*
%TO.P,C16,1*%
%TO.N,Net-(D2-K)*%
X104892500Y-65532976D03*
%TO.P,C16,2*%
%TO.N,/inverter/2VS1*%
X104892500Y-63807976D03*
%TD*%
D24*
%TO.P,Q7,1,S*%
%TO.N,/inverter/2VS1*%
X111961500Y-71281476D03*
%TO.P,Q7,2,S*%
X111961500Y-70631476D03*
%TO.P,Q7,3,S*%
X111961500Y-69981476D03*
%TO.P,Q7,4,G*%
%TO.N,Net-(D16-A)*%
X111961500Y-69331476D03*
%TO.P,Q7,5,D*%
%TO.N,+BATT*%
X114931500Y-69331476D03*
%TO.P,Q7,6,D*%
X114931500Y-69981476D03*
%TO.P,Q7,7,D*%
X114931500Y-70631476D03*
%TO.P,Q7,8,D*%
X114931500Y-71281476D03*
D25*
X113731500Y-70306476D03*
%TD*%
D39*
%TO.P,C34,1*%
%TO.N,GNDPWR*%
X34037500Y-62800000D03*
%TO.P,C34,2*%
%TO.N,+BATT*%
X37162500Y-62800000D03*
%TD*%
D23*
%TO.P,C19,1*%
%TO.N,+3V3*%
X72687500Y-45950000D03*
%TO.P,C19,2*%
%TO.N,GNDD*%
X70962500Y-45950000D03*
%TD*%
D24*
%TO.P,Q12,1,S*%
%TO.N,Net-(Q12-S-Pad1)*%
X107892500Y-56431476D03*
%TO.P,Q12,2,S*%
X107892500Y-55781476D03*
%TO.P,Q12,3,S*%
X107892500Y-55131476D03*
%TO.P,Q12,4,G*%
%TO.N,Net-(D21-A)*%
X107892500Y-54481476D03*
%TO.P,Q12,5,D*%
%TO.N,/inverter/2VS3*%
X110862500Y-54481476D03*
%TO.P,Q12,6,D*%
X110862500Y-55131476D03*
%TO.P,Q12,7,D*%
X110862500Y-55781476D03*
%TO.P,Q12,8,D*%
X110862500Y-56431476D03*
D25*
X109662500Y-55456476D03*
%TD*%
D19*
%TO.P,R18,1*%
%TO.N,/inverter/2LO3*%
X110052500Y-52991476D03*
%TO.P,R18,2*%
%TO.N,Net-(D21-A)*%
X108227500Y-52991476D03*
%TD*%
D27*
%TO.P,C26,1*%
%TO.N,Net-(D4-K)*%
X101200000Y-55937500D03*
%TO.P,C26,2*%
%TO.N,/inverter/2VS3*%
X101200000Y-57662500D03*
%TD*%
D23*
%TO.P,C46,1*%
%TO.N,GNDD*%
X67200000Y-62900000D03*
%TO.P,C46,2*%
%TO.N,/OP_VCC*%
X65475000Y-62900000D03*
%TD*%
D19*
%TO.P,R26,1*%
%TO.N,Net-(Q8-S-Pad1)*%
X106512500Y-69000000D03*
%TO.P,R26,2*%
%TO.N,/2CS1+*%
X104687500Y-69000000D03*
%TD*%
D17*
%TO.P,R48,1*%
%TO.N,Net-(U6B--)*%
X78000000Y-67712500D03*
%TO.P,R48,2*%
%TO.N,Net-(R48-Pad2)*%
X78000000Y-65887500D03*
%TD*%
D23*
%TO.P,C45,1*%
%TO.N,GNDD*%
X81300000Y-62900000D03*
%TO.P,C45,2*%
%TO.N,/OP_VCC*%
X79575000Y-62900000D03*
%TD*%
D20*
%TO.P,R31,1*%
%TO.N,Net-(U6A-+)*%
X88500000Y-67775000D03*
%TO.P,R31,2*%
%TO.N,/VREF_OP*%
X88500000Y-69600000D03*
%TD*%
D19*
%TO.P,R14,1*%
%TO.N,/inverter/2LO1*%
X109974000Y-67971476D03*
%TO.P,R14,2*%
%TO.N,Net-(D17-A)*%
X108149000Y-67971476D03*
%TD*%
D39*
%TO.P,C49,1*%
%TO.N,GNDPWR*%
X35337500Y-51500000D03*
%TO.P,C49,2*%
%TO.N,+BATT*%
X38462500Y-51500000D03*
%TD*%
D22*
%TO.P,D7,1,K*%
%TO.N,Net-(D7-K)*%
X56000000Y-56335000D03*
%TO.P,D7,2,A*%
%TO.N,+BATT*%
X56000000Y-52865000D03*
%TD*%
D21*
%TO.P,C7,1*%
%TO.N,GNDPWR*%
X46881000Y-36346500D03*
%TO.P,C7,2*%
%TO.N,+3V3*%
X46881000Y-33221500D03*
%TD*%
D18*
%TO.P,R53,1*%
%TO.N,/LED*%
X96987500Y-45400000D03*
%TO.P,R53,2*%
%TO.N,Net-(D12-K)*%
X98812500Y-45400000D03*
%TD*%
D22*
%TO.P,D3,1,K*%
%TO.N,Net-(D3-K)*%
X96900000Y-57935000D03*
%TO.P,D3,2,A*%
%TO.N,+BATT*%
X96900000Y-54465000D03*
%TD*%
D44*
%TO.P,R9,1*%
%TO.N,GNDPWR*%
X51680000Y-66180000D03*
%TO.P,R9,2*%
%TO.N,Net-(Q1-S-Pad1)*%
X48580000Y-66180000D03*
%TD*%
D32*
%TO.P,C17,1*%
%TO.N,VDDA*%
X83137500Y-50500000D03*
%TO.P,C17,2*%
%TO.N,GNDD*%
X84862500Y-50500000D03*
%TD*%
D29*
%TO.P,D20,1,K*%
%TO.N,/inverter/2HO3*%
X115570000Y-51051476D03*
%TO.P,D20,2,A*%
%TO.N,Net-(D20-A)*%
X112270000Y-51051476D03*
%TD*%
D23*
%TO.P,C22,1*%
%TO.N,Net-(U9-REGOUT)*%
X74362500Y-34895001D03*
%TO.P,C22,2*%
%TO.N,GNDD*%
X72637500Y-34895001D03*
%TD*%
%TO.P,C20,1*%
%TO.N,+3V3*%
X72675000Y-44450000D03*
%TO.P,C20,2*%
%TO.N,GNDD*%
X70950000Y-44450000D03*
%TD*%
D17*
%TO.P,R51,1*%
%TO.N,Net-(U7B--)*%
X63900000Y-66512500D03*
%TO.P,R51,2*%
%TO.N,Net-(R51-Pad2)*%
X63900000Y-64687500D03*
%TD*%
D24*
%TO.P,Q16,1,S*%
%TO.N,Net-(Q16-S-Pad1)*%
X47299000Y-50435000D03*
%TO.P,Q16,2,S*%
X47299000Y-51085000D03*
%TO.P,Q16,3,S*%
X47299000Y-51735000D03*
%TO.P,Q16,4,G*%
%TO.N,Net-(D24-A)*%
X47299000Y-52385000D03*
%TO.P,Q16,5,D*%
%TO.N,/inverter/1VS1*%
X44329000Y-52385000D03*
%TO.P,Q16,6,D*%
X44329000Y-51735000D03*
%TO.P,Q16,7,D*%
X44329000Y-51085000D03*
%TO.P,Q16,8,D*%
X44329000Y-50435000D03*
D25*
X45529000Y-51410000D03*
%TD*%
D45*
%TO.P,L1,1,1*%
%TO.N,Net-(D1-K)*%
X55441000Y-36904000D03*
%TO.P,L1,2,2*%
%TO.N,+3V3*%
X55441000Y-33104000D03*
%TD*%
D18*
%TO.P,R32,1*%
%TO.N,Net-(U7A-+)*%
X72875000Y-69400000D03*
%TO.P,R32,2*%
%TO.N,/1CS1-*%
X74700000Y-69400000D03*
%TD*%
%TO.P,R33,1*%
%TO.N,Net-(U7A-+)*%
X72875000Y-67900000D03*
%TO.P,R33,2*%
%TO.N,/VREF_OP*%
X74700000Y-67900000D03*
%TD*%
D27*
%TO.P,C67,1*%
%TO.N,/YI*%
X74262500Y-42627500D03*
%TO.P,C67,2*%
%TO.N,GNDD*%
X74262500Y-44352500D03*
%TD*%
D29*
%TO.P,D17,1,K*%
%TO.N,/inverter/2LO1*%
X110559000Y-66071476D03*
%TO.P,D17,2,A*%
%TO.N,Net-(D17-A)*%
X107259000Y-66071476D03*
%TD*%
D46*
%TO.P,U1,1,HIN1*%
%TO.N,/TIM1_CH3*%
X96929000Y-65396500D03*
%TO.P,U1,2,HIN2*%
%TO.N,/TIM1_CH2*%
X96929000Y-64746500D03*
%TO.P,U1,3,HIN3*%
%TO.N,/TIM1_CH1*%
X96929000Y-64096500D03*
%TO.P,U1,4,LIN1#*%
%TO.N,/TIM1_CH3*%
X96929000Y-63446500D03*
%TO.P,U1,5,LIN2#*%
%TO.N,/TIM1_CH2*%
X96929000Y-62796500D03*
%TO.P,U1,6,LIN3#*%
%TO.N,/TIM1_CH1*%
X96929000Y-62146500D03*
%TO.P,U1,7,VCC*%
%TO.N,+BATT*%
X96929000Y-61496500D03*
%TO.P,U1,8,GND*%
%TO.N,GNDPWR*%
X96929000Y-60846500D03*
%TO.P,U1,9,LO3*%
%TO.N,/inverter/2LO3*%
X96929000Y-60196500D03*
%TO.P,U1,10,LO2*%
%TO.N,/inverter/2LO2*%
X96929000Y-59546500D03*
%TO.P,U1,11,LO1*%
%TO.N,/inverter/2LO1*%
X102671000Y-59546500D03*
%TO.P,U1,12,VS3*%
%TO.N,/inverter/2VS3*%
X102671000Y-60196500D03*
%TO.P,U1,13,HO3*%
%TO.N,/inverter/2HO3*%
X102671000Y-60846500D03*
%TO.P,U1,14,VB3*%
%TO.N,Net-(D4-K)*%
X102671000Y-61496500D03*
%TO.P,U1,15,VS2*%
%TO.N,/inverter/2VS2*%
X102671000Y-62146500D03*
%TO.P,U1,16,HO2*%
%TO.N,/inverter/2HO2*%
X102671000Y-62796500D03*
%TO.P,U1,17,VB2*%
%TO.N,Net-(D3-K)*%
X102671000Y-63446500D03*
%TO.P,U1,18,VS1*%
%TO.N,/inverter/2VS1*%
X102671000Y-64096500D03*
%TO.P,U1,19,HO1*%
%TO.N,/inverter/2HO1*%
X102671000Y-64746500D03*
%TO.P,U1,20,VB1*%
%TO.N,Net-(D2-K)*%
X102671000Y-65396500D03*
%TD*%
D32*
%TO.P,C11,1*%
%TO.N,GNDD*%
X82975000Y-62900000D03*
%TO.P,C11,2*%
%TO.N,/ADC2_IN12*%
X84700000Y-62900000D03*
%TD*%
D11*
%TO.P,C1,1*%
%TO.N,GNDPWR*%
X50791000Y-42791500D03*
%TO.P,C1,2*%
%TO.N,+BATT*%
X50791000Y-40716500D03*
%TD*%
D22*
%TO.P,D10,1,K*%
%TO.N,Net-(D10-K)*%
X58100000Y-65565000D03*
%TO.P,D10,2,A*%
%TO.N,+BATT*%
X58100000Y-69035000D03*
%TD*%
D18*
%TO.P,R6,1*%
%TO.N,/inverter/1HO1*%
X40837500Y-53890000D03*
%TO.P,R6,2*%
%TO.N,Net-(D23-A)*%
X42662500Y-53890000D03*
%TD*%
%TO.P,R47,1*%
%TO.N,Net-(U7B-+)*%
X65487500Y-69900000D03*
%TO.P,R47,2*%
%TO.N,/VREF_OP*%
X67312500Y-69900000D03*
%TD*%
D23*
%TO.P,FB4,1*%
%TO.N,+3V3*%
X84875000Y-49000000D03*
%TO.P,FB4,2*%
%TO.N,VDDA*%
X83150000Y-49000000D03*
%TD*%
D19*
%TO.P,R1,1*%
%TO.N,+3V3*%
X63803500Y-41504000D03*
%TO.P,R1,2*%
%TO.N,Net-(U3-VSENSE)*%
X61978500Y-41504000D03*
%TD*%
D44*
%TO.P,R10,1*%
%TO.N,GNDPWR*%
X51920000Y-51140000D03*
%TO.P,R10,2*%
%TO.N,Net-(Q16-S-Pad1)*%
X48820000Y-51140000D03*
%TD*%
D19*
%TO.P,R38,1*%
%TO.N,/VREF_OP*%
X81112500Y-61200000D03*
%TO.P,R38,2*%
%TO.N,/OP_VCC*%
X79287500Y-61200000D03*
%TD*%
D29*
%TO.P,D16,1,K*%
%TO.N,/inverter/2HO1*%
X115361500Y-66071476D03*
%TO.P,D16,2,A*%
%TO.N,Net-(D16-A)*%
X112061500Y-66071476D03*
%TD*%
D47*
%TO.P,Y1,1,1*%
%TO.N,/YI*%
X76062500Y-42550000D03*
%TO.P,Y1,2,2*%
%TO.N,GNDD*%
X78262500Y-42550000D03*
%TO.P,Y1,3,3*%
%TO.N,/YO*%
X78262500Y-44150000D03*
%TO.P,Y1,4,4*%
%TO.N,GNDD*%
X76062500Y-44150000D03*
%TD*%
D20*
%TO.P,R46,1*%
%TO.N,Net-(U7B-+)*%
X63900000Y-67987500D03*
%TO.P,R46,2*%
%TO.N,/1CS2-*%
X63900000Y-69812500D03*
%TD*%
D22*
%TO.P,D4,1,K*%
%TO.N,Net-(D4-K)*%
X99100000Y-57935000D03*
%TO.P,D4,2,A*%
%TO.N,+BATT*%
X99100000Y-54465000D03*
%TD*%
D18*
%TO.P,R39,1*%
%TO.N,GNDD*%
X79312500Y-59600000D03*
%TO.P,R39,2*%
%TO.N,/VREF_OP*%
X81137500Y-59600000D03*
%TD*%
D32*
%TO.P,C36,1*%
%TO.N,/2CS1-*%
X103137500Y-67500000D03*
%TO.P,C36,2*%
%TO.N,/2CS1+*%
X104862500Y-67500000D03*
%TD*%
D28*
%TO.P,D9,1,K*%
%TO.N,/inverter/1HO2*%
X39460000Y-63320000D03*
%TO.P,D9,2,A*%
%TO.N,Net-(D9-A)*%
X42760000Y-63320000D03*
%TD*%
D32*
%TO.P,C8,1*%
%TO.N,VDDA*%
X83150000Y-52000000D03*
%TO.P,C8,2*%
%TO.N,GNDD*%
X84875000Y-52000000D03*
%TD*%
D26*
%TO.P,C38,1*%
%TO.N,/ADC1_IN2*%
X96400000Y-36862500D03*
%TO.P,C38,2*%
%TO.N,GNDD*%
X96400000Y-35137500D03*
%TD*%
D40*
%TO.P,R12,1*%
%TO.N,GNDPWR*%
X103212500Y-55821476D03*
%TO.P,R12,2*%
%TO.N,Net-(Q12-S-Pad1)*%
X106312500Y-55821476D03*
%TD*%
D46*
%TO.P,U2,1,HIN1*%
%TO.N,/TIM8_CH3*%
X58071000Y-58003500D03*
%TO.P,U2,2,HIN2*%
%TO.N,/TIM8_CH2*%
X58071000Y-58653500D03*
%TO.P,U2,3,HIN3*%
%TO.N,/TIM8_CH1*%
X58071000Y-59303500D03*
%TO.P,U2,4,LIN1#*%
%TO.N,/TIM8_CH3*%
X58071000Y-59953500D03*
%TO.P,U2,5,LIN2#*%
%TO.N,/TIM8_CH2*%
X58071000Y-60603500D03*
%TO.P,U2,6,LIN3#*%
%TO.N,/TIM8_CH1*%
X58071000Y-61253500D03*
%TO.P,U2,7,VCC*%
%TO.N,+BATT*%
X58071000Y-61903500D03*
%TO.P,U2,8,GND*%
%TO.N,GNDPWR*%
X58071000Y-62553500D03*
%TO.P,U2,9,LO3*%
%TO.N,/inverter/1LO3*%
X58071000Y-63203500D03*
%TO.P,U2,10,LO2*%
%TO.N,/inverter/1LO2*%
X58071000Y-63853500D03*
%TO.P,U2,11,LO1*%
%TO.N,/inverter/1LO1*%
X52329000Y-63853500D03*
%TO.P,U2,12,VS3*%
%TO.N,/inverter/1VS3*%
X52329000Y-63203500D03*
%TO.P,U2,13,HO3*%
%TO.N,/inverter/1HO3*%
X52329000Y-62553500D03*
%TO.P,U2,14,VB3*%
%TO.N,Net-(D11-K)*%
X52329000Y-61903500D03*
%TO.P,U2,15,VS2*%
%TO.N,/inverter/1VS2*%
X52329000Y-61253500D03*
%TO.P,U2,16,HO2*%
%TO.N,/inverter/1HO2*%
X52329000Y-60603500D03*
%TO.P,U2,17,VB2*%
%TO.N,Net-(D10-K)*%
X52329000Y-59953500D03*
%TO.P,U2,18,VS1*%
%TO.N,/inverter/1VS1*%
X52329000Y-59303500D03*
%TO.P,U2,19,HO1*%
%TO.N,/inverter/1HO1*%
X52329000Y-58653500D03*
%TO.P,U2,20,VB1*%
%TO.N,Net-(D7-K)*%
X52329000Y-58003500D03*
%TD*%
D17*
%TO.P,R42,1*%
%TO.N,Net-(U6B--)*%
X76500000Y-67712500D03*
%TO.P,R42,2*%
%TO.N,/2CS2+*%
X76500000Y-65887500D03*
%TD*%
D48*
%TO.P,U3,1,BOOT*%
%TO.N,Net-(U3-BOOT)*%
X59991000Y-39354000D03*
%TO.P,U3,2,NC*%
%TO.N,unconnected-(U3-NC-Pad2)*%
X59991000Y-40624000D03*
%TO.P,U3,3,NC*%
%TO.N,unconnected-(U3-NC-Pad3)*%
X59991000Y-41894000D03*
%TO.P,U3,4,VSENSE*%
%TO.N,Net-(U3-VSENSE)*%
X59991000Y-43164000D03*
%TO.P,U3,5,EN*%
%TO.N,unconnected-(U3-EN-Pad5)*%
X54591000Y-43164000D03*
%TO.P,U3,6,GND*%
%TO.N,GNDPWR*%
X54591000Y-41894000D03*
%TO.P,U3,7,VIN*%
%TO.N,+BATT*%
X54591000Y-40624000D03*
%TO.P,U3,8,PH*%
%TO.N,Net-(D1-K)*%
X54591000Y-39354000D03*
D49*
%TO.P,U3,9,GNDPAD*%
%TO.N,GNDPWR*%
X57891000Y-43059000D03*
X57891000Y-41959000D03*
X57891000Y-40659000D03*
X57891000Y-39459000D03*
D50*
X57291000Y-41259000D03*
D51*
X57291000Y-41259000D03*
D49*
X56691000Y-43059000D03*
X56691000Y-41959000D03*
X56691000Y-40659000D03*
X56691000Y-39459000D03*
%TD*%
D27*
%TO.P,C32,1*%
%TO.N,+BATT*%
X60200000Y-62675000D03*
%TO.P,C32,2*%
%TO.N,GNDPWR*%
X60200000Y-64400000D03*
%TD*%
D17*
%TO.P,R34,1*%
%TO.N,Net-(U6A--)*%
X87000000Y-66212500D03*
%TO.P,R34,2*%
%TO.N,Net-(R34-Pad2)*%
X87000000Y-64387500D03*
%TD*%
D22*
%TO.P,D11,1,K*%
%TO.N,Net-(D11-K)*%
X55700000Y-65565000D03*
%TO.P,D11,2,A*%
%TO.N,+BATT*%
X55700000Y-69035000D03*
%TD*%
D29*
%TO.P,D18,1,K*%
%TO.N,/inverter/2HO2*%
X115117500Y-58400000D03*
%TO.P,D18,2,A*%
%TO.N,Net-(D18-A)*%
X111817500Y-58400000D03*
%TD*%
D28*
%TO.P,D23,1,K*%
%TO.N,/inverter/1HO1*%
X39502500Y-55940000D03*
%TO.P,D23,2,A*%
%TO.N,Net-(D23-A)*%
X42802500Y-55940000D03*
%TD*%
D19*
%TO.P,R16,1*%
%TO.N,/inverter/2LO2*%
X109692500Y-60411476D03*
%TO.P,R16,2*%
%TO.N,Net-(D19-A)*%
X107867500Y-60411476D03*
%TD*%
D28*
%TO.P,D24,1,K*%
%TO.N,/inverter/1LO1*%
X44350000Y-55950000D03*
%TO.P,D24,2,A*%
%TO.N,Net-(D24-A)*%
X47650000Y-55950000D03*
%TD*%
D19*
%TO.P,R52,1*%
%TO.N,Net-(R51-Pad2)*%
X63950000Y-63100000D03*
%TO.P,R52,2*%
%TO.N,/ADC2_IN15*%
X62125000Y-63100000D03*
%TD*%
D24*
%TO.P,Q10,1,S*%
%TO.N,GNDPWR*%
X107600000Y-63841476D03*
%TO.P,Q10,2,S*%
X107600000Y-63191476D03*
%TO.P,Q10,3,S*%
X107600000Y-62541476D03*
%TO.P,Q10,4,G*%
%TO.N,Net-(D19-A)*%
X107600000Y-61891476D03*
%TO.P,Q10,5,D*%
%TO.N,/inverter/2VS2*%
X110570000Y-61891476D03*
%TO.P,Q10,6,D*%
X110570000Y-62541476D03*
%TO.P,Q10,7,D*%
X110570000Y-63191476D03*
%TO.P,Q10,8,D*%
X110570000Y-63841476D03*
D25*
X109370000Y-62866476D03*
%TD*%
D19*
%TO.P,R25,1*%
%TO.N,GNDPWR*%
X53592500Y-53010000D03*
%TO.P,R25,2*%
%TO.N,/1CS2-*%
X51767500Y-53010000D03*
%TD*%
D23*
%TO.P,C13,1*%
%TO.N,Net-(U9-VDD)*%
X73962500Y-36400000D03*
%TO.P,C13,2*%
%TO.N,GNDD*%
X72237500Y-36400000D03*
%TD*%
D26*
%TO.P,C21,1*%
%TO.N,/RESET*%
X86600000Y-33262500D03*
%TO.P,C21,2*%
%TO.N,GNDD*%
X86600000Y-31537500D03*
%TD*%
D29*
%TO.P,D21,1,K*%
%TO.N,/inverter/2LO3*%
X110740000Y-51081476D03*
%TO.P,D21,2,A*%
%TO.N,Net-(D21-A)*%
X107440000Y-51081476D03*
%TD*%
D18*
%TO.P,R27,1*%
%TO.N,GNDPWR*%
X101387500Y-69000000D03*
%TO.P,R27,2*%
%TO.N,/2CS1-*%
X103212500Y-69000000D03*
%TD*%
D23*
%TO.P,C28,1*%
%TO.N,/1CS1-*%
X51882500Y-69720000D03*
%TO.P,C28,2*%
%TO.N,/1CS1+*%
X50157500Y-69720000D03*
%TD*%
%TO.P,C24,1*%
%TO.N,Net-(U9-VDD)*%
X76162500Y-32995001D03*
%TO.P,C24,2*%
%TO.N,GNDD*%
X74437500Y-32995001D03*
%TD*%
D28*
%TO.P,D5,1,K*%
%TO.N,/inverter/1HO3*%
X40152500Y-70900000D03*
%TO.P,D5,2,A*%
%TO.N,Net-(D5-A)*%
X43452500Y-70900000D03*
%TD*%
D26*
%TO.P,C25,1*%
%TO.N,Net-(D3-K)*%
X104900000Y-61962500D03*
%TO.P,C25,2*%
%TO.N,/inverter/2VS2*%
X104900000Y-60237500D03*
%TD*%
%TO.P,C3,1*%
%TO.N,GNDPWR*%
X52641000Y-42416500D03*
%TO.P,C3,2*%
%TO.N,+BATT*%
X52641000Y-40691500D03*
%TD*%
D19*
%TO.P,R35,1*%
%TO.N,Net-(R34-Pad2)*%
X88050000Y-62900000D03*
%TO.P,R35,2*%
%TO.N,/ADC2_IN12*%
X86225000Y-62900000D03*
%TD*%
D32*
%TO.P,C37,1*%
%TO.N,/2CS2-*%
X103230000Y-52341476D03*
%TO.P,C37,2*%
%TO.N,/2CS2+*%
X104955000Y-52341476D03*
%TD*%
D17*
%TO.P,R43,1*%
%TO.N,Net-(U7B--)*%
X62300000Y-66512500D03*
%TO.P,R43,2*%
%TO.N,/1CS2+*%
X62300000Y-64687500D03*
%TD*%
D19*
%TO.P,R28,1*%
%TO.N,Net-(Q12-S-Pad1)*%
X106675000Y-53851476D03*
%TO.P,R28,2*%
%TO.N,/2CS2+*%
X104850000Y-53851476D03*
%TD*%
%TO.P,R15,1*%
%TO.N,/inverter/2HO2*%
X113792500Y-60400000D03*
%TO.P,R15,2*%
%TO.N,Net-(D18-A)*%
X111967500Y-60400000D03*
%TD*%
D23*
%TO.P,FB1,1*%
%TO.N,Net-(U9-VDD)*%
X76162500Y-31500001D03*
%TO.P,FB1,2*%
%TO.N,+3V3*%
X74437500Y-31500001D03*
%TD*%
D21*
%TO.P,C5,1*%
%TO.N,GNDPWR*%
X51851000Y-36386500D03*
%TO.P,C5,2*%
%TO.N,+3V3*%
X51851000Y-33261500D03*
%TD*%
D17*
%TO.P,R36,1*%
%TO.N,Net-(U7A--)*%
X72900000Y-66312500D03*
%TO.P,R36,2*%
%TO.N,Net-(R36-Pad2)*%
X72900000Y-64487500D03*
%TD*%
D24*
%TO.P,Q2,1,S*%
%TO.N,/inverter/1VS2*%
X42870000Y-57855000D03*
%TO.P,Q2,2,S*%
X42870000Y-58505000D03*
%TO.P,Q2,3,S*%
X42870000Y-59155000D03*
%TO.P,Q2,4,G*%
%TO.N,Net-(D9-A)*%
X42870000Y-59805000D03*
%TO.P,Q2,5,D*%
%TO.N,+BATT*%
X39900000Y-59805000D03*
%TO.P,Q2,6,D*%
X39900000Y-59155000D03*
%TO.P,Q2,7,D*%
X39900000Y-58505000D03*
%TO.P,Q2,8,D*%
X39900000Y-57855000D03*
D25*
X41100000Y-58830000D03*
%TD*%
D28*
%TO.P,D6,1,K*%
%TO.N,/inverter/1LO3*%
X44952500Y-70900000D03*
%TO.P,D6,2,A*%
%TO.N,Net-(D6-A)*%
X48252500Y-70900000D03*
%TD*%
D19*
%TO.P,R13,1*%
%TO.N,/inverter/2HO1*%
X114004000Y-67971476D03*
%TO.P,R13,2*%
%TO.N,Net-(D16-A)*%
X112179000Y-67971476D03*
%TD*%
D27*
%TO.P,C31,1*%
%TO.N,Net-(D11-K)*%
X50000000Y-61775000D03*
%TO.P,C31,2*%
%TO.N,/inverter/1VS3*%
X50000000Y-63500000D03*
%TD*%
D18*
%TO.P,R40,1*%
%TO.N,/TIM8_CH2*%
X65775000Y-54300000D03*
%TO.P,R40,2*%
%TO.N,GNDD*%
X67600000Y-54300000D03*
%TD*%
D52*
%TO.N,/VREF_OP*%
X81045829Y-58834719D03*
D53*
%TO.N,GNDPWR*%
X104400000Y-70600000D03*
X120962500Y-56000000D03*
D54*
X62850000Y-32650000D03*
D53*
X48275000Y-58600000D03*
D54*
X50550000Y-42800000D03*
X62750000Y-31900000D03*
D53*
X120350000Y-51350000D03*
X103171500Y-70900000D03*
X35337500Y-52837500D03*
X120900000Y-52800000D03*
D54*
X61700000Y-32000000D03*
D53*
X50800000Y-51700000D03*
X50600000Y-65700000D03*
X50600000Y-66700000D03*
X50800000Y-50700000D03*
X120937500Y-54300000D03*
X34037500Y-64000000D03*
X104294863Y-55083967D03*
X34037500Y-65400000D03*
X106604074Y-63195926D03*
X120662500Y-65500000D03*
D54*
X51650000Y-42850000D03*
D53*
X34037500Y-62800000D03*
D54*
X49450000Y-42750000D03*
D53*
X35337500Y-51500000D03*
X103212500Y-55821476D03*
X121299999Y-64203502D03*
D54*
X61700000Y-32700000D03*
D53*
X121400000Y-57203498D03*
X48275000Y-59750000D03*
D54*
X52700000Y-42400000D03*
D53*
X106450093Y-62103727D03*
D54*
X48350000Y-42800000D03*
X94800000Y-58900000D03*
D53*
X59945926Y-64654074D03*
D54*
%TO.N,GNDD*%
X69100000Y-68100000D03*
%TO.N,GNDPWR*%
X46400000Y-36450000D03*
D53*
%TO.N,GNDD*%
X82725000Y-63900000D03*
D54*
X74262500Y-44352500D03*
%TO.N,GNDPWR*%
X58950000Y-31600000D03*
X48900000Y-36450000D03*
%TO.N,GNDD*%
X84362500Y-50500000D03*
X73676532Y-53771850D03*
X77900000Y-62900000D03*
X73333641Y-33768531D03*
X62850000Y-35000000D03*
X62900000Y-35750000D03*
%TO.N,GNDPWR*%
X59950000Y-31650000D03*
%TO.N,GNDD*%
X84708416Y-52375652D03*
X61650000Y-35000000D03*
X61700000Y-35750000D03*
D55*
X96900000Y-69815000D03*
D54*
%TO.N,GNDPWR*%
X59000000Y-32500000D03*
X63700000Y-43050000D03*
%TO.N,GNDD*%
X63700000Y-60925000D03*
D52*
X94900000Y-43200000D03*
D54*
X83500000Y-68300000D03*
%TO.N,GNDPWR*%
X59950000Y-32500000D03*
%TO.N,GNDD*%
X76362500Y-47500000D03*
X70000000Y-44400000D03*
%TO.N,GNDPWR*%
X47300000Y-36450000D03*
X52250000Y-36400000D03*
%TO.N,GNDD*%
X76354933Y-41300001D03*
X86600000Y-31537500D03*
D52*
X93437000Y-42100000D03*
D54*
X78412208Y-47600000D03*
X79762500Y-47600000D03*
%TO.N,GNDPWR*%
X59450000Y-33150000D03*
X51400000Y-36450000D03*
%TO.N,GNDD*%
X75451992Y-58451992D03*
D55*
X92700000Y-68815000D03*
D54*
%TO.N,GNDPWR*%
X44800000Y-34850000D03*
%TO.N,GNDD*%
X68600000Y-54200000D03*
%TO.N,GNDPWR*%
X44900000Y-37400000D03*
%TO.N,GNDD*%
X80037500Y-32800000D03*
X70600000Y-31575000D03*
%TO.N,GNDPWR*%
X49850000Y-36450000D03*
%TO.N,GNDD*%
X68900000Y-64000000D03*
D55*
%TO.N,+3V3*%
X72742500Y-45980000D03*
D52*
X115975835Y-44225000D03*
D56*
X43281000Y-33016500D03*
D54*
X84472232Y-53450000D03*
D55*
X74192500Y-59450000D03*
D52*
X92487000Y-42113000D03*
D57*
X67300000Y-37800000D03*
D54*
X85282765Y-49025751D03*
%TO.N,+BATT*%
X48450000Y-40700000D03*
D52*
X40700000Y-65700000D03*
D53*
X98500000Y-70135000D03*
X99100000Y-54465000D03*
D52*
X40800000Y-59500000D03*
X114000000Y-70900000D03*
X113800000Y-63400000D03*
D53*
X58100000Y-69035000D03*
D52*
X113400000Y-54900000D03*
X114000000Y-70300000D03*
X40800000Y-58900000D03*
X113800000Y-62800000D03*
X41400000Y-59500000D03*
X40700000Y-66900000D03*
X113400000Y-70900000D03*
X41400000Y-58900000D03*
X114000000Y-54900000D03*
D55*
X62200000Y-59800000D03*
D52*
X113400000Y-69700000D03*
D54*
X54400000Y-40650000D03*
X49700000Y-40750000D03*
D52*
X114000000Y-69700000D03*
D53*
X96900000Y-54465000D03*
D52*
X113400000Y-56100000D03*
X41600000Y-51300000D03*
D53*
X117537500Y-64400000D03*
D52*
X41000000Y-51900000D03*
D53*
X117962500Y-54700000D03*
X117237500Y-66400000D03*
D52*
X113200000Y-62800000D03*
X114000000Y-56100000D03*
D53*
X55700000Y-69035000D03*
D56*
X94800000Y-60800000D03*
D52*
X41300000Y-65700000D03*
D54*
X53300000Y-40650000D03*
D56*
X60200000Y-61700000D03*
D52*
X41600000Y-51900000D03*
D54*
X50900000Y-40750000D03*
D52*
X41000000Y-50700000D03*
X113400000Y-70300000D03*
X41300000Y-66300000D03*
X41000000Y-51300000D03*
X40800000Y-58300000D03*
X41300000Y-66900000D03*
X41600000Y-50700000D03*
D53*
X56360911Y-53652762D03*
X118200000Y-57200000D03*
D52*
X114000000Y-55500000D03*
X113400000Y-55500000D03*
D53*
X118100000Y-51200000D03*
D52*
X40700000Y-66300000D03*
D54*
X52100000Y-40650000D03*
D52*
X113200000Y-63400000D03*
X113800000Y-62200000D03*
X41400000Y-58300000D03*
X113200000Y-62200000D03*
%TO.N,/SWDIO*%
X74818750Y-52956250D03*
%TO.N,/USART3_TX*%
X82162500Y-51225000D03*
%TO.N,/SWCLK*%
X74362500Y-52400000D03*
%TO.N,/USART3_RX*%
X81162500Y-52435000D03*
%TO.N,Net-(Q1-S-Pad1)*%
X48417500Y-68190000D03*
%TO.N,/TIM1_CH2*%
X97000000Y-62814500D03*
X97000000Y-64728500D03*
X95000000Y-62796500D03*
%TO.N,/TIM1_CH1*%
X93200000Y-60700000D03*
%TO.N,/TIM1_CH3*%
X83200000Y-57300000D03*
%TO.N,/TIM8_CH3*%
X61200000Y-53900000D03*
%TO.N,/TIM8_CH1*%
X63700000Y-56300000D03*
%TO.N,/SPI1_MISO*%
X76700000Y-39500000D03*
X74972968Y-36084571D03*
X82100000Y-47000000D03*
%TO.N,/TIM8_CH2*%
X65775000Y-54300000D03*
X58071000Y-60603500D03*
X64800000Y-52500000D03*
X58071000Y-58671500D03*
%TO.N,/SPI1_MOSI*%
X78800000Y-39600000D03*
X82600000Y-47575000D03*
X80943207Y-42918207D03*
%TO.N,/SPI1_SCK*%
X80725844Y-37574156D03*
%TO.N,Net-(Q8-S-Pad1)*%
X106512500Y-69000000D03*
%TO.N,Net-(U9-VDD)*%
X76100000Y-32768111D03*
X73962500Y-36400000D03*
%TO.N,/NSS1*%
X72752395Y-49924141D03*
%TO.N,/NSS2*%
X85483861Y-46102965D03*
%TO.N,/ADC1_IN11*%
X76175000Y-62900000D03*
X81500000Y-56400000D03*
X80587500Y-53735000D03*
%TO.N,/ADC1_IN5*%
X79636084Y-53735000D03*
X72225000Y-62900000D03*
X71400000Y-62400000D03*
%TO.N,/inverter/2VS1*%
X104892500Y-63807976D03*
D53*
X109700000Y-70500000D03*
X116990000Y-62400000D03*
%TO.N,/inverter/2VS2*%
X118520000Y-60690000D03*
X109900000Y-62700000D03*
D52*
X106369904Y-60869904D03*
D53*
%TO.N,/inverter/2VS3*%
X117040000Y-58950000D03*
X109700000Y-55200000D03*
D52*
%TO.N,/inverter/1VS1*%
X46000000Y-50900000D03*
X46100000Y-51700000D03*
X44900000Y-51800000D03*
D53*
X37366500Y-56315339D03*
D52*
X45100000Y-50900000D03*
X47629789Y-53635326D03*
X45500000Y-51300000D03*
%TO.N,/inverter/1VS2*%
X45250000Y-58890000D03*
D53*
X35300000Y-58100000D03*
D52*
X50000000Y-60100000D03*
%TO.N,/inverter/1VS3*%
X49800000Y-63500000D03*
D53*
X37386500Y-59843500D03*
X45100000Y-66700000D03*
D52*
%TO.N,/inverter/1HO1*%
X51717172Y-58635499D03*
X40000000Y-55940000D03*
%TO.N,/inverter/1HO2*%
X40807500Y-61300000D03*
X51438709Y-60600000D03*
%TO.N,/inverter/1LO2*%
X44767500Y-61775000D03*
X57900000Y-63853500D03*
%TO.N,/inverter/1HO3*%
X50729535Y-62629498D03*
X40890000Y-68900000D03*
%TO.N,/inverter/1LO3*%
X58400000Y-63200000D03*
X44952500Y-70900000D03*
%TO.N,/inverter/2HO2*%
X114346250Y-59846250D03*
X103739111Y-62652167D03*
%TO.N,/inverter/2LO3*%
X96778500Y-60178500D03*
X110052500Y-52991476D03*
%TO.N,/inverter/2LO2*%
X97353500Y-59546500D03*
X109692500Y-60540000D03*
%TO.N,/inverter/2LO1*%
X103504408Y-59581218D03*
X110559000Y-66071476D03*
%TO.N,/USART2_TX*%
X79725354Y-44949233D03*
%TO.N,/USART2_RX*%
X80413781Y-45076006D03*
%TO.N,/ADC2_IN12*%
X84825647Y-62917712D03*
X81913000Y-49600000D03*
X84825647Y-59100000D03*
%TO.N,/SPI3_MOSI*%
X73362500Y-49275000D03*
%TO.N,/SPI3_MISO*%
X36255751Y-42600000D03*
X37626913Y-44573087D03*
X73168171Y-50499141D03*
%TO.N,/RESET*%
X86600000Y-33262500D03*
X78112499Y-45200419D03*
%TO.N,/VREF_OP*%
X76900000Y-68700000D03*
X81112500Y-61200000D03*
X74700000Y-67900000D03*
%TO.N,/ADC2_IN15*%
X62137500Y-61700000D03*
X78801009Y-53735000D03*
X65700000Y-61700000D03*
%TO.N,Net-(Q12-S-Pad1)*%
X107300000Y-55600000D03*
%TO.N,Net-(Q16-S-Pad1)*%
X48820000Y-51140000D03*
%TO.N,/1CS2+*%
X50097500Y-54510000D03*
D58*
X62306403Y-64681097D03*
D52*
%TO.N,/1CS2-*%
X63900000Y-69812500D03*
X51822500Y-54675000D03*
%TO.N,/2CS2-*%
X89000000Y-59700000D03*
X81412500Y-69900000D03*
%TO.N,/2CS2+*%
X87200000Y-58000000D03*
X76500000Y-65887500D03*
%TO.N,/SPI3_SCK*%
X38814433Y-42376992D03*
X38810180Y-45965086D03*
X72362500Y-51150000D03*
%TO.N,Net-(U5-PA11)*%
X76437500Y-53650000D03*
X75700000Y-56300000D03*
%TO.N,Net-(D12-K)*%
X100900000Y-45400000D03*
%TO.N,/LED*%
X82162500Y-48945975D03*
X96987500Y-45400000D03*
%TO.N,/KEY*%
X70600000Y-33300000D03*
X76012500Y-45250000D03*
%TO.N,/SPI1_CS*%
X79457532Y-35897890D03*
X79376122Y-37214387D03*
%TO.N,/ADC1_IN2*%
X78937500Y-45200002D03*
D58*
X82600000Y-39900000D03*
D52*
%TO.N,Net-(U5-PA15)*%
X72500000Y-52500000D03*
%TD*%
D59*
%TO.N,/inverter/1VS1*%
X52563994Y-56362500D02*
X53500000Y-56362500D01*
X51133000Y-57793494D02*
X52563994Y-56362500D01*
X51133000Y-58864500D02*
X51133000Y-57793494D01*
X51572000Y-59303500D02*
X51133000Y-58864500D01*
X52329000Y-59303500D02*
X51572000Y-59303500D01*
D60*
%TO.N,GNDD*%
X82975000Y-63650000D02*
X82975000Y-62900000D01*
X82725000Y-63900000D02*
X82975000Y-63650000D01*
D59*
%TO.N,/ADC1_IN5*%
X72145000Y-62820000D02*
X71757500Y-62820000D01*
X72225000Y-62900000D02*
X72145000Y-62820000D01*
D61*
%TO.N,/inverter/2HO2*%
X114346250Y-59846250D02*
X113792500Y-60400000D01*
D60*
%TO.N,GNDPWR*%
X35337500Y-52837500D02*
X35337500Y-51500000D01*
D62*
X94800000Y-58900000D02*
X94800000Y-59075000D01*
%TO.N,GNDD*%
X80037500Y-32800000D02*
X79762501Y-32800000D01*
D61*
%TO.N,/inverter/1LO2*%
X57900000Y-63853500D02*
X58071000Y-63853500D01*
D60*
%TO.N,GNDPWR*%
X59945926Y-64654074D02*
X60200000Y-64400000D01*
D59*
%TO.N,Net-(Q16-S-Pad1)*%
X48004000Y-51140000D02*
X47299000Y-50435000D01*
X48820000Y-51140000D02*
X48004000Y-51140000D01*
D63*
%TO.N,GNDPWR*%
X34037500Y-65400000D02*
X34200000Y-65237500D01*
D60*
X34237500Y-65200000D02*
X34237500Y-64200000D01*
D63*
X34200000Y-65237500D02*
X34200000Y-64881250D01*
D60*
X34037500Y-65400000D02*
X34237500Y-65200000D01*
X34237500Y-64200000D02*
X34037500Y-64000000D01*
X34037500Y-64000000D02*
X34037500Y-62800000D01*
D59*
%TO.N,Net-(Q1-S-Pad1)*%
X48580000Y-68027500D02*
X48580000Y-66180000D01*
X48417500Y-68190000D02*
X48580000Y-68027500D01*
D61*
%TO.N,/inverter/1LO2*%
X44767500Y-61290000D02*
X44767500Y-61775000D01*
D59*
%TO.N,/inverter/1HO2*%
X41007500Y-61500000D02*
X40807500Y-61300000D01*
D61*
%TO.N,/OP_VCC*%
X79575000Y-61487500D02*
X79287500Y-61200000D01*
X79287500Y-61200000D02*
X78967500Y-61200000D01*
X78967500Y-61200000D02*
X78955000Y-61212500D01*
X79575000Y-62900000D02*
X79575000Y-61487500D01*
D59*
%TO.N,/VREF_OP*%
X80805000Y-59075548D02*
X81045829Y-58834719D01*
X80805000Y-59612500D02*
X80805000Y-59075548D01*
X81112500Y-59920000D02*
X80805000Y-59612500D01*
X81112500Y-61200000D02*
X81112500Y-59920000D01*
D60*
%TO.N,GNDPWR*%
X53163500Y-41894000D02*
X52641000Y-42416500D01*
X54591000Y-41894000D02*
X53163500Y-41894000D01*
D63*
X48350000Y-42800000D02*
X48699500Y-42791500D01*
D60*
X48275000Y-58600000D02*
X48189594Y-58514594D01*
D62*
X106800544Y-63895476D02*
X106800544Y-63499456D01*
D60*
X104294863Y-55083967D02*
X103557354Y-55821476D01*
D63*
X120662500Y-64799998D02*
X121299999Y-64162499D01*
X52657500Y-42400000D02*
X52700000Y-42400000D01*
D60*
X48275000Y-59750000D02*
X47039594Y-58514594D01*
X120962500Y-56000000D02*
X120962500Y-56765998D01*
X51120000Y-66180000D02*
X50600000Y-66700000D01*
X120662500Y-65500000D02*
X120662500Y-64841001D01*
D63*
X48699500Y-42791500D02*
X49408500Y-42791500D01*
D60*
X120962500Y-56765998D02*
X121400000Y-57203498D01*
D63*
X51650000Y-42850000D02*
X51708500Y-42791500D01*
X120937500Y-53100000D02*
X120937500Y-54300000D01*
D59*
X101480000Y-53851476D02*
X101480000Y-54088976D01*
D60*
X104100000Y-70900000D02*
X104400000Y-70600000D01*
X120900000Y-52800000D02*
X120900000Y-54262500D01*
D64*
X59317000Y-63517000D02*
X60100000Y-64300000D01*
D60*
X51920000Y-51140000D02*
X51360000Y-51140000D01*
D63*
X48691000Y-42791500D02*
X48682500Y-42791500D01*
D64*
X58071000Y-62553500D02*
X58928000Y-62553500D01*
X59317000Y-62942500D02*
X59317000Y-63517000D01*
D59*
X53592500Y-53010000D02*
X53592500Y-52812500D01*
D60*
X120900000Y-54262500D02*
X120937500Y-54300000D01*
X103557354Y-55821476D02*
X103212500Y-55821476D01*
X51680000Y-66180000D02*
X51120000Y-66180000D01*
D63*
X120962500Y-56862500D02*
X121400000Y-57300000D01*
X51591500Y-42791500D02*
X51650000Y-42850000D01*
D60*
X103171500Y-70900000D02*
X104100000Y-70900000D01*
X106608524Y-63191476D02*
X106604074Y-63195926D01*
D63*
X50550000Y-42800000D02*
X50558500Y-42791500D01*
D60*
X120900000Y-51900000D02*
X120900000Y-52800000D01*
X47039594Y-58514594D02*
X47020000Y-58514594D01*
D63*
X48682500Y-42791500D02*
X48350000Y-42800000D01*
D59*
X53592500Y-52812500D02*
X51920000Y-51140000D01*
D64*
X96929000Y-60846500D02*
X96102283Y-60846500D01*
D60*
X107600000Y-63191476D02*
X106608524Y-63191476D01*
D64*
X95683000Y-59958000D02*
X94800000Y-59075000D01*
D62*
X106800544Y-63499456D02*
X107600000Y-62700000D01*
D63*
X120962500Y-56000000D02*
X120962500Y-56862500D01*
X50541500Y-42791500D02*
X50550000Y-42800000D01*
D60*
X51920000Y-51140000D02*
X51240000Y-51140000D01*
D59*
X103171500Y-70784000D02*
X101387500Y-69000000D01*
D63*
X52641000Y-42416500D02*
X52657500Y-42400000D01*
D60*
X120350000Y-51350000D02*
X120900000Y-51900000D01*
D63*
X107600000Y-63191476D02*
X107200000Y-62791476D01*
X107600000Y-63191476D02*
X107504544Y-63191476D01*
D59*
X53642500Y-68190000D02*
X53642500Y-68142500D01*
D63*
X120937500Y-54300000D02*
X120937500Y-55300000D01*
X107200000Y-62791476D02*
X107000000Y-62791476D01*
D60*
X48189594Y-58514594D02*
X47020000Y-58514594D01*
D59*
X103171500Y-70900000D02*
X103171500Y-70784000D01*
D64*
X95683000Y-60427217D02*
X95683000Y-59958000D01*
D63*
X107504544Y-63191476D02*
X106946018Y-63750002D01*
X52266000Y-42791500D02*
X52641000Y-42416500D01*
D59*
X53642500Y-68142500D02*
X51680000Y-66180000D01*
D60*
X106450093Y-62103727D02*
X107537842Y-63191476D01*
D64*
X58928000Y-62553500D02*
X59317000Y-62942500D01*
D63*
X49491500Y-42791500D02*
X50541500Y-42791500D01*
X49408500Y-42791500D02*
X49450000Y-42750000D01*
D60*
X120662500Y-64841001D02*
X121299999Y-64203502D01*
D63*
X51360000Y-51140000D02*
X51300000Y-51200000D01*
X120662500Y-65500000D02*
X120662500Y-64799998D01*
D60*
X51360000Y-51140000D02*
X50800000Y-51700000D01*
D63*
X47675000Y-58950000D02*
X47675000Y-59000000D01*
D60*
X51240000Y-51140000D02*
X50800000Y-50700000D01*
D63*
X47020000Y-58565000D02*
X47290000Y-58565000D01*
D60*
X47020000Y-58514594D02*
X47265723Y-58268871D01*
X51080000Y-66180000D02*
X50600000Y-65700000D01*
D63*
X51708500Y-42791500D02*
X52266000Y-42791500D01*
X49450000Y-42750000D02*
X49491500Y-42791500D01*
D59*
X101480000Y-54088976D02*
X103212500Y-55821476D01*
D63*
X47020000Y-58514594D02*
X47336434Y-58198160D01*
D60*
X51680000Y-66180000D02*
X51080000Y-66180000D01*
X107537842Y-63191476D02*
X107600000Y-63191476D01*
D63*
X50558500Y-42791500D02*
X51591500Y-42791500D01*
D64*
X96102283Y-60846500D02*
X95683000Y-60427217D01*
D63*
X47290000Y-58565000D02*
X47675000Y-58950000D01*
X47020000Y-58565000D02*
X47020000Y-58514594D01*
D65*
%TO.N,GNDD*%
X79562500Y-34941700D02*
X79562500Y-33000001D01*
X75175000Y-35079200D02*
X75175000Y-33732501D01*
D62*
X70050000Y-44450000D02*
X70000000Y-44400000D01*
X72637500Y-34895001D02*
X72637500Y-34464672D01*
D65*
X78773200Y-35200002D02*
X79304198Y-35200002D01*
D62*
X97782500Y-35137500D02*
X98460000Y-34460000D01*
D59*
%TO.N,GNDPWR*%
X46396000Y-36454000D02*
X46400000Y-36450000D01*
X44791000Y-36454000D02*
X46396000Y-36454000D01*
D65*
%TO.N,GNDD*%
X79562500Y-33064302D02*
X78300001Y-34326801D01*
D62*
X72637500Y-34895001D02*
X72637500Y-36337500D01*
X83530000Y-68270000D02*
X83500000Y-68300000D01*
X96400000Y-35137500D02*
X97782500Y-35137500D01*
X73800000Y-54350000D02*
X73800000Y-53895318D01*
X70950000Y-44450000D02*
X70050000Y-44450000D01*
X72637500Y-36337500D02*
X72575000Y-36400000D01*
X74107171Y-32995001D02*
X73333641Y-33768531D01*
X72637500Y-34464672D02*
X73333641Y-33768531D01*
D65*
X79304198Y-35200002D02*
X79562500Y-34941700D01*
X75826800Y-35200002D02*
X75295802Y-35200002D01*
D66*
X96070859Y-69078943D02*
X96070859Y-69236520D01*
X95806916Y-68815000D02*
X96070859Y-69078943D01*
D62*
X74262500Y-44352500D02*
X74402500Y-44212500D01*
X70950000Y-45937500D02*
X70962500Y-45950000D01*
X68875000Y-62900000D02*
X68875000Y-63975000D01*
%TO.N,GNDPWR*%
X44791000Y-37291000D02*
X44900000Y-37400000D01*
%TO.N,GNDD*%
X84925000Y-51900000D02*
X84925000Y-50300000D01*
X69310000Y-68310000D02*
X69100000Y-68100000D01*
D59*
X93800000Y-42100000D02*
X94900000Y-43200000D01*
D62*
X68875000Y-63975000D02*
X68900000Y-64000000D01*
X78262500Y-42550000D02*
X79700000Y-42550000D01*
D66*
X96070859Y-69236520D02*
X96649339Y-69815000D01*
D62*
X75767500Y-58767500D02*
X75451992Y-58451992D01*
D65*
X79562500Y-33000001D02*
X79562500Y-33064302D01*
D62*
X78262500Y-42550000D02*
X77012501Y-41300001D01*
%TO.N,GNDPWR*%
X44791000Y-36454000D02*
X44791000Y-37291000D01*
%TO.N,GNDD*%
X84708416Y-52016584D02*
X84925000Y-51800000D01*
X75767500Y-59487500D02*
X75767500Y-58767500D01*
X68875000Y-62900000D02*
X67200000Y-62900000D01*
X84708416Y-52375652D02*
X84708416Y-52016584D01*
D66*
X73700000Y-53750000D02*
X73700000Y-54312500D01*
D62*
X84975000Y-68270000D02*
X83530000Y-68270000D01*
X74402500Y-44212500D02*
X76062500Y-44212500D01*
X67600000Y-54300000D02*
X68500000Y-54300000D01*
X78855000Y-59487500D02*
X78980000Y-59612500D01*
X74437500Y-32995001D02*
X74107171Y-32995001D01*
X63862500Y-61700000D02*
X63862500Y-61087500D01*
D66*
X96649339Y-69815000D02*
X96900000Y-69815000D01*
D59*
X93437000Y-42100000D02*
X93800000Y-42100000D01*
D62*
X70887500Y-68310000D02*
X69310000Y-68310000D01*
D60*
%TO.N,GNDPWR*%
X54591000Y-41894000D02*
X56656000Y-41894000D01*
D62*
%TO.N,GNDD*%
X73800000Y-53895318D02*
X73676532Y-53771850D01*
X82975000Y-62900000D02*
X81300000Y-62900000D01*
X68500000Y-54300000D02*
X68600000Y-54200000D01*
X79700000Y-42550000D02*
X80012500Y-42237500D01*
D65*
X75295802Y-35200002D02*
X75175000Y-35079200D01*
D66*
X92700000Y-68815000D02*
X95806916Y-68815000D01*
D60*
%TO.N,GNDPWR*%
X56656000Y-41894000D02*
X57291000Y-41259000D01*
D62*
%TO.N,GNDD*%
X70950000Y-44450000D02*
X70950000Y-45937500D01*
X75767500Y-59487500D02*
X78855000Y-59487500D01*
X63862500Y-61087500D02*
X63700000Y-60925000D01*
X77012501Y-41300001D02*
X76354933Y-41300001D01*
D65*
X75175000Y-33732501D02*
X74437500Y-32995001D01*
D59*
%TO.N,+3V3*%
X74762500Y-45962500D02*
X74750000Y-45950000D01*
D63*
X60683000Y-34300000D02*
X61133000Y-33850000D01*
X67300000Y-37800000D02*
X67350000Y-37850000D01*
X55441000Y-33104000D02*
X56637000Y-34300000D01*
D60*
X72742500Y-45980000D02*
X72625000Y-45862500D01*
D59*
X74325000Y-46650000D02*
X73387500Y-46650000D01*
X106210834Y-34460000D02*
X103540000Y-34460000D01*
X65050000Y-35700000D02*
X65200000Y-35700000D01*
D67*
X55353500Y-33016500D02*
X43281000Y-33016500D01*
D66*
X85812500Y-52508142D02*
X84870642Y-53450000D01*
D61*
X82262500Y-52487432D02*
X83225068Y-53450000D01*
D66*
X84870642Y-53450000D02*
X84472232Y-53450000D01*
D59*
X74862500Y-45962500D02*
X74762500Y-45962500D01*
X106210834Y-34460000D02*
X115975835Y-44225000D01*
D61*
X68357569Y-37800000D02*
X72550000Y-33607569D01*
D59*
X43281000Y-33016500D02*
X42947500Y-33350000D01*
X81200000Y-51650000D02*
X81687240Y-51650000D01*
D66*
X72687500Y-45950000D02*
X72712500Y-45950000D01*
D61*
X81738971Y-51650000D02*
X82262500Y-52173529D01*
D59*
X63803500Y-41504000D02*
X63803500Y-36946500D01*
D66*
X85812500Y-49555486D02*
X85812500Y-52508142D01*
D60*
X72625000Y-45862500D02*
X72625000Y-43200000D01*
D62*
X85257014Y-49000000D02*
X84875000Y-49000000D01*
X85282765Y-49025751D02*
X85257014Y-49000000D01*
D60*
X72675000Y-43175000D02*
X72675000Y-44450000D01*
D66*
X85282765Y-49025751D02*
X85812500Y-49555486D01*
D61*
X73035762Y-31445000D02*
X74382499Y-31445000D01*
X83225068Y-53450000D02*
X84472232Y-53450000D01*
X85282765Y-49025751D02*
X90546855Y-49025751D01*
X82262500Y-52173529D02*
X82262500Y-52487432D01*
X90546855Y-49025751D02*
X103540000Y-36032606D01*
X74382499Y-31445000D02*
X74437500Y-31500001D01*
D63*
X63350000Y-33850000D02*
X63800000Y-34300000D01*
D61*
X81200000Y-51650000D02*
X81738971Y-51650000D01*
D60*
X72625000Y-43200000D02*
X72625000Y-43125000D01*
D61*
X72550000Y-33607569D02*
X72550000Y-31930762D01*
D59*
X75512500Y-54312500D02*
X75512500Y-52837500D01*
D63*
X63800000Y-34300000D02*
X65200000Y-35700000D01*
D66*
X74192500Y-55682500D02*
X75525000Y-54350000D01*
D60*
X72625000Y-43125000D02*
X67350000Y-37850000D01*
D59*
X73387500Y-46650000D02*
X72687500Y-45950000D01*
D63*
X56637000Y-34300000D02*
X60683000Y-34300000D01*
D61*
X72550000Y-31930762D02*
X73035762Y-31445000D01*
D60*
X67350000Y-37850000D02*
X72675000Y-43175000D01*
D66*
X74192500Y-59450000D02*
X74192500Y-55682500D01*
D59*
X74862500Y-45962500D02*
X75012500Y-45962500D01*
D67*
X55441000Y-33104000D02*
X55353500Y-33016500D01*
D59*
X74750000Y-45950000D02*
X72687500Y-45950000D01*
D63*
X61133000Y-33850000D02*
X63350000Y-33850000D01*
D61*
X67300000Y-37800000D02*
X68357569Y-37800000D01*
D66*
X72712500Y-45950000D02*
X72742500Y-45980000D01*
D63*
X63800000Y-34300000D02*
X67300000Y-37800000D01*
D59*
X63803500Y-36946500D02*
X65050000Y-35700000D01*
D61*
X103540000Y-36032606D02*
X103540000Y-34460000D01*
D63*
%TO.N,+BATT*%
X54400000Y-40650000D02*
X54374000Y-40624000D01*
X37362500Y-64400000D02*
X37362500Y-65737500D01*
D60*
X38137500Y-66375000D02*
X37162500Y-65400000D01*
D63*
X117962500Y-53100000D02*
X117962500Y-54200000D01*
X37362500Y-64400000D02*
X37362500Y-63637500D01*
X54426000Y-40624000D02*
X54400000Y-40650000D01*
X50900000Y-40750000D02*
X50774000Y-40624000D01*
X37237500Y-64800000D02*
X37237500Y-65837500D01*
X48450000Y-40700000D02*
X48450000Y-40957500D01*
D60*
X117537500Y-66100000D02*
X117237500Y-66400000D01*
D63*
X53300000Y-40650000D02*
X53274000Y-40624000D01*
D61*
X60200000Y-62675000D02*
X60200000Y-61700000D01*
D63*
X117775000Y-52025000D02*
X118100000Y-51700000D01*
X117962500Y-55300000D02*
X117962500Y-56337500D01*
X117500000Y-65500000D02*
X117500000Y-64462500D01*
D60*
X56360911Y-53225911D02*
X56000000Y-52865000D01*
D63*
X54591000Y-40624000D02*
X54426000Y-40624000D01*
D60*
X56360911Y-53652762D02*
X56360911Y-53225911D01*
X117775000Y-51525000D02*
X118100000Y-51200000D01*
D63*
X51026000Y-40624000D02*
X50900000Y-40750000D01*
X48707500Y-40700000D02*
X48450000Y-40700000D01*
X49826000Y-40624000D02*
X49700000Y-40750000D01*
D60*
X41420000Y-51400714D02*
X38761786Y-51400714D01*
D59*
X41420000Y-51400714D02*
X41420000Y-51020000D01*
D60*
X117837500Y-56000000D02*
X117837500Y-54825000D01*
D66*
X59428500Y-61903500D02*
X60200000Y-62675000D01*
D59*
X41420000Y-51020000D02*
X41000000Y-50600000D01*
D60*
X117837500Y-56837500D02*
X118200000Y-57200000D01*
X117775000Y-52800000D02*
X117775000Y-51525000D01*
D63*
X117962500Y-54700000D02*
X117962500Y-56937500D01*
D60*
X117537500Y-65500000D02*
X117537500Y-64400000D01*
D63*
X52100000Y-40650000D02*
X52074000Y-40624000D01*
X115100000Y-63100000D02*
X117500000Y-65500000D01*
X53274000Y-40624000D02*
X52126000Y-40624000D01*
X114000000Y-63100000D02*
X115100000Y-63100000D01*
X117962500Y-54200000D02*
X117962500Y-54700000D01*
D60*
X117837500Y-56000000D02*
X117837500Y-56837500D01*
D63*
X117962500Y-54200000D02*
X117962500Y-55300000D01*
X52074000Y-40624000D02*
X51026000Y-40624000D01*
D60*
X117537500Y-65500000D02*
X117537500Y-66100000D01*
D63*
X37362500Y-63662500D02*
X37100000Y-63400000D01*
X49574000Y-40624000D02*
X48783500Y-40624000D01*
X37362500Y-64400000D02*
X37362500Y-63662500D01*
X48783500Y-40624000D02*
X48707500Y-40700000D01*
X48450000Y-40957500D02*
X48691000Y-40716500D01*
D60*
X37162500Y-62767500D02*
X41100000Y-58830000D01*
D63*
X49700000Y-40750000D02*
X49574000Y-40624000D01*
X41420000Y-51400714D02*
X39361786Y-51400714D01*
D60*
X40983500Y-66375000D02*
X38137500Y-66375000D01*
D59*
X95496500Y-61496500D02*
X94800000Y-60800000D01*
D63*
X50774000Y-40624000D02*
X49826000Y-40624000D01*
D60*
X117837500Y-54825000D02*
X117962500Y-54700000D01*
X37162500Y-62800000D02*
X37162500Y-62767500D01*
D63*
X117537500Y-65500000D02*
X117537500Y-66200000D01*
X53326000Y-40624000D02*
X53300000Y-40650000D01*
D60*
X37362500Y-64400000D02*
X37362500Y-65962500D01*
D63*
X117775000Y-52800000D02*
X117775000Y-52025000D01*
X54374000Y-40624000D02*
X53326000Y-40624000D01*
X52126000Y-40624000D02*
X52100000Y-40650000D01*
D59*
X96929000Y-61496500D02*
X95496500Y-61496500D01*
D66*
X58071000Y-61903500D02*
X59428500Y-61903500D01*
D63*
X42000000Y-51100000D02*
X38762500Y-51100000D01*
X117962500Y-56337500D02*
X117700000Y-56600000D01*
D59*
%TO.N,/YI*%
X77087500Y-45062500D02*
X77012500Y-45137500D01*
X77087500Y-43237500D02*
X77087500Y-45062500D01*
D66*
X74262500Y-42627500D02*
X75985000Y-42627500D01*
D59*
X77012500Y-45137500D02*
X77012500Y-45962500D01*
D66*
X75985000Y-42627500D02*
X76062500Y-42550000D01*
D59*
X76462500Y-42612500D02*
X77087500Y-43237500D01*
%TO.N,/YO*%
X77537500Y-44937500D02*
X77537500Y-45937500D01*
X78262500Y-44212500D02*
X77537500Y-44937500D01*
X80142500Y-44305000D02*
X78355000Y-44305000D01*
X77537500Y-45937500D02*
X77512500Y-45962500D01*
X78355000Y-44305000D02*
X78262500Y-44212500D01*
%TO.N,Net-(D9-A)*%
X42632500Y-61300000D02*
X42632500Y-60042500D01*
X42760000Y-61427500D02*
X42632500Y-61300000D01*
X42760000Y-63320000D02*
X42760000Y-61427500D01*
X42632500Y-60042500D02*
X42870000Y-59805000D01*
%TO.N,/SWDIO*%
X75012500Y-52837500D02*
X74937500Y-52837500D01*
X74937500Y-52837500D02*
X74818750Y-52956250D01*
%TO.N,/USART3_TX*%
X82162500Y-51225000D02*
X82087500Y-51150000D01*
X81662500Y-51150000D02*
X82087500Y-51150000D01*
X81662500Y-51150000D02*
X81200000Y-51150000D01*
%TO.N,/SWCLK*%
X74325000Y-52362500D02*
X74362500Y-52400000D01*
X74325000Y-52150000D02*
X74325000Y-52362500D01*
%TO.N,/USART3_RX*%
X81162500Y-52187500D02*
X81200000Y-52150000D01*
X81200000Y-52397500D02*
X81162500Y-52435000D01*
X81162500Y-52435000D02*
X81162500Y-52187500D01*
X81200000Y-52150000D02*
X81200000Y-52397500D01*
%TO.N,Net-(Q1-S-Pad1)*%
X48417500Y-68190000D02*
X48417500Y-66342500D01*
X48417500Y-66342500D02*
X48580000Y-66180000D01*
%TO.N,/TIM1_CH2*%
X96982000Y-64746500D02*
X97000000Y-64728500D01*
X77512500Y-54350000D02*
X77512500Y-52837500D01*
X96929000Y-64746500D02*
X96982000Y-64746500D01*
X96929000Y-62796500D02*
X95000000Y-62796500D01*
X78512500Y-55350000D02*
X77512500Y-54350000D01*
X90432896Y-62796500D02*
X82986396Y-55350000D01*
X95000000Y-62796500D02*
X90432896Y-62796500D01*
X82986396Y-55350000D02*
X78512500Y-55350000D01*
%TO.N,/TIM1_CH1*%
X96929000Y-62146500D02*
X93800000Y-62146500D01*
X97685006Y-64096500D02*
X98125000Y-63656506D01*
X98125000Y-63656506D02*
X98125000Y-62525000D01*
X83172792Y-54900000D02*
X78698896Y-54900000D01*
X96929000Y-64096500D02*
X97685006Y-64096500D01*
X97746500Y-62146500D02*
X96929000Y-62146500D01*
X98125000Y-62525000D02*
X97746500Y-62146500D01*
X90419292Y-62146500D02*
X83172792Y-54900000D01*
D61*
X78012500Y-53100000D02*
X78012500Y-52837500D01*
D59*
X78012500Y-54213604D02*
X78012500Y-53100000D01*
X93800000Y-62146500D02*
X93800000Y-61300000D01*
X78698896Y-54900000D02*
X78012500Y-54213604D01*
X93800000Y-61300000D02*
X93200000Y-60700000D01*
X93800000Y-62146500D02*
X90419292Y-62146500D01*
%TO.N,/TIM1_CH3*%
X96172994Y-63446500D02*
X95700000Y-63919494D01*
X83700000Y-56700000D02*
X82800000Y-55800000D01*
X95700000Y-63919494D02*
X95700000Y-65000000D01*
X82800000Y-55800000D02*
X78326104Y-55800000D01*
X83200000Y-57200000D02*
X83200000Y-57300000D01*
X96096500Y-65396500D02*
X96929000Y-65396500D01*
X96929000Y-63446500D02*
X90446500Y-63446500D01*
X83700000Y-56700000D02*
X83200000Y-57200000D01*
X78326104Y-55800000D02*
X77012500Y-54486396D01*
X90446500Y-63446500D02*
X83700000Y-56700000D01*
X95700000Y-65000000D02*
X96096500Y-65396500D01*
X96929000Y-63446500D02*
X96172994Y-63446500D01*
X77012500Y-54486396D02*
X77012500Y-52837500D01*
%TO.N,/TIM8_CH3*%
X58071000Y-59953500D02*
X57314000Y-59953500D01*
X68924500Y-47150000D02*
X58071000Y-58003500D01*
X57096500Y-58003500D02*
X58071000Y-58003500D01*
X56875000Y-59514500D02*
X56875000Y-58225000D01*
X61600000Y-54300000D02*
X61200000Y-53900000D01*
X68924500Y-47150000D02*
X74325000Y-47150000D01*
X57314000Y-59953500D02*
X56875000Y-59514500D01*
X56875000Y-58225000D02*
X57096500Y-58003500D01*
%TO.N,/TIM8_CH1*%
X62968198Y-55568198D02*
X63700000Y-56300000D01*
X59300000Y-60781500D02*
X59300000Y-59775500D01*
X58071000Y-61253500D02*
X58828000Y-61253500D01*
X58832896Y-59303500D02*
X62968198Y-55168198D01*
X62968198Y-55168198D02*
X62968198Y-55568198D01*
X58071000Y-59303500D02*
X58832896Y-59303500D01*
X69486396Y-48650000D02*
X74325000Y-48650000D01*
X62968198Y-55168198D02*
X69486396Y-48650000D01*
X59300000Y-59775500D02*
X58828000Y-59303500D01*
X58828000Y-59303500D02*
X58071000Y-59303500D01*
X58828000Y-61253500D02*
X59300000Y-60781500D01*
D65*
%TO.N,/SPI1_MISO*%
X81200000Y-47150000D02*
X81950000Y-47150000D01*
X75826800Y-36000001D02*
X75057538Y-36000001D01*
X75171730Y-36025357D02*
X75197087Y-36000000D01*
X75057538Y-36000001D02*
X74972968Y-36084571D01*
X75171730Y-36025357D02*
X75197086Y-36000001D01*
X81950000Y-47150000D02*
X82100000Y-47000000D01*
X75197086Y-36000001D02*
X75826800Y-36000001D01*
D59*
%TO.N,/TIM8_CH2*%
X65590253Y-51890253D02*
X58827006Y-58653500D01*
X65590253Y-51890253D02*
X65409747Y-51890253D01*
X58846500Y-58653500D02*
X58071000Y-58653500D01*
X69830506Y-47650000D02*
X65590253Y-51890253D01*
X74325000Y-47650000D02*
X69830506Y-47650000D01*
X65409747Y-51890253D02*
X64800000Y-52500000D01*
X58827006Y-58653500D02*
X58071000Y-58653500D01*
D65*
%TO.N,/SPI1_MOSI*%
X78800000Y-39600000D02*
X80925000Y-41725000D01*
X78800000Y-36826802D02*
X78800000Y-39600000D01*
X82525000Y-47650000D02*
X82600000Y-47575000D01*
X78773200Y-36800002D02*
X78800000Y-36826802D01*
X80925000Y-41725000D02*
X80925000Y-42900000D01*
X78773200Y-39729334D02*
X78773200Y-39600000D01*
X80925000Y-42900000D02*
X80943207Y-42918207D01*
X81200000Y-47650000D02*
X82525000Y-47650000D01*
%TO.N,/SPI1_SCK*%
X81900000Y-45950000D02*
X81900000Y-38995802D01*
X79304198Y-36400000D02*
X78773200Y-36400000D01*
X80952099Y-38047901D02*
X80602099Y-37697901D01*
X80602099Y-37697901D02*
X80655133Y-37644867D01*
X80725844Y-37574156D02*
X80725844Y-37821646D01*
X80725844Y-37821646D02*
X80952099Y-38047901D01*
X80602099Y-37697901D02*
X79304198Y-36400000D01*
X81200000Y-46650000D02*
X81900000Y-45950000D01*
X81900000Y-38995802D02*
X80952099Y-38047901D01*
D59*
%TO.N,Net-(Q8-S-Pad1)*%
X106512500Y-69276476D02*
X106512500Y-69000000D01*
X107832500Y-69996476D02*
X107232500Y-69996476D01*
X107232500Y-69996476D02*
X106512500Y-69276476D01*
D65*
%TO.N,Net-(U9-VDD)*%
X74300000Y-36400000D02*
X74509571Y-36609571D01*
X76167500Y-33000001D02*
X76162500Y-32995001D01*
X77837500Y-33000001D02*
X76331890Y-33000001D01*
X76162500Y-32705611D02*
X76100000Y-32768111D01*
X76162500Y-34189302D02*
X76299999Y-34326801D01*
X76162500Y-32658003D02*
X76272608Y-32768111D01*
X75190429Y-36609571D02*
X75400000Y-36400000D01*
X77837500Y-33000001D02*
X76167500Y-33000001D01*
X76331890Y-33000001D02*
X76100000Y-32768111D01*
X77837500Y-33000001D02*
X76337500Y-31500001D01*
X76162500Y-32995001D02*
X76162500Y-34189302D01*
X74509571Y-36609571D02*
X75190429Y-36609571D01*
X76162500Y-31500001D02*
X76162500Y-32705611D01*
X76337500Y-31500001D02*
X76162500Y-31500001D01*
X75400000Y-36400000D02*
X75826800Y-36400000D01*
D59*
%TO.N,/NSS1*%
X73435124Y-49924141D02*
X73660983Y-50150000D01*
X72752395Y-49924141D02*
X73435124Y-49924141D01*
X74325000Y-50150000D02*
X73660983Y-50150000D01*
%TO.N,/NSS2*%
X83250000Y-48150000D02*
X81200000Y-48150000D01*
X85483861Y-46102965D02*
X85297035Y-46102965D01*
X85297035Y-46102965D02*
X83250000Y-48150000D01*
%TO.N,/ADC1_IN11*%
X80512500Y-52837500D02*
X80512500Y-53660000D01*
X80512500Y-53660000D02*
X80587500Y-53735000D01*
X76175000Y-64387500D02*
X76187500Y-64400000D01*
X76175000Y-62900000D02*
X76175000Y-64387500D01*
%TO.N,/ADC1_IN5*%
X79636084Y-53735000D02*
X79536562Y-53635478D01*
X79536562Y-53635478D02*
X79536562Y-53311429D01*
X72225000Y-62900000D02*
X71900000Y-62900000D01*
X79536562Y-53311429D02*
X79512500Y-53287367D01*
X79512500Y-53287367D02*
X79512500Y-52837500D01*
X71900000Y-62900000D02*
X71400000Y-62400000D01*
X72225000Y-62900000D02*
X70607500Y-62900000D01*
%TO.N,/inverter/2VS1*%
X104288524Y-63807976D02*
X104892500Y-63807976D01*
X102671000Y-64096500D02*
X104000000Y-64096500D01*
X104000000Y-64096500D02*
X104288524Y-63807976D01*
%TO.N,Net-(D2-K)*%
X98500000Y-66665000D02*
X101502500Y-66665000D01*
X104892500Y-65532976D02*
X102807476Y-65532976D01*
X102807476Y-65532976D02*
X102671000Y-65396500D01*
X102483750Y-65683750D02*
X102671000Y-65496500D01*
X101502500Y-66665000D02*
X102483750Y-65683750D01*
%TO.N,/inverter/2VS2*%
X104900000Y-60237500D02*
X105737500Y-60237500D01*
X105737500Y-60237500D02*
X106369904Y-60869904D01*
X104900000Y-60237500D02*
X103867000Y-61270500D01*
X103867000Y-61706506D02*
X103427006Y-62146500D01*
X103867000Y-61270500D02*
X103867000Y-61706506D01*
X103427006Y-62146500D02*
X102671000Y-62146500D01*
%TO.N,Net-(D3-K)*%
X102671000Y-63446500D02*
X103914400Y-63446500D01*
X104900000Y-62460900D02*
X104900000Y-61962500D01*
X96900000Y-57935000D02*
X101475000Y-62510000D01*
X101475000Y-63075000D02*
X101846500Y-63446500D01*
X101846500Y-63446500D02*
X102671000Y-63446500D01*
X103914400Y-63446500D02*
X104900000Y-62460900D01*
X101475000Y-62510000D02*
X101475000Y-63075000D01*
%TO.N,Net-(D4-K)*%
X101200000Y-55937500D02*
X101097500Y-55937500D01*
X101914994Y-61496500D02*
X99100000Y-58681506D01*
X101097500Y-55937500D02*
X99100000Y-57935000D01*
X102671000Y-61496500D02*
X101914994Y-61496500D01*
X99100000Y-58681506D02*
X99100000Y-57935000D01*
%TO.N,/inverter/2VS3*%
X101200000Y-59481506D02*
X101914994Y-60196500D01*
X101200000Y-57662500D02*
X101200000Y-59481506D01*
X109662500Y-55796476D02*
X108408976Y-57050000D01*
X101914994Y-60196500D02*
X102671000Y-60196500D01*
X108408976Y-57050000D02*
X101812500Y-57050000D01*
X109662500Y-55456476D02*
X109662500Y-55796476D01*
X101812500Y-57050000D02*
X101200000Y-57662500D01*
D61*
%TO.N,/inverter/1VS1*%
X50357460Y-56362500D02*
X47628782Y-53633822D01*
X53500000Y-56362500D02*
X50357460Y-56362500D01*
D59*
%TO.N,Net-(D7-K)*%
X54302500Y-54637500D02*
X56000000Y-56335000D01*
X53500000Y-54637500D02*
X54302500Y-54637500D01*
X54331500Y-58003500D02*
X52329000Y-58003500D01*
X56000000Y-56335000D02*
X54331500Y-58003500D01*
%TO.N,Net-(D10-K)*%
X50000000Y-58380506D02*
X51572994Y-59953500D01*
X51572994Y-59953500D02*
X52329000Y-59953500D01*
X53153500Y-59953500D02*
X52329000Y-59953500D01*
X50000000Y-58375000D02*
X50000000Y-58380506D01*
X53525000Y-60725000D02*
X53525000Y-60325000D01*
X53525000Y-60325000D02*
X53153500Y-59953500D01*
X58100000Y-65565000D02*
X58100000Y-65300000D01*
X58100000Y-65300000D02*
X53525000Y-60725000D01*
D60*
%TO.N,/inverter/1VS2*%
X43450000Y-57090000D02*
X39395000Y-57090000D01*
D59*
X45250000Y-58650000D02*
X44800000Y-58200000D01*
X45250000Y-58890000D02*
X45250000Y-58650000D01*
D60*
X43450000Y-57090000D02*
X45250000Y-58890000D01*
D59*
X51153500Y-61253500D02*
X52329000Y-61253500D01*
D60*
X39115000Y-57090000D02*
X43450000Y-57090000D01*
D59*
X50000000Y-60100000D02*
X51153500Y-61253500D01*
D60*
X39395000Y-57090000D02*
X38351500Y-58133500D01*
X35300000Y-58100000D02*
X35266500Y-58133500D01*
X37285000Y-58100000D02*
X38105000Y-58100000D01*
X38105000Y-58100000D02*
X39115000Y-57090000D01*
X38351500Y-58133500D02*
X35266500Y-58133500D01*
X37285000Y-58100000D02*
X35300000Y-58100000D01*
D59*
%TO.N,Net-(D11-K)*%
X53085006Y-61903500D02*
X52329000Y-61903500D01*
X52200500Y-61775000D02*
X52329000Y-61903500D01*
X55700000Y-65565000D02*
X55700000Y-64518494D01*
X55700000Y-64518494D02*
X53085006Y-61903500D01*
X50000000Y-61775000D02*
X52200500Y-61775000D01*
%TO.N,/inverter/1VS3*%
X51276494Y-63500000D02*
X51572994Y-63203500D01*
X50000000Y-63500000D02*
X51276494Y-63500000D01*
X50000000Y-63500000D02*
X49800000Y-63500000D01*
X51572994Y-63203500D02*
X52329000Y-63203500D01*
D65*
%TO.N,Net-(U9-REGOUT)*%
X75175001Y-35600001D02*
X74700000Y-35125000D01*
X75826800Y-35600001D02*
X75175001Y-35600001D01*
D59*
%TO.N,/inverter/1HO1*%
X40837500Y-54605000D02*
X39502500Y-55940000D01*
X40837500Y-53890000D02*
X40837500Y-54605000D01*
D61*
X39502500Y-55940000D02*
X40000000Y-55940000D01*
D59*
%TO.N,Net-(D5-A)*%
X42715000Y-70162500D02*
X43452500Y-70900000D01*
X42715000Y-68900000D02*
X42715000Y-70162500D01*
X42715000Y-67388500D02*
X42753500Y-67350000D01*
X42715000Y-68900000D02*
X42715000Y-67388500D01*
%TO.N,/inverter/1LO1*%
X44350000Y-54427500D02*
X44867500Y-53910000D01*
X45275000Y-56875000D02*
X44350000Y-55950000D01*
X48375000Y-56875000D02*
X45275000Y-56875000D01*
X44350000Y-55950000D02*
X44350000Y-54427500D01*
X49522924Y-64362500D02*
X49200000Y-64039576D01*
X52329000Y-63853500D02*
X51820000Y-64362500D01*
X49200000Y-64039576D02*
X49200000Y-57700000D01*
X49200000Y-57700000D02*
X48375000Y-56875000D01*
X51820000Y-64362500D02*
X49522924Y-64362500D01*
%TO.N,Net-(D6-A)*%
X46802500Y-67450000D02*
X46902500Y-67350000D01*
X46802500Y-68900000D02*
X46802500Y-69450000D01*
X46802500Y-69450000D02*
X48252500Y-70900000D01*
X46802500Y-68900000D02*
X46802500Y-67450000D01*
%TO.N,/inverter/1HO2*%
X40807500Y-61300000D02*
X40807500Y-61972500D01*
X40807500Y-61972500D02*
X39460000Y-63320000D01*
X52329000Y-60603500D02*
X51442209Y-60603500D01*
X51442209Y-60603500D02*
X51438709Y-60600000D01*
D61*
%TO.N,/inverter/1LO2*%
X58071000Y-63853500D02*
X57918000Y-63853500D01*
D59*
X44372500Y-63350000D02*
X44372500Y-61685000D01*
X44372500Y-61685000D02*
X44767500Y-61290000D01*
%TO.N,/inverter/1HO3*%
X40890000Y-68900000D02*
X40890000Y-70162500D01*
X50721101Y-62553500D02*
X52329000Y-62553500D01*
X52329000Y-62553500D02*
X50805533Y-62553500D01*
X50805533Y-62553500D02*
X50729535Y-62629498D01*
X40890000Y-70162500D02*
X40152500Y-70900000D01*
D61*
%TO.N,/inverter/1LO3*%
X58396500Y-63203500D02*
X58400000Y-63200000D01*
X58071000Y-63203500D02*
X58396500Y-63203500D01*
D59*
X44977500Y-70875000D02*
X44952500Y-70900000D01*
X44977500Y-68900000D02*
X44977500Y-70875000D01*
%TO.N,Net-(D16-A)*%
X112179000Y-67971476D02*
X112179000Y-66188976D01*
X112179000Y-66188976D02*
X112061500Y-66071476D01*
X112179000Y-67971476D02*
X112179000Y-69113976D01*
X112179000Y-69113976D02*
X111961500Y-69331476D01*
%TO.N,/inverter/2HO1*%
X115361500Y-66613976D02*
X114004000Y-67971476D01*
X102747024Y-64670476D02*
X113960500Y-64670476D01*
X113960500Y-64670476D02*
X115361500Y-66071476D01*
X102671000Y-64746500D02*
X102747024Y-64670476D01*
X115361500Y-66071476D02*
X115361500Y-66613976D01*
%TO.N,Net-(D17-A)*%
X108149000Y-67971476D02*
X108149000Y-69029976D01*
X108149000Y-69029976D02*
X107832500Y-69346476D01*
X108149000Y-66961476D02*
X107259000Y-66071476D01*
X108149000Y-67971476D02*
X108149000Y-66961476D01*
%TO.N,Net-(D18-A)*%
X111967500Y-60331476D02*
X111967500Y-61587500D01*
X111967500Y-61587500D02*
X111730000Y-61825000D01*
X111967500Y-58441476D02*
X111817500Y-58291476D01*
X111967500Y-60331476D02*
X111967500Y-58441476D01*
%TO.N,/inverter/2HO2*%
X115117500Y-59075000D02*
X113792500Y-60400000D01*
X115117500Y-58400000D02*
X115117500Y-59075000D01*
D61*
X103594778Y-62796500D02*
X103739111Y-62652167D01*
X102671000Y-62796500D02*
X103594778Y-62796500D01*
D59*
%TO.N,Net-(D19-A)*%
X107867500Y-60411476D02*
X107867500Y-61623976D01*
X107867500Y-59388976D02*
X106950000Y-58471476D01*
X107867500Y-60411476D02*
X107867500Y-59388976D01*
X107867500Y-61623976D02*
X107600000Y-61891476D01*
%TO.N,Net-(D20-A)*%
X112440000Y-53071476D02*
X112440000Y-53996976D01*
X112440000Y-51221476D02*
X112270000Y-51051476D01*
X112440000Y-53071476D02*
X112440000Y-51221476D01*
X112440000Y-53996976D02*
X111982500Y-54454476D01*
%TO.N,/inverter/2HO3*%
X104100000Y-60173506D02*
X104100000Y-59697924D01*
X114265000Y-52356476D02*
X115570000Y-51051476D01*
X116100000Y-51581476D02*
X115570000Y-51051476D01*
X106297924Y-57500000D02*
X111100000Y-57500000D01*
X116100000Y-56456976D02*
X116100000Y-51581476D01*
X102671000Y-60846500D02*
X103427006Y-60846500D01*
X115456976Y-57100000D02*
X116100000Y-56456976D01*
X104100000Y-59697924D02*
X106297924Y-57500000D01*
X111500000Y-57100000D02*
X115456976Y-57100000D01*
X114265000Y-53071476D02*
X114265000Y-52356476D01*
X111100000Y-57500000D02*
X111500000Y-57100000D01*
X103427006Y-60846500D02*
X104100000Y-60173506D01*
%TO.N,Net-(D21-A)*%
X108227500Y-54146476D02*
X107892500Y-54481476D01*
X108227500Y-51868976D02*
X107440000Y-51081476D01*
X108227500Y-52991476D02*
X108227500Y-51868976D01*
X108227500Y-52991476D02*
X108227500Y-54146476D01*
%TO.N,/inverter/2LO3*%
X110052500Y-51768976D02*
X110740000Y-51081476D01*
X96796500Y-60196500D02*
X96778500Y-60178500D01*
X110052500Y-52991476D02*
X110052500Y-51768976D01*
X96929000Y-60196500D02*
X96796500Y-60196500D01*
D61*
%TO.N,/inverter/2LO2*%
X109692500Y-60540000D02*
X109692500Y-60411476D01*
X110250000Y-59853976D02*
X109692500Y-60411476D01*
X110250000Y-58471476D02*
X110250000Y-59853976D01*
D59*
X96929000Y-59546500D02*
X97353500Y-59546500D01*
%TO.N,/inverter/2LO1*%
X110559000Y-66071476D02*
X109974000Y-66656476D01*
X109974000Y-66656476D02*
X109974000Y-67971476D01*
X102671000Y-59546500D02*
X103453500Y-59546500D01*
D68*
%TO.N,VDDA*%
X83137500Y-50400000D02*
X81112500Y-50400000D01*
D62*
X83150000Y-50387500D02*
X83137500Y-50400000D01*
X83150000Y-48900000D02*
X83150000Y-50387500D01*
D66*
X83200000Y-51900000D02*
X83200000Y-50800000D01*
D59*
X83100000Y-51900000D02*
X83200000Y-51800000D01*
D62*
X83137500Y-50400000D02*
X83137500Y-51887500D01*
X83137500Y-51887500D02*
X83150000Y-51900000D01*
D66*
X83200000Y-50700000D02*
X83200000Y-50200000D01*
D59*
%TO.N,/USART2_TX*%
X79725354Y-44949233D02*
X79512500Y-45162087D01*
X79512500Y-45162087D02*
X79512500Y-45500000D01*
X79512500Y-45962500D02*
X79512500Y-45500000D01*
%TO.N,/USART2_RX*%
X80012500Y-45475260D02*
X80012500Y-45962500D01*
X80411754Y-45076006D02*
X80413781Y-45076006D01*
X80012500Y-45475260D02*
X80411754Y-45076006D01*
%TO.N,/ADC2_IN12*%
X81200000Y-49650000D02*
X81864017Y-49650000D01*
X81864017Y-49650000D02*
X81938063Y-49575954D01*
X84825647Y-62917712D02*
X85759788Y-62917712D01*
X81863000Y-49650000D02*
X81200000Y-49650000D01*
X81913000Y-49600000D02*
X81863000Y-49650000D01*
X85759788Y-62917712D02*
X85857500Y-62820000D01*
%TO.N,/SPI3_MOSI*%
X73362500Y-49275000D02*
X73543035Y-49275000D01*
X73543035Y-49275000D02*
X73668035Y-49150000D01*
X73668035Y-49150000D02*
X74325000Y-49150000D01*
%TO.N,/SPI3_MISO*%
X73287804Y-50650000D02*
X74325000Y-50650000D01*
X37626913Y-43971162D02*
X36255751Y-42600000D01*
X37626913Y-44573087D02*
X37626913Y-43971162D01*
X73167767Y-50635479D02*
X73273283Y-50635479D01*
X73273283Y-50635479D02*
X73287804Y-50650000D01*
X73168171Y-50499141D02*
X73319030Y-50650000D01*
X73319030Y-50650000D02*
X74325000Y-50650000D01*
%TO.N,/RESET*%
X78012500Y-45300418D02*
X78012500Y-45962500D01*
X78112499Y-45200419D02*
X78012500Y-45300418D01*
%TO.N,Net-(D22-A)*%
X46592500Y-60292500D02*
X47020000Y-59865000D01*
X46592500Y-61290000D02*
X46592500Y-60292500D01*
X47672500Y-63350000D02*
X47672500Y-62370000D01*
X47672500Y-62370000D02*
X46592500Y-61290000D01*
%TO.N,Net-(D23-A)*%
X42662500Y-53890000D02*
X42662500Y-52903214D01*
X42802500Y-55940000D02*
X42802500Y-54030000D01*
X42662500Y-52903214D02*
X43190000Y-52375714D01*
X42802500Y-54030000D02*
X42662500Y-53890000D01*
%TO.N,Net-(D24-A)*%
X46692500Y-53910000D02*
X46692500Y-54992500D01*
X46692500Y-52991500D02*
X47299000Y-52385000D01*
X46692500Y-53910000D02*
X46692500Y-52991500D01*
X46692500Y-54992500D02*
X47650000Y-55950000D01*
%TO.N,/OP_VCC*%
X78955000Y-61212500D02*
X67547924Y-61212500D01*
X65937500Y-63362500D02*
X65475000Y-62900000D01*
D61*
X79575000Y-64010000D02*
X80025000Y-64460000D01*
D59*
X65937500Y-64500000D02*
X65937500Y-63362500D01*
D66*
X74230000Y-61212500D02*
X74192500Y-61175000D01*
D59*
X67547924Y-61212500D02*
X65860424Y-62900000D01*
X65860424Y-62900000D02*
X65475000Y-62900000D01*
D66*
X78955000Y-61212500D02*
X74230000Y-61212500D01*
D61*
X79575000Y-62900000D02*
X79575000Y-64010000D01*
D59*
%TO.N,/VREF_OP*%
X67612500Y-70200000D02*
X67312500Y-69900000D01*
X87087500Y-71012500D02*
X88500000Y-69600000D01*
X78000000Y-71012500D02*
X76900000Y-69912500D01*
X74700000Y-67900000D02*
X73687500Y-68912500D01*
X73687500Y-69877076D02*
X73364576Y-70200000D01*
X76900000Y-69912500D02*
X76900000Y-68700000D01*
X73364576Y-70200000D02*
X67612500Y-70200000D01*
X78000000Y-71012500D02*
X87087500Y-71012500D01*
X73687500Y-68912500D02*
X73687500Y-69877076D01*
%TO.N,/ADC2_IN15*%
X78899255Y-53636755D02*
X79012500Y-53523509D01*
X62137500Y-63087500D02*
X62125000Y-63100000D01*
X78801009Y-53735000D02*
X78899255Y-53636755D01*
X78899255Y-53636755D02*
X78899254Y-53636755D01*
X79012500Y-53523509D02*
X79012500Y-52837500D01*
X78899254Y-53636755D02*
X78801009Y-53735000D01*
X62137500Y-61700000D02*
X62137500Y-63087500D01*
%TO.N,Net-(Q12-S-Pad1)*%
X106675000Y-53851476D02*
X106675000Y-55458976D01*
X106675000Y-55458976D02*
X106312500Y-55821476D01*
X106312500Y-55821476D02*
X107078524Y-55821476D01*
X107078524Y-55821476D02*
X107300000Y-55600000D01*
%TO.N,Net-(Q16-S-Pad1)*%
X48447500Y-53010000D02*
X48447500Y-51512500D01*
X48447500Y-51512500D02*
X48820000Y-51140000D01*
%TO.N,/1CS1-*%
X53228610Y-69940000D02*
X53228610Y-70460000D01*
X58628610Y-70460000D02*
X58628610Y-70340000D01*
X56588610Y-70700000D02*
X56468610Y-70700000D01*
X73500972Y-70700000D02*
X74700000Y-69500972D01*
X54428610Y-70240000D02*
X54428610Y-70460000D01*
X54188610Y-70700000D02*
X54068610Y-70700000D01*
X59228610Y-69940000D02*
X59228610Y-70460000D01*
X53828610Y-70460000D02*
X53828610Y-69940000D01*
X57188610Y-70000000D02*
X57068610Y-70000000D01*
X62548837Y-70700000D02*
X73500972Y-70700000D01*
X52988610Y-70700000D02*
X52868610Y-70700000D01*
X51817500Y-69655000D02*
X51882500Y-69720000D01*
X51882500Y-69720000D02*
X52862500Y-70700000D01*
X52868610Y-70700000D02*
X52862500Y-70700000D01*
X58988610Y-70700000D02*
X58868610Y-70700000D01*
X58028610Y-70340000D02*
X58028610Y-70460000D01*
X59588610Y-69700000D02*
X59468610Y-69700000D01*
X61828837Y-69700000D02*
X61948837Y-69700000D01*
X55628610Y-70340000D02*
X55628610Y-70460000D01*
X54788610Y-70000000D02*
X54668610Y-70000000D01*
X62428837Y-70700000D02*
X62548837Y-70700000D01*
X53588610Y-69700000D02*
X53468610Y-69700000D01*
X74700000Y-69500972D02*
X74700000Y-69400000D01*
X58388610Y-70100000D02*
X58268610Y-70100000D01*
X56228610Y-70460000D02*
X56228610Y-70340000D01*
X55388610Y-70700000D02*
X55268610Y-70700000D01*
X62188837Y-69940000D02*
X62188837Y-70460000D01*
X55028610Y-70460000D02*
X55028610Y-70240000D01*
X55988610Y-70100000D02*
X55868610Y-70100000D01*
X60068610Y-70700000D02*
X61348837Y-70700000D01*
X59828610Y-70460000D02*
X59828610Y-69940000D01*
X57428610Y-70460000D02*
X57428610Y-70240000D01*
X51817500Y-68190000D02*
X51817500Y-69655000D01*
X61588837Y-70460000D02*
X61588837Y-69940000D01*
X56828610Y-70240000D02*
X56828610Y-70460000D01*
X57788610Y-70700000D02*
X57668610Y-70700000D01*
X53468610Y-69700000D02*
G75*
G03*
X53228600Y-69940000I-10J-240000D01*
G01*
X59828610Y-69940000D02*
G75*
G03*
X59588610Y-69699990I-240010J0D01*
G01*
X57428610Y-70240000D02*
G75*
G03*
X57188610Y-69999990I-240010J0D01*
G01*
X54668610Y-70000000D02*
G75*
G03*
X54428600Y-70240000I-10J-240000D01*
G01*
X57668610Y-70700000D02*
G75*
G02*
X57428600Y-70460000I-10J240000D01*
G01*
X58028610Y-70460000D02*
G75*
G02*
X57788610Y-70700010I-240010J0D01*
G01*
X61948837Y-69700000D02*
G75*
G02*
X62188800Y-69940000I-37J-240000D01*
G01*
X55868610Y-70100000D02*
G75*
G03*
X55628600Y-70340000I-10J-240000D01*
G01*
X62188837Y-70460000D02*
G75*
G03*
X62428837Y-70699963I239963J0D01*
G01*
X55028610Y-70240000D02*
G75*
G03*
X54788610Y-69999990I-240010J0D01*
G01*
X53228610Y-70460000D02*
G75*
G02*
X52988610Y-70700010I-240010J0D01*
G01*
X56468610Y-70700000D02*
G75*
G02*
X56228600Y-70460000I-10J240000D01*
G01*
X54428610Y-70460000D02*
G75*
G02*
X54188610Y-70700010I-240010J0D01*
G01*
X58268610Y-70100000D02*
G75*
G03*
X58028600Y-70340000I-10J-240000D01*
G01*
X58868610Y-70700000D02*
G75*
G02*
X58628600Y-70460000I-10J240000D01*
G01*
X59468610Y-69700000D02*
G75*
G03*
X59228600Y-69940000I-10J-240000D01*
G01*
X57068610Y-70000000D02*
G75*
G03*
X56828600Y-70240000I-10J-240000D01*
G01*
X58628610Y-70340000D02*
G75*
G03*
X58388610Y-70099990I-240010J0D01*
G01*
X59228610Y-70460000D02*
G75*
G02*
X58988610Y-70700010I-240010J0D01*
G01*
X61348837Y-70700000D02*
G75*
G03*
X61588800Y-70460000I-37J240000D01*
G01*
X60068610Y-70700000D02*
G75*
G02*
X59828600Y-70460000I-10J240000D01*
G01*
X55628610Y-70460000D02*
G75*
G02*
X55388610Y-70700010I-240010J0D01*
G01*
X55268610Y-70700000D02*
G75*
G02*
X55028600Y-70460000I-10J240000D01*
G01*
X61588837Y-69940000D02*
G75*
G02*
X61828837Y-69700037I239963J0D01*
G01*
X53828610Y-69940000D02*
G75*
G03*
X53588610Y-69699990I-240010J0D01*
G01*
X56828610Y-70460000D02*
G75*
G02*
X56588610Y-70700010I-240010J0D01*
G01*
X56228610Y-70340000D02*
G75*
G03*
X55988610Y-70099990I-240010J0D01*
G01*
X54068610Y-70700000D02*
G75*
G02*
X53828600Y-70460000I-10J240000D01*
G01*
%TO.N,/1CS1+*%
X75512500Y-69877076D02*
X75512500Y-65600000D01*
X51587500Y-71150000D02*
X74239576Y-71150000D01*
X50242500Y-68190000D02*
X50242500Y-69635000D01*
X50242500Y-69635000D02*
X50157500Y-69720000D01*
X75512500Y-65600000D02*
X74400000Y-64487500D01*
X50157500Y-69720000D02*
X51587500Y-71150000D01*
X74239576Y-71150000D02*
X75512500Y-69877076D01*
%TO.N,/1CS2+*%
X50272500Y-53010000D02*
X50272500Y-54335000D01*
X50272500Y-54335000D02*
X50097500Y-54510000D01*
%TO.N,/1CS2-*%
X51767500Y-53010000D02*
X51767500Y-54455000D01*
X51822500Y-54675000D02*
X51822500Y-54510000D01*
X51767500Y-54455000D02*
X51822500Y-54510000D01*
%TO.N,/2CS1-*%
X103137500Y-68925000D02*
X103212500Y-69000000D01*
X102437500Y-68200000D02*
X103137500Y-67500000D01*
X96595859Y-68380000D02*
X96595859Y-68900000D01*
X88964576Y-68600000D02*
X89424576Y-68140000D01*
X96835859Y-69140000D02*
X96955859Y-69140000D01*
X88000000Y-68600000D02*
X88964576Y-68600000D01*
X102497500Y-68140000D02*
X103137500Y-67500000D01*
X87812500Y-68787500D02*
X88977076Y-68787500D01*
X97435859Y-68140000D02*
X97555859Y-68140000D01*
X97555859Y-68140000D02*
X102497500Y-68140000D01*
X97195859Y-68900000D02*
X97195859Y-68380000D01*
X89424576Y-68140000D02*
X96355859Y-68140000D01*
X87000000Y-69600000D02*
X88000000Y-68600000D01*
X103137500Y-67500000D02*
X103137500Y-68925000D01*
X87000000Y-69600000D02*
X87812500Y-68787500D01*
X96955859Y-69140000D02*
G75*
G03*
X97195900Y-68900000I41J240000D01*
G01*
X96595859Y-68900000D02*
G75*
G03*
X96835859Y-69140041I240041J0D01*
G01*
X97195859Y-68380000D02*
G75*
G02*
X97435859Y-68139959I240041J0D01*
G01*
X96355859Y-68140000D02*
G75*
G02*
X96595900Y-68380000I41J-240000D01*
G01*
%TO.N,/2CS1+*%
X104862500Y-67500000D02*
X104062500Y-66700000D01*
X102400000Y-66700000D02*
X101410000Y-67690000D01*
X104062500Y-66700000D02*
X102400000Y-66700000D01*
X96800000Y-67690000D02*
X93510000Y-64400000D01*
X104687500Y-69000000D02*
X104687500Y-67675000D01*
X101410000Y-67690000D02*
X96800000Y-67690000D01*
X104687500Y-67675000D02*
X104862500Y-67500000D01*
X93510000Y-64400000D02*
X88500000Y-64400000D01*
%TO.N,/2CS2-*%
X103230000Y-52341476D02*
X96358524Y-52341476D01*
X89000000Y-59700000D02*
X93261438Y-55438561D01*
X96358524Y-52341476D02*
X94534231Y-54165769D01*
X94901926Y-55212289D02*
X94817075Y-55297141D01*
X103305000Y-53851476D02*
X103305000Y-52416476D01*
X103305000Y-52416476D02*
X103230000Y-52341476D01*
X93063448Y-54222337D02*
X92978595Y-54307189D01*
X92978595Y-54646601D02*
X93346290Y-55014296D01*
X93402859Y-54222337D02*
X94477663Y-55297141D01*
X94534231Y-54505181D02*
X94901927Y-54872877D01*
X93346290Y-55353707D02*
X93261438Y-55438561D01*
X92978595Y-54307189D02*
G75*
G03*
X92978590Y-54646606I169705J-169711D01*
G01*
X94817075Y-55297141D02*
G75*
G02*
X94477663Y-55297141I-169706J169701D01*
G01*
X94901927Y-54872877D02*
G75*
G02*
X94901944Y-55212306I-169727J-169723D01*
G01*
X94534231Y-54165769D02*
G75*
G03*
X94534206Y-54505206I169669J-169731D01*
G01*
X93346290Y-55014296D02*
G75*
G02*
X93346289Y-55353705I-169690J-169704D01*
G01*
X93402859Y-54222337D02*
G75*
G03*
X93063449Y-54222337I-169705J-169703D01*
G01*
%TO.N,/2CS2+*%
X104850000Y-53851476D02*
X104850000Y-52446476D01*
X93658524Y-51541476D02*
X87200000Y-58000000D01*
X104155000Y-51541476D02*
X93658524Y-51541476D01*
X104155000Y-51541476D02*
X104955000Y-52341476D01*
X104850000Y-52446476D02*
X104955000Y-52341476D01*
%TO.N,/SPI3_SCK*%
X38700000Y-42491425D02*
X38814433Y-42376992D01*
X74325000Y-51150000D02*
X72362500Y-51150000D01*
X38810180Y-45965086D02*
X38700000Y-45854906D01*
X38700000Y-45854906D02*
X38700000Y-42491425D01*
%TO.N,Net-(U6A--)*%
X84975000Y-65730000D02*
X86517500Y-65730000D01*
X86517500Y-65730000D02*
X87000000Y-66212500D01*
X87000000Y-66212500D02*
X88487500Y-66212500D01*
%TO.N,Net-(U7A--)*%
X72900000Y-66312500D02*
X74400000Y-66312500D01*
X71430000Y-66312500D02*
X70887500Y-65770000D01*
X72900000Y-66312500D02*
X71430000Y-66312500D01*
%TO.N,Net-(U6A-+)*%
X84975000Y-67000000D02*
X86225000Y-67000000D01*
X86225000Y-67000000D02*
X87000000Y-67775000D01*
X87000000Y-67775000D02*
X88500000Y-67775000D01*
%TO.N,Net-(U7A-+)*%
X72875000Y-69400000D02*
X72875000Y-67900000D01*
X72875000Y-67900000D02*
X72015000Y-67040000D01*
X72015000Y-67040000D02*
X70887500Y-67040000D01*
%TO.N,Net-(R34-Pad2)*%
X86927500Y-64460000D02*
X87000000Y-64387500D01*
X84975000Y-64460000D02*
X86927500Y-64460000D01*
X87000000Y-63950000D02*
X88050000Y-62900000D01*
X87000000Y-64387500D02*
X87000000Y-63950000D01*
%TO.N,Net-(R36-Pad2)*%
X74050000Y-63337500D02*
X72900000Y-64487500D01*
X72900000Y-64487500D02*
X70900000Y-64487500D01*
X70900000Y-64487500D02*
X70887500Y-64500000D01*
X74050000Y-62900000D02*
X74050000Y-63337500D01*
%TO.N,Net-(U6B--)*%
X78000000Y-67712500D02*
X76500000Y-67712500D01*
X78712500Y-67000000D02*
X78000000Y-67712500D01*
X80025000Y-67000000D02*
X78712500Y-67000000D01*
%TO.N,Net-(U7B--)*%
X63900000Y-66512500D02*
X62300000Y-66512500D01*
X64427500Y-67040000D02*
X63900000Y-66512500D01*
X65937500Y-67040000D02*
X64427500Y-67040000D01*
%TO.N,Net-(U6B-+)*%
X80025000Y-68270000D02*
X78917500Y-68270000D01*
X80025000Y-68270000D02*
X80025000Y-69462500D01*
X78917500Y-68270000D02*
X78000000Y-69187500D01*
X80025000Y-69462500D02*
X79587500Y-69900000D01*
%TO.N,Net-(U7B-+)*%
X65487500Y-69900000D02*
X65487500Y-68760000D01*
X65487500Y-68760000D02*
X65937500Y-68310000D01*
X65937500Y-68310000D02*
X64222500Y-68310000D01*
X64222500Y-68310000D02*
X63900000Y-67987500D01*
%TO.N,Net-(R48-Pad2)*%
X78012500Y-64400000D02*
X78012500Y-65875000D01*
X79867500Y-65887500D02*
X80025000Y-65730000D01*
X78000000Y-65887500D02*
X79867500Y-65887500D01*
X78012500Y-65875000D02*
X78000000Y-65887500D01*
%TO.N,Net-(R51-Pad2)*%
X64982500Y-65770000D02*
X63900000Y-64687500D01*
X65937500Y-65770000D02*
X64982500Y-65770000D01*
X63950000Y-64637500D02*
X63900000Y-64687500D01*
X63950000Y-63100000D02*
X63950000Y-64637500D01*
D63*
%TO.N,Net-(D1-K)*%
X54591000Y-39354000D02*
X54591000Y-37754000D01*
X54591000Y-37754000D02*
X55441000Y-36904000D01*
X55441000Y-36904000D02*
X61503500Y-36904000D01*
X61503500Y-36904000D02*
X61991000Y-37391500D01*
D60*
%TO.N,Net-(U3-BOOT)*%
X61753500Y-39354000D02*
X61991000Y-39116500D01*
X59991000Y-39354000D02*
X61753500Y-39354000D01*
D61*
%TO.N,Net-(D8-A)*%
X43041000Y-36454000D02*
X43041000Y-35081500D01*
X43041000Y-35081500D02*
X43281000Y-34841500D01*
D63*
%TO.N,Net-(U3-VSENSE)*%
X61978500Y-43054000D02*
X61978500Y-41504000D01*
X61868500Y-43164000D02*
X61978500Y-43054000D01*
X59991000Y-43164000D02*
X61868500Y-43164000D01*
D59*
%TO.N,Net-(U5-PA11)*%
X76512500Y-52837500D02*
X76512500Y-53575000D01*
X76512500Y-53575000D02*
X76437500Y-53650000D01*
%TO.N,Net-(D12-K)*%
X98812500Y-45400000D02*
X100900000Y-45400000D01*
%TO.N,/LED*%
X81866525Y-48650000D02*
X81200000Y-48650000D01*
X82162500Y-48945975D02*
X81866525Y-48650000D01*
%TO.N,/KEY*%
X76012500Y-45962500D02*
X76012500Y-45250000D01*
D65*
%TO.N,/SPI1_CS*%
X79470251Y-37120258D02*
X79376122Y-37214387D01*
X79274999Y-36000001D02*
X78773200Y-36000001D01*
X79364184Y-37061027D02*
X79470251Y-37061027D01*
X79300000Y-35975000D02*
X79274999Y-36000001D01*
X79355421Y-36000001D02*
X78773200Y-36000001D01*
X79457532Y-35897890D02*
X79355421Y-36000001D01*
X81550000Y-44925000D02*
X81550000Y-39388265D01*
X79376122Y-37214387D02*
X81550000Y-39388265D01*
X79470251Y-37061027D02*
X79470251Y-37120258D01*
X81550000Y-44925000D02*
X80512500Y-45962500D01*
D59*
%TO.N,/ADC1_IN2*%
X79012500Y-45275002D02*
X78937500Y-45200002D01*
X101000000Y-37000000D02*
X85500000Y-37000000D01*
X79012500Y-45962500D02*
X79012500Y-45275002D01*
X85500000Y-37000000D02*
X82600000Y-39900000D01*
%TO.N,Net-(U5-PA15)*%
X74325000Y-51650000D02*
X73350000Y-51650000D01*
X73350000Y-51650000D02*
X72500000Y-52500000D01*
%TD*%
%TA.AperFunction,Conductor*%
%TO.N,Net-(Q8-S-Pad1)*%
G36*
X106961070Y-69655020D02*
G01*
X107007698Y-69707054D01*
X107011960Y-69717104D01*
X107038703Y-69788806D01*
X107038706Y-69788811D01*
X107124952Y-69904020D01*
X107124955Y-69904023D01*
X107240164Y-69990269D01*
X107240171Y-69990273D01*
X107285118Y-70007037D01*
X107375017Y-70040567D01*
X107434627Y-70046976D01*
X108053499Y-70046975D01*
X108120538Y-70066659D01*
X108166293Y-70119463D01*
X108177499Y-70170975D01*
X108177499Y-70210609D01*
X108176789Y-70223862D01*
X108174435Y-70245760D01*
X108174424Y-70245833D01*
X108173340Y-70255941D01*
X108173330Y-70256035D01*
X108173326Y-70256072D01*
X108170595Y-70281479D01*
X108171169Y-70298166D01*
X108170632Y-70308221D01*
X108170632Y-70334731D01*
X108172465Y-70368975D01*
X108171856Y-70373204D01*
X108173338Y-70386986D01*
X108173341Y-70387016D01*
X108174169Y-70394727D01*
X108174179Y-70394808D01*
X108176789Y-70419086D01*
X108177499Y-70432340D01*
X108177499Y-70860609D01*
X108176789Y-70873862D01*
X108174435Y-70895760D01*
X108174424Y-70895833D01*
X108173340Y-70905941D01*
X108173330Y-70906035D01*
X108173326Y-70906072D01*
X108170595Y-70931479D01*
X108171169Y-70948166D01*
X108170632Y-70958221D01*
X108170632Y-70984731D01*
X108172465Y-71018975D01*
X108171856Y-71023204D01*
X108173338Y-71036986D01*
X108173341Y-71037016D01*
X108174169Y-71044727D01*
X108174179Y-71044808D01*
X108176789Y-71069086D01*
X108177499Y-71082340D01*
X108177499Y-71494474D01*
X108177475Y-71494555D01*
X108177500Y-71547423D01*
X108177500Y-71547487D01*
X108177499Y-71574665D01*
X108157812Y-71641703D01*
X108105006Y-71687456D01*
X108052251Y-71698654D01*
X105477718Y-71672736D01*
X105410880Y-71652377D01*
X105365659Y-71599115D01*
X105354991Y-71546277D01*
X105362629Y-71162461D01*
X105375602Y-71109664D01*
X105430582Y-70999250D01*
X105486397Y-70803083D01*
X105505215Y-70600000D01*
X105486397Y-70396917D01*
X105430582Y-70200750D01*
X105397224Y-70133759D01*
X105384250Y-70076021D01*
X105388162Y-69879443D01*
X105409175Y-69812814D01*
X105424450Y-69794239D01*
X105520340Y-69698350D01*
X105520341Y-69698347D01*
X105524539Y-69694150D01*
X105585862Y-69660665D01*
X105610149Y-69657848D01*
X106893714Y-69636455D01*
X106961070Y-69655020D01*
G37*
%TD.AperFunction*%
%TD*%
%TA.AperFunction,Conductor*%
%TO.N,Net-(Q16-S-Pad1)*%
G36*
X49426247Y-50088768D02*
G01*
X49493066Y-50109177D01*
X49538247Y-50162473D01*
X49548550Y-50203440D01*
X49679597Y-51942000D01*
X49665007Y-52010329D01*
X49615792Y-52059924D01*
X49551689Y-52075247D01*
X48206870Y-52029032D01*
X48140546Y-52007056D01*
X48096632Y-51952712D01*
X48094960Y-51948472D01*
X48092796Y-51942669D01*
X48092794Y-51942667D01*
X48092794Y-51942665D01*
X48006547Y-51827455D01*
X48006544Y-51827452D01*
X47891335Y-51741206D01*
X47891328Y-51741202D01*
X47756482Y-51690908D01*
X47756483Y-51690908D01*
X47696883Y-51684501D01*
X47696881Y-51684500D01*
X47696873Y-51684500D01*
X47696865Y-51684500D01*
X47053499Y-51684500D01*
X46986460Y-51664815D01*
X46940705Y-51612011D01*
X46929499Y-51560500D01*
X46929499Y-50187077D01*
X46949184Y-50120038D01*
X47001988Y-50074283D01*
X47054837Y-50063084D01*
X49426247Y-50088768D01*
G37*
%TD.AperFunction*%
%TD*%
%TA.AperFunction,Conductor*%
%TO.N,/inverter/1VS1*%
G36*
X46364822Y-50084019D02*
G01*
X46411681Y-50135846D01*
X46423999Y-50189726D01*
X46423999Y-51560500D01*
X46424000Y-51560509D01*
X46435551Y-51667950D01*
X46435554Y-51667966D01*
X46445666Y-51714450D01*
X46448500Y-51740807D01*
X46448500Y-51982869D01*
X46448501Y-51982879D01*
X46455367Y-52046751D01*
X46455367Y-52073257D01*
X46454909Y-52077516D01*
X46454909Y-52077517D01*
X46448500Y-52137127D01*
X46448500Y-52137132D01*
X46448500Y-52299547D01*
X46428815Y-52366586D01*
X46412181Y-52387228D01*
X46293769Y-52505640D01*
X46293767Y-52505642D01*
X46265175Y-52534234D01*
X46206644Y-52592764D01*
X46186048Y-52623589D01*
X46186047Y-52623590D01*
X46135238Y-52699627D01*
X46081624Y-52744431D01*
X46035363Y-52754692D01*
X44162431Y-52803430D01*
X44094902Y-52785496D01*
X44047789Y-52733900D01*
X44035916Y-52666217D01*
X44040500Y-52623587D01*
X44040499Y-52127842D01*
X44034091Y-52068231D01*
X44026380Y-52047558D01*
X43983797Y-51933385D01*
X43983793Y-51933378D01*
X43897547Y-51818169D01*
X43897544Y-51818166D01*
X43782335Y-51731920D01*
X43782328Y-51731916D01*
X43647482Y-51681622D01*
X43647483Y-51681622D01*
X43587883Y-51675215D01*
X43587881Y-51675214D01*
X43587873Y-51675214D01*
X43587865Y-51675214D01*
X43030251Y-51675214D01*
X42963212Y-51655529D01*
X42917457Y-51602725D01*
X42907513Y-51533567D01*
X42915690Y-51503762D01*
X42962049Y-51391839D01*
X42962051Y-51391835D01*
X43000500Y-51198541D01*
X43000500Y-51001459D01*
X43000500Y-51001456D01*
X42962052Y-50808170D01*
X42962051Y-50808169D01*
X42962051Y-50808165D01*
X42962049Y-50808160D01*
X42886635Y-50626092D01*
X42886628Y-50626079D01*
X42841397Y-50558386D01*
X42820519Y-50491708D01*
X42820499Y-50489495D01*
X42820499Y-50260554D01*
X42840184Y-50193515D01*
X42892988Y-50147760D01*
X42941877Y-50136583D01*
X46297383Y-50065754D01*
X46364822Y-50084019D01*
G37*
%TD.AperFunction*%
%TD*%
%TA.AperFunction,Conductor*%
%TO.N,/inverter/1VS3*%
G36*
X45993229Y-65042947D02*
G01*
X46039898Y-65094945D01*
X46050661Y-65148806D01*
X46052000Y-65148806D01*
X46052000Y-65647870D01*
X46052001Y-65647879D01*
X46058867Y-65711751D01*
X46058867Y-65738257D01*
X46058409Y-65742516D01*
X46058409Y-65742517D01*
X46052000Y-65802127D01*
X46052000Y-65802132D01*
X46052000Y-65802133D01*
X46052000Y-66297870D01*
X46052001Y-66297879D01*
X46058867Y-66361751D01*
X46058867Y-66388257D01*
X46058409Y-66392516D01*
X46058409Y-66392517D01*
X46052000Y-66452127D01*
X46052000Y-66452132D01*
X46052000Y-66452133D01*
X46052000Y-66947870D01*
X46052001Y-66947879D01*
X46058867Y-67011751D01*
X46058867Y-67038257D01*
X46058409Y-67042516D01*
X46058409Y-67042517D01*
X46052000Y-67102127D01*
X46052000Y-67102129D01*
X46052000Y-67102133D01*
X46052000Y-67597870D01*
X46052001Y-67597876D01*
X46058148Y-67655059D01*
X46045741Y-67723819D01*
X45998130Y-67774955D01*
X45930430Y-67792233D01*
X45930037Y-67792218D01*
X43723178Y-67706348D01*
X43656954Y-67684072D01*
X43613287Y-67629529D01*
X43603999Y-67582446D01*
X43603999Y-67102128D01*
X43597591Y-67042517D01*
X43584524Y-67007483D01*
X43547297Y-66907671D01*
X43547293Y-66907664D01*
X43461047Y-66792455D01*
X43461044Y-66792452D01*
X43345835Y-66706206D01*
X43345828Y-66706202D01*
X43210982Y-66655908D01*
X43210983Y-66655908D01*
X43151383Y-66649501D01*
X43151381Y-66649500D01*
X43151373Y-66649500D01*
X43151365Y-66649500D01*
X42507999Y-66649500D01*
X42440960Y-66629815D01*
X42395205Y-66577011D01*
X42383999Y-66525500D01*
X42383999Y-65208117D01*
X42403684Y-65141078D01*
X42456488Y-65095323D01*
X42505827Y-65084137D01*
X45925857Y-65024436D01*
X45993229Y-65042947D01*
G37*
%TD.AperFunction*%
%TD*%
%TA.AperFunction,Conductor*%
%TO.N,/inverter/1VS2*%
G36*
X46111161Y-57561249D02*
G01*
X46157607Y-57613446D01*
X46169500Y-57666437D01*
X46169500Y-57948989D01*
X46149815Y-58016028D01*
X46148604Y-58017877D01*
X46133366Y-58040682D01*
X46094128Y-58135414D01*
X46094128Y-58135415D01*
X46057950Y-58222755D01*
X46057947Y-58222764D01*
X46046344Y-58281098D01*
X46019500Y-58416048D01*
X46019500Y-58416053D01*
X46019500Y-58663541D01*
X46019500Y-58663543D01*
X46019499Y-58663543D01*
X46057947Y-58856829D01*
X46057950Y-58856839D01*
X46133364Y-59038907D01*
X46133369Y-59038916D01*
X46148601Y-59061711D01*
X46169480Y-59128388D01*
X46169500Y-59130604D01*
X46169500Y-59462869D01*
X46169501Y-59462879D01*
X46176367Y-59526751D01*
X46176367Y-59553257D01*
X46175909Y-59557516D01*
X46175909Y-59557517D01*
X46169500Y-59617127D01*
X46169500Y-59617128D01*
X46169500Y-59617132D01*
X46169500Y-59779546D01*
X46149815Y-59846585D01*
X46133183Y-59867226D01*
X46106639Y-59893770D01*
X46106638Y-59893772D01*
X46084701Y-59926604D01*
X46084699Y-59926607D01*
X46038188Y-59996214D01*
X46038186Y-59996217D01*
X46038185Y-59996219D01*
X46014720Y-60052871D01*
X45988706Y-60115675D01*
X45986635Y-60114817D01*
X45953829Y-60164860D01*
X45890012Y-60193307D01*
X45871543Y-60194399D01*
X43842562Y-60162695D01*
X43775838Y-60141965D01*
X43730914Y-60088453D01*
X43720499Y-60038714D01*
X43720499Y-59557128D01*
X43714091Y-59497517D01*
X43701169Y-59462872D01*
X43663797Y-59362671D01*
X43663793Y-59362664D01*
X43577547Y-59247455D01*
X43577544Y-59247452D01*
X43462335Y-59161206D01*
X43462328Y-59161202D01*
X43327482Y-59110908D01*
X43327483Y-59110908D01*
X43267883Y-59104501D01*
X43267881Y-59104500D01*
X43267873Y-59104500D01*
X43267865Y-59104500D01*
X42624499Y-59104500D01*
X42557460Y-59084815D01*
X42511705Y-59032011D01*
X42500499Y-58980500D01*
X42500499Y-57711450D01*
X42520184Y-57644411D01*
X42572988Y-57598656D01*
X42622862Y-57587462D01*
X46043872Y-57542449D01*
X46111161Y-57561249D01*
G37*
%TD.AperFunction*%
%TD*%
%TA.AperFunction,Conductor*%
%TO.N,Net-(Q1-S-Pad1)*%
G36*
X49197059Y-65168321D02*
G01*
X49263821Y-65188918D01*
X49308851Y-65242342D01*
X49319362Y-65292951D01*
X49310670Y-66970522D01*
X49290639Y-67037459D01*
X49237598Y-67082940D01*
X49180672Y-67093735D01*
X47821281Y-67027882D01*
X47755273Y-67004976D01*
X47712126Y-66950020D01*
X47711127Y-66947435D01*
X47696296Y-66907669D01*
X47696294Y-66907667D01*
X47696294Y-66907665D01*
X47610047Y-66792455D01*
X47610044Y-66792452D01*
X47494835Y-66706206D01*
X47494828Y-66706202D01*
X47359982Y-66655908D01*
X47359983Y-66655908D01*
X47300383Y-66649501D01*
X47300381Y-66649500D01*
X47300373Y-66649500D01*
X47300365Y-66649500D01*
X46681500Y-66649500D01*
X46614461Y-66629815D01*
X46568706Y-66577011D01*
X46557500Y-66525500D01*
X46557500Y-66485862D01*
X46558211Y-66472604D01*
X46561012Y-66446556D01*
X46561013Y-66446545D01*
X46561467Y-66442321D01*
X46561469Y-66442305D01*
X46564367Y-66388257D01*
X46564367Y-66361751D01*
X46561471Y-66307723D01*
X46558210Y-66277386D01*
X46557500Y-66264134D01*
X46557500Y-65835862D01*
X46558211Y-65822604D01*
X46561012Y-65796556D01*
X46561013Y-65796545D01*
X46561467Y-65792321D01*
X46561469Y-65792305D01*
X46564367Y-65738257D01*
X46564367Y-65711751D01*
X46561471Y-65657723D01*
X46558210Y-65627386D01*
X46557500Y-65614134D01*
X46557500Y-65257990D01*
X46577185Y-65190951D01*
X46629989Y-65145196D01*
X46683190Y-65134002D01*
X49197059Y-65168321D01*
G37*
%TD.AperFunction*%
%TD*%
%TA.AperFunction,Conductor*%
%TO.N,/inverter/2VS1*%
G36*
X111059385Y-68902407D02*
G01*
X111106170Y-68954300D01*
X111117701Y-69021274D01*
X111111000Y-69083606D01*
X111111000Y-69579346D01*
X111111001Y-69579352D01*
X111117408Y-69638959D01*
X111167702Y-69773804D01*
X111167706Y-69773811D01*
X111253952Y-69889020D01*
X111253955Y-69889023D01*
X111369164Y-69975269D01*
X111369171Y-69975273D01*
X111414118Y-69992037D01*
X111504017Y-70025567D01*
X111563627Y-70031976D01*
X112207000Y-70031975D01*
X112274039Y-70051659D01*
X112319794Y-70104463D01*
X112331000Y-70155975D01*
X112331000Y-71483775D01*
X112311315Y-71550814D01*
X112258511Y-71596569D01*
X112209486Y-71607750D01*
X108809256Y-71675926D01*
X108741835Y-71657589D01*
X108695031Y-71605713D01*
X108683423Y-71547670D01*
X108683000Y-71547670D01*
X108682999Y-71545553D01*
X108682949Y-71545299D01*
X108682998Y-71544367D01*
X108683000Y-71544349D01*
X108682999Y-71048604D01*
X108676591Y-70988993D01*
X108676589Y-70988989D01*
X108676132Y-70984731D01*
X108676132Y-70958221D01*
X108676589Y-70953962D01*
X108676591Y-70953959D01*
X108683000Y-70894349D01*
X108682999Y-70398604D01*
X108676591Y-70338993D01*
X108676589Y-70338989D01*
X108676132Y-70334731D01*
X108676132Y-70308221D01*
X108676589Y-70303962D01*
X108676591Y-70303959D01*
X108683000Y-70244349D01*
X108682999Y-69748604D01*
X108676591Y-69688993D01*
X108676589Y-69688989D01*
X108676132Y-69684731D01*
X108676132Y-69658221D01*
X108676589Y-69653962D01*
X108676591Y-69653959D01*
X108683000Y-69594349D01*
X108682999Y-69394276D01*
X108701262Y-69332073D01*
X108700440Y-69331634D01*
X108702552Y-69327682D01*
X108702683Y-69327237D01*
X108703264Y-69326349D01*
X108703305Y-69326271D01*
X108703312Y-69326261D01*
X108750463Y-69212427D01*
X108762400Y-69152416D01*
X108774501Y-69091584D01*
X108774501Y-69049279D01*
X108794186Y-68982240D01*
X108846990Y-68936485D01*
X108896057Y-68925303D01*
X109482169Y-68913765D01*
X109523605Y-68920034D01*
X109573747Y-68936650D01*
X109674823Y-68946976D01*
X110273176Y-68946975D01*
X110273184Y-68946974D01*
X110273187Y-68946974D01*
X110296665Y-68944575D01*
X110374253Y-68936650D01*
X110486213Y-68899549D01*
X110522759Y-68893281D01*
X110991972Y-68884045D01*
X111059385Y-68902407D01*
G37*
%TD.AperFunction*%
%TD*%
%TA.AperFunction,Conductor*%
%TO.N,/inverter/2VS2*%
G36*
X110822142Y-61541616D02*
G01*
X110868098Y-61594246D01*
X110879500Y-61646186D01*
X110879500Y-62072870D01*
X110879501Y-62072876D01*
X110885908Y-62132483D01*
X110936202Y-62267328D01*
X110936206Y-62267335D01*
X111022452Y-62382544D01*
X111022455Y-62382547D01*
X111137664Y-62468793D01*
X111137671Y-62468797D01*
X111175500Y-62482906D01*
X111272517Y-62519091D01*
X111332127Y-62525500D01*
X111975500Y-62525499D01*
X112042539Y-62545183D01*
X112088294Y-62597987D01*
X112099500Y-62649499D01*
X112099501Y-63920976D01*
X112079816Y-63988015D01*
X112027013Y-64033770D01*
X111975501Y-64044976D01*
X108574500Y-64044976D01*
X108507461Y-64025291D01*
X108461706Y-63972487D01*
X108450500Y-63920977D01*
X108450499Y-63757081D01*
X108470183Y-63690041D01*
X108471332Y-63688287D01*
X108486632Y-63665390D01*
X108562051Y-63483311D01*
X108600500Y-63290017D01*
X108600500Y-63092935D01*
X108600500Y-63092932D01*
X108600499Y-63092930D01*
X108562052Y-62899647D01*
X108562051Y-62899641D01*
X108558064Y-62890016D01*
X108516367Y-62789349D01*
X108486632Y-62717562D01*
X108471396Y-62694760D01*
X108450519Y-62628082D01*
X108450499Y-62625870D01*
X108450499Y-62293605D01*
X108450499Y-62293604D01*
X108444091Y-62233993D01*
X108444089Y-62233989D01*
X108443632Y-62229731D01*
X108443632Y-62203221D01*
X108444089Y-62198962D01*
X108444091Y-62198959D01*
X108450500Y-62139349D01*
X108450499Y-61875666D01*
X108459937Y-61828216D01*
X108468963Y-61806427D01*
X108493000Y-61685583D01*
X108493000Y-61654318D01*
X108512685Y-61587279D01*
X108565489Y-61541524D01*
X108616523Y-61530320D01*
X110755034Y-61522188D01*
X110822142Y-61541616D01*
G37*
%TD.AperFunction*%
%TD*%
%TA.AperFunction,Conductor*%
%TO.N,/inverter/2VS3*%
G36*
X111008457Y-54110293D02*
G01*
X111075420Y-54130221D01*
X111120982Y-54183192D01*
X111132000Y-54234291D01*
X111132000Y-54702346D01*
X111132001Y-54702352D01*
X111138408Y-54761959D01*
X111188702Y-54896804D01*
X111188706Y-54896811D01*
X111274952Y-55012020D01*
X111274955Y-55012023D01*
X111390164Y-55098269D01*
X111390171Y-55098273D01*
X111435118Y-55115037D01*
X111525017Y-55148567D01*
X111584627Y-55154976D01*
X112228000Y-55154975D01*
X112295039Y-55174659D01*
X112340794Y-55227463D01*
X112352000Y-55278975D01*
X112352001Y-56350500D01*
X112332317Y-56417539D01*
X112279513Y-56463294D01*
X112228001Y-56474500D01*
X111438388Y-56474500D01*
X111317555Y-56498535D01*
X111317547Y-56498537D01*
X111203716Y-56545687D01*
X111101266Y-56614142D01*
X110950767Y-56764641D01*
X110889444Y-56798125D01*
X110865855Y-56800928D01*
X108865938Y-56845592D01*
X108798475Y-56827409D01*
X108751553Y-56775640D01*
X108739880Y-56708368D01*
X108740643Y-56701267D01*
X108743000Y-56679349D01*
X108742999Y-56434802D01*
X108746476Y-56406558D01*
X108746414Y-56406546D01*
X108746586Y-56405668D01*
X108746703Y-56404721D01*
X108747014Y-56403470D01*
X108747023Y-56403442D01*
X108747024Y-56403438D01*
X108767500Y-56261022D01*
X108767500Y-55305975D01*
X108755947Y-55198521D01*
X108745833Y-55152027D01*
X108742999Y-55125669D01*
X108742999Y-54883605D01*
X108742999Y-54883604D01*
X108736591Y-54823993D01*
X108736589Y-54823989D01*
X108736132Y-54819731D01*
X108736132Y-54793221D01*
X108736589Y-54788962D01*
X108736591Y-54788959D01*
X108743000Y-54729349D01*
X108742999Y-54538462D01*
X108762683Y-54471423D01*
X108763868Y-54469614D01*
X108781812Y-54442761D01*
X108828963Y-54328927D01*
X108847925Y-54233603D01*
X108854075Y-54202683D01*
X108886460Y-54140772D01*
X108947175Y-54106198D01*
X108976135Y-54102876D01*
X111008457Y-54110293D01*
G37*
%TD.AperFunction*%
%TD*%
%TA.AperFunction,Conductor*%
%TO.N,Net-(Q12-S-Pad1)*%
G36*
X107048579Y-54867961D02*
G01*
X107093704Y-54916430D01*
X107094453Y-54916022D01*
X107096054Y-54918954D01*
X107096189Y-54919099D01*
X107096408Y-54919602D01*
X107098706Y-54923811D01*
X107184952Y-55039020D01*
X107184955Y-55039023D01*
X107300164Y-55125269D01*
X107300171Y-55125273D01*
X107345118Y-55142037D01*
X107435017Y-55175567D01*
X107494627Y-55181976D01*
X108138000Y-55181975D01*
X108205039Y-55201659D01*
X108250794Y-55254463D01*
X108262000Y-55305975D01*
X108262000Y-56261022D01*
X108242315Y-56328061D01*
X108225682Y-56348702D01*
X108186205Y-56388180D01*
X108124883Y-56421666D01*
X108098523Y-56424500D01*
X105724000Y-56424500D01*
X105656961Y-56404815D01*
X105611206Y-56352011D01*
X105600000Y-56300500D01*
X105600000Y-55019650D01*
X105619685Y-54952611D01*
X105672489Y-54906856D01*
X105719571Y-54895729D01*
X106980882Y-54850682D01*
X107048579Y-54867961D01*
G37*
%TD.AperFunction*%
%TD*%
M02*
