%TF.GenerationSoftware,KiCad,Pcbnew,8.0.2*%
%TF.CreationDate,2024-05-12T09:50:31+08:00*%
%TF.ProjectId,bldcDriver,626c6463-4472-4697-9665-722e6b696361,rev?*%
%TF.SameCoordinates,Original*%
%TF.FileFunction,Copper,L2,Inr*%
%TF.FilePolarity,Positive*%
%FSLAX46Y46*%
G04 Gerber Fmt 4.6, Leading zero omitted, Abs format (unit mm)*
G04 Created by KiCad (PCBNEW 8.0.2) date 2024-05-12 09:50:31*
%MOMM*%
%LPD*%
G01*
G04 APERTURE LIST*
%TA.AperFunction,ComponentPad*%
%ADD10R,1.700000X1.700000*%
%TD*%
%TA.AperFunction,ComponentPad*%
%ADD11O,1.700000X1.700000*%
%TD*%
%TA.AperFunction,ComponentPad*%
%ADD12C,4.400000*%
%TD*%
%TA.AperFunction,ViaPad*%
%ADD13C,0.800000*%
%TD*%
%TA.AperFunction,ViaPad*%
%ADD14C,0.500000*%
%TD*%
%TA.AperFunction,ViaPad*%
%ADD15C,1.200000*%
%TD*%
%TA.AperFunction,ViaPad*%
%ADD16C,0.900000*%
%TD*%
%TA.AperFunction,ViaPad*%
%ADD17C,0.700000*%
%TD*%
%TA.AperFunction,ViaPad*%
%ADD18C,0.600000*%
%TD*%
%TA.AperFunction,Conductor*%
%ADD19C,0.600000*%
%TD*%
%TA.AperFunction,Conductor*%
%ADD20C,0.250000*%
%TD*%
%TA.AperFunction,Conductor*%
%ADD21C,0.300000*%
%TD*%
G04 APERTURE END LIST*
D10*
%TO.N,+3V3*%
%TO.C,J2*%
X83950000Y-70600000D03*
D11*
%TO.N,GNDD*%
X81410000Y-70600000D03*
%TO.N,/USART3_TX*%
X78870000Y-70600000D03*
%TO.N,/USART3_RX*%
X76330000Y-70600000D03*
%TO.N,/SWDIO*%
X73790000Y-70600000D03*
%TO.N,/SWCLK*%
X71250000Y-70600000D03*
%TD*%
D12*
%TO.N,N/C*%
%TO.C,*%
X34960000Y-33240000D03*
%TD*%
%TO.N,N/C*%
%TO.C,*%
X119660000Y-33240000D03*
%TD*%
%TO.N,N/C*%
%TO.C,*%
X119660000Y-69640000D03*
%TD*%
%TO.N,N/C*%
%TO.C,*%
X34960000Y-69640000D03*
%TD*%
D13*
%TO.N,GNDPWR*%
X58700000Y-41200000D03*
X58700000Y-39800000D03*
%TO.N,GNDD*%
X60600000Y-41100000D03*
X60600000Y-40000000D03*
D14*
%TO.N,/TIM1_CH2*%
X96600000Y-66300000D03*
%TO.N,+3V3*%
X55637500Y-36237500D03*
X55400000Y-41000000D03*
D13*
%TO.N,GNDD*%
X61700000Y-41100000D03*
X61700000Y-40000000D03*
%TO.N,GNDPWR*%
X55100000Y-43200000D03*
X57700000Y-41200000D03*
X55000000Y-33200000D03*
X55100000Y-32400000D03*
X57600000Y-40000000D03*
X57600000Y-38200000D03*
X56900000Y-39537500D03*
X54900000Y-39700000D03*
X54000000Y-39600000D03*
X52700000Y-40000000D03*
X42000000Y-36200000D03*
X43600000Y-36400000D03*
X44600000Y-37000000D03*
X45800000Y-37400000D03*
X46900000Y-37700000D03*
%TO.N,+BATT*%
X47800000Y-40500000D03*
X42800000Y-40300000D03*
X45300000Y-42000000D03*
X47000000Y-39400000D03*
X44800000Y-39300000D03*
X42200000Y-39100000D03*
%TO.N,GNDPWR*%
X58300000Y-47400000D03*
X57800000Y-48100000D03*
X59100000Y-47400000D03*
X60100000Y-47400000D03*
X60700000Y-48100000D03*
X60600000Y-49000000D03*
X59700000Y-49400000D03*
X58700000Y-49400000D03*
X57900000Y-49000000D03*
X59200000Y-48400000D03*
%TO.N,+BATT*%
X54200000Y-48400000D03*
X54300000Y-47600000D03*
X55200000Y-47600000D03*
X55500000Y-48600000D03*
X54600000Y-49200000D03*
X53600000Y-49200000D03*
X52900000Y-48400000D03*
X53400000Y-47600000D03*
D15*
%TO.N,GNDPWR*%
X104400000Y-70600000D03*
X120258274Y-57203498D03*
X48275000Y-58600000D03*
X120100000Y-51100000D03*
X101800000Y-71100000D03*
X35400000Y-52900000D03*
X121635841Y-51200000D03*
X94800000Y-57900000D03*
X50800000Y-51700000D03*
X50600000Y-65700000D03*
X50600000Y-66700000D03*
X50800000Y-50700000D03*
X120937500Y-54300000D03*
X34900000Y-64100000D03*
X104294863Y-55083967D03*
X33500000Y-66700000D03*
X106604074Y-63195926D03*
X120351847Y-64221760D03*
X35200000Y-61600000D03*
X35400000Y-49800000D03*
X104600000Y-56125000D03*
X121299999Y-64203502D03*
X121400000Y-57203498D03*
X48275000Y-59750000D03*
X106450093Y-62103727D03*
X61600000Y-63900000D03*
D16*
%TO.N,GNDD*%
X71100000Y-65400000D03*
D17*
X73300000Y-49625000D03*
D16*
X74495573Y-39375000D03*
X78500000Y-35900000D03*
X69300000Y-40400000D03*
X38100000Y-38700000D03*
D18*
X89700000Y-39900000D03*
D16*
X85400000Y-44700000D03*
X92400000Y-33600000D03*
D17*
X79625000Y-51066423D03*
D16*
X78839492Y-58439492D03*
X67900000Y-57900000D03*
X75500000Y-45400000D03*
X117300000Y-39700000D03*
X85500000Y-45525000D03*
X75675000Y-55600000D03*
X82286019Y-52550000D03*
X85500000Y-65600000D03*
X77000000Y-44000000D03*
X67000000Y-56200000D03*
D17*
X67830760Y-51130760D03*
D16*
X75300000Y-43800000D03*
D17*
X77891293Y-51210000D03*
D16*
X78600000Y-44100000D03*
X97400000Y-36300000D03*
X71286771Y-57152979D03*
X66100000Y-58700000D03*
D14*
X92350000Y-36127043D03*
D18*
X95800000Y-40075000D03*
D16*
X84900000Y-58700000D03*
D18*
X93624999Y-36458993D03*
D16*
X70900000Y-61300000D03*
X95200000Y-44400000D03*
%TO.N,+3V3*%
X85500000Y-37700000D03*
D18*
X83950000Y-54560000D03*
D17*
X83773606Y-53436126D03*
D16*
X82900000Y-43800000D03*
D17*
X75700000Y-48700000D03*
D16*
X82637500Y-47300000D03*
D14*
%TO.N,+BATT*%
X40700000Y-65700000D03*
D15*
X99700000Y-70500000D03*
X99700000Y-53600000D03*
D14*
X40800000Y-59500000D03*
X114000000Y-70900000D03*
X113800000Y-63400000D03*
D15*
X58300000Y-67900000D03*
D14*
X113400000Y-54900000D03*
X114000000Y-70300000D03*
X40800000Y-58900000D03*
X113800000Y-62800000D03*
X41400000Y-59500000D03*
X40700000Y-66900000D03*
X113400000Y-70900000D03*
X41400000Y-58900000D03*
X114000000Y-54900000D03*
X113400000Y-69700000D03*
X114000000Y-69700000D03*
D15*
X97300000Y-53500000D03*
D14*
X113400000Y-56100000D03*
X41600000Y-51300000D03*
D15*
X117537500Y-64400000D03*
D14*
X41000000Y-51900000D03*
D15*
X117962500Y-54700000D03*
X117237500Y-66400000D03*
D14*
X113200000Y-62800000D03*
X114000000Y-56100000D03*
D15*
X56137438Y-68137437D03*
D14*
X41300000Y-65700000D03*
X41600000Y-51900000D03*
X41000000Y-50700000D03*
X113400000Y-70300000D03*
X41300000Y-66300000D03*
X41000000Y-51300000D03*
X40800000Y-58300000D03*
X41300000Y-66900000D03*
X41600000Y-50700000D03*
D15*
X55900000Y-52000000D03*
X118200000Y-57200000D03*
D14*
X114000000Y-55500000D03*
X113400000Y-55500000D03*
D15*
X118100000Y-51200000D03*
D14*
X40700000Y-66300000D03*
X113200000Y-63400000D03*
X113800000Y-62200000D03*
X41400000Y-58300000D03*
X113200000Y-62200000D03*
%TO.N,/SWDIO*%
X74256250Y-47456250D03*
%TO.N,/USART3_TX*%
X81600000Y-45725000D03*
%TO.N,/SWCLK*%
X73800000Y-46900000D03*
%TO.N,/USART3_RX*%
X80600000Y-46935000D03*
%TO.N,/MPU_INT*%
X94138750Y-34038750D03*
X80500000Y-40462500D03*
%TO.N,/TIM1_CH2*%
X97000000Y-62814500D03*
X97000000Y-64728500D03*
%TO.N,/TIM8_CH2*%
X58071000Y-60603500D03*
X58071000Y-58671500D03*
%TO.N,/NSS1*%
X67600000Y-44560479D03*
X72859950Y-44545347D03*
%TO.N,/ADC1_IN11*%
X78800000Y-59600000D03*
X80025000Y-48235000D03*
%TO.N,/ADC1_IN5*%
X79073584Y-48235000D03*
X74700000Y-60200000D03*
%TO.N,Net-(U4-VDD)*%
X92975000Y-44175000D03*
X94774170Y-36705420D03*
X96200000Y-38791116D03*
%TO.N,/inverter/2VS1*%
X104892500Y-63807976D03*
D15*
X109700000Y-70500000D03*
X116990000Y-62400000D03*
%TO.N,/inverter/2VS2*%
X118520000Y-60690000D03*
X109900000Y-62700000D03*
D14*
X106369904Y-60869904D03*
D15*
%TO.N,/inverter/2VS3*%
X117040000Y-58950000D03*
X109700000Y-55200000D03*
D14*
%TO.N,/inverter/1VS1*%
X46000000Y-50900000D03*
X46100000Y-51700000D03*
X44900000Y-51800000D03*
D15*
X37366500Y-56315339D03*
D14*
X45100000Y-50900000D03*
X47629789Y-53635326D03*
X45500000Y-51300000D03*
%TO.N,/inverter/1VS2*%
X49900000Y-60625000D03*
%TO.N,/inverter/1VS3*%
X49800000Y-63500000D03*
D15*
X37386500Y-59843500D03*
X45100000Y-66700000D03*
D14*
%TO.N,/inverter/1HO1*%
X51717172Y-58635499D03*
X40000000Y-55940000D03*
%TO.N,/inverter/1HO2*%
X41400000Y-61500000D03*
X51438709Y-60600000D03*
%TO.N,/inverter/1LO2*%
X45288750Y-61811250D03*
X57900000Y-64141421D03*
%TO.N,/inverter/1HO3*%
X50729535Y-62629498D03*
X41500000Y-68900000D03*
%TO.N,/inverter/1LO3*%
X58400000Y-63200000D03*
X45600000Y-70900000D03*
%TO.N,/inverter/2HO2*%
X114346250Y-59846250D03*
X103739111Y-62652167D03*
%TO.N,/inverter/2LO3*%
X96778500Y-60178500D03*
X109500000Y-52991476D03*
%TO.N,/inverter/2LO2*%
X97353500Y-59546500D03*
X109692500Y-60540000D03*
%TO.N,/inverter/2LO1*%
X103504408Y-59581218D03*
X110000000Y-66071476D03*
%TO.N,/USART2_TX*%
X78913832Y-39767539D03*
%TO.N,/USART2_RX*%
X90800000Y-41275000D03*
%TO.N,/I2C1_SCL*%
X72876718Y-46800000D03*
X92000000Y-43025000D03*
%TO.N,/ADC2_IN12*%
X86700000Y-59600000D03*
X81376514Y-44075000D03*
%TO.N,/SPI3_MOSI*%
X68100000Y-43849141D03*
X72932753Y-43849141D03*
%TO.N,/SPI3_MISO*%
X38100000Y-42780000D03*
X72433623Y-45365291D03*
%TO.N,/OP_VCC*%
X72100000Y-51090000D03*
X78732500Y-55267500D03*
%TO.N,/ADC2_IN15*%
X78238509Y-48235000D03*
X64137500Y-59100000D03*
%TO.N,/1CS2+*%
X50700000Y-54100000D03*
X60370404Y-58408956D03*
%TO.N,/1CS2-*%
X59674785Y-59274785D03*
X52400000Y-54675000D03*
%TO.N,/2CS2-*%
X90900000Y-57000000D03*
X83375000Y-66100000D03*
%TO.N,/2CS2+*%
X89500000Y-55600000D03*
X79000000Y-63187500D03*
%TO.N,/I2C1_SDA*%
X89900000Y-42700000D03*
X71948589Y-42725000D03*
%TO.N,/SPI3_SCK*%
X37140000Y-41780000D03*
X72534906Y-46077181D03*
%TO.N,/VREF_OP2*%
X71297500Y-54150000D03*
X78900000Y-66000000D03*
D18*
%TO.N,/VREF_OP1*%
X77261250Y-52761250D03*
D14*
X76700000Y-64700000D03*
D16*
%TO.N,GNDD*%
X69000000Y-38600000D03*
D14*
%TO.N,/inverter/1VS2*%
X45250000Y-58890000D03*
%TD*%
D19*
%TO.N,+3V3*%
X85300000Y-41400000D02*
X82900000Y-43800000D01*
X85300000Y-37900000D02*
X85300000Y-41400000D01*
X85500000Y-37700000D02*
X85300000Y-37900000D01*
D20*
X83950000Y-70600000D02*
X83950000Y-54600000D01*
%TO.N,/SWDIO*%
X73790000Y-70600000D02*
X74100000Y-70290000D01*
X74100000Y-70290000D02*
X74100000Y-47612500D01*
X74100000Y-47612500D02*
X74256250Y-47456250D01*
%TO.N,/USART3_TX*%
X81511019Y-67958981D02*
X78870000Y-70600000D01*
X81600000Y-45725000D02*
X81511019Y-45813981D01*
X81511019Y-45813981D02*
X81511019Y-67958981D01*
%TO.N,/SWCLK*%
X70125000Y-50575000D02*
X70125000Y-69475000D01*
X70125000Y-69475000D02*
X71250000Y-70600000D01*
X73800000Y-46900000D02*
X70125000Y-50575000D01*
%TO.N,/USART3_RX*%
X80600000Y-66330000D02*
X80600000Y-46935000D01*
X76330000Y-70600000D02*
X80600000Y-66330000D01*
D21*
%TO.N,/inverter/2HO2*%
X114346250Y-59846250D02*
X114252500Y-59940000D01*
X114252500Y-59940000D02*
X106451278Y-59940000D01*
X106451278Y-59940000D02*
X103739111Y-62652167D01*
D20*
%TO.N,/ADC2_IN12*%
X86700000Y-49400391D02*
X86700000Y-59600000D01*
X81375563Y-44075954D02*
X86700000Y-49400391D01*
D21*
%TO.N,/VREF_OP1*%
X76700000Y-53322500D02*
X77261250Y-52761250D01*
X76700000Y-64700000D02*
X76700000Y-53322500D01*
%TD*%
%TA.AperFunction,Conductor*%
%TO.N,GNDPWR*%
G36*
X118280451Y-30709685D02*
G01*
X118326206Y-30762489D01*
X118336150Y-30831647D01*
X118307125Y-30895203D01*
X118277564Y-30920115D01*
X118210040Y-30960934D01*
X118123131Y-31013473D01*
X117865960Y-31214954D01*
X117634954Y-31445960D01*
X117433473Y-31703131D01*
X117264454Y-31982723D01*
X117264453Y-31982725D01*
X117130372Y-32280642D01*
X117130366Y-32280657D01*
X117033178Y-32592547D01*
X116974289Y-32913900D01*
X116954564Y-33240000D01*
X116974289Y-33566099D01*
X117033178Y-33887452D01*
X117130366Y-34199342D01*
X117130370Y-34199354D01*
X117130373Y-34199361D01*
X117264455Y-34497279D01*
X117353055Y-34643841D01*
X117433473Y-34776868D01*
X117634954Y-35034039D01*
X117865960Y-35265045D01*
X118123131Y-35466526D01*
X118123134Y-35466528D01*
X118123137Y-35466530D01*
X118402721Y-35635545D01*
X118700639Y-35769627D01*
X118700652Y-35769631D01*
X118700657Y-35769633D01*
X119012547Y-35866821D01*
X119333896Y-35925710D01*
X119660000Y-35945436D01*
X119986104Y-35925710D01*
X120307453Y-35866821D01*
X120619361Y-35769627D01*
X120917279Y-35635545D01*
X121196863Y-35466530D01*
X121454036Y-35265048D01*
X121685048Y-35034036D01*
X121886530Y-34776863D01*
X122005726Y-34579688D01*
X122057252Y-34532504D01*
X122126111Y-34520665D01*
X122190440Y-34547934D01*
X122229814Y-34605652D01*
X122235841Y-34643841D01*
X122235841Y-68236158D01*
X122216156Y-68303197D01*
X122163352Y-68348952D01*
X122094194Y-68358896D01*
X122030638Y-68329871D01*
X122005724Y-68300308D01*
X122005090Y-68299260D01*
X121886530Y-68103137D01*
X121886528Y-68103134D01*
X121886526Y-68103131D01*
X121685045Y-67845960D01*
X121454039Y-67614954D01*
X121196868Y-67413473D01*
X121045201Y-67321787D01*
X120917279Y-67244455D01*
X120619361Y-67110373D01*
X120619354Y-67110370D01*
X120619342Y-67110366D01*
X120307452Y-67013178D01*
X119986099Y-66954289D01*
X119660000Y-66934564D01*
X119333900Y-66954289D01*
X119012547Y-67013178D01*
X118700657Y-67110366D01*
X118700641Y-67110372D01*
X118700639Y-67110373D01*
X118510933Y-67195752D01*
X118438323Y-67228432D01*
X118402721Y-67244455D01*
X118384523Y-67255456D01*
X118125456Y-67412067D01*
X118057901Y-67429903D01*
X118023381Y-67418728D01*
X118026952Y-67446920D01*
X117996864Y-67509979D01*
X117981002Y-67524824D01*
X117865961Y-67614953D01*
X117634954Y-67845960D01*
X117433473Y-68103131D01*
X117349432Y-68242152D01*
X117264455Y-68382721D01*
X117146602Y-68644581D01*
X117130372Y-68680642D01*
X117130366Y-68680657D01*
X117033178Y-68992547D01*
X116974289Y-69313900D01*
X116954564Y-69640000D01*
X116974289Y-69966099D01*
X117033178Y-70287452D01*
X117130366Y-70599342D01*
X117130370Y-70599354D01*
X117130373Y-70599361D01*
X117264455Y-70897279D01*
X117376015Y-71081821D01*
X117433473Y-71176868D01*
X117634954Y-71434039D01*
X117865960Y-71665045D01*
X118123131Y-71866526D01*
X118123134Y-71866528D01*
X118123137Y-71866530D01*
X118277562Y-71959884D01*
X118324749Y-72011411D01*
X118336588Y-72080270D01*
X118309319Y-72144599D01*
X118251600Y-72183973D01*
X118213412Y-72190000D01*
X84930785Y-72190000D01*
X84863746Y-72170315D01*
X84817991Y-72117511D01*
X84808047Y-72048353D01*
X84837072Y-71984797D01*
X84895850Y-71947023D01*
X84902268Y-71945324D01*
X84907479Y-71944092D01*
X84907481Y-71944091D01*
X84907483Y-71944091D01*
X85042331Y-71893796D01*
X85157546Y-71807546D01*
X85243796Y-71692331D01*
X85294091Y-71557483D01*
X85300500Y-71497873D01*
X85300499Y-70499999D01*
X98594785Y-70499999D01*
X98594785Y-70500000D01*
X98613602Y-70703082D01*
X98669417Y-70899247D01*
X98669422Y-70899260D01*
X98760327Y-71081821D01*
X98883237Y-71244581D01*
X99033958Y-71381980D01*
X99033960Y-71381982D01*
X99118031Y-71434036D01*
X99207363Y-71489348D01*
X99397544Y-71563024D01*
X99598024Y-71600500D01*
X99598026Y-71600500D01*
X99801974Y-71600500D01*
X99801976Y-71600500D01*
X100002456Y-71563024D01*
X100192637Y-71489348D01*
X100366041Y-71381981D01*
X100516764Y-71244579D01*
X100639673Y-71081821D01*
X100730582Y-70899250D01*
X100786397Y-70703083D01*
X100805215Y-70500000D01*
X100805215Y-70499999D01*
X108594785Y-70499999D01*
X108594785Y-70500000D01*
X108613602Y-70703082D01*
X108669417Y-70899247D01*
X108669422Y-70899260D01*
X108760327Y-71081821D01*
X108883237Y-71244581D01*
X109033958Y-71381980D01*
X109033960Y-71381982D01*
X109118031Y-71434036D01*
X109207363Y-71489348D01*
X109397544Y-71563024D01*
X109598024Y-71600500D01*
X109598026Y-71600500D01*
X109801974Y-71600500D01*
X109801976Y-71600500D01*
X110002456Y-71563024D01*
X110192637Y-71489348D01*
X110366041Y-71381981D01*
X110516764Y-71244579D01*
X110639673Y-71081821D01*
X110730582Y-70899250D01*
X110786397Y-70703083D01*
X110805215Y-70500000D01*
X110786397Y-70296917D01*
X110730582Y-70100750D01*
X110639673Y-69918179D01*
X110516764Y-69755421D01*
X110516762Y-69755418D01*
X110455967Y-69699997D01*
X112644751Y-69699997D01*
X112644751Y-69700002D01*
X112663686Y-69868058D01*
X112695523Y-69959047D01*
X112699084Y-70028826D01*
X112695523Y-70040953D01*
X112663686Y-70131941D01*
X112644751Y-70299997D01*
X112644751Y-70300002D01*
X112663686Y-70468058D01*
X112695523Y-70559047D01*
X112699084Y-70628826D01*
X112695523Y-70640953D01*
X112663686Y-70731941D01*
X112644751Y-70899997D01*
X112644751Y-70900002D01*
X112663685Y-71068056D01*
X112719545Y-71227694D01*
X112719547Y-71227697D01*
X112809518Y-71370884D01*
X112809523Y-71370890D01*
X112929109Y-71490476D01*
X112929115Y-71490481D01*
X113072302Y-71580452D01*
X113072305Y-71580454D01*
X113072309Y-71580455D01*
X113072310Y-71580456D01*
X113100000Y-71590145D01*
X113231943Y-71636314D01*
X113399997Y-71655249D01*
X113400000Y-71655249D01*
X113400003Y-71655249D01*
X113568059Y-71636313D01*
X113568060Y-71636313D01*
X113659045Y-71604476D01*
X113728824Y-71600914D01*
X113740955Y-71604476D01*
X113831939Y-71636313D01*
X113999997Y-71655249D01*
X114000000Y-71655249D01*
X114000003Y-71655249D01*
X114168056Y-71636314D01*
X114168059Y-71636313D01*
X114327690Y-71580456D01*
X114327692Y-71580454D01*
X114327694Y-71580454D01*
X114327697Y-71580452D01*
X114470884Y-71490481D01*
X114470885Y-71490480D01*
X114470890Y-71490477D01*
X114590477Y-71370890D01*
X114590481Y-71370884D01*
X114680452Y-71227697D01*
X114680454Y-71227694D01*
X114680454Y-71227692D01*
X114680456Y-71227690D01*
X114736313Y-71068059D01*
X114736313Y-71068058D01*
X114736314Y-71068056D01*
X114755249Y-70900002D01*
X114755249Y-70899997D01*
X114736313Y-70731940D01*
X114736313Y-70731939D01*
X114704476Y-70640955D01*
X114700914Y-70571176D01*
X114704476Y-70559045D01*
X114736313Y-70468060D01*
X114736313Y-70468059D01*
X114755249Y-70300002D01*
X114755249Y-70299997D01*
X114736313Y-70131940D01*
X114736313Y-70131939D01*
X114704476Y-70040955D01*
X114700914Y-69971176D01*
X114704476Y-69959045D01*
X114736313Y-69868060D01*
X114736313Y-69868059D01*
X114755249Y-69700002D01*
X114755249Y-69699997D01*
X114736314Y-69531943D01*
X114687505Y-69392455D01*
X114680456Y-69372310D01*
X114680455Y-69372309D01*
X114680454Y-69372305D01*
X114680452Y-69372302D01*
X114590481Y-69229115D01*
X114590476Y-69229109D01*
X114470890Y-69109523D01*
X114470884Y-69109518D01*
X114327697Y-69019547D01*
X114327694Y-69019545D01*
X114168056Y-68963685D01*
X114000003Y-68944751D01*
X113999997Y-68944751D01*
X113831941Y-68963686D01*
X113740953Y-68995523D01*
X113671174Y-68999084D01*
X113659047Y-68995523D01*
X113568058Y-68963686D01*
X113400003Y-68944751D01*
X113399997Y-68944751D01*
X113231943Y-68963685D01*
X113072305Y-69019545D01*
X113072302Y-69019547D01*
X112929115Y-69109518D01*
X112929109Y-69109523D01*
X112809523Y-69229109D01*
X112809518Y-69229115D01*
X112719547Y-69372302D01*
X112719545Y-69372305D01*
X112663685Y-69531943D01*
X112644751Y-69699997D01*
X110455967Y-69699997D01*
X110366041Y-69618019D01*
X110366039Y-69618017D01*
X110192642Y-69510655D01*
X110192635Y-69510651D01*
X110097546Y-69473814D01*
X110002456Y-69436976D01*
X109801976Y-69399500D01*
X109598024Y-69399500D01*
X109397544Y-69436976D01*
X109397541Y-69436976D01*
X109397541Y-69436977D01*
X109207364Y-69510651D01*
X109207357Y-69510655D01*
X109033960Y-69618017D01*
X109033958Y-69618019D01*
X108883237Y-69755418D01*
X108760327Y-69918178D01*
X108669422Y-70100739D01*
X108669417Y-70100752D01*
X108613602Y-70296917D01*
X108594785Y-70499999D01*
X100805215Y-70499999D01*
X100786397Y-70296917D01*
X100730582Y-70100750D01*
X100639673Y-69918179D01*
X100516764Y-69755421D01*
X100516762Y-69755418D01*
X100366041Y-69618019D01*
X100366039Y-69618017D01*
X100192642Y-69510655D01*
X100192635Y-69510651D01*
X100097546Y-69473814D01*
X100002456Y-69436976D01*
X99801976Y-69399500D01*
X99598024Y-69399500D01*
X99397544Y-69436976D01*
X99397541Y-69436976D01*
X99397541Y-69436977D01*
X99207364Y-69510651D01*
X99207357Y-69510655D01*
X99033960Y-69618017D01*
X99033958Y-69618019D01*
X98883237Y-69755418D01*
X98760327Y-69918178D01*
X98669422Y-70100739D01*
X98669417Y-70100752D01*
X98613602Y-70296917D01*
X98594785Y-70499999D01*
X85300499Y-70499999D01*
X85300499Y-69702128D01*
X85294091Y-69642517D01*
X85293152Y-69640000D01*
X85243797Y-69507671D01*
X85243793Y-69507664D01*
X85157547Y-69392455D01*
X85157544Y-69392452D01*
X85042335Y-69306206D01*
X85042328Y-69306202D01*
X84907482Y-69255908D01*
X84907483Y-69255908D01*
X84847883Y-69249501D01*
X84847881Y-69249500D01*
X84847873Y-69249500D01*
X84847865Y-69249500D01*
X84699500Y-69249500D01*
X84632461Y-69229815D01*
X84586706Y-69177011D01*
X84575500Y-69125500D01*
X84575500Y-66318332D01*
X84595185Y-66251293D01*
X84647989Y-66205538D01*
X84717147Y-66195594D01*
X84780703Y-66224619D01*
X84795354Y-66239668D01*
X84824643Y-66275357D01*
X84969373Y-66394135D01*
X84969376Y-66394137D01*
X85134497Y-66482395D01*
X85134499Y-66482396D01*
X85313666Y-66536746D01*
X85313668Y-66536747D01*
X85330374Y-66538392D01*
X85500000Y-66555099D01*
X85686331Y-66536747D01*
X85865501Y-66482396D01*
X86030625Y-66394136D01*
X86145333Y-66299997D01*
X95844751Y-66299997D01*
X95844751Y-66300002D01*
X95863685Y-66468056D01*
X95919545Y-66627694D01*
X95919547Y-66627697D01*
X96009518Y-66770884D01*
X96009523Y-66770890D01*
X96129109Y-66890476D01*
X96129115Y-66890481D01*
X96272302Y-66980452D01*
X96272305Y-66980454D01*
X96272309Y-66980455D01*
X96272310Y-66980456D01*
X96344913Y-67005860D01*
X96431943Y-67036314D01*
X96599997Y-67055249D01*
X96600000Y-67055249D01*
X96600003Y-67055249D01*
X96768056Y-67036314D01*
X96768059Y-67036313D01*
X96927690Y-66980456D01*
X96927692Y-66980454D01*
X96927694Y-66980454D01*
X96927697Y-66980452D01*
X97070884Y-66890481D01*
X97070885Y-66890480D01*
X97070890Y-66890477D01*
X97190477Y-66770890D01*
X97202389Y-66751932D01*
X97280452Y-66627697D01*
X97280454Y-66627694D01*
X97280454Y-66627692D01*
X97280456Y-66627690D01*
X97336313Y-66468059D01*
X97336313Y-66468058D01*
X97336314Y-66468056D01*
X97355249Y-66300002D01*
X97355249Y-66299997D01*
X97336314Y-66131943D01*
X97315155Y-66071473D01*
X109244751Y-66071473D01*
X109244751Y-66071478D01*
X109263685Y-66239532D01*
X109319545Y-66399170D01*
X109319547Y-66399173D01*
X109409518Y-66542360D01*
X109409523Y-66542366D01*
X109529109Y-66661952D01*
X109529115Y-66661957D01*
X109672302Y-66751928D01*
X109672305Y-66751930D01*
X109672309Y-66751931D01*
X109672310Y-66751932D01*
X109726472Y-66770884D01*
X109831943Y-66807790D01*
X109999997Y-66826725D01*
X110000000Y-66826725D01*
X110000003Y-66826725D01*
X110168056Y-66807790D01*
X110176641Y-66804786D01*
X110327690Y-66751932D01*
X110327692Y-66751930D01*
X110327694Y-66751930D01*
X110327697Y-66751928D01*
X110470884Y-66661957D01*
X110470885Y-66661956D01*
X110470890Y-66661953D01*
X110590477Y-66542366D01*
X110594008Y-66536747D01*
X110680452Y-66399173D01*
X110680454Y-66399170D01*
X110680454Y-66399168D01*
X110680456Y-66399166D01*
X110736313Y-66239535D01*
X110736313Y-66239534D01*
X110736314Y-66239532D01*
X110755249Y-66071478D01*
X110755249Y-66071473D01*
X110736314Y-65903419D01*
X110680454Y-65743781D01*
X110680452Y-65743778D01*
X110590481Y-65600591D01*
X110590476Y-65600585D01*
X110470890Y-65480999D01*
X110470884Y-65480994D01*
X110327697Y-65391023D01*
X110327694Y-65391021D01*
X110168056Y-65335161D01*
X110000003Y-65316227D01*
X109999997Y-65316227D01*
X109831943Y-65335161D01*
X109672305Y-65391021D01*
X109672302Y-65391023D01*
X109529115Y-65480994D01*
X109529109Y-65480999D01*
X109409523Y-65600585D01*
X109409518Y-65600591D01*
X109319547Y-65743778D01*
X109319545Y-65743781D01*
X109263685Y-65903419D01*
X109244751Y-66071473D01*
X97315155Y-66071473D01*
X97290408Y-66000752D01*
X97280456Y-65972310D01*
X97280455Y-65972309D01*
X97280454Y-65972305D01*
X97280452Y-65972302D01*
X97190481Y-65829115D01*
X97190476Y-65829109D01*
X97070891Y-65709524D01*
X97070890Y-65709523D01*
X97055480Y-65699840D01*
X97009191Y-65647506D01*
X96998544Y-65578452D01*
X97026920Y-65514604D01*
X97085310Y-65476233D01*
X97107559Y-65471629D01*
X97168059Y-65464813D01*
X97327690Y-65408956D01*
X97327692Y-65408954D01*
X97327694Y-65408954D01*
X97327697Y-65408952D01*
X97470884Y-65318981D01*
X97470885Y-65318980D01*
X97470890Y-65318977D01*
X97590477Y-65199390D01*
X97624917Y-65144580D01*
X97680452Y-65056197D01*
X97680454Y-65056194D01*
X97680454Y-65056192D01*
X97680456Y-65056190D01*
X97736313Y-64896559D01*
X97736313Y-64896558D01*
X97736314Y-64896556D01*
X97755249Y-64728502D01*
X97755249Y-64728497D01*
X97736314Y-64560443D01*
X97680454Y-64400805D01*
X97680452Y-64400802D01*
X97590481Y-64257615D01*
X97590476Y-64257609D01*
X97470890Y-64138023D01*
X97470884Y-64138018D01*
X97327697Y-64048047D01*
X97327694Y-64048045D01*
X97168056Y-63992185D01*
X97000003Y-63973251D01*
X96999997Y-63973251D01*
X96831943Y-63992185D01*
X96672305Y-64048045D01*
X96672302Y-64048047D01*
X96529115Y-64138018D01*
X96529109Y-64138023D01*
X96409523Y-64257609D01*
X96409518Y-64257615D01*
X96319547Y-64400802D01*
X96319545Y-64400805D01*
X96263685Y-64560443D01*
X96244751Y-64728497D01*
X96244751Y-64728502D01*
X96263685Y-64896556D01*
X96319545Y-65056194D01*
X96319547Y-65056197D01*
X96409518Y-65199384D01*
X96409523Y-65199390D01*
X96529110Y-65318977D01*
X96544516Y-65328657D01*
X96590807Y-65380992D01*
X96601455Y-65450045D01*
X96573080Y-65513894D01*
X96514690Y-65552266D01*
X96492428Y-65556871D01*
X96431943Y-65563685D01*
X96272305Y-65619545D01*
X96272302Y-65619547D01*
X96129115Y-65709518D01*
X96129109Y-65709523D01*
X96009523Y-65829109D01*
X96009518Y-65829115D01*
X95919547Y-65972302D01*
X95919545Y-65972305D01*
X95863685Y-66131943D01*
X95844751Y-66299997D01*
X86145333Y-66299997D01*
X86175357Y-66275357D01*
X86294136Y-66130625D01*
X86382396Y-65965501D01*
X86436747Y-65786331D01*
X86455099Y-65600000D01*
X86436747Y-65413669D01*
X86382396Y-65234499D01*
X86348397Y-65170890D01*
X86294137Y-65069376D01*
X86294135Y-65069373D01*
X86175357Y-64924642D01*
X86030626Y-64805864D01*
X86030623Y-64805862D01*
X85865502Y-64717604D01*
X85686333Y-64663253D01*
X85686331Y-64663252D01*
X85500000Y-64644901D01*
X85313668Y-64663252D01*
X85313666Y-64663253D01*
X85134497Y-64717604D01*
X84969376Y-64805862D01*
X84969373Y-64805864D01*
X84824642Y-64924642D01*
X84795353Y-64960332D01*
X84737607Y-64999666D01*
X84667763Y-65001537D01*
X84607994Y-64965349D01*
X84577279Y-64902593D01*
X84575500Y-64881667D01*
X84575500Y-62814497D01*
X96244751Y-62814497D01*
X96244751Y-62814502D01*
X96263685Y-62982556D01*
X96319545Y-63142194D01*
X96319547Y-63142197D01*
X96409518Y-63285384D01*
X96409523Y-63285390D01*
X96529109Y-63404976D01*
X96529115Y-63404981D01*
X96672302Y-63494952D01*
X96672305Y-63494954D01*
X96672309Y-63494955D01*
X96672310Y-63494956D01*
X96686731Y-63500002D01*
X96831943Y-63550814D01*
X96999997Y-63569749D01*
X97000000Y-63569749D01*
X97000003Y-63569749D01*
X97168056Y-63550814D01*
X97168059Y-63550813D01*
X97327690Y-63494956D01*
X97327692Y-63494954D01*
X97327694Y-63494954D01*
X97327697Y-63494952D01*
X97470884Y-63404981D01*
X97470885Y-63404980D01*
X97470890Y-63404977D01*
X97590477Y-63285390D01*
X97590481Y-63285384D01*
X97680452Y-63142197D01*
X97680454Y-63142194D01*
X97680454Y-63142192D01*
X97680456Y-63142190D01*
X97736313Y-62982559D01*
X97736313Y-62982558D01*
X97736314Y-62982556D01*
X97755249Y-62814502D01*
X97755249Y-62814497D01*
X97736959Y-62652164D01*
X102983862Y-62652164D01*
X102983862Y-62652169D01*
X103002796Y-62820223D01*
X103058656Y-62979861D01*
X103058658Y-62979864D01*
X103148629Y-63123051D01*
X103148634Y-63123057D01*
X103268220Y-63242643D01*
X103268226Y-63242648D01*
X103411413Y-63332619D01*
X103411416Y-63332621D01*
X103411420Y-63332622D01*
X103411421Y-63332623D01*
X103440074Y-63342649D01*
X103571054Y-63388481D01*
X103739108Y-63407416D01*
X103739111Y-63407416D01*
X103739114Y-63407416D01*
X103907170Y-63388480D01*
X103907171Y-63388480D01*
X104038148Y-63342649D01*
X104048147Y-63339149D01*
X104117925Y-63335587D01*
X104178553Y-63370316D01*
X104210781Y-63432309D01*
X104206144Y-63497145D01*
X104156186Y-63639918D01*
X104137251Y-63807973D01*
X104137251Y-63807978D01*
X104156185Y-63976032D01*
X104212045Y-64135670D01*
X104212047Y-64135673D01*
X104302018Y-64278860D01*
X104302023Y-64278866D01*
X104421609Y-64398452D01*
X104421615Y-64398457D01*
X104564802Y-64488428D01*
X104564805Y-64488430D01*
X104564809Y-64488431D01*
X104564810Y-64488432D01*
X104634307Y-64512750D01*
X104724443Y-64544290D01*
X104892497Y-64563225D01*
X104892500Y-64563225D01*
X104892503Y-64563225D01*
X105060556Y-64544290D01*
X105095842Y-64531943D01*
X105220190Y-64488432D01*
X105220192Y-64488430D01*
X105220194Y-64488430D01*
X105220197Y-64488428D01*
X105363384Y-64398457D01*
X105363385Y-64398456D01*
X105363390Y-64398453D01*
X105482977Y-64278866D01*
X105497817Y-64255249D01*
X105572952Y-64135673D01*
X105572954Y-64135670D01*
X105572954Y-64135668D01*
X105572956Y-64135666D01*
X105628813Y-63976035D01*
X105628813Y-63976034D01*
X105628814Y-63976032D01*
X105647749Y-63807978D01*
X105647749Y-63807973D01*
X105628814Y-63639919D01*
X105586159Y-63518019D01*
X105572956Y-63480286D01*
X105572955Y-63480285D01*
X105572954Y-63480281D01*
X105572952Y-63480278D01*
X105482981Y-63337091D01*
X105482976Y-63337085D01*
X105363390Y-63217499D01*
X105363384Y-63217494D01*
X105220197Y-63127523D01*
X105220194Y-63127521D01*
X105060556Y-63071661D01*
X104892503Y-63052727D01*
X104892497Y-63052727D01*
X104724442Y-63071662D01*
X104583462Y-63120993D01*
X104513684Y-63124554D01*
X104453056Y-63089825D01*
X104420829Y-63027832D01*
X104425466Y-62962997D01*
X104457694Y-62870891D01*
X104487052Y-62824170D01*
X104611223Y-62699999D01*
X108794785Y-62699999D01*
X108794785Y-62700000D01*
X108813602Y-62903082D01*
X108869417Y-63099247D01*
X108869422Y-63099260D01*
X108960327Y-63281821D01*
X109083237Y-63444581D01*
X109233958Y-63581980D01*
X109233960Y-63581982D01*
X109317600Y-63633769D01*
X109407363Y-63689348D01*
X109597544Y-63763024D01*
X109798024Y-63800500D01*
X109798026Y-63800500D01*
X110001974Y-63800500D01*
X110001976Y-63800500D01*
X110202456Y-63763024D01*
X110392637Y-63689348D01*
X110566041Y-63581981D01*
X110716764Y-63444579D01*
X110839673Y-63281821D01*
X110930582Y-63099250D01*
X110986397Y-62903083D01*
X111005215Y-62700000D01*
X111000782Y-62652164D01*
X110986397Y-62496917D01*
X110976942Y-62463687D01*
X110930582Y-62300750D01*
X110921315Y-62282140D01*
X110880413Y-62199997D01*
X112444751Y-62199997D01*
X112444751Y-62200002D01*
X112463686Y-62368058D01*
X112495523Y-62459047D01*
X112499084Y-62528826D01*
X112495523Y-62540953D01*
X112463686Y-62631941D01*
X112444751Y-62799997D01*
X112444751Y-62800002D01*
X112463686Y-62968058D01*
X112495523Y-63059047D01*
X112499084Y-63128826D01*
X112495523Y-63140953D01*
X112463686Y-63231941D01*
X112444751Y-63399997D01*
X112444751Y-63400002D01*
X112463685Y-63568056D01*
X112519545Y-63727694D01*
X112519547Y-63727697D01*
X112609518Y-63870884D01*
X112609523Y-63870890D01*
X112729109Y-63990476D01*
X112729115Y-63990481D01*
X112872302Y-64080452D01*
X112872305Y-64080454D01*
X112872309Y-64080455D01*
X112872310Y-64080456D01*
X112900000Y-64090145D01*
X113031943Y-64136314D01*
X113199997Y-64155249D01*
X113200000Y-64155249D01*
X113200003Y-64155249D01*
X113368059Y-64136313D01*
X113368060Y-64136313D01*
X113459045Y-64104476D01*
X113528824Y-64100914D01*
X113540955Y-64104476D01*
X113631939Y-64136313D01*
X113799997Y-64155249D01*
X113800000Y-64155249D01*
X113800003Y-64155249D01*
X113968056Y-64136314D01*
X113969888Y-64135673D01*
X114127690Y-64080456D01*
X114127692Y-64080454D01*
X114127694Y-64080454D01*
X114127697Y-64080452D01*
X114270884Y-63990481D01*
X114270885Y-63990480D01*
X114270890Y-63990477D01*
X114390477Y-63870890D01*
X114423598Y-63818179D01*
X114480452Y-63727697D01*
X114480454Y-63727694D01*
X114480454Y-63727692D01*
X114480456Y-63727690D01*
X114536313Y-63568059D01*
X114536313Y-63568058D01*
X114536314Y-63568056D01*
X114555249Y-63400002D01*
X114555249Y-63399997D01*
X114536313Y-63231940D01*
X114536313Y-63231939D01*
X114504476Y-63140955D01*
X114500914Y-63071176D01*
X114504476Y-63059045D01*
X114536313Y-62968060D01*
X114536313Y-62968059D01*
X114555249Y-62800002D01*
X114555249Y-62799997D01*
X114536313Y-62631940D01*
X114536313Y-62631939D01*
X114504476Y-62540955D01*
X114500914Y-62471176D01*
X114504476Y-62459045D01*
X114525137Y-62399999D01*
X115884785Y-62399999D01*
X115884785Y-62400000D01*
X115903602Y-62603082D01*
X115959417Y-62799247D01*
X115959422Y-62799260D01*
X116050327Y-62981821D01*
X116173237Y-63144581D01*
X116312638Y-63271660D01*
X116323783Y-63281821D01*
X116323958Y-63281980D01*
X116323960Y-63281982D01*
X116405749Y-63332623D01*
X116497363Y-63389348D01*
X116667025Y-63455075D01*
X116672895Y-63457349D01*
X116728296Y-63499922D01*
X116751887Y-63565689D01*
X116736176Y-63633769D01*
X116723962Y-63650673D01*
X116724191Y-63650846D01*
X116720736Y-63655420D01*
X116720736Y-63655421D01*
X116718494Y-63658390D01*
X116597827Y-63818178D01*
X116506922Y-64000739D01*
X116506917Y-64000752D01*
X116451102Y-64196917D01*
X116432285Y-64399999D01*
X116432285Y-64400000D01*
X116451102Y-64603082D01*
X116506917Y-64799247D01*
X116506922Y-64799260D01*
X116555427Y-64896670D01*
X116597827Y-64981821D01*
X116663945Y-65069376D01*
X116720737Y-65144580D01*
X116784757Y-65202942D01*
X116821039Y-65262653D01*
X116819278Y-65332500D01*
X116780035Y-65390308D01*
X116749913Y-65407927D01*
X116749997Y-65408096D01*
X116747493Y-65409342D01*
X116746026Y-65410201D01*
X116744870Y-65410648D01*
X116744857Y-65410655D01*
X116571460Y-65518017D01*
X116571458Y-65518019D01*
X116420737Y-65655418D01*
X116297827Y-65818178D01*
X116206922Y-66000739D01*
X116206917Y-66000752D01*
X116151102Y-66196917D01*
X116132285Y-66399999D01*
X116132285Y-66400000D01*
X116151102Y-66603082D01*
X116206917Y-66799247D01*
X116206922Y-66799260D01*
X116297827Y-66981821D01*
X116420737Y-67144581D01*
X116530294Y-67244454D01*
X116571283Y-67281821D01*
X116571458Y-67281980D01*
X116571460Y-67281982D01*
X116576236Y-67284939D01*
X116744863Y-67389348D01*
X116935044Y-67463024D01*
X117135524Y-67500500D01*
X117135526Y-67500500D01*
X117339474Y-67500500D01*
X117339476Y-67500500D01*
X117539956Y-67463024D01*
X117730137Y-67389348D01*
X117839253Y-67321786D01*
X117906611Y-67303231D01*
X117942515Y-67314432D01*
X117939099Y-67284939D01*
X117969858Y-67222204D01*
X117977753Y-67214327D01*
X118054264Y-67144579D01*
X118177173Y-66981821D01*
X118268082Y-66799250D01*
X118323897Y-66603083D01*
X118342715Y-66400000D01*
X118323897Y-66196917D01*
X118268082Y-66000750D01*
X118267707Y-65999997D01*
X118219616Y-65903417D01*
X118177173Y-65818179D01*
X118095975Y-65710655D01*
X118054262Y-65655418D01*
X117990242Y-65597057D01*
X117953960Y-65537346D01*
X117955721Y-65467499D01*
X117994964Y-65409691D01*
X118025088Y-65392074D01*
X118025003Y-65391904D01*
X118027542Y-65390639D01*
X118028992Y-65389791D01*
X118030137Y-65389348D01*
X118203541Y-65281981D01*
X118354264Y-65144579D01*
X118477173Y-64981821D01*
X118568082Y-64799250D01*
X118623897Y-64603083D01*
X118642715Y-64400000D01*
X118627547Y-64236313D01*
X118623897Y-64196917D01*
X118607140Y-64138023D01*
X118568082Y-64000750D01*
X118563818Y-63992187D01*
X118508183Y-63880456D01*
X118477173Y-63818179D01*
X118408839Y-63727690D01*
X118354262Y-63655418D01*
X118203541Y-63518019D01*
X118203539Y-63518017D01*
X118030142Y-63410655D01*
X118030141Y-63410654D01*
X118030137Y-63410652D01*
X118030132Y-63410650D01*
X118030126Y-63410647D01*
X117854604Y-63342649D01*
X117799202Y-63300077D01*
X117775612Y-63234310D01*
X117791323Y-63166229D01*
X117803539Y-63149328D01*
X117803309Y-63149154D01*
X117819644Y-63127523D01*
X117929673Y-62981821D01*
X118020582Y-62799250D01*
X118076397Y-62603083D01*
X118095215Y-62400000D01*
X118088216Y-62324472D01*
X118076397Y-62196917D01*
X118053994Y-62118179D01*
X118020582Y-62000750D01*
X118009904Y-61979306D01*
X117963344Y-61885800D01*
X117951083Y-61817014D01*
X117977956Y-61752519D01*
X118035432Y-61712792D01*
X118105262Y-61710444D01*
X118119138Y-61714902D01*
X118155814Y-61729110D01*
X118217544Y-61753024D01*
X118418024Y-61790500D01*
X118418026Y-61790500D01*
X118621974Y-61790500D01*
X118621976Y-61790500D01*
X118822456Y-61753024D01*
X119012637Y-61679348D01*
X119186041Y-61571981D01*
X119336764Y-61434579D01*
X119459673Y-61271821D01*
X119550582Y-61089250D01*
X119606397Y-60893083D01*
X119625215Y-60690000D01*
X119621451Y-60649384D01*
X119606397Y-60486917D01*
X119550582Y-60290750D01*
X119550579Y-60290743D01*
X119550577Y-60290738D01*
X119480109Y-60149221D01*
X119459673Y-60108179D01*
X119388786Y-60014309D01*
X119336762Y-59945418D01*
X119186041Y-59808019D01*
X119186039Y-59808017D01*
X119012642Y-59700655D01*
X119012635Y-59700651D01*
X118895048Y-59655098D01*
X118822456Y-59626976D01*
X118621976Y-59589500D01*
X118418024Y-59589500D01*
X118217544Y-59626976D01*
X118217542Y-59626976D01*
X118217540Y-59626977D01*
X118162580Y-59648269D01*
X118092956Y-59654131D01*
X118031216Y-59621421D01*
X117996961Y-59560524D01*
X118001068Y-59490775D01*
X118006786Y-59477370D01*
X118023980Y-59442841D01*
X118070582Y-59349250D01*
X118126397Y-59153083D01*
X118145215Y-58950000D01*
X118139655Y-58890002D01*
X118126397Y-58746917D01*
X118070582Y-58550750D01*
X118070577Y-58550739D01*
X118070575Y-58550734D01*
X118035240Y-58479771D01*
X118022979Y-58410986D01*
X118049852Y-58346491D01*
X118107328Y-58306763D01*
X118146240Y-58300500D01*
X118301974Y-58300500D01*
X118301976Y-58300500D01*
X118502456Y-58263024D01*
X118692637Y-58189348D01*
X118866041Y-58081981D01*
X119005282Y-57955046D01*
X119016762Y-57944581D01*
X119018348Y-57942481D01*
X119139673Y-57781821D01*
X119230582Y-57599250D01*
X119286397Y-57403083D01*
X119305215Y-57200000D01*
X119286397Y-56996917D01*
X119230582Y-56800750D01*
X119225301Y-56790145D01*
X119175672Y-56690476D01*
X119139673Y-56618179D01*
X119037134Y-56482395D01*
X119016762Y-56455418D01*
X118866041Y-56318019D01*
X118866039Y-56318017D01*
X118692642Y-56210655D01*
X118692635Y-56210651D01*
X118597546Y-56173814D01*
X118502456Y-56136976D01*
X118301976Y-56099500D01*
X118098024Y-56099500D01*
X117897544Y-56136976D01*
X117897541Y-56136976D01*
X117897541Y-56136977D01*
X117707364Y-56210651D01*
X117707357Y-56210655D01*
X117533960Y-56318017D01*
X117533958Y-56318019D01*
X117383237Y-56455418D01*
X117260327Y-56618178D01*
X117169422Y-56800739D01*
X117169417Y-56800752D01*
X117113602Y-56996917D01*
X117094785Y-57199999D01*
X117094785Y-57200000D01*
X117113602Y-57403082D01*
X117169417Y-57599247D01*
X117169424Y-57599265D01*
X117204760Y-57670229D01*
X117217021Y-57739014D01*
X117190148Y-57803509D01*
X117132672Y-57843237D01*
X117093760Y-57849500D01*
X116938024Y-57849500D01*
X116737544Y-57886976D01*
X116737541Y-57886976D01*
X116737541Y-57886977D01*
X116547364Y-57960651D01*
X116547357Y-57960655D01*
X116373960Y-58068017D01*
X116373958Y-58068019D01*
X116223237Y-58205418D01*
X116100327Y-58368178D01*
X116009422Y-58550739D01*
X116009417Y-58550752D01*
X115953602Y-58746917D01*
X115934785Y-58949999D01*
X115934785Y-58950000D01*
X115953602Y-59153082D01*
X116009417Y-59349247D01*
X116009422Y-59349260D01*
X116100327Y-59531821D01*
X116223237Y-59694581D01*
X116373958Y-59831980D01*
X116373960Y-59831982D01*
X116473141Y-59893392D01*
X116547363Y-59939348D01*
X116737544Y-60013024D01*
X116938024Y-60050500D01*
X116938026Y-60050500D01*
X117141974Y-60050500D01*
X117141976Y-60050500D01*
X117342456Y-60013024D01*
X117397420Y-59991730D01*
X117467040Y-59985868D01*
X117528781Y-60018577D01*
X117563037Y-60079472D01*
X117558932Y-60149221D01*
X117553214Y-60162628D01*
X117489421Y-60290743D01*
X117489417Y-60290752D01*
X117433602Y-60486917D01*
X117414785Y-60689999D01*
X117414785Y-60690000D01*
X117433602Y-60893082D01*
X117489417Y-61089247D01*
X117489424Y-61089265D01*
X117546655Y-61204200D01*
X117558916Y-61272985D01*
X117532043Y-61337480D01*
X117474567Y-61377207D01*
X117404737Y-61379555D01*
X117390861Y-61375098D01*
X117302311Y-61340794D01*
X117292456Y-61336976D01*
X117091976Y-61299500D01*
X116888024Y-61299500D01*
X116687544Y-61336976D01*
X116687541Y-61336976D01*
X116687541Y-61336977D01*
X116497364Y-61410651D01*
X116497357Y-61410655D01*
X116323960Y-61518017D01*
X116323958Y-61518019D01*
X116173237Y-61655418D01*
X116050327Y-61818178D01*
X115959422Y-62000739D01*
X115959417Y-62000752D01*
X115903602Y-62196917D01*
X115884785Y-62399999D01*
X114525137Y-62399999D01*
X114536313Y-62368060D01*
X114536313Y-62368059D01*
X114555249Y-62200002D01*
X114555249Y-62199997D01*
X114536314Y-62031943D01*
X114480454Y-61872305D01*
X114480452Y-61872302D01*
X114390481Y-61729115D01*
X114390476Y-61729109D01*
X114270890Y-61609523D01*
X114270884Y-61609518D01*
X114127697Y-61519547D01*
X114127694Y-61519545D01*
X113968056Y-61463685D01*
X113800003Y-61444751D01*
X113799997Y-61444751D01*
X113631941Y-61463686D01*
X113540953Y-61495523D01*
X113471174Y-61499084D01*
X113459047Y-61495523D01*
X113368058Y-61463686D01*
X113200003Y-61444751D01*
X113199997Y-61444751D01*
X113031943Y-61463685D01*
X112872305Y-61519545D01*
X112872302Y-61519547D01*
X112729115Y-61609518D01*
X112729109Y-61609523D01*
X112609523Y-61729109D01*
X112609518Y-61729115D01*
X112519547Y-61872302D01*
X112519545Y-61872305D01*
X112463685Y-62031943D01*
X112444751Y-62199997D01*
X110880413Y-62199997D01*
X110871649Y-62182396D01*
X110839673Y-62118179D01*
X110750987Y-62000739D01*
X110716762Y-61955418D01*
X110566041Y-61818019D01*
X110566039Y-61818017D01*
X110392642Y-61710655D01*
X110392635Y-61710651D01*
X110282683Y-61668056D01*
X110202456Y-61636976D01*
X110001976Y-61599500D01*
X109798024Y-61599500D01*
X109597544Y-61636976D01*
X109597541Y-61636976D01*
X109597541Y-61636977D01*
X109407364Y-61710651D01*
X109407357Y-61710655D01*
X109233960Y-61818017D01*
X109233958Y-61818019D01*
X109083237Y-61955418D01*
X108960327Y-62118178D01*
X108869422Y-62300739D01*
X108869417Y-62300752D01*
X108813602Y-62496917D01*
X108794785Y-62699999D01*
X104611223Y-62699999D01*
X105799508Y-61511714D01*
X105860829Y-61478231D01*
X105930521Y-61483215D01*
X105953159Y-61494403D01*
X105960609Y-61499084D01*
X106042214Y-61550360D01*
X106163525Y-61592808D01*
X106201847Y-61606218D01*
X106369901Y-61625153D01*
X106369904Y-61625153D01*
X106369907Y-61625153D01*
X106537960Y-61606218D01*
X106557159Y-61599500D01*
X106697594Y-61550360D01*
X106697596Y-61550358D01*
X106697598Y-61550358D01*
X106697601Y-61550356D01*
X106840788Y-61460385D01*
X106840789Y-61460384D01*
X106840794Y-61460381D01*
X106960381Y-61340794D01*
X106960654Y-61340360D01*
X107050356Y-61197601D01*
X107050358Y-61197598D01*
X107050358Y-61197596D01*
X107050360Y-61197594D01*
X107106217Y-61037963D01*
X107106217Y-61037962D01*
X107106218Y-61037960D01*
X107125153Y-60869906D01*
X107125153Y-60869900D01*
X107109208Y-60728383D01*
X107121262Y-60659562D01*
X107168612Y-60608182D01*
X107232428Y-60590500D01*
X108832128Y-60590500D01*
X108899167Y-60610185D01*
X108944922Y-60662989D01*
X108955349Y-60700619D01*
X108956187Y-60708059D01*
X109012045Y-60867694D01*
X109012047Y-60867697D01*
X109102018Y-61010884D01*
X109102023Y-61010890D01*
X109221609Y-61130476D01*
X109221615Y-61130481D01*
X109364802Y-61220452D01*
X109364805Y-61220454D01*
X109364809Y-61220455D01*
X109364810Y-61220456D01*
X109437413Y-61245860D01*
X109524443Y-61276314D01*
X109692497Y-61295249D01*
X109692500Y-61295249D01*
X109692503Y-61295249D01*
X109860556Y-61276314D01*
X109873396Y-61271821D01*
X110020190Y-61220456D01*
X110020192Y-61220454D01*
X110020194Y-61220454D01*
X110020197Y-61220452D01*
X110163384Y-61130481D01*
X110163385Y-61130480D01*
X110163390Y-61130477D01*
X110282977Y-61010890D01*
X110282981Y-61010884D01*
X110372952Y-60867697D01*
X110372954Y-60867694D01*
X110372954Y-60867692D01*
X110372956Y-60867690D01*
X110428813Y-60708059D01*
X110429651Y-60700618D01*
X110456717Y-60636205D01*
X110514311Y-60596648D01*
X110552872Y-60590500D01*
X114241671Y-60590500D01*
X114255555Y-60591280D01*
X114346248Y-60601499D01*
X114346250Y-60601499D01*
X114346253Y-60601499D01*
X114514306Y-60582564D01*
X114514309Y-60582563D01*
X114673940Y-60526706D01*
X114673942Y-60526704D01*
X114673944Y-60526704D01*
X114673947Y-60526702D01*
X114817134Y-60436731D01*
X114817135Y-60436730D01*
X114817140Y-60436727D01*
X114936727Y-60317140D01*
X114937360Y-60316133D01*
X115026702Y-60173947D01*
X115026704Y-60173944D01*
X115026704Y-60173942D01*
X115026706Y-60173940D01*
X115082563Y-60014309D01*
X115082563Y-60014308D01*
X115082564Y-60014306D01*
X115101499Y-59846252D01*
X115101499Y-59846247D01*
X115082564Y-59678193D01*
X115036483Y-59546502D01*
X115026706Y-59518560D01*
X115026705Y-59518559D01*
X115026704Y-59518555D01*
X115026702Y-59518552D01*
X114936731Y-59375365D01*
X114936726Y-59375359D01*
X114817140Y-59255773D01*
X114817134Y-59255768D01*
X114673947Y-59165797D01*
X114673944Y-59165795D01*
X114514306Y-59109935D01*
X114346253Y-59091001D01*
X114346247Y-59091001D01*
X114178193Y-59109935D01*
X114018555Y-59165795D01*
X114018552Y-59165797D01*
X113875365Y-59255768D01*
X113869917Y-59260114D01*
X113868502Y-59258340D01*
X113816629Y-59286666D01*
X113790271Y-59289500D01*
X106387207Y-59289500D01*
X106261539Y-59314497D01*
X106261533Y-59314499D01*
X106143148Y-59363535D01*
X106036609Y-59434722D01*
X106036602Y-59434728D01*
X103567107Y-61904223D01*
X103520382Y-61933583D01*
X103411419Y-61971711D01*
X103411411Y-61971715D01*
X103268226Y-62061685D01*
X103268220Y-62061690D01*
X103148634Y-62181276D01*
X103148629Y-62181282D01*
X103058658Y-62324469D01*
X103058656Y-62324472D01*
X103002796Y-62484110D01*
X102983862Y-62652164D01*
X97736959Y-62652164D01*
X97736314Y-62646443D01*
X97685071Y-62500000D01*
X97680456Y-62486810D01*
X97680455Y-62486809D01*
X97680454Y-62486805D01*
X97680452Y-62486802D01*
X97590481Y-62343615D01*
X97590476Y-62343609D01*
X97470890Y-62224023D01*
X97470884Y-62224018D01*
X97327697Y-62134047D01*
X97327694Y-62134045D01*
X97168056Y-62078185D01*
X97000003Y-62059251D01*
X96999997Y-62059251D01*
X96831943Y-62078185D01*
X96672305Y-62134045D01*
X96672302Y-62134047D01*
X96529115Y-62224018D01*
X96529109Y-62224023D01*
X96409523Y-62343609D01*
X96409518Y-62343615D01*
X96319547Y-62486802D01*
X96319545Y-62486805D01*
X96263685Y-62646443D01*
X96244751Y-62814497D01*
X84575500Y-62814497D01*
X84575500Y-59759951D01*
X84595185Y-59692912D01*
X84647989Y-59647157D01*
X84711654Y-59636548D01*
X84713666Y-59636746D01*
X84713669Y-59636747D01*
X84900000Y-59655099D01*
X85086331Y-59636747D01*
X85265501Y-59582396D01*
X85430625Y-59494136D01*
X85575357Y-59375357D01*
X85694136Y-59230625D01*
X85741298Y-59142390D01*
X85782393Y-59065507D01*
X85782395Y-59065502D01*
X85782396Y-59065501D01*
X85831840Y-58902505D01*
X85870137Y-58844070D01*
X85933949Y-58815613D01*
X86003016Y-58826174D01*
X86055410Y-58872398D01*
X86074500Y-58938504D01*
X86074500Y-59149123D01*
X86055494Y-59215095D01*
X86019545Y-59272307D01*
X85963685Y-59431943D01*
X85944751Y-59599997D01*
X85944751Y-59600002D01*
X85963685Y-59768056D01*
X86019545Y-59927694D01*
X86019547Y-59927697D01*
X86109518Y-60070884D01*
X86109523Y-60070890D01*
X86229109Y-60190476D01*
X86229115Y-60190481D01*
X86372302Y-60280452D01*
X86372305Y-60280454D01*
X86372309Y-60280455D01*
X86372310Y-60280456D01*
X86420462Y-60297305D01*
X86531943Y-60336314D01*
X86699997Y-60355249D01*
X86700000Y-60355249D01*
X86700003Y-60355249D01*
X86868056Y-60336314D01*
X86868059Y-60336313D01*
X87027690Y-60280456D01*
X87027692Y-60280454D01*
X87027694Y-60280454D01*
X87027697Y-60280452D01*
X87170884Y-60190481D01*
X87170885Y-60190480D01*
X87170890Y-60190477D01*
X87182870Y-60178497D01*
X96023251Y-60178497D01*
X96023251Y-60178502D01*
X96042185Y-60346556D01*
X96098045Y-60506194D01*
X96098047Y-60506197D01*
X96188018Y-60649384D01*
X96188023Y-60649390D01*
X96307609Y-60768976D01*
X96307615Y-60768981D01*
X96450802Y-60858952D01*
X96450805Y-60858954D01*
X96450809Y-60858955D01*
X96450810Y-60858956D01*
X96512242Y-60880452D01*
X96610443Y-60914814D01*
X96778497Y-60933749D01*
X96778500Y-60933749D01*
X96778503Y-60933749D01*
X96946556Y-60914814D01*
X96963557Y-60908865D01*
X97106190Y-60858956D01*
X97106192Y-60858954D01*
X97106194Y-60858954D01*
X97106197Y-60858952D01*
X97249384Y-60768981D01*
X97249385Y-60768980D01*
X97249390Y-60768977D01*
X97368977Y-60649390D01*
X97384301Y-60625002D01*
X97458952Y-60506197D01*
X97458955Y-60506191D01*
X97458956Y-60506190D01*
X97514813Y-60346559D01*
X97514813Y-60346558D01*
X97517113Y-60339986D01*
X97518294Y-60340399D01*
X97548890Y-60285689D01*
X97594725Y-60257210D01*
X97681190Y-60226956D01*
X97681197Y-60226952D01*
X97824384Y-60136981D01*
X97824385Y-60136980D01*
X97824390Y-60136977D01*
X97943977Y-60017390D01*
X97945915Y-60014306D01*
X98033952Y-59874197D01*
X98033954Y-59874194D01*
X98033954Y-59874192D01*
X98033956Y-59874190D01*
X98089813Y-59714559D01*
X98089813Y-59714558D01*
X98089814Y-59714556D01*
X98104838Y-59581215D01*
X102749159Y-59581215D01*
X102749159Y-59581220D01*
X102768093Y-59749274D01*
X102823953Y-59908912D01*
X102823955Y-59908915D01*
X102913926Y-60052102D01*
X102913931Y-60052108D01*
X103033517Y-60171694D01*
X103033523Y-60171699D01*
X103176710Y-60261670D01*
X103176713Y-60261672D01*
X103176717Y-60261673D01*
X103176718Y-60261674D01*
X103230394Y-60280456D01*
X103336351Y-60317532D01*
X103504405Y-60336467D01*
X103504408Y-60336467D01*
X103504411Y-60336467D01*
X103672464Y-60317532D01*
X103673584Y-60317140D01*
X103832098Y-60261674D01*
X103832100Y-60261672D01*
X103832102Y-60261672D01*
X103832105Y-60261670D01*
X103975292Y-60171699D01*
X103975293Y-60171698D01*
X103975298Y-60171695D01*
X104094885Y-60052108D01*
X104094889Y-60052102D01*
X104184860Y-59908915D01*
X104184862Y-59908912D01*
X104184862Y-59908910D01*
X104184864Y-59908908D01*
X104240721Y-59749277D01*
X104240721Y-59749276D01*
X104240722Y-59749274D01*
X104259657Y-59581220D01*
X104259657Y-59581215D01*
X104240722Y-59413161D01*
X104191435Y-59272307D01*
X104184864Y-59253528D01*
X104184863Y-59253527D01*
X104184862Y-59253523D01*
X104184860Y-59253520D01*
X104094889Y-59110333D01*
X104094884Y-59110327D01*
X103975298Y-58990741D01*
X103975292Y-58990736D01*
X103832105Y-58900765D01*
X103832102Y-58900763D01*
X103672464Y-58844903D01*
X103504411Y-58825969D01*
X103504405Y-58825969D01*
X103336351Y-58844903D01*
X103176713Y-58900763D01*
X103176710Y-58900765D01*
X103033523Y-58990736D01*
X103033517Y-58990741D01*
X102913931Y-59110327D01*
X102913926Y-59110333D01*
X102823955Y-59253520D01*
X102823953Y-59253523D01*
X102768093Y-59413161D01*
X102749159Y-59581215D01*
X98104838Y-59581215D01*
X98108749Y-59546502D01*
X98108749Y-59546497D01*
X98089814Y-59378443D01*
X98046104Y-59253528D01*
X98033956Y-59218810D01*
X98033955Y-59218809D01*
X98033954Y-59218805D01*
X98033952Y-59218802D01*
X97943981Y-59075615D01*
X97943976Y-59075609D01*
X97824390Y-58956023D01*
X97824384Y-58956018D01*
X97681197Y-58866047D01*
X97681194Y-58866045D01*
X97521556Y-58810185D01*
X97353503Y-58791251D01*
X97353497Y-58791251D01*
X97185443Y-58810185D01*
X97025805Y-58866045D01*
X97025802Y-58866047D01*
X96882615Y-58956018D01*
X96882609Y-58956023D01*
X96763023Y-59075609D01*
X96763018Y-59075615D01*
X96673047Y-59218802D01*
X96673044Y-59218807D01*
X96639562Y-59314497D01*
X96617187Y-59378441D01*
X96617186Y-59378443D01*
X96614888Y-59385013D01*
X96613710Y-59384600D01*
X96583092Y-59439326D01*
X96537275Y-59467787D01*
X96450808Y-59498043D01*
X96307615Y-59588018D01*
X96307609Y-59588023D01*
X96188023Y-59707609D01*
X96188018Y-59707615D01*
X96098047Y-59850802D01*
X96098045Y-59850805D01*
X96042185Y-60010443D01*
X96023251Y-60178497D01*
X87182870Y-60178497D01*
X87290477Y-60070890D01*
X87302279Y-60052108D01*
X87380452Y-59927697D01*
X87380454Y-59927694D01*
X87380454Y-59927692D01*
X87380456Y-59927690D01*
X87436313Y-59768059D01*
X87436313Y-59768058D01*
X87436314Y-59768056D01*
X87455249Y-59600002D01*
X87455249Y-59599997D01*
X87436314Y-59431943D01*
X87416516Y-59375365D01*
X87380456Y-59272310D01*
X87370062Y-59255768D01*
X87344506Y-59215095D01*
X87325500Y-59149123D01*
X87325500Y-56999997D01*
X90144751Y-56999997D01*
X90144751Y-57000002D01*
X90163685Y-57168056D01*
X90219545Y-57327694D01*
X90219547Y-57327697D01*
X90309518Y-57470884D01*
X90309523Y-57470890D01*
X90429109Y-57590476D01*
X90429115Y-57590481D01*
X90572302Y-57680452D01*
X90572305Y-57680454D01*
X90572309Y-57680455D01*
X90572310Y-57680456D01*
X90634928Y-57702367D01*
X90731943Y-57736314D01*
X90899997Y-57755249D01*
X90900000Y-57755249D01*
X90900003Y-57755249D01*
X91068056Y-57736314D01*
X91068059Y-57736313D01*
X91227690Y-57680456D01*
X91227692Y-57680454D01*
X91227694Y-57680454D01*
X91227697Y-57680452D01*
X91370884Y-57590481D01*
X91370885Y-57590480D01*
X91370890Y-57590477D01*
X91490477Y-57470890D01*
X91554263Y-57369376D01*
X91580452Y-57327697D01*
X91580454Y-57327694D01*
X91580454Y-57327692D01*
X91580456Y-57327690D01*
X91636313Y-57168059D01*
X91636313Y-57168058D01*
X91636314Y-57168056D01*
X91655249Y-57000002D01*
X91655249Y-56999997D01*
X91636314Y-56831943D01*
X91605426Y-56743671D01*
X91580456Y-56672310D01*
X91580455Y-56672309D01*
X91580454Y-56672305D01*
X91580452Y-56672302D01*
X91490481Y-56529115D01*
X91490476Y-56529109D01*
X91370890Y-56409523D01*
X91370884Y-56409518D01*
X91227697Y-56319547D01*
X91227694Y-56319545D01*
X91068056Y-56263685D01*
X90900003Y-56244751D01*
X90899997Y-56244751D01*
X90731943Y-56263685D01*
X90572305Y-56319545D01*
X90572302Y-56319547D01*
X90429115Y-56409518D01*
X90429109Y-56409523D01*
X90309523Y-56529109D01*
X90309518Y-56529115D01*
X90219547Y-56672302D01*
X90219545Y-56672305D01*
X90163685Y-56831943D01*
X90144751Y-56999997D01*
X87325500Y-56999997D01*
X87325500Y-55599997D01*
X88744751Y-55599997D01*
X88744751Y-55600002D01*
X88763685Y-55768056D01*
X88819545Y-55927694D01*
X88819547Y-55927697D01*
X88909518Y-56070884D01*
X88909523Y-56070890D01*
X89029109Y-56190476D01*
X89029115Y-56190481D01*
X89172302Y-56280452D01*
X89172305Y-56280454D01*
X89172309Y-56280455D01*
X89172310Y-56280456D01*
X89229593Y-56300500D01*
X89331943Y-56336314D01*
X89499997Y-56355249D01*
X89500000Y-56355249D01*
X89500003Y-56355249D01*
X89668056Y-56336314D01*
X89668059Y-56336313D01*
X89827690Y-56280456D01*
X89827692Y-56280454D01*
X89827694Y-56280454D01*
X89827697Y-56280452D01*
X89970884Y-56190481D01*
X89970885Y-56190480D01*
X89970890Y-56190477D01*
X90090477Y-56070890D01*
X90126432Y-56013668D01*
X90180452Y-55927697D01*
X90180454Y-55927694D01*
X90180454Y-55927692D01*
X90180456Y-55927690D01*
X90236313Y-55768059D01*
X90236313Y-55768058D01*
X90236314Y-55768056D01*
X90255249Y-55600002D01*
X90255249Y-55599997D01*
X90236314Y-55431943D01*
X90180454Y-55272305D01*
X90180452Y-55272302D01*
X90135021Y-55199999D01*
X108594785Y-55199999D01*
X108594785Y-55200000D01*
X108613602Y-55403082D01*
X108669417Y-55599247D01*
X108669422Y-55599260D01*
X108760327Y-55781821D01*
X108883237Y-55944581D01*
X109033958Y-56081980D01*
X109033960Y-56081982D01*
X109076076Y-56108059D01*
X109207363Y-56189348D01*
X109397544Y-56263024D01*
X109598024Y-56300500D01*
X109598026Y-56300500D01*
X109801974Y-56300500D01*
X109801976Y-56300500D01*
X110002456Y-56263024D01*
X110192637Y-56189348D01*
X110366041Y-56081981D01*
X110516764Y-55944579D01*
X110639673Y-55781821D01*
X110730582Y-55599250D01*
X110786397Y-55403083D01*
X110805215Y-55200000D01*
X110786397Y-54996917D01*
X110758821Y-54899997D01*
X112644751Y-54899997D01*
X112644751Y-54900002D01*
X112663686Y-55068058D01*
X112695523Y-55159047D01*
X112699084Y-55228826D01*
X112695523Y-55240953D01*
X112663686Y-55331941D01*
X112644751Y-55499997D01*
X112644751Y-55500002D01*
X112663686Y-55668058D01*
X112695523Y-55759047D01*
X112699084Y-55828826D01*
X112695523Y-55840953D01*
X112663686Y-55931941D01*
X112644751Y-56099997D01*
X112644751Y-56100002D01*
X112663685Y-56268056D01*
X112719545Y-56427694D01*
X112719547Y-56427697D01*
X112809518Y-56570884D01*
X112809523Y-56570890D01*
X112929109Y-56690476D01*
X112929115Y-56690481D01*
X113072302Y-56780452D01*
X113072305Y-56780454D01*
X113072309Y-56780455D01*
X113072310Y-56780456D01*
X113092378Y-56787478D01*
X113231943Y-56836314D01*
X113399997Y-56855249D01*
X113400000Y-56855249D01*
X113400003Y-56855249D01*
X113568059Y-56836313D01*
X113568060Y-56836313D01*
X113659045Y-56804476D01*
X113728824Y-56800914D01*
X113740955Y-56804476D01*
X113831939Y-56836313D01*
X113999997Y-56855249D01*
X114000000Y-56855249D01*
X114000003Y-56855249D01*
X114168056Y-56836314D01*
X114180548Y-56831943D01*
X114327690Y-56780456D01*
X114327692Y-56780454D01*
X114327694Y-56780454D01*
X114327697Y-56780452D01*
X114470884Y-56690481D01*
X114470885Y-56690480D01*
X114470890Y-56690477D01*
X114590477Y-56570890D01*
X114615868Y-56530481D01*
X114680452Y-56427697D01*
X114680454Y-56427694D01*
X114680454Y-56427692D01*
X114680456Y-56427690D01*
X114736313Y-56268059D01*
X114736313Y-56268058D01*
X114736314Y-56268056D01*
X114755249Y-56100002D01*
X114755249Y-56099997D01*
X114736313Y-55931940D01*
X114736313Y-55931939D01*
X114704476Y-55840955D01*
X114700914Y-55771176D01*
X114704476Y-55759045D01*
X114736313Y-55668060D01*
X114736313Y-55668059D01*
X114755249Y-55500002D01*
X114755249Y-55499997D01*
X114736313Y-55331940D01*
X114736313Y-55331939D01*
X114704476Y-55240955D01*
X114700914Y-55171176D01*
X114704476Y-55159045D01*
X114736313Y-55068060D01*
X114736313Y-55068059D01*
X114755249Y-54900002D01*
X114755249Y-54899997D01*
X114736314Y-54731943D01*
X114725136Y-54699999D01*
X116857285Y-54699999D01*
X116857285Y-54700000D01*
X116876102Y-54903082D01*
X116931917Y-55099247D01*
X116931922Y-55099260D01*
X117022827Y-55281821D01*
X117145737Y-55444581D01*
X117296458Y-55581980D01*
X117296460Y-55581982D01*
X117325564Y-55600002D01*
X117469863Y-55689348D01*
X117660044Y-55763024D01*
X117860524Y-55800500D01*
X117860526Y-55800500D01*
X118064474Y-55800500D01*
X118064476Y-55800500D01*
X118264956Y-55763024D01*
X118455137Y-55689348D01*
X118628541Y-55581981D01*
X118779264Y-55444579D01*
X118902173Y-55281821D01*
X118993082Y-55099250D01*
X119048897Y-54903083D01*
X119067715Y-54700000D01*
X119066832Y-54690476D01*
X119048897Y-54496917D01*
X119043428Y-54477697D01*
X118993082Y-54300750D01*
X118976802Y-54268056D01*
X118942459Y-54199084D01*
X118902173Y-54118179D01*
X118808808Y-53994544D01*
X118779262Y-53955418D01*
X118628541Y-53818019D01*
X118628539Y-53818017D01*
X118455142Y-53710655D01*
X118455135Y-53710651D01*
X118340000Y-53666048D01*
X118264956Y-53636976D01*
X118064476Y-53599500D01*
X117860524Y-53599500D01*
X117660044Y-53636976D01*
X117660041Y-53636976D01*
X117660041Y-53636977D01*
X117469864Y-53710651D01*
X117469857Y-53710655D01*
X117296460Y-53818017D01*
X117296458Y-53818019D01*
X117145737Y-53955418D01*
X117022827Y-54118178D01*
X116931922Y-54300739D01*
X116931917Y-54300752D01*
X116876102Y-54496917D01*
X116857285Y-54699999D01*
X114725136Y-54699999D01*
X114686416Y-54589344D01*
X114680456Y-54572310D01*
X114680455Y-54572309D01*
X114680454Y-54572305D01*
X114680452Y-54572302D01*
X114590481Y-54429115D01*
X114590476Y-54429109D01*
X114470890Y-54309523D01*
X114470884Y-54309518D01*
X114327697Y-54219547D01*
X114327694Y-54219545D01*
X114168056Y-54163685D01*
X114000003Y-54144751D01*
X113999997Y-54144751D01*
X113831941Y-54163686D01*
X113740953Y-54195523D01*
X113671174Y-54199084D01*
X113659047Y-54195523D01*
X113568058Y-54163686D01*
X113400003Y-54144751D01*
X113399997Y-54144751D01*
X113231943Y-54163685D01*
X113072305Y-54219545D01*
X113072302Y-54219547D01*
X112929115Y-54309518D01*
X112929109Y-54309523D01*
X112809523Y-54429109D01*
X112809518Y-54429115D01*
X112719547Y-54572302D01*
X112719545Y-54572305D01*
X112663685Y-54731943D01*
X112644751Y-54899997D01*
X110758821Y-54899997D01*
X110730582Y-54800750D01*
X110696320Y-54731943D01*
X110675672Y-54690476D01*
X110639673Y-54618179D01*
X110548100Y-54496917D01*
X110516762Y-54455418D01*
X110366041Y-54318019D01*
X110366039Y-54318017D01*
X110192642Y-54210655D01*
X110192635Y-54210651D01*
X110097546Y-54173814D01*
X110002456Y-54136976D01*
X109801976Y-54099500D01*
X109598024Y-54099500D01*
X109397544Y-54136976D01*
X109397541Y-54136976D01*
X109397541Y-54136977D01*
X109207364Y-54210651D01*
X109207357Y-54210655D01*
X109033960Y-54318017D01*
X109033958Y-54318019D01*
X108883237Y-54455418D01*
X108760327Y-54618178D01*
X108669422Y-54800739D01*
X108669417Y-54800752D01*
X108613602Y-54996917D01*
X108594785Y-55199999D01*
X90135021Y-55199999D01*
X90090481Y-55129115D01*
X90090476Y-55129109D01*
X89970890Y-55009523D01*
X89970884Y-55009518D01*
X89827697Y-54919547D01*
X89827694Y-54919545D01*
X89668056Y-54863685D01*
X89500003Y-54844751D01*
X89499997Y-54844751D01*
X89331943Y-54863685D01*
X89172305Y-54919545D01*
X89172302Y-54919547D01*
X89029115Y-55009518D01*
X89029109Y-55009523D01*
X88909523Y-55129109D01*
X88909518Y-55129115D01*
X88819547Y-55272302D01*
X88819545Y-55272305D01*
X88763685Y-55431943D01*
X88744751Y-55599997D01*
X87325500Y-55599997D01*
X87325500Y-53499999D01*
X96194785Y-53499999D01*
X96194785Y-53500000D01*
X96213602Y-53703082D01*
X96269417Y-53899247D01*
X96269422Y-53899260D01*
X96360327Y-54081821D01*
X96483237Y-54244581D01*
X96633958Y-54381980D01*
X96633960Y-54381982D01*
X96707782Y-54427690D01*
X96807363Y-54489348D01*
X96997544Y-54563024D01*
X97198024Y-54600500D01*
X97198026Y-54600500D01*
X97401974Y-54600500D01*
X97401976Y-54600500D01*
X97602456Y-54563024D01*
X97792637Y-54489348D01*
X97966041Y-54381981D01*
X98116764Y-54244579D01*
X98239673Y-54081821D01*
X98330582Y-53899250D01*
X98369264Y-53763296D01*
X98406542Y-53704206D01*
X98469851Y-53674648D01*
X98539091Y-53684010D01*
X98592278Y-53729319D01*
X98612000Y-53785788D01*
X98613603Y-53803083D01*
X98619072Y-53822305D01*
X98669417Y-53999247D01*
X98669422Y-53999260D01*
X98760327Y-54181821D01*
X98883237Y-54344581D01*
X99033958Y-54481980D01*
X99033960Y-54481982D01*
X99133141Y-54543392D01*
X99207363Y-54589348D01*
X99397544Y-54663024D01*
X99598024Y-54700500D01*
X99598026Y-54700500D01*
X99801974Y-54700500D01*
X99801976Y-54700500D01*
X100002456Y-54663024D01*
X100192637Y-54589348D01*
X100366041Y-54481981D01*
X100516764Y-54344579D01*
X100639673Y-54181821D01*
X100730582Y-53999250D01*
X100786397Y-53803083D01*
X100805215Y-53600000D01*
X100800883Y-53553254D01*
X100786397Y-53396917D01*
X100782433Y-53382984D01*
X100730582Y-53200750D01*
X100712502Y-53164441D01*
X100652953Y-53044849D01*
X100639673Y-53018179D01*
X100619506Y-52991473D01*
X108744751Y-52991473D01*
X108744751Y-52991478D01*
X108763685Y-53159532D01*
X108819545Y-53319170D01*
X108819547Y-53319173D01*
X108909518Y-53462360D01*
X108909523Y-53462366D01*
X109029109Y-53581952D01*
X109029115Y-53581957D01*
X109172302Y-53671928D01*
X109172305Y-53671930D01*
X109172309Y-53671931D01*
X109172310Y-53671932D01*
X109244913Y-53697336D01*
X109331943Y-53727790D01*
X109499997Y-53746725D01*
X109500000Y-53746725D01*
X109500003Y-53746725D01*
X109668056Y-53727790D01*
X109717025Y-53710655D01*
X109827690Y-53671932D01*
X109827692Y-53671930D01*
X109827694Y-53671930D01*
X109827697Y-53671928D01*
X109970884Y-53581957D01*
X109970885Y-53581956D01*
X109970890Y-53581953D01*
X110090477Y-53462366D01*
X110108714Y-53433342D01*
X110180452Y-53319173D01*
X110180454Y-53319170D01*
X110180454Y-53319168D01*
X110180456Y-53319166D01*
X110236313Y-53159535D01*
X110236313Y-53159534D01*
X110236314Y-53159532D01*
X110255249Y-52991478D01*
X110255249Y-52991473D01*
X110236314Y-52823419D01*
X110180454Y-52663781D01*
X110180452Y-52663778D01*
X110090481Y-52520591D01*
X110090476Y-52520585D01*
X109970890Y-52400999D01*
X109970884Y-52400994D01*
X109827697Y-52311023D01*
X109827694Y-52311021D01*
X109668056Y-52255161D01*
X109500003Y-52236227D01*
X109499997Y-52236227D01*
X109331943Y-52255161D01*
X109172305Y-52311021D01*
X109172302Y-52311023D01*
X109029115Y-52400994D01*
X109029109Y-52400999D01*
X108909523Y-52520585D01*
X108909518Y-52520591D01*
X108819547Y-52663778D01*
X108819545Y-52663781D01*
X108763685Y-52823419D01*
X108744751Y-52991473D01*
X100619506Y-52991473D01*
X100536821Y-52881981D01*
X100516762Y-52855418D01*
X100366041Y-52718019D01*
X100366039Y-52718017D01*
X100192642Y-52610655D01*
X100192635Y-52610651D01*
X100049624Y-52555249D01*
X100002456Y-52536976D01*
X99801976Y-52499500D01*
X99598024Y-52499500D01*
X99397544Y-52536976D01*
X99397541Y-52536976D01*
X99397541Y-52536977D01*
X99207364Y-52610651D01*
X99207357Y-52610655D01*
X99033960Y-52718017D01*
X99033958Y-52718019D01*
X98883237Y-52855418D01*
X98760327Y-53018178D01*
X98669422Y-53200739D01*
X98669417Y-53200752D01*
X98630736Y-53336701D01*
X98593456Y-53395794D01*
X98530147Y-53425351D01*
X98460907Y-53415989D01*
X98407721Y-53370679D01*
X98387999Y-53314206D01*
X98386397Y-53296918D01*
X98376892Y-53263512D01*
X98330582Y-53100750D01*
X98324378Y-53088291D01*
X98247282Y-52933461D01*
X98239673Y-52918179D01*
X98116764Y-52755421D01*
X98116762Y-52755418D01*
X97966041Y-52618019D01*
X97966039Y-52618017D01*
X97792642Y-52510655D01*
X97792635Y-52510651D01*
X97649624Y-52455249D01*
X97602456Y-52436976D01*
X97401976Y-52399500D01*
X97198024Y-52399500D01*
X96997544Y-52436976D01*
X96997541Y-52436976D01*
X96997541Y-52436977D01*
X96807364Y-52510651D01*
X96807357Y-52510655D01*
X96633960Y-52618017D01*
X96633958Y-52618019D01*
X96483237Y-52755418D01*
X96360327Y-52918178D01*
X96269422Y-53100739D01*
X96269417Y-53100752D01*
X96213602Y-53296917D01*
X96194785Y-53499999D01*
X87325500Y-53499999D01*
X87325500Y-51199999D01*
X116994785Y-51199999D01*
X116994785Y-51200000D01*
X117013602Y-51403082D01*
X117069417Y-51599247D01*
X117069422Y-51599260D01*
X117160327Y-51781821D01*
X117283237Y-51944581D01*
X117433958Y-52081980D01*
X117433960Y-52081982D01*
X117507782Y-52127690D01*
X117607363Y-52189348D01*
X117797544Y-52263024D01*
X117998024Y-52300500D01*
X117998026Y-52300500D01*
X118201974Y-52300500D01*
X118201976Y-52300500D01*
X118402456Y-52263024D01*
X118592637Y-52189348D01*
X118766041Y-52081981D01*
X118916764Y-51944579D01*
X119039673Y-51781821D01*
X119130582Y-51599250D01*
X119186397Y-51403083D01*
X119205215Y-51200000D01*
X119198908Y-51131940D01*
X119186397Y-50996917D01*
X119158821Y-50900000D01*
X119130582Y-50800750D01*
X119126728Y-50793011D01*
X119044611Y-50628096D01*
X119039673Y-50618179D01*
X118950068Y-50499523D01*
X118916762Y-50455418D01*
X118766041Y-50318019D01*
X118766039Y-50318017D01*
X118592642Y-50210655D01*
X118592635Y-50210651D01*
X118497546Y-50173814D01*
X118402456Y-50136976D01*
X118201976Y-50099500D01*
X117998024Y-50099500D01*
X117797544Y-50136976D01*
X117797541Y-50136976D01*
X117797541Y-50136977D01*
X117607364Y-50210651D01*
X117607357Y-50210655D01*
X117433960Y-50318017D01*
X117433958Y-50318019D01*
X117283237Y-50455418D01*
X117160327Y-50618178D01*
X117069422Y-50800739D01*
X117069417Y-50800752D01*
X117013602Y-50996917D01*
X116994785Y-51199999D01*
X87325500Y-51199999D01*
X87325500Y-49338784D01*
X87325499Y-49338780D01*
X87323567Y-49329065D01*
X87301463Y-49217939D01*
X87280748Y-49167929D01*
X87254312Y-49104105D01*
X87220084Y-49052881D01*
X87185858Y-49001658D01*
X87185856Y-49001655D01*
X87095637Y-48911436D01*
X87095606Y-48911407D01*
X83105725Y-44921526D01*
X83072240Y-44860203D01*
X83077224Y-44790511D01*
X83119096Y-44734578D01*
X83157406Y-44715186D01*
X83207468Y-44700000D01*
X84444901Y-44700000D01*
X84463252Y-44886331D01*
X84463253Y-44886333D01*
X84517604Y-45065502D01*
X84575376Y-45173586D01*
X84589618Y-45241989D01*
X84584679Y-45268033D01*
X84563252Y-45338668D01*
X84544901Y-45525000D01*
X84563252Y-45711331D01*
X84563253Y-45711333D01*
X84617604Y-45890502D01*
X84705862Y-46055623D01*
X84705864Y-46055626D01*
X84824642Y-46200357D01*
X84969373Y-46319135D01*
X84969376Y-46319137D01*
X85129788Y-46404878D01*
X85134499Y-46407396D01*
X85313666Y-46461746D01*
X85313668Y-46461747D01*
X85330374Y-46463392D01*
X85500000Y-46480099D01*
X85686331Y-46461747D01*
X85865501Y-46407396D01*
X86030625Y-46319136D01*
X86175357Y-46200357D01*
X86294136Y-46055625D01*
X86382396Y-45890501D01*
X86436747Y-45711331D01*
X86455099Y-45525000D01*
X86436747Y-45338669D01*
X86382396Y-45159499D01*
X86324621Y-45051410D01*
X86310380Y-44983010D01*
X86315318Y-44956968D01*
X86336747Y-44886331D01*
X86355099Y-44700000D01*
X86336747Y-44513669D01*
X86282396Y-44334499D01*
X86256650Y-44286331D01*
X86194137Y-44169376D01*
X86194135Y-44169373D01*
X86075357Y-44024642D01*
X85930626Y-43905864D01*
X85930623Y-43905862D01*
X85765502Y-43817604D01*
X85586333Y-43763253D01*
X85586331Y-43763252D01*
X85400000Y-43744901D01*
X85213668Y-43763252D01*
X85213666Y-43763253D01*
X85034497Y-43817604D01*
X84869376Y-43905862D01*
X84869373Y-43905864D01*
X84724642Y-44024642D01*
X84605864Y-44169373D01*
X84605862Y-44169376D01*
X84517604Y-44334497D01*
X84463253Y-44513666D01*
X84463252Y-44513668D01*
X84444901Y-44700000D01*
X83207468Y-44700000D01*
X83265501Y-44682396D01*
X83297155Y-44665477D01*
X83430623Y-44594137D01*
X83430626Y-44594135D01*
X83471634Y-44560481D01*
X83575357Y-44475357D01*
X83694136Y-44330625D01*
X83756650Y-44213668D01*
X83782394Y-44165505D01*
X83782395Y-44165502D01*
X83782396Y-44165501D01*
X83823812Y-44028967D01*
X83854789Y-43977287D01*
X85921789Y-41910289D01*
X86009394Y-41779179D01*
X86069738Y-41633497D01*
X86100500Y-41478842D01*
X86100500Y-41321157D01*
X86100500Y-39899996D01*
X88894435Y-39899996D01*
X88894435Y-39900003D01*
X88914630Y-40079249D01*
X88914631Y-40079254D01*
X88974211Y-40249523D01*
X89024840Y-40330098D01*
X89070184Y-40402262D01*
X89197738Y-40529816D01*
X89258164Y-40567784D01*
X89348725Y-40624688D01*
X89350478Y-40625789D01*
X89518330Y-40684523D01*
X89520745Y-40685368D01*
X89520750Y-40685369D01*
X89699996Y-40705565D01*
X89700000Y-40705565D01*
X89700004Y-40705565D01*
X89879249Y-40685369D01*
X89879252Y-40685368D01*
X89879255Y-40685368D01*
X90049522Y-40625789D01*
X90049531Y-40625782D01*
X90051807Y-40624688D01*
X90053434Y-40624419D01*
X90056095Y-40623489D01*
X90056257Y-40623954D01*
X90120748Y-40613330D01*
X90184884Y-40641048D01*
X90223855Y-40699040D01*
X90225286Y-40768895D01*
X90210612Y-40802376D01*
X90119545Y-40947307D01*
X90063685Y-41106943D01*
X90044751Y-41274997D01*
X90044751Y-41275002D01*
X90063685Y-41443056D01*
X90119545Y-41602694D01*
X90119547Y-41602697D01*
X90209518Y-41745884D01*
X90209523Y-41745890D01*
X90236539Y-41772906D01*
X90270024Y-41834229D01*
X90265040Y-41903921D01*
X90223168Y-41959854D01*
X90157704Y-41984271D01*
X90107903Y-41977629D01*
X90068056Y-41963685D01*
X89900003Y-41944751D01*
X89899997Y-41944751D01*
X89731943Y-41963685D01*
X89572305Y-42019545D01*
X89572302Y-42019547D01*
X89429115Y-42109518D01*
X89429109Y-42109523D01*
X89309523Y-42229109D01*
X89309518Y-42229115D01*
X89219547Y-42372302D01*
X89219545Y-42372305D01*
X89163685Y-42531943D01*
X89144751Y-42699997D01*
X89144751Y-42700002D01*
X89163685Y-42868056D01*
X89219545Y-43027694D01*
X89219547Y-43027697D01*
X89309518Y-43170884D01*
X89309523Y-43170890D01*
X89429109Y-43290476D01*
X89429115Y-43290481D01*
X89572302Y-43380452D01*
X89572305Y-43380454D01*
X89572309Y-43380455D01*
X89572310Y-43380456D01*
X89612580Y-43394547D01*
X89731943Y-43436314D01*
X89899997Y-43455249D01*
X89900000Y-43455249D01*
X89900003Y-43455249D01*
X90068056Y-43436314D01*
X90101413Y-43424642D01*
X90227690Y-43380456D01*
X90227692Y-43380454D01*
X90227694Y-43380454D01*
X90227697Y-43380452D01*
X90370884Y-43290481D01*
X90370885Y-43290480D01*
X90370890Y-43290477D01*
X90490477Y-43170890D01*
X90495276Y-43163253D01*
X90580452Y-43027697D01*
X90580454Y-43027694D01*
X90580454Y-43027692D01*
X90580456Y-43027690D01*
X90581398Y-43024997D01*
X91244751Y-43024997D01*
X91244751Y-43025002D01*
X91263685Y-43193056D01*
X91319545Y-43352694D01*
X91319547Y-43352697D01*
X91409518Y-43495884D01*
X91409523Y-43495890D01*
X91529109Y-43615476D01*
X91529115Y-43615481D01*
X91672302Y-43705452D01*
X91672305Y-43705454D01*
X91672309Y-43705455D01*
X91672310Y-43705456D01*
X91727141Y-43724642D01*
X91831943Y-43761314D01*
X91999997Y-43780249D01*
X92000000Y-43780249D01*
X92000003Y-43780249D01*
X92134957Y-43765043D01*
X92203779Y-43777097D01*
X92255159Y-43824446D01*
X92272783Y-43892057D01*
X92265883Y-43929217D01*
X92238686Y-44006942D01*
X92219751Y-44174997D01*
X92219751Y-44175002D01*
X92238685Y-44343056D01*
X92294545Y-44502694D01*
X92294547Y-44502697D01*
X92384518Y-44645884D01*
X92384523Y-44645890D01*
X92504109Y-44765476D01*
X92504115Y-44765481D01*
X92647302Y-44855452D01*
X92647305Y-44855454D01*
X92647309Y-44855455D01*
X92647310Y-44855456D01*
X92697574Y-44873044D01*
X92806943Y-44911314D01*
X92974997Y-44930249D01*
X92975000Y-44930249D01*
X92975003Y-44930249D01*
X93143056Y-44911314D01*
X93143059Y-44911313D01*
X93302690Y-44855456D01*
X93302692Y-44855454D01*
X93302694Y-44855454D01*
X93302697Y-44855452D01*
X93445884Y-44765481D01*
X93445885Y-44765480D01*
X93445890Y-44765477D01*
X93565477Y-44645890D01*
X93565481Y-44645884D01*
X93655452Y-44502697D01*
X93655454Y-44502694D01*
X93655454Y-44502692D01*
X93655456Y-44502690D01*
X93691389Y-44400000D01*
X94244901Y-44400000D01*
X94263252Y-44586331D01*
X94263253Y-44586333D01*
X94317604Y-44765502D01*
X94405862Y-44930623D01*
X94405864Y-44930626D01*
X94524642Y-45075357D01*
X94669373Y-45194135D01*
X94669376Y-45194137D01*
X94834497Y-45282395D01*
X94834499Y-45282396D01*
X95013666Y-45336746D01*
X95013668Y-45336747D01*
X95030374Y-45338392D01*
X95200000Y-45355099D01*
X95386331Y-45336747D01*
X95565501Y-45282396D01*
X95730625Y-45194136D01*
X95875357Y-45075357D01*
X95994136Y-44930625D01*
X96082396Y-44765501D01*
X96136747Y-44586331D01*
X96155099Y-44400000D01*
X96137140Y-44217657D01*
X96136747Y-44213668D01*
X96136746Y-44213666D01*
X96123310Y-44169373D01*
X96082396Y-44034499D01*
X96026122Y-43929217D01*
X95994137Y-43869376D01*
X95994135Y-43869373D01*
X95875357Y-43724642D01*
X95730626Y-43605864D01*
X95730623Y-43605862D01*
X95565502Y-43517604D01*
X95386333Y-43463253D01*
X95386331Y-43463252D01*
X95200000Y-43444901D01*
X95013668Y-43463252D01*
X95013666Y-43463253D01*
X94834497Y-43517604D01*
X94669376Y-43605862D01*
X94669373Y-43605864D01*
X94524642Y-43724642D01*
X94405864Y-43869373D01*
X94405862Y-43869376D01*
X94317604Y-44034497D01*
X94263253Y-44213666D01*
X94263252Y-44213668D01*
X94244901Y-44400000D01*
X93691389Y-44400000D01*
X93711313Y-44343059D01*
X93711313Y-44343058D01*
X93711314Y-44343056D01*
X93730249Y-44175002D01*
X93730249Y-44174997D01*
X93711314Y-44006943D01*
X93675944Y-43905862D01*
X93655456Y-43847310D01*
X93655455Y-43847309D01*
X93655454Y-43847305D01*
X93655452Y-43847302D01*
X93565481Y-43704115D01*
X93565476Y-43704109D01*
X93445890Y-43584523D01*
X93445884Y-43584518D01*
X93302697Y-43494547D01*
X93302694Y-43494545D01*
X93143056Y-43438685D01*
X92975003Y-43419751D01*
X92974996Y-43419751D01*
X92840041Y-43434956D01*
X92771219Y-43422901D01*
X92719840Y-43375552D01*
X92702216Y-43307942D01*
X92709117Y-43270780D01*
X92709609Y-43269376D01*
X92736313Y-43193059D01*
X92745931Y-43107697D01*
X92755249Y-43025002D01*
X92755249Y-43024997D01*
X92736314Y-42856943D01*
X92680454Y-42697305D01*
X92680452Y-42697302D01*
X92590481Y-42554115D01*
X92590476Y-42554109D01*
X92470890Y-42434523D01*
X92470884Y-42434518D01*
X92327697Y-42344547D01*
X92327694Y-42344545D01*
X92168056Y-42288685D01*
X92000003Y-42269751D01*
X91999997Y-42269751D01*
X91831943Y-42288685D01*
X91672305Y-42344545D01*
X91672302Y-42344547D01*
X91529115Y-42434518D01*
X91529109Y-42434523D01*
X91409523Y-42554109D01*
X91409518Y-42554115D01*
X91319547Y-42697302D01*
X91319545Y-42697305D01*
X91263685Y-42856943D01*
X91244751Y-43024997D01*
X90581398Y-43024997D01*
X90636313Y-42868059D01*
X90636313Y-42868058D01*
X90636314Y-42868056D01*
X90655249Y-42700002D01*
X90655249Y-42699997D01*
X90636314Y-42531943D01*
X90580454Y-42372305D01*
X90580452Y-42372302D01*
X90490481Y-42229115D01*
X90490476Y-42229109D01*
X90463460Y-42202093D01*
X90429975Y-42140770D01*
X90434959Y-42071078D01*
X90476831Y-42015145D01*
X90542295Y-41990728D01*
X90592097Y-41997371D01*
X90631941Y-42011313D01*
X90799997Y-42030249D01*
X90800000Y-42030249D01*
X90800003Y-42030249D01*
X90968056Y-42011314D01*
X90968059Y-42011313D01*
X91127690Y-41955456D01*
X91127692Y-41955454D01*
X91127694Y-41955454D01*
X91127697Y-41955452D01*
X91270884Y-41865481D01*
X91270885Y-41865480D01*
X91270890Y-41865477D01*
X91390477Y-41745890D01*
X91431592Y-41680456D01*
X91480452Y-41602697D01*
X91480454Y-41602694D01*
X91480454Y-41602692D01*
X91480456Y-41602690D01*
X91536313Y-41443059D01*
X91536313Y-41443058D01*
X91536314Y-41443056D01*
X91555249Y-41275002D01*
X91555249Y-41274997D01*
X91536314Y-41106943D01*
X91480454Y-40947305D01*
X91480452Y-40947302D01*
X91390481Y-40804115D01*
X91390476Y-40804109D01*
X91373048Y-40786681D01*
X91339563Y-40725358D01*
X91344547Y-40655666D01*
X91386419Y-40599733D01*
X91451883Y-40575316D01*
X91460729Y-40575000D01*
X94125000Y-40575000D01*
X94125000Y-40074996D01*
X94994435Y-40074996D01*
X94994435Y-40075003D01*
X95014630Y-40254249D01*
X95014631Y-40254254D01*
X95074211Y-40424523D01*
X95141880Y-40532216D01*
X95170184Y-40577262D01*
X95297738Y-40704816D01*
X95340549Y-40731716D01*
X95394317Y-40765501D01*
X95450478Y-40800789D01*
X95620745Y-40860368D01*
X95620750Y-40860369D01*
X95799996Y-40880565D01*
X95800000Y-40880565D01*
X95800004Y-40880565D01*
X95979249Y-40860369D01*
X95979252Y-40860368D01*
X95979255Y-40860368D01*
X96149522Y-40800789D01*
X96302262Y-40704816D01*
X96429816Y-40577262D01*
X96525789Y-40424522D01*
X96585368Y-40254255D01*
X96585901Y-40249523D01*
X96605565Y-40075003D01*
X96605565Y-40074996D01*
X96585369Y-39895750D01*
X96585368Y-39895745D01*
X96525788Y-39725475D01*
X96509781Y-39700000D01*
X116344901Y-39700000D01*
X116363252Y-39886331D01*
X116363253Y-39886333D01*
X116417604Y-40065502D01*
X116505862Y-40230623D01*
X116505864Y-40230626D01*
X116624642Y-40375357D01*
X116769373Y-40494135D01*
X116769376Y-40494137D01*
X116920662Y-40575000D01*
X116934499Y-40582396D01*
X117093270Y-40630559D01*
X117113666Y-40636746D01*
X117113668Y-40636747D01*
X117130158Y-40638371D01*
X117300000Y-40655099D01*
X117486331Y-40636747D01*
X117665501Y-40582396D01*
X117830625Y-40494136D01*
X117975357Y-40375357D01*
X118094136Y-40230625D01*
X118182396Y-40065501D01*
X118236747Y-39886331D01*
X118255099Y-39700000D01*
X118237986Y-39526247D01*
X118236747Y-39513668D01*
X118236746Y-39513666D01*
X118229038Y-39488256D01*
X118182396Y-39334499D01*
X118162165Y-39296649D01*
X118094137Y-39169376D01*
X118094135Y-39169373D01*
X117975357Y-39024642D01*
X117830626Y-38905864D01*
X117830623Y-38905862D01*
X117665502Y-38817604D01*
X117486333Y-38763253D01*
X117486331Y-38763252D01*
X117300000Y-38744901D01*
X117113668Y-38763252D01*
X117113666Y-38763253D01*
X116934497Y-38817604D01*
X116769376Y-38905862D01*
X116769373Y-38905864D01*
X116624642Y-39024642D01*
X116505864Y-39169373D01*
X116505862Y-39169376D01*
X116417604Y-39334497D01*
X116363253Y-39513666D01*
X116363252Y-39513668D01*
X116344901Y-39700000D01*
X96509781Y-39700000D01*
X96477575Y-39648746D01*
X96458574Y-39581509D01*
X96478941Y-39514674D01*
X96522558Y-39476495D01*
X96521794Y-39475278D01*
X96670884Y-39381597D01*
X96670885Y-39381596D01*
X96670890Y-39381593D01*
X96790477Y-39262006D01*
X96793594Y-39257045D01*
X96880452Y-39118813D01*
X96880454Y-39118810D01*
X96880454Y-39118808D01*
X96880456Y-39118806D01*
X96936313Y-38959175D01*
X96936313Y-38959174D01*
X96936314Y-38959172D01*
X96955249Y-38791118D01*
X96955249Y-38791113D01*
X96936314Y-38623059D01*
X96898800Y-38515851D01*
X96880456Y-38463426D01*
X96880455Y-38463425D01*
X96880454Y-38463421D01*
X96880452Y-38463418D01*
X96790481Y-38320231D01*
X96790476Y-38320225D01*
X96670890Y-38200639D01*
X96670884Y-38200634D01*
X96527697Y-38110663D01*
X96527694Y-38110661D01*
X96368056Y-38054801D01*
X96200003Y-38035867D01*
X96199997Y-38035867D01*
X96031943Y-38054801D01*
X95872305Y-38110661D01*
X95872302Y-38110663D01*
X95729115Y-38200634D01*
X95729109Y-38200639D01*
X95609523Y-38320225D01*
X95609518Y-38320231D01*
X95519547Y-38463418D01*
X95519545Y-38463421D01*
X95463685Y-38623059D01*
X95444751Y-38791113D01*
X95444751Y-38791118D01*
X95463685Y-38959172D01*
X95489070Y-39031716D01*
X95518083Y-39114632D01*
X95519545Y-39118808D01*
X95543048Y-39156213D01*
X95562048Y-39223450D01*
X95541680Y-39290285D01*
X95488412Y-39335499D01*
X95479010Y-39339226D01*
X95450479Y-39349209D01*
X95297737Y-39445184D01*
X95170184Y-39572737D01*
X95074211Y-39725476D01*
X95014631Y-39895745D01*
X95014630Y-39895750D01*
X94994435Y-40074996D01*
X94125000Y-40074996D01*
X94125000Y-37925000D01*
X91375000Y-37925000D01*
X91375000Y-40525577D01*
X91355315Y-40592616D01*
X91302511Y-40638371D01*
X91233353Y-40648315D01*
X91185029Y-40630571D01*
X91127695Y-40594546D01*
X91127694Y-40594545D01*
X90968056Y-40538685D01*
X90800003Y-40519751D01*
X90799997Y-40519751D01*
X90631942Y-40538686D01*
X90468231Y-40595971D01*
X90398453Y-40599532D01*
X90337825Y-40564803D01*
X90305598Y-40502810D01*
X90312003Y-40433234D01*
X90326425Y-40408355D01*
X90326111Y-40408158D01*
X90331237Y-40400000D01*
X90425789Y-40249522D01*
X90485368Y-40079255D01*
X90485847Y-40075003D01*
X90505565Y-39900003D01*
X90505565Y-39899996D01*
X90485369Y-39720750D01*
X90485368Y-39720745D01*
X90454390Y-39632214D01*
X90425789Y-39550478D01*
X90404031Y-39515851D01*
X90345229Y-39422268D01*
X90329816Y-39397738D01*
X90202262Y-39270184D01*
X90189237Y-39262000D01*
X90049523Y-39174211D01*
X89879254Y-39114631D01*
X89879249Y-39114630D01*
X89700004Y-39094435D01*
X89699996Y-39094435D01*
X89520750Y-39114630D01*
X89520745Y-39114631D01*
X89350476Y-39174211D01*
X89197737Y-39270184D01*
X89070184Y-39397737D01*
X88974211Y-39550476D01*
X88914631Y-39720745D01*
X88914630Y-39720750D01*
X88894435Y-39899996D01*
X86100500Y-39899996D01*
X86100500Y-38495437D01*
X86120185Y-38428398D01*
X86145837Y-38399583D01*
X86175358Y-38375356D01*
X86294135Y-38230626D01*
X86294137Y-38230623D01*
X86310166Y-38200634D01*
X86382396Y-38065501D01*
X86436747Y-37886331D01*
X86455099Y-37700000D01*
X86436747Y-37513669D01*
X86436746Y-37513667D01*
X86436746Y-37513666D01*
X86382396Y-37334499D01*
X86361763Y-37295897D01*
X86294137Y-37169376D01*
X86294135Y-37169373D01*
X86175357Y-37024642D01*
X86030626Y-36905864D01*
X86030623Y-36905862D01*
X85865502Y-36817604D01*
X85686333Y-36763253D01*
X85686331Y-36763252D01*
X85500000Y-36744901D01*
X85313668Y-36763252D01*
X85313666Y-36763253D01*
X85134497Y-36817604D01*
X84969376Y-36905862D01*
X84969373Y-36905864D01*
X84824642Y-37024642D01*
X84705864Y-37169373D01*
X84705862Y-37169376D01*
X84617604Y-37334497D01*
X84563253Y-37513666D01*
X84563253Y-37513667D01*
X84555597Y-37591386D01*
X84546757Y-37626678D01*
X84530264Y-37666499D01*
X84530262Y-37666505D01*
X84499500Y-37821155D01*
X84499500Y-41017059D01*
X84479815Y-41084098D01*
X84463181Y-41104740D01*
X82722712Y-42845208D01*
X82671027Y-42876187D01*
X82534497Y-42917604D01*
X82369376Y-43005862D01*
X82369373Y-43005864D01*
X82224642Y-43124642D01*
X82105864Y-43269373D01*
X82105862Y-43269376D01*
X82017499Y-43434693D01*
X81968537Y-43484538D01*
X81900399Y-43499998D01*
X81842168Y-43481233D01*
X81704206Y-43394545D01*
X81704208Y-43394545D01*
X81544570Y-43338685D01*
X81376517Y-43319751D01*
X81376511Y-43319751D01*
X81208457Y-43338685D01*
X81048819Y-43394545D01*
X81048816Y-43394547D01*
X80905629Y-43484518D01*
X80905623Y-43484523D01*
X80786037Y-43604109D01*
X80786032Y-43604115D01*
X80696061Y-43747302D01*
X80696059Y-43747305D01*
X80640199Y-43906943D01*
X80621265Y-44074997D01*
X80621265Y-44075002D01*
X80640199Y-44243056D01*
X80696059Y-44402694D01*
X80696061Y-44402697D01*
X80786032Y-44545884D01*
X80786037Y-44545890D01*
X80905623Y-44665476D01*
X80905629Y-44665481D01*
X81048816Y-44755452D01*
X81048822Y-44755455D01*
X81048824Y-44755456D01*
X81149006Y-44790511D01*
X81209241Y-44811588D01*
X81255968Y-44840949D01*
X81277357Y-44862338D01*
X81310842Y-44923661D01*
X81305858Y-44993353D01*
X81263986Y-45049286D01*
X81255649Y-45055012D01*
X81129111Y-45134521D01*
X81009523Y-45254109D01*
X81009518Y-45254115D01*
X80919547Y-45397302D01*
X80919545Y-45397305D01*
X80863685Y-45556943D01*
X80844751Y-45724997D01*
X80844751Y-45725002D01*
X80863685Y-45893055D01*
X80878560Y-45935563D01*
X80885519Y-45976518D01*
X80885519Y-46073165D01*
X80865834Y-46140204D01*
X80813030Y-46185959D01*
X80747636Y-46196385D01*
X80600004Y-46179751D01*
X80599997Y-46179751D01*
X80431943Y-46198685D01*
X80272305Y-46254545D01*
X80272302Y-46254547D01*
X80129115Y-46344518D01*
X80129109Y-46344523D01*
X80009523Y-46464109D01*
X80009518Y-46464115D01*
X79919547Y-46607302D01*
X79919545Y-46607305D01*
X79863685Y-46766943D01*
X79844751Y-46934997D01*
X79844751Y-46935002D01*
X79863686Y-47103057D01*
X79919543Y-47262689D01*
X79948893Y-47309399D01*
X79967893Y-47376636D01*
X79947525Y-47443471D01*
X79894257Y-47488685D01*
X79863694Y-47496986D01*
X79863729Y-47497137D01*
X79860053Y-47497975D01*
X79857789Y-47498591D01*
X79856942Y-47498686D01*
X79697307Y-47554545D01*
X79615264Y-47606097D01*
X79548028Y-47625097D01*
X79483320Y-47606097D01*
X79401276Y-47554545D01*
X79401275Y-47554544D01*
X79401274Y-47554544D01*
X79362954Y-47541135D01*
X79241640Y-47498685D01*
X79073587Y-47479751D01*
X79073581Y-47479751D01*
X78905527Y-47498685D01*
X78745892Y-47554544D01*
X78722016Y-47569547D01*
X78654779Y-47588546D01*
X78590073Y-47569545D01*
X78566199Y-47554544D01*
X78406565Y-47498685D01*
X78238512Y-47479751D01*
X78238506Y-47479751D01*
X78070452Y-47498685D01*
X77910814Y-47554545D01*
X77910811Y-47554547D01*
X77767624Y-47644518D01*
X77767618Y-47644523D01*
X77648032Y-47764109D01*
X77648027Y-47764115D01*
X77558056Y-47907302D01*
X77558054Y-47907305D01*
X77502194Y-48066943D01*
X77483260Y-48234997D01*
X77483260Y-48235002D01*
X77502194Y-48403056D01*
X77558054Y-48562694D01*
X77558056Y-48562697D01*
X77648027Y-48705884D01*
X77648032Y-48705890D01*
X77767618Y-48825476D01*
X77767624Y-48825481D01*
X77910811Y-48915452D01*
X77910814Y-48915454D01*
X77910818Y-48915455D01*
X77910819Y-48915456D01*
X77958711Y-48932214D01*
X78070452Y-48971314D01*
X78238506Y-48990249D01*
X78238509Y-48990249D01*
X78238512Y-48990249D01*
X78339344Y-48978887D01*
X78406568Y-48971313D01*
X78566199Y-48915456D01*
X78590073Y-48900454D01*
X78657307Y-48881453D01*
X78722016Y-48900452D01*
X78745894Y-48915456D01*
X78905525Y-48971313D01*
X78947539Y-48976047D01*
X79073581Y-48990249D01*
X79073584Y-48990249D01*
X79073587Y-48990249D01*
X79241640Y-48971314D01*
X79250319Y-48968277D01*
X79401274Y-48915456D01*
X79483320Y-48863902D01*
X79550555Y-48844902D01*
X79615263Y-48863902D01*
X79637386Y-48877803D01*
X79697307Y-48915455D01*
X79697310Y-48915456D01*
X79856941Y-48971313D01*
X79864383Y-48972151D01*
X79928796Y-48999217D01*
X79968352Y-49056812D01*
X79974500Y-49095372D01*
X79974500Y-50118083D01*
X79954815Y-50185122D01*
X79902011Y-50230877D01*
X79832853Y-50240821D01*
X79824720Y-50239374D01*
X79810395Y-50236329D01*
X79714391Y-50215923D01*
X79535609Y-50215923D01*
X79504954Y-50222438D01*
X79360733Y-50253093D01*
X79360728Y-50253095D01*
X79197408Y-50325810D01*
X79052768Y-50430898D01*
X78933140Y-50563759D01*
X78843750Y-50718587D01*
X78843747Y-50718595D01*
X78838307Y-50735337D01*
X78798868Y-50793011D01*
X78734509Y-50820208D01*
X78665663Y-50808292D01*
X78614188Y-50761047D01*
X78612990Y-50759015D01*
X78583155Y-50707339D01*
X78583153Y-50707336D01*
X78463528Y-50574478D01*
X78463525Y-50574476D01*
X78463524Y-50574475D01*
X78463523Y-50574474D01*
X78318886Y-50469388D01*
X78155560Y-50396671D01*
X78155558Y-50396670D01*
X78027887Y-50369533D01*
X77980684Y-50359500D01*
X77801902Y-50359500D01*
X77773157Y-50365610D01*
X77627026Y-50396670D01*
X77627021Y-50396672D01*
X77463701Y-50469387D01*
X77319061Y-50574475D01*
X77199433Y-50707336D01*
X77110043Y-50862164D01*
X77110040Y-50862170D01*
X77054797Y-51032192D01*
X77054796Y-51032194D01*
X77036108Y-51210000D01*
X77054796Y-51387805D01*
X77054797Y-51387807D01*
X77110040Y-51557829D01*
X77110041Y-51557830D01*
X77110043Y-51557835D01*
X77199434Y-51712665D01*
X77216789Y-51731940D01*
X77242442Y-51760431D01*
X77272671Y-51823422D01*
X77264045Y-51892758D01*
X77219303Y-51946423D01*
X77164175Y-51966622D01*
X77081999Y-51975880D01*
X77081995Y-51975881D01*
X76911726Y-52035461D01*
X76758987Y-52131434D01*
X76631434Y-52258987D01*
X76535460Y-52411728D01*
X76475882Y-52581994D01*
X76475880Y-52582002D01*
X76475065Y-52589238D01*
X76447993Y-52653650D01*
X76439528Y-52663025D01*
X76194721Y-52907833D01*
X76194719Y-52907836D01*
X76153060Y-52970183D01*
X76153061Y-52970184D01*
X76123534Y-53014374D01*
X76074499Y-53132755D01*
X76074497Y-53132761D01*
X76049500Y-53258428D01*
X76049500Y-54553138D01*
X76029815Y-54620177D01*
X75977011Y-54665932D01*
X75907853Y-54675876D01*
X75889507Y-54671799D01*
X75861334Y-54663253D01*
X75861331Y-54663252D01*
X75675000Y-54644901D01*
X75488668Y-54663252D01*
X75488666Y-54663253D01*
X75309497Y-54717604D01*
X75144376Y-54805862D01*
X75144373Y-54805864D01*
X74999642Y-54924642D01*
X74945353Y-54990794D01*
X74887607Y-55030128D01*
X74817762Y-55031999D01*
X74757994Y-54995811D01*
X74727278Y-54933055D01*
X74725500Y-54912129D01*
X74725500Y-49175890D01*
X74745185Y-49108851D01*
X74797989Y-49063096D01*
X74867147Y-49053152D01*
X74930703Y-49082177D01*
X74956887Y-49113891D01*
X75008137Y-49202660D01*
X75008139Y-49202663D01*
X75127764Y-49335521D01*
X75127767Y-49335523D01*
X75127770Y-49335526D01*
X75272407Y-49440612D01*
X75435733Y-49513329D01*
X75610609Y-49550500D01*
X75610610Y-49550500D01*
X75789389Y-49550500D01*
X75789391Y-49550500D01*
X75964267Y-49513329D01*
X76127593Y-49440612D01*
X76272230Y-49335526D01*
X76391859Y-49202665D01*
X76481250Y-49047835D01*
X76536497Y-48877803D01*
X76555185Y-48700000D01*
X76536497Y-48522197D01*
X76508873Y-48437181D01*
X76481252Y-48352170D01*
X76481249Y-48352164D01*
X76478584Y-48347548D01*
X76391859Y-48197335D01*
X76345003Y-48145296D01*
X76272235Y-48064478D01*
X76272232Y-48064476D01*
X76272231Y-48064475D01*
X76272230Y-48064474D01*
X76127593Y-47959388D01*
X75964267Y-47886671D01*
X75964265Y-47886670D01*
X75836594Y-47859533D01*
X75789391Y-47849500D01*
X75610609Y-47849500D01*
X75579954Y-47856015D01*
X75435733Y-47886670D01*
X75435728Y-47886672D01*
X75272408Y-47959387D01*
X75127768Y-48064475D01*
X75008139Y-48197336D01*
X74956887Y-48286109D01*
X74906320Y-48334325D01*
X74837713Y-48347548D01*
X74772848Y-48321580D01*
X74732320Y-48264665D01*
X74725500Y-48224109D01*
X74725500Y-48099729D01*
X74745185Y-48032690D01*
X74761819Y-48012048D01*
X74798510Y-47975357D01*
X74846727Y-47927140D01*
X74859192Y-47907302D01*
X74936702Y-47783947D01*
X74936704Y-47783944D01*
X74936704Y-47783942D01*
X74936706Y-47783940D01*
X74992563Y-47624309D01*
X74992563Y-47624308D01*
X74992564Y-47624306D01*
X75011499Y-47456252D01*
X75011499Y-47456247D01*
X74992564Y-47288193D01*
X74936704Y-47128555D01*
X74936702Y-47128552D01*
X74846731Y-46985365D01*
X74846726Y-46985359D01*
X74727140Y-46865773D01*
X74647685Y-46815848D01*
X74583940Y-46775794D01*
X74583939Y-46775793D01*
X74579299Y-46772878D01*
X74533008Y-46720543D01*
X74528229Y-46708838D01*
X74513820Y-46667660D01*
X74480456Y-46572310D01*
X74480455Y-46572308D01*
X74480452Y-46572302D01*
X74390481Y-46429115D01*
X74390476Y-46429109D01*
X74270890Y-46309523D01*
X74270884Y-46309518D01*
X74127697Y-46219547D01*
X74127694Y-46219545D01*
X73968056Y-46163685D01*
X73800003Y-46144751D01*
X73799997Y-46144751D01*
X73631943Y-46163685D01*
X73503832Y-46208514D01*
X73472310Y-46219544D01*
X73472308Y-46219544D01*
X73465738Y-46221844D01*
X73465317Y-46220641D01*
X73403527Y-46230807D01*
X73352718Y-46212733D01*
X73346003Y-46208514D01*
X73299710Y-46156181D01*
X73288752Y-46089628D01*
X73290155Y-46077181D01*
X73290155Y-46077178D01*
X73271220Y-45909125D01*
X73265597Y-45893055D01*
X73215362Y-45749491D01*
X73191386Y-45711333D01*
X73169376Y-45676304D01*
X73150376Y-45609067D01*
X73157328Y-45569380D01*
X73169936Y-45533350D01*
X73185265Y-45397310D01*
X73188872Y-45365293D01*
X73188872Y-45365291D01*
X73188872Y-45365288D01*
X73182836Y-45311726D01*
X73194889Y-45242907D01*
X73240081Y-45192851D01*
X73330840Y-45135824D01*
X73450427Y-45016237D01*
X73471691Y-44982396D01*
X73540402Y-44873044D01*
X73540404Y-44873041D01*
X73540404Y-44873039D01*
X73540406Y-44873037D01*
X73596263Y-44713406D01*
X73596263Y-44713405D01*
X73596264Y-44713403D01*
X73615199Y-44545349D01*
X73615199Y-44545344D01*
X73596264Y-44377293D01*
X73596263Y-44377290D01*
X73596263Y-44377288D01*
X73576992Y-44322217D01*
X73573432Y-44252441D01*
X73589040Y-44215294D01*
X73613209Y-44176831D01*
X73669066Y-44017200D01*
X73669066Y-44017199D01*
X73669067Y-44017197D01*
X73688002Y-43849143D01*
X73688002Y-43849138D01*
X73682466Y-43800000D01*
X74344901Y-43800000D01*
X74363252Y-43986331D01*
X74363253Y-43986333D01*
X74417604Y-44165502D01*
X74505862Y-44330623D01*
X74505864Y-44330626D01*
X74624642Y-44475357D01*
X74770546Y-44595097D01*
X74809880Y-44652842D01*
X74811751Y-44722687D01*
X74787735Y-44769614D01*
X74705864Y-44869374D01*
X74705862Y-44869376D01*
X74617604Y-45034497D01*
X74563253Y-45213666D01*
X74563252Y-45213668D01*
X74544901Y-45400000D01*
X74563252Y-45586331D01*
X74563253Y-45586333D01*
X74617604Y-45765502D01*
X74705862Y-45930623D01*
X74705864Y-45930626D01*
X74824642Y-46075357D01*
X74969373Y-46194135D01*
X74969376Y-46194137D01*
X75099702Y-46263797D01*
X75134499Y-46282396D01*
X75313666Y-46336746D01*
X75313668Y-46336747D01*
X75330374Y-46338392D01*
X75500000Y-46355099D01*
X75686331Y-46336747D01*
X75865501Y-46282396D01*
X76030625Y-46194136D01*
X76175357Y-46075357D01*
X76294136Y-45930625D01*
X76382396Y-45765501D01*
X76436747Y-45586331D01*
X76455099Y-45400000D01*
X76436747Y-45213669D01*
X76382396Y-45034499D01*
X76372632Y-45016231D01*
X76360437Y-44993415D01*
X76346195Y-44925012D01*
X76371195Y-44859768D01*
X76427501Y-44818398D01*
X76497234Y-44814036D01*
X76528248Y-44825604D01*
X76617002Y-44873044D01*
X76634499Y-44882396D01*
X76793481Y-44930623D01*
X76813666Y-44936746D01*
X76813668Y-44936747D01*
X76830374Y-44938392D01*
X77000000Y-44955099D01*
X77186331Y-44936747D01*
X77365501Y-44882396D01*
X77530625Y-44794136D01*
X77675357Y-44675357D01*
X77675357Y-44675356D01*
X77679423Y-44672020D01*
X77743733Y-44644707D01*
X77812600Y-44656498D01*
X77853941Y-44689208D01*
X77924642Y-44775357D01*
X78069373Y-44894135D01*
X78069376Y-44894137D01*
X78186913Y-44956961D01*
X78234499Y-44982396D01*
X78413666Y-45036746D01*
X78413668Y-45036747D01*
X78430374Y-45038392D01*
X78600000Y-45055099D01*
X78786331Y-45036747D01*
X78965501Y-44982396D01*
X79130625Y-44894136D01*
X79275357Y-44775357D01*
X79394136Y-44630625D01*
X79482396Y-44465501D01*
X79536747Y-44286331D01*
X79555099Y-44100000D01*
X79536747Y-43913669D01*
X79482396Y-43734499D01*
X79418778Y-43615477D01*
X79394137Y-43569376D01*
X79394135Y-43569373D01*
X79275357Y-43424642D01*
X79130626Y-43305864D01*
X79130623Y-43305862D01*
X78965502Y-43217604D01*
X78786333Y-43163253D01*
X78786331Y-43163252D01*
X78600000Y-43144901D01*
X78413668Y-43163252D01*
X78413666Y-43163253D01*
X78234497Y-43217604D01*
X78069376Y-43305862D01*
X78069374Y-43305864D01*
X77920575Y-43427980D01*
X77856265Y-43455292D01*
X77787398Y-43443501D01*
X77746058Y-43410791D01*
X77675357Y-43324642D01*
X77530626Y-43205864D01*
X77530623Y-43205862D01*
X77365502Y-43117604D01*
X77186333Y-43063253D01*
X77186331Y-43063252D01*
X77000000Y-43044901D01*
X76813668Y-43063252D01*
X76813666Y-43063253D01*
X76634497Y-43117604D01*
X76469376Y-43205862D01*
X76469373Y-43205864D01*
X76324641Y-43324644D01*
X76320666Y-43329487D01*
X76262918Y-43368818D01*
X76193074Y-43370684D01*
X76133307Y-43334493D01*
X76115460Y-43309269D01*
X76094137Y-43269376D01*
X76094135Y-43269373D01*
X75975357Y-43124642D01*
X75830626Y-43005864D01*
X75830623Y-43005862D01*
X75665502Y-42917604D01*
X75486333Y-42863253D01*
X75486331Y-42863252D01*
X75300000Y-42844901D01*
X75113668Y-42863252D01*
X75113666Y-42863253D01*
X74934497Y-42917604D01*
X74769376Y-43005862D01*
X74769373Y-43005864D01*
X74624642Y-43124642D01*
X74505864Y-43269373D01*
X74505862Y-43269376D01*
X74417604Y-43434497D01*
X74363253Y-43613666D01*
X74363252Y-43613668D01*
X74344901Y-43800000D01*
X73682466Y-43800000D01*
X73669067Y-43681084D01*
X73629978Y-43569375D01*
X73613209Y-43521451D01*
X73613208Y-43521450D01*
X73613207Y-43521446D01*
X73613205Y-43521443D01*
X73523234Y-43378256D01*
X73523229Y-43378250D01*
X73403643Y-43258664D01*
X73403637Y-43258659D01*
X73260450Y-43168688D01*
X73260447Y-43168686D01*
X73100809Y-43112826D01*
X72932756Y-43093892D01*
X72932749Y-43093892D01*
X72797674Y-43109111D01*
X72728852Y-43097056D01*
X72677473Y-43049707D01*
X72659849Y-42982097D01*
X72666750Y-42944936D01*
X72684902Y-42893060D01*
X72684902Y-42893059D01*
X72703838Y-42725002D01*
X72703838Y-42724997D01*
X72684903Y-42556943D01*
X72642066Y-42434523D01*
X72629045Y-42397310D01*
X72629044Y-42397309D01*
X72629043Y-42397305D01*
X72629041Y-42397302D01*
X72539070Y-42254115D01*
X72539065Y-42254109D01*
X72419479Y-42134523D01*
X72419473Y-42134518D01*
X72276286Y-42044547D01*
X72276283Y-42044545D01*
X72116645Y-41988685D01*
X71948592Y-41969751D01*
X71948586Y-41969751D01*
X71780532Y-41988685D01*
X71620894Y-42044545D01*
X71620891Y-42044547D01*
X71477704Y-42134518D01*
X71477698Y-42134523D01*
X71358112Y-42254109D01*
X71358107Y-42254115D01*
X71268136Y-42397302D01*
X71268134Y-42397305D01*
X71212274Y-42556943D01*
X71193340Y-42724997D01*
X71193340Y-42725002D01*
X71212274Y-42893056D01*
X71268134Y-43052694D01*
X71268136Y-43052697D01*
X71358107Y-43195884D01*
X71358112Y-43195890D01*
X71477698Y-43315476D01*
X71477704Y-43315481D01*
X71620891Y-43405452D01*
X71620894Y-43405454D01*
X71620898Y-43405455D01*
X71620899Y-43405456D01*
X71636146Y-43410791D01*
X71780532Y-43461314D01*
X71948586Y-43480249D01*
X71948589Y-43480249D01*
X71948591Y-43480249D01*
X72014360Y-43472838D01*
X72083666Y-43465029D01*
X72152488Y-43477083D01*
X72203867Y-43524432D01*
X72221492Y-43592042D01*
X72214592Y-43629202D01*
X72196439Y-43681081D01*
X72177504Y-43849138D01*
X72177504Y-43849143D01*
X72196439Y-44017197D01*
X72215709Y-44072269D01*
X72219270Y-44142048D01*
X72203661Y-44179194D01*
X72179495Y-44217654D01*
X72123635Y-44377290D01*
X72104701Y-44545344D01*
X72104701Y-44545349D01*
X72110736Y-44598910D01*
X72098682Y-44667732D01*
X72053489Y-44717787D01*
X71962735Y-44774812D01*
X71962732Y-44774814D01*
X71843146Y-44894400D01*
X71843141Y-44894406D01*
X71753170Y-45037593D01*
X71753168Y-45037596D01*
X71697308Y-45197234D01*
X71678374Y-45365288D01*
X71678374Y-45365293D01*
X71697308Y-45533347D01*
X71739758Y-45654661D01*
X71747331Y-45676304D01*
X71753168Y-45692983D01*
X71799152Y-45766167D01*
X71818152Y-45833403D01*
X71811200Y-45873092D01*
X71798592Y-45909124D01*
X71779657Y-46077178D01*
X71779657Y-46077183D01*
X71798591Y-46245237D01*
X71854451Y-46404875D01*
X71854453Y-46404878D01*
X71944424Y-46548065D01*
X71944429Y-46548071D01*
X72064015Y-46667657D01*
X72064019Y-46667660D01*
X72065629Y-46668672D01*
X72066445Y-46669595D01*
X72069462Y-46672001D01*
X72069040Y-46672529D01*
X72111917Y-46721009D01*
X72122872Y-46787540D01*
X72121469Y-46799997D01*
X72121469Y-46800002D01*
X72140403Y-46968056D01*
X72196263Y-47127694D01*
X72196265Y-47127697D01*
X72286236Y-47270884D01*
X72286242Y-47270891D01*
X72327699Y-47312349D01*
X72361183Y-47373672D01*
X72356198Y-47443364D01*
X72327698Y-47487710D01*
X69726270Y-50089139D01*
X69639142Y-50176266D01*
X69635685Y-50181442D01*
X69635679Y-50181450D01*
X69570689Y-50278712D01*
X69570687Y-50278716D01*
X69539633Y-50353686D01*
X69539634Y-50353687D01*
X69534695Y-50365612D01*
X69523536Y-50392551D01*
X69521774Y-50401406D01*
X69519144Y-50414632D01*
X69500278Y-50509486D01*
X69500274Y-50509503D01*
X69499500Y-50513388D01*
X69499500Y-50513394D01*
X69499500Y-69413393D01*
X69499500Y-69536607D01*
X69504453Y-69561506D01*
X69508222Y-69580456D01*
X69508222Y-69580465D01*
X69523535Y-69657445D01*
X69523539Y-69657459D01*
X69530596Y-69674494D01*
X69530597Y-69674500D01*
X69530598Y-69674500D01*
X69570685Y-69771280D01*
X69570687Y-69771284D01*
X69570688Y-69771286D01*
X69592643Y-69804143D01*
X69639141Y-69873732D01*
X69639144Y-69873736D01*
X69730586Y-69965178D01*
X69730608Y-69965198D01*
X69909762Y-70144352D01*
X69943247Y-70205675D01*
X69941856Y-70264126D01*
X69914938Y-70364586D01*
X69914936Y-70364596D01*
X69894341Y-70599999D01*
X69894341Y-70600000D01*
X69914936Y-70835403D01*
X69914938Y-70835413D01*
X69976094Y-71063655D01*
X69976096Y-71063659D01*
X69976097Y-71063663D01*
X70028883Y-71176863D01*
X70075965Y-71277830D01*
X70075967Y-71277834D01*
X70148892Y-71381981D01*
X70211505Y-71471401D01*
X70378599Y-71638495D01*
X70475384Y-71706265D01*
X70572165Y-71774032D01*
X70572167Y-71774033D01*
X70572170Y-71774035D01*
X70786337Y-71873903D01*
X71014592Y-71935063D01*
X71099276Y-71942472D01*
X71164344Y-71967925D01*
X71205323Y-72024516D01*
X71209201Y-72094278D01*
X71174747Y-72155062D01*
X71112900Y-72187569D01*
X71088468Y-72190000D01*
X36406588Y-72190000D01*
X36339549Y-72170315D01*
X36293794Y-72117511D01*
X36283850Y-72048353D01*
X36312875Y-71984797D01*
X36342435Y-71959884D01*
X36496863Y-71866530D01*
X36754036Y-71665048D01*
X36985048Y-71434036D01*
X37186530Y-71176863D01*
X37353902Y-70899997D01*
X44844751Y-70899997D01*
X44844751Y-70900002D01*
X44863685Y-71068056D01*
X44919545Y-71227694D01*
X44919547Y-71227697D01*
X45009518Y-71370884D01*
X45009523Y-71370890D01*
X45129109Y-71490476D01*
X45129115Y-71490481D01*
X45272302Y-71580452D01*
X45272305Y-71580454D01*
X45272309Y-71580455D01*
X45272310Y-71580456D01*
X45300000Y-71590145D01*
X45431943Y-71636314D01*
X45599997Y-71655249D01*
X45600000Y-71655249D01*
X45600003Y-71655249D01*
X45768056Y-71636314D01*
X45768059Y-71636313D01*
X45927690Y-71580456D01*
X45927692Y-71580454D01*
X45927694Y-71580454D01*
X45927697Y-71580452D01*
X46070884Y-71490481D01*
X46070885Y-71490480D01*
X46070890Y-71490477D01*
X46190477Y-71370890D01*
X46190481Y-71370884D01*
X46280452Y-71227697D01*
X46280454Y-71227694D01*
X46280454Y-71227692D01*
X46280456Y-71227690D01*
X46336313Y-71068059D01*
X46336313Y-71068058D01*
X46336314Y-71068056D01*
X46355249Y-70900002D01*
X46355249Y-70899997D01*
X46336314Y-70731943D01*
X46290145Y-70599999D01*
X46280456Y-70572310D01*
X46280455Y-70572309D01*
X46280454Y-70572305D01*
X46280452Y-70572302D01*
X46190481Y-70429115D01*
X46190476Y-70429109D01*
X46070890Y-70309523D01*
X46070884Y-70309518D01*
X45927697Y-70219547D01*
X45927694Y-70219545D01*
X45768056Y-70163685D01*
X45600003Y-70144751D01*
X45599997Y-70144751D01*
X45431943Y-70163685D01*
X45272305Y-70219545D01*
X45272302Y-70219547D01*
X45129115Y-70309518D01*
X45129109Y-70309523D01*
X45009523Y-70429109D01*
X45009518Y-70429115D01*
X44919547Y-70572302D01*
X44919545Y-70572305D01*
X44863685Y-70731943D01*
X44844751Y-70899997D01*
X37353902Y-70899997D01*
X37355545Y-70897279D01*
X37489627Y-70599361D01*
X37586821Y-70287453D01*
X37645710Y-69966104D01*
X37665436Y-69640000D01*
X37645710Y-69313896D01*
X37586821Y-68992547D01*
X37557982Y-68900000D01*
X37557981Y-68899997D01*
X40744751Y-68899997D01*
X40744751Y-68900002D01*
X40763685Y-69068056D01*
X40819545Y-69227694D01*
X40819547Y-69227697D01*
X40909518Y-69370884D01*
X40909523Y-69370890D01*
X41029109Y-69490476D01*
X41029115Y-69490481D01*
X41172302Y-69580452D01*
X41172305Y-69580454D01*
X41172309Y-69580455D01*
X41172310Y-69580456D01*
X41172336Y-69580465D01*
X41331943Y-69636314D01*
X41499997Y-69655249D01*
X41500000Y-69655249D01*
X41500003Y-69655249D01*
X41668056Y-69636314D01*
X41668059Y-69636313D01*
X41827690Y-69580456D01*
X41827692Y-69580454D01*
X41827694Y-69580454D01*
X41827697Y-69580452D01*
X41970884Y-69490481D01*
X41970885Y-69490480D01*
X41970890Y-69490477D01*
X42090477Y-69370890D01*
X42118622Y-69326098D01*
X42180452Y-69227697D01*
X42180454Y-69227694D01*
X42180454Y-69227692D01*
X42180456Y-69227690D01*
X42236313Y-69068059D01*
X42236313Y-69068058D01*
X42236314Y-69068056D01*
X42255249Y-68900002D01*
X42255249Y-68899997D01*
X42236314Y-68731943D01*
X42180454Y-68572305D01*
X42180452Y-68572302D01*
X42090481Y-68429115D01*
X42090476Y-68429109D01*
X41970890Y-68309523D01*
X41970884Y-68309518D01*
X41827697Y-68219547D01*
X41827694Y-68219545D01*
X41668056Y-68163685D01*
X41500003Y-68144751D01*
X41499997Y-68144751D01*
X41331943Y-68163685D01*
X41172305Y-68219545D01*
X41172302Y-68219547D01*
X41029115Y-68309518D01*
X41029109Y-68309523D01*
X40909523Y-68429109D01*
X40909518Y-68429115D01*
X40819547Y-68572302D01*
X40819545Y-68572305D01*
X40763685Y-68731943D01*
X40744751Y-68899997D01*
X37557981Y-68899997D01*
X37489633Y-68680657D01*
X37489631Y-68680652D01*
X37489627Y-68680639D01*
X37355545Y-68382721D01*
X37207265Y-68137436D01*
X55032223Y-68137436D01*
X55032223Y-68137437D01*
X55051040Y-68340519D01*
X55106855Y-68536684D01*
X55106860Y-68536697D01*
X55197765Y-68719258D01*
X55320675Y-68882018D01*
X55471396Y-69019417D01*
X55471398Y-69019419D01*
X55503246Y-69039138D01*
X55644801Y-69126785D01*
X55834982Y-69200461D01*
X56035462Y-69237937D01*
X56035464Y-69237937D01*
X56239412Y-69237937D01*
X56239414Y-69237937D01*
X56439894Y-69200461D01*
X56630075Y-69126785D01*
X56803479Y-69019418D01*
X56954202Y-68882016D01*
X57077111Y-68719258D01*
X57150282Y-68572310D01*
X57170576Y-68531555D01*
X57172419Y-68532472D01*
X57209386Y-68484329D01*
X57275143Y-68460713D01*
X57343230Y-68476398D01*
X57381432Y-68509769D01*
X57483237Y-68644581D01*
X57633958Y-68781980D01*
X57633960Y-68781982D01*
X57733141Y-68843392D01*
X57807363Y-68889348D01*
X57997544Y-68963024D01*
X58198024Y-69000500D01*
X58198026Y-69000500D01*
X58401974Y-69000500D01*
X58401976Y-69000500D01*
X58602456Y-68963024D01*
X58792637Y-68889348D01*
X58966041Y-68781981D01*
X59116764Y-68644579D01*
X59239673Y-68481821D01*
X59330582Y-68299250D01*
X59386397Y-68103083D01*
X59405215Y-67900000D01*
X59386397Y-67696917D01*
X59330582Y-67500750D01*
X59325466Y-67490476D01*
X59265917Y-67370884D01*
X59239673Y-67318179D01*
X59116764Y-67155421D01*
X59116762Y-67155418D01*
X58966041Y-67018019D01*
X58966039Y-67018017D01*
X58792642Y-66910655D01*
X58792635Y-66910651D01*
X58693886Y-66872396D01*
X58602456Y-66836976D01*
X58401976Y-66799500D01*
X58198024Y-66799500D01*
X57997544Y-66836976D01*
X57997541Y-66836976D01*
X57997541Y-66836977D01*
X57807364Y-66910651D01*
X57807357Y-66910655D01*
X57633960Y-67018017D01*
X57633958Y-67018019D01*
X57483237Y-67155418D01*
X57360327Y-67318178D01*
X57266862Y-67505882D01*
X57265029Y-67504969D01*
X57228000Y-67553145D01*
X57162230Y-67576727D01*
X57094151Y-67561007D01*
X57056005Y-67527667D01*
X56954200Y-67392855D01*
X56803479Y-67255456D01*
X56803477Y-67255454D01*
X56630080Y-67148092D01*
X56630073Y-67148088D01*
X56503998Y-67099247D01*
X56439894Y-67074413D01*
X56239414Y-67036937D01*
X56035462Y-67036937D01*
X55834982Y-67074413D01*
X55834979Y-67074413D01*
X55834979Y-67074414D01*
X55644802Y-67148088D01*
X55644795Y-67148092D01*
X55471398Y-67255454D01*
X55471396Y-67255456D01*
X55320675Y-67392855D01*
X55197765Y-67555615D01*
X55106860Y-67738176D01*
X55106855Y-67738189D01*
X55051040Y-67934354D01*
X55032223Y-68137436D01*
X37207265Y-68137436D01*
X37186530Y-68103137D01*
X37186528Y-68103134D01*
X37186526Y-68103131D01*
X36985045Y-67845960D01*
X36754039Y-67614954D01*
X36496868Y-67413473D01*
X36345201Y-67321787D01*
X36217279Y-67244455D01*
X35919361Y-67110373D01*
X35919354Y-67110370D01*
X35919342Y-67110366D01*
X35607452Y-67013178D01*
X35286099Y-66954289D01*
X34960000Y-66934564D01*
X34633900Y-66954289D01*
X34312547Y-67013178D01*
X34000657Y-67110366D01*
X34000641Y-67110372D01*
X34000639Y-67110373D01*
X33810933Y-67195752D01*
X33738323Y-67228432D01*
X33702721Y-67244455D01*
X33684523Y-67255456D01*
X33423131Y-67413473D01*
X33165960Y-67614954D01*
X32934954Y-67845960D01*
X32733473Y-68103132D01*
X32733470Y-68103137D01*
X32700810Y-68157164D01*
X32685115Y-68183126D01*
X32633587Y-68230314D01*
X32564727Y-68242152D01*
X32500399Y-68214883D01*
X32461025Y-68157164D01*
X32454998Y-68118976D01*
X32454998Y-65699997D01*
X39944751Y-65699997D01*
X39944751Y-65700002D01*
X39963686Y-65868058D01*
X39995523Y-65959047D01*
X39999084Y-66028826D01*
X39995523Y-66040953D01*
X39963686Y-66131941D01*
X39944751Y-66299997D01*
X39944751Y-66300002D01*
X39963686Y-66468058D01*
X39995523Y-66559047D01*
X39999084Y-66628826D01*
X39995523Y-66640953D01*
X39963686Y-66731941D01*
X39944751Y-66899997D01*
X39944751Y-66900002D01*
X39963685Y-67068056D01*
X40019545Y-67227694D01*
X40019547Y-67227697D01*
X40109518Y-67370884D01*
X40109523Y-67370890D01*
X40229109Y-67490476D01*
X40229115Y-67490481D01*
X40372302Y-67580452D01*
X40372305Y-67580454D01*
X40372309Y-67580455D01*
X40372310Y-67580456D01*
X40400000Y-67590145D01*
X40531943Y-67636314D01*
X40699997Y-67655249D01*
X40700000Y-67655249D01*
X40700003Y-67655249D01*
X40868059Y-67636313D01*
X40868060Y-67636313D01*
X40959045Y-67604476D01*
X41028824Y-67600914D01*
X41040955Y-67604476D01*
X41131939Y-67636313D01*
X41299997Y-67655249D01*
X41300000Y-67655249D01*
X41300003Y-67655249D01*
X41468056Y-67636314D01*
X41468059Y-67636313D01*
X41627690Y-67580456D01*
X41627692Y-67580454D01*
X41627694Y-67580454D01*
X41627697Y-67580452D01*
X41770884Y-67490481D01*
X41770885Y-67490480D01*
X41770890Y-67490477D01*
X41890477Y-67370890D01*
X41923598Y-67318179D01*
X41980452Y-67227697D01*
X41980454Y-67227694D01*
X41980454Y-67227692D01*
X41980456Y-67227690D01*
X42036313Y-67068059D01*
X42036313Y-67068058D01*
X42036314Y-67068056D01*
X42055249Y-66900002D01*
X42055249Y-66899997D01*
X42036313Y-66731940D01*
X42036313Y-66731939D01*
X42025137Y-66699999D01*
X43994785Y-66699999D01*
X43994785Y-66700000D01*
X44013602Y-66903082D01*
X44069417Y-67099247D01*
X44069422Y-67099260D01*
X44160327Y-67281821D01*
X44283237Y-67444581D01*
X44433958Y-67581980D01*
X44433960Y-67581982D01*
X44487212Y-67614954D01*
X44607363Y-67689348D01*
X44797544Y-67763024D01*
X44998024Y-67800500D01*
X44998026Y-67800500D01*
X45201974Y-67800500D01*
X45201976Y-67800500D01*
X45402456Y-67763024D01*
X45592637Y-67689348D01*
X45766041Y-67581981D01*
X45916764Y-67444579D01*
X46039673Y-67281821D01*
X46130582Y-67099250D01*
X46186397Y-66903083D01*
X46205215Y-66700000D01*
X46204332Y-66690476D01*
X46186397Y-66496917D01*
X46178185Y-66468056D01*
X46130582Y-66300750D01*
X46130207Y-66299997D01*
X46064510Y-66168059D01*
X46039673Y-66118179D01*
X45950430Y-66000002D01*
X45916762Y-65955418D01*
X45766041Y-65818019D01*
X45766039Y-65818017D01*
X45592642Y-65710655D01*
X45592635Y-65710651D01*
X45450068Y-65655421D01*
X45402456Y-65636976D01*
X45201976Y-65599500D01*
X44998024Y-65599500D01*
X44797544Y-65636976D01*
X44797541Y-65636976D01*
X44797541Y-65636977D01*
X44607364Y-65710651D01*
X44607357Y-65710655D01*
X44433960Y-65818017D01*
X44433958Y-65818019D01*
X44283237Y-65955418D01*
X44160327Y-66118178D01*
X44069422Y-66300739D01*
X44069417Y-66300752D01*
X44013602Y-66496917D01*
X43994785Y-66699999D01*
X42025137Y-66699999D01*
X42004476Y-66640955D01*
X42000914Y-66571176D01*
X42004476Y-66559045D01*
X42036313Y-66468060D01*
X42036313Y-66468059D01*
X42055249Y-66300002D01*
X42055249Y-66299997D01*
X42036313Y-66131940D01*
X42036313Y-66131939D01*
X42004476Y-66040955D01*
X42000914Y-65971176D01*
X42004476Y-65959045D01*
X42036313Y-65868060D01*
X42036313Y-65868059D01*
X42055249Y-65700002D01*
X42055249Y-65699997D01*
X42036314Y-65531943D01*
X41993871Y-65410648D01*
X41980456Y-65372310D01*
X41980455Y-65372309D01*
X41980454Y-65372305D01*
X41980452Y-65372302D01*
X41890481Y-65229115D01*
X41890476Y-65229109D01*
X41770890Y-65109523D01*
X41770884Y-65109518D01*
X41627697Y-65019547D01*
X41627694Y-65019545D01*
X41468056Y-64963685D01*
X41300003Y-64944751D01*
X41299997Y-64944751D01*
X41131941Y-64963686D01*
X41040953Y-64995523D01*
X40971174Y-64999084D01*
X40959047Y-64995523D01*
X40868058Y-64963686D01*
X40700003Y-64944751D01*
X40699997Y-64944751D01*
X40531943Y-64963685D01*
X40372305Y-65019545D01*
X40372302Y-65019547D01*
X40229115Y-65109518D01*
X40229109Y-65109523D01*
X40109523Y-65229109D01*
X40109518Y-65229115D01*
X40019547Y-65372302D01*
X40019545Y-65372305D01*
X39963685Y-65531943D01*
X39944751Y-65699997D01*
X32454998Y-65699997D01*
X32454998Y-63499997D01*
X49044751Y-63499997D01*
X49044751Y-63500002D01*
X49063685Y-63668056D01*
X49119545Y-63827694D01*
X49119547Y-63827697D01*
X49209518Y-63970884D01*
X49209523Y-63970890D01*
X49329109Y-64090476D01*
X49329115Y-64090481D01*
X49472302Y-64180452D01*
X49472305Y-64180454D01*
X49472309Y-64180455D01*
X49472310Y-64180456D01*
X49519353Y-64196917D01*
X49631943Y-64236314D01*
X49799997Y-64255249D01*
X49800000Y-64255249D01*
X49800003Y-64255249D01*
X49968056Y-64236314D01*
X49968059Y-64236313D01*
X50127690Y-64180456D01*
X50127692Y-64180454D01*
X50127694Y-64180454D01*
X50127697Y-64180452D01*
X50189819Y-64141418D01*
X57144751Y-64141418D01*
X57144751Y-64141423D01*
X57163685Y-64309477D01*
X57219545Y-64469115D01*
X57219547Y-64469118D01*
X57309518Y-64612305D01*
X57309523Y-64612311D01*
X57429109Y-64731897D01*
X57429115Y-64731902D01*
X57572302Y-64821873D01*
X57572305Y-64821875D01*
X57572309Y-64821876D01*
X57572310Y-64821877D01*
X57644913Y-64847281D01*
X57731943Y-64877735D01*
X57899997Y-64896670D01*
X57900000Y-64896670D01*
X57900003Y-64896670D01*
X58068056Y-64877735D01*
X58091945Y-64869376D01*
X58227690Y-64821877D01*
X58227692Y-64821875D01*
X58227694Y-64821875D01*
X58227697Y-64821873D01*
X58370884Y-64731902D01*
X58370885Y-64731901D01*
X58370890Y-64731898D01*
X58490477Y-64612311D01*
X58494529Y-64605862D01*
X58580452Y-64469118D01*
X58580454Y-64469115D01*
X58580454Y-64469113D01*
X58580456Y-64469111D01*
X58636313Y-64309480D01*
X58636313Y-64309479D01*
X58636314Y-64309477D01*
X58655249Y-64141423D01*
X58655249Y-64141418D01*
X58640780Y-64013006D01*
X58652834Y-63944184D01*
X58700183Y-63892805D01*
X58723048Y-63882080D01*
X58727690Y-63880456D01*
X58727695Y-63880453D01*
X58727697Y-63880452D01*
X58870884Y-63790481D01*
X58870885Y-63790480D01*
X58870890Y-63790477D01*
X58990477Y-63670890D01*
X58990481Y-63670884D01*
X59080452Y-63527697D01*
X59080454Y-63527694D01*
X59080454Y-63527692D01*
X59080456Y-63527690D01*
X59136313Y-63368059D01*
X59136313Y-63368058D01*
X59136314Y-63368056D01*
X59155249Y-63200002D01*
X59155249Y-63199997D01*
X59136314Y-63031943D01*
X59093477Y-62909523D01*
X59080456Y-62872310D01*
X59080455Y-62872309D01*
X59080454Y-62872305D01*
X59080452Y-62872302D01*
X58990481Y-62729115D01*
X58990476Y-62729109D01*
X58870890Y-62609523D01*
X58870884Y-62609518D01*
X58727697Y-62519547D01*
X58727694Y-62519545D01*
X58568056Y-62463685D01*
X58400003Y-62444751D01*
X58399997Y-62444751D01*
X58231943Y-62463685D01*
X58072305Y-62519545D01*
X58072302Y-62519547D01*
X57929115Y-62609518D01*
X57929109Y-62609523D01*
X57809523Y-62729109D01*
X57809518Y-62729115D01*
X57719547Y-62872302D01*
X57719545Y-62872305D01*
X57663685Y-63031943D01*
X57644751Y-63199997D01*
X57644751Y-63200003D01*
X57659219Y-63328415D01*
X57647164Y-63397237D01*
X57599815Y-63448616D01*
X57576963Y-63459336D01*
X57572314Y-63460963D01*
X57572300Y-63460969D01*
X57429115Y-63550939D01*
X57429109Y-63550944D01*
X57309523Y-63670530D01*
X57309518Y-63670536D01*
X57219547Y-63813723D01*
X57219545Y-63813726D01*
X57163685Y-63973364D01*
X57144751Y-64141418D01*
X50189819Y-64141418D01*
X50270884Y-64090481D01*
X50270885Y-64090480D01*
X50270890Y-64090477D01*
X50390477Y-63970890D01*
X50407258Y-63944184D01*
X50480452Y-63827697D01*
X50480454Y-63827694D01*
X50480454Y-63827692D01*
X50480456Y-63827690D01*
X50536313Y-63668059D01*
X50536313Y-63668058D01*
X50536314Y-63668056D01*
X50556029Y-63493080D01*
X50558339Y-63493340D01*
X50574934Y-63436826D01*
X50627738Y-63391071D01*
X50693132Y-63380645D01*
X50729535Y-63384747D01*
X50729538Y-63384747D01*
X50897591Y-63365812D01*
X50903575Y-63363718D01*
X51057225Y-63309954D01*
X51057227Y-63309952D01*
X51057229Y-63309952D01*
X51057232Y-63309950D01*
X51200419Y-63219979D01*
X51200420Y-63219978D01*
X51200425Y-63219975D01*
X51320012Y-63100388D01*
X51326649Y-63089825D01*
X51409987Y-62957195D01*
X51409989Y-62957192D01*
X51409989Y-62957190D01*
X51409991Y-62957188D01*
X51465848Y-62797557D01*
X51465848Y-62797556D01*
X51465849Y-62797554D01*
X51484784Y-62629500D01*
X51484784Y-62629495D01*
X51465849Y-62461441D01*
X51409989Y-62301803D01*
X51409987Y-62301800D01*
X51320016Y-62158613D01*
X51320011Y-62158607D01*
X51200425Y-62039021D01*
X51200419Y-62039016D01*
X51057232Y-61949045D01*
X51057229Y-61949043D01*
X50897591Y-61893183D01*
X50729538Y-61874249D01*
X50729532Y-61874249D01*
X50561478Y-61893183D01*
X50401840Y-61949043D01*
X50401837Y-61949045D01*
X50258650Y-62039016D01*
X50258644Y-62039021D01*
X50139058Y-62158607D01*
X50139053Y-62158613D01*
X50049082Y-62301800D01*
X50049080Y-62301803D01*
X49993220Y-62461441D01*
X49973506Y-62636418D01*
X49971195Y-62636157D01*
X49954601Y-62692671D01*
X49901797Y-62738426D01*
X49836403Y-62748852D01*
X49800004Y-62744751D01*
X49799997Y-62744751D01*
X49631943Y-62763685D01*
X49472305Y-62819545D01*
X49472302Y-62819547D01*
X49329115Y-62909518D01*
X49329109Y-62909523D01*
X49209523Y-63029109D01*
X49209518Y-63029115D01*
X49119547Y-63172302D01*
X49119545Y-63172305D01*
X49063685Y-63331943D01*
X49044751Y-63499997D01*
X32454998Y-63499997D01*
X32454998Y-61499997D01*
X40644751Y-61499997D01*
X40644751Y-61500002D01*
X40663685Y-61668056D01*
X40719545Y-61827694D01*
X40719547Y-61827697D01*
X40809518Y-61970884D01*
X40809523Y-61970890D01*
X40929109Y-62090476D01*
X40929115Y-62090481D01*
X41072302Y-62180452D01*
X41072305Y-62180454D01*
X41072309Y-62180455D01*
X41072310Y-62180456D01*
X41119353Y-62196917D01*
X41231943Y-62236314D01*
X41399997Y-62255249D01*
X41400000Y-62255249D01*
X41400003Y-62255249D01*
X41568056Y-62236314D01*
X41603196Y-62224018D01*
X41727690Y-62180456D01*
X41727692Y-62180454D01*
X41727694Y-62180454D01*
X41727697Y-62180452D01*
X41870884Y-62090481D01*
X41870885Y-62090480D01*
X41870890Y-62090477D01*
X41990477Y-61970890D01*
X42004203Y-61949045D01*
X42080452Y-61827697D01*
X42080454Y-61827694D01*
X42080454Y-61827692D01*
X42080456Y-61827690D01*
X42086210Y-61811247D01*
X44533501Y-61811247D01*
X44533501Y-61811252D01*
X44552435Y-61979306D01*
X44608295Y-62138944D01*
X44608297Y-62138947D01*
X44698268Y-62282134D01*
X44698273Y-62282140D01*
X44817859Y-62401726D01*
X44817865Y-62401731D01*
X44961052Y-62491702D01*
X44961055Y-62491704D01*
X44961059Y-62491705D01*
X44961060Y-62491706D01*
X45033663Y-62517110D01*
X45120693Y-62547564D01*
X45288747Y-62566499D01*
X45288750Y-62566499D01*
X45288753Y-62566499D01*
X45456806Y-62547564D01*
X45456809Y-62547563D01*
X45616440Y-62491706D01*
X45616442Y-62491704D01*
X45616444Y-62491704D01*
X45616447Y-62491702D01*
X45759634Y-62401731D01*
X45759635Y-62401730D01*
X45759640Y-62401727D01*
X45879227Y-62282140D01*
X45896219Y-62255098D01*
X45969202Y-62138947D01*
X45969204Y-62138944D01*
X45969204Y-62138942D01*
X45969206Y-62138940D01*
X46025063Y-61979309D01*
X46025063Y-61979308D01*
X46025064Y-61979306D01*
X46043999Y-61811252D01*
X46043999Y-61811247D01*
X46025064Y-61643193D01*
X45992580Y-61550360D01*
X45969206Y-61483560D01*
X45969205Y-61483559D01*
X45969204Y-61483555D01*
X45969202Y-61483552D01*
X45879231Y-61340365D01*
X45879226Y-61340359D01*
X45759640Y-61220773D01*
X45759634Y-61220768D01*
X45616447Y-61130797D01*
X45616444Y-61130795D01*
X45456806Y-61074935D01*
X45288753Y-61056001D01*
X45288747Y-61056001D01*
X45120693Y-61074935D01*
X44961055Y-61130795D01*
X44961052Y-61130797D01*
X44817865Y-61220768D01*
X44817859Y-61220773D01*
X44698273Y-61340359D01*
X44698268Y-61340365D01*
X44608297Y-61483552D01*
X44608295Y-61483555D01*
X44552435Y-61643193D01*
X44533501Y-61811247D01*
X42086210Y-61811247D01*
X42136313Y-61668059D01*
X42136313Y-61668058D01*
X42136314Y-61668056D01*
X42155249Y-61500002D01*
X42155249Y-61499997D01*
X42136314Y-61331943D01*
X42097302Y-61220454D01*
X42080456Y-61172310D01*
X42080455Y-61172309D01*
X42080454Y-61172305D01*
X42080452Y-61172302D01*
X41990481Y-61029115D01*
X41990476Y-61029109D01*
X41870890Y-60909523D01*
X41870884Y-60909518D01*
X41727697Y-60819547D01*
X41727694Y-60819545D01*
X41568056Y-60763685D01*
X41400003Y-60744751D01*
X41399997Y-60744751D01*
X41231943Y-60763685D01*
X41072305Y-60819545D01*
X41072302Y-60819547D01*
X40929115Y-60909518D01*
X40929109Y-60909523D01*
X40809523Y-61029109D01*
X40809518Y-61029115D01*
X40719547Y-61172302D01*
X40719545Y-61172305D01*
X40663685Y-61331943D01*
X40644751Y-61499997D01*
X32454998Y-61499997D01*
X32454998Y-59843499D01*
X36281285Y-59843499D01*
X36281285Y-59843500D01*
X36300102Y-60046582D01*
X36355917Y-60242747D01*
X36355922Y-60242760D01*
X36446827Y-60425321D01*
X36569737Y-60588081D01*
X36720458Y-60725480D01*
X36720460Y-60725482D01*
X36790714Y-60768981D01*
X36893863Y-60832848D01*
X37084044Y-60906524D01*
X37284524Y-60944000D01*
X37284526Y-60944000D01*
X37488474Y-60944000D01*
X37488476Y-60944000D01*
X37688956Y-60906524D01*
X37879137Y-60832848D01*
X38052541Y-60725481D01*
X38162767Y-60624997D01*
X49144751Y-60624997D01*
X49144751Y-60625002D01*
X49163685Y-60793056D01*
X49219545Y-60952694D01*
X49219547Y-60952697D01*
X49309518Y-61095884D01*
X49309523Y-61095890D01*
X49429109Y-61215476D01*
X49429115Y-61215481D01*
X49572302Y-61305452D01*
X49572305Y-61305454D01*
X49572309Y-61305455D01*
X49572310Y-61305456D01*
X49644913Y-61330860D01*
X49731943Y-61361314D01*
X49899997Y-61380249D01*
X49900000Y-61380249D01*
X49900003Y-61380249D01*
X50068056Y-61361314D01*
X50068059Y-61361313D01*
X50227690Y-61305456D01*
X50227692Y-61305454D01*
X50227694Y-61305454D01*
X50227697Y-61305452D01*
X50370884Y-61215481D01*
X50370885Y-61215480D01*
X50370890Y-61215477D01*
X50490477Y-61095890D01*
X50572216Y-60965802D01*
X50624548Y-60919514D01*
X50693602Y-60908865D01*
X50757450Y-60937240D01*
X50782201Y-60965804D01*
X50848230Y-61070888D01*
X50967818Y-61190476D01*
X50967824Y-61190481D01*
X51111011Y-61280452D01*
X51111014Y-61280454D01*
X51111018Y-61280455D01*
X51111019Y-61280456D01*
X51153295Y-61295249D01*
X51270652Y-61336314D01*
X51438706Y-61355249D01*
X51438709Y-61355249D01*
X51438712Y-61355249D01*
X51606765Y-61336314D01*
X51619257Y-61331943D01*
X51766399Y-61280456D01*
X51766401Y-61280454D01*
X51766403Y-61280454D01*
X51766406Y-61280452D01*
X51909593Y-61190481D01*
X51909594Y-61190480D01*
X51909599Y-61190477D01*
X52029186Y-61070890D01*
X52034026Y-61063188D01*
X52119161Y-60927697D01*
X52119163Y-60927694D01*
X52119163Y-60927692D01*
X52119165Y-60927690D01*
X52175022Y-60768059D01*
X52175022Y-60768058D01*
X52175023Y-60768056D01*
X52193564Y-60603497D01*
X57315751Y-60603497D01*
X57315751Y-60603502D01*
X57334685Y-60771556D01*
X57390545Y-60931194D01*
X57390547Y-60931197D01*
X57480518Y-61074384D01*
X57480523Y-61074390D01*
X57600109Y-61193976D01*
X57600115Y-61193981D01*
X57743302Y-61283952D01*
X57743305Y-61283954D01*
X57743309Y-61283955D01*
X57743310Y-61283956D01*
X57804742Y-61305452D01*
X57902943Y-61339814D01*
X58070997Y-61358749D01*
X58071000Y-61358749D01*
X58071003Y-61358749D01*
X58239056Y-61339814D01*
X58247167Y-61336976D01*
X58398690Y-61283956D01*
X58398692Y-61283954D01*
X58398694Y-61283954D01*
X58398697Y-61283952D01*
X58541884Y-61193981D01*
X58541885Y-61193980D01*
X58541890Y-61193977D01*
X58661477Y-61074390D01*
X58663676Y-61070890D01*
X58751452Y-60931197D01*
X58751454Y-60931194D01*
X58751454Y-60931192D01*
X58751456Y-60931190D01*
X58807313Y-60771559D01*
X58807313Y-60771558D01*
X58807314Y-60771556D01*
X58826249Y-60603502D01*
X58826249Y-60603497D01*
X58807314Y-60435443D01*
X58765916Y-60317134D01*
X58751456Y-60275810D01*
X58751455Y-60275809D01*
X58751454Y-60275805D01*
X58751452Y-60275802D01*
X58661481Y-60132615D01*
X58661476Y-60132609D01*
X58541890Y-60013023D01*
X58541884Y-60013018D01*
X58398697Y-59923047D01*
X58398694Y-59923045D01*
X58239056Y-59867185D01*
X58071003Y-59848251D01*
X58070997Y-59848251D01*
X57902943Y-59867185D01*
X57743305Y-59923045D01*
X57743302Y-59923047D01*
X57600115Y-60013018D01*
X57600109Y-60013023D01*
X57480523Y-60132609D01*
X57480518Y-60132615D01*
X57390547Y-60275802D01*
X57390545Y-60275805D01*
X57334685Y-60435443D01*
X57315751Y-60603497D01*
X52193564Y-60603497D01*
X52193958Y-60600002D01*
X52193958Y-60599997D01*
X52175023Y-60431943D01*
X52134852Y-60317140D01*
X52119165Y-60272310D01*
X52119164Y-60272309D01*
X52119163Y-60272305D01*
X52119161Y-60272302D01*
X52029190Y-60129115D01*
X52029185Y-60129109D01*
X51909599Y-60009523D01*
X51909593Y-60009518D01*
X51766406Y-59919547D01*
X51766403Y-59919545D01*
X51606765Y-59863685D01*
X51438712Y-59844751D01*
X51438706Y-59844751D01*
X51270652Y-59863685D01*
X51111014Y-59919545D01*
X51111011Y-59919547D01*
X50967824Y-60009518D01*
X50967818Y-60009523D01*
X50848230Y-60129111D01*
X50766493Y-60259195D01*
X50714159Y-60305485D01*
X50645105Y-60316133D01*
X50581257Y-60287758D01*
X50556506Y-60259194D01*
X50536247Y-60226952D01*
X50490477Y-60154110D01*
X50370890Y-60034523D01*
X50370884Y-60034518D01*
X50227697Y-59944547D01*
X50227694Y-59944545D01*
X50068056Y-59888685D01*
X49900003Y-59869751D01*
X49899997Y-59869751D01*
X49731943Y-59888685D01*
X49572305Y-59944545D01*
X49572302Y-59944547D01*
X49429115Y-60034518D01*
X49429109Y-60034523D01*
X49309523Y-60154109D01*
X49309518Y-60154115D01*
X49219547Y-60297302D01*
X49219545Y-60297305D01*
X49163685Y-60456943D01*
X49144751Y-60624997D01*
X38162767Y-60624997D01*
X38203264Y-60588079D01*
X38326173Y-60425321D01*
X38417082Y-60242750D01*
X38472897Y-60046583D01*
X38491715Y-59843500D01*
X38478478Y-59700652D01*
X38472897Y-59640417D01*
X38462103Y-59602482D01*
X38417082Y-59444250D01*
X38416380Y-59442841D01*
X38369776Y-59349247D01*
X38326173Y-59261679D01*
X38248669Y-59159047D01*
X38203262Y-59098918D01*
X38052541Y-58961519D01*
X38052539Y-58961517D01*
X37879142Y-58854155D01*
X37879135Y-58854151D01*
X37752252Y-58804997D01*
X37688956Y-58780476D01*
X37488476Y-58743000D01*
X37284524Y-58743000D01*
X37084044Y-58780476D01*
X37084041Y-58780476D01*
X37084041Y-58780477D01*
X36893864Y-58854151D01*
X36893857Y-58854155D01*
X36720460Y-58961517D01*
X36720458Y-58961519D01*
X36569737Y-59098918D01*
X36446827Y-59261678D01*
X36355922Y-59444239D01*
X36355917Y-59444252D01*
X36300102Y-59640417D01*
X36281285Y-59843499D01*
X32454998Y-59843499D01*
X32454998Y-58299997D01*
X40044751Y-58299997D01*
X40044751Y-58300002D01*
X40063686Y-58468058D01*
X40095523Y-58559047D01*
X40099084Y-58628826D01*
X40095523Y-58640953D01*
X40063686Y-58731941D01*
X40044751Y-58899997D01*
X40044751Y-58900002D01*
X40063686Y-59068058D01*
X40095523Y-59159047D01*
X40099084Y-59228826D01*
X40095523Y-59240953D01*
X40063686Y-59331941D01*
X40044751Y-59499997D01*
X40044751Y-59500002D01*
X40063685Y-59668056D01*
X40119545Y-59827694D01*
X40119547Y-59827697D01*
X40209518Y-59970884D01*
X40209523Y-59970890D01*
X40329109Y-60090476D01*
X40329115Y-60090481D01*
X40472302Y-60180452D01*
X40472305Y-60180454D01*
X40472309Y-60180455D01*
X40472310Y-60180456D01*
X40500000Y-60190145D01*
X40631943Y-60236314D01*
X40799997Y-60255249D01*
X40800000Y-60255249D01*
X40800003Y-60255249D01*
X40968059Y-60236313D01*
X40968060Y-60236313D01*
X41059045Y-60204476D01*
X41128824Y-60200914D01*
X41140955Y-60204476D01*
X41231939Y-60236313D01*
X41399997Y-60255249D01*
X41400000Y-60255249D01*
X41400003Y-60255249D01*
X41568056Y-60236314D01*
X41594811Y-60226952D01*
X41727690Y-60180456D01*
X41727692Y-60180454D01*
X41727694Y-60180454D01*
X41727697Y-60180452D01*
X41870884Y-60090481D01*
X41870885Y-60090480D01*
X41870890Y-60090477D01*
X41990477Y-59970890D01*
X42000311Y-59955239D01*
X42080452Y-59827697D01*
X42080454Y-59827694D01*
X42080454Y-59827692D01*
X42080456Y-59827690D01*
X42136313Y-59668059D01*
X42136313Y-59668058D01*
X42136314Y-59668056D01*
X42155249Y-59500002D01*
X42155249Y-59499997D01*
X42136313Y-59331940D01*
X42136313Y-59331939D01*
X42104476Y-59240955D01*
X42100914Y-59171176D01*
X42104476Y-59159045D01*
X42136313Y-59068060D01*
X42136313Y-59068059D01*
X42155249Y-58900002D01*
X42155249Y-58899997D01*
X42154122Y-58889997D01*
X44494751Y-58889997D01*
X44494751Y-58890002D01*
X44513685Y-59058056D01*
X44569545Y-59217694D01*
X44569547Y-59217697D01*
X44659518Y-59360884D01*
X44659523Y-59360890D01*
X44779109Y-59480476D01*
X44779115Y-59480481D01*
X44922302Y-59570452D01*
X44922305Y-59570454D01*
X44922309Y-59570455D01*
X44922310Y-59570456D01*
X44953072Y-59581220D01*
X45081943Y-59626314D01*
X45249997Y-59645249D01*
X45250000Y-59645249D01*
X45250003Y-59645249D01*
X45418056Y-59626314D01*
X45418059Y-59626313D01*
X45577690Y-59570456D01*
X45577692Y-59570454D01*
X45577694Y-59570454D01*
X45577697Y-59570452D01*
X45720884Y-59480481D01*
X45720885Y-59480480D01*
X45720890Y-59480477D01*
X45840477Y-59360890D01*
X45885335Y-59289500D01*
X45930452Y-59217697D01*
X45930454Y-59217694D01*
X45930454Y-59217692D01*
X45930456Y-59217690D01*
X45986313Y-59058059D01*
X45986313Y-59058058D01*
X45986314Y-59058056D01*
X46005249Y-58890002D01*
X46005249Y-58889997D01*
X45986314Y-58721943D01*
X45956065Y-58635496D01*
X50961923Y-58635496D01*
X50961923Y-58635501D01*
X50980857Y-58803555D01*
X51036717Y-58963193D01*
X51036719Y-58963196D01*
X51126690Y-59106383D01*
X51126695Y-59106389D01*
X51246281Y-59225975D01*
X51246287Y-59225980D01*
X51389474Y-59315951D01*
X51389477Y-59315953D01*
X51389481Y-59315954D01*
X51389482Y-59315955D01*
X51462085Y-59341359D01*
X51549115Y-59371813D01*
X51717169Y-59390748D01*
X51717172Y-59390748D01*
X51717175Y-59390748D01*
X51885228Y-59371813D01*
X51916444Y-59360890D01*
X52044862Y-59315955D01*
X52044864Y-59315953D01*
X52044866Y-59315953D01*
X52044869Y-59315951D01*
X52188056Y-59225980D01*
X52188057Y-59225979D01*
X52188062Y-59225976D01*
X52307649Y-59106389D01*
X52307653Y-59106383D01*
X52397624Y-58963196D01*
X52397626Y-58963193D01*
X52397626Y-58963191D01*
X52397628Y-58963189D01*
X52453485Y-58803558D01*
X52453485Y-58803557D01*
X52453486Y-58803555D01*
X52468365Y-58671497D01*
X57315751Y-58671497D01*
X57315751Y-58671502D01*
X57334685Y-58839556D01*
X57390545Y-58999194D01*
X57390547Y-58999197D01*
X57480518Y-59142384D01*
X57480523Y-59142390D01*
X57600109Y-59261976D01*
X57600115Y-59261981D01*
X57743302Y-59351952D01*
X57743305Y-59351954D01*
X57743309Y-59351955D01*
X57743310Y-59351956D01*
X57810187Y-59375357D01*
X57902943Y-59407814D01*
X58070997Y-59426749D01*
X58071000Y-59426749D01*
X58071003Y-59426749D01*
X58239056Y-59407814D01*
X58287828Y-59390748D01*
X58398690Y-59351956D01*
X58398692Y-59351954D01*
X58398694Y-59351954D01*
X58398697Y-59351952D01*
X58541884Y-59261981D01*
X58541885Y-59261980D01*
X58541890Y-59261977D01*
X58661477Y-59142390D01*
X58705056Y-59073033D01*
X58757389Y-59026744D01*
X58826443Y-59016095D01*
X58890291Y-59044470D01*
X58928663Y-59102860D01*
X58933269Y-59152890D01*
X58919536Y-59274780D01*
X58919536Y-59274787D01*
X58938470Y-59442841D01*
X58994330Y-59602479D01*
X58994332Y-59602482D01*
X59084303Y-59745669D01*
X59084308Y-59745675D01*
X59203894Y-59865261D01*
X59203900Y-59865266D01*
X59347087Y-59955237D01*
X59347090Y-59955239D01*
X59347094Y-59955240D01*
X59347095Y-59955241D01*
X59391818Y-59970890D01*
X59506728Y-60011099D01*
X59674782Y-60030034D01*
X59674785Y-60030034D01*
X59674788Y-60030034D01*
X59842841Y-60011099D01*
X59844716Y-60010443D01*
X60002475Y-59955241D01*
X60002477Y-59955239D01*
X60002479Y-59955239D01*
X60002482Y-59955237D01*
X60145669Y-59865266D01*
X60145670Y-59865265D01*
X60145675Y-59865262D01*
X60265262Y-59745675D01*
X60265266Y-59745669D01*
X60355237Y-59602482D01*
X60355239Y-59602479D01*
X60355239Y-59602477D01*
X60355241Y-59602475D01*
X60411098Y-59442844D01*
X60411098Y-59442843D01*
X60411099Y-59442841D01*
X60430034Y-59274790D01*
X60430034Y-59268299D01*
X60449719Y-59201260D01*
X60502523Y-59155505D01*
X60531804Y-59147392D01*
X60531674Y-59146819D01*
X60538459Y-59145270D01*
X60538461Y-59145269D01*
X60538463Y-59145269D01*
X60667844Y-59099997D01*
X63382251Y-59099997D01*
X63382251Y-59100002D01*
X63401185Y-59268056D01*
X63457045Y-59427694D01*
X63457047Y-59427697D01*
X63547018Y-59570884D01*
X63547023Y-59570890D01*
X63666609Y-59690476D01*
X63666615Y-59690481D01*
X63809802Y-59780452D01*
X63809805Y-59780454D01*
X63809809Y-59780455D01*
X63809810Y-59780456D01*
X63882413Y-59805860D01*
X63969443Y-59836314D01*
X64137497Y-59855249D01*
X64137500Y-59855249D01*
X64137503Y-59855249D01*
X64305556Y-59836314D01*
X64330182Y-59827697D01*
X64465190Y-59780456D01*
X64465192Y-59780454D01*
X64465194Y-59780454D01*
X64465197Y-59780452D01*
X64608384Y-59690481D01*
X64608385Y-59690480D01*
X64608390Y-59690477D01*
X64727977Y-59570890D01*
X64728252Y-59570452D01*
X64817952Y-59427697D01*
X64817954Y-59427694D01*
X64817954Y-59427692D01*
X64817956Y-59427690D01*
X64873813Y-59268059D01*
X64873813Y-59268058D01*
X64873814Y-59268056D01*
X64892749Y-59100002D01*
X64892749Y-59099997D01*
X64873814Y-58931943D01*
X64830508Y-58808182D01*
X64817956Y-58772310D01*
X64817955Y-58772309D01*
X64817954Y-58772305D01*
X64817952Y-58772302D01*
X64772521Y-58700000D01*
X65144901Y-58700000D01*
X65163252Y-58886331D01*
X65163253Y-58886333D01*
X65217604Y-59065502D01*
X65305862Y-59230623D01*
X65305864Y-59230626D01*
X65424642Y-59375357D01*
X65569373Y-59494135D01*
X65569376Y-59494137D01*
X65732289Y-59581215D01*
X65734499Y-59582396D01*
X65881459Y-59626976D01*
X65913666Y-59636746D01*
X65913668Y-59636747D01*
X65930374Y-59638392D01*
X66100000Y-59655099D01*
X66286331Y-59636747D01*
X66465501Y-59582396D01*
X66630625Y-59494136D01*
X66775357Y-59375357D01*
X66894136Y-59230625D01*
X66982396Y-59065501D01*
X67036747Y-58886331D01*
X67055099Y-58700000D01*
X67055099Y-58699999D01*
X67055099Y-58698392D01*
X67055337Y-58697580D01*
X67055696Y-58693938D01*
X67056386Y-58694006D01*
X67074784Y-58631353D01*
X67127588Y-58585598D01*
X67196746Y-58575654D01*
X67257764Y-58602539D01*
X67369373Y-58694135D01*
X67369376Y-58694137D01*
X67468122Y-58746917D01*
X67534499Y-58782396D01*
X67678139Y-58825969D01*
X67713666Y-58836746D01*
X67713668Y-58836747D01*
X67730374Y-58838392D01*
X67900000Y-58855099D01*
X68086331Y-58836747D01*
X68265501Y-58782396D01*
X68430625Y-58694136D01*
X68575357Y-58575357D01*
X68694136Y-58430625D01*
X68782396Y-58265501D01*
X68836747Y-58086331D01*
X68855099Y-57900000D01*
X68836747Y-57713669D01*
X68782396Y-57534499D01*
X68748397Y-57470890D01*
X68694137Y-57369376D01*
X68694135Y-57369373D01*
X68575357Y-57224642D01*
X68430626Y-57105864D01*
X68430623Y-57105862D01*
X68265502Y-57017604D01*
X68086333Y-56963253D01*
X68086331Y-56963252D01*
X67900000Y-56944901D01*
X67899998Y-56944901D01*
X67891423Y-56945745D01*
X67822777Y-56932721D01*
X67772070Y-56884653D01*
X67755401Y-56816801D01*
X67778061Y-56750708D01*
X67783409Y-56743694D01*
X67794136Y-56730625D01*
X67882396Y-56565501D01*
X67936747Y-56386331D01*
X67955099Y-56200000D01*
X67936747Y-56013669D01*
X67882396Y-55834499D01*
X67854239Y-55781821D01*
X67794137Y-55669376D01*
X67794135Y-55669373D01*
X67675357Y-55524642D01*
X67530626Y-55405864D01*
X67530623Y-55405862D01*
X67365502Y-55317604D01*
X67186333Y-55263253D01*
X67186331Y-55263252D01*
X67000000Y-55244901D01*
X66813668Y-55263252D01*
X66813666Y-55263253D01*
X66634497Y-55317604D01*
X66469376Y-55405862D01*
X66469373Y-55405864D01*
X66324642Y-55524642D01*
X66205864Y-55669373D01*
X66205862Y-55669376D01*
X66117604Y-55834497D01*
X66063253Y-56013666D01*
X66063252Y-56013668D01*
X66044901Y-56200000D01*
X66063252Y-56386331D01*
X66063253Y-56386333D01*
X66117604Y-56565502D01*
X66205862Y-56730623D01*
X66205864Y-56730626D01*
X66324642Y-56875357D01*
X66469373Y-56994135D01*
X66469376Y-56994137D01*
X66592445Y-57059918D01*
X66634499Y-57082396D01*
X66813666Y-57136746D01*
X66813668Y-57136747D01*
X66832020Y-57138554D01*
X67000000Y-57155099D01*
X67008567Y-57154255D01*
X67077213Y-57167274D01*
X67127924Y-57215338D01*
X67144599Y-57283189D01*
X67121943Y-57349284D01*
X67116575Y-57356323D01*
X67105865Y-57369373D01*
X67105862Y-57369376D01*
X67017604Y-57534497D01*
X66963253Y-57713666D01*
X66963252Y-57713668D01*
X66944901Y-57900000D01*
X66944901Y-57901607D01*
X66944662Y-57902417D01*
X66944304Y-57906062D01*
X66943612Y-57905993D01*
X66925216Y-57968646D01*
X66872412Y-58014401D01*
X66803254Y-58024345D01*
X66742236Y-57997460D01*
X66630626Y-57905865D01*
X66630623Y-57905862D01*
X66465502Y-57817604D01*
X66286333Y-57763253D01*
X66286331Y-57763252D01*
X66100000Y-57744901D01*
X65913668Y-57763252D01*
X65913666Y-57763253D01*
X65734497Y-57817604D01*
X65569376Y-57905862D01*
X65569373Y-57905864D01*
X65424642Y-58024642D01*
X65305864Y-58169373D01*
X65305862Y-58169376D01*
X65217604Y-58334497D01*
X65163253Y-58513666D01*
X65163252Y-58513668D01*
X65144901Y-58700000D01*
X64772521Y-58700000D01*
X64727981Y-58629115D01*
X64727976Y-58629109D01*
X64608390Y-58509523D01*
X64608384Y-58509518D01*
X64465197Y-58419547D01*
X64465194Y-58419545D01*
X64305556Y-58363685D01*
X64137503Y-58344751D01*
X64137497Y-58344751D01*
X63969443Y-58363685D01*
X63809805Y-58419545D01*
X63809802Y-58419547D01*
X63666615Y-58509518D01*
X63666609Y-58509523D01*
X63547023Y-58629109D01*
X63547018Y-58629115D01*
X63457047Y-58772302D01*
X63457045Y-58772305D01*
X63401185Y-58931943D01*
X63382251Y-59099997D01*
X60667844Y-59099997D01*
X60698094Y-59089412D01*
X60698097Y-59089409D01*
X60698101Y-59089408D01*
X60841288Y-58999437D01*
X60841289Y-58999436D01*
X60841294Y-58999433D01*
X60960881Y-58879846D01*
X60969553Y-58866045D01*
X61050856Y-58736653D01*
X61050858Y-58736650D01*
X61050858Y-58736648D01*
X61050860Y-58736646D01*
X61106717Y-58577015D01*
X61106717Y-58577014D01*
X61106718Y-58577012D01*
X61125653Y-58408958D01*
X61125653Y-58408953D01*
X61106718Y-58240899D01*
X61069575Y-58134751D01*
X61050860Y-58081266D01*
X61050859Y-58081265D01*
X61050858Y-58081261D01*
X61050856Y-58081258D01*
X60960885Y-57938071D01*
X60960880Y-57938065D01*
X60841294Y-57818479D01*
X60841288Y-57818474D01*
X60698101Y-57728503D01*
X60698098Y-57728501D01*
X60538460Y-57672641D01*
X60370407Y-57653707D01*
X60370401Y-57653707D01*
X60202347Y-57672641D01*
X60042709Y-57728501D01*
X60042706Y-57728503D01*
X59899519Y-57818474D01*
X59899513Y-57818479D01*
X59779927Y-57938065D01*
X59779922Y-57938071D01*
X59689951Y-58081258D01*
X59689949Y-58081261D01*
X59634089Y-58240899D01*
X59615155Y-58408953D01*
X59615155Y-58415441D01*
X59595470Y-58482480D01*
X59542666Y-58528235D01*
X59513391Y-58536347D01*
X59513522Y-58536920D01*
X59506734Y-58538469D01*
X59347092Y-58594329D01*
X59347087Y-58594332D01*
X59203900Y-58684303D01*
X59203894Y-58684308D01*
X59084308Y-58803894D01*
X59084306Y-58803897D01*
X59040728Y-58873250D01*
X58988393Y-58919541D01*
X58919339Y-58930188D01*
X58855491Y-58901812D01*
X58817120Y-58843422D01*
X58812515Y-58793393D01*
X58826249Y-58671502D01*
X58826249Y-58671497D01*
X58807314Y-58503443D01*
X58758411Y-58363687D01*
X58751456Y-58343810D01*
X58751455Y-58343809D01*
X58751454Y-58343805D01*
X58751452Y-58343802D01*
X58661481Y-58200615D01*
X58661476Y-58200609D01*
X58541890Y-58081023D01*
X58541884Y-58081018D01*
X58398697Y-57991047D01*
X58398694Y-57991045D01*
X58239056Y-57935185D01*
X58071003Y-57916251D01*
X58070997Y-57916251D01*
X57902943Y-57935185D01*
X57743305Y-57991045D01*
X57743302Y-57991047D01*
X57600115Y-58081018D01*
X57600109Y-58081023D01*
X57480523Y-58200609D01*
X57480518Y-58200615D01*
X57390547Y-58343802D01*
X57390545Y-58343805D01*
X57334685Y-58503443D01*
X57315751Y-58671497D01*
X52468365Y-58671497D01*
X52472421Y-58635501D01*
X52472421Y-58635496D01*
X52453486Y-58467442D01*
X52397626Y-58307804D01*
X52397624Y-58307801D01*
X52307653Y-58164614D01*
X52307648Y-58164608D01*
X52188062Y-58045022D01*
X52188056Y-58045017D01*
X52044869Y-57955046D01*
X52044866Y-57955044D01*
X51885228Y-57899184D01*
X51717175Y-57880250D01*
X51717169Y-57880250D01*
X51549115Y-57899184D01*
X51389477Y-57955044D01*
X51389474Y-57955046D01*
X51246287Y-58045017D01*
X51246281Y-58045022D01*
X51126695Y-58164608D01*
X51126690Y-58164614D01*
X51036719Y-58307801D01*
X51036717Y-58307804D01*
X50980857Y-58467442D01*
X50961923Y-58635496D01*
X45956065Y-58635496D01*
X45935021Y-58575357D01*
X45930456Y-58562310D01*
X45930455Y-58562309D01*
X45930454Y-58562305D01*
X45930452Y-58562302D01*
X45840481Y-58419115D01*
X45840476Y-58419109D01*
X45720890Y-58299523D01*
X45720884Y-58299518D01*
X45577697Y-58209547D01*
X45577694Y-58209545D01*
X45418056Y-58153685D01*
X45250003Y-58134751D01*
X45249997Y-58134751D01*
X45081943Y-58153685D01*
X44922305Y-58209545D01*
X44922302Y-58209547D01*
X44779115Y-58299518D01*
X44779109Y-58299523D01*
X44659523Y-58419109D01*
X44659518Y-58419115D01*
X44569547Y-58562302D01*
X44569545Y-58562305D01*
X44513685Y-58721943D01*
X44494751Y-58889997D01*
X42154122Y-58889997D01*
X42136313Y-58731940D01*
X42136313Y-58731939D01*
X42104476Y-58640955D01*
X42100914Y-58571176D01*
X42104476Y-58559045D01*
X42136313Y-58468060D01*
X42136313Y-58468059D01*
X42155249Y-58300002D01*
X42155249Y-58299997D01*
X42136314Y-58131943D01*
X42087012Y-57991047D01*
X42080456Y-57972310D01*
X42080455Y-57972309D01*
X42080454Y-57972305D01*
X42080452Y-57972302D01*
X41990481Y-57829115D01*
X41990476Y-57829109D01*
X41870890Y-57709523D01*
X41870884Y-57709518D01*
X41727697Y-57619547D01*
X41727694Y-57619545D01*
X41568056Y-57563685D01*
X41400003Y-57544751D01*
X41399997Y-57544751D01*
X41231941Y-57563686D01*
X41140953Y-57595523D01*
X41071174Y-57599084D01*
X41059047Y-57595523D01*
X40968058Y-57563686D01*
X40800003Y-57544751D01*
X40799997Y-57544751D01*
X40631943Y-57563685D01*
X40472305Y-57619545D01*
X40472302Y-57619547D01*
X40329115Y-57709518D01*
X40329109Y-57709523D01*
X40209523Y-57829109D01*
X40209518Y-57829115D01*
X40119547Y-57972302D01*
X40119545Y-57972305D01*
X40063685Y-58131943D01*
X40044751Y-58299997D01*
X32454998Y-58299997D01*
X32454998Y-56315338D01*
X36261285Y-56315338D01*
X36261285Y-56315339D01*
X36280102Y-56518421D01*
X36335917Y-56714586D01*
X36335922Y-56714599D01*
X36426827Y-56897160D01*
X36549737Y-57059920D01*
X36700458Y-57197319D01*
X36700460Y-57197321D01*
X36744587Y-57224643D01*
X36873863Y-57304687D01*
X37064044Y-57378363D01*
X37264524Y-57415839D01*
X37264526Y-57415839D01*
X37468474Y-57415839D01*
X37468476Y-57415839D01*
X37668956Y-57378363D01*
X37859137Y-57304687D01*
X38032541Y-57197320D01*
X38183264Y-57059918D01*
X38306173Y-56897160D01*
X38397082Y-56714589D01*
X38452897Y-56518422D01*
X38471715Y-56315339D01*
X38468482Y-56280454D01*
X38452897Y-56112256D01*
X38441127Y-56070890D01*
X38403884Y-55939997D01*
X39244751Y-55939997D01*
X39244751Y-55940002D01*
X39263685Y-56108056D01*
X39319545Y-56267694D01*
X39319547Y-56267697D01*
X39409518Y-56410884D01*
X39409523Y-56410890D01*
X39529109Y-56530476D01*
X39529115Y-56530481D01*
X39672302Y-56620452D01*
X39672305Y-56620454D01*
X39672309Y-56620455D01*
X39672310Y-56620456D01*
X39694207Y-56628118D01*
X39831943Y-56676314D01*
X39999997Y-56695249D01*
X40000000Y-56695249D01*
X40000003Y-56695249D01*
X40168056Y-56676314D01*
X40179522Y-56672302D01*
X40327690Y-56620456D01*
X40327692Y-56620454D01*
X40327694Y-56620454D01*
X40327697Y-56620452D01*
X40470884Y-56530481D01*
X40470885Y-56530480D01*
X40470890Y-56530477D01*
X40590477Y-56410890D01*
X40601004Y-56394137D01*
X40680452Y-56267697D01*
X40680454Y-56267694D01*
X40680454Y-56267692D01*
X40680456Y-56267690D01*
X40736313Y-56108059D01*
X40736313Y-56108058D01*
X40736314Y-56108056D01*
X40755249Y-55940002D01*
X40755249Y-55939997D01*
X40736314Y-55771943D01*
X40680454Y-55612305D01*
X40680452Y-55612302D01*
X40590481Y-55469115D01*
X40590476Y-55469109D01*
X40470890Y-55349523D01*
X40470884Y-55349518D01*
X40327697Y-55259547D01*
X40327694Y-55259545D01*
X40168056Y-55203685D01*
X40000003Y-55184751D01*
X39999997Y-55184751D01*
X39831943Y-55203685D01*
X39672305Y-55259545D01*
X39672302Y-55259547D01*
X39529115Y-55349518D01*
X39529109Y-55349523D01*
X39409523Y-55469109D01*
X39409518Y-55469115D01*
X39319547Y-55612302D01*
X39319545Y-55612305D01*
X39263685Y-55771943D01*
X39244751Y-55939997D01*
X38403884Y-55939997D01*
X38397082Y-55916089D01*
X38368145Y-55857976D01*
X38339277Y-55800000D01*
X38306173Y-55733518D01*
X38204779Y-55599250D01*
X38183262Y-55570757D01*
X38032541Y-55433358D01*
X38032539Y-55433356D01*
X37859142Y-55325994D01*
X37859135Y-55325990D01*
X37720556Y-55272305D01*
X37668956Y-55252315D01*
X37468476Y-55214839D01*
X37264524Y-55214839D01*
X37064044Y-55252315D01*
X37064041Y-55252315D01*
X37064041Y-55252316D01*
X36873864Y-55325990D01*
X36873857Y-55325994D01*
X36700460Y-55433356D01*
X36700458Y-55433358D01*
X36549737Y-55570757D01*
X36426827Y-55733517D01*
X36335922Y-55916078D01*
X36335917Y-55916091D01*
X36280102Y-56112256D01*
X36261285Y-56315338D01*
X32454998Y-56315338D01*
X32454998Y-53635323D01*
X46874540Y-53635323D01*
X46874540Y-53635328D01*
X46893474Y-53803382D01*
X46949334Y-53963020D01*
X46949336Y-53963023D01*
X47039307Y-54106210D01*
X47039312Y-54106216D01*
X47158898Y-54225802D01*
X47158904Y-54225807D01*
X47302091Y-54315778D01*
X47302094Y-54315780D01*
X47302098Y-54315781D01*
X47302099Y-54315782D01*
X47374702Y-54341186D01*
X47461732Y-54371640D01*
X47629786Y-54390575D01*
X47629789Y-54390575D01*
X47629792Y-54390575D01*
X47797845Y-54371640D01*
X47797848Y-54371639D01*
X47957479Y-54315782D01*
X47957481Y-54315780D01*
X47957483Y-54315780D01*
X47957486Y-54315778D01*
X48100673Y-54225807D01*
X48100674Y-54225806D01*
X48100679Y-54225803D01*
X48220266Y-54106216D01*
X48224174Y-54099997D01*
X49944751Y-54099997D01*
X49944751Y-54100002D01*
X49963685Y-54268056D01*
X50019545Y-54427694D01*
X50019547Y-54427697D01*
X50109518Y-54570884D01*
X50109523Y-54570890D01*
X50229109Y-54690476D01*
X50229115Y-54690481D01*
X50372302Y-54780452D01*
X50372305Y-54780454D01*
X50372309Y-54780455D01*
X50372310Y-54780456D01*
X50418473Y-54796609D01*
X50531943Y-54836314D01*
X50699997Y-54855249D01*
X50700000Y-54855249D01*
X50700003Y-54855249D01*
X50868056Y-54836314D01*
X50884809Y-54830452D01*
X51027690Y-54780456D01*
X51027692Y-54780454D01*
X51027694Y-54780454D01*
X51027697Y-54780452D01*
X51170884Y-54690481D01*
X51170885Y-54690480D01*
X51170890Y-54690477D01*
X51186370Y-54674997D01*
X51644751Y-54674997D01*
X51644751Y-54675002D01*
X51663685Y-54843056D01*
X51719545Y-55002694D01*
X51719547Y-55002697D01*
X51809518Y-55145884D01*
X51809523Y-55145890D01*
X51929109Y-55265476D01*
X51929115Y-55265481D01*
X52072302Y-55355452D01*
X52072305Y-55355454D01*
X52072309Y-55355455D01*
X52072310Y-55355456D01*
X52144913Y-55380860D01*
X52231943Y-55411314D01*
X52399997Y-55430249D01*
X52400000Y-55430249D01*
X52400003Y-55430249D01*
X52568056Y-55411314D01*
X52591582Y-55403082D01*
X52727690Y-55355456D01*
X52727692Y-55355454D01*
X52727694Y-55355454D01*
X52727697Y-55355452D01*
X52870884Y-55265481D01*
X52870885Y-55265480D01*
X52870890Y-55265477D01*
X52990477Y-55145890D01*
X52990481Y-55145884D01*
X53080452Y-55002697D01*
X53080454Y-55002694D01*
X53080454Y-55002692D01*
X53080456Y-55002690D01*
X53136313Y-54843059D01*
X53136313Y-54843058D01*
X53136314Y-54843056D01*
X53155249Y-54675002D01*
X53155249Y-54674997D01*
X53136314Y-54506943D01*
X53092155Y-54380745D01*
X53080456Y-54347310D01*
X53080455Y-54347309D01*
X53080454Y-54347305D01*
X53080452Y-54347302D01*
X52990481Y-54204115D01*
X52990476Y-54204109D01*
X52870890Y-54084523D01*
X52870884Y-54084518D01*
X52727697Y-53994547D01*
X52727694Y-53994545D01*
X52568056Y-53938685D01*
X52400003Y-53919751D01*
X52399997Y-53919751D01*
X52231943Y-53938685D01*
X52072305Y-53994545D01*
X52072302Y-53994547D01*
X51929115Y-54084518D01*
X51929109Y-54084523D01*
X51809523Y-54204109D01*
X51809518Y-54204115D01*
X51719547Y-54347302D01*
X51719545Y-54347305D01*
X51663685Y-54506943D01*
X51644751Y-54674997D01*
X51186370Y-54674997D01*
X51290477Y-54570890D01*
X51297322Y-54559996D01*
X51380452Y-54427697D01*
X51380454Y-54427694D01*
X51380454Y-54427692D01*
X51380456Y-54427690D01*
X51436313Y-54268059D01*
X51436313Y-54268058D01*
X51436314Y-54268056D01*
X51455249Y-54100002D01*
X51455249Y-54099997D01*
X51436314Y-53931943D01*
X51396449Y-53818017D01*
X51380456Y-53772310D01*
X51380455Y-53772309D01*
X51380454Y-53772305D01*
X51380452Y-53772302D01*
X51290481Y-53629115D01*
X51290476Y-53629109D01*
X51170890Y-53509523D01*
X51170884Y-53509518D01*
X51027697Y-53419547D01*
X51027694Y-53419545D01*
X50868056Y-53363685D01*
X50700003Y-53344751D01*
X50699997Y-53344751D01*
X50531943Y-53363685D01*
X50372305Y-53419545D01*
X50372302Y-53419547D01*
X50229115Y-53509518D01*
X50229109Y-53509523D01*
X50109523Y-53629109D01*
X50109518Y-53629115D01*
X50019547Y-53772302D01*
X50019545Y-53772305D01*
X49963685Y-53931943D01*
X49944751Y-54099997D01*
X48224174Y-54099997D01*
X48233900Y-54084518D01*
X48310241Y-53963023D01*
X48310243Y-53963020D01*
X48310243Y-53963018D01*
X48310245Y-53963016D01*
X48366102Y-53803385D01*
X48366102Y-53803384D01*
X48366103Y-53803382D01*
X48385038Y-53635328D01*
X48385038Y-53635323D01*
X48366103Y-53467269D01*
X48310243Y-53307631D01*
X48310241Y-53307628D01*
X48220270Y-53164441D01*
X48220265Y-53164435D01*
X48100679Y-53044849D01*
X48100673Y-53044844D01*
X47957486Y-52954873D01*
X47957483Y-52954871D01*
X47797845Y-52899011D01*
X47629792Y-52880077D01*
X47629786Y-52880077D01*
X47461732Y-52899011D01*
X47302094Y-52954871D01*
X47302091Y-52954873D01*
X47158904Y-53044844D01*
X47158898Y-53044849D01*
X47039312Y-53164435D01*
X47039307Y-53164441D01*
X46949336Y-53307628D01*
X46949334Y-53307631D01*
X46893474Y-53467269D01*
X46874540Y-53635323D01*
X32454998Y-53635323D01*
X32454998Y-50699997D01*
X40244751Y-50699997D01*
X40244751Y-50700002D01*
X40263686Y-50868058D01*
X40295523Y-50959047D01*
X40299084Y-51028826D01*
X40295523Y-51040953D01*
X40263686Y-51131941D01*
X40244751Y-51299997D01*
X40244751Y-51300002D01*
X40263686Y-51468058D01*
X40295523Y-51559047D01*
X40299084Y-51628826D01*
X40295523Y-51640953D01*
X40263686Y-51731941D01*
X40244751Y-51899997D01*
X40244751Y-51900002D01*
X40263685Y-52068056D01*
X40319545Y-52227694D01*
X40319547Y-52227697D01*
X40409518Y-52370884D01*
X40409523Y-52370890D01*
X40529109Y-52490476D01*
X40529115Y-52490481D01*
X40672302Y-52580452D01*
X40672305Y-52580454D01*
X40672309Y-52580455D01*
X40672310Y-52580456D01*
X40697408Y-52589238D01*
X40831943Y-52636314D01*
X40999997Y-52655249D01*
X41000000Y-52655249D01*
X41000003Y-52655249D01*
X41168059Y-52636313D01*
X41168060Y-52636313D01*
X41259045Y-52604476D01*
X41328824Y-52600914D01*
X41340955Y-52604476D01*
X41431939Y-52636313D01*
X41599997Y-52655249D01*
X41600000Y-52655249D01*
X41600003Y-52655249D01*
X41768056Y-52636314D01*
X41779399Y-52632345D01*
X41927690Y-52580456D01*
X41927692Y-52580454D01*
X41927694Y-52580454D01*
X41927697Y-52580452D01*
X42070884Y-52490481D01*
X42070885Y-52490480D01*
X42070890Y-52490477D01*
X42190477Y-52370890D01*
X42190481Y-52370884D01*
X42280452Y-52227697D01*
X42280454Y-52227694D01*
X42280454Y-52227692D01*
X42280456Y-52227690D01*
X42336313Y-52068059D01*
X42336313Y-52068058D01*
X42336314Y-52068056D01*
X42355249Y-51900002D01*
X42355249Y-51899997D01*
X42343981Y-51799997D01*
X44144751Y-51799997D01*
X44144751Y-51800002D01*
X44163685Y-51968056D01*
X44219545Y-52127694D01*
X44219547Y-52127697D01*
X44309518Y-52270884D01*
X44309523Y-52270890D01*
X44429109Y-52390476D01*
X44429115Y-52390481D01*
X44572302Y-52480452D01*
X44572305Y-52480454D01*
X44572309Y-52480455D01*
X44572310Y-52480456D01*
X44600946Y-52490476D01*
X44731943Y-52536314D01*
X44899997Y-52555249D01*
X44900000Y-52555249D01*
X44900003Y-52555249D01*
X45068056Y-52536314D01*
X45113007Y-52520585D01*
X45227690Y-52480456D01*
X45227692Y-52480454D01*
X45227694Y-52480454D01*
X45227697Y-52480452D01*
X45370884Y-52390481D01*
X45370884Y-52390480D01*
X45370890Y-52390477D01*
X45462732Y-52298634D01*
X45524051Y-52265152D01*
X45593743Y-52270136D01*
X45623192Y-52286806D01*
X45623214Y-52286773D01*
X45623941Y-52287230D01*
X45627720Y-52289369D01*
X45629111Y-52290478D01*
X45772302Y-52380452D01*
X45772305Y-52380454D01*
X45772309Y-52380455D01*
X45772310Y-52380456D01*
X45826049Y-52399260D01*
X45931943Y-52436314D01*
X46099997Y-52455249D01*
X46100000Y-52455249D01*
X46100003Y-52455249D01*
X46268056Y-52436314D01*
X46268059Y-52436313D01*
X46427690Y-52380456D01*
X46427692Y-52380454D01*
X46427694Y-52380454D01*
X46427697Y-52380452D01*
X46570884Y-52290481D01*
X46570888Y-52290478D01*
X46570890Y-52290477D01*
X46690477Y-52170890D01*
X46746343Y-52081980D01*
X46780452Y-52027697D01*
X46780454Y-52027694D01*
X46780454Y-52027692D01*
X46780456Y-52027690D01*
X46790145Y-51999999D01*
X54794785Y-51999999D01*
X54794785Y-52000000D01*
X54813602Y-52203082D01*
X54869417Y-52399247D01*
X54869422Y-52399260D01*
X54960327Y-52581821D01*
X55083237Y-52744581D01*
X55233958Y-52881980D01*
X55233960Y-52881982D01*
X55275708Y-52907831D01*
X55407363Y-52989348D01*
X55597544Y-53063024D01*
X55798024Y-53100500D01*
X55798026Y-53100500D01*
X56001974Y-53100500D01*
X56001976Y-53100500D01*
X56202456Y-53063024D01*
X56392637Y-52989348D01*
X56566041Y-52881981D01*
X56694122Y-52765219D01*
X56716762Y-52744581D01*
X56716764Y-52744579D01*
X56839673Y-52581821D01*
X56930582Y-52399250D01*
X56986397Y-52203083D01*
X57005215Y-52000000D01*
X57000638Y-51950610D01*
X56986397Y-51796917D01*
X56978868Y-51770456D01*
X56930582Y-51600750D01*
X56929840Y-51599260D01*
X56864544Y-51468127D01*
X56839673Y-51418179D01*
X56756898Y-51308567D01*
X56716762Y-51255418D01*
X56580017Y-51130760D01*
X66975575Y-51130760D01*
X66994263Y-51308565D01*
X66994264Y-51308567D01*
X67049507Y-51478589D01*
X67049510Y-51478595D01*
X67138901Y-51633425D01*
X67169676Y-51667604D01*
X67258524Y-51766281D01*
X67258527Y-51766283D01*
X67258530Y-51766286D01*
X67403167Y-51871372D01*
X67566493Y-51944089D01*
X67741369Y-51981260D01*
X67741370Y-51981260D01*
X67920149Y-51981260D01*
X67920151Y-51981260D01*
X68095027Y-51944089D01*
X68258353Y-51871372D01*
X68402990Y-51766286D01*
X68522619Y-51633425D01*
X68612010Y-51478595D01*
X68667257Y-51308563D01*
X68685945Y-51130760D01*
X68667257Y-50952957D01*
X68623541Y-50818413D01*
X68612012Y-50782930D01*
X68612009Y-50782924D01*
X68522619Y-50628095D01*
X68472383Y-50572302D01*
X68402995Y-50495238D01*
X68402992Y-50495236D01*
X68402991Y-50495235D01*
X68402990Y-50495234D01*
X68258353Y-50390148D01*
X68095027Y-50317431D01*
X68095025Y-50317430D01*
X67967354Y-50290293D01*
X67920151Y-50280260D01*
X67741369Y-50280260D01*
X67710714Y-50286775D01*
X67566493Y-50317430D01*
X67566488Y-50317432D01*
X67403168Y-50390147D01*
X67258528Y-50495235D01*
X67138900Y-50628096D01*
X67049510Y-50782924D01*
X67049507Y-50782930D01*
X66994264Y-50952952D01*
X66994263Y-50952954D01*
X66975575Y-51130760D01*
X56580017Y-51130760D01*
X56566041Y-51118019D01*
X56566039Y-51118017D01*
X56392642Y-51010655D01*
X56392635Y-51010651D01*
X56243695Y-50952952D01*
X56202456Y-50936976D01*
X56001976Y-50899500D01*
X55798024Y-50899500D01*
X55597544Y-50936976D01*
X55597541Y-50936976D01*
X55597541Y-50936977D01*
X55407364Y-51010651D01*
X55407357Y-51010655D01*
X55233960Y-51118017D01*
X55233958Y-51118019D01*
X55083237Y-51255418D01*
X54960327Y-51418178D01*
X54869422Y-51600739D01*
X54869417Y-51600752D01*
X54813602Y-51796917D01*
X54794785Y-51999999D01*
X46790145Y-51999999D01*
X46836313Y-51868059D01*
X46836313Y-51868058D01*
X46836314Y-51868056D01*
X46855249Y-51700002D01*
X46855249Y-51699997D01*
X46836314Y-51531943D01*
X46819333Y-51483415D01*
X46780456Y-51372310D01*
X46753313Y-51329112D01*
X46715491Y-51268919D01*
X46696491Y-51201683D01*
X46703444Y-51161992D01*
X46736313Y-51068059D01*
X46736313Y-51068057D01*
X46736314Y-51068055D01*
X46755249Y-50900002D01*
X46755249Y-50899997D01*
X46736314Y-50731943D01*
X46689970Y-50599500D01*
X46680456Y-50572310D01*
X46680455Y-50572309D01*
X46680454Y-50572305D01*
X46680452Y-50572302D01*
X46590481Y-50429115D01*
X46590476Y-50429109D01*
X46470890Y-50309523D01*
X46470884Y-50309518D01*
X46327697Y-50219547D01*
X46327694Y-50219545D01*
X46168056Y-50163685D01*
X46000003Y-50144751D01*
X45999997Y-50144751D01*
X45831943Y-50163685D01*
X45672307Y-50219545D01*
X45615971Y-50254943D01*
X45548734Y-50273943D01*
X45484029Y-50254943D01*
X45427692Y-50219545D01*
X45427691Y-50219544D01*
X45427690Y-50219544D01*
X45389370Y-50206135D01*
X45268056Y-50163685D01*
X45100003Y-50144751D01*
X45099997Y-50144751D01*
X44931943Y-50163685D01*
X44772305Y-50219545D01*
X44772302Y-50219547D01*
X44629115Y-50309518D01*
X44629109Y-50309523D01*
X44509523Y-50429109D01*
X44509518Y-50429115D01*
X44419547Y-50572302D01*
X44419545Y-50572305D01*
X44363685Y-50731943D01*
X44344751Y-50899997D01*
X44344751Y-50900002D01*
X44363685Y-51068054D01*
X44363686Y-51068057D01*
X44391581Y-51147776D01*
X44395142Y-51217554D01*
X44362221Y-51276410D01*
X44309525Y-51329106D01*
X44309520Y-51329112D01*
X44219547Y-51472302D01*
X44219545Y-51472305D01*
X44163685Y-51631943D01*
X44144751Y-51799997D01*
X42343981Y-51799997D01*
X42336313Y-51731940D01*
X42336313Y-51731939D01*
X42304476Y-51640955D01*
X42300914Y-51571176D01*
X42304476Y-51559045D01*
X42336313Y-51468060D01*
X42336313Y-51468059D01*
X42355249Y-51300002D01*
X42355249Y-51299997D01*
X42336313Y-51131940D01*
X42336313Y-51131939D01*
X42304476Y-51040955D01*
X42300914Y-50971176D01*
X42304476Y-50959045D01*
X42336313Y-50868060D01*
X42336313Y-50868059D01*
X42355249Y-50700002D01*
X42355249Y-50699997D01*
X42336314Y-50531943D01*
X42293485Y-50409544D01*
X42280456Y-50372310D01*
X42280455Y-50372309D01*
X42280454Y-50372305D01*
X42280452Y-50372302D01*
X42190481Y-50229115D01*
X42190476Y-50229109D01*
X42070890Y-50109523D01*
X42070884Y-50109518D01*
X41927697Y-50019547D01*
X41927694Y-50019545D01*
X41768056Y-49963685D01*
X41600003Y-49944751D01*
X41599997Y-49944751D01*
X41431941Y-49963686D01*
X41340953Y-49995523D01*
X41271174Y-49999084D01*
X41259047Y-49995523D01*
X41168058Y-49963686D01*
X41000003Y-49944751D01*
X40999997Y-49944751D01*
X40831943Y-49963685D01*
X40672305Y-50019545D01*
X40672302Y-50019547D01*
X40529115Y-50109518D01*
X40529109Y-50109523D01*
X40409523Y-50229109D01*
X40409518Y-50229115D01*
X40319547Y-50372302D01*
X40319545Y-50372305D01*
X40263685Y-50531943D01*
X40244751Y-50699997D01*
X32454998Y-50699997D01*
X32454998Y-48400000D01*
X51994540Y-48400000D01*
X52014326Y-48588256D01*
X52014327Y-48588259D01*
X52072818Y-48768277D01*
X52072821Y-48768284D01*
X52167467Y-48932216D01*
X52276359Y-49053152D01*
X52294129Y-49072888D01*
X52447265Y-49184148D01*
X52447270Y-49184151D01*
X52620192Y-49261142D01*
X52620193Y-49261142D01*
X52620197Y-49261144D01*
X52620200Y-49261144D01*
X52626374Y-49263151D01*
X52625505Y-49265825D01*
X52676125Y-49293120D01*
X52709933Y-49354266D01*
X52712227Y-49368290D01*
X52713763Y-49382902D01*
X52714326Y-49388258D01*
X52714327Y-49388260D01*
X52772818Y-49568277D01*
X52772821Y-49568284D01*
X52867467Y-49732216D01*
X52931024Y-49802803D01*
X52994129Y-49872888D01*
X53147265Y-49984148D01*
X53147270Y-49984151D01*
X53320192Y-50061142D01*
X53320197Y-50061144D01*
X53505354Y-50100500D01*
X53505355Y-50100500D01*
X53694644Y-50100500D01*
X53694646Y-50100500D01*
X53879803Y-50061144D01*
X54049566Y-49985559D01*
X54118813Y-49976275D01*
X54150430Y-49985557D01*
X54320197Y-50061144D01*
X54505354Y-50100500D01*
X54505355Y-50100500D01*
X54694644Y-50100500D01*
X54694646Y-50100500D01*
X54879803Y-50061144D01*
X55052730Y-49984151D01*
X55205871Y-49872888D01*
X55332533Y-49732216D01*
X55350698Y-49700751D01*
X55430429Y-49562656D01*
X55433074Y-49564183D01*
X55469603Y-49520994D01*
X55536402Y-49500509D01*
X55537885Y-49500500D01*
X55594644Y-49500500D01*
X55594646Y-49500500D01*
X55779803Y-49461144D01*
X55952730Y-49384151D01*
X56105871Y-49272888D01*
X56232533Y-49132216D01*
X56327179Y-48968284D01*
X56385674Y-48788256D01*
X56405460Y-48600000D01*
X56385674Y-48411744D01*
X56327179Y-48231716D01*
X56232533Y-48067784D01*
X56105871Y-47927112D01*
X56105870Y-47927111D01*
X56105780Y-47927011D01*
X56075550Y-47864020D01*
X56079999Y-47805720D01*
X56085674Y-47788256D01*
X56105460Y-47600000D01*
X56085674Y-47411744D01*
X56027179Y-47231716D01*
X55932533Y-47067784D01*
X55805871Y-46927112D01*
X55805870Y-46927111D01*
X55652734Y-46815851D01*
X55652729Y-46815848D01*
X55479807Y-46738857D01*
X55479802Y-46738855D01*
X55334001Y-46707865D01*
X55294646Y-46699500D01*
X55105354Y-46699500D01*
X55072897Y-46706398D01*
X54920197Y-46738855D01*
X54920196Y-46738855D01*
X54800435Y-46792177D01*
X54731185Y-46801461D01*
X54699565Y-46792177D01*
X54579802Y-46738855D01*
X54434001Y-46707865D01*
X54394646Y-46699500D01*
X54205354Y-46699500D01*
X54172897Y-46706398D01*
X54020197Y-46738855D01*
X54020196Y-46738855D01*
X53900435Y-46792177D01*
X53831185Y-46801461D01*
X53799565Y-46792177D01*
X53679802Y-46738855D01*
X53534001Y-46707865D01*
X53494646Y-46699500D01*
X53305354Y-46699500D01*
X53272897Y-46706398D01*
X53120197Y-46738855D01*
X53120192Y-46738857D01*
X52947270Y-46815848D01*
X52947265Y-46815851D01*
X52794129Y-46927111D01*
X52667466Y-47067785D01*
X52572821Y-47231715D01*
X52572818Y-47231722D01*
X52514327Y-47411740D01*
X52514326Y-47411744D01*
X52509648Y-47456252D01*
X52502415Y-47525070D01*
X52475830Y-47589685D01*
X52451980Y-47612426D01*
X52294127Y-47727113D01*
X52167466Y-47867785D01*
X52072821Y-48031715D01*
X52072818Y-48031722D01*
X52019007Y-48197336D01*
X52014326Y-48211744D01*
X51994540Y-48400000D01*
X32454998Y-48400000D01*
X32454998Y-44560476D01*
X66844751Y-44560476D01*
X66844751Y-44560481D01*
X66863685Y-44728535D01*
X66919545Y-44888173D01*
X66919547Y-44888176D01*
X67009518Y-45031363D01*
X67009523Y-45031369D01*
X67129109Y-45150955D01*
X67129115Y-45150960D01*
X67272302Y-45240931D01*
X67272305Y-45240933D01*
X67272309Y-45240934D01*
X67272310Y-45240935D01*
X67344913Y-45266339D01*
X67431943Y-45296793D01*
X67599997Y-45315728D01*
X67600000Y-45315728D01*
X67600003Y-45315728D01*
X67768056Y-45296793D01*
X67768059Y-45296792D01*
X67927690Y-45240935D01*
X67927692Y-45240933D01*
X67927694Y-45240933D01*
X67927697Y-45240931D01*
X68070884Y-45150960D01*
X68070885Y-45150959D01*
X68070890Y-45150956D01*
X68190477Y-45031369D01*
X68238401Y-44955099D01*
X68280452Y-44888176D01*
X68280454Y-44888173D01*
X68280454Y-44888171D01*
X68280456Y-44888169D01*
X68336313Y-44728538D01*
X68336313Y-44728536D01*
X68336314Y-44728534D01*
X68345626Y-44645884D01*
X68347174Y-44632142D01*
X68374240Y-44567728D01*
X68422137Y-44534117D01*
X68421416Y-44532618D01*
X68427686Y-44529598D01*
X68427690Y-44529597D01*
X68570890Y-44439618D01*
X68690477Y-44320031D01*
X68711652Y-44286331D01*
X68780452Y-44176838D01*
X68780454Y-44176835D01*
X68780454Y-44176833D01*
X68780456Y-44176831D01*
X68836313Y-44017200D01*
X68836313Y-44017199D01*
X68836314Y-44017197D01*
X68855249Y-43849143D01*
X68855249Y-43849138D01*
X68836314Y-43681084D01*
X68797225Y-43569375D01*
X68780456Y-43521451D01*
X68780455Y-43521450D01*
X68780454Y-43521446D01*
X68780452Y-43521443D01*
X68690481Y-43378256D01*
X68690476Y-43378250D01*
X68570890Y-43258664D01*
X68570884Y-43258659D01*
X68427697Y-43168688D01*
X68427694Y-43168686D01*
X68268056Y-43112826D01*
X68100003Y-43093892D01*
X68099997Y-43093892D01*
X67931943Y-43112826D01*
X67772305Y-43168686D01*
X67772302Y-43168688D01*
X67629115Y-43258659D01*
X67629109Y-43258664D01*
X67509523Y-43378250D01*
X67509518Y-43378256D01*
X67419547Y-43521443D01*
X67419545Y-43521446D01*
X67363685Y-43681084D01*
X67352825Y-43777478D01*
X67325758Y-43841892D01*
X67277859Y-43875513D01*
X67278578Y-43877005D01*
X67272300Y-43880027D01*
X67129115Y-43969997D01*
X67129109Y-43970002D01*
X67009523Y-44089588D01*
X67009518Y-44089594D01*
X66919547Y-44232781D01*
X66919545Y-44232784D01*
X66863685Y-44392422D01*
X66844751Y-44560476D01*
X32454998Y-44560476D01*
X32454998Y-41779997D01*
X36384751Y-41779997D01*
X36384751Y-41780002D01*
X36403685Y-41948056D01*
X36459545Y-42107694D01*
X36459547Y-42107697D01*
X36549518Y-42250884D01*
X36549523Y-42250890D01*
X36669109Y-42370476D01*
X36669115Y-42370481D01*
X36812302Y-42460452D01*
X36812305Y-42460454D01*
X36812309Y-42460455D01*
X36812310Y-42460456D01*
X36870419Y-42480789D01*
X36971943Y-42516314D01*
X37139997Y-42535249D01*
X37140000Y-42535249D01*
X37140003Y-42535249D01*
X37220801Y-42526145D01*
X37289623Y-42538199D01*
X37341003Y-42585548D01*
X37358627Y-42653158D01*
X37357905Y-42663248D01*
X37344751Y-42779996D01*
X37344751Y-42780002D01*
X37363685Y-42948056D01*
X37419545Y-43107694D01*
X37419547Y-43107697D01*
X37509518Y-43250884D01*
X37509523Y-43250890D01*
X37629109Y-43370476D01*
X37629115Y-43370481D01*
X37772302Y-43460452D01*
X37772305Y-43460454D01*
X37772309Y-43460455D01*
X37772310Y-43460456D01*
X37831688Y-43481233D01*
X37931943Y-43516314D01*
X38099997Y-43535249D01*
X38100000Y-43535249D01*
X38100003Y-43535249D01*
X38268056Y-43516314D01*
X38268059Y-43516313D01*
X38427690Y-43460456D01*
X38427692Y-43460454D01*
X38427694Y-43460454D01*
X38427697Y-43460452D01*
X38570884Y-43370481D01*
X38570885Y-43370480D01*
X38570890Y-43370477D01*
X38690477Y-43250890D01*
X38726815Y-43193059D01*
X38780452Y-43107697D01*
X38780454Y-43107694D01*
X38780454Y-43107692D01*
X38780456Y-43107690D01*
X38836313Y-42948059D01*
X38836313Y-42948058D01*
X38836314Y-42948056D01*
X38855249Y-42780002D01*
X38855249Y-42779997D01*
X38836314Y-42611943D01*
X38783306Y-42460456D01*
X38780456Y-42452310D01*
X38780455Y-42452309D01*
X38780454Y-42452305D01*
X38780452Y-42452302D01*
X38690481Y-42309115D01*
X38690476Y-42309109D01*
X38570890Y-42189523D01*
X38570884Y-42189518D01*
X38427697Y-42099547D01*
X38427694Y-42099545D01*
X38268056Y-42043685D01*
X38100003Y-42024751D01*
X38099995Y-42024751D01*
X38019196Y-42033854D01*
X37950375Y-42021799D01*
X37926721Y-42000000D01*
X44394540Y-42000000D01*
X44414326Y-42188256D01*
X44414327Y-42188259D01*
X44472818Y-42368277D01*
X44472821Y-42368284D01*
X44567467Y-42532216D01*
X44639252Y-42611941D01*
X44694129Y-42672888D01*
X44847265Y-42784148D01*
X44847270Y-42784151D01*
X45020192Y-42861142D01*
X45020197Y-42861144D01*
X45205354Y-42900500D01*
X45205355Y-42900500D01*
X45394644Y-42900500D01*
X45394646Y-42900500D01*
X45579803Y-42861144D01*
X45752730Y-42784151D01*
X45905871Y-42672888D01*
X46032533Y-42532216D01*
X46127179Y-42368284D01*
X46185674Y-42188256D01*
X46205460Y-42000000D01*
X46185674Y-41811744D01*
X46127755Y-41633489D01*
X46127181Y-41631722D01*
X46127180Y-41631721D01*
X46127179Y-41631716D01*
X46032533Y-41467784D01*
X45905871Y-41327112D01*
X45897675Y-41321157D01*
X45752734Y-41215851D01*
X45752729Y-41215848D01*
X45579807Y-41138857D01*
X45579802Y-41138855D01*
X45419298Y-41104740D01*
X45394646Y-41099500D01*
X45205354Y-41099500D01*
X45180702Y-41104740D01*
X45020197Y-41138855D01*
X45020192Y-41138857D01*
X44847270Y-41215848D01*
X44847265Y-41215851D01*
X44694129Y-41327111D01*
X44567466Y-41467785D01*
X44472821Y-41631715D01*
X44472818Y-41631722D01*
X44414327Y-41811740D01*
X44414326Y-41811744D01*
X44394540Y-42000000D01*
X37926721Y-42000000D01*
X37898996Y-41974449D01*
X37881372Y-41906839D01*
X37882094Y-41896750D01*
X37895249Y-41780002D01*
X37895249Y-41779997D01*
X37876314Y-41611943D01*
X37826955Y-41470884D01*
X37820456Y-41452310D01*
X37820455Y-41452309D01*
X37820454Y-41452305D01*
X37820452Y-41452302D01*
X37730481Y-41309115D01*
X37730476Y-41309109D01*
X37610890Y-41189523D01*
X37610884Y-41189518D01*
X37467697Y-41099547D01*
X37467694Y-41099545D01*
X37308056Y-41043685D01*
X37140003Y-41024751D01*
X37139997Y-41024751D01*
X36971943Y-41043685D01*
X36812305Y-41099545D01*
X36812302Y-41099547D01*
X36669115Y-41189518D01*
X36669109Y-41189523D01*
X36549523Y-41309109D01*
X36549518Y-41309115D01*
X36459547Y-41452302D01*
X36459545Y-41452305D01*
X36403685Y-41611943D01*
X36384751Y-41779997D01*
X32454998Y-41779997D01*
X32454998Y-38700000D01*
X37144901Y-38700000D01*
X37163252Y-38886331D01*
X37163253Y-38886333D01*
X37217604Y-39065502D01*
X37305862Y-39230623D01*
X37305864Y-39230626D01*
X37424642Y-39375357D01*
X37569373Y-39494135D01*
X37569376Y-39494137D01*
X37734497Y-39582395D01*
X37734499Y-39582396D01*
X37913666Y-39636746D01*
X37913668Y-39636747D01*
X37930374Y-39638392D01*
X38100000Y-39655099D01*
X38286331Y-39636747D01*
X38465501Y-39582396D01*
X38630625Y-39494136D01*
X38775357Y-39375357D01*
X38894136Y-39230625D01*
X38963956Y-39100000D01*
X41294540Y-39100000D01*
X41314326Y-39288256D01*
X41314327Y-39288259D01*
X41372818Y-39468277D01*
X41372821Y-39468284D01*
X41467467Y-39632216D01*
X41589310Y-39767536D01*
X41594129Y-39772888D01*
X41747265Y-39884148D01*
X41747266Y-39884148D01*
X41747270Y-39884151D01*
X41855820Y-39932481D01*
X41909057Y-39977731D01*
X41929378Y-40044580D01*
X41923316Y-40084074D01*
X41921293Y-40090302D01*
X41914326Y-40111743D01*
X41899348Y-40254254D01*
X41894540Y-40300000D01*
X41914326Y-40488256D01*
X41914327Y-40488259D01*
X41972818Y-40668277D01*
X41972821Y-40668284D01*
X42067467Y-40832216D01*
X42194129Y-40972888D01*
X42347265Y-41084148D01*
X42347270Y-41084151D01*
X42520192Y-41161142D01*
X42520197Y-41161144D01*
X42705354Y-41200500D01*
X42705355Y-41200500D01*
X42894644Y-41200500D01*
X42894646Y-41200500D01*
X43079803Y-41161144D01*
X43252730Y-41084151D01*
X43405871Y-40972888D01*
X43532533Y-40832216D01*
X43627179Y-40668284D01*
X43685674Y-40488256D01*
X43705460Y-40300000D01*
X43685674Y-40111744D01*
X43627428Y-39932481D01*
X43627181Y-39931722D01*
X43627180Y-39931721D01*
X43627179Y-39931716D01*
X43532533Y-39767784D01*
X43405871Y-39627112D01*
X43376623Y-39605862D01*
X43252734Y-39515851D01*
X43252729Y-39515848D01*
X43144179Y-39467518D01*
X43090942Y-39422268D01*
X43070621Y-39355418D01*
X43076683Y-39315923D01*
X43081858Y-39300000D01*
X43894540Y-39300000D01*
X43914326Y-39488256D01*
X43914327Y-39488259D01*
X43972818Y-39668277D01*
X43972821Y-39668284D01*
X44067467Y-39832216D01*
X44157063Y-39931722D01*
X44194129Y-39972888D01*
X44347265Y-40084148D01*
X44347270Y-40084151D01*
X44520192Y-40161142D01*
X44520197Y-40161144D01*
X44705354Y-40200500D01*
X44705355Y-40200500D01*
X44894644Y-40200500D01*
X44894646Y-40200500D01*
X45079803Y-40161144D01*
X45252730Y-40084151D01*
X45405871Y-39972888D01*
X45532533Y-39832216D01*
X45627179Y-39668284D01*
X45685674Y-39488256D01*
X45694950Y-39400000D01*
X46094540Y-39400000D01*
X46114326Y-39588256D01*
X46114327Y-39588259D01*
X46172818Y-39768277D01*
X46172821Y-39768284D01*
X46267467Y-39932216D01*
X46368640Y-40044580D01*
X46394129Y-40072888D01*
X46547265Y-40184148D01*
X46547270Y-40184151D01*
X46720191Y-40261142D01*
X46720193Y-40261142D01*
X46720197Y-40261144D01*
X46806078Y-40279398D01*
X46867556Y-40312588D01*
X46901333Y-40373751D01*
X46903615Y-40413647D01*
X46898481Y-40462500D01*
X46894540Y-40500000D01*
X46914326Y-40688256D01*
X46914327Y-40688259D01*
X46972818Y-40868277D01*
X46972821Y-40868284D01*
X47067467Y-41032216D01*
X47167176Y-41142954D01*
X47194129Y-41172888D01*
X47347265Y-41284148D01*
X47347270Y-41284151D01*
X47520192Y-41361142D01*
X47520197Y-41361144D01*
X47705354Y-41400500D01*
X47705355Y-41400500D01*
X47894644Y-41400500D01*
X47894646Y-41400500D01*
X48079803Y-41361144D01*
X48252730Y-41284151D01*
X48405871Y-41172888D01*
X48532533Y-41032216D01*
X48551135Y-40999997D01*
X54644751Y-40999997D01*
X54644751Y-41000002D01*
X54663685Y-41168056D01*
X54719545Y-41327694D01*
X54719547Y-41327697D01*
X54809518Y-41470884D01*
X54809523Y-41470890D01*
X54929109Y-41590476D01*
X54929115Y-41590481D01*
X55072302Y-41680452D01*
X55072305Y-41680454D01*
X55072309Y-41680455D01*
X55072310Y-41680456D01*
X55144913Y-41705860D01*
X55231943Y-41736314D01*
X55399997Y-41755249D01*
X55400000Y-41755249D01*
X55400003Y-41755249D01*
X55568056Y-41736314D01*
X55568059Y-41736313D01*
X55727690Y-41680456D01*
X55727692Y-41680454D01*
X55727694Y-41680454D01*
X55727697Y-41680452D01*
X55870884Y-41590481D01*
X55870885Y-41590480D01*
X55870890Y-41590477D01*
X55990477Y-41470890D01*
X55990481Y-41470884D01*
X56080452Y-41327697D01*
X56080454Y-41327694D01*
X56080454Y-41327692D01*
X56080456Y-41327690D01*
X56136313Y-41168059D01*
X56136313Y-41168058D01*
X56136314Y-41168056D01*
X56155249Y-41000002D01*
X56155249Y-40999997D01*
X56136314Y-40831943D01*
X56086036Y-40688256D01*
X56080456Y-40672310D01*
X56080455Y-40672309D01*
X56080454Y-40672305D01*
X56080452Y-40672302D01*
X55990481Y-40529115D01*
X55990476Y-40529109D01*
X55870890Y-40409523D01*
X55870884Y-40409518D01*
X55727697Y-40319547D01*
X55727694Y-40319545D01*
X55568056Y-40263685D01*
X55400003Y-40244751D01*
X55399997Y-40244751D01*
X55231943Y-40263685D01*
X55072305Y-40319545D01*
X55072302Y-40319547D01*
X54929115Y-40409518D01*
X54929109Y-40409523D01*
X54809523Y-40529109D01*
X54809518Y-40529115D01*
X54719547Y-40672302D01*
X54719545Y-40672305D01*
X54663685Y-40831943D01*
X54644751Y-40999997D01*
X48551135Y-40999997D01*
X48627179Y-40868284D01*
X48685674Y-40688256D01*
X48705460Y-40500000D01*
X48685674Y-40311744D01*
X48627179Y-40131716D01*
X48551133Y-40000000D01*
X59694540Y-40000000D01*
X59714326Y-40188256D01*
X59714327Y-40188259D01*
X59772818Y-40368277D01*
X59772821Y-40368284D01*
X59841939Y-40488000D01*
X59858412Y-40555900D01*
X59841939Y-40612000D01*
X59772821Y-40731715D01*
X59772818Y-40731722D01*
X59714327Y-40911740D01*
X59714326Y-40911744D01*
X59694540Y-41100000D01*
X59714326Y-41288256D01*
X59714327Y-41288259D01*
X59772818Y-41468277D01*
X59772821Y-41468284D01*
X59867467Y-41632216D01*
X59969820Y-41745890D01*
X59994129Y-41772888D01*
X60147265Y-41884148D01*
X60147270Y-41884151D01*
X60320192Y-41961142D01*
X60320197Y-41961144D01*
X60505354Y-42000500D01*
X60505355Y-42000500D01*
X60694644Y-42000500D01*
X60694646Y-42000500D01*
X60879803Y-41961144D01*
X61052730Y-41884151D01*
X61077114Y-41866434D01*
X61142919Y-41842954D01*
X61210973Y-41858778D01*
X61222879Y-41866429D01*
X61247266Y-41884148D01*
X61247269Y-41884150D01*
X61247270Y-41884151D01*
X61420192Y-41961142D01*
X61420197Y-41961144D01*
X61605354Y-42000500D01*
X61605355Y-42000500D01*
X61794644Y-42000500D01*
X61794646Y-42000500D01*
X61979803Y-41961144D01*
X62152730Y-41884151D01*
X62305871Y-41772888D01*
X62432533Y-41632216D01*
X62527179Y-41468284D01*
X62585674Y-41288256D01*
X62605460Y-41100000D01*
X62585674Y-40911744D01*
X62527179Y-40731716D01*
X62458060Y-40611999D01*
X62441588Y-40544100D01*
X62458061Y-40488000D01*
X62494709Y-40424523D01*
X62527179Y-40368284D01*
X62585674Y-40188256D01*
X62605460Y-40000000D01*
X62585674Y-39811744D01*
X62528813Y-39636746D01*
X62527181Y-39631722D01*
X62527180Y-39631721D01*
X62527179Y-39631716D01*
X62432533Y-39467784D01*
X62305871Y-39327112D01*
X62305870Y-39327111D01*
X62152734Y-39215851D01*
X62152729Y-39215848D01*
X61979807Y-39138857D01*
X61979802Y-39138855D01*
X61834001Y-39107865D01*
X61794646Y-39099500D01*
X61605354Y-39099500D01*
X61572897Y-39106398D01*
X61420197Y-39138855D01*
X61420192Y-39138857D01*
X61247270Y-39215848D01*
X61247265Y-39215851D01*
X61222885Y-39233565D01*
X61157079Y-39257045D01*
X61089025Y-39241219D01*
X61077115Y-39233565D01*
X61052734Y-39215851D01*
X61052729Y-39215848D01*
X60879807Y-39138857D01*
X60879802Y-39138855D01*
X60734001Y-39107865D01*
X60694646Y-39099500D01*
X60505354Y-39099500D01*
X60472897Y-39106398D01*
X60320197Y-39138855D01*
X60320192Y-39138857D01*
X60147270Y-39215848D01*
X60147265Y-39215851D01*
X59994129Y-39327111D01*
X59867466Y-39467785D01*
X59772821Y-39631715D01*
X59772818Y-39631722D01*
X59723975Y-39782047D01*
X59714326Y-39811744D01*
X59694540Y-40000000D01*
X48551133Y-40000000D01*
X48532533Y-39967784D01*
X48405871Y-39827112D01*
X48384719Y-39811744D01*
X48252734Y-39715851D01*
X48252729Y-39715848D01*
X48079807Y-39638857D01*
X48079802Y-39638855D01*
X47993924Y-39620602D01*
X47932442Y-39587410D01*
X47898666Y-39526247D01*
X47896384Y-39486351D01*
X47897642Y-39474383D01*
X47905460Y-39400000D01*
X47885674Y-39211744D01*
X47827179Y-39031716D01*
X47732533Y-38867784D01*
X47605871Y-38727112D01*
X47605870Y-38727111D01*
X47452734Y-38615851D01*
X47452729Y-38615848D01*
X47417134Y-38600000D01*
X68044901Y-38600000D01*
X68063252Y-38786331D01*
X68063253Y-38786333D01*
X68117604Y-38965502D01*
X68205862Y-39130623D01*
X68205864Y-39130626D01*
X68324642Y-39275357D01*
X68469373Y-39394135D01*
X68469376Y-39394137D01*
X68639871Y-39485268D01*
X68639104Y-39486702D01*
X68687383Y-39525604D01*
X68709451Y-39591897D01*
X68692175Y-39659597D01*
X68664196Y-39692181D01*
X68624643Y-39724641D01*
X68505864Y-39869373D01*
X68505862Y-39869376D01*
X68417604Y-40034497D01*
X68363253Y-40213666D01*
X68363252Y-40213668D01*
X68344901Y-40400000D01*
X68363252Y-40586331D01*
X68363253Y-40586333D01*
X68417604Y-40765502D01*
X68505862Y-40930623D01*
X68505864Y-40930626D01*
X68624642Y-41075357D01*
X68769373Y-41194135D01*
X68769376Y-41194137D01*
X68920656Y-41274997D01*
X68934499Y-41282396D01*
X69113666Y-41336746D01*
X69113668Y-41336747D01*
X69130374Y-41338392D01*
X69300000Y-41355099D01*
X69486331Y-41336747D01*
X69665501Y-41282396D01*
X69830625Y-41194136D01*
X69975357Y-41075357D01*
X70094136Y-40930625D01*
X70182396Y-40765501D01*
X70236747Y-40586331D01*
X70255099Y-40400000D01*
X70236747Y-40213669D01*
X70182396Y-40034499D01*
X70152053Y-39977731D01*
X70094137Y-39869376D01*
X70094135Y-39869373D01*
X69975357Y-39724642D01*
X69830626Y-39605864D01*
X69830623Y-39605862D01*
X69660129Y-39514732D01*
X69660894Y-39513300D01*
X69612608Y-39474383D01*
X69590548Y-39408087D01*
X69598995Y-39375000D01*
X73540474Y-39375000D01*
X73558825Y-39561331D01*
X73558826Y-39561333D01*
X73613177Y-39740502D01*
X73701435Y-39905623D01*
X73701437Y-39905626D01*
X73820215Y-40050357D01*
X73964946Y-40169135D01*
X73964949Y-40169137D01*
X74130070Y-40257395D01*
X74130072Y-40257396D01*
X74252199Y-40294443D01*
X74309239Y-40311746D01*
X74309241Y-40311747D01*
X74325947Y-40313392D01*
X74495573Y-40330099D01*
X74681904Y-40311747D01*
X74861074Y-40257396D01*
X75026198Y-40169136D01*
X75170930Y-40050357D01*
X75289709Y-39905625D01*
X75363519Y-39767536D01*
X78158583Y-39767536D01*
X78158583Y-39767541D01*
X78177517Y-39935595D01*
X78233377Y-40095233D01*
X78233379Y-40095236D01*
X78323350Y-40238423D01*
X78323355Y-40238429D01*
X78442941Y-40358015D01*
X78442947Y-40358020D01*
X78586134Y-40447991D01*
X78586137Y-40447993D01*
X78586141Y-40447994D01*
X78586142Y-40447995D01*
X78627587Y-40462497D01*
X78745775Y-40503853D01*
X78913829Y-40522788D01*
X78913832Y-40522788D01*
X78913835Y-40522788D01*
X79081888Y-40503853D01*
X79109655Y-40494137D01*
X79241522Y-40447995D01*
X79241524Y-40447993D01*
X79241526Y-40447993D01*
X79241529Y-40447991D01*
X79384716Y-40358020D01*
X79384717Y-40358019D01*
X79384722Y-40358016D01*
X79504309Y-40238429D01*
X79548375Y-40168297D01*
X79600708Y-40122008D01*
X79669762Y-40111359D01*
X79733610Y-40139734D01*
X79771983Y-40198124D01*
X79772695Y-40267990D01*
X79770410Y-40275223D01*
X79763687Y-40294437D01*
X79763686Y-40294440D01*
X79744751Y-40462497D01*
X79744751Y-40462502D01*
X79763685Y-40630556D01*
X79819545Y-40790194D01*
X79819547Y-40790197D01*
X79909518Y-40933384D01*
X79909523Y-40933390D01*
X80029109Y-41052976D01*
X80029115Y-41052981D01*
X80172302Y-41142952D01*
X80172305Y-41142954D01*
X80172309Y-41142955D01*
X80172310Y-41142956D01*
X80224283Y-41161142D01*
X80331943Y-41198814D01*
X80499997Y-41217749D01*
X80500000Y-41217749D01*
X80500003Y-41217749D01*
X80668056Y-41198814D01*
X80694608Y-41189523D01*
X80827690Y-41142956D01*
X80827692Y-41142954D01*
X80827694Y-41142954D01*
X80827697Y-41142952D01*
X80970884Y-41052981D01*
X80970885Y-41052980D01*
X80970890Y-41052977D01*
X81090477Y-40933390D01*
X81092214Y-40930626D01*
X81180452Y-40790197D01*
X81180454Y-40790194D01*
X81180454Y-40790192D01*
X81180456Y-40790190D01*
X81236313Y-40630559D01*
X81236313Y-40630558D01*
X81236314Y-40630556D01*
X81255249Y-40462502D01*
X81255249Y-40462497D01*
X81236314Y-40294443D01*
X81202610Y-40198124D01*
X81180456Y-40134810D01*
X81180455Y-40134809D01*
X81180454Y-40134805D01*
X81180452Y-40134802D01*
X81090481Y-39991615D01*
X81090476Y-39991609D01*
X80970890Y-39872023D01*
X80970884Y-39872018D01*
X80827697Y-39782047D01*
X80827694Y-39782045D01*
X80668056Y-39726185D01*
X80500003Y-39707251D01*
X80499997Y-39707251D01*
X80331943Y-39726185D01*
X80172305Y-39782045D01*
X80172302Y-39782047D01*
X80029115Y-39872018D01*
X80029109Y-39872023D01*
X79909523Y-39991609D01*
X79909521Y-39991612D01*
X79865456Y-40061740D01*
X79813121Y-40108031D01*
X79744067Y-40118678D01*
X79680219Y-40090302D01*
X79641848Y-40031912D01*
X79641136Y-39962046D01*
X79643423Y-39954809D01*
X79650145Y-39935598D01*
X79669081Y-39767541D01*
X79669081Y-39767536D01*
X79650146Y-39599482D01*
X79594286Y-39439844D01*
X79594284Y-39439841D01*
X79504313Y-39296654D01*
X79504308Y-39296648D01*
X79384722Y-39177062D01*
X79384716Y-39177057D01*
X79241529Y-39087086D01*
X79241526Y-39087084D01*
X79081888Y-39031224D01*
X78913835Y-39012290D01*
X78913829Y-39012290D01*
X78745775Y-39031224D01*
X78586137Y-39087084D01*
X78586134Y-39087086D01*
X78442947Y-39177057D01*
X78442941Y-39177062D01*
X78323355Y-39296648D01*
X78323350Y-39296654D01*
X78233379Y-39439841D01*
X78233377Y-39439844D01*
X78177517Y-39599482D01*
X78158583Y-39767536D01*
X75363519Y-39767536D01*
X75377969Y-39740501D01*
X75432320Y-39561331D01*
X75450672Y-39375000D01*
X75432320Y-39188669D01*
X75377969Y-39009499D01*
X75354452Y-38965501D01*
X75289710Y-38844376D01*
X75289708Y-38844373D01*
X75170930Y-38699642D01*
X75026199Y-38580864D01*
X75026196Y-38580862D01*
X74861075Y-38492604D01*
X74681906Y-38438253D01*
X74681904Y-38438252D01*
X74495573Y-38419901D01*
X74309241Y-38438252D01*
X74309239Y-38438253D01*
X74130070Y-38492604D01*
X73964949Y-38580862D01*
X73964946Y-38580864D01*
X73820215Y-38699642D01*
X73701437Y-38844373D01*
X73701435Y-38844376D01*
X73613177Y-39009497D01*
X73558826Y-39188666D01*
X73558825Y-39188668D01*
X73540474Y-39375000D01*
X69598995Y-39375000D01*
X69607832Y-39340389D01*
X69635803Y-39307818D01*
X69675357Y-39275357D01*
X69679603Y-39270184D01*
X69762334Y-39169376D01*
X69794136Y-39130625D01*
X69882396Y-38965501D01*
X69936747Y-38786331D01*
X69955099Y-38600000D01*
X69936747Y-38413669D01*
X69882396Y-38234499D01*
X69816204Y-38110661D01*
X69794137Y-38069376D01*
X69794135Y-38069373D01*
X69675357Y-37924642D01*
X69530626Y-37805864D01*
X69530623Y-37805862D01*
X69365502Y-37717604D01*
X69186333Y-37663253D01*
X69186331Y-37663252D01*
X69000000Y-37644901D01*
X68813668Y-37663252D01*
X68813666Y-37663253D01*
X68634497Y-37717604D01*
X68469376Y-37805862D01*
X68469373Y-37805864D01*
X68324642Y-37924642D01*
X68205864Y-38069373D01*
X68205862Y-38069376D01*
X68117604Y-38234497D01*
X68063253Y-38413666D01*
X68063252Y-38413668D01*
X68044901Y-38600000D01*
X47417134Y-38600000D01*
X47279807Y-38538857D01*
X47279802Y-38538855D01*
X47134001Y-38507865D01*
X47094646Y-38499500D01*
X46905354Y-38499500D01*
X46872897Y-38506398D01*
X46720197Y-38538855D01*
X46720192Y-38538857D01*
X46547270Y-38615848D01*
X46547265Y-38615851D01*
X46394129Y-38727111D01*
X46267466Y-38867785D01*
X46172821Y-39031715D01*
X46172818Y-39031722D01*
X46114327Y-39211740D01*
X46114326Y-39211744D01*
X46094540Y-39400000D01*
X45694950Y-39400000D01*
X45705460Y-39300000D01*
X45685674Y-39111744D01*
X45627179Y-38931716D01*
X45532533Y-38767784D01*
X45405871Y-38627112D01*
X45390369Y-38615849D01*
X45252734Y-38515851D01*
X45252729Y-38515848D01*
X45079807Y-38438857D01*
X45079802Y-38438855D01*
X44934001Y-38407865D01*
X44894646Y-38399500D01*
X44705354Y-38399500D01*
X44672897Y-38406398D01*
X44520197Y-38438855D01*
X44520192Y-38438857D01*
X44347270Y-38515848D01*
X44347265Y-38515851D01*
X44194129Y-38627111D01*
X44067466Y-38767785D01*
X43972821Y-38931715D01*
X43972818Y-38931722D01*
X43922338Y-39087086D01*
X43914326Y-39111744D01*
X43894540Y-39300000D01*
X43081858Y-39300000D01*
X43085674Y-39288256D01*
X43105460Y-39100000D01*
X43085674Y-38911744D01*
X43027179Y-38731716D01*
X42932533Y-38567784D01*
X42805871Y-38427112D01*
X42795946Y-38419901D01*
X42652734Y-38315851D01*
X42652729Y-38315848D01*
X42479807Y-38238857D01*
X42479802Y-38238855D01*
X42334001Y-38207865D01*
X42294646Y-38199500D01*
X42105354Y-38199500D01*
X42072897Y-38206398D01*
X41920197Y-38238855D01*
X41920192Y-38238857D01*
X41747270Y-38315848D01*
X41747265Y-38315851D01*
X41594129Y-38427111D01*
X41467466Y-38567785D01*
X41372821Y-38731715D01*
X41372818Y-38731722D01*
X41314327Y-38911740D01*
X41314326Y-38911744D01*
X41294540Y-39100000D01*
X38963956Y-39100000D01*
X38982396Y-39065501D01*
X39036747Y-38886331D01*
X39055099Y-38700000D01*
X39036747Y-38513669D01*
X38982396Y-38334499D01*
X38974767Y-38320226D01*
X38894137Y-38169376D01*
X38894135Y-38169373D01*
X38775357Y-38024642D01*
X38630626Y-37905864D01*
X38630623Y-37905862D01*
X38465502Y-37817604D01*
X38286333Y-37763253D01*
X38286331Y-37763252D01*
X38100000Y-37744901D01*
X37913668Y-37763252D01*
X37913666Y-37763253D01*
X37734497Y-37817604D01*
X37569376Y-37905862D01*
X37569373Y-37905864D01*
X37424642Y-38024642D01*
X37305864Y-38169373D01*
X37305862Y-38169376D01*
X37217604Y-38334497D01*
X37163253Y-38513666D01*
X37163252Y-38513668D01*
X37144901Y-38700000D01*
X32454998Y-38700000D01*
X32454998Y-36237497D01*
X54882251Y-36237497D01*
X54882251Y-36237502D01*
X54901185Y-36405556D01*
X54957045Y-36565194D01*
X54957047Y-36565197D01*
X55047018Y-36708384D01*
X55047023Y-36708390D01*
X55166609Y-36827976D01*
X55166615Y-36827981D01*
X55309802Y-36917952D01*
X55309805Y-36917954D01*
X55309809Y-36917955D01*
X55309810Y-36917956D01*
X55382413Y-36943360D01*
X55469443Y-36973814D01*
X55637497Y-36992749D01*
X55637500Y-36992749D01*
X55637503Y-36992749D01*
X55805556Y-36973814D01*
X55805559Y-36973813D01*
X55965190Y-36917956D01*
X55965192Y-36917954D01*
X55965194Y-36917954D01*
X55965197Y-36917952D01*
X56108384Y-36827981D01*
X56108385Y-36827980D01*
X56108390Y-36827977D01*
X56227977Y-36708390D01*
X56236933Y-36694137D01*
X56317952Y-36565197D01*
X56317954Y-36565194D01*
X56317954Y-36565192D01*
X56317956Y-36565190D01*
X56373813Y-36405559D01*
X56373813Y-36405558D01*
X56373814Y-36405556D01*
X56392749Y-36237502D01*
X56392749Y-36237497D01*
X56373814Y-36069443D01*
X56326594Y-35934497D01*
X56317956Y-35909810D01*
X56317955Y-35909809D01*
X56317954Y-35909805D01*
X56317952Y-35909802D01*
X56311793Y-35900000D01*
X77544901Y-35900000D01*
X77563252Y-36086331D01*
X77563253Y-36086333D01*
X77617604Y-36265502D01*
X77705862Y-36430623D01*
X77705864Y-36430626D01*
X77824642Y-36575357D01*
X77969373Y-36694135D01*
X77969376Y-36694137D01*
X78118731Y-36773968D01*
X78134499Y-36782396D01*
X78284772Y-36827981D01*
X78313666Y-36836746D01*
X78313668Y-36836747D01*
X78330374Y-36838392D01*
X78500000Y-36855099D01*
X78686331Y-36836747D01*
X78865501Y-36782396D01*
X79030625Y-36694136D01*
X79175357Y-36575357D01*
X79294136Y-36430625D01*
X79382396Y-36265501D01*
X79424398Y-36127040D01*
X91594751Y-36127040D01*
X91594751Y-36127045D01*
X91613685Y-36295099D01*
X91669545Y-36454737D01*
X91669547Y-36454740D01*
X91759518Y-36597927D01*
X91759523Y-36597933D01*
X91879109Y-36717519D01*
X91879115Y-36717524D01*
X92022302Y-36807495D01*
X92022305Y-36807497D01*
X92022309Y-36807498D01*
X92022310Y-36807499D01*
X92025214Y-36808515D01*
X92181943Y-36863357D01*
X92349997Y-36882292D01*
X92350000Y-36882292D01*
X92350003Y-36882292D01*
X92518056Y-36863357D01*
X92541659Y-36855098D01*
X92677690Y-36807499D01*
X92731054Y-36773968D01*
X92798291Y-36754967D01*
X92865126Y-36775334D01*
X92902021Y-36812989D01*
X92940028Y-36873476D01*
X92995183Y-36961255D01*
X93122737Y-37088809D01*
X93195218Y-37134352D01*
X93271679Y-37182396D01*
X93275477Y-37184782D01*
X93445744Y-37244361D01*
X93445749Y-37244362D01*
X93624995Y-37264558D01*
X93624999Y-37264558D01*
X93625003Y-37264558D01*
X93804248Y-37244362D01*
X93804251Y-37244361D01*
X93804254Y-37244361D01*
X93974521Y-37184782D01*
X93978319Y-37182396D01*
X94024540Y-37153353D01*
X94091777Y-37134352D01*
X94158612Y-37154719D01*
X94177870Y-37172284D01*
X94178769Y-37171386D01*
X94303279Y-37295896D01*
X94303285Y-37295901D01*
X94446472Y-37385872D01*
X94446475Y-37385874D01*
X94446479Y-37385875D01*
X94446480Y-37385876D01*
X94519083Y-37411280D01*
X94606113Y-37441734D01*
X94774167Y-37460669D01*
X94774170Y-37460669D01*
X94774173Y-37460669D01*
X94942226Y-37441734D01*
X94942229Y-37441733D01*
X95101860Y-37385876D01*
X95101862Y-37385874D01*
X95101864Y-37385874D01*
X95101867Y-37385872D01*
X95245054Y-37295901D01*
X95245055Y-37295900D01*
X95245060Y-37295897D01*
X95364647Y-37176310D01*
X95416281Y-37094136D01*
X95454622Y-37033117D01*
X95454624Y-37033114D01*
X95454624Y-37033112D01*
X95454626Y-37033110D01*
X95510483Y-36873479D01*
X95510483Y-36873478D01*
X95510484Y-36873476D01*
X95529419Y-36705422D01*
X95529419Y-36705417D01*
X95510484Y-36537363D01*
X95454624Y-36377725D01*
X95454622Y-36377722D01*
X95405786Y-36300000D01*
X96444901Y-36300000D01*
X96463252Y-36486331D01*
X96463253Y-36486333D01*
X96517604Y-36665502D01*
X96605862Y-36830623D01*
X96605864Y-36830626D01*
X96724642Y-36975357D01*
X96869373Y-37094135D01*
X96869376Y-37094137D01*
X97023113Y-37176310D01*
X97034499Y-37182396D01*
X97213666Y-37236746D01*
X97213668Y-37236747D01*
X97230374Y-37238392D01*
X97400000Y-37255099D01*
X97586331Y-37236747D01*
X97765501Y-37182396D01*
X97930625Y-37094136D01*
X98075357Y-36975357D01*
X98194136Y-36830625D01*
X98282396Y-36665501D01*
X98336747Y-36486331D01*
X98355099Y-36300000D01*
X98338064Y-36127040D01*
X98336747Y-36113668D01*
X98336746Y-36113666D01*
X98315922Y-36045019D01*
X98282396Y-35934499D01*
X98226101Y-35829177D01*
X98194137Y-35769376D01*
X98194135Y-35769373D01*
X98075357Y-35624642D01*
X97930626Y-35505864D01*
X97930623Y-35505862D01*
X97765502Y-35417604D01*
X97586333Y-35363253D01*
X97586331Y-35363252D01*
X97400000Y-35344901D01*
X97213668Y-35363252D01*
X97213666Y-35363253D01*
X97034497Y-35417604D01*
X96869376Y-35505862D01*
X96869373Y-35505864D01*
X96724642Y-35624642D01*
X96605864Y-35769373D01*
X96605862Y-35769376D01*
X96517604Y-35934497D01*
X96463253Y-36113666D01*
X96463252Y-36113668D01*
X96444901Y-36300000D01*
X95405786Y-36300000D01*
X95364651Y-36234535D01*
X95364646Y-36234529D01*
X95245060Y-36114943D01*
X95245054Y-36114938D01*
X95101867Y-36024967D01*
X95101864Y-36024965D01*
X94942226Y-35969105D01*
X94774173Y-35950171D01*
X94774167Y-35950171D01*
X94606113Y-35969105D01*
X94446475Y-36024965D01*
X94444793Y-36026023D01*
X94443551Y-36026373D01*
X94440208Y-36027984D01*
X94439925Y-36027398D01*
X94377556Y-36045019D01*
X94310721Y-36024649D01*
X94273834Y-35986999D01*
X94254816Y-35956732D01*
X94127261Y-35829177D01*
X93974522Y-35733204D01*
X93804253Y-35673624D01*
X93804248Y-35673623D01*
X93625003Y-35653428D01*
X93624995Y-35653428D01*
X93445749Y-35673623D01*
X93445744Y-35673624D01*
X93275475Y-35733204D01*
X93175006Y-35796334D01*
X93107769Y-35815334D01*
X93040934Y-35794966D01*
X93004041Y-35757313D01*
X92940478Y-35656154D01*
X92820890Y-35536566D01*
X92820884Y-35536561D01*
X92677697Y-35446590D01*
X92677694Y-35446588D01*
X92518056Y-35390728D01*
X92350003Y-35371794D01*
X92349997Y-35371794D01*
X92181943Y-35390728D01*
X92022305Y-35446588D01*
X92022302Y-35446590D01*
X91879115Y-35536561D01*
X91879109Y-35536566D01*
X91759523Y-35656152D01*
X91759518Y-35656158D01*
X91669547Y-35799345D01*
X91669545Y-35799348D01*
X91613685Y-35958986D01*
X91594751Y-36127040D01*
X79424398Y-36127040D01*
X79436747Y-36086331D01*
X79455099Y-35900000D01*
X79436747Y-35713669D01*
X79382396Y-35534499D01*
X79382395Y-35534497D01*
X79294137Y-35369376D01*
X79294135Y-35369373D01*
X79175357Y-35224642D01*
X79030626Y-35105864D01*
X79030623Y-35105862D01*
X78865502Y-35017604D01*
X78686333Y-34963253D01*
X78686331Y-34963252D01*
X78500000Y-34944901D01*
X78313668Y-34963252D01*
X78313666Y-34963253D01*
X78134497Y-35017604D01*
X77969376Y-35105862D01*
X77969373Y-35105864D01*
X77824642Y-35224642D01*
X77705864Y-35369373D01*
X77705862Y-35369376D01*
X77617604Y-35534497D01*
X77563253Y-35713666D01*
X77563252Y-35713668D01*
X77544901Y-35900000D01*
X56311793Y-35900000D01*
X56227981Y-35766615D01*
X56227976Y-35766609D01*
X56108390Y-35647023D01*
X56108384Y-35647018D01*
X55965197Y-35557047D01*
X55965194Y-35557045D01*
X55805556Y-35501185D01*
X55637503Y-35482251D01*
X55637497Y-35482251D01*
X55469443Y-35501185D01*
X55309805Y-35557045D01*
X55309802Y-35557047D01*
X55166615Y-35647018D01*
X55166609Y-35647023D01*
X55047023Y-35766609D01*
X55047018Y-35766615D01*
X54957047Y-35909802D01*
X54957045Y-35909805D01*
X54901185Y-36069443D01*
X54882251Y-36237497D01*
X32454998Y-36237497D01*
X32454998Y-34761023D01*
X32474683Y-34693984D01*
X32527487Y-34648229D01*
X32596645Y-34638285D01*
X32660201Y-34667310D01*
X32685112Y-34696869D01*
X32723894Y-34761023D01*
X32733473Y-34776868D01*
X32934954Y-35034039D01*
X33165960Y-35265045D01*
X33423131Y-35466526D01*
X33423134Y-35466528D01*
X33423137Y-35466530D01*
X33702721Y-35635545D01*
X34000639Y-35769627D01*
X34000652Y-35769631D01*
X34000657Y-35769633D01*
X34312547Y-35866821D01*
X34633896Y-35925710D01*
X34960000Y-35945436D01*
X35286104Y-35925710D01*
X35607453Y-35866821D01*
X35919361Y-35769627D01*
X36217279Y-35635545D01*
X36496863Y-35466530D01*
X36754036Y-35265048D01*
X36985048Y-35034036D01*
X37186530Y-34776863D01*
X37355545Y-34497279D01*
X37489627Y-34199361D01*
X37586821Y-33887453D01*
X37639498Y-33600000D01*
X91444901Y-33600000D01*
X91463252Y-33786331D01*
X91463253Y-33786333D01*
X91517604Y-33965502D01*
X91605862Y-34130623D01*
X91605864Y-34130626D01*
X91724642Y-34275357D01*
X91869373Y-34394135D01*
X91869376Y-34394137D01*
X92034497Y-34482395D01*
X92034499Y-34482396D01*
X92199682Y-34532504D01*
X92213666Y-34536746D01*
X92213668Y-34536747D01*
X92230374Y-34538392D01*
X92400000Y-34555099D01*
X92586331Y-34536747D01*
X92765501Y-34482396D01*
X92930625Y-34394136D01*
X93075357Y-34275357D01*
X93183534Y-34143542D01*
X93241279Y-34104209D01*
X93311124Y-34102338D01*
X93370892Y-34138525D01*
X93401608Y-34201281D01*
X93402319Y-34206297D01*
X93402434Y-34206803D01*
X93458295Y-34366444D01*
X93458297Y-34366447D01*
X93548268Y-34509634D01*
X93548273Y-34509640D01*
X93667859Y-34629226D01*
X93667865Y-34629231D01*
X93811052Y-34719202D01*
X93811055Y-34719204D01*
X93811059Y-34719205D01*
X93811060Y-34719206D01*
X93883663Y-34744610D01*
X93970693Y-34775064D01*
X94138747Y-34793999D01*
X94138750Y-34793999D01*
X94138753Y-34793999D01*
X94306806Y-34775064D01*
X94346933Y-34761023D01*
X94466440Y-34719206D01*
X94466442Y-34719204D01*
X94466444Y-34719204D01*
X94466447Y-34719202D01*
X94609634Y-34629231D01*
X94609635Y-34629230D01*
X94609640Y-34629227D01*
X94729227Y-34509640D01*
X94746346Y-34482396D01*
X94819202Y-34366447D01*
X94819204Y-34366444D01*
X94819204Y-34366442D01*
X94819206Y-34366440D01*
X94875063Y-34206809D01*
X94875063Y-34206808D01*
X94875064Y-34206806D01*
X94893999Y-34038752D01*
X94893999Y-34038747D01*
X94875064Y-33870693D01*
X94819204Y-33711055D01*
X94819202Y-33711052D01*
X94729231Y-33567865D01*
X94729226Y-33567859D01*
X94609640Y-33448273D01*
X94609634Y-33448268D01*
X94466447Y-33358297D01*
X94466444Y-33358295D01*
X94306806Y-33302435D01*
X94138753Y-33283501D01*
X94138747Y-33283501D01*
X93970693Y-33302435D01*
X93811055Y-33358295D01*
X93811052Y-33358297D01*
X93667865Y-33448268D01*
X93554923Y-33561210D01*
X93493600Y-33594694D01*
X93423908Y-33589710D01*
X93367975Y-33547838D01*
X93343839Y-33485682D01*
X93336747Y-33413669D01*
X93282396Y-33234499D01*
X93194136Y-33069375D01*
X93194135Y-33069373D01*
X93075357Y-32924642D01*
X92930626Y-32805864D01*
X92930623Y-32805862D01*
X92765502Y-32717604D01*
X92586333Y-32663253D01*
X92586331Y-32663252D01*
X92400000Y-32644901D01*
X92213668Y-32663252D01*
X92213666Y-32663253D01*
X92034497Y-32717604D01*
X91869376Y-32805862D01*
X91869373Y-32805864D01*
X91724642Y-32924642D01*
X91605864Y-33069373D01*
X91605862Y-33069376D01*
X91517604Y-33234497D01*
X91463253Y-33413666D01*
X91463252Y-33413668D01*
X91444901Y-33600000D01*
X37639498Y-33600000D01*
X37645710Y-33566104D01*
X37665436Y-33240000D01*
X37645710Y-32913896D01*
X37586821Y-32592547D01*
X37489627Y-32280639D01*
X37355545Y-31982721D01*
X37186530Y-31703137D01*
X37186528Y-31703134D01*
X37186526Y-31703131D01*
X36985045Y-31445960D01*
X36754039Y-31214954D01*
X36496868Y-31013473D01*
X36490017Y-31009331D01*
X36342437Y-30920115D01*
X36295251Y-30868589D01*
X36283412Y-30799730D01*
X36310681Y-30735401D01*
X36368400Y-30696027D01*
X36406588Y-30690000D01*
X118213412Y-30690000D01*
X118280451Y-30709685D01*
G37*
%TD.AperFunction*%
%TD*%
M02*
