%TF.GenerationSoftware,KiCad,Pcbnew,8.0.2*%
%TF.CreationDate,2024-06-24T01:17:51+08:00*%
%TF.ProjectId,bldcDriver,626c6463-4472-4697-9665-722e6b696361,rev?*%
%TF.SameCoordinates,Original*%
%TF.FileFunction,Legend,Top*%
%TF.FilePolarity,Positive*%
%FSLAX46Y46*%
G04 Gerber Fmt 4.6, Leading zero omitted, Abs format (unit mm)*
G04 Created by KiCad (PCBNEW 8.0.2) date 2024-06-24 01:17:51*
%MOMM*%
%LPD*%
G01*
G04 APERTURE LIST*
%ADD10C,0.150000*%
%ADD11C,0.100000*%
%ADD12C,0.120000*%
%ADD13C,0.254000*%
%ADD14C,0.152000*%
G04 APERTURE END LIST*
D10*
G36*
X87675727Y-64781290D02*
G01*
X87749936Y-64854080D01*
X87788627Y-64929215D01*
X87833245Y-65102645D01*
X87834387Y-65227417D01*
X87792361Y-65400540D01*
X87753636Y-65480350D01*
X87679359Y-65556076D01*
X87566280Y-65594867D01*
X87411673Y-65595749D01*
X87410464Y-64744398D01*
X87559131Y-64743551D01*
X87675727Y-64781290D01*
G37*
G36*
X88766358Y-64776770D02*
G01*
X88840150Y-64849152D01*
X88880843Y-65007323D01*
X88882146Y-65322077D01*
X88842032Y-65487325D01*
X88771565Y-65559166D01*
X88702119Y-65594928D01*
X88546950Y-65596018D01*
X88478628Y-65562867D01*
X88404835Y-65490485D01*
X88364142Y-65332313D01*
X88362839Y-65017559D01*
X88402953Y-64852311D01*
X88473421Y-64780470D01*
X88542866Y-64744709D01*
X88698035Y-64743619D01*
X88766358Y-64776770D01*
G37*
G36*
X92813977Y-64776770D02*
G01*
X92887769Y-64849152D01*
X92928462Y-65007323D01*
X92929765Y-65322077D01*
X92889651Y-65487325D01*
X92819184Y-65559166D01*
X92749738Y-65594928D01*
X92594569Y-65596018D01*
X92526247Y-65562867D01*
X92452454Y-65490485D01*
X92411761Y-65332313D01*
X92410458Y-65017559D01*
X92450572Y-64852311D01*
X92521040Y-64780470D01*
X92590485Y-64744709D01*
X92745654Y-64743619D01*
X92813977Y-64776770D01*
G37*
G36*
X94628108Y-64781290D02*
G01*
X94702317Y-64854080D01*
X94741008Y-64929215D01*
X94785626Y-65102645D01*
X94786768Y-65227417D01*
X94744742Y-65400540D01*
X94706017Y-65480350D01*
X94631740Y-65556076D01*
X94518661Y-65594867D01*
X94364054Y-65595749D01*
X94362845Y-64744398D01*
X94511512Y-64743551D01*
X94628108Y-64781290D01*
G37*
G36*
X93757555Y-65309406D02*
G01*
X93487515Y-65310199D01*
X93622060Y-64904742D01*
X93757555Y-65309406D01*
G37*
G36*
X95046699Y-65855930D02*
G01*
X87150668Y-65855930D01*
X87150668Y-64669819D01*
X87261779Y-64669819D01*
X87263220Y-65684451D01*
X87274419Y-65711487D01*
X87295111Y-65732179D01*
X87322147Y-65743378D01*
X87336779Y-65744819D01*
X87573548Y-65743468D01*
X87584254Y-65744230D01*
X87587962Y-65743386D01*
X87589506Y-65743378D01*
X87591337Y-65742619D01*
X87598591Y-65740970D01*
X87730381Y-65695759D01*
X87732363Y-65695759D01*
X87741915Y-65691802D01*
X87754873Y-65687357D01*
X87756908Y-65685591D01*
X87759399Y-65684560D01*
X87770764Y-65675233D01*
X87864696Y-65579468D01*
X87872219Y-65572945D01*
X87874231Y-65569748D01*
X87875330Y-65568628D01*
X87876087Y-65566798D01*
X87880051Y-65560502D01*
X87924319Y-65469269D01*
X87928402Y-65463759D01*
X87932337Y-65452743D01*
X87932925Y-65451533D01*
X87932963Y-65450992D01*
X87933349Y-65449913D01*
X87978589Y-65263547D01*
X87981766Y-65255879D01*
X87982663Y-65246764D01*
X87983118Y-65244893D01*
X87982955Y-65243800D01*
X87983207Y-65241247D01*
X87981939Y-65102667D01*
X87983118Y-65094744D01*
X87981783Y-65085719D01*
X87981766Y-65083758D01*
X87981343Y-65082736D01*
X87980968Y-65080200D01*
X87961146Y-65003152D01*
X88214160Y-65003152D01*
X88215520Y-65331588D01*
X88214249Y-65340131D01*
X88215593Y-65349223D01*
X88215601Y-65351117D01*
X88216023Y-65352138D01*
X88216399Y-65354675D01*
X88263220Y-65536666D01*
X88263220Y-65541592D01*
X88266564Y-65549667D01*
X88268965Y-65558997D01*
X88272284Y-65563476D01*
X88274418Y-65568628D01*
X88283746Y-65579994D01*
X88379513Y-65673932D01*
X88386033Y-65681450D01*
X88389226Y-65683460D01*
X88390349Y-65684561D01*
X88392181Y-65685319D01*
X88398476Y-65689282D01*
X88484365Y-65730957D01*
X88485587Y-65732179D01*
X88494446Y-65735848D01*
X88507445Y-65742156D01*
X88510134Y-65742347D01*
X88512623Y-65743378D01*
X88527255Y-65744819D01*
X88706342Y-65743560D01*
X88708350Y-65744230D01*
X88719022Y-65743471D01*
X88732363Y-65743378D01*
X88734852Y-65742346D01*
X88737540Y-65742156D01*
X88751272Y-65736901D01*
X88845826Y-65688209D01*
X88854637Y-65684560D01*
X88857539Y-65682177D01*
X88858953Y-65681450D01*
X88860252Y-65679951D01*
X88866002Y-65675233D01*
X88954597Y-65584909D01*
X88958599Y-65582509D01*
X88963684Y-65575645D01*
X88970568Y-65568628D01*
X88972701Y-65563476D01*
X88976021Y-65558997D01*
X88980968Y-65545151D01*
X89026208Y-65358785D01*
X89029385Y-65351117D01*
X89030282Y-65342002D01*
X89030737Y-65340131D01*
X89030574Y-65339038D01*
X89030826Y-65336485D01*
X89029465Y-65008048D01*
X89030737Y-64999506D01*
X89029392Y-64990413D01*
X89029385Y-64988520D01*
X89028962Y-64987498D01*
X89028587Y-64984962D01*
X88981766Y-64802970D01*
X88981766Y-64798045D01*
X88978420Y-64789968D01*
X88976021Y-64780640D01*
X88972702Y-64776161D01*
X88970568Y-64771008D01*
X88961240Y-64759643D01*
X88872524Y-64672623D01*
X89214212Y-64672623D01*
X89216200Y-64687191D01*
X89454862Y-65683466D01*
X89456264Y-65694012D01*
X89458183Y-65697327D01*
X89459085Y-65701091D01*
X89465471Y-65709915D01*
X89470926Y-65719337D01*
X89473983Y-65721677D01*
X89476242Y-65724798D01*
X89485517Y-65730505D01*
X89494164Y-65737124D01*
X89497884Y-65738116D01*
X89501164Y-65740134D01*
X89511918Y-65741858D01*
X89522440Y-65744664D01*
X89526255Y-65744157D01*
X89530059Y-65744767D01*
X89540657Y-65742243D01*
X89551448Y-65740810D01*
X89554779Y-65738881D01*
X89558527Y-65737989D01*
X89567351Y-65731602D01*
X89576773Y-65726148D01*
X89579113Y-65723090D01*
X89582234Y-65720832D01*
X89587941Y-65711556D01*
X89594560Y-65702910D01*
X89596585Y-65697510D01*
X89597570Y-65695910D01*
X89597857Y-65694118D01*
X89599723Y-65689144D01*
X89717550Y-65243870D01*
X89836222Y-65685495D01*
X89837892Y-65695910D01*
X89839895Y-65699166D01*
X89840902Y-65702911D01*
X89847522Y-65711559D01*
X89853228Y-65720832D01*
X89856348Y-65723090D01*
X89858689Y-65726148D01*
X89868110Y-65731602D01*
X89876935Y-65737989D01*
X89880682Y-65738881D01*
X89884014Y-65740810D01*
X89894807Y-65742244D01*
X89905403Y-65744767D01*
X89909204Y-65744157D01*
X89913023Y-65744665D01*
X89923554Y-65741856D01*
X89934298Y-65740134D01*
X89937574Y-65738118D01*
X89941298Y-65737125D01*
X89949948Y-65730503D01*
X89959220Y-65724798D01*
X89961478Y-65721677D01*
X89964536Y-65719337D01*
X89969991Y-65709914D01*
X89976377Y-65701091D01*
X89978254Y-65695642D01*
X89979198Y-65694013D01*
X89979437Y-65692209D01*
X89981167Y-65687191D01*
X90221251Y-64672623D01*
X90220801Y-64669819D01*
X90452255Y-64669819D01*
X90453696Y-65684451D01*
X90464895Y-65711487D01*
X90485587Y-65732179D01*
X90512623Y-65743378D01*
X90541887Y-65743378D01*
X90568923Y-65732179D01*
X90589615Y-65711487D01*
X90600814Y-65684451D01*
X90602255Y-65669819D01*
X90601232Y-64949749D01*
X91032579Y-65702448D01*
X91036323Y-65711487D01*
X91039685Y-65714849D01*
X91042075Y-65719019D01*
X91049963Y-65725127D01*
X91057015Y-65732179D01*
X91061433Y-65734009D01*
X91065213Y-65736936D01*
X91074834Y-65739560D01*
X91084051Y-65743378D01*
X91088832Y-65743378D01*
X91093444Y-65744636D01*
X91103341Y-65743378D01*
X91113315Y-65743378D01*
X91117730Y-65741548D01*
X91122474Y-65740946D01*
X91131138Y-65735995D01*
X91140351Y-65732179D01*
X91143729Y-65728800D01*
X91147883Y-65726427D01*
X91153992Y-65718537D01*
X91161043Y-65711487D01*
X91162872Y-65707070D01*
X91165800Y-65703290D01*
X91168424Y-65693666D01*
X91172242Y-65684451D01*
X91172978Y-65676968D01*
X91173500Y-65675058D01*
X91173312Y-65673582D01*
X91173683Y-65669819D01*
X91172263Y-64669819D01*
X91499874Y-64669819D01*
X91501315Y-65684451D01*
X91512514Y-65711487D01*
X91533206Y-65732179D01*
X91560242Y-65743378D01*
X91574874Y-65744819D01*
X92065696Y-65743378D01*
X92092732Y-65732179D01*
X92113424Y-65711487D01*
X92124623Y-65684451D01*
X92124623Y-65655187D01*
X92113424Y-65628151D01*
X92092732Y-65607459D01*
X92065696Y-65596260D01*
X92051064Y-65594819D01*
X91649769Y-65595997D01*
X91648927Y-65003152D01*
X92261779Y-65003152D01*
X92263139Y-65331588D01*
X92261868Y-65340131D01*
X92263212Y-65349223D01*
X92263220Y-65351117D01*
X92263642Y-65352138D01*
X92264018Y-65354675D01*
X92310839Y-65536666D01*
X92310839Y-65541592D01*
X92314183Y-65549667D01*
X92316584Y-65558997D01*
X92319903Y-65563476D01*
X92322037Y-65568628D01*
X92331365Y-65579994D01*
X92427132Y-65673932D01*
X92433652Y-65681450D01*
X92436845Y-65683460D01*
X92437968Y-65684561D01*
X92439800Y-65685319D01*
X92446095Y-65689282D01*
X92531984Y-65730957D01*
X92533206Y-65732179D01*
X92542065Y-65735848D01*
X92555064Y-65742156D01*
X92557753Y-65742347D01*
X92560242Y-65743378D01*
X92574874Y-65744819D01*
X92753961Y-65743560D01*
X92755969Y-65744230D01*
X92766641Y-65743471D01*
X92779982Y-65743378D01*
X92782471Y-65742346D01*
X92785159Y-65742156D01*
X92798891Y-65736901D01*
X92893445Y-65688209D01*
X92902256Y-65684560D01*
X92905158Y-65682177D01*
X92906572Y-65681450D01*
X92907871Y-65679951D01*
X92913621Y-65675233D01*
X92928132Y-65660439D01*
X93214749Y-65660439D01*
X93216824Y-65689629D01*
X93229910Y-65715802D01*
X93252017Y-65734976D01*
X93279780Y-65744230D01*
X93308970Y-65742155D01*
X93335143Y-65729069D01*
X93354317Y-65706962D01*
X93360311Y-65693536D01*
X93438156Y-65458946D01*
X93807262Y-65457862D01*
X93890669Y-65706961D01*
X93909843Y-65729068D01*
X93936016Y-65742155D01*
X93965206Y-65744230D01*
X93992968Y-65734976D01*
X94015076Y-65715802D01*
X94028162Y-65689628D01*
X94030237Y-65660438D01*
X94026977Y-65646102D01*
X93700086Y-64669819D01*
X94214160Y-64669819D01*
X94215601Y-65684451D01*
X94226800Y-65711487D01*
X94247492Y-65732179D01*
X94274528Y-65743378D01*
X94289160Y-65744819D01*
X94525929Y-65743468D01*
X94536635Y-65744230D01*
X94540343Y-65743386D01*
X94541887Y-65743378D01*
X94543718Y-65742619D01*
X94550972Y-65740970D01*
X94682762Y-65695759D01*
X94684744Y-65695759D01*
X94694296Y-65691802D01*
X94707254Y-65687357D01*
X94709289Y-65685591D01*
X94711780Y-65684560D01*
X94723145Y-65675233D01*
X94817077Y-65579468D01*
X94824600Y-65572945D01*
X94826612Y-65569748D01*
X94827711Y-65568628D01*
X94828468Y-65566798D01*
X94832432Y-65560502D01*
X94876700Y-65469269D01*
X94880783Y-65463759D01*
X94884718Y-65452743D01*
X94885306Y-65451533D01*
X94885344Y-65450992D01*
X94885730Y-65449913D01*
X94930970Y-65263547D01*
X94934147Y-65255879D01*
X94935044Y-65246764D01*
X94935499Y-65244893D01*
X94935336Y-65243800D01*
X94935588Y-65241247D01*
X94934320Y-65102667D01*
X94935499Y-65094744D01*
X94934164Y-65085719D01*
X94934147Y-65083758D01*
X94933724Y-65082736D01*
X94933349Y-65080200D01*
X94885831Y-64895501D01*
X94885306Y-64888104D01*
X94881102Y-64877121D01*
X94880783Y-64875878D01*
X94880460Y-64875442D01*
X94880051Y-64874373D01*
X94831362Y-64779823D01*
X94827711Y-64771008D01*
X94825326Y-64768102D01*
X94824600Y-64766692D01*
X94823103Y-64765393D01*
X94818383Y-64759643D01*
X94730212Y-64673158D01*
X94729361Y-64671455D01*
X94721718Y-64664826D01*
X94711780Y-64655078D01*
X94709289Y-64654046D01*
X94707254Y-64652281D01*
X94693829Y-64646287D01*
X94551250Y-64600138D01*
X94541887Y-64596260D01*
X94538121Y-64595889D01*
X94536635Y-64595408D01*
X94534660Y-64595548D01*
X94527255Y-64594819D01*
X94274528Y-64596260D01*
X94247492Y-64607459D01*
X94226800Y-64628151D01*
X94215601Y-64655187D01*
X94214160Y-64669819D01*
X93700086Y-64669819D01*
X93695199Y-64655223D01*
X93694829Y-64650010D01*
X93690665Y-64641683D01*
X93687650Y-64632676D01*
X93684138Y-64628627D01*
X93681743Y-64623836D01*
X93674639Y-64617674D01*
X93668476Y-64610569D01*
X93663682Y-64608172D01*
X93659635Y-64604662D01*
X93650713Y-64601688D01*
X93642303Y-64597483D01*
X93636958Y-64597103D01*
X93631873Y-64595408D01*
X93622493Y-64596074D01*
X93613113Y-64595408D01*
X93608027Y-64597103D01*
X93602683Y-64597483D01*
X93594275Y-64601687D01*
X93585350Y-64604662D01*
X93581299Y-64608175D01*
X93576510Y-64610570D01*
X93570351Y-64617670D01*
X93563243Y-64623836D01*
X93560846Y-64628629D01*
X93557336Y-64632677D01*
X93551342Y-64646102D01*
X93313167Y-65363850D01*
X93310839Y-65369472D01*
X93310839Y-65370867D01*
X93214749Y-65660439D01*
X92928132Y-65660439D01*
X93002216Y-65584909D01*
X93006218Y-65582509D01*
X93011303Y-65575645D01*
X93018187Y-65568628D01*
X93020320Y-65563476D01*
X93023640Y-65558997D01*
X93028587Y-65545151D01*
X93073827Y-65358785D01*
X93077004Y-65351117D01*
X93077901Y-65342002D01*
X93078356Y-65340131D01*
X93078193Y-65339038D01*
X93078445Y-65336485D01*
X93077084Y-65008048D01*
X93078356Y-64999506D01*
X93077011Y-64990413D01*
X93077004Y-64988520D01*
X93076581Y-64987498D01*
X93076206Y-64984962D01*
X93029385Y-64802970D01*
X93029385Y-64798045D01*
X93026039Y-64789968D01*
X93023640Y-64780640D01*
X93020321Y-64776161D01*
X93018187Y-64771008D01*
X93008859Y-64759643D01*
X92913096Y-64665711D01*
X92906572Y-64658188D01*
X92903375Y-64656175D01*
X92902256Y-64655078D01*
X92900428Y-64654320D01*
X92894129Y-64650356D01*
X92808240Y-64608681D01*
X92807018Y-64607459D01*
X92798152Y-64603786D01*
X92785159Y-64597482D01*
X92782471Y-64597291D01*
X92779982Y-64596260D01*
X92765350Y-64594819D01*
X92586261Y-64596077D01*
X92584254Y-64595408D01*
X92573581Y-64596166D01*
X92560242Y-64596260D01*
X92557753Y-64597290D01*
X92555064Y-64597482D01*
X92541333Y-64602737D01*
X92446783Y-64651425D01*
X92437968Y-64655077D01*
X92435062Y-64657461D01*
X92433652Y-64658188D01*
X92432353Y-64659684D01*
X92426603Y-64664405D01*
X92338007Y-64754726D01*
X92334006Y-64757128D01*
X92328919Y-64763991D01*
X92322038Y-64771008D01*
X92319904Y-64776158D01*
X92316584Y-64780640D01*
X92311637Y-64794486D01*
X92266396Y-64980851D01*
X92263220Y-64988520D01*
X92262322Y-64997634D01*
X92261868Y-64999506D01*
X92262030Y-65000598D01*
X92261779Y-65003152D01*
X91648927Y-65003152D01*
X91648433Y-64655187D01*
X91637234Y-64628151D01*
X91616542Y-64607459D01*
X91589506Y-64596260D01*
X91560242Y-64596260D01*
X91533206Y-64607459D01*
X91512514Y-64628151D01*
X91501315Y-64655187D01*
X91499874Y-64669819D01*
X91172263Y-64669819D01*
X91172242Y-64655187D01*
X91161043Y-64628151D01*
X91140351Y-64607459D01*
X91113315Y-64596260D01*
X91084051Y-64596260D01*
X91057015Y-64607459D01*
X91036323Y-64628151D01*
X91025124Y-64655187D01*
X91023683Y-64669819D01*
X91024705Y-65389888D01*
X90593358Y-64637189D01*
X90589615Y-64628151D01*
X90586252Y-64624788D01*
X90583863Y-64620619D01*
X90575973Y-64614509D01*
X90568923Y-64607459D01*
X90564506Y-64605629D01*
X90560726Y-64602702D01*
X90551102Y-64600077D01*
X90541887Y-64596260D01*
X90537106Y-64596260D01*
X90532494Y-64595002D01*
X90522597Y-64596260D01*
X90512623Y-64596260D01*
X90508207Y-64598089D01*
X90503464Y-64598692D01*
X90494799Y-64603642D01*
X90485587Y-64607459D01*
X90482208Y-64610837D01*
X90478055Y-64613211D01*
X90471945Y-64621100D01*
X90464895Y-64628151D01*
X90463065Y-64632567D01*
X90460138Y-64636348D01*
X90457513Y-64645971D01*
X90453696Y-64655187D01*
X90452959Y-64662669D01*
X90452438Y-64664580D01*
X90452625Y-64666055D01*
X90452255Y-64669819D01*
X90220801Y-64669819D01*
X90216618Y-64643728D01*
X90201282Y-64618806D01*
X90177575Y-64601650D01*
X90149107Y-64594871D01*
X90120212Y-64599504D01*
X90095290Y-64614840D01*
X90078133Y-64638547D01*
X90073343Y-64652448D01*
X89904366Y-65366521D01*
X89789988Y-64940872D01*
X89788722Y-64931339D01*
X89786304Y-64927164D01*
X89785036Y-64922442D01*
X89779021Y-64914583D01*
X89774060Y-64906015D01*
X89770201Y-64903061D01*
X89767249Y-64899204D01*
X89758684Y-64894245D01*
X89750822Y-64888227D01*
X89746125Y-64886974D01*
X89741924Y-64884542D01*
X89732117Y-64883239D01*
X89722547Y-64880687D01*
X89717728Y-64881327D01*
X89712916Y-64880688D01*
X89703355Y-64883237D01*
X89693538Y-64884542D01*
X89689332Y-64886976D01*
X89684640Y-64888228D01*
X89676780Y-64894243D01*
X89668213Y-64899204D01*
X89665259Y-64903062D01*
X89661402Y-64906015D01*
X89656443Y-64914580D01*
X89650426Y-64922441D01*
X89647729Y-64929630D01*
X89646740Y-64931340D01*
X89646548Y-64932779D01*
X89645263Y-64936208D01*
X89531565Y-65365875D01*
X89357330Y-64638547D01*
X89340173Y-64614840D01*
X89315251Y-64599504D01*
X89286356Y-64594871D01*
X89257888Y-64601649D01*
X89234181Y-64618806D01*
X89218845Y-64643728D01*
X89214212Y-64672623D01*
X88872524Y-64672623D01*
X88865477Y-64665711D01*
X88858953Y-64658188D01*
X88855756Y-64656175D01*
X88854637Y-64655078D01*
X88852809Y-64654320D01*
X88846510Y-64650356D01*
X88760621Y-64608681D01*
X88759399Y-64607459D01*
X88750533Y-64603786D01*
X88737540Y-64597482D01*
X88734852Y-64597291D01*
X88732363Y-64596260D01*
X88717731Y-64594819D01*
X88538642Y-64596077D01*
X88536635Y-64595408D01*
X88525962Y-64596166D01*
X88512623Y-64596260D01*
X88510134Y-64597290D01*
X88507445Y-64597482D01*
X88493714Y-64602737D01*
X88399164Y-64651425D01*
X88390349Y-64655077D01*
X88387443Y-64657461D01*
X88386033Y-64658188D01*
X88384734Y-64659684D01*
X88378984Y-64664405D01*
X88290388Y-64754726D01*
X88286387Y-64757128D01*
X88281300Y-64763991D01*
X88274419Y-64771008D01*
X88272285Y-64776158D01*
X88268965Y-64780640D01*
X88264018Y-64794486D01*
X88218777Y-64980851D01*
X88215601Y-64988520D01*
X88214703Y-64997634D01*
X88214249Y-64999506D01*
X88214411Y-65000598D01*
X88214160Y-65003152D01*
X87961146Y-65003152D01*
X87933450Y-64895501D01*
X87932925Y-64888104D01*
X87928721Y-64877121D01*
X87928402Y-64875878D01*
X87928079Y-64875442D01*
X87927670Y-64874373D01*
X87878981Y-64779823D01*
X87875330Y-64771008D01*
X87872945Y-64768102D01*
X87872219Y-64766692D01*
X87870722Y-64765393D01*
X87866002Y-64759643D01*
X87777831Y-64673158D01*
X87776980Y-64671455D01*
X87769337Y-64664826D01*
X87759399Y-64655078D01*
X87756908Y-64654046D01*
X87754873Y-64652281D01*
X87741448Y-64646287D01*
X87598869Y-64600138D01*
X87589506Y-64596260D01*
X87585740Y-64595889D01*
X87584254Y-64595408D01*
X87582279Y-64595548D01*
X87574874Y-64594819D01*
X87322147Y-64596260D01*
X87295111Y-64607459D01*
X87274419Y-64628151D01*
X87263220Y-64655187D01*
X87261779Y-64669819D01*
X87150668Y-64669819D01*
X87150668Y-64483708D01*
X95046699Y-64483708D01*
X95046699Y-65855930D01*
G37*
X81908207Y-33469819D02*
X81574874Y-32993628D01*
X81336779Y-33469819D02*
X81336779Y-32469819D01*
X81336779Y-32469819D02*
X81717731Y-32469819D01*
X81717731Y-32469819D02*
X81812969Y-32517438D01*
X81812969Y-32517438D02*
X81860588Y-32565057D01*
X81860588Y-32565057D02*
X81908207Y-32660295D01*
X81908207Y-32660295D02*
X81908207Y-32803152D01*
X81908207Y-32803152D02*
X81860588Y-32898390D01*
X81860588Y-32898390D02*
X81812969Y-32946009D01*
X81812969Y-32946009D02*
X81717731Y-32993628D01*
X81717731Y-32993628D02*
X81336779Y-32993628D01*
X82336779Y-32946009D02*
X82670112Y-32946009D01*
X82812969Y-33469819D02*
X82336779Y-33469819D01*
X82336779Y-33469819D02*
X82336779Y-32469819D01*
X82336779Y-32469819D02*
X82812969Y-32469819D01*
X83193922Y-33422200D02*
X83336779Y-33469819D01*
X83336779Y-33469819D02*
X83574874Y-33469819D01*
X83574874Y-33469819D02*
X83670112Y-33422200D01*
X83670112Y-33422200D02*
X83717731Y-33374580D01*
X83717731Y-33374580D02*
X83765350Y-33279342D01*
X83765350Y-33279342D02*
X83765350Y-33184104D01*
X83765350Y-33184104D02*
X83717731Y-33088866D01*
X83717731Y-33088866D02*
X83670112Y-33041247D01*
X83670112Y-33041247D02*
X83574874Y-32993628D01*
X83574874Y-32993628D02*
X83384398Y-32946009D01*
X83384398Y-32946009D02*
X83289160Y-32898390D01*
X83289160Y-32898390D02*
X83241541Y-32850771D01*
X83241541Y-32850771D02*
X83193922Y-32755533D01*
X83193922Y-32755533D02*
X83193922Y-32660295D01*
X83193922Y-32660295D02*
X83241541Y-32565057D01*
X83241541Y-32565057D02*
X83289160Y-32517438D01*
X83289160Y-32517438D02*
X83384398Y-32469819D01*
X83384398Y-32469819D02*
X83622493Y-32469819D01*
X83622493Y-32469819D02*
X83765350Y-32517438D01*
X84193922Y-32946009D02*
X84527255Y-32946009D01*
X84670112Y-33469819D02*
X84193922Y-33469819D01*
X84193922Y-33469819D02*
X84193922Y-32469819D01*
X84193922Y-32469819D02*
X84670112Y-32469819D01*
X84955827Y-32469819D02*
X85527255Y-32469819D01*
X85241541Y-33469819D02*
X85241541Y-32469819D01*
X63889160Y-42622200D02*
X64032017Y-42669819D01*
X64032017Y-42669819D02*
X64270112Y-42669819D01*
X64270112Y-42669819D02*
X64365350Y-42622200D01*
X64365350Y-42622200D02*
X64412969Y-42574580D01*
X64412969Y-42574580D02*
X64460588Y-42479342D01*
X64460588Y-42479342D02*
X64460588Y-42384104D01*
X64460588Y-42384104D02*
X64412969Y-42288866D01*
X64412969Y-42288866D02*
X64365350Y-42241247D01*
X64365350Y-42241247D02*
X64270112Y-42193628D01*
X64270112Y-42193628D02*
X64079636Y-42146009D01*
X64079636Y-42146009D02*
X63984398Y-42098390D01*
X63984398Y-42098390D02*
X63936779Y-42050771D01*
X63936779Y-42050771D02*
X63889160Y-41955533D01*
X63889160Y-41955533D02*
X63889160Y-41860295D01*
X63889160Y-41860295D02*
X63936779Y-41765057D01*
X63936779Y-41765057D02*
X63984398Y-41717438D01*
X63984398Y-41717438D02*
X64079636Y-41669819D01*
X64079636Y-41669819D02*
X64317731Y-41669819D01*
X64317731Y-41669819D02*
X64460588Y-41717438D01*
X64889160Y-42669819D02*
X64889160Y-41669819D01*
X64889160Y-41669819D02*
X65270112Y-41669819D01*
X65270112Y-41669819D02*
X65365350Y-41717438D01*
X65365350Y-41717438D02*
X65412969Y-41765057D01*
X65412969Y-41765057D02*
X65460588Y-41860295D01*
X65460588Y-41860295D02*
X65460588Y-42003152D01*
X65460588Y-42003152D02*
X65412969Y-42098390D01*
X65412969Y-42098390D02*
X65365350Y-42146009D01*
X65365350Y-42146009D02*
X65270112Y-42193628D01*
X65270112Y-42193628D02*
X64889160Y-42193628D01*
X65889160Y-42669819D02*
X65889160Y-41669819D01*
X66270112Y-41669819D02*
X66889159Y-41669819D01*
X66889159Y-41669819D02*
X66555826Y-42050771D01*
X66555826Y-42050771D02*
X66698683Y-42050771D01*
X66698683Y-42050771D02*
X66793921Y-42098390D01*
X66793921Y-42098390D02*
X66841540Y-42146009D01*
X66841540Y-42146009D02*
X66889159Y-42241247D01*
X66889159Y-42241247D02*
X66889159Y-42479342D01*
X66889159Y-42479342D02*
X66841540Y-42574580D01*
X66841540Y-42574580D02*
X66793921Y-42622200D01*
X66793921Y-42622200D02*
X66698683Y-42669819D01*
X66698683Y-42669819D02*
X66412969Y-42669819D01*
X66412969Y-42669819D02*
X66317731Y-42622200D01*
X66317731Y-42622200D02*
X66270112Y-42574580D01*
X67079636Y-42765057D02*
X67841540Y-42765057D01*
X68079636Y-42669819D02*
X68079636Y-41669819D01*
X68079636Y-41669819D02*
X68412969Y-42384104D01*
X68412969Y-42384104D02*
X68746302Y-41669819D01*
X68746302Y-41669819D02*
X68746302Y-42669819D01*
X69412969Y-41669819D02*
X69603445Y-41669819D01*
X69603445Y-41669819D02*
X69698683Y-41717438D01*
X69698683Y-41717438D02*
X69793921Y-41812676D01*
X69793921Y-41812676D02*
X69841540Y-42003152D01*
X69841540Y-42003152D02*
X69841540Y-42336485D01*
X69841540Y-42336485D02*
X69793921Y-42526961D01*
X69793921Y-42526961D02*
X69698683Y-42622200D01*
X69698683Y-42622200D02*
X69603445Y-42669819D01*
X69603445Y-42669819D02*
X69412969Y-42669819D01*
X69412969Y-42669819D02*
X69317731Y-42622200D01*
X69317731Y-42622200D02*
X69222493Y-42526961D01*
X69222493Y-42526961D02*
X69174874Y-42336485D01*
X69174874Y-42336485D02*
X69174874Y-42003152D01*
X69174874Y-42003152D02*
X69222493Y-41812676D01*
X69222493Y-41812676D02*
X69317731Y-41717438D01*
X69317731Y-41717438D02*
X69412969Y-41669819D01*
X70222493Y-42622200D02*
X70365350Y-42669819D01*
X70365350Y-42669819D02*
X70603445Y-42669819D01*
X70603445Y-42669819D02*
X70698683Y-42622200D01*
X70698683Y-42622200D02*
X70746302Y-42574580D01*
X70746302Y-42574580D02*
X70793921Y-42479342D01*
X70793921Y-42479342D02*
X70793921Y-42384104D01*
X70793921Y-42384104D02*
X70746302Y-42288866D01*
X70746302Y-42288866D02*
X70698683Y-42241247D01*
X70698683Y-42241247D02*
X70603445Y-42193628D01*
X70603445Y-42193628D02*
X70412969Y-42146009D01*
X70412969Y-42146009D02*
X70317731Y-42098390D01*
X70317731Y-42098390D02*
X70270112Y-42050771D01*
X70270112Y-42050771D02*
X70222493Y-41955533D01*
X70222493Y-41955533D02*
X70222493Y-41860295D01*
X70222493Y-41860295D02*
X70270112Y-41765057D01*
X70270112Y-41765057D02*
X70317731Y-41717438D01*
X70317731Y-41717438D02*
X70412969Y-41669819D01*
X70412969Y-41669819D02*
X70651064Y-41669819D01*
X70651064Y-41669819D02*
X70793921Y-41717438D01*
X71222493Y-42669819D02*
X71222493Y-41669819D01*
X65936779Y-47069819D02*
X65936779Y-46069819D01*
X65936779Y-46069819D02*
X66508207Y-47069819D01*
X66508207Y-47069819D02*
X66508207Y-46069819D01*
X66936779Y-47022200D02*
X67079636Y-47069819D01*
X67079636Y-47069819D02*
X67317731Y-47069819D01*
X67317731Y-47069819D02*
X67412969Y-47022200D01*
X67412969Y-47022200D02*
X67460588Y-46974580D01*
X67460588Y-46974580D02*
X67508207Y-46879342D01*
X67508207Y-46879342D02*
X67508207Y-46784104D01*
X67508207Y-46784104D02*
X67460588Y-46688866D01*
X67460588Y-46688866D02*
X67412969Y-46641247D01*
X67412969Y-46641247D02*
X67317731Y-46593628D01*
X67317731Y-46593628D02*
X67127255Y-46546009D01*
X67127255Y-46546009D02*
X67032017Y-46498390D01*
X67032017Y-46498390D02*
X66984398Y-46450771D01*
X66984398Y-46450771D02*
X66936779Y-46355533D01*
X66936779Y-46355533D02*
X66936779Y-46260295D01*
X66936779Y-46260295D02*
X66984398Y-46165057D01*
X66984398Y-46165057D02*
X67032017Y-46117438D01*
X67032017Y-46117438D02*
X67127255Y-46069819D01*
X67127255Y-46069819D02*
X67365350Y-46069819D01*
X67365350Y-46069819D02*
X67508207Y-46117438D01*
X67889160Y-47022200D02*
X68032017Y-47069819D01*
X68032017Y-47069819D02*
X68270112Y-47069819D01*
X68270112Y-47069819D02*
X68365350Y-47022200D01*
X68365350Y-47022200D02*
X68412969Y-46974580D01*
X68412969Y-46974580D02*
X68460588Y-46879342D01*
X68460588Y-46879342D02*
X68460588Y-46784104D01*
X68460588Y-46784104D02*
X68412969Y-46688866D01*
X68412969Y-46688866D02*
X68365350Y-46641247D01*
X68365350Y-46641247D02*
X68270112Y-46593628D01*
X68270112Y-46593628D02*
X68079636Y-46546009D01*
X68079636Y-46546009D02*
X67984398Y-46498390D01*
X67984398Y-46498390D02*
X67936779Y-46450771D01*
X67936779Y-46450771D02*
X67889160Y-46355533D01*
X67889160Y-46355533D02*
X67889160Y-46260295D01*
X67889160Y-46260295D02*
X67936779Y-46165057D01*
X67936779Y-46165057D02*
X67984398Y-46117438D01*
X67984398Y-46117438D02*
X68079636Y-46069819D01*
X68079636Y-46069819D02*
X68317731Y-46069819D01*
X68317731Y-46069819D02*
X68460588Y-46117438D01*
X69412969Y-47069819D02*
X68841541Y-47069819D01*
X69127255Y-47069819D02*
X69127255Y-46069819D01*
X69127255Y-46069819D02*
X69032017Y-46212676D01*
X69032017Y-46212676D02*
X68936779Y-46307914D01*
X68936779Y-46307914D02*
X68841541Y-46355533D01*
X86889160Y-50422200D02*
X87032017Y-50469819D01*
X87032017Y-50469819D02*
X87270112Y-50469819D01*
X87270112Y-50469819D02*
X87365350Y-50422200D01*
X87365350Y-50422200D02*
X87412969Y-50374580D01*
X87412969Y-50374580D02*
X87460588Y-50279342D01*
X87460588Y-50279342D02*
X87460588Y-50184104D01*
X87460588Y-50184104D02*
X87412969Y-50088866D01*
X87412969Y-50088866D02*
X87365350Y-50041247D01*
X87365350Y-50041247D02*
X87270112Y-49993628D01*
X87270112Y-49993628D02*
X87079636Y-49946009D01*
X87079636Y-49946009D02*
X86984398Y-49898390D01*
X86984398Y-49898390D02*
X86936779Y-49850771D01*
X86936779Y-49850771D02*
X86889160Y-49755533D01*
X86889160Y-49755533D02*
X86889160Y-49660295D01*
X86889160Y-49660295D02*
X86936779Y-49565057D01*
X86936779Y-49565057D02*
X86984398Y-49517438D01*
X86984398Y-49517438D02*
X87079636Y-49469819D01*
X87079636Y-49469819D02*
X87317731Y-49469819D01*
X87317731Y-49469819D02*
X87460588Y-49517438D01*
X87889160Y-50469819D02*
X87889160Y-49469819D01*
X87889160Y-49469819D02*
X88270112Y-49469819D01*
X88270112Y-49469819D02*
X88365350Y-49517438D01*
X88365350Y-49517438D02*
X88412969Y-49565057D01*
X88412969Y-49565057D02*
X88460588Y-49660295D01*
X88460588Y-49660295D02*
X88460588Y-49803152D01*
X88460588Y-49803152D02*
X88412969Y-49898390D01*
X88412969Y-49898390D02*
X88365350Y-49946009D01*
X88365350Y-49946009D02*
X88270112Y-49993628D01*
X88270112Y-49993628D02*
X87889160Y-49993628D01*
X88889160Y-50469819D02*
X88889160Y-49469819D01*
X89270112Y-49469819D02*
X89889159Y-49469819D01*
X89889159Y-49469819D02*
X89555826Y-49850771D01*
X89555826Y-49850771D02*
X89698683Y-49850771D01*
X89698683Y-49850771D02*
X89793921Y-49898390D01*
X89793921Y-49898390D02*
X89841540Y-49946009D01*
X89841540Y-49946009D02*
X89889159Y-50041247D01*
X89889159Y-50041247D02*
X89889159Y-50279342D01*
X89889159Y-50279342D02*
X89841540Y-50374580D01*
X89841540Y-50374580D02*
X89793921Y-50422200D01*
X89793921Y-50422200D02*
X89698683Y-50469819D01*
X89698683Y-50469819D02*
X89412969Y-50469819D01*
X89412969Y-50469819D02*
X89317731Y-50422200D01*
X89317731Y-50422200D02*
X89270112Y-50374580D01*
X90079636Y-50565057D02*
X90841540Y-50565057D01*
X91032017Y-50422200D02*
X91174874Y-50469819D01*
X91174874Y-50469819D02*
X91412969Y-50469819D01*
X91412969Y-50469819D02*
X91508207Y-50422200D01*
X91508207Y-50422200D02*
X91555826Y-50374580D01*
X91555826Y-50374580D02*
X91603445Y-50279342D01*
X91603445Y-50279342D02*
X91603445Y-50184104D01*
X91603445Y-50184104D02*
X91555826Y-50088866D01*
X91555826Y-50088866D02*
X91508207Y-50041247D01*
X91508207Y-50041247D02*
X91412969Y-49993628D01*
X91412969Y-49993628D02*
X91222493Y-49946009D01*
X91222493Y-49946009D02*
X91127255Y-49898390D01*
X91127255Y-49898390D02*
X91079636Y-49850771D01*
X91079636Y-49850771D02*
X91032017Y-49755533D01*
X91032017Y-49755533D02*
X91032017Y-49660295D01*
X91032017Y-49660295D02*
X91079636Y-49565057D01*
X91079636Y-49565057D02*
X91127255Y-49517438D01*
X91127255Y-49517438D02*
X91222493Y-49469819D01*
X91222493Y-49469819D02*
X91460588Y-49469819D01*
X91460588Y-49469819D02*
X91603445Y-49517438D01*
X92603445Y-50374580D02*
X92555826Y-50422200D01*
X92555826Y-50422200D02*
X92412969Y-50469819D01*
X92412969Y-50469819D02*
X92317731Y-50469819D01*
X92317731Y-50469819D02*
X92174874Y-50422200D01*
X92174874Y-50422200D02*
X92079636Y-50326961D01*
X92079636Y-50326961D02*
X92032017Y-50231723D01*
X92032017Y-50231723D02*
X91984398Y-50041247D01*
X91984398Y-50041247D02*
X91984398Y-49898390D01*
X91984398Y-49898390D02*
X92032017Y-49707914D01*
X92032017Y-49707914D02*
X92079636Y-49612676D01*
X92079636Y-49612676D02*
X92174874Y-49517438D01*
X92174874Y-49517438D02*
X92317731Y-49469819D01*
X92317731Y-49469819D02*
X92412969Y-49469819D01*
X92412969Y-49469819D02*
X92555826Y-49517438D01*
X92555826Y-49517438D02*
X92603445Y-49565057D01*
X93032017Y-50469819D02*
X93032017Y-49469819D01*
X93603445Y-50469819D02*
X93174874Y-49898390D01*
X93603445Y-49469819D02*
X93032017Y-50041247D01*
X82889160Y-46822200D02*
X83032017Y-46869819D01*
X83032017Y-46869819D02*
X83270112Y-46869819D01*
X83270112Y-46869819D02*
X83365350Y-46822200D01*
X83365350Y-46822200D02*
X83412969Y-46774580D01*
X83412969Y-46774580D02*
X83460588Y-46679342D01*
X83460588Y-46679342D02*
X83460588Y-46584104D01*
X83460588Y-46584104D02*
X83412969Y-46488866D01*
X83412969Y-46488866D02*
X83365350Y-46441247D01*
X83365350Y-46441247D02*
X83270112Y-46393628D01*
X83270112Y-46393628D02*
X83079636Y-46346009D01*
X83079636Y-46346009D02*
X82984398Y-46298390D01*
X82984398Y-46298390D02*
X82936779Y-46250771D01*
X82936779Y-46250771D02*
X82889160Y-46155533D01*
X82889160Y-46155533D02*
X82889160Y-46060295D01*
X82889160Y-46060295D02*
X82936779Y-45965057D01*
X82936779Y-45965057D02*
X82984398Y-45917438D01*
X82984398Y-45917438D02*
X83079636Y-45869819D01*
X83079636Y-45869819D02*
X83317731Y-45869819D01*
X83317731Y-45869819D02*
X83460588Y-45917438D01*
X83889160Y-46869819D02*
X83889160Y-45869819D01*
X83889160Y-45869819D02*
X84270112Y-45869819D01*
X84270112Y-45869819D02*
X84365350Y-45917438D01*
X84365350Y-45917438D02*
X84412969Y-45965057D01*
X84412969Y-45965057D02*
X84460588Y-46060295D01*
X84460588Y-46060295D02*
X84460588Y-46203152D01*
X84460588Y-46203152D02*
X84412969Y-46298390D01*
X84412969Y-46298390D02*
X84365350Y-46346009D01*
X84365350Y-46346009D02*
X84270112Y-46393628D01*
X84270112Y-46393628D02*
X83889160Y-46393628D01*
X84889160Y-46869819D02*
X84889160Y-45869819D01*
X85270112Y-45869819D02*
X85889159Y-45869819D01*
X85889159Y-45869819D02*
X85555826Y-46250771D01*
X85555826Y-46250771D02*
X85698683Y-46250771D01*
X85698683Y-46250771D02*
X85793921Y-46298390D01*
X85793921Y-46298390D02*
X85841540Y-46346009D01*
X85841540Y-46346009D02*
X85889159Y-46441247D01*
X85889159Y-46441247D02*
X85889159Y-46679342D01*
X85889159Y-46679342D02*
X85841540Y-46774580D01*
X85841540Y-46774580D02*
X85793921Y-46822200D01*
X85793921Y-46822200D02*
X85698683Y-46869819D01*
X85698683Y-46869819D02*
X85412969Y-46869819D01*
X85412969Y-46869819D02*
X85317731Y-46822200D01*
X85317731Y-46822200D02*
X85270112Y-46774580D01*
X86079636Y-46965057D02*
X86841540Y-46965057D01*
X87079636Y-46869819D02*
X87079636Y-45869819D01*
X87079636Y-45869819D02*
X87412969Y-46584104D01*
X87412969Y-46584104D02*
X87746302Y-45869819D01*
X87746302Y-45869819D02*
X87746302Y-46869819D01*
X88222493Y-46869819D02*
X88222493Y-45869819D01*
X88651064Y-46822200D02*
X88793921Y-46869819D01*
X88793921Y-46869819D02*
X89032016Y-46869819D01*
X89032016Y-46869819D02*
X89127254Y-46822200D01*
X89127254Y-46822200D02*
X89174873Y-46774580D01*
X89174873Y-46774580D02*
X89222492Y-46679342D01*
X89222492Y-46679342D02*
X89222492Y-46584104D01*
X89222492Y-46584104D02*
X89174873Y-46488866D01*
X89174873Y-46488866D02*
X89127254Y-46441247D01*
X89127254Y-46441247D02*
X89032016Y-46393628D01*
X89032016Y-46393628D02*
X88841540Y-46346009D01*
X88841540Y-46346009D02*
X88746302Y-46298390D01*
X88746302Y-46298390D02*
X88698683Y-46250771D01*
X88698683Y-46250771D02*
X88651064Y-46155533D01*
X88651064Y-46155533D02*
X88651064Y-46060295D01*
X88651064Y-46060295D02*
X88698683Y-45965057D01*
X88698683Y-45965057D02*
X88746302Y-45917438D01*
X88746302Y-45917438D02*
X88841540Y-45869819D01*
X88841540Y-45869819D02*
X89079635Y-45869819D01*
X89079635Y-45869819D02*
X89222492Y-45917438D01*
X89841540Y-45869819D02*
X90032016Y-45869819D01*
X90032016Y-45869819D02*
X90127254Y-45917438D01*
X90127254Y-45917438D02*
X90222492Y-46012676D01*
X90222492Y-46012676D02*
X90270111Y-46203152D01*
X90270111Y-46203152D02*
X90270111Y-46536485D01*
X90270111Y-46536485D02*
X90222492Y-46726961D01*
X90222492Y-46726961D02*
X90127254Y-46822200D01*
X90127254Y-46822200D02*
X90032016Y-46869819D01*
X90032016Y-46869819D02*
X89841540Y-46869819D01*
X89841540Y-46869819D02*
X89746302Y-46822200D01*
X89746302Y-46822200D02*
X89651064Y-46726961D01*
X89651064Y-46726961D02*
X89603445Y-46536485D01*
X89603445Y-46536485D02*
X89603445Y-46203152D01*
X89603445Y-46203152D02*
X89651064Y-46012676D01*
X89651064Y-46012676D02*
X89746302Y-45917438D01*
X89746302Y-45917438D02*
X89841540Y-45869819D01*
X83108207Y-43869819D02*
X82774874Y-43393628D01*
X82536779Y-43869819D02*
X82536779Y-42869819D01*
X82536779Y-42869819D02*
X82917731Y-42869819D01*
X82917731Y-42869819D02*
X83012969Y-42917438D01*
X83012969Y-42917438D02*
X83060588Y-42965057D01*
X83060588Y-42965057D02*
X83108207Y-43060295D01*
X83108207Y-43060295D02*
X83108207Y-43203152D01*
X83108207Y-43203152D02*
X83060588Y-43298390D01*
X83060588Y-43298390D02*
X83012969Y-43346009D01*
X83012969Y-43346009D02*
X82917731Y-43393628D01*
X82917731Y-43393628D02*
X82536779Y-43393628D01*
X83441541Y-42869819D02*
X84108207Y-43869819D01*
X84108207Y-42869819D02*
X83441541Y-43869819D01*
X87193922Y-37669819D02*
X87765350Y-37669819D01*
X87479636Y-38669819D02*
X87479636Y-37669819D01*
X88003446Y-37669819D02*
X88670112Y-38669819D01*
X88670112Y-37669819D02*
X88003446Y-38669819D01*
X76908207Y-58069819D02*
X76574874Y-57593628D01*
X76336779Y-58069819D02*
X76336779Y-57069819D01*
X76336779Y-57069819D02*
X76717731Y-57069819D01*
X76717731Y-57069819D02*
X76812969Y-57117438D01*
X76812969Y-57117438D02*
X76860588Y-57165057D01*
X76860588Y-57165057D02*
X76908207Y-57260295D01*
X76908207Y-57260295D02*
X76908207Y-57403152D01*
X76908207Y-57403152D02*
X76860588Y-57498390D01*
X76860588Y-57498390D02*
X76812969Y-57546009D01*
X76812969Y-57546009D02*
X76717731Y-57593628D01*
X76717731Y-57593628D02*
X76336779Y-57593628D01*
X77336779Y-57546009D02*
X77670112Y-57546009D01*
X77812969Y-58069819D02*
X77336779Y-58069819D01*
X77336779Y-58069819D02*
X77336779Y-57069819D01*
X77336779Y-57069819D02*
X77812969Y-57069819D01*
X78574874Y-57546009D02*
X78241541Y-57546009D01*
X78241541Y-58069819D02*
X78241541Y-57069819D01*
X78241541Y-57069819D02*
X78717731Y-57069819D01*
X78860589Y-58165057D02*
X79622493Y-58165057D01*
X80051065Y-57069819D02*
X80241541Y-57069819D01*
X80241541Y-57069819D02*
X80336779Y-57117438D01*
X80336779Y-57117438D02*
X80432017Y-57212676D01*
X80432017Y-57212676D02*
X80479636Y-57403152D01*
X80479636Y-57403152D02*
X80479636Y-57736485D01*
X80479636Y-57736485D02*
X80432017Y-57926961D01*
X80432017Y-57926961D02*
X80336779Y-58022200D01*
X80336779Y-58022200D02*
X80241541Y-58069819D01*
X80241541Y-58069819D02*
X80051065Y-58069819D01*
X80051065Y-58069819D02*
X79955827Y-58022200D01*
X79955827Y-58022200D02*
X79860589Y-57926961D01*
X79860589Y-57926961D02*
X79812970Y-57736485D01*
X79812970Y-57736485D02*
X79812970Y-57403152D01*
X79812970Y-57403152D02*
X79860589Y-57212676D01*
X79860589Y-57212676D02*
X79955827Y-57117438D01*
X79955827Y-57117438D02*
X80051065Y-57069819D01*
X80908208Y-58069819D02*
X80908208Y-57069819D01*
X80908208Y-57069819D02*
X81289160Y-57069819D01*
X81289160Y-57069819D02*
X81384398Y-57117438D01*
X81384398Y-57117438D02*
X81432017Y-57165057D01*
X81432017Y-57165057D02*
X81479636Y-57260295D01*
X81479636Y-57260295D02*
X81479636Y-57403152D01*
X81479636Y-57403152D02*
X81432017Y-57498390D01*
X81432017Y-57498390D02*
X81384398Y-57546009D01*
X81384398Y-57546009D02*
X81289160Y-57593628D01*
X81289160Y-57593628D02*
X80908208Y-57593628D01*
X94393922Y-60269819D02*
X94965350Y-60269819D01*
X94679636Y-61269819D02*
X94679636Y-60269819D01*
X95822493Y-61269819D02*
X95251065Y-61269819D01*
X95536779Y-61269819D02*
X95536779Y-60269819D01*
X95536779Y-60269819D02*
X95441541Y-60412676D01*
X95441541Y-60412676D02*
X95346303Y-60507914D01*
X95346303Y-60507914D02*
X95251065Y-60555533D01*
X96012970Y-61365057D02*
X96774874Y-61365057D01*
X97584398Y-61174580D02*
X97536779Y-61222200D01*
X97536779Y-61222200D02*
X97393922Y-61269819D01*
X97393922Y-61269819D02*
X97298684Y-61269819D01*
X97298684Y-61269819D02*
X97155827Y-61222200D01*
X97155827Y-61222200D02*
X97060589Y-61126961D01*
X97060589Y-61126961D02*
X97012970Y-61031723D01*
X97012970Y-61031723D02*
X96965351Y-60841247D01*
X96965351Y-60841247D02*
X96965351Y-60698390D01*
X96965351Y-60698390D02*
X97012970Y-60507914D01*
X97012970Y-60507914D02*
X97060589Y-60412676D01*
X97060589Y-60412676D02*
X97155827Y-60317438D01*
X97155827Y-60317438D02*
X97298684Y-60269819D01*
X97298684Y-60269819D02*
X97393922Y-60269819D01*
X97393922Y-60269819D02*
X97536779Y-60317438D01*
X97536779Y-60317438D02*
X97584398Y-60365057D01*
X98012970Y-61269819D02*
X98012970Y-60269819D01*
X98012970Y-60746009D02*
X98584398Y-60746009D01*
X98584398Y-61269819D02*
X98584398Y-60269819D01*
X99584398Y-61269819D02*
X99012970Y-61269819D01*
X99298684Y-61269819D02*
X99298684Y-60269819D01*
X99298684Y-60269819D02*
X99203446Y-60412676D01*
X99203446Y-60412676D02*
X99108208Y-60507914D01*
X99108208Y-60507914D02*
X99012970Y-60555533D01*
D11*
X114861027Y-44009800D02*
X114932455Y-44033609D01*
X114932455Y-44033609D02*
X115051503Y-44033609D01*
X115051503Y-44033609D02*
X115099122Y-44009800D01*
X115099122Y-44009800D02*
X115122931Y-43985990D01*
X115122931Y-43985990D02*
X115146741Y-43938371D01*
X115146741Y-43938371D02*
X115146741Y-43890752D01*
X115146741Y-43890752D02*
X115122931Y-43843133D01*
X115122931Y-43843133D02*
X115099122Y-43819323D01*
X115099122Y-43819323D02*
X115051503Y-43795514D01*
X115051503Y-43795514D02*
X114956265Y-43771704D01*
X114956265Y-43771704D02*
X114908646Y-43747895D01*
X114908646Y-43747895D02*
X114884836Y-43724085D01*
X114884836Y-43724085D02*
X114861027Y-43676466D01*
X114861027Y-43676466D02*
X114861027Y-43628847D01*
X114861027Y-43628847D02*
X114884836Y-43581228D01*
X114884836Y-43581228D02*
X114908646Y-43557419D01*
X114908646Y-43557419D02*
X114956265Y-43533609D01*
X114956265Y-43533609D02*
X115075312Y-43533609D01*
X115075312Y-43533609D02*
X115146741Y-43557419D01*
X115646740Y-43985990D02*
X115622931Y-44009800D01*
X115622931Y-44009800D02*
X115551502Y-44033609D01*
X115551502Y-44033609D02*
X115503883Y-44033609D01*
X115503883Y-44033609D02*
X115432455Y-44009800D01*
X115432455Y-44009800D02*
X115384836Y-43962180D01*
X115384836Y-43962180D02*
X115361026Y-43914561D01*
X115361026Y-43914561D02*
X115337217Y-43819323D01*
X115337217Y-43819323D02*
X115337217Y-43747895D01*
X115337217Y-43747895D02*
X115361026Y-43652657D01*
X115361026Y-43652657D02*
X115384836Y-43605038D01*
X115384836Y-43605038D02*
X115432455Y-43557419D01*
X115432455Y-43557419D02*
X115503883Y-43533609D01*
X115503883Y-43533609D02*
X115551502Y-43533609D01*
X115551502Y-43533609D02*
X115622931Y-43557419D01*
X115622931Y-43557419D02*
X115646740Y-43581228D01*
X115861026Y-44033609D02*
X115861026Y-43533609D01*
X116146740Y-44033609D02*
X115932455Y-43747895D01*
X116146740Y-43533609D02*
X115861026Y-43819323D01*
D10*
G36*
X118279009Y-36017491D02*
G01*
X117308701Y-36987798D01*
X116593136Y-36272233D01*
X116797410Y-36272233D01*
X116797410Y-36301496D01*
X116808608Y-36328533D01*
X116817936Y-36339898D01*
X117267033Y-36786958D01*
X117294069Y-36798157D01*
X117323332Y-36798157D01*
X117350368Y-36786958D01*
X117371061Y-36766266D01*
X117382260Y-36739229D01*
X117382260Y-36709966D01*
X117371061Y-36682930D01*
X117361734Y-36671565D01*
X117050307Y-36361550D01*
X117667292Y-36360470D01*
X117669710Y-36361276D01*
X117681397Y-36360445D01*
X117693723Y-36360424D01*
X117696211Y-36359393D01*
X117698901Y-36359202D01*
X117712632Y-36353947D01*
X117846084Y-36285758D01*
X117855446Y-36281881D01*
X117858370Y-36279481D01*
X117859762Y-36278770D01*
X117861058Y-36277274D01*
X117866811Y-36272554D01*
X117925642Y-36212158D01*
X117927104Y-36211428D01*
X117933193Y-36204406D01*
X117943481Y-36193846D01*
X117944511Y-36191357D01*
X117946278Y-36189321D01*
X117952272Y-36175895D01*
X117984700Y-36074611D01*
X117988352Y-36065795D01*
X117988720Y-36062054D01*
X117989204Y-36060544D01*
X117989063Y-36058569D01*
X117989793Y-36051163D01*
X117988594Y-35983006D01*
X117989204Y-35974438D01*
X117988380Y-35970817D01*
X117988352Y-35969187D01*
X117987593Y-35967356D01*
X117985944Y-35960101D01*
X117954680Y-35869901D01*
X117954680Y-35868173D01*
X117951007Y-35859307D01*
X117946278Y-35845661D01*
X117944512Y-35843625D01*
X117943482Y-35841137D01*
X117934154Y-35829771D01*
X117773006Y-35670450D01*
X117772012Y-35668462D01*
X117763726Y-35661276D01*
X117754430Y-35652085D01*
X117751939Y-35651053D01*
X117749904Y-35649288D01*
X117736479Y-35643294D01*
X117635198Y-35610867D01*
X117626379Y-35607214D01*
X117622637Y-35606845D01*
X117621127Y-35606362D01*
X117619152Y-35606502D01*
X117611747Y-35605773D01*
X117529772Y-35607214D01*
X117502736Y-35618413D01*
X117482044Y-35639105D01*
X117470845Y-35666141D01*
X117470845Y-35695405D01*
X117482044Y-35722441D01*
X117502736Y-35743133D01*
X117529772Y-35754332D01*
X117544404Y-35755773D01*
X117597155Y-35754845D01*
X117670801Y-35778425D01*
X117814976Y-35920964D01*
X117839954Y-35993030D01*
X117840720Y-36036571D01*
X117817062Y-36110463D01*
X117772147Y-36156572D01*
X117663881Y-36211891D01*
X116856337Y-36213306D01*
X116848418Y-36216585D01*
X116829301Y-36224504D01*
X116808609Y-36245197D01*
X116797410Y-36272233D01*
X116593136Y-36272233D01*
X115866990Y-35546087D01*
X115881621Y-35531456D01*
X116056631Y-35531456D01*
X116056631Y-35560718D01*
X116067830Y-35587755D01*
X116088522Y-35608447D01*
X116115559Y-35619646D01*
X116144821Y-35619646D01*
X116171858Y-35608447D01*
X116183223Y-35599120D01*
X116653048Y-35127958D01*
X116499743Y-35551912D01*
X116495078Y-35561910D01*
X116494932Y-35565216D01*
X116493792Y-35568371D01*
X116494292Y-35579758D01*
X116493792Y-35591145D01*
X116494931Y-35594278D01*
X116495078Y-35597606D01*
X116499895Y-35607929D01*
X116503793Y-35618647D01*
X116506044Y-35621105D01*
X116507453Y-35624124D01*
X116515858Y-35631822D01*
X116523557Y-35640228D01*
X116526575Y-35641636D01*
X116529034Y-35643888D01*
X116539751Y-35647785D01*
X116550075Y-35652603D01*
X116553402Y-35652749D01*
X116556536Y-35653889D01*
X116567923Y-35653388D01*
X116579310Y-35653889D01*
X116584035Y-35652679D01*
X116585771Y-35652603D01*
X116587516Y-35651788D01*
X116593554Y-35650243D01*
X117019036Y-35494656D01*
X116539235Y-35975823D01*
X116528036Y-36002860D01*
X116528036Y-36032122D01*
X116539235Y-36059159D01*
X116559927Y-36079851D01*
X116586964Y-36091050D01*
X116616226Y-36091050D01*
X116643263Y-36079851D01*
X116654628Y-36070524D01*
X117359950Y-35363195D01*
X117369172Y-35354750D01*
X117369876Y-35353241D01*
X117371062Y-35352052D01*
X117376045Y-35340020D01*
X117381547Y-35328232D01*
X117381620Y-35326562D01*
X117382261Y-35325016D01*
X117382261Y-35312000D01*
X117382833Y-35298997D01*
X117382261Y-35297424D01*
X117382261Y-35295753D01*
X117377284Y-35283738D01*
X117372832Y-35271495D01*
X117371701Y-35270260D01*
X117371062Y-35268717D01*
X117361867Y-35259522D01*
X117353068Y-35249914D01*
X117351551Y-35249206D01*
X117350369Y-35248024D01*
X117338345Y-35243043D01*
X117326550Y-35237539D01*
X117324879Y-35237465D01*
X117323333Y-35236825D01*
X117310318Y-35236825D01*
X117297315Y-35236253D01*
X117295080Y-35236825D01*
X117294070Y-35236825D01*
X117292435Y-35237501D01*
X117283071Y-35239899D01*
X116692477Y-35455861D01*
X116906121Y-34865041D01*
X116910856Y-34853612D01*
X116910856Y-34851948D01*
X116911428Y-34850367D01*
X116910856Y-34837363D01*
X116910856Y-34824349D01*
X116910215Y-34822802D01*
X116910142Y-34821132D01*
X116904637Y-34809336D01*
X116899657Y-34797313D01*
X116898474Y-34796130D01*
X116897767Y-34794614D01*
X116888158Y-34785814D01*
X116878964Y-34776620D01*
X116877420Y-34775980D01*
X116876186Y-34774850D01*
X116863942Y-34770397D01*
X116851928Y-34765421D01*
X116850257Y-34765421D01*
X116848684Y-34764849D01*
X116835681Y-34765421D01*
X116822665Y-34765421D01*
X116821118Y-34766061D01*
X116819449Y-34766135D01*
X116807660Y-34771636D01*
X116795629Y-34776620D01*
X116793846Y-34778082D01*
X116792931Y-34778510D01*
X116791735Y-34779815D01*
X116784264Y-34785947D01*
X116067830Y-35504419D01*
X116056631Y-35531456D01*
X115881621Y-35531456D01*
X116837297Y-34575779D01*
X118279009Y-36017491D01*
G37*
X72536779Y-39869819D02*
X72536779Y-38869819D01*
X72536779Y-38869819D02*
X72870112Y-39584104D01*
X72870112Y-39584104D02*
X73203445Y-38869819D01*
X73203445Y-38869819D02*
X73203445Y-39869819D01*
X73679636Y-39869819D02*
X73679636Y-38869819D01*
X74108207Y-39822200D02*
X74251064Y-39869819D01*
X74251064Y-39869819D02*
X74489159Y-39869819D01*
X74489159Y-39869819D02*
X74584397Y-39822200D01*
X74584397Y-39822200D02*
X74632016Y-39774580D01*
X74632016Y-39774580D02*
X74679635Y-39679342D01*
X74679635Y-39679342D02*
X74679635Y-39584104D01*
X74679635Y-39584104D02*
X74632016Y-39488866D01*
X74632016Y-39488866D02*
X74584397Y-39441247D01*
X74584397Y-39441247D02*
X74489159Y-39393628D01*
X74489159Y-39393628D02*
X74298683Y-39346009D01*
X74298683Y-39346009D02*
X74203445Y-39298390D01*
X74203445Y-39298390D02*
X74155826Y-39250771D01*
X74155826Y-39250771D02*
X74108207Y-39155533D01*
X74108207Y-39155533D02*
X74108207Y-39060295D01*
X74108207Y-39060295D02*
X74155826Y-38965057D01*
X74155826Y-38965057D02*
X74203445Y-38917438D01*
X74203445Y-38917438D02*
X74298683Y-38869819D01*
X74298683Y-38869819D02*
X74536778Y-38869819D01*
X74536778Y-38869819D02*
X74679635Y-38917438D01*
X75298683Y-38869819D02*
X75489159Y-38869819D01*
X75489159Y-38869819D02*
X75584397Y-38917438D01*
X75584397Y-38917438D02*
X75679635Y-39012676D01*
X75679635Y-39012676D02*
X75727254Y-39203152D01*
X75727254Y-39203152D02*
X75727254Y-39536485D01*
X75727254Y-39536485D02*
X75679635Y-39726961D01*
X75679635Y-39726961D02*
X75584397Y-39822200D01*
X75584397Y-39822200D02*
X75489159Y-39869819D01*
X75489159Y-39869819D02*
X75298683Y-39869819D01*
X75298683Y-39869819D02*
X75203445Y-39822200D01*
X75203445Y-39822200D02*
X75108207Y-39726961D01*
X75108207Y-39726961D02*
X75060588Y-39536485D01*
X75060588Y-39536485D02*
X75060588Y-39203152D01*
X75060588Y-39203152D02*
X75108207Y-39012676D01*
X75108207Y-39012676D02*
X75203445Y-38917438D01*
X75203445Y-38917438D02*
X75298683Y-38869819D01*
X82489160Y-60584104D02*
X82965350Y-60584104D01*
X82393922Y-60869819D02*
X82727255Y-59869819D01*
X82727255Y-59869819D02*
X83060588Y-60869819D01*
X83346303Y-59965057D02*
X83393922Y-59917438D01*
X83393922Y-59917438D02*
X83489160Y-59869819D01*
X83489160Y-59869819D02*
X83727255Y-59869819D01*
X83727255Y-59869819D02*
X83822493Y-59917438D01*
X83822493Y-59917438D02*
X83870112Y-59965057D01*
X83870112Y-59965057D02*
X83917731Y-60060295D01*
X83917731Y-60060295D02*
X83917731Y-60155533D01*
X83917731Y-60155533D02*
X83870112Y-60298390D01*
X83870112Y-60298390D02*
X83298684Y-60869819D01*
X83298684Y-60869819D02*
X83917731Y-60869819D01*
X84108208Y-60965057D02*
X84870112Y-60965057D01*
X85108208Y-60869819D02*
X85108208Y-59869819D01*
X85584398Y-60869819D02*
X85584398Y-59869819D01*
X85584398Y-59869819D02*
X86155826Y-60869819D01*
X86155826Y-60869819D02*
X86155826Y-59869819D01*
X87155826Y-60869819D02*
X86584398Y-60869819D01*
X86870112Y-60869819D02*
X86870112Y-59869819D01*
X86870112Y-59869819D02*
X86774874Y-60012676D01*
X86774874Y-60012676D02*
X86679636Y-60107914D01*
X86679636Y-60107914D02*
X86584398Y-60155533D01*
X87536779Y-59965057D02*
X87584398Y-59917438D01*
X87584398Y-59917438D02*
X87679636Y-59869819D01*
X87679636Y-59869819D02*
X87917731Y-59869819D01*
X87917731Y-59869819D02*
X88012969Y-59917438D01*
X88012969Y-59917438D02*
X88060588Y-59965057D01*
X88060588Y-59965057D02*
X88108207Y-60060295D01*
X88108207Y-60060295D02*
X88108207Y-60155533D01*
X88108207Y-60155533D02*
X88060588Y-60298390D01*
X88060588Y-60298390D02*
X87489160Y-60869819D01*
X87489160Y-60869819D02*
X88108207Y-60869819D01*
X71736779Y-57269819D02*
X71736779Y-56269819D01*
X71736779Y-56269819D02*
X72117731Y-56269819D01*
X72117731Y-56269819D02*
X72212969Y-56317438D01*
X72212969Y-56317438D02*
X72260588Y-56365057D01*
X72260588Y-56365057D02*
X72308207Y-56460295D01*
X72308207Y-56460295D02*
X72308207Y-56603152D01*
X72308207Y-56603152D02*
X72260588Y-56698390D01*
X72260588Y-56698390D02*
X72212969Y-56746009D01*
X72212969Y-56746009D02*
X72117731Y-56793628D01*
X72117731Y-56793628D02*
X71736779Y-56793628D01*
X72689160Y-56984104D02*
X73165350Y-56984104D01*
X72593922Y-57269819D02*
X72927255Y-56269819D01*
X72927255Y-56269819D02*
X73260588Y-57269819D01*
X74117731Y-57269819D02*
X73546303Y-57269819D01*
X73832017Y-57269819D02*
X73832017Y-56269819D01*
X73832017Y-56269819D02*
X73736779Y-56412676D01*
X73736779Y-56412676D02*
X73641541Y-56507914D01*
X73641541Y-56507914D02*
X73546303Y-56555533D01*
X75070112Y-57269819D02*
X74498684Y-57269819D01*
X74784398Y-57269819D02*
X74784398Y-56269819D01*
X74784398Y-56269819D02*
X74689160Y-56412676D01*
X74689160Y-56412676D02*
X74593922Y-56507914D01*
X74593922Y-56507914D02*
X74498684Y-56555533D01*
X88993922Y-62269819D02*
X89565350Y-62269819D01*
X89279636Y-63269819D02*
X89279636Y-62269819D01*
X90422493Y-63269819D02*
X89851065Y-63269819D01*
X90136779Y-63269819D02*
X90136779Y-62269819D01*
X90136779Y-62269819D02*
X90041541Y-62412676D01*
X90041541Y-62412676D02*
X89946303Y-62507914D01*
X89946303Y-62507914D02*
X89851065Y-62555533D01*
X90612970Y-63365057D02*
X91374874Y-63365057D01*
X92184398Y-63174580D02*
X92136779Y-63222200D01*
X92136779Y-63222200D02*
X91993922Y-63269819D01*
X91993922Y-63269819D02*
X91898684Y-63269819D01*
X91898684Y-63269819D02*
X91755827Y-63222200D01*
X91755827Y-63222200D02*
X91660589Y-63126961D01*
X91660589Y-63126961D02*
X91612970Y-63031723D01*
X91612970Y-63031723D02*
X91565351Y-62841247D01*
X91565351Y-62841247D02*
X91565351Y-62698390D01*
X91565351Y-62698390D02*
X91612970Y-62507914D01*
X91612970Y-62507914D02*
X91660589Y-62412676D01*
X91660589Y-62412676D02*
X91755827Y-62317438D01*
X91755827Y-62317438D02*
X91898684Y-62269819D01*
X91898684Y-62269819D02*
X91993922Y-62269819D01*
X91993922Y-62269819D02*
X92136779Y-62317438D01*
X92136779Y-62317438D02*
X92184398Y-62365057D01*
X92612970Y-63269819D02*
X92612970Y-62269819D01*
X92612970Y-62746009D02*
X93184398Y-62746009D01*
X93184398Y-63269819D02*
X93184398Y-62269819D01*
X93612970Y-62365057D02*
X93660589Y-62317438D01*
X93660589Y-62317438D02*
X93755827Y-62269819D01*
X93755827Y-62269819D02*
X93993922Y-62269819D01*
X93993922Y-62269819D02*
X94089160Y-62317438D01*
X94089160Y-62317438D02*
X94136779Y-62365057D01*
X94136779Y-62365057D02*
X94184398Y-62460295D01*
X94184398Y-62460295D02*
X94184398Y-62555533D01*
X94184398Y-62555533D02*
X94136779Y-62698390D01*
X94136779Y-62698390D02*
X93565351Y-63269819D01*
X93565351Y-63269819D02*
X94184398Y-63269819D01*
D11*
X92733609Y-38786591D02*
X92733609Y-38500877D01*
X93233609Y-38643734D02*
X92733609Y-38643734D01*
X92733609Y-38381830D02*
X93233609Y-38048497D01*
X92733609Y-38048497D02*
X93233609Y-38381830D01*
X38787217Y-41183609D02*
X39096741Y-41183609D01*
X39096741Y-41183609D02*
X38930074Y-41374085D01*
X38930074Y-41374085D02*
X39001503Y-41374085D01*
X39001503Y-41374085D02*
X39049122Y-41397895D01*
X39049122Y-41397895D02*
X39072931Y-41421704D01*
X39072931Y-41421704D02*
X39096741Y-41469323D01*
X39096741Y-41469323D02*
X39096741Y-41588371D01*
X39096741Y-41588371D02*
X39072931Y-41635990D01*
X39072931Y-41635990D02*
X39049122Y-41659800D01*
X39049122Y-41659800D02*
X39001503Y-41683609D01*
X39001503Y-41683609D02*
X38858646Y-41683609D01*
X38858646Y-41683609D02*
X38811027Y-41659800D01*
X38811027Y-41659800D02*
X38787217Y-41635990D01*
X39239598Y-41183609D02*
X39406264Y-41683609D01*
X39406264Y-41683609D02*
X39572931Y-41183609D01*
X39691978Y-41183609D02*
X40001502Y-41183609D01*
X40001502Y-41183609D02*
X39834835Y-41374085D01*
X39834835Y-41374085D02*
X39906264Y-41374085D01*
X39906264Y-41374085D02*
X39953883Y-41397895D01*
X39953883Y-41397895D02*
X39977692Y-41421704D01*
X39977692Y-41421704D02*
X40001502Y-41469323D01*
X40001502Y-41469323D02*
X40001502Y-41588371D01*
X40001502Y-41588371D02*
X39977692Y-41635990D01*
X39977692Y-41635990D02*
X39953883Y-41659800D01*
X39953883Y-41659800D02*
X39906264Y-41683609D01*
X39906264Y-41683609D02*
X39763407Y-41683609D01*
X39763407Y-41683609D02*
X39715788Y-41659800D01*
X39715788Y-41659800D02*
X39691978Y-41635990D01*
D10*
X64893922Y-55769819D02*
X65465350Y-55769819D01*
X65179636Y-56769819D02*
X65179636Y-55769819D01*
X65941541Y-56198390D02*
X65846303Y-56150771D01*
X65846303Y-56150771D02*
X65798684Y-56103152D01*
X65798684Y-56103152D02*
X65751065Y-56007914D01*
X65751065Y-56007914D02*
X65751065Y-55960295D01*
X65751065Y-55960295D02*
X65798684Y-55865057D01*
X65798684Y-55865057D02*
X65846303Y-55817438D01*
X65846303Y-55817438D02*
X65941541Y-55769819D01*
X65941541Y-55769819D02*
X66132017Y-55769819D01*
X66132017Y-55769819D02*
X66227255Y-55817438D01*
X66227255Y-55817438D02*
X66274874Y-55865057D01*
X66274874Y-55865057D02*
X66322493Y-55960295D01*
X66322493Y-55960295D02*
X66322493Y-56007914D01*
X66322493Y-56007914D02*
X66274874Y-56103152D01*
X66274874Y-56103152D02*
X66227255Y-56150771D01*
X66227255Y-56150771D02*
X66132017Y-56198390D01*
X66132017Y-56198390D02*
X65941541Y-56198390D01*
X65941541Y-56198390D02*
X65846303Y-56246009D01*
X65846303Y-56246009D02*
X65798684Y-56293628D01*
X65798684Y-56293628D02*
X65751065Y-56388866D01*
X65751065Y-56388866D02*
X65751065Y-56579342D01*
X65751065Y-56579342D02*
X65798684Y-56674580D01*
X65798684Y-56674580D02*
X65846303Y-56722200D01*
X65846303Y-56722200D02*
X65941541Y-56769819D01*
X65941541Y-56769819D02*
X66132017Y-56769819D01*
X66132017Y-56769819D02*
X66227255Y-56722200D01*
X66227255Y-56722200D02*
X66274874Y-56674580D01*
X66274874Y-56674580D02*
X66322493Y-56579342D01*
X66322493Y-56579342D02*
X66322493Y-56388866D01*
X66322493Y-56388866D02*
X66274874Y-56293628D01*
X66274874Y-56293628D02*
X66227255Y-56246009D01*
X66227255Y-56246009D02*
X66132017Y-56198390D01*
X66512970Y-56865057D02*
X67274874Y-56865057D01*
X68084398Y-56674580D02*
X68036779Y-56722200D01*
X68036779Y-56722200D02*
X67893922Y-56769819D01*
X67893922Y-56769819D02*
X67798684Y-56769819D01*
X67798684Y-56769819D02*
X67655827Y-56722200D01*
X67655827Y-56722200D02*
X67560589Y-56626961D01*
X67560589Y-56626961D02*
X67512970Y-56531723D01*
X67512970Y-56531723D02*
X67465351Y-56341247D01*
X67465351Y-56341247D02*
X67465351Y-56198390D01*
X67465351Y-56198390D02*
X67512970Y-56007914D01*
X67512970Y-56007914D02*
X67560589Y-55912676D01*
X67560589Y-55912676D02*
X67655827Y-55817438D01*
X67655827Y-55817438D02*
X67798684Y-55769819D01*
X67798684Y-55769819D02*
X67893922Y-55769819D01*
X67893922Y-55769819D02*
X68036779Y-55817438D01*
X68036779Y-55817438D02*
X68084398Y-55865057D01*
X68512970Y-56769819D02*
X68512970Y-55769819D01*
X68512970Y-56246009D02*
X69084398Y-56246009D01*
X69084398Y-56769819D02*
X69084398Y-55769819D01*
X70084398Y-56769819D02*
X69512970Y-56769819D01*
X69798684Y-56769819D02*
X69798684Y-55769819D01*
X69798684Y-55769819D02*
X69703446Y-55912676D01*
X69703446Y-55912676D02*
X69608208Y-56007914D01*
X69608208Y-56007914D02*
X69512970Y-56055533D01*
D11*
X82951633Y-71747544D02*
X82951633Y-71347544D01*
X83651633Y-71547544D02*
X82951633Y-71547544D01*
X82951633Y-71180878D02*
X83651633Y-70714211D01*
X82951633Y-70714211D02*
X83651633Y-71180878D01*
D10*
X62889160Y-59984104D02*
X63365350Y-59984104D01*
X62793922Y-60269819D02*
X63127255Y-59269819D01*
X63127255Y-59269819D02*
X63460588Y-60269819D01*
X63746303Y-59365057D02*
X63793922Y-59317438D01*
X63793922Y-59317438D02*
X63889160Y-59269819D01*
X63889160Y-59269819D02*
X64127255Y-59269819D01*
X64127255Y-59269819D02*
X64222493Y-59317438D01*
X64222493Y-59317438D02*
X64270112Y-59365057D01*
X64270112Y-59365057D02*
X64317731Y-59460295D01*
X64317731Y-59460295D02*
X64317731Y-59555533D01*
X64317731Y-59555533D02*
X64270112Y-59698390D01*
X64270112Y-59698390D02*
X63698684Y-60269819D01*
X63698684Y-60269819D02*
X64317731Y-60269819D01*
X64508208Y-60365057D02*
X65270112Y-60365057D01*
X65508208Y-60269819D02*
X65508208Y-59269819D01*
X65984398Y-60269819D02*
X65984398Y-59269819D01*
X65984398Y-59269819D02*
X66555826Y-60269819D01*
X66555826Y-60269819D02*
X66555826Y-59269819D01*
X67555826Y-60269819D02*
X66984398Y-60269819D01*
X67270112Y-60269819D02*
X67270112Y-59269819D01*
X67270112Y-59269819D02*
X67174874Y-59412676D01*
X67174874Y-59412676D02*
X67079636Y-59507914D01*
X67079636Y-59507914D02*
X66984398Y-59555533D01*
X68460588Y-59269819D02*
X67984398Y-59269819D01*
X67984398Y-59269819D02*
X67936779Y-59746009D01*
X67936779Y-59746009D02*
X67984398Y-59698390D01*
X67984398Y-59698390D02*
X68079636Y-59650771D01*
X68079636Y-59650771D02*
X68317731Y-59650771D01*
X68317731Y-59650771D02*
X68412969Y-59698390D01*
X68412969Y-59698390D02*
X68460588Y-59746009D01*
X68460588Y-59746009D02*
X68508207Y-59841247D01*
X68508207Y-59841247D02*
X68508207Y-60079342D01*
X68508207Y-60079342D02*
X68460588Y-60174580D01*
X68460588Y-60174580D02*
X68412969Y-60222200D01*
X68412969Y-60222200D02*
X68317731Y-60269819D01*
X68317731Y-60269819D02*
X68079636Y-60269819D01*
X68079636Y-60269819D02*
X67984398Y-60222200D01*
X67984398Y-60222200D02*
X67936779Y-60174580D01*
D11*
X115146741Y-44757419D02*
X115099122Y-44733609D01*
X115099122Y-44733609D02*
X115027693Y-44733609D01*
X115027693Y-44733609D02*
X114956265Y-44757419D01*
X114956265Y-44757419D02*
X114908646Y-44805038D01*
X114908646Y-44805038D02*
X114884836Y-44852657D01*
X114884836Y-44852657D02*
X114861027Y-44947895D01*
X114861027Y-44947895D02*
X114861027Y-45019323D01*
X114861027Y-45019323D02*
X114884836Y-45114561D01*
X114884836Y-45114561D02*
X114908646Y-45162180D01*
X114908646Y-45162180D02*
X114956265Y-45209800D01*
X114956265Y-45209800D02*
X115027693Y-45233609D01*
X115027693Y-45233609D02*
X115075312Y-45233609D01*
X115075312Y-45233609D02*
X115146741Y-45209800D01*
X115146741Y-45209800D02*
X115170550Y-45185990D01*
X115170550Y-45185990D02*
X115170550Y-45019323D01*
X115170550Y-45019323D02*
X115075312Y-45019323D01*
X115384836Y-45233609D02*
X115384836Y-44733609D01*
X115384836Y-44733609D02*
X115670550Y-45233609D01*
X115670550Y-45233609D02*
X115670550Y-44733609D01*
X115908646Y-45233609D02*
X115908646Y-44733609D01*
X115908646Y-44733609D02*
X116027694Y-44733609D01*
X116027694Y-44733609D02*
X116099122Y-44757419D01*
X116099122Y-44757419D02*
X116146741Y-44805038D01*
X116146741Y-44805038D02*
X116170551Y-44852657D01*
X116170551Y-44852657D02*
X116194360Y-44947895D01*
X116194360Y-44947895D02*
X116194360Y-45019323D01*
X116194360Y-45019323D02*
X116170551Y-45114561D01*
X116170551Y-45114561D02*
X116146741Y-45162180D01*
X116146741Y-45162180D02*
X116099122Y-45209800D01*
X116099122Y-45209800D02*
X116027694Y-45233609D01*
X116027694Y-45233609D02*
X115908646Y-45233609D01*
D10*
X73336779Y-51969819D02*
X73336779Y-50969819D01*
X73336779Y-50969819D02*
X73717731Y-50969819D01*
X73717731Y-50969819D02*
X73812969Y-51017438D01*
X73812969Y-51017438D02*
X73860588Y-51065057D01*
X73860588Y-51065057D02*
X73908207Y-51160295D01*
X73908207Y-51160295D02*
X73908207Y-51303152D01*
X73908207Y-51303152D02*
X73860588Y-51398390D01*
X73860588Y-51398390D02*
X73812969Y-51446009D01*
X73812969Y-51446009D02*
X73717731Y-51493628D01*
X73717731Y-51493628D02*
X73336779Y-51493628D01*
X74289160Y-51684104D02*
X74765350Y-51684104D01*
X74193922Y-51969819D02*
X74527255Y-50969819D01*
X74527255Y-50969819D02*
X74860588Y-51969819D01*
X75717731Y-51969819D02*
X75146303Y-51969819D01*
X75432017Y-51969819D02*
X75432017Y-50969819D01*
X75432017Y-50969819D02*
X75336779Y-51112676D01*
X75336779Y-51112676D02*
X75241541Y-51207914D01*
X75241541Y-51207914D02*
X75146303Y-51255533D01*
X76622493Y-50969819D02*
X76146303Y-50969819D01*
X76146303Y-50969819D02*
X76098684Y-51446009D01*
X76098684Y-51446009D02*
X76146303Y-51398390D01*
X76146303Y-51398390D02*
X76241541Y-51350771D01*
X76241541Y-51350771D02*
X76479636Y-51350771D01*
X76479636Y-51350771D02*
X76574874Y-51398390D01*
X76574874Y-51398390D02*
X76622493Y-51446009D01*
X76622493Y-51446009D02*
X76670112Y-51541247D01*
X76670112Y-51541247D02*
X76670112Y-51779342D01*
X76670112Y-51779342D02*
X76622493Y-51874580D01*
X76622493Y-51874580D02*
X76574874Y-51922200D01*
X76574874Y-51922200D02*
X76479636Y-51969819D01*
X76479636Y-51969819D02*
X76241541Y-51969819D01*
X76241541Y-51969819D02*
X76146303Y-51922200D01*
X76146303Y-51922200D02*
X76098684Y-51874580D01*
D11*
X85051633Y-71764211D02*
X85051633Y-71330877D01*
X85051633Y-71330877D02*
X85318300Y-71564211D01*
X85318300Y-71564211D02*
X85318300Y-71464211D01*
X85318300Y-71464211D02*
X85351633Y-71397544D01*
X85351633Y-71397544D02*
X85384966Y-71364211D01*
X85384966Y-71364211D02*
X85451633Y-71330877D01*
X85451633Y-71330877D02*
X85618300Y-71330877D01*
X85618300Y-71330877D02*
X85684966Y-71364211D01*
X85684966Y-71364211D02*
X85718300Y-71397544D01*
X85718300Y-71397544D02*
X85751633Y-71464211D01*
X85751633Y-71464211D02*
X85751633Y-71664211D01*
X85751633Y-71664211D02*
X85718300Y-71730877D01*
X85718300Y-71730877D02*
X85684966Y-71764211D01*
X85051633Y-71130877D02*
X85751633Y-70897544D01*
X85751633Y-70897544D02*
X85051633Y-70664210D01*
X85051633Y-70497544D02*
X85051633Y-70064210D01*
X85051633Y-70064210D02*
X85318300Y-70297544D01*
X85318300Y-70297544D02*
X85318300Y-70197544D01*
X85318300Y-70197544D02*
X85351633Y-70130877D01*
X85351633Y-70130877D02*
X85384966Y-70097544D01*
X85384966Y-70097544D02*
X85451633Y-70064210D01*
X85451633Y-70064210D02*
X85618300Y-70064210D01*
X85618300Y-70064210D02*
X85684966Y-70097544D01*
X85684966Y-70097544D02*
X85718300Y-70130877D01*
X85718300Y-70130877D02*
X85751633Y-70197544D01*
X85751633Y-70197544D02*
X85751633Y-70397544D01*
X85751633Y-70397544D02*
X85718300Y-70464210D01*
X85718300Y-70464210D02*
X85684966Y-70497544D01*
X92333609Y-44262782D02*
X92333609Y-43953258D01*
X92333609Y-43953258D02*
X92524085Y-44119925D01*
X92524085Y-44119925D02*
X92524085Y-44048496D01*
X92524085Y-44048496D02*
X92547895Y-44000877D01*
X92547895Y-44000877D02*
X92571704Y-43977068D01*
X92571704Y-43977068D02*
X92619323Y-43953258D01*
X92619323Y-43953258D02*
X92738371Y-43953258D01*
X92738371Y-43953258D02*
X92785990Y-43977068D01*
X92785990Y-43977068D02*
X92809800Y-44000877D01*
X92809800Y-44000877D02*
X92833609Y-44048496D01*
X92833609Y-44048496D02*
X92833609Y-44191353D01*
X92833609Y-44191353D02*
X92809800Y-44238972D01*
X92809800Y-44238972D02*
X92785990Y-44262782D01*
X92333609Y-43810401D02*
X92833609Y-43643735D01*
X92833609Y-43643735D02*
X92333609Y-43477068D01*
X92333609Y-43358021D02*
X92333609Y-43048497D01*
X92333609Y-43048497D02*
X92524085Y-43215164D01*
X92524085Y-43215164D02*
X92524085Y-43143735D01*
X92524085Y-43143735D02*
X92547895Y-43096116D01*
X92547895Y-43096116D02*
X92571704Y-43072307D01*
X92571704Y-43072307D02*
X92619323Y-43048497D01*
X92619323Y-43048497D02*
X92738371Y-43048497D01*
X92738371Y-43048497D02*
X92785990Y-43072307D01*
X92785990Y-43072307D02*
X92809800Y-43096116D01*
X92809800Y-43096116D02*
X92833609Y-43143735D01*
X92833609Y-43143735D02*
X92833609Y-43286592D01*
X92833609Y-43286592D02*
X92809800Y-43334211D01*
X92809800Y-43334211D02*
X92785990Y-43358021D01*
D10*
X54993922Y-53369819D02*
X55565350Y-53369819D01*
X55279636Y-54369819D02*
X55279636Y-53369819D01*
X56041541Y-53798390D02*
X55946303Y-53750771D01*
X55946303Y-53750771D02*
X55898684Y-53703152D01*
X55898684Y-53703152D02*
X55851065Y-53607914D01*
X55851065Y-53607914D02*
X55851065Y-53560295D01*
X55851065Y-53560295D02*
X55898684Y-53465057D01*
X55898684Y-53465057D02*
X55946303Y-53417438D01*
X55946303Y-53417438D02*
X56041541Y-53369819D01*
X56041541Y-53369819D02*
X56232017Y-53369819D01*
X56232017Y-53369819D02*
X56327255Y-53417438D01*
X56327255Y-53417438D02*
X56374874Y-53465057D01*
X56374874Y-53465057D02*
X56422493Y-53560295D01*
X56422493Y-53560295D02*
X56422493Y-53607914D01*
X56422493Y-53607914D02*
X56374874Y-53703152D01*
X56374874Y-53703152D02*
X56327255Y-53750771D01*
X56327255Y-53750771D02*
X56232017Y-53798390D01*
X56232017Y-53798390D02*
X56041541Y-53798390D01*
X56041541Y-53798390D02*
X55946303Y-53846009D01*
X55946303Y-53846009D02*
X55898684Y-53893628D01*
X55898684Y-53893628D02*
X55851065Y-53988866D01*
X55851065Y-53988866D02*
X55851065Y-54179342D01*
X55851065Y-54179342D02*
X55898684Y-54274580D01*
X55898684Y-54274580D02*
X55946303Y-54322200D01*
X55946303Y-54322200D02*
X56041541Y-54369819D01*
X56041541Y-54369819D02*
X56232017Y-54369819D01*
X56232017Y-54369819D02*
X56327255Y-54322200D01*
X56327255Y-54322200D02*
X56374874Y-54274580D01*
X56374874Y-54274580D02*
X56422493Y-54179342D01*
X56422493Y-54179342D02*
X56422493Y-53988866D01*
X56422493Y-53988866D02*
X56374874Y-53893628D01*
X56374874Y-53893628D02*
X56327255Y-53846009D01*
X56327255Y-53846009D02*
X56232017Y-53798390D01*
X56612970Y-54465057D02*
X57374874Y-54465057D01*
X58184398Y-54274580D02*
X58136779Y-54322200D01*
X58136779Y-54322200D02*
X57993922Y-54369819D01*
X57993922Y-54369819D02*
X57898684Y-54369819D01*
X57898684Y-54369819D02*
X57755827Y-54322200D01*
X57755827Y-54322200D02*
X57660589Y-54226961D01*
X57660589Y-54226961D02*
X57612970Y-54131723D01*
X57612970Y-54131723D02*
X57565351Y-53941247D01*
X57565351Y-53941247D02*
X57565351Y-53798390D01*
X57565351Y-53798390D02*
X57612970Y-53607914D01*
X57612970Y-53607914D02*
X57660589Y-53512676D01*
X57660589Y-53512676D02*
X57755827Y-53417438D01*
X57755827Y-53417438D02*
X57898684Y-53369819D01*
X57898684Y-53369819D02*
X57993922Y-53369819D01*
X57993922Y-53369819D02*
X58136779Y-53417438D01*
X58136779Y-53417438D02*
X58184398Y-53465057D01*
X58612970Y-54369819D02*
X58612970Y-53369819D01*
X58612970Y-53846009D02*
X59184398Y-53846009D01*
X59184398Y-54369819D02*
X59184398Y-53369819D01*
X59565351Y-53369819D02*
X60184398Y-53369819D01*
X60184398Y-53369819D02*
X59851065Y-53750771D01*
X59851065Y-53750771D02*
X59993922Y-53750771D01*
X59993922Y-53750771D02*
X60089160Y-53798390D01*
X60089160Y-53798390D02*
X60136779Y-53846009D01*
X60136779Y-53846009D02*
X60184398Y-53941247D01*
X60184398Y-53941247D02*
X60184398Y-54179342D01*
X60184398Y-54179342D02*
X60136779Y-54274580D01*
X60136779Y-54274580D02*
X60089160Y-54322200D01*
X60089160Y-54322200D02*
X59993922Y-54369819D01*
X59993922Y-54369819D02*
X59708208Y-54369819D01*
X59708208Y-54369819D02*
X59612970Y-54322200D01*
X59612970Y-54322200D02*
X59565351Y-54274580D01*
X109860588Y-34017438D02*
X109765350Y-33969819D01*
X109765350Y-33969819D02*
X109622493Y-33969819D01*
X109622493Y-33969819D02*
X109479636Y-34017438D01*
X109479636Y-34017438D02*
X109384398Y-34112676D01*
X109384398Y-34112676D02*
X109336779Y-34207914D01*
X109336779Y-34207914D02*
X109289160Y-34398390D01*
X109289160Y-34398390D02*
X109289160Y-34541247D01*
X109289160Y-34541247D02*
X109336779Y-34731723D01*
X109336779Y-34731723D02*
X109384398Y-34826961D01*
X109384398Y-34826961D02*
X109479636Y-34922200D01*
X109479636Y-34922200D02*
X109622493Y-34969819D01*
X109622493Y-34969819D02*
X109717731Y-34969819D01*
X109717731Y-34969819D02*
X109860588Y-34922200D01*
X109860588Y-34922200D02*
X109908207Y-34874580D01*
X109908207Y-34874580D02*
X109908207Y-34541247D01*
X109908207Y-34541247D02*
X109717731Y-34541247D01*
X110336779Y-34969819D02*
X110336779Y-33969819D01*
X110336779Y-33969819D02*
X110908207Y-34969819D01*
X110908207Y-34969819D02*
X110908207Y-33969819D01*
X111384398Y-34969819D02*
X111384398Y-33969819D01*
X111384398Y-33969819D02*
X111622493Y-33969819D01*
X111622493Y-33969819D02*
X111765350Y-34017438D01*
X111765350Y-34017438D02*
X111860588Y-34112676D01*
X111860588Y-34112676D02*
X111908207Y-34207914D01*
X111908207Y-34207914D02*
X111955826Y-34398390D01*
X111955826Y-34398390D02*
X111955826Y-34541247D01*
X111955826Y-34541247D02*
X111908207Y-34731723D01*
X111908207Y-34731723D02*
X111860588Y-34826961D01*
X111860588Y-34826961D02*
X111765350Y-34922200D01*
X111765350Y-34922200D02*
X111622493Y-34969819D01*
X111622493Y-34969819D02*
X111384398Y-34969819D01*
X112384398Y-34969819D02*
X112384398Y-33969819D01*
X112384398Y-33969819D02*
X112622493Y-33969819D01*
X112622493Y-33969819D02*
X112765350Y-34017438D01*
X112765350Y-34017438D02*
X112860588Y-34112676D01*
X112860588Y-34112676D02*
X112908207Y-34207914D01*
X112908207Y-34207914D02*
X112955826Y-34398390D01*
X112955826Y-34398390D02*
X112955826Y-34541247D01*
X112955826Y-34541247D02*
X112908207Y-34731723D01*
X112908207Y-34731723D02*
X112860588Y-34826961D01*
X112860588Y-34826961D02*
X112765350Y-34922200D01*
X112765350Y-34922200D02*
X112622493Y-34969819D01*
X112622493Y-34969819D02*
X112384398Y-34969819D01*
D11*
X82601633Y-71197544D02*
X82268300Y-71430877D01*
X82601633Y-71597544D02*
X81901633Y-71597544D01*
X81901633Y-71597544D02*
X81901633Y-71330877D01*
X81901633Y-71330877D02*
X81934966Y-71264211D01*
X81934966Y-71264211D02*
X81968300Y-71230877D01*
X81968300Y-71230877D02*
X82034966Y-71197544D01*
X82034966Y-71197544D02*
X82134966Y-71197544D01*
X82134966Y-71197544D02*
X82201633Y-71230877D01*
X82201633Y-71230877D02*
X82234966Y-71264211D01*
X82234966Y-71264211D02*
X82268300Y-71330877D01*
X82268300Y-71330877D02*
X82268300Y-71597544D01*
X81901633Y-70964211D02*
X82601633Y-70497544D01*
X81901633Y-70497544D02*
X82601633Y-70964211D01*
X81624672Y-71697544D02*
X80924672Y-71697544D01*
X80924672Y-71697544D02*
X80924672Y-71530877D01*
X80924672Y-71530877D02*
X80958005Y-71430877D01*
X80958005Y-71430877D02*
X81024672Y-71364211D01*
X81024672Y-71364211D02*
X81091339Y-71330877D01*
X81091339Y-71330877D02*
X81224672Y-71297544D01*
X81224672Y-71297544D02*
X81324672Y-71297544D01*
X81324672Y-71297544D02*
X81458005Y-71330877D01*
X81458005Y-71330877D02*
X81524672Y-71364211D01*
X81524672Y-71364211D02*
X81591339Y-71430877D01*
X81591339Y-71430877D02*
X81624672Y-71530877D01*
X81624672Y-71530877D02*
X81624672Y-71697544D01*
X81624672Y-70997544D02*
X80924672Y-70997544D01*
X80924672Y-70530878D02*
X80924672Y-70397544D01*
X80924672Y-70397544D02*
X80958005Y-70330878D01*
X80958005Y-70330878D02*
X81024672Y-70264211D01*
X81024672Y-70264211D02*
X81158005Y-70230878D01*
X81158005Y-70230878D02*
X81391339Y-70230878D01*
X81391339Y-70230878D02*
X81524672Y-70264211D01*
X81524672Y-70264211D02*
X81591339Y-70330878D01*
X81591339Y-70330878D02*
X81624672Y-70397544D01*
X81624672Y-70397544D02*
X81624672Y-70530878D01*
X81624672Y-70530878D02*
X81591339Y-70597544D01*
X81591339Y-70597544D02*
X81524672Y-70664211D01*
X81524672Y-70664211D02*
X81391339Y-70697544D01*
X81391339Y-70697544D02*
X81158005Y-70697544D01*
X81158005Y-70697544D02*
X81024672Y-70664211D01*
X81024672Y-70664211D02*
X80958005Y-70597544D01*
X80958005Y-70597544D02*
X80924672Y-70530878D01*
D10*
X39641541Y-32669819D02*
X40260588Y-32669819D01*
X40260588Y-32669819D02*
X39927255Y-33050771D01*
X39927255Y-33050771D02*
X40070112Y-33050771D01*
X40070112Y-33050771D02*
X40165350Y-33098390D01*
X40165350Y-33098390D02*
X40212969Y-33146009D01*
X40212969Y-33146009D02*
X40260588Y-33241247D01*
X40260588Y-33241247D02*
X40260588Y-33479342D01*
X40260588Y-33479342D02*
X40212969Y-33574580D01*
X40212969Y-33574580D02*
X40165350Y-33622200D01*
X40165350Y-33622200D02*
X40070112Y-33669819D01*
X40070112Y-33669819D02*
X39784398Y-33669819D01*
X39784398Y-33669819D02*
X39689160Y-33622200D01*
X39689160Y-33622200D02*
X39641541Y-33574580D01*
X40546303Y-32669819D02*
X40879636Y-33669819D01*
X40879636Y-33669819D02*
X41212969Y-32669819D01*
X41451065Y-32669819D02*
X42070112Y-32669819D01*
X42070112Y-32669819D02*
X41736779Y-33050771D01*
X41736779Y-33050771D02*
X41879636Y-33050771D01*
X41879636Y-33050771D02*
X41974874Y-33098390D01*
X41974874Y-33098390D02*
X42022493Y-33146009D01*
X42022493Y-33146009D02*
X42070112Y-33241247D01*
X42070112Y-33241247D02*
X42070112Y-33479342D01*
X42070112Y-33479342D02*
X42022493Y-33574580D01*
X42022493Y-33574580D02*
X41974874Y-33622200D01*
X41974874Y-33622200D02*
X41879636Y-33669819D01*
X41879636Y-33669819D02*
X41593922Y-33669819D01*
X41593922Y-33669819D02*
X41498684Y-33622200D01*
X41498684Y-33622200D02*
X41451065Y-33574580D01*
X84493922Y-56469819D02*
X85065350Y-56469819D01*
X84779636Y-57469819D02*
X84779636Y-56469819D01*
X85922493Y-57469819D02*
X85351065Y-57469819D01*
X85636779Y-57469819D02*
X85636779Y-56469819D01*
X85636779Y-56469819D02*
X85541541Y-56612676D01*
X85541541Y-56612676D02*
X85446303Y-56707914D01*
X85446303Y-56707914D02*
X85351065Y-56755533D01*
X86112970Y-57565057D02*
X86874874Y-57565057D01*
X87684398Y-57374580D02*
X87636779Y-57422200D01*
X87636779Y-57422200D02*
X87493922Y-57469819D01*
X87493922Y-57469819D02*
X87398684Y-57469819D01*
X87398684Y-57469819D02*
X87255827Y-57422200D01*
X87255827Y-57422200D02*
X87160589Y-57326961D01*
X87160589Y-57326961D02*
X87112970Y-57231723D01*
X87112970Y-57231723D02*
X87065351Y-57041247D01*
X87065351Y-57041247D02*
X87065351Y-56898390D01*
X87065351Y-56898390D02*
X87112970Y-56707914D01*
X87112970Y-56707914D02*
X87160589Y-56612676D01*
X87160589Y-56612676D02*
X87255827Y-56517438D01*
X87255827Y-56517438D02*
X87398684Y-56469819D01*
X87398684Y-56469819D02*
X87493922Y-56469819D01*
X87493922Y-56469819D02*
X87636779Y-56517438D01*
X87636779Y-56517438D02*
X87684398Y-56565057D01*
X88112970Y-57469819D02*
X88112970Y-56469819D01*
X88112970Y-56946009D02*
X88684398Y-56946009D01*
X88684398Y-57469819D02*
X88684398Y-56469819D01*
X89065351Y-56469819D02*
X89684398Y-56469819D01*
X89684398Y-56469819D02*
X89351065Y-56850771D01*
X89351065Y-56850771D02*
X89493922Y-56850771D01*
X89493922Y-56850771D02*
X89589160Y-56898390D01*
X89589160Y-56898390D02*
X89636779Y-56946009D01*
X89636779Y-56946009D02*
X89684398Y-57041247D01*
X89684398Y-57041247D02*
X89684398Y-57279342D01*
X89684398Y-57279342D02*
X89636779Y-57374580D01*
X89636779Y-57374580D02*
X89589160Y-57422200D01*
X89589160Y-57422200D02*
X89493922Y-57469819D01*
X89493922Y-57469819D02*
X89208208Y-57469819D01*
X89208208Y-57469819D02*
X89112970Y-57422200D01*
X89112970Y-57422200D02*
X89065351Y-57374580D01*
D11*
X114484836Y-42833609D02*
X114484836Y-42333609D01*
X114484836Y-42333609D02*
X114651503Y-42690752D01*
X114651503Y-42690752D02*
X114818169Y-42333609D01*
X114818169Y-42333609D02*
X114818169Y-42833609D01*
X115151503Y-42333609D02*
X115246741Y-42333609D01*
X115246741Y-42333609D02*
X115294360Y-42357419D01*
X115294360Y-42357419D02*
X115341979Y-42405038D01*
X115341979Y-42405038D02*
X115365789Y-42500276D01*
X115365789Y-42500276D02*
X115365789Y-42666942D01*
X115365789Y-42666942D02*
X115341979Y-42762180D01*
X115341979Y-42762180D02*
X115294360Y-42809800D01*
X115294360Y-42809800D02*
X115246741Y-42833609D01*
X115246741Y-42833609D02*
X115151503Y-42833609D01*
X115151503Y-42833609D02*
X115103884Y-42809800D01*
X115103884Y-42809800D02*
X115056265Y-42762180D01*
X115056265Y-42762180D02*
X115032456Y-42666942D01*
X115032456Y-42666942D02*
X115032456Y-42500276D01*
X115032456Y-42500276D02*
X115056265Y-42405038D01*
X115056265Y-42405038D02*
X115103884Y-42357419D01*
X115103884Y-42357419D02*
X115151503Y-42333609D01*
X115556266Y-42809800D02*
X115627694Y-42833609D01*
X115627694Y-42833609D02*
X115746742Y-42833609D01*
X115746742Y-42833609D02*
X115794361Y-42809800D01*
X115794361Y-42809800D02*
X115818170Y-42785990D01*
X115818170Y-42785990D02*
X115841980Y-42738371D01*
X115841980Y-42738371D02*
X115841980Y-42690752D01*
X115841980Y-42690752D02*
X115818170Y-42643133D01*
X115818170Y-42643133D02*
X115794361Y-42619323D01*
X115794361Y-42619323D02*
X115746742Y-42595514D01*
X115746742Y-42595514D02*
X115651504Y-42571704D01*
X115651504Y-42571704D02*
X115603885Y-42547895D01*
X115603885Y-42547895D02*
X115580075Y-42524085D01*
X115580075Y-42524085D02*
X115556266Y-42476466D01*
X115556266Y-42476466D02*
X115556266Y-42428847D01*
X115556266Y-42428847D02*
X115580075Y-42381228D01*
X115580075Y-42381228D02*
X115603885Y-42357419D01*
X115603885Y-42357419D02*
X115651504Y-42333609D01*
X115651504Y-42333609D02*
X115770551Y-42333609D01*
X115770551Y-42333609D02*
X115841980Y-42357419D01*
X116056265Y-42833609D02*
X116056265Y-42333609D01*
X114937217Y-44133609D02*
X115246741Y-44133609D01*
X115246741Y-44133609D02*
X115080074Y-44324085D01*
X115080074Y-44324085D02*
X115151503Y-44324085D01*
X115151503Y-44324085D02*
X115199122Y-44347895D01*
X115199122Y-44347895D02*
X115222931Y-44371704D01*
X115222931Y-44371704D02*
X115246741Y-44419323D01*
X115246741Y-44419323D02*
X115246741Y-44538371D01*
X115246741Y-44538371D02*
X115222931Y-44585990D01*
X115222931Y-44585990D02*
X115199122Y-44609800D01*
X115199122Y-44609800D02*
X115151503Y-44633609D01*
X115151503Y-44633609D02*
X115008646Y-44633609D01*
X115008646Y-44633609D02*
X114961027Y-44609800D01*
X114961027Y-44609800D02*
X114937217Y-44585990D01*
X115389598Y-44133609D02*
X115556264Y-44633609D01*
X115556264Y-44633609D02*
X115722931Y-44133609D01*
X115841978Y-44133609D02*
X116151502Y-44133609D01*
X116151502Y-44133609D02*
X115984835Y-44324085D01*
X115984835Y-44324085D02*
X116056264Y-44324085D01*
X116056264Y-44324085D02*
X116103883Y-44347895D01*
X116103883Y-44347895D02*
X116127692Y-44371704D01*
X116127692Y-44371704D02*
X116151502Y-44419323D01*
X116151502Y-44419323D02*
X116151502Y-44538371D01*
X116151502Y-44538371D02*
X116127692Y-44585990D01*
X116127692Y-44585990D02*
X116103883Y-44609800D01*
X116103883Y-44609800D02*
X116056264Y-44633609D01*
X116056264Y-44633609D02*
X115913407Y-44633609D01*
X115913407Y-44633609D02*
X115865788Y-44609800D01*
X115865788Y-44609800D02*
X115841978Y-44585990D01*
X83984966Y-71380877D02*
X83951633Y-71447544D01*
X83951633Y-71447544D02*
X83951633Y-71547544D01*
X83951633Y-71547544D02*
X83984966Y-71647544D01*
X83984966Y-71647544D02*
X84051633Y-71714211D01*
X84051633Y-71714211D02*
X84118300Y-71747544D01*
X84118300Y-71747544D02*
X84251633Y-71780877D01*
X84251633Y-71780877D02*
X84351633Y-71780877D01*
X84351633Y-71780877D02*
X84484966Y-71747544D01*
X84484966Y-71747544D02*
X84551633Y-71714211D01*
X84551633Y-71714211D02*
X84618300Y-71647544D01*
X84618300Y-71647544D02*
X84651633Y-71547544D01*
X84651633Y-71547544D02*
X84651633Y-71480877D01*
X84651633Y-71480877D02*
X84618300Y-71380877D01*
X84618300Y-71380877D02*
X84584966Y-71347544D01*
X84584966Y-71347544D02*
X84351633Y-71347544D01*
X84351633Y-71347544D02*
X84351633Y-71480877D01*
X84651633Y-71047544D02*
X83951633Y-71047544D01*
X83951633Y-71047544D02*
X84651633Y-70647544D01*
X84651633Y-70647544D02*
X83951633Y-70647544D01*
X84651633Y-70314211D02*
X83951633Y-70314211D01*
X83951633Y-70314211D02*
X83951633Y-70147544D01*
X83951633Y-70147544D02*
X83984966Y-70047544D01*
X83984966Y-70047544D02*
X84051633Y-69980878D01*
X84051633Y-69980878D02*
X84118300Y-69947544D01*
X84118300Y-69947544D02*
X84251633Y-69914211D01*
X84251633Y-69914211D02*
X84351633Y-69914211D01*
X84351633Y-69914211D02*
X84484966Y-69947544D01*
X84484966Y-69947544D02*
X84551633Y-69980878D01*
X84551633Y-69980878D02*
X84618300Y-70047544D01*
X84618300Y-70047544D02*
X84651633Y-70147544D01*
X84651633Y-70147544D02*
X84651633Y-70314211D01*
D10*
X62693922Y-50169819D02*
X63265350Y-50169819D01*
X62979636Y-51169819D02*
X62979636Y-50169819D01*
X63741541Y-50598390D02*
X63646303Y-50550771D01*
X63646303Y-50550771D02*
X63598684Y-50503152D01*
X63598684Y-50503152D02*
X63551065Y-50407914D01*
X63551065Y-50407914D02*
X63551065Y-50360295D01*
X63551065Y-50360295D02*
X63598684Y-50265057D01*
X63598684Y-50265057D02*
X63646303Y-50217438D01*
X63646303Y-50217438D02*
X63741541Y-50169819D01*
X63741541Y-50169819D02*
X63932017Y-50169819D01*
X63932017Y-50169819D02*
X64027255Y-50217438D01*
X64027255Y-50217438D02*
X64074874Y-50265057D01*
X64074874Y-50265057D02*
X64122493Y-50360295D01*
X64122493Y-50360295D02*
X64122493Y-50407914D01*
X64122493Y-50407914D02*
X64074874Y-50503152D01*
X64074874Y-50503152D02*
X64027255Y-50550771D01*
X64027255Y-50550771D02*
X63932017Y-50598390D01*
X63932017Y-50598390D02*
X63741541Y-50598390D01*
X63741541Y-50598390D02*
X63646303Y-50646009D01*
X63646303Y-50646009D02*
X63598684Y-50693628D01*
X63598684Y-50693628D02*
X63551065Y-50788866D01*
X63551065Y-50788866D02*
X63551065Y-50979342D01*
X63551065Y-50979342D02*
X63598684Y-51074580D01*
X63598684Y-51074580D02*
X63646303Y-51122200D01*
X63646303Y-51122200D02*
X63741541Y-51169819D01*
X63741541Y-51169819D02*
X63932017Y-51169819D01*
X63932017Y-51169819D02*
X64027255Y-51122200D01*
X64027255Y-51122200D02*
X64074874Y-51074580D01*
X64074874Y-51074580D02*
X64122493Y-50979342D01*
X64122493Y-50979342D02*
X64122493Y-50788866D01*
X64122493Y-50788866D02*
X64074874Y-50693628D01*
X64074874Y-50693628D02*
X64027255Y-50646009D01*
X64027255Y-50646009D02*
X63932017Y-50598390D01*
X64312970Y-51265057D02*
X65074874Y-51265057D01*
X65884398Y-51074580D02*
X65836779Y-51122200D01*
X65836779Y-51122200D02*
X65693922Y-51169819D01*
X65693922Y-51169819D02*
X65598684Y-51169819D01*
X65598684Y-51169819D02*
X65455827Y-51122200D01*
X65455827Y-51122200D02*
X65360589Y-51026961D01*
X65360589Y-51026961D02*
X65312970Y-50931723D01*
X65312970Y-50931723D02*
X65265351Y-50741247D01*
X65265351Y-50741247D02*
X65265351Y-50598390D01*
X65265351Y-50598390D02*
X65312970Y-50407914D01*
X65312970Y-50407914D02*
X65360589Y-50312676D01*
X65360589Y-50312676D02*
X65455827Y-50217438D01*
X65455827Y-50217438D02*
X65598684Y-50169819D01*
X65598684Y-50169819D02*
X65693922Y-50169819D01*
X65693922Y-50169819D02*
X65836779Y-50217438D01*
X65836779Y-50217438D02*
X65884398Y-50265057D01*
X66312970Y-51169819D02*
X66312970Y-50169819D01*
X66312970Y-50646009D02*
X66884398Y-50646009D01*
X66884398Y-51169819D02*
X66884398Y-50169819D01*
X67312970Y-50265057D02*
X67360589Y-50217438D01*
X67360589Y-50217438D02*
X67455827Y-50169819D01*
X67455827Y-50169819D02*
X67693922Y-50169819D01*
X67693922Y-50169819D02*
X67789160Y-50217438D01*
X67789160Y-50217438D02*
X67836779Y-50265057D01*
X67836779Y-50265057D02*
X67884398Y-50360295D01*
X67884398Y-50360295D02*
X67884398Y-50455533D01*
X67884398Y-50455533D02*
X67836779Y-50598390D01*
X67836779Y-50598390D02*
X67265351Y-51169819D01*
X67265351Y-51169819D02*
X67884398Y-51169819D01*
D11*
X114884836Y-42233609D02*
X114884836Y-41733609D01*
X114884836Y-41733609D02*
X115170550Y-42233609D01*
X115170550Y-42233609D02*
X115170550Y-41733609D01*
X115384837Y-42209800D02*
X115456265Y-42233609D01*
X115456265Y-42233609D02*
X115575313Y-42233609D01*
X115575313Y-42233609D02*
X115622932Y-42209800D01*
X115622932Y-42209800D02*
X115646741Y-42185990D01*
X115646741Y-42185990D02*
X115670551Y-42138371D01*
X115670551Y-42138371D02*
X115670551Y-42090752D01*
X115670551Y-42090752D02*
X115646741Y-42043133D01*
X115646741Y-42043133D02*
X115622932Y-42019323D01*
X115622932Y-42019323D02*
X115575313Y-41995514D01*
X115575313Y-41995514D02*
X115480075Y-41971704D01*
X115480075Y-41971704D02*
X115432456Y-41947895D01*
X115432456Y-41947895D02*
X115408646Y-41924085D01*
X115408646Y-41924085D02*
X115384837Y-41876466D01*
X115384837Y-41876466D02*
X115384837Y-41828847D01*
X115384837Y-41828847D02*
X115408646Y-41781228D01*
X115408646Y-41781228D02*
X115432456Y-41757419D01*
X115432456Y-41757419D02*
X115480075Y-41733609D01*
X115480075Y-41733609D02*
X115599122Y-41733609D01*
X115599122Y-41733609D02*
X115670551Y-41757419D01*
X115861027Y-42209800D02*
X115932455Y-42233609D01*
X115932455Y-42233609D02*
X116051503Y-42233609D01*
X116051503Y-42233609D02*
X116099122Y-42209800D01*
X116099122Y-42209800D02*
X116122931Y-42185990D01*
X116122931Y-42185990D02*
X116146741Y-42138371D01*
X116146741Y-42138371D02*
X116146741Y-42090752D01*
X116146741Y-42090752D02*
X116122931Y-42043133D01*
X116122931Y-42043133D02*
X116099122Y-42019323D01*
X116099122Y-42019323D02*
X116051503Y-41995514D01*
X116051503Y-41995514D02*
X115956265Y-41971704D01*
X115956265Y-41971704D02*
X115908646Y-41947895D01*
X115908646Y-41947895D02*
X115884836Y-41924085D01*
X115884836Y-41924085D02*
X115861027Y-41876466D01*
X115861027Y-41876466D02*
X115861027Y-41828847D01*
X115861027Y-41828847D02*
X115884836Y-41781228D01*
X115884836Y-41781228D02*
X115908646Y-41757419D01*
X115908646Y-41757419D02*
X115956265Y-41733609D01*
X115956265Y-41733609D02*
X116075312Y-41733609D01*
X116075312Y-41733609D02*
X116146741Y-41757419D01*
X38834836Y-44283609D02*
X38834836Y-43783609D01*
X38834836Y-43783609D02*
X39120550Y-44283609D01*
X39120550Y-44283609D02*
X39120550Y-43783609D01*
X39334837Y-44259800D02*
X39406265Y-44283609D01*
X39406265Y-44283609D02*
X39525313Y-44283609D01*
X39525313Y-44283609D02*
X39572932Y-44259800D01*
X39572932Y-44259800D02*
X39596741Y-44235990D01*
X39596741Y-44235990D02*
X39620551Y-44188371D01*
X39620551Y-44188371D02*
X39620551Y-44140752D01*
X39620551Y-44140752D02*
X39596741Y-44093133D01*
X39596741Y-44093133D02*
X39572932Y-44069323D01*
X39572932Y-44069323D02*
X39525313Y-44045514D01*
X39525313Y-44045514D02*
X39430075Y-44021704D01*
X39430075Y-44021704D02*
X39382456Y-43997895D01*
X39382456Y-43997895D02*
X39358646Y-43974085D01*
X39358646Y-43974085D02*
X39334837Y-43926466D01*
X39334837Y-43926466D02*
X39334837Y-43878847D01*
X39334837Y-43878847D02*
X39358646Y-43831228D01*
X39358646Y-43831228D02*
X39382456Y-43807419D01*
X39382456Y-43807419D02*
X39430075Y-43783609D01*
X39430075Y-43783609D02*
X39549122Y-43783609D01*
X39549122Y-43783609D02*
X39620551Y-43807419D01*
X39811027Y-44259800D02*
X39882455Y-44283609D01*
X39882455Y-44283609D02*
X40001503Y-44283609D01*
X40001503Y-44283609D02*
X40049122Y-44259800D01*
X40049122Y-44259800D02*
X40072931Y-44235990D01*
X40072931Y-44235990D02*
X40096741Y-44188371D01*
X40096741Y-44188371D02*
X40096741Y-44140752D01*
X40096741Y-44140752D02*
X40072931Y-44093133D01*
X40072931Y-44093133D02*
X40049122Y-44069323D01*
X40049122Y-44069323D02*
X40001503Y-44045514D01*
X40001503Y-44045514D02*
X39906265Y-44021704D01*
X39906265Y-44021704D02*
X39858646Y-43997895D01*
X39858646Y-43997895D02*
X39834836Y-43974085D01*
X39834836Y-43974085D02*
X39811027Y-43926466D01*
X39811027Y-43926466D02*
X39811027Y-43878847D01*
X39811027Y-43878847D02*
X39834836Y-43831228D01*
X39834836Y-43831228D02*
X39858646Y-43807419D01*
X39858646Y-43807419D02*
X39906265Y-43783609D01*
X39906265Y-43783609D02*
X40025312Y-43783609D01*
X40025312Y-43783609D02*
X40096741Y-43807419D01*
X38784836Y-43633609D02*
X38784836Y-43133609D01*
X38784836Y-43133609D02*
X38951503Y-43490752D01*
X38951503Y-43490752D02*
X39118169Y-43133609D01*
X39118169Y-43133609D02*
X39118169Y-43633609D01*
X39451503Y-43133609D02*
X39546741Y-43133609D01*
X39546741Y-43133609D02*
X39594360Y-43157419D01*
X39594360Y-43157419D02*
X39641979Y-43205038D01*
X39641979Y-43205038D02*
X39665789Y-43300276D01*
X39665789Y-43300276D02*
X39665789Y-43466942D01*
X39665789Y-43466942D02*
X39641979Y-43562180D01*
X39641979Y-43562180D02*
X39594360Y-43609800D01*
X39594360Y-43609800D02*
X39546741Y-43633609D01*
X39546741Y-43633609D02*
X39451503Y-43633609D01*
X39451503Y-43633609D02*
X39403884Y-43609800D01*
X39403884Y-43609800D02*
X39356265Y-43562180D01*
X39356265Y-43562180D02*
X39332456Y-43466942D01*
X39332456Y-43466942D02*
X39332456Y-43300276D01*
X39332456Y-43300276D02*
X39356265Y-43205038D01*
X39356265Y-43205038D02*
X39403884Y-43157419D01*
X39403884Y-43157419D02*
X39451503Y-43133609D01*
X39856266Y-43609800D02*
X39927694Y-43633609D01*
X39927694Y-43633609D02*
X40046742Y-43633609D01*
X40046742Y-43633609D02*
X40094361Y-43609800D01*
X40094361Y-43609800D02*
X40118170Y-43585990D01*
X40118170Y-43585990D02*
X40141980Y-43538371D01*
X40141980Y-43538371D02*
X40141980Y-43490752D01*
X40141980Y-43490752D02*
X40118170Y-43443133D01*
X40118170Y-43443133D02*
X40094361Y-43419323D01*
X40094361Y-43419323D02*
X40046742Y-43395514D01*
X40046742Y-43395514D02*
X39951504Y-43371704D01*
X39951504Y-43371704D02*
X39903885Y-43347895D01*
X39903885Y-43347895D02*
X39880075Y-43324085D01*
X39880075Y-43324085D02*
X39856266Y-43276466D01*
X39856266Y-43276466D02*
X39856266Y-43228847D01*
X39856266Y-43228847D02*
X39880075Y-43181228D01*
X39880075Y-43181228D02*
X39903885Y-43157419D01*
X39903885Y-43157419D02*
X39951504Y-43133609D01*
X39951504Y-43133609D02*
X40070551Y-43133609D01*
X40070551Y-43133609D02*
X40141980Y-43157419D01*
X40356265Y-43633609D02*
X40356265Y-43133609D01*
D10*
X68689160Y-61084104D02*
X69165350Y-61084104D01*
X68593922Y-61369819D02*
X68927255Y-60369819D01*
X68927255Y-60369819D02*
X69260588Y-61369819D01*
X70117731Y-61369819D02*
X69546303Y-61369819D01*
X69832017Y-61369819D02*
X69832017Y-60369819D01*
X69832017Y-60369819D02*
X69736779Y-60512676D01*
X69736779Y-60512676D02*
X69641541Y-60607914D01*
X69641541Y-60607914D02*
X69546303Y-60655533D01*
X70308208Y-61465057D02*
X71070112Y-61465057D01*
X71308208Y-61369819D02*
X71308208Y-60369819D01*
X71784398Y-61369819D02*
X71784398Y-60369819D01*
X71784398Y-60369819D02*
X72355826Y-61369819D01*
X72355826Y-61369819D02*
X72355826Y-60369819D01*
X73308207Y-60369819D02*
X72832017Y-60369819D01*
X72832017Y-60369819D02*
X72784398Y-60846009D01*
X72784398Y-60846009D02*
X72832017Y-60798390D01*
X72832017Y-60798390D02*
X72927255Y-60750771D01*
X72927255Y-60750771D02*
X73165350Y-60750771D01*
X73165350Y-60750771D02*
X73260588Y-60798390D01*
X73260588Y-60798390D02*
X73308207Y-60846009D01*
X73308207Y-60846009D02*
X73355826Y-60941247D01*
X73355826Y-60941247D02*
X73355826Y-61179342D01*
X73355826Y-61179342D02*
X73308207Y-61274580D01*
X73308207Y-61274580D02*
X73260588Y-61322200D01*
X73260588Y-61322200D02*
X73165350Y-61369819D01*
X73165350Y-61369819D02*
X72927255Y-61369819D01*
X72927255Y-61369819D02*
X72832017Y-61322200D01*
X72832017Y-61322200D02*
X72784398Y-61274580D01*
D11*
X114584836Y-43433609D02*
X114584836Y-42933609D01*
X114584836Y-42933609D02*
X114751503Y-43290752D01*
X114751503Y-43290752D02*
X114918169Y-42933609D01*
X114918169Y-42933609D02*
X114918169Y-43433609D01*
X115156265Y-43433609D02*
X115156265Y-42933609D01*
X115370551Y-43409800D02*
X115441979Y-43433609D01*
X115441979Y-43433609D02*
X115561027Y-43433609D01*
X115561027Y-43433609D02*
X115608646Y-43409800D01*
X115608646Y-43409800D02*
X115632455Y-43385990D01*
X115632455Y-43385990D02*
X115656265Y-43338371D01*
X115656265Y-43338371D02*
X115656265Y-43290752D01*
X115656265Y-43290752D02*
X115632455Y-43243133D01*
X115632455Y-43243133D02*
X115608646Y-43219323D01*
X115608646Y-43219323D02*
X115561027Y-43195514D01*
X115561027Y-43195514D02*
X115465789Y-43171704D01*
X115465789Y-43171704D02*
X115418170Y-43147895D01*
X115418170Y-43147895D02*
X115394360Y-43124085D01*
X115394360Y-43124085D02*
X115370551Y-43076466D01*
X115370551Y-43076466D02*
X115370551Y-43028847D01*
X115370551Y-43028847D02*
X115394360Y-42981228D01*
X115394360Y-42981228D02*
X115418170Y-42957419D01*
X115418170Y-42957419D02*
X115465789Y-42933609D01*
X115465789Y-42933609D02*
X115584836Y-42933609D01*
X115584836Y-42933609D02*
X115656265Y-42957419D01*
X115965788Y-42933609D02*
X116061026Y-42933609D01*
X116061026Y-42933609D02*
X116108645Y-42957419D01*
X116108645Y-42957419D02*
X116156264Y-43005038D01*
X116156264Y-43005038D02*
X116180074Y-43100276D01*
X116180074Y-43100276D02*
X116180074Y-43266942D01*
X116180074Y-43266942D02*
X116156264Y-43362180D01*
X116156264Y-43362180D02*
X116108645Y-43409800D01*
X116108645Y-43409800D02*
X116061026Y-43433609D01*
X116061026Y-43433609D02*
X115965788Y-43433609D01*
X115965788Y-43433609D02*
X115918169Y-43409800D01*
X115918169Y-43409800D02*
X115870550Y-43362180D01*
X115870550Y-43362180D02*
X115846741Y-43266942D01*
X115846741Y-43266942D02*
X115846741Y-43100276D01*
X115846741Y-43100276D02*
X115870550Y-43005038D01*
X115870550Y-43005038D02*
X115918169Y-42957419D01*
X115918169Y-42957419D02*
X115965788Y-42933609D01*
D10*
G36*
X88966565Y-34276871D02*
G01*
X88997892Y-34307115D01*
X89033350Y-34375972D01*
X89034335Y-34483604D01*
X89001155Y-34551985D01*
X88970910Y-34583313D01*
X88902222Y-34618684D01*
X88776071Y-34619144D01*
X88773249Y-34618646D01*
X88770915Y-34619162D01*
X88610997Y-34619745D01*
X88610464Y-34244550D01*
X88897798Y-34243503D01*
X88966565Y-34276871D01*
G37*
G36*
X92911925Y-35355930D02*
G01*
X88350668Y-35355930D01*
X88350668Y-34169819D01*
X88461779Y-34169819D01*
X88463220Y-35184451D01*
X88474419Y-35211487D01*
X88495111Y-35232179D01*
X88522147Y-35243378D01*
X88551411Y-35243378D01*
X88578447Y-35232179D01*
X88599139Y-35211487D01*
X88610338Y-35184451D01*
X88611779Y-35169819D01*
X88611208Y-34768356D01*
X88735431Y-34767904D01*
X89056336Y-35223989D01*
X89081015Y-35239716D01*
X89109832Y-35244802D01*
X89138403Y-35238472D01*
X89162377Y-35221690D01*
X89178104Y-35197012D01*
X89183189Y-35168194D01*
X89176860Y-35139623D01*
X89169650Y-35126810D01*
X88916793Y-34767439D01*
X88919691Y-34767233D01*
X88932363Y-34767187D01*
X88934852Y-34766155D01*
X88937540Y-34765965D01*
X88951272Y-34760710D01*
X89045828Y-34712017D01*
X89054637Y-34708369D01*
X89057539Y-34705986D01*
X89058953Y-34705259D01*
X89060252Y-34703760D01*
X89066002Y-34699042D01*
X89113343Y-34650006D01*
X89119838Y-34644374D01*
X89121817Y-34641228D01*
X89122948Y-34640058D01*
X89123705Y-34638230D01*
X89127670Y-34631931D01*
X89169345Y-34546041D01*
X89170567Y-34544820D01*
X89174236Y-34535960D01*
X89180544Y-34522962D01*
X89180735Y-34520272D01*
X89181766Y-34517784D01*
X89183207Y-34503152D01*
X89182002Y-34371521D01*
X89182618Y-34369675D01*
X89181892Y-34359460D01*
X89181766Y-34345663D01*
X89180735Y-34343174D01*
X89180544Y-34340485D01*
X89175289Y-34326754D01*
X89126597Y-34232199D01*
X89122948Y-34223389D01*
X89120565Y-34220486D01*
X89119838Y-34219073D01*
X89118339Y-34217773D01*
X89113621Y-34212024D01*
X89069906Y-34169819D01*
X89461779Y-34169819D01*
X89463220Y-35184451D01*
X89474419Y-35211487D01*
X89495111Y-35232179D01*
X89522147Y-35243378D01*
X89536779Y-35244819D01*
X90027601Y-35243378D01*
X90054637Y-35232179D01*
X90075329Y-35211487D01*
X90086528Y-35184451D01*
X90086528Y-35155187D01*
X90075329Y-35128151D01*
X90054637Y-35107459D01*
X90027601Y-35096260D01*
X90012969Y-35094819D01*
X89611674Y-35095997D01*
X89611141Y-34720701D01*
X89884744Y-34719568D01*
X89911780Y-34708369D01*
X89932472Y-34687677D01*
X89943671Y-34660641D01*
X89943671Y-34631377D01*
X89932472Y-34604341D01*
X89911780Y-34583649D01*
X89884744Y-34572450D01*
X89870112Y-34571009D01*
X89610930Y-34572082D01*
X89610629Y-34360295D01*
X90318922Y-34360295D01*
X90320027Y-34444601D01*
X90319511Y-34446152D01*
X90320169Y-34455421D01*
X90320363Y-34470165D01*
X90321394Y-34472654D01*
X90321585Y-34475342D01*
X90326840Y-34489074D01*
X90375532Y-34583630D01*
X90379181Y-34592439D01*
X90381563Y-34595341D01*
X90382291Y-34596755D01*
X90383789Y-34598054D01*
X90388508Y-34603804D01*
X90437543Y-34651145D01*
X90443176Y-34657640D01*
X90446321Y-34659619D01*
X90447492Y-34660750D01*
X90449319Y-34661507D01*
X90455619Y-34665472D01*
X90546851Y-34709740D01*
X90552362Y-34713823D01*
X90563377Y-34717758D01*
X90564588Y-34718346D01*
X90565128Y-34718384D01*
X90566208Y-34718770D01*
X90743691Y-34761854D01*
X90823708Y-34800680D01*
X90855035Y-34830924D01*
X90890557Y-34899905D01*
X90891346Y-34960066D01*
X90858298Y-35028175D01*
X90828052Y-35059504D01*
X90759302Y-35094907D01*
X90552521Y-35096086D01*
X90403302Y-35047789D01*
X90374112Y-35049864D01*
X90347939Y-35062950D01*
X90328765Y-35085057D01*
X90319511Y-35112820D01*
X90321586Y-35142010D01*
X90334672Y-35168183D01*
X90356779Y-35187357D01*
X90370205Y-35193351D01*
X90512786Y-35239500D01*
X90522147Y-35243378D01*
X90525910Y-35243748D01*
X90527398Y-35244230D01*
X90529372Y-35244089D01*
X90536779Y-35244819D01*
X90763383Y-35243526D01*
X90765493Y-35244230D01*
X90776435Y-35243452D01*
X90789506Y-35243378D01*
X90791995Y-35242346D01*
X90794683Y-35242156D01*
X90808415Y-35236901D01*
X90902969Y-35188209D01*
X90911780Y-35184560D01*
X90914682Y-35182177D01*
X90916096Y-35181450D01*
X90917396Y-35179950D01*
X90923146Y-35175232D01*
X90970487Y-35126195D01*
X90976981Y-35120564D01*
X90978960Y-35117418D01*
X90980092Y-35116247D01*
X90980849Y-35114417D01*
X90984813Y-35108121D01*
X91026488Y-35022231D01*
X91027710Y-35021010D01*
X91031379Y-35012150D01*
X91037687Y-34999152D01*
X91037878Y-34996462D01*
X91038909Y-34993974D01*
X91040350Y-34979342D01*
X91039244Y-34895034D01*
X91039761Y-34893484D01*
X91039102Y-34884213D01*
X91038909Y-34869472D01*
X91037878Y-34866983D01*
X91037687Y-34864294D01*
X91032432Y-34850563D01*
X90983740Y-34756008D01*
X90980091Y-34747198D01*
X90977708Y-34744295D01*
X90976981Y-34742882D01*
X90975482Y-34741582D01*
X90970764Y-34735833D01*
X90921728Y-34688491D01*
X90916096Y-34681997D01*
X90912950Y-34680017D01*
X90911780Y-34678887D01*
X90909952Y-34678129D01*
X90903653Y-34674165D01*
X90812421Y-34629898D01*
X90806910Y-34625814D01*
X90795890Y-34621876D01*
X90794683Y-34621291D01*
X90794143Y-34621252D01*
X90793064Y-34620867D01*
X90615580Y-34577782D01*
X90535564Y-34538957D01*
X90504236Y-34508712D01*
X90468714Y-34439731D01*
X90467925Y-34379570D01*
X90500974Y-34311460D01*
X90531218Y-34280133D01*
X90599969Y-34244730D01*
X90806750Y-34243551D01*
X90955969Y-34291849D01*
X90985159Y-34289774D01*
X91011333Y-34276688D01*
X91030507Y-34254580D01*
X91039761Y-34226818D01*
X91037686Y-34197628D01*
X91024599Y-34171455D01*
X91022713Y-34169819D01*
X91318922Y-34169819D01*
X91320363Y-35184451D01*
X91331562Y-35211487D01*
X91352254Y-35232179D01*
X91379290Y-35243378D01*
X91393922Y-35244819D01*
X91884744Y-35243378D01*
X91911780Y-35232179D01*
X91932472Y-35211487D01*
X91943671Y-35184451D01*
X91943671Y-35155187D01*
X91932472Y-35128151D01*
X91911780Y-35107459D01*
X91884744Y-35096260D01*
X91870112Y-35094819D01*
X91468817Y-35095997D01*
X91468284Y-34720701D01*
X91741887Y-34719568D01*
X91768923Y-34708369D01*
X91789615Y-34687677D01*
X91800814Y-34660641D01*
X91800814Y-34631377D01*
X91789615Y-34604341D01*
X91768923Y-34583649D01*
X91741887Y-34572450D01*
X91727255Y-34571009D01*
X91468073Y-34572082D01*
X91467607Y-34244602D01*
X91884744Y-34243378D01*
X91911780Y-34232179D01*
X91932472Y-34211487D01*
X91943671Y-34184451D01*
X91943671Y-34155187D01*
X92082268Y-34155187D01*
X92082268Y-34184451D01*
X92093467Y-34211487D01*
X92114159Y-34232179D01*
X92141195Y-34243378D01*
X92155827Y-34244819D01*
X92366646Y-34244300D01*
X92367982Y-35184451D01*
X92379181Y-35211487D01*
X92399873Y-35232179D01*
X92426909Y-35243378D01*
X92456173Y-35243378D01*
X92483209Y-35232179D01*
X92503901Y-35211487D01*
X92515100Y-35184451D01*
X92516541Y-35169819D01*
X92515226Y-34243935D01*
X92741887Y-34243378D01*
X92768923Y-34232179D01*
X92789615Y-34211487D01*
X92800814Y-34184451D01*
X92800814Y-34155187D01*
X92789615Y-34128151D01*
X92768923Y-34107459D01*
X92741887Y-34096260D01*
X92727255Y-34094819D01*
X92141195Y-34096260D01*
X92114159Y-34107459D01*
X92093467Y-34128151D01*
X92082268Y-34155187D01*
X91943671Y-34155187D01*
X91932472Y-34128151D01*
X91911780Y-34107459D01*
X91884744Y-34096260D01*
X91870112Y-34094819D01*
X91379290Y-34096260D01*
X91352254Y-34107459D01*
X91331562Y-34128151D01*
X91320363Y-34155187D01*
X91318922Y-34169819D01*
X91022713Y-34169819D01*
X91002492Y-34152281D01*
X90989067Y-34146287D01*
X90846488Y-34100138D01*
X90837125Y-34096260D01*
X90833359Y-34095889D01*
X90831873Y-34095408D01*
X90829898Y-34095548D01*
X90822493Y-34094819D01*
X90595887Y-34096111D01*
X90593778Y-34095408D01*
X90582835Y-34096185D01*
X90569766Y-34096260D01*
X90567277Y-34097290D01*
X90564588Y-34097482D01*
X90550857Y-34102737D01*
X90456302Y-34151428D01*
X90447492Y-34155078D01*
X90444589Y-34157460D01*
X90443176Y-34158188D01*
X90441876Y-34159686D01*
X90436127Y-34164405D01*
X90388785Y-34213440D01*
X90382291Y-34219073D01*
X90380311Y-34222218D01*
X90379181Y-34223389D01*
X90378423Y-34225216D01*
X90374459Y-34231516D01*
X90332784Y-34317404D01*
X90331562Y-34318627D01*
X90327889Y-34327492D01*
X90321585Y-34340486D01*
X90321394Y-34343173D01*
X90320363Y-34345663D01*
X90318922Y-34360295D01*
X89610629Y-34360295D01*
X89610464Y-34244602D01*
X90027601Y-34243378D01*
X90054637Y-34232179D01*
X90075329Y-34211487D01*
X90086528Y-34184451D01*
X90086528Y-34155187D01*
X90075329Y-34128151D01*
X90054637Y-34107459D01*
X90027601Y-34096260D01*
X90012969Y-34094819D01*
X89522147Y-34096260D01*
X89495111Y-34107459D01*
X89474419Y-34128151D01*
X89463220Y-34155187D01*
X89461779Y-34169819D01*
X89069906Y-34169819D01*
X89064585Y-34164682D01*
X89058953Y-34158188D01*
X89055807Y-34156208D01*
X89054637Y-34155078D01*
X89052809Y-34154320D01*
X89046510Y-34150356D01*
X88960621Y-34108681D01*
X88959399Y-34107459D01*
X88950533Y-34103786D01*
X88937540Y-34097482D01*
X88934852Y-34097291D01*
X88932363Y-34096260D01*
X88917731Y-34094819D01*
X88522147Y-34096260D01*
X88495111Y-34107459D01*
X88474419Y-34128151D01*
X88463220Y-34155187D01*
X88461779Y-34169819D01*
X88350668Y-34169819D01*
X88350668Y-33983708D01*
X92911925Y-33983708D01*
X92911925Y-35355930D01*
G37*
D11*
X39046741Y-40557419D02*
X38999122Y-40533609D01*
X38999122Y-40533609D02*
X38927693Y-40533609D01*
X38927693Y-40533609D02*
X38856265Y-40557419D01*
X38856265Y-40557419D02*
X38808646Y-40605038D01*
X38808646Y-40605038D02*
X38784836Y-40652657D01*
X38784836Y-40652657D02*
X38761027Y-40747895D01*
X38761027Y-40747895D02*
X38761027Y-40819323D01*
X38761027Y-40819323D02*
X38784836Y-40914561D01*
X38784836Y-40914561D02*
X38808646Y-40962180D01*
X38808646Y-40962180D02*
X38856265Y-41009800D01*
X38856265Y-41009800D02*
X38927693Y-41033609D01*
X38927693Y-41033609D02*
X38975312Y-41033609D01*
X38975312Y-41033609D02*
X39046741Y-41009800D01*
X39046741Y-41009800D02*
X39070550Y-40985990D01*
X39070550Y-40985990D02*
X39070550Y-40819323D01*
X39070550Y-40819323D02*
X38975312Y-40819323D01*
X39284836Y-41033609D02*
X39284836Y-40533609D01*
X39284836Y-40533609D02*
X39570550Y-41033609D01*
X39570550Y-41033609D02*
X39570550Y-40533609D01*
X39808646Y-41033609D02*
X39808646Y-40533609D01*
X39808646Y-40533609D02*
X39927694Y-40533609D01*
X39927694Y-40533609D02*
X39999122Y-40557419D01*
X39999122Y-40557419D02*
X40046741Y-40605038D01*
X40046741Y-40605038D02*
X40070551Y-40652657D01*
X40070551Y-40652657D02*
X40094360Y-40747895D01*
X40094360Y-40747895D02*
X40094360Y-40819323D01*
X40094360Y-40819323D02*
X40070551Y-40914561D01*
X40070551Y-40914561D02*
X40046741Y-40962180D01*
X40046741Y-40962180D02*
X39999122Y-41009800D01*
X39999122Y-41009800D02*
X39927694Y-41033609D01*
X39927694Y-41033609D02*
X39808646Y-41033609D01*
X80534966Y-71397544D02*
X80568300Y-71430877D01*
X80568300Y-71430877D02*
X80601633Y-71530877D01*
X80601633Y-71530877D02*
X80601633Y-71597544D01*
X80601633Y-71597544D02*
X80568300Y-71697544D01*
X80568300Y-71697544D02*
X80501633Y-71764211D01*
X80501633Y-71764211D02*
X80434966Y-71797544D01*
X80434966Y-71797544D02*
X80301633Y-71830877D01*
X80301633Y-71830877D02*
X80201633Y-71830877D01*
X80201633Y-71830877D02*
X80068300Y-71797544D01*
X80068300Y-71797544D02*
X80001633Y-71764211D01*
X80001633Y-71764211D02*
X79934966Y-71697544D01*
X79934966Y-71697544D02*
X79901633Y-71597544D01*
X79901633Y-71597544D02*
X79901633Y-71530877D01*
X79901633Y-71530877D02*
X79934966Y-71430877D01*
X79934966Y-71430877D02*
X79968300Y-71397544D01*
X80601633Y-70764211D02*
X80601633Y-71097544D01*
X80601633Y-71097544D02*
X79901633Y-71097544D01*
X80601633Y-70530877D02*
X79901633Y-70530877D01*
X80601633Y-70130877D02*
X80201633Y-70430877D01*
X79901633Y-70130877D02*
X80301633Y-70530877D01*
D10*
X77336779Y-41469819D02*
X77336779Y-40469819D01*
X77336779Y-40469819D02*
X77670112Y-41184104D01*
X77670112Y-41184104D02*
X78003445Y-40469819D01*
X78003445Y-40469819D02*
X78003445Y-41469819D01*
X78670112Y-40469819D02*
X78860588Y-40469819D01*
X78860588Y-40469819D02*
X78955826Y-40517438D01*
X78955826Y-40517438D02*
X79051064Y-40612676D01*
X79051064Y-40612676D02*
X79098683Y-40803152D01*
X79098683Y-40803152D02*
X79098683Y-41136485D01*
X79098683Y-41136485D02*
X79051064Y-41326961D01*
X79051064Y-41326961D02*
X78955826Y-41422200D01*
X78955826Y-41422200D02*
X78860588Y-41469819D01*
X78860588Y-41469819D02*
X78670112Y-41469819D01*
X78670112Y-41469819D02*
X78574874Y-41422200D01*
X78574874Y-41422200D02*
X78479636Y-41326961D01*
X78479636Y-41326961D02*
X78432017Y-41136485D01*
X78432017Y-41136485D02*
X78432017Y-40803152D01*
X78432017Y-40803152D02*
X78479636Y-40612676D01*
X78479636Y-40612676D02*
X78574874Y-40517438D01*
X78574874Y-40517438D02*
X78670112Y-40469819D01*
X79479636Y-41422200D02*
X79622493Y-41469819D01*
X79622493Y-41469819D02*
X79860588Y-41469819D01*
X79860588Y-41469819D02*
X79955826Y-41422200D01*
X79955826Y-41422200D02*
X80003445Y-41374580D01*
X80003445Y-41374580D02*
X80051064Y-41279342D01*
X80051064Y-41279342D02*
X80051064Y-41184104D01*
X80051064Y-41184104D02*
X80003445Y-41088866D01*
X80003445Y-41088866D02*
X79955826Y-41041247D01*
X79955826Y-41041247D02*
X79860588Y-40993628D01*
X79860588Y-40993628D02*
X79670112Y-40946009D01*
X79670112Y-40946009D02*
X79574874Y-40898390D01*
X79574874Y-40898390D02*
X79527255Y-40850771D01*
X79527255Y-40850771D02*
X79479636Y-40755533D01*
X79479636Y-40755533D02*
X79479636Y-40660295D01*
X79479636Y-40660295D02*
X79527255Y-40565057D01*
X79527255Y-40565057D02*
X79574874Y-40517438D01*
X79574874Y-40517438D02*
X79670112Y-40469819D01*
X79670112Y-40469819D02*
X79908207Y-40469819D01*
X79908207Y-40469819D02*
X80051064Y-40517438D01*
X80479636Y-41469819D02*
X80479636Y-40469819D01*
X78789160Y-54984104D02*
X79265350Y-54984104D01*
X78693922Y-55269819D02*
X79027255Y-54269819D01*
X79027255Y-54269819D02*
X79360588Y-55269819D01*
X80217731Y-55269819D02*
X79646303Y-55269819D01*
X79932017Y-55269819D02*
X79932017Y-54269819D01*
X79932017Y-54269819D02*
X79836779Y-54412676D01*
X79836779Y-54412676D02*
X79741541Y-54507914D01*
X79741541Y-54507914D02*
X79646303Y-54555533D01*
X80408208Y-55365057D02*
X81170112Y-55365057D01*
X81408208Y-55269819D02*
X81408208Y-54269819D01*
X81884398Y-55269819D02*
X81884398Y-54269819D01*
X81884398Y-54269819D02*
X82455826Y-55269819D01*
X82455826Y-55269819D02*
X82455826Y-54269819D01*
X83455826Y-55269819D02*
X82884398Y-55269819D01*
X83170112Y-55269819D02*
X83170112Y-54269819D01*
X83170112Y-54269819D02*
X83074874Y-54412676D01*
X83074874Y-54412676D02*
X82979636Y-54507914D01*
X82979636Y-54507914D02*
X82884398Y-54555533D01*
X84408207Y-55269819D02*
X83836779Y-55269819D01*
X84122493Y-55269819D02*
X84122493Y-54269819D01*
X84122493Y-54269819D02*
X84027255Y-54412676D01*
X84027255Y-54412676D02*
X83932017Y-54507914D01*
X83932017Y-54507914D02*
X83836779Y-54555533D01*
D11*
X38811027Y-42309800D02*
X38882455Y-42333609D01*
X38882455Y-42333609D02*
X39001503Y-42333609D01*
X39001503Y-42333609D02*
X39049122Y-42309800D01*
X39049122Y-42309800D02*
X39072931Y-42285990D01*
X39072931Y-42285990D02*
X39096741Y-42238371D01*
X39096741Y-42238371D02*
X39096741Y-42190752D01*
X39096741Y-42190752D02*
X39072931Y-42143133D01*
X39072931Y-42143133D02*
X39049122Y-42119323D01*
X39049122Y-42119323D02*
X39001503Y-42095514D01*
X39001503Y-42095514D02*
X38906265Y-42071704D01*
X38906265Y-42071704D02*
X38858646Y-42047895D01*
X38858646Y-42047895D02*
X38834836Y-42024085D01*
X38834836Y-42024085D02*
X38811027Y-41976466D01*
X38811027Y-41976466D02*
X38811027Y-41928847D01*
X38811027Y-41928847D02*
X38834836Y-41881228D01*
X38834836Y-41881228D02*
X38858646Y-41857419D01*
X38858646Y-41857419D02*
X38906265Y-41833609D01*
X38906265Y-41833609D02*
X39025312Y-41833609D01*
X39025312Y-41833609D02*
X39096741Y-41857419D01*
X39596740Y-42285990D02*
X39572931Y-42309800D01*
X39572931Y-42309800D02*
X39501502Y-42333609D01*
X39501502Y-42333609D02*
X39453883Y-42333609D01*
X39453883Y-42333609D02*
X39382455Y-42309800D01*
X39382455Y-42309800D02*
X39334836Y-42262180D01*
X39334836Y-42262180D02*
X39311026Y-42214561D01*
X39311026Y-42214561D02*
X39287217Y-42119323D01*
X39287217Y-42119323D02*
X39287217Y-42047895D01*
X39287217Y-42047895D02*
X39311026Y-41952657D01*
X39311026Y-41952657D02*
X39334836Y-41905038D01*
X39334836Y-41905038D02*
X39382455Y-41857419D01*
X39382455Y-41857419D02*
X39453883Y-41833609D01*
X39453883Y-41833609D02*
X39501502Y-41833609D01*
X39501502Y-41833609D02*
X39572931Y-41857419D01*
X39572931Y-41857419D02*
X39596740Y-41881228D01*
X39811026Y-42333609D02*
X39811026Y-41833609D01*
X40096740Y-42333609D02*
X39882455Y-42047895D01*
X40096740Y-41833609D02*
X39811026Y-42119323D01*
X94233609Y-38529449D02*
X93995514Y-38696115D01*
X94233609Y-38815163D02*
X93733609Y-38815163D01*
X93733609Y-38815163D02*
X93733609Y-38624687D01*
X93733609Y-38624687D02*
X93757419Y-38577068D01*
X93757419Y-38577068D02*
X93781228Y-38553258D01*
X93781228Y-38553258D02*
X93828847Y-38529449D01*
X93828847Y-38529449D02*
X93900276Y-38529449D01*
X93900276Y-38529449D02*
X93947895Y-38553258D01*
X93947895Y-38553258D02*
X93971704Y-38577068D01*
X93971704Y-38577068D02*
X93995514Y-38624687D01*
X93995514Y-38624687D02*
X93995514Y-38815163D01*
X93733609Y-38362782D02*
X94233609Y-38029449D01*
X93733609Y-38029449D02*
X94233609Y-38362782D01*
D10*
X80189160Y-36422200D02*
X80332017Y-36469819D01*
X80332017Y-36469819D02*
X80570112Y-36469819D01*
X80570112Y-36469819D02*
X80665350Y-36422200D01*
X80665350Y-36422200D02*
X80712969Y-36374580D01*
X80712969Y-36374580D02*
X80760588Y-36279342D01*
X80760588Y-36279342D02*
X80760588Y-36184104D01*
X80760588Y-36184104D02*
X80712969Y-36088866D01*
X80712969Y-36088866D02*
X80665350Y-36041247D01*
X80665350Y-36041247D02*
X80570112Y-35993628D01*
X80570112Y-35993628D02*
X80379636Y-35946009D01*
X80379636Y-35946009D02*
X80284398Y-35898390D01*
X80284398Y-35898390D02*
X80236779Y-35850771D01*
X80236779Y-35850771D02*
X80189160Y-35755533D01*
X80189160Y-35755533D02*
X80189160Y-35660295D01*
X80189160Y-35660295D02*
X80236779Y-35565057D01*
X80236779Y-35565057D02*
X80284398Y-35517438D01*
X80284398Y-35517438D02*
X80379636Y-35469819D01*
X80379636Y-35469819D02*
X80617731Y-35469819D01*
X80617731Y-35469819D02*
X80760588Y-35517438D01*
X81760588Y-36374580D02*
X81712969Y-36422200D01*
X81712969Y-36422200D02*
X81570112Y-36469819D01*
X81570112Y-36469819D02*
X81474874Y-36469819D01*
X81474874Y-36469819D02*
X81332017Y-36422200D01*
X81332017Y-36422200D02*
X81236779Y-36326961D01*
X81236779Y-36326961D02*
X81189160Y-36231723D01*
X81189160Y-36231723D02*
X81141541Y-36041247D01*
X81141541Y-36041247D02*
X81141541Y-35898390D01*
X81141541Y-35898390D02*
X81189160Y-35707914D01*
X81189160Y-35707914D02*
X81236779Y-35612676D01*
X81236779Y-35612676D02*
X81332017Y-35517438D01*
X81332017Y-35517438D02*
X81474874Y-35469819D01*
X81474874Y-35469819D02*
X81570112Y-35469819D01*
X81570112Y-35469819D02*
X81712969Y-35517438D01*
X81712969Y-35517438D02*
X81760588Y-35565057D01*
X82189160Y-36469819D02*
X82189160Y-35469819D01*
X82760588Y-36469819D02*
X82332017Y-35898390D01*
X82760588Y-35469819D02*
X82189160Y-36041247D01*
X43736779Y-42469819D02*
X43736779Y-41469819D01*
X43736779Y-41469819D02*
X44117731Y-41469819D01*
X44117731Y-41469819D02*
X44212969Y-41517438D01*
X44212969Y-41517438D02*
X44260588Y-41565057D01*
X44260588Y-41565057D02*
X44308207Y-41660295D01*
X44308207Y-41660295D02*
X44308207Y-41803152D01*
X44308207Y-41803152D02*
X44260588Y-41898390D01*
X44260588Y-41898390D02*
X44212969Y-41946009D01*
X44212969Y-41946009D02*
X44117731Y-41993628D01*
X44117731Y-41993628D02*
X43736779Y-41993628D01*
X45260588Y-41517438D02*
X45165350Y-41469819D01*
X45165350Y-41469819D02*
X45022493Y-41469819D01*
X45022493Y-41469819D02*
X44879636Y-41517438D01*
X44879636Y-41517438D02*
X44784398Y-41612676D01*
X44784398Y-41612676D02*
X44736779Y-41707914D01*
X44736779Y-41707914D02*
X44689160Y-41898390D01*
X44689160Y-41898390D02*
X44689160Y-42041247D01*
X44689160Y-42041247D02*
X44736779Y-42231723D01*
X44736779Y-42231723D02*
X44784398Y-42326961D01*
X44784398Y-42326961D02*
X44879636Y-42422200D01*
X44879636Y-42422200D02*
X45022493Y-42469819D01*
X45022493Y-42469819D02*
X45117731Y-42469819D01*
X45117731Y-42469819D02*
X45260588Y-42422200D01*
X45260588Y-42422200D02*
X45308207Y-42374580D01*
X45308207Y-42374580D02*
X45308207Y-42041247D01*
X45308207Y-42041247D02*
X45117731Y-42041247D01*
X45736779Y-42469819D02*
X45736779Y-41469819D01*
X45736779Y-41469819D02*
X46308207Y-42469819D01*
X46308207Y-42469819D02*
X46308207Y-41469819D01*
X46784398Y-42469819D02*
X46784398Y-41469819D01*
X46784398Y-41469819D02*
X47022493Y-41469819D01*
X47022493Y-41469819D02*
X47165350Y-41517438D01*
X47165350Y-41517438D02*
X47260588Y-41612676D01*
X47260588Y-41612676D02*
X47308207Y-41707914D01*
X47308207Y-41707914D02*
X47355826Y-41898390D01*
X47355826Y-41898390D02*
X47355826Y-42041247D01*
X47355826Y-42041247D02*
X47308207Y-42231723D01*
X47308207Y-42231723D02*
X47260588Y-42326961D01*
X47260588Y-42326961D02*
X47165350Y-42422200D01*
X47165350Y-42422200D02*
X47022493Y-42469819D01*
X47022493Y-42469819D02*
X46784398Y-42469819D01*
D11*
X93157419Y-44153258D02*
X93133609Y-44200877D01*
X93133609Y-44200877D02*
X93133609Y-44272306D01*
X93133609Y-44272306D02*
X93157419Y-44343734D01*
X93157419Y-44343734D02*
X93205038Y-44391353D01*
X93205038Y-44391353D02*
X93252657Y-44415163D01*
X93252657Y-44415163D02*
X93347895Y-44438972D01*
X93347895Y-44438972D02*
X93419323Y-44438972D01*
X93419323Y-44438972D02*
X93514561Y-44415163D01*
X93514561Y-44415163D02*
X93562180Y-44391353D01*
X93562180Y-44391353D02*
X93609800Y-44343734D01*
X93609800Y-44343734D02*
X93633609Y-44272306D01*
X93633609Y-44272306D02*
X93633609Y-44224687D01*
X93633609Y-44224687D02*
X93609800Y-44153258D01*
X93609800Y-44153258D02*
X93585990Y-44129449D01*
X93585990Y-44129449D02*
X93419323Y-44129449D01*
X93419323Y-44129449D02*
X93419323Y-44224687D01*
X93633609Y-43915163D02*
X93133609Y-43915163D01*
X93133609Y-43915163D02*
X93633609Y-43629449D01*
X93633609Y-43629449D02*
X93133609Y-43629449D01*
X93633609Y-43391353D02*
X93133609Y-43391353D01*
X93133609Y-43391353D02*
X93133609Y-43272305D01*
X93133609Y-43272305D02*
X93157419Y-43200877D01*
X93157419Y-43200877D02*
X93205038Y-43153258D01*
X93205038Y-43153258D02*
X93252657Y-43129448D01*
X93252657Y-43129448D02*
X93347895Y-43105639D01*
X93347895Y-43105639D02*
X93419323Y-43105639D01*
X93419323Y-43105639D02*
X93514561Y-43129448D01*
X93514561Y-43129448D02*
X93562180Y-43153258D01*
X93562180Y-43153258D02*
X93609800Y-43200877D01*
X93609800Y-43200877D02*
X93633609Y-43272305D01*
X93633609Y-43272305D02*
X93633609Y-43391353D01*
X38784836Y-42983609D02*
X38784836Y-42483609D01*
X38784836Y-42483609D02*
X38951503Y-42840752D01*
X38951503Y-42840752D02*
X39118169Y-42483609D01*
X39118169Y-42483609D02*
X39118169Y-42983609D01*
X39356265Y-42983609D02*
X39356265Y-42483609D01*
X39570551Y-42959800D02*
X39641979Y-42983609D01*
X39641979Y-42983609D02*
X39761027Y-42983609D01*
X39761027Y-42983609D02*
X39808646Y-42959800D01*
X39808646Y-42959800D02*
X39832455Y-42935990D01*
X39832455Y-42935990D02*
X39856265Y-42888371D01*
X39856265Y-42888371D02*
X39856265Y-42840752D01*
X39856265Y-42840752D02*
X39832455Y-42793133D01*
X39832455Y-42793133D02*
X39808646Y-42769323D01*
X39808646Y-42769323D02*
X39761027Y-42745514D01*
X39761027Y-42745514D02*
X39665789Y-42721704D01*
X39665789Y-42721704D02*
X39618170Y-42697895D01*
X39618170Y-42697895D02*
X39594360Y-42674085D01*
X39594360Y-42674085D02*
X39570551Y-42626466D01*
X39570551Y-42626466D02*
X39570551Y-42578847D01*
X39570551Y-42578847D02*
X39594360Y-42531228D01*
X39594360Y-42531228D02*
X39618170Y-42507419D01*
X39618170Y-42507419D02*
X39665789Y-42483609D01*
X39665789Y-42483609D02*
X39784836Y-42483609D01*
X39784836Y-42483609D02*
X39856265Y-42507419D01*
X40165788Y-42483609D02*
X40261026Y-42483609D01*
X40261026Y-42483609D02*
X40308645Y-42507419D01*
X40308645Y-42507419D02*
X40356264Y-42555038D01*
X40356264Y-42555038D02*
X40380074Y-42650276D01*
X40380074Y-42650276D02*
X40380074Y-42816942D01*
X40380074Y-42816942D02*
X40356264Y-42912180D01*
X40356264Y-42912180D02*
X40308645Y-42959800D01*
X40308645Y-42959800D02*
X40261026Y-42983609D01*
X40261026Y-42983609D02*
X40165788Y-42983609D01*
X40165788Y-42983609D02*
X40118169Y-42959800D01*
X40118169Y-42959800D02*
X40070550Y-42912180D01*
X40070550Y-42912180D02*
X40046741Y-42816942D01*
X40046741Y-42816942D02*
X40046741Y-42650276D01*
X40046741Y-42650276D02*
X40070550Y-42555038D01*
X40070550Y-42555038D02*
X40118169Y-42507419D01*
X40118169Y-42507419D02*
X40165788Y-42483609D01*
D10*
X50428571Y-48014700D02*
X51571429Y-48014700D01*
X51000000Y-48586128D02*
X51000000Y-47443271D01*
X63428571Y-48014700D02*
X64571429Y-48014700D01*
D12*
%TO.C,TP39*%
X85300000Y-34800000D02*
G75*
G02*
X83900000Y-34800000I-700000J0D01*
G01*
X83900000Y-34800000D02*
G75*
G02*
X85300000Y-34800000I700000J0D01*
G01*
%TO.C,TP38*%
X71300000Y-33200000D02*
G75*
G02*
X69900000Y-33200000I-700000J0D01*
G01*
X69900000Y-33200000D02*
G75*
G02*
X71300000Y-33200000I700000J0D01*
G01*
%TO.C,TP37*%
X83300000Y-39800000D02*
G75*
G02*
X81900000Y-39800000I-700000J0D01*
G01*
X81900000Y-39800000D02*
G75*
G02*
X83300000Y-39800000I700000J0D01*
G01*
%TO.C,TP36*%
X81700000Y-58800000D02*
G75*
G02*
X80300000Y-58800000I-700000J0D01*
G01*
X80300000Y-58800000D02*
G75*
G02*
X81700000Y-58800000I700000J0D01*
G01*
%TO.C,TP35*%
X88500000Y-39800000D02*
G75*
G02*
X87100000Y-39800000I-700000J0D01*
G01*
X87100000Y-39800000D02*
G75*
G02*
X88500000Y-39800000I700000J0D01*
G01*
%TO.C,TP34*%
X83100000Y-44800000D02*
G75*
G02*
X81700000Y-44800000I-700000J0D01*
G01*
X81700000Y-44800000D02*
G75*
G02*
X83100000Y-44800000I700000J0D01*
G01*
%TO.C,TP33*%
X94100000Y-45800000D02*
G75*
G02*
X92700000Y-45800000I-700000J0D01*
G01*
X92700000Y-45800000D02*
G75*
G02*
X94100000Y-45800000I700000J0D01*
G01*
%TO.C,TP32*%
X68100000Y-45200000D02*
G75*
G02*
X66700000Y-45200000I-700000J0D01*
G01*
X66700000Y-45200000D02*
G75*
G02*
X68100000Y-45200000I700000J0D01*
G01*
%TO.C,TP31*%
X89100000Y-48400000D02*
G75*
G02*
X87700000Y-48400000I-700000J0D01*
G01*
X87700000Y-48400000D02*
G75*
G02*
X89100000Y-48400000I700000J0D01*
G01*
%TO.C,TP30*%
X86900000Y-47800000D02*
G75*
G02*
X85500000Y-47800000I-700000J0D01*
G01*
X85500000Y-47800000D02*
G75*
G02*
X86900000Y-47800000I700000J0D01*
G01*
%TO.C,TP29*%
X66500000Y-43800000D02*
G75*
G02*
X65100000Y-43800000I-700000J0D01*
G01*
X65100000Y-43800000D02*
G75*
G02*
X66500000Y-43800000I700000J0D01*
G01*
%TO.C,TP13*%
X93900000Y-60700000D02*
G75*
G02*
X92500000Y-60700000I-700000J0D01*
G01*
X92500000Y-60700000D02*
G75*
G02*
X93900000Y-60700000I700000J0D01*
G01*
D13*
%TO.C,J2*%
X86925000Y-67000000D02*
X86925000Y-68869000D01*
X88119000Y-67000000D02*
X86925000Y-67000000D01*
X88300000Y-71300000D02*
X93900000Y-71300000D01*
X89081000Y-67000000D02*
X89119000Y-67000000D01*
X90081000Y-67000000D02*
X90119000Y-67000000D01*
X91081000Y-67000000D02*
X91119000Y-67000000D01*
X92081000Y-67000000D02*
X92119000Y-67000000D01*
X93081000Y-67000000D02*
X93119000Y-67000000D01*
X94081000Y-67000000D02*
X95275000Y-67000000D01*
X95275000Y-67027000D02*
X95275000Y-68882000D01*
D12*
X88076000Y-66773000D02*
X87568000Y-66773000D01*
X87822000Y-66392000D01*
X88076000Y-66773000D01*
G36*
X88076000Y-66773000D02*
G01*
X87568000Y-66773000D01*
X87822000Y-66392000D01*
X88076000Y-66773000D01*
G37*
D13*
%TO.C,RV1*%
X97444000Y-30904000D02*
X97952000Y-30904000D01*
X97444000Y-31412000D02*
X97444000Y-30904000D01*
X97444000Y-35476000D02*
X97444000Y-31412000D01*
X97444000Y-38016000D02*
X97444000Y-34968000D01*
X97952000Y-30904000D02*
X97952000Y-31412000D01*
X97952000Y-31412000D02*
X98968000Y-31412000D01*
X98968000Y-30904000D02*
X100492000Y-30904000D01*
X98968000Y-31412000D02*
X98968000Y-30904000D01*
X99984000Y-34460000D02*
X102016000Y-34460000D01*
X100492000Y-30904000D02*
X100492000Y-31412000D01*
X100492000Y-31412000D02*
X101508000Y-31412000D01*
X101000000Y-33444000D02*
X101000000Y-35476000D01*
X101508000Y-30904000D02*
X103032000Y-30904000D01*
X101508000Y-31412000D02*
X101508000Y-30904000D01*
X103032000Y-30904000D02*
X103032000Y-31412000D01*
X103032000Y-31412000D02*
X104048000Y-31412000D01*
X104048000Y-30904000D02*
X104556000Y-30904000D01*
X104048000Y-31412000D02*
X104048000Y-30904000D01*
X104556000Y-30904000D02*
X104556000Y-31412000D01*
X104556000Y-31412000D02*
X104556000Y-34968000D01*
X104556000Y-34968000D02*
X104556000Y-38016000D01*
X104556000Y-38016000D02*
X97444000Y-38016000D01*
X100980000Y-35595000D02*
G75*
G02*
X101000304Y-35594997I10000J1135000D01*
G01*
X103537000Y-37381000D02*
G75*
G02*
X103539534Y-37381024I1987J76000D01*
G01*
D12*
%TO.C,TP1*%
X36686500Y-59143500D02*
X38086500Y-59143500D01*
X36686500Y-60543500D02*
X36686500Y-59143500D01*
X38086500Y-59143500D02*
X38086500Y-60543500D01*
X38086500Y-60543500D02*
X36686500Y-60543500D01*
D13*
%TO.C,CN2*%
X117171500Y-58123500D02*
X119090500Y-58123500D01*
X117171500Y-59222500D02*
X117171500Y-58123500D01*
X117171500Y-62184500D02*
X117171500Y-63283500D01*
X117171500Y-63283500D02*
X119090500Y-63283500D01*
X121870500Y-61977500D02*
X121870500Y-59429500D01*
D12*
X116790500Y-62648500D02*
X116282500Y-62648500D01*
X116536500Y-62267500D01*
X116790500Y-62648500D01*
G36*
X116790500Y-62648500D02*
G01*
X116282500Y-62648500D01*
X116536500Y-62267500D01*
X116790500Y-62648500D01*
G37*
D14*
%TO.C,P1*%
X89437000Y-40099000D02*
X89437000Y-42099000D01*
X91854000Y-40099000D02*
X92607000Y-40099000D01*
X91854000Y-42099000D02*
X92107000Y-42099000D01*
X92867000Y-42099000D02*
X93107000Y-42099000D01*
X93367000Y-40099000D02*
X93607000Y-40099000D01*
X93867000Y-42099000D02*
X94619000Y-42099000D01*
X94367000Y-40099000D02*
X94619000Y-40099000D01*
X97037000Y-42099000D02*
X97037000Y-40099000D01*
D12*
%TO.C,TP10*%
X73200000Y-52500000D02*
G75*
G02*
X71800000Y-52500000I-700000J0D01*
G01*
X71800000Y-52500000D02*
G75*
G02*
X73200000Y-52500000I700000J0D01*
G01*
%TO.C,TP17*%
X72100000Y-62400000D02*
G75*
G02*
X70700000Y-62400000I-700000J0D01*
G01*
X70700000Y-62400000D02*
G75*
G02*
X72100000Y-62400000I700000J0D01*
G01*
%TO.C,TP27*%
X49500000Y-51200000D02*
G75*
G02*
X48100000Y-51200000I-700000J0D01*
G01*
X48100000Y-51200000D02*
G75*
G02*
X49500000Y-51200000I700000J0D01*
G01*
%TO.C,TP14*%
X61900000Y-53900000D02*
G75*
G02*
X60500000Y-53900000I-700000J0D01*
G01*
X60500000Y-53900000D02*
G75*
G02*
X61900000Y-53900000I700000J0D01*
G01*
D13*
%TO.C,U4*%
X120977000Y-38906000D02*
X122137000Y-38906000D01*
X122137000Y-38906000D02*
X122137000Y-47894000D01*
X122137000Y-47894000D02*
X120977000Y-47894000D01*
D12*
X116883000Y-40565000D02*
X116960000Y-40588000D01*
X117031000Y-40626000D01*
X117094000Y-40677000D01*
X117145000Y-40740000D01*
X117183000Y-40811000D01*
X117206000Y-40888000D01*
X117214000Y-40968000D01*
X117206000Y-41048000D01*
X117183000Y-41125000D01*
X117145000Y-41196000D01*
X117094000Y-41259000D01*
X117031000Y-41310000D01*
X116960000Y-41348000D01*
X116883000Y-41371000D01*
X116803000Y-41379000D01*
X116723000Y-41371000D01*
X116646000Y-41348000D01*
X116575000Y-41310000D01*
X116512000Y-41259000D01*
X116461000Y-41196000D01*
X116423000Y-41125000D01*
X116400000Y-41048000D01*
X116392000Y-40968000D01*
X116400000Y-40888000D01*
X116423000Y-40811000D01*
X116461000Y-40740000D01*
X116512000Y-40677000D01*
X116575000Y-40626000D01*
X116646000Y-40588000D01*
X116723000Y-40565000D01*
X116803000Y-40557000D01*
X116883000Y-40565000D01*
G36*
X116883000Y-40565000D02*
G01*
X116960000Y-40588000D01*
X117031000Y-40626000D01*
X117094000Y-40677000D01*
X117145000Y-40740000D01*
X117183000Y-40811000D01*
X117206000Y-40888000D01*
X117214000Y-40968000D01*
X117206000Y-41048000D01*
X117183000Y-41125000D01*
X117145000Y-41196000D01*
X117094000Y-41259000D01*
X117031000Y-41310000D01*
X116960000Y-41348000D01*
X116883000Y-41371000D01*
X116803000Y-41379000D01*
X116723000Y-41371000D01*
X116646000Y-41348000D01*
X116575000Y-41310000D01*
X116512000Y-41259000D01*
X116461000Y-41196000D01*
X116423000Y-41125000D01*
X116400000Y-41048000D01*
X116392000Y-40968000D01*
X116400000Y-40888000D01*
X116423000Y-40811000D01*
X116461000Y-40740000D01*
X116512000Y-40677000D01*
X116575000Y-40626000D01*
X116646000Y-40588000D01*
X116723000Y-40565000D01*
X116803000Y-40557000D01*
X116883000Y-40565000D01*
G37*
%TO.C,TP3*%
X36666500Y-55733500D02*
X38066500Y-55733500D01*
X36666500Y-57133500D02*
X36666500Y-55733500D01*
X38066500Y-55733500D02*
X38066500Y-57133500D01*
X38066500Y-57133500D02*
X36666500Y-57133500D01*
%TO.C,TP7*%
X76400000Y-56300000D02*
G75*
G02*
X75000000Y-56300000I-700000J0D01*
G01*
X75000000Y-56300000D02*
G75*
G02*
X76400000Y-56300000I700000J0D01*
G01*
%TO.C,TP19*%
X82100000Y-56300000D02*
G75*
G02*
X80700000Y-56300000I-700000J0D01*
G01*
X80700000Y-56300000D02*
G75*
G02*
X82100000Y-56300000I700000J0D01*
G01*
%TO.C,D12*%
X99940000Y-44140000D02*
X99940000Y-46060000D01*
X99940000Y-46060000D02*
X102800000Y-46060000D01*
X102800000Y-44140000D02*
X99940000Y-44140000D01*
%TO.C,TP9*%
X107300000Y-69000000D02*
G75*
G02*
X105900000Y-69000000I-700000J0D01*
G01*
X105900000Y-69000000D02*
G75*
G02*
X107300000Y-69000000I700000J0D01*
G01*
%TO.C,TP21*%
X49100000Y-42800000D02*
G75*
G02*
X47700000Y-42800000I-700000J0D01*
G01*
X47700000Y-42800000D02*
G75*
G02*
X49100000Y-42800000I700000J0D01*
G01*
%TO.C,TP5*%
X117820000Y-59990000D02*
X119220000Y-59990000D01*
X117820000Y-61390000D02*
X117820000Y-59990000D01*
X119220000Y-59990000D02*
X119220000Y-61390000D01*
X119220000Y-61390000D02*
X117820000Y-61390000D01*
%TO.C,TP2*%
X34566500Y-57433500D02*
X35966500Y-57433500D01*
X34566500Y-58833500D02*
X34566500Y-57433500D01*
X35966500Y-57433500D02*
X35966500Y-58833500D01*
X35966500Y-58833500D02*
X34566500Y-58833500D01*
%TO.C,TP20*%
X43900000Y-33000000D02*
G75*
G02*
X42500000Y-33000000I-700000J0D01*
G01*
X42500000Y-33000000D02*
G75*
G02*
X43900000Y-33000000I700000J0D01*
G01*
D14*
%TO.C,SW1*%
X88424000Y-30924000D02*
X88424000Y-31617000D01*
X88424000Y-34076000D02*
X88424000Y-33383000D01*
X92576000Y-30924000D02*
X88424000Y-30924000D01*
X92576000Y-30924000D02*
X92576000Y-31617000D01*
X92576000Y-34076000D02*
X88424000Y-34076000D01*
X92576000Y-34076000D02*
X92576000Y-33383000D01*
D13*
X91313000Y-32500000D02*
G75*
G02*
X89687000Y-32500000I-813000J0D01*
G01*
X89687000Y-32500000D02*
G75*
G02*
X91313000Y-32500000I813000J0D01*
G01*
D12*
%TO.C,TP24*%
X77400000Y-39400000D02*
G75*
G02*
X76000000Y-39400000I-700000J0D01*
G01*
X76000000Y-39400000D02*
G75*
G02*
X77400000Y-39400000I700000J0D01*
G01*
%TO.C,TP15*%
X65500000Y-52500000D02*
G75*
G02*
X64100000Y-52500000I-700000J0D01*
G01*
X64100000Y-52500000D02*
G75*
G02*
X65500000Y-52500000I700000J0D01*
G01*
D14*
%TO.C,SW2*%
X64724000Y-30824000D02*
X64724000Y-31517000D01*
X64724000Y-30824000D02*
X68876000Y-30824000D01*
X64724000Y-33976000D02*
X64724000Y-33283000D01*
X64724000Y-33976000D02*
X68876000Y-33976000D01*
X68876000Y-30824000D02*
X68876000Y-31517000D01*
X68876000Y-33976000D02*
X68876000Y-33283000D01*
D13*
X67613000Y-32400000D02*
G75*
G02*
X65987000Y-32400000I-813000J0D01*
G01*
X65987000Y-32400000D02*
G75*
G02*
X67613000Y-32400000I813000J0D01*
G01*
D12*
%TO.C,TP16*%
X64400000Y-56300000D02*
G75*
G02*
X63000000Y-56300000I-700000J0D01*
G01*
X63000000Y-56300000D02*
G75*
G02*
X64400000Y-56300000I700000J0D01*
G01*
%TO.C,TP12*%
X95600000Y-62700000D02*
G75*
G02*
X94200000Y-62700000I-700000J0D01*
G01*
X94200000Y-62700000D02*
G75*
G02*
X95600000Y-62700000I700000J0D01*
G01*
%TO.C,TP26*%
X108000000Y-55600000D02*
G75*
G02*
X106600000Y-55600000I-700000J0D01*
G01*
X106600000Y-55600000D02*
G75*
G02*
X108000000Y-55600000I700000J0D01*
G01*
%TO.C,TP8*%
X66300000Y-61600000D02*
G75*
G02*
X64900000Y-61600000I-700000J0D01*
G01*
X64900000Y-61600000D02*
G75*
G02*
X66300000Y-61600000I700000J0D01*
G01*
%TO.C,TP18*%
X85300000Y-59000000D02*
G75*
G02*
X83900000Y-59000000I-700000J0D01*
G01*
X83900000Y-59000000D02*
G75*
G02*
X85300000Y-59000000I700000J0D01*
G01*
%TO.C,TP28*%
X49100000Y-68200000D02*
G75*
G02*
X47700000Y-68200000I-700000J0D01*
G01*
X47700000Y-68200000D02*
G75*
G02*
X49100000Y-68200000I700000J0D01*
G01*
%TO.C,J1*%
X52290000Y-50610000D02*
X52290000Y-45190000D01*
X61010000Y-45190000D02*
X52290000Y-45190000D01*
X61010000Y-50610000D02*
X52290000Y-50610000D01*
X62710000Y-46490000D02*
X61010000Y-45190000D01*
X62710000Y-49310000D02*
X61010000Y-50610000D01*
X62710000Y-49310000D02*
X62710000Y-46490000D01*
%TO.C,TP11*%
X83900000Y-57300000D02*
G75*
G02*
X82500000Y-57300000I-700000J0D01*
G01*
X82500000Y-57300000D02*
G75*
G02*
X83900000Y-57300000I700000J0D01*
G01*
%TO.C,TP4*%
X116340000Y-58300000D02*
X117740000Y-58300000D01*
X116340000Y-59700000D02*
X116340000Y-58300000D01*
X117740000Y-58300000D02*
X117740000Y-59700000D01*
X117740000Y-59700000D02*
X116340000Y-59700000D01*
D13*
%TO.C,CN1*%
X32586000Y-56826000D02*
X32586000Y-59374000D01*
X37285000Y-55520000D02*
X35366000Y-55520000D01*
X37285000Y-56619000D02*
X37285000Y-55520000D01*
X37285000Y-59581000D02*
X37285000Y-60680000D01*
X37285000Y-60680000D02*
X35366000Y-60680000D01*
D12*
X37920000Y-56536000D02*
X37666000Y-56155000D01*
X38174000Y-56155000D01*
X37920000Y-56536000D01*
G36*
X37920000Y-56536000D02*
G01*
X37666000Y-56155000D01*
X38174000Y-56155000D01*
X37920000Y-56536000D01*
G37*
%TO.C,TP25*%
X79500000Y-39600000D02*
G75*
G02*
X78100000Y-39600000I-700000J0D01*
G01*
X78100000Y-39600000D02*
G75*
G02*
X79500000Y-39600000I700000J0D01*
G01*
D13*
%TO.C,U10*%
X32580000Y-37856000D02*
X33740000Y-37856000D01*
X32580000Y-46844000D02*
X32580000Y-37856000D01*
X33740000Y-46844000D02*
X32580000Y-46844000D01*
D12*
X37994000Y-44379000D02*
X38071000Y-44402000D01*
X38142000Y-44440000D01*
X38205000Y-44491000D01*
X38256000Y-44554000D01*
X38294000Y-44625000D01*
X38317000Y-44702000D01*
X38325000Y-44782000D01*
X38317000Y-44862000D01*
X38294000Y-44939000D01*
X38256000Y-45010000D01*
X38205000Y-45073000D01*
X38142000Y-45124000D01*
X38071000Y-45162000D01*
X37994000Y-45185000D01*
X37914000Y-45193000D01*
X37834000Y-45185000D01*
X37757000Y-45162000D01*
X37686000Y-45124000D01*
X37623000Y-45073000D01*
X37572000Y-45010000D01*
X37534000Y-44939000D01*
X37511000Y-44862000D01*
X37503000Y-44782000D01*
X37511000Y-44702000D01*
X37534000Y-44625000D01*
X37572000Y-44554000D01*
X37623000Y-44491000D01*
X37686000Y-44440000D01*
X37757000Y-44402000D01*
X37834000Y-44379000D01*
X37914000Y-44371000D01*
X37994000Y-44379000D01*
G36*
X37994000Y-44379000D02*
G01*
X38071000Y-44402000D01*
X38142000Y-44440000D01*
X38205000Y-44491000D01*
X38256000Y-44554000D01*
X38294000Y-44625000D01*
X38317000Y-44702000D01*
X38325000Y-44782000D01*
X38317000Y-44862000D01*
X38294000Y-44939000D01*
X38256000Y-45010000D01*
X38205000Y-45073000D01*
X38142000Y-45124000D01*
X38071000Y-45162000D01*
X37994000Y-45185000D01*
X37914000Y-45193000D01*
X37834000Y-45185000D01*
X37757000Y-45162000D01*
X37686000Y-45124000D01*
X37623000Y-45073000D01*
X37572000Y-45010000D01*
X37534000Y-44939000D01*
X37511000Y-44862000D01*
X37503000Y-44782000D01*
X37511000Y-44702000D01*
X37534000Y-44625000D01*
X37572000Y-44554000D01*
X37623000Y-44491000D01*
X37686000Y-44440000D01*
X37757000Y-44402000D01*
X37834000Y-44379000D01*
X37914000Y-44371000D01*
X37994000Y-44379000D01*
G37*
%TO.C,TP23*%
X81300000Y-37600000D02*
G75*
G02*
X79900000Y-37600000I-700000J0D01*
G01*
X79900000Y-37600000D02*
G75*
G02*
X81300000Y-37600000I700000J0D01*
G01*
%TO.C,TP22*%
X111800000Y-32600000D02*
G75*
G02*
X110400000Y-32600000I-700000J0D01*
G01*
X110400000Y-32600000D02*
G75*
G02*
X111800000Y-32600000I700000J0D01*
G01*
%TO.C,TP6*%
X116290000Y-61700000D02*
X117690000Y-61700000D01*
X116290000Y-63100000D02*
X116290000Y-61700000D01*
X117690000Y-61700000D02*
X117690000Y-63100000D01*
X117690000Y-63100000D02*
X116290000Y-63100000D01*
%TD*%
M02*
