%TF.GenerationSoftware,KiCad,Pcbnew,8.0.2*%
%TF.CreationDate,2024-05-12T09:50:27+08:00*%
%TF.ProjectId,bldcDriver,626c6463-4472-4697-9665-722e6b696361,rev?*%
%TF.SameCoordinates,Original*%
%TF.FileFunction,Drillmap*%
%TF.FilePolarity,Positive*%
%FSLAX45Y45*%
G04 Gerber Fmt 4.5, Leading zero omitted, Abs format (unit mm)*
G04 Created by KiCad (PCBNEW 8.0.2) date 2024-05-12 09:50:27*
%MOMM*%
%LPD*%
G01*
G04 APERTURE LIST*
%ADD10C,0.100000*%
%ADD11C,0.200000*%
%ADD12C,0.220000*%
G04 APERTURE END LIST*
D10*
X3245500Y-7019000D02*
X3245500Y-3269000D01*
X3445500Y-7219000D02*
G75*
G02*
X3245500Y-7019000I0J200000D01*
G01*
X12023584Y-7219000D02*
X11935500Y-7219000D01*
X12023584Y-3069000D02*
G75*
G02*
X12223580Y-3269000I-4J-200000D01*
G01*
X12223584Y-3269000D02*
X12223584Y-7019000D01*
X3445500Y-3069000D02*
X11935500Y-3069000D01*
X12223584Y-7019000D02*
G75*
G02*
X12023584Y-7219004I-200004J0D01*
G01*
X3245500Y-3269000D02*
G75*
G02*
X3445500Y-3069000I200000J0D01*
G01*
X11935500Y-7219000D02*
X3445500Y-7219000D01*
X11935500Y-3069000D02*
X12023584Y-3069000D01*
D11*
D10*
X3701500Y-4165500D02*
X3726500Y-4190500D01*
X3726500Y-4165500D02*
X3701500Y-4190500D01*
X3797500Y-4265500D02*
X3822500Y-4290500D01*
X3822500Y-4265500D02*
X3797500Y-4290500D01*
X3987500Y-5581500D02*
X4012500Y-5606500D01*
X4012500Y-5581500D02*
X3987500Y-5606500D01*
X4057500Y-6557500D02*
X4082500Y-6582500D01*
X4082500Y-6557500D02*
X4057500Y-6582500D01*
X4057500Y-6617500D02*
X4082500Y-6642500D01*
X4082500Y-6617500D02*
X4057500Y-6642500D01*
X4057500Y-6677500D02*
X4082500Y-6702500D01*
X4082500Y-6677500D02*
X4057500Y-6702500D01*
X4067500Y-5817500D02*
X4092500Y-5842500D01*
X4092500Y-5817500D02*
X4067500Y-5842500D01*
X4067500Y-5877500D02*
X4092500Y-5902500D01*
X4092500Y-5877500D02*
X4067500Y-5902500D01*
X4067500Y-5937500D02*
X4092500Y-5962500D01*
X4092500Y-5937500D02*
X4067500Y-5962500D01*
X4087500Y-5057500D02*
X4112500Y-5082500D01*
X4112500Y-5057500D02*
X4087500Y-5082500D01*
X4087500Y-5117500D02*
X4112500Y-5142500D01*
X4112500Y-5117500D02*
X4087500Y-5142500D01*
X4087500Y-5177500D02*
X4112500Y-5202500D01*
X4112500Y-5177500D02*
X4087500Y-5202500D01*
X4117500Y-6557500D02*
X4142500Y-6582500D01*
X4142500Y-6557500D02*
X4117500Y-6582500D01*
X4117500Y-6617500D02*
X4142500Y-6642500D01*
X4142500Y-6617500D02*
X4117500Y-6642500D01*
X4117500Y-6677500D02*
X4142500Y-6702500D01*
X4142500Y-6677500D02*
X4117500Y-6702500D01*
X4127500Y-5817500D02*
X4152500Y-5842500D01*
X4152500Y-5817500D02*
X4127500Y-5842500D01*
X4127500Y-5877500D02*
X4152500Y-5902500D01*
X4152500Y-5877500D02*
X4127500Y-5902500D01*
X4127500Y-5937500D02*
X4152500Y-5962500D01*
X4152500Y-5937500D02*
X4127500Y-5962500D01*
X4127500Y-6137500D02*
X4152500Y-6162500D01*
X4152500Y-6137500D02*
X4127500Y-6162500D01*
X4137500Y-6877500D02*
X4162500Y-6902500D01*
X4162500Y-6877500D02*
X4137500Y-6902500D01*
X4147500Y-5057500D02*
X4172500Y-5082500D01*
X4172500Y-5057500D02*
X4147500Y-5082500D01*
X4147500Y-5117500D02*
X4172500Y-5142500D01*
X4172500Y-5117500D02*
X4147500Y-5142500D01*
X4147500Y-5177500D02*
X4172500Y-5202500D01*
X4172500Y-5177500D02*
X4147500Y-5202500D01*
X4477500Y-5167500D02*
X4502500Y-5192500D01*
X4502500Y-5167500D02*
X4477500Y-5192500D01*
X4497500Y-5077500D02*
X4522500Y-5102500D01*
X4522500Y-5077500D02*
X4497500Y-5102500D01*
X4512500Y-5876500D02*
X4537500Y-5901500D01*
X4537500Y-5876500D02*
X4512500Y-5901500D01*
X4516375Y-6168625D02*
X4541375Y-6193625D01*
X4541375Y-6168625D02*
X4516375Y-6193625D01*
X4537500Y-5117500D02*
X4562500Y-5142500D01*
X4562500Y-5117500D02*
X4537500Y-5142500D01*
X4547500Y-7077500D02*
X4572500Y-7102500D01*
X4572500Y-7077500D02*
X4547500Y-7102500D01*
X4587500Y-5077500D02*
X4612500Y-5102500D01*
X4612500Y-5077500D02*
X4587500Y-5102500D01*
X4597500Y-5157500D02*
X4622500Y-5182500D01*
X4622500Y-5157500D02*
X4597500Y-5182500D01*
X4750479Y-5351033D02*
X4775479Y-5376033D01*
X4775479Y-5351033D02*
X4750479Y-5376033D01*
X4967500Y-6337500D02*
X4992500Y-6362500D01*
X4992500Y-6337500D02*
X4967500Y-6362500D01*
X4977500Y-6050000D02*
X5002500Y-6075000D01*
X5002500Y-6050000D02*
X4977500Y-6075000D01*
X5057500Y-5397500D02*
X5082500Y-5422500D01*
X5082500Y-5397500D02*
X5057500Y-5422500D01*
X5060454Y-6250450D02*
X5085454Y-6275450D01*
X5085454Y-6250450D02*
X5060454Y-6275450D01*
X5131371Y-6047500D02*
X5156371Y-6072500D01*
X5156371Y-6047500D02*
X5131371Y-6072500D01*
X5159217Y-5851050D02*
X5184217Y-5876050D01*
X5184217Y-5851050D02*
X5159217Y-5876050D01*
X5227500Y-5455000D02*
X5252500Y-5480000D01*
X5252500Y-5455000D02*
X5227500Y-5480000D01*
X5527500Y-4087500D02*
X5552500Y-4112500D01*
X5552500Y-4087500D02*
X5527500Y-4112500D01*
X5551250Y-3611250D02*
X5576250Y-3636250D01*
X5576250Y-3611250D02*
X5551250Y-3636250D01*
X5777500Y-6401642D02*
X5802500Y-6426642D01*
X5802500Y-6401642D02*
X5777500Y-6426642D01*
X5794600Y-5854650D02*
X5819600Y-5879650D01*
X5819600Y-5854650D02*
X5794600Y-5879650D01*
X5794600Y-6047850D02*
X5819600Y-6072850D01*
X5819600Y-6047850D02*
X5794600Y-6072850D01*
X5827500Y-6307500D02*
X5852500Y-6332500D01*
X5852500Y-6307500D02*
X5827500Y-6332500D01*
X5954978Y-5914978D02*
X5979978Y-5939978D01*
X5979978Y-5914978D02*
X5954978Y-5939978D01*
X6024540Y-5828396D02*
X6049540Y-5853396D01*
X6049540Y-5828396D02*
X6024540Y-5853396D01*
X6401250Y-5897500D02*
X6426250Y-5922500D01*
X6426250Y-5897500D02*
X6401250Y-5922500D01*
X6747500Y-4443548D02*
X6772500Y-4468548D01*
X6772500Y-4443548D02*
X6747500Y-4468548D01*
X6797500Y-4372414D02*
X6822500Y-4397414D01*
X6822500Y-4372414D02*
X6797500Y-4397414D01*
X7117250Y-5402500D02*
X7142250Y-5427500D01*
X7142250Y-5402500D02*
X7117250Y-5427500D01*
X7182359Y-4260000D02*
X7207359Y-4285000D01*
X7207359Y-4260000D02*
X7182359Y-4285000D01*
X7197500Y-5096500D02*
X7222500Y-5121500D01*
X7222500Y-5096500D02*
X7197500Y-5121500D01*
X7230862Y-4524029D02*
X7255862Y-4549029D01*
X7255862Y-4524029D02*
X7230862Y-4549029D01*
X7240991Y-4595218D02*
X7265991Y-4620218D01*
X7265991Y-4595218D02*
X7240991Y-4620218D01*
X7273495Y-4442035D02*
X7298495Y-4467035D01*
X7298495Y-4442035D02*
X7273495Y-4467035D01*
X7275172Y-4667500D02*
X7300172Y-4692500D01*
X7300172Y-4667500D02*
X7275172Y-4692500D01*
X7280775Y-4372414D02*
X7305775Y-4397414D01*
X7305775Y-4372414D02*
X7280775Y-4397414D01*
X7367500Y-4677500D02*
X7392500Y-4702500D01*
X7392500Y-4677500D02*
X7367500Y-4702500D01*
X7413125Y-4733125D02*
X7438125Y-4758125D01*
X7438125Y-4733125D02*
X7413125Y-4758125D01*
X7457500Y-6007500D02*
X7482500Y-6032500D01*
X7482500Y-6007500D02*
X7457500Y-6032500D01*
X7657500Y-6457500D02*
X7682500Y-6482500D01*
X7682500Y-6457500D02*
X7657500Y-6482500D01*
X7811351Y-4811000D02*
X7836351Y-4836000D01*
X7836351Y-4811000D02*
X7811351Y-4836000D01*
X7860750Y-5514250D02*
X7885750Y-5539250D01*
X7885750Y-5514250D02*
X7860750Y-5539250D01*
X7867500Y-5947500D02*
X7892500Y-5972500D01*
X7892500Y-5947500D02*
X7867500Y-5972500D01*
X7877500Y-6587500D02*
X7902500Y-6612500D01*
X7902500Y-6587500D02*
X7877500Y-6612500D01*
X7878883Y-3964254D02*
X7903883Y-3989254D01*
X7903883Y-3964254D02*
X7878883Y-3989254D01*
X7887500Y-6306250D02*
X7912500Y-6331250D01*
X7912500Y-6306250D02*
X7887500Y-6331250D01*
X7894858Y-4811000D02*
X7919858Y-4836000D01*
X7919858Y-4811000D02*
X7894858Y-4836000D01*
X7990000Y-4811000D02*
X8015000Y-4836000D01*
X8015000Y-4811000D02*
X7990000Y-4836000D01*
X8037500Y-4033750D02*
X8062500Y-4058750D01*
X8062500Y-4033750D02*
X8037500Y-4058750D01*
X8047500Y-4681000D02*
X8072500Y-4706000D01*
X8072500Y-4681000D02*
X8047500Y-4706000D01*
X8125151Y-4395000D02*
X8150151Y-4420000D01*
X8150151Y-4395000D02*
X8125151Y-4420000D01*
X8147500Y-4560000D02*
X8172500Y-4585000D01*
X8172500Y-4560000D02*
X8147500Y-4585000D01*
X8325000Y-6597500D02*
X8350000Y-6622500D01*
X8350000Y-6597500D02*
X8325000Y-6622500D01*
X8657500Y-5947500D02*
X8682500Y-5972500D01*
X8682500Y-5947500D02*
X8657500Y-5972500D01*
X8937500Y-5547500D02*
X8962500Y-5572500D01*
X8962500Y-5547500D02*
X8937500Y-5572500D01*
X8977500Y-4257500D02*
X9002500Y-4282500D01*
X9002500Y-4257500D02*
X8977500Y-4282500D01*
X9067500Y-4115000D02*
X9092500Y-4140000D01*
X9092500Y-4115000D02*
X9067500Y-4140000D01*
X9077500Y-5687500D02*
X9102500Y-5712500D01*
X9102500Y-5687500D02*
X9077500Y-5712500D01*
X9187500Y-4290000D02*
X9212500Y-4315000D01*
X9212500Y-4290000D02*
X9187500Y-4315000D01*
X9222500Y-3600204D02*
X9247500Y-3625204D01*
X9247500Y-3600204D02*
X9222500Y-3625204D01*
X9285000Y-4405000D02*
X9310000Y-4430000D01*
X9310000Y-4405000D02*
X9285000Y-4430000D01*
X9401375Y-3391375D02*
X9426375Y-3416375D01*
X9426375Y-3391375D02*
X9401375Y-3416375D01*
X9464917Y-3658042D02*
X9489917Y-3683042D01*
X9489917Y-3658042D02*
X9464917Y-3683042D01*
X9607500Y-3866612D02*
X9632500Y-3891612D01*
X9632500Y-3866612D02*
X9607500Y-3891612D01*
X9647500Y-6617500D02*
X9672500Y-6642500D01*
X9672500Y-6617500D02*
X9647500Y-6642500D01*
X9665350Y-6005350D02*
X9690350Y-6030350D01*
X9690350Y-6005350D02*
X9665350Y-6030350D01*
X9687500Y-6268950D02*
X9712500Y-6293950D01*
X9712500Y-6268950D02*
X9687500Y-6293950D01*
X9687500Y-6460350D02*
X9712500Y-6485350D01*
X9712500Y-6460350D02*
X9687500Y-6485350D01*
X9722850Y-5942150D02*
X9747850Y-5967150D01*
X9747850Y-5942150D02*
X9722850Y-5967150D01*
X10337941Y-5945622D02*
X10362941Y-5970622D01*
X10362941Y-5945622D02*
X10337941Y-5970622D01*
X10361411Y-6252717D02*
X10386411Y-6277717D01*
X10386411Y-6252717D02*
X10361411Y-6277717D01*
X10476750Y-6368298D02*
X10501750Y-6393298D01*
X10501750Y-6368298D02*
X10476750Y-6393298D01*
X10624490Y-6074490D02*
X10649490Y-6099490D01*
X10649490Y-6074490D02*
X10624490Y-6099490D01*
X10937500Y-5286648D02*
X10962500Y-5311648D01*
X10962500Y-5286648D02*
X10937500Y-5311648D01*
X10956750Y-6041500D02*
X10981750Y-6066500D01*
X10981750Y-6041500D02*
X10956750Y-6066500D01*
X10987500Y-6594648D02*
X11012500Y-6619648D01*
X11012500Y-6594648D02*
X10987500Y-6619648D01*
X11307500Y-6207500D02*
X11332500Y-6232500D01*
X11332500Y-6207500D02*
X11307500Y-6232500D01*
X11307500Y-6267500D02*
X11332500Y-6292500D01*
X11332500Y-6267500D02*
X11307500Y-6292500D01*
X11307500Y-6327500D02*
X11332500Y-6352500D01*
X11332500Y-6327500D02*
X11307500Y-6352500D01*
X11327500Y-5477500D02*
X11352500Y-5502500D01*
X11352500Y-5477500D02*
X11327500Y-5502500D01*
X11327500Y-5537500D02*
X11352500Y-5562500D01*
X11352500Y-5537500D02*
X11327500Y-5562500D01*
X11327500Y-5597500D02*
X11352500Y-5622500D01*
X11352500Y-5597500D02*
X11327500Y-5622500D01*
X11327500Y-6957500D02*
X11352500Y-6982500D01*
X11352500Y-6957500D02*
X11327500Y-6982500D01*
X11327500Y-7017500D02*
X11352500Y-7042500D01*
X11352500Y-7017500D02*
X11327500Y-7042500D01*
X11327500Y-7077500D02*
X11352500Y-7102500D01*
X11352500Y-7077500D02*
X11327500Y-7102500D01*
X11367500Y-6207500D02*
X11392500Y-6232500D01*
X11392500Y-6207500D02*
X11367500Y-6232500D01*
X11367500Y-6267500D02*
X11392500Y-6292500D01*
X11392500Y-6267500D02*
X11367500Y-6292500D01*
X11367500Y-6327500D02*
X11392500Y-6352500D01*
X11392500Y-6327500D02*
X11367500Y-6352500D01*
X11387500Y-5477500D02*
X11412500Y-5502500D01*
X11412500Y-5477500D02*
X11387500Y-5502500D01*
X11387500Y-5537500D02*
X11412500Y-5562500D01*
X11412500Y-5537500D02*
X11387500Y-5562500D01*
X11387500Y-5597500D02*
X11412500Y-5622500D01*
X11412500Y-5597500D02*
X11387500Y-5622500D01*
X11387500Y-6957500D02*
X11412500Y-6982500D01*
X11412500Y-6957500D02*
X11387500Y-6982500D01*
X11387500Y-7017500D02*
X11412500Y-7042500D01*
X11412500Y-7017500D02*
X11387500Y-7042500D01*
X11387500Y-7077500D02*
X11412500Y-7102500D01*
X11412500Y-7077500D02*
X11387500Y-7102500D01*
X11422125Y-5972125D02*
X11447125Y-5997125D01*
X11447125Y-5972125D02*
X11422125Y-5997125D01*
X7741125Y-5276125D02*
G75*
G02*
X7711125Y-5276125I-15000J0D01*
G01*
X7711125Y-5276125D02*
G75*
G02*
X7741125Y-5276125I15000J0D01*
G01*
X8410000Y-5456000D02*
G75*
G02*
X8380000Y-5456000I-15000J0D01*
G01*
X8380000Y-5456000D02*
G75*
G02*
X8410000Y-5456000I15000J0D01*
G01*
X8985000Y-3990000D02*
G75*
G02*
X8955000Y-3990000I-15000J0D01*
G01*
X8955000Y-3990000D02*
G75*
G02*
X8985000Y-3990000I15000J0D01*
G01*
X9377500Y-3645899D02*
G75*
G02*
X9347500Y-3645899I-15000J0D01*
G01*
X9347500Y-3645899D02*
G75*
G02*
X9377500Y-3645899I15000J0D01*
G01*
X9595000Y-4007500D02*
G75*
G02*
X9565000Y-4007500I-15000J0D01*
G01*
X9565000Y-4007500D02*
G75*
G02*
X9595000Y-4007500I15000J0D01*
G01*
X4200000Y-3600000D02*
X4200000Y-3640000D01*
X4180000Y-3620000D02*
X4220000Y-3620000D01*
X4220000Y-3890000D02*
X4220000Y-3930000D01*
X4200000Y-3910000D02*
X4240000Y-3910000D01*
X4280000Y-4010000D02*
X4280000Y-4050000D01*
X4260000Y-4030000D02*
X4300000Y-4030000D01*
X4360000Y-3620000D02*
X4360000Y-3660000D01*
X4340000Y-3640000D02*
X4380000Y-3640000D01*
X4460000Y-3680000D02*
X4460000Y-3720000D01*
X4440000Y-3700000D02*
X4480000Y-3700000D01*
X4480000Y-3910000D02*
X4480000Y-3950000D01*
X4460000Y-3930000D02*
X4500000Y-3930000D01*
X4530000Y-4180000D02*
X4530000Y-4220000D01*
X4510000Y-4200000D02*
X4550000Y-4200000D01*
X4580000Y-3720000D02*
X4580000Y-3760000D01*
X4560000Y-3740000D02*
X4600000Y-3740000D01*
X4690000Y-3750000D02*
X4690000Y-3790000D01*
X4670000Y-3770000D02*
X4710000Y-3770000D01*
X4700000Y-3920000D02*
X4700000Y-3960000D01*
X4680000Y-3940000D02*
X4720000Y-3940000D01*
X4780000Y-4030000D02*
X4780000Y-4070000D01*
X4760000Y-4050000D02*
X4800000Y-4050000D01*
X5270000Y-3980000D02*
X5270000Y-4020000D01*
X5250000Y-4000000D02*
X5290000Y-4000000D01*
X5290000Y-4820000D02*
X5290000Y-4860000D01*
X5270000Y-4840000D02*
X5310000Y-4840000D01*
X5340000Y-4740000D02*
X5340000Y-4780000D01*
X5320000Y-4760000D02*
X5360000Y-4760000D01*
X5360000Y-4900000D02*
X5360000Y-4940000D01*
X5340000Y-4920000D02*
X5380000Y-4920000D01*
X5400000Y-3940000D02*
X5400000Y-3980000D01*
X5380000Y-3960000D02*
X5420000Y-3960000D01*
X5420000Y-4820000D02*
X5420000Y-4860000D01*
X5400000Y-4840000D02*
X5440000Y-4840000D01*
X5430000Y-4740000D02*
X5430000Y-4780000D01*
X5410000Y-4760000D02*
X5450000Y-4760000D01*
X5460000Y-4900000D02*
X5460000Y-4940000D01*
X5440000Y-4920000D02*
X5480000Y-4920000D01*
X5490000Y-3950000D02*
X5490000Y-3990000D01*
X5470000Y-3970000D02*
X5510000Y-3970000D01*
X5500000Y-3300000D02*
X5500000Y-3340000D01*
X5480000Y-3320000D02*
X5520000Y-3320000D01*
X5510000Y-3220000D02*
X5510000Y-3260000D01*
X5490000Y-3240000D02*
X5530000Y-3240000D01*
X5510000Y-4300000D02*
X5510000Y-4340000D01*
X5490000Y-4320000D02*
X5530000Y-4320000D01*
X5520000Y-4740000D02*
X5520000Y-4780000D01*
X5500000Y-4760000D02*
X5540000Y-4760000D01*
X5550000Y-4840000D02*
X5550000Y-4880000D01*
X5530000Y-4860000D02*
X5570000Y-4860000D01*
X5690000Y-3933750D02*
X5690000Y-3973750D01*
X5670000Y-3953750D02*
X5710000Y-3953750D01*
X5760000Y-3800000D02*
X5760000Y-3840000D01*
X5740000Y-3820000D02*
X5780000Y-3820000D01*
X5760000Y-3980000D02*
X5760000Y-4020000D01*
X5740000Y-4000000D02*
X5780000Y-4000000D01*
X5770000Y-4100000D02*
X5770000Y-4140000D01*
X5750000Y-4120000D02*
X5790000Y-4120000D01*
X5780000Y-4790000D02*
X5780000Y-4830000D01*
X5760000Y-4810000D02*
X5800000Y-4810000D01*
X5790000Y-4880000D02*
X5790000Y-4920000D01*
X5770000Y-4900000D02*
X5810000Y-4900000D01*
X5830000Y-4720000D02*
X5830000Y-4760000D01*
X5810000Y-4740000D02*
X5850000Y-4740000D01*
X5870000Y-3960000D02*
X5870000Y-4000000D01*
X5850000Y-3980000D02*
X5890000Y-3980000D01*
X5870000Y-4100000D02*
X5870000Y-4140000D01*
X5850000Y-4120000D02*
X5890000Y-4120000D01*
X5870000Y-4920000D02*
X5870000Y-4960000D01*
X5850000Y-4940000D02*
X5890000Y-4940000D01*
X5910000Y-4720000D02*
X5910000Y-4760000D01*
X5890000Y-4740000D02*
X5930000Y-4740000D01*
X5920000Y-4820000D02*
X5920000Y-4860000D01*
X5900000Y-4840000D02*
X5940000Y-4840000D01*
X5970000Y-4920000D02*
X5970000Y-4960000D01*
X5950000Y-4940000D02*
X5990000Y-4940000D01*
X6010000Y-4720000D02*
X6010000Y-4760000D01*
X5990000Y-4740000D02*
X6030000Y-4740000D01*
X6060000Y-3980000D02*
X6060000Y-4020000D01*
X6040000Y-4000000D02*
X6080000Y-4000000D01*
X6060000Y-4090000D02*
X6060000Y-4130000D01*
X6040000Y-4110000D02*
X6080000Y-4110000D01*
X6060000Y-4880000D02*
X6060000Y-4920000D01*
X6040000Y-4900000D02*
X6080000Y-4900000D01*
X6070000Y-4790000D02*
X6070000Y-4830000D01*
X6050000Y-4810000D02*
X6090000Y-4810000D01*
X6170000Y-3980000D02*
X6170000Y-4020000D01*
X6150000Y-4000000D02*
X6190000Y-4000000D01*
X6170000Y-4090000D02*
X6170000Y-4130000D01*
X6150000Y-4110000D02*
X6190000Y-4110000D01*
X6783076Y-5093076D02*
X6783076Y-5133076D01*
X6763076Y-5113076D02*
X6803076Y-5113076D01*
X7330000Y-4942500D02*
X7330000Y-4982500D01*
X7310000Y-4962500D02*
X7350000Y-4962500D01*
X7570000Y-4850000D02*
X7570000Y-4890000D01*
X7550000Y-4870000D02*
X7590000Y-4870000D01*
X7789129Y-5101000D02*
X7789129Y-5141000D01*
X7769129Y-5121000D02*
X7809129Y-5121000D01*
X7962500Y-5086642D02*
X7962500Y-5126642D01*
X7942500Y-5106642D02*
X7982500Y-5106642D01*
X8377361Y-5323613D02*
X8377361Y-5363613D01*
X8357361Y-5343613D02*
X8397361Y-5343613D01*
X3827678Y-3887678D02*
X3827678Y-3852322D01*
X3792322Y-3852322D01*
X3792322Y-3887678D01*
X3827678Y-3887678D01*
X6627678Y-5887678D02*
X6627678Y-5852322D01*
X6592322Y-5852322D01*
X6592322Y-5887678D01*
X6627678Y-5887678D01*
X6717678Y-5637678D02*
X6717678Y-5602322D01*
X6682322Y-5602322D01*
X6682322Y-5637678D01*
X6717678Y-5637678D01*
X6807678Y-5807678D02*
X6807678Y-5772322D01*
X6772322Y-5772322D01*
X6772322Y-5807678D01*
X6807678Y-5807678D01*
X6917678Y-3877678D02*
X6917678Y-3842322D01*
X6882322Y-3842322D01*
X6882322Y-3877678D01*
X6917678Y-3877678D01*
X6947678Y-4057678D02*
X6947678Y-4022322D01*
X6912322Y-4022322D01*
X6912322Y-4057678D01*
X6947678Y-4057678D01*
X7107678Y-6147678D02*
X7107678Y-6112322D01*
X7072322Y-6112322D01*
X7072322Y-6147678D01*
X7107678Y-6147678D01*
X7127678Y-6557678D02*
X7127678Y-6522322D01*
X7092322Y-6522322D01*
X7092322Y-6557678D01*
X7127678Y-6557678D01*
X7146355Y-5732976D02*
X7146355Y-5697620D01*
X7110999Y-5697620D01*
X7110999Y-5732976D01*
X7146355Y-5732976D01*
X7467235Y-3955178D02*
X7467235Y-3919822D01*
X7431879Y-3919822D01*
X7431879Y-3955178D01*
X7467235Y-3955178D01*
X7547678Y-4397678D02*
X7547678Y-4362322D01*
X7512322Y-4362322D01*
X7512322Y-4397678D01*
X7547678Y-4397678D01*
X7567678Y-4557678D02*
X7567678Y-4522322D01*
X7532322Y-4522322D01*
X7532322Y-4557678D01*
X7567678Y-4557678D01*
X7585178Y-5577678D02*
X7585178Y-5542322D01*
X7549822Y-5542322D01*
X7549822Y-5577678D01*
X7585178Y-5577678D01*
X7717678Y-4417678D02*
X7717678Y-4382322D01*
X7682322Y-4382322D01*
X7682322Y-4417678D01*
X7717678Y-4417678D01*
X7867678Y-3607678D02*
X7867678Y-3572322D01*
X7832322Y-3572322D01*
X7832322Y-3607678D01*
X7867678Y-3607678D01*
X7877678Y-4427678D02*
X7877678Y-4392322D01*
X7842322Y-4392322D01*
X7842322Y-4427678D01*
X7877678Y-4427678D01*
X7901627Y-5861627D02*
X7901627Y-5826271D01*
X7866271Y-5826271D01*
X7866271Y-5861627D01*
X7901627Y-5861627D01*
X8246280Y-5272678D02*
X8246280Y-5237322D01*
X8210924Y-5237322D01*
X8210924Y-5272678D01*
X8246280Y-5272678D01*
X8281428Y-4747678D02*
X8281428Y-4712322D01*
X8246072Y-4712322D01*
X8246072Y-4747678D01*
X8281428Y-4747678D01*
X8307678Y-4397678D02*
X8307678Y-4362322D01*
X8272322Y-4362322D01*
X8272322Y-4397678D01*
X8307678Y-4397678D01*
X8507678Y-5887678D02*
X8507678Y-5852322D01*
X8472322Y-5852322D01*
X8472322Y-5887678D01*
X8507678Y-5887678D01*
X8557678Y-4487678D02*
X8557678Y-4452322D01*
X8522322Y-4452322D01*
X8522322Y-4487678D01*
X8557678Y-4487678D01*
X8567678Y-3787678D02*
X8567678Y-3752322D01*
X8532322Y-3752322D01*
X8532322Y-3787678D01*
X8567678Y-3787678D01*
X8567678Y-4570178D02*
X8567678Y-4534822D01*
X8532322Y-4534822D01*
X8532322Y-4570178D01*
X8567678Y-4570178D01*
X8567678Y-6577678D02*
X8567678Y-6542322D01*
X8532322Y-6542322D01*
X8532322Y-6577678D01*
X8567678Y-6577678D01*
X9257678Y-3377678D02*
X9257678Y-3342322D01*
X9222322Y-3342322D01*
X9222322Y-3377678D01*
X9257678Y-3377678D01*
X9537678Y-4457678D02*
X9537678Y-4422322D01*
X9502322Y-4422322D01*
X9502322Y-4457678D01*
X9537678Y-4457678D01*
X9757678Y-3647678D02*
X9757678Y-3612322D01*
X9722322Y-3612322D01*
X9722322Y-3647678D01*
X9757678Y-3647678D01*
X11747678Y-3987678D02*
X11747678Y-3952322D01*
X11712322Y-3952322D01*
X11712322Y-3987678D01*
X11747678Y-3987678D01*
X3350000Y-6700000D02*
X3380000Y-6670000D01*
X3350000Y-6640000D01*
X3320000Y-6670000D01*
X3350000Y-6700000D01*
X3490000Y-6440000D02*
X3520000Y-6410000D01*
X3490000Y-6380000D01*
X3460000Y-6410000D01*
X3490000Y-6440000D01*
X3520000Y-6190000D02*
X3550000Y-6160000D01*
X3520000Y-6130000D01*
X3490000Y-6160000D01*
X3520000Y-6190000D01*
X3540000Y-5010000D02*
X3570000Y-4980000D01*
X3540000Y-4950000D01*
X3510000Y-4980000D01*
X3540000Y-5010000D01*
X3540000Y-5320000D02*
X3570000Y-5290000D01*
X3540000Y-5260000D01*
X3510000Y-5290000D01*
X3540000Y-5320000D01*
X3736650Y-5661534D02*
X3766650Y-5631534D01*
X3736650Y-5601534D01*
X3706650Y-5631534D01*
X3736650Y-5661534D01*
X3738650Y-6014350D02*
X3768650Y-5984350D01*
X3738650Y-5954350D01*
X3708650Y-5984350D01*
X3738650Y-6014350D01*
X4510000Y-6700000D02*
X4540000Y-6670000D01*
X4510000Y-6640000D01*
X4480000Y-6670000D01*
X4510000Y-6700000D01*
X4827500Y-5890000D02*
X4857500Y-5860000D01*
X4827500Y-5830000D01*
X4797500Y-5860000D01*
X4827500Y-5890000D01*
X4827500Y-6005000D02*
X4857500Y-5975000D01*
X4827500Y-5945000D01*
X4797500Y-5975000D01*
X4827500Y-6005000D01*
X5060000Y-6600000D02*
X5090000Y-6570000D01*
X5060000Y-6540000D01*
X5030000Y-6570000D01*
X5060000Y-6600000D01*
X5060000Y-6700000D02*
X5090000Y-6670000D01*
X5060000Y-6640000D01*
X5030000Y-6670000D01*
X5060000Y-6700000D01*
X5080000Y-5100000D02*
X5110000Y-5070000D01*
X5080000Y-5040000D01*
X5050000Y-5070000D01*
X5080000Y-5100000D01*
X5080000Y-5200000D02*
X5110000Y-5170000D01*
X5080000Y-5140000D01*
X5050000Y-5170000D01*
X5080000Y-5200000D01*
X5590000Y-5230000D02*
X5620000Y-5200000D01*
X5590000Y-5170000D01*
X5560000Y-5200000D01*
X5590000Y-5230000D01*
X5613744Y-6843744D02*
X5643744Y-6813744D01*
X5613744Y-6783744D01*
X5583744Y-6813744D01*
X5613744Y-6843744D01*
X5830000Y-6820000D02*
X5860000Y-6790000D01*
X5830000Y-6760000D01*
X5800000Y-6790000D01*
X5830000Y-6820000D01*
X6160000Y-6420000D02*
X6190000Y-6390000D01*
X6160000Y-6360000D01*
X6130000Y-6390000D01*
X6160000Y-6420000D01*
X9480000Y-5820000D02*
X9510000Y-5790000D01*
X9480000Y-5760000D01*
X9450000Y-5790000D01*
X9480000Y-5820000D01*
X9730000Y-5380000D02*
X9760000Y-5350000D01*
X9730000Y-5320000D01*
X9700000Y-5350000D01*
X9730000Y-5380000D01*
X9970000Y-5390000D02*
X10000000Y-5360000D01*
X9970000Y-5330000D01*
X9940000Y-5360000D01*
X9970000Y-5390000D01*
X9970000Y-7080000D02*
X10000000Y-7050000D01*
X9970000Y-7020000D01*
X9940000Y-7050000D01*
X9970000Y-7080000D01*
X10180000Y-7140000D02*
X10210000Y-7110000D01*
X10180000Y-7080000D01*
X10150000Y-7110000D01*
X10180000Y-7140000D01*
X10429486Y-5538397D02*
X10459486Y-5508397D01*
X10429486Y-5478397D01*
X10399486Y-5508397D01*
X10429486Y-5538397D01*
X10440000Y-7090000D02*
X10470000Y-7060000D01*
X10440000Y-7030000D01*
X10410000Y-7060000D01*
X10440000Y-7090000D01*
X10460000Y-5642500D02*
X10490000Y-5612500D01*
X10460000Y-5582500D01*
X10430000Y-5612500D01*
X10460000Y-5642500D01*
X10645009Y-6240373D02*
X10675009Y-6210373D01*
X10645009Y-6180373D01*
X10615009Y-6210373D01*
X10645009Y-6240373D01*
X10660407Y-6349593D02*
X10690407Y-6319593D01*
X10660407Y-6289593D01*
X10630407Y-6319593D01*
X10660407Y-6349593D01*
X10970000Y-5550000D02*
X11000000Y-5520000D01*
X10970000Y-5490000D01*
X10940000Y-5520000D01*
X10970000Y-5550000D01*
X10970000Y-7080000D02*
X11000000Y-7050000D01*
X10970000Y-7020000D01*
X10940000Y-7050000D01*
X10970000Y-7080000D01*
X10990000Y-6300000D02*
X11020000Y-6270000D01*
X10990000Y-6240000D01*
X10960000Y-6270000D01*
X10990000Y-6300000D01*
X11699000Y-6270000D02*
X11729000Y-6240000D01*
X11699000Y-6210000D01*
X11669000Y-6240000D01*
X11699000Y-6270000D01*
X11704000Y-5925000D02*
X11734000Y-5895000D01*
X11704000Y-5865000D01*
X11674000Y-5895000D01*
X11704000Y-5925000D01*
X11723750Y-6670000D02*
X11753750Y-6640000D01*
X11723750Y-6610000D01*
X11693750Y-6640000D01*
X11723750Y-6670000D01*
X11753750Y-6470000D02*
X11783750Y-6440000D01*
X11753750Y-6410000D01*
X11723750Y-6440000D01*
X11753750Y-6470000D01*
X11796250Y-5500000D02*
X11826250Y-5470000D01*
X11796250Y-5440000D01*
X11766250Y-5470000D01*
X11796250Y-5500000D01*
X11810000Y-5150000D02*
X11840000Y-5120000D01*
X11810000Y-5090000D01*
X11780000Y-5120000D01*
X11810000Y-5150000D01*
X11820000Y-5750000D02*
X11850000Y-5720000D01*
X11820000Y-5690000D01*
X11790000Y-5720000D01*
X11820000Y-5750000D01*
X11852000Y-6099000D02*
X11882000Y-6069000D01*
X11852000Y-6039000D01*
X11822000Y-6069000D01*
X11852000Y-6099000D01*
X12010000Y-5140000D02*
X12040000Y-5110000D01*
X12010000Y-5080000D01*
X11980000Y-5110000D01*
X12010000Y-5140000D01*
X12025827Y-5750350D02*
X12055827Y-5720350D01*
X12025827Y-5690350D01*
X11995827Y-5720350D01*
X12025827Y-5750350D01*
X12035185Y-6452176D02*
X12065185Y-6422176D01*
X12035185Y-6392176D01*
X12005185Y-6422176D01*
X12035185Y-6452176D01*
X12093750Y-5460000D02*
X12123750Y-5430000D01*
X12093750Y-5400000D01*
X12063750Y-5430000D01*
X12093750Y-5460000D01*
X12130000Y-6450350D02*
X12160000Y-6420350D01*
X12130000Y-6390350D01*
X12100000Y-6420350D01*
X12130000Y-6450350D01*
X12140000Y-5750350D02*
X12170000Y-5720350D01*
X12140000Y-5690350D01*
X12110000Y-5720350D01*
X12140000Y-5750350D01*
X12163584Y-5150000D02*
X12193584Y-5120000D01*
X12163584Y-5090000D01*
X12133584Y-5120000D01*
X12163584Y-5150000D01*
X7075000Y-7010000D02*
X7175000Y-7110000D01*
X7175000Y-7010000D02*
X7075000Y-7110000D01*
X7175000Y-7060000D02*
G75*
G02*
X7075000Y-7060000I-50000J0D01*
G01*
X7075000Y-7060000D02*
G75*
G02*
X7175000Y-7060000I50000J0D01*
G01*
X7329000Y-7010000D02*
X7429000Y-7110000D01*
X7429000Y-7010000D02*
X7329000Y-7110000D01*
X7429000Y-7060000D02*
G75*
G02*
X7329000Y-7060000I-50000J0D01*
G01*
X7329000Y-7060000D02*
G75*
G02*
X7429000Y-7060000I50000J0D01*
G01*
X7583000Y-7010000D02*
X7683000Y-7110000D01*
X7683000Y-7010000D02*
X7583000Y-7110000D01*
X7683000Y-7060000D02*
G75*
G02*
X7583000Y-7060000I-50000J0D01*
G01*
X7583000Y-7060000D02*
G75*
G02*
X7683000Y-7060000I50000J0D01*
G01*
X7837000Y-7010000D02*
X7937000Y-7110000D01*
X7937000Y-7010000D02*
X7837000Y-7110000D01*
X7937000Y-7060000D02*
G75*
G02*
X7837000Y-7060000I-50000J0D01*
G01*
X7837000Y-7060000D02*
G75*
G02*
X7937000Y-7060000I50000J0D01*
G01*
X8091000Y-7010000D02*
X8191000Y-7110000D01*
X8191000Y-7010000D02*
X8091000Y-7110000D01*
X8191000Y-7060000D02*
G75*
G02*
X8091000Y-7060000I-50000J0D01*
G01*
X8091000Y-7060000D02*
G75*
G02*
X8191000Y-7060000I50000J0D01*
G01*
X8345000Y-7010000D02*
X8445000Y-7110000D01*
X8445000Y-7010000D02*
X8345000Y-7110000D01*
X8445000Y-7060000D02*
G75*
G02*
X8345000Y-7060000I-50000J0D01*
G01*
X8345000Y-7060000D02*
G75*
G02*
X8445000Y-7060000I50000J0D01*
G01*
D12*
X3386000Y-3214000D02*
X3606000Y-3434000D01*
X3606000Y-3214000D02*
X3386000Y-3434000D01*
X3496000Y-3214000D02*
X3496000Y-3434000D01*
X3386000Y-3324000D02*
X3606000Y-3324000D01*
X3386000Y-6854000D02*
X3606000Y-7074000D01*
X3606000Y-6854000D02*
X3386000Y-7074000D01*
X3496000Y-6854000D02*
X3496000Y-7074000D01*
X3386000Y-6964000D02*
X3606000Y-6964000D01*
X11856000Y-3214000D02*
X12076000Y-3434000D01*
X12076000Y-3214000D02*
X11856000Y-3434000D01*
X11966000Y-3214000D02*
X11966000Y-3434000D01*
X11856000Y-3324000D02*
X12076000Y-3324000D01*
X11856000Y-6854000D02*
X12076000Y-7074000D01*
X12076000Y-6854000D02*
X11856000Y-7074000D01*
X11966000Y-6854000D02*
X11966000Y-7074000D01*
X11856000Y-6964000D02*
X12076000Y-6964000D01*
D11*
X3501277Y-7535484D02*
X3501277Y-7335484D01*
X3501277Y-7335484D02*
X3548896Y-7335484D01*
X3548896Y-7335484D02*
X3577467Y-7345008D01*
X3577467Y-7345008D02*
X3596515Y-7364055D01*
X3596515Y-7364055D02*
X3606038Y-7383103D01*
X3606038Y-7383103D02*
X3615562Y-7421198D01*
X3615562Y-7421198D02*
X3615562Y-7449769D01*
X3615562Y-7449769D02*
X3606038Y-7487865D01*
X3606038Y-7487865D02*
X3596515Y-7506912D01*
X3596515Y-7506912D02*
X3577467Y-7525960D01*
X3577467Y-7525960D02*
X3548896Y-7535484D01*
X3548896Y-7535484D02*
X3501277Y-7535484D01*
X3701277Y-7535484D02*
X3701277Y-7402150D01*
X3701277Y-7440246D02*
X3710800Y-7421198D01*
X3710800Y-7421198D02*
X3720324Y-7411674D01*
X3720324Y-7411674D02*
X3739372Y-7402150D01*
X3739372Y-7402150D02*
X3758419Y-7402150D01*
X3825086Y-7535484D02*
X3825086Y-7402150D01*
X3825086Y-7335484D02*
X3815562Y-7345008D01*
X3815562Y-7345008D02*
X3825086Y-7354531D01*
X3825086Y-7354531D02*
X3834610Y-7345008D01*
X3834610Y-7345008D02*
X3825086Y-7335484D01*
X3825086Y-7335484D02*
X3825086Y-7354531D01*
X3948896Y-7535484D02*
X3929848Y-7525960D01*
X3929848Y-7525960D02*
X3920324Y-7506912D01*
X3920324Y-7506912D02*
X3920324Y-7335484D01*
X4053657Y-7535484D02*
X4034610Y-7525960D01*
X4034610Y-7525960D02*
X4025086Y-7506912D01*
X4025086Y-7506912D02*
X4025086Y-7335484D01*
X4282229Y-7535484D02*
X4282229Y-7335484D01*
X4282229Y-7335484D02*
X4348896Y-7478341D01*
X4348896Y-7478341D02*
X4415562Y-7335484D01*
X4415562Y-7335484D02*
X4415562Y-7535484D01*
X4596515Y-7535484D02*
X4596515Y-7430722D01*
X4596515Y-7430722D02*
X4586991Y-7411674D01*
X4586991Y-7411674D02*
X4567943Y-7402150D01*
X4567943Y-7402150D02*
X4529848Y-7402150D01*
X4529848Y-7402150D02*
X4510800Y-7411674D01*
X4596515Y-7525960D02*
X4577467Y-7535484D01*
X4577467Y-7535484D02*
X4529848Y-7535484D01*
X4529848Y-7535484D02*
X4510800Y-7525960D01*
X4510800Y-7525960D02*
X4501277Y-7506912D01*
X4501277Y-7506912D02*
X4501277Y-7487865D01*
X4501277Y-7487865D02*
X4510800Y-7468817D01*
X4510800Y-7468817D02*
X4529848Y-7459293D01*
X4529848Y-7459293D02*
X4577467Y-7459293D01*
X4577467Y-7459293D02*
X4596515Y-7449769D01*
X4691753Y-7402150D02*
X4691753Y-7602150D01*
X4691753Y-7411674D02*
X4710800Y-7402150D01*
X4710800Y-7402150D02*
X4748896Y-7402150D01*
X4748896Y-7402150D02*
X4767943Y-7411674D01*
X4767943Y-7411674D02*
X4777467Y-7421198D01*
X4777467Y-7421198D02*
X4786991Y-7440246D01*
X4786991Y-7440246D02*
X4786991Y-7497388D01*
X4786991Y-7497388D02*
X4777467Y-7516436D01*
X4777467Y-7516436D02*
X4767943Y-7525960D01*
X4767943Y-7525960D02*
X4748896Y-7535484D01*
X4748896Y-7535484D02*
X4710800Y-7535484D01*
X4710800Y-7535484D02*
X4691753Y-7525960D01*
X4872705Y-7516436D02*
X4882229Y-7525960D01*
X4882229Y-7525960D02*
X4872705Y-7535484D01*
X4872705Y-7535484D02*
X4863181Y-7525960D01*
X4863181Y-7525960D02*
X4872705Y-7516436D01*
X4872705Y-7516436D02*
X4872705Y-7535484D01*
X4872705Y-7411674D02*
X4882229Y-7421198D01*
X4882229Y-7421198D02*
X4872705Y-7430722D01*
X4872705Y-7430722D02*
X4863181Y-7421198D01*
X4863181Y-7421198D02*
X4872705Y-7411674D01*
X4872705Y-7411674D02*
X4872705Y-7430722D01*
D10*
X3215500Y-7851500D02*
X3240500Y-7876500D01*
X3240500Y-7851500D02*
X3215500Y-7876500D01*
D11*
X3539372Y-7755484D02*
X3558419Y-7755484D01*
X3558419Y-7755484D02*
X3577467Y-7765008D01*
X3577467Y-7765008D02*
X3586991Y-7774531D01*
X3586991Y-7774531D02*
X3596515Y-7793579D01*
X3596515Y-7793579D02*
X3606038Y-7831674D01*
X3606038Y-7831674D02*
X3606038Y-7879293D01*
X3606038Y-7879293D02*
X3596515Y-7917388D01*
X3596515Y-7917388D02*
X3586991Y-7936436D01*
X3586991Y-7936436D02*
X3577467Y-7945960D01*
X3577467Y-7945960D02*
X3558419Y-7955484D01*
X3558419Y-7955484D02*
X3539372Y-7955484D01*
X3539372Y-7955484D02*
X3520324Y-7945960D01*
X3520324Y-7945960D02*
X3510800Y-7936436D01*
X3510800Y-7936436D02*
X3501277Y-7917388D01*
X3501277Y-7917388D02*
X3491753Y-7879293D01*
X3491753Y-7879293D02*
X3491753Y-7831674D01*
X3491753Y-7831674D02*
X3501277Y-7793579D01*
X3501277Y-7793579D02*
X3510800Y-7774531D01*
X3510800Y-7774531D02*
X3520324Y-7765008D01*
X3520324Y-7765008D02*
X3539372Y-7755484D01*
X3691753Y-7936436D02*
X3701277Y-7945960D01*
X3701277Y-7945960D02*
X3691753Y-7955484D01*
X3691753Y-7955484D02*
X3682229Y-7945960D01*
X3682229Y-7945960D02*
X3691753Y-7936436D01*
X3691753Y-7936436D02*
X3691753Y-7955484D01*
X3777467Y-7774531D02*
X3786991Y-7765008D01*
X3786991Y-7765008D02*
X3806038Y-7755484D01*
X3806038Y-7755484D02*
X3853658Y-7755484D01*
X3853658Y-7755484D02*
X3872705Y-7765008D01*
X3872705Y-7765008D02*
X3882229Y-7774531D01*
X3882229Y-7774531D02*
X3891753Y-7793579D01*
X3891753Y-7793579D02*
X3891753Y-7812627D01*
X3891753Y-7812627D02*
X3882229Y-7841198D01*
X3882229Y-7841198D02*
X3767943Y-7955484D01*
X3767943Y-7955484D02*
X3891753Y-7955484D01*
X4072705Y-7755484D02*
X3977467Y-7755484D01*
X3977467Y-7755484D02*
X3967943Y-7850722D01*
X3967943Y-7850722D02*
X3977467Y-7841198D01*
X3977467Y-7841198D02*
X3996515Y-7831674D01*
X3996515Y-7831674D02*
X4044134Y-7831674D01*
X4044134Y-7831674D02*
X4063181Y-7841198D01*
X4063181Y-7841198D02*
X4072705Y-7850722D01*
X4072705Y-7850722D02*
X4082229Y-7869769D01*
X4082229Y-7869769D02*
X4082229Y-7917388D01*
X4082229Y-7917388D02*
X4072705Y-7936436D01*
X4072705Y-7936436D02*
X4063181Y-7945960D01*
X4063181Y-7945960D02*
X4044134Y-7955484D01*
X4044134Y-7955484D02*
X3996515Y-7955484D01*
X3996515Y-7955484D02*
X3977467Y-7945960D01*
X3977467Y-7945960D02*
X3967943Y-7936436D01*
X4206039Y-7755484D02*
X4225086Y-7755484D01*
X4225086Y-7755484D02*
X4244134Y-7765008D01*
X4244134Y-7765008D02*
X4253658Y-7774531D01*
X4253658Y-7774531D02*
X4263181Y-7793579D01*
X4263181Y-7793579D02*
X4272705Y-7831674D01*
X4272705Y-7831674D02*
X4272705Y-7879293D01*
X4272705Y-7879293D02*
X4263181Y-7917388D01*
X4263181Y-7917388D02*
X4253658Y-7936436D01*
X4253658Y-7936436D02*
X4244134Y-7945960D01*
X4244134Y-7945960D02*
X4225086Y-7955484D01*
X4225086Y-7955484D02*
X4206039Y-7955484D01*
X4206039Y-7955484D02*
X4186991Y-7945960D01*
X4186991Y-7945960D02*
X4177467Y-7936436D01*
X4177467Y-7936436D02*
X4167943Y-7917388D01*
X4167943Y-7917388D02*
X4158419Y-7879293D01*
X4158419Y-7879293D02*
X4158419Y-7831674D01*
X4158419Y-7831674D02*
X4167943Y-7793579D01*
X4167943Y-7793579D02*
X4177467Y-7774531D01*
X4177467Y-7774531D02*
X4186991Y-7765008D01*
X4186991Y-7765008D02*
X4206039Y-7755484D01*
X4358420Y-7955484D02*
X4358420Y-7822150D01*
X4358420Y-7841198D02*
X4367943Y-7831674D01*
X4367943Y-7831674D02*
X4386991Y-7822150D01*
X4386991Y-7822150D02*
X4415562Y-7822150D01*
X4415562Y-7822150D02*
X4434610Y-7831674D01*
X4434610Y-7831674D02*
X4444134Y-7850722D01*
X4444134Y-7850722D02*
X4444134Y-7955484D01*
X4444134Y-7850722D02*
X4453658Y-7831674D01*
X4453658Y-7831674D02*
X4472705Y-7822150D01*
X4472705Y-7822150D02*
X4501277Y-7822150D01*
X4501277Y-7822150D02*
X4520324Y-7831674D01*
X4520324Y-7831674D02*
X4529848Y-7850722D01*
X4529848Y-7850722D02*
X4529848Y-7955484D01*
X4625086Y-7955484D02*
X4625086Y-7822150D01*
X4625086Y-7841198D02*
X4634610Y-7831674D01*
X4634610Y-7831674D02*
X4653658Y-7822150D01*
X4653658Y-7822150D02*
X4682229Y-7822150D01*
X4682229Y-7822150D02*
X4701277Y-7831674D01*
X4701277Y-7831674D02*
X4710801Y-7850722D01*
X4710801Y-7850722D02*
X4710801Y-7955484D01*
X4710801Y-7850722D02*
X4720324Y-7831674D01*
X4720324Y-7831674D02*
X4739372Y-7822150D01*
X4739372Y-7822150D02*
X4767943Y-7822150D01*
X4767943Y-7822150D02*
X4786991Y-7831674D01*
X4786991Y-7831674D02*
X4796515Y-7850722D01*
X4796515Y-7850722D02*
X4796515Y-7955484D01*
X5186991Y-7745960D02*
X5015563Y-8003103D01*
X5444134Y-7755484D02*
X5463182Y-7755484D01*
X5463182Y-7755484D02*
X5482229Y-7765008D01*
X5482229Y-7765008D02*
X5491753Y-7774531D01*
X5491753Y-7774531D02*
X5501277Y-7793579D01*
X5501277Y-7793579D02*
X5510801Y-7831674D01*
X5510801Y-7831674D02*
X5510801Y-7879293D01*
X5510801Y-7879293D02*
X5501277Y-7917388D01*
X5501277Y-7917388D02*
X5491753Y-7936436D01*
X5491753Y-7936436D02*
X5482229Y-7945960D01*
X5482229Y-7945960D02*
X5463182Y-7955484D01*
X5463182Y-7955484D02*
X5444134Y-7955484D01*
X5444134Y-7955484D02*
X5425086Y-7945960D01*
X5425086Y-7945960D02*
X5415563Y-7936436D01*
X5415563Y-7936436D02*
X5406039Y-7917388D01*
X5406039Y-7917388D02*
X5396515Y-7879293D01*
X5396515Y-7879293D02*
X5396515Y-7831674D01*
X5396515Y-7831674D02*
X5406039Y-7793579D01*
X5406039Y-7793579D02*
X5415563Y-7774531D01*
X5415563Y-7774531D02*
X5425086Y-7765008D01*
X5425086Y-7765008D02*
X5444134Y-7755484D01*
X5596515Y-7936436D02*
X5606039Y-7945960D01*
X5606039Y-7945960D02*
X5596515Y-7955484D01*
X5596515Y-7955484D02*
X5586991Y-7945960D01*
X5586991Y-7945960D02*
X5596515Y-7936436D01*
X5596515Y-7936436D02*
X5596515Y-7955484D01*
X5729848Y-7755484D02*
X5748896Y-7755484D01*
X5748896Y-7755484D02*
X5767943Y-7765008D01*
X5767943Y-7765008D02*
X5777467Y-7774531D01*
X5777467Y-7774531D02*
X5786991Y-7793579D01*
X5786991Y-7793579D02*
X5796515Y-7831674D01*
X5796515Y-7831674D02*
X5796515Y-7879293D01*
X5796515Y-7879293D02*
X5786991Y-7917388D01*
X5786991Y-7917388D02*
X5777467Y-7936436D01*
X5777467Y-7936436D02*
X5767943Y-7945960D01*
X5767943Y-7945960D02*
X5748896Y-7955484D01*
X5748896Y-7955484D02*
X5729848Y-7955484D01*
X5729848Y-7955484D02*
X5710801Y-7945960D01*
X5710801Y-7945960D02*
X5701277Y-7936436D01*
X5701277Y-7936436D02*
X5691753Y-7917388D01*
X5691753Y-7917388D02*
X5682229Y-7879293D01*
X5682229Y-7879293D02*
X5682229Y-7831674D01*
X5682229Y-7831674D02*
X5691753Y-7793579D01*
X5691753Y-7793579D02*
X5701277Y-7774531D01*
X5701277Y-7774531D02*
X5710801Y-7765008D01*
X5710801Y-7765008D02*
X5729848Y-7755484D01*
X5920324Y-7755484D02*
X5939372Y-7755484D01*
X5939372Y-7755484D02*
X5958420Y-7765008D01*
X5958420Y-7765008D02*
X5967943Y-7774531D01*
X5967943Y-7774531D02*
X5977467Y-7793579D01*
X5977467Y-7793579D02*
X5986991Y-7831674D01*
X5986991Y-7831674D02*
X5986991Y-7879293D01*
X5986991Y-7879293D02*
X5977467Y-7917388D01*
X5977467Y-7917388D02*
X5967943Y-7936436D01*
X5967943Y-7936436D02*
X5958420Y-7945960D01*
X5958420Y-7945960D02*
X5939372Y-7955484D01*
X5939372Y-7955484D02*
X5920324Y-7955484D01*
X5920324Y-7955484D02*
X5901277Y-7945960D01*
X5901277Y-7945960D02*
X5891753Y-7936436D01*
X5891753Y-7936436D02*
X5882229Y-7917388D01*
X5882229Y-7917388D02*
X5872705Y-7879293D01*
X5872705Y-7879293D02*
X5872705Y-7831674D01*
X5872705Y-7831674D02*
X5882229Y-7793579D01*
X5882229Y-7793579D02*
X5891753Y-7774531D01*
X5891753Y-7774531D02*
X5901277Y-7765008D01*
X5901277Y-7765008D02*
X5920324Y-7755484D01*
X6082229Y-7955484D02*
X6120324Y-7955484D01*
X6120324Y-7955484D02*
X6139372Y-7945960D01*
X6139372Y-7945960D02*
X6148896Y-7936436D01*
X6148896Y-7936436D02*
X6167943Y-7907865D01*
X6167943Y-7907865D02*
X6177467Y-7869769D01*
X6177467Y-7869769D02*
X6177467Y-7793579D01*
X6177467Y-7793579D02*
X6167943Y-7774531D01*
X6167943Y-7774531D02*
X6158420Y-7765008D01*
X6158420Y-7765008D02*
X6139372Y-7755484D01*
X6139372Y-7755484D02*
X6101277Y-7755484D01*
X6101277Y-7755484D02*
X6082229Y-7765008D01*
X6082229Y-7765008D02*
X6072705Y-7774531D01*
X6072705Y-7774531D02*
X6063182Y-7793579D01*
X6063182Y-7793579D02*
X6063182Y-7841198D01*
X6063182Y-7841198D02*
X6072705Y-7860246D01*
X6072705Y-7860246D02*
X6082229Y-7869769D01*
X6082229Y-7869769D02*
X6101277Y-7879293D01*
X6101277Y-7879293D02*
X6139372Y-7879293D01*
X6139372Y-7879293D02*
X6158420Y-7869769D01*
X6158420Y-7869769D02*
X6167943Y-7860246D01*
X6167943Y-7860246D02*
X6177467Y-7841198D01*
X6291753Y-7841198D02*
X6272705Y-7831674D01*
X6272705Y-7831674D02*
X6263182Y-7822150D01*
X6263182Y-7822150D02*
X6253658Y-7803103D01*
X6253658Y-7803103D02*
X6253658Y-7793579D01*
X6253658Y-7793579D02*
X6263182Y-7774531D01*
X6263182Y-7774531D02*
X6272705Y-7765008D01*
X6272705Y-7765008D02*
X6291753Y-7755484D01*
X6291753Y-7755484D02*
X6329848Y-7755484D01*
X6329848Y-7755484D02*
X6348896Y-7765008D01*
X6348896Y-7765008D02*
X6358420Y-7774531D01*
X6358420Y-7774531D02*
X6367943Y-7793579D01*
X6367943Y-7793579D02*
X6367943Y-7803103D01*
X6367943Y-7803103D02*
X6358420Y-7822150D01*
X6358420Y-7822150D02*
X6348896Y-7831674D01*
X6348896Y-7831674D02*
X6329848Y-7841198D01*
X6329848Y-7841198D02*
X6291753Y-7841198D01*
X6291753Y-7841198D02*
X6272705Y-7850722D01*
X6272705Y-7850722D02*
X6263182Y-7860246D01*
X6263182Y-7860246D02*
X6253658Y-7879293D01*
X6253658Y-7879293D02*
X6253658Y-7917388D01*
X6253658Y-7917388D02*
X6263182Y-7936436D01*
X6263182Y-7936436D02*
X6272705Y-7945960D01*
X6272705Y-7945960D02*
X6291753Y-7955484D01*
X6291753Y-7955484D02*
X6329848Y-7955484D01*
X6329848Y-7955484D02*
X6348896Y-7945960D01*
X6348896Y-7945960D02*
X6358420Y-7936436D01*
X6358420Y-7936436D02*
X6367943Y-7917388D01*
X6367943Y-7917388D02*
X6367943Y-7879293D01*
X6367943Y-7879293D02*
X6358420Y-7860246D01*
X6358420Y-7860246D02*
X6348896Y-7850722D01*
X6348896Y-7850722D02*
X6329848Y-7841198D01*
X6444134Y-7755484D02*
X6444134Y-7793579D01*
X6520324Y-7755484D02*
X6520324Y-7793579D01*
X6815563Y-8031674D02*
X6806039Y-8022150D01*
X6806039Y-8022150D02*
X6786991Y-7993579D01*
X6786991Y-7993579D02*
X6777467Y-7974531D01*
X6777467Y-7974531D02*
X6767944Y-7945960D01*
X6767944Y-7945960D02*
X6758420Y-7898341D01*
X6758420Y-7898341D02*
X6758420Y-7860246D01*
X6758420Y-7860246D02*
X6767944Y-7812627D01*
X6767944Y-7812627D02*
X6777467Y-7784055D01*
X6777467Y-7784055D02*
X6786991Y-7765008D01*
X6786991Y-7765008D02*
X6806039Y-7736436D01*
X6806039Y-7736436D02*
X6815563Y-7726912D01*
X6996515Y-7955484D02*
X6882229Y-7955484D01*
X6939372Y-7955484D02*
X6939372Y-7755484D01*
X6939372Y-7755484D02*
X6920324Y-7784055D01*
X6920324Y-7784055D02*
X6901277Y-7803103D01*
X6901277Y-7803103D02*
X6882229Y-7812627D01*
X7186991Y-7955484D02*
X7072705Y-7955484D01*
X7129848Y-7955484D02*
X7129848Y-7755484D01*
X7129848Y-7755484D02*
X7110801Y-7784055D01*
X7110801Y-7784055D02*
X7091753Y-7803103D01*
X7091753Y-7803103D02*
X7072705Y-7812627D01*
X7253658Y-7755484D02*
X7386991Y-7755484D01*
X7386991Y-7755484D02*
X7301277Y-7955484D01*
X7615563Y-7955484D02*
X7615563Y-7755484D01*
X7701277Y-7955484D02*
X7701277Y-7850722D01*
X7701277Y-7850722D02*
X7691753Y-7831674D01*
X7691753Y-7831674D02*
X7672706Y-7822150D01*
X7672706Y-7822150D02*
X7644134Y-7822150D01*
X7644134Y-7822150D02*
X7625086Y-7831674D01*
X7625086Y-7831674D02*
X7615563Y-7841198D01*
X7825086Y-7955484D02*
X7806039Y-7945960D01*
X7806039Y-7945960D02*
X7796515Y-7936436D01*
X7796515Y-7936436D02*
X7786991Y-7917388D01*
X7786991Y-7917388D02*
X7786991Y-7860246D01*
X7786991Y-7860246D02*
X7796515Y-7841198D01*
X7796515Y-7841198D02*
X7806039Y-7831674D01*
X7806039Y-7831674D02*
X7825086Y-7822150D01*
X7825086Y-7822150D02*
X7853658Y-7822150D01*
X7853658Y-7822150D02*
X7872706Y-7831674D01*
X7872706Y-7831674D02*
X7882229Y-7841198D01*
X7882229Y-7841198D02*
X7891753Y-7860246D01*
X7891753Y-7860246D02*
X7891753Y-7917388D01*
X7891753Y-7917388D02*
X7882229Y-7936436D01*
X7882229Y-7936436D02*
X7872706Y-7945960D01*
X7872706Y-7945960D02*
X7853658Y-7955484D01*
X7853658Y-7955484D02*
X7825086Y-7955484D01*
X8006039Y-7955484D02*
X7986991Y-7945960D01*
X7986991Y-7945960D02*
X7977467Y-7926912D01*
X7977467Y-7926912D02*
X7977467Y-7755484D01*
X8158420Y-7945960D02*
X8139372Y-7955484D01*
X8139372Y-7955484D02*
X8101277Y-7955484D01*
X8101277Y-7955484D02*
X8082229Y-7945960D01*
X8082229Y-7945960D02*
X8072706Y-7926912D01*
X8072706Y-7926912D02*
X8072706Y-7850722D01*
X8072706Y-7850722D02*
X8082229Y-7831674D01*
X8082229Y-7831674D02*
X8101277Y-7822150D01*
X8101277Y-7822150D02*
X8139372Y-7822150D01*
X8139372Y-7822150D02*
X8158420Y-7831674D01*
X8158420Y-7831674D02*
X8167944Y-7850722D01*
X8167944Y-7850722D02*
X8167944Y-7869769D01*
X8167944Y-7869769D02*
X8072706Y-7888817D01*
X8244134Y-7945960D02*
X8263182Y-7955484D01*
X8263182Y-7955484D02*
X8301277Y-7955484D01*
X8301277Y-7955484D02*
X8320325Y-7945960D01*
X8320325Y-7945960D02*
X8329848Y-7926912D01*
X8329848Y-7926912D02*
X8329848Y-7917388D01*
X8329848Y-7917388D02*
X8320325Y-7898341D01*
X8320325Y-7898341D02*
X8301277Y-7888817D01*
X8301277Y-7888817D02*
X8272706Y-7888817D01*
X8272706Y-7888817D02*
X8253658Y-7879293D01*
X8253658Y-7879293D02*
X8244134Y-7860246D01*
X8244134Y-7860246D02*
X8244134Y-7850722D01*
X8244134Y-7850722D02*
X8253658Y-7831674D01*
X8253658Y-7831674D02*
X8272706Y-7822150D01*
X8272706Y-7822150D02*
X8301277Y-7822150D01*
X8301277Y-7822150D02*
X8320325Y-7831674D01*
X8396515Y-8031674D02*
X8406039Y-8022150D01*
X8406039Y-8022150D02*
X8425087Y-7993579D01*
X8425087Y-7993579D02*
X8434610Y-7974531D01*
X8434610Y-7974531D02*
X8444134Y-7945960D01*
X8444134Y-7945960D02*
X8453658Y-7898341D01*
X8453658Y-7898341D02*
X8453658Y-7860246D01*
X8453658Y-7860246D02*
X8444134Y-7812627D01*
X8444134Y-7812627D02*
X8434610Y-7784055D01*
X8434610Y-7784055D02*
X8425087Y-7765008D01*
X8425087Y-7765008D02*
X8406039Y-7736436D01*
X8406039Y-7736436D02*
X8396515Y-7726912D01*
D10*
X3240500Y-8128000D02*
G75*
G02*
X3210500Y-8128000I-15000J0D01*
G01*
X3210500Y-8128000D02*
G75*
G02*
X3240500Y-8128000I15000J0D01*
G01*
D11*
X3539372Y-8019484D02*
X3558419Y-8019484D01*
X3558419Y-8019484D02*
X3577467Y-8029008D01*
X3577467Y-8029008D02*
X3586991Y-8038531D01*
X3586991Y-8038531D02*
X3596515Y-8057579D01*
X3596515Y-8057579D02*
X3606038Y-8095674D01*
X3606038Y-8095674D02*
X3606038Y-8143293D01*
X3606038Y-8143293D02*
X3596515Y-8181388D01*
X3596515Y-8181388D02*
X3586991Y-8200436D01*
X3586991Y-8200436D02*
X3577467Y-8209960D01*
X3577467Y-8209960D02*
X3558419Y-8219484D01*
X3558419Y-8219484D02*
X3539372Y-8219484D01*
X3539372Y-8219484D02*
X3520324Y-8209960D01*
X3520324Y-8209960D02*
X3510800Y-8200436D01*
X3510800Y-8200436D02*
X3501277Y-8181388D01*
X3501277Y-8181388D02*
X3491753Y-8143293D01*
X3491753Y-8143293D02*
X3491753Y-8095674D01*
X3491753Y-8095674D02*
X3501277Y-8057579D01*
X3501277Y-8057579D02*
X3510800Y-8038531D01*
X3510800Y-8038531D02*
X3520324Y-8029008D01*
X3520324Y-8029008D02*
X3539372Y-8019484D01*
X3691753Y-8200436D02*
X3701277Y-8209960D01*
X3701277Y-8209960D02*
X3691753Y-8219484D01*
X3691753Y-8219484D02*
X3682229Y-8209960D01*
X3682229Y-8209960D02*
X3691753Y-8200436D01*
X3691753Y-8200436D02*
X3691753Y-8219484D01*
X3767943Y-8019484D02*
X3891753Y-8019484D01*
X3891753Y-8019484D02*
X3825086Y-8095674D01*
X3825086Y-8095674D02*
X3853658Y-8095674D01*
X3853658Y-8095674D02*
X3872705Y-8105198D01*
X3872705Y-8105198D02*
X3882229Y-8114722D01*
X3882229Y-8114722D02*
X3891753Y-8133769D01*
X3891753Y-8133769D02*
X3891753Y-8181388D01*
X3891753Y-8181388D02*
X3882229Y-8200436D01*
X3882229Y-8200436D02*
X3872705Y-8209960D01*
X3872705Y-8209960D02*
X3853658Y-8219484D01*
X3853658Y-8219484D02*
X3796515Y-8219484D01*
X3796515Y-8219484D02*
X3777467Y-8209960D01*
X3777467Y-8209960D02*
X3767943Y-8200436D01*
X4015562Y-8019484D02*
X4034610Y-8019484D01*
X4034610Y-8019484D02*
X4053658Y-8029008D01*
X4053658Y-8029008D02*
X4063181Y-8038531D01*
X4063181Y-8038531D02*
X4072705Y-8057579D01*
X4072705Y-8057579D02*
X4082229Y-8095674D01*
X4082229Y-8095674D02*
X4082229Y-8143293D01*
X4082229Y-8143293D02*
X4072705Y-8181388D01*
X4072705Y-8181388D02*
X4063181Y-8200436D01*
X4063181Y-8200436D02*
X4053658Y-8209960D01*
X4053658Y-8209960D02*
X4034610Y-8219484D01*
X4034610Y-8219484D02*
X4015562Y-8219484D01*
X4015562Y-8219484D02*
X3996515Y-8209960D01*
X3996515Y-8209960D02*
X3986991Y-8200436D01*
X3986991Y-8200436D02*
X3977467Y-8181388D01*
X3977467Y-8181388D02*
X3967943Y-8143293D01*
X3967943Y-8143293D02*
X3967943Y-8095674D01*
X3967943Y-8095674D02*
X3977467Y-8057579D01*
X3977467Y-8057579D02*
X3986991Y-8038531D01*
X3986991Y-8038531D02*
X3996515Y-8029008D01*
X3996515Y-8029008D02*
X4015562Y-8019484D01*
X4206039Y-8019484D02*
X4225086Y-8019484D01*
X4225086Y-8019484D02*
X4244134Y-8029008D01*
X4244134Y-8029008D02*
X4253658Y-8038531D01*
X4253658Y-8038531D02*
X4263181Y-8057579D01*
X4263181Y-8057579D02*
X4272705Y-8095674D01*
X4272705Y-8095674D02*
X4272705Y-8143293D01*
X4272705Y-8143293D02*
X4263181Y-8181388D01*
X4263181Y-8181388D02*
X4253658Y-8200436D01*
X4253658Y-8200436D02*
X4244134Y-8209960D01*
X4244134Y-8209960D02*
X4225086Y-8219484D01*
X4225086Y-8219484D02*
X4206039Y-8219484D01*
X4206039Y-8219484D02*
X4186991Y-8209960D01*
X4186991Y-8209960D02*
X4177467Y-8200436D01*
X4177467Y-8200436D02*
X4167943Y-8181388D01*
X4167943Y-8181388D02*
X4158419Y-8143293D01*
X4158419Y-8143293D02*
X4158419Y-8095674D01*
X4158419Y-8095674D02*
X4167943Y-8057579D01*
X4167943Y-8057579D02*
X4177467Y-8038531D01*
X4177467Y-8038531D02*
X4186991Y-8029008D01*
X4186991Y-8029008D02*
X4206039Y-8019484D01*
X4358420Y-8219484D02*
X4358420Y-8086150D01*
X4358420Y-8105198D02*
X4367943Y-8095674D01*
X4367943Y-8095674D02*
X4386991Y-8086150D01*
X4386991Y-8086150D02*
X4415562Y-8086150D01*
X4415562Y-8086150D02*
X4434610Y-8095674D01*
X4434610Y-8095674D02*
X4444134Y-8114722D01*
X4444134Y-8114722D02*
X4444134Y-8219484D01*
X4444134Y-8114722D02*
X4453658Y-8095674D01*
X4453658Y-8095674D02*
X4472705Y-8086150D01*
X4472705Y-8086150D02*
X4501277Y-8086150D01*
X4501277Y-8086150D02*
X4520324Y-8095674D01*
X4520324Y-8095674D02*
X4529848Y-8114722D01*
X4529848Y-8114722D02*
X4529848Y-8219484D01*
X4625086Y-8219484D02*
X4625086Y-8086150D01*
X4625086Y-8105198D02*
X4634610Y-8095674D01*
X4634610Y-8095674D02*
X4653658Y-8086150D01*
X4653658Y-8086150D02*
X4682229Y-8086150D01*
X4682229Y-8086150D02*
X4701277Y-8095674D01*
X4701277Y-8095674D02*
X4710801Y-8114722D01*
X4710801Y-8114722D02*
X4710801Y-8219484D01*
X4710801Y-8114722D02*
X4720324Y-8095674D01*
X4720324Y-8095674D02*
X4739372Y-8086150D01*
X4739372Y-8086150D02*
X4767943Y-8086150D01*
X4767943Y-8086150D02*
X4786991Y-8095674D01*
X4786991Y-8095674D02*
X4796515Y-8114722D01*
X4796515Y-8114722D02*
X4796515Y-8219484D01*
X5186991Y-8009960D02*
X5015563Y-8267103D01*
X5444134Y-8019484D02*
X5463182Y-8019484D01*
X5463182Y-8019484D02*
X5482229Y-8029008D01*
X5482229Y-8029008D02*
X5491753Y-8038531D01*
X5491753Y-8038531D02*
X5501277Y-8057579D01*
X5501277Y-8057579D02*
X5510801Y-8095674D01*
X5510801Y-8095674D02*
X5510801Y-8143293D01*
X5510801Y-8143293D02*
X5501277Y-8181388D01*
X5501277Y-8181388D02*
X5491753Y-8200436D01*
X5491753Y-8200436D02*
X5482229Y-8209960D01*
X5482229Y-8209960D02*
X5463182Y-8219484D01*
X5463182Y-8219484D02*
X5444134Y-8219484D01*
X5444134Y-8219484D02*
X5425086Y-8209960D01*
X5425086Y-8209960D02*
X5415563Y-8200436D01*
X5415563Y-8200436D02*
X5406039Y-8181388D01*
X5406039Y-8181388D02*
X5396515Y-8143293D01*
X5396515Y-8143293D02*
X5396515Y-8095674D01*
X5396515Y-8095674D02*
X5406039Y-8057579D01*
X5406039Y-8057579D02*
X5415563Y-8038531D01*
X5415563Y-8038531D02*
X5425086Y-8029008D01*
X5425086Y-8029008D02*
X5444134Y-8019484D01*
X5596515Y-8200436D02*
X5606039Y-8209960D01*
X5606039Y-8209960D02*
X5596515Y-8219484D01*
X5596515Y-8219484D02*
X5586991Y-8209960D01*
X5586991Y-8209960D02*
X5596515Y-8200436D01*
X5596515Y-8200436D02*
X5596515Y-8219484D01*
X5729848Y-8019484D02*
X5748896Y-8019484D01*
X5748896Y-8019484D02*
X5767943Y-8029008D01*
X5767943Y-8029008D02*
X5777467Y-8038531D01*
X5777467Y-8038531D02*
X5786991Y-8057579D01*
X5786991Y-8057579D02*
X5796515Y-8095674D01*
X5796515Y-8095674D02*
X5796515Y-8143293D01*
X5796515Y-8143293D02*
X5786991Y-8181388D01*
X5786991Y-8181388D02*
X5777467Y-8200436D01*
X5777467Y-8200436D02*
X5767943Y-8209960D01*
X5767943Y-8209960D02*
X5748896Y-8219484D01*
X5748896Y-8219484D02*
X5729848Y-8219484D01*
X5729848Y-8219484D02*
X5710801Y-8209960D01*
X5710801Y-8209960D02*
X5701277Y-8200436D01*
X5701277Y-8200436D02*
X5691753Y-8181388D01*
X5691753Y-8181388D02*
X5682229Y-8143293D01*
X5682229Y-8143293D02*
X5682229Y-8095674D01*
X5682229Y-8095674D02*
X5691753Y-8057579D01*
X5691753Y-8057579D02*
X5701277Y-8038531D01*
X5701277Y-8038531D02*
X5710801Y-8029008D01*
X5710801Y-8029008D02*
X5729848Y-8019484D01*
X5986991Y-8219484D02*
X5872705Y-8219484D01*
X5929848Y-8219484D02*
X5929848Y-8019484D01*
X5929848Y-8019484D02*
X5910801Y-8048055D01*
X5910801Y-8048055D02*
X5891753Y-8067103D01*
X5891753Y-8067103D02*
X5872705Y-8076627D01*
X6177467Y-8219484D02*
X6063182Y-8219484D01*
X6120324Y-8219484D02*
X6120324Y-8019484D01*
X6120324Y-8019484D02*
X6101277Y-8048055D01*
X6101277Y-8048055D02*
X6082229Y-8067103D01*
X6082229Y-8067103D02*
X6063182Y-8076627D01*
X6291753Y-8105198D02*
X6272705Y-8095674D01*
X6272705Y-8095674D02*
X6263182Y-8086150D01*
X6263182Y-8086150D02*
X6253658Y-8067103D01*
X6253658Y-8067103D02*
X6253658Y-8057579D01*
X6253658Y-8057579D02*
X6263182Y-8038531D01*
X6263182Y-8038531D02*
X6272705Y-8029008D01*
X6272705Y-8029008D02*
X6291753Y-8019484D01*
X6291753Y-8019484D02*
X6329848Y-8019484D01*
X6329848Y-8019484D02*
X6348896Y-8029008D01*
X6348896Y-8029008D02*
X6358420Y-8038531D01*
X6358420Y-8038531D02*
X6367943Y-8057579D01*
X6367943Y-8057579D02*
X6367943Y-8067103D01*
X6367943Y-8067103D02*
X6358420Y-8086150D01*
X6358420Y-8086150D02*
X6348896Y-8095674D01*
X6348896Y-8095674D02*
X6329848Y-8105198D01*
X6329848Y-8105198D02*
X6291753Y-8105198D01*
X6291753Y-8105198D02*
X6272705Y-8114722D01*
X6272705Y-8114722D02*
X6263182Y-8124246D01*
X6263182Y-8124246D02*
X6253658Y-8143293D01*
X6253658Y-8143293D02*
X6253658Y-8181388D01*
X6253658Y-8181388D02*
X6263182Y-8200436D01*
X6263182Y-8200436D02*
X6272705Y-8209960D01*
X6272705Y-8209960D02*
X6291753Y-8219484D01*
X6291753Y-8219484D02*
X6329848Y-8219484D01*
X6329848Y-8219484D02*
X6348896Y-8209960D01*
X6348896Y-8209960D02*
X6358420Y-8200436D01*
X6358420Y-8200436D02*
X6367943Y-8181388D01*
X6367943Y-8181388D02*
X6367943Y-8143293D01*
X6367943Y-8143293D02*
X6358420Y-8124246D01*
X6358420Y-8124246D02*
X6348896Y-8114722D01*
X6348896Y-8114722D02*
X6329848Y-8105198D01*
X6444134Y-8019484D02*
X6444134Y-8057579D01*
X6520324Y-8019484D02*
X6520324Y-8057579D01*
X6815563Y-8295674D02*
X6806039Y-8286150D01*
X6806039Y-8286150D02*
X6786991Y-8257579D01*
X6786991Y-8257579D02*
X6777467Y-8238531D01*
X6777467Y-8238531D02*
X6767944Y-8209960D01*
X6767944Y-8209960D02*
X6758420Y-8162341D01*
X6758420Y-8162341D02*
X6758420Y-8124246D01*
X6758420Y-8124246D02*
X6767944Y-8076627D01*
X6767944Y-8076627D02*
X6777467Y-8048055D01*
X6777467Y-8048055D02*
X6786991Y-8029008D01*
X6786991Y-8029008D02*
X6806039Y-8000436D01*
X6806039Y-8000436D02*
X6815563Y-7990912D01*
X6986991Y-8019484D02*
X6891753Y-8019484D01*
X6891753Y-8019484D02*
X6882229Y-8114722D01*
X6882229Y-8114722D02*
X6891753Y-8105198D01*
X6891753Y-8105198D02*
X6910801Y-8095674D01*
X6910801Y-8095674D02*
X6958420Y-8095674D01*
X6958420Y-8095674D02*
X6977467Y-8105198D01*
X6977467Y-8105198D02*
X6986991Y-8114722D01*
X6986991Y-8114722D02*
X6996515Y-8133769D01*
X6996515Y-8133769D02*
X6996515Y-8181388D01*
X6996515Y-8181388D02*
X6986991Y-8200436D01*
X6986991Y-8200436D02*
X6977467Y-8209960D01*
X6977467Y-8209960D02*
X6958420Y-8219484D01*
X6958420Y-8219484D02*
X6910801Y-8219484D01*
X6910801Y-8219484D02*
X6891753Y-8209960D01*
X6891753Y-8209960D02*
X6882229Y-8200436D01*
X7234610Y-8219484D02*
X7234610Y-8019484D01*
X7320325Y-8219484D02*
X7320325Y-8114722D01*
X7320325Y-8114722D02*
X7310801Y-8095674D01*
X7310801Y-8095674D02*
X7291753Y-8086150D01*
X7291753Y-8086150D02*
X7263182Y-8086150D01*
X7263182Y-8086150D02*
X7244134Y-8095674D01*
X7244134Y-8095674D02*
X7234610Y-8105198D01*
X7444134Y-8219484D02*
X7425086Y-8209960D01*
X7425086Y-8209960D02*
X7415563Y-8200436D01*
X7415563Y-8200436D02*
X7406039Y-8181388D01*
X7406039Y-8181388D02*
X7406039Y-8124246D01*
X7406039Y-8124246D02*
X7415563Y-8105198D01*
X7415563Y-8105198D02*
X7425086Y-8095674D01*
X7425086Y-8095674D02*
X7444134Y-8086150D01*
X7444134Y-8086150D02*
X7472706Y-8086150D01*
X7472706Y-8086150D02*
X7491753Y-8095674D01*
X7491753Y-8095674D02*
X7501277Y-8105198D01*
X7501277Y-8105198D02*
X7510801Y-8124246D01*
X7510801Y-8124246D02*
X7510801Y-8181388D01*
X7510801Y-8181388D02*
X7501277Y-8200436D01*
X7501277Y-8200436D02*
X7491753Y-8209960D01*
X7491753Y-8209960D02*
X7472706Y-8219484D01*
X7472706Y-8219484D02*
X7444134Y-8219484D01*
X7625086Y-8219484D02*
X7606039Y-8209960D01*
X7606039Y-8209960D02*
X7596515Y-8190912D01*
X7596515Y-8190912D02*
X7596515Y-8019484D01*
X7777467Y-8209960D02*
X7758420Y-8219484D01*
X7758420Y-8219484D02*
X7720325Y-8219484D01*
X7720325Y-8219484D02*
X7701277Y-8209960D01*
X7701277Y-8209960D02*
X7691753Y-8190912D01*
X7691753Y-8190912D02*
X7691753Y-8114722D01*
X7691753Y-8114722D02*
X7701277Y-8095674D01*
X7701277Y-8095674D02*
X7720325Y-8086150D01*
X7720325Y-8086150D02*
X7758420Y-8086150D01*
X7758420Y-8086150D02*
X7777467Y-8095674D01*
X7777467Y-8095674D02*
X7786991Y-8114722D01*
X7786991Y-8114722D02*
X7786991Y-8133769D01*
X7786991Y-8133769D02*
X7691753Y-8152817D01*
X7863182Y-8209960D02*
X7882229Y-8219484D01*
X7882229Y-8219484D02*
X7920325Y-8219484D01*
X7920325Y-8219484D02*
X7939372Y-8209960D01*
X7939372Y-8209960D02*
X7948896Y-8190912D01*
X7948896Y-8190912D02*
X7948896Y-8181388D01*
X7948896Y-8181388D02*
X7939372Y-8162341D01*
X7939372Y-8162341D02*
X7920325Y-8152817D01*
X7920325Y-8152817D02*
X7891753Y-8152817D01*
X7891753Y-8152817D02*
X7872706Y-8143293D01*
X7872706Y-8143293D02*
X7863182Y-8124246D01*
X7863182Y-8124246D02*
X7863182Y-8114722D01*
X7863182Y-8114722D02*
X7872706Y-8095674D01*
X7872706Y-8095674D02*
X7891753Y-8086150D01*
X7891753Y-8086150D02*
X7920325Y-8086150D01*
X7920325Y-8086150D02*
X7939372Y-8095674D01*
X8015563Y-8295674D02*
X8025087Y-8286150D01*
X8025087Y-8286150D02*
X8044134Y-8257579D01*
X8044134Y-8257579D02*
X8053658Y-8238531D01*
X8053658Y-8238531D02*
X8063182Y-8209960D01*
X8063182Y-8209960D02*
X8072706Y-8162341D01*
X8072706Y-8162341D02*
X8072706Y-8124246D01*
X8072706Y-8124246D02*
X8063182Y-8076627D01*
X8063182Y-8076627D02*
X8053658Y-8048055D01*
X8053658Y-8048055D02*
X8044134Y-8029008D01*
X8044134Y-8029008D02*
X8025087Y-8000436D01*
X8025087Y-8000436D02*
X8015563Y-7990912D01*
D10*
X3220500Y-8372000D02*
X3220500Y-8412000D01*
X3200500Y-8392000D02*
X3240500Y-8392000D01*
D11*
X3539372Y-8283484D02*
X3558419Y-8283484D01*
X3558419Y-8283484D02*
X3577467Y-8293008D01*
X3577467Y-8293008D02*
X3586991Y-8302531D01*
X3586991Y-8302531D02*
X3596515Y-8321579D01*
X3596515Y-8321579D02*
X3606038Y-8359674D01*
X3606038Y-8359674D02*
X3606038Y-8407293D01*
X3606038Y-8407293D02*
X3596515Y-8445389D01*
X3596515Y-8445389D02*
X3586991Y-8464436D01*
X3586991Y-8464436D02*
X3577467Y-8473960D01*
X3577467Y-8473960D02*
X3558419Y-8483484D01*
X3558419Y-8483484D02*
X3539372Y-8483484D01*
X3539372Y-8483484D02*
X3520324Y-8473960D01*
X3520324Y-8473960D02*
X3510800Y-8464436D01*
X3510800Y-8464436D02*
X3501277Y-8445389D01*
X3501277Y-8445389D02*
X3491753Y-8407293D01*
X3491753Y-8407293D02*
X3491753Y-8359674D01*
X3491753Y-8359674D02*
X3501277Y-8321579D01*
X3501277Y-8321579D02*
X3510800Y-8302531D01*
X3510800Y-8302531D02*
X3520324Y-8293008D01*
X3520324Y-8293008D02*
X3539372Y-8283484D01*
X3691753Y-8464436D02*
X3701277Y-8473960D01*
X3701277Y-8473960D02*
X3691753Y-8483484D01*
X3691753Y-8483484D02*
X3682229Y-8473960D01*
X3682229Y-8473960D02*
X3691753Y-8464436D01*
X3691753Y-8464436D02*
X3691753Y-8483484D01*
X3872705Y-8350150D02*
X3872705Y-8483484D01*
X3825086Y-8273960D02*
X3777467Y-8416817D01*
X3777467Y-8416817D02*
X3901277Y-8416817D01*
X4015562Y-8283484D02*
X4034610Y-8283484D01*
X4034610Y-8283484D02*
X4053658Y-8293008D01*
X4053658Y-8293008D02*
X4063181Y-8302531D01*
X4063181Y-8302531D02*
X4072705Y-8321579D01*
X4072705Y-8321579D02*
X4082229Y-8359674D01*
X4082229Y-8359674D02*
X4082229Y-8407293D01*
X4082229Y-8407293D02*
X4072705Y-8445389D01*
X4072705Y-8445389D02*
X4063181Y-8464436D01*
X4063181Y-8464436D02*
X4053658Y-8473960D01*
X4053658Y-8473960D02*
X4034610Y-8483484D01*
X4034610Y-8483484D02*
X4015562Y-8483484D01*
X4015562Y-8483484D02*
X3996515Y-8473960D01*
X3996515Y-8473960D02*
X3986991Y-8464436D01*
X3986991Y-8464436D02*
X3977467Y-8445389D01*
X3977467Y-8445389D02*
X3967943Y-8407293D01*
X3967943Y-8407293D02*
X3967943Y-8359674D01*
X3967943Y-8359674D02*
X3977467Y-8321579D01*
X3977467Y-8321579D02*
X3986991Y-8302531D01*
X3986991Y-8302531D02*
X3996515Y-8293008D01*
X3996515Y-8293008D02*
X4015562Y-8283484D01*
X4206039Y-8283484D02*
X4225086Y-8283484D01*
X4225086Y-8283484D02*
X4244134Y-8293008D01*
X4244134Y-8293008D02*
X4253658Y-8302531D01*
X4253658Y-8302531D02*
X4263181Y-8321579D01*
X4263181Y-8321579D02*
X4272705Y-8359674D01*
X4272705Y-8359674D02*
X4272705Y-8407293D01*
X4272705Y-8407293D02*
X4263181Y-8445389D01*
X4263181Y-8445389D02*
X4253658Y-8464436D01*
X4253658Y-8464436D02*
X4244134Y-8473960D01*
X4244134Y-8473960D02*
X4225086Y-8483484D01*
X4225086Y-8483484D02*
X4206039Y-8483484D01*
X4206039Y-8483484D02*
X4186991Y-8473960D01*
X4186991Y-8473960D02*
X4177467Y-8464436D01*
X4177467Y-8464436D02*
X4167943Y-8445389D01*
X4167943Y-8445389D02*
X4158419Y-8407293D01*
X4158419Y-8407293D02*
X4158419Y-8359674D01*
X4158419Y-8359674D02*
X4167943Y-8321579D01*
X4167943Y-8321579D02*
X4177467Y-8302531D01*
X4177467Y-8302531D02*
X4186991Y-8293008D01*
X4186991Y-8293008D02*
X4206039Y-8283484D01*
X4358420Y-8483484D02*
X4358420Y-8350150D01*
X4358420Y-8369198D02*
X4367943Y-8359674D01*
X4367943Y-8359674D02*
X4386991Y-8350150D01*
X4386991Y-8350150D02*
X4415562Y-8350150D01*
X4415562Y-8350150D02*
X4434610Y-8359674D01*
X4434610Y-8359674D02*
X4444134Y-8378722D01*
X4444134Y-8378722D02*
X4444134Y-8483484D01*
X4444134Y-8378722D02*
X4453658Y-8359674D01*
X4453658Y-8359674D02*
X4472705Y-8350150D01*
X4472705Y-8350150D02*
X4501277Y-8350150D01*
X4501277Y-8350150D02*
X4520324Y-8359674D01*
X4520324Y-8359674D02*
X4529848Y-8378722D01*
X4529848Y-8378722D02*
X4529848Y-8483484D01*
X4625086Y-8483484D02*
X4625086Y-8350150D01*
X4625086Y-8369198D02*
X4634610Y-8359674D01*
X4634610Y-8359674D02*
X4653658Y-8350150D01*
X4653658Y-8350150D02*
X4682229Y-8350150D01*
X4682229Y-8350150D02*
X4701277Y-8359674D01*
X4701277Y-8359674D02*
X4710801Y-8378722D01*
X4710801Y-8378722D02*
X4710801Y-8483484D01*
X4710801Y-8378722D02*
X4720324Y-8359674D01*
X4720324Y-8359674D02*
X4739372Y-8350150D01*
X4739372Y-8350150D02*
X4767943Y-8350150D01*
X4767943Y-8350150D02*
X4786991Y-8359674D01*
X4786991Y-8359674D02*
X4796515Y-8378722D01*
X4796515Y-8378722D02*
X4796515Y-8483484D01*
X5186991Y-8273960D02*
X5015563Y-8531103D01*
X5444134Y-8283484D02*
X5463182Y-8283484D01*
X5463182Y-8283484D02*
X5482229Y-8293008D01*
X5482229Y-8293008D02*
X5491753Y-8302531D01*
X5491753Y-8302531D02*
X5501277Y-8321579D01*
X5501277Y-8321579D02*
X5510801Y-8359674D01*
X5510801Y-8359674D02*
X5510801Y-8407293D01*
X5510801Y-8407293D02*
X5501277Y-8445389D01*
X5501277Y-8445389D02*
X5491753Y-8464436D01*
X5491753Y-8464436D02*
X5482229Y-8473960D01*
X5482229Y-8473960D02*
X5463182Y-8483484D01*
X5463182Y-8483484D02*
X5444134Y-8483484D01*
X5444134Y-8483484D02*
X5425086Y-8473960D01*
X5425086Y-8473960D02*
X5415563Y-8464436D01*
X5415563Y-8464436D02*
X5406039Y-8445389D01*
X5406039Y-8445389D02*
X5396515Y-8407293D01*
X5396515Y-8407293D02*
X5396515Y-8359674D01*
X5396515Y-8359674D02*
X5406039Y-8321579D01*
X5406039Y-8321579D02*
X5415563Y-8302531D01*
X5415563Y-8302531D02*
X5425086Y-8293008D01*
X5425086Y-8293008D02*
X5444134Y-8283484D01*
X5596515Y-8464436D02*
X5606039Y-8473960D01*
X5606039Y-8473960D02*
X5596515Y-8483484D01*
X5596515Y-8483484D02*
X5586991Y-8473960D01*
X5586991Y-8473960D02*
X5596515Y-8464436D01*
X5596515Y-8464436D02*
X5596515Y-8483484D01*
X5729848Y-8283484D02*
X5748896Y-8283484D01*
X5748896Y-8283484D02*
X5767943Y-8293008D01*
X5767943Y-8293008D02*
X5777467Y-8302531D01*
X5777467Y-8302531D02*
X5786991Y-8321579D01*
X5786991Y-8321579D02*
X5796515Y-8359674D01*
X5796515Y-8359674D02*
X5796515Y-8407293D01*
X5796515Y-8407293D02*
X5786991Y-8445389D01*
X5786991Y-8445389D02*
X5777467Y-8464436D01*
X5777467Y-8464436D02*
X5767943Y-8473960D01*
X5767943Y-8473960D02*
X5748896Y-8483484D01*
X5748896Y-8483484D02*
X5729848Y-8483484D01*
X5729848Y-8483484D02*
X5710801Y-8473960D01*
X5710801Y-8473960D02*
X5701277Y-8464436D01*
X5701277Y-8464436D02*
X5691753Y-8445389D01*
X5691753Y-8445389D02*
X5682229Y-8407293D01*
X5682229Y-8407293D02*
X5682229Y-8359674D01*
X5682229Y-8359674D02*
X5691753Y-8321579D01*
X5691753Y-8321579D02*
X5701277Y-8302531D01*
X5701277Y-8302531D02*
X5710801Y-8293008D01*
X5710801Y-8293008D02*
X5729848Y-8283484D01*
X5986991Y-8483484D02*
X5872705Y-8483484D01*
X5929848Y-8483484D02*
X5929848Y-8283484D01*
X5929848Y-8283484D02*
X5910801Y-8312055D01*
X5910801Y-8312055D02*
X5891753Y-8331103D01*
X5891753Y-8331103D02*
X5872705Y-8340627D01*
X6167943Y-8283484D02*
X6072705Y-8283484D01*
X6072705Y-8283484D02*
X6063182Y-8378722D01*
X6063182Y-8378722D02*
X6072705Y-8369198D01*
X6072705Y-8369198D02*
X6091753Y-8359674D01*
X6091753Y-8359674D02*
X6139372Y-8359674D01*
X6139372Y-8359674D02*
X6158420Y-8369198D01*
X6158420Y-8369198D02*
X6167943Y-8378722D01*
X6167943Y-8378722D02*
X6177467Y-8397770D01*
X6177467Y-8397770D02*
X6177467Y-8445389D01*
X6177467Y-8445389D02*
X6167943Y-8464436D01*
X6167943Y-8464436D02*
X6158420Y-8473960D01*
X6158420Y-8473960D02*
X6139372Y-8483484D01*
X6139372Y-8483484D02*
X6091753Y-8483484D01*
X6091753Y-8483484D02*
X6072705Y-8473960D01*
X6072705Y-8473960D02*
X6063182Y-8464436D01*
X6244134Y-8283484D02*
X6377467Y-8283484D01*
X6377467Y-8283484D02*
X6291753Y-8483484D01*
X6444134Y-8283484D02*
X6444134Y-8321579D01*
X6520324Y-8283484D02*
X6520324Y-8321579D01*
X6815563Y-8559674D02*
X6806039Y-8550150D01*
X6806039Y-8550150D02*
X6786991Y-8521579D01*
X6786991Y-8521579D02*
X6777467Y-8502531D01*
X6777467Y-8502531D02*
X6767944Y-8473960D01*
X6767944Y-8473960D02*
X6758420Y-8426341D01*
X6758420Y-8426341D02*
X6758420Y-8388246D01*
X6758420Y-8388246D02*
X6767944Y-8340627D01*
X6767944Y-8340627D02*
X6777467Y-8312055D01*
X6777467Y-8312055D02*
X6786991Y-8293008D01*
X6786991Y-8293008D02*
X6806039Y-8264436D01*
X6806039Y-8264436D02*
X6815563Y-8254912D01*
X6986991Y-8283484D02*
X6891753Y-8283484D01*
X6891753Y-8283484D02*
X6882229Y-8378722D01*
X6882229Y-8378722D02*
X6891753Y-8369198D01*
X6891753Y-8369198D02*
X6910801Y-8359674D01*
X6910801Y-8359674D02*
X6958420Y-8359674D01*
X6958420Y-8359674D02*
X6977467Y-8369198D01*
X6977467Y-8369198D02*
X6986991Y-8378722D01*
X6986991Y-8378722D02*
X6996515Y-8397770D01*
X6996515Y-8397770D02*
X6996515Y-8445389D01*
X6996515Y-8445389D02*
X6986991Y-8464436D01*
X6986991Y-8464436D02*
X6977467Y-8473960D01*
X6977467Y-8473960D02*
X6958420Y-8483484D01*
X6958420Y-8483484D02*
X6910801Y-8483484D01*
X6910801Y-8483484D02*
X6891753Y-8473960D01*
X6891753Y-8473960D02*
X6882229Y-8464436D01*
X7186991Y-8483484D02*
X7072705Y-8483484D01*
X7129848Y-8483484D02*
X7129848Y-8283484D01*
X7129848Y-8283484D02*
X7110801Y-8312055D01*
X7110801Y-8312055D02*
X7091753Y-8331103D01*
X7091753Y-8331103D02*
X7072705Y-8340627D01*
X7425086Y-8483484D02*
X7425086Y-8283484D01*
X7510801Y-8483484D02*
X7510801Y-8378722D01*
X7510801Y-8378722D02*
X7501277Y-8359674D01*
X7501277Y-8359674D02*
X7482229Y-8350150D01*
X7482229Y-8350150D02*
X7453658Y-8350150D01*
X7453658Y-8350150D02*
X7434610Y-8359674D01*
X7434610Y-8359674D02*
X7425086Y-8369198D01*
X7634610Y-8483484D02*
X7615563Y-8473960D01*
X7615563Y-8473960D02*
X7606039Y-8464436D01*
X7606039Y-8464436D02*
X7596515Y-8445389D01*
X7596515Y-8445389D02*
X7596515Y-8388246D01*
X7596515Y-8388246D02*
X7606039Y-8369198D01*
X7606039Y-8369198D02*
X7615563Y-8359674D01*
X7615563Y-8359674D02*
X7634610Y-8350150D01*
X7634610Y-8350150D02*
X7663182Y-8350150D01*
X7663182Y-8350150D02*
X7682229Y-8359674D01*
X7682229Y-8359674D02*
X7691753Y-8369198D01*
X7691753Y-8369198D02*
X7701277Y-8388246D01*
X7701277Y-8388246D02*
X7701277Y-8445389D01*
X7701277Y-8445389D02*
X7691753Y-8464436D01*
X7691753Y-8464436D02*
X7682229Y-8473960D01*
X7682229Y-8473960D02*
X7663182Y-8483484D01*
X7663182Y-8483484D02*
X7634610Y-8483484D01*
X7815563Y-8483484D02*
X7796515Y-8473960D01*
X7796515Y-8473960D02*
X7786991Y-8454912D01*
X7786991Y-8454912D02*
X7786991Y-8283484D01*
X7967944Y-8473960D02*
X7948896Y-8483484D01*
X7948896Y-8483484D02*
X7910801Y-8483484D01*
X7910801Y-8483484D02*
X7891753Y-8473960D01*
X7891753Y-8473960D02*
X7882229Y-8454912D01*
X7882229Y-8454912D02*
X7882229Y-8378722D01*
X7882229Y-8378722D02*
X7891753Y-8359674D01*
X7891753Y-8359674D02*
X7910801Y-8350150D01*
X7910801Y-8350150D02*
X7948896Y-8350150D01*
X7948896Y-8350150D02*
X7967944Y-8359674D01*
X7967944Y-8359674D02*
X7977467Y-8378722D01*
X7977467Y-8378722D02*
X7977467Y-8397770D01*
X7977467Y-8397770D02*
X7882229Y-8416817D01*
X8053658Y-8473960D02*
X8072706Y-8483484D01*
X8072706Y-8483484D02*
X8110801Y-8483484D01*
X8110801Y-8483484D02*
X8129848Y-8473960D01*
X8129848Y-8473960D02*
X8139372Y-8454912D01*
X8139372Y-8454912D02*
X8139372Y-8445389D01*
X8139372Y-8445389D02*
X8129848Y-8426341D01*
X8129848Y-8426341D02*
X8110801Y-8416817D01*
X8110801Y-8416817D02*
X8082229Y-8416817D01*
X8082229Y-8416817D02*
X8063182Y-8407293D01*
X8063182Y-8407293D02*
X8053658Y-8388246D01*
X8053658Y-8388246D02*
X8053658Y-8378722D01*
X8053658Y-8378722D02*
X8063182Y-8359674D01*
X8063182Y-8359674D02*
X8082229Y-8350150D01*
X8082229Y-8350150D02*
X8110801Y-8350150D01*
X8110801Y-8350150D02*
X8129848Y-8359674D01*
X8206039Y-8559674D02*
X8215563Y-8550150D01*
X8215563Y-8550150D02*
X8234610Y-8521579D01*
X8234610Y-8521579D02*
X8244134Y-8502531D01*
X8244134Y-8502531D02*
X8253658Y-8473960D01*
X8253658Y-8473960D02*
X8263182Y-8426341D01*
X8263182Y-8426341D02*
X8263182Y-8388246D01*
X8263182Y-8388246D02*
X8253658Y-8340627D01*
X8253658Y-8340627D02*
X8244134Y-8312055D01*
X8244134Y-8312055D02*
X8234610Y-8293008D01*
X8234610Y-8293008D02*
X8215563Y-8264436D01*
X8215563Y-8264436D02*
X8206039Y-8254912D01*
D10*
X3233178Y-8673678D02*
X3233178Y-8638322D01*
X3197822Y-8638322D01*
X3197822Y-8673678D01*
X3233178Y-8673678D01*
D11*
X3539372Y-8547484D02*
X3558419Y-8547484D01*
X3558419Y-8547484D02*
X3577467Y-8557008D01*
X3577467Y-8557008D02*
X3586991Y-8566531D01*
X3586991Y-8566531D02*
X3596515Y-8585579D01*
X3596515Y-8585579D02*
X3606038Y-8623674D01*
X3606038Y-8623674D02*
X3606038Y-8671293D01*
X3606038Y-8671293D02*
X3596515Y-8709389D01*
X3596515Y-8709389D02*
X3586991Y-8728436D01*
X3586991Y-8728436D02*
X3577467Y-8737960D01*
X3577467Y-8737960D02*
X3558419Y-8747484D01*
X3558419Y-8747484D02*
X3539372Y-8747484D01*
X3539372Y-8747484D02*
X3520324Y-8737960D01*
X3520324Y-8737960D02*
X3510800Y-8728436D01*
X3510800Y-8728436D02*
X3501277Y-8709389D01*
X3501277Y-8709389D02*
X3491753Y-8671293D01*
X3491753Y-8671293D02*
X3491753Y-8623674D01*
X3491753Y-8623674D02*
X3501277Y-8585579D01*
X3501277Y-8585579D02*
X3510800Y-8566531D01*
X3510800Y-8566531D02*
X3520324Y-8557008D01*
X3520324Y-8557008D02*
X3539372Y-8547484D01*
X3691753Y-8728436D02*
X3701277Y-8737960D01*
X3701277Y-8737960D02*
X3691753Y-8747484D01*
X3691753Y-8747484D02*
X3682229Y-8737960D01*
X3682229Y-8737960D02*
X3691753Y-8728436D01*
X3691753Y-8728436D02*
X3691753Y-8747484D01*
X3882229Y-8547484D02*
X3786991Y-8547484D01*
X3786991Y-8547484D02*
X3777467Y-8642722D01*
X3777467Y-8642722D02*
X3786991Y-8633198D01*
X3786991Y-8633198D02*
X3806038Y-8623674D01*
X3806038Y-8623674D02*
X3853658Y-8623674D01*
X3853658Y-8623674D02*
X3872705Y-8633198D01*
X3872705Y-8633198D02*
X3882229Y-8642722D01*
X3882229Y-8642722D02*
X3891753Y-8661770D01*
X3891753Y-8661770D02*
X3891753Y-8709389D01*
X3891753Y-8709389D02*
X3882229Y-8728436D01*
X3882229Y-8728436D02*
X3872705Y-8737960D01*
X3872705Y-8737960D02*
X3853658Y-8747484D01*
X3853658Y-8747484D02*
X3806038Y-8747484D01*
X3806038Y-8747484D02*
X3786991Y-8737960D01*
X3786991Y-8737960D02*
X3777467Y-8728436D01*
X4015562Y-8547484D02*
X4034610Y-8547484D01*
X4034610Y-8547484D02*
X4053658Y-8557008D01*
X4053658Y-8557008D02*
X4063181Y-8566531D01*
X4063181Y-8566531D02*
X4072705Y-8585579D01*
X4072705Y-8585579D02*
X4082229Y-8623674D01*
X4082229Y-8623674D02*
X4082229Y-8671293D01*
X4082229Y-8671293D02*
X4072705Y-8709389D01*
X4072705Y-8709389D02*
X4063181Y-8728436D01*
X4063181Y-8728436D02*
X4053658Y-8737960D01*
X4053658Y-8737960D02*
X4034610Y-8747484D01*
X4034610Y-8747484D02*
X4015562Y-8747484D01*
X4015562Y-8747484D02*
X3996515Y-8737960D01*
X3996515Y-8737960D02*
X3986991Y-8728436D01*
X3986991Y-8728436D02*
X3977467Y-8709389D01*
X3977467Y-8709389D02*
X3967943Y-8671293D01*
X3967943Y-8671293D02*
X3967943Y-8623674D01*
X3967943Y-8623674D02*
X3977467Y-8585579D01*
X3977467Y-8585579D02*
X3986991Y-8566531D01*
X3986991Y-8566531D02*
X3996515Y-8557008D01*
X3996515Y-8557008D02*
X4015562Y-8547484D01*
X4206039Y-8547484D02*
X4225086Y-8547484D01*
X4225086Y-8547484D02*
X4244134Y-8557008D01*
X4244134Y-8557008D02*
X4253658Y-8566531D01*
X4253658Y-8566531D02*
X4263181Y-8585579D01*
X4263181Y-8585579D02*
X4272705Y-8623674D01*
X4272705Y-8623674D02*
X4272705Y-8671293D01*
X4272705Y-8671293D02*
X4263181Y-8709389D01*
X4263181Y-8709389D02*
X4253658Y-8728436D01*
X4253658Y-8728436D02*
X4244134Y-8737960D01*
X4244134Y-8737960D02*
X4225086Y-8747484D01*
X4225086Y-8747484D02*
X4206039Y-8747484D01*
X4206039Y-8747484D02*
X4186991Y-8737960D01*
X4186991Y-8737960D02*
X4177467Y-8728436D01*
X4177467Y-8728436D02*
X4167943Y-8709389D01*
X4167943Y-8709389D02*
X4158419Y-8671293D01*
X4158419Y-8671293D02*
X4158419Y-8623674D01*
X4158419Y-8623674D02*
X4167943Y-8585579D01*
X4167943Y-8585579D02*
X4177467Y-8566531D01*
X4177467Y-8566531D02*
X4186991Y-8557008D01*
X4186991Y-8557008D02*
X4206039Y-8547484D01*
X4358420Y-8747484D02*
X4358420Y-8614150D01*
X4358420Y-8633198D02*
X4367943Y-8623674D01*
X4367943Y-8623674D02*
X4386991Y-8614150D01*
X4386991Y-8614150D02*
X4415562Y-8614150D01*
X4415562Y-8614150D02*
X4434610Y-8623674D01*
X4434610Y-8623674D02*
X4444134Y-8642722D01*
X4444134Y-8642722D02*
X4444134Y-8747484D01*
X4444134Y-8642722D02*
X4453658Y-8623674D01*
X4453658Y-8623674D02*
X4472705Y-8614150D01*
X4472705Y-8614150D02*
X4501277Y-8614150D01*
X4501277Y-8614150D02*
X4520324Y-8623674D01*
X4520324Y-8623674D02*
X4529848Y-8642722D01*
X4529848Y-8642722D02*
X4529848Y-8747484D01*
X4625086Y-8747484D02*
X4625086Y-8614150D01*
X4625086Y-8633198D02*
X4634610Y-8623674D01*
X4634610Y-8623674D02*
X4653658Y-8614150D01*
X4653658Y-8614150D02*
X4682229Y-8614150D01*
X4682229Y-8614150D02*
X4701277Y-8623674D01*
X4701277Y-8623674D02*
X4710801Y-8642722D01*
X4710801Y-8642722D02*
X4710801Y-8747484D01*
X4710801Y-8642722D02*
X4720324Y-8623674D01*
X4720324Y-8623674D02*
X4739372Y-8614150D01*
X4739372Y-8614150D02*
X4767943Y-8614150D01*
X4767943Y-8614150D02*
X4786991Y-8623674D01*
X4786991Y-8623674D02*
X4796515Y-8642722D01*
X4796515Y-8642722D02*
X4796515Y-8747484D01*
X5186991Y-8537960D02*
X5015563Y-8795103D01*
X5444134Y-8547484D02*
X5463182Y-8547484D01*
X5463182Y-8547484D02*
X5482229Y-8557008D01*
X5482229Y-8557008D02*
X5491753Y-8566531D01*
X5491753Y-8566531D02*
X5501277Y-8585579D01*
X5501277Y-8585579D02*
X5510801Y-8623674D01*
X5510801Y-8623674D02*
X5510801Y-8671293D01*
X5510801Y-8671293D02*
X5501277Y-8709389D01*
X5501277Y-8709389D02*
X5491753Y-8728436D01*
X5491753Y-8728436D02*
X5482229Y-8737960D01*
X5482229Y-8737960D02*
X5463182Y-8747484D01*
X5463182Y-8747484D02*
X5444134Y-8747484D01*
X5444134Y-8747484D02*
X5425086Y-8737960D01*
X5425086Y-8737960D02*
X5415563Y-8728436D01*
X5415563Y-8728436D02*
X5406039Y-8709389D01*
X5406039Y-8709389D02*
X5396515Y-8671293D01*
X5396515Y-8671293D02*
X5396515Y-8623674D01*
X5396515Y-8623674D02*
X5406039Y-8585579D01*
X5406039Y-8585579D02*
X5415563Y-8566531D01*
X5415563Y-8566531D02*
X5425086Y-8557008D01*
X5425086Y-8557008D02*
X5444134Y-8547484D01*
X5596515Y-8728436D02*
X5606039Y-8737960D01*
X5606039Y-8737960D02*
X5596515Y-8747484D01*
X5596515Y-8747484D02*
X5586991Y-8737960D01*
X5586991Y-8737960D02*
X5596515Y-8728436D01*
X5596515Y-8728436D02*
X5596515Y-8747484D01*
X5729848Y-8547484D02*
X5748896Y-8547484D01*
X5748896Y-8547484D02*
X5767943Y-8557008D01*
X5767943Y-8557008D02*
X5777467Y-8566531D01*
X5777467Y-8566531D02*
X5786991Y-8585579D01*
X5786991Y-8585579D02*
X5796515Y-8623674D01*
X5796515Y-8623674D02*
X5796515Y-8671293D01*
X5796515Y-8671293D02*
X5786991Y-8709389D01*
X5786991Y-8709389D02*
X5777467Y-8728436D01*
X5777467Y-8728436D02*
X5767943Y-8737960D01*
X5767943Y-8737960D02*
X5748896Y-8747484D01*
X5748896Y-8747484D02*
X5729848Y-8747484D01*
X5729848Y-8747484D02*
X5710801Y-8737960D01*
X5710801Y-8737960D02*
X5701277Y-8728436D01*
X5701277Y-8728436D02*
X5691753Y-8709389D01*
X5691753Y-8709389D02*
X5682229Y-8671293D01*
X5682229Y-8671293D02*
X5682229Y-8623674D01*
X5682229Y-8623674D02*
X5691753Y-8585579D01*
X5691753Y-8585579D02*
X5701277Y-8566531D01*
X5701277Y-8566531D02*
X5710801Y-8557008D01*
X5710801Y-8557008D02*
X5729848Y-8547484D01*
X5986991Y-8747484D02*
X5872705Y-8747484D01*
X5929848Y-8747484D02*
X5929848Y-8547484D01*
X5929848Y-8547484D02*
X5910801Y-8576055D01*
X5910801Y-8576055D02*
X5891753Y-8595103D01*
X5891753Y-8595103D02*
X5872705Y-8604627D01*
X6082229Y-8747484D02*
X6120324Y-8747484D01*
X6120324Y-8747484D02*
X6139372Y-8737960D01*
X6139372Y-8737960D02*
X6148896Y-8728436D01*
X6148896Y-8728436D02*
X6167943Y-8699865D01*
X6167943Y-8699865D02*
X6177467Y-8661770D01*
X6177467Y-8661770D02*
X6177467Y-8585579D01*
X6177467Y-8585579D02*
X6167943Y-8566531D01*
X6167943Y-8566531D02*
X6158420Y-8557008D01*
X6158420Y-8557008D02*
X6139372Y-8547484D01*
X6139372Y-8547484D02*
X6101277Y-8547484D01*
X6101277Y-8547484D02*
X6082229Y-8557008D01*
X6082229Y-8557008D02*
X6072705Y-8566531D01*
X6072705Y-8566531D02*
X6063182Y-8585579D01*
X6063182Y-8585579D02*
X6063182Y-8633198D01*
X6063182Y-8633198D02*
X6072705Y-8652246D01*
X6072705Y-8652246D02*
X6082229Y-8661770D01*
X6082229Y-8661770D02*
X6101277Y-8671293D01*
X6101277Y-8671293D02*
X6139372Y-8671293D01*
X6139372Y-8671293D02*
X6158420Y-8661770D01*
X6158420Y-8661770D02*
X6167943Y-8652246D01*
X6167943Y-8652246D02*
X6177467Y-8633198D01*
X6244134Y-8547484D02*
X6377467Y-8547484D01*
X6377467Y-8547484D02*
X6291753Y-8747484D01*
X6444134Y-8547484D02*
X6444134Y-8585579D01*
X6520324Y-8547484D02*
X6520324Y-8585579D01*
X6815563Y-8823674D02*
X6806039Y-8814150D01*
X6806039Y-8814150D02*
X6786991Y-8785579D01*
X6786991Y-8785579D02*
X6777467Y-8766531D01*
X6777467Y-8766531D02*
X6767944Y-8737960D01*
X6767944Y-8737960D02*
X6758420Y-8690341D01*
X6758420Y-8690341D02*
X6758420Y-8652246D01*
X6758420Y-8652246D02*
X6767944Y-8604627D01*
X6767944Y-8604627D02*
X6777467Y-8576055D01*
X6777467Y-8576055D02*
X6786991Y-8557008D01*
X6786991Y-8557008D02*
X6806039Y-8528436D01*
X6806039Y-8528436D02*
X6815563Y-8518912D01*
X6882229Y-8566531D02*
X6891753Y-8557008D01*
X6891753Y-8557008D02*
X6910801Y-8547484D01*
X6910801Y-8547484D02*
X6958420Y-8547484D01*
X6958420Y-8547484D02*
X6977467Y-8557008D01*
X6977467Y-8557008D02*
X6986991Y-8566531D01*
X6986991Y-8566531D02*
X6996515Y-8585579D01*
X6996515Y-8585579D02*
X6996515Y-8604627D01*
X6996515Y-8604627D02*
X6986991Y-8633198D01*
X6986991Y-8633198D02*
X6872705Y-8747484D01*
X6872705Y-8747484D02*
X6996515Y-8747484D01*
X7091753Y-8747484D02*
X7129848Y-8747484D01*
X7129848Y-8747484D02*
X7148896Y-8737960D01*
X7148896Y-8737960D02*
X7158420Y-8728436D01*
X7158420Y-8728436D02*
X7177467Y-8699865D01*
X7177467Y-8699865D02*
X7186991Y-8661770D01*
X7186991Y-8661770D02*
X7186991Y-8585579D01*
X7186991Y-8585579D02*
X7177467Y-8566531D01*
X7177467Y-8566531D02*
X7167944Y-8557008D01*
X7167944Y-8557008D02*
X7148896Y-8547484D01*
X7148896Y-8547484D02*
X7110801Y-8547484D01*
X7110801Y-8547484D02*
X7091753Y-8557008D01*
X7091753Y-8557008D02*
X7082229Y-8566531D01*
X7082229Y-8566531D02*
X7072705Y-8585579D01*
X7072705Y-8585579D02*
X7072705Y-8633198D01*
X7072705Y-8633198D02*
X7082229Y-8652246D01*
X7082229Y-8652246D02*
X7091753Y-8661770D01*
X7091753Y-8661770D02*
X7110801Y-8671293D01*
X7110801Y-8671293D02*
X7148896Y-8671293D01*
X7148896Y-8671293D02*
X7167944Y-8661770D01*
X7167944Y-8661770D02*
X7177467Y-8652246D01*
X7177467Y-8652246D02*
X7186991Y-8633198D01*
X7425086Y-8747484D02*
X7425086Y-8547484D01*
X7510801Y-8747484D02*
X7510801Y-8642722D01*
X7510801Y-8642722D02*
X7501277Y-8623674D01*
X7501277Y-8623674D02*
X7482229Y-8614150D01*
X7482229Y-8614150D02*
X7453658Y-8614150D01*
X7453658Y-8614150D02*
X7434610Y-8623674D01*
X7434610Y-8623674D02*
X7425086Y-8633198D01*
X7634610Y-8747484D02*
X7615563Y-8737960D01*
X7615563Y-8737960D02*
X7606039Y-8728436D01*
X7606039Y-8728436D02*
X7596515Y-8709389D01*
X7596515Y-8709389D02*
X7596515Y-8652246D01*
X7596515Y-8652246D02*
X7606039Y-8633198D01*
X7606039Y-8633198D02*
X7615563Y-8623674D01*
X7615563Y-8623674D02*
X7634610Y-8614150D01*
X7634610Y-8614150D02*
X7663182Y-8614150D01*
X7663182Y-8614150D02*
X7682229Y-8623674D01*
X7682229Y-8623674D02*
X7691753Y-8633198D01*
X7691753Y-8633198D02*
X7701277Y-8652246D01*
X7701277Y-8652246D02*
X7701277Y-8709389D01*
X7701277Y-8709389D02*
X7691753Y-8728436D01*
X7691753Y-8728436D02*
X7682229Y-8737960D01*
X7682229Y-8737960D02*
X7663182Y-8747484D01*
X7663182Y-8747484D02*
X7634610Y-8747484D01*
X7815563Y-8747484D02*
X7796515Y-8737960D01*
X7796515Y-8737960D02*
X7786991Y-8718912D01*
X7786991Y-8718912D02*
X7786991Y-8547484D01*
X7967944Y-8737960D02*
X7948896Y-8747484D01*
X7948896Y-8747484D02*
X7910801Y-8747484D01*
X7910801Y-8747484D02*
X7891753Y-8737960D01*
X7891753Y-8737960D02*
X7882229Y-8718912D01*
X7882229Y-8718912D02*
X7882229Y-8642722D01*
X7882229Y-8642722D02*
X7891753Y-8623674D01*
X7891753Y-8623674D02*
X7910801Y-8614150D01*
X7910801Y-8614150D02*
X7948896Y-8614150D01*
X7948896Y-8614150D02*
X7967944Y-8623674D01*
X7967944Y-8623674D02*
X7977467Y-8642722D01*
X7977467Y-8642722D02*
X7977467Y-8661770D01*
X7977467Y-8661770D02*
X7882229Y-8680817D01*
X8053658Y-8737960D02*
X8072706Y-8747484D01*
X8072706Y-8747484D02*
X8110801Y-8747484D01*
X8110801Y-8747484D02*
X8129848Y-8737960D01*
X8129848Y-8737960D02*
X8139372Y-8718912D01*
X8139372Y-8718912D02*
X8139372Y-8709389D01*
X8139372Y-8709389D02*
X8129848Y-8690341D01*
X8129848Y-8690341D02*
X8110801Y-8680817D01*
X8110801Y-8680817D02*
X8082229Y-8680817D01*
X8082229Y-8680817D02*
X8063182Y-8671293D01*
X8063182Y-8671293D02*
X8053658Y-8652246D01*
X8053658Y-8652246D02*
X8053658Y-8642722D01*
X8053658Y-8642722D02*
X8063182Y-8623674D01*
X8063182Y-8623674D02*
X8082229Y-8614150D01*
X8082229Y-8614150D02*
X8110801Y-8614150D01*
X8110801Y-8614150D02*
X8129848Y-8623674D01*
X8206039Y-8823674D02*
X8215563Y-8814150D01*
X8215563Y-8814150D02*
X8234610Y-8785579D01*
X8234610Y-8785579D02*
X8244134Y-8766531D01*
X8244134Y-8766531D02*
X8253658Y-8737960D01*
X8253658Y-8737960D02*
X8263182Y-8690341D01*
X8263182Y-8690341D02*
X8263182Y-8652246D01*
X8263182Y-8652246D02*
X8253658Y-8604627D01*
X8253658Y-8604627D02*
X8244134Y-8576055D01*
X8244134Y-8576055D02*
X8234610Y-8557008D01*
X8234610Y-8557008D02*
X8215563Y-8528436D01*
X8215563Y-8528436D02*
X8206039Y-8518912D01*
D10*
X3210500Y-8950000D02*
X3240500Y-8920000D01*
X3210500Y-8890000D01*
X3180500Y-8920000D01*
X3210500Y-8950000D01*
D11*
X3539372Y-8811484D02*
X3558419Y-8811484D01*
X3558419Y-8811484D02*
X3577467Y-8821008D01*
X3577467Y-8821008D02*
X3586991Y-8830531D01*
X3586991Y-8830531D02*
X3596515Y-8849579D01*
X3596515Y-8849579D02*
X3606038Y-8887674D01*
X3606038Y-8887674D02*
X3606038Y-8935293D01*
X3606038Y-8935293D02*
X3596515Y-8973389D01*
X3596515Y-8973389D02*
X3586991Y-8992436D01*
X3586991Y-8992436D02*
X3577467Y-9001960D01*
X3577467Y-9001960D02*
X3558419Y-9011484D01*
X3558419Y-9011484D02*
X3539372Y-9011484D01*
X3539372Y-9011484D02*
X3520324Y-9001960D01*
X3520324Y-9001960D02*
X3510800Y-8992436D01*
X3510800Y-8992436D02*
X3501277Y-8973389D01*
X3501277Y-8973389D02*
X3491753Y-8935293D01*
X3491753Y-8935293D02*
X3491753Y-8887674D01*
X3491753Y-8887674D02*
X3501277Y-8849579D01*
X3501277Y-8849579D02*
X3510800Y-8830531D01*
X3510800Y-8830531D02*
X3520324Y-8821008D01*
X3520324Y-8821008D02*
X3539372Y-8811484D01*
X3691753Y-8992436D02*
X3701277Y-9001960D01*
X3701277Y-9001960D02*
X3691753Y-9011484D01*
X3691753Y-9011484D02*
X3682229Y-9001960D01*
X3682229Y-9001960D02*
X3691753Y-8992436D01*
X3691753Y-8992436D02*
X3691753Y-9011484D01*
X3872705Y-8811484D02*
X3834610Y-8811484D01*
X3834610Y-8811484D02*
X3815562Y-8821008D01*
X3815562Y-8821008D02*
X3806038Y-8830531D01*
X3806038Y-8830531D02*
X3786991Y-8859103D01*
X3786991Y-8859103D02*
X3777467Y-8897198D01*
X3777467Y-8897198D02*
X3777467Y-8973389D01*
X3777467Y-8973389D02*
X3786991Y-8992436D01*
X3786991Y-8992436D02*
X3796515Y-9001960D01*
X3796515Y-9001960D02*
X3815562Y-9011484D01*
X3815562Y-9011484D02*
X3853658Y-9011484D01*
X3853658Y-9011484D02*
X3872705Y-9001960D01*
X3872705Y-9001960D02*
X3882229Y-8992436D01*
X3882229Y-8992436D02*
X3891753Y-8973389D01*
X3891753Y-8973389D02*
X3891753Y-8925770D01*
X3891753Y-8925770D02*
X3882229Y-8906722D01*
X3882229Y-8906722D02*
X3872705Y-8897198D01*
X3872705Y-8897198D02*
X3853658Y-8887674D01*
X3853658Y-8887674D02*
X3815562Y-8887674D01*
X3815562Y-8887674D02*
X3796515Y-8897198D01*
X3796515Y-8897198D02*
X3786991Y-8906722D01*
X3786991Y-8906722D02*
X3777467Y-8925770D01*
X4015562Y-8811484D02*
X4034610Y-8811484D01*
X4034610Y-8811484D02*
X4053658Y-8821008D01*
X4053658Y-8821008D02*
X4063181Y-8830531D01*
X4063181Y-8830531D02*
X4072705Y-8849579D01*
X4072705Y-8849579D02*
X4082229Y-8887674D01*
X4082229Y-8887674D02*
X4082229Y-8935293D01*
X4082229Y-8935293D02*
X4072705Y-8973389D01*
X4072705Y-8973389D02*
X4063181Y-8992436D01*
X4063181Y-8992436D02*
X4053658Y-9001960D01*
X4053658Y-9001960D02*
X4034610Y-9011484D01*
X4034610Y-9011484D02*
X4015562Y-9011484D01*
X4015562Y-9011484D02*
X3996515Y-9001960D01*
X3996515Y-9001960D02*
X3986991Y-8992436D01*
X3986991Y-8992436D02*
X3977467Y-8973389D01*
X3977467Y-8973389D02*
X3967943Y-8935293D01*
X3967943Y-8935293D02*
X3967943Y-8887674D01*
X3967943Y-8887674D02*
X3977467Y-8849579D01*
X3977467Y-8849579D02*
X3986991Y-8830531D01*
X3986991Y-8830531D02*
X3996515Y-8821008D01*
X3996515Y-8821008D02*
X4015562Y-8811484D01*
X4206039Y-8811484D02*
X4225086Y-8811484D01*
X4225086Y-8811484D02*
X4244134Y-8821008D01*
X4244134Y-8821008D02*
X4253658Y-8830531D01*
X4253658Y-8830531D02*
X4263181Y-8849579D01*
X4263181Y-8849579D02*
X4272705Y-8887674D01*
X4272705Y-8887674D02*
X4272705Y-8935293D01*
X4272705Y-8935293D02*
X4263181Y-8973389D01*
X4263181Y-8973389D02*
X4253658Y-8992436D01*
X4253658Y-8992436D02*
X4244134Y-9001960D01*
X4244134Y-9001960D02*
X4225086Y-9011484D01*
X4225086Y-9011484D02*
X4206039Y-9011484D01*
X4206039Y-9011484D02*
X4186991Y-9001960D01*
X4186991Y-9001960D02*
X4177467Y-8992436D01*
X4177467Y-8992436D02*
X4167943Y-8973389D01*
X4167943Y-8973389D02*
X4158419Y-8935293D01*
X4158419Y-8935293D02*
X4158419Y-8887674D01*
X4158419Y-8887674D02*
X4167943Y-8849579D01*
X4167943Y-8849579D02*
X4177467Y-8830531D01*
X4177467Y-8830531D02*
X4186991Y-8821008D01*
X4186991Y-8821008D02*
X4206039Y-8811484D01*
X4358420Y-9011484D02*
X4358420Y-8878150D01*
X4358420Y-8897198D02*
X4367943Y-8887674D01*
X4367943Y-8887674D02*
X4386991Y-8878150D01*
X4386991Y-8878150D02*
X4415562Y-8878150D01*
X4415562Y-8878150D02*
X4434610Y-8887674D01*
X4434610Y-8887674D02*
X4444134Y-8906722D01*
X4444134Y-8906722D02*
X4444134Y-9011484D01*
X4444134Y-8906722D02*
X4453658Y-8887674D01*
X4453658Y-8887674D02*
X4472705Y-8878150D01*
X4472705Y-8878150D02*
X4501277Y-8878150D01*
X4501277Y-8878150D02*
X4520324Y-8887674D01*
X4520324Y-8887674D02*
X4529848Y-8906722D01*
X4529848Y-8906722D02*
X4529848Y-9011484D01*
X4625086Y-9011484D02*
X4625086Y-8878150D01*
X4625086Y-8897198D02*
X4634610Y-8887674D01*
X4634610Y-8887674D02*
X4653658Y-8878150D01*
X4653658Y-8878150D02*
X4682229Y-8878150D01*
X4682229Y-8878150D02*
X4701277Y-8887674D01*
X4701277Y-8887674D02*
X4710801Y-8906722D01*
X4710801Y-8906722D02*
X4710801Y-9011484D01*
X4710801Y-8906722D02*
X4720324Y-8887674D01*
X4720324Y-8887674D02*
X4739372Y-8878150D01*
X4739372Y-8878150D02*
X4767943Y-8878150D01*
X4767943Y-8878150D02*
X4786991Y-8887674D01*
X4786991Y-8887674D02*
X4796515Y-8906722D01*
X4796515Y-8906722D02*
X4796515Y-9011484D01*
X5186991Y-8801960D02*
X5015563Y-9059103D01*
X5444134Y-8811484D02*
X5463182Y-8811484D01*
X5463182Y-8811484D02*
X5482229Y-8821008D01*
X5482229Y-8821008D02*
X5491753Y-8830531D01*
X5491753Y-8830531D02*
X5501277Y-8849579D01*
X5501277Y-8849579D02*
X5510801Y-8887674D01*
X5510801Y-8887674D02*
X5510801Y-8935293D01*
X5510801Y-8935293D02*
X5501277Y-8973389D01*
X5501277Y-8973389D02*
X5491753Y-8992436D01*
X5491753Y-8992436D02*
X5482229Y-9001960D01*
X5482229Y-9001960D02*
X5463182Y-9011484D01*
X5463182Y-9011484D02*
X5444134Y-9011484D01*
X5444134Y-9011484D02*
X5425086Y-9001960D01*
X5425086Y-9001960D02*
X5415563Y-8992436D01*
X5415563Y-8992436D02*
X5406039Y-8973389D01*
X5406039Y-8973389D02*
X5396515Y-8935293D01*
X5396515Y-8935293D02*
X5396515Y-8887674D01*
X5396515Y-8887674D02*
X5406039Y-8849579D01*
X5406039Y-8849579D02*
X5415563Y-8830531D01*
X5415563Y-8830531D02*
X5425086Y-8821008D01*
X5425086Y-8821008D02*
X5444134Y-8811484D01*
X5596515Y-8992436D02*
X5606039Y-9001960D01*
X5606039Y-9001960D02*
X5596515Y-9011484D01*
X5596515Y-9011484D02*
X5586991Y-9001960D01*
X5586991Y-9001960D02*
X5596515Y-8992436D01*
X5596515Y-8992436D02*
X5596515Y-9011484D01*
X5729848Y-8811484D02*
X5748896Y-8811484D01*
X5748896Y-8811484D02*
X5767943Y-8821008D01*
X5767943Y-8821008D02*
X5777467Y-8830531D01*
X5777467Y-8830531D02*
X5786991Y-8849579D01*
X5786991Y-8849579D02*
X5796515Y-8887674D01*
X5796515Y-8887674D02*
X5796515Y-8935293D01*
X5796515Y-8935293D02*
X5786991Y-8973389D01*
X5786991Y-8973389D02*
X5777467Y-8992436D01*
X5777467Y-8992436D02*
X5767943Y-9001960D01*
X5767943Y-9001960D02*
X5748896Y-9011484D01*
X5748896Y-9011484D02*
X5729848Y-9011484D01*
X5729848Y-9011484D02*
X5710801Y-9001960D01*
X5710801Y-9001960D02*
X5701277Y-8992436D01*
X5701277Y-8992436D02*
X5691753Y-8973389D01*
X5691753Y-8973389D02*
X5682229Y-8935293D01*
X5682229Y-8935293D02*
X5682229Y-8887674D01*
X5682229Y-8887674D02*
X5691753Y-8849579D01*
X5691753Y-8849579D02*
X5701277Y-8830531D01*
X5701277Y-8830531D02*
X5710801Y-8821008D01*
X5710801Y-8821008D02*
X5729848Y-8811484D01*
X5872705Y-8830531D02*
X5882229Y-8821008D01*
X5882229Y-8821008D02*
X5901277Y-8811484D01*
X5901277Y-8811484D02*
X5948896Y-8811484D01*
X5948896Y-8811484D02*
X5967943Y-8821008D01*
X5967943Y-8821008D02*
X5977467Y-8830531D01*
X5977467Y-8830531D02*
X5986991Y-8849579D01*
X5986991Y-8849579D02*
X5986991Y-8868627D01*
X5986991Y-8868627D02*
X5977467Y-8897198D01*
X5977467Y-8897198D02*
X5863182Y-9011484D01*
X5863182Y-9011484D02*
X5986991Y-9011484D01*
X6053658Y-8811484D02*
X6177467Y-8811484D01*
X6177467Y-8811484D02*
X6110801Y-8887674D01*
X6110801Y-8887674D02*
X6139372Y-8887674D01*
X6139372Y-8887674D02*
X6158420Y-8897198D01*
X6158420Y-8897198D02*
X6167943Y-8906722D01*
X6167943Y-8906722D02*
X6177467Y-8925770D01*
X6177467Y-8925770D02*
X6177467Y-8973389D01*
X6177467Y-8973389D02*
X6167943Y-8992436D01*
X6167943Y-8992436D02*
X6158420Y-9001960D01*
X6158420Y-9001960D02*
X6139372Y-9011484D01*
X6139372Y-9011484D02*
X6082229Y-9011484D01*
X6082229Y-9011484D02*
X6063182Y-9001960D01*
X6063182Y-9001960D02*
X6053658Y-8992436D01*
X6348896Y-8811484D02*
X6310801Y-8811484D01*
X6310801Y-8811484D02*
X6291753Y-8821008D01*
X6291753Y-8821008D02*
X6282229Y-8830531D01*
X6282229Y-8830531D02*
X6263182Y-8859103D01*
X6263182Y-8859103D02*
X6253658Y-8897198D01*
X6253658Y-8897198D02*
X6253658Y-8973389D01*
X6253658Y-8973389D02*
X6263182Y-8992436D01*
X6263182Y-8992436D02*
X6272705Y-9001960D01*
X6272705Y-9001960D02*
X6291753Y-9011484D01*
X6291753Y-9011484D02*
X6329848Y-9011484D01*
X6329848Y-9011484D02*
X6348896Y-9001960D01*
X6348896Y-9001960D02*
X6358420Y-8992436D01*
X6358420Y-8992436D02*
X6367943Y-8973389D01*
X6367943Y-8973389D02*
X6367943Y-8925770D01*
X6367943Y-8925770D02*
X6358420Y-8906722D01*
X6358420Y-8906722D02*
X6348896Y-8897198D01*
X6348896Y-8897198D02*
X6329848Y-8887674D01*
X6329848Y-8887674D02*
X6291753Y-8887674D01*
X6291753Y-8887674D02*
X6272705Y-8897198D01*
X6272705Y-8897198D02*
X6263182Y-8906722D01*
X6263182Y-8906722D02*
X6253658Y-8925770D01*
X6444134Y-8811484D02*
X6444134Y-8849579D01*
X6520324Y-8811484D02*
X6520324Y-8849579D01*
X6815563Y-9087674D02*
X6806039Y-9078150D01*
X6806039Y-9078150D02*
X6786991Y-9049579D01*
X6786991Y-9049579D02*
X6777467Y-9030531D01*
X6777467Y-9030531D02*
X6767944Y-9001960D01*
X6767944Y-9001960D02*
X6758420Y-8954341D01*
X6758420Y-8954341D02*
X6758420Y-8916246D01*
X6758420Y-8916246D02*
X6767944Y-8868627D01*
X6767944Y-8868627D02*
X6777467Y-8840055D01*
X6777467Y-8840055D02*
X6786991Y-8821008D01*
X6786991Y-8821008D02*
X6806039Y-8792436D01*
X6806039Y-8792436D02*
X6815563Y-8782912D01*
X6977467Y-8878150D02*
X6977467Y-9011484D01*
X6929848Y-8801960D02*
X6882229Y-8944817D01*
X6882229Y-8944817D02*
X7006039Y-8944817D01*
X7167944Y-8811484D02*
X7129848Y-8811484D01*
X7129848Y-8811484D02*
X7110801Y-8821008D01*
X7110801Y-8821008D02*
X7101277Y-8830531D01*
X7101277Y-8830531D02*
X7082229Y-8859103D01*
X7082229Y-8859103D02*
X7072705Y-8897198D01*
X7072705Y-8897198D02*
X7072705Y-8973389D01*
X7072705Y-8973389D02*
X7082229Y-8992436D01*
X7082229Y-8992436D02*
X7091753Y-9001960D01*
X7091753Y-9001960D02*
X7110801Y-9011484D01*
X7110801Y-9011484D02*
X7148896Y-9011484D01*
X7148896Y-9011484D02*
X7167944Y-9001960D01*
X7167944Y-9001960D02*
X7177467Y-8992436D01*
X7177467Y-8992436D02*
X7186991Y-8973389D01*
X7186991Y-8973389D02*
X7186991Y-8925770D01*
X7186991Y-8925770D02*
X7177467Y-8906722D01*
X7177467Y-8906722D02*
X7167944Y-8897198D01*
X7167944Y-8897198D02*
X7148896Y-8887674D01*
X7148896Y-8887674D02*
X7110801Y-8887674D01*
X7110801Y-8887674D02*
X7091753Y-8897198D01*
X7091753Y-8897198D02*
X7082229Y-8906722D01*
X7082229Y-8906722D02*
X7072705Y-8925770D01*
X7425086Y-9011484D02*
X7425086Y-8811484D01*
X7510801Y-9011484D02*
X7510801Y-8906722D01*
X7510801Y-8906722D02*
X7501277Y-8887674D01*
X7501277Y-8887674D02*
X7482229Y-8878150D01*
X7482229Y-8878150D02*
X7453658Y-8878150D01*
X7453658Y-8878150D02*
X7434610Y-8887674D01*
X7434610Y-8887674D02*
X7425086Y-8897198D01*
X7634610Y-9011484D02*
X7615563Y-9001960D01*
X7615563Y-9001960D02*
X7606039Y-8992436D01*
X7606039Y-8992436D02*
X7596515Y-8973389D01*
X7596515Y-8973389D02*
X7596515Y-8916246D01*
X7596515Y-8916246D02*
X7606039Y-8897198D01*
X7606039Y-8897198D02*
X7615563Y-8887674D01*
X7615563Y-8887674D02*
X7634610Y-8878150D01*
X7634610Y-8878150D02*
X7663182Y-8878150D01*
X7663182Y-8878150D02*
X7682229Y-8887674D01*
X7682229Y-8887674D02*
X7691753Y-8897198D01*
X7691753Y-8897198D02*
X7701277Y-8916246D01*
X7701277Y-8916246D02*
X7701277Y-8973389D01*
X7701277Y-8973389D02*
X7691753Y-8992436D01*
X7691753Y-8992436D02*
X7682229Y-9001960D01*
X7682229Y-9001960D02*
X7663182Y-9011484D01*
X7663182Y-9011484D02*
X7634610Y-9011484D01*
X7815563Y-9011484D02*
X7796515Y-9001960D01*
X7796515Y-9001960D02*
X7786991Y-8982912D01*
X7786991Y-8982912D02*
X7786991Y-8811484D01*
X7967944Y-9001960D02*
X7948896Y-9011484D01*
X7948896Y-9011484D02*
X7910801Y-9011484D01*
X7910801Y-9011484D02*
X7891753Y-9001960D01*
X7891753Y-9001960D02*
X7882229Y-8982912D01*
X7882229Y-8982912D02*
X7882229Y-8906722D01*
X7882229Y-8906722D02*
X7891753Y-8887674D01*
X7891753Y-8887674D02*
X7910801Y-8878150D01*
X7910801Y-8878150D02*
X7948896Y-8878150D01*
X7948896Y-8878150D02*
X7967944Y-8887674D01*
X7967944Y-8887674D02*
X7977467Y-8906722D01*
X7977467Y-8906722D02*
X7977467Y-8925770D01*
X7977467Y-8925770D02*
X7882229Y-8944817D01*
X8053658Y-9001960D02*
X8072706Y-9011484D01*
X8072706Y-9011484D02*
X8110801Y-9011484D01*
X8110801Y-9011484D02*
X8129848Y-9001960D01*
X8129848Y-9001960D02*
X8139372Y-8982912D01*
X8139372Y-8982912D02*
X8139372Y-8973389D01*
X8139372Y-8973389D02*
X8129848Y-8954341D01*
X8129848Y-8954341D02*
X8110801Y-8944817D01*
X8110801Y-8944817D02*
X8082229Y-8944817D01*
X8082229Y-8944817D02*
X8063182Y-8935293D01*
X8063182Y-8935293D02*
X8053658Y-8916246D01*
X8053658Y-8916246D02*
X8053658Y-8906722D01*
X8053658Y-8906722D02*
X8063182Y-8887674D01*
X8063182Y-8887674D02*
X8082229Y-8878150D01*
X8082229Y-8878150D02*
X8110801Y-8878150D01*
X8110801Y-8878150D02*
X8129848Y-8887674D01*
X8206039Y-9087674D02*
X8215563Y-9078150D01*
X8215563Y-9078150D02*
X8234610Y-9049579D01*
X8234610Y-9049579D02*
X8244134Y-9030531D01*
X8244134Y-9030531D02*
X8253658Y-9001960D01*
X8253658Y-9001960D02*
X8263182Y-8954341D01*
X8263182Y-8954341D02*
X8263182Y-8916246D01*
X8263182Y-8916246D02*
X8253658Y-8868627D01*
X8253658Y-8868627D02*
X8244134Y-8840055D01*
X8244134Y-8840055D02*
X8234610Y-8821008D01*
X8234610Y-8821008D02*
X8215563Y-8792436D01*
X8215563Y-8792436D02*
X8206039Y-8782912D01*
D10*
X3140500Y-9134000D02*
X3240500Y-9234000D01*
X3240500Y-9134000D02*
X3140500Y-9234000D01*
X3240500Y-9184000D02*
G75*
G02*
X3140500Y-9184000I-50000J0D01*
G01*
X3140500Y-9184000D02*
G75*
G02*
X3240500Y-9184000I50000J0D01*
G01*
D11*
X3606038Y-9275484D02*
X3491753Y-9275484D01*
X3548896Y-9275484D02*
X3548896Y-9075484D01*
X3548896Y-9075484D02*
X3529848Y-9104055D01*
X3529848Y-9104055D02*
X3510800Y-9123103D01*
X3510800Y-9123103D02*
X3491753Y-9132627D01*
X3691753Y-9256436D02*
X3701277Y-9265960D01*
X3701277Y-9265960D02*
X3691753Y-9275484D01*
X3691753Y-9275484D02*
X3682229Y-9265960D01*
X3682229Y-9265960D02*
X3691753Y-9256436D01*
X3691753Y-9256436D02*
X3691753Y-9275484D01*
X3825086Y-9075484D02*
X3844134Y-9075484D01*
X3844134Y-9075484D02*
X3863181Y-9085008D01*
X3863181Y-9085008D02*
X3872705Y-9094531D01*
X3872705Y-9094531D02*
X3882229Y-9113579D01*
X3882229Y-9113579D02*
X3891753Y-9151674D01*
X3891753Y-9151674D02*
X3891753Y-9199293D01*
X3891753Y-9199293D02*
X3882229Y-9237389D01*
X3882229Y-9237389D02*
X3872705Y-9256436D01*
X3872705Y-9256436D02*
X3863181Y-9265960D01*
X3863181Y-9265960D02*
X3844134Y-9275484D01*
X3844134Y-9275484D02*
X3825086Y-9275484D01*
X3825086Y-9275484D02*
X3806038Y-9265960D01*
X3806038Y-9265960D02*
X3796515Y-9256436D01*
X3796515Y-9256436D02*
X3786991Y-9237389D01*
X3786991Y-9237389D02*
X3777467Y-9199293D01*
X3777467Y-9199293D02*
X3777467Y-9151674D01*
X3777467Y-9151674D02*
X3786991Y-9113579D01*
X3786991Y-9113579D02*
X3796515Y-9094531D01*
X3796515Y-9094531D02*
X3806038Y-9085008D01*
X3806038Y-9085008D02*
X3825086Y-9075484D01*
X4015562Y-9075484D02*
X4034610Y-9075484D01*
X4034610Y-9075484D02*
X4053658Y-9085008D01*
X4053658Y-9085008D02*
X4063181Y-9094531D01*
X4063181Y-9094531D02*
X4072705Y-9113579D01*
X4072705Y-9113579D02*
X4082229Y-9151674D01*
X4082229Y-9151674D02*
X4082229Y-9199293D01*
X4082229Y-9199293D02*
X4072705Y-9237389D01*
X4072705Y-9237389D02*
X4063181Y-9256436D01*
X4063181Y-9256436D02*
X4053658Y-9265960D01*
X4053658Y-9265960D02*
X4034610Y-9275484D01*
X4034610Y-9275484D02*
X4015562Y-9275484D01*
X4015562Y-9275484D02*
X3996515Y-9265960D01*
X3996515Y-9265960D02*
X3986991Y-9256436D01*
X3986991Y-9256436D02*
X3977467Y-9237389D01*
X3977467Y-9237389D02*
X3967943Y-9199293D01*
X3967943Y-9199293D02*
X3967943Y-9151674D01*
X3967943Y-9151674D02*
X3977467Y-9113579D01*
X3977467Y-9113579D02*
X3986991Y-9094531D01*
X3986991Y-9094531D02*
X3996515Y-9085008D01*
X3996515Y-9085008D02*
X4015562Y-9075484D01*
X4206039Y-9075484D02*
X4225086Y-9075484D01*
X4225086Y-9075484D02*
X4244134Y-9085008D01*
X4244134Y-9085008D02*
X4253658Y-9094531D01*
X4253658Y-9094531D02*
X4263181Y-9113579D01*
X4263181Y-9113579D02*
X4272705Y-9151674D01*
X4272705Y-9151674D02*
X4272705Y-9199293D01*
X4272705Y-9199293D02*
X4263181Y-9237389D01*
X4263181Y-9237389D02*
X4253658Y-9256436D01*
X4253658Y-9256436D02*
X4244134Y-9265960D01*
X4244134Y-9265960D02*
X4225086Y-9275484D01*
X4225086Y-9275484D02*
X4206039Y-9275484D01*
X4206039Y-9275484D02*
X4186991Y-9265960D01*
X4186991Y-9265960D02*
X4177467Y-9256436D01*
X4177467Y-9256436D02*
X4167943Y-9237389D01*
X4167943Y-9237389D02*
X4158419Y-9199293D01*
X4158419Y-9199293D02*
X4158419Y-9151674D01*
X4158419Y-9151674D02*
X4167943Y-9113579D01*
X4167943Y-9113579D02*
X4177467Y-9094531D01*
X4177467Y-9094531D02*
X4186991Y-9085008D01*
X4186991Y-9085008D02*
X4206039Y-9075484D01*
X4358420Y-9275484D02*
X4358420Y-9142150D01*
X4358420Y-9161198D02*
X4367943Y-9151674D01*
X4367943Y-9151674D02*
X4386991Y-9142150D01*
X4386991Y-9142150D02*
X4415562Y-9142150D01*
X4415562Y-9142150D02*
X4434610Y-9151674D01*
X4434610Y-9151674D02*
X4444134Y-9170722D01*
X4444134Y-9170722D02*
X4444134Y-9275484D01*
X4444134Y-9170722D02*
X4453658Y-9151674D01*
X4453658Y-9151674D02*
X4472705Y-9142150D01*
X4472705Y-9142150D02*
X4501277Y-9142150D01*
X4501277Y-9142150D02*
X4520324Y-9151674D01*
X4520324Y-9151674D02*
X4529848Y-9170722D01*
X4529848Y-9170722D02*
X4529848Y-9275484D01*
X4625086Y-9275484D02*
X4625086Y-9142150D01*
X4625086Y-9161198D02*
X4634610Y-9151674D01*
X4634610Y-9151674D02*
X4653658Y-9142150D01*
X4653658Y-9142150D02*
X4682229Y-9142150D01*
X4682229Y-9142150D02*
X4701277Y-9151674D01*
X4701277Y-9151674D02*
X4710801Y-9170722D01*
X4710801Y-9170722D02*
X4710801Y-9275484D01*
X4710801Y-9170722D02*
X4720324Y-9151674D01*
X4720324Y-9151674D02*
X4739372Y-9142150D01*
X4739372Y-9142150D02*
X4767943Y-9142150D01*
X4767943Y-9142150D02*
X4786991Y-9151674D01*
X4786991Y-9151674D02*
X4796515Y-9170722D01*
X4796515Y-9170722D02*
X4796515Y-9275484D01*
X5186991Y-9065960D02*
X5015563Y-9323103D01*
X5444134Y-9075484D02*
X5463182Y-9075484D01*
X5463182Y-9075484D02*
X5482229Y-9085008D01*
X5482229Y-9085008D02*
X5491753Y-9094531D01*
X5491753Y-9094531D02*
X5501277Y-9113579D01*
X5501277Y-9113579D02*
X5510801Y-9151674D01*
X5510801Y-9151674D02*
X5510801Y-9199293D01*
X5510801Y-9199293D02*
X5501277Y-9237389D01*
X5501277Y-9237389D02*
X5491753Y-9256436D01*
X5491753Y-9256436D02*
X5482229Y-9265960D01*
X5482229Y-9265960D02*
X5463182Y-9275484D01*
X5463182Y-9275484D02*
X5444134Y-9275484D01*
X5444134Y-9275484D02*
X5425086Y-9265960D01*
X5425086Y-9265960D02*
X5415563Y-9256436D01*
X5415563Y-9256436D02*
X5406039Y-9237389D01*
X5406039Y-9237389D02*
X5396515Y-9199293D01*
X5396515Y-9199293D02*
X5396515Y-9151674D01*
X5396515Y-9151674D02*
X5406039Y-9113579D01*
X5406039Y-9113579D02*
X5415563Y-9094531D01*
X5415563Y-9094531D02*
X5425086Y-9085008D01*
X5425086Y-9085008D02*
X5444134Y-9075484D01*
X5596515Y-9256436D02*
X5606039Y-9265960D01*
X5606039Y-9265960D02*
X5596515Y-9275484D01*
X5596515Y-9275484D02*
X5586991Y-9265960D01*
X5586991Y-9265960D02*
X5596515Y-9256436D01*
X5596515Y-9256436D02*
X5596515Y-9275484D01*
X5729848Y-9075484D02*
X5748896Y-9075484D01*
X5748896Y-9075484D02*
X5767943Y-9085008D01*
X5767943Y-9085008D02*
X5777467Y-9094531D01*
X5777467Y-9094531D02*
X5786991Y-9113579D01*
X5786991Y-9113579D02*
X5796515Y-9151674D01*
X5796515Y-9151674D02*
X5796515Y-9199293D01*
X5796515Y-9199293D02*
X5786991Y-9237389D01*
X5786991Y-9237389D02*
X5777467Y-9256436D01*
X5777467Y-9256436D02*
X5767943Y-9265960D01*
X5767943Y-9265960D02*
X5748896Y-9275484D01*
X5748896Y-9275484D02*
X5729848Y-9275484D01*
X5729848Y-9275484D02*
X5710801Y-9265960D01*
X5710801Y-9265960D02*
X5701277Y-9256436D01*
X5701277Y-9256436D02*
X5691753Y-9237389D01*
X5691753Y-9237389D02*
X5682229Y-9199293D01*
X5682229Y-9199293D02*
X5682229Y-9151674D01*
X5682229Y-9151674D02*
X5691753Y-9113579D01*
X5691753Y-9113579D02*
X5701277Y-9094531D01*
X5701277Y-9094531D02*
X5710801Y-9085008D01*
X5710801Y-9085008D02*
X5729848Y-9075484D01*
X5863182Y-9075484D02*
X5986991Y-9075484D01*
X5986991Y-9075484D02*
X5920324Y-9151674D01*
X5920324Y-9151674D02*
X5948896Y-9151674D01*
X5948896Y-9151674D02*
X5967943Y-9161198D01*
X5967943Y-9161198D02*
X5977467Y-9170722D01*
X5977467Y-9170722D02*
X5986991Y-9189770D01*
X5986991Y-9189770D02*
X5986991Y-9237389D01*
X5986991Y-9237389D02*
X5977467Y-9256436D01*
X5977467Y-9256436D02*
X5967943Y-9265960D01*
X5967943Y-9265960D02*
X5948896Y-9275484D01*
X5948896Y-9275484D02*
X5891753Y-9275484D01*
X5891753Y-9275484D02*
X5872705Y-9265960D01*
X5872705Y-9265960D02*
X5863182Y-9256436D01*
X6082229Y-9275484D02*
X6120324Y-9275484D01*
X6120324Y-9275484D02*
X6139372Y-9265960D01*
X6139372Y-9265960D02*
X6148896Y-9256436D01*
X6148896Y-9256436D02*
X6167943Y-9227865D01*
X6167943Y-9227865D02*
X6177467Y-9189770D01*
X6177467Y-9189770D02*
X6177467Y-9113579D01*
X6177467Y-9113579D02*
X6167943Y-9094531D01*
X6167943Y-9094531D02*
X6158420Y-9085008D01*
X6158420Y-9085008D02*
X6139372Y-9075484D01*
X6139372Y-9075484D02*
X6101277Y-9075484D01*
X6101277Y-9075484D02*
X6082229Y-9085008D01*
X6082229Y-9085008D02*
X6072705Y-9094531D01*
X6072705Y-9094531D02*
X6063182Y-9113579D01*
X6063182Y-9113579D02*
X6063182Y-9161198D01*
X6063182Y-9161198D02*
X6072705Y-9180246D01*
X6072705Y-9180246D02*
X6082229Y-9189770D01*
X6082229Y-9189770D02*
X6101277Y-9199293D01*
X6101277Y-9199293D02*
X6139372Y-9199293D01*
X6139372Y-9199293D02*
X6158420Y-9189770D01*
X6158420Y-9189770D02*
X6167943Y-9180246D01*
X6167943Y-9180246D02*
X6177467Y-9161198D01*
X6348896Y-9142150D02*
X6348896Y-9275484D01*
X6301277Y-9065960D02*
X6253658Y-9208817D01*
X6253658Y-9208817D02*
X6377467Y-9208817D01*
X6444134Y-9075484D02*
X6444134Y-9113579D01*
X6520324Y-9075484D02*
X6520324Y-9113579D01*
X6815563Y-9351674D02*
X6806039Y-9342150D01*
X6806039Y-9342150D02*
X6786991Y-9313579D01*
X6786991Y-9313579D02*
X6777467Y-9294531D01*
X6777467Y-9294531D02*
X6767944Y-9265960D01*
X6767944Y-9265960D02*
X6758420Y-9218341D01*
X6758420Y-9218341D02*
X6758420Y-9180246D01*
X6758420Y-9180246D02*
X6767944Y-9132627D01*
X6767944Y-9132627D02*
X6777467Y-9104055D01*
X6777467Y-9104055D02*
X6786991Y-9085008D01*
X6786991Y-9085008D02*
X6806039Y-9056436D01*
X6806039Y-9056436D02*
X6815563Y-9046912D01*
X6977467Y-9075484D02*
X6939372Y-9075484D01*
X6939372Y-9075484D02*
X6920324Y-9085008D01*
X6920324Y-9085008D02*
X6910801Y-9094531D01*
X6910801Y-9094531D02*
X6891753Y-9123103D01*
X6891753Y-9123103D02*
X6882229Y-9161198D01*
X6882229Y-9161198D02*
X6882229Y-9237389D01*
X6882229Y-9237389D02*
X6891753Y-9256436D01*
X6891753Y-9256436D02*
X6901277Y-9265960D01*
X6901277Y-9265960D02*
X6920324Y-9275484D01*
X6920324Y-9275484D02*
X6958420Y-9275484D01*
X6958420Y-9275484D02*
X6977467Y-9265960D01*
X6977467Y-9265960D02*
X6986991Y-9256436D01*
X6986991Y-9256436D02*
X6996515Y-9237389D01*
X6996515Y-9237389D02*
X6996515Y-9189770D01*
X6996515Y-9189770D02*
X6986991Y-9170722D01*
X6986991Y-9170722D02*
X6977467Y-9161198D01*
X6977467Y-9161198D02*
X6958420Y-9151674D01*
X6958420Y-9151674D02*
X6920324Y-9151674D01*
X6920324Y-9151674D02*
X6901277Y-9161198D01*
X6901277Y-9161198D02*
X6891753Y-9170722D01*
X6891753Y-9170722D02*
X6882229Y-9189770D01*
X7234610Y-9275484D02*
X7234610Y-9075484D01*
X7320325Y-9275484D02*
X7320325Y-9170722D01*
X7320325Y-9170722D02*
X7310801Y-9151674D01*
X7310801Y-9151674D02*
X7291753Y-9142150D01*
X7291753Y-9142150D02*
X7263182Y-9142150D01*
X7263182Y-9142150D02*
X7244134Y-9151674D01*
X7244134Y-9151674D02*
X7234610Y-9161198D01*
X7444134Y-9275484D02*
X7425086Y-9265960D01*
X7425086Y-9265960D02*
X7415563Y-9256436D01*
X7415563Y-9256436D02*
X7406039Y-9237389D01*
X7406039Y-9237389D02*
X7406039Y-9180246D01*
X7406039Y-9180246D02*
X7415563Y-9161198D01*
X7415563Y-9161198D02*
X7425086Y-9151674D01*
X7425086Y-9151674D02*
X7444134Y-9142150D01*
X7444134Y-9142150D02*
X7472706Y-9142150D01*
X7472706Y-9142150D02*
X7491753Y-9151674D01*
X7491753Y-9151674D02*
X7501277Y-9161198D01*
X7501277Y-9161198D02*
X7510801Y-9180246D01*
X7510801Y-9180246D02*
X7510801Y-9237389D01*
X7510801Y-9237389D02*
X7501277Y-9256436D01*
X7501277Y-9256436D02*
X7491753Y-9265960D01*
X7491753Y-9265960D02*
X7472706Y-9275484D01*
X7472706Y-9275484D02*
X7444134Y-9275484D01*
X7625086Y-9275484D02*
X7606039Y-9265960D01*
X7606039Y-9265960D02*
X7596515Y-9246912D01*
X7596515Y-9246912D02*
X7596515Y-9075484D01*
X7777467Y-9265960D02*
X7758420Y-9275484D01*
X7758420Y-9275484D02*
X7720325Y-9275484D01*
X7720325Y-9275484D02*
X7701277Y-9265960D01*
X7701277Y-9265960D02*
X7691753Y-9246912D01*
X7691753Y-9246912D02*
X7691753Y-9170722D01*
X7691753Y-9170722D02*
X7701277Y-9151674D01*
X7701277Y-9151674D02*
X7720325Y-9142150D01*
X7720325Y-9142150D02*
X7758420Y-9142150D01*
X7758420Y-9142150D02*
X7777467Y-9151674D01*
X7777467Y-9151674D02*
X7786991Y-9170722D01*
X7786991Y-9170722D02*
X7786991Y-9189770D01*
X7786991Y-9189770D02*
X7691753Y-9208817D01*
X7863182Y-9265960D02*
X7882229Y-9275484D01*
X7882229Y-9275484D02*
X7920325Y-9275484D01*
X7920325Y-9275484D02*
X7939372Y-9265960D01*
X7939372Y-9265960D02*
X7948896Y-9246912D01*
X7948896Y-9246912D02*
X7948896Y-9237389D01*
X7948896Y-9237389D02*
X7939372Y-9218341D01*
X7939372Y-9218341D02*
X7920325Y-9208817D01*
X7920325Y-9208817D02*
X7891753Y-9208817D01*
X7891753Y-9208817D02*
X7872706Y-9199293D01*
X7872706Y-9199293D02*
X7863182Y-9180246D01*
X7863182Y-9180246D02*
X7863182Y-9170722D01*
X7863182Y-9170722D02*
X7872706Y-9151674D01*
X7872706Y-9151674D02*
X7891753Y-9142150D01*
X7891753Y-9142150D02*
X7920325Y-9142150D01*
X7920325Y-9142150D02*
X7939372Y-9151674D01*
X8015563Y-9351674D02*
X8025087Y-9342150D01*
X8025087Y-9342150D02*
X8044134Y-9313579D01*
X8044134Y-9313579D02*
X8053658Y-9294531D01*
X8053658Y-9294531D02*
X8063182Y-9265960D01*
X8063182Y-9265960D02*
X8072706Y-9218341D01*
X8072706Y-9218341D02*
X8072706Y-9180246D01*
X8072706Y-9180246D02*
X8063182Y-9132627D01*
X8063182Y-9132627D02*
X8053658Y-9104055D01*
X8053658Y-9104055D02*
X8044134Y-9085008D01*
X8044134Y-9085008D02*
X8025087Y-9056436D01*
X8025087Y-9056436D02*
X8015563Y-9046912D01*
X3040500Y-9348000D02*
X3240500Y-9548000D01*
X3240500Y-9348000D02*
X3040500Y-9548000D01*
X3140500Y-9348000D02*
X3140500Y-9548000D01*
X3040500Y-9448000D02*
X3240500Y-9448000D01*
X3491753Y-9358531D02*
X3501277Y-9349008D01*
X3501277Y-9349008D02*
X3520324Y-9339484D01*
X3520324Y-9339484D02*
X3567943Y-9339484D01*
X3567943Y-9339484D02*
X3586991Y-9349008D01*
X3586991Y-9349008D02*
X3596515Y-9358531D01*
X3596515Y-9358531D02*
X3606038Y-9377579D01*
X3606038Y-9377579D02*
X3606038Y-9396627D01*
X3606038Y-9396627D02*
X3596515Y-9425198D01*
X3596515Y-9425198D02*
X3482229Y-9539484D01*
X3482229Y-9539484D02*
X3606038Y-9539484D01*
X3691753Y-9520436D02*
X3701277Y-9529960D01*
X3701277Y-9529960D02*
X3691753Y-9539484D01*
X3691753Y-9539484D02*
X3682229Y-9529960D01*
X3682229Y-9529960D02*
X3691753Y-9520436D01*
X3691753Y-9520436D02*
X3691753Y-9539484D01*
X3777467Y-9358531D02*
X3786991Y-9349008D01*
X3786991Y-9349008D02*
X3806038Y-9339484D01*
X3806038Y-9339484D02*
X3853658Y-9339484D01*
X3853658Y-9339484D02*
X3872705Y-9349008D01*
X3872705Y-9349008D02*
X3882229Y-9358531D01*
X3882229Y-9358531D02*
X3891753Y-9377579D01*
X3891753Y-9377579D02*
X3891753Y-9396627D01*
X3891753Y-9396627D02*
X3882229Y-9425198D01*
X3882229Y-9425198D02*
X3767943Y-9539484D01*
X3767943Y-9539484D02*
X3891753Y-9539484D01*
X4015562Y-9339484D02*
X4034610Y-9339484D01*
X4034610Y-9339484D02*
X4053658Y-9349008D01*
X4053658Y-9349008D02*
X4063181Y-9358531D01*
X4063181Y-9358531D02*
X4072705Y-9377579D01*
X4072705Y-9377579D02*
X4082229Y-9415674D01*
X4082229Y-9415674D02*
X4082229Y-9463293D01*
X4082229Y-9463293D02*
X4072705Y-9501389D01*
X4072705Y-9501389D02*
X4063181Y-9520436D01*
X4063181Y-9520436D02*
X4053658Y-9529960D01*
X4053658Y-9529960D02*
X4034610Y-9539484D01*
X4034610Y-9539484D02*
X4015562Y-9539484D01*
X4015562Y-9539484D02*
X3996515Y-9529960D01*
X3996515Y-9529960D02*
X3986991Y-9520436D01*
X3986991Y-9520436D02*
X3977467Y-9501389D01*
X3977467Y-9501389D02*
X3967943Y-9463293D01*
X3967943Y-9463293D02*
X3967943Y-9415674D01*
X3967943Y-9415674D02*
X3977467Y-9377579D01*
X3977467Y-9377579D02*
X3986991Y-9358531D01*
X3986991Y-9358531D02*
X3996515Y-9349008D01*
X3996515Y-9349008D02*
X4015562Y-9339484D01*
X4206039Y-9339484D02*
X4225086Y-9339484D01*
X4225086Y-9339484D02*
X4244134Y-9349008D01*
X4244134Y-9349008D02*
X4253658Y-9358531D01*
X4253658Y-9358531D02*
X4263181Y-9377579D01*
X4263181Y-9377579D02*
X4272705Y-9415674D01*
X4272705Y-9415674D02*
X4272705Y-9463293D01*
X4272705Y-9463293D02*
X4263181Y-9501389D01*
X4263181Y-9501389D02*
X4253658Y-9520436D01*
X4253658Y-9520436D02*
X4244134Y-9529960D01*
X4244134Y-9529960D02*
X4225086Y-9539484D01*
X4225086Y-9539484D02*
X4206039Y-9539484D01*
X4206039Y-9539484D02*
X4186991Y-9529960D01*
X4186991Y-9529960D02*
X4177467Y-9520436D01*
X4177467Y-9520436D02*
X4167943Y-9501389D01*
X4167943Y-9501389D02*
X4158419Y-9463293D01*
X4158419Y-9463293D02*
X4158419Y-9415674D01*
X4158419Y-9415674D02*
X4167943Y-9377579D01*
X4167943Y-9377579D02*
X4177467Y-9358531D01*
X4177467Y-9358531D02*
X4186991Y-9349008D01*
X4186991Y-9349008D02*
X4206039Y-9339484D01*
X4358420Y-9539484D02*
X4358420Y-9406150D01*
X4358420Y-9425198D02*
X4367943Y-9415674D01*
X4367943Y-9415674D02*
X4386991Y-9406150D01*
X4386991Y-9406150D02*
X4415562Y-9406150D01*
X4415562Y-9406150D02*
X4434610Y-9415674D01*
X4434610Y-9415674D02*
X4444134Y-9434722D01*
X4444134Y-9434722D02*
X4444134Y-9539484D01*
X4444134Y-9434722D02*
X4453658Y-9415674D01*
X4453658Y-9415674D02*
X4472705Y-9406150D01*
X4472705Y-9406150D02*
X4501277Y-9406150D01*
X4501277Y-9406150D02*
X4520324Y-9415674D01*
X4520324Y-9415674D02*
X4529848Y-9434722D01*
X4529848Y-9434722D02*
X4529848Y-9539484D01*
X4625086Y-9539484D02*
X4625086Y-9406150D01*
X4625086Y-9425198D02*
X4634610Y-9415674D01*
X4634610Y-9415674D02*
X4653658Y-9406150D01*
X4653658Y-9406150D02*
X4682229Y-9406150D01*
X4682229Y-9406150D02*
X4701277Y-9415674D01*
X4701277Y-9415674D02*
X4710801Y-9434722D01*
X4710801Y-9434722D02*
X4710801Y-9539484D01*
X4710801Y-9434722D02*
X4720324Y-9415674D01*
X4720324Y-9415674D02*
X4739372Y-9406150D01*
X4739372Y-9406150D02*
X4767943Y-9406150D01*
X4767943Y-9406150D02*
X4786991Y-9415674D01*
X4786991Y-9415674D02*
X4796515Y-9434722D01*
X4796515Y-9434722D02*
X4796515Y-9539484D01*
X5186991Y-9329960D02*
X5015563Y-9587103D01*
X5444134Y-9339484D02*
X5463182Y-9339484D01*
X5463182Y-9339484D02*
X5482229Y-9349008D01*
X5482229Y-9349008D02*
X5491753Y-9358531D01*
X5491753Y-9358531D02*
X5501277Y-9377579D01*
X5501277Y-9377579D02*
X5510801Y-9415674D01*
X5510801Y-9415674D02*
X5510801Y-9463293D01*
X5510801Y-9463293D02*
X5501277Y-9501389D01*
X5501277Y-9501389D02*
X5491753Y-9520436D01*
X5491753Y-9520436D02*
X5482229Y-9529960D01*
X5482229Y-9529960D02*
X5463182Y-9539484D01*
X5463182Y-9539484D02*
X5444134Y-9539484D01*
X5444134Y-9539484D02*
X5425086Y-9529960D01*
X5425086Y-9529960D02*
X5415563Y-9520436D01*
X5415563Y-9520436D02*
X5406039Y-9501389D01*
X5406039Y-9501389D02*
X5396515Y-9463293D01*
X5396515Y-9463293D02*
X5396515Y-9415674D01*
X5396515Y-9415674D02*
X5406039Y-9377579D01*
X5406039Y-9377579D02*
X5415563Y-9358531D01*
X5415563Y-9358531D02*
X5425086Y-9349008D01*
X5425086Y-9349008D02*
X5444134Y-9339484D01*
X5596515Y-9520436D02*
X5606039Y-9529960D01*
X5606039Y-9529960D02*
X5596515Y-9539484D01*
X5596515Y-9539484D02*
X5586991Y-9529960D01*
X5586991Y-9529960D02*
X5596515Y-9520436D01*
X5596515Y-9520436D02*
X5596515Y-9539484D01*
X5729848Y-9339484D02*
X5748896Y-9339484D01*
X5748896Y-9339484D02*
X5767943Y-9349008D01*
X5767943Y-9349008D02*
X5777467Y-9358531D01*
X5777467Y-9358531D02*
X5786991Y-9377579D01*
X5786991Y-9377579D02*
X5796515Y-9415674D01*
X5796515Y-9415674D02*
X5796515Y-9463293D01*
X5796515Y-9463293D02*
X5786991Y-9501389D01*
X5786991Y-9501389D02*
X5777467Y-9520436D01*
X5777467Y-9520436D02*
X5767943Y-9529960D01*
X5767943Y-9529960D02*
X5748896Y-9539484D01*
X5748896Y-9539484D02*
X5729848Y-9539484D01*
X5729848Y-9539484D02*
X5710801Y-9529960D01*
X5710801Y-9529960D02*
X5701277Y-9520436D01*
X5701277Y-9520436D02*
X5691753Y-9501389D01*
X5691753Y-9501389D02*
X5682229Y-9463293D01*
X5682229Y-9463293D02*
X5682229Y-9415674D01*
X5682229Y-9415674D02*
X5691753Y-9377579D01*
X5691753Y-9377579D02*
X5701277Y-9358531D01*
X5701277Y-9358531D02*
X5710801Y-9349008D01*
X5710801Y-9349008D02*
X5729848Y-9339484D01*
X5910801Y-9425198D02*
X5891753Y-9415674D01*
X5891753Y-9415674D02*
X5882229Y-9406150D01*
X5882229Y-9406150D02*
X5872705Y-9387103D01*
X5872705Y-9387103D02*
X5872705Y-9377579D01*
X5872705Y-9377579D02*
X5882229Y-9358531D01*
X5882229Y-9358531D02*
X5891753Y-9349008D01*
X5891753Y-9349008D02*
X5910801Y-9339484D01*
X5910801Y-9339484D02*
X5948896Y-9339484D01*
X5948896Y-9339484D02*
X5967943Y-9349008D01*
X5967943Y-9349008D02*
X5977467Y-9358531D01*
X5977467Y-9358531D02*
X5986991Y-9377579D01*
X5986991Y-9377579D02*
X5986991Y-9387103D01*
X5986991Y-9387103D02*
X5977467Y-9406150D01*
X5977467Y-9406150D02*
X5967943Y-9415674D01*
X5967943Y-9415674D02*
X5948896Y-9425198D01*
X5948896Y-9425198D02*
X5910801Y-9425198D01*
X5910801Y-9425198D02*
X5891753Y-9434722D01*
X5891753Y-9434722D02*
X5882229Y-9444246D01*
X5882229Y-9444246D02*
X5872705Y-9463293D01*
X5872705Y-9463293D02*
X5872705Y-9501389D01*
X5872705Y-9501389D02*
X5882229Y-9520436D01*
X5882229Y-9520436D02*
X5891753Y-9529960D01*
X5891753Y-9529960D02*
X5910801Y-9539484D01*
X5910801Y-9539484D02*
X5948896Y-9539484D01*
X5948896Y-9539484D02*
X5967943Y-9529960D01*
X5967943Y-9529960D02*
X5977467Y-9520436D01*
X5977467Y-9520436D02*
X5986991Y-9501389D01*
X5986991Y-9501389D02*
X5986991Y-9463293D01*
X5986991Y-9463293D02*
X5977467Y-9444246D01*
X5977467Y-9444246D02*
X5967943Y-9434722D01*
X5967943Y-9434722D02*
X5948896Y-9425198D01*
X6158420Y-9339484D02*
X6120324Y-9339484D01*
X6120324Y-9339484D02*
X6101277Y-9349008D01*
X6101277Y-9349008D02*
X6091753Y-9358531D01*
X6091753Y-9358531D02*
X6072705Y-9387103D01*
X6072705Y-9387103D02*
X6063182Y-9425198D01*
X6063182Y-9425198D02*
X6063182Y-9501389D01*
X6063182Y-9501389D02*
X6072705Y-9520436D01*
X6072705Y-9520436D02*
X6082229Y-9529960D01*
X6082229Y-9529960D02*
X6101277Y-9539484D01*
X6101277Y-9539484D02*
X6139372Y-9539484D01*
X6139372Y-9539484D02*
X6158420Y-9529960D01*
X6158420Y-9529960D02*
X6167943Y-9520436D01*
X6167943Y-9520436D02*
X6177467Y-9501389D01*
X6177467Y-9501389D02*
X6177467Y-9453770D01*
X6177467Y-9453770D02*
X6167943Y-9434722D01*
X6167943Y-9434722D02*
X6158420Y-9425198D01*
X6158420Y-9425198D02*
X6139372Y-9415674D01*
X6139372Y-9415674D02*
X6101277Y-9415674D01*
X6101277Y-9415674D02*
X6082229Y-9425198D01*
X6082229Y-9425198D02*
X6072705Y-9434722D01*
X6072705Y-9434722D02*
X6063182Y-9453770D01*
X6348896Y-9339484D02*
X6310801Y-9339484D01*
X6310801Y-9339484D02*
X6291753Y-9349008D01*
X6291753Y-9349008D02*
X6282229Y-9358531D01*
X6282229Y-9358531D02*
X6263182Y-9387103D01*
X6263182Y-9387103D02*
X6253658Y-9425198D01*
X6253658Y-9425198D02*
X6253658Y-9501389D01*
X6253658Y-9501389D02*
X6263182Y-9520436D01*
X6263182Y-9520436D02*
X6272705Y-9529960D01*
X6272705Y-9529960D02*
X6291753Y-9539484D01*
X6291753Y-9539484D02*
X6329848Y-9539484D01*
X6329848Y-9539484D02*
X6348896Y-9529960D01*
X6348896Y-9529960D02*
X6358420Y-9520436D01*
X6358420Y-9520436D02*
X6367943Y-9501389D01*
X6367943Y-9501389D02*
X6367943Y-9453770D01*
X6367943Y-9453770D02*
X6358420Y-9434722D01*
X6358420Y-9434722D02*
X6348896Y-9425198D01*
X6348896Y-9425198D02*
X6329848Y-9415674D01*
X6329848Y-9415674D02*
X6291753Y-9415674D01*
X6291753Y-9415674D02*
X6272705Y-9425198D01*
X6272705Y-9425198D02*
X6263182Y-9434722D01*
X6263182Y-9434722D02*
X6253658Y-9453770D01*
X6444134Y-9339484D02*
X6444134Y-9377579D01*
X6520324Y-9339484D02*
X6520324Y-9377579D01*
X6815563Y-9615674D02*
X6806039Y-9606150D01*
X6806039Y-9606150D02*
X6786991Y-9577579D01*
X6786991Y-9577579D02*
X6777467Y-9558531D01*
X6777467Y-9558531D02*
X6767944Y-9529960D01*
X6767944Y-9529960D02*
X6758420Y-9482341D01*
X6758420Y-9482341D02*
X6758420Y-9444246D01*
X6758420Y-9444246D02*
X6767944Y-9396627D01*
X6767944Y-9396627D02*
X6777467Y-9368055D01*
X6777467Y-9368055D02*
X6786991Y-9349008D01*
X6786991Y-9349008D02*
X6806039Y-9320436D01*
X6806039Y-9320436D02*
X6815563Y-9310912D01*
X6977467Y-9406150D02*
X6977467Y-9539484D01*
X6929848Y-9329960D02*
X6882229Y-9472817D01*
X6882229Y-9472817D02*
X7006039Y-9472817D01*
X7234610Y-9539484D02*
X7234610Y-9339484D01*
X7320325Y-9539484D02*
X7320325Y-9434722D01*
X7320325Y-9434722D02*
X7310801Y-9415674D01*
X7310801Y-9415674D02*
X7291753Y-9406150D01*
X7291753Y-9406150D02*
X7263182Y-9406150D01*
X7263182Y-9406150D02*
X7244134Y-9415674D01*
X7244134Y-9415674D02*
X7234610Y-9425198D01*
X7444134Y-9539484D02*
X7425086Y-9529960D01*
X7425086Y-9529960D02*
X7415563Y-9520436D01*
X7415563Y-9520436D02*
X7406039Y-9501389D01*
X7406039Y-9501389D02*
X7406039Y-9444246D01*
X7406039Y-9444246D02*
X7415563Y-9425198D01*
X7415563Y-9425198D02*
X7425086Y-9415674D01*
X7425086Y-9415674D02*
X7444134Y-9406150D01*
X7444134Y-9406150D02*
X7472706Y-9406150D01*
X7472706Y-9406150D02*
X7491753Y-9415674D01*
X7491753Y-9415674D02*
X7501277Y-9425198D01*
X7501277Y-9425198D02*
X7510801Y-9444246D01*
X7510801Y-9444246D02*
X7510801Y-9501389D01*
X7510801Y-9501389D02*
X7501277Y-9520436D01*
X7501277Y-9520436D02*
X7491753Y-9529960D01*
X7491753Y-9529960D02*
X7472706Y-9539484D01*
X7472706Y-9539484D02*
X7444134Y-9539484D01*
X7625086Y-9539484D02*
X7606039Y-9529960D01*
X7606039Y-9529960D02*
X7596515Y-9510912D01*
X7596515Y-9510912D02*
X7596515Y-9339484D01*
X7777467Y-9529960D02*
X7758420Y-9539484D01*
X7758420Y-9539484D02*
X7720325Y-9539484D01*
X7720325Y-9539484D02*
X7701277Y-9529960D01*
X7701277Y-9529960D02*
X7691753Y-9510912D01*
X7691753Y-9510912D02*
X7691753Y-9434722D01*
X7691753Y-9434722D02*
X7701277Y-9415674D01*
X7701277Y-9415674D02*
X7720325Y-9406150D01*
X7720325Y-9406150D02*
X7758420Y-9406150D01*
X7758420Y-9406150D02*
X7777467Y-9415674D01*
X7777467Y-9415674D02*
X7786991Y-9434722D01*
X7786991Y-9434722D02*
X7786991Y-9453770D01*
X7786991Y-9453770D02*
X7691753Y-9472817D01*
X7863182Y-9529960D02*
X7882229Y-9539484D01*
X7882229Y-9539484D02*
X7920325Y-9539484D01*
X7920325Y-9539484D02*
X7939372Y-9529960D01*
X7939372Y-9529960D02*
X7948896Y-9510912D01*
X7948896Y-9510912D02*
X7948896Y-9501389D01*
X7948896Y-9501389D02*
X7939372Y-9482341D01*
X7939372Y-9482341D02*
X7920325Y-9472817D01*
X7920325Y-9472817D02*
X7891753Y-9472817D01*
X7891753Y-9472817D02*
X7872706Y-9463293D01*
X7872706Y-9463293D02*
X7863182Y-9444246D01*
X7863182Y-9444246D02*
X7863182Y-9434722D01*
X7863182Y-9434722D02*
X7872706Y-9415674D01*
X7872706Y-9415674D02*
X7891753Y-9406150D01*
X7891753Y-9406150D02*
X7920325Y-9406150D01*
X7920325Y-9406150D02*
X7939372Y-9415674D01*
X8015563Y-9615674D02*
X8025087Y-9606150D01*
X8025087Y-9606150D02*
X8044134Y-9577579D01*
X8044134Y-9577579D02*
X8053658Y-9558531D01*
X8053658Y-9558531D02*
X8063182Y-9529960D01*
X8063182Y-9529960D02*
X8072706Y-9482341D01*
X8072706Y-9482341D02*
X8072706Y-9444246D01*
X8072706Y-9444246D02*
X8063182Y-9396627D01*
X8063182Y-9396627D02*
X8053658Y-9368055D01*
X8053658Y-9368055D02*
X8044134Y-9349008D01*
X8044134Y-9349008D02*
X8025087Y-9320436D01*
X8025087Y-9320436D02*
X8015563Y-9310912D01*
M02*
