%TF.GenerationSoftware,KiCad,Pcbnew,8.0.2*%
%TF.CreationDate,2024-05-03T20:10:49+08:00*%
%TF.ProjectId,bldcDriver,626c6463-4472-4697-9665-722e6b696361,rev?*%
%TF.SameCoordinates,Original*%
%TF.FileFunction,Copper,L3,Inr*%
%TF.FilePolarity,Positive*%
%FSLAX46Y46*%
G04 Gerber Fmt 4.6, Leading zero omitted, Abs format (unit mm)*
G04 Created by KiCad (PCBNEW 8.0.2) date 2024-05-03 20:10:49*
%MOMM*%
%LPD*%
G01*
G04 APERTURE LIST*
%TA.AperFunction,ComponentPad*%
%ADD10R,1.700000X1.700000*%
%TD*%
%TA.AperFunction,ComponentPad*%
%ADD11O,1.700000X1.700000*%
%TD*%
%TA.AperFunction,ComponentPad*%
%ADD12C,2.500000*%
%TD*%
%TA.AperFunction,ComponentPad*%
%ADD13C,4.400000*%
%TD*%
%TA.AperFunction,ComponentPad*%
%ADD14C,0.600000*%
%TD*%
%TA.AperFunction,ViaPad*%
%ADD15C,1.200000*%
%TD*%
%TA.AperFunction,ViaPad*%
%ADD16C,0.500000*%
%TD*%
%TA.AperFunction,ViaPad*%
%ADD17C,0.900000*%
%TD*%
%TA.AperFunction,ViaPad*%
%ADD18C,0.700000*%
%TD*%
%TA.AperFunction,ViaPad*%
%ADD19C,0.600000*%
%TD*%
%TA.AperFunction,Conductor*%
%ADD20C,0.600000*%
%TD*%
%TA.AperFunction,Conductor*%
%ADD21C,0.250000*%
%TD*%
%TA.AperFunction,Conductor*%
%ADD22C,0.300000*%
%TD*%
%TA.AperFunction,Conductor*%
%ADD23C,0.400000*%
%TD*%
G04 APERTURE END LIST*
D10*
%TO.N,+3V3*%
%TO.C,J2*%
X83950000Y-70600000D03*
D11*
%TO.N,GNDD*%
X81410000Y-70600000D03*
%TO.N,/USART3_TX*%
X78870000Y-70600000D03*
%TO.N,/USART3_RX*%
X76330000Y-70600000D03*
%TO.N,/SWDIO*%
X73790000Y-70600000D03*
%TO.N,/SWCLK*%
X71250000Y-70600000D03*
%TD*%
D12*
%TO.N,GNDPWR*%
%TO.C,J1*%
X59900000Y-48300000D03*
%TO.N,+BATT*%
X55900000Y-48300000D03*
%TD*%
D13*
%TO.N,N/C*%
%TO.C,*%
X34960000Y-33240000D03*
%TD*%
%TO.N,N/C*%
%TO.C,*%
X119660000Y-33240000D03*
%TD*%
%TO.N,N/C*%
%TO.C,*%
X119660000Y-69640000D03*
%TD*%
%TO.N,N/C*%
%TO.C,*%
X34960000Y-69640000D03*
%TD*%
D14*
%TO.N,GNDPWR*%
%TO.C,U3*%
X58190000Y-42700000D03*
X58190000Y-41600000D03*
X58190000Y-40300000D03*
X58190000Y-39100000D03*
X56990000Y-42700000D03*
X56990000Y-41600000D03*
X56990000Y-40300000D03*
X56990000Y-39100000D03*
%TD*%
D15*
%TO.N,GNDPWR*%
X35200000Y-61600000D03*
X35400000Y-52900000D03*
X35400000Y-49800000D03*
%TO.N,/inverter/2VS2*%
X118520000Y-60690000D03*
%TO.N,/inverter/1VS3*%
X37386500Y-59843500D03*
%TO.N,/inverter/1VS1*%
X37366500Y-56315339D03*
D16*
%TO.N,/OP_VCC*%
X72100000Y-51090000D03*
%TO.N,/inverter/2LO2*%
X109692500Y-60540000D03*
%TO.N,/inverter/2HO2*%
X114346250Y-59846250D03*
%TO.N,/inverter/1VS1*%
X46100000Y-51700000D03*
X44900000Y-51800000D03*
X45500000Y-51300000D03*
X46000000Y-50900000D03*
X45100000Y-50900000D03*
X47629789Y-53635326D03*
%TO.N,/MPU_INT*%
X80500000Y-40462500D03*
D17*
%TO.N,+3V3*%
X82900000Y-43800000D03*
D16*
%TO.N,/inverter/1VS2*%
X45250000Y-58890000D03*
D18*
%TO.N,GNDD*%
X67830760Y-51130760D03*
X73300000Y-49625000D03*
X79625000Y-51066423D03*
X77891293Y-51210000D03*
D16*
%TO.N,/I2C1_SCL*%
X92000000Y-43025000D03*
%TO.N,Net-(U4-VDD)*%
X92975000Y-44175000D03*
X96200000Y-38791116D03*
X94774170Y-36705420D03*
%TO.N,/MPU_INT*%
X94138750Y-34038750D03*
D15*
%TO.N,GNDPWR*%
X65400000Y-42400000D03*
D18*
%TO.N,+3V3*%
X75700000Y-48700000D03*
D16*
%TO.N,/SPI3_SCK*%
X37140000Y-41780000D03*
%TO.N,/SPI3_MISO*%
X38100000Y-42780000D03*
D17*
%TO.N,GNDD*%
X75300000Y-43800000D03*
D16*
%TO.N,/I2C1_SDA*%
X89900000Y-42700000D03*
%TO.N,/NSS1*%
X72859950Y-44545347D03*
%TO.N,/SPI3_MOSI*%
X72932753Y-43849141D03*
%TO.N,/I2C1_SDA*%
X71948589Y-42725000D03*
%TO.N,/I2C1_SCL*%
X72876718Y-46800000D03*
%TO.N,/SPI3_SCK*%
X72534906Y-46077181D03*
%TO.N,/SPI3_MISO*%
X72433623Y-45365291D03*
%TO.N,/NSS1*%
X67600000Y-44560479D03*
%TO.N,/SPI3_MOSI*%
X68100000Y-43849141D03*
%TO.N,/ADC1_IN11*%
X80025000Y-48235000D03*
%TO.N,/ADC1_IN5*%
X79073584Y-48235000D03*
%TO.N,/ADC2_IN15*%
X78238509Y-48235000D03*
%TO.N,/inverter/1HO2*%
X41400000Y-61500000D03*
%TO.N,/inverter/1HO1*%
X40000000Y-55940000D03*
%TO.N,/1CS2+*%
X50700000Y-54100000D03*
%TO.N,/1CS2-*%
X52400000Y-54675000D03*
%TO.N,/inverter/1LO3*%
X45600000Y-70900000D03*
D17*
%TO.N,+3V3*%
X85500000Y-37700000D03*
D16*
%TO.N,/VREF_OP2*%
X71297500Y-54150000D03*
%TO.N,/OP_VCC*%
X78732500Y-55267500D03*
D19*
%TO.N,/VREF_OP1*%
X77261250Y-52761250D03*
D18*
%TO.N,+3V3*%
X83773606Y-53436126D03*
D16*
%TO.N,/inverter/2LO1*%
X110000000Y-66071476D03*
%TO.N,/inverter/2VS1*%
X104892500Y-63807976D03*
%TO.N,/inverter/2HO2*%
X103739111Y-62652167D03*
%TO.N,/inverter/2VS2*%
X106369904Y-60869904D03*
%TO.N,/inverter/2LO1*%
X103504408Y-59581218D03*
%TO.N,/inverter/2LO2*%
X97353500Y-59546500D03*
%TO.N,/TIM1_CH2*%
X97000000Y-62814500D03*
X97000000Y-64728500D03*
%TO.N,/inverter/2LO3*%
X109500000Y-52991476D03*
X96778500Y-60178500D03*
%TO.N,GNDD*%
X92350000Y-36127043D03*
D19*
X93624999Y-36458993D03*
X95800000Y-40075000D03*
X89700000Y-39900000D03*
D16*
%TO.N,/USART2_RX*%
X90800000Y-41275000D03*
%TO.N,/USART2_TX*%
X78913832Y-39767539D03*
%TO.N,/SWDIO*%
X74256250Y-47456250D03*
%TO.N,/SWCLK*%
X73800000Y-46900000D03*
%TO.N,/USART3_RX*%
X80600000Y-46935000D03*
%TO.N,/USART3_TX*%
X81600000Y-45725000D03*
%TO.N,/ADC2_IN12*%
X81376514Y-44075000D03*
X86700000Y-59600000D03*
%TO.N,/ADC1_IN5*%
X74700000Y-60200000D03*
%TO.N,/ADC1_IN11*%
X78800000Y-59600000D03*
%TO.N,/2CS2+*%
X89500000Y-55600000D03*
%TO.N,/2CS2-*%
X90900000Y-57000000D03*
X83375000Y-66100000D03*
%TO.N,/2CS2+*%
X79000000Y-63187500D03*
%TO.N,/VREF_OP2*%
X78900000Y-66000000D03*
%TO.N,/VREF_OP1*%
X76700000Y-64700000D03*
%TO.N,/ADC2_IN15*%
X64137500Y-59100000D03*
%TO.N,/inverter/1LO3*%
X58400000Y-63200000D03*
%TO.N,/TIM8_CH2*%
X58071000Y-60603500D03*
X58071000Y-58671500D03*
%TO.N,/inverter/1LO2*%
X57900000Y-64141421D03*
X45288750Y-61811250D03*
%TO.N,/1CS2-*%
X59674785Y-59274785D03*
%TO.N,/1CS2+*%
X60370404Y-58408956D03*
%TO.N,/inverter/1HO3*%
X41500000Y-68900000D03*
X50729535Y-62629498D03*
%TO.N,/inverter/1HO2*%
X51438709Y-60600000D03*
%TO.N,/inverter/1HO1*%
X51717172Y-58635499D03*
%TO.N,/inverter/1VS2*%
X45250000Y-58890000D03*
D15*
%TO.N,/inverter/1VS3*%
X45100000Y-66700000D03*
%TO.N,/inverter/2VS1*%
X109700000Y-70500000D03*
%TO.N,/inverter/2VS3*%
X109700000Y-55200000D03*
%TO.N,/inverter/2VS2*%
X109900000Y-62700000D03*
%TO.N,/inverter/2VS1*%
X116990000Y-62400000D03*
%TO.N,/inverter/2VS3*%
X117040000Y-58950000D03*
D19*
%TO.N,+3V3*%
X83950000Y-54560000D03*
D17*
X82637500Y-47300000D03*
%TO.N,GNDD*%
X75500000Y-45400000D03*
X78600000Y-44100000D03*
X77000000Y-44000000D03*
X38100000Y-38700000D03*
X85500000Y-65600000D03*
X84900000Y-58700000D03*
X78839492Y-58439492D03*
X71100000Y-65400000D03*
X70900000Y-61300000D03*
X66100000Y-58700000D03*
X67000000Y-56200000D03*
X67900000Y-57900000D03*
X71286771Y-57152979D03*
X75675000Y-55600000D03*
X82286019Y-52550000D03*
X85500000Y-45525000D03*
X85400000Y-44700000D03*
X117300000Y-39700000D03*
X95200000Y-44400000D03*
X97400000Y-36300000D03*
X92400000Y-33600000D03*
X66100000Y-31800000D03*
X78500000Y-35900000D03*
X74495573Y-39375000D03*
X69300000Y-40400000D03*
X69000000Y-38600000D03*
D16*
%TO.N,/inverter/1VS2*%
X49900000Y-60625000D03*
D15*
%TO.N,GNDPWR*%
X47300000Y-42100000D03*
X48275000Y-58600000D03*
X48275000Y-59750000D03*
X61600000Y-63900000D03*
X93700000Y-58800000D03*
X104600000Y-56125000D03*
X104294863Y-55083967D03*
X106604074Y-63195926D03*
X106450093Y-62103727D03*
X101800000Y-71100000D03*
X104400000Y-70600000D03*
X120351847Y-64221760D03*
X121299999Y-64203502D03*
X120258274Y-57203498D03*
X121400000Y-57203498D03*
X120937500Y-54300000D03*
X120100000Y-51100000D03*
X121635841Y-51200000D03*
X61900000Y-31921000D03*
X58819443Y-31466005D03*
X45500000Y-35500000D03*
X47800000Y-37100000D03*
X50200000Y-37100000D03*
X52300000Y-36900000D03*
X33500000Y-66700000D03*
X34900000Y-64100000D03*
X50600000Y-66700000D03*
X50600000Y-65700000D03*
X50800000Y-51700000D03*
X50800000Y-50700000D03*
D16*
%TO.N,+BATT*%
X41000000Y-50700000D03*
X41600000Y-50700000D03*
X41600000Y-51900000D03*
X41000000Y-51900000D03*
X41600000Y-51300000D03*
X41000000Y-51300000D03*
X40800000Y-58900000D03*
X41400000Y-58900000D03*
X40800000Y-59500000D03*
X41400000Y-59500000D03*
X40800000Y-58300000D03*
X41400000Y-58300000D03*
X41300000Y-66300000D03*
X40700000Y-65700000D03*
X41300000Y-65700000D03*
X40700000Y-66900000D03*
X41300000Y-66900000D03*
X40700000Y-66300000D03*
X114000000Y-55500000D03*
X114000000Y-56100000D03*
X113400000Y-55500000D03*
X113400000Y-56100000D03*
X113400000Y-54900000D03*
X114000000Y-54900000D03*
X113800000Y-62200000D03*
X113200000Y-63400000D03*
X113800000Y-63400000D03*
X113200000Y-62200000D03*
X113200000Y-62800000D03*
X113800000Y-62800000D03*
X113400000Y-70300000D03*
X113400000Y-70900000D03*
X114000000Y-70900000D03*
X114000000Y-70300000D03*
X113400000Y-69700000D03*
X114000000Y-69700000D03*
D15*
X97300000Y-53500000D03*
X99700000Y-53600000D03*
X99700000Y-70500000D03*
X117237500Y-66400000D03*
X117537500Y-64400000D03*
X118200000Y-57200000D03*
X117962500Y-54700000D03*
X118100000Y-51200000D03*
X55900000Y-52000000D03*
X56137438Y-68137437D03*
X58300000Y-67900000D03*
X48800000Y-39400000D03*
X51100000Y-39500000D03*
X52900000Y-39500000D03*
D16*
%TO.N,/inverter/1VS3*%
X49800000Y-63500000D03*
%TD*%
D20*
%TO.N,/inverter/1VS3*%
X44243000Y-66700000D02*
X37386500Y-59843500D01*
X45100000Y-66700000D02*
X44243000Y-66700000D01*
%TO.N,/inverter/1VS1*%
X46000000Y-50900000D02*
X44000000Y-52900000D01*
X40781839Y-52900000D02*
X37366500Y-56315339D01*
X44000000Y-52900000D02*
X40781839Y-52900000D01*
%TO.N,/inverter/2VS1*%
X116990000Y-62400000D02*
X116990000Y-63210000D01*
X116990000Y-63210000D02*
X109700000Y-70500000D01*
%TO.N,/inverter/1VS1*%
X37366501Y-56315339D02*
X37366500Y-56315339D01*
D21*
%TO.N,/inverter/1HO1*%
X40000000Y-55940000D02*
X40040000Y-55900000D01*
X40040000Y-55900000D02*
X48987586Y-55900000D01*
X48987586Y-55900000D02*
X50293793Y-57206207D01*
%TO.N,/2CS2-*%
X83375000Y-66100000D02*
X83375000Y-64525000D01*
X83375000Y-64525000D02*
X90900000Y-57000000D01*
D22*
%TO.N,/OP_VCC*%
X78732500Y-55267500D02*
X74555000Y-51090000D01*
X74555000Y-51090000D02*
X72100000Y-51090000D01*
D21*
%TO.N,/inverter/2LO2*%
X109692500Y-60411476D02*
X108206024Y-58925000D01*
X109692500Y-60540000D02*
X109692500Y-60411476D01*
X108206024Y-58925000D02*
X97975000Y-58925000D01*
X97975000Y-58925000D02*
X97353500Y-59546500D01*
D20*
%TO.N,/inverter/1VS1*%
X46000000Y-51800000D02*
X46000000Y-52100000D01*
X46100000Y-51700000D02*
X46000000Y-51800000D01*
X46000000Y-51600000D02*
X46100000Y-51700000D01*
X44900000Y-51800000D02*
X44800000Y-51800000D01*
X44900000Y-51700000D02*
X44900000Y-51800000D01*
X45300000Y-51300000D02*
X44900000Y-51700000D01*
X45500000Y-51300000D02*
X45300000Y-51300000D01*
X45500000Y-51100000D02*
X45500000Y-51300000D01*
X46000000Y-50900000D02*
X46000000Y-51400000D01*
X45100000Y-50900000D02*
X45200000Y-50800000D01*
D22*
X47629789Y-53634829D02*
X47629789Y-53635326D01*
X47628782Y-53633822D02*
X47629789Y-53634829D01*
D21*
%TO.N,/MPU_INT*%
X86728984Y-40462500D02*
X80500000Y-40462500D01*
%TO.N,/inverter/1VS2*%
X45290000Y-58890000D02*
X46200000Y-59800000D01*
D22*
X49825000Y-60700000D02*
X49900000Y-60625000D01*
X47100000Y-60700000D02*
X49825000Y-60700000D01*
X45250000Y-58890000D02*
X45290000Y-58890000D01*
X45290000Y-58890000D02*
X47100000Y-60700000D01*
D21*
%TO.N,/inverter/1HO2*%
X50838709Y-61200000D02*
X51438709Y-60600000D01*
X41700000Y-61200000D02*
X50838709Y-61200000D01*
X41400000Y-61500000D02*
X41700000Y-61200000D01*
%TO.N,Net-(U4-VDD)*%
X96108884Y-38791116D02*
X96200000Y-38791116D01*
X92975000Y-41925000D02*
X96108884Y-38791116D01*
X92975000Y-44175000D02*
X92975000Y-41925000D01*
%TO.N,/I2C1_SCL*%
X92000000Y-43075000D02*
X92000000Y-43025000D01*
X91687500Y-43387500D02*
X92000000Y-43075000D01*
X91687500Y-43387500D02*
X91787500Y-43287500D01*
X88775000Y-46300000D02*
X91687500Y-43387500D01*
X91825000Y-43250000D02*
X91787500Y-43287500D01*
%TO.N,Net-(U4-VDD)*%
X96200000Y-38012500D02*
X96200000Y-38791116D01*
X94774170Y-36705420D02*
X94892920Y-36705420D01*
X94892920Y-36705420D02*
X96200000Y-38012500D01*
%TO.N,/MPU_INT*%
X93765000Y-34412500D02*
X94138750Y-34038750D01*
X92778984Y-34412500D02*
X86728984Y-40462500D01*
X93765000Y-34412500D02*
X92778984Y-34412500D01*
%TO.N,/2CS2+*%
X89500000Y-55600000D02*
X81912500Y-63187500D01*
X81912500Y-63187500D02*
X79000000Y-63187500D01*
D23*
%TO.N,+3V3*%
X75700000Y-48062500D02*
X75700000Y-48700000D01*
X75881250Y-47881250D02*
X75700000Y-48062500D01*
X76177500Y-47585000D02*
X75881250Y-47881250D01*
D21*
%TO.N,/SPI3_SCK*%
X37100000Y-44229569D02*
X37100000Y-41820000D01*
%TO.N,/SPI3_MISO*%
X38100000Y-43740000D02*
X38100000Y-42780000D01*
X39660000Y-45300000D02*
X38100000Y-43740000D01*
X72368332Y-45300000D02*
X39660000Y-45300000D01*
X72433623Y-45365291D02*
X72368332Y-45300000D01*
%TO.N,/I2C1_SDA*%
X89425000Y-42225000D02*
X89900000Y-42700000D01*
X72448589Y-42225000D02*
X89425000Y-42225000D01*
X71948589Y-42725000D02*
X72448589Y-42225000D01*
%TO.N,/NSS1*%
X72993830Y-44545347D02*
X73024445Y-44575962D01*
X67615132Y-44545347D02*
X72993830Y-44545347D01*
X67600000Y-44560479D02*
X67615132Y-44545347D01*
%TO.N,/SPI3_SCK*%
X38870431Y-46000000D02*
X37100000Y-44229569D01*
X72457725Y-46000000D02*
X38870431Y-46000000D01*
X72534906Y-46077181D02*
X72457725Y-46000000D01*
X37100000Y-41820000D02*
X37140000Y-41780000D01*
X72534906Y-46051246D02*
X72686152Y-45900000D01*
X72534906Y-46077181D02*
X72534906Y-46051246D01*
%TO.N,/I2C1_SCL*%
X73376718Y-46300000D02*
X88775000Y-46300000D01*
X72876718Y-46800000D02*
X73376718Y-46300000D01*
%TO.N,/SPI3_MOSI*%
X68100000Y-43849141D02*
X72932753Y-43849141D01*
%TO.N,/NSS1*%
X67600000Y-44560479D02*
X68404943Y-44560479D01*
%TO.N,/ADC1_IN11*%
X80300000Y-48510000D02*
X80025000Y-48235000D01*
X80300000Y-50100000D02*
X80300000Y-48510000D01*
X80300000Y-50100000D02*
X80300000Y-52416116D01*
%TO.N,/1CS2-*%
X52400000Y-54675000D02*
X51822500Y-54675000D01*
X55075000Y-54675000D02*
X52400000Y-54675000D01*
D22*
%TO.N,/inverter/1LO3*%
X45600000Y-70900000D02*
X44952500Y-70900000D01*
X52031371Y-70900000D02*
X45600000Y-70900000D01*
D21*
%TO.N,/VREF_OP2*%
X71447500Y-54352500D02*
X71297500Y-54202500D01*
X71297500Y-54202500D02*
X71297500Y-54150000D01*
X73650000Y-56555000D02*
X71447500Y-54352500D01*
D22*
%TO.N,/OP_VCC*%
X78732500Y-55267500D02*
X79225000Y-55760000D01*
D23*
%TO.N,+3V3*%
X83909732Y-53300000D02*
X83773606Y-53436126D01*
X83909732Y-48572232D02*
X83909732Y-53300000D01*
D21*
%TO.N,/inverter/2VS1*%
X104892500Y-65192500D02*
X109700000Y-70000000D01*
X109700000Y-70000000D02*
X109700000Y-70500000D01*
X104892500Y-63807976D02*
X104892500Y-65192500D01*
%TO.N,/inverter/2LO1*%
X108171476Y-66071476D02*
X110000000Y-66071476D01*
X103500000Y-60000000D02*
X103500000Y-61400000D01*
X103500000Y-61400000D02*
X108171476Y-66071476D01*
%TO.N,/inverter/2VS2*%
X106700000Y-61200000D02*
X106369904Y-60869904D01*
%TO.N,/inverter/2LO1*%
X103500000Y-59585626D02*
X103504408Y-59581218D01*
X103500000Y-60000000D02*
X103500000Y-59585626D01*
X103500000Y-60000000D02*
X103500000Y-59500000D01*
%TO.N,/ADC1_IN11*%
X78800000Y-59575000D02*
X78800000Y-59600000D01*
X81425000Y-56950000D02*
X78800000Y-59575000D01*
X81425000Y-53541116D02*
X81425000Y-56950000D01*
X80300000Y-52416116D02*
X81425000Y-53541116D01*
%TO.N,/TIM1_CH2*%
X97000000Y-63000000D02*
X97000000Y-62867500D01*
X97000000Y-64728500D02*
X97000000Y-63000000D01*
X97000000Y-63000000D02*
X97000000Y-62814500D01*
%TO.N,/inverter/2LO3*%
X96778500Y-60046000D02*
X96778500Y-59237616D01*
X96778500Y-59237616D02*
X103024640Y-52991476D01*
X96929000Y-60196500D02*
X96778500Y-60046000D01*
X103024640Y-52991476D02*
X109500000Y-52991476D01*
X109500000Y-52991476D02*
X110052500Y-52991476D01*
%TO.N,/ADC1_IN5*%
X75668884Y-60200000D02*
X74700000Y-60200000D01*
%TO.N,/ADC1_IN11*%
X78775000Y-59600000D02*
X78800000Y-59600000D01*
%TO.N,/ADC2_IN15*%
X64137500Y-55778616D02*
X64137500Y-59100000D01*
D22*
%TO.N,/inverter/1LO3*%
X58500000Y-64431372D02*
X58265686Y-64665686D01*
X58500000Y-63300000D02*
X58500000Y-64431372D01*
D21*
%TO.N,/TIM8_CH2*%
X58071000Y-59200000D02*
X58071000Y-58671500D01*
X58071000Y-59200000D02*
X58071000Y-60603500D01*
X58071000Y-58653500D02*
X58071000Y-59200000D01*
D22*
%TO.N,/inverter/1LO2*%
X55569829Y-61811250D02*
X45288750Y-61811250D01*
X57900000Y-64141421D02*
X55569829Y-61811250D01*
D21*
%TO.N,/inverter/1HO3*%
X45271751Y-68900000D02*
X41500000Y-68900000D01*
X50729535Y-62629498D02*
X50729535Y-63442216D01*
X41500000Y-68900000D02*
X40890000Y-68900000D01*
X45413173Y-68900000D02*
X41500000Y-68900000D01*
X50729535Y-63442216D02*
X45271751Y-68900000D01*
%TO.N,/inverter/1HO1*%
X50293793Y-57206207D02*
X51717172Y-58629586D01*
X51717172Y-58629586D02*
X51717172Y-58635499D01*
X51741087Y-58653500D02*
X50293793Y-57206207D01*
D20*
%TO.N,/inverter/1VS3*%
X45100000Y-66653162D02*
X45100000Y-66700000D01*
%TO.N,/inverter/2VS3*%
X113450000Y-58950000D02*
X109700000Y-55200000D01*
X117040000Y-58950000D02*
X113450000Y-58950000D01*
D21*
%TO.N,/inverter/2VS2*%
X108400000Y-61200000D02*
X109900000Y-62700000D01*
X106700000Y-61200000D02*
X108400000Y-61200000D01*
D20*
X111910000Y-60690000D02*
X109900000Y-62700000D01*
X118520000Y-60690000D02*
X111910000Y-60690000D01*
D23*
%TO.N,+3V3*%
X82637500Y-47300000D02*
X82352500Y-47585000D01*
X82637500Y-47300000D02*
X83909732Y-48572232D01*
X82352500Y-47585000D02*
X76177500Y-47585000D01*
D21*
%TO.N,/TIM1_CH2*%
X97000000Y-62867500D02*
X96929000Y-62796500D01*
%TO.N,/ADC1_IN5*%
X79850000Y-52246016D02*
X79850000Y-56018884D01*
X78525000Y-49675000D02*
X78525000Y-50921016D01*
X78475000Y-48833584D02*
X78475000Y-50871016D01*
X78475000Y-50871016D02*
X78851992Y-51248008D01*
X78525000Y-50921016D02*
X78851992Y-51248008D01*
X79073584Y-48235000D02*
X78475000Y-48833584D01*
X79850000Y-56018884D02*
X75668884Y-60200000D01*
X78851992Y-51248008D02*
X79850000Y-52246016D01*
D20*
%TO.N,/inverter/1VS1*%
X45500000Y-51100000D02*
X45500000Y-51100000D01*
X45200000Y-50800000D02*
X45000000Y-50600000D01*
D22*
X47628782Y-53633822D02*
X47628782Y-53028782D01*
D20*
X46000000Y-50600000D02*
X45000000Y-50600000D01*
X45000000Y-52100000D02*
X45000000Y-51000000D01*
X37366500Y-56315339D02*
X37366500Y-56343500D01*
X46000000Y-51400000D02*
X46000000Y-51600000D01*
X45000000Y-51000000D02*
X45100000Y-50900000D01*
D22*
X47628782Y-53028782D02*
X46000000Y-51400000D01*
D20*
X46000000Y-52100000D02*
X45000000Y-52100000D01*
X46000000Y-50600000D02*
X46000000Y-50900000D01*
%TO.N,/inverter/1VS3*%
X44600000Y-67200000D02*
X45100000Y-67200000D01*
X45100000Y-66700000D02*
X45550000Y-66700000D01*
X45100000Y-67200000D02*
X45529289Y-67200000D01*
X44600000Y-65700000D02*
X44600000Y-67200000D01*
D22*
X48800000Y-63500000D02*
X45600000Y-66700000D01*
D20*
X45100000Y-66200000D02*
X45550000Y-66200000D01*
X45100000Y-66200000D02*
X45100000Y-66700000D01*
X45100000Y-65700000D02*
X45600000Y-65700000D01*
X45100000Y-65700000D02*
X45100000Y-66700000D01*
X45100000Y-66200000D02*
X44646839Y-66200000D01*
D21*
%TO.N,/inverter/1HO1*%
X52329000Y-58653500D02*
X51741087Y-58653500D01*
%TO.N,/inverter/1HO2*%
X51480632Y-60641923D02*
X51438709Y-60600000D01*
%TO.N,/inverter/1HO3*%
X50575000Y-63738173D02*
X45413173Y-68900000D01*
X50645103Y-62629498D02*
X50575000Y-62699601D01*
D22*
%TO.N,/inverter/1LO3*%
X58500000Y-64431371D02*
X52031371Y-70900000D01*
X58400000Y-63200000D02*
X58500000Y-63300000D01*
X58500000Y-63300000D02*
X58500000Y-64431371D01*
D21*
%TO.N,/ADC2_IN15*%
X76148664Y-50300000D02*
X69616116Y-50300000D01*
X69616116Y-50300000D02*
X64137500Y-55778616D01*
X78238509Y-48235000D02*
X78213664Y-48235000D01*
X78213664Y-48235000D02*
X76148664Y-50300000D01*
%TO.N,/1CS2+*%
X60370404Y-58408956D02*
X56061448Y-54100000D01*
X50507500Y-54100000D02*
X50097500Y-54510000D01*
X50700000Y-54100000D02*
X50507500Y-54100000D01*
X56061448Y-54100000D02*
X50700000Y-54100000D01*
%TO.N,/1CS2-*%
X59674785Y-59274785D02*
X55075000Y-54675000D01*
%TO.N,/VREF_OP2*%
X73650000Y-60750000D02*
X73650000Y-56555000D01*
X78900000Y-66000000D02*
X73650000Y-60750000D01*
D22*
%TO.N,/inverter/1VS3*%
X50000000Y-63500000D02*
X49800000Y-63500000D01*
X49800000Y-63500000D02*
X48800000Y-63500000D01*
%TD*%
%TA.AperFunction,Conductor*%
%TO.N,+BATT*%
G36*
X116115792Y-61510185D02*
G01*
X116161547Y-61562989D01*
X116171491Y-61632147D01*
X116147707Y-61689227D01*
X116050327Y-61818178D01*
X115959422Y-62000739D01*
X115959417Y-62000752D01*
X115903602Y-62196917D01*
X115884785Y-62399999D01*
X115884785Y-62400000D01*
X115903602Y-62603082D01*
X115959417Y-62799247D01*
X115959422Y-62799260D01*
X116022450Y-62925836D01*
X116034711Y-62994622D01*
X116007838Y-63059117D01*
X115999131Y-63068789D01*
X109913937Y-69153984D01*
X109852614Y-69187469D01*
X109782922Y-69182485D01*
X109738575Y-69153984D01*
X105554319Y-64969728D01*
X105520834Y-64908405D01*
X105518000Y-64882047D01*
X105518000Y-64601952D01*
X105537685Y-64534913D01*
X105590489Y-64489158D01*
X105659647Y-64479214D01*
X105723203Y-64508239D01*
X105729681Y-64514271D01*
X107772739Y-66557331D01*
X107772743Y-66557334D01*
X107875186Y-66625785D01*
X107875187Y-66625785D01*
X107875191Y-66625788D01*
X107941872Y-66653407D01*
X107941874Y-66653409D01*
X107971605Y-66665723D01*
X107989024Y-66672939D01*
X108109870Y-66696976D01*
X108233083Y-66696976D01*
X109549124Y-66696976D01*
X109615095Y-66715981D01*
X109672310Y-66751932D01*
X109793621Y-66794380D01*
X109831943Y-66807790D01*
X109999997Y-66826725D01*
X110000000Y-66826725D01*
X110000003Y-66826725D01*
X110168056Y-66807790D01*
X110168059Y-66807789D01*
X110327690Y-66751932D01*
X110327692Y-66751930D01*
X110327694Y-66751930D01*
X110327697Y-66751928D01*
X110470884Y-66661957D01*
X110470885Y-66661956D01*
X110470890Y-66661953D01*
X110590477Y-66542366D01*
X110594008Y-66536747D01*
X110680452Y-66399173D01*
X110680454Y-66399170D01*
X110680454Y-66399168D01*
X110680456Y-66399166D01*
X110736313Y-66239535D01*
X110736313Y-66239534D01*
X110736314Y-66239532D01*
X110755249Y-66071478D01*
X110755249Y-66071473D01*
X110736314Y-65903419D01*
X110680454Y-65743781D01*
X110680452Y-65743778D01*
X110590481Y-65600591D01*
X110590476Y-65600585D01*
X110470890Y-65480999D01*
X110470884Y-65480994D01*
X110327697Y-65391023D01*
X110327694Y-65391021D01*
X110168056Y-65335161D01*
X110000003Y-65316227D01*
X109999997Y-65316227D01*
X109831943Y-65335161D01*
X109672307Y-65391021D01*
X109615096Y-65426970D01*
X109549124Y-65445976D01*
X108481929Y-65445976D01*
X108414890Y-65426291D01*
X108394248Y-65409657D01*
X107252586Y-64267995D01*
X107219101Y-64206672D01*
X107224085Y-64136980D01*
X107265554Y-64081349D01*
X107270102Y-64077914D01*
X107270115Y-64077907D01*
X107335087Y-64018677D01*
X107420836Y-63940507D01*
X107433443Y-63923813D01*
X107543747Y-63777747D01*
X107634656Y-63595176D01*
X107690471Y-63399009D01*
X107709289Y-63195926D01*
X107708508Y-63187502D01*
X107690471Y-62992843D01*
X107680326Y-62957188D01*
X107634656Y-62796676D01*
X107617192Y-62761604D01*
X107585495Y-62697946D01*
X107543747Y-62614105D01*
X107512179Y-62572302D01*
X107487487Y-62506940D01*
X107491867Y-62463640D01*
X107495411Y-62451187D01*
X107536490Y-62306810D01*
X107555308Y-62103727D01*
X107542077Y-61960940D01*
X107555492Y-61892372D01*
X107603849Y-61841940D01*
X107665548Y-61825500D01*
X108089548Y-61825500D01*
X108156587Y-61845185D01*
X108177229Y-61861819D01*
X108772333Y-62456924D01*
X108805818Y-62518247D01*
X108808123Y-62556045D01*
X108794785Y-62699998D01*
X108794785Y-62700000D01*
X108813602Y-62903082D01*
X108869417Y-63099247D01*
X108869422Y-63099260D01*
X108960327Y-63281821D01*
X109083237Y-63444581D01*
X109163970Y-63518178D01*
X109227424Y-63576024D01*
X109233958Y-63581980D01*
X109233960Y-63581982D01*
X109302901Y-63624668D01*
X109407363Y-63689348D01*
X109597544Y-63763024D01*
X109798024Y-63800500D01*
X109798026Y-63800500D01*
X110001974Y-63800500D01*
X110001976Y-63800500D01*
X110202456Y-63763024D01*
X110392637Y-63689348D01*
X110566041Y-63581981D01*
X110716764Y-63444579D01*
X110839673Y-63281821D01*
X110930582Y-63099250D01*
X110986397Y-62903083D01*
X110998340Y-62774186D01*
X111024126Y-62709249D01*
X111034122Y-62697954D01*
X112205259Y-61526819D01*
X112266582Y-61493334D01*
X112292940Y-61490500D01*
X116048753Y-61490500D01*
X116115792Y-61510185D01*
G37*
%TD.AperFunction*%
%TA.AperFunction,Conductor*%
G36*
X57844424Y-30709685D02*
G01*
X57890179Y-30762489D01*
X57900123Y-30831647D01*
X57880853Y-30878108D01*
X57882789Y-30879307D01*
X57879772Y-30884178D01*
X57788865Y-31066744D01*
X57788860Y-31066757D01*
X57733045Y-31262922D01*
X57714228Y-31466004D01*
X57714228Y-31466005D01*
X57733045Y-31669087D01*
X57788860Y-31865252D01*
X57788865Y-31865265D01*
X57879770Y-32047826D01*
X58002680Y-32210586D01*
X58153401Y-32347985D01*
X58153403Y-32347987D01*
X58252584Y-32409397D01*
X58326806Y-32455353D01*
X58516987Y-32529029D01*
X58717467Y-32566505D01*
X58717469Y-32566505D01*
X58921417Y-32566505D01*
X58921419Y-32566505D01*
X59121899Y-32529029D01*
X59312080Y-32455353D01*
X59485484Y-32347986D01*
X59636207Y-32210584D01*
X59759116Y-32047826D01*
X59850025Y-31865255D01*
X59905840Y-31669088D01*
X59924658Y-31466005D01*
X59905840Y-31262922D01*
X59850025Y-31066755D01*
X59836214Y-31039019D01*
X59759113Y-30884178D01*
X59756097Y-30879307D01*
X59758373Y-30877897D01*
X59737825Y-30822958D01*
X59752615Y-30754671D01*
X59801976Y-30705221D01*
X59861501Y-30690000D01*
X61367797Y-30690000D01*
X61434836Y-30709685D01*
X61480591Y-30762489D01*
X61490535Y-30831647D01*
X61461510Y-30895203D01*
X61412592Y-30929626D01*
X61410783Y-30930327D01*
X61407364Y-30931651D01*
X61407357Y-30931655D01*
X61233960Y-31039017D01*
X61233958Y-31039019D01*
X61083237Y-31176418D01*
X60960327Y-31339178D01*
X60869422Y-31521739D01*
X60869417Y-31521752D01*
X60813602Y-31717917D01*
X60794785Y-31920999D01*
X60794785Y-31921000D01*
X60813602Y-32124082D01*
X60869417Y-32320247D01*
X60869422Y-32320260D01*
X60960327Y-32502821D01*
X61083237Y-32665581D01*
X61233958Y-32802980D01*
X61233960Y-32802982D01*
X61238615Y-32805864D01*
X61407363Y-32910348D01*
X61597544Y-32984024D01*
X61798024Y-33021500D01*
X61798026Y-33021500D01*
X62001974Y-33021500D01*
X62001976Y-33021500D01*
X62202456Y-32984024D01*
X62392637Y-32910348D01*
X62566041Y-32802981D01*
X62716764Y-32665579D01*
X62839673Y-32502821D01*
X62930582Y-32320250D01*
X62986397Y-32124083D01*
X63005215Y-31921000D01*
X62986397Y-31717917D01*
X62930582Y-31521750D01*
X62902824Y-31466005D01*
X62886272Y-31432764D01*
X62839673Y-31339179D01*
X62716764Y-31176421D01*
X62716762Y-31176418D01*
X62566041Y-31039019D01*
X62566039Y-31039017D01*
X62392642Y-30931655D01*
X62392635Y-30931651D01*
X62390491Y-30930820D01*
X62387408Y-30929626D01*
X62332007Y-30887054D01*
X62308417Y-30821287D01*
X62324128Y-30753207D01*
X62374152Y-30704428D01*
X62432203Y-30690000D01*
X65665280Y-30690000D01*
X65732319Y-30709685D01*
X65778074Y-30762489D01*
X65788018Y-30831647D01*
X65758993Y-30895203D01*
X65723733Y-30923358D01*
X65569376Y-31005862D01*
X65569373Y-31005864D01*
X65424642Y-31124642D01*
X65305864Y-31269373D01*
X65305862Y-31269376D01*
X65217604Y-31434497D01*
X65163253Y-31613666D01*
X65163252Y-31613668D01*
X65144901Y-31800000D01*
X65163252Y-31986331D01*
X65163253Y-31986333D01*
X65217604Y-32165502D01*
X65305862Y-32330623D01*
X65305864Y-32330626D01*
X65424642Y-32475357D01*
X65569373Y-32594135D01*
X65569376Y-32594137D01*
X65703036Y-32665579D01*
X65734499Y-32682396D01*
X65913666Y-32736746D01*
X65913668Y-32736747D01*
X65930374Y-32738392D01*
X66100000Y-32755099D01*
X66286331Y-32736747D01*
X66465501Y-32682396D01*
X66630625Y-32594136D01*
X66775357Y-32475357D01*
X66894136Y-32330625D01*
X66982396Y-32165501D01*
X67036747Y-31986331D01*
X67055099Y-31800000D01*
X67036747Y-31613669D01*
X66982396Y-31434499D01*
X66931447Y-31339179D01*
X66894137Y-31269376D01*
X66894135Y-31269373D01*
X66775357Y-31124642D01*
X66630626Y-31005864D01*
X66630623Y-31005862D01*
X66476267Y-30923358D01*
X66426423Y-30874396D01*
X66410962Y-30806258D01*
X66434793Y-30740579D01*
X66490351Y-30698210D01*
X66534720Y-30690000D01*
X118213412Y-30690000D01*
X118280451Y-30709685D01*
X118326206Y-30762489D01*
X118336150Y-30831647D01*
X118307125Y-30895203D01*
X118277564Y-30920115D01*
X118210040Y-30960934D01*
X118123131Y-31013473D01*
X117865960Y-31214954D01*
X117634954Y-31445960D01*
X117433473Y-31703131D01*
X117424535Y-31717917D01*
X117264455Y-31982721D01*
X117161902Y-32210586D01*
X117130372Y-32280642D01*
X117130366Y-32280657D01*
X117033178Y-32592547D01*
X116974289Y-32913900D01*
X116954564Y-33240000D01*
X116974289Y-33566099D01*
X117033178Y-33887452D01*
X117130366Y-34199342D01*
X117130370Y-34199354D01*
X117130373Y-34199361D01*
X117264455Y-34497279D01*
X117398615Y-34719206D01*
X117433473Y-34776868D01*
X117634954Y-35034039D01*
X117865960Y-35265045D01*
X118123131Y-35466526D01*
X118123134Y-35466528D01*
X118123137Y-35466530D01*
X118402721Y-35635545D01*
X118700639Y-35769627D01*
X118700652Y-35769631D01*
X118700657Y-35769633D01*
X119012547Y-35866821D01*
X119333896Y-35925710D01*
X119660000Y-35945436D01*
X119986104Y-35925710D01*
X120307453Y-35866821D01*
X120619361Y-35769627D01*
X120917279Y-35635545D01*
X121196863Y-35466530D01*
X121454036Y-35265048D01*
X121685048Y-35034036D01*
X121886530Y-34776863D01*
X122005726Y-34579688D01*
X122057252Y-34532504D01*
X122126111Y-34520665D01*
X122190440Y-34547934D01*
X122229814Y-34605652D01*
X122235841Y-34643841D01*
X122235841Y-50071226D01*
X122216156Y-50138265D01*
X122163352Y-50184020D01*
X122094194Y-50193964D01*
X122067048Y-50186853D01*
X121938302Y-50136977D01*
X121938297Y-50136976D01*
X121737817Y-50099500D01*
X121533865Y-50099500D01*
X121333385Y-50136976D01*
X121333382Y-50136976D01*
X121333382Y-50136977D01*
X121143205Y-50210651D01*
X121143198Y-50210655D01*
X120993397Y-50303408D01*
X120926037Y-50321963D01*
X120859337Y-50301155D01*
X120844582Y-50289618D01*
X120766041Y-50218019D01*
X120766039Y-50218017D01*
X120592642Y-50110655D01*
X120592635Y-50110651D01*
X120490866Y-50071226D01*
X120402456Y-50036976D01*
X120201976Y-49999500D01*
X119998024Y-49999500D01*
X119797544Y-50036976D01*
X119797541Y-50036976D01*
X119797541Y-50036977D01*
X119607364Y-50110651D01*
X119607357Y-50110655D01*
X119433960Y-50218017D01*
X119433958Y-50218019D01*
X119283237Y-50355418D01*
X119160327Y-50518178D01*
X119069422Y-50700739D01*
X119069417Y-50700752D01*
X119013602Y-50896917D01*
X118994785Y-51099999D01*
X118994785Y-51100000D01*
X119013602Y-51303082D01*
X119069417Y-51499247D01*
X119069422Y-51499260D01*
X119160327Y-51681821D01*
X119283237Y-51844581D01*
X119433958Y-51981980D01*
X119433960Y-51981982D01*
X119494354Y-52019376D01*
X119607363Y-52089348D01*
X119797544Y-52163024D01*
X119998024Y-52200500D01*
X119998026Y-52200500D01*
X120201974Y-52200500D01*
X120201976Y-52200500D01*
X120402456Y-52163024D01*
X120592637Y-52089348D01*
X120742446Y-51996590D01*
X120809804Y-51978035D01*
X120876503Y-51998843D01*
X120891249Y-52010372D01*
X120969800Y-52081981D01*
X120969802Y-52081982D01*
X120969803Y-52081983D01*
X120998094Y-52099500D01*
X121143204Y-52189348D01*
X121333385Y-52263024D01*
X121533865Y-52300500D01*
X121533867Y-52300500D01*
X121737815Y-52300500D01*
X121737817Y-52300500D01*
X121938297Y-52263024D01*
X122067048Y-52213145D01*
X122136670Y-52207284D01*
X122198411Y-52239994D01*
X122232666Y-52300890D01*
X122235841Y-52328773D01*
X122235841Y-53952898D01*
X122216156Y-54019937D01*
X122163352Y-54065692D01*
X122094194Y-54075636D01*
X122030638Y-54046611D01*
X121992864Y-53987833D01*
X121992575Y-53986833D01*
X121985800Y-53963022D01*
X121968082Y-53900750D01*
X121956738Y-53877969D01*
X121905749Y-53775568D01*
X121877173Y-53718179D01*
X121795025Y-53609397D01*
X121754262Y-53555418D01*
X121603541Y-53418019D01*
X121603539Y-53418017D01*
X121430142Y-53310655D01*
X121430135Y-53310651D01*
X121308454Y-53263512D01*
X121239956Y-53236976D01*
X121039476Y-53199500D01*
X120835524Y-53199500D01*
X120635044Y-53236976D01*
X120635041Y-53236976D01*
X120635041Y-53236977D01*
X120444864Y-53310651D01*
X120444857Y-53310655D01*
X120271460Y-53418017D01*
X120271458Y-53418019D01*
X120120737Y-53555418D01*
X119997827Y-53718178D01*
X119906922Y-53900739D01*
X119906917Y-53900752D01*
X119851102Y-54096917D01*
X119832285Y-54299999D01*
X119832285Y-54300000D01*
X119851102Y-54503082D01*
X119906917Y-54699247D01*
X119906922Y-54699260D01*
X119997827Y-54881821D01*
X120120737Y-55044581D01*
X120248285Y-55160855D01*
X120267662Y-55178520D01*
X120271458Y-55181980D01*
X120271460Y-55181982D01*
X120347893Y-55229307D01*
X120444863Y-55289348D01*
X120635044Y-55363024D01*
X120835524Y-55400500D01*
X120835526Y-55400500D01*
X121039474Y-55400500D01*
X121039476Y-55400500D01*
X121239956Y-55363024D01*
X121430137Y-55289348D01*
X121603541Y-55181981D01*
X121754264Y-55044579D01*
X121877173Y-54881821D01*
X121968082Y-54699250D01*
X121992575Y-54613165D01*
X122029854Y-54554073D01*
X122093164Y-54524516D01*
X122162404Y-54533878D01*
X122215590Y-54579188D01*
X122235837Y-54646060D01*
X122235841Y-54647101D01*
X122235841Y-56204029D01*
X122216156Y-56271068D01*
X122163352Y-56316823D01*
X122094194Y-56326767D01*
X122046564Y-56309456D01*
X121892642Y-56214153D01*
X121892635Y-56214149D01*
X121743225Y-56156268D01*
X121702456Y-56140474D01*
X121501976Y-56102998D01*
X121298024Y-56102998D01*
X121097544Y-56140474D01*
X121097541Y-56140474D01*
X121097541Y-56140475D01*
X120907364Y-56214149D01*
X120907354Y-56214154D01*
X120894412Y-56222168D01*
X120827051Y-56240722D01*
X120763862Y-56222168D01*
X120750919Y-56214154D01*
X120750909Y-56214149D01*
X120601499Y-56156268D01*
X120560730Y-56140474D01*
X120360250Y-56102998D01*
X120156298Y-56102998D01*
X119955818Y-56140474D01*
X119955815Y-56140474D01*
X119955815Y-56140475D01*
X119765638Y-56214149D01*
X119765631Y-56214153D01*
X119592234Y-56321515D01*
X119592232Y-56321517D01*
X119441511Y-56458916D01*
X119318601Y-56621676D01*
X119227696Y-56804237D01*
X119227691Y-56804250D01*
X119171876Y-57000415D01*
X119153059Y-57203497D01*
X119153059Y-57203498D01*
X119171876Y-57406580D01*
X119227691Y-57602745D01*
X119227696Y-57602758D01*
X119318601Y-57785319D01*
X119441511Y-57948079D01*
X119592232Y-58085478D01*
X119592234Y-58085480D01*
X119657990Y-58126194D01*
X119765637Y-58192846D01*
X119955818Y-58266522D01*
X120156298Y-58303998D01*
X120156300Y-58303998D01*
X120360248Y-58303998D01*
X120360250Y-58303998D01*
X120560730Y-58266522D01*
X120750911Y-58192846D01*
X120763855Y-58184830D01*
X120831215Y-58166272D01*
X120894417Y-58184830D01*
X120899711Y-58188108D01*
X120907359Y-58192844D01*
X120907363Y-58192846D01*
X121097544Y-58266522D01*
X121298024Y-58303998D01*
X121298026Y-58303998D01*
X121501974Y-58303998D01*
X121501976Y-58303998D01*
X121702456Y-58266522D01*
X121892637Y-58192846D01*
X122001363Y-58125525D01*
X122046564Y-58097539D01*
X122113924Y-58078984D01*
X122180624Y-58099792D01*
X122225485Y-58153357D01*
X122235841Y-58202966D01*
X122235841Y-63286643D01*
X122216156Y-63353682D01*
X122163352Y-63399437D01*
X122094194Y-63409381D01*
X122030638Y-63380356D01*
X122028303Y-63378281D01*
X122003378Y-63355559D01*
X121966040Y-63321521D01*
X121966037Y-63321519D01*
X121966036Y-63321518D01*
X121792641Y-63214157D01*
X121792634Y-63214153D01*
X121697545Y-63177316D01*
X121602455Y-63140478D01*
X121401975Y-63103002D01*
X121198023Y-63103002D01*
X121037820Y-63132949D01*
X120997538Y-63140479D01*
X120847151Y-63198739D01*
X120777528Y-63204601D01*
X120757565Y-63198739D01*
X120654307Y-63158737D01*
X120654304Y-63158736D01*
X120654303Y-63158736D01*
X120453823Y-63121260D01*
X120249871Y-63121260D01*
X120049391Y-63158736D01*
X120049388Y-63158736D01*
X120049388Y-63158737D01*
X119859211Y-63232411D01*
X119859204Y-63232415D01*
X119685807Y-63339777D01*
X119685805Y-63339779D01*
X119535084Y-63477178D01*
X119412174Y-63639938D01*
X119321269Y-63822499D01*
X119321264Y-63822512D01*
X119265449Y-64018677D01*
X119246632Y-64221759D01*
X119246632Y-64221760D01*
X119265449Y-64424842D01*
X119321264Y-64621007D01*
X119321269Y-64621020D01*
X119412174Y-64803581D01*
X119535084Y-64966341D01*
X119685805Y-65103740D01*
X119685807Y-65103742D01*
X119784988Y-65165152D01*
X119859210Y-65211108D01*
X120049391Y-65284784D01*
X120249871Y-65322260D01*
X120249873Y-65322260D01*
X120453821Y-65322260D01*
X120453823Y-65322260D01*
X120654303Y-65284784D01*
X120804693Y-65226522D01*
X120874316Y-65220660D01*
X120894276Y-65226520D01*
X120997543Y-65266526D01*
X121198023Y-65304002D01*
X121198025Y-65304002D01*
X121401973Y-65304002D01*
X121401975Y-65304002D01*
X121602455Y-65266526D01*
X121792636Y-65192850D01*
X121966040Y-65085483D01*
X122028303Y-65028723D01*
X122091107Y-64998106D01*
X122160494Y-65006303D01*
X122214434Y-65050713D01*
X122235802Y-65117235D01*
X122235841Y-65120360D01*
X122235841Y-68236158D01*
X122216156Y-68303197D01*
X122163352Y-68348952D01*
X122094194Y-68358896D01*
X122030638Y-68329871D01*
X122005724Y-68300308D01*
X122004653Y-68298537D01*
X121886530Y-68103137D01*
X121886528Y-68103134D01*
X121886526Y-68103131D01*
X121685045Y-67845960D01*
X121454039Y-67614954D01*
X121196868Y-67413473D01*
X121157328Y-67389570D01*
X120917279Y-67244455D01*
X120619361Y-67110373D01*
X120619354Y-67110370D01*
X120619342Y-67110366D01*
X120307452Y-67013178D01*
X119986099Y-66954289D01*
X119660000Y-66934564D01*
X119333900Y-66954289D01*
X119012547Y-67013178D01*
X118700657Y-67110366D01*
X118700641Y-67110372D01*
X118700639Y-67110373D01*
X118510933Y-67195752D01*
X118402725Y-67244453D01*
X118402723Y-67244454D01*
X118123131Y-67413473D01*
X117865960Y-67614954D01*
X117634954Y-67845960D01*
X117433473Y-68103131D01*
X117264454Y-68382723D01*
X117264453Y-68382725D01*
X117130372Y-68680642D01*
X117130366Y-68680657D01*
X117033178Y-68992547D01*
X116974289Y-69313900D01*
X116954564Y-69640000D01*
X116974289Y-69966099D01*
X117033178Y-70287452D01*
X117130366Y-70599342D01*
X117130370Y-70599354D01*
X117130373Y-70599361D01*
X117264455Y-70897279D01*
X117376015Y-71081821D01*
X117433473Y-71176868D01*
X117634954Y-71434039D01*
X117865960Y-71665045D01*
X118123131Y-71866526D01*
X118123134Y-71866528D01*
X118123137Y-71866530D01*
X118277562Y-71959884D01*
X118324749Y-72011411D01*
X118336588Y-72080270D01*
X118309319Y-72144599D01*
X118251600Y-72183973D01*
X118213412Y-72190000D01*
X102557936Y-72190000D01*
X102490897Y-72170315D01*
X102445142Y-72117511D01*
X102435198Y-72048353D01*
X102464223Y-71984797D01*
X102474398Y-71974363D01*
X102616762Y-71844581D01*
X102644729Y-71807547D01*
X102739673Y-71681821D01*
X102830582Y-71499250D01*
X102886397Y-71303083D01*
X102905215Y-71100000D01*
X102902623Y-71072032D01*
X102886397Y-70896917D01*
X102868896Y-70835408D01*
X102830582Y-70700750D01*
X102780414Y-70599999D01*
X103294785Y-70599999D01*
X103294785Y-70600000D01*
X103313602Y-70803082D01*
X103369417Y-70999247D01*
X103369422Y-70999260D01*
X103460327Y-71181821D01*
X103583237Y-71344581D01*
X103733958Y-71481980D01*
X103733960Y-71481982D01*
X103804245Y-71525500D01*
X103907363Y-71589348D01*
X104097544Y-71663024D01*
X104298024Y-71700500D01*
X104298026Y-71700500D01*
X104501974Y-71700500D01*
X104501976Y-71700500D01*
X104702456Y-71663024D01*
X104892637Y-71589348D01*
X105066041Y-71481981D01*
X105216764Y-71344579D01*
X105339673Y-71181821D01*
X105430582Y-70999250D01*
X105486397Y-70803083D01*
X105505215Y-70600000D01*
X105505155Y-70599357D01*
X105486397Y-70396917D01*
X105474589Y-70355418D01*
X105430582Y-70200750D01*
X105412126Y-70163686D01*
X105349033Y-70036977D01*
X105339673Y-70018179D01*
X105261120Y-69914158D01*
X105216762Y-69855418D01*
X105066041Y-69718019D01*
X105066039Y-69718017D01*
X104892642Y-69610655D01*
X104892635Y-69610651D01*
X104797546Y-69573814D01*
X104702456Y-69536976D01*
X104501976Y-69499500D01*
X104298024Y-69499500D01*
X104097544Y-69536976D01*
X104097541Y-69536976D01*
X104097541Y-69536977D01*
X103907364Y-69610651D01*
X103907357Y-69610655D01*
X103733960Y-69718017D01*
X103733958Y-69718019D01*
X103583237Y-69855418D01*
X103460327Y-70018178D01*
X103369422Y-70200739D01*
X103369417Y-70200752D01*
X103313602Y-70396917D01*
X103294785Y-70599999D01*
X102780414Y-70599999D01*
X102739673Y-70518179D01*
X102646444Y-70394724D01*
X102616762Y-70355418D01*
X102466041Y-70218019D01*
X102466039Y-70218017D01*
X102292642Y-70110655D01*
X102292635Y-70110651D01*
X102197546Y-70073814D01*
X102102456Y-70036976D01*
X101901976Y-69999500D01*
X101698024Y-69999500D01*
X101497544Y-70036976D01*
X101497541Y-70036976D01*
X101497541Y-70036977D01*
X101307364Y-70110651D01*
X101307357Y-70110655D01*
X101133960Y-70218017D01*
X101133958Y-70218019D01*
X100983237Y-70355418D01*
X100860327Y-70518178D01*
X100769422Y-70700739D01*
X100769417Y-70700752D01*
X100713602Y-70896917D01*
X100694785Y-71099999D01*
X100694785Y-71100000D01*
X100713602Y-71303082D01*
X100769417Y-71499247D01*
X100769422Y-71499260D01*
X100860327Y-71681821D01*
X100983237Y-71844581D01*
X101125602Y-71974363D01*
X101161884Y-72034074D01*
X101160123Y-72103922D01*
X101120880Y-72161729D01*
X101056613Y-72189144D01*
X101042064Y-72190000D01*
X84930785Y-72190000D01*
X84863746Y-72170315D01*
X84817991Y-72117511D01*
X84808047Y-72048353D01*
X84837072Y-71984797D01*
X84895850Y-71947023D01*
X84902268Y-71945324D01*
X84907479Y-71944092D01*
X84907481Y-71944091D01*
X84907483Y-71944091D01*
X85042331Y-71893796D01*
X85157546Y-71807546D01*
X85243796Y-71692331D01*
X85294091Y-71557483D01*
X85300500Y-71497873D01*
X85300499Y-69702128D01*
X85294091Y-69642517D01*
X85293152Y-69640000D01*
X85243796Y-69507669D01*
X85243793Y-69507664D01*
X85157547Y-69392455D01*
X85157544Y-69392452D01*
X85042335Y-69306206D01*
X85042328Y-69306202D01*
X84907482Y-69255908D01*
X84907483Y-69255908D01*
X84847883Y-69249501D01*
X84847881Y-69249500D01*
X84847873Y-69249500D01*
X84847864Y-69249500D01*
X83052129Y-69249500D01*
X83052123Y-69249501D01*
X82992516Y-69255908D01*
X82857671Y-69306202D01*
X82857664Y-69306206D01*
X82742455Y-69392452D01*
X82742452Y-69392455D01*
X82656206Y-69507664D01*
X82656203Y-69507669D01*
X82607189Y-69639083D01*
X82565317Y-69695016D01*
X82499853Y-69719433D01*
X82431580Y-69704581D01*
X82403326Y-69683430D01*
X82281402Y-69561506D01*
X82281395Y-69561501D01*
X82087834Y-69425967D01*
X82087830Y-69425965D01*
X82075218Y-69420084D01*
X81873663Y-69326097D01*
X81873659Y-69326096D01*
X81873655Y-69326094D01*
X81645413Y-69264938D01*
X81645403Y-69264936D01*
X81410001Y-69244341D01*
X81409999Y-69244341D01*
X81174596Y-69264936D01*
X81174586Y-69264938D01*
X80946344Y-69326094D01*
X80946335Y-69326098D01*
X80732171Y-69425964D01*
X80732169Y-69425965D01*
X80538597Y-69561505D01*
X80371505Y-69728597D01*
X80241575Y-69914158D01*
X80186998Y-69957783D01*
X80117500Y-69964977D01*
X80055145Y-69933454D01*
X80038425Y-69914158D01*
X79908494Y-69728597D01*
X79741402Y-69561506D01*
X79741395Y-69561501D01*
X79547834Y-69425967D01*
X79547830Y-69425965D01*
X79535218Y-69420084D01*
X79333663Y-69326097D01*
X79333659Y-69326096D01*
X79333655Y-69326094D01*
X79105413Y-69264938D01*
X79105403Y-69264936D01*
X78870001Y-69244341D01*
X78869999Y-69244341D01*
X78634596Y-69264936D01*
X78634586Y-69264938D01*
X78406344Y-69326094D01*
X78406335Y-69326098D01*
X78192171Y-69425964D01*
X78192169Y-69425965D01*
X77998597Y-69561505D01*
X77831505Y-69728597D01*
X77701575Y-69914158D01*
X77646998Y-69957783D01*
X77577500Y-69964977D01*
X77515145Y-69933454D01*
X77498425Y-69914158D01*
X77368494Y-69728597D01*
X77201402Y-69561506D01*
X77201395Y-69561501D01*
X77007834Y-69425967D01*
X77007830Y-69425965D01*
X76995218Y-69420084D01*
X76793663Y-69326097D01*
X76793659Y-69326096D01*
X76793655Y-69326094D01*
X76565413Y-69264938D01*
X76565403Y-69264936D01*
X76330001Y-69244341D01*
X76329999Y-69244341D01*
X76094596Y-69264936D01*
X76094586Y-69264938D01*
X75866344Y-69326094D01*
X75866335Y-69326098D01*
X75652171Y-69425964D01*
X75652169Y-69425965D01*
X75458597Y-69561505D01*
X75291505Y-69728597D01*
X75161575Y-69914158D01*
X75106998Y-69957783D01*
X75037500Y-69964977D01*
X74975145Y-69933454D01*
X74958425Y-69914158D01*
X74828494Y-69728597D01*
X74661402Y-69561506D01*
X74661395Y-69561501D01*
X74467834Y-69425967D01*
X74467830Y-69425965D01*
X74455218Y-69420084D01*
X74253663Y-69326097D01*
X74253659Y-69326096D01*
X74253655Y-69326094D01*
X74025413Y-69264938D01*
X74025403Y-69264936D01*
X73790001Y-69244341D01*
X73789999Y-69244341D01*
X73554596Y-69264936D01*
X73554586Y-69264938D01*
X73326344Y-69326094D01*
X73326335Y-69326098D01*
X73112171Y-69425964D01*
X73112169Y-69425965D01*
X72918597Y-69561505D01*
X72751505Y-69728597D01*
X72621575Y-69914158D01*
X72566998Y-69957783D01*
X72497500Y-69964977D01*
X72435145Y-69933454D01*
X72418425Y-69914158D01*
X72288494Y-69728597D01*
X72121402Y-69561506D01*
X72121395Y-69561501D01*
X71927834Y-69425967D01*
X71927830Y-69425965D01*
X71915218Y-69420084D01*
X71713663Y-69326097D01*
X71713659Y-69326096D01*
X71713655Y-69326094D01*
X71485413Y-69264938D01*
X71485403Y-69264936D01*
X71250001Y-69244341D01*
X71249999Y-69244341D01*
X71014596Y-69264936D01*
X71014586Y-69264938D01*
X70786344Y-69326094D01*
X70786335Y-69326098D01*
X70572171Y-69425964D01*
X70572169Y-69425965D01*
X70378597Y-69561505D01*
X70211505Y-69728597D01*
X70075965Y-69922169D01*
X70075964Y-69922171D01*
X69976098Y-70136335D01*
X69976094Y-70136344D01*
X69914938Y-70364586D01*
X69914936Y-70364596D01*
X69894341Y-70599999D01*
X69894341Y-70600000D01*
X69914936Y-70835403D01*
X69914938Y-70835413D01*
X69976094Y-71063655D01*
X69976096Y-71063659D01*
X69976097Y-71063663D01*
X70043462Y-71208127D01*
X70075965Y-71277830D01*
X70075967Y-71277834D01*
X70165203Y-71405275D01*
X70211505Y-71471401D01*
X70378599Y-71638495D01*
X70467151Y-71700500D01*
X70572165Y-71774032D01*
X70572167Y-71774033D01*
X70572170Y-71774035D01*
X70786337Y-71873903D01*
X71014592Y-71935063D01*
X71099276Y-71942472D01*
X71164344Y-71967925D01*
X71205323Y-72024516D01*
X71209201Y-72094278D01*
X71174747Y-72155062D01*
X71112900Y-72187569D01*
X71088468Y-72190000D01*
X36406588Y-72190000D01*
X36339549Y-72170315D01*
X36293794Y-72117511D01*
X36283850Y-72048353D01*
X36312875Y-71984797D01*
X36342435Y-71959884D01*
X36496863Y-71866530D01*
X36754036Y-71665048D01*
X36985048Y-71434036D01*
X37186530Y-71176863D01*
X37355545Y-70897279D01*
X37489627Y-70599361D01*
X37497472Y-70574187D01*
X37552711Y-70396917D01*
X37586821Y-70287453D01*
X37645710Y-69966104D01*
X37665436Y-69640000D01*
X37645710Y-69313896D01*
X37586821Y-68992547D01*
X37538784Y-68838389D01*
X37489633Y-68680657D01*
X37489631Y-68680652D01*
X37489627Y-68680639D01*
X37355545Y-68382721D01*
X37186530Y-68103137D01*
X37186528Y-68103134D01*
X37186526Y-68103131D01*
X36985045Y-67845960D01*
X36754039Y-67614954D01*
X36496868Y-67413473D01*
X36457328Y-67389570D01*
X36217279Y-67244455D01*
X35919361Y-67110373D01*
X35919354Y-67110370D01*
X35919342Y-67110366D01*
X35607452Y-67013178D01*
X35286099Y-66954289D01*
X34986021Y-66936138D01*
X34960000Y-66934564D01*
X34959999Y-66934564D01*
X34725653Y-66948739D01*
X34657547Y-66933138D01*
X34608687Y-66883193D01*
X34594587Y-66814761D01*
X34594682Y-66813665D01*
X34605215Y-66700000D01*
X34604332Y-66690476D01*
X34586397Y-66496917D01*
X34557153Y-66394136D01*
X34530582Y-66300750D01*
X34521442Y-66282395D01*
X34464510Y-66168059D01*
X34439673Y-66118179D01*
X34350430Y-66000002D01*
X34316762Y-65955418D01*
X34166041Y-65818019D01*
X34166039Y-65818017D01*
X33992642Y-65710655D01*
X33992635Y-65710651D01*
X33833811Y-65649123D01*
X33802456Y-65636976D01*
X33601976Y-65599500D01*
X33398024Y-65599500D01*
X33197544Y-65636976D01*
X33197541Y-65636976D01*
X33197541Y-65636977D01*
X33007364Y-65710651D01*
X33007357Y-65710655D01*
X32833960Y-65818017D01*
X32833958Y-65818019D01*
X32683236Y-65955419D01*
X32683236Y-65955420D01*
X32677951Y-65962419D01*
X32621842Y-66004054D01*
X32552130Y-66008745D01*
X32490948Y-65975002D01*
X32457722Y-65913538D01*
X32454998Y-65887691D01*
X32454998Y-64099999D01*
X33794785Y-64099999D01*
X33794785Y-64100000D01*
X33813602Y-64303082D01*
X33869417Y-64499247D01*
X33869422Y-64499260D01*
X33960327Y-64681821D01*
X34083237Y-64844581D01*
X34233958Y-64981980D01*
X34233960Y-64981982D01*
X34263868Y-65000500D01*
X34407363Y-65089348D01*
X34597544Y-65163024D01*
X34798024Y-65200500D01*
X34798026Y-65200500D01*
X35001974Y-65200500D01*
X35001976Y-65200500D01*
X35202456Y-65163024D01*
X35392637Y-65089348D01*
X35566041Y-64981981D01*
X35716764Y-64844579D01*
X35839673Y-64681821D01*
X35930582Y-64499250D01*
X35986397Y-64303083D01*
X36005215Y-64100000D01*
X35997679Y-64018677D01*
X35986397Y-63896917D01*
X35971101Y-63843158D01*
X35930582Y-63700750D01*
X35928673Y-63696917D01*
X35878011Y-63595173D01*
X35839673Y-63518179D01*
X35716764Y-63355421D01*
X35716762Y-63355418D01*
X35566041Y-63218019D01*
X35566039Y-63218017D01*
X35392642Y-63110655D01*
X35392635Y-63110651D01*
X35222262Y-63044649D01*
X35202456Y-63036976D01*
X35001976Y-62999500D01*
X34798024Y-62999500D01*
X34597544Y-63036976D01*
X34597541Y-63036976D01*
X34597541Y-63036977D01*
X34407364Y-63110651D01*
X34407357Y-63110655D01*
X34233960Y-63218017D01*
X34233958Y-63218019D01*
X34083237Y-63355418D01*
X33960327Y-63518178D01*
X33869422Y-63700739D01*
X33869417Y-63700752D01*
X33813602Y-63896917D01*
X33794785Y-64099999D01*
X32454998Y-64099999D01*
X32454998Y-61599999D01*
X34094785Y-61599999D01*
X34094785Y-61600000D01*
X34113602Y-61803082D01*
X34169417Y-61999247D01*
X34169422Y-61999260D01*
X34260327Y-62181821D01*
X34383237Y-62344581D01*
X34533958Y-62481980D01*
X34533960Y-62481982D01*
X34618359Y-62534239D01*
X34707363Y-62589348D01*
X34897544Y-62663024D01*
X35098024Y-62700500D01*
X35098026Y-62700500D01*
X35301974Y-62700500D01*
X35301976Y-62700500D01*
X35502456Y-62663024D01*
X35692637Y-62589348D01*
X35866041Y-62481981D01*
X36016764Y-62344579D01*
X36139673Y-62181821D01*
X36230582Y-61999250D01*
X36286397Y-61803083D01*
X36305215Y-61600000D01*
X36286397Y-61396917D01*
X36230582Y-61200750D01*
X36227211Y-61193981D01*
X36167935Y-61074937D01*
X36139673Y-61018179D01*
X36076479Y-60934497D01*
X36016762Y-60855418D01*
X35866041Y-60718019D01*
X35866039Y-60718017D01*
X35692642Y-60610655D01*
X35692635Y-60610651D01*
X35548504Y-60554815D01*
X35502456Y-60536976D01*
X35301976Y-60499500D01*
X35098024Y-60499500D01*
X34897544Y-60536976D01*
X34897541Y-60536976D01*
X34897541Y-60536977D01*
X34707364Y-60610651D01*
X34707357Y-60610655D01*
X34533960Y-60718017D01*
X34533958Y-60718019D01*
X34383237Y-60855418D01*
X34260327Y-61018178D01*
X34169422Y-61200739D01*
X34169417Y-61200752D01*
X34113602Y-61396917D01*
X34094785Y-61599999D01*
X32454998Y-61599999D01*
X32454998Y-59843499D01*
X36281285Y-59843499D01*
X36281285Y-59843500D01*
X36300102Y-60046582D01*
X36355917Y-60242747D01*
X36355922Y-60242760D01*
X36446827Y-60425321D01*
X36569737Y-60588081D01*
X36720458Y-60725480D01*
X36720460Y-60725482D01*
X36790714Y-60768981D01*
X36893863Y-60832848D01*
X37084044Y-60906524D01*
X37284524Y-60944000D01*
X37303560Y-60944000D01*
X37370599Y-60963685D01*
X37391241Y-60980319D01*
X43616870Y-67205947D01*
X43616891Y-67205970D01*
X43732710Y-67321789D01*
X43776883Y-67351304D01*
X43821688Y-67404916D01*
X43829608Y-67430209D01*
X43830260Y-67433489D01*
X43830263Y-67433499D01*
X43890602Y-67579172D01*
X43890609Y-67579185D01*
X43978210Y-67710288D01*
X43978213Y-67710292D01*
X44089707Y-67821786D01*
X44089711Y-67821789D01*
X44220814Y-67909390D01*
X44220827Y-67909397D01*
X44366498Y-67969735D01*
X44366503Y-67969737D01*
X44521153Y-68000499D01*
X44521156Y-68000500D01*
X44521158Y-68000500D01*
X44678842Y-68000500D01*
X44987299Y-68000500D01*
X45054338Y-68020185D01*
X45100093Y-68072989D01*
X45110037Y-68142147D01*
X45081012Y-68205703D01*
X45074980Y-68212181D01*
X45048980Y-68238181D01*
X44987657Y-68271666D01*
X44961299Y-68274500D01*
X41950876Y-68274500D01*
X41884904Y-68255494D01*
X41827692Y-68219545D01*
X41827691Y-68219544D01*
X41827690Y-68219544D01*
X41789370Y-68206135D01*
X41668056Y-68163685D01*
X41500003Y-68144751D01*
X41499997Y-68144751D01*
X41331943Y-68163685D01*
X41172307Y-68219545D01*
X41115096Y-68255494D01*
X41049124Y-68274500D01*
X40828389Y-68274500D01*
X40707555Y-68298535D01*
X40707545Y-68298538D01*
X40593716Y-68345687D01*
X40593707Y-68345692D01*
X40491267Y-68414141D01*
X40491263Y-68414144D01*
X40404144Y-68501263D01*
X40404141Y-68501267D01*
X40335692Y-68603707D01*
X40335687Y-68603716D01*
X40288538Y-68717545D01*
X40288535Y-68717555D01*
X40264500Y-68838389D01*
X40264500Y-68961610D01*
X40288535Y-69082444D01*
X40288538Y-69082454D01*
X40335687Y-69196283D01*
X40335692Y-69196292D01*
X40404141Y-69298732D01*
X40404144Y-69298736D01*
X40491263Y-69385855D01*
X40491267Y-69385858D01*
X40593707Y-69454307D01*
X40593711Y-69454309D01*
X40593714Y-69454311D01*
X40707548Y-69501463D01*
X40828389Y-69525499D01*
X40828393Y-69525500D01*
X40828394Y-69525500D01*
X41049124Y-69525500D01*
X41115095Y-69544505D01*
X41172310Y-69580456D01*
X41293621Y-69622904D01*
X41331943Y-69636314D01*
X41499997Y-69655249D01*
X41500000Y-69655249D01*
X41500003Y-69655249D01*
X41668056Y-69636314D01*
X41668059Y-69636313D01*
X41827690Y-69580456D01*
X41884904Y-69544505D01*
X41950876Y-69525500D01*
X45474781Y-69525500D01*
X45474781Y-69525499D01*
X45564424Y-69507669D01*
X45564425Y-69507669D01*
X45574919Y-69505581D01*
X45595625Y-69501463D01*
X45595630Y-69501460D01*
X45595633Y-69501460D01*
X45628960Y-69487654D01*
X45628959Y-69487654D01*
X45628965Y-69487652D01*
X45709459Y-69454312D01*
X45760682Y-69420084D01*
X45811906Y-69385858D01*
X45899031Y-69298733D01*
X45899032Y-69298731D01*
X45906098Y-69291665D01*
X45906101Y-69291661D01*
X49315910Y-65881851D01*
X49377231Y-65848368D01*
X49446923Y-65853352D01*
X49502856Y-65895224D01*
X49522854Y-65935597D01*
X49528495Y-65955421D01*
X49569419Y-66099254D01*
X49569420Y-66099255D01*
X49592063Y-66144729D01*
X49604324Y-66213514D01*
X49592063Y-66255271D01*
X49569420Y-66300744D01*
X49569419Y-66300746D01*
X49513602Y-66496917D01*
X49494785Y-66699999D01*
X49494785Y-66700000D01*
X49513602Y-66903082D01*
X49569417Y-67099247D01*
X49569422Y-67099260D01*
X49660327Y-67281821D01*
X49783237Y-67444581D01*
X49933958Y-67581980D01*
X49933960Y-67581982D01*
X49987209Y-67614952D01*
X50107363Y-67689348D01*
X50297544Y-67763024D01*
X50498024Y-67800500D01*
X50498026Y-67800500D01*
X50701974Y-67800500D01*
X50701976Y-67800500D01*
X50902456Y-67763024D01*
X51092637Y-67689348D01*
X51266041Y-67581981D01*
X51416764Y-67444579D01*
X51539673Y-67281821D01*
X51630582Y-67099250D01*
X51686397Y-66903083D01*
X51705215Y-66700000D01*
X51704332Y-66690476D01*
X51686397Y-66496917D01*
X51646046Y-66355099D01*
X51630582Y-66300750D01*
X51607935Y-66255270D01*
X51595675Y-66186487D01*
X51607936Y-66144728D01*
X51614958Y-66130626D01*
X51630582Y-66099250D01*
X51686397Y-65903083D01*
X51705215Y-65700000D01*
X51703864Y-65685425D01*
X51686397Y-65496917D01*
X51684084Y-65488789D01*
X51630582Y-65300750D01*
X51626405Y-65292362D01*
X51580108Y-65199384D01*
X51539673Y-65118179D01*
X51443337Y-64990609D01*
X51416762Y-64955418D01*
X51266041Y-64818019D01*
X51266039Y-64818017D01*
X51092642Y-64710655D01*
X51092635Y-64710651D01*
X50902454Y-64636975D01*
X50845835Y-64626391D01*
X50783554Y-64594723D01*
X50748282Y-64534410D01*
X50751216Y-64464602D01*
X50780936Y-64416826D01*
X51060857Y-64136906D01*
X51129312Y-64034458D01*
X51176463Y-63920624D01*
X51179240Y-63906657D01*
X51211623Y-63844747D01*
X51213133Y-63843208D01*
X51215393Y-63840949D01*
X51257470Y-63777977D01*
X51283847Y-63738502D01*
X51324672Y-63639939D01*
X51330998Y-63624668D01*
X51352179Y-63518179D01*
X51352180Y-63518179D01*
X51352180Y-63518172D01*
X51352773Y-63515194D01*
X51355035Y-63503823D01*
X51355035Y-63380609D01*
X51355035Y-63080373D01*
X51374042Y-63014400D01*
X51409991Y-62957188D01*
X51420961Y-62925836D01*
X51465848Y-62797557D01*
X51477072Y-62697946D01*
X51484784Y-62629500D01*
X51484784Y-62629497D01*
X51481808Y-62603083D01*
X51481419Y-62599634D01*
X51493473Y-62530813D01*
X51540821Y-62479433D01*
X51604639Y-62461750D01*
X55249021Y-62461750D01*
X55316060Y-62481435D01*
X55336702Y-62498069D01*
X57152056Y-64313423D01*
X57181416Y-64360149D01*
X57219543Y-64469109D01*
X57219546Y-64469115D01*
X57291482Y-64583599D01*
X57310483Y-64650836D01*
X57290116Y-64717671D01*
X57274170Y-64737253D01*
X51798244Y-70213181D01*
X51736921Y-70246666D01*
X51710563Y-70249500D01*
X46011088Y-70249500D01*
X45945117Y-70230494D01*
X45927688Y-70219543D01*
X45768057Y-70163686D01*
X45600003Y-70144751D01*
X45599997Y-70144751D01*
X45431942Y-70163686D01*
X45272311Y-70219543D01*
X45254883Y-70230494D01*
X45188912Y-70249500D01*
X44888429Y-70249500D01*
X44762761Y-70274497D01*
X44762755Y-70274499D01*
X44644375Y-70323533D01*
X44644366Y-70323538D01*
X44537831Y-70394723D01*
X44537827Y-70394726D01*
X44447226Y-70485327D01*
X44447223Y-70485331D01*
X44376038Y-70591866D01*
X44376033Y-70591875D01*
X44326999Y-70710255D01*
X44326997Y-70710261D01*
X44302000Y-70835928D01*
X44302000Y-70835931D01*
X44302000Y-70964069D01*
X44302000Y-70964071D01*
X44301999Y-70964071D01*
X44326997Y-71089738D01*
X44326999Y-71089744D01*
X44376033Y-71208124D01*
X44376038Y-71208133D01*
X44447223Y-71314668D01*
X44447226Y-71314672D01*
X44537827Y-71405273D01*
X44537831Y-71405276D01*
X44644366Y-71476461D01*
X44644375Y-71476466D01*
X44671192Y-71487574D01*
X44762756Y-71525501D01*
X44762760Y-71525501D01*
X44762761Y-71525502D01*
X44888428Y-71550500D01*
X44888431Y-71550500D01*
X45188912Y-71550500D01*
X45254883Y-71569506D01*
X45272310Y-71580456D01*
X45431941Y-71636313D01*
X45473955Y-71641047D01*
X45599997Y-71655249D01*
X45600000Y-71655249D01*
X45600003Y-71655249D01*
X45700835Y-71643887D01*
X45768059Y-71636313D01*
X45927690Y-71580456D01*
X45945117Y-71569506D01*
X46011088Y-71550500D01*
X52095442Y-71550500D01*
X52198804Y-71529939D01*
X52221115Y-71525501D01*
X52339498Y-71476465D01*
X52339504Y-71476461D01*
X52347079Y-71471400D01*
X52402998Y-71434036D01*
X52446040Y-71405277D01*
X58451315Y-65400000D01*
X70144901Y-65400000D01*
X70163252Y-65586331D01*
X70163253Y-65586333D01*
X70217604Y-65765502D01*
X70305862Y-65930623D01*
X70305864Y-65930626D01*
X70424642Y-66075357D01*
X70569373Y-66194135D01*
X70569376Y-66194137D01*
X70707676Y-66268059D01*
X70734499Y-66282396D01*
X70913666Y-66336746D01*
X70913668Y-66336747D01*
X70930374Y-66338392D01*
X71100000Y-66355099D01*
X71286331Y-66336747D01*
X71465501Y-66282396D01*
X71630625Y-66194136D01*
X71775357Y-66075357D01*
X71894136Y-65930625D01*
X71982396Y-65765501D01*
X72036747Y-65586331D01*
X72055099Y-65400000D01*
X72036747Y-65213669D01*
X72036747Y-65213668D01*
X72036746Y-65213664D01*
X71999033Y-65089344D01*
X71982396Y-65034499D01*
X71962944Y-64998106D01*
X71894137Y-64869376D01*
X71894135Y-64869373D01*
X71775357Y-64724642D01*
X71630626Y-64605864D01*
X71630623Y-64605862D01*
X71465502Y-64517604D01*
X71286333Y-64463253D01*
X71286331Y-64463252D01*
X71100000Y-64444901D01*
X70913668Y-64463252D01*
X70913666Y-64463253D01*
X70734497Y-64517604D01*
X70569376Y-64605862D01*
X70569373Y-64605864D01*
X70424642Y-64724642D01*
X70305864Y-64869373D01*
X70305862Y-64869376D01*
X70217604Y-65034497D01*
X70163254Y-65213664D01*
X70163252Y-65213668D01*
X70144901Y-65400000D01*
X58451315Y-65400000D01*
X58673286Y-65178029D01*
X58673293Y-65178024D01*
X58680353Y-65170963D01*
X58680355Y-65170963D01*
X59005277Y-64846041D01*
X59076465Y-64739499D01*
X59125501Y-64621116D01*
X59134135Y-64577709D01*
X59150500Y-64495441D01*
X59150500Y-63899999D01*
X60494785Y-63899999D01*
X60494785Y-63900000D01*
X60513602Y-64103082D01*
X60569417Y-64299247D01*
X60569422Y-64299260D01*
X60660327Y-64481821D01*
X60783237Y-64644581D01*
X60933958Y-64781980D01*
X60933960Y-64781982D01*
X60968844Y-64803581D01*
X61107363Y-64889348D01*
X61297544Y-64963024D01*
X61498024Y-65000500D01*
X61498026Y-65000500D01*
X61701974Y-65000500D01*
X61701976Y-65000500D01*
X61902456Y-64963024D01*
X62092637Y-64889348D01*
X62266041Y-64781981D01*
X62403023Y-64657106D01*
X62416762Y-64644581D01*
X62416764Y-64644579D01*
X62539673Y-64481821D01*
X62630582Y-64299250D01*
X62686397Y-64103083D01*
X62705215Y-63900000D01*
X62686397Y-63696917D01*
X62630582Y-63500750D01*
X62620392Y-63480286D01*
X62574679Y-63388481D01*
X62539673Y-63318179D01*
X62453903Y-63204601D01*
X62416762Y-63155418D01*
X62266041Y-63018019D01*
X62266039Y-63018017D01*
X62092642Y-62910655D01*
X62092635Y-62910651D01*
X61921258Y-62844260D01*
X61902456Y-62836976D01*
X61701976Y-62799500D01*
X61498024Y-62799500D01*
X61297544Y-62836976D01*
X61297541Y-62836976D01*
X61297541Y-62836977D01*
X61107364Y-62910651D01*
X61107357Y-62910655D01*
X60933960Y-63018017D01*
X60933958Y-63018019D01*
X60783237Y-63155418D01*
X60660327Y-63318178D01*
X60569422Y-63500739D01*
X60569417Y-63500752D01*
X60513602Y-63696917D01*
X60494785Y-63899999D01*
X59150500Y-63899999D01*
X59150500Y-63249108D01*
X59151280Y-63235223D01*
X59151597Y-63232415D01*
X59155249Y-63200000D01*
X59153841Y-63187500D01*
X59136314Y-63031943D01*
X59091224Y-62903083D01*
X59080456Y-62872310D01*
X59080455Y-62872309D01*
X59080454Y-62872305D01*
X59080452Y-62872302D01*
X58990481Y-62729115D01*
X58990476Y-62729109D01*
X58870890Y-62609523D01*
X58870884Y-62609518D01*
X58727697Y-62519547D01*
X58727694Y-62519545D01*
X58568056Y-62463685D01*
X58400003Y-62444751D01*
X58399997Y-62444751D01*
X58231943Y-62463685D01*
X58072305Y-62519545D01*
X58072302Y-62519547D01*
X57929115Y-62609518D01*
X57929109Y-62609523D01*
X57809523Y-62729109D01*
X57809521Y-62729112D01*
X57737167Y-62844260D01*
X57684832Y-62890551D01*
X57615778Y-62901198D01*
X57551930Y-62872822D01*
X57544493Y-62865968D01*
X55984503Y-61305977D01*
X55984502Y-61305976D01*
X55984498Y-61305973D01*
X55877956Y-61234785D01*
X55759573Y-61185749D01*
X55759567Y-61185747D01*
X55633900Y-61160750D01*
X55633898Y-61160750D01*
X52197085Y-61160750D01*
X52130046Y-61141065D01*
X52084291Y-61088261D01*
X52074347Y-61019103D01*
X52092092Y-60970778D01*
X52119161Y-60927697D01*
X52119163Y-60927694D01*
X52119163Y-60927692D01*
X52119165Y-60927690D01*
X52175022Y-60768059D01*
X52175022Y-60768058D01*
X52175023Y-60768056D01*
X52193958Y-60600002D01*
X52193958Y-60599997D01*
X52175023Y-60431943D01*
X52134499Y-60316133D01*
X52119165Y-60272310D01*
X52119164Y-60272309D01*
X52119163Y-60272305D01*
X52119161Y-60272302D01*
X52029190Y-60129115D01*
X52029185Y-60129109D01*
X51909599Y-60009523D01*
X51909593Y-60009518D01*
X51766406Y-59919547D01*
X51766403Y-59919545D01*
X51606765Y-59863685D01*
X51438712Y-59844751D01*
X51438706Y-59844751D01*
X51270652Y-59863685D01*
X51111014Y-59919545D01*
X51111011Y-59919547D01*
X50967824Y-60009518D01*
X50967818Y-60009523D01*
X50848230Y-60129111D01*
X50766493Y-60259195D01*
X50714159Y-60305485D01*
X50645105Y-60316133D01*
X50581257Y-60287758D01*
X50556506Y-60259194D01*
X50527047Y-60212310D01*
X50490477Y-60154110D01*
X50370890Y-60034523D01*
X50370884Y-60034518D01*
X50227697Y-59944547D01*
X50227694Y-59944545D01*
X50068056Y-59888685D01*
X49900003Y-59869751D01*
X49899997Y-59869751D01*
X49731943Y-59888685D01*
X49572305Y-59944545D01*
X49572302Y-59944547D01*
X49561805Y-59951143D01*
X49494568Y-59970142D01*
X49427734Y-59949773D01*
X49382521Y-59896504D01*
X49372365Y-59834709D01*
X49380215Y-59750000D01*
X49377065Y-59716010D01*
X49361397Y-59546917D01*
X49346824Y-59495699D01*
X49305582Y-59350750D01*
X49304840Y-59349260D01*
X49245591Y-59230272D01*
X49233330Y-59161487D01*
X49245591Y-59119728D01*
X49248021Y-59114849D01*
X49305582Y-58999250D01*
X49361397Y-58803083D01*
X49380215Y-58600000D01*
X49379463Y-58591889D01*
X49361397Y-58396917D01*
X49350098Y-58357207D01*
X49305582Y-58200750D01*
X49305513Y-58200612D01*
X49248184Y-58085478D01*
X49214673Y-58018179D01*
X49129954Y-57905993D01*
X49091762Y-57855418D01*
X48941041Y-57718019D01*
X48941039Y-57718017D01*
X48767642Y-57610655D01*
X48767635Y-57610651D01*
X48624214Y-57555090D01*
X48577456Y-57536976D01*
X48376976Y-57499500D01*
X48173024Y-57499500D01*
X47972544Y-57536976D01*
X47972541Y-57536976D01*
X47972541Y-57536977D01*
X47782364Y-57610651D01*
X47782357Y-57610655D01*
X47608960Y-57718017D01*
X47608958Y-57718019D01*
X47458237Y-57855418D01*
X47335327Y-58018178D01*
X47244422Y-58200739D01*
X47244417Y-58200752D01*
X47188602Y-58396917D01*
X47169785Y-58599999D01*
X47169785Y-58600000D01*
X47188602Y-58803082D01*
X47213332Y-58889997D01*
X47244417Y-58999247D01*
X47244419Y-58999252D01*
X47304408Y-59119730D01*
X47316668Y-59188515D01*
X47304408Y-59230270D01*
X47244423Y-59350739D01*
X47244418Y-59350750D01*
X47221895Y-59429908D01*
X47188603Y-59546917D01*
X47185690Y-59578353D01*
X47159904Y-59643290D01*
X47103103Y-59683977D01*
X47033322Y-59687497D01*
X46974538Y-59654592D01*
X45976412Y-58656466D01*
X45947051Y-58609737D01*
X45930457Y-58562312D01*
X45930452Y-58562302D01*
X45840481Y-58419115D01*
X45840476Y-58419109D01*
X45720890Y-58299523D01*
X45720884Y-58299518D01*
X45577697Y-58209547D01*
X45577694Y-58209545D01*
X45418056Y-58153685D01*
X45250003Y-58134751D01*
X45249997Y-58134751D01*
X45081943Y-58153685D01*
X44922305Y-58209545D01*
X44922302Y-58209547D01*
X44779115Y-58299518D01*
X44779109Y-58299523D01*
X44659523Y-58419109D01*
X44659518Y-58419115D01*
X44569547Y-58562302D01*
X44569545Y-58562305D01*
X44513685Y-58721943D01*
X44494751Y-58889997D01*
X44494751Y-58890002D01*
X44513685Y-59058056D01*
X44569545Y-59217694D01*
X44569547Y-59217697D01*
X44659518Y-59360884D01*
X44659523Y-59360890D01*
X44779109Y-59480476D01*
X44779115Y-59480481D01*
X44922302Y-59570452D01*
X44922308Y-59570455D01*
X44922310Y-59570456D01*
X45013827Y-59602479D01*
X45088514Y-59628613D01*
X45087820Y-59630595D01*
X45138852Y-59658798D01*
X45842873Y-60362819D01*
X45876358Y-60424142D01*
X45871374Y-60493834D01*
X45829502Y-60549767D01*
X45764038Y-60574184D01*
X45755192Y-60574500D01*
X41638388Y-60574500D01*
X41609155Y-60580315D01*
X41517554Y-60598535D01*
X41517545Y-60598537D01*
X41497543Y-60606823D01*
X41484207Y-60612347D01*
X41403718Y-60645685D01*
X41403715Y-60645687D01*
X41389285Y-60655329D01*
X41374654Y-60665106D01*
X41301270Y-60714139D01*
X41301264Y-60714143D01*
X41282379Y-60733029D01*
X41235654Y-60762388D01*
X41231941Y-60763686D01*
X41231941Y-60763687D01*
X41215686Y-60769375D01*
X41072308Y-60819544D01*
X41072302Y-60819547D01*
X40929115Y-60909518D01*
X40929109Y-60909523D01*
X40809523Y-61029109D01*
X40809518Y-61029115D01*
X40719547Y-61172302D01*
X40719545Y-61172305D01*
X40663685Y-61331943D01*
X40644751Y-61499997D01*
X40644751Y-61500002D01*
X40664466Y-61674979D01*
X40662015Y-61675255D01*
X40658426Y-61733559D01*
X40617112Y-61789905D01*
X40551894Y-61814971D01*
X40483477Y-61800798D01*
X40454141Y-61779063D01*
X38520630Y-59845552D01*
X38487145Y-59784229D01*
X38484840Y-59769312D01*
X38484724Y-59768056D01*
X38472897Y-59640417D01*
X38417082Y-59444250D01*
X38416380Y-59442841D01*
X38353197Y-59315951D01*
X38326173Y-59261679D01*
X38244165Y-59153083D01*
X38203262Y-59098918D01*
X38052541Y-58961519D01*
X38052539Y-58961517D01*
X37879142Y-58854155D01*
X37879135Y-58854151D01*
X37747309Y-58803082D01*
X37688956Y-58780476D01*
X37488476Y-58743000D01*
X37284524Y-58743000D01*
X37084044Y-58780476D01*
X37084041Y-58780476D01*
X37084041Y-58780477D01*
X36893864Y-58854151D01*
X36893857Y-58854155D01*
X36720460Y-58961517D01*
X36720458Y-58961519D01*
X36569737Y-59098918D01*
X36446827Y-59261678D01*
X36355922Y-59444239D01*
X36355917Y-59444252D01*
X36300102Y-59640417D01*
X36281285Y-59843499D01*
X32454998Y-59843499D01*
X32454998Y-56315338D01*
X36261285Y-56315338D01*
X36261285Y-56315339D01*
X36280102Y-56518421D01*
X36335917Y-56714586D01*
X36335922Y-56714599D01*
X36426827Y-56897160D01*
X36549737Y-57059920D01*
X36700458Y-57197319D01*
X36700460Y-57197321D01*
X36799641Y-57258731D01*
X36873863Y-57304687D01*
X37064044Y-57378363D01*
X37264524Y-57415839D01*
X37264526Y-57415839D01*
X37468474Y-57415839D01*
X37468476Y-57415839D01*
X37668956Y-57378363D01*
X37859137Y-57304687D01*
X38032541Y-57197320D01*
X38183264Y-57059918D01*
X38306173Y-56897160D01*
X38397082Y-56714589D01*
X38452897Y-56518422D01*
X38464840Y-56389525D01*
X38490626Y-56324588D01*
X38500622Y-56313293D01*
X39041263Y-55772652D01*
X39102584Y-55739169D01*
X39172276Y-55744153D01*
X39228209Y-55786025D01*
X39252626Y-55851489D01*
X39252162Y-55874218D01*
X39244751Y-55939995D01*
X39244751Y-55940002D01*
X39263685Y-56108056D01*
X39319545Y-56267694D01*
X39319547Y-56267697D01*
X39409518Y-56410884D01*
X39409523Y-56410890D01*
X39529109Y-56530476D01*
X39529115Y-56530481D01*
X39672302Y-56620452D01*
X39672305Y-56620454D01*
X39672309Y-56620455D01*
X39672310Y-56620456D01*
X39726869Y-56639547D01*
X39831943Y-56676314D01*
X39999997Y-56695249D01*
X40000000Y-56695249D01*
X40000003Y-56695249D01*
X40168056Y-56676314D01*
X40179499Y-56672310D01*
X40327690Y-56620456D01*
X40448563Y-56544505D01*
X40514535Y-56525500D01*
X48677134Y-56525500D01*
X48744173Y-56545185D01*
X48764815Y-56561819D01*
X49899379Y-57696385D01*
X49899401Y-57696405D01*
X50947999Y-58745003D01*
X50977027Y-58797522D01*
X50978560Y-58796986D01*
X50980858Y-58803555D01*
X50980859Y-58803558D01*
X50998562Y-58854151D01*
X51036716Y-58963191D01*
X51036719Y-58963196D01*
X51126690Y-59106383D01*
X51126695Y-59106389D01*
X51246281Y-59225975D01*
X51246287Y-59225980D01*
X51389474Y-59315951D01*
X51389477Y-59315953D01*
X51389481Y-59315954D01*
X51389482Y-59315955D01*
X51462085Y-59341359D01*
X51549115Y-59371813D01*
X51717169Y-59390748D01*
X51717172Y-59390748D01*
X51717175Y-59390748D01*
X51885228Y-59371813D01*
X51916444Y-59360890D01*
X52044862Y-59315955D01*
X52063867Y-59304012D01*
X52073428Y-59298006D01*
X52139400Y-59279000D01*
X52390607Y-59279000D01*
X52390608Y-59278999D01*
X52511452Y-59254963D01*
X52625286Y-59207811D01*
X52727733Y-59139358D01*
X52814858Y-59052233D01*
X52883311Y-58949786D01*
X52930463Y-58835952D01*
X52954500Y-58715106D01*
X52954500Y-58591894D01*
X52930463Y-58471048D01*
X52887853Y-58368179D01*
X52883312Y-58357216D01*
X52883307Y-58357207D01*
X52814858Y-58254767D01*
X52814855Y-58254763D01*
X52727736Y-58167644D01*
X52727732Y-58167641D01*
X52625292Y-58099192D01*
X52625283Y-58099187D01*
X52522231Y-58056502D01*
X52511452Y-58052037D01*
X52511448Y-58052036D01*
X52511444Y-58052035D01*
X52390610Y-58028000D01*
X52390606Y-58028000D01*
X52196696Y-58028000D01*
X52130724Y-58008993D01*
X52044869Y-57955046D01*
X52044858Y-57955041D01*
X51890610Y-57901067D01*
X51843884Y-57871707D01*
X50786721Y-56814545D01*
X50786719Y-56814542D01*
X50161521Y-56189344D01*
X49480513Y-55508337D01*
X49480511Y-55508334D01*
X49480511Y-55508335D01*
X49473445Y-55501269D01*
X49473444Y-55501267D01*
X49386319Y-55414142D01*
X49386315Y-55414139D01*
X49386314Y-55414138D01*
X49334108Y-55379255D01*
X49334106Y-55379254D01*
X49283876Y-55345690D01*
X49283867Y-55345685D01*
X49190909Y-55307182D01*
X49174777Y-55300500D01*
X49170038Y-55298537D01*
X49170034Y-55298536D01*
X49170030Y-55298535D01*
X49105946Y-55285788D01*
X49105945Y-55285788D01*
X49049197Y-55274500D01*
X49049193Y-55274500D01*
X49049192Y-55274500D01*
X40387048Y-55274500D01*
X40333239Y-55262217D01*
X40327692Y-55259545D01*
X40327690Y-55259544D01*
X40327686Y-55259542D01*
X40327685Y-55259542D01*
X40168057Y-55203686D01*
X40000003Y-55184751D01*
X39999996Y-55184751D01*
X39934219Y-55192162D01*
X39865397Y-55180107D01*
X39814018Y-55132758D01*
X39796394Y-55065148D01*
X39818121Y-54998742D01*
X39832652Y-54981264D01*
X40365528Y-54448388D01*
X49472000Y-54448388D01*
X49472000Y-54571611D01*
X49496035Y-54692444D01*
X49496040Y-54692461D01*
X49543185Y-54806281D01*
X49543190Y-54806290D01*
X49568890Y-54844751D01*
X49611643Y-54908733D01*
X49698767Y-54995857D01*
X49703085Y-54998742D01*
X49801209Y-55064309D01*
X49801218Y-55064314D01*
X49915038Y-55111459D01*
X49915042Y-55111460D01*
X49915049Y-55111463D01*
X50003763Y-55129109D01*
X50035888Y-55135499D01*
X50035892Y-55135500D01*
X50035893Y-55135500D01*
X50159108Y-55135500D01*
X50159109Y-55135499D01*
X50279951Y-55111463D01*
X50393786Y-55064312D01*
X50496233Y-54995857D01*
X50601014Y-54891075D01*
X50662333Y-54857593D01*
X50693036Y-54856027D01*
X50693036Y-54855249D01*
X50700003Y-54855249D01*
X50868056Y-54836314D01*
X50868059Y-54836313D01*
X51027690Y-54780456D01*
X51033477Y-54776820D01*
X51100713Y-54757817D01*
X51167549Y-54778182D01*
X51212765Y-54831449D01*
X51219176Y-54851650D01*
X51219269Y-54851622D01*
X51221036Y-54857448D01*
X51221037Y-54857452D01*
X51221825Y-54859354D01*
X51268187Y-54971283D01*
X51268192Y-54971292D01*
X51336641Y-55073732D01*
X51336644Y-55073736D01*
X51423763Y-55160855D01*
X51423767Y-55160858D01*
X51526207Y-55229307D01*
X51526213Y-55229310D01*
X51526214Y-55229311D01*
X51640048Y-55276463D01*
X51751015Y-55298535D01*
X51760889Y-55300499D01*
X51760893Y-55300500D01*
X51760894Y-55300500D01*
X51949124Y-55300500D01*
X52015095Y-55319505D01*
X52072310Y-55355456D01*
X52193621Y-55397904D01*
X52231943Y-55411314D01*
X52399997Y-55430249D01*
X52400000Y-55430249D01*
X52400003Y-55430249D01*
X52568056Y-55411314D01*
X52583637Y-55405862D01*
X52727690Y-55355456D01*
X52784904Y-55319505D01*
X52850876Y-55300500D01*
X54764548Y-55300500D01*
X54831587Y-55320185D01*
X54852229Y-55336819D01*
X57510589Y-57995179D01*
X57544074Y-58056502D01*
X57539090Y-58126194D01*
X57510592Y-58170539D01*
X57480522Y-58200610D01*
X57480520Y-58200612D01*
X57390547Y-58343802D01*
X57390545Y-58343805D01*
X57334685Y-58503443D01*
X57315751Y-58671497D01*
X57315751Y-58671502D01*
X57334686Y-58839557D01*
X57390543Y-58999190D01*
X57426493Y-59056402D01*
X57445500Y-59122375D01*
X57445500Y-60152623D01*
X57426494Y-60218595D01*
X57390545Y-60275807D01*
X57334685Y-60435443D01*
X57315751Y-60603497D01*
X57315751Y-60603502D01*
X57334685Y-60771556D01*
X57390545Y-60931194D01*
X57390547Y-60931197D01*
X57480518Y-61074384D01*
X57480523Y-61074390D01*
X57600109Y-61193976D01*
X57600115Y-61193981D01*
X57743302Y-61283952D01*
X57743305Y-61283954D01*
X57743309Y-61283955D01*
X57743310Y-61283956D01*
X57806231Y-61305973D01*
X57902943Y-61339814D01*
X58070997Y-61358749D01*
X58071000Y-61358749D01*
X58071003Y-61358749D01*
X58239056Y-61339814D01*
X58243117Y-61338393D01*
X58352839Y-61300000D01*
X69944901Y-61300000D01*
X69963252Y-61486331D01*
X69963253Y-61486333D01*
X70017604Y-61665502D01*
X70105862Y-61830623D01*
X70105864Y-61830626D01*
X70224642Y-61975357D01*
X70369373Y-62094135D01*
X70369376Y-62094137D01*
X70477164Y-62151750D01*
X70534499Y-62182396D01*
X70712242Y-62236314D01*
X70713666Y-62236746D01*
X70713668Y-62236747D01*
X70730374Y-62238392D01*
X70900000Y-62255099D01*
X71086331Y-62236747D01*
X71265501Y-62182396D01*
X71430625Y-62094136D01*
X71575357Y-61975357D01*
X71694136Y-61830625D01*
X71782396Y-61665501D01*
X71836747Y-61486331D01*
X71855099Y-61300000D01*
X71836747Y-61113669D01*
X71782396Y-60934499D01*
X71780631Y-60931197D01*
X71694137Y-60769376D01*
X71694135Y-60769373D01*
X71575357Y-60624642D01*
X71430626Y-60505864D01*
X71430623Y-60505862D01*
X71265502Y-60417604D01*
X71086333Y-60363253D01*
X71086331Y-60363252D01*
X70900000Y-60344901D01*
X70713668Y-60363252D01*
X70713666Y-60363253D01*
X70534497Y-60417604D01*
X70369376Y-60505862D01*
X70369373Y-60505864D01*
X70224642Y-60624642D01*
X70105864Y-60769373D01*
X70105862Y-60769376D01*
X70017604Y-60934497D01*
X69963253Y-61113666D01*
X69963252Y-61113668D01*
X69944901Y-61300000D01*
X58352839Y-61300000D01*
X58398690Y-61283956D01*
X58398692Y-61283954D01*
X58398694Y-61283954D01*
X58398697Y-61283952D01*
X58541884Y-61193981D01*
X58541885Y-61193980D01*
X58541890Y-61193977D01*
X58661477Y-61074390D01*
X58679136Y-61046286D01*
X58751452Y-60931197D01*
X58751454Y-60931194D01*
X58751454Y-60931192D01*
X58751456Y-60931190D01*
X58807313Y-60771559D01*
X58807313Y-60771558D01*
X58807314Y-60771556D01*
X58826249Y-60603502D01*
X58826249Y-60603497D01*
X58807314Y-60435443D01*
X58785094Y-60371943D01*
X58751456Y-60275810D01*
X58741016Y-60259195D01*
X58715506Y-60218595D01*
X58696500Y-60152623D01*
X58696500Y-59481138D01*
X58716185Y-59414099D01*
X58768989Y-59368344D01*
X58838147Y-59358400D01*
X58901703Y-59387425D01*
X58937542Y-59440184D01*
X58938471Y-59442840D01*
X58938472Y-59442844D01*
X58956420Y-59494136D01*
X58994329Y-59602477D01*
X58994332Y-59602482D01*
X59084303Y-59745669D01*
X59084308Y-59745675D01*
X59203894Y-59865261D01*
X59203900Y-59865266D01*
X59347087Y-59955237D01*
X59347090Y-59955239D01*
X59347094Y-59955240D01*
X59347095Y-59955241D01*
X59358138Y-59959105D01*
X59506728Y-60011099D01*
X59674782Y-60030034D01*
X59674785Y-60030034D01*
X59674788Y-60030034D01*
X59842841Y-60011099D01*
X59844716Y-60010443D01*
X60002475Y-59955241D01*
X60002477Y-59955239D01*
X60002479Y-59955239D01*
X60002482Y-59955237D01*
X60145669Y-59865266D01*
X60145670Y-59865265D01*
X60145675Y-59865262D01*
X60265262Y-59745675D01*
X60265266Y-59745669D01*
X60355237Y-59602482D01*
X60355239Y-59602479D01*
X60355239Y-59602477D01*
X60355241Y-59602475D01*
X60411098Y-59442844D01*
X60411098Y-59442843D01*
X60411099Y-59442841D01*
X60430034Y-59274790D01*
X60430034Y-59268299D01*
X60449719Y-59201260D01*
X60502523Y-59155505D01*
X60531804Y-59147392D01*
X60531674Y-59146819D01*
X60538459Y-59145270D01*
X60538461Y-59145269D01*
X60538463Y-59145269D01*
X60698094Y-59089412D01*
X60698097Y-59089409D01*
X60698101Y-59089408D01*
X60841288Y-58999437D01*
X60841289Y-58999436D01*
X60841294Y-58999433D01*
X60960881Y-58879846D01*
X60976431Y-58855099D01*
X61050856Y-58736653D01*
X61050858Y-58736650D01*
X61050858Y-58736648D01*
X61050860Y-58736646D01*
X61106717Y-58577015D01*
X61106717Y-58577014D01*
X61106718Y-58577012D01*
X61125653Y-58408958D01*
X61125653Y-58408953D01*
X61106718Y-58240899D01*
X61060242Y-58108078D01*
X61050860Y-58081266D01*
X61050859Y-58081265D01*
X61050858Y-58081261D01*
X61050856Y-58081258D01*
X60960885Y-57938071D01*
X60960880Y-57938065D01*
X60841294Y-57818479D01*
X60841288Y-57818474D01*
X60698101Y-57728503D01*
X60698098Y-57728501D01*
X60534745Y-57671342D01*
X60488019Y-57641981D01*
X56551646Y-53705608D01*
X56551626Y-53705586D01*
X56460183Y-53614143D01*
X56412792Y-53582478D01*
X56400420Y-53574211D01*
X56400421Y-53574211D01*
X56400419Y-53574209D01*
X56357738Y-53545690D01*
X56357734Y-53545688D01*
X56273631Y-53510852D01*
X56273629Y-53510850D01*
X56243906Y-53498539D01*
X56243902Y-53498537D01*
X56243900Y-53498537D01*
X56243896Y-53498536D01*
X56243892Y-53498535D01*
X56173504Y-53484534D01*
X56173503Y-53484534D01*
X56123059Y-53474500D01*
X56123055Y-53474500D01*
X56123054Y-53474500D01*
X51150876Y-53474500D01*
X51084904Y-53455494D01*
X51078466Y-53451449D01*
X51027690Y-53419544D01*
X50989370Y-53406135D01*
X50868056Y-53363685D01*
X50700003Y-53344751D01*
X50699997Y-53344751D01*
X50531943Y-53363685D01*
X50372305Y-53419545D01*
X50372302Y-53419547D01*
X50229112Y-53509520D01*
X50229110Y-53509522D01*
X50164785Y-53573846D01*
X50145998Y-53589264D01*
X50108768Y-53614141D01*
X50108764Y-53614144D01*
X49611645Y-54111264D01*
X49611639Y-54111272D01*
X49543190Y-54213709D01*
X49543185Y-54213718D01*
X49496040Y-54327538D01*
X49496035Y-54327555D01*
X49472000Y-54448388D01*
X40365528Y-54448388D01*
X41077098Y-53736819D01*
X41138421Y-53703334D01*
X41164779Y-53700500D01*
X44078844Y-53700500D01*
X44078845Y-53700499D01*
X44233497Y-53669737D01*
X44360877Y-53616975D01*
X44379172Y-53609397D01*
X44379172Y-53609396D01*
X44379179Y-53609394D01*
X44510289Y-53521789D01*
X45095259Y-52936819D01*
X45156582Y-52903334D01*
X45182940Y-52900500D01*
X46078844Y-52900500D01*
X46078845Y-52900499D01*
X46233497Y-52869737D01*
X46379179Y-52809394D01*
X46379183Y-52809390D01*
X46380603Y-52808803D01*
X46450072Y-52801334D01*
X46512552Y-52832609D01*
X46515737Y-52835683D01*
X46904181Y-53224127D01*
X46937666Y-53285450D01*
X46933542Y-53352762D01*
X46893475Y-53467268D01*
X46874540Y-53635323D01*
X46874540Y-53635328D01*
X46893474Y-53803382D01*
X46949334Y-53963020D01*
X46949336Y-53963023D01*
X47039307Y-54106210D01*
X47039312Y-54106216D01*
X47158898Y-54225802D01*
X47158904Y-54225807D01*
X47302091Y-54315778D01*
X47302094Y-54315780D01*
X47302098Y-54315781D01*
X47302099Y-54315782D01*
X47369553Y-54339385D01*
X47461732Y-54371640D01*
X47629786Y-54390575D01*
X47629789Y-54390575D01*
X47629792Y-54390575D01*
X47797845Y-54371640D01*
X47797848Y-54371639D01*
X47957479Y-54315782D01*
X47957481Y-54315780D01*
X47957483Y-54315780D01*
X47957486Y-54315778D01*
X48100673Y-54225807D01*
X48100674Y-54225806D01*
X48100679Y-54225803D01*
X48220266Y-54106216D01*
X48227554Y-54094618D01*
X48310241Y-53963023D01*
X48310243Y-53963020D01*
X48310243Y-53963018D01*
X48310245Y-53963016D01*
X48366102Y-53803385D01*
X48366102Y-53803384D01*
X48366103Y-53803382D01*
X48385038Y-53635328D01*
X48385038Y-53635323D01*
X48366103Y-53467269D01*
X48310244Y-53307634D01*
X48298287Y-53288604D01*
X48279282Y-53222634D01*
X48279282Y-52964710D01*
X48254284Y-52839043D01*
X48254283Y-52839042D01*
X48254283Y-52839038D01*
X48219840Y-52755886D01*
X48205248Y-52720656D01*
X48134059Y-52614113D01*
X48134054Y-52614107D01*
X46836819Y-51316872D01*
X46803334Y-51255549D01*
X46800500Y-51229191D01*
X46800500Y-50699999D01*
X49694785Y-50699999D01*
X49694785Y-50700000D01*
X49713602Y-50903082D01*
X49759213Y-51063385D01*
X49769415Y-51099241D01*
X49769419Y-51099253D01*
X49769420Y-51099255D01*
X49792063Y-51144729D01*
X49804324Y-51213514D01*
X49792063Y-51255271D01*
X49769420Y-51300744D01*
X49769419Y-51300746D01*
X49713602Y-51496917D01*
X49694785Y-51699999D01*
X49694785Y-51700000D01*
X49713602Y-51903082D01*
X49769417Y-52099247D01*
X49769422Y-52099260D01*
X49860327Y-52281821D01*
X49983237Y-52444581D01*
X50133958Y-52581980D01*
X50133960Y-52581982D01*
X50233141Y-52643392D01*
X50307363Y-52689348D01*
X50497544Y-52763024D01*
X50698024Y-52800500D01*
X50698026Y-52800500D01*
X50901974Y-52800500D01*
X50901976Y-52800500D01*
X51102456Y-52763024D01*
X51292637Y-52689348D01*
X51466041Y-52581981D01*
X51616764Y-52444579D01*
X51739673Y-52281821D01*
X51830582Y-52099250D01*
X51886397Y-51903083D01*
X51905215Y-51700000D01*
X51892844Y-51566498D01*
X51886397Y-51496917D01*
X51864747Y-51420827D01*
X51830582Y-51300750D01*
X51807935Y-51255270D01*
X51795675Y-51186487D01*
X51807936Y-51144728D01*
X51811694Y-51137181D01*
X51830582Y-51099250D01*
X51886397Y-50903083D01*
X51905215Y-50700000D01*
X51903545Y-50681982D01*
X51886397Y-50496917D01*
X51857874Y-50396671D01*
X51830582Y-50300750D01*
X51820379Y-50280260D01*
X51758382Y-50155752D01*
X51739673Y-50118179D01*
X51633974Y-49978211D01*
X51616762Y-49955418D01*
X51466041Y-49818019D01*
X51466039Y-49818017D01*
X51292642Y-49710655D01*
X51292635Y-49710651D01*
X51148504Y-49654815D01*
X51102456Y-49636976D01*
X50901976Y-49599500D01*
X50698024Y-49599500D01*
X50497544Y-49636976D01*
X50497541Y-49636976D01*
X50497541Y-49636977D01*
X50307364Y-49710651D01*
X50307357Y-49710655D01*
X50133960Y-49818017D01*
X50133958Y-49818019D01*
X49983237Y-49955418D01*
X49860327Y-50118178D01*
X49769422Y-50300739D01*
X49769417Y-50300752D01*
X49713602Y-50496917D01*
X49694785Y-50699999D01*
X46800500Y-50699999D01*
X46800500Y-50521155D01*
X46800499Y-50521153D01*
X46795678Y-50496917D01*
X46769737Y-50366503D01*
X46765147Y-50355421D01*
X46709397Y-50220827D01*
X46709390Y-50220814D01*
X46621789Y-50089711D01*
X46621786Y-50089707D01*
X46510292Y-49978213D01*
X46510288Y-49978210D01*
X46379185Y-49890609D01*
X46379172Y-49890602D01*
X46233501Y-49830264D01*
X46233489Y-49830261D01*
X46078845Y-49799500D01*
X46078842Y-49799500D01*
X45078842Y-49799500D01*
X44921158Y-49799500D01*
X44921155Y-49799500D01*
X44766510Y-49830261D01*
X44766498Y-49830264D01*
X44620827Y-49890602D01*
X44620814Y-49890609D01*
X44489711Y-49978210D01*
X44489707Y-49978213D01*
X44378213Y-50089707D01*
X44378210Y-50089711D01*
X44290609Y-50220814D01*
X44290602Y-50220827D01*
X44230264Y-50366498D01*
X44230261Y-50366510D01*
X44199500Y-50521153D01*
X44199500Y-50521158D01*
X44199500Y-50678842D01*
X44205168Y-50707336D01*
X44218787Y-50775810D01*
X44218787Y-50824190D01*
X44211063Y-50863024D01*
X44203418Y-50901463D01*
X44199500Y-50921159D01*
X44199500Y-51220234D01*
X44179815Y-51287273D01*
X44178602Y-51289125D01*
X44090609Y-51420814D01*
X44090602Y-51420827D01*
X44030264Y-51566498D01*
X44030261Y-51566510D01*
X43999500Y-51721153D01*
X43998903Y-51727218D01*
X43996584Y-51726989D01*
X43979815Y-51784099D01*
X43963181Y-51804741D01*
X43704741Y-52063181D01*
X43643418Y-52096666D01*
X43617060Y-52099500D01*
X40702992Y-52099500D01*
X40548349Y-52130260D01*
X40548341Y-52130262D01*
X40402663Y-52190604D01*
X40402653Y-52190609D01*
X40271550Y-52278210D01*
X40271546Y-52278213D01*
X37371241Y-55178520D01*
X37309918Y-55212005D01*
X37283560Y-55214839D01*
X37264524Y-55214839D01*
X37064044Y-55252315D01*
X37064041Y-55252315D01*
X37064041Y-55252316D01*
X36873864Y-55325990D01*
X36873857Y-55325994D01*
X36700460Y-55433356D01*
X36700458Y-55433358D01*
X36549737Y-55570757D01*
X36426827Y-55733517D01*
X36335922Y-55916078D01*
X36335917Y-55916091D01*
X36280102Y-56112256D01*
X36261285Y-56315338D01*
X32454998Y-56315338D01*
X32454998Y-52899999D01*
X34294785Y-52899999D01*
X34294785Y-52900000D01*
X34313602Y-53103082D01*
X34369417Y-53299247D01*
X34369422Y-53299260D01*
X34460327Y-53481821D01*
X34583237Y-53644581D01*
X34733958Y-53781980D01*
X34733960Y-53781982D01*
X34803776Y-53825210D01*
X34907363Y-53889348D01*
X35097544Y-53963024D01*
X35298024Y-54000500D01*
X35298026Y-54000500D01*
X35501974Y-54000500D01*
X35501976Y-54000500D01*
X35702456Y-53963024D01*
X35892637Y-53889348D01*
X36066041Y-53781981D01*
X36216764Y-53644579D01*
X36339673Y-53481821D01*
X36430582Y-53299250D01*
X36486397Y-53103083D01*
X36505215Y-52900000D01*
X36498970Y-52832609D01*
X36486397Y-52696917D01*
X36456757Y-52592746D01*
X36430582Y-52500750D01*
X36414666Y-52468787D01*
X36372435Y-52383975D01*
X36339673Y-52318179D01*
X36250806Y-52200500D01*
X36216762Y-52155418D01*
X36066041Y-52018019D01*
X36066039Y-52018017D01*
X35892642Y-51910655D01*
X35892635Y-51910651D01*
X35797546Y-51873814D01*
X35702456Y-51836976D01*
X35501976Y-51799500D01*
X35298024Y-51799500D01*
X35097544Y-51836976D01*
X35097541Y-51836976D01*
X35097541Y-51836977D01*
X34907364Y-51910651D01*
X34907357Y-51910655D01*
X34733960Y-52018017D01*
X34733958Y-52018019D01*
X34583237Y-52155418D01*
X34460327Y-52318178D01*
X34369422Y-52500739D01*
X34369417Y-52500752D01*
X34313602Y-52696917D01*
X34294785Y-52899999D01*
X32454998Y-52899999D01*
X32454998Y-49799999D01*
X34294785Y-49799999D01*
X34294785Y-49800000D01*
X34313602Y-50003082D01*
X34369417Y-50199247D01*
X34369422Y-50199260D01*
X34460327Y-50381821D01*
X34583237Y-50544581D01*
X34722638Y-50671660D01*
X34730513Y-50678840D01*
X34733958Y-50681980D01*
X34733960Y-50681982D01*
X34833141Y-50743392D01*
X34907363Y-50789348D01*
X35097544Y-50863024D01*
X35298024Y-50900500D01*
X35298026Y-50900500D01*
X35501974Y-50900500D01*
X35501976Y-50900500D01*
X35702456Y-50863024D01*
X35892637Y-50789348D01*
X36066041Y-50681981D01*
X36216764Y-50544579D01*
X36339673Y-50381821D01*
X36430582Y-50199250D01*
X36486397Y-50003083D01*
X36505215Y-49800000D01*
X36486397Y-49596917D01*
X36430582Y-49400750D01*
X36339673Y-49218179D01*
X36244896Y-49092674D01*
X36216762Y-49055418D01*
X36066041Y-48918019D01*
X36066039Y-48918017D01*
X35892642Y-48810655D01*
X35892635Y-48810651D01*
X35797546Y-48773814D01*
X35702456Y-48736976D01*
X35501976Y-48699500D01*
X35298024Y-48699500D01*
X35097544Y-48736976D01*
X35097541Y-48736976D01*
X35097541Y-48736977D01*
X34907364Y-48810651D01*
X34907357Y-48810655D01*
X34733960Y-48918017D01*
X34733958Y-48918019D01*
X34583237Y-49055418D01*
X34460327Y-49218178D01*
X34369422Y-49400739D01*
X34369417Y-49400752D01*
X34313602Y-49596917D01*
X34294785Y-49799999D01*
X32454998Y-49799999D01*
X32454998Y-41779997D01*
X36384751Y-41779997D01*
X36384751Y-41780002D01*
X36403686Y-41948057D01*
X36459541Y-42107683D01*
X36462215Y-42113234D01*
X36474500Y-42167047D01*
X36474500Y-44291175D01*
X36498537Y-44412021D01*
X36498538Y-44412024D01*
X36498539Y-44412029D01*
X36509416Y-44438286D01*
X36509416Y-44438288D01*
X36509417Y-44438288D01*
X36524772Y-44475358D01*
X36545688Y-44525855D01*
X36565329Y-44555249D01*
X36614140Y-44628300D01*
X36614141Y-44628301D01*
X36614142Y-44628302D01*
X36701267Y-44715427D01*
X36701268Y-44715427D01*
X36708335Y-44722494D01*
X36708334Y-44722494D01*
X36708338Y-44722497D01*
X38471694Y-46485855D01*
X38471698Y-46485858D01*
X38574143Y-46554310D01*
X38574142Y-46554310D01*
X38574144Y-46554311D01*
X38574146Y-46554312D01*
X38596780Y-46563687D01*
X38687979Y-46601463D01*
X38708028Y-46605451D01*
X38741627Y-46612134D01*
X38808823Y-46625501D01*
X38808825Y-46625501D01*
X38938152Y-46625501D01*
X38938172Y-46625500D01*
X58846574Y-46625500D01*
X58913613Y-46645185D01*
X58959368Y-46697989D01*
X58969312Y-46767147D01*
X58940287Y-46830703D01*
X58916430Y-46851950D01*
X58868689Y-46884500D01*
X58805520Y-46927567D01*
X58613198Y-47106014D01*
X58449614Y-47311143D01*
X58318432Y-47538356D01*
X58222582Y-47782578D01*
X58222576Y-47782597D01*
X58164197Y-48038374D01*
X58164196Y-48038379D01*
X58144592Y-48299995D01*
X58144592Y-48300004D01*
X58164196Y-48561620D01*
X58164197Y-48561625D01*
X58222576Y-48817402D01*
X58222578Y-48817411D01*
X58222580Y-48817416D01*
X58318432Y-49061643D01*
X58449614Y-49288857D01*
X58542396Y-49405202D01*
X58613198Y-49493985D01*
X58741892Y-49613394D01*
X58805521Y-49672433D01*
X59022296Y-49820228D01*
X59022301Y-49820230D01*
X59022302Y-49820231D01*
X59022303Y-49820232D01*
X59147843Y-49880688D01*
X59258673Y-49934061D01*
X59258674Y-49934061D01*
X59258677Y-49934063D01*
X59509385Y-50011396D01*
X59768818Y-50050500D01*
X60031182Y-50050500D01*
X60290615Y-50011396D01*
X60541323Y-49934063D01*
X60777704Y-49820228D01*
X60994479Y-49672433D01*
X61186805Y-49493981D01*
X61350386Y-49288857D01*
X61481568Y-49061643D01*
X61577420Y-48817416D01*
X61635802Y-48561630D01*
X61638757Y-48522197D01*
X61655408Y-48300004D01*
X61655408Y-48299995D01*
X61635803Y-48038379D01*
X61635802Y-48038374D01*
X61635802Y-48038370D01*
X61577420Y-47782584D01*
X61481568Y-47538357D01*
X61350386Y-47311143D01*
X61186805Y-47106019D01*
X61186804Y-47106018D01*
X61186801Y-47106014D01*
X60994479Y-46927567D01*
X60991446Y-46925499D01*
X60883572Y-46851951D01*
X60839272Y-46797925D01*
X60831213Y-46728521D01*
X60861956Y-46665779D01*
X60921740Y-46629617D01*
X60953426Y-46625500D01*
X71970496Y-46625500D01*
X72037535Y-46645185D01*
X72058177Y-46661819D01*
X72064015Y-46667657D01*
X72064019Y-46667660D01*
X72065629Y-46668672D01*
X72066445Y-46669595D01*
X72069462Y-46672001D01*
X72069040Y-46672529D01*
X72111917Y-46721009D01*
X72122872Y-46787540D01*
X72121469Y-46799997D01*
X72121469Y-46800002D01*
X72140403Y-46968056D01*
X72196263Y-47127694D01*
X72196265Y-47127697D01*
X72286236Y-47270884D01*
X72286241Y-47270890D01*
X72405827Y-47390476D01*
X72405833Y-47390481D01*
X72549020Y-47480452D01*
X72549023Y-47480454D01*
X72549027Y-47480455D01*
X72549028Y-47480456D01*
X72568496Y-47487268D01*
X72708661Y-47536314D01*
X72876715Y-47555249D01*
X72876718Y-47555249D01*
X72876721Y-47555249D01*
X73044777Y-47536313D01*
X73044779Y-47536313D01*
X73210981Y-47478156D01*
X73211403Y-47479362D01*
X73273158Y-47469187D01*
X73324004Y-47487268D01*
X73329108Y-47490475D01*
X73329110Y-47490477D01*
X73378177Y-47521308D01*
X73476952Y-47583374D01*
X73523243Y-47635709D01*
X73528020Y-47647412D01*
X73575792Y-47783936D01*
X73575797Y-47783947D01*
X73665768Y-47927134D01*
X73665773Y-47927140D01*
X73785359Y-48046726D01*
X73785365Y-48046731D01*
X73928552Y-48136702D01*
X73928555Y-48136704D01*
X73928559Y-48136705D01*
X73928560Y-48136706D01*
X74001163Y-48162110D01*
X74088193Y-48192564D01*
X74256247Y-48211499D01*
X74256250Y-48211499D01*
X74256253Y-48211499D01*
X74424306Y-48192564D01*
X74424309Y-48192563D01*
X74583940Y-48136706D01*
X74583942Y-48136704D01*
X74583944Y-48136704D01*
X74583947Y-48136702D01*
X74727134Y-48046731D01*
X74727135Y-48046730D01*
X74727140Y-48046727D01*
X74787819Y-47986048D01*
X74849142Y-47952563D01*
X74918834Y-47957547D01*
X74974767Y-47999419D01*
X74999184Y-48064883D01*
X74999500Y-48073729D01*
X74999500Y-48179075D01*
X74982887Y-48241075D01*
X74918750Y-48352163D01*
X74863504Y-48522192D01*
X74863503Y-48522194D01*
X74844815Y-48700000D01*
X74863503Y-48877805D01*
X74863504Y-48877807D01*
X74918747Y-49047829D01*
X74918750Y-49047835D01*
X75008141Y-49202665D01*
X75022110Y-49218179D01*
X75127764Y-49335521D01*
X75127767Y-49335523D01*
X75127770Y-49335526D01*
X75272407Y-49440612D01*
X75272414Y-49440615D01*
X75276736Y-49443111D01*
X75324953Y-49493677D01*
X75338178Y-49562283D01*
X75312212Y-49627149D01*
X75255299Y-49667679D01*
X75214739Y-49674500D01*
X74272038Y-49674500D01*
X74204999Y-49654815D01*
X74159244Y-49602011D01*
X74148717Y-49563462D01*
X74147355Y-49550500D01*
X74136497Y-49447197D01*
X74081250Y-49277165D01*
X73991859Y-49122335D01*
X73945003Y-49070296D01*
X73872235Y-48989478D01*
X73872232Y-48989476D01*
X73872231Y-48989475D01*
X73872230Y-48989474D01*
X73727593Y-48884388D01*
X73564267Y-48811671D01*
X73564265Y-48811670D01*
X73434984Y-48784191D01*
X73389391Y-48774500D01*
X73210609Y-48774500D01*
X73179954Y-48781015D01*
X73035733Y-48811670D01*
X73035728Y-48811672D01*
X72872408Y-48884387D01*
X72727768Y-48989475D01*
X72608140Y-49122336D01*
X72518750Y-49277164D01*
X72518747Y-49277170D01*
X72463504Y-49447192D01*
X72463503Y-49447195D01*
X72451283Y-49563462D01*
X72424698Y-49628077D01*
X72367400Y-49668061D01*
X72327962Y-49674500D01*
X69554505Y-49674500D01*
X69494087Y-49686518D01*
X69433664Y-49698537D01*
X69433662Y-49698537D01*
X69433661Y-49698538D01*
X69433659Y-49698538D01*
X69404415Y-49710652D01*
X69319829Y-49745688D01*
X69319824Y-49745690D01*
X69217388Y-49814138D01*
X69217380Y-49814144D01*
X69130255Y-49901270D01*
X68555083Y-50476441D01*
X68493760Y-50509926D01*
X68424068Y-50504942D01*
X68394520Y-50489080D01*
X68258353Y-50390148D01*
X68095027Y-50317431D01*
X68095025Y-50317430D01*
X67964177Y-50289618D01*
X67920151Y-50280260D01*
X67741369Y-50280260D01*
X67710714Y-50286775D01*
X67566493Y-50317430D01*
X67566488Y-50317432D01*
X67403168Y-50390147D01*
X67258528Y-50495235D01*
X67138900Y-50628096D01*
X67049510Y-50782924D01*
X67049507Y-50782930D01*
X66994264Y-50952952D01*
X66994263Y-50952954D01*
X66975575Y-51130760D01*
X66994263Y-51308565D01*
X66994264Y-51308567D01*
X67049507Y-51478589D01*
X67049510Y-51478595D01*
X67138900Y-51633424D01*
X67182970Y-51682368D01*
X67213201Y-51745360D01*
X67204576Y-51814695D01*
X67178502Y-51853022D01*
X65457679Y-53573846D01*
X63738770Y-55292755D01*
X63738767Y-55292758D01*
X63713921Y-55317604D01*
X63651644Y-55379880D01*
X63617987Y-55430250D01*
X63583188Y-55482330D01*
X63583187Y-55482332D01*
X63555356Y-55549523D01*
X63536039Y-55596156D01*
X63536035Y-55596171D01*
X63512000Y-55717005D01*
X63512000Y-58649123D01*
X63492994Y-58715095D01*
X63457045Y-58772307D01*
X63401185Y-58931943D01*
X63382251Y-59099997D01*
X63382251Y-59100002D01*
X63401185Y-59268056D01*
X63457045Y-59427694D01*
X63457047Y-59427697D01*
X63547018Y-59570884D01*
X63547023Y-59570890D01*
X63666609Y-59690476D01*
X63666615Y-59690481D01*
X63809802Y-59780452D01*
X63809805Y-59780454D01*
X63809809Y-59780455D01*
X63809810Y-59780456D01*
X63882413Y-59805860D01*
X63969443Y-59836314D01*
X64137497Y-59855249D01*
X64137500Y-59855249D01*
X64137503Y-59855249D01*
X64305556Y-59836314D01*
X64305559Y-59836313D01*
X64465190Y-59780456D01*
X64465192Y-59780454D01*
X64465194Y-59780454D01*
X64465197Y-59780452D01*
X64608384Y-59690481D01*
X64608385Y-59690480D01*
X64608390Y-59690477D01*
X64727977Y-59570890D01*
X64728250Y-59570456D01*
X64817952Y-59427697D01*
X64817954Y-59427694D01*
X64817954Y-59427692D01*
X64817956Y-59427690D01*
X64873813Y-59268059D01*
X64873813Y-59268058D01*
X64873814Y-59268056D01*
X64892749Y-59100002D01*
X64892749Y-59099997D01*
X64873814Y-58931943D01*
X64846925Y-58855099D01*
X64817956Y-58772310D01*
X64805042Y-58751758D01*
X64782006Y-58715095D01*
X64777657Y-58700000D01*
X65144901Y-58700000D01*
X65163253Y-58886330D01*
X65163253Y-58886331D01*
X65217604Y-59065502D01*
X65305862Y-59230623D01*
X65305864Y-59230626D01*
X65424642Y-59375357D01*
X65569373Y-59494135D01*
X65569376Y-59494137D01*
X65726935Y-59578353D01*
X65734499Y-59582396D01*
X65879273Y-59626313D01*
X65913666Y-59636746D01*
X65913668Y-59636747D01*
X65930374Y-59638392D01*
X66100000Y-59655099D01*
X66286331Y-59636747D01*
X66465501Y-59582396D01*
X66630625Y-59494136D01*
X66775357Y-59375357D01*
X66894136Y-59230625D01*
X66982396Y-59065501D01*
X67036747Y-58886331D01*
X67055099Y-58700000D01*
X67055099Y-58699999D01*
X67055099Y-58698392D01*
X67055337Y-58697580D01*
X67055696Y-58693938D01*
X67056386Y-58694006D01*
X67074784Y-58631353D01*
X67127588Y-58585598D01*
X67196746Y-58575654D01*
X67257764Y-58602539D01*
X67369373Y-58694135D01*
X67369376Y-58694137D01*
X67530907Y-58780476D01*
X67534499Y-58782396D01*
X67711055Y-58835954D01*
X67713666Y-58836746D01*
X67713668Y-58836747D01*
X67730374Y-58838392D01*
X67900000Y-58855099D01*
X68086331Y-58836747D01*
X68265501Y-58782396D01*
X68430625Y-58694136D01*
X68575357Y-58575357D01*
X68694136Y-58430625D01*
X68782396Y-58265501D01*
X68836747Y-58086331D01*
X68855099Y-57900000D01*
X68838208Y-57728500D01*
X68836747Y-57713668D01*
X68836746Y-57713666D01*
X68826672Y-57680456D01*
X68782396Y-57534499D01*
X68748397Y-57470890D01*
X68694137Y-57369376D01*
X68694135Y-57369373D01*
X68575357Y-57224642D01*
X68488034Y-57152978D01*
X70331672Y-57152978D01*
X70350023Y-57339310D01*
X70350024Y-57339312D01*
X70404375Y-57518481D01*
X70492633Y-57683602D01*
X70492635Y-57683605D01*
X70611413Y-57828336D01*
X70756144Y-57947114D01*
X70756147Y-57947116D01*
X70907472Y-58028000D01*
X70921270Y-58035375D01*
X71089255Y-58086333D01*
X71100437Y-58089725D01*
X71100439Y-58089726D01*
X71117145Y-58091371D01*
X71286771Y-58108078D01*
X71473102Y-58089726D01*
X71652272Y-58035375D01*
X71817396Y-57947115D01*
X71962128Y-57828336D01*
X72080907Y-57683604D01*
X72169167Y-57518480D01*
X72223518Y-57339310D01*
X72241870Y-57152979D01*
X72239849Y-57132454D01*
X72223518Y-56966647D01*
X72223517Y-56966645D01*
X72199779Y-56888393D01*
X72169167Y-56787478D01*
X72130213Y-56714599D01*
X72080908Y-56622355D01*
X72080906Y-56622352D01*
X71962128Y-56477621D01*
X71817397Y-56358843D01*
X71817394Y-56358841D01*
X71652273Y-56270583D01*
X71473104Y-56216232D01*
X71473102Y-56216231D01*
X71286771Y-56197880D01*
X71100439Y-56216231D01*
X71100437Y-56216232D01*
X70921268Y-56270583D01*
X70756147Y-56358841D01*
X70756144Y-56358843D01*
X70611413Y-56477621D01*
X70492635Y-56622352D01*
X70492633Y-56622355D01*
X70404375Y-56787476D01*
X70350024Y-56966645D01*
X70350023Y-56966647D01*
X70331672Y-57152978D01*
X68488034Y-57152978D01*
X68430626Y-57105864D01*
X68430623Y-57105862D01*
X68265502Y-57017604D01*
X68086333Y-56963253D01*
X68086331Y-56963252D01*
X67900000Y-56944901D01*
X67899998Y-56944901D01*
X67891423Y-56945745D01*
X67822777Y-56932721D01*
X67772070Y-56884653D01*
X67755401Y-56816801D01*
X67778061Y-56750708D01*
X67783409Y-56743694D01*
X67794136Y-56730625D01*
X67882396Y-56565501D01*
X67936747Y-56386331D01*
X67955099Y-56200000D01*
X67936747Y-56013669D01*
X67882396Y-55834499D01*
X67879214Y-55828546D01*
X67794137Y-55669376D01*
X67794135Y-55669373D01*
X67675357Y-55524642D01*
X67530626Y-55405864D01*
X67530623Y-55405862D01*
X67365502Y-55317604D01*
X67186333Y-55263253D01*
X67186331Y-55263252D01*
X67000000Y-55244901D01*
X66813668Y-55263252D01*
X66813666Y-55263253D01*
X66634497Y-55317604D01*
X66469376Y-55405862D01*
X66469373Y-55405864D01*
X66324642Y-55524642D01*
X66205864Y-55669373D01*
X66205862Y-55669376D01*
X66117604Y-55834497D01*
X66063253Y-56013666D01*
X66063252Y-56013668D01*
X66044901Y-56200000D01*
X66063252Y-56386331D01*
X66063253Y-56386333D01*
X66117604Y-56565502D01*
X66205862Y-56730623D01*
X66205864Y-56730626D01*
X66324642Y-56875357D01*
X66469373Y-56994135D01*
X66469376Y-56994137D01*
X66592445Y-57059918D01*
X66634499Y-57082396D01*
X66799517Y-57132454D01*
X66813666Y-57136746D01*
X66813668Y-57136747D01*
X66832020Y-57138554D01*
X67000000Y-57155099D01*
X67008567Y-57154255D01*
X67077213Y-57167274D01*
X67127924Y-57215338D01*
X67144599Y-57283189D01*
X67121943Y-57349284D01*
X67116575Y-57356323D01*
X67105865Y-57369373D01*
X67105862Y-57369376D01*
X67017604Y-57534497D01*
X66963253Y-57713666D01*
X66963252Y-57713668D01*
X66944901Y-57900000D01*
X66944901Y-57901607D01*
X66944662Y-57902417D01*
X66944304Y-57906062D01*
X66943612Y-57905993D01*
X66925216Y-57968646D01*
X66872412Y-58014401D01*
X66803254Y-58024345D01*
X66742236Y-57997460D01*
X66630626Y-57905865D01*
X66630623Y-57905862D01*
X66465502Y-57817604D01*
X66286333Y-57763253D01*
X66286331Y-57763252D01*
X66100000Y-57744901D01*
X65913668Y-57763252D01*
X65913666Y-57763253D01*
X65734497Y-57817604D01*
X65569376Y-57905862D01*
X65569373Y-57905864D01*
X65424642Y-58024642D01*
X65305864Y-58169373D01*
X65305862Y-58169376D01*
X65217604Y-58334497D01*
X65163253Y-58513666D01*
X65163252Y-58513668D01*
X65144901Y-58700000D01*
X64777657Y-58700000D01*
X64763000Y-58649123D01*
X64763000Y-56089068D01*
X64782685Y-56022029D01*
X64799319Y-56001387D01*
X69838887Y-50961819D01*
X69900210Y-50928334D01*
X69926568Y-50925500D01*
X71224530Y-50925500D01*
X71291569Y-50945185D01*
X71337324Y-50997989D01*
X71347750Y-51063385D01*
X71344751Y-51089999D01*
X71344751Y-51090002D01*
X71363685Y-51258055D01*
X71419545Y-51417694D01*
X71419547Y-51417697D01*
X71509518Y-51560884D01*
X71509523Y-51560890D01*
X71629109Y-51680476D01*
X71629115Y-51680481D01*
X71772302Y-51770452D01*
X71772305Y-51770454D01*
X71772309Y-51770455D01*
X71772310Y-51770456D01*
X71811300Y-51784099D01*
X71931943Y-51826314D01*
X72099997Y-51845249D01*
X72100000Y-51845249D01*
X72100003Y-51845249D01*
X72200835Y-51833887D01*
X72268059Y-51826313D01*
X72427690Y-51770456D01*
X72442026Y-51761447D01*
X72445117Y-51759506D01*
X72511088Y-51740500D01*
X74234192Y-51740500D01*
X74301231Y-51760185D01*
X74321873Y-51776819D01*
X77984554Y-55439499D01*
X78013914Y-55486225D01*
X78052042Y-55595189D01*
X78052043Y-55595191D01*
X78142018Y-55738384D01*
X78142023Y-55738390D01*
X78261609Y-55857976D01*
X78261615Y-55857981D01*
X78404802Y-55947952D01*
X78404807Y-55947955D01*
X78404810Y-55947956D01*
X78513772Y-55986083D01*
X78560498Y-56015443D01*
X78676993Y-56131938D01*
X78710478Y-56193261D01*
X78705494Y-56262953D01*
X78676993Y-56307300D01*
X75446113Y-59538181D01*
X75384790Y-59571666D01*
X75358432Y-59574500D01*
X75150876Y-59574500D01*
X75084904Y-59555494D01*
X75027692Y-59519545D01*
X75027691Y-59519544D01*
X75027690Y-59519544D01*
X74989370Y-59506135D01*
X74868056Y-59463685D01*
X74700003Y-59444751D01*
X74699997Y-59444751D01*
X74531942Y-59463686D01*
X74440454Y-59495699D01*
X74370675Y-59499260D01*
X74310048Y-59464531D01*
X74277821Y-59402538D01*
X74275500Y-59378657D01*
X74275500Y-56493395D01*
X74273311Y-56482391D01*
X74261367Y-56422342D01*
X74261367Y-56422341D01*
X74251464Y-56372555D01*
X74251463Y-56372548D01*
X74206096Y-56263024D01*
X74204312Y-56258716D01*
X74204307Y-56258707D01*
X74135859Y-56156268D01*
X74104590Y-56124999D01*
X74048733Y-56069142D01*
X74048732Y-56069141D01*
X73579591Y-55600000D01*
X74719901Y-55600000D01*
X74738252Y-55786331D01*
X74738253Y-55786333D01*
X74792604Y-55965502D01*
X74880862Y-56130623D01*
X74880864Y-56130626D01*
X74999642Y-56275357D01*
X75144373Y-56394135D01*
X75144376Y-56394137D01*
X75300567Y-56477622D01*
X75309499Y-56482396D01*
X75468000Y-56530477D01*
X75488666Y-56536746D01*
X75488668Y-56536747D01*
X75505374Y-56538392D01*
X75675000Y-56555099D01*
X75861331Y-56536747D01*
X76040501Y-56482396D01*
X76205625Y-56394136D01*
X76350357Y-56275357D01*
X76469136Y-56130625D01*
X76557396Y-55965501D01*
X76611747Y-55786331D01*
X76630099Y-55600000D01*
X76611747Y-55413669D01*
X76557396Y-55234499D01*
X76538956Y-55200000D01*
X76469137Y-55069376D01*
X76469135Y-55069373D01*
X76350357Y-54924642D01*
X76205626Y-54805864D01*
X76205623Y-54805862D01*
X76040502Y-54717604D01*
X75861333Y-54663253D01*
X75861331Y-54663252D01*
X75675000Y-54644901D01*
X75488668Y-54663252D01*
X75488666Y-54663253D01*
X75309497Y-54717604D01*
X75144376Y-54805862D01*
X75144373Y-54805864D01*
X74999642Y-54924642D01*
X74880864Y-55069373D01*
X74880862Y-55069376D01*
X74792604Y-55234497D01*
X74738253Y-55413666D01*
X74738252Y-55413668D01*
X74719901Y-55600000D01*
X73579591Y-55600000D01*
X72073671Y-54094081D01*
X72040187Y-54032759D01*
X72038134Y-54020298D01*
X72033813Y-53981941D01*
X71977956Y-53822310D01*
X71977953Y-53822305D01*
X71977952Y-53822302D01*
X71887981Y-53679115D01*
X71887976Y-53679109D01*
X71768390Y-53559523D01*
X71768384Y-53559518D01*
X71625197Y-53469547D01*
X71625194Y-53469545D01*
X71465556Y-53413685D01*
X71297503Y-53394751D01*
X71297497Y-53394751D01*
X71129443Y-53413685D01*
X70969805Y-53469545D01*
X70969802Y-53469547D01*
X70826615Y-53559518D01*
X70826609Y-53559523D01*
X70707023Y-53679109D01*
X70707018Y-53679115D01*
X70617047Y-53822302D01*
X70617045Y-53822305D01*
X70561185Y-53981943D01*
X70542251Y-54149997D01*
X70542251Y-54150002D01*
X70561185Y-54318056D01*
X70617045Y-54477694D01*
X70617047Y-54477697D01*
X70707018Y-54620884D01*
X70707023Y-54620890D01*
X70826609Y-54740476D01*
X70826615Y-54740481D01*
X70969802Y-54830452D01*
X70969807Y-54830455D01*
X70969810Y-54830456D01*
X71052399Y-54859355D01*
X71099125Y-54888715D01*
X72988181Y-56777771D01*
X73021666Y-56839094D01*
X73024500Y-56865452D01*
X73024500Y-60811611D01*
X73027980Y-60829103D01*
X73027981Y-60829109D01*
X73048535Y-60932444D01*
X73048538Y-60932454D01*
X73056920Y-60952690D01*
X73056920Y-60952691D01*
X73095685Y-61046281D01*
X73095687Y-61046284D01*
X73114833Y-61074937D01*
X73114834Y-61074939D01*
X73164141Y-61148732D01*
X73164144Y-61148736D01*
X73255586Y-61240178D01*
X73255608Y-61240198D01*
X76091691Y-64076281D01*
X76125176Y-64137604D01*
X76120192Y-64207296D01*
X76109004Y-64229934D01*
X76019545Y-64372307D01*
X75963685Y-64531943D01*
X75944751Y-64699997D01*
X75944751Y-64700002D01*
X75963685Y-64868056D01*
X76019545Y-65027694D01*
X76019547Y-65027697D01*
X76109518Y-65170884D01*
X76109523Y-65170890D01*
X76229109Y-65290476D01*
X76229115Y-65290481D01*
X76372302Y-65380452D01*
X76372305Y-65380454D01*
X76372309Y-65380455D01*
X76372310Y-65380456D01*
X76402509Y-65391023D01*
X76531943Y-65436314D01*
X76699997Y-65455249D01*
X76700000Y-65455249D01*
X76700003Y-65455249D01*
X76868056Y-65436314D01*
X76868059Y-65436313D01*
X77027690Y-65380456D01*
X77170064Y-65290995D01*
X77237301Y-65271995D01*
X77304136Y-65292362D01*
X77323718Y-65308308D01*
X78133025Y-66117615D01*
X78162386Y-66164341D01*
X78219545Y-66327694D01*
X78219547Y-66327697D01*
X78309518Y-66470884D01*
X78309523Y-66470890D01*
X78429109Y-66590476D01*
X78429115Y-66590481D01*
X78572302Y-66680452D01*
X78572305Y-66680454D01*
X78572309Y-66680455D01*
X78572310Y-66680456D01*
X78600946Y-66690476D01*
X78731943Y-66736314D01*
X78899997Y-66755249D01*
X78900000Y-66755249D01*
X78900003Y-66755249D01*
X79068056Y-66736314D01*
X79068059Y-66736313D01*
X79227690Y-66680456D01*
X79227692Y-66680454D01*
X79227694Y-66680454D01*
X79227697Y-66680452D01*
X79370884Y-66590481D01*
X79370885Y-66590480D01*
X79370890Y-66590477D01*
X79490477Y-66470890D01*
X79535542Y-66399170D01*
X79580452Y-66327697D01*
X79580454Y-66327694D01*
X79580454Y-66327692D01*
X79580456Y-66327690D01*
X79636313Y-66168059D01*
X79636313Y-66168058D01*
X79636314Y-66168056D01*
X79655249Y-66000002D01*
X79655249Y-65999997D01*
X79636314Y-65831943D01*
X79593872Y-65710651D01*
X79580456Y-65672310D01*
X79580455Y-65672309D01*
X79580454Y-65672305D01*
X79580452Y-65672302D01*
X79490481Y-65529115D01*
X79490476Y-65529109D01*
X79370890Y-65409523D01*
X79370884Y-65409518D01*
X79227697Y-65319547D01*
X79227694Y-65319545D01*
X79064341Y-65262386D01*
X79017615Y-65233025D01*
X76972087Y-63187497D01*
X78244751Y-63187497D01*
X78244751Y-63187502D01*
X78263685Y-63355556D01*
X78319545Y-63515194D01*
X78319547Y-63515197D01*
X78409518Y-63658384D01*
X78409523Y-63658390D01*
X78529109Y-63777976D01*
X78529115Y-63777981D01*
X78672302Y-63867952D01*
X78672305Y-63867954D01*
X78672309Y-63867955D01*
X78672310Y-63867956D01*
X78744913Y-63893360D01*
X78831943Y-63923814D01*
X78999997Y-63942749D01*
X79000000Y-63942749D01*
X79000003Y-63942749D01*
X79168056Y-63923814D01*
X79177158Y-63920629D01*
X79327690Y-63867956D01*
X79384904Y-63832005D01*
X79450876Y-63813000D01*
X81974108Y-63813000D01*
X81974108Y-63812999D01*
X82036950Y-63800500D01*
X82036952Y-63800500D01*
X82094942Y-63788965D01*
X82094942Y-63788964D01*
X82094952Y-63788963D01*
X82128292Y-63775152D01*
X82208786Y-63741812D01*
X82260009Y-63707584D01*
X82311233Y-63673358D01*
X82398358Y-63586233D01*
X82398358Y-63586231D01*
X82408566Y-63576024D01*
X82408567Y-63576021D01*
X85924530Y-60060059D01*
X85985851Y-60026576D01*
X86055543Y-60031560D01*
X86103926Y-60066638D01*
X86104599Y-60065966D01*
X86108815Y-60070182D01*
X86109157Y-60070430D01*
X86109519Y-60070884D01*
X86109523Y-60070890D01*
X86109527Y-60070894D01*
X86229109Y-60190476D01*
X86229115Y-60190481D01*
X86372302Y-60280452D01*
X86372307Y-60280455D01*
X86372310Y-60280456D01*
X86454680Y-60309278D01*
X86511456Y-60350000D01*
X86537204Y-60414952D01*
X86523748Y-60483514D01*
X86501407Y-60514001D01*
X82976270Y-64039139D01*
X82889144Y-64126264D01*
X82889138Y-64126272D01*
X82820690Y-64228708D01*
X82820688Y-64228713D01*
X82791472Y-64299248D01*
X82773538Y-64342543D01*
X82773538Y-64342545D01*
X82773537Y-64342548D01*
X82749528Y-64463253D01*
X82749500Y-64463396D01*
X82749500Y-65649123D01*
X82730494Y-65715095D01*
X82694545Y-65772307D01*
X82638685Y-65931943D01*
X82619751Y-66099997D01*
X82619751Y-66100002D01*
X82638685Y-66268056D01*
X82694545Y-66427694D01*
X82694547Y-66427697D01*
X82784518Y-66570884D01*
X82784523Y-66570890D01*
X82904109Y-66690476D01*
X82904115Y-66690481D01*
X83047302Y-66780452D01*
X83047305Y-66780454D01*
X83047309Y-66780455D01*
X83047310Y-66780456D01*
X83119913Y-66805860D01*
X83206943Y-66836314D01*
X83374997Y-66855249D01*
X83375000Y-66855249D01*
X83375003Y-66855249D01*
X83543056Y-66836314D01*
X83624573Y-66807790D01*
X83702690Y-66780456D01*
X83702692Y-66780454D01*
X83702694Y-66780454D01*
X83702697Y-66780452D01*
X83845884Y-66690481D01*
X83845885Y-66690480D01*
X83845890Y-66690477D01*
X83965477Y-66570890D01*
X84021082Y-66482396D01*
X84055452Y-66427697D01*
X84055454Y-66427694D01*
X84055454Y-66427692D01*
X84055456Y-66427690D01*
X84111313Y-66268059D01*
X84111313Y-66268058D01*
X84111314Y-66268056D01*
X84130249Y-66100002D01*
X84130249Y-66099997D01*
X84111314Y-65931943D01*
X84095829Y-65887691D01*
X84055456Y-65772310D01*
X84037528Y-65743778D01*
X84019506Y-65715095D01*
X84000500Y-65649123D01*
X84000500Y-65600000D01*
X84544901Y-65600000D01*
X84563252Y-65786331D01*
X84563253Y-65786333D01*
X84617604Y-65965502D01*
X84705862Y-66130623D01*
X84705864Y-66130626D01*
X84824642Y-66275357D01*
X84969373Y-66394135D01*
X84969376Y-66394137D01*
X85134497Y-66482395D01*
X85134499Y-66482396D01*
X85313666Y-66536746D01*
X85313668Y-66536747D01*
X85330374Y-66538392D01*
X85500000Y-66555099D01*
X85686331Y-66536747D01*
X85865501Y-66482396D01*
X86030625Y-66394136D01*
X86175357Y-66275357D01*
X86294136Y-66130625D01*
X86382396Y-65965501D01*
X86436747Y-65786331D01*
X86455099Y-65600000D01*
X86436747Y-65413669D01*
X86382396Y-65234499D01*
X86359800Y-65192225D01*
X86294137Y-65069376D01*
X86294135Y-65069373D01*
X86175357Y-64924642D01*
X86030626Y-64805864D01*
X86030623Y-64805862D01*
X85865502Y-64717604D01*
X85686333Y-64663253D01*
X85686331Y-64663252D01*
X85500000Y-64644901D01*
X85313668Y-64663252D01*
X85313666Y-64663253D01*
X85134497Y-64717604D01*
X84969376Y-64805862D01*
X84969373Y-64805864D01*
X84824642Y-64924642D01*
X84705864Y-65069373D01*
X84705862Y-65069376D01*
X84617604Y-65234497D01*
X84563253Y-65413666D01*
X84563252Y-65413668D01*
X84544901Y-65600000D01*
X84000500Y-65600000D01*
X84000500Y-64835451D01*
X84020185Y-64768412D01*
X84036814Y-64747775D01*
X85970092Y-62814497D01*
X96244751Y-62814497D01*
X96244751Y-62814502D01*
X96263686Y-62982557D01*
X96319543Y-63142190D01*
X96355493Y-63199402D01*
X96374500Y-63265375D01*
X96374500Y-64277623D01*
X96355494Y-64343595D01*
X96319545Y-64400807D01*
X96263685Y-64560443D01*
X96244751Y-64728497D01*
X96244751Y-64728502D01*
X96263685Y-64896556D01*
X96319545Y-65056194D01*
X96319547Y-65056197D01*
X96409518Y-65199384D01*
X96409523Y-65199390D01*
X96529109Y-65318976D01*
X96529115Y-65318981D01*
X96672302Y-65408952D01*
X96672305Y-65408954D01*
X96672309Y-65408955D01*
X96672310Y-65408956D01*
X96744913Y-65434360D01*
X96831943Y-65464814D01*
X96999997Y-65483749D01*
X97000000Y-65483749D01*
X97000003Y-65483749D01*
X97168056Y-65464814D01*
X97221892Y-65445976D01*
X97327690Y-65408956D01*
X97327692Y-65408954D01*
X97327694Y-65408954D01*
X97327697Y-65408952D01*
X97470884Y-65318981D01*
X97470885Y-65318980D01*
X97470890Y-65318977D01*
X97590477Y-65199390D01*
X97590481Y-65199384D01*
X97680452Y-65056197D01*
X97680454Y-65056194D01*
X97680454Y-65056192D01*
X97680456Y-65056190D01*
X97736313Y-64896559D01*
X97736313Y-64896558D01*
X97736314Y-64896556D01*
X97755249Y-64728502D01*
X97755249Y-64728497D01*
X97736314Y-64560443D01*
X97721324Y-64517604D01*
X97680456Y-64400810D01*
X97662548Y-64372310D01*
X97644506Y-64343595D01*
X97625500Y-64277623D01*
X97625500Y-63265375D01*
X97644507Y-63199402D01*
X97680456Y-63142190D01*
X97689059Y-63117604D01*
X97736313Y-62982559D01*
X97750145Y-62859802D01*
X97755249Y-62814502D01*
X97755249Y-62814497D01*
X97736314Y-62646443D01*
X97701714Y-62547563D01*
X97680456Y-62486810D01*
X97680455Y-62486809D01*
X97680454Y-62486805D01*
X97680452Y-62486802D01*
X97590481Y-62343615D01*
X97590476Y-62343609D01*
X97470890Y-62224023D01*
X97470884Y-62224018D01*
X97327697Y-62134047D01*
X97327694Y-62134045D01*
X97168056Y-62078185D01*
X97000003Y-62059251D01*
X96999997Y-62059251D01*
X96831943Y-62078185D01*
X96672305Y-62134045D01*
X96672302Y-62134047D01*
X96529115Y-62224018D01*
X96529109Y-62224023D01*
X96409523Y-62343609D01*
X96409518Y-62343615D01*
X96319547Y-62486802D01*
X96319545Y-62486805D01*
X96263685Y-62646443D01*
X96244751Y-62814497D01*
X85970092Y-62814497D01*
X88606091Y-60178497D01*
X96023251Y-60178497D01*
X96023251Y-60178502D01*
X96042185Y-60346556D01*
X96098045Y-60506194D01*
X96098047Y-60506197D01*
X96188018Y-60649384D01*
X96188023Y-60649390D01*
X96307609Y-60768976D01*
X96307615Y-60768981D01*
X96450802Y-60858952D01*
X96450805Y-60858954D01*
X96450809Y-60858955D01*
X96450810Y-60858956D01*
X96512254Y-60880456D01*
X96610443Y-60914814D01*
X96778497Y-60933749D01*
X96778500Y-60933749D01*
X96778503Y-60933749D01*
X96946556Y-60914814D01*
X96962377Y-60909278D01*
X97106190Y-60858956D01*
X97106192Y-60858954D01*
X97106194Y-60858954D01*
X97106197Y-60858952D01*
X97249384Y-60768981D01*
X97249384Y-60768980D01*
X97249390Y-60768977D01*
X97368977Y-60649390D01*
X97375537Y-60638948D01*
X97392844Y-60617244D01*
X97414857Y-60595233D01*
X97483312Y-60492785D01*
X97530463Y-60378951D01*
X97537866Y-60341730D01*
X97570250Y-60279822D01*
X97618529Y-60248881D01*
X97681190Y-60226956D01*
X97681193Y-60226953D01*
X97681197Y-60226952D01*
X97824384Y-60136981D01*
X97824385Y-60136980D01*
X97824390Y-60136977D01*
X97943977Y-60017390D01*
X97948342Y-60010443D01*
X98033952Y-59874197D01*
X98033955Y-59874192D01*
X98035509Y-59869751D01*
X98089813Y-59714559D01*
X98089813Y-59714553D01*
X98091112Y-59710843D01*
X98120474Y-59664115D01*
X98129491Y-59655099D01*
X98163169Y-59621421D01*
X98197773Y-59586818D01*
X98259096Y-59553333D01*
X98285453Y-59550500D01*
X102634885Y-59550500D01*
X102701924Y-59570185D01*
X102747679Y-59622989D01*
X102758105Y-59660617D01*
X102768093Y-59749273D01*
X102823953Y-59908911D01*
X102855493Y-59959105D01*
X102874500Y-60025078D01*
X102874500Y-61461611D01*
X102898535Y-61582444D01*
X102898540Y-61582461D01*
X102945685Y-61696281D01*
X102945691Y-61696292D01*
X102979694Y-61747178D01*
X102979695Y-61747182D01*
X102979696Y-61747182D01*
X103014138Y-61798728D01*
X103014139Y-61798729D01*
X103014142Y-61798733D01*
X103101267Y-61885858D01*
X103101269Y-61885859D01*
X103108335Y-61892925D01*
X103108334Y-61892925D01*
X103108338Y-61892928D01*
X103184979Y-61969569D01*
X103218464Y-62030892D01*
X103213480Y-62100584D01*
X103184980Y-62144930D01*
X103148635Y-62181275D01*
X103148629Y-62181282D01*
X103058658Y-62324469D01*
X103058656Y-62324472D01*
X103002796Y-62484110D01*
X102983862Y-62652164D01*
X102983862Y-62652169D01*
X103002796Y-62820223D01*
X103058656Y-62979861D01*
X103058658Y-62979864D01*
X103148629Y-63123051D01*
X103148634Y-63123057D01*
X103268220Y-63242643D01*
X103268226Y-63242648D01*
X103411413Y-63332619D01*
X103411416Y-63332621D01*
X103411420Y-63332622D01*
X103411421Y-63332623D01*
X103476566Y-63355418D01*
X103571054Y-63388481D01*
X103739108Y-63407416D01*
X103739111Y-63407416D01*
X103739114Y-63407416D01*
X103907170Y-63388480D01*
X103907171Y-63388480D01*
X104001262Y-63355556D01*
X104048147Y-63339149D01*
X104117925Y-63335587D01*
X104178553Y-63370316D01*
X104210781Y-63432309D01*
X104206144Y-63497145D01*
X104156186Y-63639918D01*
X104137251Y-63807973D01*
X104137251Y-63807978D01*
X104156186Y-63976033D01*
X104212043Y-64135666D01*
X104247993Y-64192878D01*
X104267000Y-64258851D01*
X104267000Y-65254111D01*
X104291035Y-65374944D01*
X104291040Y-65374961D01*
X104338185Y-65488780D01*
X104338187Y-65488783D01*
X104338188Y-65488786D01*
X104365132Y-65529110D01*
X104372414Y-65540007D01*
X104372415Y-65540009D01*
X104406640Y-65591231D01*
X104406641Y-65591232D01*
X104406642Y-65591233D01*
X104493767Y-65678358D01*
X104493768Y-65678358D01*
X104500835Y-65685425D01*
X104500834Y-65685425D01*
X104500838Y-65685428D01*
X108688350Y-69872941D01*
X108721835Y-69934264D01*
X108716851Y-70003956D01*
X108711670Y-70015891D01*
X108669420Y-70100743D01*
X108669419Y-70100746D01*
X108613602Y-70296917D01*
X108594785Y-70499999D01*
X108594785Y-70500000D01*
X108613602Y-70703082D01*
X108669417Y-70899247D01*
X108669422Y-70899260D01*
X108760327Y-71081821D01*
X108883237Y-71244581D01*
X109033958Y-71381980D01*
X109033960Y-71381982D01*
X109071583Y-71405277D01*
X109207363Y-71489348D01*
X109397544Y-71563024D01*
X109598024Y-71600500D01*
X109598026Y-71600500D01*
X109801974Y-71600500D01*
X109801976Y-71600500D01*
X110002456Y-71563024D01*
X110192637Y-71489348D01*
X110366041Y-71381981D01*
X110516764Y-71244579D01*
X110639673Y-71081821D01*
X110730582Y-70899250D01*
X110786397Y-70703083D01*
X110798340Y-70574186D01*
X110824126Y-70509249D01*
X110834122Y-70497954D01*
X117611789Y-63720289D01*
X117699394Y-63589179D01*
X117702376Y-63581981D01*
X117737515Y-63497145D01*
X117759737Y-63443497D01*
X117790500Y-63288842D01*
X117790500Y-63207676D01*
X117810185Y-63140637D01*
X117815539Y-63132958D01*
X117929673Y-62981821D01*
X118020582Y-62799250D01*
X118076397Y-62603083D01*
X118095215Y-62400000D01*
X118088216Y-62324472D01*
X118076397Y-62196917D01*
X118049882Y-62103727D01*
X118020582Y-62000750D01*
X118019840Y-61999260D01*
X117963344Y-61885800D01*
X117951083Y-61817014D01*
X117977956Y-61752519D01*
X118035432Y-61712792D01*
X118105262Y-61710444D01*
X118119138Y-61714902D01*
X118202461Y-61747181D01*
X118217544Y-61753024D01*
X118418024Y-61790500D01*
X118418026Y-61790500D01*
X118621974Y-61790500D01*
X118621976Y-61790500D01*
X118822456Y-61753024D01*
X119012637Y-61679348D01*
X119186041Y-61571981D01*
X119336764Y-61434579D01*
X119459673Y-61271821D01*
X119550582Y-61089250D01*
X119606397Y-60893083D01*
X119625215Y-60690000D01*
X119621451Y-60649384D01*
X119606397Y-60486917D01*
X119591751Y-60435443D01*
X119550582Y-60290750D01*
X119549092Y-60287758D01*
X119481803Y-60152623D01*
X119459673Y-60108179D01*
X119363337Y-59980609D01*
X119336762Y-59945418D01*
X119186041Y-59808019D01*
X119186039Y-59808017D01*
X119012642Y-59700655D01*
X119012635Y-59700651D01*
X118894784Y-59654996D01*
X118822456Y-59626976D01*
X118621976Y-59589500D01*
X118418024Y-59589500D01*
X118217544Y-59626976D01*
X118217542Y-59626976D01*
X118217540Y-59626977D01*
X118162580Y-59648269D01*
X118092956Y-59654131D01*
X118031216Y-59621421D01*
X117996961Y-59560524D01*
X118001068Y-59490775D01*
X118006786Y-59477370D01*
X118023980Y-59442841D01*
X118070582Y-59349250D01*
X118126397Y-59153083D01*
X118145215Y-58950000D01*
X118144411Y-58941328D01*
X118126397Y-58746917D01*
X118125852Y-58745003D01*
X118070582Y-58550750D01*
X118061910Y-58533335D01*
X117995886Y-58400739D01*
X117979673Y-58368179D01*
X117873068Y-58227011D01*
X117856762Y-58205418D01*
X117706041Y-58068019D01*
X117706039Y-58068017D01*
X117532642Y-57960655D01*
X117532635Y-57960651D01*
X117391212Y-57905864D01*
X117342456Y-57886976D01*
X117141976Y-57849500D01*
X116938024Y-57849500D01*
X116737544Y-57886976D01*
X116737541Y-57886976D01*
X116737541Y-57886977D01*
X116547364Y-57960651D01*
X116547357Y-57960655D01*
X116373962Y-58068016D01*
X116373959Y-58068019D01*
X116320077Y-58117138D01*
X116257276Y-58147754D01*
X116236541Y-58149500D01*
X113832940Y-58149500D01*
X113765901Y-58129815D01*
X113745259Y-58113181D01*
X110834130Y-55202052D01*
X110800645Y-55140729D01*
X110798340Y-55125812D01*
X110786397Y-54996917D01*
X110730582Y-54800750D01*
X110718666Y-54776820D01*
X110672799Y-54684706D01*
X110639673Y-54618179D01*
X110533581Y-54477690D01*
X110516762Y-54455418D01*
X110366041Y-54318019D01*
X110366039Y-54318017D01*
X110192642Y-54210655D01*
X110192635Y-54210651D01*
X110036067Y-54149997D01*
X110002456Y-54136976D01*
X109801976Y-54099500D01*
X109598024Y-54099500D01*
X109397544Y-54136976D01*
X109397541Y-54136976D01*
X109397541Y-54136977D01*
X109207364Y-54210651D01*
X109207357Y-54210655D01*
X109033960Y-54318017D01*
X109033958Y-54318019D01*
X108883237Y-54455418D01*
X108760327Y-54618178D01*
X108669422Y-54800739D01*
X108669417Y-54800752D01*
X108613602Y-54996917D01*
X108594785Y-55199999D01*
X108594785Y-55200000D01*
X108613602Y-55403082D01*
X108669417Y-55599247D01*
X108669422Y-55599260D01*
X108760327Y-55781821D01*
X108883237Y-55944581D01*
X109033958Y-56081980D01*
X109033960Y-56081982D01*
X109114642Y-56131938D01*
X109207363Y-56189348D01*
X109397544Y-56263024D01*
X109598024Y-56300500D01*
X109617060Y-56300500D01*
X109684099Y-56320185D01*
X109704741Y-56336819D01*
X112828211Y-59460289D01*
X112887466Y-59519544D01*
X112939712Y-59571790D01*
X113075316Y-59662398D01*
X113120121Y-59716010D01*
X113128828Y-59785335D01*
X113098674Y-59848363D01*
X113039230Y-59885082D01*
X113006425Y-59889500D01*
X111831155Y-59889500D01*
X111742270Y-59907181D01*
X111742269Y-59907181D01*
X111676510Y-59920261D01*
X111676498Y-59920264D01*
X111530827Y-59980602D01*
X111530815Y-59980609D01*
X111423811Y-60052108D01*
X111423810Y-60052109D01*
X111399708Y-60068212D01*
X111399707Y-60068213D01*
X110634779Y-60833142D01*
X110573456Y-60866627D01*
X110503764Y-60861643D01*
X110447831Y-60819771D01*
X110423414Y-60754307D01*
X110428637Y-60715162D01*
X110427264Y-60714849D01*
X110428813Y-60708059D01*
X110447749Y-60540002D01*
X110447749Y-60539997D01*
X110428814Y-60371943D01*
X110372954Y-60212305D01*
X110372952Y-60212302D01*
X110282981Y-60069115D01*
X110282976Y-60069109D01*
X110163389Y-59949522D01*
X110045387Y-59875376D01*
X110023678Y-59858063D01*
X108698952Y-58533338D01*
X108698949Y-58533334D01*
X108698949Y-58533335D01*
X108691882Y-58526268D01*
X108691882Y-58526267D01*
X108604757Y-58439142D01*
X108552377Y-58404143D01*
X108552378Y-58404143D01*
X108552376Y-58404141D01*
X108502314Y-58370690D01*
X108502310Y-58370688D01*
X108469763Y-58357207D01*
X108412048Y-58333301D01*
X108388477Y-58323537D01*
X108378451Y-58321543D01*
X108328053Y-58311518D01*
X108315258Y-58308973D01*
X108267634Y-58299500D01*
X108267631Y-58299500D01*
X108267630Y-58299500D01*
X98900568Y-58299500D01*
X98833529Y-58279815D01*
X98787774Y-58227011D01*
X98777830Y-58157853D01*
X98806855Y-58094297D01*
X98812887Y-58087819D01*
X101816740Y-55083966D01*
X103189648Y-55083966D01*
X103189648Y-55083967D01*
X103208465Y-55287049D01*
X103264280Y-55483214D01*
X103264285Y-55483227D01*
X103355190Y-55665788D01*
X103478096Y-55828543D01*
X103481294Y-55832050D01*
X103511912Y-55894854D01*
X103513129Y-55927031D01*
X103494785Y-56124999D01*
X103494785Y-56125000D01*
X103513602Y-56328082D01*
X103569417Y-56524247D01*
X103569422Y-56524260D01*
X103660327Y-56706821D01*
X103783237Y-56869581D01*
X103933958Y-57006980D01*
X103933960Y-57006982D01*
X104019455Y-57059918D01*
X104107363Y-57114348D01*
X104297544Y-57188024D01*
X104498024Y-57225500D01*
X104498026Y-57225500D01*
X104701974Y-57225500D01*
X104701976Y-57225500D01*
X104902456Y-57188024D01*
X105092637Y-57114348D01*
X105266041Y-57006981D01*
X105416764Y-56869579D01*
X105539673Y-56706821D01*
X105630582Y-56524250D01*
X105686397Y-56328083D01*
X105705215Y-56125000D01*
X105701885Y-56089068D01*
X105686397Y-55921917D01*
X105661524Y-55834499D01*
X105630582Y-55725750D01*
X105539673Y-55543179D01*
X105416764Y-55380421D01*
X105416761Y-55380417D01*
X105413569Y-55376916D01*
X105382950Y-55314113D01*
X105381733Y-55281942D01*
X105400078Y-55083967D01*
X105398256Y-55064309D01*
X105381260Y-54880884D01*
X105374633Y-54857593D01*
X105325445Y-54684717D01*
X105314757Y-54663253D01*
X105260392Y-54554073D01*
X105234536Y-54502146D01*
X105111627Y-54339388D01*
X105111625Y-54339385D01*
X104960904Y-54201986D01*
X104960902Y-54201984D01*
X104787505Y-54094622D01*
X104787498Y-54094618D01*
X104663576Y-54046611D01*
X104597319Y-54020943D01*
X104396839Y-53983467D01*
X104192887Y-53983467D01*
X103992407Y-54020943D01*
X103992404Y-54020943D01*
X103992404Y-54020944D01*
X103802227Y-54094618D01*
X103802220Y-54094622D01*
X103628823Y-54201984D01*
X103628821Y-54201986D01*
X103478100Y-54339385D01*
X103355190Y-54502145D01*
X103264285Y-54684706D01*
X103264280Y-54684719D01*
X103208465Y-54880884D01*
X103189648Y-55083966D01*
X101816740Y-55083966D01*
X103247411Y-53653295D01*
X103308734Y-53619810D01*
X103335092Y-53616976D01*
X109049124Y-53616976D01*
X109115095Y-53635981D01*
X109172310Y-53671932D01*
X109276899Y-53708529D01*
X109331943Y-53727790D01*
X109499997Y-53746725D01*
X109500000Y-53746725D01*
X109500003Y-53746725D01*
X109668056Y-53727790D01*
X109668059Y-53727789D01*
X109827690Y-53671932D01*
X109884904Y-53635981D01*
X109950876Y-53616976D01*
X110114107Y-53616976D01*
X110114108Y-53616975D01*
X110234952Y-53592939D01*
X110348786Y-53545787D01*
X110451233Y-53477334D01*
X110538358Y-53390209D01*
X110606811Y-53287762D01*
X110653963Y-53173928D01*
X110678000Y-53053082D01*
X110678000Y-52929870D01*
X110653963Y-52809024D01*
X110615520Y-52716215D01*
X110606812Y-52695192D01*
X110606807Y-52695183D01*
X110538358Y-52592743D01*
X110538355Y-52592739D01*
X110451236Y-52505620D01*
X110451232Y-52505617D01*
X110348792Y-52437168D01*
X110348783Y-52437163D01*
X110234954Y-52390014D01*
X110234955Y-52390014D01*
X110234952Y-52390013D01*
X110234948Y-52390012D01*
X110234944Y-52390011D01*
X110114110Y-52365976D01*
X110114106Y-52365976D01*
X109950876Y-52365976D01*
X109884904Y-52346970D01*
X109827692Y-52311021D01*
X109827691Y-52311020D01*
X109827690Y-52311020D01*
X109789370Y-52297611D01*
X109668056Y-52255161D01*
X109500003Y-52236227D01*
X109499997Y-52236227D01*
X109331943Y-52255161D01*
X109172307Y-52311021D01*
X109115096Y-52346970D01*
X109049124Y-52365976D01*
X102963029Y-52365976D01*
X102902611Y-52377994D01*
X102859383Y-52386592D01*
X102842186Y-52390013D01*
X102795401Y-52409393D01*
X102771761Y-52419185D01*
X102728351Y-52437165D01*
X102718267Y-52443904D01*
X102718266Y-52443905D01*
X102625908Y-52505616D01*
X102601415Y-52530110D01*
X102538782Y-52592743D01*
X102538779Y-52592746D01*
X96379770Y-58751755D01*
X96379767Y-58751758D01*
X96356925Y-58774600D01*
X96292642Y-58838882D01*
X96260938Y-58886331D01*
X96260937Y-58886330D01*
X96224189Y-58941328D01*
X96224185Y-58941335D01*
X96198610Y-59003082D01*
X96198610Y-59003083D01*
X96177038Y-59055161D01*
X96177035Y-59055170D01*
X96168164Y-59099767D01*
X96168165Y-59099768D01*
X96154558Y-59168179D01*
X96153000Y-59176012D01*
X96153000Y-59727623D01*
X96133994Y-59793595D01*
X96098045Y-59850807D01*
X96042185Y-60010443D01*
X96023251Y-60178497D01*
X88606091Y-60178497D01*
X89984589Y-58799999D01*
X92594785Y-58799999D01*
X92594785Y-58800000D01*
X92613602Y-59003082D01*
X92669417Y-59199247D01*
X92669422Y-59199260D01*
X92760327Y-59381821D01*
X92883237Y-59544581D01*
X93033958Y-59681980D01*
X93033960Y-59681982D01*
X93119483Y-59734935D01*
X93207363Y-59789348D01*
X93397544Y-59863024D01*
X93598024Y-59900500D01*
X93598026Y-59900500D01*
X93801974Y-59900500D01*
X93801976Y-59900500D01*
X94002456Y-59863024D01*
X94192637Y-59789348D01*
X94366041Y-59681981D01*
X94510269Y-59550500D01*
X94516762Y-59544581D01*
X94516764Y-59544579D01*
X94639673Y-59381821D01*
X94730582Y-59199250D01*
X94786397Y-59003083D01*
X94805215Y-58800000D01*
X94795405Y-58694136D01*
X94786397Y-58596917D01*
X94768306Y-58533334D01*
X94730582Y-58400750D01*
X94728673Y-58396917D01*
X94684883Y-58308973D01*
X94639673Y-58218179D01*
X94556528Y-58108077D01*
X94516762Y-58055418D01*
X94366041Y-57918019D01*
X94366039Y-57918017D01*
X94192642Y-57810655D01*
X94192635Y-57810651D01*
X94070285Y-57763253D01*
X94002456Y-57736976D01*
X93801976Y-57699500D01*
X93598024Y-57699500D01*
X93397544Y-57736976D01*
X93397541Y-57736976D01*
X93397541Y-57736977D01*
X93207364Y-57810651D01*
X93207357Y-57810655D01*
X93033960Y-57918017D01*
X93033958Y-57918019D01*
X92883237Y-58055418D01*
X92760327Y-58218178D01*
X92669422Y-58400739D01*
X92669417Y-58400752D01*
X92613602Y-58596917D01*
X92594785Y-58799999D01*
X89984589Y-58799999D01*
X91017616Y-57766972D01*
X91064341Y-57737613D01*
X91068054Y-57736313D01*
X91068059Y-57736313D01*
X91227690Y-57680456D01*
X91227692Y-57680455D01*
X91227697Y-57680452D01*
X91370884Y-57590481D01*
X91370885Y-57590480D01*
X91370890Y-57590477D01*
X91490477Y-57470890D01*
X91525068Y-57415839D01*
X91580452Y-57327697D01*
X91580454Y-57327694D01*
X91580454Y-57327692D01*
X91580456Y-57327690D01*
X91636313Y-57168059D01*
X91636313Y-57168058D01*
X91636314Y-57168056D01*
X91655249Y-57000002D01*
X91655249Y-56999997D01*
X91636314Y-56831943D01*
X91605426Y-56743671D01*
X91580456Y-56672310D01*
X91580455Y-56672308D01*
X91580454Y-56672305D01*
X91580452Y-56672302D01*
X91490481Y-56529115D01*
X91490476Y-56529109D01*
X91370890Y-56409523D01*
X91370884Y-56409518D01*
X91227697Y-56319547D01*
X91227694Y-56319545D01*
X91068056Y-56263685D01*
X90900003Y-56244751D01*
X90899997Y-56244751D01*
X90731943Y-56263685D01*
X90572305Y-56319545D01*
X90572302Y-56319547D01*
X90429115Y-56409518D01*
X90429109Y-56409523D01*
X90309523Y-56529109D01*
X90309518Y-56529115D01*
X90219547Y-56672302D01*
X90219544Y-56672308D01*
X90162388Y-56835654D01*
X90133027Y-56882381D01*
X87614001Y-59401407D01*
X87552678Y-59434892D01*
X87482986Y-59429908D01*
X87427053Y-59388036D01*
X87409278Y-59354680D01*
X87407381Y-59349260D01*
X87380456Y-59272310D01*
X87380455Y-59272308D01*
X87380455Y-59272307D01*
X87380452Y-59272302D01*
X87290481Y-59129115D01*
X87290476Y-59129109D01*
X87170894Y-59009527D01*
X87170890Y-59009523D01*
X87170885Y-59009519D01*
X87170430Y-59009157D01*
X87170208Y-59008841D01*
X87165966Y-59004599D01*
X87166709Y-59003855D01*
X87130289Y-58951969D01*
X87127439Y-58882157D01*
X87160059Y-58824530D01*
X89617618Y-56366971D01*
X89664343Y-56337612D01*
X89668053Y-56336313D01*
X89668059Y-56336313D01*
X89827690Y-56280456D01*
X89827692Y-56280455D01*
X89827697Y-56280452D01*
X89970884Y-56190481D01*
X89970885Y-56190480D01*
X89970890Y-56190477D01*
X90090477Y-56070890D01*
X90091575Y-56069143D01*
X90180452Y-55927697D01*
X90180454Y-55927694D01*
X90180454Y-55927692D01*
X90180456Y-55927690D01*
X90236313Y-55768059D01*
X90236313Y-55768058D01*
X90236314Y-55768056D01*
X90255249Y-55600002D01*
X90255249Y-55599997D01*
X90236314Y-55431943D01*
X90203029Y-55336819D01*
X90180456Y-55272310D01*
X90180455Y-55272308D01*
X90180454Y-55272305D01*
X90180452Y-55272302D01*
X90090481Y-55129115D01*
X90090476Y-55129109D01*
X89970890Y-55009523D01*
X89970884Y-55009518D01*
X89827697Y-54919547D01*
X89827694Y-54919545D01*
X89668056Y-54863685D01*
X89500003Y-54844751D01*
X89499997Y-54844751D01*
X89331943Y-54863685D01*
X89172305Y-54919545D01*
X89172302Y-54919547D01*
X89029115Y-55009518D01*
X89029109Y-55009523D01*
X88909523Y-55129109D01*
X88909518Y-55129115D01*
X88819547Y-55272302D01*
X88819544Y-55272308D01*
X88762388Y-55435653D01*
X88733027Y-55482380D01*
X85934935Y-58280472D01*
X85873612Y-58313957D01*
X85803920Y-58308973D01*
X85747987Y-58267101D01*
X85737896Y-58251244D01*
X85694137Y-58169376D01*
X85694135Y-58169373D01*
X85575357Y-58024642D01*
X85430626Y-57905864D01*
X85430623Y-57905862D01*
X85265502Y-57817604D01*
X85086333Y-57763253D01*
X85086331Y-57763252D01*
X84900000Y-57744901D01*
X84713668Y-57763252D01*
X84713666Y-57763253D01*
X84534497Y-57817604D01*
X84369376Y-57905862D01*
X84369373Y-57905864D01*
X84224642Y-58024642D01*
X84105864Y-58169373D01*
X84105862Y-58169376D01*
X84017604Y-58334497D01*
X83963253Y-58513666D01*
X83963252Y-58513668D01*
X83944901Y-58700000D01*
X83963253Y-58886330D01*
X83963253Y-58886331D01*
X84017604Y-59065502D01*
X84105862Y-59230623D01*
X84105864Y-59230626D01*
X84224642Y-59375357D01*
X84369373Y-59494135D01*
X84369376Y-59494137D01*
X84451244Y-59537896D01*
X84501088Y-59586858D01*
X84516549Y-59654996D01*
X84492718Y-59720675D01*
X84480472Y-59734935D01*
X81689729Y-62525681D01*
X81628406Y-62559166D01*
X81602048Y-62562000D01*
X79450876Y-62562000D01*
X79384904Y-62542994D01*
X79327692Y-62507045D01*
X79327691Y-62507044D01*
X79327690Y-62507044D01*
X79283845Y-62491702D01*
X79168056Y-62451185D01*
X79000003Y-62432251D01*
X78999997Y-62432251D01*
X78831943Y-62451185D01*
X78672305Y-62507045D01*
X78672302Y-62507047D01*
X78529115Y-62597018D01*
X78529109Y-62597023D01*
X78409523Y-62716609D01*
X78409518Y-62716615D01*
X78319547Y-62859802D01*
X78319545Y-62859805D01*
X78263685Y-63019443D01*
X78244751Y-63187497D01*
X76972087Y-63187497D01*
X74898591Y-61114001D01*
X74865106Y-61052678D01*
X74870090Y-60982986D01*
X74911962Y-60927053D01*
X74945315Y-60909280D01*
X75027690Y-60880456D01*
X75084904Y-60844505D01*
X75150876Y-60825500D01*
X75730492Y-60825500D01*
X75730492Y-60825499D01*
X75816978Y-60808297D01*
X75816979Y-60808297D01*
X75828534Y-60805998D01*
X75851336Y-60801463D01*
X75897235Y-60782451D01*
X75965170Y-60754312D01*
X76017847Y-60719113D01*
X76067617Y-60685858D01*
X76154742Y-60598733D01*
X76154743Y-60598731D01*
X76161809Y-60591665D01*
X76161812Y-60591661D01*
X77835872Y-58917600D01*
X77897193Y-58884117D01*
X77966885Y-58889101D01*
X78022818Y-58930973D01*
X78032906Y-58946825D01*
X78035656Y-58951969D01*
X78045357Y-58970119D01*
X78138266Y-59083328D01*
X78165579Y-59147638D01*
X78153788Y-59216505D01*
X78147408Y-59227963D01*
X78119544Y-59272308D01*
X78063685Y-59431943D01*
X78044751Y-59599997D01*
X78044751Y-59600002D01*
X78063685Y-59768056D01*
X78119545Y-59927694D01*
X78119547Y-59927697D01*
X78209518Y-60070884D01*
X78209523Y-60070890D01*
X78329109Y-60190476D01*
X78329115Y-60190481D01*
X78472302Y-60280452D01*
X78472305Y-60280454D01*
X78472309Y-60280455D01*
X78472310Y-60280456D01*
X78520476Y-60297310D01*
X78631943Y-60336314D01*
X78799997Y-60355249D01*
X78800000Y-60355249D01*
X78800003Y-60355249D01*
X78968056Y-60336314D01*
X79025730Y-60316133D01*
X79127690Y-60280456D01*
X79127692Y-60280454D01*
X79127694Y-60280454D01*
X79127697Y-60280452D01*
X79270884Y-60190481D01*
X79270885Y-60190480D01*
X79270890Y-60190477D01*
X79390477Y-60070890D01*
X79390922Y-60070182D01*
X79480452Y-59927697D01*
X79480455Y-59927691D01*
X79480456Y-59927690D01*
X79536313Y-59768059D01*
X79537140Y-59760713D01*
X79564201Y-59696299D01*
X79572670Y-59686918D01*
X81910858Y-57348733D01*
X81979312Y-57246285D01*
X82017082Y-57155099D01*
X82017959Y-57152982D01*
X82017960Y-57152978D01*
X82026463Y-57132452D01*
X82030065Y-57114344D01*
X82032777Y-57100709D01*
X82032777Y-57100707D01*
X82050501Y-57011606D01*
X82050501Y-56888393D01*
X82050501Y-56883283D01*
X82050500Y-56883257D01*
X82050500Y-53618715D01*
X82070185Y-53551676D01*
X82122989Y-53505921D01*
X82186653Y-53495312D01*
X82286019Y-53505099D01*
X82472350Y-53486747D01*
X82651520Y-53432396D01*
X82741341Y-53384385D01*
X82809743Y-53370144D01*
X82874987Y-53395144D01*
X82916358Y-53451449D01*
X82923114Y-53480778D01*
X82927425Y-53521789D01*
X82937109Y-53613931D01*
X82937110Y-53613933D01*
X82992353Y-53783955D01*
X82992356Y-53783961D01*
X83081746Y-53938790D01*
X83204146Y-54074730D01*
X83234376Y-54137722D01*
X83226157Y-54203782D01*
X83226510Y-54203906D01*
X83225939Y-54205537D01*
X83225750Y-54207057D01*
X83224290Y-54210248D01*
X83164633Y-54380737D01*
X83164630Y-54380750D01*
X83144435Y-54559996D01*
X83144435Y-54560003D01*
X83164630Y-54739249D01*
X83164631Y-54739254D01*
X83224211Y-54909523D01*
X83287046Y-55009523D01*
X83320184Y-55062262D01*
X83447738Y-55189816D01*
X83518847Y-55234497D01*
X83594342Y-55281934D01*
X83600478Y-55285789D01*
X83742515Y-55335490D01*
X83770745Y-55345368D01*
X83770750Y-55345369D01*
X83949996Y-55365565D01*
X83950000Y-55365565D01*
X83950004Y-55365565D01*
X84129249Y-55345369D01*
X84129252Y-55345368D01*
X84129255Y-55345368D01*
X84299522Y-55285789D01*
X84452262Y-55189816D01*
X84579816Y-55062262D01*
X84675789Y-54909522D01*
X84735368Y-54739255D01*
X84735369Y-54739249D01*
X84755565Y-54560003D01*
X84755565Y-54559996D01*
X84735369Y-54380750D01*
X84735368Y-54380745D01*
X84732182Y-54371639D01*
X84675789Y-54210478D01*
X84675644Y-54210248D01*
X84613454Y-54111272D01*
X84579816Y-54057738D01*
X84531062Y-54008984D01*
X84497577Y-53947661D01*
X84502561Y-53877969D01*
X84511347Y-53859320D01*
X84554856Y-53783961D01*
X84610103Y-53613929D01*
X84628791Y-53436126D01*
X84610911Y-53266009D01*
X84610232Y-53253048D01*
X84610232Y-48503236D01*
X84583313Y-48367909D01*
X84583312Y-48367908D01*
X84583312Y-48367904D01*
X84554102Y-48297384D01*
X84530508Y-48240423D01*
X84530507Y-48240421D01*
X84501718Y-48197335D01*
X84477782Y-48161512D01*
X84453847Y-48125690D01*
X84453843Y-48125685D01*
X83620087Y-47291930D01*
X83586602Y-47230607D01*
X83584365Y-47216403D01*
X83574247Y-47113669D01*
X83565701Y-47085496D01*
X83565077Y-47015629D01*
X83602324Y-46956516D01*
X83665618Y-46926925D01*
X83684361Y-46925500D01*
X88836608Y-46925500D01*
X88836608Y-46925499D01*
X88907393Y-46911420D01*
X88907394Y-46911420D01*
X88932769Y-46906372D01*
X88957452Y-46901463D01*
X88998404Y-46884500D01*
X89071286Y-46854312D01*
X89132373Y-46813494D01*
X89132374Y-46813494D01*
X89159757Y-46795196D01*
X89173733Y-46785858D01*
X89260858Y-46698733D01*
X89260859Y-46698730D01*
X89267925Y-46691665D01*
X89267927Y-46691661D01*
X92024431Y-43935158D01*
X92085752Y-43901675D01*
X92155444Y-43906659D01*
X92211377Y-43948531D01*
X92235794Y-44013995D01*
X92235330Y-44036724D01*
X92219751Y-44174996D01*
X92219751Y-44175002D01*
X92238685Y-44343056D01*
X92294545Y-44502694D01*
X92294547Y-44502697D01*
X92384518Y-44645884D01*
X92384523Y-44645890D01*
X92504109Y-44765476D01*
X92504115Y-44765481D01*
X92647302Y-44855452D01*
X92647305Y-44855454D01*
X92647309Y-44855455D01*
X92647310Y-44855456D01*
X92695296Y-44872247D01*
X92806943Y-44911314D01*
X92974997Y-44930249D01*
X92975000Y-44930249D01*
X92975003Y-44930249D01*
X93143056Y-44911314D01*
X93143059Y-44911313D01*
X93302690Y-44855456D01*
X93302692Y-44855454D01*
X93302694Y-44855454D01*
X93302697Y-44855452D01*
X93445884Y-44765481D01*
X93445885Y-44765480D01*
X93445890Y-44765477D01*
X93565477Y-44645890D01*
X93565481Y-44645884D01*
X93655452Y-44502697D01*
X93655454Y-44502694D01*
X93655454Y-44502692D01*
X93655456Y-44502690D01*
X93691389Y-44400000D01*
X94244901Y-44400000D01*
X94263252Y-44586331D01*
X94263253Y-44586333D01*
X94317604Y-44765502D01*
X94405862Y-44930623D01*
X94405864Y-44930626D01*
X94524642Y-45075357D01*
X94669373Y-45194135D01*
X94669376Y-45194137D01*
X94834497Y-45282395D01*
X94834499Y-45282396D01*
X95013666Y-45336746D01*
X95013668Y-45336747D01*
X95030374Y-45338392D01*
X95200000Y-45355099D01*
X95386331Y-45336747D01*
X95565501Y-45282396D01*
X95730625Y-45194136D01*
X95875357Y-45075357D01*
X95994136Y-44930625D01*
X96082396Y-44765501D01*
X96136747Y-44586331D01*
X96155099Y-44400000D01*
X96136747Y-44213669D01*
X96082396Y-44034499D01*
X96073150Y-44017200D01*
X95994137Y-43869376D01*
X95994135Y-43869373D01*
X95875357Y-43724642D01*
X95730626Y-43605864D01*
X95730623Y-43605862D01*
X95565502Y-43517604D01*
X95386333Y-43463253D01*
X95386331Y-43463252D01*
X95200000Y-43444901D01*
X95013668Y-43463252D01*
X95013666Y-43463253D01*
X94834497Y-43517604D01*
X94669376Y-43605862D01*
X94669373Y-43605864D01*
X94524642Y-43724642D01*
X94405864Y-43869373D01*
X94405862Y-43869376D01*
X94317604Y-44034497D01*
X94263253Y-44213666D01*
X94263252Y-44213668D01*
X94244901Y-44400000D01*
X93691389Y-44400000D01*
X93711313Y-44343059D01*
X93711313Y-44343058D01*
X93711314Y-44343056D01*
X93730249Y-44175002D01*
X93730249Y-44174997D01*
X93711314Y-44006943D01*
X93697904Y-43968621D01*
X93655456Y-43847310D01*
X93649295Y-43837505D01*
X93619506Y-43790095D01*
X93600500Y-43724123D01*
X93600500Y-42235452D01*
X93620185Y-42168413D01*
X93636819Y-42147771D01*
X95101075Y-40683515D01*
X95162398Y-40650030D01*
X95232090Y-40655014D01*
X95276437Y-40683515D01*
X95297738Y-40704816D01*
X95388080Y-40761582D01*
X95417715Y-40780203D01*
X95450478Y-40800789D01*
X95539897Y-40832078D01*
X95620745Y-40860368D01*
X95620750Y-40860369D01*
X95799996Y-40880565D01*
X95800000Y-40880565D01*
X95800004Y-40880565D01*
X95979249Y-40860369D01*
X95979252Y-40860368D01*
X95979255Y-40860368D01*
X96149522Y-40800789D01*
X96302262Y-40704816D01*
X96429816Y-40577262D01*
X96525789Y-40424522D01*
X96585368Y-40254255D01*
X96585901Y-40249523D01*
X96605565Y-40075003D01*
X96605565Y-40074996D01*
X96585369Y-39895750D01*
X96585368Y-39895745D01*
X96525788Y-39725475D01*
X96509781Y-39700000D01*
X116344901Y-39700000D01*
X116363252Y-39886331D01*
X116363253Y-39886333D01*
X116417604Y-40065502D01*
X116505862Y-40230623D01*
X116505864Y-40230626D01*
X116624642Y-40375357D01*
X116769373Y-40494135D01*
X116769376Y-40494137D01*
X116920662Y-40575000D01*
X116934499Y-40582396D01*
X117093270Y-40630559D01*
X117113666Y-40636746D01*
X117113668Y-40636747D01*
X117130158Y-40638371D01*
X117300000Y-40655099D01*
X117486331Y-40636747D01*
X117665501Y-40582396D01*
X117830625Y-40494136D01*
X117975357Y-40375357D01*
X118094136Y-40230625D01*
X118182396Y-40065501D01*
X118236747Y-39886331D01*
X118255099Y-39700000D01*
X118238392Y-39530374D01*
X118236747Y-39513668D01*
X118236746Y-39513666D01*
X118230821Y-39494135D01*
X118182396Y-39334499D01*
X118162165Y-39296649D01*
X118094137Y-39169376D01*
X118094135Y-39169373D01*
X117975357Y-39024642D01*
X117830626Y-38905864D01*
X117830623Y-38905862D01*
X117665502Y-38817604D01*
X117486333Y-38763253D01*
X117486331Y-38763252D01*
X117300000Y-38744901D01*
X117113668Y-38763252D01*
X117113666Y-38763253D01*
X116934497Y-38817604D01*
X116769376Y-38905862D01*
X116769373Y-38905864D01*
X116624642Y-39024642D01*
X116505864Y-39169373D01*
X116505862Y-39169376D01*
X116417604Y-39334497D01*
X116363253Y-39513666D01*
X116363252Y-39513668D01*
X116344901Y-39700000D01*
X96509781Y-39700000D01*
X96477575Y-39648746D01*
X96458574Y-39581509D01*
X96478941Y-39514674D01*
X96522558Y-39476495D01*
X96521794Y-39475278D01*
X96670884Y-39381597D01*
X96670885Y-39381596D01*
X96670890Y-39381593D01*
X96790477Y-39262006D01*
X96790481Y-39262000D01*
X96880452Y-39118813D01*
X96880454Y-39118810D01*
X96880454Y-39118808D01*
X96880456Y-39118806D01*
X96936313Y-38959175D01*
X96936313Y-38959174D01*
X96936314Y-38959172D01*
X96955249Y-38791118D01*
X96955249Y-38791113D01*
X96936314Y-38623059D01*
X96921548Y-38580862D01*
X96880456Y-38463426D01*
X96864638Y-38438252D01*
X96844506Y-38406211D01*
X96825500Y-38340239D01*
X96825500Y-37950893D01*
X96825499Y-37950889D01*
X96801463Y-37830048D01*
X96754311Y-37716214D01*
X96754310Y-37716213D01*
X96754307Y-37716207D01*
X96685858Y-37613767D01*
X96685855Y-37613763D01*
X96595637Y-37523545D01*
X96595606Y-37523516D01*
X95472632Y-36400542D01*
X95455319Y-36378833D01*
X95405785Y-36300000D01*
X96444901Y-36300000D01*
X96463252Y-36486331D01*
X96463253Y-36486333D01*
X96517604Y-36665502D01*
X96605862Y-36830623D01*
X96605864Y-36830626D01*
X96724642Y-36975357D01*
X96869373Y-37094135D01*
X96869376Y-37094137D01*
X97023113Y-37176310D01*
X97034499Y-37182396D01*
X97205718Y-37234335D01*
X97213666Y-37236746D01*
X97213668Y-37236747D01*
X97230374Y-37238392D01*
X97400000Y-37255099D01*
X97586331Y-37236747D01*
X97765501Y-37182396D01*
X97930625Y-37094136D01*
X98075357Y-36975357D01*
X98194136Y-36830625D01*
X98282396Y-36665501D01*
X98336747Y-36486331D01*
X98355099Y-36300000D01*
X98338392Y-36130374D01*
X98336747Y-36113668D01*
X98336746Y-36113666D01*
X98315922Y-36045019D01*
X98282396Y-35934499D01*
X98263956Y-35900000D01*
X98194137Y-35769376D01*
X98194135Y-35769373D01*
X98075357Y-35624642D01*
X97930626Y-35505864D01*
X97930623Y-35505862D01*
X97765502Y-35417604D01*
X97586333Y-35363253D01*
X97586331Y-35363252D01*
X97400000Y-35344901D01*
X97213668Y-35363252D01*
X97213666Y-35363253D01*
X97034497Y-35417604D01*
X96869376Y-35505862D01*
X96869373Y-35505864D01*
X96724642Y-35624642D01*
X96605864Y-35769373D01*
X96605862Y-35769376D01*
X96517604Y-35934497D01*
X96463253Y-36113666D01*
X96463252Y-36113668D01*
X96444901Y-36300000D01*
X95405785Y-36300000D01*
X95364646Y-36234529D01*
X95245060Y-36114943D01*
X95245054Y-36114938D01*
X95101867Y-36024967D01*
X95101864Y-36024965D01*
X94942226Y-35969105D01*
X94774173Y-35950171D01*
X94774167Y-35950171D01*
X94606113Y-35969105D01*
X94446475Y-36024965D01*
X94444793Y-36026023D01*
X94443551Y-36026373D01*
X94440208Y-36027984D01*
X94439925Y-36027398D01*
X94377556Y-36045019D01*
X94310721Y-36024649D01*
X94273834Y-35986999D01*
X94254816Y-35956732D01*
X94127261Y-35829177D01*
X93974522Y-35733204D01*
X93804253Y-35673624D01*
X93804248Y-35673623D01*
X93625003Y-35653428D01*
X93624995Y-35653428D01*
X93445749Y-35673623D01*
X93445744Y-35673624D01*
X93275475Y-35733204D01*
X93175006Y-35796334D01*
X93107769Y-35815334D01*
X93040934Y-35794966D01*
X93004041Y-35757313D01*
X92940478Y-35656154D01*
X92820890Y-35536566D01*
X92820887Y-35536564D01*
X92779743Y-35510711D01*
X92733452Y-35458376D01*
X92722805Y-35389323D01*
X92751180Y-35325475D01*
X92758008Y-35318065D01*
X93001757Y-35074316D01*
X93063078Y-35040834D01*
X93089436Y-35038000D01*
X93826607Y-35038000D01*
X93887029Y-35025981D01*
X93947452Y-35013963D01*
X93986621Y-34997738D01*
X93986623Y-34997738D01*
X94061281Y-34966814D01*
X94061280Y-34966814D01*
X94061286Y-34966812D01*
X94112509Y-34932584D01*
X94163733Y-34898358D01*
X94250858Y-34811233D01*
X94250858Y-34811231D01*
X94256366Y-34805724D01*
X94303094Y-34776362D01*
X94306805Y-34775063D01*
X94306809Y-34775063D01*
X94466440Y-34719206D01*
X94466442Y-34719205D01*
X94466447Y-34719202D01*
X94609634Y-34629231D01*
X94609635Y-34629230D01*
X94609640Y-34629227D01*
X94729227Y-34509640D01*
X94736997Y-34497274D01*
X94819202Y-34366447D01*
X94819204Y-34366444D01*
X94819204Y-34366442D01*
X94819206Y-34366440D01*
X94875063Y-34206809D01*
X94875063Y-34206808D01*
X94875064Y-34206806D01*
X94893999Y-34038752D01*
X94893999Y-34038747D01*
X94875064Y-33870693D01*
X94819204Y-33711055D01*
X94819202Y-33711052D01*
X94729231Y-33567865D01*
X94729226Y-33567859D01*
X94609640Y-33448273D01*
X94609634Y-33448268D01*
X94466447Y-33358297D01*
X94466444Y-33358295D01*
X94306806Y-33302435D01*
X94138753Y-33283501D01*
X94138747Y-33283501D01*
X93970693Y-33302435D01*
X93811055Y-33358295D01*
X93811052Y-33358297D01*
X93667865Y-33448268D01*
X93554923Y-33561210D01*
X93493600Y-33594694D01*
X93423908Y-33589710D01*
X93367975Y-33547838D01*
X93343839Y-33485682D01*
X93336747Y-33413669D01*
X93282396Y-33234499D01*
X93194136Y-33069375D01*
X93194135Y-33069373D01*
X93075357Y-32924642D01*
X92930626Y-32805864D01*
X92930623Y-32805862D01*
X92765502Y-32717604D01*
X92586333Y-32663253D01*
X92586331Y-32663252D01*
X92400000Y-32644901D01*
X92213668Y-32663252D01*
X92213666Y-32663253D01*
X92034497Y-32717604D01*
X91869376Y-32805862D01*
X91869373Y-32805864D01*
X91724642Y-32924642D01*
X91605864Y-33069373D01*
X91605862Y-33069376D01*
X91517604Y-33234497D01*
X91463253Y-33413666D01*
X91463252Y-33413668D01*
X91444901Y-33600000D01*
X91463252Y-33786331D01*
X91463253Y-33786333D01*
X91517604Y-33965502D01*
X91605862Y-34130623D01*
X91605864Y-34130626D01*
X91724642Y-34275357D01*
X91787445Y-34326898D01*
X91826779Y-34384644D01*
X91828650Y-34454488D01*
X91796461Y-34510432D01*
X86506213Y-39800681D01*
X86444890Y-39834166D01*
X86418532Y-39837000D01*
X80950876Y-39837000D01*
X80884904Y-39817994D01*
X80827692Y-39782045D01*
X80827691Y-39782044D01*
X80827690Y-39782044D01*
X80786228Y-39767536D01*
X80668056Y-39726185D01*
X80500003Y-39707251D01*
X80499997Y-39707251D01*
X80331943Y-39726185D01*
X80172305Y-39782045D01*
X80172302Y-39782047D01*
X80029115Y-39872018D01*
X80029109Y-39872023D01*
X79909523Y-39991609D01*
X79909521Y-39991612D01*
X79865456Y-40061740D01*
X79813121Y-40108031D01*
X79744067Y-40118678D01*
X79680219Y-40090302D01*
X79641848Y-40031912D01*
X79641136Y-39962046D01*
X79643423Y-39954809D01*
X79650145Y-39935598D01*
X79669081Y-39767541D01*
X79669081Y-39767536D01*
X79650146Y-39599482D01*
X79597673Y-39449523D01*
X79594288Y-39439849D01*
X79594287Y-39439848D01*
X79594286Y-39439844D01*
X79594284Y-39439841D01*
X79504313Y-39296654D01*
X79504308Y-39296648D01*
X79384722Y-39177062D01*
X79384716Y-39177057D01*
X79241529Y-39087086D01*
X79241526Y-39087084D01*
X79081888Y-39031224D01*
X78913835Y-39012290D01*
X78913829Y-39012290D01*
X78745775Y-39031224D01*
X78586137Y-39087084D01*
X78586134Y-39087086D01*
X78442947Y-39177057D01*
X78442941Y-39177062D01*
X78323355Y-39296648D01*
X78323350Y-39296654D01*
X78233379Y-39439841D01*
X78233377Y-39439844D01*
X78177517Y-39599482D01*
X78158583Y-39767536D01*
X78158583Y-39767541D01*
X78177517Y-39935595D01*
X78233377Y-40095233D01*
X78233379Y-40095236D01*
X78323350Y-40238423D01*
X78323355Y-40238429D01*
X78442941Y-40358015D01*
X78442947Y-40358020D01*
X78586134Y-40447991D01*
X78586137Y-40447993D01*
X78586141Y-40447994D01*
X78586142Y-40447995D01*
X78627587Y-40462497D01*
X78745775Y-40503853D01*
X78913829Y-40522788D01*
X78913832Y-40522788D01*
X78913835Y-40522788D01*
X79081888Y-40503853D01*
X79109655Y-40494137D01*
X79241522Y-40447995D01*
X79241524Y-40447993D01*
X79241526Y-40447993D01*
X79241529Y-40447991D01*
X79384716Y-40358020D01*
X79384717Y-40358019D01*
X79384722Y-40358016D01*
X79504309Y-40238429D01*
X79548375Y-40168297D01*
X79600708Y-40122008D01*
X79669762Y-40111359D01*
X79733610Y-40139734D01*
X79771983Y-40198124D01*
X79772695Y-40267990D01*
X79770410Y-40275223D01*
X79763687Y-40294437D01*
X79763686Y-40294440D01*
X79744751Y-40462497D01*
X79744751Y-40462502D01*
X79763685Y-40630556D01*
X79819545Y-40790194D01*
X79819547Y-40790197D01*
X79909518Y-40933384D01*
X79909523Y-40933390D01*
X80029109Y-41052976D01*
X80029115Y-41052981D01*
X80172302Y-41142952D01*
X80172305Y-41142954D01*
X80172309Y-41142955D01*
X80172310Y-41142956D01*
X80244913Y-41168360D01*
X80331943Y-41198814D01*
X80499997Y-41217749D01*
X80500000Y-41217749D01*
X80500003Y-41217749D01*
X80668056Y-41198814D01*
X80694608Y-41189523D01*
X80827690Y-41142956D01*
X80884904Y-41107005D01*
X80950876Y-41088000D01*
X86790592Y-41088000D01*
X86790592Y-41087999D01*
X86854153Y-41075357D01*
X86911436Y-41063963D01*
X86944776Y-41050152D01*
X87025270Y-41016812D01*
X87025273Y-41016809D01*
X87025275Y-41016809D01*
X87060406Y-40993334D01*
X87077097Y-40982181D01*
X87127717Y-40948358D01*
X87214842Y-40861233D01*
X87214843Y-40861231D01*
X87221909Y-40854165D01*
X87221912Y-40854161D01*
X91540996Y-36535076D01*
X91602317Y-36501593D01*
X91672009Y-36506577D01*
X91727942Y-36548449D01*
X91733668Y-36556786D01*
X91759521Y-36597930D01*
X91759523Y-36597933D01*
X91879109Y-36717519D01*
X91879115Y-36717524D01*
X92022302Y-36807495D01*
X92022305Y-36807497D01*
X92022309Y-36807498D01*
X92022310Y-36807499D01*
X92025214Y-36808515D01*
X92181943Y-36863357D01*
X92349997Y-36882292D01*
X92350000Y-36882292D01*
X92350003Y-36882292D01*
X92518056Y-36863357D01*
X92541659Y-36855098D01*
X92677690Y-36807499D01*
X92731054Y-36773968D01*
X92798291Y-36754967D01*
X92865126Y-36775334D01*
X92902021Y-36812989D01*
X92942251Y-36877014D01*
X92995183Y-36961255D01*
X93122737Y-37088809D01*
X93145454Y-37103083D01*
X93271679Y-37182396D01*
X93275477Y-37184782D01*
X93443846Y-37243697D01*
X93445744Y-37244361D01*
X93445749Y-37244362D01*
X93624995Y-37264558D01*
X93624999Y-37264558D01*
X93625003Y-37264558D01*
X93804248Y-37244362D01*
X93804251Y-37244361D01*
X93804254Y-37244361D01*
X93974521Y-37184782D01*
X93978319Y-37182396D01*
X94024540Y-37153353D01*
X94091777Y-37134352D01*
X94158612Y-37154719D01*
X94177870Y-37172284D01*
X94178769Y-37171386D01*
X94303279Y-37295896D01*
X94303285Y-37295901D01*
X94446472Y-37385872D01*
X94446475Y-37385874D01*
X94446479Y-37385875D01*
X94446480Y-37385876D01*
X94606111Y-37441733D01*
X94606114Y-37441734D01*
X94719117Y-37454466D01*
X94783531Y-37481532D01*
X94792915Y-37490005D01*
X95538181Y-38235271D01*
X95571666Y-38296594D01*
X95574500Y-38322952D01*
X95574500Y-38340240D01*
X95555494Y-38406211D01*
X95519546Y-38463421D01*
X95519541Y-38463432D01*
X95511428Y-38486617D01*
X95482069Y-38533339D01*
X94336681Y-39678728D01*
X94275358Y-39712213D01*
X94205666Y-39707229D01*
X94149733Y-39665357D01*
X94125316Y-39599893D01*
X94125000Y-39591047D01*
X94125000Y-37925000D01*
X91375000Y-37925000D01*
X91375000Y-40525577D01*
X91355315Y-40592616D01*
X91302511Y-40638371D01*
X91233353Y-40648315D01*
X91185029Y-40630571D01*
X91127695Y-40594546D01*
X91127694Y-40594545D01*
X90968056Y-40538685D01*
X90800003Y-40519751D01*
X90799997Y-40519751D01*
X90631942Y-40538686D01*
X90468231Y-40595971D01*
X90398453Y-40599532D01*
X90337825Y-40564803D01*
X90305598Y-40502810D01*
X90312003Y-40433234D01*
X90326425Y-40408355D01*
X90326111Y-40408158D01*
X90331237Y-40400000D01*
X90425789Y-40249522D01*
X90485368Y-40079255D01*
X90485847Y-40075003D01*
X90505565Y-39900003D01*
X90505565Y-39899996D01*
X90485369Y-39720750D01*
X90485368Y-39720745D01*
X90445169Y-39605864D01*
X90425789Y-39550478D01*
X90402658Y-39513666D01*
X90356271Y-39439841D01*
X90329816Y-39397738D01*
X90202262Y-39270184D01*
X90139306Y-39230626D01*
X90049523Y-39174211D01*
X89879254Y-39114631D01*
X89879249Y-39114630D01*
X89700004Y-39094435D01*
X89699996Y-39094435D01*
X89520750Y-39114630D01*
X89520745Y-39114631D01*
X89350476Y-39174211D01*
X89197737Y-39270184D01*
X89070184Y-39397737D01*
X88974211Y-39550476D01*
X88914631Y-39720745D01*
X88914630Y-39720750D01*
X88894435Y-39899996D01*
X88894435Y-39900003D01*
X88914630Y-40079249D01*
X88914631Y-40079254D01*
X88974211Y-40249523D01*
X89024840Y-40330098D01*
X89070184Y-40402262D01*
X89197738Y-40529816D01*
X89269648Y-40575000D01*
X89348725Y-40624688D01*
X89350478Y-40625789D01*
X89435862Y-40655666D01*
X89520745Y-40685368D01*
X89520750Y-40685369D01*
X89699996Y-40705565D01*
X89700000Y-40705565D01*
X89700004Y-40705565D01*
X89879249Y-40685369D01*
X89879252Y-40685368D01*
X89879255Y-40685368D01*
X90049522Y-40625789D01*
X90049531Y-40625782D01*
X90051807Y-40624688D01*
X90053434Y-40624419D01*
X90056095Y-40623489D01*
X90056257Y-40623954D01*
X90120748Y-40613330D01*
X90184884Y-40641048D01*
X90223855Y-40699040D01*
X90225286Y-40768895D01*
X90210612Y-40802376D01*
X90119545Y-40947307D01*
X90063685Y-41106943D01*
X90044751Y-41274997D01*
X90044751Y-41275002D01*
X90063685Y-41443056D01*
X90119544Y-41602690D01*
X90119547Y-41602697D01*
X90209518Y-41745884D01*
X90209523Y-41745890D01*
X90236539Y-41772906D01*
X90270024Y-41834229D01*
X90265040Y-41903921D01*
X90223168Y-41959854D01*
X90157704Y-41984271D01*
X90107903Y-41977629D01*
X90064341Y-41962386D01*
X90017615Y-41933025D01*
X89917928Y-41833338D01*
X89917925Y-41833334D01*
X89917925Y-41833335D01*
X89910858Y-41826268D01*
X89910858Y-41826267D01*
X89823733Y-41739142D01*
X89823732Y-41739141D01*
X89823731Y-41739140D01*
X89772509Y-41704915D01*
X89766259Y-41700739D01*
X89721286Y-41670688D01*
X89721283Y-41670686D01*
X89721282Y-41670686D01*
X89721281Y-41670685D01*
X89619951Y-41628714D01*
X89607455Y-41623538D01*
X89607445Y-41623535D01*
X89502644Y-41602689D01*
X89502643Y-41602689D01*
X89486611Y-41599500D01*
X89486607Y-41599500D01*
X89486606Y-41599500D01*
X72510196Y-41599500D01*
X72386982Y-41599500D01*
X72370944Y-41602690D01*
X72370943Y-41602689D01*
X72266143Y-41623535D01*
X72266130Y-41623539D01*
X72233851Y-41636909D01*
X72218986Y-41643067D01*
X72196758Y-41652274D01*
X72152302Y-41670688D01*
X72142146Y-41677475D01*
X72142038Y-41677547D01*
X72049857Y-41739140D01*
X72016092Y-41772906D01*
X71962731Y-41826267D01*
X71962728Y-41826270D01*
X71892248Y-41896750D01*
X71830970Y-41958028D01*
X71784243Y-41987388D01*
X71780530Y-41988686D01*
X71780530Y-41988687D01*
X71746087Y-42000739D01*
X71620897Y-42044544D01*
X71620891Y-42044547D01*
X71477704Y-42134518D01*
X71477698Y-42134523D01*
X71358112Y-42254109D01*
X71358107Y-42254115D01*
X71268136Y-42397302D01*
X71268134Y-42397305D01*
X71212274Y-42556943D01*
X71193340Y-42724997D01*
X71193340Y-42725002D01*
X71212275Y-42893057D01*
X71270231Y-43058687D01*
X71273792Y-43128465D01*
X71239063Y-43189093D01*
X71177070Y-43221320D01*
X71153189Y-43223641D01*
X68550876Y-43223641D01*
X68484904Y-43204635D01*
X68481127Y-43202262D01*
X68460169Y-43189093D01*
X68427692Y-43168686D01*
X68427691Y-43168685D01*
X68427690Y-43168685D01*
X68389370Y-43155276D01*
X68268056Y-43112826D01*
X68100003Y-43093892D01*
X68099997Y-43093892D01*
X67931943Y-43112826D01*
X67772305Y-43168686D01*
X67772302Y-43168688D01*
X67629115Y-43258659D01*
X67629109Y-43258664D01*
X67509523Y-43378250D01*
X67509518Y-43378256D01*
X67419547Y-43521443D01*
X67419545Y-43521446D01*
X67363685Y-43681084D01*
X67352825Y-43777478D01*
X67325758Y-43841892D01*
X67277859Y-43875513D01*
X67278578Y-43877005D01*
X67272300Y-43880027D01*
X67129115Y-43969997D01*
X67129109Y-43970002D01*
X67009523Y-44089588D01*
X67009518Y-44089594D01*
X66919547Y-44232781D01*
X66919545Y-44232784D01*
X66863685Y-44392423D01*
X66844311Y-44564383D01*
X66817245Y-44628797D01*
X66759650Y-44668353D01*
X66721091Y-44674500D01*
X39970452Y-44674500D01*
X39903413Y-44654815D01*
X39882771Y-44638181D01*
X38761819Y-43517229D01*
X38728334Y-43455906D01*
X38725500Y-43429548D01*
X38725500Y-43230875D01*
X38744507Y-43164902D01*
X38780456Y-43107690D01*
X38786874Y-43089348D01*
X38836313Y-42948059D01*
X38853080Y-42799250D01*
X38855249Y-42780002D01*
X38855249Y-42779997D01*
X38836314Y-42611943D01*
X38780454Y-42452305D01*
X38780452Y-42452302D01*
X38690481Y-42309115D01*
X38690476Y-42309109D01*
X38570890Y-42189523D01*
X38570884Y-42189518D01*
X38428416Y-42099999D01*
X46194785Y-42099999D01*
X46194785Y-42100000D01*
X46213602Y-42303082D01*
X46269417Y-42499247D01*
X46269422Y-42499260D01*
X46360327Y-42681821D01*
X46483237Y-42844581D01*
X46580828Y-42933546D01*
X46633783Y-42981821D01*
X46633958Y-42981980D01*
X46633960Y-42981982D01*
X46707782Y-43027690D01*
X46807363Y-43089348D01*
X46997544Y-43163024D01*
X47198024Y-43200500D01*
X47198026Y-43200500D01*
X47401974Y-43200500D01*
X47401976Y-43200500D01*
X47602456Y-43163024D01*
X47792637Y-43089348D01*
X47966041Y-42981981D01*
X48108229Y-42852360D01*
X48116762Y-42844581D01*
X48150987Y-42799260D01*
X48239673Y-42681821D01*
X48330582Y-42499250D01*
X48386397Y-42303083D01*
X48405215Y-42100000D01*
X48386397Y-41896917D01*
X48330582Y-41700750D01*
X48319028Y-41677547D01*
X48280166Y-41599500D01*
X48239673Y-41518179D01*
X48158475Y-41410655D01*
X48116762Y-41355418D01*
X47966041Y-41218019D01*
X47966039Y-41218017D01*
X47792642Y-41110655D01*
X47792635Y-41110651D01*
X47643770Y-41052981D01*
X47602456Y-41036976D01*
X47401976Y-40999500D01*
X47198024Y-40999500D01*
X46997544Y-41036976D01*
X46997541Y-41036976D01*
X46997541Y-41036977D01*
X46807364Y-41110651D01*
X46807357Y-41110655D01*
X46633960Y-41218017D01*
X46633958Y-41218019D01*
X46483237Y-41355418D01*
X46360327Y-41518178D01*
X46269422Y-41700739D01*
X46269417Y-41700752D01*
X46213602Y-41896917D01*
X46194785Y-42099999D01*
X38428416Y-42099999D01*
X38427697Y-42099547D01*
X38427694Y-42099545D01*
X38268056Y-42043685D01*
X38100003Y-42024751D01*
X38099995Y-42024751D01*
X38019196Y-42033854D01*
X37950375Y-42021799D01*
X37898996Y-41974449D01*
X37881372Y-41906839D01*
X37882094Y-41896750D01*
X37895249Y-41780002D01*
X37895249Y-41779997D01*
X37876314Y-41611943D01*
X37820454Y-41452305D01*
X37820452Y-41452302D01*
X37730481Y-41309115D01*
X37730476Y-41309109D01*
X37610890Y-41189523D01*
X37610884Y-41189518D01*
X37467697Y-41099547D01*
X37467694Y-41099545D01*
X37308056Y-41043685D01*
X37140003Y-41024751D01*
X37139997Y-41024751D01*
X36971943Y-41043685D01*
X36812305Y-41099545D01*
X36812302Y-41099547D01*
X36669115Y-41189518D01*
X36669109Y-41189523D01*
X36549523Y-41309109D01*
X36549518Y-41309115D01*
X36459547Y-41452302D01*
X36459545Y-41452305D01*
X36403685Y-41611943D01*
X36384751Y-41779997D01*
X32454998Y-41779997D01*
X32454998Y-38700000D01*
X37144901Y-38700000D01*
X37163252Y-38886331D01*
X37163253Y-38886333D01*
X37217604Y-39065502D01*
X37305862Y-39230623D01*
X37305864Y-39230626D01*
X37424642Y-39375357D01*
X37569373Y-39494135D01*
X37569376Y-39494137D01*
X37734497Y-39582395D01*
X37734499Y-39582396D01*
X37913666Y-39636746D01*
X37913668Y-39636747D01*
X37930374Y-39638392D01*
X38100000Y-39655099D01*
X38286331Y-39636747D01*
X38465501Y-39582396D01*
X38630625Y-39494136D01*
X38775357Y-39375357D01*
X38894136Y-39230625D01*
X38963958Y-39099996D01*
X56184435Y-39099996D01*
X56184435Y-39100003D01*
X56204630Y-39279249D01*
X56204631Y-39279254D01*
X56264211Y-39449523D01*
X56360184Y-39602262D01*
X56370241Y-39612319D01*
X56403726Y-39673642D01*
X56398742Y-39743334D01*
X56370241Y-39787681D01*
X56360184Y-39797737D01*
X56264211Y-39950476D01*
X56204631Y-40120745D01*
X56204630Y-40120750D01*
X56184435Y-40299996D01*
X56184435Y-40300003D01*
X56204630Y-40479249D01*
X56204631Y-40479254D01*
X56264211Y-40649523D01*
X56360184Y-40802262D01*
X56420241Y-40862319D01*
X56453726Y-40923642D01*
X56448742Y-40993334D01*
X56420241Y-41037681D01*
X56360184Y-41097737D01*
X56264211Y-41250476D01*
X56204631Y-41420745D01*
X56204630Y-41420750D01*
X56184435Y-41599996D01*
X56184435Y-41600003D01*
X56204630Y-41779249D01*
X56204631Y-41779254D01*
X56264211Y-41949523D01*
X56314935Y-42030249D01*
X56345699Y-42079210D01*
X56348727Y-42084028D01*
X56367727Y-42151264D01*
X56348727Y-42215972D01*
X56264211Y-42350476D01*
X56204631Y-42520745D01*
X56204630Y-42520750D01*
X56184435Y-42699996D01*
X56184435Y-42700003D01*
X56204630Y-42879249D01*
X56204631Y-42879254D01*
X56264211Y-43049523D01*
X56335528Y-43163022D01*
X56360184Y-43202262D01*
X56487738Y-43329816D01*
X56549809Y-43368818D01*
X56638652Y-43424642D01*
X56640478Y-43425789D01*
X56746884Y-43463022D01*
X56810745Y-43485368D01*
X56810750Y-43485369D01*
X56989996Y-43505565D01*
X56990000Y-43505565D01*
X56990004Y-43505565D01*
X57169249Y-43485369D01*
X57169252Y-43485368D01*
X57169255Y-43485368D01*
X57339522Y-43425789D01*
X57492262Y-43329816D01*
X57502319Y-43319759D01*
X57563642Y-43286274D01*
X57633334Y-43291258D01*
X57677681Y-43319759D01*
X57687738Y-43329816D01*
X57749809Y-43368818D01*
X57838652Y-43424642D01*
X57840478Y-43425789D01*
X57946884Y-43463022D01*
X58010745Y-43485368D01*
X58010750Y-43485369D01*
X58189996Y-43505565D01*
X58190000Y-43505565D01*
X58190004Y-43505565D01*
X58369249Y-43485369D01*
X58369252Y-43485368D01*
X58369255Y-43485368D01*
X58539522Y-43425789D01*
X58692262Y-43329816D01*
X58819816Y-43202262D01*
X58915789Y-43049522D01*
X58975368Y-42879255D01*
X58976457Y-42869590D01*
X58995565Y-42700003D01*
X58995565Y-42699996D01*
X58975369Y-42520750D01*
X58975368Y-42520745D01*
X58933117Y-42399999D01*
X64294785Y-42399999D01*
X64294785Y-42400000D01*
X64313602Y-42603082D01*
X64369417Y-42799247D01*
X64369422Y-42799260D01*
X64460327Y-42981821D01*
X64583237Y-43144581D01*
X64733958Y-43281980D01*
X64733960Y-43281982D01*
X64833141Y-43343392D01*
X64907363Y-43389348D01*
X65097544Y-43463024D01*
X65298024Y-43500500D01*
X65298026Y-43500500D01*
X65501974Y-43500500D01*
X65501976Y-43500500D01*
X65702456Y-43463024D01*
X65892637Y-43389348D01*
X66066041Y-43281981D01*
X66216764Y-43144579D01*
X66339673Y-42981821D01*
X66430582Y-42799250D01*
X66486397Y-42603083D01*
X66505215Y-42400000D01*
X66502648Y-42372302D01*
X66486397Y-42196917D01*
X66472688Y-42148736D01*
X66430582Y-42000750D01*
X66428899Y-41997371D01*
X66362185Y-41863389D01*
X66339673Y-41818179D01*
X66233473Y-41677547D01*
X66216762Y-41655418D01*
X66066041Y-41518019D01*
X66066039Y-41518017D01*
X65892642Y-41410655D01*
X65892635Y-41410651D01*
X65750068Y-41355421D01*
X65702456Y-41336976D01*
X65501976Y-41299500D01*
X65298024Y-41299500D01*
X65097544Y-41336976D01*
X65097541Y-41336976D01*
X65097541Y-41336977D01*
X64907364Y-41410651D01*
X64907357Y-41410655D01*
X64733960Y-41518017D01*
X64733958Y-41518019D01*
X64583237Y-41655418D01*
X64460327Y-41818178D01*
X64369422Y-42000739D01*
X64369417Y-42000752D01*
X64313602Y-42196917D01*
X64294785Y-42399999D01*
X58933117Y-42399999D01*
X58915788Y-42350475D01*
X58839528Y-42229110D01*
X58831272Y-42215970D01*
X58812272Y-42148736D01*
X58831273Y-42084028D01*
X58909297Y-41959854D01*
X58915788Y-41949524D01*
X58916301Y-41948059D01*
X58975368Y-41779255D01*
X58975369Y-41779249D01*
X58995565Y-41600003D01*
X58995565Y-41599996D01*
X58975369Y-41420750D01*
X58975368Y-41420745D01*
X58936305Y-41309109D01*
X58915789Y-41250478D01*
X58895392Y-41218017D01*
X58827930Y-41110652D01*
X58819816Y-41097738D01*
X58759759Y-41037681D01*
X58726274Y-40976358D01*
X58731258Y-40906666D01*
X58759759Y-40862319D01*
X58767921Y-40854157D01*
X58819816Y-40802262D01*
X58915789Y-40649522D01*
X58975368Y-40479255D01*
X58978890Y-40447995D01*
X58995565Y-40300003D01*
X58995565Y-40299996D01*
X58975369Y-40120750D01*
X58975368Y-40120745D01*
X58966440Y-40095229D01*
X58915789Y-39950478D01*
X58906437Y-39935595D01*
X58864829Y-39869376D01*
X58819816Y-39797738D01*
X58809759Y-39787681D01*
X58776274Y-39726358D01*
X58781258Y-39656666D01*
X58809759Y-39612319D01*
X58819816Y-39602262D01*
X58915789Y-39449522D01*
X58975368Y-39279255D01*
X58975369Y-39279249D01*
X58995565Y-39100003D01*
X58995565Y-39099996D01*
X58975369Y-38920750D01*
X58975368Y-38920745D01*
X58939277Y-38817604D01*
X58915789Y-38750478D01*
X58821237Y-38600000D01*
X68044901Y-38600000D01*
X68063252Y-38786331D01*
X68063253Y-38786333D01*
X68117604Y-38965502D01*
X68205862Y-39130623D01*
X68205864Y-39130626D01*
X68324642Y-39275357D01*
X68469373Y-39394135D01*
X68469376Y-39394137D01*
X68639871Y-39485268D01*
X68639104Y-39486702D01*
X68687383Y-39525604D01*
X68709451Y-39591897D01*
X68692175Y-39659597D01*
X68664196Y-39692181D01*
X68624643Y-39724641D01*
X68505864Y-39869373D01*
X68505862Y-39869376D01*
X68417604Y-40034497D01*
X68363253Y-40213666D01*
X68363252Y-40213668D01*
X68344901Y-40400000D01*
X68363252Y-40586331D01*
X68363253Y-40586333D01*
X68417604Y-40765502D01*
X68505862Y-40930623D01*
X68505864Y-40930626D01*
X68624642Y-41075357D01*
X68769373Y-41194135D01*
X68769376Y-41194137D01*
X68814057Y-41218019D01*
X68934499Y-41282396D01*
X69113666Y-41336746D01*
X69113668Y-41336747D01*
X69130374Y-41338392D01*
X69300000Y-41355099D01*
X69486331Y-41336747D01*
X69665501Y-41282396D01*
X69830625Y-41194136D01*
X69975357Y-41075357D01*
X70094136Y-40930625D01*
X70182396Y-40765501D01*
X70236747Y-40586331D01*
X70255099Y-40400000D01*
X70236747Y-40213669D01*
X70182396Y-40034499D01*
X70159471Y-39991609D01*
X70094137Y-39869376D01*
X70094135Y-39869373D01*
X69975357Y-39724642D01*
X69830626Y-39605864D01*
X69830623Y-39605862D01*
X69660129Y-39514732D01*
X69660894Y-39513300D01*
X69612608Y-39474383D01*
X69590548Y-39408087D01*
X69598995Y-39375000D01*
X73540474Y-39375000D01*
X73558825Y-39561331D01*
X73558826Y-39561333D01*
X73613177Y-39740502D01*
X73701435Y-39905623D01*
X73701437Y-39905626D01*
X73820215Y-40050357D01*
X73964946Y-40169135D01*
X73964949Y-40169137D01*
X74130070Y-40257395D01*
X74130072Y-40257396D01*
X74309239Y-40311746D01*
X74309241Y-40311747D01*
X74325947Y-40313392D01*
X74495573Y-40330099D01*
X74681904Y-40311747D01*
X74861074Y-40257396D01*
X75026198Y-40169136D01*
X75170930Y-40050357D01*
X75289709Y-39905625D01*
X75377969Y-39740501D01*
X75432320Y-39561331D01*
X75450672Y-39375000D01*
X75432320Y-39188669D01*
X75377969Y-39009499D01*
X75354452Y-38965501D01*
X75289710Y-38844376D01*
X75289708Y-38844373D01*
X75170930Y-38699642D01*
X75026199Y-38580864D01*
X75026196Y-38580862D01*
X74861075Y-38492604D01*
X74681906Y-38438253D01*
X74681904Y-38438252D01*
X74495573Y-38419901D01*
X74309241Y-38438252D01*
X74309239Y-38438253D01*
X74130070Y-38492604D01*
X73964949Y-38580862D01*
X73964946Y-38580864D01*
X73820215Y-38699642D01*
X73701437Y-38844373D01*
X73701435Y-38844376D01*
X73613177Y-39009497D01*
X73558826Y-39188666D01*
X73558825Y-39188668D01*
X73540474Y-39375000D01*
X69598995Y-39375000D01*
X69607832Y-39340389D01*
X69635803Y-39307818D01*
X69675357Y-39275357D01*
X69679603Y-39270184D01*
X69762334Y-39169376D01*
X69794136Y-39130625D01*
X69882396Y-38965501D01*
X69936747Y-38786331D01*
X69955099Y-38600000D01*
X69936747Y-38413669D01*
X69882396Y-38234499D01*
X69794136Y-38069375D01*
X69794135Y-38069373D01*
X69675357Y-37924642D01*
X69530626Y-37805864D01*
X69530623Y-37805862D01*
X69365502Y-37717604D01*
X69307470Y-37700000D01*
X84544901Y-37700000D01*
X84563252Y-37886331D01*
X84563253Y-37886333D01*
X84617604Y-38065502D01*
X84705862Y-38230623D01*
X84705864Y-38230626D01*
X84824642Y-38375357D01*
X84969373Y-38494135D01*
X84969376Y-38494137D01*
X85042719Y-38533339D01*
X85134499Y-38582396D01*
X85313666Y-38636746D01*
X85313668Y-38636747D01*
X85330374Y-38638392D01*
X85500000Y-38655099D01*
X85686331Y-38636747D01*
X85865501Y-38582396D01*
X86030625Y-38494136D01*
X86175357Y-38375357D01*
X86294136Y-38230625D01*
X86382396Y-38065501D01*
X86436747Y-37886331D01*
X86455099Y-37700000D01*
X86436747Y-37513669D01*
X86382396Y-37334499D01*
X86365604Y-37303083D01*
X86294137Y-37169376D01*
X86294135Y-37169373D01*
X86175357Y-37024642D01*
X86030626Y-36905864D01*
X86030623Y-36905862D01*
X85865502Y-36817604D01*
X85686333Y-36763253D01*
X85686331Y-36763252D01*
X85500000Y-36744901D01*
X85313668Y-36763252D01*
X85313666Y-36763253D01*
X85134497Y-36817604D01*
X84969376Y-36905862D01*
X84969373Y-36905864D01*
X84824642Y-37024642D01*
X84705864Y-37169373D01*
X84705862Y-37169376D01*
X84617604Y-37334497D01*
X84563253Y-37513666D01*
X84563252Y-37513668D01*
X84544901Y-37700000D01*
X69307470Y-37700000D01*
X69186333Y-37663253D01*
X69186331Y-37663252D01*
X69000000Y-37644901D01*
X68813668Y-37663252D01*
X68813666Y-37663253D01*
X68634497Y-37717604D01*
X68469376Y-37805862D01*
X68469373Y-37805864D01*
X68324642Y-37924642D01*
X68205864Y-38069373D01*
X68205862Y-38069376D01*
X68117604Y-38234497D01*
X68063253Y-38413666D01*
X68063252Y-38413668D01*
X68044901Y-38600000D01*
X58821237Y-38600000D01*
X58819816Y-38597738D01*
X58692262Y-38470184D01*
X58641443Y-38438252D01*
X58539523Y-38374211D01*
X58369254Y-38314631D01*
X58369249Y-38314630D01*
X58190004Y-38294435D01*
X58189996Y-38294435D01*
X58010750Y-38314630D01*
X58010745Y-38314631D01*
X57840476Y-38374211D01*
X57687737Y-38470184D01*
X57677681Y-38480241D01*
X57616358Y-38513726D01*
X57546666Y-38508742D01*
X57502319Y-38480241D01*
X57492262Y-38470184D01*
X57339523Y-38374211D01*
X57169254Y-38314631D01*
X57169249Y-38314630D01*
X56990004Y-38294435D01*
X56989996Y-38294435D01*
X56810750Y-38314630D01*
X56810745Y-38314631D01*
X56640476Y-38374211D01*
X56487737Y-38470184D01*
X56360184Y-38597737D01*
X56264211Y-38750476D01*
X56204631Y-38920745D01*
X56204630Y-38920750D01*
X56184435Y-39099996D01*
X38963958Y-39099996D01*
X38982396Y-39065501D01*
X39036747Y-38886331D01*
X39055099Y-38700000D01*
X39036747Y-38513669D01*
X38982396Y-38334499D01*
X38971777Y-38314632D01*
X38894137Y-38169376D01*
X38894135Y-38169373D01*
X38775357Y-38024642D01*
X38630626Y-37905864D01*
X38630623Y-37905862D01*
X38465502Y-37817604D01*
X38286333Y-37763253D01*
X38286331Y-37763252D01*
X38100000Y-37744901D01*
X37913668Y-37763252D01*
X37913666Y-37763253D01*
X37734497Y-37817604D01*
X37569376Y-37905862D01*
X37569373Y-37905864D01*
X37424642Y-38024642D01*
X37305864Y-38169373D01*
X37305862Y-38169376D01*
X37217604Y-38334497D01*
X37163253Y-38513666D01*
X37163252Y-38513668D01*
X37144901Y-38700000D01*
X32454998Y-38700000D01*
X32454998Y-37099999D01*
X46694785Y-37099999D01*
X46694785Y-37100000D01*
X46713602Y-37303082D01*
X46769417Y-37499247D01*
X46769422Y-37499260D01*
X46860327Y-37681821D01*
X46983237Y-37844581D01*
X47133958Y-37981980D01*
X47133960Y-37981982D01*
X47233141Y-38043392D01*
X47307363Y-38089348D01*
X47497544Y-38163024D01*
X47698024Y-38200500D01*
X47698026Y-38200500D01*
X47901974Y-38200500D01*
X47901976Y-38200500D01*
X48102456Y-38163024D01*
X48292637Y-38089348D01*
X48466041Y-37981981D01*
X48616764Y-37844579D01*
X48739673Y-37681821D01*
X48830582Y-37499250D01*
X48880734Y-37322984D01*
X48918013Y-37263892D01*
X48981323Y-37234335D01*
X49050563Y-37243697D01*
X49103749Y-37289007D01*
X49119265Y-37322983D01*
X49137160Y-37385876D01*
X49169417Y-37499247D01*
X49169422Y-37499260D01*
X49260327Y-37681821D01*
X49383237Y-37844581D01*
X49533958Y-37981980D01*
X49533960Y-37981982D01*
X49633141Y-38043392D01*
X49707363Y-38089348D01*
X49897544Y-38163024D01*
X50098024Y-38200500D01*
X50098026Y-38200500D01*
X50301974Y-38200500D01*
X50301976Y-38200500D01*
X50502456Y-38163024D01*
X50692637Y-38089348D01*
X50866041Y-37981981D01*
X51016764Y-37844579D01*
X51139673Y-37681821D01*
X51198103Y-37564476D01*
X51245603Y-37513243D01*
X51313266Y-37495821D01*
X51379606Y-37517746D01*
X51408055Y-37545024D01*
X51483237Y-37644580D01*
X51633958Y-37781980D01*
X51633960Y-37781982D01*
X51672528Y-37805862D01*
X51807363Y-37889348D01*
X51997544Y-37963024D01*
X52198024Y-38000500D01*
X52198026Y-38000500D01*
X52401974Y-38000500D01*
X52401976Y-38000500D01*
X52602456Y-37963024D01*
X52792637Y-37889348D01*
X52966041Y-37781981D01*
X53116764Y-37644579D01*
X53239673Y-37481821D01*
X53330582Y-37299250D01*
X53386397Y-37103083D01*
X53405215Y-36900000D01*
X53386397Y-36696917D01*
X53330582Y-36500750D01*
X53323614Y-36486757D01*
X53269326Y-36377730D01*
X53239673Y-36318179D01*
X53116764Y-36155421D01*
X53116762Y-36155418D01*
X52966041Y-36018019D01*
X52966039Y-36018017D01*
X52792642Y-35910655D01*
X52792635Y-35910651D01*
X52765141Y-35900000D01*
X77544901Y-35900000D01*
X77563252Y-36086331D01*
X77563253Y-36086333D01*
X77617604Y-36265502D01*
X77705862Y-36430623D01*
X77705864Y-36430626D01*
X77824642Y-36575357D01*
X77969373Y-36694135D01*
X77969376Y-36694137D01*
X78118731Y-36773968D01*
X78134499Y-36782396D01*
X78293481Y-36830623D01*
X78313666Y-36836746D01*
X78313668Y-36836747D01*
X78330374Y-36838392D01*
X78500000Y-36855099D01*
X78686331Y-36836747D01*
X78865501Y-36782396D01*
X79030625Y-36694136D01*
X79175357Y-36575357D01*
X79294136Y-36430625D01*
X79382396Y-36265501D01*
X79436747Y-36086331D01*
X79455099Y-35900000D01*
X79436747Y-35713669D01*
X79382396Y-35534499D01*
X79369681Y-35510711D01*
X79294137Y-35369376D01*
X79294135Y-35369373D01*
X79175357Y-35224642D01*
X79030626Y-35105864D01*
X79030623Y-35105862D01*
X78865502Y-35017604D01*
X78686333Y-34963253D01*
X78686331Y-34963252D01*
X78500000Y-34944901D01*
X78313668Y-34963252D01*
X78313666Y-34963253D01*
X78134497Y-35017604D01*
X77969376Y-35105862D01*
X77969373Y-35105864D01*
X77824642Y-35224642D01*
X77705864Y-35369373D01*
X77705862Y-35369376D01*
X77617604Y-35534497D01*
X77563253Y-35713666D01*
X77563252Y-35713668D01*
X77544901Y-35900000D01*
X52765141Y-35900000D01*
X52679495Y-35866821D01*
X52602456Y-35836976D01*
X52401976Y-35799500D01*
X52198024Y-35799500D01*
X51997544Y-35836976D01*
X51997541Y-35836976D01*
X51997541Y-35836977D01*
X51807364Y-35910651D01*
X51807357Y-35910655D01*
X51633960Y-36018017D01*
X51633958Y-36018019D01*
X51483237Y-36155418D01*
X51360327Y-36318178D01*
X51301897Y-36435520D01*
X51254393Y-36486757D01*
X51186730Y-36504178D01*
X51120390Y-36482252D01*
X51091943Y-36454974D01*
X51016765Y-36355422D01*
X51016763Y-36355419D01*
X50866041Y-36218019D01*
X50866039Y-36218017D01*
X50692642Y-36110655D01*
X50692635Y-36110651D01*
X50597546Y-36073814D01*
X50502456Y-36036976D01*
X50301976Y-35999500D01*
X50098024Y-35999500D01*
X49897544Y-36036976D01*
X49897541Y-36036976D01*
X49897541Y-36036977D01*
X49707364Y-36110651D01*
X49707357Y-36110655D01*
X49533960Y-36218017D01*
X49533958Y-36218019D01*
X49383237Y-36355418D01*
X49260327Y-36518178D01*
X49169422Y-36700739D01*
X49169417Y-36700752D01*
X49119266Y-36877014D01*
X49081987Y-36936107D01*
X49018677Y-36965664D01*
X48949437Y-36956302D01*
X48896251Y-36910992D01*
X48880734Y-36877014D01*
X48867535Y-36830625D01*
X48830582Y-36700750D01*
X48828673Y-36696917D01*
X48780664Y-36600500D01*
X48739673Y-36518179D01*
X48636821Y-36381981D01*
X48616762Y-36355418D01*
X48466041Y-36218019D01*
X48466039Y-36218017D01*
X48292642Y-36110655D01*
X48292635Y-36110651D01*
X48197546Y-36073814D01*
X48102456Y-36036976D01*
X47901976Y-35999500D01*
X47698024Y-35999500D01*
X47497544Y-36036976D01*
X47497541Y-36036976D01*
X47497541Y-36036977D01*
X47307364Y-36110651D01*
X47307357Y-36110655D01*
X47133960Y-36218017D01*
X47133958Y-36218019D01*
X46983237Y-36355418D01*
X46860327Y-36518178D01*
X46769422Y-36700739D01*
X46769417Y-36700752D01*
X46713602Y-36896917D01*
X46694785Y-37099999D01*
X32454998Y-37099999D01*
X32454998Y-34761023D01*
X32474683Y-34693984D01*
X32527487Y-34648229D01*
X32596645Y-34638285D01*
X32660201Y-34667310D01*
X32685112Y-34696869D01*
X32720506Y-34755418D01*
X32733473Y-34776868D01*
X32934954Y-35034039D01*
X33165960Y-35265045D01*
X33423131Y-35466526D01*
X33423134Y-35466528D01*
X33423137Y-35466530D01*
X33702721Y-35635545D01*
X34000639Y-35769627D01*
X34000652Y-35769631D01*
X34000657Y-35769633D01*
X34312547Y-35866821D01*
X34633896Y-35925710D01*
X34960000Y-35945436D01*
X35286104Y-35925710D01*
X35607453Y-35866821D01*
X35919361Y-35769627D01*
X36217279Y-35635545D01*
X36441499Y-35499999D01*
X44394785Y-35499999D01*
X44394785Y-35500000D01*
X44413602Y-35703082D01*
X44469417Y-35899247D01*
X44469422Y-35899260D01*
X44560327Y-36081821D01*
X44683237Y-36244581D01*
X44833958Y-36381980D01*
X44833960Y-36381982D01*
X44920428Y-36435520D01*
X45007363Y-36489348D01*
X45197544Y-36563024D01*
X45398024Y-36600500D01*
X45398026Y-36600500D01*
X45601974Y-36600500D01*
X45601976Y-36600500D01*
X45802456Y-36563024D01*
X45992637Y-36489348D01*
X46166041Y-36381981D01*
X46316764Y-36244579D01*
X46439673Y-36081821D01*
X46530582Y-35899250D01*
X46586397Y-35703083D01*
X46605215Y-35500000D01*
X46594959Y-35389323D01*
X46586397Y-35296917D01*
X46577329Y-35265048D01*
X46530582Y-35100750D01*
X46499336Y-35038000D01*
X46462117Y-34963253D01*
X46439673Y-34918179D01*
X46331597Y-34775063D01*
X46316762Y-34755418D01*
X46166041Y-34618019D01*
X46166039Y-34618017D01*
X45992642Y-34510655D01*
X45992635Y-34510651D01*
X45847660Y-34454488D01*
X45802456Y-34436976D01*
X45601976Y-34399500D01*
X45398024Y-34399500D01*
X45197544Y-34436976D01*
X45197541Y-34436976D01*
X45197541Y-34436977D01*
X45007364Y-34510651D01*
X45007357Y-34510655D01*
X44833960Y-34618017D01*
X44833958Y-34618019D01*
X44683237Y-34755418D01*
X44560327Y-34918178D01*
X44469422Y-35100739D01*
X44469417Y-35100752D01*
X44413602Y-35296917D01*
X44394785Y-35499999D01*
X36441499Y-35499999D01*
X36496863Y-35466530D01*
X36754036Y-35265048D01*
X36985048Y-35034036D01*
X37186530Y-34776863D01*
X37355545Y-34497279D01*
X37489627Y-34199361D01*
X37586821Y-33887453D01*
X37645710Y-33566104D01*
X37665436Y-33240000D01*
X37645710Y-32913896D01*
X37586821Y-32592547D01*
X37567028Y-32529029D01*
X37489633Y-32280657D01*
X37489631Y-32280652D01*
X37489627Y-32280639D01*
X37355545Y-31982721D01*
X37186530Y-31703137D01*
X37186528Y-31703134D01*
X37186526Y-31703131D01*
X36985045Y-31445960D01*
X36754039Y-31214954D01*
X36496868Y-31013473D01*
X36484278Y-31005862D01*
X36342437Y-30920115D01*
X36295251Y-30868589D01*
X36283412Y-30799730D01*
X36310681Y-30735401D01*
X36368400Y-30696027D01*
X36406588Y-30690000D01*
X57777385Y-30690000D01*
X57844424Y-30709685D01*
G37*
%TD.AperFunction*%
%TD*%
M02*
