%TF.GenerationSoftware,KiCad,Pcbnew,8.0.2*%
%TF.CreationDate,2024-06-10T22:47:20+08:00*%
%TF.ProjectId,bldcDriver,626c6463-4472-4697-9665-722e6b696361,rev?*%
%TF.SameCoordinates,Original*%
%TF.FileFunction,Soldermask,Top*%
%TF.FilePolarity,Negative*%
%FSLAX46Y46*%
G04 Gerber Fmt 4.6, Leading zero omitted, Abs format (unit mm)*
G04 Created by KiCad (PCBNEW 8.0.2) date 2024-06-10 22:47:20*
%MOMM*%
%LPD*%
G01*
G04 APERTURE LIST*
G04 Aperture macros list*
%AMRoundRect*
0 Rectangle with rounded corners*
0 $1 Rounding radius*
0 $2 $3 $4 $5 $6 $7 $8 $9 X,Y pos of 4 corners*
0 Add a 4 corners polygon primitive as box body*
4,1,4,$2,$3,$4,$5,$6,$7,$8,$9,$2,$3,0*
0 Add four circle primitives for the rounded corners*
1,1,$1+$1,$2,$3*
1,1,$1+$1,$4,$5*
1,1,$1+$1,$6,$7*
1,1,$1+$1,$8,$9*
0 Add four rect primitives between the rounded corners*
20,1,$1+$1,$2,$3,$4,$5,0*
20,1,$1+$1,$4,$5,$6,$7,0*
20,1,$1+$1,$6,$7,$8,$9,0*
20,1,$1+$1,$8,$9,$2,$3,0*%
G04 Aperture macros list end*
%ADD10C,1.000000*%
%ADD11R,0.500000X1.700000*%
%ADD12R,2.000000X3.000000*%
%ADD13C,1.524000*%
%ADD14R,1.000000X1.000000*%
%ADD15R,1.700000X0.500000*%
%ADD16R,2.500000X1.200000*%
%ADD17R,0.400000X1.500000*%
%ADD18R,2.000000X2.400000*%
%ADD19R,1.800000X0.350000*%
%ADD20R,3.200000X2.500000*%
%ADD21C,4.400000*%
%ADD22RoundRect,0.250000X-0.325000X-0.450000X0.325000X-0.450000X0.325000X0.450000X-0.325000X0.450000X0*%
%ADD23R,1.530000X1.360000*%
%ADD24R,3.800000X3.800000*%
%ADD25C,3.800000*%
G04 APERTURE END LIST*
D10*
%TO.C,TP13*%
X93200000Y-60700000D03*
%TD*%
D11*
%TO.C,J2*%
X88600000Y-66900000D03*
X89600000Y-66900000D03*
X90600000Y-66900000D03*
X91600000Y-66900000D03*
X92600000Y-66900000D03*
X93600000Y-66900000D03*
D12*
X94700000Y-70300000D03*
X87500000Y-70300000D03*
%TD*%
D13*
%TO.C,RV1*%
X103540000Y-34460000D03*
X101000000Y-37000000D03*
X98460000Y-34460000D03*
%TD*%
D14*
%TO.C,TP1*%
X37386500Y-59843500D03*
%TD*%
D15*
%TO.C,CN2*%
X117171500Y-61703500D03*
X117171500Y-60703500D03*
X117171500Y-59703500D03*
D16*
X120571500Y-58603500D03*
X120571500Y-62803500D03*
%TD*%
D17*
%TO.C,P1*%
X92487000Y-42113000D03*
X92987000Y-40085000D03*
X93487000Y-42113000D03*
X93987000Y-40085000D03*
D18*
X95800000Y-41100000D03*
X90674000Y-41091000D03*
%TD*%
D10*
%TO.C,TP10*%
X72500000Y-52500000D03*
%TD*%
%TO.C,TP17*%
X71400000Y-62400000D03*
%TD*%
%TO.C,TP27*%
X47900000Y-50700000D03*
%TD*%
%TO.C,TP14*%
X61200000Y-53900000D03*
%TD*%
D19*
%TO.C,U4*%
X117250000Y-42150000D03*
X117250000Y-42650000D03*
X117250000Y-43150000D03*
X117250000Y-43650000D03*
X117250000Y-44150000D03*
X117250000Y-44650000D03*
D20*
X119150000Y-46600000D03*
X119150000Y-40200000D03*
%TD*%
D14*
%TO.C,TP3*%
X37366500Y-56433500D03*
%TD*%
D10*
%TO.C,TP7*%
X75700000Y-56300000D03*
%TD*%
%TO.C,TP19*%
X81400000Y-56300000D03*
%TD*%
D21*
%TO.C,*%
X34960000Y-33240000D03*
%TD*%
D22*
%TO.C,D12*%
X100775000Y-45100000D03*
X102825000Y-45100000D03*
%TD*%
D10*
%TO.C,TP9*%
X106900000Y-69900000D03*
%TD*%
%TO.C,TP21*%
X44600000Y-42100000D03*
%TD*%
D21*
%TO.C,*%
X119660000Y-33240000D03*
%TD*%
D14*
%TO.C,TP5*%
X118520000Y-60690000D03*
%TD*%
%TO.C,TP2*%
X35266500Y-58133500D03*
%TD*%
D10*
%TO.C,TP20*%
X40200000Y-33350000D03*
%TD*%
D23*
%TO.C,SW1*%
X88465000Y-32500000D03*
X92535000Y-32500000D03*
%TD*%
D10*
%TO.C,TP24*%
X76700000Y-39400000D03*
%TD*%
%TO.C,TP15*%
X64800000Y-52500000D03*
%TD*%
D23*
%TO.C,SW2*%
X68835000Y-32400000D03*
X64765000Y-32400000D03*
%TD*%
D10*
%TO.C,TP16*%
X63700000Y-56300000D03*
%TD*%
%TO.C,TP12*%
X94900000Y-62700000D03*
%TD*%
%TO.C,TP26*%
X107300000Y-55600000D03*
%TD*%
%TO.C,TP8*%
X65800000Y-61000000D03*
%TD*%
%TO.C,TP18*%
X84600000Y-59000000D03*
%TD*%
%TO.C,TP28*%
X48300000Y-67100000D03*
%TD*%
D24*
%TO.C,J1*%
X60000000Y-47900000D03*
D25*
X55000000Y-47900000D03*
%TD*%
D10*
%TO.C,TP11*%
X83200000Y-57300000D03*
%TD*%
D14*
%TO.C,TP4*%
X117040000Y-59000000D03*
%TD*%
D15*
%TO.C,CN1*%
X37285000Y-57100000D03*
X37285000Y-58100000D03*
X37285000Y-59100000D03*
D16*
X33885000Y-60200000D03*
X33885000Y-56000000D03*
%TD*%
D21*
%TO.C,*%
X119660000Y-69640000D03*
%TD*%
D10*
%TO.C,TP25*%
X78800000Y-39600000D03*
%TD*%
D19*
%TO.C,U10*%
X37467000Y-43600000D03*
X37467000Y-43100000D03*
X37467000Y-42600000D03*
X37467000Y-42100000D03*
X37467000Y-41600000D03*
X37467000Y-41100000D03*
D20*
X35567000Y-39150000D03*
X35567000Y-45550000D03*
%TD*%
D10*
%TO.C,TP23*%
X80600000Y-37600000D03*
%TD*%
%TO.C,TP22*%
X111100000Y-32600000D03*
%TD*%
D14*
%TO.C,TP6*%
X116990000Y-62400000D03*
%TD*%
D21*
%TO.C,*%
X34960000Y-69640000D03*
%TD*%
M02*
