%TF.GenerationSoftware,KiCad,Pcbnew,8.0.2*%
%TF.CreationDate,2024-05-01T20:18:58+08:00*%
%TF.ProjectId,bldcDriver,626c6463-4472-4697-9665-722e6b696361,rev?*%
%TF.SameCoordinates,Original*%
%TF.FileFunction,Copper,L2,Inr*%
%TF.FilePolarity,Positive*%
%FSLAX46Y46*%
G04 Gerber Fmt 4.6, Leading zero omitted, Abs format (unit mm)*
G04 Created by KiCad (PCBNEW 8.0.2) date 2024-05-01 20:18:58*
%MOMM*%
%LPD*%
G01*
G04 APERTURE LIST*
%TA.AperFunction,ComponentPad*%
%ADD10R,1.700000X1.700000*%
%TD*%
%TA.AperFunction,ComponentPad*%
%ADD11O,1.700000X1.700000*%
%TD*%
%TA.AperFunction,ComponentPad*%
%ADD12C,2.500000*%
%TD*%
%TA.AperFunction,ComponentPad*%
%ADD13C,4.400000*%
%TD*%
%TA.AperFunction,ComponentPad*%
%ADD14C,0.600000*%
%TD*%
%TA.AperFunction,ViaPad*%
%ADD15C,0.900000*%
%TD*%
%TA.AperFunction,ViaPad*%
%ADD16C,0.500000*%
%TD*%
%TA.AperFunction,ViaPad*%
%ADD17C,0.600000*%
%TD*%
%TA.AperFunction,ViaPad*%
%ADD18C,0.700000*%
%TD*%
%TA.AperFunction,ViaPad*%
%ADD19C,1.200000*%
%TD*%
%TA.AperFunction,Conductor*%
%ADD20C,0.350000*%
%TD*%
%TA.AperFunction,Conductor*%
%ADD21C,0.500000*%
%TD*%
%TA.AperFunction,Conductor*%
%ADD22C,0.250000*%
%TD*%
%TA.AperFunction,Conductor*%
%ADD23C,0.600000*%
%TD*%
%TA.AperFunction,Conductor*%
%ADD24C,0.300000*%
%TD*%
G04 APERTURE END LIST*
D10*
%TO.N,+3V3*%
%TO.C,J2*%
X83950000Y-70600000D03*
D11*
%TO.N,GNDD*%
X81410000Y-70600000D03*
%TO.N,/USART3_TX*%
X78870000Y-70600000D03*
%TO.N,/USART3_RX*%
X76330000Y-70600000D03*
%TO.N,/SWDIO*%
X73790000Y-70600000D03*
%TO.N,/SWCLK*%
X71250000Y-70600000D03*
%TD*%
D12*
%TO.N,GNDPWR*%
%TO.C,J1*%
X59900000Y-48300000D03*
%TO.N,+BATT*%
X55900000Y-48300000D03*
%TD*%
D13*
%TO.N,N/C*%
%TO.C,*%
X34960000Y-33240000D03*
%TD*%
%TO.N,N/C*%
%TO.C,*%
X119660000Y-33240000D03*
%TD*%
%TO.N,N/C*%
%TO.C,*%
X119660000Y-69640000D03*
%TD*%
%TO.N,N/C*%
%TO.C,*%
X34960000Y-69640000D03*
%TD*%
D14*
%TO.N,GNDPWR*%
%TO.C,U3*%
X58190000Y-42700000D03*
X58190000Y-41600000D03*
X58190000Y-40300000D03*
X58190000Y-39100000D03*
X56990000Y-42700000D03*
X56990000Y-41600000D03*
X56990000Y-40300000D03*
X56990000Y-39100000D03*
%TD*%
D15*
%TO.N,GNDPWR*%
X53700000Y-52200000D03*
X95400000Y-59700000D03*
X106946018Y-63750002D03*
X47371789Y-58162805D03*
X50000000Y-35700000D03*
X52500000Y-35700000D03*
X34600000Y-51400000D03*
X47600000Y-35600000D03*
X64100000Y-42300000D03*
X62200000Y-31900000D03*
X53600000Y-67500000D03*
D16*
X51100000Y-66700000D03*
D15*
X60100000Y-64300000D03*
X121400000Y-54200000D03*
X34400000Y-63300000D03*
D16*
X103400000Y-70400000D03*
D15*
X61200000Y-31900000D03*
X101500000Y-53800000D03*
D16*
X102900000Y-71400000D03*
X102900000Y-70900000D03*
D15*
X35500000Y-51400000D03*
D16*
X50600000Y-66200000D03*
X51300000Y-51700000D03*
X103000000Y-56300000D03*
X51300000Y-50700000D03*
X103400000Y-70900000D03*
X103500000Y-56300000D03*
D15*
X107000000Y-62700000D03*
X94700000Y-58400000D03*
X101400000Y-69000000D03*
D16*
X50600000Y-65700000D03*
X102900000Y-70400000D03*
D15*
X120600000Y-57300000D03*
D16*
X50800000Y-51700000D03*
D15*
X35300000Y-49200000D03*
D16*
X103400000Y-71400000D03*
X103000000Y-55800000D03*
D15*
X34137500Y-65981250D03*
X120351847Y-64221760D03*
X35300000Y-54462500D03*
X47725000Y-59000000D03*
D16*
X51100000Y-65700000D03*
X51100000Y-66200000D03*
D15*
X34400000Y-49200000D03*
D16*
X103500000Y-55800000D03*
X51300000Y-51200000D03*
X50800000Y-50700000D03*
D15*
X49000000Y-42252500D03*
X121299999Y-64162499D03*
X34400000Y-54462500D03*
D16*
X50800000Y-51200000D03*
X50600000Y-66700000D03*
D15*
X53000000Y-42100000D03*
D16*
X103500000Y-55300000D03*
D15*
X44100000Y-33800000D03*
X121400000Y-57300000D03*
X120600000Y-54200000D03*
X45700000Y-34000000D03*
D16*
X103000000Y-55300000D03*
D15*
X51100000Y-42200000D03*
%TO.N,GNDD*%
X67200000Y-54800000D03*
D16*
X93575000Y-36400000D03*
D15*
X68600000Y-58300000D03*
X73100000Y-48900000D03*
X85700000Y-44700000D03*
X93100000Y-33637500D03*
X76000000Y-45000000D03*
X91700000Y-33700000D03*
X77800000Y-37100000D03*
X79500000Y-37100000D03*
X69000000Y-60300000D03*
X37500000Y-39600000D03*
X64800000Y-31900000D03*
X78500000Y-43400000D03*
X82400000Y-52400000D03*
X71800000Y-56600000D03*
X68800000Y-51500000D03*
X94000000Y-44500000D03*
D17*
X89700000Y-39900000D03*
D15*
X83300000Y-60200000D03*
X72500000Y-65600000D03*
X70900000Y-60300000D03*
D17*
X95800000Y-40075000D03*
D16*
X92400000Y-36100000D03*
D17*
X87000000Y-65600000D03*
D15*
X70400000Y-40300000D03*
X96212500Y-36287500D03*
X75300000Y-56500000D03*
X75800000Y-55000000D03*
X65800000Y-59600000D03*
X77700000Y-50600000D03*
X79300000Y-50600000D03*
X85000000Y-60300000D03*
X84362500Y-44700000D03*
X70500000Y-39000000D03*
X77700000Y-55800000D03*
X78800000Y-45000000D03*
X77200000Y-43900000D03*
X82400000Y-53800000D03*
X68700000Y-54900000D03*
D18*
X117300000Y-39700000D03*
D15*
X75700000Y-38800000D03*
X73700000Y-38900000D03*
X79900000Y-60100000D03*
%TO.N,+3V3*%
X85500000Y-37700000D03*
X82866562Y-44470937D03*
D18*
X83700000Y-53872500D03*
D16*
%TO.N,/SWDIO*%
X74375000Y-47337500D03*
%TO.N,/USART3_TX*%
X81600000Y-45725000D03*
%TO.N,/SWCLK*%
X73800000Y-46900000D03*
%TO.N,/USART3_RX*%
X80600000Y-46935000D03*
%TO.N,Net-(U4-VDD)*%
X92400000Y-44500000D03*
X96200000Y-38012500D03*
D19*
%TO.N,/inverter/2VS1*%
X116990000Y-62450000D03*
%TO.N,/inverter/2VS2*%
X118520000Y-60690000D03*
%TO.N,/inverter/2VS3*%
X117040000Y-58950000D03*
%TO.N,/inverter/1VS1*%
X37300000Y-57110000D03*
%TO.N,/inverter/1VS2*%
X35860000Y-58910000D03*
D16*
X45300000Y-58900000D03*
X44800000Y-58900000D03*
X45300000Y-59400000D03*
X45800000Y-59400000D03*
X44800000Y-59400000D03*
X44800000Y-58400000D03*
X45800000Y-58400000D03*
X45800000Y-58900000D03*
X45300000Y-58400000D03*
D19*
%TO.N,/inverter/1VS3*%
X37320000Y-60610000D03*
D16*
%TO.N,/inverter/2HO2*%
X103739111Y-62652167D03*
X114246250Y-59940000D03*
%TO.N,/USART2_TX*%
X78913411Y-39768626D03*
%TO.N,/USART2_RX*%
X90800000Y-41275000D03*
%TO.N,/ADC2_IN12*%
X81375563Y-44075954D03*
X86700000Y-60200000D03*
%TO.N,/VREF_OP1*%
X77725000Y-52297500D03*
X76700000Y-65200000D03*
%TD*%
D20*
%TO.N,GNDD*%
X82400000Y-52400000D02*
X82400000Y-53800000D01*
D21*
%TO.N,+3V3*%
X82900000Y-44437499D02*
X82866562Y-44470937D01*
X85500000Y-37700000D02*
X82900000Y-40300000D01*
D22*
X83950000Y-70600000D02*
X83950000Y-54600000D01*
X83950000Y-54600000D02*
X83950000Y-54400000D01*
X83950000Y-54600000D02*
X83950000Y-54122500D01*
X83950000Y-54400000D02*
X83950000Y-54150000D01*
X83950000Y-54150000D02*
X83800000Y-54000000D01*
X83950000Y-54122500D02*
X83700000Y-53872500D01*
D21*
X82900000Y-40300000D02*
X82900000Y-44437499D01*
D22*
%TO.N,/SWDIO*%
X73790000Y-70600000D02*
X74640000Y-69750000D01*
X74640000Y-69750000D02*
X74640000Y-47602500D01*
X74640000Y-47602500D02*
X74375000Y-47337500D01*
%TO.N,/USART3_TX*%
X81511019Y-67958981D02*
X78870000Y-70600000D01*
X81600000Y-45725000D02*
X81511019Y-45813981D01*
X81511019Y-45813981D02*
X81511019Y-67958981D01*
%TO.N,/SWCLK*%
X70125000Y-50575000D02*
X70125000Y-69475000D01*
X70125000Y-69475000D02*
X71250000Y-70600000D01*
X73800000Y-46900000D02*
X70125000Y-50575000D01*
%TO.N,/USART3_RX*%
X80600000Y-66330000D02*
X80600000Y-46935000D01*
X76330000Y-70600000D02*
X80600000Y-66330000D01*
%TO.N,Net-(U4-VDD)*%
X92400000Y-44500000D02*
X92400000Y-42591116D01*
X92400000Y-42591116D02*
X96200000Y-38791116D01*
X96200000Y-38791116D02*
X96200000Y-38012500D01*
D23*
%TO.N,/inverter/1VS2*%
X45800000Y-59400000D02*
X44800000Y-59400000D01*
X44800000Y-58400000D02*
X45800000Y-58400000D01*
X45090000Y-58910000D02*
X35860000Y-58910000D01*
X45800000Y-58400000D02*
X45800000Y-59400000D01*
X45300000Y-58700000D02*
X45090000Y-58910000D01*
D24*
%TO.N,/inverter/2HO2*%
X103739111Y-62652167D02*
X106451278Y-59940000D01*
X106451278Y-59940000D02*
X114246250Y-59940000D01*
D22*
%TO.N,/ADC2_IN12*%
X86700000Y-49400391D02*
X86700000Y-60200000D01*
X81375563Y-44075954D02*
X86700000Y-49400391D01*
D24*
%TO.N,/VREF_OP1*%
X76700000Y-65200000D02*
X76700000Y-53322500D01*
X76700000Y-53322500D02*
X77725000Y-52297500D01*
%TD*%
%TA.AperFunction,Conductor*%
%TO.N,GNDPWR*%
G36*
X118280451Y-30709685D02*
G01*
X118326206Y-30762489D01*
X118336150Y-30831647D01*
X118307125Y-30895203D01*
X118277564Y-30920115D01*
X118236564Y-30944901D01*
X118123131Y-31013473D01*
X117865960Y-31214954D01*
X117634954Y-31445960D01*
X117433473Y-31703131D01*
X117264454Y-31982723D01*
X117264453Y-31982725D01*
X117130372Y-32280642D01*
X117130366Y-32280657D01*
X117033178Y-32592547D01*
X116974289Y-32913900D01*
X116954564Y-33240000D01*
X116974289Y-33566099D01*
X117033178Y-33887452D01*
X117130366Y-34199342D01*
X117130370Y-34199354D01*
X117130373Y-34199361D01*
X117264455Y-34497279D01*
X117359861Y-34655099D01*
X117433473Y-34776868D01*
X117634954Y-35034039D01*
X117865960Y-35265045D01*
X118123131Y-35466526D01*
X118123134Y-35466528D01*
X118123137Y-35466530D01*
X118402721Y-35635545D01*
X118700639Y-35769627D01*
X118700652Y-35769631D01*
X118700657Y-35769633D01*
X118828654Y-35809518D01*
X119012547Y-35866821D01*
X119333896Y-35925710D01*
X119660000Y-35945436D01*
X119986104Y-35925710D01*
X120307453Y-35866821D01*
X120619361Y-35769627D01*
X120917279Y-35635545D01*
X121196863Y-35466530D01*
X121454036Y-35265048D01*
X121685048Y-35034036D01*
X121886530Y-34776863D01*
X122005726Y-34579688D01*
X122057252Y-34532504D01*
X122126111Y-34520665D01*
X122190440Y-34547934D01*
X122229814Y-34605652D01*
X122235841Y-34643841D01*
X122235841Y-68236158D01*
X122216156Y-68303197D01*
X122163352Y-68348952D01*
X122094194Y-68358896D01*
X122030638Y-68329871D01*
X122005724Y-68300308D01*
X121978495Y-68255266D01*
X121886530Y-68103137D01*
X121886528Y-68103134D01*
X121886526Y-68103131D01*
X121685045Y-67845960D01*
X121454039Y-67614954D01*
X121196868Y-67413473D01*
X121189306Y-67408901D01*
X120917279Y-67244455D01*
X120619361Y-67110373D01*
X120619354Y-67110370D01*
X120619342Y-67110366D01*
X120307452Y-67013178D01*
X119986099Y-66954289D01*
X119660000Y-66934564D01*
X119333900Y-66954289D01*
X119012547Y-67013178D01*
X118700657Y-67110366D01*
X118700641Y-67110372D01*
X118700639Y-67110373D01*
X118633142Y-67140751D01*
X118402725Y-67244453D01*
X118402723Y-67244454D01*
X118123131Y-67413473D01*
X117865960Y-67614954D01*
X117634954Y-67845960D01*
X117433473Y-68103131D01*
X117264454Y-68382723D01*
X117264453Y-68382725D01*
X117130372Y-68680642D01*
X117130366Y-68680657D01*
X117033178Y-68992547D01*
X116974289Y-69313900D01*
X116954564Y-69640000D01*
X116974289Y-69966099D01*
X117033178Y-70287452D01*
X117130366Y-70599342D01*
X117130370Y-70599354D01*
X117130373Y-70599361D01*
X117264455Y-70897279D01*
X117428901Y-71169306D01*
X117433473Y-71176868D01*
X117634954Y-71434039D01*
X117865960Y-71665045D01*
X118123131Y-71866526D01*
X118123134Y-71866528D01*
X118123137Y-71866530D01*
X118277562Y-71959884D01*
X118324749Y-72011411D01*
X118336588Y-72080270D01*
X118309319Y-72144599D01*
X118251600Y-72183973D01*
X118213412Y-72190000D01*
X84930785Y-72190000D01*
X84863746Y-72170315D01*
X84817991Y-72117511D01*
X84808047Y-72048353D01*
X84837072Y-71984797D01*
X84895850Y-71947023D01*
X84902268Y-71945324D01*
X84907479Y-71944092D01*
X84907481Y-71944091D01*
X84907483Y-71944091D01*
X85042331Y-71893796D01*
X85157546Y-71807546D01*
X85243796Y-71692331D01*
X85294091Y-71557483D01*
X85300500Y-71497873D01*
X85300499Y-69702128D01*
X85294091Y-69642517D01*
X85293152Y-69640000D01*
X85243797Y-69507671D01*
X85243793Y-69507664D01*
X85157547Y-69392455D01*
X85157544Y-69392452D01*
X85042335Y-69306206D01*
X85042328Y-69306202D01*
X84907482Y-69255908D01*
X84907483Y-69255908D01*
X84847883Y-69249501D01*
X84847881Y-69249500D01*
X84847873Y-69249500D01*
X84847865Y-69249500D01*
X84699500Y-69249500D01*
X84632461Y-69229815D01*
X84586706Y-69177011D01*
X84575500Y-69125500D01*
X84575500Y-65599996D01*
X86194435Y-65599996D01*
X86194435Y-65600003D01*
X86214630Y-65779249D01*
X86214631Y-65779254D01*
X86274211Y-65949523D01*
X86350484Y-66070910D01*
X86370184Y-66102262D01*
X86497738Y-66229816D01*
X86650478Y-66325789D01*
X86820745Y-66385368D01*
X86820750Y-66385369D01*
X86999996Y-66405565D01*
X87000000Y-66405565D01*
X87000004Y-66405565D01*
X87179249Y-66385369D01*
X87179252Y-66385368D01*
X87179255Y-66385368D01*
X87349522Y-66325789D01*
X87502262Y-66229816D01*
X87629816Y-66102262D01*
X87725789Y-65949522D01*
X87785368Y-65779255D01*
X87797578Y-65670890D01*
X87805565Y-65600003D01*
X87805565Y-65599996D01*
X87785369Y-65420750D01*
X87785368Y-65420745D01*
X87725788Y-65250476D01*
X87629815Y-65097737D01*
X87502262Y-64970184D01*
X87349523Y-64874211D01*
X87179254Y-64814631D01*
X87179249Y-64814630D01*
X87000004Y-64794435D01*
X86999996Y-64794435D01*
X86820750Y-64814630D01*
X86820745Y-64814631D01*
X86650476Y-64874211D01*
X86497737Y-64970184D01*
X86370184Y-65097737D01*
X86274211Y-65250476D01*
X86214631Y-65420745D01*
X86214630Y-65420750D01*
X86194435Y-65599996D01*
X84575500Y-65599996D01*
X84575500Y-62652164D01*
X102983862Y-62652164D01*
X102983862Y-62652169D01*
X103002796Y-62820223D01*
X103058656Y-62979861D01*
X103058658Y-62979864D01*
X103148629Y-63123051D01*
X103148634Y-63123057D01*
X103268220Y-63242643D01*
X103268226Y-63242648D01*
X103411413Y-63332619D01*
X103411416Y-63332621D01*
X103411420Y-63332622D01*
X103411421Y-63332623D01*
X103484024Y-63358027D01*
X103571054Y-63388481D01*
X103739108Y-63407416D01*
X103739111Y-63407416D01*
X103739114Y-63407416D01*
X103907167Y-63388481D01*
X103907170Y-63388480D01*
X104066801Y-63332623D01*
X104066803Y-63332621D01*
X104066805Y-63332621D01*
X104066808Y-63332619D01*
X104209995Y-63242648D01*
X104209996Y-63242647D01*
X104210001Y-63242644D01*
X104329588Y-63123057D01*
X104419565Y-62979861D01*
X104419567Y-62979856D01*
X104457694Y-62870894D01*
X104487052Y-62824170D01*
X104861223Y-62449999D01*
X115884785Y-62449999D01*
X115884785Y-62450000D01*
X115903602Y-62653082D01*
X115959417Y-62849247D01*
X115959422Y-62849260D01*
X116050327Y-63031821D01*
X116173237Y-63194581D01*
X116323958Y-63331980D01*
X116323960Y-63331982D01*
X116415208Y-63388480D01*
X116497363Y-63439348D01*
X116687544Y-63513024D01*
X116888024Y-63550500D01*
X116888026Y-63550500D01*
X117091974Y-63550500D01*
X117091976Y-63550500D01*
X117292456Y-63513024D01*
X117482637Y-63439348D01*
X117656041Y-63331981D01*
X117806764Y-63194579D01*
X117929673Y-63031821D01*
X118020582Y-62849250D01*
X118076397Y-62653083D01*
X118095215Y-62450000D01*
X118076397Y-62246917D01*
X118020582Y-62050750D01*
X117932495Y-61873847D01*
X117920235Y-61805065D01*
X117947108Y-61740570D01*
X118004584Y-61700842D01*
X118074414Y-61698494D01*
X118088288Y-61702950D01*
X118217544Y-61753024D01*
X118418024Y-61790500D01*
X118418026Y-61790500D01*
X118621974Y-61790500D01*
X118621976Y-61790500D01*
X118822456Y-61753024D01*
X119012637Y-61679348D01*
X119186041Y-61571981D01*
X119336764Y-61434579D01*
X119459673Y-61271821D01*
X119550582Y-61089250D01*
X119606397Y-60893083D01*
X119625215Y-60690000D01*
X119606397Y-60486917D01*
X119550582Y-60290750D01*
X119542917Y-60275357D01*
X119505393Y-60199997D01*
X119459673Y-60108179D01*
X119356000Y-59970893D01*
X119336762Y-59945418D01*
X119186041Y-59808019D01*
X119186039Y-59808017D01*
X119012642Y-59700655D01*
X119012635Y-59700651D01*
X118893708Y-59654579D01*
X118822456Y-59626976D01*
X118621976Y-59589500D01*
X118418024Y-59589500D01*
X118217544Y-59626976D01*
X118217542Y-59626976D01*
X118217540Y-59626977D01*
X118162580Y-59648269D01*
X118092956Y-59654131D01*
X118031216Y-59621421D01*
X117996961Y-59560524D01*
X118001068Y-59490775D01*
X118006786Y-59477370D01*
X118010897Y-59469115D01*
X118070582Y-59349250D01*
X118126397Y-59153083D01*
X118145215Y-58950000D01*
X118141508Y-58909999D01*
X118126397Y-58746917D01*
X118102592Y-58663252D01*
X118070582Y-58550750D01*
X118050665Y-58510752D01*
X118026272Y-58461764D01*
X117979673Y-58368179D01*
X117856764Y-58205421D01*
X117856762Y-58205418D01*
X117706041Y-58068019D01*
X117706039Y-58068017D01*
X117532642Y-57960655D01*
X117532635Y-57960651D01*
X117387167Y-57904297D01*
X117342456Y-57886976D01*
X117141976Y-57849500D01*
X116938024Y-57849500D01*
X116737544Y-57886976D01*
X116737541Y-57886976D01*
X116737541Y-57886977D01*
X116547364Y-57960651D01*
X116547357Y-57960655D01*
X116373960Y-58068017D01*
X116373958Y-58068019D01*
X116223237Y-58205418D01*
X116100327Y-58368178D01*
X116009422Y-58550739D01*
X116009417Y-58550752D01*
X115953602Y-58746917D01*
X115934785Y-58949999D01*
X115934785Y-58950000D01*
X115953602Y-59153082D01*
X116009417Y-59349247D01*
X116009422Y-59349260D01*
X116100327Y-59531821D01*
X116223237Y-59694581D01*
X116373958Y-59831980D01*
X116373960Y-59831982D01*
X116458375Y-59884249D01*
X116547363Y-59939348D01*
X116737544Y-60013024D01*
X116938024Y-60050500D01*
X116938026Y-60050500D01*
X117141974Y-60050500D01*
X117141976Y-60050500D01*
X117342456Y-60013024D01*
X117397420Y-59991730D01*
X117467040Y-59985868D01*
X117528781Y-60018577D01*
X117563037Y-60079472D01*
X117558932Y-60149221D01*
X117553214Y-60162628D01*
X117489421Y-60290743D01*
X117489417Y-60290752D01*
X117433602Y-60486917D01*
X117414785Y-60689999D01*
X117414785Y-60690000D01*
X117433602Y-60893082D01*
X117489417Y-61089247D01*
X117489422Y-61089260D01*
X117540492Y-61191821D01*
X117576758Y-61264654D01*
X117577503Y-61266149D01*
X117589764Y-61334935D01*
X117562891Y-61399430D01*
X117505415Y-61439157D01*
X117435585Y-61441505D01*
X117421710Y-61437048D01*
X117292461Y-61386977D01*
X117292456Y-61386976D01*
X117091976Y-61349500D01*
X116888024Y-61349500D01*
X116687544Y-61386976D01*
X116687541Y-61386976D01*
X116687541Y-61386977D01*
X116497364Y-61460651D01*
X116497357Y-61460655D01*
X116323960Y-61568017D01*
X116323958Y-61568019D01*
X116173237Y-61705418D01*
X116050327Y-61868178D01*
X115959422Y-62050739D01*
X115959417Y-62050752D01*
X115903602Y-62246917D01*
X115884785Y-62449999D01*
X104861223Y-62449999D01*
X106684405Y-60626819D01*
X106745728Y-60593334D01*
X106772086Y-60590500D01*
X113835162Y-60590500D01*
X113901133Y-60609506D01*
X113904539Y-60611646D01*
X113918560Y-60620456D01*
X114078191Y-60676313D01*
X114120205Y-60681047D01*
X114246247Y-60695249D01*
X114246250Y-60695249D01*
X114246253Y-60695249D01*
X114414306Y-60676314D01*
X114429807Y-60670890D01*
X114573940Y-60620456D01*
X114573942Y-60620454D01*
X114573944Y-60620454D01*
X114573947Y-60620452D01*
X114717134Y-60530481D01*
X114717135Y-60530480D01*
X114717140Y-60530477D01*
X114836727Y-60410890D01*
X114836731Y-60410884D01*
X114926702Y-60267697D01*
X114926704Y-60267694D01*
X114926704Y-60267692D01*
X114926706Y-60267690D01*
X114982563Y-60108059D01*
X114982563Y-60108058D01*
X114982564Y-60108056D01*
X115001499Y-59940002D01*
X115001499Y-59939997D01*
X114982564Y-59771943D01*
X114941340Y-59654131D01*
X114926706Y-59612310D01*
X114926705Y-59612309D01*
X114926704Y-59612305D01*
X114926702Y-59612302D01*
X114836731Y-59469115D01*
X114836726Y-59469109D01*
X114717140Y-59349523D01*
X114717134Y-59349518D01*
X114573947Y-59259547D01*
X114573944Y-59259545D01*
X114414306Y-59203685D01*
X114246253Y-59184751D01*
X114246247Y-59184751D01*
X114078192Y-59203686D01*
X113918561Y-59259543D01*
X113901133Y-59270494D01*
X113835162Y-59289500D01*
X106387207Y-59289500D01*
X106261539Y-59314497D01*
X106261533Y-59314499D01*
X106143148Y-59363535D01*
X106036609Y-59434722D01*
X106036602Y-59434728D01*
X103567107Y-61904223D01*
X103520382Y-61933583D01*
X103411419Y-61971711D01*
X103411411Y-61971715D01*
X103268226Y-62061685D01*
X103268220Y-62061690D01*
X103148634Y-62181276D01*
X103148629Y-62181282D01*
X103058658Y-62324469D01*
X103058656Y-62324472D01*
X103002796Y-62484110D01*
X102983862Y-62652164D01*
X84575500Y-62652164D01*
X84575500Y-61331693D01*
X84595185Y-61264654D01*
X84647989Y-61218899D01*
X84717147Y-61208955D01*
X84735489Y-61213031D01*
X84813669Y-61236747D01*
X84813668Y-61236747D01*
X84830374Y-61238392D01*
X85000000Y-61255099D01*
X85186331Y-61236747D01*
X85365501Y-61182396D01*
X85530625Y-61094136D01*
X85675357Y-60975357D01*
X85794136Y-60830625D01*
X85847588Y-60730623D01*
X85884540Y-60661490D01*
X85933502Y-60611646D01*
X86001639Y-60596185D01*
X86067319Y-60620016D01*
X86098891Y-60653970D01*
X86109521Y-60670887D01*
X86109523Y-60670890D01*
X86229109Y-60790476D01*
X86229115Y-60790481D01*
X86372302Y-60880452D01*
X86372305Y-60880454D01*
X86372309Y-60880455D01*
X86372310Y-60880456D01*
X86444913Y-60905860D01*
X86531943Y-60936314D01*
X86699997Y-60955249D01*
X86700000Y-60955249D01*
X86700003Y-60955249D01*
X86868056Y-60936314D01*
X86868059Y-60936313D01*
X87027690Y-60880456D01*
X87027692Y-60880454D01*
X87027694Y-60880454D01*
X87027697Y-60880452D01*
X87170884Y-60790481D01*
X87170885Y-60790480D01*
X87170890Y-60790477D01*
X87290477Y-60670890D01*
X87293863Y-60665501D01*
X87380452Y-60527697D01*
X87380454Y-60527694D01*
X87380454Y-60527692D01*
X87380456Y-60527690D01*
X87436313Y-60368059D01*
X87436313Y-60368058D01*
X87436314Y-60368056D01*
X87455249Y-60200002D01*
X87455249Y-60199997D01*
X87436314Y-60031943D01*
X87413065Y-59965501D01*
X87380456Y-59872310D01*
X87356697Y-59834497D01*
X87344506Y-59815095D01*
X87325500Y-59749123D01*
X87325500Y-49338787D01*
X87324078Y-49331636D01*
X87301463Y-49217939D01*
X87287652Y-49184598D01*
X87254312Y-49104105D01*
X87207483Y-49034022D01*
X87185858Y-49001658D01*
X87185856Y-49001655D01*
X87095637Y-48911436D01*
X87095606Y-48911407D01*
X84016312Y-45832113D01*
X83982827Y-45770790D01*
X83987811Y-45701098D01*
X84029683Y-45645165D01*
X84095147Y-45620748D01*
X84139989Y-45625772D01*
X84176166Y-45636746D01*
X84176168Y-45636747D01*
X84192874Y-45638392D01*
X84362500Y-45655099D01*
X84548831Y-45636747D01*
X84728001Y-45582396D01*
X84893125Y-45494136D01*
X84952586Y-45445336D01*
X85016894Y-45418025D01*
X85085762Y-45429816D01*
X85109910Y-45445334D01*
X85169375Y-45494136D01*
X85334499Y-45582396D01*
X85460928Y-45620748D01*
X85513666Y-45636746D01*
X85513668Y-45636747D01*
X85530374Y-45638392D01*
X85700000Y-45655099D01*
X85886331Y-45636747D01*
X86065501Y-45582396D01*
X86230625Y-45494136D01*
X86375357Y-45375357D01*
X86494136Y-45230625D01*
X86582396Y-45065501D01*
X86636747Y-44886331D01*
X86655099Y-44700000D01*
X86636747Y-44513669D01*
X86582396Y-44334499D01*
X86545516Y-44265501D01*
X86494137Y-44169376D01*
X86494135Y-44169373D01*
X86375357Y-44024642D01*
X86230626Y-43905864D01*
X86230623Y-43905862D01*
X86065502Y-43817604D01*
X85886333Y-43763253D01*
X85886331Y-43763252D01*
X85700000Y-43744901D01*
X85513668Y-43763252D01*
X85513666Y-43763253D01*
X85334497Y-43817604D01*
X85169376Y-43905862D01*
X85169373Y-43905864D01*
X85109915Y-43954661D01*
X85045605Y-43981974D01*
X84976737Y-43970183D01*
X84952585Y-43954661D01*
X84893126Y-43905864D01*
X84893123Y-43905862D01*
X84728002Y-43817604D01*
X84548833Y-43763253D01*
X84548831Y-43763252D01*
X84362500Y-43744901D01*
X84176168Y-43763252D01*
X84176166Y-43763253D01*
X83996997Y-43817604D01*
X83832953Y-43905287D01*
X83764550Y-43919529D01*
X83699306Y-43894529D01*
X83657936Y-43838223D01*
X83650500Y-43795929D01*
X83650500Y-40662229D01*
X83670185Y-40595190D01*
X83686819Y-40574548D01*
X84361371Y-39899996D01*
X88894435Y-39899996D01*
X88894435Y-39900003D01*
X88914630Y-40079249D01*
X88914631Y-40079254D01*
X88974211Y-40249523D01*
X88990444Y-40275357D01*
X89070184Y-40402262D01*
X89197738Y-40529816D01*
X89269648Y-40575000D01*
X89348725Y-40624688D01*
X89350478Y-40625789D01*
X89518330Y-40684523D01*
X89520745Y-40685368D01*
X89520750Y-40685369D01*
X89699996Y-40705565D01*
X89700000Y-40705565D01*
X89700004Y-40705565D01*
X89879249Y-40685369D01*
X89879252Y-40685368D01*
X89879255Y-40685368D01*
X90049522Y-40625789D01*
X90049531Y-40625782D01*
X90051807Y-40624688D01*
X90053434Y-40624419D01*
X90056095Y-40623489D01*
X90056257Y-40623954D01*
X90120748Y-40613330D01*
X90184884Y-40641048D01*
X90223855Y-40699040D01*
X90225286Y-40768895D01*
X90210612Y-40802376D01*
X90119545Y-40947307D01*
X90063685Y-41106943D01*
X90044751Y-41274997D01*
X90044751Y-41275002D01*
X90063685Y-41443056D01*
X90119545Y-41602694D01*
X90119547Y-41602697D01*
X90209518Y-41745884D01*
X90209523Y-41745890D01*
X90329109Y-41865476D01*
X90329115Y-41865481D01*
X90472302Y-41955452D01*
X90472305Y-41955454D01*
X90472309Y-41955455D01*
X90472310Y-41955456D01*
X90544913Y-41980860D01*
X90631943Y-42011314D01*
X90799997Y-42030249D01*
X90800000Y-42030249D01*
X90800003Y-42030249D01*
X90968056Y-42011314D01*
X90968059Y-42011313D01*
X91127690Y-41955456D01*
X91127692Y-41955454D01*
X91127694Y-41955454D01*
X91127697Y-41955452D01*
X91270884Y-41865481D01*
X91270885Y-41865480D01*
X91270890Y-41865477D01*
X91390477Y-41745890D01*
X91480452Y-41602697D01*
X91480454Y-41602694D01*
X91480454Y-41602692D01*
X91480456Y-41602690D01*
X91536313Y-41443059D01*
X91536313Y-41443058D01*
X91536314Y-41443056D01*
X91555249Y-41275002D01*
X91555249Y-41274997D01*
X91536314Y-41106943D01*
X91480454Y-40947305D01*
X91480452Y-40947302D01*
X91390481Y-40804115D01*
X91390476Y-40804109D01*
X91373048Y-40786681D01*
X91339563Y-40725358D01*
X91344547Y-40655666D01*
X91386419Y-40599733D01*
X91451883Y-40575316D01*
X91460729Y-40575000D01*
X93232164Y-40575000D01*
X93299203Y-40594685D01*
X93344958Y-40647489D01*
X93354902Y-40716647D01*
X93325877Y-40780203D01*
X93319846Y-40786678D01*
X92503835Y-41602690D01*
X92001269Y-42105256D01*
X91914144Y-42192380D01*
X91914138Y-42192388D01*
X91845692Y-42294821D01*
X91845684Y-42294835D01*
X91812347Y-42375323D01*
X91806823Y-42388659D01*
X91798537Y-42408661D01*
X91798535Y-42408669D01*
X91774500Y-42529505D01*
X91774500Y-44049123D01*
X91755494Y-44115095D01*
X91719545Y-44172307D01*
X91663685Y-44331943D01*
X91644751Y-44499997D01*
X91644751Y-44500002D01*
X91663685Y-44668056D01*
X91719545Y-44827694D01*
X91719547Y-44827697D01*
X91809518Y-44970884D01*
X91809523Y-44970890D01*
X91929109Y-45090476D01*
X91929115Y-45090481D01*
X92072302Y-45180452D01*
X92072305Y-45180454D01*
X92072309Y-45180455D01*
X92072310Y-45180456D01*
X92089100Y-45186331D01*
X92231943Y-45236314D01*
X92399997Y-45255249D01*
X92400000Y-45255249D01*
X92400003Y-45255249D01*
X92568056Y-45236314D01*
X92568059Y-45236313D01*
X92727690Y-45180456D01*
X92727692Y-45180454D01*
X92727694Y-45180454D01*
X92727697Y-45180452D01*
X92870884Y-45090481D01*
X92870884Y-45090480D01*
X92870890Y-45090477D01*
X92990477Y-44970890D01*
X92990480Y-44970884D01*
X92991806Y-44969559D01*
X93053129Y-44936074D01*
X93122821Y-44941058D01*
X93178755Y-44982929D01*
X93188846Y-44998787D01*
X93205862Y-45030623D01*
X93205864Y-45030626D01*
X93324642Y-45175357D01*
X93469373Y-45294135D01*
X93469376Y-45294137D01*
X93602890Y-45365501D01*
X93634499Y-45382396D01*
X93790821Y-45429816D01*
X93813666Y-45436746D01*
X93813668Y-45436747D01*
X93830374Y-45438392D01*
X94000000Y-45455099D01*
X94186331Y-45436747D01*
X94365501Y-45382396D01*
X94530625Y-45294136D01*
X94675357Y-45175357D01*
X94794136Y-45030625D01*
X94882396Y-44865501D01*
X94936747Y-44686331D01*
X94955099Y-44500000D01*
X94936747Y-44313669D01*
X94882396Y-44134499D01*
X94880337Y-44130647D01*
X94794137Y-43969376D01*
X94794135Y-43969373D01*
X94675357Y-43824642D01*
X94530626Y-43705864D01*
X94530623Y-43705862D01*
X94365502Y-43617604D01*
X94186333Y-43563253D01*
X94186331Y-43563252D01*
X94000000Y-43544901D01*
X93813668Y-43563252D01*
X93813666Y-43563253D01*
X93634497Y-43617604D01*
X93469376Y-43705862D01*
X93469373Y-43705864D01*
X93324642Y-43824642D01*
X93245353Y-43921257D01*
X93187607Y-43960591D01*
X93117763Y-43962462D01*
X93057994Y-43926274D01*
X93027279Y-43863518D01*
X93025500Y-43842592D01*
X93025500Y-42901568D01*
X93045185Y-42834529D01*
X93061819Y-42813887D01*
X94010230Y-41865476D01*
X95149916Y-40725789D01*
X95211237Y-40692306D01*
X95280929Y-40697290D01*
X95303567Y-40708479D01*
X95450473Y-40800787D01*
X95450477Y-40800788D01*
X95450478Y-40800789D01*
X95620745Y-40860368D01*
X95620750Y-40860369D01*
X95799996Y-40880565D01*
X95800000Y-40880565D01*
X95800004Y-40880565D01*
X95979249Y-40860369D01*
X95979252Y-40860368D01*
X95979255Y-40860368D01*
X96149522Y-40800789D01*
X96302262Y-40704816D01*
X96429816Y-40577262D01*
X96525789Y-40424522D01*
X96585368Y-40254255D01*
X96585901Y-40249523D01*
X96605565Y-40075003D01*
X96605565Y-40074996D01*
X96585369Y-39895750D01*
X96585368Y-39895745D01*
X96579091Y-39877807D01*
X96525789Y-39725478D01*
X96525788Y-39725477D01*
X96525787Y-39725473D01*
X96509781Y-39700000D01*
X116444815Y-39700000D01*
X116463503Y-39877805D01*
X116463504Y-39877807D01*
X116518747Y-40047829D01*
X116518750Y-40047835D01*
X116608141Y-40202665D01*
X116629226Y-40226082D01*
X116727764Y-40335521D01*
X116727767Y-40335523D01*
X116727770Y-40335526D01*
X116872407Y-40440612D01*
X117035733Y-40513329D01*
X117210609Y-40550500D01*
X117210610Y-40550500D01*
X117389389Y-40550500D01*
X117389391Y-40550500D01*
X117564267Y-40513329D01*
X117727593Y-40440612D01*
X117872230Y-40335526D01*
X117991859Y-40202665D01*
X118081250Y-40047835D01*
X118136497Y-39877803D01*
X118155185Y-39700000D01*
X118136497Y-39522197D01*
X118096057Y-39397737D01*
X118081252Y-39352170D01*
X118081249Y-39352164D01*
X118068814Y-39330626D01*
X117991859Y-39197335D01*
X117932237Y-39131118D01*
X117872235Y-39064478D01*
X117872232Y-39064476D01*
X117872231Y-39064475D01*
X117872230Y-39064474D01*
X117727593Y-38959388D01*
X117564267Y-38886671D01*
X117564265Y-38886670D01*
X117436594Y-38859533D01*
X117389391Y-38849500D01*
X117210609Y-38849500D01*
X117195451Y-38852722D01*
X117035733Y-38886670D01*
X117035728Y-38886672D01*
X116872408Y-38959387D01*
X116727768Y-39064475D01*
X116608140Y-39197336D01*
X116518750Y-39352164D01*
X116518747Y-39352170D01*
X116463504Y-39522192D01*
X116463503Y-39522194D01*
X116444815Y-39700000D01*
X96509781Y-39700000D01*
X96433479Y-39578567D01*
X96414478Y-39511331D01*
X96434845Y-39444496D01*
X96450781Y-39424925D01*
X96685858Y-39189849D01*
X96754312Y-39087401D01*
X96790514Y-39000000D01*
X96801463Y-38973568D01*
X96804283Y-38959389D01*
X96805451Y-38953520D01*
X96805451Y-38953518D01*
X96825501Y-38852722D01*
X96825501Y-38729509D01*
X96825501Y-38724399D01*
X96825500Y-38724373D01*
X96825500Y-38463375D01*
X96844507Y-38397402D01*
X96880456Y-38340190D01*
X96885896Y-38324642D01*
X96936313Y-38180559D01*
X96949277Y-38065501D01*
X96955249Y-38012502D01*
X96955249Y-38012497D01*
X96936314Y-37844443D01*
X96880454Y-37684805D01*
X96880452Y-37684802D01*
X96790481Y-37541615D01*
X96790476Y-37541609D01*
X96670890Y-37422023D01*
X96670887Y-37422021D01*
X96592252Y-37372610D01*
X96545961Y-37320275D01*
X96535314Y-37251221D01*
X96563690Y-37187373D01*
X96599767Y-37158261D01*
X96743125Y-37081636D01*
X96887857Y-36962857D01*
X97006636Y-36818125D01*
X97094896Y-36653001D01*
X97149247Y-36473831D01*
X97167599Y-36287500D01*
X97149247Y-36101169D01*
X97094896Y-35921999D01*
X97034774Y-35809518D01*
X97006637Y-35756876D01*
X97006635Y-35756873D01*
X96887857Y-35612142D01*
X96743126Y-35493364D01*
X96743123Y-35493362D01*
X96578002Y-35405104D01*
X96398833Y-35350753D01*
X96398831Y-35350752D01*
X96212500Y-35332401D01*
X96026168Y-35350752D01*
X96026166Y-35350753D01*
X95846997Y-35405104D01*
X95681876Y-35493362D01*
X95681873Y-35493364D01*
X95537142Y-35612142D01*
X95418364Y-35756873D01*
X95418362Y-35756876D01*
X95330104Y-35921997D01*
X95275753Y-36101166D01*
X95275752Y-36101168D01*
X95257401Y-36287500D01*
X95275752Y-36473831D01*
X95275753Y-36473833D01*
X95330104Y-36653002D01*
X95418362Y-36818123D01*
X95418364Y-36818126D01*
X95537142Y-36962857D01*
X95681873Y-37081635D01*
X95681876Y-37081637D01*
X95811719Y-37151039D01*
X95861563Y-37200001D01*
X95877024Y-37268139D01*
X95853193Y-37333818D01*
X95819239Y-37365390D01*
X95729112Y-37422021D01*
X95729109Y-37422023D01*
X95609523Y-37541609D01*
X95609518Y-37541615D01*
X95519547Y-37684802D01*
X95519545Y-37684805D01*
X95463685Y-37844443D01*
X95444751Y-38012497D01*
X95444751Y-38012502D01*
X95463686Y-38180557D01*
X95519543Y-38340190D01*
X95555493Y-38397402D01*
X95574500Y-38463375D01*
X95574500Y-38480663D01*
X95554815Y-38547702D01*
X95538181Y-38568344D01*
X94336681Y-39769844D01*
X94275358Y-39803329D01*
X94205666Y-39798345D01*
X94149733Y-39756473D01*
X94125316Y-39691009D01*
X94125000Y-39682163D01*
X94125000Y-37925000D01*
X91375000Y-37925000D01*
X91375000Y-40525577D01*
X91355315Y-40592616D01*
X91302511Y-40638371D01*
X91233353Y-40648315D01*
X91185029Y-40630571D01*
X91127695Y-40594546D01*
X91127694Y-40594545D01*
X90968056Y-40538685D01*
X90800003Y-40519751D01*
X90799997Y-40519751D01*
X90631942Y-40538686D01*
X90468231Y-40595971D01*
X90398453Y-40599532D01*
X90337825Y-40564803D01*
X90305598Y-40502810D01*
X90312003Y-40433234D01*
X90326425Y-40408355D01*
X90326111Y-40408158D01*
X90334922Y-40394136D01*
X90425789Y-40249522D01*
X90485368Y-40079255D01*
X90485847Y-40075003D01*
X90505565Y-39900003D01*
X90505565Y-39899996D01*
X90485369Y-39720750D01*
X90485368Y-39720745D01*
X90451740Y-39624643D01*
X90425789Y-39550478D01*
X90329816Y-39397738D01*
X90202262Y-39270184D01*
X90145467Y-39234497D01*
X90049523Y-39174211D01*
X89879254Y-39114631D01*
X89879249Y-39114630D01*
X89700004Y-39094435D01*
X89699996Y-39094435D01*
X89520750Y-39114630D01*
X89520745Y-39114631D01*
X89350476Y-39174211D01*
X89197737Y-39270184D01*
X89070184Y-39397737D01*
X88974211Y-39550476D01*
X88914631Y-39720745D01*
X88914630Y-39720750D01*
X88894435Y-39899996D01*
X84361371Y-39899996D01*
X84626834Y-39634533D01*
X85586506Y-38674860D01*
X85647827Y-38641377D01*
X85662030Y-38639140D01*
X85686331Y-38636747D01*
X85865501Y-38582396D01*
X86030625Y-38494136D01*
X86175357Y-38375357D01*
X86294136Y-38230625D01*
X86382396Y-38065501D01*
X86436747Y-37886331D01*
X86455099Y-37700000D01*
X86436747Y-37513669D01*
X86382396Y-37334499D01*
X86346926Y-37268139D01*
X86294137Y-37169376D01*
X86294135Y-37169373D01*
X86175357Y-37024642D01*
X86030626Y-36905864D01*
X86030623Y-36905862D01*
X85865502Y-36817604D01*
X85686333Y-36763253D01*
X85686331Y-36763252D01*
X85500000Y-36744901D01*
X85313668Y-36763252D01*
X85313666Y-36763253D01*
X85134497Y-36817604D01*
X84969376Y-36905862D01*
X84969373Y-36905864D01*
X84824642Y-37024642D01*
X84705864Y-37169373D01*
X84705862Y-37169376D01*
X84617604Y-37334497D01*
X84563253Y-37513665D01*
X84560859Y-37537969D01*
X84534696Y-37602756D01*
X84525137Y-37613493D01*
X82317047Y-39821584D01*
X82317045Y-39821586D01*
X82294655Y-39855098D01*
X82285452Y-39868872D01*
X82279482Y-39877807D01*
X82234914Y-39944507D01*
X82178343Y-40081082D01*
X82178340Y-40081092D01*
X82149500Y-40226079D01*
X82149500Y-43489162D01*
X82129815Y-43556201D01*
X82077011Y-43601956D01*
X82007853Y-43611900D01*
X81944297Y-43582875D01*
X81937819Y-43576843D01*
X81846453Y-43485477D01*
X81846447Y-43485472D01*
X81703260Y-43395501D01*
X81703257Y-43395499D01*
X81543619Y-43339639D01*
X81375566Y-43320705D01*
X81375560Y-43320705D01*
X81207506Y-43339639D01*
X81047868Y-43395499D01*
X81047865Y-43395501D01*
X80904678Y-43485472D01*
X80904672Y-43485477D01*
X80785086Y-43605063D01*
X80785081Y-43605069D01*
X80695110Y-43748256D01*
X80695108Y-43748259D01*
X80639248Y-43907897D01*
X80620314Y-44075951D01*
X80620314Y-44075956D01*
X80639248Y-44244010D01*
X80695108Y-44403648D01*
X80695110Y-44403651D01*
X80785081Y-44546838D01*
X80785086Y-44546844D01*
X80904672Y-44666430D01*
X80904678Y-44666435D01*
X81047865Y-44756406D01*
X81047870Y-44756409D01*
X81047873Y-44756410D01*
X81207504Y-44812267D01*
X81207507Y-44812267D01*
X81211219Y-44813566D01*
X81257946Y-44842927D01*
X81277357Y-44862338D01*
X81310842Y-44923661D01*
X81305858Y-44993353D01*
X81263986Y-45049286D01*
X81255649Y-45055012D01*
X81129111Y-45134521D01*
X81009523Y-45254109D01*
X81009518Y-45254115D01*
X80919547Y-45397302D01*
X80919545Y-45397305D01*
X80863685Y-45556943D01*
X80844751Y-45724997D01*
X80844751Y-45725002D01*
X80863685Y-45893055D01*
X80878560Y-45935563D01*
X80885519Y-45976518D01*
X80885519Y-46073165D01*
X80865834Y-46140204D01*
X80813030Y-46185959D01*
X80747636Y-46196385D01*
X80600004Y-46179751D01*
X80599997Y-46179751D01*
X80431943Y-46198685D01*
X80272305Y-46254545D01*
X80272302Y-46254547D01*
X80129115Y-46344518D01*
X80129109Y-46344523D01*
X80009523Y-46464109D01*
X80009518Y-46464115D01*
X79919547Y-46607302D01*
X79919545Y-46607305D01*
X79863685Y-46766943D01*
X79844751Y-46934997D01*
X79844751Y-46935002D01*
X79863686Y-47103057D01*
X79919543Y-47262690D01*
X79955493Y-47319902D01*
X79974500Y-47385875D01*
X79974500Y-49675885D01*
X79954815Y-49742924D01*
X79902011Y-49788679D01*
X79832853Y-49798623D01*
X79792047Y-49785243D01*
X79665502Y-49717604D01*
X79486333Y-49663253D01*
X79486331Y-49663252D01*
X79300000Y-49644901D01*
X79113668Y-49663252D01*
X79113666Y-49663253D01*
X78934497Y-49717604D01*
X78769376Y-49805862D01*
X78769373Y-49805864D01*
X78624641Y-49924643D01*
X78595852Y-49959723D01*
X78538106Y-49999057D01*
X78468261Y-50000926D01*
X78408494Y-49964738D01*
X78404148Y-49959723D01*
X78375358Y-49924643D01*
X78230626Y-49805864D01*
X78230623Y-49805862D01*
X78065502Y-49717604D01*
X77886333Y-49663253D01*
X77886331Y-49663252D01*
X77700000Y-49644901D01*
X77513668Y-49663252D01*
X77513666Y-49663253D01*
X77334497Y-49717604D01*
X77169376Y-49805862D01*
X77169373Y-49805864D01*
X77024642Y-49924642D01*
X76905864Y-50069373D01*
X76905862Y-50069376D01*
X76817604Y-50234497D01*
X76763253Y-50413666D01*
X76763252Y-50413668D01*
X76744901Y-50600000D01*
X76763252Y-50786331D01*
X76763253Y-50786333D01*
X76817604Y-50965502D01*
X76905862Y-51130623D01*
X76905864Y-51130626D01*
X77024642Y-51275357D01*
X77169373Y-51394135D01*
X77169376Y-51394137D01*
X77295833Y-51461729D01*
X77345677Y-51510691D01*
X77361138Y-51578828D01*
X77337307Y-51644508D01*
X77303354Y-51676080D01*
X77254108Y-51707024D01*
X77134523Y-51826609D01*
X77134518Y-51826615D01*
X77044548Y-51969800D01*
X77044544Y-51969808D01*
X77006416Y-52078771D01*
X76977056Y-52125496D01*
X76194726Y-52907826D01*
X76123534Y-53014374D01*
X76074499Y-53132755D01*
X76074497Y-53132761D01*
X76049500Y-53258428D01*
X76049500Y-53932661D01*
X76029815Y-53999700D01*
X75977011Y-54045455D01*
X75913347Y-54056064D01*
X75800001Y-54044901D01*
X75800000Y-54044901D01*
X75613668Y-54063252D01*
X75613666Y-54063253D01*
X75428670Y-54119372D01*
X75428114Y-54117542D01*
X75367460Y-54124052D01*
X75304987Y-54092765D01*
X75269346Y-54032669D01*
X75265500Y-54002026D01*
X75265500Y-47670241D01*
X75265501Y-47670220D01*
X75265501Y-47540891D01*
X75241464Y-47420054D01*
X75241463Y-47420053D01*
X75241463Y-47420049D01*
X75239427Y-47415135D01*
X75235609Y-47405915D01*
X75235597Y-47405888D01*
X75227307Y-47385875D01*
X75213620Y-47352830D01*
X75194312Y-47306215D01*
X75194311Y-47306213D01*
X75194310Y-47306211D01*
X75128368Y-47207523D01*
X75114642Y-47175653D01*
X75113613Y-47176014D01*
X75055455Y-47009808D01*
X75055452Y-47009802D01*
X74965481Y-46866615D01*
X74965476Y-46866609D01*
X74845890Y-46747023D01*
X74845884Y-46747018D01*
X74702697Y-46657047D01*
X74702692Y-46657044D01*
X74543053Y-46601185D01*
X74541228Y-46600769D01*
X74540167Y-46600175D01*
X74536487Y-46598888D01*
X74536712Y-46598243D01*
X74480251Y-46566659D01*
X74463833Y-46545854D01*
X74390477Y-46429110D01*
X74270890Y-46309523D01*
X74270884Y-46309518D01*
X74127697Y-46219547D01*
X74127694Y-46219545D01*
X73968056Y-46163685D01*
X73800003Y-46144751D01*
X73799997Y-46144751D01*
X73631943Y-46163685D01*
X73472305Y-46219545D01*
X73472302Y-46219547D01*
X73329115Y-46309518D01*
X73329109Y-46309523D01*
X73209523Y-46429109D01*
X73209518Y-46429115D01*
X73119547Y-46572302D01*
X73119544Y-46572308D01*
X73062388Y-46735654D01*
X73033027Y-46782381D01*
X69726270Y-50089139D01*
X69639144Y-50176264D01*
X69639138Y-50176272D01*
X69570692Y-50278705D01*
X69570684Y-50278719D01*
X69537347Y-50359207D01*
X69531823Y-50372543D01*
X69523537Y-50392545D01*
X69523535Y-50392553D01*
X69499500Y-50513389D01*
X69499500Y-50589248D01*
X69479815Y-50656287D01*
X69427011Y-50702042D01*
X69357853Y-50711986D01*
X69317047Y-50698606D01*
X69165502Y-50617604D01*
X68986333Y-50563253D01*
X68986331Y-50563252D01*
X68800000Y-50544901D01*
X68613668Y-50563252D01*
X68613666Y-50563253D01*
X68434497Y-50617604D01*
X68269376Y-50705862D01*
X68269373Y-50705864D01*
X68124642Y-50824642D01*
X68005864Y-50969373D01*
X68005862Y-50969376D01*
X67917604Y-51134497D01*
X67863253Y-51313666D01*
X67863252Y-51313668D01*
X67844901Y-51500000D01*
X67863252Y-51686331D01*
X67863253Y-51686333D01*
X67917604Y-51865502D01*
X68005862Y-52030623D01*
X68005864Y-52030626D01*
X68124642Y-52175357D01*
X68269373Y-52294135D01*
X68269376Y-52294137D01*
X68408419Y-52368456D01*
X68434499Y-52382396D01*
X68613666Y-52436746D01*
X68613668Y-52436747D01*
X68630374Y-52438392D01*
X68800000Y-52455099D01*
X68986331Y-52436747D01*
X69165501Y-52382396D01*
X69317049Y-52301392D01*
X69385449Y-52287151D01*
X69450693Y-52312151D01*
X69492064Y-52368456D01*
X69499500Y-52410751D01*
X69499500Y-54064347D01*
X69479815Y-54131386D01*
X69427011Y-54177141D01*
X69357853Y-54187085D01*
X69296836Y-54160201D01*
X69230625Y-54105864D01*
X69230623Y-54105862D01*
X69065502Y-54017604D01*
X68886333Y-53963253D01*
X68886331Y-53963252D01*
X68700000Y-53944901D01*
X68513668Y-53963252D01*
X68513666Y-53963253D01*
X68334497Y-54017604D01*
X68169376Y-54105862D01*
X68169374Y-54105864D01*
X68080329Y-54178941D01*
X68016019Y-54206253D01*
X67947152Y-54194462D01*
X67905812Y-54161752D01*
X67875357Y-54124642D01*
X67730626Y-54005864D01*
X67730623Y-54005862D01*
X67565502Y-53917604D01*
X67386333Y-53863253D01*
X67386331Y-53863252D01*
X67200000Y-53844901D01*
X67013668Y-53863252D01*
X67013666Y-53863253D01*
X66834497Y-53917604D01*
X66669376Y-54005862D01*
X66669373Y-54005864D01*
X66524642Y-54124642D01*
X66405864Y-54269373D01*
X66405862Y-54269376D01*
X66317604Y-54434497D01*
X66263253Y-54613666D01*
X66263252Y-54613668D01*
X66244901Y-54800000D01*
X66263252Y-54986331D01*
X66263253Y-54986333D01*
X66317604Y-55165502D01*
X66405862Y-55330623D01*
X66405864Y-55330626D01*
X66524642Y-55475357D01*
X66669373Y-55594135D01*
X66669376Y-55594137D01*
X66813981Y-55671429D01*
X66834499Y-55682396D01*
X67013666Y-55736746D01*
X67013668Y-55736747D01*
X67030374Y-55738392D01*
X67200000Y-55755099D01*
X67386331Y-55736747D01*
X67565501Y-55682396D01*
X67730625Y-55594136D01*
X67819669Y-55521058D01*
X67883978Y-55493746D01*
X67952846Y-55505537D01*
X67994187Y-55538247D01*
X68024642Y-55575357D01*
X68169373Y-55694135D01*
X68169376Y-55694137D01*
X68334497Y-55782395D01*
X68334499Y-55782396D01*
X68513666Y-55836746D01*
X68513668Y-55836747D01*
X68530374Y-55838392D01*
X68700000Y-55855099D01*
X68886331Y-55836747D01*
X69065501Y-55782396D01*
X69230625Y-55694136D01*
X69251876Y-55676694D01*
X69296835Y-55639799D01*
X69361145Y-55612486D01*
X69430012Y-55624277D01*
X69481573Y-55671429D01*
X69499500Y-55735652D01*
X69499500Y-57551204D01*
X69479815Y-57618243D01*
X69427011Y-57663998D01*
X69357853Y-57673942D01*
X69294297Y-57644917D01*
X69279649Y-57629872D01*
X69275356Y-57624642D01*
X69130626Y-57505864D01*
X69130623Y-57505862D01*
X68965502Y-57417604D01*
X68786333Y-57363253D01*
X68786331Y-57363252D01*
X68600000Y-57344901D01*
X68413668Y-57363252D01*
X68413666Y-57363253D01*
X68234497Y-57417604D01*
X68069376Y-57505862D01*
X68069373Y-57505864D01*
X67924642Y-57624642D01*
X67805864Y-57769373D01*
X67805862Y-57769376D01*
X67717604Y-57934497D01*
X67663253Y-58113666D01*
X67663252Y-58113668D01*
X67644901Y-58300000D01*
X67663252Y-58486331D01*
X67663253Y-58486333D01*
X67717604Y-58665502D01*
X67805862Y-58830623D01*
X67805864Y-58830626D01*
X67924642Y-58975357D01*
X68069373Y-59094135D01*
X68069376Y-59094137D01*
X68234497Y-59182395D01*
X68234499Y-59182396D01*
X68413666Y-59236746D01*
X68413668Y-59236747D01*
X68451461Y-59240469D01*
X68479046Y-59243186D01*
X68543833Y-59269347D01*
X68584192Y-59326381D01*
X68587309Y-59396181D01*
X68552195Y-59456586D01*
X68525345Y-59475947D01*
X68469376Y-59505862D01*
X68469373Y-59505864D01*
X68324642Y-59624642D01*
X68205864Y-59769373D01*
X68205862Y-59769376D01*
X68117604Y-59934497D01*
X68063253Y-60113666D01*
X68063252Y-60113668D01*
X68044901Y-60300000D01*
X68063252Y-60486331D01*
X68063253Y-60486333D01*
X68117604Y-60665502D01*
X68205862Y-60830623D01*
X68205864Y-60830626D01*
X68324642Y-60975357D01*
X68469373Y-61094135D01*
X68469376Y-61094137D01*
X68616278Y-61172657D01*
X68634499Y-61182396D01*
X68781228Y-61226906D01*
X68813666Y-61236746D01*
X68813668Y-61236747D01*
X68830374Y-61238392D01*
X69000000Y-61255099D01*
X69186331Y-61236747D01*
X69339504Y-61190281D01*
X69409371Y-61189658D01*
X69468484Y-61226906D01*
X69498075Y-61290200D01*
X69499500Y-61308942D01*
X69499500Y-69536611D01*
X69523535Y-69657444D01*
X69523540Y-69657461D01*
X69570685Y-69771281D01*
X69570690Y-69771290D01*
X69597630Y-69811607D01*
X69597631Y-69811608D01*
X69639141Y-69873732D01*
X69639144Y-69873736D01*
X69730586Y-69965178D01*
X69730608Y-69965198D01*
X69909762Y-70144352D01*
X69943247Y-70205675D01*
X69941856Y-70264126D01*
X69914938Y-70364586D01*
X69914936Y-70364596D01*
X69894341Y-70599999D01*
X69894341Y-70600000D01*
X69914936Y-70835403D01*
X69914938Y-70835413D01*
X69976094Y-71063655D01*
X69976096Y-71063659D01*
X69976097Y-71063663D01*
X69980000Y-71072032D01*
X70075965Y-71277830D01*
X70075967Y-71277834D01*
X70184281Y-71432521D01*
X70211505Y-71471401D01*
X70378599Y-71638495D01*
X70475384Y-71706265D01*
X70572165Y-71774032D01*
X70572167Y-71774033D01*
X70572170Y-71774035D01*
X70786337Y-71873903D01*
X71014592Y-71935063D01*
X71099276Y-71942472D01*
X71164344Y-71967925D01*
X71205323Y-72024516D01*
X71209201Y-72094278D01*
X71174747Y-72155062D01*
X71112900Y-72187569D01*
X71088468Y-72190000D01*
X36406588Y-72190000D01*
X36339549Y-72170315D01*
X36293794Y-72117511D01*
X36283850Y-72048353D01*
X36312875Y-71984797D01*
X36342435Y-71959884D01*
X36496863Y-71866530D01*
X36754036Y-71665048D01*
X36985048Y-71434036D01*
X37186530Y-71176863D01*
X37355545Y-70897279D01*
X37489627Y-70599361D01*
X37586821Y-70287453D01*
X37645710Y-69966104D01*
X37665436Y-69640000D01*
X37645710Y-69313896D01*
X37586821Y-68992547D01*
X37489627Y-68680639D01*
X37355545Y-68382721D01*
X37186530Y-68103137D01*
X37186528Y-68103134D01*
X37186526Y-68103131D01*
X36985045Y-67845960D01*
X36754039Y-67614954D01*
X36496868Y-67413473D01*
X36489306Y-67408901D01*
X36217279Y-67244455D01*
X35919361Y-67110373D01*
X35919354Y-67110370D01*
X35919342Y-67110366D01*
X35607452Y-67013178D01*
X35286099Y-66954289D01*
X34960000Y-66934564D01*
X34633900Y-66954289D01*
X34312547Y-67013178D01*
X34000657Y-67110366D01*
X34000641Y-67110372D01*
X34000639Y-67110373D01*
X33933142Y-67140751D01*
X33702725Y-67244453D01*
X33702723Y-67244454D01*
X33423131Y-67413473D01*
X33165960Y-67614954D01*
X32934954Y-67845960D01*
X32733473Y-68103132D01*
X32733470Y-68103137D01*
X32700810Y-68157164D01*
X32685115Y-68183126D01*
X32633587Y-68230314D01*
X32564727Y-68242152D01*
X32500399Y-68214883D01*
X32461025Y-68157164D01*
X32454998Y-68118976D01*
X32454998Y-58909999D01*
X34754785Y-58909999D01*
X34754785Y-58910000D01*
X34773602Y-59113082D01*
X34829417Y-59309247D01*
X34829422Y-59309260D01*
X34920327Y-59491821D01*
X35043237Y-59654581D01*
X35193958Y-59791980D01*
X35193960Y-59791982D01*
X35219858Y-59808017D01*
X35367363Y-59899348D01*
X35557544Y-59973024D01*
X35758024Y-60010500D01*
X35758026Y-60010500D01*
X35961974Y-60010500D01*
X35961976Y-60010500D01*
X36162456Y-59973024D01*
X36162460Y-59973022D01*
X36162462Y-59973022D01*
X36167958Y-59970893D01*
X36237581Y-59965029D01*
X36299322Y-59997737D01*
X36333579Y-60058632D01*
X36329475Y-60128381D01*
X36323756Y-60141789D01*
X36289421Y-60210743D01*
X36289417Y-60210752D01*
X36233602Y-60406917D01*
X36214785Y-60609999D01*
X36214785Y-60610000D01*
X36233602Y-60813082D01*
X36289417Y-61009247D01*
X36289422Y-61009260D01*
X36380327Y-61191821D01*
X36503237Y-61354581D01*
X36653958Y-61491980D01*
X36653960Y-61491982D01*
X36753141Y-61553392D01*
X36827363Y-61599348D01*
X37017544Y-61673024D01*
X37218024Y-61710500D01*
X37218026Y-61710500D01*
X37421974Y-61710500D01*
X37421976Y-61710500D01*
X37622456Y-61673024D01*
X37812637Y-61599348D01*
X37986041Y-61491981D01*
X38136764Y-61354579D01*
X38259673Y-61191821D01*
X38350582Y-61009250D01*
X38406397Y-60813083D01*
X38425215Y-60610000D01*
X38411825Y-60465501D01*
X38406397Y-60406917D01*
X38395340Y-60368056D01*
X38350582Y-60210750D01*
X38345478Y-60200500D01*
X38302240Y-60113666D01*
X38259673Y-60028179D01*
X38193085Y-59940002D01*
X38169845Y-59909227D01*
X38145153Y-59843865D01*
X38159718Y-59775531D01*
X38208916Y-59725918D01*
X38268799Y-59710500D01*
X43979573Y-59710500D01*
X44046612Y-59730185D01*
X44087175Y-59774144D01*
X44087221Y-59774114D01*
X44087414Y-59774403D01*
X44088931Y-59776047D01*
X44090604Y-59779177D01*
X44178210Y-59910288D01*
X44178213Y-59910292D01*
X44289707Y-60021786D01*
X44289711Y-60021789D01*
X44420814Y-60109390D01*
X44420827Y-60109397D01*
X44549340Y-60162628D01*
X44566503Y-60169737D01*
X44706765Y-60197637D01*
X44721153Y-60200499D01*
X44721156Y-60200500D01*
X44721158Y-60200500D01*
X45878844Y-60200500D01*
X45878845Y-60200499D01*
X46033497Y-60169737D01*
X46168861Y-60113668D01*
X46179172Y-60109397D01*
X46179172Y-60109396D01*
X46179179Y-60109394D01*
X46310289Y-60021789D01*
X46421789Y-59910289D01*
X46509394Y-59779179D01*
X46569737Y-59633497D01*
X46576400Y-59600000D01*
X64844901Y-59600000D01*
X64863252Y-59786331D01*
X64863253Y-59786333D01*
X64917604Y-59965502D01*
X65005862Y-60130623D01*
X65005864Y-60130626D01*
X65124642Y-60275357D01*
X65269373Y-60394135D01*
X65269376Y-60394137D01*
X65402890Y-60465501D01*
X65434499Y-60482396D01*
X65593000Y-60530477D01*
X65613666Y-60536746D01*
X65613668Y-60536747D01*
X65630374Y-60538392D01*
X65800000Y-60555099D01*
X65986331Y-60536747D01*
X66165501Y-60482396D01*
X66330625Y-60394136D01*
X66475357Y-60275357D01*
X66594136Y-60130625D01*
X66682396Y-59965501D01*
X66736747Y-59786331D01*
X66755099Y-59600000D01*
X66736747Y-59413669D01*
X66682396Y-59234499D01*
X66676149Y-59222812D01*
X66594137Y-59069376D01*
X66594135Y-59069373D01*
X66475357Y-58924642D01*
X66330626Y-58805864D01*
X66330623Y-58805862D01*
X66165502Y-58717604D01*
X65986333Y-58663253D01*
X65986331Y-58663252D01*
X65800000Y-58644901D01*
X65613668Y-58663252D01*
X65613666Y-58663253D01*
X65434497Y-58717604D01*
X65269376Y-58805862D01*
X65269373Y-58805864D01*
X65124642Y-58924642D01*
X65005864Y-59069373D01*
X65005862Y-59069376D01*
X64917604Y-59234497D01*
X64863253Y-59413666D01*
X64863252Y-59413668D01*
X64844901Y-59600000D01*
X46576400Y-59600000D01*
X46600500Y-59478842D01*
X46600500Y-58321158D01*
X46600500Y-58321155D01*
X46600499Y-58321153D01*
X46577478Y-58205421D01*
X46569737Y-58166503D01*
X46547852Y-58113668D01*
X46509397Y-58020827D01*
X46509390Y-58020814D01*
X46421789Y-57889711D01*
X46421786Y-57889707D01*
X46310292Y-57778213D01*
X46310288Y-57778210D01*
X46179185Y-57690609D01*
X46179172Y-57690602D01*
X46033501Y-57630264D01*
X46033489Y-57630261D01*
X45878845Y-57599500D01*
X45878842Y-57599500D01*
X44721158Y-57599500D01*
X44721155Y-57599500D01*
X44566510Y-57630261D01*
X44566498Y-57630264D01*
X44420827Y-57690602D01*
X44420814Y-57690609D01*
X44289711Y-57778210D01*
X44289707Y-57778213D01*
X44178213Y-57889707D01*
X44178210Y-57889711D01*
X44090609Y-58020814D01*
X44090604Y-58020824D01*
X44085582Y-58032950D01*
X44041742Y-58087355D01*
X43975448Y-58109421D01*
X43971020Y-58109500D01*
X38157210Y-58109500D01*
X38090171Y-58089815D01*
X38044416Y-58037011D01*
X38034472Y-57967853D01*
X38063497Y-57904297D01*
X38073672Y-57893863D01*
X38116762Y-57854581D01*
X38120599Y-57849500D01*
X38239673Y-57691821D01*
X38330582Y-57509250D01*
X38386397Y-57313083D01*
X38405215Y-57110000D01*
X38391825Y-56965501D01*
X38386397Y-56906917D01*
X38371467Y-56854445D01*
X38330582Y-56710750D01*
X38316463Y-56682396D01*
X38272515Y-56594135D01*
X38239673Y-56528179D01*
X38153199Y-56413669D01*
X38116762Y-56365418D01*
X37966041Y-56228019D01*
X37966039Y-56228017D01*
X37792642Y-56120655D01*
X37792635Y-56120651D01*
X37660275Y-56069375D01*
X37602456Y-56046976D01*
X37401976Y-56009500D01*
X37198024Y-56009500D01*
X36997544Y-56046976D01*
X36997541Y-56046976D01*
X36997541Y-56046977D01*
X36807364Y-56120651D01*
X36807357Y-56120655D01*
X36633960Y-56228017D01*
X36633958Y-56228019D01*
X36483237Y-56365418D01*
X36360327Y-56528178D01*
X36269422Y-56710739D01*
X36269417Y-56710752D01*
X36213602Y-56906917D01*
X36194785Y-57109999D01*
X36194785Y-57110000D01*
X36213602Y-57313082D01*
X36269417Y-57509247D01*
X36269422Y-57509260D01*
X36360670Y-57692510D01*
X36372931Y-57761296D01*
X36346058Y-57825791D01*
X36288582Y-57865518D01*
X36218752Y-57867866D01*
X36204877Y-57863409D01*
X36162461Y-57846977D01*
X36162456Y-57846976D01*
X35961976Y-57809500D01*
X35758024Y-57809500D01*
X35557544Y-57846976D01*
X35557541Y-57846976D01*
X35557541Y-57846977D01*
X35367364Y-57920651D01*
X35367357Y-57920655D01*
X35193960Y-58028017D01*
X35193958Y-58028019D01*
X35043237Y-58165418D01*
X34920327Y-58328178D01*
X34829422Y-58510739D01*
X34829417Y-58510752D01*
X34773602Y-58706917D01*
X34754785Y-58909999D01*
X32454998Y-58909999D01*
X32454998Y-48299995D01*
X54144592Y-48299995D01*
X54144592Y-48300004D01*
X54164196Y-48561620D01*
X54164197Y-48561625D01*
X54222576Y-48817402D01*
X54222578Y-48817411D01*
X54222580Y-48817416D01*
X54318432Y-49061643D01*
X54449614Y-49288857D01*
X54489432Y-49338787D01*
X54613198Y-49493985D01*
X54737791Y-49609589D01*
X54805521Y-49672433D01*
X55022296Y-49820228D01*
X55022301Y-49820230D01*
X55022302Y-49820231D01*
X55022303Y-49820232D01*
X55094704Y-49855098D01*
X55258673Y-49934061D01*
X55258674Y-49934061D01*
X55258677Y-49934063D01*
X55509385Y-50011396D01*
X55768818Y-50050500D01*
X56031182Y-50050500D01*
X56290615Y-50011396D01*
X56541323Y-49934063D01*
X56777704Y-49820228D01*
X56994479Y-49672433D01*
X57186805Y-49493981D01*
X57350386Y-49288857D01*
X57481568Y-49061643D01*
X57577420Y-48817416D01*
X57635802Y-48561630D01*
X57655408Y-48300000D01*
X57635802Y-48038370D01*
X57577420Y-47782584D01*
X57481568Y-47538357D01*
X57350386Y-47311143D01*
X57186805Y-47106019D01*
X57186804Y-47106018D01*
X57186801Y-47106014D01*
X56994479Y-46927567D01*
X56905079Y-46866615D01*
X56777704Y-46779772D01*
X56777700Y-46779770D01*
X56777697Y-46779768D01*
X56777696Y-46779767D01*
X56541325Y-46665938D01*
X56541327Y-46665938D01*
X56290623Y-46588606D01*
X56290619Y-46588605D01*
X56290615Y-46588604D01*
X56165823Y-46569794D01*
X56031187Y-46549500D01*
X56031182Y-46549500D01*
X55768818Y-46549500D01*
X55768812Y-46549500D01*
X55607247Y-46573853D01*
X55509385Y-46588604D01*
X55509382Y-46588605D01*
X55509376Y-46588606D01*
X55258673Y-46665938D01*
X55022303Y-46779767D01*
X55022302Y-46779768D01*
X54805520Y-46927567D01*
X54613198Y-47106014D01*
X54449614Y-47311143D01*
X54318432Y-47538356D01*
X54222582Y-47782578D01*
X54222576Y-47782597D01*
X54164197Y-48038374D01*
X54164196Y-48038379D01*
X54144592Y-48299995D01*
X32454998Y-48299995D01*
X32454998Y-45000000D01*
X75044901Y-45000000D01*
X75063252Y-45186331D01*
X75063253Y-45186333D01*
X75117604Y-45365502D01*
X75205862Y-45530623D01*
X75205864Y-45530626D01*
X75324642Y-45675357D01*
X75469373Y-45794135D01*
X75469376Y-45794137D01*
X75540425Y-45832113D01*
X75634499Y-45882396D01*
X75809766Y-45935563D01*
X75813666Y-45936746D01*
X75813668Y-45936747D01*
X75830374Y-45938392D01*
X76000000Y-45955099D01*
X76186331Y-45936747D01*
X76365501Y-45882396D01*
X76530625Y-45794136D01*
X76675357Y-45675357D01*
X76794136Y-45530625D01*
X76882396Y-45365501D01*
X76936747Y-45186331D01*
X76955099Y-45000000D01*
X76953098Y-44979688D01*
X76966116Y-44911045D01*
X77014180Y-44860334D01*
X77082030Y-44843658D01*
X77088634Y-44844130D01*
X77200000Y-44855099D01*
X77386331Y-44836747D01*
X77565501Y-44782396D01*
X77678456Y-44722020D01*
X77746857Y-44707779D01*
X77812101Y-44732779D01*
X77853472Y-44789084D01*
X77860311Y-44843533D01*
X77844901Y-44999999D01*
X77863252Y-45186331D01*
X77863253Y-45186333D01*
X77917604Y-45365502D01*
X78005862Y-45530623D01*
X78005864Y-45530626D01*
X78124642Y-45675357D01*
X78269373Y-45794135D01*
X78269376Y-45794137D01*
X78340425Y-45832113D01*
X78434499Y-45882396D01*
X78609766Y-45935563D01*
X78613666Y-45936746D01*
X78613668Y-45936747D01*
X78630374Y-45938392D01*
X78800000Y-45955099D01*
X78986331Y-45936747D01*
X79165501Y-45882396D01*
X79330625Y-45794136D01*
X79475357Y-45675357D01*
X79594136Y-45530625D01*
X79682396Y-45365501D01*
X79736747Y-45186331D01*
X79755099Y-45000000D01*
X79736747Y-44813669D01*
X79682396Y-44634499D01*
X79635541Y-44546838D01*
X79594137Y-44469376D01*
X79594135Y-44469373D01*
X79475357Y-44324642D01*
X79330626Y-44205864D01*
X79330623Y-44205862D01*
X79281506Y-44179609D01*
X79231662Y-44130647D01*
X79216201Y-44062509D01*
X79240033Y-43996830D01*
X79244084Y-43991612D01*
X79294136Y-43930625D01*
X79382396Y-43765501D01*
X79436747Y-43586331D01*
X79455099Y-43400000D01*
X79436747Y-43213669D01*
X79382396Y-43034499D01*
X79382395Y-43034497D01*
X79294137Y-42869376D01*
X79294135Y-42869373D01*
X79175357Y-42724642D01*
X79030626Y-42605864D01*
X79030623Y-42605862D01*
X78865502Y-42517604D01*
X78686333Y-42463253D01*
X78686331Y-42463252D01*
X78500000Y-42444901D01*
X78313668Y-42463252D01*
X78313666Y-42463253D01*
X78134497Y-42517604D01*
X77969376Y-42605862D01*
X77969373Y-42605864D01*
X77824642Y-42724642D01*
X77705864Y-42869373D01*
X77705862Y-42869376D01*
X77666076Y-42943813D01*
X77617114Y-42993657D01*
X77548977Y-43009118D01*
X77520727Y-43004021D01*
X77386331Y-42963253D01*
X77386329Y-42963252D01*
X77386327Y-42963252D01*
X77200000Y-42944901D01*
X77013668Y-42963252D01*
X77013666Y-42963253D01*
X76834497Y-43017604D01*
X76669376Y-43105862D01*
X76669373Y-43105864D01*
X76524642Y-43224642D01*
X76405864Y-43369373D01*
X76405862Y-43369376D01*
X76317604Y-43534497D01*
X76263253Y-43713666D01*
X76263252Y-43713668D01*
X76244901Y-43900000D01*
X76244901Y-43900002D01*
X76246901Y-43920312D01*
X76233881Y-43988958D01*
X76185816Y-44039667D01*
X76117964Y-44056340D01*
X76111344Y-44055867D01*
X76000000Y-44044901D01*
X75813668Y-44063252D01*
X75813666Y-44063253D01*
X75634497Y-44117604D01*
X75469376Y-44205862D01*
X75469373Y-44205864D01*
X75324642Y-44324642D01*
X75205864Y-44469373D01*
X75205862Y-44469376D01*
X75117604Y-44634497D01*
X75063253Y-44813666D01*
X75063252Y-44813668D01*
X75044901Y-45000000D01*
X32454998Y-45000000D01*
X32454998Y-39600000D01*
X36544901Y-39600000D01*
X36563252Y-39786331D01*
X36563253Y-39786333D01*
X36617604Y-39965502D01*
X36705862Y-40130623D01*
X36705864Y-40130626D01*
X36824642Y-40275357D01*
X36969373Y-40394135D01*
X36969376Y-40394137D01*
X37072172Y-40449082D01*
X37134499Y-40482396D01*
X37290821Y-40529816D01*
X37313666Y-40536746D01*
X37313668Y-40536747D01*
X37330374Y-40538392D01*
X37500000Y-40555099D01*
X37686331Y-40536747D01*
X37865501Y-40482396D01*
X38030625Y-40394136D01*
X38145330Y-40300000D01*
X69444901Y-40300000D01*
X69463252Y-40486331D01*
X69463253Y-40486333D01*
X69517604Y-40665502D01*
X69605862Y-40830623D01*
X69605864Y-40830626D01*
X69724642Y-40975357D01*
X69869373Y-41094135D01*
X69869376Y-41094137D01*
X69893335Y-41106943D01*
X70034499Y-41182396D01*
X70213666Y-41236746D01*
X70213668Y-41236747D01*
X70230374Y-41238392D01*
X70400000Y-41255099D01*
X70586331Y-41236747D01*
X70765501Y-41182396D01*
X70930625Y-41094136D01*
X71075357Y-40975357D01*
X71194136Y-40830625D01*
X71282396Y-40665501D01*
X71336747Y-40486331D01*
X71355099Y-40300000D01*
X71336747Y-40113669D01*
X71282396Y-39934499D01*
X71263954Y-39899996D01*
X71195354Y-39771652D01*
X71181112Y-39703249D01*
X71206112Y-39638005D01*
X71208817Y-39634585D01*
X71294136Y-39530625D01*
X71382396Y-39365501D01*
X71436747Y-39186331D01*
X71455099Y-39000000D01*
X71445250Y-38900000D01*
X72744901Y-38900000D01*
X72763252Y-39086331D01*
X72763253Y-39086333D01*
X72817604Y-39265502D01*
X72905862Y-39430623D01*
X72905864Y-39430626D01*
X73024642Y-39575357D01*
X73169373Y-39694135D01*
X73169376Y-39694137D01*
X73314398Y-39771652D01*
X73334499Y-39782396D01*
X73513666Y-39836746D01*
X73513668Y-39836747D01*
X73530374Y-39838392D01*
X73700000Y-39855099D01*
X73886331Y-39836747D01*
X74065501Y-39782396D01*
X74091269Y-39768623D01*
X78158162Y-39768623D01*
X78158162Y-39768628D01*
X78177096Y-39936682D01*
X78232956Y-40096320D01*
X78232958Y-40096323D01*
X78322929Y-40239510D01*
X78322934Y-40239516D01*
X78442520Y-40359102D01*
X78442526Y-40359107D01*
X78585713Y-40449078D01*
X78585716Y-40449080D01*
X78585720Y-40449081D01*
X78585721Y-40449082D01*
X78658324Y-40474486D01*
X78745354Y-40504940D01*
X78913408Y-40523875D01*
X78913411Y-40523875D01*
X78913414Y-40523875D01*
X79081467Y-40504940D01*
X79134643Y-40486333D01*
X79241101Y-40449082D01*
X79241103Y-40449080D01*
X79241105Y-40449080D01*
X79241108Y-40449078D01*
X79384295Y-40359107D01*
X79384296Y-40359106D01*
X79384301Y-40359103D01*
X79503888Y-40239516D01*
X79527043Y-40202665D01*
X79593863Y-40096323D01*
X79593865Y-40096320D01*
X79593865Y-40096318D01*
X79593867Y-40096316D01*
X79649724Y-39936685D01*
X79649724Y-39936684D01*
X79649725Y-39936682D01*
X79668660Y-39768628D01*
X79668660Y-39768623D01*
X79649725Y-39600569D01*
X79605911Y-39475357D01*
X79593867Y-39440936D01*
X79593866Y-39440935D01*
X79593865Y-39440931D01*
X79593863Y-39440928D01*
X79503892Y-39297741D01*
X79503887Y-39297735D01*
X79384301Y-39178149D01*
X79384295Y-39178144D01*
X79241108Y-39088173D01*
X79241105Y-39088171D01*
X79081467Y-39032311D01*
X78913414Y-39013377D01*
X78913408Y-39013377D01*
X78745354Y-39032311D01*
X78585716Y-39088171D01*
X78585713Y-39088173D01*
X78442526Y-39178144D01*
X78442520Y-39178149D01*
X78322934Y-39297735D01*
X78322929Y-39297741D01*
X78232958Y-39440928D01*
X78232956Y-39440931D01*
X78177096Y-39600569D01*
X78158162Y-39768623D01*
X74091269Y-39768623D01*
X74230625Y-39694136D01*
X74375357Y-39575357D01*
X74494136Y-39430625D01*
X74547588Y-39330623D01*
X74582394Y-39265505D01*
X74582395Y-39265502D01*
X74582396Y-39265501D01*
X74600005Y-39207450D01*
X74638302Y-39149014D01*
X74702114Y-39120558D01*
X74771181Y-39131118D01*
X74823574Y-39177342D01*
X74828023Y-39184995D01*
X74905862Y-39330623D01*
X74905864Y-39330626D01*
X75024642Y-39475357D01*
X75169373Y-39594135D01*
X75169376Y-39594137D01*
X75296329Y-39661994D01*
X75334499Y-39682396D01*
X75513666Y-39736746D01*
X75513668Y-39736747D01*
X75530374Y-39738392D01*
X75700000Y-39755099D01*
X75886331Y-39736747D01*
X76065501Y-39682396D01*
X76230625Y-39594136D01*
X76375357Y-39475357D01*
X76494136Y-39330625D01*
X76582396Y-39165501D01*
X76636747Y-38986331D01*
X76655099Y-38800000D01*
X76636747Y-38613669D01*
X76582396Y-38434499D01*
X76578736Y-38427651D01*
X76494137Y-38269376D01*
X76494135Y-38269373D01*
X76375357Y-38124642D01*
X76230626Y-38005864D01*
X76230623Y-38005862D01*
X76065502Y-37917604D01*
X75886333Y-37863253D01*
X75886331Y-37863252D01*
X75700000Y-37844901D01*
X75513668Y-37863252D01*
X75513666Y-37863253D01*
X75334497Y-37917604D01*
X75169376Y-38005862D01*
X75169373Y-38005864D01*
X75024642Y-38124642D01*
X74905864Y-38269373D01*
X74905862Y-38269376D01*
X74817604Y-38434496D01*
X74799994Y-38492548D01*
X74761696Y-38550986D01*
X74697883Y-38579442D01*
X74628816Y-38568880D01*
X74576423Y-38522655D01*
X74571976Y-38515004D01*
X74494137Y-38369376D01*
X74494135Y-38369373D01*
X74375357Y-38224642D01*
X74230626Y-38105864D01*
X74230623Y-38105862D01*
X74065502Y-38017604D01*
X73886333Y-37963253D01*
X73886331Y-37963252D01*
X73700000Y-37944901D01*
X73513668Y-37963252D01*
X73513666Y-37963253D01*
X73334497Y-38017604D01*
X73169376Y-38105862D01*
X73169373Y-38105864D01*
X73024642Y-38224642D01*
X72905864Y-38369373D01*
X72905862Y-38369376D01*
X72817604Y-38534497D01*
X72763253Y-38713666D01*
X72763252Y-38713668D01*
X72744901Y-38900000D01*
X71445250Y-38900000D01*
X71436747Y-38813669D01*
X71382396Y-38634499D01*
X71337758Y-38550986D01*
X71294137Y-38469376D01*
X71294135Y-38469373D01*
X71175357Y-38324642D01*
X71030626Y-38205864D01*
X71030623Y-38205862D01*
X70865502Y-38117604D01*
X70686333Y-38063253D01*
X70686331Y-38063252D01*
X70500000Y-38044901D01*
X70313668Y-38063252D01*
X70313666Y-38063253D01*
X70134497Y-38117604D01*
X69969376Y-38205862D01*
X69969373Y-38205864D01*
X69824642Y-38324642D01*
X69705864Y-38469373D01*
X69705862Y-38469376D01*
X69617604Y-38634497D01*
X69563253Y-38813666D01*
X69563252Y-38813668D01*
X69544901Y-39000000D01*
X69563252Y-39186331D01*
X69563253Y-39186333D01*
X69617603Y-39365500D01*
X69704646Y-39528348D01*
X69718887Y-39596750D01*
X69693886Y-39661994D01*
X69691140Y-39665465D01*
X69605864Y-39769373D01*
X69605862Y-39769376D01*
X69517604Y-39934497D01*
X69463253Y-40113666D01*
X69463252Y-40113668D01*
X69444901Y-40300000D01*
X38145330Y-40300000D01*
X38175357Y-40275357D01*
X38294136Y-40130625D01*
X38382396Y-39965501D01*
X38436747Y-39786331D01*
X38455099Y-39600000D01*
X38436747Y-39413669D01*
X38382396Y-39234499D01*
X38321494Y-39120558D01*
X38294137Y-39069376D01*
X38294135Y-39069373D01*
X38175357Y-38924642D01*
X38030626Y-38805864D01*
X38030623Y-38805862D01*
X37865502Y-38717604D01*
X37686333Y-38663253D01*
X37686331Y-38663252D01*
X37500000Y-38644901D01*
X37313668Y-38663252D01*
X37313666Y-38663253D01*
X37134497Y-38717604D01*
X36969376Y-38805862D01*
X36969373Y-38805864D01*
X36824642Y-38924642D01*
X36705864Y-39069373D01*
X36705862Y-39069376D01*
X36617604Y-39234497D01*
X36563253Y-39413666D01*
X36563252Y-39413668D01*
X36544901Y-39600000D01*
X32454998Y-39600000D01*
X32454998Y-37100000D01*
X76844901Y-37100000D01*
X76863252Y-37286331D01*
X76863253Y-37286333D01*
X76917604Y-37465502D01*
X77005862Y-37630623D01*
X77005864Y-37630626D01*
X77124642Y-37775357D01*
X77269373Y-37894135D01*
X77269376Y-37894137D01*
X77434497Y-37982395D01*
X77434499Y-37982396D01*
X77613666Y-38036746D01*
X77613668Y-38036747D01*
X77630374Y-38038392D01*
X77800000Y-38055099D01*
X77986331Y-38036747D01*
X78165501Y-37982396D01*
X78330625Y-37894136D01*
X78475357Y-37775357D01*
X78537201Y-37700000D01*
X78554147Y-37679352D01*
X78611893Y-37640018D01*
X78681737Y-37638147D01*
X78741505Y-37674335D01*
X78745853Y-37679352D01*
X78824642Y-37775357D01*
X78969373Y-37894135D01*
X78969376Y-37894137D01*
X79134497Y-37982395D01*
X79134499Y-37982396D01*
X79313666Y-38036746D01*
X79313668Y-38036747D01*
X79330374Y-38038392D01*
X79500000Y-38055099D01*
X79686331Y-38036747D01*
X79865501Y-37982396D01*
X80030625Y-37894136D01*
X80175357Y-37775357D01*
X80294136Y-37630625D01*
X80382396Y-37465501D01*
X80436747Y-37286331D01*
X80455099Y-37100000D01*
X80436747Y-36913669D01*
X80382396Y-36734499D01*
X80358866Y-36690477D01*
X80294137Y-36569376D01*
X80294135Y-36569373D01*
X80175357Y-36424642D01*
X80030626Y-36305864D01*
X80030623Y-36305862D01*
X79865502Y-36217604D01*
X79686333Y-36163253D01*
X79686331Y-36163252D01*
X79500000Y-36144901D01*
X79313668Y-36163252D01*
X79313666Y-36163253D01*
X79134497Y-36217604D01*
X78969376Y-36305862D01*
X78969373Y-36305864D01*
X78824642Y-36424642D01*
X78745853Y-36520647D01*
X78688107Y-36559981D01*
X78618262Y-36561852D01*
X78558494Y-36525664D01*
X78554147Y-36520647D01*
X78475357Y-36424642D01*
X78330626Y-36305864D01*
X78330623Y-36305862D01*
X78165502Y-36217604D01*
X77986333Y-36163253D01*
X77986331Y-36163252D01*
X77800000Y-36144901D01*
X77613668Y-36163252D01*
X77613666Y-36163253D01*
X77434497Y-36217604D01*
X77269376Y-36305862D01*
X77269373Y-36305864D01*
X77124642Y-36424642D01*
X77005864Y-36569373D01*
X77005862Y-36569376D01*
X76917604Y-36734497D01*
X76863253Y-36913666D01*
X76863252Y-36913668D01*
X76844901Y-37100000D01*
X32454998Y-37100000D01*
X32454998Y-36099997D01*
X91644751Y-36099997D01*
X91644751Y-36100002D01*
X91663685Y-36268056D01*
X91719545Y-36427694D01*
X91719547Y-36427697D01*
X91809518Y-36570884D01*
X91809523Y-36570890D01*
X91929109Y-36690476D01*
X91929115Y-36690481D01*
X92072302Y-36780452D01*
X92072305Y-36780454D01*
X92072309Y-36780455D01*
X92072310Y-36780456D01*
X92114869Y-36795348D01*
X92231943Y-36836314D01*
X92399997Y-36855249D01*
X92400000Y-36855249D01*
X92400003Y-36855249D01*
X92568056Y-36836314D01*
X92568059Y-36836313D01*
X92727690Y-36780456D01*
X92727692Y-36780454D01*
X92727694Y-36780454D01*
X92756063Y-36762627D01*
X92766089Y-36756327D01*
X92833325Y-36737326D01*
X92900161Y-36757692D01*
X92937055Y-36795346D01*
X92974695Y-36855249D01*
X92984523Y-36870890D01*
X93104109Y-36990476D01*
X93104115Y-36990481D01*
X93247302Y-37080452D01*
X93247305Y-37080454D01*
X93247309Y-37080455D01*
X93247310Y-37080456D01*
X93303164Y-37100000D01*
X93406943Y-37136314D01*
X93574997Y-37155249D01*
X93575000Y-37155249D01*
X93575003Y-37155249D01*
X93743056Y-37136314D01*
X93743059Y-37136313D01*
X93902690Y-37080456D01*
X93902692Y-37080454D01*
X93902694Y-37080454D01*
X93902697Y-37080452D01*
X94045884Y-36990481D01*
X94045885Y-36990480D01*
X94045890Y-36990477D01*
X94165477Y-36870890D01*
X94187203Y-36836314D01*
X94255452Y-36727697D01*
X94255454Y-36727694D01*
X94255454Y-36727692D01*
X94255456Y-36727690D01*
X94311313Y-36568059D01*
X94311313Y-36568058D01*
X94311314Y-36568056D01*
X94330249Y-36400002D01*
X94330249Y-36399997D01*
X94311314Y-36231943D01*
X94255454Y-36072305D01*
X94255452Y-36072302D01*
X94165481Y-35929115D01*
X94165476Y-35929109D01*
X94045890Y-35809523D01*
X94045884Y-35809518D01*
X93902697Y-35719547D01*
X93902694Y-35719545D01*
X93743056Y-35663685D01*
X93575003Y-35644751D01*
X93574997Y-35644751D01*
X93406943Y-35663685D01*
X93247306Y-35719545D01*
X93208906Y-35743673D01*
X93141669Y-35762672D01*
X93074834Y-35742303D01*
X93037942Y-35704650D01*
X92990476Y-35629109D01*
X92870890Y-35509523D01*
X92870884Y-35509518D01*
X92727697Y-35419547D01*
X92727694Y-35419545D01*
X92568056Y-35363685D01*
X92400003Y-35344751D01*
X92399997Y-35344751D01*
X92231943Y-35363685D01*
X92072305Y-35419545D01*
X92072302Y-35419547D01*
X91929115Y-35509518D01*
X91929109Y-35509523D01*
X91809523Y-35629109D01*
X91809518Y-35629115D01*
X91719547Y-35772302D01*
X91719545Y-35772305D01*
X91663685Y-35931943D01*
X91644751Y-36099997D01*
X32454998Y-36099997D01*
X32454998Y-34761023D01*
X32474683Y-34693984D01*
X32527487Y-34648229D01*
X32596645Y-34638285D01*
X32660201Y-34667310D01*
X32685112Y-34696869D01*
X32723894Y-34761023D01*
X32733473Y-34776868D01*
X32934954Y-35034039D01*
X33165960Y-35265045D01*
X33423131Y-35466526D01*
X33423134Y-35466528D01*
X33423137Y-35466530D01*
X33702721Y-35635545D01*
X34000639Y-35769627D01*
X34000652Y-35769631D01*
X34000657Y-35769633D01*
X34128654Y-35809518D01*
X34312547Y-35866821D01*
X34633896Y-35925710D01*
X34960000Y-35945436D01*
X35286104Y-35925710D01*
X35607453Y-35866821D01*
X35919361Y-35769627D01*
X36217279Y-35635545D01*
X36496863Y-35466530D01*
X36754036Y-35265048D01*
X36985048Y-35034036D01*
X37186530Y-34776863D01*
X37355545Y-34497279D01*
X37489627Y-34199361D01*
X37499361Y-34168125D01*
X37531339Y-34065501D01*
X37586821Y-33887453D01*
X37621173Y-33700000D01*
X90744901Y-33700000D01*
X90763252Y-33886331D01*
X90763253Y-33886333D01*
X90817604Y-34065502D01*
X90905862Y-34230623D01*
X90905864Y-34230626D01*
X91024642Y-34375357D01*
X91169373Y-34494135D01*
X91169376Y-34494137D01*
X91319251Y-34574246D01*
X91334499Y-34582396D01*
X91513666Y-34636746D01*
X91513668Y-34636747D01*
X91529285Y-34638285D01*
X91700000Y-34655099D01*
X91886331Y-34636747D01*
X92065501Y-34582396D01*
X92230625Y-34494136D01*
X92359413Y-34388442D01*
X92423723Y-34361129D01*
X92492590Y-34372920D01*
X92516743Y-34388442D01*
X92569373Y-34431635D01*
X92569376Y-34431637D01*
X92692185Y-34497279D01*
X92734499Y-34519896D01*
X92913666Y-34574246D01*
X92913668Y-34574247D01*
X92930374Y-34575892D01*
X93100000Y-34592599D01*
X93286331Y-34574247D01*
X93465501Y-34519896D01*
X93630625Y-34431636D01*
X93775357Y-34312857D01*
X93894136Y-34168125D01*
X93982396Y-34003001D01*
X94036747Y-33823831D01*
X94055099Y-33637500D01*
X94036747Y-33451169D01*
X93982396Y-33271999D01*
X93965292Y-33240000D01*
X93894137Y-33106876D01*
X93894135Y-33106873D01*
X93775357Y-32962142D01*
X93630626Y-32843364D01*
X93630623Y-32843362D01*
X93465502Y-32755104D01*
X93286333Y-32700753D01*
X93286331Y-32700752D01*
X93100000Y-32682401D01*
X92913668Y-32700752D01*
X92913666Y-32700753D01*
X92734497Y-32755104D01*
X92569376Y-32843362D01*
X92569373Y-32843364D01*
X92440587Y-32949058D01*
X92376277Y-32976371D01*
X92307410Y-32964580D01*
X92283257Y-32949058D01*
X92230626Y-32905864D01*
X92230623Y-32905862D01*
X92065502Y-32817604D01*
X91886333Y-32763253D01*
X91886331Y-32763252D01*
X91700000Y-32744901D01*
X91513668Y-32763252D01*
X91513666Y-32763253D01*
X91334497Y-32817604D01*
X91169376Y-32905862D01*
X91169373Y-32905864D01*
X91024642Y-33024642D01*
X90905864Y-33169373D01*
X90905862Y-33169376D01*
X90817604Y-33334497D01*
X90763253Y-33513666D01*
X90763252Y-33513668D01*
X90744901Y-33700000D01*
X37621173Y-33700000D01*
X37645710Y-33566104D01*
X37665436Y-33240000D01*
X37645710Y-32913896D01*
X37586821Y-32592547D01*
X37536365Y-32430626D01*
X37489633Y-32280657D01*
X37489631Y-32280652D01*
X37489627Y-32280639D01*
X37355545Y-31982721D01*
X37305538Y-31900000D01*
X63844901Y-31900000D01*
X63863252Y-32086331D01*
X63863253Y-32086333D01*
X63917604Y-32265502D01*
X64005862Y-32430623D01*
X64005864Y-32430626D01*
X64124642Y-32575357D01*
X64269373Y-32694135D01*
X64269376Y-32694137D01*
X64434497Y-32782395D01*
X64434499Y-32782396D01*
X64613666Y-32836746D01*
X64613668Y-32836747D01*
X64630374Y-32838392D01*
X64800000Y-32855099D01*
X64986331Y-32836747D01*
X65165501Y-32782396D01*
X65330625Y-32694136D01*
X65475357Y-32575357D01*
X65594136Y-32430625D01*
X65682396Y-32265501D01*
X65736747Y-32086331D01*
X65755099Y-31900000D01*
X65736747Y-31713669D01*
X65682396Y-31534499D01*
X65682395Y-31534497D01*
X65594137Y-31369376D01*
X65594135Y-31369373D01*
X65475357Y-31224642D01*
X65330626Y-31105864D01*
X65330623Y-31105862D01*
X65165502Y-31017604D01*
X64986333Y-30963253D01*
X64986331Y-30963252D01*
X64800000Y-30944901D01*
X64613668Y-30963252D01*
X64613666Y-30963253D01*
X64434497Y-31017604D01*
X64269376Y-31105862D01*
X64269373Y-31105864D01*
X64124642Y-31224642D01*
X64005864Y-31369373D01*
X64005862Y-31369376D01*
X63917604Y-31534497D01*
X63863253Y-31713666D01*
X63863252Y-31713668D01*
X63844901Y-31900000D01*
X37305538Y-31900000D01*
X37186530Y-31703137D01*
X37186528Y-31703134D01*
X37186526Y-31703131D01*
X36985045Y-31445960D01*
X36754039Y-31214954D01*
X36496868Y-31013473D01*
X36413794Y-30963253D01*
X36342437Y-30920115D01*
X36295251Y-30868589D01*
X36283412Y-30799730D01*
X36310681Y-30735401D01*
X36368400Y-30696027D01*
X36406588Y-30690000D01*
X118213412Y-30690000D01*
X118280451Y-30709685D01*
G37*
%TD.AperFunction*%
%TD*%
M02*
