M48
; DRILL file {KiCad 8.0.2} date 2024-05-19T23:36:08+0800
; FORMAT={-:-/ absolute / inch / decimal}
; #@! TF.CreationDate,2024-05-19T23:36:08+08:00
; #@! TF.GenerationSoftware,Kicad,Pcbnew,8.0.2
; #@! TF.FileFunction,Plated,1,4,PTH
FMAT,2
INCH
; #@! TA.AperFunction,Plated,PTH,ViaDrill
T1C0.0098
; #@! TA.AperFunction,Plated,PTH,ViaDrill
T2C0.0118
; #@! TA.AperFunction,Plated,PTH,ComponentDrill
T3C0.0118
; #@! TA.AperFunction,Plated,PTH,ViaDrill
T4C0.0157
; #@! TA.AperFunction,Plated,PTH,ViaDrill
T5C0.0197
; #@! TA.AperFunction,Plated,PTH,ViaDrill
T6C0.0236
; #@! TA.AperFunction,Plated,PTH,ComponentDrill
T7C0.0866
; #@! TA.AperFunction,Plated,PTH,ComponentDrill
T8C0.1063
%
G90
G05
T1
X1.4724Y-1.6535
X1.4951Y-1.6929
X1.5637Y-1.7296
X1.5748Y-2.2024
X1.5886Y-1.7539
X1.6024Y-2.5866
X1.6024Y-2.6102
X1.6024Y-2.6339
X1.6063Y-2.2953
X1.6063Y-2.3189
X1.6063Y-2.3425
X1.6142Y-1.9961
X1.6142Y-2.0197
X1.6142Y-2.0433
X1.626Y-2.5866
X1.626Y-2.6102
X1.626Y-2.6339
X1.6299Y-2.2953
X1.6299Y-2.3189
X1.6299Y-2.3425
X1.6299Y-2.4213
X1.6339Y-2.7126
X1.6378Y-1.9961
X1.6378Y-2.0197
X1.6378Y-2.0433
X1.7677Y-2.0394
X1.7756Y-2.0039
X1.7815Y-2.3185
X1.783Y-2.4335
X1.7913Y-2.0197
X1.7953Y-2.7913
X1.811Y-2.0039
X1.815Y-2.0354
X1.8752Y-2.1116
X1.9606Y-2.5
X1.9646Y-2.3868
X1.9961Y-2.1299
X1.9972Y-2.4657
X2.0251Y-2.3858
X2.0361Y-2.3085
X2.063Y-2.1526
X2.2795Y-2.5253
X2.2863Y-2.3099
X2.2863Y-2.386
X2.2992Y-2.4882
X2.3494Y-2.3337
X2.3768Y-2.2996
X2.5251Y-2.3268
X2.6614Y-1.248
X2.6673Y-1.6417
X2.7677Y-1.2933
X2.7677Y-1.313
X2.7677Y-1.3686
X2.7697Y-1.8858
X2.807Y-2.1319
X2.8326Y-1.6821
X2.8386Y-2.0114
X2.8517Y-1.786
X2.8557Y-1.8141
X2.8685Y-1.7538
X2.8692Y-1.8425
X2.8714Y-1.7263
X2.9055Y-1.8465
X2.9235Y-1.8684
X2.9409Y-2.2972
X2.9409Y-2.3701
X2.9409Y-2.7854
X2.9705Y-1.565
X2.9803Y-2.7854
X2.9872Y-1.8957
X3.0197Y-2.5472
X3.0197Y-2.7854
X3.0531Y-1.563
X3.0591Y-2.7854
X3.0803Y-1.899
X3.0856Y-1.563
X3.0997Y-2.1759
X3.1024Y-2.3465
X3.1063Y-2.5984
X3.1102Y-2.4877
X3.1131Y-1.899
X3.1166Y-1.5531
X3.1201Y-2.2992
X3.1506Y-1.899
X3.1693Y-1.593
X3.1732Y-1.8478
X3.2028Y-1.7362
X3.2038Y-1.7018
X3.2047Y-1.5059
X3.2126Y-1.8002
X3.2825Y-2.6024
X3.3976Y-2.2441
X3.4134Y-2.3465
X3.5236Y-2.189
X3.5394Y-1.6811
X3.5748Y-1.625
X3.5787Y-2.2441
X3.6201Y-1.9168
X3.622Y-1.6939
X3.6358Y-1.4223
X3.6604Y-1.7392
X3.7062Y-1.3401
X3.7146Y-2.2323
X3.7313Y-1.4451
X3.7874Y-1.5272
X3.8102Y-2.3692
X3.8189Y-2.473
X3.8189Y-2.5484
X3.8328Y-2.3444
X3.9547Y-1.6713
X4.075Y-2.3457
X4.0842Y-2.4666
X4.1296Y-2.5121
X4.1878Y-2.3965
X4.311Y-2.0863
X4.3186Y-2.3835
X4.3307Y-2.6012
X4.4567Y-2.4488
X4.4567Y-2.4724
X4.4567Y-2.4961
X4.4646Y-2.1614
X4.4646Y-2.185
X4.4646Y-2.2087
X4.4646Y-2.7441
X4.4646Y-2.7677
X4.4646Y-2.7913
X4.4803Y-2.4488
X4.4803Y-2.4724
X4.4803Y-2.4961
X4.4882Y-2.1614
X4.4882Y-2.185
X4.4882Y-2.2087
X4.4882Y-2.7441
X4.4882Y-2.7677
X4.4882Y-2.7913
X4.5018Y-2.3562
X4.6161Y-1.6732
X4.6161Y-1.7126
X4.6161Y-1.752
X4.6161Y-1.7913
X4.6161Y-1.8307
T2
X1.704Y-1.2999
X3.0418Y-2.0772
X3.5315Y-1.5709
X3.686Y-1.4354
X3.7717Y-1.5778
T3
X2.2319Y-1.5535
X2.2319Y-1.6007
X2.2319Y-1.6519
X2.2319Y-1.6952
X2.2792Y-1.5535
X2.2792Y-1.6007
X2.2792Y-1.6519
X2.2792Y-1.6952
T4
X2.6705Y-2.013
X2.8858Y-1.9537
X2.9823Y-1.9311
X3.0666Y-2.0161
X3.1348Y-2.0105
X3.1378Y-2.7854
X3.2982Y-2.1038
T5
X1.7638Y-1.372
X1.7657Y-1.435
X1.8268Y-1.435
X1.8622Y-1.435
X1.9035Y-1.685
X1.9075Y-1.6024
X1.9252Y-1.435
X1.9469Y-1.6831
X1.9567Y-1.6043
X1.9626Y-1.435
X1.9902Y-1.685
X2.0039Y-1.6043
X2.0236Y-1.435
X2.0335Y-1.687
X2.0512Y-1.6004
X2.0571Y-1.4331
X2.0748Y-1.6693
X2.0984Y-1.6004
X2.1417Y-1.6004
X2.3209Y-1.2441
X2.3228Y-1.2795
X2.3406Y-1.3051
X2.3602Y-1.2461
X2.3602Y-1.2795
X2.4272Y-1.378
X2.4291Y-1.2598
X2.4291Y-1.2874
X2.4291Y-1.4075
X2.4705Y-1.2559
X2.4744Y-1.2854
X2.4744Y-1.378
X2.4764Y-1.4075
X2.5079Y-1.6949
X2.6024Y-2.311
X2.6378Y-2.2126
X2.6732Y-2.2795
X2.7224Y-1.5354
X2.7283Y-1.5906
X2.7913Y-2.4134
X2.7992Y-2.5748
X2.8066Y-2.2501
X2.9329Y-1.5502
X2.9646Y-1.7244
X2.9724Y-1.7874
X2.9793Y-2.189
X3.0315Y-1.7323
X3.0906Y-1.4134
X3.0945Y-1.7362
X3.1232Y-2.3892
X3.2396Y-2.0689
X3.2982Y-1.7114
X3.3031Y-1.5315
X3.3035Y-1.8878
X3.3425Y-2.311
X3.3622Y-1.7598
X3.3661Y-1.8533
X3.3661Y-2.5827
X3.6378Y-1.3228
X3.748Y-1.748
X3.8346Y-1.4291
T6
X1.3189Y-2.626
X1.374Y-2.5236
X1.3858Y-2.4252
X1.3898Y-2.2874
X1.3937Y-1.9606
X1.3937Y-2.0827
X1.4711Y-2.2171
X1.4719Y-2.356
X1.7756Y-2.626
X1.9006Y-2.3071
X1.9006Y-2.3524
X1.9921Y-2.5866
X1.9921Y-2.626
X2.0Y-1.9961
X2.0Y-2.0354
X2.2008Y-2.0472
X2.2101Y-2.6826
X2.2953Y-2.6732
X2.4252Y-2.5157
X3.689Y-2.315
X3.8307Y-2.1063
X3.9252Y-2.1102
X3.9252Y-2.7756
X4.0079Y-2.7992
X4.1061Y-2.1687
X4.1102Y-2.7795
X4.1181Y-2.2096
X4.1909Y-2.445
X4.197Y-2.488
X4.3189Y-2.1732
X4.3189Y-2.7756
X4.3268Y-2.4685
X4.6059Y-2.4567
X4.6079Y-2.3209
X4.6156Y-2.6142
X4.6275Y-2.5354
X4.6442Y-2.1535
X4.6496Y-2.0157
X4.6535Y-2.252
X4.6661Y-2.3894
X4.7283Y-2.0118
X4.7346Y-2.2521
X4.7383Y-2.5284
X4.7613Y-2.1378
X4.7756Y-2.5277
X4.7795Y-2.2521
X4.7888Y-2.0157
T7
X1.3764Y-1.3087
X1.3764Y-2.7417
X4.711Y-1.3087
X4.711Y-2.7417
T8
X2.1535Y-1.9232
X2.3504Y-1.9232
M30
