%TF.GenerationSoftware,KiCad,Pcbnew,8.0.2*%
%TF.CreationDate,2024-05-03T20:10:49+08:00*%
%TF.ProjectId,bldcDriver,626c6463-4472-4697-9665-722e6b696361,rev?*%
%TF.SameCoordinates,Original*%
%TF.FileFunction,Copper,L4,Bot*%
%TF.FilePolarity,Positive*%
%FSLAX46Y46*%
G04 Gerber Fmt 4.6, Leading zero omitted, Abs format (unit mm)*
G04 Created by KiCad (PCBNEW 8.0.2) date 2024-05-03 20:10:49*
%MOMM*%
%LPD*%
G01*
G04 APERTURE LIST*
G04 Aperture macros list*
%AMRoundRect*
0 Rectangle with rounded corners*
0 $1 Rounding radius*
0 $2 $3 $4 $5 $6 $7 $8 $9 X,Y pos of 4 corners*
0 Add a 4 corners polygon primitive as box body*
4,1,4,$2,$3,$4,$5,$6,$7,$8,$9,$2,$3,0*
0 Add four circle primitives for the rounded corners*
1,1,$1+$1,$2,$3*
1,1,$1+$1,$4,$5*
1,1,$1+$1,$6,$7*
1,1,$1+$1,$8,$9*
0 Add four rect primitives between the rounded corners*
20,1,$1+$1,$2,$3,$4,$5,0*
20,1,$1+$1,$4,$5,$6,$7,0*
20,1,$1+$1,$6,$7,$8,$9,0*
20,1,$1+$1,$8,$9,$2,$3,0*%
G04 Aperture macros list end*
%TA.AperFunction,ComponentPad*%
%ADD10R,1.700000X1.700000*%
%TD*%
%TA.AperFunction,ComponentPad*%
%ADD11O,1.700000X1.700000*%
%TD*%
%TA.AperFunction,SMDPad,CuDef*%
%ADD12R,1.000000X1.000000*%
%TD*%
%TA.AperFunction,ComponentPad*%
%ADD13C,2.500000*%
%TD*%
%TA.AperFunction,ComponentPad*%
%ADD14C,4.400000*%
%TD*%
%TA.AperFunction,SMDPad,CuDef*%
%ADD15RoundRect,0.237500X0.237500X-0.250000X0.237500X0.250000X-0.237500X0.250000X-0.237500X-0.250000X0*%
%TD*%
%TA.AperFunction,SMDPad,CuDef*%
%ADD16RoundRect,0.250000X0.650000X-0.412500X0.650000X0.412500X-0.650000X0.412500X-0.650000X-0.412500X0*%
%TD*%
%TA.AperFunction,SMDPad,CuDef*%
%ADD17RoundRect,0.237500X0.250000X0.237500X-0.250000X0.237500X-0.250000X-0.237500X0.250000X-0.237500X0*%
%TD*%
%TA.AperFunction,SMDPad,CuDef*%
%ADD18R,1.700000X0.500000*%
%TD*%
%TA.AperFunction,SMDPad,CuDef*%
%ADD19R,2.500000X1.200000*%
%TD*%
%TA.AperFunction,SMDPad,CuDef*%
%ADD20R,1.200000X1.400000*%
%TD*%
%TA.AperFunction,SMDPad,CuDef*%
%ADD21RoundRect,0.237500X-0.250000X-0.237500X0.250000X-0.237500X0.250000X0.237500X-0.250000X0.237500X0*%
%TD*%
%TA.AperFunction,SMDPad,CuDef*%
%ADD22R,3.900000X2.200000*%
%TD*%
%TA.AperFunction,SMDPad,CuDef*%
%ADD23R,0.700000X0.400000*%
%TD*%
%TA.AperFunction,SMDPad,CuDef*%
%ADD24R,1.800000X2.480000*%
%TD*%
%TA.AperFunction,SMDPad,CuDef*%
%ADD25RoundRect,0.237500X0.300000X0.237500X-0.300000X0.237500X-0.300000X-0.237500X0.300000X-0.237500X0*%
%TD*%
%TA.AperFunction,SMDPad,CuDef*%
%ADD26RoundRect,0.237500X-0.237500X0.300000X-0.237500X-0.300000X0.237500X-0.300000X0.237500X0.300000X0*%
%TD*%
%TA.AperFunction,SMDPad,CuDef*%
%ADD27RoundRect,0.225000X-0.225000X-0.375000X0.225000X-0.375000X0.225000X0.375000X-0.225000X0.375000X0*%
%TD*%
%TA.AperFunction,SMDPad,CuDef*%
%ADD28RoundRect,0.237500X0.237500X-0.300000X0.237500X0.300000X-0.237500X0.300000X-0.237500X-0.300000X0*%
%TD*%
%TA.AperFunction,SMDPad,CuDef*%
%ADD29RoundRect,0.225000X0.225000X0.375000X-0.225000X0.375000X-0.225000X-0.375000X0.225000X-0.375000X0*%
%TD*%
%TA.AperFunction,SMDPad,CuDef*%
%ADD30RoundRect,0.237500X-0.237500X0.250000X-0.237500X-0.250000X0.237500X-0.250000X0.237500X0.250000X0*%
%TD*%
%TA.AperFunction,SMDPad,CuDef*%
%ADD31RoundRect,0.150000X0.825000X0.150000X-0.825000X0.150000X-0.825000X-0.150000X0.825000X-0.150000X0*%
%TD*%
%TA.AperFunction,SMDPad,CuDef*%
%ADD32RoundRect,0.250000X0.412500X0.650000X-0.412500X0.650000X-0.412500X-0.650000X0.412500X-0.650000X0*%
%TD*%
%TA.AperFunction,SMDPad,CuDef*%
%ADD33RoundRect,0.237500X-0.300000X-0.237500X0.300000X-0.237500X0.300000X0.237500X-0.300000X0.237500X0*%
%TD*%
%TA.AperFunction,SMDPad,CuDef*%
%ADD34RoundRect,0.250000X-0.412500X-0.650000X0.412500X-0.650000X0.412500X0.650000X-0.412500X0.650000X0*%
%TD*%
%TA.AperFunction,SMDPad,CuDef*%
%ADD35RoundRect,0.250000X-0.400000X-0.625000X0.400000X-0.625000X0.400000X0.625000X-0.400000X0.625000X0*%
%TD*%
%TA.AperFunction,SMDPad,CuDef*%
%ADD36R,1.550000X0.600000*%
%TD*%
%TA.AperFunction,ComponentPad*%
%ADD37C,0.600000*%
%TD*%
%TA.AperFunction,SMDPad,CuDef*%
%ADD38R,2.600000X3.100000*%
%TD*%
%TA.AperFunction,SMDPad,CuDef*%
%ADD39R,2.950000X4.500000*%
%TD*%
%TA.AperFunction,SMDPad,CuDef*%
%ADD40RoundRect,0.075000X-0.350000X-0.075000X0.350000X-0.075000X0.350000X0.075000X-0.350000X0.075000X0*%
%TD*%
%TA.AperFunction,SMDPad,CuDef*%
%ADD41RoundRect,0.075000X-0.075000X0.350000X-0.075000X-0.350000X0.075000X-0.350000X0.075000X0.350000X0*%
%TD*%
%TA.AperFunction,SMDPad,CuDef*%
%ADD42RoundRect,0.250000X0.475000X-0.337500X0.475000X0.337500X-0.475000X0.337500X-0.475000X-0.337500X0*%
%TD*%
%TA.AperFunction,SMDPad,CuDef*%
%ADD43RoundRect,0.062500X-0.062500X0.375000X-0.062500X-0.375000X0.062500X-0.375000X0.062500X0.375000X0*%
%TD*%
%TA.AperFunction,SMDPad,CuDef*%
%ADD44RoundRect,0.062500X-0.375000X0.062500X-0.375000X-0.062500X0.375000X-0.062500X0.375000X0.062500X0*%
%TD*%
%TA.AperFunction,HeatsinkPad*%
%ADD45R,5.600000X5.600000*%
%TD*%
%TA.AperFunction,SMDPad,CuDef*%
%ADD46RoundRect,0.250000X0.400000X0.625000X-0.400000X0.625000X-0.400000X-0.625000X0.400000X-0.625000X0*%
%TD*%
%TA.AperFunction,SMDPad,CuDef*%
%ADD47R,1.620000X2.046000*%
%TD*%
%TA.AperFunction,SMDPad,CuDef*%
%ADD48O,1.742000X0.364000*%
%TD*%
%TA.AperFunction,SMDPad,CuDef*%
%ADD49R,1.400000X1.200000*%
%TD*%
%TA.AperFunction,SMDPad,CuDef*%
%ADD50RoundRect,0.237500X0.287500X0.237500X-0.287500X0.237500X-0.287500X-0.237500X0.287500X-0.237500X0*%
%TD*%
%TA.AperFunction,ViaPad*%
%ADD51C,1.200000*%
%TD*%
%TA.AperFunction,ViaPad*%
%ADD52C,0.500000*%
%TD*%
%TA.AperFunction,ViaPad*%
%ADD53C,0.900000*%
%TD*%
%TA.AperFunction,ViaPad*%
%ADD54C,0.700000*%
%TD*%
%TA.AperFunction,ViaPad*%
%ADD55C,0.600000*%
%TD*%
%TA.AperFunction,Conductor*%
%ADD56C,0.600000*%
%TD*%
%TA.AperFunction,Conductor*%
%ADD57C,1.000000*%
%TD*%
%TA.AperFunction,Conductor*%
%ADD58C,0.300000*%
%TD*%
%TA.AperFunction,Conductor*%
%ADD59C,0.250000*%
%TD*%
%TA.AperFunction,Conductor*%
%ADD60C,0.400000*%
%TD*%
%TA.AperFunction,Conductor*%
%ADD61C,0.500000*%
%TD*%
%TA.AperFunction,Conductor*%
%ADD62C,0.350000*%
%TD*%
%TA.AperFunction,Conductor*%
%ADD63C,0.800000*%
%TD*%
G04 APERTURE END LIST*
D10*
%TO.P,J2,1,Pin_1*%
%TO.N,+3V3*%
X83950000Y-70600000D03*
D11*
%TO.P,J2,2,Pin_2*%
%TO.N,GNDD*%
X81410000Y-70600000D03*
%TO.P,J2,3,Pin_3*%
%TO.N,/USART3_TX*%
X78870000Y-70600000D03*
%TO.P,J2,4,Pin_4*%
%TO.N,/USART3_RX*%
X76330000Y-70600000D03*
%TO.P,J2,5,Pin_5*%
%TO.N,/SWDIO*%
X73790000Y-70600000D03*
%TO.P,J2,6,Pin_6*%
%TO.N,/SWCLK*%
X71250000Y-70600000D03*
%TD*%
D12*
%TO.P,TP1,1,1*%
%TO.N,/inverter/1VS3*%
X37386500Y-59843500D03*
%TD*%
D13*
%TO.P,J1,1,Pin_1*%
%TO.N,GNDPWR*%
X59900000Y-48300000D03*
%TO.P,J1,2,Pin_2*%
%TO.N,+BATT*%
X55900000Y-48300000D03*
%TD*%
D12*
%TO.P,TP3,1,1*%
%TO.N,/inverter/1VS1*%
X37366500Y-56433500D03*
%TD*%
D14*
%TO.P,,1*%
%TO.N,N/C*%
X34960000Y-33240000D03*
%TD*%
%TO.P,,1*%
%TO.N,N/C*%
X119660000Y-33240000D03*
%TD*%
D12*
%TO.P,TP5,1,1*%
%TO.N,/inverter/2VS2*%
X118520000Y-60690000D03*
%TD*%
%TO.P,TP4,1,1*%
%TO.N,/inverter/2VS3*%
X117040000Y-59000000D03*
%TD*%
D14*
%TO.P,,1*%
%TO.N,N/C*%
X119660000Y-69640000D03*
%TD*%
D12*
%TO.P,TP6,1,1*%
%TO.N,/inverter/2VS1*%
X116990000Y-62400000D03*
%TD*%
D14*
%TO.P,,1*%
%TO.N,N/C*%
X34960000Y-69640000D03*
%TD*%
D15*
%TO.P,R20,1*%
%TO.N,Net-(U6A--)*%
X90500000Y-63525000D03*
%TO.P,R20,2*%
%TO.N,/2CS1+*%
X90500000Y-61700000D03*
%TD*%
D16*
%TO.P,C4,1*%
%TO.N,GNDPWR*%
X47580000Y-35577500D03*
%TO.P,C4,2*%
%TO.N,+3V3*%
X47580000Y-32452500D03*
%TD*%
D17*
%TO.P,R23,1*%
%TO.N,GNDPWR*%
X53642500Y-68190000D03*
%TO.P,R23,2*%
%TO.N,/1CS1-*%
X51817500Y-68190000D03*
%TD*%
D18*
%TO.P,J5,1,Pin_1*%
%TO.N,/NSS1*%
X37140000Y-44780000D03*
%TO.P,J5,2,Pin_2*%
%TO.N,/SPI3_MOSI*%
X37140000Y-43780000D03*
%TO.P,J5,3,Pin_3*%
%TO.N,/SPI3_MISO*%
X37140000Y-42780000D03*
%TO.P,J5,4,Pin_4*%
%TO.N,/SPI3_SCK*%
X37140000Y-41780000D03*
%TO.P,J5,5,Pin_5*%
%TO.N,+3V3*%
X37140000Y-40780000D03*
%TO.P,J5,6,Pin_6*%
%TO.N,GNDD*%
X37140000Y-39780000D03*
D19*
%TO.P,J5,7*%
%TO.N,N/C*%
X33740000Y-38680000D03*
%TO.P,J5,8*%
X33740000Y-45880000D03*
%TD*%
D20*
%TO.P,D2,1,K*%
%TO.N,Net-(D2-K)*%
X98500000Y-66665000D03*
%TO.P,D2,2,A*%
%TO.N,+BATT*%
X98500000Y-70135000D03*
%TD*%
D21*
%TO.P,R8,1*%
%TO.N,/inverter/1HO3*%
X40890000Y-68900000D03*
%TO.P,R8,2*%
%TO.N,Net-(D5-A)*%
X42715000Y-68900000D03*
%TD*%
D22*
%TO.P,L1,1,1*%
%TO.N,Net-(D8-K)*%
X56100000Y-36585000D03*
%TO.P,L1,2,2*%
%TO.N,+3V3*%
X56100000Y-32785000D03*
%TD*%
D23*
%TO.P,Q11,1,S*%
%TO.N,/inverter/2VS3*%
X111982500Y-56404476D03*
%TO.P,Q11,2,S*%
X111982500Y-55754476D03*
%TO.P,Q11,3,S*%
X111982500Y-55104476D03*
%TO.P,Q11,4,G*%
%TO.N,Net-(D20-A)*%
X111982500Y-54454476D03*
%TO.P,Q11,5,D*%
%TO.N,+BATT*%
X114952500Y-54454476D03*
%TO.P,Q11,6,D*%
X114952500Y-55104476D03*
%TO.P,Q11,7,D*%
X114952500Y-55754476D03*
%TO.P,Q11,8,D*%
X114952500Y-56404476D03*
D24*
X113752500Y-55429476D03*
%TD*%
D17*
%TO.P,R17,1*%
%TO.N,/inverter/2HO3*%
X114265000Y-53071476D03*
%TO.P,R17,2*%
%TO.N,Net-(D20-A)*%
X112440000Y-53071476D03*
%TD*%
D25*
%TO.P,C38,1*%
%TO.N,GNDD*%
X75187500Y-56530000D03*
%TO.P,C38,2*%
%TO.N,/INA1+*%
X73462500Y-56530000D03*
%TD*%
%TO.P,C41,1*%
%TO.N,GNDD*%
X79900000Y-60200000D03*
%TO.P,C41,2*%
%TO.N,/ADC1_IN11*%
X78175000Y-60200000D03*
%TD*%
D23*
%TO.P,Q9,1,S*%
%TO.N,/inverter/2VS2*%
X111730000Y-63775000D03*
%TO.P,Q9,2,S*%
X111730000Y-63125000D03*
%TO.P,Q9,3,S*%
X111730000Y-62475000D03*
%TO.P,Q9,4,G*%
%TO.N,Net-(D18-A)*%
X111730000Y-61825000D03*
%TO.P,Q9,5,D*%
%TO.N,+BATT*%
X114700000Y-61825000D03*
%TO.P,Q9,6,D*%
X114700000Y-62475000D03*
%TO.P,Q9,7,D*%
X114700000Y-63125000D03*
%TO.P,Q9,8,D*%
X114700000Y-63775000D03*
D24*
X113500000Y-62800000D03*
%TD*%
D26*
%TO.P,C29,1*%
%TO.N,Net-(D7-K)*%
X53500000Y-54637500D03*
%TO.P,C29,2*%
%TO.N,/inverter/1VS1*%
X53500000Y-56362500D03*
%TD*%
D23*
%TO.P,Q8,1,S*%
%TO.N,Net-(Q8-S-Pad1)*%
X107832500Y-71296476D03*
%TO.P,Q8,2,S*%
X107832500Y-70646476D03*
%TO.P,Q8,3,S*%
X107832500Y-69996476D03*
%TO.P,Q8,4,G*%
%TO.N,Net-(D17-A)*%
X107832500Y-69346476D03*
%TO.P,Q8,5,D*%
%TO.N,/inverter/2VS1*%
X110802500Y-69346476D03*
%TO.P,Q8,6,D*%
X110802500Y-69996476D03*
%TO.P,Q8,7,D*%
X110802500Y-70646476D03*
%TO.P,Q8,8,D*%
X110802500Y-71296476D03*
D24*
X109602500Y-70321476D03*
%TD*%
D17*
%TO.P,R3,1*%
%TO.N,+3V3*%
X43942500Y-32205000D03*
%TO.P,R3,2*%
%TO.N,Net-(D1-A)*%
X42117500Y-32205000D03*
%TD*%
D21*
%TO.P,R4,1*%
%TO.N,/inverter/1HO2*%
X40807500Y-61300000D03*
%TO.P,R4,2*%
%TO.N,Net-(D9-A)*%
X42632500Y-61300000D03*
%TD*%
D23*
%TO.P,Q13,1,S*%
%TO.N,/inverter/1VS3*%
X42753500Y-65400000D03*
%TO.P,Q13,2,S*%
X42753500Y-66050000D03*
%TO.P,Q13,3,S*%
X42753500Y-66700000D03*
%TO.P,Q13,4,G*%
%TO.N,Net-(D5-A)*%
X42753500Y-67350000D03*
%TO.P,Q13,5,D*%
%TO.N,+BATT*%
X39783500Y-67350000D03*
%TO.P,Q13,6,D*%
X39783500Y-66700000D03*
%TO.P,Q13,7,D*%
X39783500Y-66050000D03*
%TO.P,Q13,8,D*%
X39783500Y-65400000D03*
D24*
X40983500Y-66375000D03*
%TD*%
D21*
%TO.P,R19,1*%
%TO.N,/inverter/1LO1*%
X44867500Y-53910000D03*
%TO.P,R19,2*%
%TO.N,Net-(D24-A)*%
X46692500Y-53910000D03*
%TD*%
%TO.P,R2,1*%
%TO.N,Net-(U3-VSENSE)*%
X62355000Y-42225000D03*
%TO.P,R2,2*%
%TO.N,GNDPWR*%
X64180000Y-42225000D03*
%TD*%
D27*
%TO.P,D22,1,K*%
%TO.N,/inverter/1LO2*%
X44372500Y-63350000D03*
%TO.P,D22,2,A*%
%TO.N,Net-(D22-A)*%
X47672500Y-63350000D03*
%TD*%
D28*
%TO.P,C68,1*%
%TO.N,/YO*%
X79500000Y-38805000D03*
%TO.P,C68,2*%
%TO.N,GNDD*%
X79500000Y-37080000D03*
%TD*%
D25*
%TO.P,C35,1*%
%TO.N,/1CS2-*%
X51822500Y-54510000D03*
%TO.P,C35,2*%
%TO.N,/1CS2+*%
X50097500Y-54510000D03*
%TD*%
D29*
%TO.P,D19,1,K*%
%TO.N,/inverter/2LO2*%
X110250000Y-58471476D03*
%TO.P,D19,2,A*%
%TO.N,Net-(D19-A)*%
X106950000Y-58471476D03*
%TD*%
D26*
%TO.P,C30,1*%
%TO.N,Net-(D10-K)*%
X50000000Y-58375000D03*
%TO.P,C30,2*%
%TO.N,/inverter/1VS2*%
X50000000Y-60100000D03*
%TD*%
%TO.P,C48,1*%
%TO.N,GNDD*%
X77725000Y-50572500D03*
%TO.P,C48,2*%
%TO.N,/VREF_OP1*%
X77725000Y-52297500D03*
%TD*%
D18*
%TO.P,CN2,1,1*%
%TO.N,/inverter/2VS3*%
X117171500Y-59703500D03*
%TO.P,CN2,2,2*%
%TO.N,/inverter/2VS2*%
X117171500Y-60703500D03*
%TO.P,CN2,3,3*%
%TO.N,/inverter/2VS1*%
X117171500Y-61703500D03*
D19*
%TO.P,CN2,4,4*%
%TO.N,unconnected-(CN2-Pad4)*%
X120571500Y-62803500D03*
%TO.P,CN2,5,5*%
%TO.N,unconnected-(CN2-Pad5)*%
X120571500Y-58603500D03*
%TD*%
D30*
%TO.P,R30,1*%
%TO.N,Net-(U6A-+)*%
X89000000Y-65075000D03*
%TO.P,R30,2*%
%TO.N,/2CS1-*%
X89000000Y-66900000D03*
%TD*%
D17*
%TO.P,R37,1*%
%TO.N,Net-(R36-Pad2)*%
X76050000Y-60200000D03*
%TO.P,R37,2*%
%TO.N,/ADC1_IN5*%
X74225000Y-60200000D03*
%TD*%
D23*
%TO.P,Q14,1,S*%
%TO.N,GNDPWR*%
X47020000Y-57915000D03*
%TO.P,Q14,2,S*%
X47020000Y-58565000D03*
%TO.P,Q14,3,S*%
X47020000Y-59215000D03*
%TO.P,Q14,4,G*%
%TO.N,Net-(D22-A)*%
X47020000Y-59865000D03*
%TO.P,Q14,5,D*%
%TO.N,/inverter/1VS2*%
X44050000Y-59865000D03*
%TO.P,Q14,6,D*%
X44050000Y-59215000D03*
%TO.P,Q14,7,D*%
X44050000Y-58565000D03*
%TO.P,Q14,8,D*%
X44050000Y-57915000D03*
D24*
X45250000Y-58890000D03*
%TD*%
D25*
%TO.P,C42,1*%
%TO.N,GNDD*%
X65862500Y-59600000D03*
%TO.P,C42,2*%
%TO.N,/ADC2_IN15*%
X64137500Y-59600000D03*
%TD*%
D31*
%TO.P,U6,1*%
%TO.N,Net-(R34-Pad2)*%
X86975000Y-61760000D03*
%TO.P,U6,2,-*%
%TO.N,Net-(U6A--)*%
X86975000Y-63030000D03*
%TO.P,U6,3,+*%
%TO.N,Net-(U6A-+)*%
X86975000Y-64300000D03*
%TO.P,U6,4,V-*%
%TO.N,GNDD*%
X86975000Y-65570000D03*
%TO.P,U6,5,+*%
%TO.N,Net-(U6B-+)*%
X82025000Y-65570000D03*
%TO.P,U6,6,-*%
%TO.N,Net-(U6B--)*%
X82025000Y-64300000D03*
%TO.P,U6,7*%
%TO.N,Net-(R48-Pad2)*%
X82025000Y-63030000D03*
%TO.P,U6,8,V+*%
%TO.N,/OP_VCC*%
X82025000Y-61760000D03*
%TD*%
D30*
%TO.P,R45,1*%
%TO.N,Net-(U6B-+)*%
X80000000Y-66487500D03*
%TO.P,R45,2*%
%TO.N,/VREF_OP2*%
X80000000Y-68312500D03*
%TD*%
D32*
%TO.P,C33,1*%
%TO.N,GNDPWR*%
X120662500Y-65500000D03*
%TO.P,C33,2*%
%TO.N,+BATT*%
X117537500Y-65500000D03*
%TD*%
D23*
%TO.P,Q15,1,S*%
%TO.N,/inverter/1VS1*%
X43190000Y-50425714D03*
%TO.P,Q15,2,S*%
X43190000Y-51075714D03*
%TO.P,Q15,3,S*%
X43190000Y-51725714D03*
%TO.P,Q15,4,G*%
%TO.N,Net-(D23-A)*%
X43190000Y-52375714D03*
%TO.P,Q15,5,D*%
%TO.N,+BATT*%
X40220000Y-52375714D03*
%TO.P,Q15,6,D*%
X40220000Y-51725714D03*
%TO.P,Q15,7,D*%
X40220000Y-51075714D03*
%TO.P,Q15,8,D*%
X40220000Y-50425714D03*
D24*
X41420000Y-51400714D03*
%TD*%
D23*
%TO.P,Q1,1,S*%
%TO.N,Net-(Q1-S-Pad1)*%
X46902500Y-65400000D03*
%TO.P,Q1,2,S*%
X46902500Y-66050000D03*
%TO.P,Q1,3,S*%
X46902500Y-66700000D03*
%TO.P,Q1,4,G*%
%TO.N,Net-(D6-A)*%
X46902500Y-67350000D03*
%TO.P,Q1,5,D*%
%TO.N,/inverter/1VS3*%
X43932500Y-67350000D03*
%TO.P,Q1,6,D*%
X43932500Y-66700000D03*
%TO.P,Q1,7,D*%
X43932500Y-66050000D03*
%TO.P,Q1,8,D*%
X43932500Y-65400000D03*
D24*
X45132500Y-66375000D03*
%TD*%
D33*
%TO.P,C27,1*%
%TO.N,GNDD*%
X70875000Y-60200000D03*
%TO.P,C27,2*%
%TO.N,/ADC1_IN5*%
X72600000Y-60200000D03*
%TD*%
D31*
%TO.P,U7,1*%
%TO.N,Net-(R36-Pad2)*%
X72887500Y-61800000D03*
%TO.P,U7,2,-*%
%TO.N,Net-(U7A--)*%
X72887500Y-63070000D03*
%TO.P,U7,3,+*%
%TO.N,Net-(U7A-+)*%
X72887500Y-64340000D03*
%TO.P,U7,4,V-*%
%TO.N,GNDD*%
X72887500Y-65610000D03*
%TO.P,U7,5,+*%
%TO.N,Net-(U7B-+)*%
X67937500Y-65610000D03*
%TO.P,U7,6,-*%
%TO.N,Net-(U7B--)*%
X67937500Y-64340000D03*
%TO.P,U7,7*%
%TO.N,Net-(R51-Pad2)*%
X67937500Y-63070000D03*
%TO.P,U7,8,V+*%
%TO.N,/OP_VCC*%
X67937500Y-61800000D03*
%TD*%
D34*
%TO.P,C51,1*%
%TO.N,GNDPWR*%
X34037500Y-65400000D03*
%TO.P,C51,2*%
%TO.N,+BATT*%
X37162500Y-65400000D03*
%TD*%
D15*
%TO.P,R21,1*%
%TO.N,Net-(U7A--)*%
X76400000Y-63612500D03*
%TO.P,R21,2*%
%TO.N,/1CS1+*%
X76400000Y-61787500D03*
%TD*%
D21*
%TO.P,R22,1*%
%TO.N,Net-(Q1-S-Pad1)*%
X48417500Y-68190000D03*
%TO.P,R22,2*%
%TO.N,/1CS1+*%
X50242500Y-68190000D03*
%TD*%
D28*
%TO.P,C23,1*%
%TO.N,Net-(U4-REGOUT)*%
X93100000Y-35362500D03*
%TO.P,C23,2*%
%TO.N,GNDD*%
X93100000Y-33637500D03*
%TD*%
D35*
%TO.P,R11,1*%
%TO.N,GNDPWR*%
X103171500Y-70900000D03*
%TO.P,R11,2*%
%TO.N,Net-(Q8-S-Pad1)*%
X106271500Y-70900000D03*
%TD*%
D21*
%TO.P,R44,1*%
%TO.N,Net-(U6B-+)*%
X81587500Y-67200000D03*
%TO.P,R44,2*%
%TO.N,/2CS2-*%
X83412500Y-67200000D03*
%TD*%
D26*
%TO.P,C10,1*%
%TO.N,GNDD*%
X80725000Y-53817500D03*
%TO.P,C10,2*%
%TO.N,/OP_VCC*%
X80725000Y-55542500D03*
%TD*%
D17*
%TO.P,R50,1*%
%TO.N,Net-(R48-Pad2)*%
X80012500Y-61700000D03*
%TO.P,R50,2*%
%TO.N,/ADC1_IN11*%
X78187500Y-61700000D03*
%TD*%
D21*
%TO.P,R29,1*%
%TO.N,GNDPWR*%
X101480000Y-53851476D03*
%TO.P,R29,2*%
%TO.N,/2CS2-*%
X103305000Y-53851476D03*
%TD*%
D15*
%TO.P,R41,1*%
%TO.N,GNDD*%
X68725000Y-58330000D03*
%TO.P,R41,2*%
%TO.N,/INA2+*%
X68725000Y-56505000D03*
%TD*%
D32*
%TO.P,C12,1*%
%TO.N,GNDPWR*%
X120900000Y-52800000D03*
%TO.P,C12,2*%
%TO.N,+BATT*%
X117775000Y-52800000D03*
%TD*%
D28*
%TO.P,C8,1*%
%TO.N,GNDPWR*%
X45580000Y-33997500D03*
%TO.P,C8,2*%
%TO.N,+3V3*%
X45580000Y-32272500D03*
%TD*%
D21*
%TO.P,R24,1*%
%TO.N,Net-(Q16-S-Pad1)*%
X48447500Y-53010000D03*
%TO.P,R24,2*%
%TO.N,/1CS2+*%
X50272500Y-53010000D03*
%TD*%
D32*
%TO.P,C14,1*%
%TO.N,GNDPWR*%
X120962500Y-56000000D03*
%TO.P,C14,2*%
%TO.N,+BATT*%
X117837500Y-56000000D03*
%TD*%
D21*
%TO.P,R7,1*%
%TO.N,/inverter/1LO3*%
X44977500Y-68900000D03*
%TO.P,R7,2*%
%TO.N,Net-(D6-A)*%
X46802500Y-68900000D03*
%TD*%
%TO.P,R5,1*%
%TO.N,/inverter/1LO2*%
X44767500Y-61290000D03*
%TO.P,R5,2*%
%TO.N,Net-(D22-A)*%
X46592500Y-61290000D03*
%TD*%
D28*
%TO.P,C16,1*%
%TO.N,Net-(D2-K)*%
X104892500Y-65532976D03*
%TO.P,C16,2*%
%TO.N,/inverter/2VS1*%
X104892500Y-63807976D03*
%TD*%
D23*
%TO.P,Q7,1,S*%
%TO.N,/inverter/2VS1*%
X111961500Y-71281476D03*
%TO.P,Q7,2,S*%
X111961500Y-70631476D03*
%TO.P,Q7,3,S*%
X111961500Y-69981476D03*
%TO.P,Q7,4,G*%
%TO.N,Net-(D16-A)*%
X111961500Y-69331476D03*
%TO.P,Q7,5,D*%
%TO.N,+BATT*%
X114931500Y-69331476D03*
%TO.P,Q7,6,D*%
X114931500Y-69981476D03*
%TO.P,Q7,7,D*%
X114931500Y-70631476D03*
%TO.P,Q7,8,D*%
X114931500Y-71281476D03*
D24*
X113731500Y-70306476D03*
%TD*%
D25*
%TO.P,C19,1*%
%TO.N,+3V3*%
X72062500Y-38950000D03*
%TO.P,C19,2*%
%TO.N,GNDD*%
X70337500Y-38950000D03*
%TD*%
D34*
%TO.P,C34,1*%
%TO.N,GNDPWR*%
X34037500Y-62800000D03*
%TO.P,C34,2*%
%TO.N,+BATT*%
X37162500Y-62800000D03*
%TD*%
D33*
%TO.P,FB2,1*%
%TO.N,GNDPWR*%
X63107500Y-31970000D03*
%TO.P,FB2,2*%
%TO.N,GNDD*%
X64832500Y-31970000D03*
%TD*%
D23*
%TO.P,Q12,1,S*%
%TO.N,Net-(Q12-S-Pad1)*%
X107892500Y-56431476D03*
%TO.P,Q12,2,S*%
X107892500Y-55781476D03*
%TO.P,Q12,3,S*%
X107892500Y-55131476D03*
%TO.P,Q12,4,G*%
%TO.N,Net-(D21-A)*%
X107892500Y-54481476D03*
%TO.P,Q12,5,D*%
%TO.N,/inverter/2VS3*%
X110862500Y-54481476D03*
%TO.P,Q12,6,D*%
X110862500Y-55131476D03*
%TO.P,Q12,7,D*%
X110862500Y-55781476D03*
%TO.P,Q12,8,D*%
X110862500Y-56431476D03*
D24*
X109662500Y-55456476D03*
%TD*%
D31*
%TO.P,U8,1*%
%TO.N,/VREF_OP1*%
X75675000Y-51090000D03*
%TO.P,U8,2,-*%
X75675000Y-52360000D03*
%TO.P,U8,3,+*%
%TO.N,/INA1+*%
X75675000Y-53630000D03*
%TO.P,U8,4,V-*%
%TO.N,GNDD*%
X75675000Y-54900000D03*
%TO.P,U8,5,+*%
%TO.N,/INA2+*%
X70725000Y-54900000D03*
%TO.P,U8,6,-*%
%TO.N,/VREF_OP2*%
X70725000Y-53630000D03*
%TO.P,U8,7*%
X70725000Y-52360000D03*
%TO.P,U8,8,V+*%
%TO.N,/OP_VCC*%
X70725000Y-51090000D03*
%TD*%
D30*
%TO.P,R38,1*%
%TO.N,/INA1+*%
X79225000Y-53935000D03*
%TO.P,R38,2*%
%TO.N,/OP_VCC*%
X79225000Y-55760000D03*
%TD*%
D17*
%TO.P,R18,1*%
%TO.N,/inverter/2LO3*%
X110052500Y-52991476D03*
%TO.P,R18,2*%
%TO.N,Net-(D21-A)*%
X108227500Y-52991476D03*
%TD*%
D26*
%TO.P,C26,1*%
%TO.N,Net-(D4-K)*%
X101200000Y-55937500D03*
%TO.P,C26,2*%
%TO.N,/inverter/2VS3*%
X101200000Y-57662500D03*
%TD*%
D17*
%TO.P,R1,1*%
%TO.N,+3V3*%
X64162500Y-40635000D03*
%TO.P,R1,2*%
%TO.N,Net-(U3-VSENSE)*%
X62337500Y-40635000D03*
%TD*%
D36*
%TO.P,U3,1,BOOT*%
%TO.N,Net-(U3-BOOT)*%
X60290000Y-38995000D03*
%TO.P,U3,2,NC*%
%TO.N,unconnected-(U3-NC-Pad2)*%
X60290000Y-40265000D03*
%TO.P,U3,3,NC*%
%TO.N,unconnected-(U3-NC-Pad3)*%
X60290000Y-41535000D03*
%TO.P,U3,4,VSENSE*%
%TO.N,Net-(U3-VSENSE)*%
X60290000Y-42805000D03*
%TO.P,U3,5,EN*%
%TO.N,unconnected-(U3-EN-Pad5)*%
X54890000Y-42805000D03*
%TO.P,U3,6,GND*%
%TO.N,GNDPWR*%
X54890000Y-41535000D03*
%TO.P,U3,7,VIN*%
%TO.N,+BATT*%
X54890000Y-40265000D03*
%TO.P,U3,8,PH*%
%TO.N,Net-(D8-K)*%
X54890000Y-38995000D03*
D37*
%TO.P,U3,9,GNDPAD*%
%TO.N,GNDPWR*%
X58190000Y-42700000D03*
X58190000Y-41600000D03*
X58190000Y-40300000D03*
X58190000Y-39100000D03*
D38*
X57590000Y-40900000D03*
D39*
X57590000Y-40900000D03*
D37*
X56990000Y-42700000D03*
X56990000Y-41600000D03*
X56990000Y-40300000D03*
X56990000Y-39100000D03*
%TD*%
D40*
%TO.P,U4,1,CLKIN*%
%TO.N,GNDD*%
X90800000Y-40500000D03*
%TO.P,U4,2,NC*%
%TO.N,unconnected-(U4-NC-Pad2)*%
X90800000Y-40000000D03*
%TO.P,U4,3,NC*%
%TO.N,unconnected-(U4-NC-Pad3)*%
X90800000Y-39500000D03*
%TO.P,U4,4,NC*%
%TO.N,unconnected-(U4-NC-Pad4)*%
X90800000Y-39000000D03*
%TO.P,U4,5,NC*%
%TO.N,unconnected-(U4-NC-Pad5)*%
X90800000Y-38500000D03*
%TO.P,U4,6,AUX_DA*%
%TO.N,unconnected-(U4-AUX_DA-Pad6)*%
X90800000Y-38000000D03*
D41*
%TO.P,U4,7,AUX_CL*%
%TO.N,unconnected-(U4-AUX_CL-Pad7)*%
X91500000Y-37300000D03*
%TO.P,U4,8,VLOGIC*%
%TO.N,Net-(U4-VDD)*%
X92000000Y-37300000D03*
%TO.P,U4,9,AD0*%
%TO.N,GNDD*%
X92500000Y-37300000D03*
%TO.P,U4,10,REGOUT*%
%TO.N,Net-(U4-REGOUT)*%
X93000000Y-37300000D03*
%TO.P,U4,11,FSYNC*%
%TO.N,GNDD*%
X93500000Y-37300000D03*
%TO.P,U4,12,INT*%
%TO.N,/MPU_INT*%
X94000000Y-37300000D03*
D40*
%TO.P,U4,13,VDD*%
%TO.N,Net-(U4-VDD)*%
X94700000Y-38000000D03*
%TO.P,U4,14,NC*%
%TO.N,unconnected-(U4-NC-Pad14)*%
X94700000Y-38500000D03*
%TO.P,U4,15,NC*%
%TO.N,unconnected-(U4-NC-Pad15)*%
X94700000Y-39000000D03*
%TO.P,U4,16,NC*%
%TO.N,unconnected-(U4-NC-Pad16)*%
X94700000Y-39500000D03*
%TO.P,U4,17,NC*%
%TO.N,unconnected-(U4-NC-Pad17)*%
X94700000Y-40000000D03*
%TO.P,U4,18,GND*%
%TO.N,GNDD*%
X94700000Y-40500000D03*
D41*
%TO.P,U4,19,RESV*%
%TO.N,unconnected-(U4-RESV-Pad19)*%
X94000000Y-41200000D03*
%TO.P,U4,20,CPOUT*%
%TO.N,Net-(U4-CPOUT)*%
X93500000Y-41200000D03*
%TO.P,U4,21,RESV*%
%TO.N,unconnected-(U4-RESV-Pad21)*%
X93000000Y-41200000D03*
%TO.P,U4,22,RESV*%
%TO.N,unconnected-(U4-RESV-Pad22)*%
X92500000Y-41200000D03*
%TO.P,U4,23,SCL*%
%TO.N,/I2C1_SCL*%
X92000000Y-41200000D03*
%TO.P,U4,24,SDA*%
%TO.N,/I2C1_SDA*%
X91500000Y-41200000D03*
%TD*%
D25*
%TO.P,C46,1*%
%TO.N,GNDD*%
X69200000Y-60200000D03*
%TO.P,C46,2*%
%TO.N,/OP_VCC*%
X67475000Y-60200000D03*
%TD*%
%TO.P,C21,1*%
%TO.N,+3V3*%
X74862500Y-48900000D03*
%TO.P,C21,2*%
%TO.N,GNDD*%
X73137500Y-48900000D03*
%TD*%
D17*
%TO.P,R26,1*%
%TO.N,Net-(Q8-S-Pad1)*%
X106512500Y-69000000D03*
%TO.P,R26,2*%
%TO.N,/2CS1+*%
X104687500Y-69000000D03*
%TD*%
D15*
%TO.P,R48,1*%
%TO.N,Net-(U6B--)*%
X80000000Y-65012500D03*
%TO.P,R48,2*%
%TO.N,Net-(R48-Pad2)*%
X80000000Y-63187500D03*
%TD*%
D25*
%TO.P,C45,1*%
%TO.N,GNDD*%
X83300000Y-60200000D03*
%TO.P,C45,2*%
%TO.N,/OP_VCC*%
X81575000Y-60200000D03*
%TD*%
D30*
%TO.P,R31,1*%
%TO.N,Net-(U6A-+)*%
X90500000Y-65075000D03*
%TO.P,R31,2*%
%TO.N,/VREF_OP2*%
X90500000Y-66900000D03*
%TD*%
D17*
%TO.P,R14,1*%
%TO.N,/inverter/2LO1*%
X109974000Y-67971476D03*
%TO.P,R14,2*%
%TO.N,Net-(D17-A)*%
X108149000Y-67971476D03*
%TD*%
D34*
%TO.P,C49,1*%
%TO.N,GNDPWR*%
X35337500Y-51500000D03*
%TO.P,C49,2*%
%TO.N,+BATT*%
X38462500Y-51500000D03*
%TD*%
D28*
%TO.P,C47,1*%
%TO.N,GNDD*%
X68700000Y-54857500D03*
%TO.P,C47,2*%
%TO.N,/VREF_OP2*%
X68700000Y-53132500D03*
%TD*%
D20*
%TO.P,D7,1,K*%
%TO.N,Net-(D7-K)*%
X56000000Y-56335000D03*
%TO.P,D7,2,A*%
%TO.N,+BATT*%
X56000000Y-52865000D03*
%TD*%
D15*
%TO.P,R39,1*%
%TO.N,GNDD*%
X77725000Y-55747500D03*
%TO.P,R39,2*%
%TO.N,/INA1+*%
X77725000Y-53922500D03*
%TD*%
D26*
%TO.P,C44,1*%
%TO.N,GNDD*%
X79225000Y-50572500D03*
%TO.P,C44,2*%
%TO.N,/VREF_OP1*%
X79225000Y-52297500D03*
%TD*%
D42*
%TO.P,C5,1*%
%TO.N,GNDPWR*%
X51100000Y-42252500D03*
%TO.P,C5,2*%
%TO.N,+BATT*%
X51100000Y-40177500D03*
%TD*%
D43*
%TO.P,U5,1,VBAT*%
%TO.N,+3V3*%
X74450000Y-40462500D03*
%TO.P,U5,2,PC13*%
%TO.N,unconnected-(U5-PC13-Pad2)*%
X74950000Y-40462500D03*
%TO.P,U5,3,PC14*%
%TO.N,unconnected-(U5-PC14-Pad3)*%
X75450000Y-40462500D03*
%TO.P,U5,4,PC15*%
%TO.N,unconnected-(U5-PC15-Pad4)*%
X75950000Y-40462500D03*
%TO.P,U5,5,PF0*%
%TO.N,/YI*%
X76450000Y-40462500D03*
%TO.P,U5,6,PF1*%
%TO.N,/YO*%
X76950000Y-40462500D03*
%TO.P,U5,7,PG10*%
%TO.N,unconnected-(U5-PG10-Pad7)*%
X77450000Y-40462500D03*
%TO.P,U5,8,PA0*%
%TO.N,unconnected-(U5-PA0-Pad8)*%
X77950000Y-40462500D03*
%TO.P,U5,9,PA1*%
%TO.N,unconnected-(U5-PA1-Pad9)*%
X78450000Y-40462500D03*
%TO.P,U5,10,PA2*%
%TO.N,/USART2_TX*%
X78950000Y-40462500D03*
%TO.P,U5,11,PA3*%
%TO.N,/USART2_RX*%
X79450000Y-40462500D03*
%TO.P,U5,12,PA4*%
%TO.N,/MPU_INT*%
X79950000Y-40462500D03*
D44*
%TO.P,U5,13,PA5*%
%TO.N,/SPI1_SCK*%
X80637500Y-41150000D03*
%TO.P,U5,14,PA6*%
%TO.N,/SPI1_MISO*%
X80637500Y-41650000D03*
%TO.P,U5,15,PA7*%
%TO.N,/SPI1_MOSI*%
X80637500Y-42150000D03*
%TO.P,U5,16,PC4*%
%TO.N,/NSS2*%
X80637500Y-42650000D03*
%TO.P,U5,17,PB0*%
%TO.N,/ADC1_IN15*%
X80637500Y-43150000D03*
%TO.P,U5,18,PB1*%
%TO.N,unconnected-(U5-PB1-Pad18)*%
X80637500Y-43650000D03*
%TO.P,U5,19,PB2*%
%TO.N,/ADC2_IN12*%
X80637500Y-44150000D03*
%TO.P,U5,20,VREF+*%
%TO.N,+3V3*%
X80637500Y-44650000D03*
%TO.P,U5,21,VDDA*%
X80637500Y-45150000D03*
%TO.P,U5,22,PB10*%
%TO.N,/USART3_TX*%
X80637500Y-45650000D03*
%TO.P,U5,23,VDD*%
%TO.N,+3V3*%
X80637500Y-46150000D03*
%TO.P,U5,24,PB11*%
%TO.N,/USART3_RX*%
X80637500Y-46650000D03*
D43*
%TO.P,U5,25,PB12*%
%TO.N,/ADC1_IN11*%
X79950000Y-47337500D03*
%TO.P,U5,26,PB13*%
%TO.N,unconnected-(U5-PB13-Pad26)*%
X79450000Y-47337500D03*
%TO.P,U5,27,PB14*%
%TO.N,/ADC1_IN5*%
X78950000Y-47337500D03*
%TO.P,U5,28,PB15*%
%TO.N,/ADC2_IN15*%
X78450000Y-47337500D03*
%TO.P,U5,29,PC6*%
%TO.N,unconnected-(U5-PC6-Pad29)*%
X77950000Y-47337500D03*
%TO.P,U5,30,PA8*%
%TO.N,/TIM1_CH1*%
X77450000Y-47337500D03*
%TO.P,U5,31,PA9*%
%TO.N,/TIM1_CH2*%
X76950000Y-47337500D03*
%TO.P,U5,32,PA10*%
%TO.N,/TIM1_CH3*%
X76450000Y-47337500D03*
%TO.P,U5,33,PA11*%
%TO.N,unconnected-(U5-PA11-Pad33)*%
X75950000Y-47337500D03*
%TO.P,U5,34,PA12*%
%TO.N,unconnected-(U5-PA12-Pad34)*%
X75450000Y-47337500D03*
%TO.P,U5,35,VDD*%
%TO.N,+3V3*%
X74950000Y-47337500D03*
%TO.P,U5,36,PA13*%
%TO.N,/SWDIO*%
X74450000Y-47337500D03*
D44*
%TO.P,U5,37,PA14*%
%TO.N,/SWCLK*%
X73762500Y-46650000D03*
%TO.P,U5,38,PA15*%
%TO.N,/I2C1_SCL*%
X73762500Y-46150000D03*
%TO.P,U5,39,PC10*%
%TO.N,/SPI3_SCK*%
X73762500Y-45650000D03*
%TO.P,U5,40,PC11*%
%TO.N,/SPI3_MISO*%
X73762500Y-45150000D03*
%TO.P,U5,41,PB3*%
%TO.N,/NSS1*%
X73762500Y-44650000D03*
%TO.P,U5,42,PB4*%
%TO.N,unconnected-(U5-PB4-Pad42)*%
X73762500Y-44150000D03*
%TO.P,U5,43,PB5*%
%TO.N,/SPI3_MOSI*%
X73762500Y-43650000D03*
%TO.P,U5,44,PB6*%
%TO.N,/TIM8_CH1*%
X73762500Y-43150000D03*
%TO.P,U5,45,PB7*%
%TO.N,/I2C1_SDA*%
X73762500Y-42650000D03*
%TO.P,U5,46,PB8*%
%TO.N,/TIM8_CH2*%
X73762500Y-42150000D03*
%TO.P,U5,47,PB9*%
%TO.N,/TIM8_CH3*%
X73762500Y-41650000D03*
%TO.P,U5,48,VDD*%
%TO.N,+3V3*%
X73762500Y-41150000D03*
D45*
%TO.P,U5,49,VSS*%
%TO.N,GNDD*%
X77200000Y-43900000D03*
%TD*%
D33*
%TO.P,C18,1*%
%TO.N,+3V3*%
X82637500Y-46300000D03*
%TO.P,C18,2*%
%TO.N,GNDD*%
X84362500Y-46300000D03*
%TD*%
D20*
%TO.P,D3,1,K*%
%TO.N,Net-(D3-K)*%
X96900000Y-57935000D03*
%TO.P,D3,2,A*%
%TO.N,+BATT*%
X96900000Y-54465000D03*
%TD*%
D46*
%TO.P,R9,1*%
%TO.N,GNDPWR*%
X51680000Y-66180000D03*
%TO.P,R9,2*%
%TO.N,Net-(Q1-S-Pad1)*%
X48580000Y-66180000D03*
%TD*%
D29*
%TO.P,D20,1,K*%
%TO.N,/inverter/2HO3*%
X115570000Y-51051476D03*
%TO.P,D20,2,A*%
%TO.N,Net-(D20-A)*%
X112270000Y-51051476D03*
%TD*%
D15*
%TO.P,R51,1*%
%TO.N,Net-(U7B--)*%
X65900000Y-64412500D03*
%TO.P,R51,2*%
%TO.N,Net-(R51-Pad2)*%
X65900000Y-62587500D03*
%TD*%
D23*
%TO.P,Q16,1,S*%
%TO.N,Net-(Q16-S-Pad1)*%
X47299000Y-50435000D03*
%TO.P,Q16,2,S*%
X47299000Y-51085000D03*
%TO.P,Q16,3,S*%
X47299000Y-51735000D03*
%TO.P,Q16,4,G*%
%TO.N,Net-(D24-A)*%
X47299000Y-52385000D03*
%TO.P,Q16,5,D*%
%TO.N,/inverter/1VS1*%
X44329000Y-52385000D03*
%TO.P,Q16,6,D*%
X44329000Y-51735000D03*
%TO.P,Q16,7,D*%
X44329000Y-51085000D03*
%TO.P,Q16,8,D*%
X44329000Y-50435000D03*
D24*
X45529000Y-51410000D03*
%TD*%
D26*
%TO.P,C24,1*%
%TO.N,Net-(U4-CPOUT)*%
X93900000Y-42737500D03*
%TO.P,C24,2*%
%TO.N,GNDD*%
X93900000Y-44462500D03*
%TD*%
D28*
%TO.P,C22,1*%
%TO.N,Net-(U4-VDD)*%
X91600000Y-35362500D03*
%TO.P,C22,2*%
%TO.N,GNDD*%
X91600000Y-33637500D03*
%TD*%
D21*
%TO.P,R32,1*%
%TO.N,Net-(U7A-+)*%
X74875000Y-66700000D03*
%TO.P,R32,2*%
%TO.N,/1CS1-*%
X76700000Y-66700000D03*
%TD*%
%TO.P,R33,1*%
%TO.N,Net-(U7A-+)*%
X74875000Y-65200000D03*
%TO.P,R33,2*%
%TO.N,/VREF_OP1*%
X76700000Y-65200000D03*
%TD*%
D26*
%TO.P,C67,1*%
%TO.N,/YI*%
X73700000Y-37127500D03*
%TO.P,C67,2*%
%TO.N,GNDD*%
X73700000Y-38852500D03*
%TD*%
D47*
%TO.P,D8,1,K*%
%TO.N,Net-(D8-K)*%
X60051000Y-36729000D03*
%TO.P,D8,2,A*%
%TO.N,GNDPWR*%
X60069000Y-31921000D03*
%TD*%
D29*
%TO.P,D17,1,K*%
%TO.N,/inverter/2LO1*%
X110559000Y-66071476D03*
%TO.P,D17,2,A*%
%TO.N,Net-(D17-A)*%
X107259000Y-66071476D03*
%TD*%
D48*
%TO.P,U1,1,HIN1*%
%TO.N,/TIM1_CH3*%
X96929000Y-65396500D03*
%TO.P,U1,2,HIN2*%
%TO.N,/TIM1_CH2*%
X96929000Y-64746500D03*
%TO.P,U1,3,HIN3*%
%TO.N,/TIM1_CH1*%
X96929000Y-64096500D03*
%TO.P,U1,4,LIN1#*%
%TO.N,/TIM1_CH3*%
X96929000Y-63446500D03*
%TO.P,U1,5,LIN2#*%
%TO.N,/TIM1_CH2*%
X96929000Y-62796500D03*
%TO.P,U1,6,LIN3#*%
%TO.N,/TIM1_CH1*%
X96929000Y-62146500D03*
%TO.P,U1,7,VCC*%
%TO.N,Net-(U1-VCC)*%
X96929000Y-61496500D03*
%TO.P,U1,8,GND*%
%TO.N,GNDPWR*%
X96929000Y-60846500D03*
%TO.P,U1,9,LO3*%
%TO.N,/inverter/2LO3*%
X96929000Y-60196500D03*
%TO.P,U1,10,LO2*%
%TO.N,/inverter/2LO2*%
X96929000Y-59546500D03*
%TO.P,U1,11,LO1*%
%TO.N,/inverter/2LO1*%
X102671000Y-59546500D03*
%TO.P,U1,12,VS3*%
%TO.N,/inverter/2VS3*%
X102671000Y-60196500D03*
%TO.P,U1,13,HO3*%
%TO.N,/inverter/2HO3*%
X102671000Y-60846500D03*
%TO.P,U1,14,VB3*%
%TO.N,Net-(D4-K)*%
X102671000Y-61496500D03*
%TO.P,U1,15,VS2*%
%TO.N,/inverter/2VS2*%
X102671000Y-62146500D03*
%TO.P,U1,16,HO2*%
%TO.N,/inverter/2HO2*%
X102671000Y-62796500D03*
%TO.P,U1,17,VB2*%
%TO.N,Net-(D3-K)*%
X102671000Y-63446500D03*
%TO.P,U1,18,VS1*%
%TO.N,/inverter/2VS1*%
X102671000Y-64096500D03*
%TO.P,U1,19,HO1*%
%TO.N,/inverter/2HO1*%
X102671000Y-64746500D03*
%TO.P,U1,20,VB1*%
%TO.N,Net-(D2-K)*%
X102671000Y-65396500D03*
%TD*%
D33*
%TO.P,C11,1*%
%TO.N,GNDD*%
X84975000Y-60200000D03*
%TO.P,C11,2*%
%TO.N,/ADC2_IN12*%
X86700000Y-60200000D03*
%TD*%
D20*
%TO.P,D10,1,K*%
%TO.N,Net-(D10-K)*%
X58100000Y-65565000D03*
%TO.P,D10,2,A*%
%TO.N,+BATT*%
X58100000Y-69035000D03*
%TD*%
D21*
%TO.P,R6,1*%
%TO.N,/inverter/1HO1*%
X40837500Y-53890000D03*
%TO.P,R6,2*%
%TO.N,Net-(D23-A)*%
X42662500Y-53890000D03*
%TD*%
%TO.P,R47,1*%
%TO.N,Net-(U7B-+)*%
X67487500Y-67200000D03*
%TO.P,R47,2*%
%TO.N,/VREF_OP1*%
X69312500Y-67200000D03*
%TD*%
D46*
%TO.P,R10,1*%
%TO.N,GNDPWR*%
X51920000Y-51140000D03*
%TO.P,R10,2*%
%TO.N,Net-(Q16-S-Pad1)*%
X48820000Y-51140000D03*
%TD*%
D33*
%TO.P,C20,1*%
%TO.N,+3V3*%
X82637500Y-44700000D03*
%TO.P,C20,2*%
%TO.N,GNDD*%
X84362500Y-44700000D03*
%TD*%
D26*
%TO.P,C9,1*%
%TO.N,GNDD*%
X82225000Y-53872500D03*
%TO.P,C9,2*%
%TO.N,/OP_VCC*%
X82225000Y-55597500D03*
%TD*%
D28*
%TO.P,C15,1*%
%TO.N,Net-(U1-VCC)*%
X94800000Y-60800000D03*
%TO.P,C15,2*%
%TO.N,GNDPWR*%
X94800000Y-59075000D03*
%TD*%
D29*
%TO.P,D16,1,K*%
%TO.N,/inverter/2HO1*%
X115361500Y-66071476D03*
%TO.P,D16,2,A*%
%TO.N,Net-(D16-A)*%
X112061500Y-66071476D03*
%TD*%
D28*
%TO.P,C1,1*%
%TO.N,Net-(U3-BOOT)*%
X62370000Y-38877500D03*
%TO.P,C1,2*%
%TO.N,Net-(D8-K)*%
X62370000Y-37152500D03*
%TD*%
D49*
%TO.P,Y1,1,1*%
%TO.N,/YI*%
X75500000Y-37112500D03*
%TO.P,Y1,2,2*%
%TO.N,GNDD*%
X77700000Y-37112500D03*
%TO.P,Y1,3,3*%
%TO.N,/YO*%
X77700000Y-38712500D03*
%TO.P,Y1,4,4*%
%TO.N,GNDD*%
X75500000Y-38712500D03*
%TD*%
D30*
%TO.P,R46,1*%
%TO.N,Net-(U7B-+)*%
X65900000Y-65887500D03*
%TO.P,R46,2*%
%TO.N,/1CS2-*%
X65900000Y-67712500D03*
%TD*%
D20*
%TO.P,D4,1,K*%
%TO.N,Net-(D4-K)*%
X99100000Y-57935000D03*
%TO.P,D4,2,A*%
%TO.N,+BATT*%
X99100000Y-54465000D03*
%TD*%
D33*
%TO.P,C36,1*%
%TO.N,/2CS1-*%
X103137500Y-67500000D03*
%TO.P,C36,2*%
%TO.N,/2CS1+*%
X104862500Y-67500000D03*
%TD*%
D16*
%TO.P,C2,1*%
%TO.N,GNDPWR*%
X52480000Y-35597500D03*
%TO.P,C2,2*%
%TO.N,+3V3*%
X52480000Y-32472500D03*
%TD*%
D27*
%TO.P,D9,1,K*%
%TO.N,/inverter/1HO2*%
X39460000Y-63320000D03*
%TO.P,D9,2,A*%
%TO.N,Net-(D9-A)*%
X42760000Y-63320000D03*
%TD*%
D35*
%TO.P,R12,1*%
%TO.N,GNDPWR*%
X103212500Y-55821476D03*
%TO.P,R12,2*%
%TO.N,Net-(Q12-S-Pad1)*%
X106312500Y-55821476D03*
%TD*%
D15*
%TO.P,R49,1*%
%TO.N,Net-(U4-VDD)*%
X94590000Y-35412500D03*
%TO.P,R49,2*%
%TO.N,/MPU_INT*%
X94590000Y-33587500D03*
%TD*%
D28*
%TO.P,C13,1*%
%TO.N,Net-(U4-VDD)*%
X96200000Y-38012500D03*
%TO.P,C13,2*%
%TO.N,GNDD*%
X96200000Y-36287500D03*
%TD*%
D26*
%TO.P,C39,1*%
%TO.N,GNDD*%
X71825000Y-56567500D03*
%TO.P,C39,2*%
%TO.N,/INA1+*%
X71825000Y-58292500D03*
%TD*%
D15*
%TO.P,R42,1*%
%TO.N,Net-(U6B--)*%
X78500000Y-65012500D03*
%TO.P,R42,2*%
%TO.N,/2CS2+*%
X78500000Y-63187500D03*
%TD*%
D50*
%TO.P,D1,1,K*%
%TO.N,GNDPWR*%
X43947414Y-33797500D03*
%TO.P,D1,2,A*%
%TO.N,Net-(D1-A)*%
X42197414Y-33797500D03*
%TD*%
D26*
%TO.P,C32,1*%
%TO.N,Net-(U2-VCC)*%
X60200000Y-62675000D03*
%TO.P,C32,2*%
%TO.N,GNDPWR*%
X60200000Y-64400000D03*
%TD*%
D15*
%TO.P,R34,1*%
%TO.N,Net-(U6A--)*%
X89000000Y-63512500D03*
%TO.P,R34,2*%
%TO.N,Net-(R34-Pad2)*%
X89000000Y-61687500D03*
%TD*%
D20*
%TO.P,D11,1,K*%
%TO.N,Net-(D11-K)*%
X55700000Y-65565000D03*
%TO.P,D11,2,A*%
%TO.N,+BATT*%
X55700000Y-69035000D03*
%TD*%
D18*
%TO.P,J3,1,Pin_1*%
%TO.N,GNDD*%
X117280000Y-40450000D03*
%TO.P,J3,2,Pin_2*%
%TO.N,+3V3*%
X117280000Y-41450000D03*
%TO.P,J3,3,Pin_3*%
%TO.N,/SPI1_SCK*%
X117280000Y-42450000D03*
%TO.P,J3,4,Pin_4*%
%TO.N,/SPI1_MISO*%
X117280000Y-43450000D03*
%TO.P,J3,5,Pin_5*%
%TO.N,/SPI1_MOSI*%
X117280000Y-44450000D03*
%TO.P,J3,6,Pin_6*%
%TO.N,/NSS2*%
X117280000Y-45450000D03*
D19*
%TO.P,J3,7*%
%TO.N,N/C*%
X120680000Y-46550000D03*
%TO.P,J3,8*%
X120680000Y-39350000D03*
%TD*%
D25*
%TO.P,C17,1*%
%TO.N,+3V3*%
X72180000Y-40480000D03*
%TO.P,C17,2*%
%TO.N,GNDD*%
X70455000Y-40480000D03*
%TD*%
D29*
%TO.P,D18,1,K*%
%TO.N,/inverter/2HO2*%
X115117500Y-58400000D03*
%TO.P,D18,2,A*%
%TO.N,Net-(D18-A)*%
X111817500Y-58400000D03*
%TD*%
D27*
%TO.P,D23,1,K*%
%TO.N,/inverter/1HO1*%
X39502500Y-55940000D03*
%TO.P,D23,2,A*%
%TO.N,Net-(D23-A)*%
X42802500Y-55940000D03*
%TD*%
D28*
%TO.P,C43,1*%
%TO.N,GNDD*%
X67225000Y-54792500D03*
%TO.P,C43,2*%
%TO.N,/VREF_OP2*%
X67225000Y-53067500D03*
%TD*%
D17*
%TO.P,R16,1*%
%TO.N,/inverter/2LO2*%
X109692500Y-60411476D03*
%TO.P,R16,2*%
%TO.N,Net-(D19-A)*%
X107867500Y-60411476D03*
%TD*%
D27*
%TO.P,D24,1,K*%
%TO.N,/inverter/1LO1*%
X44350000Y-55950000D03*
%TO.P,D24,2,A*%
%TO.N,Net-(D24-A)*%
X47650000Y-55950000D03*
%TD*%
D17*
%TO.P,R52,1*%
%TO.N,Net-(R51-Pad2)*%
X65950000Y-61000000D03*
%TO.P,R52,2*%
%TO.N,/ADC2_IN15*%
X64125000Y-61000000D03*
%TD*%
D16*
%TO.P,C3,1*%
%TO.N,GNDPWR*%
X50020000Y-35597500D03*
%TO.P,C3,2*%
%TO.N,+3V3*%
X50020000Y-32472500D03*
%TD*%
D23*
%TO.P,Q10,1,S*%
%TO.N,GNDPWR*%
X107600000Y-63841476D03*
%TO.P,Q10,2,S*%
X107600000Y-63191476D03*
%TO.P,Q10,3,S*%
X107600000Y-62541476D03*
%TO.P,Q10,4,G*%
%TO.N,Net-(D19-A)*%
X107600000Y-61891476D03*
%TO.P,Q10,5,D*%
%TO.N,/inverter/2VS2*%
X110570000Y-61891476D03*
%TO.P,Q10,6,D*%
X110570000Y-62541476D03*
%TO.P,Q10,7,D*%
X110570000Y-63191476D03*
%TO.P,Q10,8,D*%
X110570000Y-63841476D03*
D24*
X109370000Y-62866476D03*
%TD*%
D17*
%TO.P,R25,1*%
%TO.N,GNDPWR*%
X53592500Y-53010000D03*
%TO.P,R25,2*%
%TO.N,/1CS2-*%
X51767500Y-53010000D03*
%TD*%
D18*
%TO.P,CN1,1,1*%
%TO.N,/inverter/1VS3*%
X37285000Y-59100000D03*
%TO.P,CN1,2,2*%
%TO.N,/inverter/1VS2*%
X37285000Y-58100000D03*
%TO.P,CN1,3,3*%
%TO.N,/inverter/1VS1*%
X37285000Y-57100000D03*
D19*
%TO.P,CN1,4,4*%
%TO.N,unconnected-(CN1-Pad4)*%
X33885000Y-56000000D03*
%TO.P,CN1,5,5*%
%TO.N,unconnected-(CN1-Pad5)*%
X33885000Y-60200000D03*
%TD*%
D15*
%TO.P,R73,1*%
%TO.N,Net-(U4-VDD)*%
X92400000Y-44500000D03*
%TO.P,R73,2*%
%TO.N,/I2C1_SCL*%
X92400000Y-42675000D03*
%TD*%
D29*
%TO.P,D21,1,K*%
%TO.N,/inverter/2LO3*%
X110740000Y-51081476D03*
%TO.P,D21,2,A*%
%TO.N,Net-(D21-A)*%
X107440000Y-51081476D03*
%TD*%
D21*
%TO.P,R27,1*%
%TO.N,GNDPWR*%
X101387500Y-69000000D03*
%TO.P,R27,2*%
%TO.N,/2CS1-*%
X103212500Y-69000000D03*
%TD*%
D25*
%TO.P,C28,1*%
%TO.N,/1CS1-*%
X51882500Y-69720000D03*
%TO.P,C28,2*%
%TO.N,/1CS1+*%
X50157500Y-69720000D03*
%TD*%
D27*
%TO.P,D5,1,K*%
%TO.N,/inverter/1HO3*%
X40152500Y-70900000D03*
%TO.P,D5,2,A*%
%TO.N,Net-(D5-A)*%
X43452500Y-70900000D03*
%TD*%
D28*
%TO.P,C25,1*%
%TO.N,Net-(D3-K)*%
X104900000Y-61962500D03*
%TO.P,C25,2*%
%TO.N,/inverter/2VS2*%
X104900000Y-60237500D03*
%TD*%
%TO.P,C7,1*%
%TO.N,GNDPWR*%
X52940000Y-42057500D03*
%TO.P,C7,2*%
%TO.N,+BATT*%
X52940000Y-40332500D03*
%TD*%
D17*
%TO.P,R35,1*%
%TO.N,Net-(R34-Pad2)*%
X90050000Y-60200000D03*
%TO.P,R35,2*%
%TO.N,/ADC2_IN12*%
X88225000Y-60200000D03*
%TD*%
D33*
%TO.P,C37,1*%
%TO.N,/2CS2-*%
X103230000Y-52341476D03*
%TO.P,C37,2*%
%TO.N,/2CS2+*%
X104955000Y-52341476D03*
%TD*%
D15*
%TO.P,R43,1*%
%TO.N,Net-(U7B--)*%
X64300000Y-64412500D03*
%TO.P,R43,2*%
%TO.N,/1CS2+*%
X64300000Y-62587500D03*
%TD*%
D30*
%TO.P,R40,1*%
%TO.N,/INA2+*%
X70225000Y-56505000D03*
%TO.P,R40,2*%
%TO.N,/INA1+*%
X70225000Y-58330000D03*
%TD*%
D17*
%TO.P,R28,1*%
%TO.N,Net-(Q12-S-Pad1)*%
X106675000Y-53851476D03*
%TO.P,R28,2*%
%TO.N,/2CS2+*%
X104850000Y-53851476D03*
%TD*%
%TO.P,R15,1*%
%TO.N,/inverter/2HO2*%
X113792500Y-60400000D03*
%TO.P,R15,2*%
%TO.N,Net-(D18-A)*%
X111967500Y-60400000D03*
%TD*%
D28*
%TO.P,C40,1*%
%TO.N,GNDD*%
X68700000Y-51492500D03*
%TO.P,C40,2*%
%TO.N,/OP_VCC*%
X68700000Y-49767500D03*
%TD*%
D15*
%TO.P,R72,1*%
%TO.N,Net-(U4-VDD)*%
X90900000Y-44500000D03*
%TO.P,R72,2*%
%TO.N,/I2C1_SDA*%
X90900000Y-42675000D03*
%TD*%
%TO.P,R36,1*%
%TO.N,Net-(U7A--)*%
X74900000Y-63612500D03*
%TO.P,R36,2*%
%TO.N,Net-(R36-Pad2)*%
X74900000Y-61787500D03*
%TD*%
D23*
%TO.P,Q2,1,S*%
%TO.N,/inverter/1VS2*%
X42870000Y-57855000D03*
%TO.P,Q2,2,S*%
X42870000Y-58505000D03*
%TO.P,Q2,3,S*%
X42870000Y-59155000D03*
%TO.P,Q2,4,G*%
%TO.N,Net-(D9-A)*%
X42870000Y-59805000D03*
%TO.P,Q2,5,D*%
%TO.N,+BATT*%
X39900000Y-59805000D03*
%TO.P,Q2,6,D*%
X39900000Y-59155000D03*
%TO.P,Q2,7,D*%
X39900000Y-58505000D03*
%TO.P,Q2,8,D*%
X39900000Y-57855000D03*
D24*
X41100000Y-58830000D03*
%TD*%
D27*
%TO.P,D6,1,K*%
%TO.N,/inverter/1LO3*%
X44952500Y-70900000D03*
%TO.P,D6,2,A*%
%TO.N,Net-(D6-A)*%
X48252500Y-70900000D03*
%TD*%
D26*
%TO.P,FB1,1*%
%TO.N,+3V3*%
X90100000Y-33637500D03*
%TO.P,FB1,2*%
%TO.N,Net-(U4-VDD)*%
X90100000Y-35362500D03*
%TD*%
D17*
%TO.P,R13,1*%
%TO.N,/inverter/2HO1*%
X114004000Y-67971476D03*
%TO.P,R13,2*%
%TO.N,Net-(D16-A)*%
X112179000Y-67971476D03*
%TD*%
D42*
%TO.P,C6,1*%
%TO.N,GNDPWR*%
X49000000Y-42252500D03*
%TO.P,C6,2*%
%TO.N,+BATT*%
X49000000Y-40177500D03*
%TD*%
D26*
%TO.P,C31,1*%
%TO.N,Net-(D11-K)*%
X50000000Y-61775000D03*
%TO.P,C31,2*%
%TO.N,/inverter/1VS3*%
X50000000Y-63500000D03*
%TD*%
D28*
%TO.P,FB3,1*%
%TO.N,/OP_VCC*%
X83700000Y-55597500D03*
%TO.P,FB3,2*%
%TO.N,+3V3*%
X83700000Y-53872500D03*
%TD*%
D48*
%TO.P,U2,1,HIN1*%
%TO.N,/TIM8_CH3*%
X58071000Y-58003500D03*
%TO.P,U2,2,HIN2*%
%TO.N,/TIM8_CH2*%
X58071000Y-58653500D03*
%TO.P,U2,3,HIN3*%
%TO.N,/TIM8_CH1*%
X58071000Y-59303500D03*
%TO.P,U2,4,LIN1#*%
%TO.N,/TIM8_CH3*%
X58071000Y-59953500D03*
%TO.P,U2,5,LIN2#*%
%TO.N,/TIM8_CH2*%
X58071000Y-60603500D03*
%TO.P,U2,6,LIN3#*%
%TO.N,/TIM8_CH1*%
X58071000Y-61253500D03*
%TO.P,U2,7,VCC*%
%TO.N,Net-(U2-VCC)*%
X58071000Y-61903500D03*
%TO.P,U2,8,GND*%
%TO.N,GNDPWR*%
X58071000Y-62553500D03*
%TO.P,U2,9,LO3*%
%TO.N,/inverter/1LO3*%
X58071000Y-63203500D03*
%TO.P,U2,10,LO2*%
%TO.N,/inverter/1LO2*%
X58071000Y-63853500D03*
%TO.P,U2,11,LO1*%
%TO.N,/inverter/1LO1*%
X52329000Y-63853500D03*
%TO.P,U2,12,VS3*%
%TO.N,/inverter/1VS3*%
X52329000Y-63203500D03*
%TO.P,U2,13,HO3*%
%TO.N,/inverter/1HO3*%
X52329000Y-62553500D03*
%TO.P,U2,14,VB3*%
%TO.N,Net-(D11-K)*%
X52329000Y-61903500D03*
%TO.P,U2,15,VS2*%
%TO.N,/inverter/1VS2*%
X52329000Y-61253500D03*
%TO.P,U2,16,HO2*%
%TO.N,/inverter/1HO2*%
X52329000Y-60603500D03*
%TO.P,U2,17,VB2*%
%TO.N,Net-(D10-K)*%
X52329000Y-59953500D03*
%TO.P,U2,18,VS1*%
%TO.N,/inverter/1VS1*%
X52329000Y-59303500D03*
%TO.P,U2,19,HO1*%
%TO.N,/inverter/1HO1*%
X52329000Y-58653500D03*
%TO.P,U2,20,VB1*%
%TO.N,Net-(D7-K)*%
X52329000Y-58003500D03*
%TD*%
D12*
%TO.P,TP2,1,1*%
%TO.N,/inverter/1VS2*%
X35266500Y-58133500D03*
%TD*%
D51*
%TO.N,GNDPWR*%
X35200000Y-61600000D03*
X35400000Y-52900000D03*
X35400000Y-49800000D03*
%TO.N,/inverter/2VS2*%
X118520000Y-60690000D03*
%TO.N,/inverter/1VS3*%
X37386500Y-59843500D03*
%TO.N,/inverter/1VS1*%
X37366500Y-56315339D03*
D52*
%TO.N,/OP_VCC*%
X72100000Y-51090000D03*
%TO.N,/inverter/2LO2*%
X109692500Y-60540000D03*
%TO.N,/inverter/2HO2*%
X114346250Y-59846250D03*
%TO.N,/inverter/1VS1*%
X46100000Y-51700000D03*
X44900000Y-51800000D03*
X45500000Y-51300000D03*
X46000000Y-50900000D03*
X45100000Y-50900000D03*
X47629789Y-53635326D03*
%TO.N,/MPU_INT*%
X80500000Y-40462500D03*
D53*
%TO.N,+3V3*%
X82900000Y-43800000D03*
D52*
%TO.N,/inverter/1VS2*%
X45250000Y-58890000D03*
D54*
%TO.N,GNDD*%
X67830760Y-51130760D03*
X73300000Y-49625000D03*
X79625000Y-51066423D03*
X77891293Y-51210000D03*
D52*
%TO.N,/I2C1_SCL*%
X92000000Y-43025000D03*
%TO.N,Net-(U4-VDD)*%
X92975000Y-44175000D03*
X96200000Y-38791116D03*
X94774170Y-36705420D03*
%TO.N,/MPU_INT*%
X94138750Y-34038750D03*
D51*
%TO.N,GNDPWR*%
X65400000Y-42400000D03*
D54*
%TO.N,+3V3*%
X75700000Y-48700000D03*
D52*
%TO.N,/SPI3_SCK*%
X37140000Y-41780000D03*
%TO.N,/SPI3_MISO*%
X38100000Y-42780000D03*
D53*
%TO.N,GNDD*%
X75300000Y-43800000D03*
D52*
%TO.N,/I2C1_SDA*%
X89900000Y-42700000D03*
%TO.N,/NSS1*%
X72859950Y-44545347D03*
%TO.N,/SPI3_MOSI*%
X72932753Y-43849141D03*
%TO.N,/I2C1_SDA*%
X71948589Y-42725000D03*
%TO.N,/I2C1_SCL*%
X72876718Y-46800000D03*
%TO.N,/SPI3_SCK*%
X72534906Y-46077181D03*
%TO.N,/SPI3_MISO*%
X72433623Y-45365291D03*
%TO.N,/NSS1*%
X67600000Y-44560479D03*
%TO.N,/SPI3_MOSI*%
X68100000Y-43849141D03*
%TO.N,/ADC1_IN11*%
X80025000Y-48235000D03*
%TO.N,/ADC1_IN5*%
X79073584Y-48235000D03*
%TO.N,/ADC2_IN15*%
X78238509Y-48235000D03*
%TO.N,/inverter/1HO2*%
X41400000Y-61500000D03*
%TO.N,/inverter/1HO1*%
X40000000Y-55940000D03*
%TO.N,/1CS2+*%
X50700000Y-54100000D03*
%TO.N,/1CS2-*%
X52400000Y-54675000D03*
%TO.N,/inverter/1LO3*%
X45600000Y-70900000D03*
D53*
%TO.N,+3V3*%
X85500000Y-37700000D03*
D52*
%TO.N,/VREF_OP2*%
X71297500Y-54150000D03*
%TO.N,/OP_VCC*%
X78732500Y-55267500D03*
D55*
%TO.N,/VREF_OP1*%
X77261250Y-52761250D03*
D54*
%TO.N,+3V3*%
X83773606Y-53436126D03*
D52*
%TO.N,/inverter/2LO1*%
X110000000Y-66071476D03*
%TO.N,/inverter/2VS1*%
X104892500Y-63807976D03*
%TO.N,/inverter/2HO2*%
X103739111Y-62652167D03*
%TO.N,/inverter/2VS2*%
X106369904Y-60869904D03*
%TO.N,/inverter/2LO1*%
X103504408Y-59581218D03*
%TO.N,/inverter/2LO2*%
X97353500Y-59546500D03*
%TO.N,/TIM1_CH2*%
X97000000Y-62814500D03*
X97000000Y-64728500D03*
%TO.N,/inverter/2LO3*%
X109500000Y-52991476D03*
X96778500Y-60178500D03*
%TO.N,GNDD*%
X92350000Y-36127043D03*
D55*
X93624999Y-36458993D03*
X95800000Y-40075000D03*
X89700000Y-39900000D03*
D52*
%TO.N,/USART2_RX*%
X90800000Y-41275000D03*
%TO.N,/USART2_TX*%
X78913832Y-39767539D03*
%TO.N,/SWDIO*%
X74256250Y-47456250D03*
%TO.N,/SWCLK*%
X73800000Y-46900000D03*
%TO.N,/USART3_RX*%
X80600000Y-46935000D03*
%TO.N,/USART3_TX*%
X81600000Y-45725000D03*
%TO.N,/ADC2_IN12*%
X81376514Y-44075000D03*
X86700000Y-59600000D03*
%TO.N,/ADC1_IN5*%
X74700000Y-60200000D03*
%TO.N,/ADC1_IN11*%
X78800000Y-59600000D03*
%TO.N,/2CS2+*%
X89500000Y-55600000D03*
%TO.N,/2CS2-*%
X90900000Y-57000000D03*
X83375000Y-66100000D03*
%TO.N,/2CS2+*%
X79000000Y-63187500D03*
%TO.N,/VREF_OP2*%
X78900000Y-66000000D03*
%TO.N,/VREF_OP1*%
X76700000Y-64700000D03*
%TO.N,/ADC2_IN15*%
X64137500Y-59100000D03*
%TO.N,/inverter/1LO3*%
X58400000Y-63200000D03*
%TO.N,/TIM8_CH2*%
X58071000Y-60603500D03*
X58071000Y-58671500D03*
%TO.N,/inverter/1LO2*%
X57900000Y-64141421D03*
X45288750Y-61811250D03*
%TO.N,/1CS2-*%
X59674785Y-59274785D03*
%TO.N,/1CS2+*%
X60370404Y-58408956D03*
%TO.N,/inverter/1HO3*%
X41500000Y-68900000D03*
X50729535Y-62629498D03*
%TO.N,/inverter/1HO2*%
X51438709Y-60600000D03*
%TO.N,/inverter/1HO1*%
X51717172Y-58635499D03*
%TO.N,/inverter/1VS2*%
X45250000Y-58890000D03*
D51*
%TO.N,/inverter/1VS3*%
X45100000Y-66700000D03*
%TO.N,/inverter/2VS1*%
X109700000Y-70500000D03*
%TO.N,/inverter/2VS3*%
X109700000Y-55200000D03*
%TO.N,/inverter/2VS2*%
X109900000Y-62700000D03*
%TO.N,/inverter/2VS1*%
X116990000Y-62400000D03*
%TO.N,/inverter/2VS3*%
X117040000Y-58950000D03*
D55*
%TO.N,+3V3*%
X83950000Y-54560000D03*
D53*
X82637500Y-47300000D03*
%TO.N,GNDD*%
X75500000Y-45400000D03*
X78600000Y-44100000D03*
X77000000Y-44000000D03*
X38100000Y-38700000D03*
X85500000Y-65600000D03*
X84900000Y-58700000D03*
X78839492Y-58439492D03*
X71100000Y-65400000D03*
X70900000Y-61300000D03*
X66100000Y-58700000D03*
X67000000Y-56200000D03*
X67900000Y-57900000D03*
X71286771Y-57152979D03*
X75675000Y-55600000D03*
X82286019Y-52550000D03*
X85500000Y-45525000D03*
X85400000Y-44700000D03*
X117300000Y-39700000D03*
X95200000Y-44400000D03*
X97400000Y-36300000D03*
X92400000Y-33600000D03*
X66100000Y-31800000D03*
X78500000Y-35900000D03*
X74495573Y-39375000D03*
X69300000Y-40400000D03*
X69000000Y-38600000D03*
D52*
%TO.N,/inverter/1VS2*%
X49900000Y-60625000D03*
D51*
%TO.N,GNDPWR*%
X47300000Y-42100000D03*
X48275000Y-58600000D03*
X48275000Y-59750000D03*
X61600000Y-63900000D03*
X93700000Y-58800000D03*
X104600000Y-56125000D03*
X104294863Y-55083967D03*
X106604074Y-63195926D03*
X106450093Y-62103727D03*
X101800000Y-71100000D03*
X104400000Y-70600000D03*
X120351847Y-64221760D03*
X121299999Y-64203502D03*
X120258274Y-57203498D03*
X121400000Y-57203498D03*
X120937500Y-54300000D03*
X120100000Y-51100000D03*
X121635841Y-51200000D03*
X61900000Y-31921000D03*
X58819443Y-31466005D03*
X45500000Y-35500000D03*
X47800000Y-37100000D03*
X50200000Y-37100000D03*
X52300000Y-36900000D03*
X33500000Y-66700000D03*
X34900000Y-64100000D03*
X50600000Y-66700000D03*
X50600000Y-65700000D03*
X50800000Y-51700000D03*
X50800000Y-50700000D03*
D52*
%TO.N,+BATT*%
X41000000Y-50700000D03*
X41600000Y-50700000D03*
X41600000Y-51900000D03*
X41000000Y-51900000D03*
X41600000Y-51300000D03*
X41000000Y-51300000D03*
X40800000Y-58900000D03*
X41400000Y-58900000D03*
X40800000Y-59500000D03*
X41400000Y-59500000D03*
X40800000Y-58300000D03*
X41400000Y-58300000D03*
X41300000Y-66300000D03*
X40700000Y-65700000D03*
X41300000Y-65700000D03*
X40700000Y-66900000D03*
X41300000Y-66900000D03*
X40700000Y-66300000D03*
X114000000Y-55500000D03*
X114000000Y-56100000D03*
X113400000Y-55500000D03*
X113400000Y-56100000D03*
X113400000Y-54900000D03*
X114000000Y-54900000D03*
X113800000Y-62200000D03*
X113200000Y-63400000D03*
X113800000Y-63400000D03*
X113200000Y-62200000D03*
X113200000Y-62800000D03*
X113800000Y-62800000D03*
X113400000Y-70300000D03*
X113400000Y-70900000D03*
X114000000Y-70900000D03*
X114000000Y-70300000D03*
X113400000Y-69700000D03*
X114000000Y-69700000D03*
D51*
X97300000Y-53500000D03*
X99700000Y-53600000D03*
X99700000Y-70500000D03*
X117237500Y-66400000D03*
X117537500Y-64400000D03*
X118200000Y-57200000D03*
X117962500Y-54700000D03*
X118100000Y-51200000D03*
X55900000Y-52000000D03*
X56137438Y-68137437D03*
X58300000Y-67900000D03*
X48800000Y-39400000D03*
X51100000Y-39500000D03*
X52900000Y-39500000D03*
D52*
%TO.N,/inverter/1VS3*%
X49800000Y-63500000D03*
%TD*%
D56*
%TO.N,/inverter/1VS2*%
X38105000Y-58100000D02*
X39115000Y-57090000D01*
X37285000Y-58100000D02*
X38105000Y-58100000D01*
X39115000Y-57090000D02*
X43450000Y-57090000D01*
X43450000Y-57090000D02*
X45250000Y-58890000D01*
%TO.N,GNDPWR*%
X34037500Y-62762500D02*
X35200000Y-61600000D01*
X34037500Y-62800000D02*
X34037500Y-62762500D01*
D57*
X34200000Y-66000000D02*
X33500000Y-66700000D01*
D56*
X34237500Y-64762500D02*
X34900000Y-64100000D01*
D57*
X34200000Y-64881250D02*
X34200000Y-66000000D01*
D56*
X34237500Y-65962500D02*
X34237500Y-64762500D01*
X33500000Y-66700000D02*
X34237500Y-65962500D01*
X34900000Y-63662500D02*
X34037500Y-62800000D01*
X34900000Y-64100000D02*
X34900000Y-63662500D01*
%TO.N,+BATT*%
X40983500Y-66375000D02*
X38137500Y-66375000D01*
X38137500Y-66375000D02*
X37162500Y-65400000D01*
X37162500Y-62767500D02*
X41100000Y-58830000D01*
X37162500Y-62800000D02*
X37162500Y-62767500D01*
%TO.N,GNDPWR*%
X35337500Y-52837500D02*
X35400000Y-52900000D01*
X35337500Y-51500000D02*
X35337500Y-52837500D01*
X35337500Y-49862500D02*
X35400000Y-49800000D01*
X35337500Y-51500000D02*
X35337500Y-49862500D01*
%TO.N,+BATT*%
X41420000Y-51400714D02*
X38761786Y-51400714D01*
%TO.N,/inverter/1VS2*%
X38351500Y-58133500D02*
X35266500Y-58133500D01*
X43450000Y-57090000D02*
X39395000Y-57090000D01*
X39395000Y-57090000D02*
X38351500Y-58133500D01*
%TO.N,/inverter/2VS1*%
X116990000Y-62400000D02*
X117171500Y-62218500D01*
X117171500Y-62218500D02*
X117171500Y-61703500D01*
%TO.N,/inverter/2VS3*%
X117040000Y-59572000D02*
X117171500Y-59703500D01*
X117040000Y-58950000D02*
X117040000Y-59572000D01*
%TO.N,/inverter/2VS2*%
X117185000Y-60690000D02*
X117171500Y-60703500D01*
X118520000Y-60690000D02*
X117185000Y-60690000D01*
%TO.N,/inverter/1VS2*%
X35300000Y-58100000D02*
X35266500Y-58133500D01*
X37285000Y-58100000D02*
X35300000Y-58100000D01*
X35066500Y-58133500D02*
X35076500Y-58143500D01*
D58*
%TO.N,/inverter/1HO1*%
X39502500Y-55940000D02*
X40000000Y-55940000D01*
D59*
%TO.N,Net-(U1-VCC)*%
X95496500Y-61496500D02*
X94800000Y-60800000D01*
X96929000Y-61496500D02*
X95496500Y-61496500D01*
%TO.N,/2CS2-*%
X83375000Y-66100000D02*
X83412500Y-66137500D01*
X83412500Y-66137500D02*
X83412500Y-67200000D01*
D58*
%TO.N,/OP_VCC*%
X70725000Y-51090000D02*
X72100000Y-51090000D01*
%TO.N,/inverter/2LO2*%
X109692500Y-60540000D02*
X109692500Y-60411476D01*
%TO.N,/inverter/2HO2*%
X114346250Y-59846250D02*
X113792500Y-60400000D01*
D59*
%TO.N,/MPU_INT*%
X79950000Y-40462500D02*
X80500000Y-40462500D01*
D60*
%TO.N,+3V3*%
X82637500Y-45200000D02*
X82637500Y-44062500D01*
X82637500Y-45200000D02*
X82637500Y-44700000D01*
X82637500Y-46300000D02*
X82637500Y-45200000D01*
X82637500Y-44062500D02*
X82900000Y-43800000D01*
D59*
%TO.N,GNDD*%
X90300000Y-40500000D02*
X89700000Y-39900000D01*
X90800000Y-40500000D02*
X90300000Y-40500000D01*
%TO.N,/USART2_RX*%
X79725260Y-39700000D02*
X79450000Y-39975260D01*
X88400000Y-39700000D02*
X79725260Y-39700000D01*
X89975000Y-41275000D02*
X88400000Y-39700000D01*
X79450000Y-39975260D02*
X79450000Y-40462500D01*
X90800000Y-41275000D02*
X89975000Y-41275000D01*
D56*
%TO.N,GNDPWR*%
X48275000Y-58600000D02*
X48189594Y-58514594D01*
X48189594Y-58514594D02*
X47020000Y-58514594D01*
X47039594Y-58514594D02*
X47020000Y-58514594D01*
X48275000Y-59750000D02*
X47039594Y-58514594D01*
D59*
%TO.N,/inverter/1LO1*%
X45275000Y-56875000D02*
X44350000Y-55950000D01*
X49200000Y-64039576D02*
X49200000Y-57700000D01*
X49522924Y-64362500D02*
X49200000Y-64039576D01*
X49200000Y-57700000D02*
X48375000Y-56875000D01*
X48375000Y-56875000D02*
X45275000Y-56875000D01*
X52329000Y-63853500D02*
X51820000Y-64362500D01*
X51820000Y-64362500D02*
X49522924Y-64362500D01*
%TO.N,/inverter/1VS2*%
X49900000Y-60200000D02*
X50000000Y-60100000D01*
X49900000Y-60625000D02*
X49900000Y-60200000D01*
D58*
%TO.N,/inverter/1HO2*%
X41200000Y-61300000D02*
X41400000Y-61500000D01*
X40807500Y-61300000D02*
X41200000Y-61300000D01*
D59*
X41007500Y-61500000D02*
X41400000Y-61500000D01*
D58*
%TO.N,/inverter/1LO2*%
X44767500Y-61290000D02*
X45288750Y-61811250D01*
D60*
%TO.N,GNDD*%
X68192500Y-51492500D02*
X67830760Y-51130760D01*
X68700000Y-51492500D02*
X68192500Y-51492500D01*
X73137500Y-49462500D02*
X73300000Y-49625000D01*
X73137500Y-48900000D02*
X73137500Y-49462500D01*
X79225000Y-50666423D02*
X79625000Y-51066423D01*
X79225000Y-50572500D02*
X79225000Y-50666423D01*
X77725000Y-51043707D02*
X77891293Y-51210000D01*
X77725000Y-50572500D02*
X77725000Y-51043707D01*
D59*
%TO.N,Net-(U4-VDD)*%
X92400000Y-44500000D02*
X92650000Y-44500000D01*
X92650000Y-44500000D02*
X92975000Y-44175000D01*
%TO.N,/I2C1_SCL*%
X92350000Y-42675000D02*
X92000000Y-43025000D01*
X92400000Y-42675000D02*
X92350000Y-42675000D01*
%TO.N,Net-(U4-VDD)*%
X96200000Y-38012500D02*
X96200000Y-38791116D01*
X94774170Y-36200000D02*
X94774170Y-35697094D01*
X94774170Y-36705420D02*
X94774170Y-36200000D01*
%TO.N,/MPU_INT*%
X94590000Y-33587500D02*
X94138750Y-34038750D01*
%TO.N,/TIM1_CH3*%
X81002076Y-49710000D02*
X94738576Y-63446500D01*
X77110000Y-49710000D02*
X81002076Y-49710000D01*
X94738576Y-63446500D02*
X96929000Y-63446500D01*
X76450000Y-49050000D02*
X77110000Y-49710000D01*
X76450000Y-47337500D02*
X76450000Y-49050000D01*
%TO.N,/TIM1_CH2*%
X76950000Y-48850000D02*
X76950000Y-47337500D01*
X77360000Y-49260000D02*
X76950000Y-48850000D01*
X81188472Y-49260000D02*
X77360000Y-49260000D01*
X94724972Y-62796500D02*
X81188472Y-49260000D01*
X96929000Y-62796500D02*
X94724972Y-62796500D01*
%TO.N,/TIM1_CH1*%
X77710000Y-48810000D02*
X77450000Y-48550000D01*
X77450000Y-48550000D02*
X77450000Y-47600000D01*
X81374868Y-48810000D02*
X77710000Y-48810000D01*
X94711368Y-62146500D02*
X81374868Y-48810000D01*
X96929000Y-62146500D02*
X94711368Y-62146500D01*
%TO.N,/2CS2-*%
X90900000Y-57000000D02*
X92874302Y-55025698D01*
%TO.N,/2CS2+*%
X104155000Y-51541476D02*
X104955000Y-52341476D01*
X89500000Y-55600000D02*
X93558524Y-51541476D01*
X93558524Y-51541476D02*
X104155000Y-51541476D01*
D56*
%TO.N,GNDPWR*%
X65225000Y-42225000D02*
X65400000Y-42400000D01*
X64180000Y-42225000D02*
X65225000Y-42225000D01*
D59*
%TO.N,/NSS1*%
X37140000Y-44780000D02*
X37359521Y-44560479D01*
X37359521Y-44560479D02*
X67600000Y-44560479D01*
D60*
%TO.N,+3V3*%
X75500000Y-48900000D02*
X75700000Y-48700000D01*
X74862500Y-48900000D02*
X75500000Y-48900000D01*
D59*
%TO.N,/I2C1_SDA*%
X89925000Y-42675000D02*
X89900000Y-42700000D01*
X90900000Y-42675000D02*
X89925000Y-42675000D01*
X72524569Y-42725000D02*
X72599569Y-42650000D01*
X71948589Y-42725000D02*
X72524569Y-42725000D01*
%TO.N,/NSS1*%
X72964603Y-44650000D02*
X72859950Y-44545347D01*
X73762500Y-44650000D02*
X72964603Y-44650000D01*
%TO.N,/SPI3_MISO*%
X72648914Y-45150000D02*
X73762500Y-45150000D01*
X72433623Y-45365291D02*
X72648914Y-45150000D01*
%TO.N,/SPI3_SCK*%
X72962087Y-45650000D02*
X73762500Y-45650000D01*
X72534906Y-46077181D02*
X72962087Y-45650000D01*
%TO.N,/I2C1_SCL*%
X72876718Y-46548542D02*
X73275260Y-46150000D01*
X73275260Y-46150000D02*
X73762500Y-46150000D01*
X72876718Y-46800000D02*
X72876718Y-46548542D01*
X72876718Y-46800000D02*
X72876718Y-46542058D01*
%TO.N,/SPI3_MOSI*%
X73105535Y-43650000D02*
X72932753Y-43822782D01*
X72932753Y-43822782D02*
X72932753Y-43849141D01*
X73762500Y-43650000D02*
X73105535Y-43650000D01*
%TO.N,/TIM8_CH1*%
X73712500Y-43200000D02*
X73762500Y-43150000D01*
X72500000Y-43200000D02*
X73712500Y-43200000D01*
X59800000Y-55900000D02*
X72500000Y-43200000D01*
X58832896Y-59303500D02*
X59800000Y-58336396D01*
X59800000Y-58336396D02*
X59800000Y-55900000D01*
X58071000Y-59303500D02*
X58832896Y-59303500D01*
%TO.N,/TIM8_CH2*%
X58846500Y-58653500D02*
X58071000Y-58653500D01*
X59267000Y-54469396D02*
X59267000Y-58233000D01*
X59267000Y-58233000D02*
X58846500Y-58653500D01*
X71586396Y-42150000D02*
X59267000Y-54469396D01*
X73762500Y-42150000D02*
X71586396Y-42150000D01*
%TO.N,/TIM8_CH3*%
X71450000Y-41650000D02*
X73762500Y-41650000D01*
X58071000Y-55029000D02*
X71450000Y-41650000D01*
X58071000Y-58003500D02*
X58071000Y-55029000D01*
%TO.N,/SPI3_MOSI*%
X68099141Y-43850000D02*
X37210000Y-43850000D01*
X68100000Y-43849141D02*
X68099141Y-43850000D01*
X37210000Y-43850000D02*
X37140000Y-43780000D01*
%TO.N,/ADC1_IN11*%
X79950000Y-47337500D02*
X79950000Y-48160000D01*
X79950000Y-48160000D02*
X80025000Y-48235000D01*
X80065000Y-48235000D02*
X80025000Y-48235000D01*
%TO.N,/ADC2_IN15*%
X78336754Y-48136755D02*
X78238509Y-48235000D01*
X78336755Y-48136755D02*
X78336754Y-48136755D01*
X78336755Y-48136755D02*
X78450000Y-48023509D01*
X78238509Y-48235000D02*
X78336755Y-48136755D01*
%TO.N,/1CS2+*%
X50290000Y-54510000D02*
X50700000Y-54100000D01*
X50097500Y-54510000D02*
X50290000Y-54510000D01*
%TO.N,/1CS2-*%
X52235000Y-54510000D02*
X52400000Y-54675000D01*
X51822500Y-54510000D02*
X52235000Y-54510000D01*
%TO.N,/inverter/1LO3*%
X44952500Y-70900000D02*
X45600000Y-70900000D01*
D61*
%TO.N,+3V3*%
X86050000Y-37150000D02*
X89162500Y-34037500D01*
X85500000Y-37700000D02*
X86050000Y-37150000D01*
D59*
%TO.N,/VREF_OP2*%
X71245000Y-54150000D02*
X70725000Y-53630000D01*
X71297500Y-54150000D02*
X71245000Y-54150000D01*
D58*
%TO.N,/OP_VCC*%
X79225000Y-55760000D02*
X78732500Y-55267500D01*
D59*
%TO.N,/VREF_OP1*%
X77725000Y-52297500D02*
X77261250Y-52761250D01*
X75737500Y-52297500D02*
X75675000Y-52360000D01*
X77725000Y-52297500D02*
X75737500Y-52297500D01*
X76882500Y-52297500D02*
X75675000Y-51090000D01*
X77725000Y-52297500D02*
X76882500Y-52297500D01*
%TO.N,/inverter/2LO1*%
X110559000Y-66071476D02*
X110000000Y-66071476D01*
%TO.N,/inverter/2VS1*%
X104288524Y-63807976D02*
X104892500Y-63807976D01*
X102671000Y-64096500D02*
X104000000Y-64096500D01*
X104000000Y-64096500D02*
X104288524Y-63807976D01*
D58*
%TO.N,/inverter/2HO2*%
X102671000Y-62796500D02*
X103594778Y-62796500D01*
D59*
%TO.N,/inverter/2VS2*%
X104900000Y-60237500D02*
X105737500Y-60237500D01*
X105737500Y-60237500D02*
X106369904Y-60869904D01*
%TO.N,/ADC1_IN5*%
X74700000Y-60200000D02*
X74225000Y-60200000D01*
%TO.N,/ADC1_IN11*%
X78200000Y-60200000D02*
X78800000Y-59600000D01*
X78175000Y-60200000D02*
X78200000Y-60200000D01*
D58*
%TO.N,/ADC2_IN12*%
X86700000Y-60200000D02*
X86700000Y-59600000D01*
D59*
%TO.N,/TIM1_CH2*%
X96929000Y-64746500D02*
X96982000Y-64746500D01*
%TO.N,/inverter/2LO3*%
X110052500Y-52991476D02*
X109500000Y-52991476D01*
X96796500Y-60196500D02*
X96778500Y-60178500D01*
X96929000Y-60196500D02*
X96796500Y-60196500D01*
%TO.N,GNDD*%
X92500000Y-37300000D02*
X92500000Y-36277043D01*
X92500000Y-36277043D02*
X92350000Y-36127043D01*
X93500000Y-36583992D02*
X93624999Y-36458993D01*
X93500000Y-37300000D02*
X93500000Y-36583992D01*
D58*
X94700000Y-40500000D02*
X95375000Y-40500000D01*
X95375000Y-40500000D02*
X95800000Y-40075000D01*
D59*
%TO.N,/USART2_TX*%
X78950000Y-39803707D02*
X78913832Y-39767539D01*
X78950000Y-40000000D02*
X78950000Y-39803707D01*
X78950000Y-40000000D02*
X78950000Y-39805215D01*
X78950000Y-40462500D02*
X78950000Y-40000000D01*
%TO.N,/SWDIO*%
X74450000Y-47337500D02*
X74375000Y-47337500D01*
X74375000Y-47337500D02*
X74256250Y-47456250D01*
%TO.N,/SWCLK*%
X73762500Y-46650000D02*
X73762500Y-46862500D01*
%TO.N,/USART3_RX*%
X80637500Y-46650000D02*
X80637500Y-46897500D01*
X80637500Y-46897500D02*
X80600000Y-46935000D01*
%TO.N,/USART3_TX*%
X81100000Y-45650000D02*
X81525000Y-45650000D01*
X81100000Y-45650000D02*
X80637500Y-45650000D01*
%TO.N,/ADC2_IN12*%
X81301514Y-44150000D02*
X81376514Y-44075000D01*
X80637500Y-44150000D02*
X81301514Y-44150000D01*
%TO.N,/2CS2+*%
X78500000Y-63187500D02*
X79000000Y-63187500D01*
%TO.N,/VREF_OP2*%
X78900000Y-67212500D02*
X78900000Y-66000000D01*
X80000000Y-68312500D02*
X78900000Y-67212500D01*
%TO.N,/ADC2_IN15*%
X64137500Y-59600000D02*
X64137500Y-59100000D01*
%TO.N,Net-(D10-K)*%
X53153500Y-59953500D02*
X52329000Y-59953500D01*
X53525000Y-60325000D02*
X53153500Y-59953500D01*
X53525000Y-60725000D02*
X53525000Y-60325000D01*
X58100000Y-65300000D02*
X53525000Y-60725000D01*
X58100000Y-65565000D02*
X58100000Y-65300000D01*
D58*
%TO.N,/inverter/1LO3*%
X58071000Y-63203500D02*
X58396500Y-63203500D01*
%TO.N,/inverter/1LO2*%
X58071000Y-63970421D02*
X57900000Y-64141421D01*
X58071000Y-63853500D02*
X58071000Y-63970421D01*
D59*
%TO.N,/1CS2-*%
X65900000Y-67712500D02*
X63500000Y-65312500D01*
X63500000Y-65312500D02*
X63500000Y-63100000D01*
X63500000Y-63100000D02*
X59674785Y-59274785D01*
%TO.N,/1CS2+*%
X60370404Y-58534980D02*
X60370404Y-58408956D01*
%TO.N,/inverter/1HO3*%
X41500000Y-68900000D02*
X40890000Y-68900000D01*
X50805533Y-62553500D02*
X50729535Y-62629498D01*
X52329000Y-62553500D02*
X50805533Y-62553500D01*
%TO.N,/inverter/1VS3*%
X51572994Y-63203500D02*
X52329000Y-63203500D01*
X51276494Y-63500000D02*
X51572994Y-63203500D01*
X50000000Y-63500000D02*
X51276494Y-63500000D01*
%TO.N,/inverter/1HO2*%
X51442209Y-60603500D02*
X51438709Y-60600000D01*
X52329000Y-60603500D02*
X51442209Y-60603500D01*
D56*
%TO.N,/inverter/1VS3*%
X37285000Y-59100000D02*
X37285000Y-59742000D01*
%TO.N,/inverter/1VS1*%
X37285000Y-57100000D02*
X37285000Y-56425000D01*
D58*
%TO.N,+3V3*%
X83700000Y-54310000D02*
X83950000Y-54560000D01*
X74862500Y-48900000D02*
X75265000Y-48900000D01*
D61*
%TO.N,GNDD*%
X77100000Y-43900000D02*
X77000000Y-44000000D01*
X77200000Y-43900000D02*
X77100000Y-43900000D01*
X37140000Y-39660000D02*
X38100000Y-38700000D01*
X37140000Y-39780000D02*
X37140000Y-39660000D01*
X85530000Y-65570000D02*
X85500000Y-65600000D01*
X86975000Y-65570000D02*
X85530000Y-65570000D01*
X84975000Y-58775000D02*
X84900000Y-58700000D01*
X84975000Y-60200000D02*
X84975000Y-58775000D01*
X83300000Y-60200000D02*
X84975000Y-60200000D01*
X79900000Y-59500000D02*
X78839492Y-58439492D01*
X79900000Y-60200000D02*
X79900000Y-59500000D01*
X71310000Y-65610000D02*
X71100000Y-65400000D01*
X72887500Y-65610000D02*
X71310000Y-65610000D01*
X70875000Y-61275000D02*
X70900000Y-61300000D01*
X70875000Y-60200000D02*
X70875000Y-61275000D01*
X69200000Y-60200000D02*
X70875000Y-60200000D01*
X65862500Y-58937500D02*
X66100000Y-58700000D01*
X65862500Y-59600000D02*
X65862500Y-58937500D01*
X67225000Y-55975000D02*
X67000000Y-56200000D01*
X67225000Y-54792500D02*
X67225000Y-55975000D01*
X67290000Y-54857500D02*
X67225000Y-54792500D01*
X68700000Y-54857500D02*
X67290000Y-54857500D01*
X68330000Y-58330000D02*
X67900000Y-57900000D01*
X68725000Y-58330000D02*
X68330000Y-58330000D01*
X71825000Y-56614750D02*
X71286771Y-57152979D01*
X71825000Y-56567500D02*
X71825000Y-56614750D01*
X75187500Y-56087500D02*
X75675000Y-55600000D01*
X75187500Y-56530000D02*
X75187500Y-56087500D01*
X75675000Y-54900000D02*
X75675000Y-55600000D01*
X76522500Y-55747500D02*
X75675000Y-54900000D01*
X77725000Y-55747500D02*
X76522500Y-55747500D01*
X79225000Y-50572500D02*
X77725000Y-50572500D01*
X82225000Y-52611019D02*
X82286019Y-52550000D01*
X82225000Y-53872500D02*
X82225000Y-52611019D01*
X81018519Y-53817500D02*
X82286019Y-52550000D01*
X80725000Y-53817500D02*
X81018519Y-53817500D01*
X84725000Y-46300000D02*
X85500000Y-45525000D01*
X84362500Y-46300000D02*
X84725000Y-46300000D01*
X85700000Y-44700000D02*
X85400000Y-44700000D01*
X84362500Y-44700000D02*
X85400000Y-44700000D01*
D60*
X117280000Y-40450000D02*
X117280000Y-39720000D01*
D61*
X95137500Y-44462500D02*
X95200000Y-44400000D01*
X93900000Y-44462500D02*
X95137500Y-44462500D01*
X97387500Y-36287500D02*
X97400000Y-36300000D01*
X96200000Y-36287500D02*
X97387500Y-36287500D01*
X92437500Y-33637500D02*
X92400000Y-33600000D01*
X93100000Y-33637500D02*
X92437500Y-33637500D01*
X92362500Y-33637500D02*
X92400000Y-33600000D01*
X91600000Y-33637500D02*
X92362500Y-33637500D01*
X65930000Y-31970000D02*
X66100000Y-31800000D01*
X64832500Y-31970000D02*
X65930000Y-31970000D01*
X77700000Y-36700000D02*
X78500000Y-35900000D01*
X77700000Y-37112500D02*
X77700000Y-36700000D01*
X79467500Y-37112500D02*
X79500000Y-37080000D01*
X77700000Y-37112500D02*
X79467500Y-37112500D01*
X75158073Y-38712500D02*
X74495573Y-39375000D01*
X75500000Y-38712500D02*
X75158073Y-38712500D01*
X75360000Y-38852500D02*
X75500000Y-38712500D01*
X73700000Y-38852500D02*
X75360000Y-38852500D01*
X69380000Y-40480000D02*
X69300000Y-40400000D01*
X70455000Y-40480000D02*
X69380000Y-40480000D01*
X69350000Y-38950000D02*
X69000000Y-38600000D01*
X70337500Y-38950000D02*
X69350000Y-38950000D01*
X70337500Y-40362500D02*
X70455000Y-40480000D01*
X70337500Y-38950000D02*
X70337500Y-40362500D01*
D56*
%TO.N,GNDPWR*%
X47452500Y-42252500D02*
X47300000Y-42100000D01*
X49000000Y-42252500D02*
X47452500Y-42252500D01*
X61100000Y-64400000D02*
X61600000Y-63900000D01*
X60200000Y-64400000D02*
X61100000Y-64400000D01*
X93975000Y-59075000D02*
X93700000Y-58800000D01*
X94800000Y-59075000D02*
X93975000Y-59075000D01*
X104296476Y-55821476D02*
X104600000Y-56125000D01*
X103212500Y-55821476D02*
X104296476Y-55821476D01*
X103557354Y-55821476D02*
X103212500Y-55821476D01*
X104294863Y-55083967D02*
X103557354Y-55821476D01*
X106608524Y-63191476D02*
X106604074Y-63195926D01*
X107600000Y-63191476D02*
X106608524Y-63191476D01*
X107537842Y-63191476D02*
X107600000Y-63191476D01*
X106450093Y-62103727D02*
X107537842Y-63191476D01*
X102000000Y-70900000D02*
X101800000Y-71100000D01*
X103171500Y-70900000D02*
X102000000Y-70900000D01*
X104100000Y-70900000D02*
X104400000Y-70600000D01*
X103171500Y-70900000D02*
X104100000Y-70900000D01*
X120662500Y-64532413D02*
X120351847Y-64221760D01*
X120662500Y-65500000D02*
X120662500Y-64532413D01*
X120662500Y-64841001D02*
X121299999Y-64203502D01*
X120662500Y-65500000D02*
X120662500Y-64841001D01*
X120962500Y-56499272D02*
X120258274Y-57203498D01*
X120962500Y-56000000D02*
X120962500Y-56499272D01*
X120962500Y-56765998D02*
X121400000Y-57203498D01*
X120962500Y-56000000D02*
X120962500Y-56765998D01*
X120900000Y-54262500D02*
X120937500Y-54300000D01*
D57*
X120937500Y-54300000D02*
X120937500Y-55300000D01*
X120937500Y-53100000D02*
X120937500Y-54300000D01*
D56*
X120900000Y-52800000D02*
X120900000Y-54262500D01*
X120900000Y-51900000D02*
X120100000Y-51100000D01*
X120900000Y-52800000D02*
X120900000Y-51900000D01*
X120900000Y-51935841D02*
X121635841Y-51200000D01*
X120900000Y-52800000D02*
X120900000Y-51935841D01*
X60069000Y-31921000D02*
X61900000Y-31921000D01*
D57*
X61900000Y-31921000D02*
X63058500Y-31921000D01*
D56*
X59274438Y-31921000D02*
X58819443Y-31466005D01*
X60069000Y-31921000D02*
X59274438Y-31921000D01*
X45580000Y-35420000D02*
X45500000Y-35500000D01*
X45580000Y-33997500D02*
X45580000Y-35420000D01*
X47580000Y-36880000D02*
X47800000Y-37100000D01*
X47580000Y-35577500D02*
X47580000Y-36880000D01*
X50020000Y-36920000D02*
X50200000Y-37100000D01*
X50020000Y-35597500D02*
X50020000Y-36920000D01*
X52480000Y-36720000D02*
X52300000Y-36900000D01*
X52480000Y-35597500D02*
X52480000Y-36720000D01*
X47020000Y-58514594D02*
X47265723Y-58268871D01*
X51120000Y-66180000D02*
X50600000Y-66700000D01*
X51680000Y-66180000D02*
X51120000Y-66180000D01*
X51080000Y-66180000D02*
X50600000Y-65700000D01*
X51680000Y-66180000D02*
X51080000Y-66180000D01*
X51360000Y-51140000D02*
X50800000Y-51700000D01*
X51920000Y-51140000D02*
X51360000Y-51140000D01*
X51240000Y-51140000D02*
X50800000Y-50700000D01*
X51920000Y-51140000D02*
X51240000Y-51140000D01*
%TO.N,+BATT*%
X96900000Y-53900000D02*
X97300000Y-53500000D01*
X96900000Y-54465000D02*
X96900000Y-53900000D01*
X99100000Y-54200000D02*
X99700000Y-53600000D01*
X99100000Y-54465000D02*
X99100000Y-54200000D01*
X99335000Y-70135000D02*
X99700000Y-70500000D01*
X98500000Y-70135000D02*
X99335000Y-70135000D01*
X117537500Y-65500000D02*
X117537500Y-66100000D01*
X117537500Y-66100000D02*
X117237500Y-66400000D01*
X117537500Y-65500000D02*
X117537500Y-64400000D01*
X117837500Y-56000000D02*
X117837500Y-56837500D01*
X117837500Y-56837500D02*
X118200000Y-57200000D01*
X117837500Y-54825000D02*
X117962500Y-54700000D01*
X117837500Y-56000000D02*
X117837500Y-54825000D01*
D57*
X117962500Y-54200000D02*
X117962500Y-54700000D01*
X117962500Y-54700000D02*
X117962500Y-56937500D01*
D56*
X117775000Y-52800000D02*
X117775000Y-51525000D01*
X117775000Y-51525000D02*
X118100000Y-51200000D01*
X56000000Y-52100000D02*
X55900000Y-52000000D01*
X56000000Y-52865000D02*
X56000000Y-52100000D01*
X37362500Y-64400000D02*
X37362500Y-65962500D01*
X55700000Y-68574875D02*
X56137438Y-68137437D01*
X55700000Y-69035000D02*
X55700000Y-68574875D01*
X58100000Y-68100000D02*
X58300000Y-67900000D01*
X58100000Y-69035000D02*
X58100000Y-68100000D01*
%TO.N,Net-(D8-K)*%
X60474500Y-37152500D02*
X60051000Y-36729000D01*
X62370000Y-37152500D02*
X60474500Y-37152500D01*
%TO.N,Net-(U3-BOOT)*%
X62370000Y-38877500D02*
X60407500Y-38877500D01*
X60407500Y-38877500D02*
X60290000Y-38995000D01*
D61*
%TO.N,GNDPWR*%
X106800544Y-63895476D02*
X106800544Y-63499456D01*
D56*
X47600000Y-35597500D02*
X47580000Y-35577500D01*
D57*
X120662500Y-64799998D02*
X121299999Y-64162499D01*
D56*
X45800000Y-33797500D02*
X47580000Y-35577500D01*
D59*
X101480000Y-53851476D02*
X101480000Y-54088976D01*
D62*
X59317000Y-63517000D02*
X60100000Y-64300000D01*
X58071000Y-62553500D02*
X58928000Y-62553500D01*
X59317000Y-62942500D02*
X59317000Y-63517000D01*
D59*
X53592500Y-53010000D02*
X53592500Y-52812500D01*
D56*
X54890000Y-41535000D02*
X53462500Y-41535000D01*
D57*
X63058500Y-31921000D02*
X63107500Y-31970000D01*
X120962500Y-56862500D02*
X121400000Y-57300000D01*
X120700000Y-65262500D02*
X120700000Y-64200000D01*
D59*
X53592500Y-52812500D02*
X51920000Y-51140000D01*
D62*
X96929000Y-60846500D02*
X96102283Y-60846500D01*
X95683000Y-59958000D02*
X94800000Y-59075000D01*
D61*
X106800544Y-63499456D02*
X107600000Y-62700000D01*
D57*
X120962500Y-56000000D02*
X120962500Y-56862500D01*
D59*
X103171500Y-70784000D02*
X101387500Y-69000000D01*
D57*
X107600000Y-63191476D02*
X107200000Y-62791476D01*
X107600000Y-63191476D02*
X107504544Y-63191476D01*
D59*
X53642500Y-68190000D02*
X53642500Y-68142500D01*
D57*
X107200000Y-62791476D02*
X107000000Y-62791476D01*
D59*
X103171500Y-70900000D02*
X103171500Y-70784000D01*
D62*
X95683000Y-60427217D02*
X95683000Y-59958000D01*
D57*
X107504544Y-63191476D02*
X106946018Y-63750002D01*
D59*
X53642500Y-68142500D02*
X51680000Y-66180000D01*
D62*
X58928000Y-62553500D02*
X59317000Y-62942500D01*
D56*
X60118000Y-31970000D02*
X60069000Y-31921000D01*
D57*
X51360000Y-51140000D02*
X51300000Y-51200000D01*
X120962500Y-56937500D02*
X120600000Y-57300000D01*
X120962500Y-56000000D02*
X120962500Y-56937500D01*
X120662500Y-65500000D02*
X120662500Y-64799998D01*
X47675000Y-58950000D02*
X47675000Y-59000000D01*
X47020000Y-58565000D02*
X47290000Y-58565000D01*
D56*
X52940000Y-42057500D02*
X49195000Y-42057500D01*
X52480000Y-35597500D02*
X47600000Y-35597500D01*
X53462500Y-41535000D02*
X52940000Y-42057500D01*
D59*
X101480000Y-54088976D02*
X103212500Y-55821476D01*
D57*
X47020000Y-58514594D02*
X47336434Y-58198160D01*
D56*
X43947414Y-33797500D02*
X45800000Y-33797500D01*
D62*
X96102283Y-60846500D02*
X95683000Y-60427217D01*
D56*
X49195000Y-42057500D02*
X49000000Y-42252500D01*
D57*
X47290000Y-58565000D02*
X47675000Y-58950000D01*
X47020000Y-58565000D02*
X47020000Y-58514594D01*
D58*
%TO.N,GNDD*%
X86975000Y-65570000D02*
X86975000Y-65575000D01*
D59*
X92500000Y-36275697D02*
X92350622Y-36126319D01*
D62*
X80725000Y-53817500D02*
X80982500Y-53817500D01*
D61*
X84362500Y-46300000D02*
X84362500Y-44700000D01*
D59*
X93500000Y-36600000D02*
X93575000Y-36525000D01*
X92500000Y-37300000D02*
X92500000Y-36275697D01*
D58*
X84975000Y-60175000D02*
X84975000Y-60200000D01*
D61*
X96200000Y-36287500D02*
X96212500Y-36287500D01*
D59*
X93575000Y-36525000D02*
X93575000Y-36400000D01*
X93500000Y-37300000D02*
X93500000Y-36600000D01*
D58*
X86975000Y-65575000D02*
X87000000Y-65600000D01*
D62*
X80982500Y-53817500D02*
X82400000Y-52400000D01*
D60*
X117280000Y-39720000D02*
X117300000Y-39700000D01*
%TO.N,+3V3*%
X36240000Y-40780000D02*
X35890000Y-40430000D01*
D59*
X74862500Y-48900000D02*
X74950000Y-48812500D01*
D60*
X82637500Y-44700000D02*
X82637500Y-47300000D01*
D63*
X56100000Y-32785000D02*
X56859000Y-33544000D01*
D59*
X82187500Y-45150000D02*
X82637500Y-44700000D01*
D58*
X116680000Y-41450000D02*
X107980000Y-32750000D01*
D56*
X75602936Y-33637500D02*
X90100000Y-33637500D01*
X72062500Y-37177936D02*
X75602936Y-33637500D01*
D58*
X90987500Y-32750000D02*
X90100000Y-33637500D01*
D59*
X80637500Y-45150000D02*
X82187500Y-45150000D01*
D60*
X82866562Y-44470937D02*
X82866562Y-44470938D01*
D59*
X81124740Y-46150000D02*
X81374740Y-46400000D01*
X80637500Y-46150000D02*
X81124740Y-46150000D01*
X73575000Y-40462500D02*
X74450000Y-40462500D01*
X82537500Y-46400000D02*
X82637500Y-46300000D01*
D60*
X35890000Y-37036858D02*
X41596858Y-31330000D01*
D56*
X72062500Y-40362500D02*
X72180000Y-40480000D01*
D59*
X80637500Y-44650000D02*
X82587500Y-44650000D01*
X82587500Y-44650000D02*
X82637500Y-44700000D01*
D60*
X82866562Y-44470938D02*
X82637500Y-44700000D01*
D63*
X72062500Y-38475000D02*
X72062500Y-38950000D01*
D59*
X81374740Y-46400000D02*
X82537500Y-46400000D01*
X59826076Y-33269000D02*
X56584000Y-33269000D01*
D58*
X117280000Y-41450000D02*
X116680000Y-41450000D01*
D59*
X56584000Y-33269000D02*
X56100000Y-32785000D01*
X73092500Y-40480000D02*
X73762500Y-41150000D01*
D56*
X74777772Y-48900000D02*
X74862500Y-48900000D01*
D59*
X72180000Y-40480000D02*
X73092500Y-40480000D01*
D61*
X89162500Y-33675000D02*
X90100000Y-33675000D01*
D63*
X56859000Y-33544000D02*
X67131500Y-33544000D01*
D60*
X43067500Y-31330000D02*
X43942500Y-32205000D01*
D56*
X72062500Y-38950000D02*
X72062500Y-37177936D01*
D58*
X90987500Y-32787500D02*
X90100000Y-33675000D01*
D56*
X56100000Y-32785000D02*
X56759000Y-33444000D01*
D58*
X107980000Y-32750000D02*
X90987500Y-32750000D01*
D56*
X72062500Y-38950000D02*
X72062500Y-40362500D01*
D59*
X74950000Y-48812500D02*
X74950000Y-47337500D01*
D60*
X82637500Y-47300000D02*
X82637500Y-46300000D01*
D59*
X64162500Y-40635000D02*
X64162500Y-37605424D01*
D60*
X37140000Y-40780000D02*
X36240000Y-40780000D01*
D59*
X71218750Y-38106250D02*
X72062500Y-38950000D01*
X72062500Y-38950000D02*
X73575000Y-40462500D01*
X64162500Y-37605424D02*
X59826076Y-33269000D01*
D63*
X67131500Y-33544000D02*
X72062500Y-38475000D01*
D60*
X35890000Y-40430000D02*
X35890000Y-37036858D01*
X41596858Y-31330000D02*
X43067500Y-31330000D01*
D56*
X56759000Y-33444000D02*
X67133564Y-33444000D01*
X71924564Y-38950000D02*
X72062500Y-38950000D01*
D57*
%TO.N,+BATT*%
X37362500Y-64400000D02*
X37362500Y-65737500D01*
D56*
X49192500Y-39792500D02*
X49192500Y-40177500D01*
D57*
X117962500Y-53100000D02*
X117962500Y-54200000D01*
X37362500Y-64400000D02*
X37362500Y-63637500D01*
X37237500Y-64800000D02*
X37237500Y-65837500D01*
X117775000Y-52025000D02*
X118100000Y-51700000D01*
X117962500Y-55300000D02*
X117962500Y-56337500D01*
X117500000Y-65500000D02*
X117500000Y-64462500D01*
D56*
X54802500Y-40177500D02*
X54890000Y-40265000D01*
D57*
X117537500Y-66200000D02*
X117737500Y-66400000D01*
D59*
X41420000Y-51400714D02*
X41420000Y-51020000D01*
X41420000Y-51020000D02*
X41000000Y-50600000D01*
D57*
X117962500Y-56937500D02*
X117700000Y-57200000D01*
D56*
X49577500Y-40177500D02*
X54802500Y-40177500D01*
D57*
X115100000Y-63100000D02*
X117500000Y-65500000D01*
X114000000Y-63100000D02*
X115100000Y-63100000D01*
X117962500Y-54200000D02*
X117962500Y-55300000D01*
X37362500Y-63662500D02*
X37100000Y-63400000D01*
X37362500Y-64400000D02*
X37362500Y-63662500D01*
X41420000Y-51400714D02*
X39361786Y-51400714D01*
D56*
X48800000Y-39400000D02*
X49577500Y-40177500D01*
D57*
X117537500Y-65500000D02*
X117537500Y-66200000D01*
X117737500Y-64700000D02*
X117401522Y-64700000D01*
X117775000Y-52800000D02*
X117775000Y-52025000D01*
X117537500Y-64400000D02*
X117737500Y-64200000D01*
D56*
X48800000Y-39400000D02*
X49192500Y-39792500D01*
D57*
X42000000Y-51100000D02*
X38762500Y-51100000D01*
X117962500Y-56337500D02*
X117700000Y-56600000D01*
D59*
%TO.N,/YI*%
X76450000Y-39637500D02*
X76450000Y-40462500D01*
X75550000Y-37112500D02*
X75900000Y-37112500D01*
X76525000Y-37737500D02*
X76525000Y-39562500D01*
X75535000Y-37127500D02*
X75550000Y-37112500D01*
X75900000Y-37112500D02*
X76525000Y-37737500D01*
X73780000Y-37127500D02*
X75535000Y-37127500D01*
X76525000Y-39562500D02*
X76450000Y-39637500D01*
%TO.N,/YO*%
X77000000Y-39412500D02*
X77000000Y-40412500D01*
X79580000Y-38805000D02*
X77792500Y-38805000D01*
X77700000Y-38712500D02*
X77000000Y-39412500D01*
X77792500Y-38805000D02*
X77700000Y-38712500D01*
X77000000Y-40412500D02*
X76950000Y-40462500D01*
D56*
%TO.N,Net-(D1-A)*%
X42197414Y-33797500D02*
X42197414Y-32284914D01*
X42197414Y-32284914D02*
X42117500Y-32205000D01*
D59*
%TO.N,Net-(D9-A)*%
X42632500Y-61300000D02*
X42632500Y-60042500D01*
X42760000Y-61427500D02*
X42632500Y-61300000D01*
X42760000Y-63320000D02*
X42760000Y-61427500D01*
X42632500Y-60042500D02*
X42870000Y-59805000D01*
%TO.N,/USART3_TX*%
X81600000Y-45725000D02*
X81525000Y-45650000D01*
%TO.N,/SWCLK*%
X73762500Y-46862500D02*
X73800000Y-46900000D01*
%TO.N,/USART3_RX*%
X80600000Y-46687500D02*
X80637500Y-46650000D01*
X80600000Y-46935000D02*
X80600000Y-46687500D01*
D56*
%TO.N,Net-(U3-VSENSE)*%
X61775000Y-42805000D02*
X60290000Y-42805000D01*
X62355000Y-42225000D02*
X61775000Y-42805000D01*
X62337500Y-42207500D02*
X62355000Y-42225000D01*
X62337500Y-40635000D02*
X62337500Y-42207500D01*
D59*
%TO.N,Net-(Q1-S-Pad1)*%
X48417500Y-68190000D02*
X48417500Y-66342500D01*
X48417500Y-66342500D02*
X48580000Y-66180000D01*
%TO.N,/MPU_INT*%
X94000000Y-37300000D02*
X94992764Y-37300000D01*
X94992763Y-37300000D02*
X94000000Y-37300000D01*
X95390000Y-36902763D02*
X94992763Y-37300000D01*
X94590000Y-33587500D02*
X95390000Y-34387500D01*
X94992764Y-37300000D02*
X95400000Y-36892764D01*
X95390000Y-34387500D02*
X95390000Y-36902763D01*
%TO.N,/TIM1_CH2*%
X96982000Y-64746500D02*
X97000000Y-64728500D01*
%TO.N,/TIM1_CH1*%
X97685006Y-64096500D02*
X98125000Y-63656506D01*
X98125000Y-63656506D02*
X98125000Y-62525000D01*
X96929000Y-64096500D02*
X97685006Y-64096500D01*
X97746500Y-62146500D02*
X96929000Y-62146500D01*
X98125000Y-62525000D02*
X97746500Y-62146500D01*
D58*
X77450000Y-47600000D02*
X77450000Y-47337500D01*
D59*
%TO.N,/TIM1_CH3*%
X96172994Y-63446500D02*
X95700000Y-63919494D01*
X95700000Y-63919494D02*
X95700000Y-65000000D01*
X96096500Y-65396500D02*
X96929000Y-65396500D01*
X95700000Y-65000000D02*
X96096500Y-65396500D01*
X96929000Y-63446500D02*
X96172994Y-63446500D01*
%TO.N,/TIM8_CH3*%
X58071000Y-59953500D02*
X57314000Y-59953500D01*
X57096500Y-58003500D02*
X58071000Y-58003500D01*
X56875000Y-59514500D02*
X56875000Y-58225000D01*
X57314000Y-59953500D02*
X56875000Y-59514500D01*
X56875000Y-58225000D02*
X57096500Y-58003500D01*
%TO.N,/TIM8_CH1*%
X59300000Y-60781500D02*
X59300000Y-59775500D01*
X58071000Y-61253500D02*
X58828000Y-61253500D01*
X59300000Y-59775500D02*
X58828000Y-59303500D01*
X58828000Y-59303500D02*
X58071000Y-59303500D01*
X58828000Y-61253500D02*
X59300000Y-60781500D01*
%TO.N,/SPI1_MISO*%
X116530000Y-43450000D02*
X114480000Y-45500000D01*
X117280000Y-43450000D02*
X116530000Y-43450000D01*
X88972792Y-45500000D02*
X85122792Y-41650000D01*
X85122792Y-41650000D02*
X80637500Y-41650000D01*
X114480000Y-45500000D02*
X88972792Y-45500000D01*
%TO.N,/SPI1_MOSI*%
X114930000Y-46050000D02*
X88886396Y-46050000D01*
X116530000Y-44450000D02*
X114930000Y-46050000D01*
X84986396Y-42150000D02*
X80637500Y-42150000D01*
X117280000Y-44450000D02*
X116530000Y-44450000D01*
X88886396Y-46050000D02*
X84986396Y-42150000D01*
%TO.N,/SPI1_SCK*%
X85350000Y-41150000D02*
X80637500Y-41150000D01*
X115530000Y-43600000D02*
X87800000Y-43600000D01*
X87800000Y-43600000D02*
X85350000Y-41150000D01*
X116680000Y-42450000D02*
X115530000Y-43600000D01*
X117280000Y-42450000D02*
X116680000Y-42450000D01*
%TO.N,Net-(Q8-S-Pad1)*%
X106512500Y-69276476D02*
X106512500Y-69000000D01*
X107232500Y-69996476D02*
X106512500Y-69276476D01*
X107832500Y-69996476D02*
X107232500Y-69996476D01*
D60*
%TO.N,Net-(U1-VCC)*%
X95100000Y-60562500D02*
X95100000Y-60600000D01*
D59*
%TO.N,/NSS1*%
X73762500Y-44650000D02*
X73098483Y-44650000D01*
X73098483Y-44650000D02*
X73024445Y-44575962D01*
%TO.N,/NSS2*%
X80637500Y-42650000D02*
X84850000Y-42650000D01*
X84850000Y-42650000D02*
X88700000Y-46500000D01*
X116230000Y-46500000D02*
X117280000Y-45450000D01*
X88700000Y-46500000D02*
X116230000Y-46500000D01*
%TO.N,/ADC1_IN11*%
X78175000Y-61687500D02*
X78187500Y-61700000D01*
X78175000Y-60200000D02*
X78175000Y-61687500D01*
%TO.N,/ADC1_IN5*%
X74225000Y-60200000D02*
X72600000Y-60200000D01*
X79073584Y-48235000D02*
X78974062Y-48135478D01*
X78974062Y-48135478D02*
X78974062Y-47811429D01*
X78974062Y-47811429D02*
X78950000Y-47787367D01*
X78950000Y-47787367D02*
X78950000Y-47337500D01*
%TO.N,Net-(U4-VDD)*%
X92462500Y-34500000D02*
X91600000Y-35362500D01*
D58*
X91725000Y-36356250D02*
X91600000Y-36231250D01*
D59*
X94774170Y-35697094D02*
X93577076Y-34500000D01*
X93577076Y-34500000D02*
X92462500Y-34500000D01*
X92400000Y-44500000D02*
X90900000Y-44500000D01*
D58*
X92000000Y-37300000D02*
X92000000Y-36631250D01*
X91600000Y-35362500D02*
X90100000Y-35362500D01*
X96200000Y-38012500D02*
X96187500Y-38000000D01*
X91600000Y-35362500D02*
X91900000Y-35662500D01*
X92000000Y-36631250D02*
X91600000Y-36231250D01*
X92000000Y-37300000D02*
X92000000Y-36771880D01*
X91600000Y-36231250D02*
X91600000Y-35362500D01*
X96187500Y-38000000D02*
X94700000Y-38000000D01*
D59*
%TO.N,Net-(U4-REGOUT)*%
X93000000Y-35462500D02*
X93100000Y-35362500D01*
X93000000Y-37300000D02*
X93000000Y-36807236D01*
X93000000Y-37300000D02*
X93000000Y-35462500D01*
D58*
%TO.N,Net-(U4-CPOUT)*%
X93500000Y-41200000D02*
X93500000Y-42337500D01*
X93500000Y-42337500D02*
X93900000Y-42737500D01*
D59*
%TO.N,Net-(D2-K)*%
X98500000Y-66665000D02*
X101502500Y-66665000D01*
X104892500Y-65532976D02*
X102807476Y-65532976D01*
X102807476Y-65532976D02*
X102671000Y-65396500D01*
X102483750Y-65683750D02*
X102671000Y-65496500D01*
X101502500Y-66665000D02*
X102483750Y-65683750D01*
X98600000Y-67265000D02*
X99000000Y-66865000D01*
%TO.N,/inverter/2VS2*%
X104900000Y-60237500D02*
X103867000Y-61270500D01*
X103867000Y-61706506D02*
X103427006Y-62146500D01*
X103867000Y-61270500D02*
X103867000Y-61706506D01*
X103427006Y-62146500D02*
X102671000Y-62146500D01*
%TO.N,Net-(D3-K)*%
X102671000Y-63446500D02*
X103914400Y-63446500D01*
X104900000Y-62460900D02*
X104900000Y-61962500D01*
X96900000Y-57935000D02*
X101475000Y-62510000D01*
X101475000Y-63075000D02*
X101846500Y-63446500D01*
X101846500Y-63446500D02*
X102671000Y-63446500D01*
X103914400Y-63446500D02*
X104900000Y-62460900D01*
X101475000Y-62510000D02*
X101475000Y-63075000D01*
%TO.N,Net-(D4-K)*%
X101200000Y-55937500D02*
X101097500Y-55937500D01*
X101914994Y-61496500D02*
X99100000Y-58681506D01*
X101097500Y-55937500D02*
X99100000Y-57935000D01*
X102671000Y-61496500D02*
X101914994Y-61496500D01*
X99100000Y-58681506D02*
X99100000Y-57935000D01*
%TO.N,/inverter/2VS3*%
X101200000Y-59481506D02*
X101914994Y-60196500D01*
X101200000Y-57662500D02*
X101200000Y-59481506D01*
X109662500Y-55796476D02*
X108408976Y-57050000D01*
X101914994Y-60196500D02*
X102671000Y-60196500D01*
X108408976Y-57050000D02*
X101812500Y-57050000D01*
X109662500Y-55456476D02*
X109662500Y-55796476D01*
X101812500Y-57050000D02*
X101200000Y-57662500D01*
%TO.N,/inverter/1VS1*%
X51133000Y-57767000D02*
X52537500Y-56362500D01*
D58*
X50357460Y-56362500D02*
X47628782Y-53633822D01*
D59*
X51572000Y-59303500D02*
X51133000Y-58864500D01*
X52329000Y-59303500D02*
X51572000Y-59303500D01*
D58*
X53500000Y-56362500D02*
X50357460Y-56362500D01*
D56*
X37285000Y-56425000D02*
X37366500Y-56343500D01*
D59*
X52537500Y-56362500D02*
X53500000Y-56362500D01*
X51133000Y-58864500D02*
X51133000Y-57767000D01*
%TO.N,Net-(D7-K)*%
X54302500Y-54637500D02*
X56000000Y-56335000D01*
X53500000Y-54637500D02*
X54302500Y-54637500D01*
X54331500Y-58003500D02*
X52329000Y-58003500D01*
X56000000Y-56335000D02*
X54331500Y-58003500D01*
%TO.N,Net-(D10-K)*%
X50000000Y-58380506D02*
X51572994Y-59953500D01*
X51572994Y-59953500D02*
X52329000Y-59953500D01*
X50000000Y-58375000D02*
X50000000Y-58380506D01*
%TO.N,/inverter/1VS2*%
X45250000Y-58650000D02*
X44800000Y-58200000D01*
X45250000Y-58890000D02*
X45250000Y-58650000D01*
X51153500Y-61253500D02*
X52329000Y-61253500D01*
X50000000Y-60100000D02*
X51153500Y-61253500D01*
%TO.N,Net-(D11-K)*%
X53085006Y-61903500D02*
X52329000Y-61903500D01*
X52200500Y-61775000D02*
X52329000Y-61903500D01*
X55700000Y-65565000D02*
X55700000Y-64518494D01*
X55700000Y-64518494D02*
X53085006Y-61903500D01*
X50000000Y-61775000D02*
X52200500Y-61775000D01*
D56*
%TO.N,/inverter/1VS3*%
X37285000Y-59742000D02*
X37386500Y-59843500D01*
D58*
X50000000Y-63500000D02*
X50100000Y-63600000D01*
D60*
%TO.N,Net-(U2-VCC)*%
X60287500Y-62762500D02*
X60200000Y-62675000D01*
X59428500Y-61903500D02*
X60200000Y-62675000D01*
X58071000Y-61903500D02*
X59428500Y-61903500D01*
D59*
%TO.N,/inverter/1HO1*%
X40837500Y-54605000D02*
X39502500Y-55940000D01*
X40837500Y-53890000D02*
X40837500Y-54605000D01*
%TO.N,Net-(D5-A)*%
X42715000Y-70162500D02*
X43452500Y-70900000D01*
X42715000Y-68900000D02*
X42715000Y-70162500D01*
X42715000Y-67388500D02*
X42753500Y-67350000D01*
X42715000Y-68900000D02*
X42715000Y-67388500D01*
%TO.N,/inverter/1LO1*%
X52329000Y-63853500D02*
X51818000Y-63853500D01*
X51818000Y-63853500D02*
X51800000Y-63835500D01*
X44350000Y-54427500D02*
X44867500Y-53910000D01*
X44350000Y-55950000D02*
X44350000Y-54427500D01*
%TO.N,Net-(D6-A)*%
X46802500Y-67450000D02*
X46902500Y-67350000D01*
X46802500Y-68900000D02*
X46802500Y-69450000D01*
X46802500Y-69450000D02*
X48252500Y-70900000D01*
X46802500Y-68900000D02*
X46802500Y-67450000D01*
%TO.N,/inverter/1HO2*%
X40807500Y-61300000D02*
X40807500Y-61972500D01*
X40807500Y-61972500D02*
X39460000Y-63320000D01*
D58*
%TO.N,/inverter/1LO2*%
X58071000Y-63853500D02*
X57918000Y-63853500D01*
D59*
X44372500Y-63350000D02*
X44372500Y-61685000D01*
X44372500Y-61685000D02*
X44767500Y-61290000D01*
D58*
X57918000Y-63853500D02*
X57900000Y-63835500D01*
D59*
%TO.N,/inverter/1HO3*%
X40890000Y-68900000D02*
X40890000Y-70162500D01*
X50721101Y-62553500D02*
X52329000Y-62553500D01*
X50645103Y-62629498D02*
X50721101Y-62553500D01*
X40890000Y-70162500D02*
X40152500Y-70900000D01*
D58*
%TO.N,/inverter/1LO3*%
X58396500Y-63203500D02*
X58400000Y-63200000D01*
D59*
X44977500Y-70875000D02*
X44952500Y-70900000D01*
X44977500Y-68900000D02*
X44977500Y-70875000D01*
%TO.N,Net-(D16-A)*%
X112179000Y-67971476D02*
X112179000Y-66188976D01*
X112179000Y-66188976D02*
X112061500Y-66071476D01*
X112179000Y-67971476D02*
X112179000Y-69113976D01*
X112179000Y-69113976D02*
X111961500Y-69331476D01*
%TO.N,/inverter/2HO1*%
X115361500Y-66613976D02*
X114004000Y-67971476D01*
X102747024Y-64670476D02*
X113960500Y-64670476D01*
X113960500Y-64670476D02*
X115361500Y-66071476D01*
X102671000Y-64746500D02*
X102747024Y-64670476D01*
X115361500Y-66071476D02*
X115361500Y-66613976D01*
%TO.N,Net-(D17-A)*%
X108149000Y-67971476D02*
X108149000Y-69029976D01*
X108149000Y-69029976D02*
X107832500Y-69346476D01*
X108149000Y-66961476D02*
X107259000Y-66071476D01*
X108149000Y-67971476D02*
X108149000Y-66961476D01*
%TO.N,Net-(D18-A)*%
X111967500Y-60331476D02*
X111967500Y-61587500D01*
X111967500Y-61587500D02*
X111730000Y-61825000D01*
X111967500Y-58441476D02*
X111817500Y-58291476D01*
X111967500Y-60331476D02*
X111967500Y-58441476D01*
%TO.N,/inverter/2HO2*%
X115117500Y-59075000D02*
X113792500Y-60400000D01*
X115117500Y-58400000D02*
X115117500Y-59075000D01*
D58*
X103594778Y-62796500D02*
X103739111Y-62652167D01*
D59*
%TO.N,Net-(D19-A)*%
X107867500Y-60411476D02*
X107867500Y-61623976D01*
X107867500Y-59388976D02*
X106950000Y-58471476D01*
X107867500Y-60411476D02*
X107867500Y-59388976D01*
X107867500Y-61623976D02*
X107600000Y-61891476D01*
%TO.N,Net-(D20-A)*%
X112440000Y-53071476D02*
X112440000Y-53996976D01*
X112440000Y-51221476D02*
X112270000Y-51051476D01*
X112440000Y-53071476D02*
X112440000Y-51221476D01*
X112440000Y-53996976D02*
X111982500Y-54454476D01*
%TO.N,/inverter/2HO3*%
X104100000Y-60173506D02*
X104100000Y-59697924D01*
X114265000Y-52356476D02*
X115570000Y-51051476D01*
X116100000Y-51581476D02*
X115570000Y-51051476D01*
X106297924Y-57500000D02*
X111100000Y-57500000D01*
X116100000Y-56456976D02*
X116100000Y-51581476D01*
X102671000Y-60846500D02*
X103427006Y-60846500D01*
X115456976Y-57100000D02*
X116100000Y-56456976D01*
X104100000Y-59697924D02*
X106297924Y-57500000D01*
X111500000Y-57100000D02*
X115456976Y-57100000D01*
X114265000Y-53071476D02*
X114265000Y-52356476D01*
X111100000Y-57500000D02*
X111500000Y-57100000D01*
X103427006Y-60846500D02*
X104100000Y-60173506D01*
%TO.N,Net-(D21-A)*%
X108227500Y-54146476D02*
X107892500Y-54481476D01*
X108227500Y-51868976D02*
X107440000Y-51081476D01*
X108227500Y-52991476D02*
X108227500Y-51868976D01*
X108227500Y-52991476D02*
X108227500Y-54146476D01*
%TO.N,/inverter/2LO3*%
X110052500Y-51768976D02*
X110740000Y-51081476D01*
X110052500Y-52991476D02*
X110052500Y-51768976D01*
X97822992Y-60196964D02*
X97822528Y-60196500D01*
X97822528Y-60196500D02*
X96929000Y-60196500D01*
D58*
%TO.N,/inverter/2LO2*%
X110250000Y-59853976D02*
X109692500Y-60411476D01*
X110250000Y-58471476D02*
X110250000Y-59853976D01*
D59*
X97353500Y-59546500D02*
X97400000Y-59500000D01*
X96929000Y-59546500D02*
X97353500Y-59546500D01*
%TO.N,/inverter/2LO1*%
X110559000Y-66071476D02*
X109974000Y-66656476D01*
X109974000Y-66656476D02*
X109974000Y-67971476D01*
X103453500Y-59546500D02*
X103500000Y-59500000D01*
X102671000Y-59546500D02*
X103453500Y-59546500D01*
%TO.N,/USART2_TX*%
X78950000Y-39805215D02*
X78913411Y-39768626D01*
%TO.N,/I2C1_SCL*%
X92400000Y-42675000D02*
X92000000Y-42275000D01*
X92000000Y-42275000D02*
X92000000Y-41200000D01*
%TO.N,/ADC2_IN12*%
X80637500Y-44150000D02*
X81301517Y-44150000D01*
D58*
X88225000Y-60200000D02*
X86700000Y-60200000D01*
D59*
X80637500Y-44150000D02*
X81350500Y-44150000D01*
X81301517Y-44150000D02*
X81375563Y-44075954D01*
X81350500Y-44150000D02*
X81425500Y-44075000D01*
%TO.N,/SPI3_MISO*%
X72725304Y-45150000D02*
X73762500Y-45150000D01*
X72605267Y-45135479D02*
X72710783Y-45135479D01*
X72710783Y-45135479D02*
X72725304Y-45150000D01*
X38100000Y-42780000D02*
X37140000Y-42780000D01*
%TO.N,Net-(D22-A)*%
X46592500Y-60292500D02*
X47020000Y-59865000D01*
X46592500Y-61290000D02*
X46592500Y-60292500D01*
X47672500Y-63350000D02*
X47672500Y-62370000D01*
X47672500Y-62370000D02*
X46592500Y-61290000D01*
%TO.N,Net-(D23-A)*%
X42662500Y-53890000D02*
X42662500Y-52903214D01*
X42802500Y-55940000D02*
X42802500Y-54030000D01*
X42662500Y-52903214D02*
X43190000Y-52375714D01*
X42802500Y-54030000D02*
X42662500Y-53890000D01*
%TO.N,Net-(D24-A)*%
X46692500Y-53910000D02*
X46692500Y-54992500D01*
X46692500Y-52991500D02*
X47299000Y-52385000D01*
X46692500Y-53910000D02*
X46692500Y-52991500D01*
X46692500Y-54992500D02*
X47650000Y-55950000D01*
D58*
%TO.N,/OP_VCC*%
X67475000Y-61337500D02*
X67937500Y-61800000D01*
X82225000Y-55597500D02*
X82225000Y-59550000D01*
D60*
X79387500Y-55597500D02*
X79225000Y-55760000D01*
D58*
X82225000Y-59550000D02*
X81575000Y-60200000D01*
X81575000Y-61310000D02*
X82025000Y-61760000D01*
X75785000Y-59200000D02*
X68475000Y-59200000D01*
X67475000Y-60200000D02*
X67475000Y-61337500D01*
X79225000Y-55760000D02*
X75785000Y-59200000D01*
D60*
X83825000Y-55597500D02*
X79387500Y-55597500D01*
D58*
X70022500Y-51090000D02*
X68700000Y-49767500D01*
X70725000Y-51090000D02*
X70022500Y-51090000D01*
X68475000Y-59200000D02*
X67475000Y-60200000D01*
X81575000Y-60200000D02*
X81575000Y-61310000D01*
D59*
%TO.N,/INA1+*%
X73462500Y-54867501D02*
X73462500Y-56530000D01*
X71662500Y-58330000D02*
X70225000Y-58330000D01*
X75762500Y-53717500D02*
X75675000Y-53630000D01*
X79212500Y-53922500D02*
X79225000Y-53935000D01*
X75675000Y-53630000D02*
X74700001Y-53630000D01*
X77725000Y-53717500D02*
X75762500Y-53717500D01*
X74700001Y-53630000D02*
X73462500Y-54867501D01*
X73462500Y-56530000D02*
X71662500Y-58330000D01*
X77725000Y-53922500D02*
X79212500Y-53922500D01*
%TO.N,/ADC2_IN15*%
X64125000Y-61000000D02*
X64125000Y-59612500D01*
X64125000Y-59612500D02*
X64137500Y-59600000D01*
X78450000Y-48023509D02*
X78450000Y-47337500D01*
%TO.N,Net-(Q12-S-Pad1)*%
X106675000Y-53851476D02*
X106675000Y-55458976D01*
X106675000Y-55458976D02*
X106312500Y-55821476D01*
%TO.N,Net-(Q16-S-Pad1)*%
X48447500Y-53010000D02*
X48447500Y-51512500D01*
X48447500Y-51512500D02*
X48820000Y-51140000D01*
%TO.N,/1CS1-*%
X51882500Y-69720000D02*
X52287500Y-70125000D01*
X64147856Y-68710000D02*
X64147856Y-68190000D01*
X58900000Y-70125000D02*
X60075000Y-68950000D01*
X68587856Y-68950000D02*
X68707856Y-68950000D01*
X63547856Y-68190000D02*
X63547856Y-68710000D01*
X68347856Y-68240000D02*
X68347856Y-68710000D01*
X64987856Y-68950000D02*
X65107856Y-68950000D01*
X70013966Y-68950000D02*
X74750000Y-68950000D01*
X66547856Y-68710000D02*
X66547856Y-68440000D01*
X51817500Y-69655000D02*
X51882500Y-69720000D01*
X69907856Y-68950000D02*
X70013966Y-68950000D01*
X67147856Y-68440000D02*
X67147856Y-68710000D01*
X67387856Y-68950000D02*
X67507856Y-68950000D01*
X64747856Y-68190000D02*
X64747856Y-68710000D01*
X52287500Y-70125000D02*
X58900000Y-70125000D01*
X76500000Y-66900000D02*
X76700000Y-66700000D01*
X63787856Y-68950000D02*
X63907856Y-68950000D01*
X76500000Y-67200000D02*
X76500000Y-66900000D01*
X69187856Y-68000000D02*
X69307856Y-68000000D01*
X67987856Y-68000000D02*
X68107856Y-68000000D01*
X62347856Y-68190000D02*
X62347856Y-68710000D01*
X68947856Y-68710000D02*
X68947856Y-68240000D01*
X67747856Y-68710000D02*
X67747856Y-68240000D01*
X60075000Y-68950000D02*
X61507856Y-68950000D01*
X66107856Y-68950000D02*
X66307856Y-68950000D01*
X65507856Y-68550000D02*
X65707856Y-68550000D01*
X76700000Y-66700000D02*
X76700000Y-67000000D01*
X63187856Y-67950000D02*
X63307856Y-67950000D01*
X61987856Y-67950000D02*
X62107856Y-67950000D01*
X51817500Y-68190000D02*
X51817500Y-69655000D01*
X74750000Y-68950000D02*
X76500000Y-67200000D01*
X69787856Y-68950000D02*
X69907856Y-68950000D01*
X62947856Y-68710000D02*
X62947856Y-68190000D01*
X66787856Y-68200000D02*
X66907856Y-68200000D01*
X62587856Y-68950000D02*
X62707856Y-68950000D01*
X64387856Y-67950000D02*
X64507856Y-67950000D01*
X69547856Y-68240000D02*
X69547856Y-68710000D01*
X61747856Y-68710000D02*
X61747856Y-68190000D01*
X64507856Y-67950000D02*
G75*
G02*
X64747900Y-68190000I44J-240000D01*
G01*
X67507856Y-68950000D02*
G75*
G03*
X67747900Y-68710000I44J240000D01*
G01*
X65707856Y-68550000D02*
G75*
G02*
X65907900Y-68750000I44J-200000D01*
G01*
X63547856Y-68710000D02*
G75*
G03*
X63787856Y-68950044I240044J0D01*
G01*
X63907856Y-68950000D02*
G75*
G03*
X64147900Y-68710000I44J240000D01*
G01*
X66307856Y-68950000D02*
G75*
G03*
X66547900Y-68710000I44J240000D01*
G01*
X64747856Y-68710000D02*
G75*
G03*
X64987856Y-68950044I240044J0D01*
G01*
X68107856Y-68000000D02*
G75*
G02*
X68347900Y-68240000I44J-240000D01*
G01*
X68347856Y-68710000D02*
G75*
G03*
X68587856Y-68950044I240044J0D01*
G01*
X61747856Y-68190000D02*
G75*
G02*
X61987856Y-67949956I240044J0D01*
G01*
X62947856Y-68190000D02*
G75*
G02*
X63187856Y-67949956I240044J0D01*
G01*
X62107856Y-67950000D02*
G75*
G02*
X62347900Y-68190000I44J-240000D01*
G01*
X66547856Y-68440000D02*
G75*
G02*
X66787856Y-68199956I240044J0D01*
G01*
X64147856Y-68190000D02*
G75*
G02*
X64387856Y-67949956I240044J0D01*
G01*
X62347856Y-68710000D02*
G75*
G03*
X62587856Y-68950044I240044J0D01*
G01*
X65307856Y-68750000D02*
G75*
G02*
X65507856Y-68549956I200044J0D01*
G01*
X67147856Y-68710000D02*
G75*
G03*
X67387856Y-68950044I240044J0D01*
G01*
X68947856Y-68240000D02*
G75*
G02*
X69187856Y-67999956I240044J0D01*
G01*
X68707856Y-68950000D02*
G75*
G03*
X68947900Y-68710000I44J240000D01*
G01*
X65107856Y-68950000D02*
G75*
G03*
X65307900Y-68750000I44J200000D01*
G01*
X63307856Y-67950000D02*
G75*
G02*
X63547900Y-68190000I44J-240000D01*
G01*
X69547856Y-68710000D02*
G75*
G03*
X69787856Y-68950044I240044J0D01*
G01*
X65907856Y-68750000D02*
G75*
G03*
X66107856Y-68950044I200044J0D01*
G01*
X67747856Y-68240000D02*
G75*
G02*
X67987856Y-67999956I240044J0D01*
G01*
X69307856Y-68000000D02*
G75*
G02*
X69547900Y-68240000I44J-240000D01*
G01*
X62707856Y-68950000D02*
G75*
G03*
X62947900Y-68710000I44J240000D01*
G01*
X66907856Y-68200000D02*
G75*
G02*
X67147900Y-68440000I44J-240000D01*
G01*
X61507856Y-68950000D02*
G75*
G03*
X61747900Y-68710000I44J240000D01*
G01*
%TO.N,/1CS1+*%
X76400000Y-61787500D02*
X77512500Y-62900000D01*
X75289576Y-69400000D02*
X60261396Y-69400000D01*
X59061396Y-70600000D02*
X51037500Y-70600000D01*
X50242500Y-68190000D02*
X50242500Y-69635000D01*
X60261396Y-69400000D02*
X59061396Y-70600000D01*
X51037500Y-70600000D02*
X50157500Y-69720000D01*
X50242500Y-69635000D02*
X50157500Y-69720000D01*
X77512500Y-67177076D02*
X75289576Y-69400000D01*
X77512500Y-62900000D02*
X77512500Y-67177076D01*
%TO.N,/1CS2+*%
X60969482Y-59911876D02*
X60884629Y-59827023D01*
X61358391Y-59862379D02*
X61308892Y-59911875D01*
X64300000Y-62464576D02*
X61697803Y-59862379D01*
X61216966Y-58306740D02*
X60849270Y-58674435D01*
X61641231Y-58391593D02*
X61556378Y-58306740D01*
X60425007Y-58589583D02*
X60370404Y-58534980D01*
X50272500Y-53010000D02*
X50272500Y-54335000D01*
X60934125Y-59438112D02*
X61641231Y-58731004D01*
X64300000Y-62587500D02*
X64300000Y-62464576D01*
X60509859Y-58674435D02*
X60425007Y-58589583D01*
X60884629Y-59487611D02*
X60934125Y-59438112D01*
X50272500Y-54335000D02*
X50097500Y-54510000D01*
X61641231Y-58731004D02*
G75*
G03*
X61641230Y-58391594I-169731J169704D01*
G01*
X61556378Y-58306740D02*
G75*
G03*
X61216966Y-58306740I-169706J-169704D01*
G01*
X61697803Y-59862379D02*
G75*
G03*
X61358391Y-59862379I-169706J-169701D01*
G01*
X60884629Y-59827023D02*
G75*
G02*
X60884612Y-59487594I169671J169723D01*
G01*
X61308892Y-59911875D02*
G75*
G02*
X60969496Y-59911863I-169692J169675D01*
G01*
X60849270Y-58674435D02*
G75*
G02*
X60509858Y-58674436I-169706J169703D01*
G01*
%TO.N,/1CS2-*%
X51767500Y-53010000D02*
X51767500Y-54455000D01*
X51767500Y-54455000D02*
X51822500Y-54510000D01*
%TO.N,/2CS1-*%
X95133679Y-68200000D02*
X95172726Y-68200000D01*
X103137500Y-68925000D02*
X103212500Y-69000000D01*
X90777076Y-65887500D02*
X91300000Y-66410424D01*
X102437500Y-68200000D02*
X103137500Y-67500000D01*
X90977076Y-66087500D02*
X91089576Y-66200000D01*
X89000000Y-66900000D02*
X90012500Y-65887500D01*
X91300000Y-66410424D02*
X91310424Y-66410424D01*
X93100000Y-68200000D02*
X93933679Y-68200000D01*
X94173679Y-67960000D02*
X94173679Y-67440000D01*
X90012500Y-65887500D02*
X90777076Y-65887500D01*
X95172726Y-68200000D02*
X102437500Y-68200000D01*
X94773679Y-67440000D02*
X94773679Y-67960000D01*
X94413679Y-67200000D02*
X94533679Y-67200000D01*
X103137500Y-67500000D02*
X103137500Y-68925000D01*
X91310424Y-66410424D02*
X93100000Y-68200000D01*
X89000000Y-66900000D02*
X89812500Y-66087500D01*
X95013679Y-68200000D02*
X95133679Y-68200000D01*
X94173679Y-67440000D02*
G75*
G02*
X94413679Y-67199979I240021J0D01*
G01*
X94533679Y-67200000D02*
G75*
G02*
X94773700Y-67440000I21J-240000D01*
G01*
X93933679Y-68200000D02*
G75*
G03*
X94173700Y-67960000I21J240000D01*
G01*
X94773679Y-67960000D02*
G75*
G03*
X95013679Y-68200021I240021J0D01*
G01*
%TO.N,/2CS1+*%
X104862500Y-67500000D02*
X104062500Y-66700000D01*
X104062500Y-66700000D02*
X102200000Y-66700000D01*
X102200000Y-66700000D02*
X101185000Y-67715000D01*
X96515000Y-67715000D02*
X90500000Y-61700000D01*
X101185000Y-67715000D02*
X96515000Y-67715000D01*
X104687500Y-69000000D02*
X104687500Y-67675000D01*
X104687500Y-67675000D02*
X104862500Y-67500000D01*
%TO.N,/2CS2-*%
X93298569Y-54262024D02*
X94005674Y-54969128D01*
X94345085Y-54969128D02*
X94429937Y-54884275D01*
X94429937Y-54544863D02*
X94062241Y-54177167D01*
X95558524Y-52341476D02*
X103230000Y-52341476D01*
X103305000Y-53851476D02*
X103305000Y-52416476D01*
X103305000Y-52416476D02*
X103230000Y-52341476D01*
X92506607Y-53979181D02*
X92591461Y-53894328D01*
X92930873Y-53894328D02*
X93298569Y-54262024D01*
X94147095Y-53752904D02*
X94199480Y-53700520D01*
X94199480Y-53700520D02*
X95558524Y-52341476D01*
X94062241Y-53837756D02*
X94147095Y-53752904D01*
X92874303Y-54686286D02*
X92506608Y-54318591D01*
X92591461Y-53894328D02*
G75*
G02*
X92930873Y-53894328I169706J-169708D01*
G01*
X94062241Y-54177167D02*
G75*
G02*
X94062279Y-53837795I169659J169667D01*
G01*
X92506608Y-54318591D02*
G75*
G02*
X92506621Y-53979196I169692J169691D01*
G01*
X94005674Y-54969128D02*
G75*
G03*
X94345085Y-54969128I169705J169707D01*
G01*
X94429937Y-54884275D02*
G75*
G03*
X94429906Y-54544894I-169737J169675D01*
G01*
X92874302Y-55025698D02*
G75*
G03*
X92874295Y-54686295I-169702J169698D01*
G01*
%TO.N,/2CS2+*%
X104850000Y-53851476D02*
X104850000Y-52446476D01*
X104850000Y-52446476D02*
X104955000Y-52341476D01*
%TO.N,/I2C1_SDA*%
X91500000Y-42075000D02*
X90900000Y-42675000D01*
X72523589Y-42725980D02*
X72599569Y-42650000D01*
X91500000Y-41200000D02*
X91500000Y-42075000D01*
X72599569Y-42650000D02*
X73762500Y-42650000D01*
%TO.N,/VREF_OP2*%
X68700000Y-53132500D02*
X67290000Y-53132500D01*
X70725000Y-53630000D02*
X69197500Y-53630000D01*
X69472500Y-52360000D02*
X68700000Y-53132500D01*
X67290000Y-53337500D02*
X67225000Y-53272500D01*
X89087500Y-68312500D02*
X90500000Y-66900000D01*
X70725000Y-52360000D02*
X69472500Y-52360000D01*
X69197500Y-53630000D02*
X68700000Y-53132500D01*
X80000000Y-68312500D02*
X89087500Y-68312500D01*
%TO.N,/VREF_OP1*%
X69612500Y-67500000D02*
X69312500Y-67200000D01*
X75942500Y-52092500D02*
X75675000Y-52360000D01*
X76700000Y-65200000D02*
X75687500Y-66212500D01*
X75687500Y-67177076D02*
X75364576Y-67500000D01*
X75364576Y-67500000D02*
X69612500Y-67500000D01*
X77725000Y-52297500D02*
X79225000Y-52297500D01*
X79225000Y-52092500D02*
X75942500Y-52092500D01*
X75687500Y-66212500D02*
X75687500Y-67177076D01*
%TO.N,Net-(U6A--)*%
X90487500Y-63512500D02*
X90500000Y-63525000D01*
X86975000Y-63030000D02*
X88517500Y-63030000D01*
X88517500Y-63030000D02*
X89000000Y-63512500D01*
X89000000Y-63512500D02*
X90487500Y-63512500D01*
%TO.N,Net-(U7A--)*%
X74900000Y-63612500D02*
X76400000Y-63612500D01*
X73430000Y-63612500D02*
X72887500Y-63070000D01*
X74900000Y-63612500D02*
X73430000Y-63612500D01*
%TO.N,Net-(U6A-+)*%
X86975000Y-64300000D02*
X88225000Y-64300000D01*
X88225000Y-64300000D02*
X89000000Y-65075000D01*
X89000000Y-65075000D02*
X90500000Y-65075000D01*
%TO.N,Net-(U7A-+)*%
X74875000Y-66700000D02*
X74875000Y-65200000D01*
X74875000Y-65200000D02*
X74015000Y-64340000D01*
X74015000Y-64340000D02*
X72887500Y-64340000D01*
%TO.N,Net-(R34-Pad2)*%
X88927500Y-61760000D02*
X89000000Y-61687500D01*
X86975000Y-61760000D02*
X88927500Y-61760000D01*
X89000000Y-61250000D02*
X90050000Y-60200000D01*
X89000000Y-61687500D02*
X89000000Y-61250000D01*
%TO.N,Net-(R36-Pad2)*%
X76050000Y-60637500D02*
X74900000Y-61787500D01*
X74900000Y-61787500D02*
X72900000Y-61787500D01*
X72900000Y-61787500D02*
X72887500Y-61800000D01*
X76050000Y-60200000D02*
X76050000Y-60637500D01*
%TO.N,/INA2+*%
X70725000Y-54900000D02*
X70725000Y-56005000D01*
X70225000Y-56505000D02*
X68725000Y-56505000D01*
X70725000Y-56005000D02*
X70225000Y-56505000D01*
%TO.N,Net-(U6B--)*%
X80000000Y-65012500D02*
X78500000Y-65012500D01*
X80712500Y-64300000D02*
X80000000Y-65012500D01*
X82025000Y-64300000D02*
X80712500Y-64300000D01*
%TO.N,Net-(U7B--)*%
X65900000Y-64412500D02*
X64300000Y-64412500D01*
X67937500Y-64340000D02*
X65972500Y-64340000D01*
X65972500Y-64340000D02*
X65900000Y-64412500D01*
%TO.N,Net-(U6B-+)*%
X82025000Y-65570000D02*
X80917500Y-65570000D01*
X82025000Y-65570000D02*
X82025000Y-66762500D01*
X80917500Y-65570000D02*
X80000000Y-66487500D01*
X82025000Y-66762500D02*
X81587500Y-67200000D01*
%TO.N,Net-(U7B-+)*%
X66177500Y-65610000D02*
X65900000Y-65887500D01*
X67937500Y-65610000D02*
X67937500Y-66750000D01*
X67937500Y-65610000D02*
X66177500Y-65610000D01*
X67937500Y-66750000D02*
X67487500Y-67200000D01*
%TO.N,Net-(R48-Pad2)*%
X80012500Y-61700000D02*
X80012500Y-63175000D01*
X81867500Y-63187500D02*
X82025000Y-63030000D01*
X80000000Y-63187500D02*
X81867500Y-63187500D01*
X80012500Y-63175000D02*
X80000000Y-63187500D01*
%TO.N,Net-(R51-Pad2)*%
X67455000Y-62587500D02*
X67937500Y-63070000D01*
X65950000Y-62537500D02*
X65900000Y-62587500D01*
X65900000Y-62587500D02*
X67455000Y-62587500D01*
X65950000Y-61000000D02*
X65950000Y-62537500D01*
D56*
%TO.N,+BATT*%
X49000000Y-40177500D02*
X49000000Y-39600000D01*
X49000000Y-39600000D02*
X48800000Y-39400000D01*
X51100000Y-40177500D02*
X51100000Y-39500000D01*
X52940000Y-40332500D02*
X52940000Y-39540000D01*
X52940000Y-39540000D02*
X52900000Y-39500000D01*
D59*
%TO.N,/inverter/1VS3*%
X50000000Y-63500000D02*
X49800000Y-63500000D01*
%TD*%
%TA.AperFunction,Conductor*%
%TO.N,Net-(Q8-S-Pad1)*%
G36*
X106961070Y-69655020D02*
G01*
X107007698Y-69707054D01*
X107011960Y-69717104D01*
X107038703Y-69788806D01*
X107038706Y-69788811D01*
X107124952Y-69904020D01*
X107124955Y-69904023D01*
X107240164Y-69990269D01*
X107240171Y-69990273D01*
X107285118Y-70007037D01*
X107375017Y-70040567D01*
X107434627Y-70046976D01*
X108053499Y-70046975D01*
X108120538Y-70066659D01*
X108166293Y-70119463D01*
X108177499Y-70170975D01*
X108177499Y-70210609D01*
X108176789Y-70223862D01*
X108174435Y-70245760D01*
X108174424Y-70245833D01*
X108173340Y-70255941D01*
X108173330Y-70256035D01*
X108173326Y-70256072D01*
X108170595Y-70281479D01*
X108171169Y-70298166D01*
X108170632Y-70308221D01*
X108170632Y-70334731D01*
X108172465Y-70368975D01*
X108171856Y-70373204D01*
X108173338Y-70386986D01*
X108173341Y-70387016D01*
X108174169Y-70394727D01*
X108174179Y-70394808D01*
X108176789Y-70419086D01*
X108177499Y-70432340D01*
X108177499Y-70860609D01*
X108176789Y-70873862D01*
X108174435Y-70895760D01*
X108174424Y-70895833D01*
X108173340Y-70905941D01*
X108173330Y-70906035D01*
X108173326Y-70906072D01*
X108170595Y-70931479D01*
X108171169Y-70948166D01*
X108170632Y-70958221D01*
X108170632Y-70984731D01*
X108172465Y-71018975D01*
X108171856Y-71023204D01*
X108173338Y-71036986D01*
X108173341Y-71037016D01*
X108174169Y-71044727D01*
X108174179Y-71044808D01*
X108176789Y-71069086D01*
X108177499Y-71082340D01*
X108177499Y-71494474D01*
X108177475Y-71494555D01*
X108177500Y-71547423D01*
X108177500Y-71547487D01*
X108177499Y-71574665D01*
X108157812Y-71641703D01*
X108105006Y-71687456D01*
X108052251Y-71698654D01*
X105477718Y-71672736D01*
X105410880Y-71652377D01*
X105365659Y-71599115D01*
X105354991Y-71546277D01*
X105362629Y-71162461D01*
X105375602Y-71109664D01*
X105430582Y-70999250D01*
X105486397Y-70803083D01*
X105505215Y-70600000D01*
X105486397Y-70396917D01*
X105430582Y-70200750D01*
X105397224Y-70133759D01*
X105384250Y-70076021D01*
X105388162Y-69879443D01*
X105409175Y-69812814D01*
X105424450Y-69794239D01*
X105520340Y-69698350D01*
X105520341Y-69698347D01*
X105524539Y-69694150D01*
X105585862Y-69660665D01*
X105610149Y-69657848D01*
X106893714Y-69636455D01*
X106961070Y-69655020D01*
G37*
%TD.AperFunction*%
%TD*%
%TA.AperFunction,Conductor*%
%TO.N,Net-(D8-K)*%
G36*
X59579099Y-35241325D02*
G01*
X60978093Y-35445152D01*
X61041594Y-35474297D01*
X61079258Y-35533146D01*
X61084116Y-35562901D01*
X61175125Y-37838134D01*
X61158136Y-37905907D01*
X61107202Y-37953735D01*
X61058232Y-37966892D01*
X57835656Y-38149302D01*
X57828648Y-38149500D01*
X56067129Y-38149500D01*
X56067123Y-38149501D01*
X56007516Y-38155908D01*
X55872671Y-38206202D01*
X55872664Y-38206206D01*
X55757455Y-38292452D01*
X55757452Y-38292455D01*
X55671206Y-38407664D01*
X55671202Y-38407671D01*
X55620908Y-38542517D01*
X55614501Y-38602116D01*
X55614500Y-38602135D01*
X55614500Y-39236000D01*
X55594815Y-39303039D01*
X55542011Y-39348794D01*
X55490500Y-39360000D01*
X54097986Y-39360000D01*
X54030947Y-39340315D01*
X53985192Y-39287511D01*
X53978720Y-39269935D01*
X53969064Y-39236000D01*
X53930582Y-39100750D01*
X53839673Y-38918179D01*
X53818367Y-38889966D01*
X53793676Y-38824606D01*
X53793359Y-38812248D01*
X53856575Y-36220395D01*
X53862830Y-36184428D01*
X53869999Y-36162797D01*
X53880500Y-36060009D01*
X53880499Y-35383561D01*
X53900183Y-35316523D01*
X53952987Y-35270768D01*
X54004058Y-35259563D01*
X59560795Y-35240032D01*
X59579099Y-35241325D01*
G37*
%TD.AperFunction*%
%TD*%
%TA.AperFunction,Conductor*%
%TO.N,+3V3*%
G36*
X57607439Y-31160621D02*
G01*
X57653978Y-31212736D01*
X57665904Y-31269837D01*
X57574133Y-34178972D01*
X57552345Y-34245357D01*
X57498124Y-34289424D01*
X57439404Y-34298592D01*
X46526044Y-33345273D01*
X46460972Y-33319829D01*
X46431296Y-33286838D01*
X46400343Y-33236654D01*
X46400339Y-33236649D01*
X46278351Y-33114661D01*
X46278350Y-33114660D01*
X46131516Y-33024092D01*
X45967753Y-32969826D01*
X45967751Y-32969825D01*
X45866678Y-32959500D01*
X45293330Y-32959500D01*
X45293312Y-32959501D01*
X45192247Y-32969825D01*
X45146384Y-32985023D01*
X45129234Y-32990706D01*
X45090232Y-32997000D01*
X44763096Y-32997000D01*
X44697999Y-32978539D01*
X44695765Y-32977161D01*
X44695764Y-32977160D01*
X44548930Y-32886592D01*
X44385167Y-32832326D01*
X44385165Y-32832325D01*
X44284092Y-32822000D01*
X43610744Y-32822000D01*
X43610726Y-32822001D01*
X43509661Y-32832325D01*
X43345898Y-32886592D01*
X43345895Y-32886593D01*
X43199051Y-32977168D01*
X43198814Y-32977356D01*
X43198620Y-32977434D01*
X43192917Y-32980952D01*
X43192315Y-32979976D01*
X43134016Y-33003490D01*
X43065376Y-32990442D01*
X43014686Y-32942356D01*
X42997914Y-32880082D01*
X42997914Y-32861386D01*
X43016376Y-32796289D01*
X43040906Y-32756519D01*
X43040907Y-32756517D01*
X43040908Y-32756516D01*
X43095174Y-32592753D01*
X43105500Y-32491677D01*
X43105499Y-31918324D01*
X43095174Y-31817247D01*
X43040908Y-31653484D01*
X43040904Y-31653478D01*
X43040903Y-31653475D01*
X42975315Y-31547141D01*
X42956874Y-31479749D01*
X42977796Y-31413085D01*
X43031438Y-31368316D01*
X43078994Y-31358059D01*
X57540113Y-31141941D01*
X57607439Y-31160621D01*
G37*
%TD.AperFunction*%
%TD*%
%TA.AperFunction,Conductor*%
%TO.N,Net-(Q16-S-Pad1)*%
G36*
X49426247Y-50088768D02*
G01*
X49493066Y-50109177D01*
X49538247Y-50162473D01*
X49548550Y-50203440D01*
X49679597Y-51942000D01*
X49665007Y-52010329D01*
X49615792Y-52059924D01*
X49551689Y-52075247D01*
X48206870Y-52029032D01*
X48140546Y-52007056D01*
X48096632Y-51952712D01*
X48094960Y-51948472D01*
X48092796Y-51942669D01*
X48092794Y-51942667D01*
X48092794Y-51942665D01*
X48006547Y-51827455D01*
X48006544Y-51827452D01*
X47891335Y-51741206D01*
X47891328Y-51741202D01*
X47756482Y-51690908D01*
X47756483Y-51690908D01*
X47696883Y-51684501D01*
X47696881Y-51684500D01*
X47696873Y-51684500D01*
X47696865Y-51684500D01*
X47053499Y-51684500D01*
X46986460Y-51664815D01*
X46940705Y-51612011D01*
X46929499Y-51560500D01*
X46929499Y-50187077D01*
X46949184Y-50120038D01*
X47001988Y-50074283D01*
X47054837Y-50063084D01*
X49426247Y-50088768D01*
G37*
%TD.AperFunction*%
%TD*%
%TA.AperFunction,Conductor*%
%TO.N,/inverter/1VS1*%
G36*
X46364822Y-50084019D02*
G01*
X46411681Y-50135846D01*
X46423999Y-50189726D01*
X46423999Y-51560500D01*
X46424000Y-51560509D01*
X46435551Y-51667950D01*
X46435554Y-51667966D01*
X46445666Y-51714450D01*
X46448500Y-51740807D01*
X46448500Y-51982869D01*
X46448501Y-51982879D01*
X46455367Y-52046751D01*
X46455367Y-52073257D01*
X46454909Y-52077516D01*
X46454909Y-52077517D01*
X46448500Y-52137127D01*
X46448500Y-52137132D01*
X46448500Y-52299547D01*
X46428815Y-52366586D01*
X46412181Y-52387228D01*
X46293769Y-52505640D01*
X46293767Y-52505642D01*
X46265175Y-52534234D01*
X46206644Y-52592764D01*
X46186048Y-52623589D01*
X46186047Y-52623590D01*
X46135238Y-52699627D01*
X46081624Y-52744431D01*
X46035363Y-52754692D01*
X44162431Y-52803430D01*
X44094902Y-52785496D01*
X44047789Y-52733900D01*
X44035916Y-52666217D01*
X44040500Y-52623587D01*
X44040499Y-52127842D01*
X44034091Y-52068231D01*
X44026380Y-52047558D01*
X43983797Y-51933385D01*
X43983793Y-51933378D01*
X43897547Y-51818169D01*
X43897544Y-51818166D01*
X43782335Y-51731920D01*
X43782328Y-51731916D01*
X43647482Y-51681622D01*
X43647483Y-51681622D01*
X43587883Y-51675215D01*
X43587881Y-51675214D01*
X43587873Y-51675214D01*
X43587865Y-51675214D01*
X43030251Y-51675214D01*
X42963212Y-51655529D01*
X42917457Y-51602725D01*
X42907513Y-51533567D01*
X42915690Y-51503762D01*
X42962049Y-51391839D01*
X42962051Y-51391835D01*
X43000500Y-51198541D01*
X43000500Y-51001459D01*
X43000500Y-51001456D01*
X42962052Y-50808170D01*
X42962051Y-50808169D01*
X42962051Y-50808165D01*
X42962049Y-50808160D01*
X42886635Y-50626092D01*
X42886628Y-50626079D01*
X42841397Y-50558386D01*
X42820519Y-50491708D01*
X42820499Y-50489495D01*
X42820499Y-50260554D01*
X42840184Y-50193515D01*
X42892988Y-50147760D01*
X42941877Y-50136583D01*
X46297383Y-50065754D01*
X46364822Y-50084019D01*
G37*
%TD.AperFunction*%
%TD*%
%TA.AperFunction,Conductor*%
%TO.N,/inverter/1VS3*%
G36*
X45993229Y-65042947D02*
G01*
X46039898Y-65094945D01*
X46050661Y-65148806D01*
X46052000Y-65148806D01*
X46052000Y-65647870D01*
X46052001Y-65647879D01*
X46058867Y-65711751D01*
X46058867Y-65738257D01*
X46058409Y-65742516D01*
X46058409Y-65742517D01*
X46052000Y-65802127D01*
X46052000Y-65802132D01*
X46052000Y-65802133D01*
X46052000Y-66297870D01*
X46052001Y-66297879D01*
X46058867Y-66361751D01*
X46058867Y-66388257D01*
X46058409Y-66392516D01*
X46058409Y-66392517D01*
X46052000Y-66452127D01*
X46052000Y-66452132D01*
X46052000Y-66452133D01*
X46052000Y-66947870D01*
X46052001Y-66947879D01*
X46058867Y-67011751D01*
X46058867Y-67038257D01*
X46058409Y-67042516D01*
X46058409Y-67042517D01*
X46052000Y-67102127D01*
X46052000Y-67102129D01*
X46052000Y-67102133D01*
X46052000Y-67597870D01*
X46052001Y-67597876D01*
X46058148Y-67655059D01*
X46045741Y-67723819D01*
X45998130Y-67774955D01*
X45930430Y-67792233D01*
X45930037Y-67792218D01*
X43723178Y-67706348D01*
X43656954Y-67684072D01*
X43613287Y-67629529D01*
X43603999Y-67582446D01*
X43603999Y-67102128D01*
X43597591Y-67042517D01*
X43584524Y-67007483D01*
X43547297Y-66907671D01*
X43547293Y-66907664D01*
X43461047Y-66792455D01*
X43461044Y-66792452D01*
X43345835Y-66706206D01*
X43345828Y-66706202D01*
X43210982Y-66655908D01*
X43210983Y-66655908D01*
X43151383Y-66649501D01*
X43151381Y-66649500D01*
X43151373Y-66649500D01*
X43151365Y-66649500D01*
X42507999Y-66649500D01*
X42440960Y-66629815D01*
X42395205Y-66577011D01*
X42383999Y-66525500D01*
X42383999Y-65208117D01*
X42403684Y-65141078D01*
X42456488Y-65095323D01*
X42505827Y-65084137D01*
X45925857Y-65024436D01*
X45993229Y-65042947D01*
G37*
%TD.AperFunction*%
%TD*%
%TA.AperFunction,Conductor*%
%TO.N,/inverter/1VS2*%
G36*
X46111161Y-57561249D02*
G01*
X46157607Y-57613446D01*
X46169500Y-57666437D01*
X46169500Y-57948989D01*
X46149815Y-58016028D01*
X46148604Y-58017877D01*
X46133366Y-58040682D01*
X46094128Y-58135414D01*
X46094128Y-58135415D01*
X46057950Y-58222755D01*
X46057947Y-58222764D01*
X46046344Y-58281098D01*
X46019500Y-58416048D01*
X46019500Y-58416053D01*
X46019500Y-58663541D01*
X46019500Y-58663543D01*
X46019499Y-58663543D01*
X46057947Y-58856829D01*
X46057950Y-58856839D01*
X46133364Y-59038907D01*
X46133369Y-59038916D01*
X46148601Y-59061711D01*
X46169480Y-59128388D01*
X46169500Y-59130604D01*
X46169500Y-59462869D01*
X46169501Y-59462879D01*
X46176367Y-59526751D01*
X46176367Y-59553257D01*
X46175909Y-59557516D01*
X46175909Y-59557517D01*
X46169500Y-59617127D01*
X46169500Y-59617128D01*
X46169500Y-59617132D01*
X46169500Y-59779546D01*
X46149815Y-59846585D01*
X46133183Y-59867226D01*
X46106639Y-59893770D01*
X46106638Y-59893772D01*
X46084701Y-59926604D01*
X46084699Y-59926607D01*
X46038188Y-59996214D01*
X46038186Y-59996217D01*
X46038185Y-59996219D01*
X46014720Y-60052871D01*
X45988706Y-60115675D01*
X45986635Y-60114817D01*
X45953829Y-60164860D01*
X45890012Y-60193307D01*
X45871543Y-60194399D01*
X43842562Y-60162695D01*
X43775838Y-60141965D01*
X43730914Y-60088453D01*
X43720499Y-60038714D01*
X43720499Y-59557128D01*
X43714091Y-59497517D01*
X43701169Y-59462872D01*
X43663797Y-59362671D01*
X43663793Y-59362664D01*
X43577547Y-59247455D01*
X43577544Y-59247452D01*
X43462335Y-59161206D01*
X43462328Y-59161202D01*
X43327482Y-59110908D01*
X43327483Y-59110908D01*
X43267883Y-59104501D01*
X43267881Y-59104500D01*
X43267873Y-59104500D01*
X43267865Y-59104500D01*
X42624499Y-59104500D01*
X42557460Y-59084815D01*
X42511705Y-59032011D01*
X42500499Y-58980500D01*
X42500499Y-57711450D01*
X42520184Y-57644411D01*
X42572988Y-57598656D01*
X42622862Y-57587462D01*
X46043872Y-57542449D01*
X46111161Y-57561249D01*
G37*
%TD.AperFunction*%
%TD*%
%TA.AperFunction,Conductor*%
%TO.N,Net-(Q1-S-Pad1)*%
G36*
X49197059Y-65168321D02*
G01*
X49263821Y-65188918D01*
X49308851Y-65242342D01*
X49319362Y-65292951D01*
X49310670Y-66970522D01*
X49290639Y-67037459D01*
X49237598Y-67082940D01*
X49180672Y-67093735D01*
X47821281Y-67027882D01*
X47755273Y-67004976D01*
X47712126Y-66950020D01*
X47711127Y-66947435D01*
X47696296Y-66907669D01*
X47696294Y-66907667D01*
X47696294Y-66907665D01*
X47610047Y-66792455D01*
X47610044Y-66792452D01*
X47494835Y-66706206D01*
X47494828Y-66706202D01*
X47359982Y-66655908D01*
X47359983Y-66655908D01*
X47300383Y-66649501D01*
X47300381Y-66649500D01*
X47300373Y-66649500D01*
X47300365Y-66649500D01*
X46681500Y-66649500D01*
X46614461Y-66629815D01*
X46568706Y-66577011D01*
X46557500Y-66525500D01*
X46557500Y-66485862D01*
X46558211Y-66472604D01*
X46561012Y-66446556D01*
X46561013Y-66446545D01*
X46561467Y-66442321D01*
X46561469Y-66442305D01*
X46564367Y-66388257D01*
X46564367Y-66361751D01*
X46561471Y-66307723D01*
X46558210Y-66277386D01*
X46557500Y-66264134D01*
X46557500Y-65835862D01*
X46558211Y-65822604D01*
X46561012Y-65796556D01*
X46561013Y-65796545D01*
X46561467Y-65792321D01*
X46561469Y-65792305D01*
X46564367Y-65738257D01*
X46564367Y-65711751D01*
X46561471Y-65657723D01*
X46558210Y-65627386D01*
X46557500Y-65614134D01*
X46557500Y-65257990D01*
X46577185Y-65190951D01*
X46629989Y-65145196D01*
X46683190Y-65134002D01*
X49197059Y-65168321D01*
G37*
%TD.AperFunction*%
%TD*%
%TA.AperFunction,Conductor*%
%TO.N,/inverter/2VS1*%
G36*
X111059385Y-68902407D02*
G01*
X111106170Y-68954300D01*
X111117701Y-69021274D01*
X111111000Y-69083606D01*
X111111000Y-69579346D01*
X111111001Y-69579352D01*
X111117408Y-69638959D01*
X111167702Y-69773804D01*
X111167706Y-69773811D01*
X111253952Y-69889020D01*
X111253955Y-69889023D01*
X111369164Y-69975269D01*
X111369171Y-69975273D01*
X111414118Y-69992037D01*
X111504017Y-70025567D01*
X111563627Y-70031976D01*
X112207000Y-70031975D01*
X112274039Y-70051659D01*
X112319794Y-70104463D01*
X112331000Y-70155975D01*
X112331000Y-71483775D01*
X112311315Y-71550814D01*
X112258511Y-71596569D01*
X112209486Y-71607750D01*
X108809256Y-71675926D01*
X108741835Y-71657589D01*
X108695031Y-71605713D01*
X108683423Y-71547670D01*
X108683000Y-71547670D01*
X108682999Y-71545553D01*
X108682949Y-71545299D01*
X108682998Y-71544367D01*
X108683000Y-71544349D01*
X108682999Y-71048604D01*
X108676591Y-70988993D01*
X108676589Y-70988989D01*
X108676132Y-70984731D01*
X108676132Y-70958221D01*
X108676589Y-70953962D01*
X108676591Y-70953959D01*
X108683000Y-70894349D01*
X108682999Y-70398604D01*
X108676591Y-70338993D01*
X108676589Y-70338989D01*
X108676132Y-70334731D01*
X108676132Y-70308221D01*
X108676589Y-70303962D01*
X108676591Y-70303959D01*
X108683000Y-70244349D01*
X108682999Y-69748604D01*
X108676591Y-69688993D01*
X108676589Y-69688989D01*
X108676132Y-69684731D01*
X108676132Y-69658221D01*
X108676589Y-69653962D01*
X108676591Y-69653959D01*
X108683000Y-69594349D01*
X108682999Y-69394276D01*
X108701262Y-69332073D01*
X108700440Y-69331634D01*
X108702552Y-69327682D01*
X108702683Y-69327237D01*
X108703264Y-69326349D01*
X108703305Y-69326271D01*
X108703312Y-69326261D01*
X108750463Y-69212427D01*
X108762400Y-69152416D01*
X108774501Y-69091584D01*
X108774501Y-69049279D01*
X108794186Y-68982240D01*
X108846990Y-68936485D01*
X108896057Y-68925303D01*
X109482169Y-68913765D01*
X109523605Y-68920034D01*
X109573747Y-68936650D01*
X109674823Y-68946976D01*
X110273176Y-68946975D01*
X110273184Y-68946974D01*
X110273187Y-68946974D01*
X110296665Y-68944575D01*
X110374253Y-68936650D01*
X110486213Y-68899549D01*
X110522759Y-68893281D01*
X110991972Y-68884045D01*
X111059385Y-68902407D01*
G37*
%TD.AperFunction*%
%TD*%
%TA.AperFunction,Conductor*%
%TO.N,/inverter/2VS2*%
G36*
X110822142Y-61541616D02*
G01*
X110868098Y-61594246D01*
X110879500Y-61646186D01*
X110879500Y-62072870D01*
X110879501Y-62072876D01*
X110885908Y-62132483D01*
X110936202Y-62267328D01*
X110936206Y-62267335D01*
X111022452Y-62382544D01*
X111022455Y-62382547D01*
X111137664Y-62468793D01*
X111137671Y-62468797D01*
X111175500Y-62482906D01*
X111272517Y-62519091D01*
X111332127Y-62525500D01*
X111975500Y-62525499D01*
X112042539Y-62545183D01*
X112088294Y-62597987D01*
X112099500Y-62649499D01*
X112099501Y-63920976D01*
X112079816Y-63988015D01*
X112027013Y-64033770D01*
X111975501Y-64044976D01*
X108574500Y-64044976D01*
X108507461Y-64025291D01*
X108461706Y-63972487D01*
X108450500Y-63920977D01*
X108450499Y-63757081D01*
X108470183Y-63690041D01*
X108471332Y-63688287D01*
X108486632Y-63665390D01*
X108562051Y-63483311D01*
X108600500Y-63290017D01*
X108600500Y-63092935D01*
X108600500Y-63092932D01*
X108600499Y-63092930D01*
X108562052Y-62899647D01*
X108562051Y-62899641D01*
X108558064Y-62890016D01*
X108516367Y-62789349D01*
X108486632Y-62717562D01*
X108471396Y-62694760D01*
X108450519Y-62628082D01*
X108450499Y-62625870D01*
X108450499Y-62293605D01*
X108450499Y-62293604D01*
X108444091Y-62233993D01*
X108444089Y-62233989D01*
X108443632Y-62229731D01*
X108443632Y-62203221D01*
X108444089Y-62198962D01*
X108444091Y-62198959D01*
X108450500Y-62139349D01*
X108450499Y-61875666D01*
X108459937Y-61828216D01*
X108468963Y-61806427D01*
X108493000Y-61685583D01*
X108493000Y-61654318D01*
X108512685Y-61587279D01*
X108565489Y-61541524D01*
X108616523Y-61530320D01*
X110755034Y-61522188D01*
X110822142Y-61541616D01*
G37*
%TD.AperFunction*%
%TD*%
%TA.AperFunction,Conductor*%
%TO.N,/inverter/2VS3*%
G36*
X111008457Y-54110293D02*
G01*
X111075420Y-54130221D01*
X111120982Y-54183192D01*
X111132000Y-54234291D01*
X111132000Y-54702346D01*
X111132001Y-54702352D01*
X111138408Y-54761959D01*
X111188702Y-54896804D01*
X111188706Y-54896811D01*
X111274952Y-55012020D01*
X111274955Y-55012023D01*
X111390164Y-55098269D01*
X111390171Y-55098273D01*
X111435118Y-55115037D01*
X111525017Y-55148567D01*
X111584627Y-55154976D01*
X112228000Y-55154975D01*
X112295039Y-55174659D01*
X112340794Y-55227463D01*
X112352000Y-55278975D01*
X112352001Y-56350500D01*
X112332317Y-56417539D01*
X112279513Y-56463294D01*
X112228001Y-56474500D01*
X111438388Y-56474500D01*
X111317555Y-56498535D01*
X111317547Y-56498537D01*
X111203716Y-56545687D01*
X111101266Y-56614142D01*
X110950767Y-56764641D01*
X110889444Y-56798125D01*
X110865855Y-56800928D01*
X108865938Y-56845592D01*
X108798475Y-56827409D01*
X108751553Y-56775640D01*
X108739880Y-56708368D01*
X108740643Y-56701267D01*
X108743000Y-56679349D01*
X108742999Y-56434802D01*
X108746476Y-56406558D01*
X108746414Y-56406546D01*
X108746586Y-56405668D01*
X108746703Y-56404721D01*
X108747014Y-56403470D01*
X108747023Y-56403442D01*
X108747024Y-56403438D01*
X108767500Y-56261022D01*
X108767500Y-55305975D01*
X108755947Y-55198521D01*
X108745833Y-55152027D01*
X108742999Y-55125669D01*
X108742999Y-54883605D01*
X108742999Y-54883604D01*
X108736591Y-54823993D01*
X108736589Y-54823989D01*
X108736132Y-54819731D01*
X108736132Y-54793221D01*
X108736589Y-54788962D01*
X108736591Y-54788959D01*
X108743000Y-54729349D01*
X108742999Y-54538462D01*
X108762683Y-54471423D01*
X108763868Y-54469614D01*
X108781812Y-54442761D01*
X108828963Y-54328927D01*
X108847925Y-54233603D01*
X108854075Y-54202683D01*
X108886460Y-54140772D01*
X108947175Y-54106198D01*
X108976135Y-54102876D01*
X111008457Y-54110293D01*
G37*
%TD.AperFunction*%
%TD*%
%TA.AperFunction,Conductor*%
%TO.N,Net-(Q12-S-Pad1)*%
G36*
X107048579Y-54867961D02*
G01*
X107093704Y-54916430D01*
X107094453Y-54916022D01*
X107096054Y-54918954D01*
X107096189Y-54919099D01*
X107096408Y-54919602D01*
X107098706Y-54923811D01*
X107184952Y-55039020D01*
X107184955Y-55039023D01*
X107300164Y-55125269D01*
X107300171Y-55125273D01*
X107327999Y-55135652D01*
X107435017Y-55175567D01*
X107494627Y-55181976D01*
X108138000Y-55181975D01*
X108205039Y-55201659D01*
X108250794Y-55254463D01*
X108262000Y-55305975D01*
X108262000Y-56261022D01*
X108242315Y-56328061D01*
X108225682Y-56348702D01*
X108186205Y-56388180D01*
X108124883Y-56421666D01*
X108098523Y-56424500D01*
X105813484Y-56424500D01*
X105746445Y-56404815D01*
X105700690Y-56352011D01*
X105690013Y-56289059D01*
X105705215Y-56125000D01*
X105705215Y-56124999D01*
X105686397Y-55921917D01*
X105630582Y-55725750D01*
X105623059Y-55710642D01*
X105612999Y-55690437D01*
X105600000Y-55635167D01*
X105600000Y-55019650D01*
X105619685Y-54952611D01*
X105672489Y-54906856D01*
X105719571Y-54895729D01*
X106980882Y-54850682D01*
X107048579Y-54867961D01*
G37*
%TD.AperFunction*%
%TD*%
M02*
