M48
; DRILL file {KiCad 8.0.2} date 2024-05-01T20:18:55+0800
; FORMAT={-:-/ absolute / inch / decimal}
; #@! TF.CreationDate,2024-05-01T20:18:55+08:00
; #@! TF.GenerationSoftware,Kicad,Pcbnew,8.0.2
; #@! TF.FileFunction,Plated,1,4,PTH
FMAT,2
INCH
; #@! TA.AperFunction,Plated,PTH,ViaDrill
T1C0.0098
; #@! TA.AperFunction,Plated,PTH,ViaDrill
T2C0.0118
; #@! TA.AperFunction,Plated,PTH,ComponentDrill
T3C0.0118
; #@! TA.AperFunction,Plated,PTH,ViaDrill
T4C0.0157
; #@! TA.AperFunction,Plated,PTH,ViaDrill
T5C0.0197
; #@! TA.AperFunction,Plated,PTH,ViaDrill
T6C0.0236
; #@! TA.AperFunction,Plated,PTH,ComponentDrill
T7C0.0394
; #@! TA.AperFunction,Plated,PTH,ComponentDrill
T8C0.0709
; #@! TA.AperFunction,Plated,PTH,ComponentDrill
T9C0.0866
%
G90
G05
T1
X3.1068Y-1.5657
X3.5748Y-1.625
X3.6378Y-1.4213
X3.6841Y-1.4331
T2
X3.4252Y-2.5827
X3.5315Y-1.5709
X3.7717Y-1.5778
T3
X2.2437Y-1.5394
X2.2437Y-1.5866
X2.2437Y-1.6378
X2.2437Y-1.6811
X2.2909Y-1.5394
X2.2909Y-1.5866
X2.2909Y-1.6378
X2.2909Y-1.6811
T4
X4.6181Y-1.563
T5
X1.4764Y-1.5591
X2.5512Y-1.2559
X2.5906Y-2.3465
X2.6457Y-2.1575
X2.7008Y-2.2953
X2.7047Y-2.1614
X2.7087Y-2.0276
X2.7165Y-2.374
X2.7717Y-1.5866
X2.7756Y-1.5354
X2.7913Y-2.374
X2.8268Y-2.2283
X2.8543Y-2.5827
X2.878Y-1.9252
X2.9016Y-1.5315
X2.9646Y-2.2244
X2.9803Y-1.5276
X2.9843Y-2.1654
X2.9921Y-1.7717
X3.0394Y-1.7283
X3.0591Y-1.9921
X3.0591Y-2.1969
X3.063Y-1.4606
X3.0906Y-1.7087
X3.1024Y-1.7717
X3.122Y-1.9921
X3.1299Y-1.4606
X3.1457Y-2.3661
X3.2441Y-2.063
X3.2441Y-2.1181
X3.2795Y-2.3701
X3.3214Y-1.7598
X3.3465Y-2.374
X3.374Y-1.7598
X3.6102Y-1.3268
X3.6654Y-1.3243
X3.7008Y-1.752
X3.7879Y-1.4286
T6
X1.4118Y-2.3193
X1.4685Y-2.2484
X1.4693Y-2.3862
X4.6059Y-2.4587
X4.6079Y-2.3209
X4.6661Y-2.3894
T7
X2.8051Y-2.7795
X2.9051Y-2.7795
X3.0051Y-2.7795
X3.1051Y-2.7795
X3.2051Y-2.7795
X3.3051Y-2.7795
T8
X2.2008Y-1.9016
X2.3583Y-1.9016
T9
X1.3764Y-1.3087
X1.3764Y-2.7417
X4.711Y-1.3087
X4.711Y-2.7417
M30
