%TF.GenerationSoftware,KiCad,Pcbnew,8.0.2*%
%TF.CreationDate,2024-05-19T23:36:11+08:00*%
%TF.ProjectId,bldcDriver,626c6463-4472-4697-9665-722e6b696361,rev?*%
%TF.SameCoordinates,Original*%
%TF.FileFunction,Soldermask,Top*%
%TF.FilePolarity,Negative*%
%FSLAX46Y46*%
G04 Gerber Fmt 4.6, Leading zero omitted, Abs format (unit mm)*
G04 Created by KiCad (PCBNEW 8.0.2) date 2024-05-19 23:36:11*
%MOMM*%
%LPD*%
G01*
G04 APERTURE LIST*
%ADD10R,1.700000X0.500000*%
%ADD11R,2.500000X1.200000*%
%ADD12R,3.800000X3.800000*%
%ADD13C,3.800000*%
%ADD14R,0.500000X1.700000*%
%ADD15R,1.200000X2.500000*%
%ADD16C,4.400000*%
%ADD17R,1.000000X1.000000*%
G04 APERTURE END LIST*
D10*
%TO.C,J5*%
X37400000Y-40000000D03*
X37400000Y-41000000D03*
X37400000Y-42000000D03*
X37400000Y-43000000D03*
X37400000Y-44000000D03*
X37400000Y-45000000D03*
D11*
X34000000Y-46100000D03*
X34000000Y-38900000D03*
%TD*%
%TO.C,J3*%
X120650000Y-47600000D03*
X120650000Y-40400000D03*
D10*
X117250000Y-41500000D03*
X117250000Y-42500000D03*
X117250000Y-43500000D03*
X117250000Y-44500000D03*
X117250000Y-45500000D03*
X117250000Y-46500000D03*
%TD*%
D12*
%TO.C,J1*%
X59700000Y-48850000D03*
D13*
X54700000Y-48850000D03*
%TD*%
D14*
%TO.C,J2*%
X79700000Y-70750000D03*
X78700000Y-70750000D03*
X77700000Y-70750000D03*
X76700000Y-70750000D03*
X75700000Y-70750000D03*
X74700000Y-70750000D03*
D15*
X73600000Y-67350000D03*
X80800000Y-67350000D03*
%TD*%
D16*
%TO.C,*%
X34960000Y-33240000D03*
%TD*%
%TO.C,*%
X119660000Y-33240000D03*
%TD*%
%TO.C,*%
X119660000Y-69640000D03*
%TD*%
%TO.C,*%
X34960000Y-69640000D03*
%TD*%
D10*
%TO.C,J4*%
X104763500Y-41700000D03*
X104763500Y-40700000D03*
X104763500Y-39700000D03*
D11*
X108163500Y-42800000D03*
X108163500Y-38600000D03*
%TD*%
D17*
%TO.C,TP1*%
X37386500Y-59843500D03*
%TD*%
D10*
%TO.C,CN2*%
X117171500Y-61703500D03*
X117171500Y-60703500D03*
X117171500Y-59703500D03*
D11*
X120571500Y-58603500D03*
X120571500Y-62803500D03*
%TD*%
D17*
%TO.C,TP3*%
X37366500Y-56433500D03*
%TD*%
%TO.C,TP5*%
X118520000Y-60690000D03*
%TD*%
%TO.C,TP2*%
X35266500Y-58133500D03*
%TD*%
%TO.C,TP4*%
X117040000Y-59000000D03*
%TD*%
D10*
%TO.C,CN1*%
X37285000Y-57100000D03*
X37285000Y-58100000D03*
X37285000Y-59100000D03*
D11*
X33885000Y-60200000D03*
X33885000Y-56000000D03*
%TD*%
D17*
%TO.C,TP6*%
X116990000Y-62400000D03*
%TD*%
M02*
